<svg height="568" version="1.1" width="1066" xmlns="http://www.w3.org/2000/svg" xmlns:xlink="http://www.w3.org/1999/xlink" style="overflow: hidden; position: relative; user-select: text;"><desc style="-webkit-tap-highlight-color: rgba(0, 0, 0, 0); user-select: text;">Created with Raphaël 2.2.0</desc><defs style="-webkit-tap-highlight-color: rgba(0, 0, 0, 0); user-select: text;"></defs><path fill="none" stroke="#ff0000" d="M87,99L87,99L87,98L86,97L85,96L84,93L84,90L83,87L81,83L81,80L81,78L81,74L81,72L81,69L81,68L81,66L81,65L81,64L81,63L83,62L84,61L87,60L89,60L93,60L95,60L97,60L100,60L102,60L104,60L106,60L107,61L107,61L108,62L108,62L109,62L109,63L109,64L109,64L109,65L109,68L108,70L106,72L104,75L102,78L99,81L98,83L96,85L93,87L90,89L88,90L86,91L84,92L83,93L81,93L80,93L78,93L77,93L77,93L76,93L76,93L76,93L76,93L76,93L76,92L75,92L75,92L75,91L75,91L75,91L74,90L74,90L73,90L73,90L72,90L71,90L71,90L70,90L70,90L69,90L69,90L69,90L69,90L69,89L69,89L69,89L69,89L70,89" stroke-opacity="1" stroke-width="5" stroke-linecap="round" stroke-linejoin="round" style="-webkit-tap-highlight-color: rgba(0, 0, 0, 0); stroke-opacity: 1; stroke-linecap: round; stroke-linejoin: round; user-select: text;"></path><path fill="none" stroke="#ff0000" d="M158,67L158,67L159,67L162,65L165,63L168,62L172,60L178,58L183,56L187,55L192,54L194,54L198,53L200,53L202,53L204,53L205,53L206,53L206,53L206,53L207,53L207,54L207,54L207,55L207,56L207,58L207,60L207,62L206,64L205,66L204,68L203,70L202,72L201,74L199,75L198,76L196,78L195,79L193,80L192,81L190,82L188,82L187,84L186,84L184,85L183,85L182,86L181,86L180,86L179,86L178,87L178,87L177,87L176,87L176,87L176,87L175,87L175,86L175,86L175,85L175,84L175,83L175,81L175,80L175,79L176,77L177,75L179,73L181,71L184,69L185,69L188,68L191,67L193,66L195,66L197,65L199,65L201,65L203,65L205,65L207,65L208,65L210,65L212,66L213,67L214,67L215,68L216,68L216,68L217,69L217,69L217,69L218,69L218,70L218,70" stroke-opacity="1" stroke-width="5" stroke-linecap="round" stroke-linejoin="round" style="-webkit-tap-highlight-color: rgba(0, 0, 0, 0); stroke-opacity: 1; stroke-linecap: round; stroke-linejoin: round; user-select: text;"></path><path fill="none" stroke="#ff0000" d="M257,68L258,68L259,68L260,68L261,67L263,67L265,67L267,67L268,67L270,66L272,66L273,66L275,66L276,66L278,66L279,66L281,66L283,66L284,66L286,66L288,66L289,67L291,68L292,69L293,70L294,71L295,73L296,74L296,75L297,77L297,79L297,80L297,82L297,83L297,84L297,86L297,87L297,88L295,90L293,90L292,91L289,92L288,93L286,93L284,94L283,94L281,94L280,94L279,94L278,94L277,94L276,94L275,94L274,93L273,92L272,91L271,90L271,90L270,89L270,88L269,87L269,86L269,86L269,85L268,84L268,83L268,83L268,83L268,82L268,82L268,82L268,82L268,81L268,81L269,80L272,78L276,76L279,75L284,73L289,70L295,68L300,66L301,65L305,63L308,62L310,61L311,61L312,60L313,60L313,60L314,60L314,60L314,60" stroke-opacity="1" stroke-width="5" stroke-linecap="round" stroke-linejoin="round" style="-webkit-tap-highlight-color: rgba(0, 0, 0, 0); stroke-opacity: 1; stroke-linecap: round; stroke-linejoin: round; user-select: text;"></path><path fill="none" stroke="#ff0000" d="M403,76L404,76L405,76L408,76L410,76L414,76L418,76L422,77L425,79L427,79L430,80L432,81L434,83L435,83L436,84L437,85L437,86L437,87L437,88L437,89L437,90L437,92L437,93L437,95L435,96L435,97L432,100L430,101L427,103L424,103L420,104L416,105L415,105L412,105L408,105L405,105L403,105L400,105L398,105L397,105L395,105L394,105L393,105L392,104L391,104L391,104L390,103L390,102L390,102L390,101L390,100L390,99L390,98L390,97L390,96L390,94L390,93L391,91L392,89L394,86L396,84L398,82L401,80L404,79L407,77L410,75L412,75L415,75L418,74L421,74L423,74L425,74L426,74L427,74L428,74L428,74L428,74L429,74L429,74L429,74L429,74" stroke-opacity="1" stroke-width="5" stroke-linecap="round" stroke-linejoin="round" style="-webkit-tap-highlight-color: rgba(0, 0, 0, 0); stroke-opacity: 1; stroke-linecap: round; stroke-linejoin: round; user-select: text;"></path><path fill="none" stroke="#ff0000" d="M505,56L506,56L508,56L511,56L514,56L517,56L523,56L527,56L530,56L534,56L537,56L538,56L541,56L544,56L546,56L548,56L549,56L551,57L552,58L553,58L554,59L555,61L556,62L557,64L557,66L557,67L558,70L558,72L558,73L558,74L558,76L557,77L556,79L554,81L551,82L547,84L543,85L538,86L533,86L528,87L522,87L517,87L515,87L511,87L507,87L504,87L501,87L499,87L497,87L496,86L495,86L494,85L494,84L494,84L494,83L494,81L494,79L494,77L494,74L495,71L497,68L498,66L501,61L502,60L504,57L507,55L511,52L512,51L515,50L518,49L520,49L523,48L525,48L527,47L530,47L532,47L534,47L536,47L537,47L538,47L539,47L540,47L540,47L540,47L540,47L541,47L541,47" stroke-opacity="1" stroke-width="5" stroke-linecap="round" stroke-linejoin="round" style="-webkit-tap-highlight-color: rgba(0, 0, 0, 0); stroke-opacity: 1; stroke-linecap: round; stroke-linejoin: round; user-select: text;"></path><path fill="none" stroke="#ff0000" d="M642,59L639,58L637,58L635,58L634,58L633,58L632,58L632,58L631,58L631,58L631,58L630,58L629,58L628,58L626,58L625,58L623,58L622,58L620,58L619,58L618,58L618,58L617,58L617,58L617,58L617,60L617,62L617,64L617,67L617,70L617,74L617,78L617,81L617,84L617,90L617,91L619,94L620,96L621,98L623,99L625,101L628,103L630,103L633,104L637,104L641,105L646,105L652,105L657,105L659,105L664,105L668,105L671,105L673,105L675,105L676,104L677,104L678,104L678,104L678,104L678,103L679,103L679,102L679,101L679,100L679,98L679,95L679,92L678,90L677,87L676,84L674,81L672,78L670,76L669,75L667,73L664,70L663,69L659,67L657,66L655,66L653,65L651,64L649,64L648,64L646,64L645,64L644,64L643,64L642,64L642,64L642,64L641,64L641,64L641,65L641,65L641,65L640,66L640,67L640,68L640,70L639,71L639,73L639,76L639,78L639,80L639,82L639,84L639,85L639,86L639,88L639,89L640,89L641,90L641,90L642,90L643,91L643,91L644,91L644,91L645,91L645,91L645,91L646,91L646,91L646,91L647,91L647,91" stroke-opacity="1" stroke-width="5" stroke-linecap="round" stroke-linejoin="round" style="-webkit-tap-highlight-color: rgba(0, 0, 0, 0); stroke-opacity: 1; stroke-linecap: round; stroke-linejoin: round; user-select: text;"></path><path fill="none" stroke="#ff0000" d="M740,84L741,84L741,84L741,84L741,83L739,82L738,80L737,79L735,77L734,75L733,74L732,72L731,70L730,69L729,68L729,67L729,67L729,66L729,65L729,65L729,65L730,64L731,63L734,61L737,60L740,59L744,57L749,55L754,54L758,53L763,53L765,52L769,52L772,52L774,52L776,52L778,52L780,52L780,52L782,53L782,54L783,55L783,57L784,59L784,61L784,62L784,65L784,67L784,69L784,71L784,73L784,74L784,76L782,77L781,78L780,80L778,82L776,83L773,84L770,84L767,85L764,85L761,86L756,86L754,86L752,86L750,86L748,86L746,86L744,86L744,86L743,85L742,85L741,84L741,84L741,84L741,84L741,83L741,83L741,83L741,82L741,82L741,81L742,80L743,79L747,77L750,74L755,72L758,71L761,70L764,69L767,69L770,68L772,68L774,68L775,68L775,68L776,68L776,68L777,68L777,68L777,68L777,69L777,69" stroke-opacity="1" stroke-width="5" stroke-linecap="round" stroke-linejoin="round" style="-webkit-tap-highlight-color: rgba(0, 0, 0, 0); stroke-opacity: 1; stroke-linecap: round; stroke-linejoin: round; user-select: text;"></path><path fill="none" stroke="#ff0000" d="M869,67L869,67L869,67L870,67L870,67L870,67L871,67L871,67L872,67L872,67L873,67L875,67L876,67L879,67L881,67L885,68L889,70L892,71L894,72L898,73L900,74L902,75L903,75L904,75L904,75L904,75L905,75L905,75L906,75L906,75L907,75L907,75L908,76L908,76L908,76L908,77L908,77L908,78L908,80L906,82L904,84L902,87L898,91L894,94L891,97L887,100L885,102L881,104L878,106L875,108L873,109L871,110L870,110L868,110L867,111L866,111L865,111L864,111L864,111L863,111L863,110L862,109L862,108L861,106L860,104L860,103L859,99L858,97L857,95L856,92L856,90L855,88L854,86L853,84L853,83L852,81L852,80L852,78L851,77L851,75L851,73L851,72L851,70L851,67L851,66L851,63L851,62L853,59L855,58L858,56L862,56L866,55L871,55L877,55L882,55L888,55L893,55L898,57L900,58L903,60L906,62L908,63L910,65L911,66L912,67L912,68L912,69L913,70L913,70L913,71L913,72L913,74L912,75L909,77L908,78L906,79L903,81L901,82L899,82L895,84L893,85L890,86L888,86L886,86L884,87L882,87L881,87L880,88L879,88L878,88L878,88L878,88L877,88L877,88" stroke-opacity="1" stroke-width="5" stroke-linecap="round" stroke-linejoin="round" style="-webkit-tap-highlight-color: rgba(0, 0, 0, 0); stroke-opacity: 1; stroke-linecap: round; stroke-linejoin: round; user-select: text;"></path><path fill="none" stroke="#ff0000" d="M959,85L961,85L961,85L961,85L962,85L963,85L964,85L967,85L973,85L977,85L982,85L985,85L990,85L994,85L998,85L1000,85L1002,85L1003,85L1003,85L1004,85L1004,85L1004,86L1004,85L1004,81L1003,77L1001,74L999,71L998,70L995,68L993,66L992,65L991,64L989,64L988,64L987,64L986,64L986,64L985,64L985,64L984,64L983,65L981,67L979,69L978,71L976,74L974,77L972,81L971,84L969,88L968,91L967,93L966,97L965,100L965,103L965,106L965,110L965,113L965,116L965,119L966,121L968,125L970,126L972,129L975,132L976,132L979,133L983,135L985,135L987,135L990,135L991,135L994,135L995,135L997,133L998,132L999,130L1000,129L1001,126L1001,124L1001,121L1001,119L1001,116L1000,114L999,111L997,108L994,105L991,103L990,102L987,100L985,98L983,97L982,96L981,96L980,96L979,96L979,96L978,96L978,96L977,96L977,96L977,96L977,96L976,96L976,96L976,96L975,96L974,96L973,96" stroke-opacity="1" stroke-width="5" stroke-linecap="round" stroke-linejoin="round" style="-webkit-tap-highlight-color: rgba(0, 0, 0, 0); stroke-opacity: 1; stroke-linecap: round; stroke-linejoin: round; user-select: text;"></path><path fill="none" stroke="#27ff4f" d="M406,92L407,92L408,92L409,92L411,92L413,92L415,92L416,93L418,93L419,94L420,94L420,94L421,95L421,96L421,96L422,97L422,97L422,98L422,98L422,99L422,100L422,101L422,102L422,104L422,106L420,107L419,109L416,111L413,113L410,115L406,116L401,117L397,117L395,117L391,117L388,117L385,117L383,117L381,117L380,116L378,115L378,114L377,113L377,111L377,109L377,106L377,103L378,100L380,95L382,90L385,85L388,80L390,78L391,75L393,72L394,70L395,69L396,68L397,67L397,66L398,66L399,66L400,65L402,65L405,65L408,65L412,65L416,65L419,66L422,68L426,70L428,72L431,74L433,78L433,79L435,84L436,86L437,91L437,94L437,97L437,101L437,104L437,106L436,109L435,111L434,114L433,115L432,117L430,118L429,119L428,120L428,121" stroke-opacity="1" stroke-width="5" stroke-linecap="round" stroke-linejoin="round" style="-webkit-tap-highlight-color: rgba(0, 0, 0, 0); stroke-opacity: 1; stroke-linecap: round; stroke-linejoin: round; user-select: text;"></path><path fill="none" stroke="#27ff4f" d="M294,79L294,80L294,80L294,80L293,80L293,80L293,80L292,80L291,80L289,80L289,80L287,80L285,80L283,80L281,79L279,77L276,75L274,73L272,70L270,67L268,63L267,59L266,55L266,51L266,47L266,46L266,40L266,37L266,35L268,32L269,31L272,28L274,27L277,26L280,25L282,25L287,25L288,25L291,25L293,25L296,26L298,27L300,30L302,32L303,35L305,39L306,43L307,48L307,53L308,59L308,65L308,70L308,73L308,77L308,81L308,84L307,87L307,88L305,90L305,92L304,93L303,94L301,95L300,96L298,97L296,97L294,97L291,98L289,98L287,98L285,98L283,98L282,98L280,97L280,97L279,96L278,95L277,94L277,93L276,91L276,90L276,89L275,87L275,85L275,84L275,82L275,80L275,78L275,77L275,76L275,75L275,74L275,74L275,73L275,73L275,73L275,72L275,72" stroke-opacity="1" stroke-width="5" stroke-linecap="round" stroke-linejoin="round" style="-webkit-tap-highlight-color: rgba(0, 0, 0, 0); stroke-opacity: 1; stroke-linecap: round; stroke-linejoin: round; user-select: text;"></path><path fill="none" stroke="#27ff4f" d="M188,77L188,76L188,76L188,75L188,73L188,71L188,70L188,69L187,66L187,65L186,63L186,61L186,60L186,58L186,57L186,56L186,56L186,55L186,55L186,54L187,54L189,53L192,52L194,51L195,51L198,50L200,50L203,50L205,50L207,50L209,50L210,51L212,53L213,56L214,59L215,62L216,67L217,72L217,77L218,81L218,84L218,88L218,91L218,94L218,96L217,99L216,100L215,102L214,103L213,104L212,105L210,105L208,106L205,107L203,107L200,107L197,107L196,107L194,107L191,107L189,106L187,105L184,102L183,101L181,99L179,95L178,94L177,91L177,89L176,84L176,81L176,78L176,75L176,74L176,71L176,69L176,66L177,64L177,63L177,62L178,62L178,61L178,61L179,61L179,61L179,61L179,61L179,61L179,61" stroke-opacity="1" stroke-width="5" stroke-linecap="round" stroke-linejoin="round" style="-webkit-tap-highlight-color: rgba(0, 0, 0, 0); stroke-opacity: 1; stroke-linecap: round; stroke-linejoin: round; user-select: text;"></path><path fill="none" stroke="#27ff4f" d="M96,73L96,73L95,73L93,71L91,70L88,67L84,64L81,61L77,58L76,57L74,53L73,52L72,49L71,48L71,46L71,45L71,45L71,44L71,44L71,43L71,43L73,43L74,43L75,43L76,43L77,43L79,43L81,43L82,43L85,44L87,46L89,47L90,48L93,52L93,53L96,57L97,60L97,63L98,66L98,70L98,74L98,77L98,79L98,82L98,85L96,87L96,89L94,90L93,91L91,92L89,93L88,94L86,94L83,94L81,94L79,94L77,94L75,94L73,92L72,91L69,88L67,86L65,83L64,81L63,78L62,74L61,71L60,67L60,65L59,59L59,57L59,54L59,51L59,48L59,46L59,44L60,43L62,41L64,39L66,38L67,38L70,37L72,37L75,37L78,37L81,37L83,39L86,42L88,45L90,49L92,53L93,55L95,58L95,62L96,65L96,68L96,71L96,73L96,75L96,77L96,78L96,79L96,80L96,80L96,81L96,81L95,81L95,81" stroke-opacity="1" stroke-width="5" stroke-linecap="round" stroke-linejoin="round" style="-webkit-tap-highlight-color: rgba(0, 0, 0, 0); stroke-opacity: 1; stroke-linecap: round; stroke-linejoin: round; user-select: text;"></path><path fill="none" stroke="#27ff4f" d="M522,88L522,87L522,86L521,85L520,82L518,79L516,75L514,70L513,66L512,61L512,57L512,55L512,49L512,47L512,44L512,42L512,39L513,37L516,36L520,34L525,33L527,33L533,33L537,33L539,33L542,33L545,34L547,35L549,37L551,40L552,42L552,46L553,50L553,54L553,58L552,63L550,68L547,73L546,75L542,81L540,85L538,88L535,90L532,92L529,94L524,95L521,96L517,96L513,96L509,96L505,96L504,96L500,95L498,93L496,92L494,91L493,90L493,89L492,88L492,87L492,86L492,84L492,82L493,80L497,77L502,72L509,68L516,64L520,63L528,61L531,60L536,59L540,59L543,59L546,59L547,59L548,59L549,60L549,62L550,65L550,67L550,70L550,74L548,77L547,81L545,86L543,90L541,95L539,99L537,101L535,105L534,107L532,110L530,112L529,114L528,115L528,115" stroke-opacity="1" stroke-width="5" stroke-linecap="round" stroke-linejoin="round" style="-webkit-tap-highlight-color: rgba(0, 0, 0, 0); stroke-opacity: 1; stroke-linecap: round; stroke-linejoin: round; user-select: text;"></path><path fill="none" stroke="#27ff4f" d="M671,100L670,100L669,100L667,99L664,98L660,96L656,95L651,92L646,91L642,88L639,86L636,85L635,83L633,82L631,80L630,79L629,78L629,77L629,76L629,76L629,74L629,73L632,70L639,68L653,63L660,60L666,59L676,57L685,56L692,56L698,56L702,56L704,57L706,59L708,61L710,64L711,67L712,70L712,74L712,77L711,82L709,86L707,90L704,95L700,99L696,103L691,106L686,109L681,112L675,114L669,115L663,116L658,116L652,117L648,117L646,117L642,117L640,117L638,117L637,116L636,115L635,115L635,114L635,113L635,111L635,109L635,106L635,103L636,99L636,97L638,94L639,90L641,87L642,85L643,83L644,81L645,79L646,78L647,77L648,76L648,76L648,76L649,76L649,75L649,75" stroke-opacity="1" stroke-width="5" stroke-linecap="round" stroke-linejoin="round" style="-webkit-tap-highlight-color: rgba(0, 0, 0, 0); stroke-opacity: 1; stroke-linecap: round; stroke-linejoin: round; user-select: text;"></path><path fill="none" stroke="#27ff4f" d="M752,88L753,87L753,86L754,85L755,83L756,81L757,78L757,75L758,71L758,67L759,63L759,62L759,58L759,56L759,54L759,53L759,51L758,51L758,50L758,50L758,49L757,49L757,49L757,49L756,49L756,49L756,49L755,49L755,49L755,49L755,49L754,49L754,50L754,53L754,59L754,64L755,68L757,75L759,82L761,88L764,95L766,100L768,103L770,107L772,110L773,112L775,113L776,114L778,115L778,115L779,116L780,116L782,116L783,116L784,113L786,110L788,106L790,102L792,98L794,94L796,89L797,84L797,80L797,78L797,71L797,68L797,66L797,63L796,61L795,59L793,57L792,56L790,55L789,54L787,54L786,54L785,54L782,54L780,54L778,54L776,55L773,57L772,57L769,59L767,60L766,61L765,63L764,63L764,64L764,64L763,65L763,65L763,66L763,67L763,68L764,70L765,71L766,73L767,75L768,77L769,79L770,80L770,81L771,82L771,83L771,84L771,85L771,86L771,87L771,88" stroke-opacity="1" stroke-width="5" stroke-linecap="round" stroke-linejoin="round" style="-webkit-tap-highlight-color: rgba(0, 0, 0, 0); stroke-opacity: 1; stroke-linecap: round; stroke-linejoin: round; user-select: text;"></path><path fill="none" stroke="#27ff4f" d="M882,97L882,97L882,96L882,94L882,91L883,88L884,84L886,79L887,74L888,72L889,68L890,65L891,62L892,60L892,58L893,57L893,56L893,54L893,53L893,52L892,51L892,50L890,49L889,48L887,48L885,47L884,47L881,47L878,47L878,47L876,47L874,48L873,49L871,50L870,52L869,54L868,57L868,60L868,65L868,72L868,77L870,82L872,88L875,94L878,98L881,102L882,104L885,107L887,109L889,111L891,112L892,113L893,113L894,113L894,114L895,114L896,114L896,114L896,114L897,114L897,114L898,112L899,110L901,107L902,103L903,98L905,93L905,88L906,82L906,77L906,73L906,68L903,64L902,63L899,61L897,59L896,58L894,58L893,57L892,57L891,57L891,57L890,57L890,57L889,57L889,58L888,58L888,59L886,61L886,63L884,65L884,68L883,72L882,76L882,78L881,82L880,84L880,86L880,88L880,89L880,89L880,90L880,90L880,90" stroke-opacity="1" stroke-width="5" stroke-linecap="round" stroke-linejoin="round" style="-webkit-tap-highlight-color: rgba(0, 0, 0, 0); stroke-opacity: 1; stroke-linecap: round; stroke-linejoin: round; user-select: text;"></path><path fill="none" stroke="#27ff4f" d="M973,101L973,101L974,101L976,101L979,101L986,101L993,101L1002,101L1012,101L1023,101L1027,101L1035,101L1038,100L1044,98L1052,96L1055,94L1057,92L1057,90L1059,87L1059,85L1059,82L1059,79L1057,76L1053,73L1050,70L1046,67L1042,64L1039,62L1035,60L1031,59L1026,58L1024,57L1021,56L1018,56L1015,56L1013,56L1010,56L1007,56L1005,58L1003,61L1000,64L998,67L995,72L993,77L991,82L989,88L987,95L987,102L986,108L986,111L986,120L986,122L986,126L987,129L988,131L989,133L991,135L993,136L994,138L995,138L997,138L998,139L999,139L1000,139L1001,139L1002,138L1003,137L1004,136L1005,134L1005,132L1006,129L1006,127L1006,124L1006,122L1006,119L1004,115L1002,113L1000,110L999,109L996,107L993,105L989,103L988,103L985,103L981,102L978,102L976,102L974,102L971,102L969,103L968,103L967,104L966,104L965,105L965,105L965,106L965,106L965,107L965,108L965,110L965,112L965,114L966,115L968,117L969,118L971,120L974,122L976,122L979,123L982,123L985,123L986,123L989,123L991,123L993,123L995,122L996,121L997,119L998,118L1000,116L1000,115L1001,112L1001,109L1002,106L1002,102L1002,98L1002,93L1002,88L1001,82L999,77L997,73L996,71L993,64L992,63L990,61L988,59L986,58L985,57L984,56L983,56L982,56L982,56L981,56L981,56L981,56L981,56L980,56" stroke-opacity="1" stroke-width="5" stroke-linecap="round" stroke-linejoin="round" style="-webkit-tap-highlight-color: rgba(0, 0, 0, 0); stroke-opacity: 1; stroke-linecap: round; stroke-linejoin: round; user-select: text;"></path></svg>