<svg height="504" version="1.1" width="1043" xmlns="http://www.w3.org/2000/svg" xmlns:xlink="http://www.w3.org/1999/xlink" style="overflow: hidden; position: relative; user-select: text;"><desc style="-webkit-tap-highlight-color: rgba(0, 0, 0, 0); user-select: text;">Created with Raphaël 2.2.0</desc><defs style="-webkit-tap-highlight-color: rgba(0, 0, 0, 0); user-select: text;"></defs><path fill="none" stroke="#ff0000" d="M117,99L117,99L115,100L114,100L112,102L110,103L107,104L104,105L101,105L99,106L95,106L94,106L92,106L90,106L89,106L88,106L88,106L88,106L88,105L89,104L96,103L115,98L142,94L178,89L201,88L237,87L249,87L259,87L277,88L289,93L296,98L301,104L303,110L304,117L304,122L304,128L300,138L295,143L287,149L278,154L267,158L246,164L229,167L209,167L198,167L179,167L163,167L158,165L148,162L141,158L137,155L135,151L135,145L137,138L155,124L186,108L259,81L295,73L322,68L341,67L352,67L374,66L387,66L404,68L408,74L408,83L408,93L405,103L398,112L388,123L366,141L348,150L324,159L295,166L265,170L251,171L224,173L215,173L210,173L198,173L191,173L187,173L185,173L185,172L185,171L188,169L206,163L235,158L277,152L302,149L319,148L329,147L335,147L348,147L356,147L360,147L364,147L364,150L359,155L349,161L334,167L311,174L285,180L255,184L242,184L231,185L213,186L208,186L197,186L189,186L185,186L182,186L180,185L180,184L180,184L180,183L180,182L180,181L180,180L181,179L181,178L182,177L182,177L182,177L182,176" stroke-opacity="1" stroke-width="5" stroke-linecap="round" stroke-linejoin="round" style="-webkit-tap-highlight-color: rgba(0, 0, 0, 0); stroke-opacity: 1; stroke-linecap: round; stroke-linejoin: round; user-select: text;"></path><path fill="none" stroke="#ff0000" d="M257,241L258,241L262,241L274,241L289,241L327,241L367,241L410,241L431,241L447,241L477,241L486,241L504,241L508,241L516,241L520,241L522,241L523,241L524,241L524,241L524,241L519,242L510,243L495,243L477,244L427,245L382,245L331,244L263,237L199,228L175,225L160,223L149,222L141,221L125,220L116,219L111,219L108,218L107,218L112,218L127,218L147,221L174,223L206,224L240,224L276,224L290,224L301,222L320,218L325,216L335,213L348,207L352,203L356,196L357,190L357,181L355,165L346,150L331,132L311,115L269,87L251,81L238,79L215,72L192,70L172,70L156,70L150,70L139,74L136,75L130,78L126,80L123,82L122,83L121,83L120,84L120,84L120,85L120,84L121,83L122,82L126,78" stroke-opacity="1" stroke-width="5" stroke-linecap="round" stroke-linejoin="round" style="-webkit-tap-highlight-color: rgba(0, 0, 0, 0); stroke-opacity: 1; stroke-linecap: round; stroke-linejoin: round; user-select: text;"></path></svg>