<svg height="577" version="1.1" width="1170" xmlns="http://www.w3.org/2000/svg" xmlns:xlink="http://www.w3.org/1999/xlink" style="overflow: hidden; position: relative; user-select: text;"><desc style="-webkit-tap-highlight-color: rgba(0, 0, 0, 0); user-select: text;">Created with Raphaël 2.2.0</desc><defs style="-webkit-tap-highlight-color: rgba(0, 0, 0, 0); user-select: text;"></defs><path fill="none" stroke="#ff0000" d="M209,148L209,148L208,147L204,143L200,139L194,132L186,124L179,116L171,108L168,104L163,98L161,95L157,91L154,87L152,85L151,83L150,81L150,80L150,79L150,78L150,77L150,77L150,75L150,74L151,72L154,70L158,67L165,63L173,60L180,58L189,56L194,56L203,56L210,56L217,56L220,56L224,57L231,61L232,62L235,64L238,67L239,70L240,73L241,77L241,81L242,85L242,89L243,94L243,99L243,104L243,108L244,111L244,114L244,118L244,120L245,121L245,123L245,124L245,124L245,124L245,125L245,125L246,125L246,125L246,124L246,124L246,124L246,124L246,123L246,123L246,123L246,122" stroke-opacity="1" stroke-width="5" stroke-linecap="round" stroke-linejoin="round" style="-webkit-tap-highlight-color: rgba(0, 0, 0, 0); stroke-opacity: 1; stroke-linecap: round; stroke-linejoin: round; user-select: text;"></path><path fill="none" stroke="#ff0000" d="M377,116L377,116L377,115L377,113L378,108L382,101L386,94L390,85L396,75L404,65L412,55L417,51L424,44L431,38L437,35L444,31L450,30L457,29L470,29L473,29L480,29L487,31L493,35L498,39L504,43L508,48L512,55L516,61L519,68L522,75L524,82L525,89L525,94L526,99L526,101L526,107L526,110L525,112L524,114L522,116L521,117L520,119L519,120L518,121L517,122L516,123L515,124L515,125L514,127L513,128L512,129L511,131L510,133L509,135L508,136L507,138L505,142L504,143L503,144L502,146L500,148L500,149L499,150L499,151L499,151L498,151L498,152L498,152L498,152" stroke-opacity="1" stroke-width="5" stroke-linecap="round" stroke-linejoin="round" style="-webkit-tap-highlight-color: rgba(0, 0, 0, 0); stroke-opacity: 1; stroke-linecap: round; stroke-linejoin: round; user-select: text;"></path><path fill="none" stroke="#ff0000" d="M376,117L374,117L372,117L368,117L362,117L354,117L343,117L331,116L319,115L307,115L301,115L292,115L283,115L281,115L275,115L270,115L267,115L265,115L263,115L262,115L261,115L261,116L260,116L260,117L259,118L259,118L258,119L258,119L257,120L257,120L256,121L256,122L255,122L255,122L254,123L254,123L254,123L253,123L253,123L253,124L253,124L253,124L253,124L252,124L252,124L251,124L251,124L250,125L250,125L249,125L248,125L247,125L246,125L246,125L245,125L245,125L245,125L244,125L244,125" stroke-opacity="1" stroke-width="5" stroke-linecap="round" stroke-linejoin="round" style="-webkit-tap-highlight-color: rgba(0, 0, 0, 0); stroke-opacity: 1; stroke-linecap: round; stroke-linejoin: round; user-select: text;"></path><path fill="none" stroke="#ff0000" d="M206,149L206,150L206,150L205,154L204,159L201,166L199,176L195,188L191,199L186,213L182,226L181,231L177,242L175,250L173,258L171,264L171,269L171,274L171,278L171,283L170,286L173,293L175,296L179,299L186,306L190,308L194,310L200,314L205,316L210,319L216,322L221,324L226,327L231,331L241,337L248,342L256,347L265,353L274,359L286,366L298,373L312,380L325,387L340,394L368,408L375,411L392,418L408,424L423,429L439,433L452,437L459,438L471,440L481,441L491,442L500,443L508,443L515,443L522,443L528,443L533,442L539,442L543,441L546,441L552,441L557,441L561,440L563,440L569,440L571,440L575,440L577,439L580,439L581,439L582,438L584,437L584,437L584,434L584,431L584,427L584,424L585,420L585,416L586,410L587,402L588,393L588,385L589,377L589,368L589,360L589,353L588,345L586,337L584,331L582,323L581,316L580,310L579,307L577,298L577,296L576,293L575,286L575,283L575,281L574,277L574,274L573,271L572,268L571,265L570,261L568,258L566,254L565,253L563,250L562,248L560,246L558,244L557,242L554,240L552,238L550,236L548,234L546,232L543,230L541,229L538,225L536,223L533,221L531,219L530,217L527,213L526,212L525,209L524,207L522,205L522,203L521,200L520,198L519,196L518,194L517,192L517,190L516,188L516,187L515,185L514,184L514,183L514,182L513,181L513,180L512,179L512,179L512,178L511,177L511,176L511,176L511,175L510,174L510,172L509,171L509,170L509,170L508,169L508,168L507,167L506,166L506,165L505,165L505,164L504,163L504,163L503,162L502,162L501,161L501,161L500,160L499,159L498,159L498,158L497,157L497,157L496,156L496,155L495,155L495,154L495,154L495,153L495,153L495,153L495,152L495,152L495,152L495,151L495,151" stroke-opacity="1" stroke-width="5" stroke-linecap="round" stroke-linejoin="round" style="-webkit-tap-highlight-color: rgba(0, 0, 0, 0); stroke-opacity: 1; stroke-linecap: round; stroke-linejoin: round; user-select: text;"></path><path fill="none" stroke="#ff0000" d="M235,325L235,325L238,325L244,325L253,325L272,325L289,325L299,325L316,323L334,322L352,322L369,320L383,319L389,319L412,317L424,317L435,317L440,317L450,317L459,317L466,317L473,317L475,317L479,317L481,317L483,317L484,317L485,317L486,317L486,316L486,316L487,316L487,316L487,316L487,316L487,316L487,315L487,315L487,315L487,315L487,315L488,315L488,314L489,314L489,313L490,313L491,312L492,311L494,311L494,310L496,309L497,309L498,308L499,308L500,307L500,307L500,307L501,307L501,307L501,306L501,306L501,307L501,307L501,307L501,307L501,308L501,308L501,308L501,308L501,309L501,309L501,309L501,310L501,310L501,311L501,312L501,313L502,314L502,315L503,316L503,317L504,319L505,320L505,321L506,321L506,322L507,323L507,324L507,324L507,325L508,325L508,326L508,326L508,326L508,326L508,327L508,327L508,327L508,328L508,329L508,330L508,332L508,333L508,335L508,337L508,339L508,340L508,342L508,343L508,345L508,345L508,346L507,346L507,346L507,346L507,347L507,347L506,347L504,347L501,347L499,348L495,348L492,349L487,350L484,351L480,352L477,353L472,355L469,356L465,358L461,359L456,362L451,365L445,367L439,371L433,374L427,377L420,380L413,384L406,387L401,389L396,391L392,393L390,393L387,395L384,396L383,397L381,398L380,398L379,399L378,400L378,401L377,402L377,403L376,404L376,404L375,405L375,406L374,407L374,407L373,408L373,409L373,410L372,410L371,411L371,411L370,412L370,412L369,412L369,413L369,413L369,413L368,413" stroke-opacity="1" stroke-width="5" stroke-linecap="round" stroke-linejoin="round" style="-webkit-tap-highlight-color: rgba(0, 0, 0, 0); stroke-opacity: 1; stroke-linecap: round; stroke-linejoin: round; user-select: text;"></path><path fill="none" stroke="#ff0000" d="M282,369L283,368L284,368L284,368L284,368L285,368L286,368L287,368L289,368L290,368L293,368L296,368L304,368L311,368L320,368L329,367L340,366L352,365L363,364L368,364L378,363L388,362L396,362L404,362L412,361L417,361L423,360L428,360L434,359L435,359L443,357L444,357L447,357L449,356L451,355L453,354L454,354L455,353L457,352L457,351L458,351L459,350L460,349L461,349L461,348L462,347L463,346L464,346L465,345L467,344L468,343L470,342L473,341L476,340L478,339L481,338L485,337L486,337L489,336L491,336L494,335L495,335L496,335L497,335L498,335L498,335L498,335L499,334L499,333L499,332L500,331L500,330L500,328L500,328L500,328L500,327L501,327L501,326L500,326L500,326L500,326L499,326L498,326L497,326" stroke-opacity="1" stroke-width="5" stroke-linecap="round" stroke-linejoin="round" style="-webkit-tap-highlight-color: rgba(0, 0, 0, 0); stroke-opacity: 1; stroke-linecap: round; stroke-linejoin: round; user-select: text;"></path><path fill="none" stroke="#ff0000" d="M472,319L472,319L472,322L472,325L472,329L472,333L472,336L472,339L472,341L472,344L472,347L472,349L472,350L472,351L472,351L472,352L472,352L472,352L472,353L472,353L472,353" stroke-opacity="1" stroke-width="5" stroke-linecap="round" stroke-linejoin="round" style="-webkit-tap-highlight-color: rgba(0, 0, 0, 0); stroke-opacity: 1; stroke-linecap: round; stroke-linejoin: round; user-select: text;"></path><path fill="none" stroke="#ff0000" d="M451,364L451,364L451,363L451,361L450,359L448,357L447,354L445,351L445,350L444,347L442,346L442,344L441,342L441,342L440,341L440,341L440,340L440,339L440,339L440,338L439,337L439,337L439,336L438,335L438,334L438,334L437,333L437,333L437,332L437,332L437,332L437,332L437,332L437,331L436,331L436,331L436,330L436,330L435,329L435,329L435,329L434,328L434,328L434,327L434,327L434,327L434,327L434,327L433,327L433,326L433,326L433,326L433,326L433,325L432,325L432,325L432,325L432,325L432,324L432,324L432,324L431,324L431,323L430,323L430,322L430,321L429,321L429,320L428,320L428,319L428,319L427,319L427,318L427,318L427,318" stroke-opacity="1" stroke-width="5" stroke-linecap="round" stroke-linejoin="round" style="-webkit-tap-highlight-color: rgba(0, 0, 0, 0); stroke-opacity: 1; stroke-linecap: round; stroke-linejoin: round; user-select: text;"></path><path fill="none" stroke="#ff0000" d="M401,316L401,316L401,318L401,322L401,329L401,337L401,345L401,354L401,365L401,369L401,378L401,386L401,393L401,398L401,400L401,405L401,408L401,411L401,413L401,416L401,417L402,418L402,419L402,420L402,421L403,422L403,423L403,423L403,423L403,424L403,424L403,424L403,424L403,425L404,425L404,425" stroke-opacity="1" stroke-width="5" stroke-linecap="round" stroke-linejoin="round" style="-webkit-tap-highlight-color: rgba(0, 0, 0, 0); stroke-opacity: 1; stroke-linecap: round; stroke-linejoin: round; user-select: text;"></path><path fill="none" stroke="#ff0000" d="M378,406L378,405L378,403L378,401L377,398L375,394L372,386L369,379L366,371L365,367L362,360L360,352L358,346L356,342L356,340L354,336L354,333L353,332L353,331L353,330L353,329L352,329L352,329L352,329L352,329L352,328L352,328L351,328L351,328L351,328L351,327L351,327L351,327L351,326L351,326L350,325L350,324L350,324L349,323L349,323L349,322L349,322L349,321L349,321L348,321" stroke-opacity="1" stroke-width="5" stroke-linecap="round" stroke-linejoin="round" style="-webkit-tap-highlight-color: rgba(0, 0, 0, 0); stroke-opacity: 1; stroke-linecap: round; stroke-linejoin: round; user-select: text;"></path><path fill="none" stroke="#ff0000" d="M331,320L331,321L331,321L331,321L331,323L331,325L331,328L331,331L331,333L331,338L331,339L331,343L331,346L331,348L331,350L331,352L331,353L331,354L331,355L331,355L331,356L331,356L331,356L331,357L331,357L331,357L331,358L331,358L331,359L331,360L331,360L331,361L331,362L331,363L331,364L331,365L331,366L331,367L331,368L331,369L331,369L331,370L331,371L331,371L331,372L331,373L331,374L331,374L331,375L331,376L331,376L331,377L331,377L331,378L331,378L331,379L331,379L331,380L330,380L330,380L330,381L330,381L330,381L330,381L330,382L330,382L330,382L330,382L330,383L330,383L330,383L330,383L330,383" stroke-opacity="1" stroke-width="5" stroke-linecap="round" stroke-linejoin="round" style="-webkit-tap-highlight-color: rgba(0, 0, 0, 0); stroke-opacity: 1; stroke-linecap: round; stroke-linejoin: round; user-select: text;"></path><path fill="none" stroke="#ff0000" d="M279,328L279,328L279,329L279,331L279,333L279,336L280,338L281,340L283,343L284,345L285,347L286,349L287,351L287,351L288,352L288,353L288,353L289,354L289,354L289,354L289,354L289,355L289,355L289,355L289,355L290,356L290,356L290,356L290,356L290,356L290,357L290,357L290,357L290,357L291,358L291,358L291,358L291,359L291,359L291,359L291,360L292,360L292,361L292,361L292,361L292,361L292,362L292,362L292,362L293,363L293,363L293,363L293,364L293,364L293,365L293,365L293,365L293,366L293,366L293,366L293,367L293,367L293,367L293,368L293,368L293,368L293,369L293,369L293,369L293,369L293,370L293,370L293,370L293,370" stroke-opacity="1" stroke-width="5" stroke-linecap="round" stroke-linejoin="round" style="-webkit-tap-highlight-color: rgba(0, 0, 0, 0); stroke-opacity: 1; stroke-linecap: round; stroke-linejoin: round; user-select: text;"></path><path fill="none" stroke="#ff0000" d="M252,209L252,209L252,209L252,208L252,208L252,207L252,207L252,207L252,206L252,206L252,206L252,206L252,205L253,205L253,205L254,204L254,204L254,203L255,203L257,202L258,201L260,200L262,198L265,196L269,194L273,191L277,189L282,186L284,185L288,183L291,182L293,181L295,180L296,179L297,179L298,179L298,179L298,179L299,179L299,179L299,179L299,179L300,180L300,180L300,180L301,180L302,181L303,181L304,181L306,182L309,182L311,183L313,184L316,185L319,186L321,188L324,189L327,191L330,192L333,194L334,195L337,198L339,199L340,200L341,201L342,202L343,203L343,203L343,204L343,204L343,205L343,205L343,205L343,206L343,206L343,206L343,207L343,207L342,207L341,207L340,207L339,207L338,208L335,208L333,208L331,208L329,208L324,209L321,209L318,210L316,210L313,211L311,211L308,211L305,211L303,211L300,211L298,211L296,212L294,212L292,212L288,212L287,212L283,212L282,212L278,212L276,212L274,212L272,212L270,212L268,211L267,211L266,211L264,210L264,210L263,209L262,209L261,208L261,208L260,207L260,207L259,206L259,205L259,205L258,205L258,204L258,204L258,203L257,203L257,203L256,203L256,203L256,203L255,203L255,203L254,203L254,203L253,202L253,202L253,202L252,202L252,202L252,202L251,202" stroke-opacity="1" stroke-width="5" stroke-linecap="round" stroke-linejoin="round" style="-webkit-tap-highlight-color: rgba(0, 0, 0, 0); stroke-opacity: 1; stroke-linecap: round; stroke-linejoin: round; user-select: text;"></path><path fill="none" stroke="#ff0000" d="M393,177L393,177L395,177L398,177L402,177L406,177L410,177L415,177L420,177L424,177L429,177L430,177L433,177L436,177L438,177L440,177L441,177L442,177L443,177L444,177L445,177L446,178L447,178L448,179L449,179L449,180L450,180L452,181L453,182L454,182L455,183L456,184L457,185L458,185L459,186L459,187L460,188L461,188L461,188L461,189L462,189L462,189L462,190L462,190L462,190L462,190L462,191L462,191L462,192L462,193L461,194L460,195L459,196L458,197L457,198L456,200L454,201L453,202L451,203L450,204L448,204L446,205L445,205L444,206L442,206L441,207L440,207L440,207L439,208L438,208L438,208L437,208L436,209L435,209L435,209L434,210L433,210L431,210L430,211L429,211L427,211L425,211L424,211L422,211L420,211L419,211L417,211L415,210L414,210L413,209L412,208L411,207L410,207L409,206L408,205L407,204L406,203L405,202L405,201L404,200L403,199L402,198L402,197L401,196L401,195L400,194L399,194L399,193L398,192L398,192L398,191L398,191L398,191L397,190L397,190L397,189L397,189L397,189L397,188L397,188L397,187L397,187L397,186L397,186L397,186L397,185L397,185L397,185L397,185L397,184L397,184L397,184L397,184L397,183L397,183L397,183L397,183L397,182L397,182L397,181L397,181L397,181L397,180L397,179L396,179L396,178L396,177L395,176L395,176L395,175L394,175L394,175L394,175L394,174L393,174L393,174L393,174L393,174L392,174L392,174L392,174L392,174L392,174L392,174L393,174L393,174L394,174L394,174L394,175L395,175L395,175L395,175L395,175L395,175L395,175" stroke-opacity="1" stroke-width="5" stroke-linecap="round" stroke-linejoin="round" style="-webkit-tap-highlight-color: rgba(0, 0, 0, 0); stroke-opacity: 1; stroke-linecap: round; stroke-linejoin: round; user-select: text;"></path><path fill="none" stroke="#ff0000" d="M376,233L376,234L376,234L376,235L375,236L374,237L374,238L373,239L372,240L371,241L370,242L369,243L366,244L365,245L363,247L362,247L359,249L357,249L354,251L352,252L350,253L349,254L345,255L343,256L342,257L338,259L336,260L334,261L332,262L330,263L328,264L326,265L325,265L323,266L321,267L320,268L319,268L319,268L318,269L318,269L318,269L317,270L317,270L318,270L318,270L319,270L319,270L320,270L320,270L322,270L323,270L325,270L327,271L330,272L333,273L336,273L340,275L344,276L348,277L353,278L358,279L363,280L367,280L372,281L376,282L381,282L386,283L391,283L396,283L401,283L405,283L408,283L414,283L415,283L419,283L422,283L427,283L430,283L434,283L438,283L443,283L447,283L453,282L459,280L465,279L471,278L478,276L484,274L490,272L497,269L502,266L507,263L509,262L513,259L516,257L519,255L520,253L522,251L523,250L523,248L523,246L523,245L523,243L522,241L521,240L520,239L519,238L517,237L517,237L516,236L515,236L514,236L514,236L513,236L513,235L513,235L513,235L512,235L513,235L513,235L513,235L513,235" stroke-opacity="1" stroke-width="5" stroke-linecap="round" stroke-linejoin="round" style="-webkit-tap-highlight-color: rgba(0, 0, 0, 0); stroke-opacity: 1; stroke-linecap: round; stroke-linejoin: round; user-select: text;"></path></svg>