<svg height="568" version="1.1" width="1066" xmlns="http://www.w3.org/2000/svg" xmlns:xlink="http://www.w3.org/1999/xlink" style="overflow: hidden; position: relative; user-select: text;"><desc style="-webkit-tap-highlight-color: rgba(0, 0, 0, 0); user-select: text;">Created with Raphaël 2.2.0</desc><defs style="-webkit-tap-highlight-color: rgba(0, 0, 0, 0); user-select: text;"></defs><path fill="none" stroke="#ff0000" d="M144,128L143,128L143,129L143,132L143,135L143,144L143,150L143,155L143,162L143,171L143,179L142,186L142,192L142,198L142,203L142,209L142,214L142,218L142,222L141,226L141,229L140,234L140,237L140,239L139,242L138,245L137,247L137,249L136,251L136,252L135,254L135,255L135,256L134,256L134,257L134,257L134,257" stroke-opacity="1" stroke-width="5" stroke-linecap="round" stroke-linejoin="round" style="-webkit-tap-highlight-color: rgba(0, 0, 0, 0); stroke-opacity: 1; stroke-linecap: round; stroke-linejoin: round; user-select: text;"></path><path fill="none" stroke="#ff0000" d="M196,144L196,144L197,144L201,143L207,141L215,139L223,136L228,136L236,134L244,134L250,134L255,134L259,134L262,136L264,139L267,143L268,149L270,159L270,167L270,177L270,187L270,199L269,204L267,214L265,221L263,229L260,235L258,240L257,242L254,249L252,252L250,255L247,259L245,261L242,264L239,267L236,270L234,271L232,273L229,275L227,276L225,278L223,279L221,280L220,281L218,281L217,282L216,283L215,283L215,284L214,284L214,284L215,284L220,284L226,284L236,283L247,282L259,281L265,280L276,279L285,278L289,278L296,278L301,278L305,278L308,278L310,278L312,278L314,278L314,278L315,278L315,278L315,278L316,278L316,278L316,278" stroke-opacity="1" stroke-width="5" stroke-linecap="round" stroke-linejoin="round" style="-webkit-tap-highlight-color: rgba(0, 0, 0, 0); stroke-opacity: 1; stroke-linecap: round; stroke-linejoin: round; user-select: text;"></path><path fill="none" stroke="#ff0000" d="M360,127L360,127L362,127L367,127L372,127L382,127L393,127L405,127L410,127L419,127L427,127L430,127L435,127L439,127L442,127L444,127L445,127L446,128L446,129L446,130L446,131L446,134L446,141L443,146L440,154L438,158L433,166L428,173L422,180L417,186L411,191L406,195L404,197L400,200L397,201L396,202L394,203L393,203L393,204L393,204L393,204L394,204L398,204L410,204L424,204L443,205L455,205L475,206L483,206L497,209L501,210L508,211L514,214L518,215L520,216L521,219L522,221L522,223L522,226L520,229L517,234L514,239L510,243L502,252L497,259L493,263L487,269L481,274L476,279L469,283L463,287L456,290L450,292L445,294L442,294L438,295L434,296L431,296L429,297L428,297L427,297L426,297L426,297L426,297" stroke-opacity="1" stroke-width="5" stroke-linecap="round" stroke-linejoin="round" style="-webkit-tap-highlight-color: rgba(0, 0, 0, 0); stroke-opacity: 1; stroke-linecap: round; stroke-linejoin: round; user-select: text;"></path></svg>