<svg height="694" version="1.1" width="1024" xmlns="http://www.w3.org/2000/svg" xmlns:xlink="http://www.w3.org/1999/xlink" style="overflow: hidden; position: relative; -webkit-user-select: text;"><desc style="-webkit-tap-highlight-color: rgba(0, 0, 0, 0); -webkit-user-select: text;">Created with Raphaël 2.2.0</desc><defs style="-webkit-tap-highlight-color: rgba(0, 0, 0, 0); -webkit-user-select: text;"></defs><path fill="none" stroke="#85ff6b" d="M784,67L802,61" stroke-opacity="1" stroke-width="1" stroke-linecap="round" stroke-linejoin="round" style="-webkit-tap-highlight-color: rgba(0, 0, 0, 0); stroke-opacity: 1; stroke-linecap: round; stroke-linejoin: round; -webkit-user-select: text; display: inline;"></path><path fill="none" stroke="#85ff6b" d="M810,57L806,63L781,71L745,85L697,105L646,137L596,173L557,212L532,245L515,271L503,293L496,309L491,324L488,333L486,340L484,346L482,350L481,353L481,354L480,354L479,354L479,349L484,327L501,291L527,250L559,212L593,180L624,156L655,137L688,122L716,109L736,100L749,96L759,92L764,90L767,89L770,89L765,90L749,97L716,111L676,132L632,162L585,201L544,250L512,297L489,340L473,378L465,406L461,418L459,424L459,427L458,427L458,425L458,417L459,391L473,355L494,311L520,267L552,229L586,199L621,172L669,145L728,117L788,97L824,84L841,78L850,75L854,75L855,75L855,76L852,78L848,80L835,85L803,93L760,109L710,132L658,165L605,205L558,257L521,311L494,360L478,402L470,435L466,455L465,465L464,470L463,472L462,472L461,468L459,452L463,406L482,347L508,295L534,258L563,230L593,207L626,184L673,161L733,137L794,121L837,110L862,105L877,104L884,104L888,104L889,105L889,107L889,109L884,113L869,120L839,132L800,146L756,167L706,193L654,231L600,277L549,338L505,403L481,460L470,498L466,517L465,525L464,527L464,528L463,528L462,517L461,499L466,454L485,397L513,339L549,285L588,241L627,204L673,173L728,145L795,124L860,109L907,103L932,100L947,100L955,100L958,100L959,102L959,104L956,106L950,109L933,115L899,126L855,141L800,159L741,185L677,220L612,265L552,327L504,390L476,445L461,490L455,521L453,537L452,545L452,547L452,548L451,548L451,541L451,527L456,489L476,433L511,367L555,307L600,262L648,221L702,187L760,161L823,142L883,130L925,125L945,122L952,122L955,122L955,123L955,124L955,126L952,127L948,128L940,131L914,138L877,146L827,159L770,180L710,206L653,242L601,284L563,333L536,380L517,425L500,470L488,513L483,547L481,566L480,574L480,577L480,578L479,575L478,559L480,519L497,458L528,384L575,316L625,260L672,219L714,188L756,165L799,151L840,140L872,135L891,134L902,134L908,134L911,137L912,141L909,149L898,158L874,169L838,184L793,204L746,231L693,263L634,307L573,362L529,423L506,467L495,498L490,520L490,533L490,538L490,539L493,518L502,478L520,425L553,364L602,300L654,245L709,203L761,170L808,149L845,136L871,131L886,129L896,129L903,129L909,131L913,135L915,140L915,146L908,156L882,172L848,190L802,210L748,238L679,279L605,337L556,402L530,455L512,496L504,523L502,537L502,544L502,547L502,548L502,547L508,528L519,496L535,455L562,406L606,349L708,254L752,223L796,199L835,182L864,174L883,171L899,171L913,172L921,175L925,180L925,187L913,198L881,212L836,229L783,252L730,282L677,319L632,362L597,404L575,441L563,472L556,493L552,508L550,517L549,523L549,527L549,529L549,528L549,512L559,473L582,418L621,349L674,289L723,247L769,215L817,190L860,174L889,165L905,163L916,163L922,163L925,168L925,177L920,188L910,201L888,218L856,238L814,262L768,291L721,324L674,363L627,408L587,454L564,493L555,512L551,521L550,524L549,524L549,515L554,497L572,460L603,412L642,365L683,330L722,301L758,280L792,264L821,253L841,247L854,243L861,242L864,242L861,249L844,263L816,281L782,304L747,333L710,362L676,394L649,428L627,457L612,479L601,496L594,509L590,518L587,525L586,530L585,532L585,533L585,532L590,518L609,483L637,439L670,396L706,361L743,325L787,293L825,267L854,251L878,241L896,235L908,233L915,233L918,233L918,241L909,255L887,277L852,303L804,332L748,371L686,417L639,466L612,503L599,523L595,530L594,532L595,527L608,506L629,474L662,434L705,392L749,354L797,321L844,289L883,266L909,253L922,246L925,246L916,260L894,281L858,306L811,336L762,374L716,415L680,458L658,494L645,518L641,528L640,532L645,523L660,500L684,470L714,434L754,394L805,353L865,315L925,284L983,263L1021,249" stroke-opacity="1" stroke-width="1" stroke-linecap="round" stroke-linejoin="round" style="-webkit-tap-highlight-color: rgba(0, 0, 0, 0); stroke-opacity: 1; stroke-linecap: round; stroke-linejoin: round; -webkit-user-select: text; display: inline;"></path><path fill="none" stroke="#85ff6b" d="M1021,264L990,279L925,315L869,350" stroke-opacity="1" stroke-width="1" stroke-linecap="round" stroke-linejoin="round" style="-webkit-tap-highlight-color: rgba(0, 0, 0, 0); stroke-opacity: 1; stroke-linecap: round; stroke-linejoin: round; -webkit-user-select: text; display: inline;"></path><path fill="none" stroke="#85ff6b" d="M1021,264L990,279L925,315L869,350L436,479L454,480L472,472L533,442L580,424L636,412L699,408L768,412L842,433L919,472" stroke-opacity="1" stroke-width="1" stroke-linecap="round" stroke-linejoin="round" style="-webkit-tap-highlight-color: rgba(0, 0, 0, 0); stroke-opacity: 1; stroke-linecap: round; stroke-linejoin: round; -webkit-user-select: text; display: inline;"></path><path fill="none" stroke="#85ff6b" d="M1007,569L1005,569L991,562L977,555L954,545L926,538L896,534L867,530L835,524L797,517L749,509L692,505L638,505L590,513L551,528L522,541L502,550L488,557L478,562L468,565L462,566L458,565L456,552L457,518L471,476L494,435L522,399L556,370L598,347L646,328L694,317L731,311L757,309L773,309L782,309L788,309L791,309L791,310L790,312L782,315L767,321L742,329L707,339L667,354L623,374L575,400L523,437L474,486L447,533L433,569L426,600L425,615L425,620L425,622L430,600L436,565L446,516L463,463L490,411L522,363L557,328L592,304L630,285L675,275L726,275L774,281L806,294L821,301L827,304L829,304L829,305L823,305L812,303L791,302L758,302L719,307L676,322L631,343L580,374L526,418L478,465L447,513L432,553L426,571L424,575L423,571L422,545L422,505L426,452L440,391L471,328L513,264L563,213L613,180L665,163L726,163L789,173L825,195L844,217L859,238L866,249L870,255L871,259L871,261L863,261L845,261L818,261L785,261L749,262L708,272L664,289L613,312L552,351L490,402L452,455L433,502L426,540L425,559L425,564L429,542L436,504L446,457L465,402L497,338L539,278L583,238L628,214L677,204L716,204L742,208L765,219L785,231L797,242L807,253L814,263L827,293" stroke-opacity="1" stroke-width="1" stroke-linecap="round" stroke-linejoin="round" style="-webkit-tap-highlight-color: rgba(0, 0, 0, 0); stroke-opacity: 1; stroke-linecap: round; stroke-linejoin: round; -webkit-user-select: text; display: inline;"></path><path fill="none" stroke="#ff0f7f" d="M235,247L233,258L245,269L260,277L274,280L288,280L299,277L304,265L304,253L299,237L280,224L253,220L230,225L213,243L203,263L203,277L204,287L219,293L240,293L264,287L285,275L300,259L306,246L307,235L307,229L295,224L274,224L246,234L227,253L218,266L217,275L217,282L231,285L252,284L276,273L292,260L302,246L305,234L305,228L303,223L286,223L264,229L249,244L241,255L238,262L238,266L240,268L253,268L269,263L282,255L293,244L297,236L298,231L298,227L291,225L271,225L250,232L237,243L230,252L227,259L227,264L236,268L253,268L271,264L287,256L300,245L306,234L308,225L308,214L298,208L279,205L247,207L226,220L213,235L207,250L206,261L208,271L225,276L247,276L274,270L296,257L312,240L321,225L323,211L321,197L309,187L282,180L245,180L210,193L182,215L163,241L155,267L155,284L167,298L191,304L223,304L259,301L294,289L323,273L346,253L358,230L362,209L361,182L351,161L332,146L298,134L256,134L224,148L196,175L175,209L165,243L165,270L176,290L197,306L224,314L257,316L293,314L325,302L351,284L369,261L377,235L377,205L370,178L354,151L324,123L286,104L247,101L211,109L179,133L151,170L133,211L126,250L126,284L141,313L166,333L196,346L230,350L269,347L306,334L342,315L370,292L386,268L395,242L397,216L393,187L374,150L345,112L311,83L280,67L254,61L227,63L199,80L171,109L148,149L132,198L125,249L125,293L135,327L152,351L175,366L203,374L237,374L274,366L308,350L337,328L357,305L368,281L371,260L369,234L359,209L340,180L306,144L274,116L253,100L233,93L216,92L196,97L177,116L160,143L150,174L148,210L148,248L158,280L174,306L195,324L218,334L245,335L274,333L301,318L322,300L336,282L343,265L346,245L346,224L339,200L325,172L304,139L286,121L274,110L261,105L248,105L228,112L209,128L193,149L181,174L176,201L176,222L182,245L193,258L210,266L230,268L256,266L279,256L297,240L309,222L315,207L316,192L315,175L306,161L286,147L259,134L233,129L213,129L193,139L178,153L170,168L166,186L166,204L173,225L187,241L206,253L229,257L255,257L278,248L296,233L306,218L310,205L310,190L306,177L293,168L274,162L249,162L229,170L217,180L209,195L207,207L207,220L217,231L230,236L249,236L269,234L285,226L296,214L301,205L303,197L303,190L299,185L288,182L275,182L252,187L233,198L222,208L213,220L211,228L211,236L215,244L228,251L245,253L265,253L286,246L299,235L308,222L311,212L311,202L308,190L296,180L275,172L250,165L230,165L211,167L197,175L187,188L180,204L177,223L177,242L183,265L195,284L211,302L230,314L253,319L278,319L304,314L328,300L348,282L361,263L367,246L368,226L367,208L357,183L338,157L317,131L297,111L279,96L265,87L249,84L226,85L197,99L169,119L145,144L126,170L109,199L101,227L99,254L99,278L108,299L122,317L141,331L163,342L190,350L218,353L249,353L282,348L315,336L348,318L376,295L398,268L412,236L419,200L418,165L408,135L392,112L374,95L356,85L338,80L304,78L262,79L225,86L190,98L158,113L133,129L112,147L99,166L91,187L88,208L89,237L99,265L114,292L134,316L157,336L184,353L212,366L243,374L272,374L298,369L319,355L335,337L345,317L349,299L349,278L343,255L330,231L309,204L284,177L261,153L240,135L222,124L203,119L181,118L153,122L124,138L101,158L84,181L73,206L70,227L70,253L80,274L94,293L113,309L136,324L162,336L191,345L219,351L248,351L277,349L301,338L322,321L337,301L346,277L349,251L349,223L340,190L318,154L292,124L268,102L246,88L227,82L206,82L180,92L152,115L128,144L110,175L99,207L94,241L94,274L101,304L114,330L132,348L155,359L182,364L212,364L245,360L277,348L307,330L334,306L356,280L369,252L374,223L374,196L365,171L349,149L327,128L298,113L268,103L239,100L211,100L184,109L161,124L144,145L131,167L125,193L125,221L130,249L145,275L163,296L183,311L205,321L229,325L254,325L279,316L301,301L320,281L332,258L339,234L340,212L339,185L329,162L312,139L286,114L259,96L234,84L209,80L187,81L167,92L145,112L127,139L116,170L114,204L115,238L127,270L145,296L169,313L194,324L222,328L252,328L281,317L306,301L326,280L339,258L346,233L346,208L340,181L324,152L302,125L277,101L252,83L228,75L206,73L179,76L153,93L128,122L111,153L103,187L102,222L107,254L121,280L141,299L166,310L195,316L224,316L255,314L286,305L313,291L338,275L356,258L367,238L371,219L370,199L358,174L339,153L313,133L283,119L251,110L217,107L181,109L148,121L122,140L101,161L89,185L84,212L85,245L96,277L115,309L140,336L170,357L201,370L233,374L263,374L291,365L314,347L333,324L347,298L355,268L356,235L354,201L342,166L326,135L306,109L281,88L254,73L223,67L185,67L152,76L125,94L98,121L81,149L74,183L73,222L79,259L96,292L119,317L147,333L180,343L217,344L256,342L294,331L326,312L352,290L369,267L381,241L384,214L383,186L369,159L347,132L320,109L291,95L262,84L233,80L203,80L172,91L143,111L119,136L104,165L96,198L96,231L101,264L116,293L137,315L164,332L194,346L227,355L259,356L291,354L317,340L338,320L352,297L359,271L359,240L357,206L344,169L326,133L303,103L280,82L258,73L237,73L208,81L177,105L148,139L127,177L113,217L109,255L109,290L121,321L140,343L164,357L192,364L223,365L259,362L293,349L324,330L350,308L370,282L381,256L386,230L386,202L376,172L357,141L333,116L307,96L280,83L254,75L228,75L201,79L176,95L152,120L133,153L123,188L121,223L123,252L136,276L154,294L177,306L204,311L234,311L264,305L291,291L312,273L328,254L337,233L341,213L341,187L333,161L318,135L298,112L279,92L259,79L242,74L224,74L201,82L179,100L159,126L145,156L137,189L135,227L136,262L147,290L161,310L177,321L195,326L221,325L246,314L269,296L286,275L297,252L304,208L303,187L294,166L280,151L262,138L244,133L225,133L204,140L189,153L181,167L178,184L178,200L186,215L199,226L217,231L239,232L263,227L283,214L298,198L308,179L312,162L312,148L308,135L298,127L286,124L267,124L248,128L232,141L223,153L218,168L218,181L221,197L231,208L244,217L256,220L269,220L279,216L290,196L290,185L290,175L283,166L274,161L262,159L236,171L227,183L224,194L224,205L226,215L235,221L247,224L264,223L278,214L289,201L296,187L298,176L298,165L293,157L284,152L271,152L232,171L220,185L213,201L210,215L210,229L216,240L226,246L242,246L259,241L277,227L289,210L298,189L301,173L301,157L296,147L285,141L267,141L244,147L220,165L200,188L188,212L183,235L183,252L190,265L205,273L227,273L255,265L278,248L295,227L305,203L310,180L310,161L304,144L267,116L239,107L208,106L177,109L152,125L132,150L117,180L110,213L117,273L132,295L153,310L181,318L212,319L247,315L282,303L343,259L364,231L376,197L377,160L369,128L351,101L330,81L301,67L220,52L165,57L122,74L87,98L62,126L47,158L41,196L41,235L53,272L75,306L103,335L138,356L174,366L210,368L246,364L279,347L304,324L323,297L333,268L334,240L332,212L298,158L269,129L237,104L206,88L179,80L157,78L130,83L104,101L81,130L67,164L60,202L60,240L68,276L109,334L137,349L169,355L203,355L238,346L273,330L302,307L325,280L351,225L351,198L344,169L324,139L296,114L264,94L235,80L209,77L182,77L141,93" stroke-opacity="1" stroke-width="1" stroke-linecap="round" stroke-linejoin="round" style="-webkit-tap-highlight-color: rgba(0, 0, 0, 0); stroke-opacity: 1; stroke-linecap: round; stroke-linejoin: round; -webkit-user-select: text;"></path><path fill="none" stroke="#0e00ff" d="M138,482L136,497L146,589L147,597L147,599L147,580L145,549L145,517L145,486L150,466L153,456L155,454L155,457L155,479L150,506L146,530L143,549L142,564L142,570L142,550L145,516L150,485L158,458L164,443L166,439L166,444L164,474L160,508L158,540L157,564L157,578L157,582L157,578L160,550L166,519L172,491L176,474L177,469L177,483L173,509L169,534L166,552L163,566L162,571L162,560L169,532L179,507L190,487L195,477L197,474L192,481L182,492L172,503L160,513L148,521L137,527L130,530L126,532L125,532L127,531L149,523L175,519L196,518L219,517L234,517L242,517L245,517L242,517L228,517L213,518L196,518L180,518L166,518L159,518L156,518L155,518L156,518L167,519L184,522L203,524L223,526L243,528L256,528L262,528L264,528L263,528L251,528L237,526L218,523L206,521L197,519L194,518L194,517L201,517L218,517L237,517L255,517L265,518L270,518L263,518L252,514L236,506L225,496L218,491L216,488L215,486L215,487L219,498L222,513L225,531L225,547L226,564L226,578L226,585L226,587L227,571L231,546L235,521L240,502L243,489L243,484L241,489L233,503L219,525L205,545L194,562L187,574L184,580L183,580L183,575L186,555L194,530L201,510L206,496L209,489L209,486L206,492L197,503L186,514L168,531L153,545L145,552L141,554L140,555L144,555L157,552L177,549L198,549L219,549L238,549L252,549L259,551L262,551L258,551L246,551L233,550L212,546L195,543L184,541L177,539L173,538L172,538L178,538L195,538L217,542L239,546L259,548L274,549L285,549L291,549L295,547L296,544L295,539L286,533L275,528L262,523L249,520L234,519L220,518L206,518L195,517L187,517L184,517L182,517L192,518L210,525L230,531L249,536L264,538L274,540L279,540L280,540L279,536L269,528L257,518L241,503L224,484L215,470L211,462L211,457L212,454L221,454L235,458L246,470L257,489L266,508L270,525L271,540L271,554L271,559L269,560L266,557L265,539L265,518L265,498L267,484L269,475L270,472L270,475L263,490L251,515L239,539L231,560L228,569L227,571L235,549L248,525L262,501L276,483L284,471L288,466L288,465L284,474L276,486L264,503L249,522L237,539L230,547L228,549L228,542L237,527L252,510L267,498L279,491L286,489L289,489L290,490L290,498L288,510L283,526L276,542L269,552L266,556L264,556L266,541L274,524L283,510L291,501L296,497L299,497L301,500L301,510L297,526L289,540L278,554L266,564L258,568L254,568L252,566L252,554L262,541L277,530L292,525L304,525L316,525L323,529L327,531L329,532L330,532L330,531L330,525L329,517L326,510L323,503L321,499L320,497L318,496L318,506L318,523L318,536L318,546L318,553L318,555L317,555L314,548L312,529L311,509L311,496L311,490L311,488L308,496L299,511L287,530L275,547L265,561L259,569L256,571L255,571L255,550L259,521L267,496L274,479L277,471L278,469L278,471L273,487L264,509L254,532L247,553L240,571L236,583L234,589L232,590L231,590L229,582L225,572L219,562L211,553L203,547L194,542L185,540L176,540L168,540L161,544L155,553L153,561L153,570L155,581L167,591L182,597L196,598L213,598L222,598L225,596L226,594L223,590L208,585L191,580L174,574L157,567L143,559L131,549L120,539L112,528L108,520L107,512L108,504L116,497L136,486L160,474L179,466L193,459L200,453L203,450L203,448L202,447L188,447L171,449L146,456L123,466L101,481L82,498L67,515L59,531L55,544L55,557L57,566L65,574L82,580L103,583L134,583L164,577L194,569L218,559L231,553L238,550L239,548L227,548L203,548L173,548L147,549L128,552L113,553L104,554L95,554L89,553L84,549L81,544L81,535L89,513" stroke-opacity="1" stroke-width="1" stroke-linecap="round" stroke-linejoin="round" style="-webkit-tap-highlight-color: rgba(0, 0, 0, 0); stroke-opacity: 1; stroke-linecap: round; stroke-linejoin: round; -webkit-user-select: text;"></path></svg>