<svg height="694" version="1.1" width="1024" xmlns="http://www.w3.org/2000/svg" xmlns:xlink="http://www.w3.org/1999/xlink" style="overflow: hidden; position: relative; -webkit-user-select: text;"><desc style="-webkit-tap-highlight-color: rgba(0, 0, 0, 0); -webkit-user-select: text;">Created with Raphaël 2.2.0</desc><defs style="-webkit-tap-highlight-color: rgba(0, 0, 0, 0); -webkit-user-select: text;"></defs><path fill="none" stroke="#3500ff" d="M41,56L43,58L43,59L43,60L43,61L43,62L43,65L43,69L45,74L47,79L49,84L50,88L52,92L53,95L53,97L54,98L55,98L57,98L60,98L63,98L67,98L72,97L77,95L82,91L85,89L88,86L90,83L91,80L92,77L94,73L95,69L96,65L99,61L101,58L103,55L106,53L109,52L111,52L115,51L119,51L123,51L130,51L137,51L145,51L154,51L162,53L171,58L179,63L187,68L195,70L201,70L208,69L213,63L217,59L220,56L222,52L224,50L225,49L227,49L229,48L231,48L235,48L240,48L247,48L254,51L262,56L268,60L274,65L278,68L281,69L285,71L288,71L289,71L291,71L292,69L293,67L295,65L297,64L299,63L302,63L305,63L309,63L314,64L318,66L323,68L327,68L332,68L338,67L342,63L345,59L349,55L352,52L354,50L357,49L360,49L364,49L369,49L373,50L378,52L383,56L388,58L395,61L401,61L408,61L415,61L424,55L430,50L436,45L443,41L449,38L454,37L459,37L464,37L470,39L476,43L482,47L489,50L498,52L508,53L519,53L532,46L539,41L547,34L553,30L560,27L565,25L570,24L577,24L582,24L587,26L593,30L598,35L604,39L609,41L615,43L622,43L631,43L638,41L645,38L651,34L657,32L662,31L667,30L671,30L676,30L681,33L686,38L690,41L695,44L702,44L710,44L716,43L720,39L725,35L728,34L733,32L736,32L741,32L748,33L756,38L765,43L773,48L783,53L791,56L799,59L806,60L813,60L821,60L827,57L834,55L841,53L848,52L856,51L864,49L870,49L875,49L882,48L889,46L897,41L903,37L909,35L916,35L923,35L930,42L940,56L946,66L950,71L955,74L959,75L964,73L967,66L970,61L973,56L976,53L978,51L981,51L984,51L986,51L988,54L990,57" stroke-opacity="1" stroke-width="5" stroke-linecap="round" stroke-linejoin="round" style="-webkit-tap-highlight-color: rgba(0, 0, 0, 0); stroke-opacity: 1; stroke-linecap: round; stroke-linejoin: round; -webkit-user-select: text;"></path><path fill="none" stroke="#3500ff" d="M1018,107L1013,107L1008,107L1001,106L993,103L985,100L979,98L972,98L965,98L961,100L958,105L956,111L955,116L954,120L954,122L954,124L952,121L947,115L940,108L933,102L926,98L919,94L914,93L910,93L906,93L902,96L899,102L896,109L895,117L894,123L892,127L890,131L887,132L884,132L879,127L873,118L867,109L860,101L855,95L849,91L844,88L840,88L835,88L831,89L828,95L827,104L826,113L826,120L826,125L826,129L825,130L821,130L814,125L805,115L796,105L788,98L780,92L774,89L770,88L767,88L763,90L760,95L757,101L754,107L751,112L748,116L745,119L742,119L737,119L730,117L722,110L714,103L705,97L699,94L695,92L692,92L689,92L687,92L687,96L686,102L685,108L684,113L682,117L679,119L675,120L668,120L659,113L651,106L644,102L638,99L633,97L628,97L625,97L623,97L621,102L619,109L616,114L613,118L609,122L604,124L599,124L592,124L583,119L574,112L565,106L558,102L551,100L546,98L542,98L539,98L536,98L533,101L529,107L526,114L523,120L520,124L517,127L514,129L509,131L504,131L496,130L488,126L479,119L471,113L464,109L458,106L452,104L449,104L445,104L442,104L439,106L436,112L434,116L432,119L428,124L425,126L421,128L415,128L409,128L398,125L388,119L381,114L373,110L368,107L363,106L360,105L357,105L356,105L355,109L355,115L354,120L352,126L350,129L347,132L342,133L337,133L327,131L315,125L307,121L300,117L292,114L286,112L281,111L276,111L273,111L269,114L265,120L262,124L258,129L254,132L251,135L245,136L237,136L226,136L211,131L196,125L182,119L172,114L163,111L157,109L153,109L150,109L149,109L149,116L149,124L149,130L149,137L149,141L149,144L145,146L138,146L128,146L114,140L103,135L92,131L84,129L79,128L77,127L75,127L76,133L77,138L78,142L78,145L78,148L77,149L72,150L64,150L53,148L45,147L40,146L36,145L33,144L32,144L37,141" stroke-opacity="1" stroke-width="5" stroke-linecap="round" stroke-linejoin="round" style="-webkit-tap-highlight-color: rgba(0, 0, 0, 0); stroke-opacity: 1; stroke-linecap: round; stroke-linejoin: round; -webkit-user-select: text;"></path><path fill="none" stroke="#ff4dc0" d="M48,180L50,189L55,195L63,202L69,205L73,205L78,204L80,197L81,194L81,190L82,189L83,189L85,189L89,193L94,197L99,200L105,204L111,206L118,207L123,207L130,207L135,202L138,199L141,195L144,193L148,192L152,192L159,193L168,199L177,204L186,209L196,212L205,214L217,214L226,212L235,206L242,199L247,194L252,191L257,190L262,190L270,192L277,199L288,207L297,214L306,219L313,220L320,221L326,221L332,218L337,213L342,207L346,202L349,199L353,196L357,195L361,195L365,195L370,196L375,199L380,202L386,204L392,204L397,204L402,204L406,200L410,195L413,191L415,188L417,187L420,186L422,186L424,186L428,189L432,192L437,194L443,194L449,194L455,194L460,191L464,187L468,183L471,181L474,179L478,178L481,178L485,178L491,180L497,184L504,188L511,192L517,193L523,194L529,194L533,193L537,189L539,185L541,181L543,178L545,177L547,176L550,176L553,176L558,177L565,179L571,180L577,182L582,182L586,182L590,182L593,181L596,178L599,176L602,175L604,175L607,175L611,175L615,177L621,181L626,185L632,187L637,188L643,188L648,188L653,187L657,185L660,183L663,181L665,180L668,179L672,179L677,179L683,179L689,179L697,182L706,184L713,185L721,185L730,185L737,182L742,179L746,175L751,173L755,171L758,171L763,171L769,171L776,174L785,176L792,178L799,180L807,180L814,180L818,180L823,178L827,176L831,174L834,173L838,173L841,173L848,173L856,175L865,178L874,181L883,183L890,183L896,183L901,183L906,182L911,180L915,180L918,180L923,180L929,182L937,187L943,191L948,194L953,195L957,196L962,196L964,196L967,196L969,195L970,194L971,194L973,194L975,195L977,196L979,197L981,197L983,197L985,197L986,195L989,192L991,191L992,190L994,190L995,190L996,190" stroke-opacity="1" stroke-width="5" stroke-linecap="round" stroke-linejoin="round" style="-webkit-tap-highlight-color: rgba(0, 0, 0, 0); stroke-opacity: 1; stroke-linecap: round; stroke-linejoin: round; -webkit-user-select: text;"></path><path fill="none" stroke="#ff4dc0" d="M1015,238L1008,238L1006,243L1003,248L1001,253L1001,257" stroke-opacity="1" stroke-width="5" stroke-linecap="round" stroke-linejoin="round" style="-webkit-tap-highlight-color: rgba(0, 0, 0, 0); stroke-opacity: 1; stroke-linecap: round; stroke-linejoin: round; -webkit-user-select: text;"></path><path fill="none" stroke="#ff4dc0" d="M1015,238L1008,238L1006,243L1003,248L1001,253L1001,257L1006,255L998,255L990,250L980,244L937,227L935,228L934,234L934,244L934,251L934,257L934,262L934,266L933,268L931,269L928,269L925,267L920,262L913,255L906,249L901,245L895,242L864,239L858,239L853,241L849,246L847,258L847,272L847,281L847,287L846,291L844,294L840,294L833,294L826,289L816,284L806,278L796,272L785,266L777,262L772,260L767,259L760,259L757,260L754,264L750,267L746,270L741,271L732,271L722,270L711,266L701,262L693,258L687,256L682,256L678,256L676,256L675,256L674,259L673,261L672,262L670,263L668,263L664,263L658,261L652,257L645,253L639,249L633,247L628,245L624,245L620,245L618,245L617,248L617,254L616,258L615,261L613,263L611,263L606,263L600,260L592,254L584,248L576,242L570,239L566,238L561,238L558,238L554,240L551,243L549,247L546,249L542,252L539,254L534,255L525,255L515,255L504,252L493,248L485,244L476,241L471,241L467,241L463,241L461,243L458,248L455,251L451,254L446,256L440,258L432,258L420,258L410,255L397,252L385,248L377,246L371,245L367,245L364,245L361,245L360,246L359,246L356,247L352,248L346,248L338,248L330,247L321,245L315,245L311,245L308,245L306,247L305,249L304,252L303,254L300,256L295,258L289,258L283,258L273,258L260,258L249,257L240,256L234,256L230,256L228,257L225,259L224,264L222,268L219,272L213,275L206,276L196,277L183,277L167,274L152,268L138,264L127,261L121,260L118,260L116,260L116,262L117,267L117,270L117,272L117,273L110,273L103,273L93,270L83,266L73,263L65,260L58,258L53,257L49,257L46,257L45,257L48,261L53,266L55,269L55,270" stroke-opacity="1" stroke-width="5" stroke-linecap="round" stroke-linejoin="round" style="-webkit-tap-highlight-color: rgba(0, 0, 0, 0); stroke-opacity: 1; stroke-linecap: round; stroke-linejoin: round; -webkit-user-select: text;"></path><path fill="none" stroke="#00ff02" d="M56,302L51,304L49,305L49,308L49,312L49,316L49,322L51,328L55,332L58,335L61,336L67,336L73,333L79,328L84,322L88,319L91,318L93,318L95,318L97,321L100,328L103,334L106,338L109,341L113,343L116,344L121,344L126,340L130,334L135,328L139,324L142,321L145,320L148,320L150,320L155,322L160,326L166,331L172,333L178,335L186,336L195,336L203,331L211,325L216,321L223,316L228,315L234,314L242,314L250,316L259,322L269,328L278,333L287,338L294,342L302,345L308,346L314,346L319,345L323,342L326,338L329,335L331,332L333,329L335,328L339,328L342,328L348,328L354,329L361,333L369,336L375,338L380,338L386,339L391,339L395,339L398,336L402,334L405,333L409,332L413,332L420,332L426,332L433,333L442,335L452,335L461,335L469,335L478,332L483,329L488,326L493,324L497,323L501,322L505,322L510,322L516,324L523,327L530,330L536,332L543,334L548,335L555,335L559,335L562,333L565,330L567,328L570,326L573,326L577,326L583,326L589,326L597,326L606,327L614,328L623,328L630,328L635,326L640,323L643,322L647,322L651,322L655,322L659,323L663,325L667,327L671,328L677,328L683,328L688,328L692,328L697,327L701,326L705,326L709,325L714,324L722,324L735,324L747,324L761,326L775,328L788,331L799,334L809,335L818,335L827,335L835,335L840,333L845,331L848,329L852,328L857,328L863,328L870,329L879,334L888,338L894,340L899,340L903,340L906,340L909,337L913,335L916,333L920,333L926,333L931,333L938,333L943,333L949,333L954,333L959,333L962,329L965,327L968,325L971,324L974,324L976,324L979,324L981,326L984,327L986,328L989,328L993,327L996,323L998,321L1001,319L1004,318L1006,318" stroke-opacity="1" stroke-width="5" stroke-linecap="round" stroke-linejoin="round" style="-webkit-tap-highlight-color: rgba(0, 0, 0, 0); stroke-opacity: 1; stroke-linecap: round; stroke-linejoin: round; -webkit-user-select: text;"></path><path fill="none" stroke="#00ff02" d="M993,398L991,396L990,394L989,392L986,391L984,389L981,387L977,386L973,384L968,383L964,382L959,382L956,382L953,382L951,383L948,387L946,391L944,398L942,405L940,410L938,414L936,417L934,419L931,420L927,420L922,420L915,419L908,416L901,413L892,410L884,406L879,404L873,402L868,401L864,401L859,401L855,402L852,406L849,411L847,416L845,420L844,423L843,424L841,424L838,424L834,421L828,417L821,412L812,406L806,403L801,401L796,400L792,400L789,400L788,400L786,403L784,406L782,408L779,411L775,412L771,413L762,413L754,413L745,411L734,408L727,406L721,405L717,404L714,404L711,404L710,404L709,405L709,406L707,408L706,410L704,412L700,412L694,413L687,413L678,412L670,409L659,405L651,403L645,401L640,401L635,401L632,401L629,402L627,404L626,406L624,408L621,409L617,409L611,409L602,409L595,408L587,405L578,401L571,398L566,397L563,396L561,396L560,396L560,397L559,399L559,401L558,403L554,404L548,404L542,404L533,404L522,402L512,399L503,397L497,396L493,395L490,395L488,395L487,397L487,399L487,401L485,402L483,402L477,402L471,402L464,402L454,402L443,401L434,399L428,399L424,399L421,399L419,399L419,400L418,402L417,403L415,404L410,404L401,404L389,404L378,402L365,399L355,397L349,396L344,396L342,396L341,396L340,396L339,396L337,396L333,396L326,396L317,395L307,394L294,393L285,391L280,391L277,391L275,391L276,394L276,396L276,398L276,399L270,399L262,399L252,399L238,399L227,396L218,395L213,395L210,394L208,394L209,395L211,398L212,399L212,401L211,401L203,401L193,401L180,399L165,395L153,393L147,392L144,391L142,391L146,393L148,396L150,398L150,400L150,401L143,401L135,400L123,397L111,394L104,393L98,392L95,392L92,392L92,393L91,394L87,394L81,394L75,394L67,394L60,394L54,393L51,392L49,392L50,392L54,394L55,396L55,397L54,397L50,397L45,396L41,394L37,392L34,389" stroke-opacity="1" stroke-width="5" stroke-linecap="round" stroke-linejoin="round" style="-webkit-tap-highlight-color: rgba(0, 0, 0, 0); stroke-opacity: 1; stroke-linecap: round; stroke-linejoin: round; -webkit-user-select: text;"></path><path fill="none" stroke="#ffea81" d="M44,435L46,443L53,452L58,458L62,462L65,464L67,466L70,466L72,466L75,462L78,458L81,455L84,453L87,452L91,452L95,452L101,452L108,453L114,453L122,453L128,450L131,446L133,443L135,440L138,439L140,438L143,438L148,438L155,438L164,439L171,440L179,440L188,440L194,440L202,439L209,435L215,433L220,430L224,429L230,429L240,429L249,433L260,437L271,441L280,445L288,448L296,449L303,449L310,449L316,447L321,445L324,443L328,442L332,442L337,442L344,442L352,445L358,447L366,448L372,448L379,448L385,448L390,445L393,444L396,443L399,442L402,442L405,442L410,443L417,445L426,447L432,448L439,448L443,448L446,448L449,446L451,445L453,445L455,445L457,445L461,445L464,447L468,449L472,450L476,450L480,450L483,450L485,450L488,449L491,449L494,449L499,449L504,449L510,451L517,452L523,453L529,454L534,454L538,454L541,453L544,452L545,452L546,452L549,452L553,452L561,455L568,456L574,456L579,456L583,456L585,455L587,454L588,452L589,452L590,452L593,452L596,454L600,455L604,456L608,456L612,456L615,456L618,456L620,456L623,455L626,455L630,455L635,455L639,455L643,455L650,456L658,457L665,457L674,457L682,457L691,452L696,448L700,445L703,444L707,443L711,443L718,443L728,446L736,448L743,449L748,450L753,450L755,450L758,450L759,450L760,450L763,450L767,453L776,458L786,462L793,465L801,467L808,469L816,469L823,469L829,469L834,469L838,469L843,469L847,470L850,472L854,473L857,474L862,475L866,476L871,476L876,475L880,472L884,470L887,469L891,467L894,467L898,467L902,467L908,467L915,466L922,464L929,462L937,458L945,455L950,452L954,450L959,449L963,448L966,448L969,448L971,449L973,450L974,450L974,451L975,451L976,451L979,451L981,451L984,451L986,451L988,451L991,451L993,451" stroke-opacity="1" stroke-width="5" stroke-linecap="round" stroke-linejoin="round" style="-webkit-tap-highlight-color: rgba(0, 0, 0, 0); stroke-opacity: 1; stroke-linecap: round; stroke-linejoin: round; -webkit-user-select: text;"></path><path fill="none" stroke="#ffea81" d="M982,488L982,493L982,498L982,503L982,507L982,510L982,512L982,513L981,513L980,513L977,513L974,513L969,513L963,514L958,515L951,515L942,515L934,515L928,513L923,512L918,512L915,512L913,512L911,513L910,517L909,520L907,523L905,526L902,528L897,528L890,528L882,528L875,528L867,528L862,528L857,528L854,528L852,528L850,528L849,529L848,530L847,530L844,530L841,530L837,529L831,528L826,527L820,526L816,525L811,525L809,525L807,525L806,525L805,525L804,525L801,524L797,523L791,520L782,518L775,515L768,513L761,512L757,512L754,512L753,512L752,512L751,512L749,512L745,511L737,510L728,509L721,508L714,507L708,507L704,507L702,507L700,507L699,509L699,510L698,512L696,512L691,512L683,512L675,512L667,511L659,510L652,508L648,508L645,508L643,508L642,508L641,508L638,508L632,508L624,508L618,508L610,508L603,507L596,506L592,505L589,505L587,505L586,505L585,505L583,505L580,506L575,506L568,506L561,506L551,506L542,505L532,502L525,501L521,500L519,500L517,500L516,500L515,500L514,500L511,501L505,501L498,502L490,502L481,502L472,502L466,502L461,503L457,503L455,505L454,507L452,508L451,509L448,510L445,511L440,511L434,511L428,511L420,511L412,511L406,510L401,509L397,509L395,509L393,509L392,509L390,509L386,509L380,509L371,509L361,509L351,507L340,505L332,503L327,503L324,503L321,503L320,503L319,503L318,503L315,503L307,504L298,504L288,504L278,504L267,504L258,504L250,504L245,504L242,504L240,504L239,504L237,504L234,504L228,505L219,505L209,505L196,505L184,505L174,505L168,505L164,505L162,505L161,505L161,506L160,506L157,507L152,507L145,508L136,508L128,508L121,509L113,509L110,510L108,510L107,510L107,511L107,512L107,513L106,513L104,513L100,513L95,513L88,513L81,513L75,513L70,513L64,513L60,513L56,513L55,513L54,510" stroke-opacity="1" stroke-width="5" stroke-linecap="round" stroke-linejoin="round" style="-webkit-tap-highlight-color: rgba(0, 0, 0, 0); stroke-opacity: 1; stroke-linecap: round; stroke-linejoin: round; -webkit-user-select: text;"></path><path fill="none" stroke="#ff63db" d="M50,558L52,556L52,555L53,554L54,554L57,554L61,554L66,554L70,557L72,560L75,562L77,564L78,564L79,564L80,562L82,559L84,555L88,551L93,548L96,547L101,547L106,547L111,547L116,548L120,552L123,555L126,557L129,558L131,559L133,559L135,558L138,556L141,554L145,553L150,552L156,552L162,552L168,552L173,552L179,552L184,552L189,552L193,552L196,550L200,548L203,546L206,546L212,546L220,546L228,546L237,546L244,546L250,546L255,546L259,546L263,546L266,546L269,546L273,546L278,546L284,546L291,546L299,547L306,547L315,547L322,547L326,547L329,547L332,547L333,547L334,547L337,547L346,548L356,552L364,554L371,556L375,556L379,557L382,557L383,557L384,557L385,557L386,557L388,557L397,557L407,559L417,560L424,560L429,560L433,559L436,556L437,554L438,552L439,552L442,551L446,551L453,551L460,551L465,551L471,551L475,551L479,551L481,551L483,549L485,548L487,548L490,548L496,548L504,548L512,548L520,549L529,551L535,551L541,551L548,551L553,549L558,548L562,548L567,548L574,548L584,550L594,554L602,557L608,559L613,559L619,559L624,559L630,557L634,555L638,554L646,554L653,555L660,558L666,559L673,561L679,562L685,562L691,562L697,560L702,558L705,557L709,555L714,554L720,554L726,554L734,554L743,554L751,552L759,549L765,545L769,542L773,540L777,538L781,537L785,537L789,537L792,538L796,540L800,542L805,543L811,544L818,544L826,544L833,541L838,539L843,537L847,535L850,534L852,534L856,535L860,537L864,540L867,542L871,544L875,545L882,546L888,546L893,546L898,546L903,546L908,547L912,548L916,550L919,552L923,553L925,554L929,555L933,556L936,556L939,557L942,558L944,559L945,560L946,561L948,562L950,563L953,564L957,565L961,566L965,566L969,566L973,566L976,566L979,566L981,566L983,566L984,566L985,566L986,566L988,566L990,565L993,564L995,562L998,561L1001,561" stroke-opacity="1" stroke-width="5" stroke-linecap="round" stroke-linejoin="round" style="-webkit-tap-highlight-color: rgba(0, 0, 0, 0); stroke-opacity: 1; stroke-linecap: round; stroke-linejoin: round; -webkit-user-select: text;"></path><path fill="none" stroke="#ff63db" d="M996,600L991,598L989,598L985,598L981,598L978,598L975,598L971,599L969,601L966,603L963,604L959,605L956,606L952,606L947,606L941,606L935,605L927,603L919,602L915,601L911,601L908,601L907,601L905,603L904,605L902,606L899,608L895,608L889,609L881,609L870,608L858,605L849,603L843,603L839,603L837,603L835,603L833,602L830,601L826,600L820,599L813,598L805,596L800,596L796,595L793,595L790,595L789,595L788,595L786,595L781,595L774,595L764,596L755,598L746,599L737,599L730,599L725,600L721,600L719,600L719,601L718,603L716,603L712,605L704,606L695,607L685,607L673,607L660,607L648,605L641,605L637,605L635,605L634,605L633,605L632,605L629,605L620,605L609,605L598,605L587,605L575,604L567,603L562,602L560,602L558,602L557,602L556,602L553,602L546,602L539,602L529,602L520,602L511,602L501,602L496,601L493,601L491,600L490,600L489,600L486,600L479,600L471,600L463,600L452,600L441,600L428,600L420,599L414,599L410,599L408,598L406,598L405,598L403,598L396,598L387,598L376,599L365,599L354,600L340,600L328,600L320,600L314,600L311,600L309,600L308,600L307,600L306,600L301,600L294,600L287,600L276,600L264,600L252,600L243,600L237,600L233,600L230,600L228,600L227,600L225,600L219,600L211,601L202,601L191,602L180,603L166,603L156,603L148,603L143,603L140,603L138,603L137,603L136,603L133,603L126,603L117,604L108,605L97,605L89,605L84,606L80,606L77,607L77,608L76,609L75,609L72,609L66,609L60,609L53,609L46,609L38,609L34,608L31,608L29,606" stroke-opacity="1" stroke-width="5" stroke-linecap="round" stroke-linejoin="round" style="-webkit-tap-highlight-color: rgba(0, 0, 0, 0); stroke-opacity: 1; stroke-linecap: round; stroke-linejoin: round; -webkit-user-select: text;"></path></svg>