<svg height="568" version="1.1" width="1066" xmlns="http://www.w3.org/2000/svg" xmlns:xlink="http://www.w3.org/1999/xlink" style="overflow: hidden; position: relative; user-select: text;"><desc style="-webkit-tap-highlight-color: rgba(0, 0, 0, 0); user-select: text;">Created with Raphaël 2.2.0</desc><defs style="-webkit-tap-highlight-color: rgba(0, 0, 0, 0); user-select: text;"></defs><path fill="none" stroke="#ff0000" d="M87,99L87,99L87,98L86,97L85,96L84,93L84,90L83,87L81,83L81,80L81,78L81,74L81,72L81,69L81,68L81,66L81,65L81,64L81,63L83,62L84,61L87,60L89,60L93,60L95,60L97,60L100,60L102,60L104,60L106,60L107,61L107,61L108,62L108,62L109,62L109,63L109,64L109,64L109,65L109,68L108,70L106,72L104,75L102,78L99,81L98,83L96,85L93,87L90,89L88,90L86,91L84,92L83,93L81,93L80,93L78,93L77,93L77,93L76,93L76,93L76,93L76,93L76,93L76,92L75,92L75,92L75,91L75,91L75,91L74,90L74,90L73,90L73,90L72,90L71,90L71,90L70,90L70,90L69,90L69,90L69,90L69,90L69,89L69,89L69,89L69,89L70,89" stroke-opacity="1" stroke-width="5" stroke-linecap="round" stroke-linejoin="round" style="-webkit-tap-highlight-color: rgba(0, 0, 0, 0); stroke-opacity: 1; stroke-linecap: round; stroke-linejoin: round; user-select: text;"></path><path fill="none" stroke="#ff0000" d="M158,67L158,67L159,67L162,65L165,63L168,62L172,60L178,58L183,56L187,55L192,54L194,54L198,53L200,53L202,53L204,53L205,53L206,53L206,53L206,53L207,53L207,54L207,54L207,55L207,56L207,58L207,60L207,62L206,64L205,66L204,68L203,70L202,72L201,74L199,75L198,76L196,78L195,79L193,80L192,81L190,82L188,82L187,84L186,84L184,85L183,85L182,86L181,86L180,86L179,86L178,87L178,87L177,87L176,87L176,87L176,87L175,87L175,86L175,86L175,85L175,84L175,83L175,81L175,80L175,79L176,77L177,75L179,73L181,71L184,69L185,69L188,68L191,67L193,66L195,66L197,65L199,65L201,65L203,65L205,65L207,65L208,65L210,65L212,66L213,67L214,67L215,68L216,68L216,68L217,69L217,69L217,69L218,69L218,70L218,70" stroke-opacity="1" stroke-width="5" stroke-linecap="round" stroke-linejoin="round" style="-webkit-tap-highlight-color: rgba(0, 0, 0, 0); stroke-opacity: 1; stroke-linecap: round; stroke-linejoin: round; user-select: text;"></path><path fill="none" stroke="#ff0000" d="M257,68L258,68L259,68L260,68L261,67L263,67L265,67L267,67L268,67L270,66L272,66L273,66L275,66L276,66L278,66L279,66L281,66L283,66L284,66L286,66L288,66L289,67L291,68L292,69L293,70L294,71L295,73L296,74L296,75L297,77L297,79L297,80L297,82L297,83L297,84L297,86L297,87L297,88L295,90L293,90L292,91L289,92L288,93L286,93L284,94L283,94L281,94L280,94L279,94L278,94L277,94L276,94L275,94L274,93L273,92L272,91L271,90L271,90L270,89L270,88L269,87L269,86L269,86L269,85L268,84L268,83L268,83L268,83L268,82L268,82L268,82L268,82L268,81L268,81L269,80L272,78L276,76L279,75L284,73L289,70L295,68L300,66L301,65L305,63L308,62L310,61L311,61L312,60L313,60L313,60L314,60L314,60L314,60" stroke-opacity="1" stroke-width="5" stroke-linecap="round" stroke-linejoin="round" style="-webkit-tap-highlight-color: rgba(0, 0, 0, 0); stroke-opacity: 1; stroke-linecap: round; stroke-linejoin: round; user-select: text;"></path><path fill="none" stroke="#ff0000" d="M403,76L404,76L405,76L408,76L410,76L414,76L418,76L422,77L425,79L427,79L430,80L432,81L434,83L435,83L436,84L437,85L437,86L437,87L437,88L437,89L437,90L437,92L437,93L437,95L435,96L435,97L432,100L430,101L427,103L424,103L420,104L416,105L415,105L412,105L408,105L405,105L403,105L400,105L398,105L397,105L395,105L394,105L393,105L392,104L391,104L391,104L390,103L390,102L390,102L390,101L390,100L390,99L390,98L390,97L390,96L390,94L390,93L391,91L392,89L394,86L396,84L398,82L401,80L404,79L407,77L410,75L412,75L415,75L418,74L421,74L423,74L425,74L426,74L427,74L428,74L428,74L428,74L429,74L429,74L429,74L429,74" stroke-opacity="1" stroke-width="5" stroke-linecap="round" stroke-linejoin="round" style="-webkit-tap-highlight-color: rgba(0, 0, 0, 0); stroke-opacity: 1; stroke-linecap: round; stroke-linejoin: round; user-select: text;"></path><path fill="none" stroke="#ff0000" d="M505,56L506,56L508,56L511,56L514,56L517,56L523,56L527,56L530,56L534,56L537,56L538,56L541,56L544,56L546,56L548,56L549,56L551,57L552,58L553,58L554,59L555,61L556,62L557,64L557,66L557,67L558,70L558,72L558,73L558,74L558,76L557,77L556,79L554,81L551,82L547,84L543,85L538,86L533,86L528,87L522,87L517,87L515,87L511,87L507,87L504,87L501,87L499,87L497,87L496,86L495,86L494,85L494,84L494,84L494,83L494,81L494,79L494,77L494,74L495,71L497,68L498,66L501,61L502,60L504,57L507,55L511,52L512,51L515,50L518,49L520,49L523,48L525,48L527,47L530,47L532,47L534,47L536,47L537,47L538,47L539,47L540,47L540,47L540,47L540,47L541,47L541,47" stroke-opacity="1" stroke-width="5" stroke-linecap="round" stroke-linejoin="round" style="-webkit-tap-highlight-color: rgba(0, 0, 0, 0); stroke-opacity: 1; stroke-linecap: round; stroke-linejoin: round; user-select: text;"></path><path fill="none" stroke="#ff0000" d="M642,59L639,58L637,58L635,58L634,58L633,58L632,58L632,58L631,58L631,58L631,58L630,58L629,58L628,58L626,58L625,58L623,58L622,58L620,58L619,58L618,58L618,58L617,58L617,58L617,58L617,60L617,62L617,64L617,67L617,70L617,74L617,78L617,81L617,84L617,90L617,91L619,94L620,96L621,98L623,99L625,101L628,103L630,103L633,104L637,104L641,105L646,105L652,105L657,105L659,105L664,105L668,105L671,105L673,105L675,105L676,104L677,104L678,104L678,104L678,104L678,103L679,103L679,102L679,101L679,100L679,98L679,95L679,92L678,90L677,87L676,84L674,81L672,78L670,76L669,75L667,73L664,70L663,69L659,67L657,66L655,66L653,65L651,64L649,64L648,64L646,64L645,64L644,64L643,64L642,64L642,64L642,64L641,64L641,64L641,65L641,65L641,65L640,66L640,67L640,68L640,70L639,71L639,73L639,76L639,78L639,80L639,82L639,84L639,85L639,86L639,88L639,89L640,89L641,90L641,90L642,90L643,91L643,91L644,91L644,91L645,91L645,91L645,91L646,91L646,91L646,91L647,91L647,91" stroke-opacity="1" stroke-width="5" stroke-linecap="round" stroke-linejoin="round" style="-webkit-tap-highlight-color: rgba(0, 0, 0, 0); stroke-opacity: 1; stroke-linecap: round; stroke-linejoin: round; user-select: text;"></path><path fill="none" stroke="#ff0000" d="M740,84L741,84L741,84L741,84L741,83L739,82L738,80L737,79L735,77L734,75L733,74L732,72L731,70L730,69L729,68L729,67L729,67L729,66L729,65L729,65L729,65L730,64L731,63L734,61L737,60L740,59L744,57L749,55L754,54L758,53L763,53L765,52L769,52L772,52L774,52L776,52L778,52L780,52L780,52L782,53L782,54L783,55L783,57L784,59L784,61L784,62L784,65L784,67L784,69L784,71L784,73L784,74L784,76L782,77L781,78L780,80L778,82L776,83L773,84L770,84L767,85L764,85L761,86L756,86L754,86L752,86L750,86L748,86L746,86L744,86L744,86L743,85L742,85L741,84L741,84L741,84L741,84L741,83L741,83L741,83L741,82L741,82L741,81L742,80L743,79L747,77L750,74L755,72L758,71L761,70L764,69L767,69L770,68L772,68L774,68L775,68L775,68L776,68L776,68L777,68L777,68L777,68L777,69L777,69" stroke-opacity="1" stroke-width="5" stroke-linecap="round" stroke-linejoin="round" style="-webkit-tap-highlight-color: rgba(0, 0, 0, 0); stroke-opacity: 1; stroke-linecap: round; stroke-linejoin: round; user-select: text;"></path><path fill="none" stroke="#ff0000" d="M869,67L869,67L869,67L870,67L870,67L870,67L871,67L871,67L872,67L872,67L873,67L875,67L876,67L879,67L881,67L885,68L889,70L892,71L894,72L898,73L900,74L902,75L903,75L904,75L904,75L904,75L905,75L905,75L906,75L906,75L907,75L907,75L908,76L908,76L908,76L908,77L908,77L908,78L908,80L906,82L904,84L902,87L898,91L894,94L891,97L887,100L885,102L881,104L878,106L875,108L873,109L871,110L870,110L868,110L867,111L866,111L865,111L864,111L864,111L863,111L863,110L862,109L862,108L861,106L860,104L860,103L859,99L858,97L857,95L856,92L856,90L855,88L854,86L853,84L853,83L852,81L852,80L852,78L851,77L851,75L851,73L851,72L851,70L851,67L851,66L851,63L851,62L853,59L855,58L858,56L862,56L866,55L871,55L877,55L882,55L888,55L893,55L898,57L900,58L903,60L906,62L908,63L910,65L911,66L912,67L912,68L912,69L913,70L913,70L913,71L913,72L913,74L912,75L909,77L908,78L906,79L903,81L901,82L899,82L895,84L893,85L890,86L888,86L886,86L884,87L882,87L881,87L880,88L879,88L878,88L878,88L878,88L877,88L877,88" stroke-opacity="1" stroke-width="5" stroke-linecap="round" stroke-linejoin="round" style="-webkit-tap-highlight-color: rgba(0, 0, 0, 0); stroke-opacity: 1; stroke-linecap: round; stroke-linejoin: round; user-select: text;"></path><path fill="none" stroke="#ff0000" d="M959,85L961,85L961,85L961,85L962,85L963,85L964,85L967,85L973,85L977,85L982,85L985,85L990,85L994,85L998,85L1000,85L1002,85L1003,85L1003,85L1004,85L1004,85L1004,86L1004,85L1004,81L1003,77L1001,74L999,71L998,70L995,68L993,66L992,65L991,64L989,64L988,64L987,64L986,64L986,64L985,64L985,64L984,64L983,65L981,67L979,69L978,71L976,74L974,77L972,81L971,84L969,88L968,91L967,93L966,97L965,100L965,103L965,106L965,110L965,113L965,116L965,119L966,121L968,125L970,126L972,129L975,132L976,132L979,133L983,135L985,135L987,135L990,135L991,135L994,135L995,135L997,133L998,132L999,130L1000,129L1001,126L1001,124L1001,121L1001,119L1001,116L1000,114L999,111L997,108L994,105L991,103L990,102L987,100L985,98L983,97L982,96L981,96L980,96L979,96L979,96L978,96L978,96L977,96L977,96L977,96L977,96L976,96L976,96L976,96L975,96L974,96L973,96" stroke-opacity="1" stroke-width="5" stroke-linecap="round" stroke-linejoin="round" style="-webkit-tap-highlight-color: rgba(0, 0, 0, 0); stroke-opacity: 1; stroke-linecap: round; stroke-linejoin: round; user-select: text;"></path><path fill="none" stroke="#27ff4f" d="M406,92L407,92L408,92L409,92L411,92L413,92L415,92L416,93L418,93L419,94L420,94L420,94L421,95L421,96L421,96L422,97L422,97L422,98L422,98L422,99L422,100L422,101L422,102L422,104L422,106L420,107L419,109L416,111L413,113L410,115L406,116L401,117L397,117L395,117L391,117L388,117L385,117L383,117L381,117L380,116L378,115L378,114L377,113L377,111L377,109L377,106L377,103L378,100L380,95L382,90L385,85L388,80L390,78L391,75L393,72L394,70L395,69L396,68L397,67L397,66L398,66L399,66L400,65L402,65L405,65L408,65L412,65L416,65L419,66L422,68L426,70L428,72L431,74L433,78L433,79L435,84L436,86L437,91L437,94L437,97L437,101L437,104L437,106L436,109L435,111L434,114L433,115L432,117L430,118L429,119L428,120L428,121" stroke-opacity="1" stroke-width="5" stroke-linecap="round" stroke-linejoin="round" style="-webkit-tap-highlight-color: rgba(0, 0, 0, 0); stroke-opacity: 1; stroke-linecap: round; stroke-linejoin: round; user-select: text;"></path><path fill="none" stroke="#27ff4f" d="M294,79L294,80L294,80L294,80L293,80L293,80L293,80L292,80L291,80L289,80L289,80L287,80L285,80L283,80L281,79L279,77L276,75L274,73L272,70L270,67L268,63L267,59L266,55L266,51L266,47L266,46L266,40L266,37L266,35L268,32L269,31L272,28L274,27L277,26L280,25L282,25L287,25L288,25L291,25L293,25L296,26L298,27L300,30L302,32L303,35L305,39L306,43L307,48L307,53L308,59L308,65L308,70L308,73L308,77L308,81L308,84L307,87L307,88L305,90L305,92L304,93L303,94L301,95L300,96L298,97L296,97L294,97L291,98L289,98L287,98L285,98L283,98L282,98L280,97L280,97L279,96L278,95L277,94L277,93L276,91L276,90L276,89L275,87L275,85L275,84L275,82L275,80L275,78L275,77L275,76L275,75L275,74L275,74L275,73L275,73L275,73L275,72L275,72" stroke-opacity="1" stroke-width="5" stroke-linecap="round" stroke-linejoin="round" style="-webkit-tap-highlight-color: rgba(0, 0, 0, 0); stroke-opacity: 1; stroke-linecap: round; stroke-linejoin: round; user-select: text;"></path><path fill="none" stroke="#27ff4f" d="M188,77L188,76L188,76L188,75L188,73L188,71L188,70L188,69L187,66L187,65L186,63L186,61L186,60L186,58L186,57L186,56L186,56L186,55L186,55L186,54L187,54L189,53L192,52L194,51L195,51L198,50L200,50L203,50L205,50L207,50L209,50L210,51L212,53L213,56L214,59L215,62L216,67L217,72L217,77L218,81L218,84L218,88L218,91L218,94L218,96L217,99L216,100L215,102L214,103L213,104L212,105L210,105L208,106L205,107L203,107L200,107L197,107L196,107L194,107L191,107L189,106L187,105L184,102L183,101L181,99L179,95L178,94L177,91L177,89L176,84L176,81L176,78L176,75L176,74L176,71L176,69L176,66L177,64L177,63L177,62L178,62L178,61L178,61L179,61L179,61L179,61L179,61L179,61L179,61" stroke-opacity="1" stroke-width="5" stroke-linecap="round" stroke-linejoin="round" style="-webkit-tap-highlight-color: rgba(0, 0, 0, 0); stroke-opacity: 1; stroke-linecap: round; stroke-linejoin: round; user-select: text;"></path><path fill="none" stroke="#27ff4f" d="M96,73L96,73L95,73L93,71L91,70L88,67L84,64L81,61L77,58L76,57L74,53L73,52L72,49L71,48L71,46L71,45L71,45L71,44L71,44L71,43L71,43L73,43L74,43L75,43L76,43L77,43L79,43L81,43L82,43L85,44L87,46L89,47L90,48L93,52L93,53L96,57L97,60L97,63L98,66L98,70L98,74L98,77L98,79L98,82L98,85L96,87L96,89L94,90L93,91L91,92L89,93L88,94L86,94L83,94L81,94L79,94L77,94L75,94L73,92L72,91L69,88L67,86L65,83L64,81L63,78L62,74L61,71L60,67L60,65L59,59L59,57L59,54L59,51L59,48L59,46L59,44L60,43L62,41L64,39L66,38L67,38L70,37L72,37L75,37L78,37L81,37L83,39L86,42L88,45L90,49L92,53L93,55L95,58L95,62L96,65L96,68L96,71L96,73L96,75L96,77L96,78L96,79L96,80L96,80L96,81L96,81L95,81L95,81" stroke-opacity="1" stroke-width="5" stroke-linecap="round" stroke-linejoin="round" style="-webkit-tap-highlight-color: rgba(0, 0, 0, 0); stroke-opacity: 1; stroke-linecap: round; stroke-linejoin: round; user-select: text;"></path><path fill="none" stroke="#27ff4f" d="M522,88L522,87L522,86L521,85L520,82L518,79L516,75L514,70L513,66L512,61L512,57L512,55L512,49L512,47L512,44L512,42L512,39L513,37L516,36L520,34L525,33L527,33L533,33L537,33L539,33L542,33L545,34L547,35L549,37L551,40L552,42L552,46L553,50L553,54L553,58L552,63L550,68L547,73L546,75L542,81L540,85L538,88L535,90L532,92L529,94L524,95L521,96L517,96L513,96L509,96L505,96L504,96L500,95L498,93L496,92L494,91L493,90L493,89L492,88L492,87L492,86L492,84L492,82L493,80L497,77L502,72L509,68L516,64L520,63L528,61L531,60L536,59L540,59L543,59L546,59L547,59L548,59L549,60L549,62L550,65L550,67L550,70L550,74L548,77L547,81L545,86L543,90L541,95L539,99L537,101L535,105L534,107L532,110L530,112L529,114L528,115L528,115" stroke-opacity="1" stroke-width="5" stroke-linecap="round" stroke-linejoin="round" style="-webkit-tap-highlight-color: rgba(0, 0, 0, 0); stroke-opacity: 1; stroke-linecap: round; stroke-linejoin: round; user-select: text;"></path><path fill="none" stroke="#27ff4f" d="M671,100L670,100L669,100L667,99L664,98L660,96L656,95L651,92L646,91L642,88L639,86L636,85L635,83L633,82L631,80L630,79L629,78L629,77L629,76L629,76L629,74L629,73L632,70L639,68L653,63L660,60L666,59L676,57L685,56L692,56L698,56L702,56L704,57L706,59L708,61L710,64L711,67L712,70L712,74L712,77L711,82L709,86L707,90L704,95L700,99L696,103L691,106L686,109L681,112L675,114L669,115L663,116L658,116L652,117L648,117L646,117L642,117L640,117L638,117L637,116L636,115L635,115L635,114L635,113L635,111L635,109L635,106L635,103L636,99L636,97L638,94L639,90L641,87L642,85L643,83L644,81L645,79L646,78L647,77L648,76L648,76L648,76L649,76L649,75L649,75" stroke-opacity="1" stroke-width="5" stroke-linecap="round" stroke-linejoin="round" style="-webkit-tap-highlight-color: rgba(0, 0, 0, 0); stroke-opacity: 1; stroke-linecap: round; stroke-linejoin: round; user-select: text;"></path><path fill="none" stroke="#27ff4f" d="M752,88L753,87L753,86L754,85L755,83L756,81L757,78L757,75L758,71L758,67L759,63L759,62L759,58L759,56L759,54L759,53L759,51L758,51L758,50L758,50L758,49L757,49L757,49L757,49L756,49L756,49L756,49L755,49L755,49L755,49L755,49L754,49L754,50L754,53L754,59L754,64L755,68L757,75L759,82L761,88L764,95L766,100L768,103L770,107L772,110L773,112L775,113L776,114L778,115L778,115L779,116L780,116L782,116L783,116L784,113L786,110L788,106L790,102L792,98L794,94L796,89L797,84L797,80L797,78L797,71L797,68L797,66L797,63L796,61L795,59L793,57L792,56L790,55L789,54L787,54L786,54L785,54L782,54L780,54L778,54L776,55L773,57L772,57L769,59L767,60L766,61L765,63L764,63L764,64L764,64L763,65L763,65L763,66L763,67L763,68L764,70L765,71L766,73L767,75L768,77L769,79L770,80L770,81L771,82L771,83L771,84L771,85L771,86L771,87L771,88" stroke-opacity="1" stroke-width="5" stroke-linecap="round" stroke-linejoin="round" style="-webkit-tap-highlight-color: rgba(0, 0, 0, 0); stroke-opacity: 1; stroke-linecap: round; stroke-linejoin: round; user-select: text;"></path><path fill="none" stroke="#27ff4f" d="M882,97L882,97L882,96L882,94L882,91L883,88L884,84L886,79L887,74L888,72L889,68L890,65L891,62L892,60L892,58L893,57L893,56L893,54L893,53L893,52L892,51L892,50L890,49L889,48L887,48L885,47L884,47L881,47L878,47L878,47L876,47L874,48L873,49L871,50L870,52L869,54L868,57L868,60L868,65L868,72L868,77L870,82L872,88L875,94L878,98L881,102L882,104L885,107L887,109L889,111L891,112L892,113L893,113L894,113L894,114L895,114L896,114L896,114L896,114L897,114L897,114L898,112L899,110L901,107L902,103L903,98L905,93L905,88L906,82L906,77L906,73L906,68L903,64L902,63L899,61L897,59L896,58L894,58L893,57L892,57L891,57L891,57L890,57L890,57L889,57L889,58L888,58L888,59L886,61L886,63L884,65L884,68L883,72L882,76L882,78L881,82L880,84L880,86L880,88L880,89L880,89L880,90L880,90L880,90" stroke-opacity="1" stroke-width="5" stroke-linecap="round" stroke-linejoin="round" style="-webkit-tap-highlight-color: rgba(0, 0, 0, 0); stroke-opacity: 1; stroke-linecap: round; stroke-linejoin: round; user-select: text;"></path><path fill="none" stroke="#27ff4f" d="M973,101L973,101L974,101L976,101L979,101L986,101L993,101L1002,101L1012,101L1023,101L1027,101L1035,101L1038,100L1044,98L1052,96L1055,94L1057,92L1057,90L1059,87L1059,85L1059,82L1059,79L1057,76L1053,73L1050,70L1046,67L1042,64L1039,62L1035,60L1031,59L1026,58L1024,57L1021,56L1018,56L1015,56L1013,56L1010,56L1007,56L1005,58L1003,61L1000,64L998,67L995,72L993,77L991,82L989,88L987,95L987,102L986,108L986,111L986,120L986,122L986,126L987,129L988,131L989,133L991,135L993,136L994,138L995,138L997,138L998,139L999,139L1000,139L1001,139L1002,138L1003,137L1004,136L1005,134L1005,132L1006,129L1006,127L1006,124L1006,122L1006,119L1004,115L1002,113L1000,110L999,109L996,107L993,105L989,103L988,103L985,103L981,102L978,102L976,102L974,102L971,102L969,103L968,103L967,104L966,104L965,105L965,105L965,106L965,106L965,107L965,108L965,110L965,112L965,114L966,115L968,117L969,118L971,120L974,122L976,122L979,123L982,123L985,123L986,123L989,123L991,123L993,123L995,122L996,121L997,119L998,118L1000,116L1000,115L1001,112L1001,109L1002,106L1002,102L1002,98L1002,93L1002,88L1001,82L999,77L997,73L996,71L993,64L992,63L990,61L988,59L986,58L985,57L984,56L983,56L982,56L982,56L981,56L981,56L981,56L981,56L980,56" stroke-opacity="1" stroke-width="5" stroke-linecap="round" stroke-linejoin="round" style="-webkit-tap-highlight-color: rgba(0, 0, 0, 0); stroke-opacity: 1; stroke-linecap: round; stroke-linejoin: round; user-select: text;"></path><path fill="none" stroke="#a031ff" d="M78,141L78,141L79,141L79,141L81,141L82,141L84,141L86,142L87,143L89,144L90,145L92,146L93,146L94,147L95,147L95,147L96,147L96,147L96,147L96,147L97,147L97,146L97,145L98,144L98,142L99,139L99,137L99,135L100,131L100,130L100,127L100,125L99,123L98,122L97,121L96,120L94,119L91,119L89,119L87,119L85,119L82,121L80,123L77,126L75,129L74,131L73,133L71,136L70,139L68,141L68,143L66,148L66,150L65,152L65,154L65,157L65,160L65,164L65,165L65,169L66,170L69,173L71,175L73,176L76,177L79,178L82,178L85,178L89,178L92,177L95,175L98,173L100,170L101,169L102,166L104,164L104,161L105,158L105,156L105,153L105,150L105,149L104,148L102,145L100,144L97,142L96,141L94,140L92,139L91,139L89,138L88,138L87,137L86,137L85,137L84,137L84,137L84,137L83,137L83,138L83,139L83,140L83,141L83,143L83,145L83,146L83,148L83,149L84,150L85,151L86,152L88,152L89,152L91,152L93,152L94,152L96,152L97,152L98,151L99,151L99,150L99,150L100,150L100,150L100,149L100,148L100,148L99,147L98,146L98,146L97,145L96,144L95,144L95,144L95,144L94,144L94,144L93,144L93,144" stroke-opacity="1" stroke-width="5" stroke-linecap="round" stroke-linejoin="round" style="-webkit-tap-highlight-color: rgba(0, 0, 0, 0); stroke-opacity: 1; stroke-linecap: round; stroke-linejoin: round; user-select: text;"></path><path fill="none" stroke="#a031ff" d="M178,148L173,149L169,149L168,149L165,149L164,149L162,149L161,149L160,149L159,149L159,149L159,151L159,152L159,154L160,157L161,160L163,163L166,166L169,168L172,169L175,170L179,170L182,170L186,170L189,170L191,170L193,169L196,167L198,166L200,164L201,163L203,161L204,159L205,158L206,156L206,155L207,153L207,151L208,150L208,148L208,145L208,143L207,142L206,139L205,138L203,137L201,136L199,136L197,135L196,135L194,135L193,135L191,135L190,136L189,137L189,138L188,140L188,142L187,143L187,146L187,148L187,150L187,152L187,154L187,156L187,158L187,159L187,161L187,162L188,163L189,164L191,166L193,166L195,167L198,167L200,168L203,168L205,168L208,168L210,167L212,166L213,165L215,164L216,163L217,161L217,160L217,159L217,157L217,155L217,153L216,151L215,150L213,149L211,148L209,147L208,146L206,145L205,145L204,144L202,144L202,144L201,144L201,144L200,144L200,144L200,144" stroke-opacity="1" stroke-width="5" stroke-linecap="round" stroke-linejoin="round" style="-webkit-tap-highlight-color: rgba(0, 0, 0, 0); stroke-opacity: 1; stroke-linecap: round; stroke-linejoin: round; user-select: text;"></path><path fill="none" stroke="#a031ff" d="M297,131L297,131L297,131L295,132L293,133L291,135L288,137L284,140L282,143L279,147L276,149L275,151L273,153L272,155L271,157L271,158L270,159L270,160L270,161L270,162L270,162L270,163L270,163L270,164L270,165L272,166L275,166L277,167L281,168L286,168L290,168L295,168L299,168L302,168L305,168L308,168L310,167L312,167L313,166L313,166L313,165L314,165L314,164L314,163L314,161L312,160L310,157L307,155L303,154L300,151L298,150L295,149L293,148L290,148L289,147L287,147L286,147L286,147L286,147L285,147L285,148L285,149L285,151L285,153L285,155L286,158L287,160L289,163L291,165L293,167L295,168L297,169L300,170L301,171L303,171L305,171L307,171L308,171L310,170L311,169L312,168L313,166L314,165L315,162L316,159L316,157L316,156L316,153L316,151L316,149L316,147L315,146L314,144L313,143L312,143L311,142L310,142L309,142L309,142L308,142L308,142L308,142L307,142L307,142L307,142L307,142L307,142" stroke-opacity="1" stroke-width="5" stroke-linecap="round" stroke-linejoin="round" style="-webkit-tap-highlight-color: rgba(0, 0, 0, 0); stroke-opacity: 1; stroke-linecap: round; stroke-linejoin: round; user-select: text;"></path><path fill="none" stroke="#a031ff" d="M417,151L417,151L415,151L413,151L411,151L408,152L404,153L402,153L400,154L397,155L395,155L394,155L393,156L392,156L391,156L391,156L391,156L391,158L392,159L394,162L397,165L401,168L406,171L412,174L417,176L422,177L425,178L430,178L433,179L436,179L438,179L440,179L441,179L442,179L442,179L443,178L443,177L443,176L443,174L443,171L442,168L440,166L437,162L434,160L430,157L427,154L423,153L421,152L418,151L416,150L413,150L412,150L410,150L409,150L408,150L408,150L407,150L407,150L407,150L407,151L406,153L406,154L406,157L406,159L406,161L406,164L406,166L406,169L407,171L408,172L409,174L410,175L412,175L413,176L414,176L416,176L418,176L419,176L420,175L420,174L421,173L423,172L423,171L424,169L424,167L424,165L424,161L424,159L424,156L423,153L421,151L418,149L415,146L411,144L408,143L403,142L401,141L398,141L396,141L394,141L392,141L391,141L391,141L390,141L390,141L389,141L389,141L389,141L389,142" stroke-opacity="1" stroke-width="5" stroke-linecap="round" stroke-linejoin="round" style="-webkit-tap-highlight-color: rgba(0, 0, 0, 0); stroke-opacity: 1; stroke-linecap: round; stroke-linejoin: round; user-select: text;"></path><path fill="none" stroke="#a031ff" d="M537,131L537,131L537,131L536,131L535,131L533,131L531,132L529,134L526,135L523,137L521,139L517,141L516,141L514,143L513,144L511,146L510,147L509,148L509,148L509,149L509,149L509,150L509,151L509,152L509,153L509,155L509,157L511,159L513,162L517,164L520,167L526,170L530,172L534,173L539,174L543,175L545,175L548,175L551,175L553,175L555,175L556,174L558,173L559,171L559,170L559,168L559,166L559,163L559,160L557,157L555,154L552,150L548,146L544,143L538,139L532,137L527,135L521,133L519,133L515,132L511,132L509,132L507,132L505,132L504,132L504,132L503,133L502,134L502,136L502,139L502,142L502,145L503,149L505,152L507,156L509,160L512,163L516,166L519,168L521,168L523,169L526,170L528,171L531,171L533,171L535,171L537,171L538,170L539,169L539,169L540,168L540,168L540,167L540,166L540,164L540,163L540,161L540,159L538,156L538,155L536,152L535,151L535,149L533,147L532,146L532,146L531,145L531,145L530,145L530,145L529,145L529,145L529,145L529,145L529,145L529,145L528,146" stroke-opacity="1" stroke-width="5" stroke-linecap="round" stroke-linejoin="round" style="-webkit-tap-highlight-color: rgba(0, 0, 0, 0); stroke-opacity: 1; stroke-linecap: round; stroke-linejoin: round; user-select: text;"></path><path fill="none" stroke="#a031ff" d="M661,148L661,148L661,148L660,148L657,148L654,148L651,148L646,148L643,148L641,148L637,148L634,148L631,148L629,148L628,148L626,148L625,148L625,148L624,148L624,148L624,149L624,149L624,150L624,150L624,151L624,152L624,154L624,155L623,158L624,160L626,162L627,164L628,165L630,166L634,169L637,169L640,169L643,170L646,170L650,170L653,169L656,168L660,165L661,164L666,161L667,160L669,158L672,154L673,152L674,149L675,145L675,142L675,139L675,136L675,133L675,130L674,129L671,126L669,124L666,124L663,123L660,123L659,123L656,123L652,123L650,124L647,125L645,127L644,129L643,131L640,135L640,137L638,141L638,144L638,147L638,150L638,153L640,156L642,159L645,163L649,166L654,168L658,170L662,172L667,173L671,174L676,174L677,174L680,174L683,174L685,174L687,174L688,174L689,174L689,173L689,173L689,171L689,170L689,169L686,166L682,162L677,159L673,157L667,153L661,150L654,147L651,146L647,145L644,144L641,143L639,143L637,143L636,143L636,143L636,143L635,143L635,144L635,144L635,145L635,146L635,146L635,147L635,148L636,149L636,149L636,150L636,150L636,150L636,151L637,151" stroke-opacity="1" stroke-width="5" stroke-linecap="round" stroke-linejoin="round" style="-webkit-tap-highlight-color: rgba(0, 0, 0, 0); stroke-opacity: 1; stroke-linecap: round; stroke-linejoin: round; user-select: text;"></path><path fill="none" stroke="#a031ff" d="M788,139L787,139L787,139L786,139L784,139L783,139L780,140L776,141L772,142L767,142L763,143L758,143L756,143L752,143L749,143L747,143L746,143L745,143L744,144L744,144L744,144L744,144L744,145L744,146L744,147L744,148L745,150L745,152L746,153L748,157L748,158L749,160L751,162L752,164L754,166L755,168L757,169L758,170L760,170L761,171L762,171L765,171L767,171L769,171L770,171L772,170L775,168L776,167L778,165L781,162L782,160L783,158L783,157L784,155L784,153L784,151L784,149L784,146L784,145L782,144L780,142L777,141L775,140L772,139L768,139L765,138L761,138L758,138L754,138L752,138L749,138L747,138L744,139L743,140L741,141L741,141L740,142L740,143L740,144L740,146L740,148L740,149L741,151L743,154L746,157L750,160L756,163L761,166L767,167L774,169L779,169L785,170L790,170L795,170L799,169L803,168L804,167L806,165L808,164L809,163L810,162L810,162L810,160L810,159L809,158L804,155L801,153L796,150L790,148L784,145L778,143L772,141L769,141L766,140L763,140L760,140L759,140L758,140L757,140L757,140L757,140L757,140L757,141L757,142L757,144L757,145L757,147L757,150L758,151L760,155L762,158L763,160L765,162L767,165L768,166L770,167L771,168L773,169L774,169L775,169L776,169L777,169L778,169L779,169L779,168L780,166L781,165L781,163L781,160L782,159L782,157L782,155L781,152L780,151L779,149L778,147L777,146L776,145L775,144L774,143L773,143L773,142L772,142L772,141L771,141L771,141" stroke-opacity="1" stroke-width="5" stroke-linecap="round" stroke-linejoin="round" style="-webkit-tap-highlight-color: rgba(0, 0, 0, 0); stroke-opacity: 1; stroke-linecap: round; stroke-linejoin: round; user-select: text;"></path><path fill="none" stroke="#a031ff" d="M882,135L882,135L880,136L877,137L874,138L871,139L867,141L865,141L862,142L860,143L858,144L857,144L856,145L855,145L855,145L855,146L855,146L855,146L855,147L855,149L855,150L855,152L855,154L855,157L855,160L855,163L856,166L856,168L857,171L859,173L860,175L861,177L862,179L864,180L867,182L869,183L872,183L874,184L878,184L881,184L885,184L889,183L894,181L898,179L903,176L907,174L912,171L916,167L917,165L920,163L923,161L924,159L925,157L926,155L926,154L926,153L926,151L925,149L921,147L915,144L912,143L906,141L899,139L892,137L886,136L880,136L875,135L871,135L869,135L865,135L863,135L861,135L860,135L859,135L858,135L858,135L858,135L858,135L858,137L858,138L858,141L858,143L858,147L859,150L860,153L861,155L863,160L864,161L865,163L867,166L869,166L871,167L873,168L877,168L879,169L882,169L884,169L886,169L888,168L891,167L893,165L894,164L896,162L897,161L898,160L899,158L899,157L900,155L900,154L900,152L900,151L900,149L900,148L900,146L900,145L899,145L897,144L895,143L893,143L891,143L888,143L887,143L884,145L882,146L880,148L879,150L878,152L877,154L876,155L876,157L876,159L876,161L876,162L876,163L876,164L876,165L877,166L878,166L878,167L879,167L880,167L881,167L881,167L882,167L882,167L883,167L883,167L883,167L883,167L884,167L884,167" stroke-opacity="1" stroke-width="5" stroke-linecap="round" stroke-linejoin="round" style="-webkit-tap-highlight-color: rgba(0, 0, 0, 0); stroke-opacity: 1; stroke-linecap: round; stroke-linejoin: round; user-select: text;"></path><path fill="none" stroke="#a031ff" d="M1009,162L1008,162L1007,162L1004,162L1002,162L997,162L993,162L988,162L986,162L983,162L979,162L977,162L975,162L974,162L973,162L972,162L972,162L971,162L971,162L971,163L970,164L970,166L970,166L970,170L970,171L970,175L970,176L970,179L970,183L970,185L970,188L971,191L972,193L974,195L976,198L979,200L981,202L984,203L987,204L991,205L994,205L997,205L1000,205L1003,205L1006,205L1007,204L1009,202L1011,201L1012,199L1013,198L1014,197L1014,196L1014,194L1015,193L1015,191L1015,188L1015,186L1015,184L1014,181L1013,178L1011,175L1009,171L1006,169L1004,167L1001,165L998,164L994,163L990,163L986,163L984,163L982,163L980,163L978,163L977,164L976,165L975,166L974,167L974,169L974,170L974,172L974,174L974,176L974,178L974,180L975,183L976,185L978,187L980,189L983,191L986,192L988,193L990,193L993,194L995,194L997,194L999,194L1000,194L1001,193L1002,192L1003,191L1003,190L1004,189L1004,188L1004,186L1004,184L1004,183L1003,181L1003,179L1001,178L1001,176L999,175L998,173L997,172L996,170L996,170L995,169L995,169L995,168L994,168L994,168L994,168L993,168L993,169L993,170L992,170L992,173L991,175L991,176L991,178L990,180L990,183L990,185L990,187L990,189L990,191L990,193L990,194L990,195L990,196L991,196L992,197L992,197L993,197L994,197L995,197L996,197L997,197L998,196L999,196L999,195L999,194L1000,194L1000,193L1000,193L1000,192L1000,191L1000,190L1000,189L998,188L997,186L995,185L992,183L989,181L985,179L981,177L977,175L973,174" stroke-opacity="1" stroke-width="5" stroke-linecap="round" stroke-linejoin="round" style="-webkit-tap-highlight-color: rgba(0, 0, 0, 0); stroke-opacity: 1; stroke-linecap: round; stroke-linejoin: round; user-select: text;"></path><path fill="none" stroke="#ff8be4" d="M71,162L71,162L72,162L73,162L75,162L77,162L79,163L81,163L82,163L84,163L87,164L89,164L91,164L93,164L94,164L96,164L97,164L97,164L98,164L99,164L99,164L99,163L100,163L100,161L101,159L101,157L102,153L102,149L102,146L102,142L102,140L102,136L100,131L99,129L97,125L95,123L92,121L89,120L86,119L83,119L78,119L74,119L70,119L66,120L64,121L61,122L59,124L57,125L56,127L55,127L54,128L54,129L54,130L53,130L53,131L53,132L53,133L53,133L55,135L56,135L59,136L61,137L65,137L69,137L73,137L78,137L83,137L90,137L95,135L101,134L104,134L107,132L110,131L112,131L113,130L114,130L115,129L116,129L116,129L116,128L116,128L116,127L115,126L113,125L110,124L108,123L104,122L100,122L96,122L94,122L90,122L88,122L86,122L84,123L83,124L83,124L82,125L82,125L81,126L81,127L81,129L81,130L81,132L81,135L81,138L81,140L81,143L81,145L81,147L81,149L81,151L81,152L81,153L81,153L81,154L81,154L81,155L82,155L82,155L83,155L83,155L84,155L85,155L86,154L86,154L86,154L87,153L87,153L87,153L88,153" stroke-opacity="1" stroke-width="5" stroke-linecap="round" stroke-linejoin="round" style="-webkit-tap-highlight-color: rgba(0, 0, 0, 0); stroke-opacity: 1; stroke-linecap: round; stroke-linejoin: round; user-select: text;"></path><path fill="none" stroke="#ff8be4" d="M180,152L180,152L182,152L183,152L186,152L188,152L191,152L194,152L198,152L200,152L203,152L204,152L206,152L208,152L210,152L210,152L211,152L211,152L212,152L212,152L212,151L212,151L212,149L212,148L210,147L208,145L205,143L201,142L198,140L194,139L189,138L187,138L184,138L181,138L179,138L178,138L176,138L176,138L175,139L175,139L175,140L174,141L174,143L174,145L174,146L174,149L174,152L175,155L176,158L178,161L180,164L182,166L184,167L187,169L190,171L193,173L196,173L199,173L202,173L204,173L206,173L208,173L210,173L211,172L212,172L212,171L212,171L212,170L212,169L212,167L212,165L211,164L209,161L207,159L204,157L200,154L195,152L191,150L187,149L182,149L179,149L176,149L173,149L170,149L168,149L167,149L166,150L165,151L165,152L164,153L164,154L164,156L164,158L164,160L165,162L166,164L167,165L170,169L173,170L175,171L178,172L181,173L184,173L188,174L191,174L194,174L196,174L199,174L200,174L202,173L203,173L204,173L204,172" stroke-opacity="1" stroke-width="5" stroke-linecap="round" stroke-linejoin="round" style="-webkit-tap-highlight-color: rgba(0, 0, 0, 0); stroke-opacity: 1; stroke-linecap: round; stroke-linejoin: round; user-select: text;"></path><path fill="none" stroke="#ff8be4" d="M287,156L288,156L292,156L297,156L303,156L310,156L318,156L322,156L325,156L331,156L334,156L337,156L338,156L339,156L340,156L339,156L337,156L334,155L329,155L325,153L318,153L313,152L306,152L301,152L295,152L293,152L289,152L286,152L283,152L281,152L280,152L279,152L278,153L277,154L276,155L276,156L276,158L275,161L275,164L275,166L275,169L275,171L275,174L277,177L279,179L281,182L282,183L285,185L288,187L290,187L292,187L294,188L296,188L298,188L299,188L300,188L301,187L302,187L302,186L302,185L303,184L303,182L303,179L303,176L301,173L299,168L296,165L294,160L291,156L290,154L287,149L285,148L283,146L281,144L280,143L279,143L277,142L277,142L276,142L275,142L275,142L275,142L275,143L275,145L275,147L275,151L275,154L277,158L278,160L279,163L281,165L282,167L284,169L285,170L286,170L287,170L289,170L291,170L292,169L294,167L299,160L300,157L304,152L305,149L309,141L309,138L310,134L311,130L312,127L312,124L312,121L312,119L312,119L312,118L312,117L312,116L312,116L312,116L311,116L311,116" stroke-opacity="1" stroke-width="5" stroke-linecap="round" stroke-linejoin="round" style="-webkit-tap-highlight-color: rgba(0, 0, 0, 0); stroke-opacity: 1; stroke-linecap: round; stroke-linejoin: round; user-select: text;"></path><path fill="none" stroke="#ff8be4" d="M410,157L411,156L412,156L412,156L412,154L412,152L412,149L412,148L412,145L412,142L410,141L408,139L406,138L402,138L399,138L395,138L392,138L389,139L387,141L384,143L382,145L381,147L379,149L378,151L378,153L378,155L378,157L378,160L378,161L378,163L380,165L382,167L385,168L388,169L392,170L395,170L400,170L404,170L408,170L410,170L414,170L416,169L417,169L420,167L421,167L422,167L422,166L423,166L423,165L423,165L423,164L423,163L423,161L423,159L422,157L421,154L421,152L420,150L419,147L417,146L417,144L416,144L415,143L415,143L414,143L414,143L414,143L413,143L413,145L413,147L413,149L413,152L413,154L413,157L413,162L413,163L413,166L414,168L415,170L417,172L418,173L419,174L420,174L421,175L422,175L423,175L424,175L425,175L426,175L427,173L428,172L430,170L432,168L434,165L436,162L437,159L439,155L440,153L441,147L442,146L442,142L442,140L442,137L442,136L442,134L442,134L442,134L441,133L439,133L438,133L436,133L435,133L433,133L431,134L430,135L428,136L427,137L425,138L422,140L421,141" stroke-opacity="1" stroke-width="5" stroke-linecap="round" stroke-linejoin="round" style="-webkit-tap-highlight-color: rgba(0, 0, 0, 0); stroke-opacity: 1; stroke-linecap: round; stroke-linejoin: round; user-select: text;"></path><path fill="none" stroke="#ff8be4" d="M519,148L519,148L521,148L523,148L526,148L529,148L533,148L537,148L542,148L547,148L549,148L552,148L554,148L556,148L556,148L557,148L557,148L557,148L556,148L553,148L550,148L546,148L542,148L537,148L532,149L531,149L527,150L524,151L522,151L521,152L520,152L519,153L519,153L518,154L518,155L518,155L518,156L518,157L518,159L518,161L518,162L519,164L521,167L525,170L529,172L533,175L538,177L542,179L544,179L551,181L553,181L556,181L558,181L560,181L562,181L562,181L563,180L563,180L563,178L563,178L563,176L562,175L560,173L557,171L551,167L547,166L542,163L536,160L530,158L525,157L523,156L519,154L516,154L514,153L513,153L512,153L512,153L511,153L511,153L511,153L513,153L515,154L518,155L521,156L525,157L530,158L535,159L540,159L542,159L545,159L548,159L550,159L552,158L553,158L553,158L553,157L554,157L554,156L554,155L552,154L550,152L548,151L545,150L542,148L541,147L537,145L536,144L533,143L531,143L530,142L529,142L528,141" stroke-opacity="1" stroke-width="5" stroke-linecap="round" stroke-linejoin="round" style="-webkit-tap-highlight-color: rgba(0, 0, 0, 0); stroke-opacity: 1; stroke-linecap: round; stroke-linejoin: round; user-select: text;"></path><path fill="none" stroke="#ff8be4" d="M662,143L661,143L659,143L657,143L654,143L650,143L646,143L643,143L641,143L636,144L635,145L633,146L631,147L630,148L629,149L628,151L627,153L627,154L627,157L627,160L627,163L627,165L628,168L630,170L631,171L635,174L636,175L638,176L640,177L642,178L644,178L646,179L648,179L650,179L653,178L654,177L656,175L658,172L660,168L661,165L663,161L664,157L664,152L664,149L664,145L663,141L661,138L657,134L652,131L648,129L643,127L639,126L637,126L633,126L630,126L628,126L625,126L622,127L621,129L619,132L618,135L617,137L616,142L616,145L616,150L616,154L616,156L618,159L620,162L621,163L623,165L625,165L627,166L628,166L630,166L633,166L635,166L637,165L639,162L642,160L645,157L648,153L650,149L652,145L655,141L657,136L657,134L659,128L659,124L659,122L659,117L659,116L659,113L657,112L656,111L655,110L653,110L652,109L651,109L650,109L648,109L647,109L646,109L645,110L643,111" stroke-opacity="1" stroke-width="5" stroke-linecap="round" stroke-linejoin="round" style="-webkit-tap-highlight-color: rgba(0, 0, 0, 0); stroke-opacity: 1; stroke-linecap: round; stroke-linejoin: round; user-select: text;"></path><path fill="none" stroke="#ff8be4" d="M778,157L778,157L778,157L777,157L776,157L774,157L773,157L772,157L770,157L769,156L768,155L767,154L766,154L766,153L766,152L765,151L765,150L765,149L765,148L765,147L766,147L770,144L772,144L777,142L781,141L786,141L787,141L791,141L793,141L796,141L797,141L798,141L799,141L799,143L799,144L799,146L799,148L799,150L799,152L799,154L798,155L796,157L795,159L792,160L790,161L786,163L783,164L778,165L773,165L769,166L765,166L763,166L759,166L756,166L754,165L751,164L750,163L749,162L747,160L747,159L746,158L746,156L746,155L746,153L746,151L746,149L746,147L748,145L749,144L751,141L753,141L755,139L757,139L759,138L761,138L762,138L763,138L765,138L765,138L766,138L767,138L767,139L767,140L768,141L768,143L768,144L768,145L768,146L767,147L767,148L765,150L764,151L763,152L762,153L761,153L759,154L757,155L756,155L755,156L753,156L751,156L750,156L748,156L747,156L746,156L745,156L744,155L743,154L742,153L741,152L741,150L741,148L740,145L740,144L740,142L740,140L740,137L740,135L741,132L743,130L744,128L747,126L749,125L752,123L755,122L759,121L761,121L764,120L767,120L770,120L773,120L775,120L777,120L780,121L781,122L783,123L784,125L785,126L786,128L787,129L787,131L787,133L788,136L788,138L788,140L788,142L788,145L787,147L787,150L786,151L785,153L785,155L784,156L784,156L783,157L783,158L783,158L783,158L783,158" stroke-opacity="1" stroke-width="5" stroke-linecap="round" stroke-linejoin="round" style="-webkit-tap-highlight-color: rgba(0, 0, 0, 0); stroke-opacity: 1; stroke-linecap: round; stroke-linejoin: round; user-select: text;"></path><path fill="none" stroke="#ff8be4" d="M883,165L884,165L884,165L882,164L880,163L878,161L875,158L873,155L872,154L869,152L868,149L867,147L867,146L866,145L866,144L866,143L866,143L866,142L867,141L872,140L877,138L880,138L886,136L892,136L897,135L899,135L903,135L906,135L908,135L910,135L911,135L912,136L913,138L913,140L914,142L914,144L914,147L913,150L911,154L910,156L907,160L905,163L902,166L899,169L896,171L892,173L888,174L884,175L878,176L874,176L870,176L868,176L865,176L863,174L861,173L860,173L860,172L859,171L859,170L859,170L859,169L859,168L859,168L859,167L862,165L865,163L869,161L874,159L878,157L881,156L885,155L889,154L892,154L895,154L897,154L898,154L899,154L900,154L900,155L901,156L901,157L901,158L901,160L901,161L901,163L901,165L901,166L900,168L899,170L897,172L895,174L893,175L890,177L887,178L882,179L878,179L874,180L872,180L868,180L865,180L863,180L860,179L859,178L857,177L856,176L855,175" stroke-opacity="1" stroke-width="5" stroke-linecap="round" stroke-linejoin="round" style="-webkit-tap-highlight-color: rgba(0, 0, 0, 0); stroke-opacity: 1; stroke-linecap: round; stroke-linejoin: round; user-select: text;"></path><path fill="none" stroke="#ff8be4" d="M1008,176L1007,177L1007,177L1007,178L1006,178L1006,178L1006,179L1005,179L1005,179L1004,179L1004,179L1004,179L1003,179L1001,179L999,179L997,179L994,179L992,179L989,179L986,179L982,179L979,178L975,177L973,176L971,174L970,173L967,171L966,170L965,169L963,167L963,166L963,164L963,163L963,162L963,161L964,159L969,157L976,155L986,152L992,151L1002,149L1010,147L1019,147L1026,147L1028,147L1033,147L1036,148L1038,150L1040,151L1041,153L1042,157L1043,160L1043,163L1043,166L1043,170L1043,174L1041,177L1039,181L1037,184L1035,187L1032,189L1030,191L1027,193L1022,194L1018,195L1013,196L1007,196L996,196L992,196L986,196L983,196L979,194L976,193L973,192L972,191L970,191L970,190L970,189L970,189L970,189L970,188L970,188L971,187L974,186L979,184L986,183L996,181L1006,179L1011,179L1014,178L1020,178L1025,178L1028,178L1030,178L1031,178L1032,179L1032,180L1032,181L1032,182L1032,183L1031,184L1028,186L1026,188L1023,190L1018,191L1014,193L1009,194L1003,195L997,196L991,197L985,197L983,197L979,197L975,197L972,197L970,196L968,195L967,195L967,195L966,194L966,194L966,194L966,194L966,193L966,193L966,193L968,192L972,191L976,191L980,191L985,191L988,191L992,191L995,191L998,191L1001,191L1002,191L1003,191L1004,191L1004,191L1004,191L1005,191L1004,190L1003,190L1002,189L1001,188L1000,187L999,186L997,185L996,184L995,183L994,182L993,181L992,181L992,180L991,180L991,180L990,179L990,179L989,179L988,179L987,179L986,179L985,179L983,179L982,179L981,179L980,179L980,179L979,179L979,179L979,180L979,180L980,180L981,181L982,181L983,182L985,182L986,183L988,183L989,184L991,184L992,184L993,184L994,184L994,184L995,183L996,183L996,181L997,180L998,178L999,176L1000,174L1000,172L1001,170L1002,168L1002,166L1003,164L1003,163L1003,162L1004,161L1004,160L1004,160L1004,160L1004,159" stroke-opacity="1" stroke-width="5" stroke-linecap="round" stroke-linejoin="round" style="-webkit-tap-highlight-color: rgba(0, 0, 0, 0); stroke-opacity: 1; stroke-linecap: round; stroke-linejoin: round; user-select: text;"></path><path fill="none" stroke="#3d00ff" d="M86,227L86,228L86,229L86,230L86,232L84,234L84,235L83,238L83,239L82,242L82,244L81,245L81,246L80,248L80,249L80,250L80,252L80,253L80,255L80,255L80,256L80,258L80,259L80,260L80,261L80,261L80,262L80,262L80,263L80,263L80,264L81,264L82,264L83,264L84,264L85,264L86,264L87,263L88,262L90,260L91,259L92,257L92,256L93,254L93,253L94,252L94,250L94,249L94,248L94,247L94,246L93,245L92,244L91,242L89,241L87,241L85,240L84,239L82,239L80,238L77,238L76,238L75,238L73,238L72,238L72,238L71,239L71,239L71,240L71,240L71,240L71,241L71,242L71,242L71,243L71,244L71,245L71,245L71,247L72,248L73,249L74,250L75,251L76,251L77,252L78,252L80,253L81,253L82,253L84,253L85,253L87,253L88,253L89,252L90,251L92,250L93,248L94,247L95,245L97,243L98,241L98,240L99,237L99,235L100,233L100,231L100,229L100,226L100,225L100,224L99,223L97,222L95,221L93,221L91,221L88,221L87,221L84,223L83,224L81,225L79,226L78,228L77,229L76,230L75,232L75,233L75,234L75,236L75,237L75,239L75,241L75,243L75,244L76,246L77,249L78,250L79,252L80,254L82,256L83,258L84,260L86,261L87,262L88,263L89,264L90,264L91,265L92,265L93,265L94,265L95,265L96,265L97,265L98,264L99,263L99,262L100,261L101,259L101,258L102,257L102,257L102,256L102,256L102,256L102,255L102,255" stroke-opacity="1" stroke-width="5" stroke-linecap="round" stroke-linejoin="round" style="-webkit-tap-highlight-color: rgba(0, 0, 0, 0); stroke-opacity: 1; stroke-linecap: round; stroke-linejoin: round; user-select: text;"></path><path fill="none" stroke="#3d00ff" d="M191,239L191,237L191,237L191,236L191,235L190,234L190,234L190,233L189,233L189,232L188,232L187,232L186,232L185,232L184,232L182,232L179,232L179,232L177,232L175,233L175,234L174,235L173,236L173,237L173,238L173,240L173,242L173,243L173,247L173,248L175,250L176,252L177,253L180,255L183,256L185,257L188,258L191,258L195,258L199,258L202,258L204,258L207,258L210,257L211,257L213,256L215,255L216,254L216,253L217,252L217,250L217,249L217,247L217,246L217,245L217,242L215,241L213,239L210,237L207,236L202,235L199,234L194,233L189,233L186,232L184,232L180,232L177,232L176,232L174,232L172,232L171,233L171,233L171,234L171,234L171,235L171,235L171,235L171,236L171,237L171,239L172,241L174,243L175,245L177,248L179,249L181,251L183,252L185,253L188,254L189,254L191,255L192,255L194,255L195,255L196,255L197,254L197,253L198,252L199,250L199,249L200,246L201,244L201,241L202,237L202,233L202,229L202,225L202,220L202,218L202,214L201,211L200,208L199,206L198,204L196,202L195,202L194,201L193,201L192,201L191,201L189,201L189,201L188,201L187,202L187,203L186,204L185,206L185,207L184,209L183,211L183,213L183,215L182,218L182,220L182,223L182,224L182,228L183,230L186,232L188,234L190,235L193,237L196,238L199,239L203,240L204,240L207,240L209,240L211,240L211,240L212,240L213,240L214,240L214,239L214,239L214,238L214,238L214,238L214,237L214,236L212,235L211,233L208,232L205,231L202,229L197,228L193,227L188,227L186,226L183,226L181,226L179,226L178,226L177,226L177,226L177,226L177,227L177,227L177,227L177,227L177,228L177,228L177,230L178,231L180,233L182,236L184,238L187,240L189,243L192,245L194,246L196,248L199,250L201,251L204,252L206,252L208,253L210,253L211,253L212,253L213,253L214,253L214,253L215,253L215,253L215,253" stroke-opacity="1" stroke-width="5" stroke-linecap="round" stroke-linejoin="round" style="-webkit-tap-highlight-color: rgba(0, 0, 0, 0); stroke-opacity: 1; stroke-linecap: round; stroke-linejoin: round; user-select: text;"></path><path fill="none" stroke="#3d00ff" d="M282,249L283,249L283,249L283,249L283,249L283,249L282,249L281,249L280,249L277,248L275,247L271,245L267,243L264,241L260,238L259,237L257,235L255,234L254,232L253,231L253,229L253,228L253,227L253,227L253,226L254,225L257,224L259,223L262,222L266,220L268,220L272,219L275,219L277,219L279,219L282,219L284,219L286,221L287,224L288,226L289,230L290,233L290,237L290,241L291,244L291,246L291,249L291,252L291,254L291,257L291,259L290,260L289,262L288,263L287,264L285,265L284,266L281,267L278,267L277,267L273,267L271,267L269,267L266,265L265,263L264,261L263,259L262,257L261,255L261,253L261,251L261,248L262,245L264,243L267,240L271,237L279,231L286,227L293,223L297,222L305,220L312,217L315,217L319,217L322,217L325,217L327,217L328,217L329,218L329,219L330,222L330,224L330,226L330,229L330,232L330,236L328,240L327,243L325,247L323,250L321,254L318,257L316,260L313,262L310,264L307,265L305,266L302,267L300,267L296,267L294,267L292,267L288,265L286,264L284,261L282,259L280,256L279,253L278,251L277,248L277,245L277,243L277,241L277,239L277,238L278,236L279,234L282,233L283,232L285,232L287,231L289,231L291,231L293,231L295,231L297,231L298,231L300,232L301,233L303,234L304,235L305,237L306,238L306,238L307,239L308,240L308,241L308,241L308,241L309,241L309,242L309,242L309,242" stroke-opacity="1" stroke-width="5" stroke-linecap="round" stroke-linejoin="round" style="-webkit-tap-highlight-color: rgba(0, 0, 0, 0); stroke-opacity: 1; stroke-linecap: round; stroke-linejoin: round; user-select: text;"></path><path fill="none" stroke="#3d00ff" d="M429,233L428,232L426,232L425,232L423,232L421,232L420,232L416,232L414,232L410,232L408,232L404,233L402,234L399,235L396,236L395,237L394,238L392,239L391,241L390,242L389,243L389,244L389,245L389,247L389,248L389,249L389,250L389,251L390,252L392,253L394,253L396,253L398,253L401,254L405,254L408,254L413,254L417,253L423,251L427,249L432,247L438,244L442,241L447,237L451,234L454,231L455,229L457,226L460,222L460,220L461,216L461,213L461,210L458,208L456,206L453,204L450,203L447,202L445,202L442,201L438,201L435,201L432,201L429,203L425,204L422,207L419,209L416,212L415,214L413,216L411,218L410,220L409,222L408,223L408,225L408,228L408,230L408,232L408,235L410,237L412,240L415,243L418,245L422,247L426,249L430,251L434,252L438,253L443,253L446,254L448,254L450,254L452,254L453,254L454,254L455,253L456,252L456,252L456,252L456,251L456,251L456,250L454,249L452,248L449,246L445,245L441,243L437,243L435,242L431,242L428,242L426,242L424,242L423,242L422,242L421,242L421,243L421,244L421,246L421,247L421,250L421,251L421,253L421,255L421,257L423,259L424,260L425,261L427,262L428,263L430,264L432,264L433,264L434,264L435,264L436,264L437,264L438,263L438,262L439,261L439,260L439,257L439,257L439,254L439,251L438,248L435,244L432,240L429,237L427,235L425,233L423,231L421,229L419,228L418,227L418,227L417,227L417,226L416,226" stroke-opacity="1" stroke-width="5" stroke-linecap="round" stroke-linejoin="round" style="-webkit-tap-highlight-color: rgba(0, 0, 0, 0); stroke-opacity: 1; stroke-linecap: round; stroke-linejoin: round; user-select: text;"></path><path fill="none" stroke="#3d00ff" d="M534,216L534,215L535,215L537,215L538,215L540,215L543,215L545,217L548,218L550,219L551,220L553,221L555,222L556,223L556,224L556,226L556,227L556,228L556,231L555,233L554,235L551,237L549,239L545,242L540,243L535,245L525,249L517,249L512,250L505,250L497,250L491,250L489,250L484,248L481,247L479,245L477,244L476,243L475,242L475,241L475,240L475,239L475,238L475,237L475,236L475,235L475,233L477,232L479,231L482,229L489,227L496,225L500,224L507,223L514,223L521,223L527,223L528,223L536,223L537,224L539,225L541,227L543,228L543,230L544,231L544,233L544,234L544,236L544,238L542,240L540,241L538,243L535,244L532,245L527,246L520,247L515,247L509,247L503,247L500,247L495,245L492,244L489,242L487,241L486,240L486,239L485,239L485,238L485,238L485,237L487,236L492,235L498,233L502,233L509,232L515,230L519,230L523,230L527,230L530,230L531,230L533,230L533,230L534,230L534,230L534,231L534,231L534,232L534,232L532,233L531,234L529,235L526,236L522,237L517,238L512,240L510,240L506,241L502,241L500,242L498,242L496,242L495,242L494,242L494,242L494,241L496,241L499,241L505,240L508,240L514,239L520,239L523,239L528,238L532,238L536,238L538,238L539,238L541,238L541,238L542,238L542,238" stroke-opacity="1" stroke-width="5" stroke-linecap="round" stroke-linejoin="round" style="-webkit-tap-highlight-color: rgba(0, 0, 0, 0); stroke-opacity: 1; stroke-linecap: round; stroke-linejoin: round; user-select: text;"></path><path fill="none" stroke="#3d00ff" d="M635,226L635,226L635,226L635,225L635,224L635,223L635,222L635,221L635,221L634,221L633,221L630,221L629,221L628,221L626,223L624,225L622,227L620,229L618,232L618,236L616,239L616,241L616,244L616,247L616,250L616,251L616,253L617,255L618,256L620,256L621,257L623,257L625,258L628,258L631,259L634,259L637,259L641,259L645,258L648,257L652,255L655,253L658,251L659,250L661,248L664,244L664,242L666,238L666,236L666,233L666,230L664,227L660,223L656,220L651,217L645,215L640,214L638,214L634,214L631,214L628,214L626,214L624,214L622,216L622,217L621,219L621,221L621,222L621,223L621,225L621,227L621,228L623,229L624,230L627,232L630,233L633,234L636,234L639,235L642,235L645,235L647,235L649,235L652,235L654,235L655,235L656,234L657,234L657,233L657,233L658,232L658,231L658,229L658,227L657,225L656,224L653,222L652,221L650,220L648,220L646,220L643,220L642,220L639,220L638,220L635,222L634,224L633,227L631,230L631,234L630,238L630,241L630,244L630,247L630,250L630,252L631,254L632,255L633,255L634,256L634,256L635,256L636,256L637,256L637,256L638,255L639,255L639,254L640,253L640,252L641,251L642,249L642,247L643,245L643,242L643,241L643,238L643,237L642,235L641,234L640,233L639,233L638,233L637,233L637,233L636,233L635,233L635,233L635,235L635,237L635,239L635,241L635,243L635,245L635,247L635,249L636,250L636,251L637,251L638,252L639,252L639,252L640,252L640,252L641,252L641,252L642,252L642,251L643,250L643,249L643,248L645,246L645,244L645,243L646,241L646,238L647,236L647,235L647,233L647,232L647,231L647,230L647,229L647,229L647,229L647,228" stroke-opacity="1" stroke-width="5" stroke-linecap="round" stroke-linejoin="round" style="-webkit-tap-highlight-color: rgba(0, 0, 0, 0); stroke-opacity: 1; stroke-linecap: round; stroke-linejoin: round; user-select: text;"></path><path fill="none" stroke="#3d00ff" d="M779,219L780,219L781,219L782,219L783,219L784,219L785,220L787,223L788,224L789,226L789,229L789,232L789,235L789,239L789,241L789,243L788,246L786,250L784,252L782,254L780,255L777,256L773,257L770,258L768,259L765,259L762,259L759,259L757,259L756,259L754,257L753,256L752,255L751,254L751,252L750,250L749,248L749,246L749,245L749,243L749,242L749,241L749,239L751,238L752,237L755,236L758,235L761,234L764,233L766,233L770,233L773,233L775,233L777,233L778,233L779,234L780,235L780,235L781,237L781,238L781,239L781,240L781,241L781,242L779,243L778,244L776,246L773,247L770,248L766,249L761,250L756,250L750,250L743,250L737,249L732,247L728,244L726,243L723,241L720,238L719,237L719,235L718,234L718,233L718,232L718,232L718,231L720,230L723,229L726,228L730,227L734,226L739,225L743,225L745,225L750,224L753,224L756,224L759,224L761,224L763,224L764,226L765,227L767,228L767,230L768,231L768,233L769,235L769,237L769,239L769,240L769,242L769,244L769,245L768,246L766,248L764,249L762,250L759,251L756,251L753,251L749,251L746,251L745,250L742,247L739,245L738,243L737,241L737,239L736,237L736,235L736,234L736,233L736,231L738,229L743,226L748,224L754,222L758,220L766,219L772,217L775,217L780,217L785,216L789,216L791,216L793,216L795,216L795,217L796,218L796,218L796,219L796,220L796,220L796,221L796,222L796,222L795,223L794,224L793,225L792,226L791,226L789,227L787,227L786,227L784,228L782,228L781,228L780,228L779,228" stroke-opacity="1" stroke-width="5" stroke-linecap="round" stroke-linejoin="round" style="-webkit-tap-highlight-color: rgba(0, 0, 0, 0); stroke-opacity: 1; stroke-linecap: round; stroke-linejoin: round; user-select: text;"></path><path fill="none" stroke="#3d00ff" d="M885,221L885,221L884,221L881,222L877,223L873,225L869,227L864,230L861,232L857,234L854,237L853,238L851,240L850,243L848,246L848,249L848,250L848,252L848,255L848,256L849,257L849,258L850,259L851,260L853,261L854,261L856,261L858,262L861,262L863,262L866,262L869,262L872,261L875,260L877,259L879,257L883,255L886,252L888,250L889,246L891,242L892,239L892,235L893,232L893,227L892,224L889,220L885,217L880,215L874,214L869,213L867,213L863,213L860,213L857,213L854,213L851,214L850,216L848,218L847,221L846,224L845,227L845,231L845,235L845,239L845,241L845,246L846,247L848,250L849,251L851,253L853,254L855,254L857,255L859,255L861,255L863,255L864,255L866,254L868,253L871,250L872,249L874,246L875,244L876,242L877,240L878,237L878,235L879,232L879,231L879,229L879,228L879,227L879,226L879,226L879,228L879,231L879,233L880,236L880,237L880,240L881,242L881,243L881,244L881,245L882,245L882,245L882,246L882,246L882,246L883,246L883,245L883,245L883,244L883,244L884,242L884,241L885,239L885,237L885,235L886,234L886,232L886,231L886,229L886,228L885,228L885,228L884,227" stroke-opacity="1" stroke-width="5" stroke-linecap="round" stroke-linejoin="round" style="-webkit-tap-highlight-color: rgba(0, 0, 0, 0); stroke-opacity: 1; stroke-linecap: round; stroke-linejoin: round; user-select: text;"></path><path fill="none" stroke="#3d00ff" d="M1000,223L999,223L998,224L996,226L993,227L990,228L986,230L982,232L978,234L974,236L973,238L970,239L968,240L967,242L965,243L965,243L964,244L964,244L964,244L964,245L964,246L964,247L965,248L966,249L967,250L969,252L971,253L973,254L975,255L977,256L980,256L982,257L984,257L986,257L988,257L990,257L992,256L993,255L996,253L998,251L1000,248L1001,245L1003,241L1005,237L1006,233L1007,229L1007,225L1007,221L1007,218L1005,215L1002,213L998,211L995,210L992,210L989,209L987,209L985,209L983,209L982,209L981,209L980,211L980,213L979,216L979,219L979,224L979,229L979,235L980,241L981,247L982,249L984,253L985,256L987,258L989,260L990,262L992,263L993,263L995,263L997,264L999,264L1001,264L1003,264L1005,264L1006,264L1007,263L1009,262L1010,261L1012,258L1013,256L1014,253L1014,251L1014,249L1014,245L1014,242L1011,238L1007,236L1003,235L1001,235L996,235L993,235L991,235L989,235L987,235L985,235L984,237L983,239L983,242L983,246L983,251L983,255L983,261L983,266L983,271L985,274L986,276L988,279L990,281L991,283L993,284L994,285L995,285L996,285L997,285L997,285L998,285L998,285L999,284L1000,282L1000,281L1001,280L1001,277L1002,274L1002,271L1002,268L1002,265L1002,261L1001,257L998,254L995,251L993,250L991,248L989,247L988,247L986,246L985,246L985,246L984,246L984,246L983,248L983,249L983,252L983,254L984,257L985,259L986,261L987,263L988,264L989,266L990,266L991,267L991,267L991,267L992,267L992,267L993,267L993,267L993,267L993,266L994,265L994,264L994,262L994,260L994,257L994,253L992,249L991,244L988,240L987,238L985,235L984,233L983,231L982,230L982,229L981,229L981,229L980,229L980,229L980,229L980,229L980,229L980,230L980,230L979,232L979,233" stroke-opacity="1" stroke-width="5" stroke-linecap="round" stroke-linejoin="round" style="-webkit-tap-highlight-color: rgba(0, 0, 0, 0); stroke-opacity: 1; stroke-linecap: round; stroke-linejoin: round; user-select: text;"></path><path fill="none" stroke="#ffed94" d="M91,233L91,234L91,234L92,235L93,237L94,238L95,240L95,241L96,243L96,244L97,245L97,246L97,247L97,248L97,249L97,249L97,250L97,251L95,251L94,251L93,251L90,252L89,252L87,252L85,252L83,252L81,251L79,249L77,248L76,247L75,246L74,244L73,243L73,242L73,240L73,238L73,237L73,235L73,234L75,231L76,231L78,229L80,228L82,227L85,226L86,226L89,226L91,226L93,226L94,226L96,226L97,226L97,227L98,228L99,229L99,230L99,231L100,232L100,233L100,234L100,236L100,237L99,238L97,240L96,241L93,243L91,244L87,245L84,246L79,246L74,246L69,246L64,246L60,246L56,244L52,242L51,240L47,236L46,236L44,233L43,231L42,229L42,227L42,225L42,224L42,222L42,219L44,218L45,217L47,216L51,214L53,214L55,214L57,213L62,213L63,213L67,213L70,213L71,213L75,214L78,216L81,218L83,219L86,221L89,224L92,227L94,230L95,232L97,235L98,237L99,239L100,241L100,243L100,245L100,246L100,248L100,249L100,250L99,250L97,251L95,252L92,253L90,253L88,253L86,253L83,253L82,253L80,253L78,253L77,253L76,253L76,253L75,252L75,252L75,252" stroke-opacity="1" stroke-width="5" stroke-linecap="round" stroke-linejoin="round" style="-webkit-tap-highlight-color: rgba(0, 0, 0, 0); stroke-opacity: 1; stroke-linecap: round; stroke-linejoin: round; user-select: text;"></path><path fill="none" stroke="#ffed94" d="M206,237L206,237L206,239L206,240L206,241L206,243L206,245L206,246L205,247L205,248L204,249L204,250L204,250L203,251L202,251L201,251L200,251L199,251L198,251L197,251L196,251L195,250L194,249L193,248L192,247L190,244L190,243L189,240L187,237L187,236L186,234L185,231L185,228L185,226L185,224L185,222L185,220L185,218L186,217L187,216L188,215L191,213L193,213L197,212L200,212L204,212L207,212L211,212L212,213L216,215L216,216L218,218L219,221L220,223L220,225L220,226L220,228L220,230L220,232L218,233L217,235L216,236L214,237L212,238L210,239L208,240L207,240L205,241L203,241L201,241L199,241L197,241L196,241L193,241L190,241L188,240L187,239L185,238L183,237L181,235L179,234L178,232L177,232L176,230L176,229L175,228L175,227L175,226L175,225L175,224L175,224L176,223L178,222L180,222L181,222L183,221L185,221L187,221L189,221L191,221L193,221L194,221L196,223L197,224L198,225L199,226L200,228L200,229L200,230L201,231L201,232L201,233L201,233L201,234L201,234L201,235L200,235L200,236L198,236L197,237L194,237L193,237L190,238L187,238L184,238L182,238L179,238L177,238L175,238L173,237L171,236" stroke-opacity="1" stroke-width="5" stroke-linecap="round" stroke-linejoin="round" style="-webkit-tap-highlight-color: rgba(0, 0, 0, 0); stroke-opacity: 1; stroke-linecap: round; stroke-linejoin: round; user-select: text;"></path><path fill="none" stroke="#ffed94" d="M305,250L306,251L305,251L304,251L302,251L300,251L297,251L294,251L289,251L285,251L281,251L276,250L274,249L271,248L269,248L266,247L265,246L264,246L263,245L263,245L263,244L263,244L263,243L263,243L263,243L265,242L267,241L272,240L277,239L281,238L287,237L293,236L298,235L300,235L305,235L308,235L310,235L312,236L313,237L314,239L314,240L315,242L315,244L315,246L315,247L315,249L315,251L314,252L313,253L311,254L309,256L307,257L304,257L301,258L298,258L294,259L290,259L287,259L283,259L282,259L279,258L276,257L275,256L273,254L272,253L271,252L270,251L269,250L269,250L269,249L269,248L269,247L269,247L269,246L271,244L274,243L279,240L285,237L288,237L294,234L301,233L308,232L314,232L319,232L322,232L326,232L329,232L332,233L334,235L335,236L336,238L337,240L337,242L337,245L337,246L337,248L337,250L337,253L337,254L335,257L334,258L333,260L332,262L330,264L329,264L326,266L323,266L320,267L317,267L312,267L307,267L302,267L298,265L296,265L293,263L290,262L288,260L287,259L286,259L285,258L285,258L285,257L285,257L285,256L285,256L285,256L285,255" stroke-opacity="1" stroke-width="5" stroke-linecap="round" stroke-linejoin="round" style="-webkit-tap-highlight-color: rgba(0, 0, 0, 0); stroke-opacity: 1; stroke-linecap: round; stroke-linejoin: round; user-select: text;"></path><path fill="none" stroke="#ffed94" d="M450,249L449,248L449,248L448,248L446,248L445,248L443,248L441,248L439,248L436,248L433,248L431,248L428,248L426,248L422,248L421,248L417,248L415,248L413,248L411,248L409,247L407,247L406,246L405,245L404,244L404,243L403,243L403,241L403,239L403,238L403,235L403,234L405,230L407,228L409,226L411,224L414,222L417,221L420,219L423,219L426,219L429,219L432,219L434,219L438,219L439,220L441,221L443,223L445,225L446,227L447,229L447,230L448,232L448,234L448,235L448,237L448,238L448,239L448,241L447,242L446,244L444,245L442,247L440,247L437,249L434,249L431,250L427,250L424,250L421,250L418,249L415,247L412,245L409,242L407,240L404,237L403,233L401,230L400,227L400,225L400,221L400,219L400,217L400,215L400,213L400,212L400,212L400,212L400,212L400,212L401,212L402,212L403,212L404,212L406,212L408,213L409,214L411,215L413,216L414,217L415,218L416,219L417,220L417,221L418,221L418,222L418,222L418,222L418,222L418,223L418,223" stroke-opacity="1" stroke-width="5" stroke-linecap="round" stroke-linejoin="round" style="-webkit-tap-highlight-color: rgba(0, 0, 0, 0); stroke-opacity: 1; stroke-linecap: round; stroke-linejoin: round; user-select: text;"></path><path fill="none" stroke="#ffed94" d="M515,228L517,228L518,228L519,228L520,228L521,229L522,229L523,229L523,229L523,229L523,229L522,229L521,229L520,229L518,229L515,230L511,230L508,230L504,230L502,230L499,230L496,229L494,228L492,228L491,227L490,226L490,225L490,225L490,224L490,223L490,222L490,221L491,220L493,219L496,218L502,216L505,215L511,214L517,213L523,213L525,213L530,213L533,213L536,213L539,213L540,214L541,215L542,217L542,218L543,220L543,222L543,224L543,227L543,228L541,230L540,233L538,235L535,238L533,239L530,240L528,242L524,243L520,244L515,245L511,245L507,245L505,245L501,245L499,245L497,245L496,244L495,244L494,243L494,243L494,243L494,242L494,242L494,241L494,241L495,240L496,240L498,239L500,238L504,237L509,236L514,234L520,233L526,233L528,232L533,232L537,232L539,232L542,232L543,232L544,232L544,232L544,232L544,233L544,234L544,234L544,235L544,236L544,236L543,237L542,238L541,238L540,239L537,240L535,241L532,242L529,242" stroke-opacity="1" stroke-width="5" stroke-linecap="round" stroke-linejoin="round" style="-webkit-tap-highlight-color: rgba(0, 0, 0, 0); stroke-opacity: 1; stroke-linecap: round; stroke-linejoin: round; user-select: text;"></path><path fill="none" stroke="#ffed94" d="M648,242L647,242L646,242L643,242L642,242L639,242L636,242L633,242L630,242L627,241L624,240L623,240L620,238L619,237L617,236L616,235L615,234L614,233L614,232L614,231L614,230L614,229L614,229L614,228L616,227L617,227L622,226L625,226L630,225L635,225L640,225L642,225L649,225L650,225L653,225L656,227L658,229L659,230L660,232L661,234L661,236L661,238L661,239L661,241L661,243L661,244L660,246L659,248L658,249L656,250L653,252L651,253L648,253L645,254L642,254L639,254L635,254L632,254L628,253L625,251L621,249L618,246L615,243L612,240L611,237L611,236L609,231L609,229L609,226L609,223L609,220L611,218L614,215L616,213L620,211L624,209L628,208L633,208L637,207L639,207L642,207L645,207L648,208L650,209L651,211L652,212L653,213L653,214L654,216L654,217L654,218L654,219L654,221L653,223L652,224L651,226L649,227L648,229L647,230L645,231L644,233L641,234L639,235L636,235L633,235L632,236L630,236L627,236L625,236L624,236L623,236L622,235L621,235L621,235" stroke-opacity="1" stroke-width="5" stroke-linecap="round" stroke-linejoin="round" style="-webkit-tap-highlight-color: rgba(0, 0, 0, 0); stroke-opacity: 1; stroke-linecap: round; stroke-linejoin: round; user-select: text;"></path><path fill="none" stroke="#ffed94" d="M785,240L785,241L785,241L784,241L783,241L783,241L781,241L780,241L779,241L778,241L777,241L775,241L774,241L772,241L769,241L768,241L765,241L763,241L761,240L759,240L756,238L754,237L751,236L750,235L748,234L747,233L745,231L744,230L744,229L744,228L744,227L744,227L744,226L744,226L744,225L746,225L748,224L751,224L755,224L759,224L763,224L767,224L772,225L775,226L777,227L780,228L782,230L784,231L785,233L785,235L786,238L786,239L786,241L786,243L786,244L785,247L784,249L783,250L780,253L778,254L775,255L772,256L769,257L764,258L759,258L750,258L743,258L738,258L730,257L723,254L717,251L714,250L710,247L707,245L706,243L704,241L704,240L703,239L703,237L703,236L703,235L705,234L708,233L714,231L719,229L724,228L732,227L738,226L745,225L752,225L757,225L759,225L763,225L765,225L768,226L769,226L770,227L770,227L770,228L771,229L771,230L771,232L771,234L771,235L771,238L770,240L769,242L768,243L767,245L765,247L764,248L763,249L762,250L761,251L760,252L759,252" stroke-opacity="1" stroke-width="5" stroke-linecap="round" stroke-linejoin="round" style="-webkit-tap-highlight-color: rgba(0, 0, 0, 0); stroke-opacity: 1; stroke-linecap: round; stroke-linejoin: round; user-select: text;"></path><path fill="none" stroke="#ffed94" d="M870,244L870,244L868,244L866,244L863,244L860,244L857,244L853,244L850,244L846,243L844,243L842,242L840,241L839,240L837,240L837,239L837,239L837,239L837,238L837,237L837,237L837,236L837,236L837,235L838,234L840,233L843,232L846,231L850,230L854,229L859,229L865,228L867,228L871,228L874,228L877,228L879,228L880,228L881,229L881,230L882,231L882,233L883,236L883,238L883,241L883,244L882,247L881,249L880,251L879,253L877,256L875,259L872,260L870,262L867,263L864,264L860,264L856,265L851,265L846,265L842,264L838,262L834,259L831,256L829,253L828,251L825,246L824,242L824,239L824,236L824,234L824,229L824,226L826,223L828,221L830,218L834,216L837,213L842,211L847,209L853,208L860,207L867,207L874,207L880,207L885,207L889,209L893,210L894,212L897,215L899,218L899,220L901,223L901,225L901,227L901,230L901,232L901,234L901,236L899,237L898,239L897,240L896,241L893,242L891,242L889,243L885,243L881,243L877,243L873,242L872,241L869,240L867,238L865,237L863,236L863,235L862,234L862,233L862,232" stroke-opacity="1" stroke-width="5" stroke-linecap="round" stroke-linejoin="round" style="-webkit-tap-highlight-color: rgba(0, 0, 0, 0); stroke-opacity: 1; stroke-linecap: round; stroke-linejoin: round; user-select: text;"></path><path fill="none" stroke="#ffed94" d="M1016,245L1015,245L1014,245L1014,245L1014,245L1013,245L1011,245L1010,245L1008,245L1007,245L1004,245L1002,245L999,245L997,245L995,245L992,245L990,245L988,245L986,245L983,245L981,245L980,245L978,245L977,244L976,244L975,243L975,243L975,243L974,242L974,242L974,241L974,240L974,240L974,239L974,238L976,237L978,237L983,235L988,234L995,233L999,232L1006,232L1013,232L1018,232L1024,232L1025,232L1031,233L1033,234L1037,237L1039,240L1039,242L1041,246L1042,247L1042,250L1042,253L1042,257L1042,259L1042,261L1042,264L1040,267L1039,268L1037,270L1035,271L1031,273L1028,275L1025,275L1022,276L1018,276L1013,276L1008,276L1003,276L998,275L996,274L993,272L990,271L989,269L987,267L986,266L985,265L984,263L984,261L984,260L984,259L984,258L984,257L984,256L985,255L987,254L989,253L992,252L995,251L1000,251L1004,250L1006,250L1009,250L1012,250L1015,250L1016,250L1017,251L1018,252L1018,253L1019,254L1019,255L1019,256L1019,257L1019,257L1019,258L1018,259L1017,259L1016,261L1013,262L1011,262L1008,263L1004,264L1000,265L995,265L990,265L985,265L980,264L978,263L975,262L973,260L971,257L969,256L967,253L966,252L966,250L966,248L966,246L966,245L966,243L966,242L966,241L966,240L967,239L969,238L971,237L972,237L975,236L978,236L982,236L986,236L990,236L993,236L995,236L998,238L1000,239L1002,240L1004,242L1004,243L1005,244L1005,244L1006,245L1006,246L1006,246L1006,247L1006,247L1006,247L1005,248L1005,248L1004,248L1004,248L1002,248L1000,248L999,248L996,248L993,247L990,245L987,243L986,242L983,240L981,239L979,237L978,235L977,233L976,232L976,231L976,230L976,229L976,228L976,227L976,227L976,226L976,226L977,225L977,225L977,225" stroke-opacity="1" stroke-width="5" stroke-linecap="round" stroke-linejoin="round" style="-webkit-tap-highlight-color: rgba(0, 0, 0, 0); stroke-opacity: 1; stroke-linecap: round; stroke-linejoin: round; user-select: text;"></path></svg>