<svg height="577" version="1.1" width="1170" xmlns="http://www.w3.org/2000/svg" xmlns:xlink="http://www.w3.org/1999/xlink" style="overflow: hidden; position: relative; user-select: text;"><desc style="-webkit-tap-highlight-color: rgba(0, 0, 0, 0); user-select: text;">Created with Raphaël 2.2.0</desc><defs style="-webkit-tap-highlight-color: rgba(0, 0, 0, 0); user-select: text;"></defs><path fill="none" stroke="#ff0000" d="M191,72L191,72L192,72L195,73L204,77L217,82L231,88L250,95L271,104L294,114L304,118L322,127L339,135L352,143L357,146L365,152L373,158L379,163L384,169L387,173L388,175L393,182L394,185L396,190L398,193L399,196L401,200L402,201L403,205L405,209L407,213L407,217L407,218L408,223L408,227L408,230L408,232L408,235L408,236L405,239L403,241L400,243L397,244L392,244L387,245L378,246L369,246L359,246L347,246L334,244L321,241L306,238L292,235L286,233L274,229L265,226L258,223L251,220L245,217L241,213L240,212L238,209L235,204L235,201L235,198L235,195L235,192L236,189L238,186L240,185L242,183L244,181L246,180" stroke-opacity="1" stroke-width="5" stroke-linecap="round" stroke-linejoin="round" style="-webkit-tap-highlight-color: rgba(0, 0, 0, 0); stroke-opacity: 1; stroke-linecap: round; stroke-linejoin: round; user-select: text; display: inline;"></path><path fill="none" stroke="#ff0000" d="M388,159L388,159L389,159L389,159L391,159L393,160L399,163L404,168L410,173L423,187L433,198L444,215L458,234L473,256L487,280L499,304L505,313L516,334L527,354L536,372L544,389L550,406L552,411L555,423L558,431L558,438L558,443L558,448L558,451L552,456L546,457L537,457L522,457L512,457L485,456L467,451L456,449L437,444L430,441L417,436L407,432L399,428L397,426L390,420L388,416L387,412L387,404L388,398L400,384L415,372L436,359L465,344L495,330L509,324L536,315L561,308L570,307L585,303L590,303L600,302L607,301L611,301L614,301L616,301L616,301L617,301L617,301L617,300L617,299L617,299L617,298L615,296L613,295" stroke-opacity="1" stroke-width="5" stroke-linecap="round" stroke-linejoin="round" style="-webkit-tap-highlight-color: rgba(0, 0, 0, 0); stroke-opacity: 1; stroke-linecap: round; stroke-linejoin: round; user-select: text; display: inline;"></path><path fill="none" stroke="#ff0000" d="M118,191L118,191L118,193L117,196L115,199L113,201L111,206L108,210L105,215L102,220L99,225L96,229L95,231L94,233L93,234L93,236L93,236L93,238L93,239L96,240L107,244L121,248L143,253L170,258L198,264L230,268L242,269L253,271L272,272L276,272L288,272L295,272L300,272L303,272L305,271L305,269L305,267L305,262L301,255L289,242L275,231L258,218L235,204L210,191L183,177L170,170L146,157L126,145L119,140L106,131L95,123L88,117L86,115L82,110L80,106L79,103L78,101L78,98L78,94L78,91L78,88L80,81L83,76L87,69L92,61L98,53L105,43L113,32L122,21" stroke-opacity="1" stroke-width="5" stroke-linecap="round" stroke-linejoin="round" style="-webkit-tap-highlight-color: rgba(0, 0, 0, 0); stroke-opacity: 1; stroke-linecap: round; stroke-linejoin: round; user-select: text; display: inline;"></path><path fill="none" stroke="#5d54ff" d="M481,124L483,124L486,126L492,130L504,140L510,146L529,166L533,173L543,187L551,201L554,208L558,218L558,221L560,228L561,238L561,243L561,246L559,249L557,251L553,253L546,256L537,256L528,256L518,256L513,256L504,255L498,253L496,251L491,249L489,248L485,245L485,242L485,238L485,233L488,227L500,212L514,201L532,188L552,177L565,172L584,164L591,163L605,159L617,158L626,157L634,157L636,157L640,157L643,157L645,157L646,157L647,158L647,158L647,158L647,158L647,158L643,158L632,155L619,152L600,147L579,142L554,138L542,138L518,136L498,135L481,135L464,135L458,135L435,139L424,142L412,145L401,149L390,152L377,157L364,160L348,164L333,168L315,171L285,177L275,178L257,180L250,180L237,181L226,181L218,181L216,181L211,180L207,179L204,177L201,173L200,171L199,169L199,167L199,165L198,163L198,162L198,161L198,161L198,160L199,162L201,166L206,174L212,183L227,204L238,219L244,228L257,245L270,262L285,281L299,298L322,327L329,335L342,350L353,362L364,371L372,382L375,386L382,394L386,400L388,402L396,408L398,409L401,410L406,412L410,413L414,413L422,413L428,412L437,408L449,403L460,397L474,389L500,375L508,369L538,350L560,338L582,325L592,320L632,299L643,294L666,286L686,281L703,278L717,276L732,276L738,276L749,276L757,279L764,283L772,288L777,292L778,294L784,301L786,302L787,305L788,307L788,310L788,312L788,313L786,314L781,316L777,316L768,316L762,316L753,316L741,316L728,313L704,305L685,298L662,290L638,280L613,270L583,259L551,246L518,234L483,223L450,213L436,209L411,203L401,201L384,197L379,197L359,193L356,193L351,193L347,192L345,192L344,192L343,192L343,192L342,192L342,192L342,192L342,191L342,190" stroke-opacity="1" stroke-width="5" stroke-linecap="round" stroke-linejoin="round" style="-webkit-tap-highlight-color: rgba(0, 0, 0, 0); stroke-opacity: 1; stroke-linecap: round; stroke-linejoin: round; user-select: text; display: inline;"></path><path fill="none" stroke="#2bff46" d="M188,370L188,372L188,373L188,375L188,377L188,378L188,380L188,383L189,386L191,390L195,397L198,402L201,409L204,416L209,423L213,430L216,434L221,441L226,446L230,451L234,456L235,457L239,459L240,460L241,461L242,461L243,462L243,462L243,461L243,457L242,451L235,437L229,423L223,415L207,387L201,379L189,363L183,357L175,346L172,343L166,337L162,333L159,331L157,330L155,329L153,329L151,329L149,329L147,329L143,329L139,330L134,330L124,331L120,331L108,331L103,331L96,331L92,331L86,330L82,329L79,328L77,328L76,327L75,327L75,327L75,327L75,327L75,327L79,327L84,327L89,327L95,327L107,330L117,333L127,337L139,342L151,348L163,353L177,359L192,365L206,370L220,376L234,380L247,385L253,386L265,389L284,393L293,395L299,395L308,396L317,396L324,396L331,396L333,396L339,396L342,396L345,395L347,395L348,395L349,395L349,395L349,394L349,394L346,392L348,392L352,389L358,387L364,385L368,384L372,382L378,381L383,379L386,378L389,377L392,377L393,377L394,376L395,376L395,376L395,376L395,376L396,376L396,376L396,376L396,375L396,375L396,374L397,373L397,373L397,372L397,371L397,370L397,370L397,369L397,368L397,368L397,368L397,367L397,366L397,366L397,366L397,365L397,364L397,364L397,363L397,363L397,362L397,361L397,361L397,360L397,359L397,358L397,358L397,358L397,357L397,357L397,356L397,355L397,354L397,353L397,351L397,350L397,349L397,347L397,345L397,344L397,343L397,342L397,341L397,340L397,340L397,339L397,339L397,339L397,338L397,338L397,338L397,338L397,337L397,337L397,337L397,337L397,336L397,336L397,336L397,335L397,335L397,335L397,334L397,334L397,334L397,333L397,332L397,332L397,331L397,331L397,330L397,330L397,330L397,329L397,328L397,328L397,328L397,327L397,326L397,326L397,326L397,325L397,325L397,325L397,325L397,324L397,324L397,324L397,324L397,323L397,323L397,323L397,323L397,322L397,322L397,321L397,321L397,321L397,320L397,320L397,319L397,319L397,318L397,318L397,317L397,317L397,316L397,316L397,316L397,315L397,315L397,315L397,314L397,314L397,314L396,314L396,314L396,314L396,314L396,314L395,314L395,314L395,314L395,313L394,313L394,313L394,313L394,313L393,313L393,313L393,313L392,313L392,313L392,313L391,313L391,313L391,313L391,313L390,313L390,313L390,313L389,313L389,313L389,313L388,313L388,313L388,313L387,313L387,313L387,313L387,313L386,313L386,313L386,313L386,313L385,313L385,313L385,313L385,313L384,314L384,314L384,314L384,314L384,315L384,315L384,315L384,315L384,316L384,316L384,316L384,317L384,317L384,317L384,317L384,318L384,318L384,318L384,318L384,319L384,319L384,319L384,319L384,320L384,320L384,320L384,321L384,321L384,321L384,321L384,322L384,322L384,322L384,322L384,323L385,324L385,325L385,326L387,327L387,328L388,329L390,330L391,332L392,333L393,334L394,334L395,335L395,335L396,335L396,336L397,336L397,336L397,336L398,336L398,336L398,336L399,336L399,336L399,336L400,337L401,337L402,337L404,337L405,337L406,337L408,337L409,337L410,337L410,337L411,337L412,337L412,337L413,337L413,337L413,336L414,336L414,336L414,335L414,335L415,334L415,334L415,333L416,332L416,332L416,331L416,330L417,329L417,328L417,327L417,326L417,325L417,323L418,322L418,320L418,318L418,316L418,313L418,312L418,309L418,306L418,304L418,302L418,300L418,297L418,296L418,295L418,293L418,292L418,290L418,289L418,288L418,287L418,285L418,284L418,283L417,281L417,280L417,279L417,277L417,276L416,274L416,271L416,269L416,266L416,262L416,258L416,253L416,249L416,245L416,243L416,240L416,236L416,233L417,230L418,226L419,224L421,221L422,218L424,216L425,214L427,212L428,209L430,207L431,205L432,204L432,203L433,202L433,201L433,201L434,200L435,200L438,200L443,200L451,203L460,209L470,217L479,225L489,236L497,247L504,258L510,269L512,274L515,284L518,293L519,296L521,307L522,312L522,317L523,321L523,325L523,330L523,334L523,338L523,347L523,355L526,364L533,384L541,401L552,418L566,437L574,446L588,463L605,480L621,494L636,506L651,515L664,523L677,528L683,529L694,533L704,535L712,536L718,537L723,537L727,536L733,530L738,519L739,510L739,500L739,487L739,486L739,478L748,457L758,428L777,384L803,327L852,221L872,182L909,110L940,43L950,20L956,5L972,12L980,37L990,63L1001,89L1007,101L1017,124L1029,145L1038,163L1047,180L1050,187L1055,200L1060,210L1064,218L1066,225L1067,227L1069,232L1070,235L1070,237L1071,238L1071,239L1071,240L1072,240L1072,240L1072,241L1072,241L1071,241L1068,241L1058,241L1047,241L1030,241L1005,241L977,241L941,241L905,241L871,241L837,242L825,243L800,246L792,247L775,250L762,254L752,257L743,259L737,262L732,264L730,265L726,267L723,268L722,269L720,270L719,270L718,270L717,271L717,271L717,271L716,271L716,269L716,265L717,259L721,251L721,251L717,251L712,250L702,248L688,243L670,238L647,231L622,223L596,214L584,210L562,202L555,199L541,193L537,191L529,187L524,184L521,181L518,178L516,176L515,173L515,170L515,167L515,163L515,159L517,154L523,144L529,137L544,123L560,114L583,105L629,91L647,88L679,85L693,85L719,85L742,90L775,109L786,121L793,135L799,150L802,166L803,182L803,195L803,201L799,221L793,230L787,239L779,247L770,254L750,264L735,268L717,271L692,273L665,273L638,273L607,273L597,272L587,270L570,266L558,263L554,261L539,256L537,254L531,250L529,247L527,244L527,240L527,234L527,228L529,221L540,207L553,196L587,173L623,158L673,142L730,130L759,128L806,125L823,125L854,126L877,134L894,143L906,153L914,165L920,178L924,190L925,202L925,214L925,227L923,238L917,249L909,259L900,267L888,276L867,286L849,291L827,295L802,297L774,299L745,300L732,300L707,300L699,300L683,300L670,299L660,297L653,295L648,293L643,291L641,289L638,285L636,282L635,278L634,273L634,268L634,257L634,251L637,241L648,226L664,212L701,187L739,171L787,157L840,143L864,142L884,142L920,142L946,142L983,159L1004,182L1011,195L1016,207L1016,213L1019,233L1019,238L1019,247L1016,261L1013,265L1004,276L995,283L984,288L961,297L940,301L913,303L859,306L818,306L798,306L757,306L743,306L716,304L707,303L689,300L674,297L664,295L656,292L650,289L645,285L641,282L638,277L634,269L633,265L632,259L632,251L632,238L632,228L634,219L640,208L652,189L666,177L698,155L730,141L771,127L820,117L845,115L888,113L902,113L931,114L951,121L967,130L979,141L987,151L988,157L992,166L994,176L995,184L995,198L995,202L989,214L984,222L977,229L967,237L954,244L931,256L910,262L885,269L859,274L827,279L793,283L759,286L745,287L720,289L710,290L693,290L680,290L669,290L663,290L660,290L653,287L650,284L648,282L646,278L645,274L643,265L643,259L643,249L643,237L644,221L648,205L654,188L661,170L668,153L675,139L682,126L690,115L697,105L713,91L728,83L759,70L792,64L832,60L853,60L892,61L924,71L937,79L959,94L992,122L1005,144L1008,156L1014,177L1018,197L1019,214L1019,230L1019,244L1016,256L1010,267L1002,276L994,284L986,290L973,296L949,305L931,310L909,313L884,316L857,319L845,320L824,322L814,322L798,323L785,324L782,324L774,325L768,325L764,325L761,325L759,325L758,325L758,325L758,325L757,325L758,325L762,325L771,325L785,325L803,325L826,328L838,332L861,338L880,345L896,352L902,355L915,360L923,366L926,368L930,371L934,373L936,375L937,377L938,379L938,380L938,382L936,386L930,390L923,392L906,398L894,402L864,402L854,402L840,402L831,404L803,404L798,402L795,401L792,400L790,399L786,398L785,398L785,398L783,400L782,400L781,400L780,400L779,398L777,392L776,378L775,362L775,344L775,322L776,298L781,271L796,209L806,174L817,137L823,122L833,93L843,65L847,56L855,36L860,22L864,9L868,0L851,1L841,14L826,38L815,58L801,82L786,109L771,142L755,175L741,205L735,218L725,242L721,251L715,268L711,281L708,291L707,294L705,300L704,304L704,307L704,308L703,310L703,311L703,311L703,312L703,312L703,312L702,312L702,312L702,312L701,311L701,309L701,311L695,322L686,335L677,348L667,360L658,371L651,380L643,387L637,393L631,398L619,410L610,417L607,419L602,423L598,426L595,428L593,429L592,429L591,430L591,430L590,430L590,429L590,429L590,427L590,424L590,419L589,412L588,403L584,383L583,372L581,353L580,332L579,312L579,292L579,272L579,256L579,249L583,228L586,220L587,218L589,213L590,209L591,207L592,205L591,205L588,205L583,204L574,202L560,197L541,189L520,180L493,169L482,163L462,153L454,150L440,143L425,134L418,130L414,127L411,125L408,123L407,122L405,121L405,120L405,120L405,119L404,119L404,119L404,119L403,119L400,121L396,122L393,123L390,124L386,125L382,126L377,128L371,129L367,130L364,130L362,130L360,130L357,130L357,130L356,130L356,130L356,129L356,127L356,125L356,125L356,123L356,120L357,115L360,109L362,101L366,91L369,81L376,65L380,55L385,45L389,38L391,35L393,31L398,27L399,26L402,26L403,26L404,27L406,29L408,33L409,35L410,36L411,38L411,40L412,42L413,43L414,44L414,45L415,46L417,47L419,49L432,53L441,57L461,62L480,66L491,68L538,77L556,81L564,83L577,85L589,88L592,88L599,90L604,91L607,91L609,91L611,91L611,91L612,91L612,88L612,84L612,78L607,66L603,57L598,49L593,41L588,35L581,28L577,26L574,24L571,23L569,23L568,23L567,23L566,23L566,23L565,23L565,25L563,28L563,30L562,33L561,36L559,39L556,45L553,49L552,51L548,55L546,57L542,58L534,61L529,62L519,62L511,63L502,63L487,63L479,63L471,62L463,61L457,60L450,59L445,58L442,57L440,57L439,56L437,56L437,55L436,55L436,55L436,55L436,54L436,53L436,51L436,49L437,46L441,43L463,33L480,30L504,29L532,29L560,32L588,41L600,46L623,57L645,68L662,78L682,91L692,99L700,105L707,109L709,111L716,115L718,116L719,117L720,118L721,118L721,118L721,118L722,118L722,118L722,118L722,116L722,114L722,112L722,109L722,106L716,98L711,91L704,87L697,83L687,77L665,69L659,67L648,64L639,63L636,63L625,61L622,61L620,61L618,61L617,61L616,61L616,61L618,61L622,60L633,60L648,60L668,60L693,60L721,60L749,62L790,70L815,75L822,77L837,80L848,83L853,84L856,85L858,86L859,86L860,86L860,86L857,84L853,80L846,77L837,72L815,60L802,55L797,53L788,50L779,47L765,44L759,42L758,42L753,42L745,42L743,42L741,42L740,42L739,42L738,43L737,43L737,43L737,44L737,44L736,44L736,45L736,44L736,44L734,43L729,41L720,37L706,35L691,33L641,30L634,30L619,30L608,30L599,32L590,35L586,37L583,38L581,39L579,40L578,42L578,42L577,42L577,42L576,42L575,42L569,42L560,42L549,42L534,42L517,43L479,44L459,45L421,49L371,55L354,57L349,58L339,60L328,62L325,63L323,64L321,64L321,64L320,65L320,65L320,65L320,65L320,65L319,65L317,65L314,65L310,65L306,65L301,65L296,66L285,70L280,71L276,73L274,74L269,76L267,77L265,77L265,78L264,78L264,78L264,76L264,73L261,72L254,70L246,67L237,63L230,60L223,58L213,55L210,54L209,53L207,53L203,52L199,50L198,50L197,49L196,49L195,49L195,49L195,49L195,48L195,48L194,48L194,48L194,48L192,47L189,46L187,45L185,44L183,44L179,43L177,43L176,42L175,42L172,42L171,42L171,42L170,42L169,41L168,41L167,41L167,41L166,41L164,41L164,40L163,40L163,40L161,39L160,39L159,38L156,37L154,36L152,35L151,35L149,34L146,33L145,32L143,31L142,31L141,30L138,28L136,27L134,25L133,24L131,23L130,23L129,22L127,22L127,22L127,22L126,22L126,22L125,22L125,21L125,21L124,21L124,21L124,21L124,21L123,21L123,21L123,21L123,22L123,22L122,22L122,22L121,23L120,23L120,23L119,23L119,23L119,23L119,23L119,24L119,24L119,24L119,24L120,24L121,24L122,25L123,26L126,29L131,34L133,36L134,37L136,39L138,43L139,44L141,46L141,47L142,48L142,49L142,49L143,49L143,51L144,52L144,53L144,54L145,55L146,57L146,58L147,59L148,60L151,64L152,66L153,67L154,68L156,69L158,71L159,72L161,73L164,74L165,75L166,75L167,75L168,75L169,75L169,75L169,75L170,75L170,75L170,75L171,75L172,74L173,73L174,73L175,73L177,72L178,72L180,71L181,71L181,71L183,70L183,70L184,70L185,70L185,70L185,70L186,70L186,70L187,70L188,70L189,70L190,70L190,70L190,70L191,70L192,70L192,71L192,71L192,71L192,71L192,72L192,72L191,72L191,72L191,72L190,72L190,73L189,73L189,73L189,73L189,73L188,73L188,73L188,73L188,74L188,74L187,74L186,75L185,76L183,79L182,80L180,84L179,86L177,88L176,89L175,91L175,92L175,92L175,93L175,95L175,96L175,97L175,98L177,101L181,106L183,107L185,109L190,113L192,114L193,114L193,115L193,115L193,115L193,115L193,116L194,116L194,116L194,117L194,117L194,117L194,118L194,118L193,119L191,119L186,120L183,120L179,120L170,121L168,121L164,121L158,121L156,121L153,120L152,119L152,119L151,118L150,116L149,115L149,113L148,111L147,107L147,105L147,103L146,100L144,91L143,88L141,84L141,81L138,74L136,71L134,68L132,64L130,61L127,58L125,56L118,52L116,51L113,49L110,49L106,47L103,46L98,45L95,45L94,45L93,45L93,45L92,45L92,45L92,45L92,46L92,46L92,46L92,46L93,46L93,46" stroke-opacity="1" stroke-width="4" stroke-linecap="round" stroke-linejoin="round" style="-webkit-tap-highlight-color: rgba(0, 0, 0, 0); stroke-opacity: 1; stroke-linecap: round; stroke-linejoin: round; user-select: text; display: inline;"></path></svg>