<svg height="566" version="1.1" width="841" xmlns="http://www.w3.org/2000/svg" xmlns:xlink="http://www.w3.org/1999/xlink" style="overflow: hidden; position: relative; user-select: text;"><desc style="-webkit-tap-highlight-color: rgba(0, 0, 0, 0); user-select: text;">Created with Raphaël 2.2.0</desc><defs style="-webkit-tap-highlight-color: rgba(0, 0, 0, 0); user-select: text;"></defs><path fill="none" stroke="#ff0000" d="M221,107L222,107L226,107L230,107L238,107L251,110L265,113L273,114L303,120L323,123L332,125L349,127L355,128L366,130L369,131L374,132L377,133L379,134L379,135L380,136L380,137L380,138L379,139L375,142L370,146L364,150L357,155L349,161L339,168L329,175L318,183L309,190L304,193L295,199L287,203L279,207L272,211L266,215L260,217L255,218L249,219L244,220L240,221L238,222L234,222L231,222L228,222L224,222L223,222L222,222L221,221" stroke-opacity="1" stroke-width="5" stroke-linecap="round" stroke-linejoin="round" style="-webkit-tap-highlight-color: rgba(0, 0, 0, 0); stroke-opacity: 1; stroke-linecap: round; stroke-linejoin: round; user-select: text;"></path><path fill="none" stroke="#ff0000" d="M498,143L498,144L498,144L498,145L498,148L498,150L498,158L498,165L498,173L498,184L498,196L498,201L498,211L497,219L496,228L495,234L493,240L492,244L490,248L489,251L488,252L486,254L485,256L484,258L483,259L482,259L482,260L481,260L481,260L481,261L481,261L483,261L486,260L491,259L495,259L500,259L505,259L507,259L511,259L514,260L517,261L519,262L520,262L522,263L522,264L523,265L523,265L523,266L524,266L524,267L524,267L524,267L525,267L525,268L525,268L525,268L526,268L526,268L526,268L526,267L526,267L526,266L526,266L526,265L526,265L526,265L526,264L526,264L526,263L526,263L526,263L526,263L526,262L526,262" stroke-opacity="1" stroke-width="5" stroke-linecap="round" stroke-linejoin="round" style="-webkit-tap-highlight-color: rgba(0, 0, 0, 0); stroke-opacity: 1; stroke-linecap: round; stroke-linejoin: round; user-select: text;"></path></svg>