<svg height="566" version="1.1" width="841" xmlns="http://www.w3.org/2000/svg" xmlns:xlink="http://www.w3.org/1999/xlink" style="overflow: hidden; position: relative; user-select: text;"><desc style="-webkit-tap-highlight-color: rgba(0, 0, 0, 0); user-select: text;">Created with Raphaël 2.2.0</desc><defs style="-webkit-tap-highlight-color: rgba(0, 0, 0, 0); user-select: text;"></defs><path fill="none" stroke="#ff0000" d="M221,107L222,107L226,107L230,107L238,107L251,110L265,113L273,114L303,120L323,123L332,125L349,127L355,128L366,130L369,131L374,132L377,133L379,134L379,135L380,136L380,137L380,138L379,139L375,142L370,146L364,150L357,155L349,161L339,168L329,175L318,183L309,190L304,193L295,199L287,203L279,207L272,211L266,215L260,217L255,218L249,219L244,220L240,221L238,222L234,222L231,222L228,222L224,222L223,222L222,222L221,221" stroke-opacity="1" stroke-width="5" stroke-linecap="round" stroke-linejoin="round" style="-webkit-tap-highlight-color: rgba(0, 0, 0, 0); stroke-opacity: 1; stroke-linecap: round; stroke-linejoin: round; user-select: text; display: inline;"></path><path fill="none" stroke="#ff0000" d="M498,143L498,144L498,144L498,145L498,148L498,150L498,158L498,165L498,173L498,184L498,196L498,201L498,211L497,219L496,228L495,234L493,240L492,244L490,248L489,251L488,252L486,254L485,256L484,258L483,259L482,259L482,260L481,260L481,260L481,261L481,261L483,261L486,260L491,259L495,259L500,259L505,259L507,259L511,259L514,260L517,261L519,262L520,262L522,263L522,264L523,265L523,265L523,266L524,266L524,267L524,267L524,267L525,267L525,268L525,268L525,268L526,268L526,268L526,268L526,267L526,267L526,266L526,266L526,265L526,265L526,265L526,264L526,264L526,263L526,263L526,263L526,263L526,262L526,262" stroke-opacity="1" stroke-width="5" stroke-linecap="round" stroke-linejoin="round" style="-webkit-tap-highlight-color: rgba(0, 0, 0, 0); stroke-opacity: 1; stroke-linecap: round; stroke-linejoin: round; user-select: text; display: inline;"></path><path fill="none" stroke="#ff0000" d="M363,70L363,67L363,63L363,62L363,61L363,59L363,57L363,56L363,54L363,53L363,52L363,51L363,51L363,50L363,50L367,52L371,53L377,56L385,59L388,61L396,66L403,70L409,75L415,78L421,83L424,86L426,88L428,90L430,93L431,94L432,95L433,96L433,97L433,98L433,98L433,99L433,101L433,102L431,105L429,108L425,115L421,123L416,132L412,143L409,154L405,166L403,178L402,190L402,203L402,217L403,232L408,247L415,262L424,277L434,292L444,304L448,309L457,319L465,327L467,329L472,335L475,339L477,341L479,344L479,345L480,348L480,350L479,351L477,353L473,355L466,358L459,360L450,361L444,362L436,363L421,365L416,366L406,367L398,369L390,370L382,372L375,373L368,375L360,376L348,378L339,379L330,379L325,379L309,379L299,378L289,374L285,371L269,364L261,358L257,355L245,342L243,338L235,325L231,315L230,309L229,299L228,290L228,282L228,275L228,269L228,267L228,264L229,261L229,260L229,260L229,260L228,260L226,261L224,262L221,264L218,265L215,267L210,268L202,271L198,273L191,276L178,280L169,284L166,285L159,289L152,292L150,293L146,295L142,296L140,297L138,298L136,299L136,299L135,300L134,300L134,300L134,300L134,300L133,300L133,299L132,297L132,295L132,292L132,288L132,283L132,279L133,273L134,271L135,267L136,264L138,260L140,256L141,252L142,249L144,246L146,241L147,236L151,227L154,220L155,216L158,208L160,202L162,200L163,196L164,193L165,191L166,190L167,190L167,189L167,189L167,189L166,190L166,190L166,190L165,190L164,190L165,190L170,190L176,189L185,189L194,188L204,186L213,184L230,181L237,180L242,179L250,178L256,177L261,176L264,176L265,175L266,175L266,175L266,175L267,175L266,175L266,175L264,175L261,174L258,174L255,173L250,172L245,171L234,169L225,168L220,167L204,164L200,163L184,160L180,159L172,156L165,153L159,151L154,147L150,144L146,141L143,137L141,134L140,130L139,126L138,123L138,118L138,114L138,111L138,107L138,103L138,101L140,98L141,95L142,93L143,92L144,90L145,89L146,88L147,88L149,88L151,88L153,88L156,88L158,90L161,93L162,94L164,96L165,97L166,98L167,99L168,99L169,99L170,99L170,99L171,96L173,90L175,83L176,78L179,71L182,64L183,61L185,56L187,53L188,50L189,48L190,47L192,46L194,46L196,46L199,46L203,46L208,46L213,46L219,46L226,47L232,48L238,49L240,49L244,50L248,51L250,51L252,52L253,52L254,52L254,52L255,52L255,52L256,52L258,52L259,53L261,53L264,54L267,55L271,57L274,60L278,61L281,64L283,65L286,67L288,68L289,69L290,70L291,71L292,71L292,71L293,71L293,71L293,71L294,70L294,68L294,65L294,63L295,61L295,59L295,57L295,56L295,55L296,54L296,54L296,54L296,54L296,54L296,55L296,55L296,55L296,55L296,56L296,56" stroke-opacity="1" stroke-width="5" stroke-linecap="round" stroke-linejoin="round" style="-webkit-tap-highlight-color: rgba(0, 0, 0, 0); stroke-opacity: 1; stroke-linecap: round; stroke-linejoin: round; user-select: text;"></path><path fill="none" stroke="#38ff57" d="M522,302L522,302L521,302L522,302L524,302L528,302L535,302L544,302L556,302L568,302L581,302L594,302L600,302L609,301L616,299L619,299L623,297L627,295L629,295L630,293L631,290L631,289L631,286L630,283L627,279L623,276L618,272L613,269L608,266L602,263L597,262L595,262L590,261L587,260L584,259L581,259L579,259L578,259L577,259L576,259L576,259L577,259L580,258L585,256L590,254L597,251L601,249L608,245L613,241L619,236L623,232L626,228L627,226L629,220L629,217L629,212L629,208L628,204L624,200L619,196L614,192L608,189L603,187L597,186L592,186L588,186L584,186L583,186L577,188L575,188L573,190L571,191L570,192L569,193L569,193L569,194L569,194L569,194L569,194L572,194L574,194L577,194L581,193L585,192L587,192L590,190L594,188L597,186L599,183L602,180L603,176L605,172L607,167L607,162L608,156L608,149L608,142L606,137L603,130L600,125L598,123L595,120L592,118L589,116L585,115L584,115L580,115L579,115L577,115L575,115L574,115L572,116L572,117L571,117L571,118L571,118L571,118L571,118L572,118L573,118L574,118L577,117L578,116L580,114L582,111L584,109L585,106L587,102L589,98L591,93L592,88L593,82L594,77L594,71L594,66L593,61L591,57L588,54L584,52L580,50L575,48L569,48L563,47L561,47L556,47L553,47L550,47L547,47L546,48L545,49L545,49L544,50L544,51L544,51L544,52L544,52L545,54L547,55L548,57L550,58L552,60L554,61L556,61L557,62L558,62L560,62L561,62L561,62L562,62L562,62L562,62L562,62L562,62L562,62L560,62L558,62L553,62L547,64L540,69L531,76L522,86L502,107L488,125L474,145L468,156L457,175L454,181L452,186L448,195L445,202L443,207L442,209L442,211L442,212L442,212L442,212L442,212L444,210L445,209L447,207L448,206L449,204L451,203L452,202L452,200L453,199L453,199L453,199L453,198L451,198L450,198L448,198L446,198L445,199L443,200L442,202L441,203L441,205L441,207L441,208L441,211L441,213L441,217L441,221L443,224L445,229L448,233L451,238L456,243L460,248L462,250L466,253L469,256L471,259L472,261L474,263L475,265L475,267L476,268L476,270L476,272L476,273L476,274L476,276L476,277L476,278L476,279L477,280L477,282L478,284L479,286L480,288L482,291L483,295L485,298L487,301L489,304L490,306L492,309L494,311L495,313L497,315L499,317L502,318L505,319L511,321L519,323L527,325L539,328L553,331L567,334L573,337L584,341L593,345L599,348L602,350L608,356L611,359L612,362L613,366L613,369L614,370L614,375L614,379L614,381L614,386L614,389L614,393L613,396L613,400L612,402L612,408L611,411L611,413L611,417L611,420L610,423L610,425L610,427L610,429L610,431L609,432L609,434L608,435L607,437L605,438L603,439L600,440L594,442L588,442L580,442L569,442L546,442L529,442L507,439L496,437L479,434L472,433L460,431L449,429L446,428L439,426L434,425L430,423L424,422L421,420L419,420L416,419L413,418L409,414L406,416L399,416L393,412L390,412L384,412L381,412L377,412L374,412L369,411L365,411L362,411L359,411L358,411L357,410L356,410L356,410L355,409L355,409L355,409L355,408L355,407L355,407L358,404L366,399L388,387L418,374L460,361L507,350L530,348L575,343L615,341L651,341L664,341L693,344L716,349L734,354L752,359L767,364L781,368L786,370L795,373L804,375L812,378L819,380L826,381L834,382L840,382L829,336L815,331L798,326L782,323L767,321L761,321L739,319L727,319L722,319L712,319L704,319L697,320L692,322L686,325L683,327L682,329L677,332L675,336L673,339L673,340L671,345L671,347L670,351L670,354L670,356L670,360L670,362L672,366L674,368L676,370L677,372L679,373L681,374L683,375L687,376L689,376L692,376L696,374L699,371L703,367L707,362L713,352L716,349L719,341L721,336L722,333L724,325L724,321L724,318L723,316L720,313L715,312L710,311L700,310L691,309L681,309L669,309L656,309L643,309L629,310L614,311L608,313L596,315L586,318L578,320L571,322L568,323L563,325L559,326L556,327L554,328L553,328L551,329L550,329L550,329L547,331L542,336L534,342L526,349L510,363L502,370L487,382L471,394L457,405L442,415L437,418L427,424L418,429L411,433L405,436L399,439L393,442L388,445L384,447L379,449L378,449L374,451L371,452L369,454L366,455L364,456L363,457L363,457L357,457L351,457L343,457L332,457L320,457L299,455L272,451L247,447L235,444L215,441L196,437L190,436L176,433L167,432L159,430L152,429L150,429L141,428L139,428L136,427L133,427L131,426L129,426L127,426L126,426L126,426L126,426L125,426L125,425L125,425L125,425L125,425L125,424" stroke-opacity="1" stroke-width="5" stroke-linecap="round" stroke-linejoin="round" style="-webkit-tap-highlight-color: rgba(0, 0, 0, 0); stroke-opacity: 1; stroke-linecap: round; stroke-linejoin: round; user-select: text;"></path></svg>