<svg height="574" version="1.1" width="1048" xmlns="http://www.w3.org/2000/svg" xmlns:xlink="http://www.w3.org/1999/xlink" style="overflow: hidden; position: relative; user-select: text;"><desc style="-webkit-tap-highlight-color: rgba(0, 0, 0, 0); user-select: text;">Created with Raphaël 2.2.0</desc><defs style="-webkit-tap-highlight-color: rgba(0, 0, 0, 0); user-select: text;"></defs><path fill="none" stroke="#ff0000" d="M251,269L251,269L251,268L250,266L250,264L249,261L248,256L247,252L245,243L245,240L244,233L244,226L244,220L244,215L244,213L244,205L244,203L244,200L244,197L244,194L244,192L244,189L244,187L244,185L244,183L245,181L246,179L247,177L248,175L249,174L250,172L252,171L253,170L254,169L256,169L257,168L259,168L261,168L263,168L267,168L268,168L270,168L272,168L277,168L279,169L282,171L284,173L286,175L289,178L292,180L294,183L296,186L298,189L301,193L303,197L306,201L307,204L309,209L310,213L310,215L311,221L311,224L311,226L311,229L310,232L309,235L307,237L304,239L301,240L298,242L295,243L291,244L287,244L283,244L278,244L274,244L270,244L266,244L262,242L258,241L255,239L250,236L247,233L243,230L239,227L236,224L233,221L230,218L228,217L226,215L224,214L221,212L219,211L217,210L215,210L211,209L209,209L206,209L203,209L200,209L197,210L194,212L190,215L183,221L177,228L170,235L163,245L155,255L149,266L142,277L138,282L133,293L128,301L127,304L125,309L123,313L122,316L121,319L121,320L120,322L120,323L120,324L120,325L120,326L122,327L125,328L127,329L131,330L134,331L139,332L143,333L148,334L153,335L158,336L163,337L168,338L174,340L179,341L185,343L192,344L203,347L211,348L220,349L231,350L241,351L253,352L264,352L276,352L281,352L292,352L301,352L310,352L319,351L326,349L333,348L339,347L345,346L350,344L355,343L359,341L364,340L367,338L372,336L373,335L379,333L382,332L384,331L387,330L389,329L391,328L393,327L395,326L397,325L399,325L401,324L402,323L404,323L406,323L408,322L409,322L411,322L412,322L413,322L413,322L415,320L418,317L422,315L426,313L428,311L430,309L432,308L434,307L437,304L439,302L442,301L444,300L447,297L449,296L451,295L454,293L457,291L461,290L464,288L468,285L472,283L477,280L481,278L484,275L488,274L491,271L495,270L499,267L502,265L507,263L511,261L516,258L520,256L525,254L531,252L537,250L542,249L548,247L553,246L558,244L563,244L568,243L573,243L577,242L581,242L586,242L590,242L594,242L597,242L601,242L604,243L607,245L610,246L613,247L616,249L618,251L622,253L624,255L625,256L629,260L630,261L632,263L634,266L635,268L636,270L638,272L638,274L640,278L640,280L640,283L640,285L641,289L641,292L641,296L641,298L641,302L641,306L640,309L639,310L638,312L635,317L635,318L632,321L630,322L627,325L625,325L622,326L619,327L616,327L613,327L609,327L606,327L603,325L601,324L599,323L595,320L594,318L592,315L590,312L589,309L589,305L589,302L589,297L589,293L589,288L589,284L590,279L592,275L593,271L595,266L597,263L597,261L598,258L599,255L601,253L601,251L603,250L604,248L606,246L608,245L611,245L614,244L617,244L620,244L624,244L628,244L632,244L636,246L640,248L644,250L648,253L650,255L655,259L656,260L658,262L660,264L660,265L661,267L661,268L661,268L664,268L667,267L672,265L676,264L680,262L684,261L687,261L689,260L694,259L697,259L701,258L704,258L707,258L709,258L714,258L716,257L719,257L722,256L726,255L731,254L736,253L745,250L753,248L757,247L765,245L772,242L779,239L786,236L792,234L798,231L802,229L804,227L807,226L811,222L812,221L816,217L817,215L819,212L820,208L820,204L820,200L821,196L821,191L821,186L821,181L820,176L819,170L816,165L813,159L810,154L807,150L804,145L801,141L799,140L794,135L793,135L789,133L788,132L785,131L783,130L782,130L780,130L778,130L776,130L774,130L771,130L769,130L767,132L765,134L763,135L761,138L758,141L756,144L753,147L751,152L749,156L747,161L746,165L745,169L744,174L744,177L744,182L744,185L744,189L744,190L746,195L747,198L749,200L752,203L755,205L758,206L763,208L768,210L774,211L779,212L785,213L790,213L796,214L801,214L806,215L811,216L815,217L817,217L821,218L824,219L826,220L828,221L831,222L832,224L834,226L835,228L836,231L836,236L837,240L837,245L837,250L837,256L837,261L836,266L834,271L833,276L831,281L830,284L828,289L827,292L826,293L824,296L821,300L819,302L817,304L815,306L811,308L809,310L807,310L803,312L801,313L798,313L796,314L792,316L789,316L787,317L784,318L782,318L779,319L777,320L774,320L772,320L769,321L766,321L763,322L760,322L756,322L751,322L747,322L742,321L736,320L731,318L725,317L720,316L715,314L710,313L705,311L699,309L696,308L691,305L688,303L687,302L683,297L681,295L679,292L678,287L678,283L678,278L678,268L678,261L679,252L681,247L682,243L683,237L684,232L684,229L685,224L685,221L685,219L685,215L685,214L684,211L682,209L680,207L678,205L676,203L673,200L671,197L668,195L665,192L664,190L661,186L660,185L658,182L657,180L656,178L655,176L655,174L655,170L655,168L655,168L655,165L654,161L654,157L653,154L653,151L652,147L651,142L650,137L649,135L648,128L647,124L647,120L647,118L646,115L646,112L646,110L646,107L646,105L646,104L646,102L646,101L646,100L646,99L646,99L646,98L646,98L646,98L646,97L646,97L645,96L643,95L641,94L638,93L631,90L623,89L614,88L602,87L590,87L577,87L564,87L559,87L549,87L540,89L534,89L531,90L526,90L523,91L520,91L518,91L516,91L515,91L514,90L513,90L513,89L513,88L513,87L513,85L511,85L506,85L501,85L494,84L488,83L482,82L476,81L466,79L462,78L455,77L450,77L446,76L443,76L440,75" stroke-opacity="1" stroke-width="5" stroke-linecap="round" stroke-linejoin="round" style="-webkit-tap-highlight-color: rgba(0, 0, 0, 0); stroke-opacity: 1; stroke-linecap: round; stroke-linejoin: round; user-select: text;"></path><path fill="none" stroke="#2bff53" d="M76,195L76,195L76,194L76,192L76,191L77,189L77,185L77,181L77,177L78,173L78,168L78,163L78,160L78,155L78,153L79,150L79,146L79,144L79,142L79,141L79,140L79,139L79,138L79,138L79,138L79,137L79,137L79,136L79,135L80,133L80,131L80,128L80,125L81,122L83,117L85,112L87,106L90,101L93,94L97,87L100,82L103,76L106,71L107,69L110,65L112,62L113,60L115,58L115,57L116,56L116,56L117,55L117,55L117,55L118,55L118,55L119,55L119,55L120,55L121,55L122,55L124,55L126,55L128,55L131,55L135,55L139,55L143,55L148,56L153,58L159,60L164,63L170,66L174,70L178,73L179,75L182,78L184,81L187,85L188,88L188,91L189,94L189,98L189,102L189,106L188,110L187,114L186,118L186,120L185,123L184,126L184,129L184,131L184,134L184,135L184,137L186,138L189,140L191,142L195,142L202,143L205,143L212,143L218,143L225,142L230,141L236,139L238,138L242,136L245,135L247,133L249,132L251,132L252,131L254,129L254,129L255,128L255,128L256,127L256,127L257,126L257,126L257,126L258,125L258,125L258,125L259,125L259,124L260,124L262,124L263,124L264,124L267,124L270,124L272,125L274,126L278,129L280,131L283,133L286,136L289,139L292,142L295,146L297,149L299,152L301,155L303,158L305,161L307,164L308,165L309,168L311,170L312,172L313,174L314,176L315,177L316,178L316,179L316,180L316,181L316,182L315,183L312,185L308,185L304,186L295,188L288,188L278,188L268,188L263,188L253,188L250,187L244,187L239,186L236,185L234,185L232,184L232,184L231,184L231,183L231,183L231,182L233,181L235,179L240,176L245,173L250,169L256,166L263,162L268,159L274,155L276,154L280,152L283,151L286,150L288,149L290,148L291,148L293,148L293,147L294,147L294,147L294,147L294,147L294,147L294,147L296,145L298,143L301,141L303,138L307,135L311,131L315,127L317,125L320,121L322,119L323,116L324,114L325,111L325,110L325,108L325,106L325,105L325,103L325,101L324,98L323,97L322,93L321,92L320,90L318,87L317,84L316,83L314,79L313,78L312,76L310,74L309,72L308,71L308,69L307,68L307,67L307,66L307,65L307,65L307,64L309,62L314,60L321,58L330,56L342,54L354,52L361,52L371,52L381,52L390,53L397,57L402,60L405,64L408,68L410,73L410,78L411,83L411,89L409,99L405,109L401,117L398,121L393,128L388,135L381,141L375,146L368,150L361,154L354,157L342,162L333,164L329,164L322,165L319,165L314,166L309,166L306,166L304,166L303,166L302,166L302,166L302,166L302,165L302,164L304,162L310,159L322,153L337,148L358,140L382,132L409,125L421,123L444,119L453,119L468,118L481,118L491,118L498,120L503,123L505,126L507,129L507,133L507,141L507,147L503,155L497,165L491,174L488,178L481,187L469,200L460,206L451,213L442,218L433,223L427,225L418,229L415,230L409,233L405,235L402,237L399,238L398,239L397,239L397,240L397,241L397,242L398,244L402,247L408,250L417,255L428,260L443,265L460,271L476,277L492,282L508,286L524,290L530,291L542,292L550,293L553,293L558,293L562,293L564,293L566,293L567,293L565,292L560,292L552,292L542,292L530,291L506,289L495,288L476,287L457,286L439,284L420,283L403,282L387,282L372,281L357,281L343,281L330,281L325,281L314,281L305,281L302,281L296,281L291,281L288,282L286,282L284,283L283,283L282,283L281,283L281,283L281,284L279,287L276,291L271,297L265,304L259,311L246,326L238,335L226,350L214,363L210,368L200,379L192,386L184,391L179,394L174,397L171,397L164,398L163,399L160,399L158,399L155,399L154,399L153,398L152,398L151,398L151,397L151,397L150,397L150,398L151,401L154,406L156,409L162,418L168,425L174,432L178,435L184,442L191,447L197,452L204,457L211,460L217,463L224,466L231,468L237,469L244,470L249,471L254,471L259,471L263,471L267,470L271,467L275,464L281,457L284,450L287,443L290,435L292,430L294,421L296,412L298,404L298,401L300,395L300,390L301,387L301,384L302,383L302,382L302,382L302,381L302,381" stroke-opacity="1" stroke-width="5" stroke-linecap="round" stroke-linejoin="round" style="-webkit-tap-highlight-color: rgba(0, 0, 0, 0); stroke-opacity: 1; stroke-linecap: round; stroke-linejoin: round; user-select: text;"></path><path fill="none" stroke="#1e00ff" d="M426,255L426,256L426,256L426,256L426,257L426,257L426,257L426,258L426,258L426,260L426,262L428,265L432,268L436,274L447,287L457,297L470,310L477,316L490,329L502,342L514,353L524,362L528,367L535,374L541,379L543,381L548,385L550,388L552,389L554,390L555,391L555,391L556,391L560,391L565,391L571,391L584,391L601,391L621,392L645,395L657,396L678,399L700,400L708,400L723,400L735,400L738,400L745,399L750,398L753,396L755,394L757,392L758,389L758,386L758,383L757,379L755,375L751,371L747,368L742,365L732,359L725,357L716,356L706,356L694,356L682,356L670,357L657,361L644,365L632,369L619,374L608,379L603,381L593,385L585,389L577,393L570,397L564,402L559,406L555,410L549,415L545,418L541,423L537,426L532,429L527,432L522,434L516,435L510,437L505,437L499,439L493,439L487,439L481,439L477,439L471,439L467,438L464,437L460,435L457,433L454,431L453,430L451,428L448,425L446,422L445,419L444,416L444,412L444,405L444,397L444,390L446,380L451,370L456,357L463,344L471,330L480,316L491,300L502,287L515,275L521,270L530,264L533,262L545,257L549,256L553,256L556,257L562,265L565,274L568,284L571,299L574,315L576,329L579,343L580,350L582,362L583,373L585,382L586,388L586,391L586,396L586,400L586,405L586,407L585,409L582,411L579,413L575,415L567,418L560,419L551,421L541,421L529,422L518,423L506,423L496,424L490,424L481,424L473,424L466,424L460,424L459,424L454,424L451,424L448,424L445,424L443,424L442,424L440,423L439,422L438,422" stroke-opacity="1" stroke-width="5" stroke-linecap="round" stroke-linejoin="round" style="-webkit-tap-highlight-color: rgba(0, 0, 0, 0); stroke-opacity: 1; stroke-linecap: round; stroke-linejoin: round; user-select: text;"></path><path fill="none" stroke="#1e00ff" d="M568,94L568,94L570,94L572,94L574,96L580,101L586,106L590,112L593,116L603,127L605,131L611,139L616,147L620,154L624,161L625,163L628,167L629,171L630,173L632,175L632,176L633,177L633,177L633,177L633,177L634,177L634,177L634,177L635,176L636,174L638,170L641,166L645,159L651,152L657,143L661,139L666,131L672,124L678,117L683,110L687,104L691,99L694,95L697,91L698,89L700,86L701,83L702,80L703,77L704,75L704,74L705,72L705,71L705,71L705,70L705,70L703,70L702,70L699,71L695,73L691,75L682,78L675,81L666,83L657,85L647,88L636,89L624,91L613,91L607,92L598,92L588,92L580,92L577,92L572,92L568,91L566,90L564,89L563,89L562,88L562,88L561,88L561,88L561,88L561,88L560,89L559,91L558,96L557,102L557,110L556,121L556,133L556,146L556,153L556,165L557,176L560,184L562,191L564,194L567,202L570,206L573,209L577,211L584,215L592,217L600,219L610,220L632,223L650,224L660,224L692,224L703,222L722,217L739,211L746,207L758,201L768,195L776,190L781,183L786,176L789,171L791,165L792,160L792,155L792,151L792,149L792,147L792,145L791,144L790,143L789,143L789,143L788,143L788,144L788,148L788,155L790,164L795,177L801,191L809,206L817,221L827,238L837,252L846,265L856,276L860,281L869,290L875,296L880,302L884,307L887,311L889,317L890,321L890,325L890,330L890,335L888,340L885,345L882,350L878,354L876,359L873,363L870,367L870,369L866,375L865,379L864,382L863,386L863,390L862,394L862,397L862,402L862,405L862,409L862,411L863,414L864,417L866,419L867,421L869,423L871,425L874,427L875,428L878,429L879,430L881,432L883,433L884,434L885,435L885,436L886,437L886,438L886,439L886,439L885,440L883,441L881,441L878,441L874,441L868,441L861,441L853,440L843,439L833,437L821,435L809,434L797,434L785,434L780,434L771,434L764,434L758,434L756,434L749,435L748,436L745,437L744,438L743,439L742,439L741,440L740,441L740,441L739,441L739,442L738,442L738,442L738,442L738,443L737,443L737,443L737,443L736,443L735,443" stroke-opacity="1" stroke-width="5" stroke-linecap="round" stroke-linejoin="round" style="-webkit-tap-highlight-color: rgba(0, 0, 0, 0); stroke-opacity: 1; stroke-linecap: round; stroke-linejoin: round; user-select: text;"></path></svg>