<svg height="902" version="1.1" width="975" xmlns="http://www.w3.org/2000/svg" xmlns:xlink="http://www.w3.org/1999/xlink" style="overflow: hidden; position: relative; user-select: text;"><desc style="-webkit-tap-highlight-color: rgba(0, 0, 0, 0); user-select: text;">Created with Raphaël 2.2.0</desc><defs style="-webkit-tap-highlight-color: rgba(0, 0, 0, 0); user-select: text;"></defs><path fill="none" stroke="#ff0000" d="M288,236L288,235L288,228L285,207L281,187L280,162L293,131L318,111L369,98L477,104L648,161L757,241L808,332L806,460L747,569L618,636L443,656L352,641L340,620L350,580L421,513L537,457L654,435L705,438L716,462L691,519L610,620L490,707L414,746L399,751L399,746L418,702L455,639L492,581L527,527L542,498L547,486L548,485L548,484L549,483L550,483L552,481L555,480L558,479L562,474L567,464L577,446L586,419L588,383L582,345L555,301L489,249L396,206L321,197L259,228L218,319L227,466L302,608L469,712L792,772L625,375L258,407L176,486L180,546L235,603L375,657L539,655L728,606L867,534L908,473L872,414L770,345L631,305L517,308L481,341L484,399L528,481L602,523L755,534L909,492L915,305L729,212L497,174L339,187L261,234L241,326L282,422L380,496L514,525L629,496L682,448L674,388L597,288L454,192L355,167L299,188L277,246L285,307L323,369L376,402L444,409L509,386L530,338L500,254L415,151L323,93L252,81L211,105L212,206L250,351L326,444L420,488L515,484L601,442L638,380L633,308L581,210L517,145L459,122L434,127L426,178L457,319L534,479L640,582L796,636L953,621L933,440L781,350L609,310L482,313L437,351L449,437L515,523L643,588L813,603L945,581L934,376L790,306L626,280L531,292L495,326L490,375L512,425L550,455L589,455L623,437L635,402L617,339L554,250L482,197L393,171L322,183L296,227L301,305L342,388L402,446L464,469L532,467L567,450L575,420L554,358L531,318L518,301L516,299" stroke-opacity="1" stroke-width="5" stroke-linecap="round" stroke-linejoin="round" style="-webkit-tap-highlight-color: rgba(0, 0, 0, 0); stroke-opacity: 1; stroke-linecap: round; stroke-linejoin: round; user-select: text; display: inline;"></path><path fill="none" stroke="#ff0000" d="M645,89L646,88L647,87L647,87L648,87L648,88L648,89L649,90L649,91L650,92L650,94L651,95L651,96L651,97L651,97L651,98L651,99L652,100L652,101L653,102L653,103L654,104L654,105L655,105L655,106L656,106L656,107L657,108L657,109L658,109L659,109L659,108L660,108L661,107L661,107L662,106L663,105L663,104L664,104L664,103L665,102L665,101L665,100L666,100L666,99L667,99L667,98L667,97L668,97L668,96L668,95L669,95L669,94L669,93L669,92L670,92L670,91L671,90L671,89L671,88L672,88L672,87L673,87L673,86L673,85L674,85L674,83L675,83L675,82L676,81L676,81L676,80L677,80L677,78L677,77L678,77L678,76L678,76L679,75L679,74L680,74L681,74L681,73L682,73L682,72L683,71L685,69L687,68L688,68L688,69L689,71L690,73L690,75L691,77L691,78L691,78L691,79L691,81L691,82L691,84L690,85L690,86L690,87L689,89L689,89L688,90L688,91L688,92L688,94L688,95L688,96L688,98L688,99L688,100L688,101L688,102L688,103L689,104L690,105L690,106L691,106L691,107L691,108L692,108L692,109L693,110L693,111L694,112L694,113L695,114L696,115L696,116L697,117L697,117L698,118L699,118L700,118L700,117L702,117L703,115L704,115L704,114L704,113L704,113L704,112L705,111L705,110L706,109L706,108L706,107L706,106L706,105L706,104L706,103L706,102L706,101L706,100L706,99L706,98L706,98L706,97L706,96L706,95L706,93L706,92L706,91L706,90L706,88L706,86L706,84L707,83L708,81L711,80L712,80L713,79L714,78L716,77L719,77L721,76L722,76L723,76L724,77L725,79L726,80L726,81L726,82L726,82L726,83L726,84L726,85L726,86L726,88L726,89L726,91L726,92L726,94L729,97L730,100L731,102L732,102L732,103L733,103L734,104L735,104L736,104L737,104L738,105L739,106L740,106L743,108L747,110L752,112L755,113L757,115L758,115L758,116L759,116L759,117L761,117L763,118L765,118L765,119L766,119L766,120L767,120L767,121L767,122L768,123L769,124L772,127L775,129L777,130L779,131L780,131L780,132L783,134L786,137L791,143L795,147L798,151L799,152L800,152L800,153L800,154L800,154L800,155L800,156L801,157L801,158L801,159L802,160L802,161L802,162L803,163L804,165L805,166L806,168L808,172L809,174L810,176L811,179L812,180L813,181L813,182L813,183L812,184L812,185L811,186L810,187L809,188L809,188L807,188L807,189L806,189L805,191L805,192L805,192L805,193L804,193L803,193L803,192L802,192L801,191L800,191L799,191L798,190L796,190L794,189L791,188L788,187L786,185L785,185L784,185L783,184L781,184L779,183L778,182L776,182L775,181L774,181L774,180L773,180L772,179L772,178L772,176L772,175L771,173L771,172L771,171L771,169L771,168L771,167L771,166L771,164L771,163L771,162L771,161L771,160L771,159L771,158L771,157L772,155L773,154L773,153L774,152L774,151L774,149L775,148L775,147L777,147L777,146L777,145L777,144L777,143L778,143L778,142L778,141" stroke-opacity="1" stroke-width="5" stroke-linecap="round" stroke-linejoin="round" style="-webkit-tap-highlight-color: rgba(0, 0, 0, 0); stroke-opacity: 1; stroke-linecap: round; stroke-linejoin: round; user-select: text;"></path><path fill="none" stroke="#00ff09" d="M781,156L782,156L782,157L783,158L783,160L783,161L783,161L783,162L783,163L783,164L783,164L783,166L783,168L783,169L784,170L784,171L785,171L785,172L786,173L788,173L789,173L790,174L791,175L792,175L793,176L794,176L794,177L795,177L796,178L797,178L798,178L798,179L799,180L800,182L800,184L801,184L801,185L801,183L801,181L801,180L801,178L801,177L801,176L800,176L800,175L799,173L798,173L798,172L797,172L797,171L796,171L796,170L795,169L794,169L793,168L793,167L792,167L792,166L791,165L791,164L791,163L791,162L791,161L791,160L791,159L791,158L790,157L790,156L789,156L789,155L788,155L787,155L786,154L785,154L784,153L783,153L782,153L782,154" stroke-opacity="1" stroke-width="5" stroke-linecap="round" stroke-linejoin="round" style="-webkit-tap-highlight-color: rgba(0, 0, 0, 0); stroke-opacity: 1; stroke-linecap: round; stroke-linejoin: round; user-select: text;"></path><path fill="none" stroke="#00ff09" d="M676,104L677,104L678,105L679,107L680,108L681,111L682,112L682,115L683,116L684,118L684,119L685,120L686,121L686,122L687,122L687,123L688,124L689,126L690,127L690,128L691,128L692,129L693,129L695,129L696,129L697,130L698,130L701,130L703,130L704,131L706,131L707,131L709,131L711,131L712,131L713,130L714,130L715,129L716,128L718,127L718,126L718,124L718,123L718,123L718,121L718,120L718,119L717,117L717,116L717,115L717,114L717,113L717,111L717,109L717,108L718,106L718,104L718,103L718,102L718,102L718,101L718,100L718,99L718,97L718,96L718,95L718,94L718,93L718,93L717,93L717,95L717,97L717,99L717,101L717,102L717,103L717,104L718,104L718,105L718,106L719,107L719,108L720,108L720,109L721,109L722,109L722,110L723,110L724,111L725,112L726,112L727,113L728,113L728,114L729,114L730,114L731,115L732,115L732,116L733,116L734,117L736,118L736,119L737,119L738,120L738,121L739,121L740,122L741,122L741,123L742,123L742,124L743,124L743,125L744,126L745,127L746,128L747,128L747,129L748,129L749,130L750,130L750,131L751,132L752,133L753,133L753,134L754,134L756,135L757,135L758,135L759,136L760,136L761,137L762,137L763,137L764,138L765,138L766,139L767,139L768,140L768,140L768,141L768,143L768,145L768,147L768,147L767,148L766,149L766,150L765,151L764,152L764,153L763,153L763,154L763,155L762,156L762,157L762,159L761,160L761,161L761,162L760,163L760,164L760,166L760,167L760,169L760,170L760,172L760,173L760,176L760,177L760,178L760,179L760,181L760,182L760,182L760,183L760,184L760,185L761,186L761,186L761,187L762,187L762,188L763,188L763,189L764,190L765,190L766,191L767,191L768,192L769,192L773,194L777,196L780,199L784,200L786,201L787,201L788,201L788,201L790,201L791,202L792,202L793,203L794,203L796,204L798,204L800,204L802,205L804,205L805,205L806,205L808,205L810,205L811,205L813,205L814,205L815,205L815,204L816,204L817,203L818,203L818,202L819,201L820,200L820,197L821,196L822,196L822,195L823,194L824,194L825,194L826,192L828,192L829,191L832,189L833,188L833,188L833,187L834,186L834,185L835,184L835,183L835,182L835,181L835,179L834,177L834,176L833,175L833,174L834,174L835,174L836,173L836,172L836,172L836,171L836,170L836,169L836,167L836,165L835,164L835,163L835,162L835,161L834,160L833,160L833,159L832,158L831,158L831,156L830,155L829,154L829,153L828,153L827,151L827,149L825,148L824,146L822,144L822,143L821,142L820,139L819,138L818,136L817,135L816,134L815,132L815,131L814,130L813,128L813,127L812,127L812,126L811,126L811,125L810,125L810,124L809,124L808,123L807,123L806,123L804,122L803,121L801,121L800,120L799,119L797,118L796,117L795,116L793,115L792,114L791,113L791,112L790,112L789,111L788,110L787,110L786,109L784,109L783,107L781,106L780,105L779,104L778,102L777,102L777,101L776,100L775,99L774,98L771,96L769,94L767,91L764,88L760,85L757,83L756,82L755,81L754,80L752,78L750,77L750,75L748,74L748,73L747,73L747,72L746,71L745,70L745,69L744,68L743,67L742,67L742,66L741,66L740,65L739,64L737,63L736,62L735,62L734,61L732,60L730,59L728,58L727,56L725,54L724,53L722,52L721,51L720,51L720,50L719,49L718,49L716,48L715,48L713,47L712,47L709,46L706,46L703,45L701,45L700,44L699,44L698,44L696,44L695,44L693,44L691,44L690,44L687,44L684,44L681,44L679,43L676,43L675,43L674,43L673,43L671,43L670,43L669,43L668,43L666,43L664,43L663,43L661,43L660,43L658,43L657,43L656,43L654,43L653,43L651,43L648,43L646,44L643,44L641,45L638,45L636,46L633,46L632,47L629,48L627,49L625,50L623,51L621,52L620,52L618,53L617,55L615,57L614,59L613,61L613,62L612,64L611,66L611,68L611,71L611,73L611,75L611,77L611,78L611,79L611,80L611,81L612,82L612,84L613,86L614,87L614,88L615,89L618,91L619,93L620,94L621,95L621,96L622,98L623,99L625,100L626,101L627,103L628,104L629,106L629,107L631,108L632,110L633,112L636,114L640,119L643,123L646,127L650,132L654,136L660,141L663,145L665,147L667,148L668,149L669,149L670,150L671,151L673,151L673,152L674,152L675,154L677,154L678,155L680,156L683,157L687,159L690,159L694,160L696,160L699,160L701,160L704,160L707,160L709,160L711,160L713,160L714,160L716,160L718,160L720,160L722,160L724,159L727,159L728,158L730,157L731,156L731,155L732,154L732,153L732,152L732,151L732,150L732,151L732,152L732,155L732,156L732,158L733,159L733,160L733,161L733,162L734,163L734,164L734,165L734,167L735,168L736,170L736,172L737,175L738,178L739,180L740,182L741,184L742,186L743,189L743,190L744,191L744,192L746,195L748,198L751,201L753,203L754,204L754,204L755,204L758,204L760,204L761,204L764,204L766,205L768,206L771,207L772,208L775,209L777,210L779,210L782,211L784,212L786,213L787,213L788,213L790,213L791,214L794,215L799,216L805,218L812,220L817,222L819,223L820,223L821,223" stroke-opacity="1" stroke-width="5" stroke-linecap="round" stroke-linejoin="round" style="-webkit-tap-highlight-color: rgba(0, 0, 0, 0); stroke-opacity: 1; stroke-linecap: round; stroke-linejoin: round; user-select: text;"></path><path fill="none" stroke="#00ff09" d="M108,393L108,392L108,390L108,388L108,385L108,383L108,382L108,381L108,380L108,379L108,378L108,377L108,376L108,375L108,374L108,373L108,373L108,372L108,370L108,369L108,366L108,364L108,362L108,361L108,358L107,356L107,354L107,353L107,351L107,350L107,347L107,346L107,344L107,342L107,341L107,339L107,338L107,336L107,335L107,334L107,332L106,331L106,330L106,328L105,326L105,325L105,323L105,322L105,320L105,317L105,316L105,316L105,316L106,316L109,316L114,317L120,318L127,320L131,321L137,321L139,322L139,322L141,322L142,323L143,323L145,323L149,324L151,324L155,324L159,325L164,325L168,325L170,325L174,325L177,325L180,325L183,325L186,325L191,325L194,325L196,325L197,325L197,327L197,328L197,331L197,332L197,334L197,335L197,337L197,338L197,339L197,341L197,343L197,344L197,346L196,348L195,350L195,353L194,355L192,359L191,363L190,366L189,368L189,369L189,371L189,372L189,375L189,378L189,380L189,382L190,385L191,388L193,390L194,393L195,395L195,396L196,396L196,397L196,398L194,399L191,400L187,401L184,402L181,402L179,403L178,403L177,403L174,403L172,403L170,403L167,403L164,403L161,403L159,403L158,403L156,403L152,403L149,403L146,402L145,402L143,402L141,401L140,401L139,401L138,401L137,401L136,400L134,400L133,400L130,400L129,400L128,400L126,400L125,400L123,400L121,400L120,400L117,400L116,400L114,400L112,400L110,400L108,400L107,400L105,400L104,400L101,399L99,399L97,398L96,397L96,396L96,395L97,395L99,394L101,394L103,394L105,394L106,394" stroke-opacity="1" stroke-width="5" stroke-linecap="round" stroke-linejoin="round" style="-webkit-tap-highlight-color: rgba(0, 0, 0, 0); stroke-opacity: 1; stroke-linecap: round; stroke-linejoin: round; user-select: text;"></path><path fill="none" stroke="#00ff09" d="M78,167L78,166L78,165L78,161L77,155L77,149L75,140L74,134L73,128L71,121L69,115L67,109L65,102L64,96L62,90L61,85L60,81L59,77L59,75L59,74L59,73L60,73L65,73L74,73L87,73L97,73L106,70L111,69L114,69L120,68L125,68L132,68L138,68L144,68L148,68L150,68L153,68L156,68L159,68L160,68L161,68L162,68L162,69L162,73L161,80L160,89L158,98L158,107L158,117L158,124L158,131L158,136L158,139L158,142L158,144L158,146L158,147L158,148L158,149L158,150L157,150L157,151L156,152L155,153L154,153L153,154L152,155L151,155L148,156L146,157L142,158L140,159L138,160L134,160L131,161L129,161L127,161L124,161L121,162L117,163L114,165L111,167L108,168L105,169L103,169L99,169L98,170L97,170L95,170L93,170L91,171L90,171L89,171L88,172L87,172L86,172L85,172L84,171L83,171L82,171L81,170L80,170L79,170L78,170L77,170L76,170L75,170L74,170" stroke-opacity="1" stroke-width="5" stroke-linecap="round" stroke-linejoin="round" style="-webkit-tap-highlight-color: rgba(0, 0, 0, 0); stroke-opacity: 1; stroke-linecap: round; stroke-linejoin: round; user-select: text;"></path><path fill="none" stroke="#00ff09" d="M423,32L427,28L436,24L451,19L468,15L487,10L502,5L512,4L517,3L524,3L528,3L534,3L543,3L554,3L562,3L565,3L565,4L565,11L565,21L565,31L565,43L565,50L565,55L565,57L565,59L565,60L565,61L565,62L565,63L564,64L564,65L563,65L560,65L553,65L545,66L540,67L534,69L529,70L524,70L522,70L519,71L516,71L514,72L511,73L508,74L506,74L505,75L504,75L503,75L502,75L499,75L497,76L494,76L490,76L485,76L482,76L478,76L473,76L471,76L468,77L465,77L461,78L457,78L455,79L453,79L452,79L451,79L450,79L449,79L447,79L445,79L444,79L443,78L442,78L440,78L439,78L438,78L437,78L436,77L434,77L431,75L425,70L415,61L409,56L408,53L407,52L407,51L407,50L407,49L407,48L406,47L406,47L406,46L406,45L406,43L406,41L406,40L408,38L410,36L411,35L412,33L413,30L414,30L415,30L415,29L416,29L416,28L417,28L418,28L419,28L420,28L420,29L422,29L423,29L425,29L425,30L426,30L427,31" stroke-opacity="1" stroke-width="5" stroke-linecap="round" stroke-linejoin="round" style="-webkit-tap-highlight-color: rgba(0, 0, 0, 0); stroke-opacity: 1; stroke-linecap: round; stroke-linejoin: round; user-select: text;"></path><path fill="none" stroke="#00ff09" d="M168,742L168,731L168,722L169,714L173,707L175,704L178,700L182,695L187,688L194,680L203,672L212,665L223,657L230,652L236,649L242,646L248,645L252,645L257,645L261,645L267,645L272,645L276,646L280,648L284,652L288,656L293,663L297,670L300,677L303,683L305,692L307,699L308,708L309,718L310,730L310,740L310,747L309,753L307,758L305,764L300,769L290,775L276,783L259,789L246,792L236,792L230,792L228,792L225,792L222,792L220,792L217,792L214,791L208,790L204,790L202,789L200,789L198,788L195,787L190,784L184,779L179,772L175,766L172,761L171,759L171,757L170,755L170,754L169,753L169,752L169,751L169,747L168,745L168,744L168,743L168,742L168,741L168,741L168,740L169,740L174,740L182,741L195,743L213,747L227,749L238,750L247,752L251,753L253,753L256,753L259,753L264,753L271,751L283,749L294,747L306,744L317,742L326,740L332,737L335,735L337,734L339,732L341,731L341,730L342,729L342,728L342,727L342,725L341,723L339,720L337,717L335,713L333,711L331,707L330,704L328,701L327,700L325,698L324,696L322,694L320,693L318,691L316,690L314,688L312,687L310,686L309,685L307,684L305,684L303,683L301,682L298,680L295,678L293,676L290,673L287,670L285,667L284,665L282,663L281,662L280,662L279,661L278,661L277,661L276,661L275,661L273,661L270,663L263,668L252,676L245,686L238,694L234,699L233,700L232,702L232,704L231,706L231,708L231,711L231,716L230,721L230,726L230,732L229,738L228,745L228,752L228,757L228,761L228,764L228,767L228,770L228,773L228,776L228,778L227,781L226,783L224,785L222,788L220,790L217,791L216,792L215,792L213,792L211,791L205,786L199,780L194,773L191,766L189,757L189,748L189,740L190,732L193,723L194,715L196,708L197,703L200,699L202,696L204,694L207,692L213,690L215,689L219,687L223,687L229,687L240,687L253,691L269,696L281,701L295,706L303,709L307,711L310,713L311,714L312,715L312,716L313,717L313,719L313,721L313,726L309,732L301,739L287,747L273,753L262,754L256,755L254,756L253,756L252,756L250,756L248,756L245,754L242,752L240,751L238,749L237,745L237,741L237,735L237,731L237,729L238,728L240,726L243,724L248,723L253,723L257,723L261,723L265,726L270,729L273,732L276,737L279,741L280,745L280,747L280,750L280,751L279,752L278,753L275,755L272,756L269,758L266,760L263,762L260,763L258,764L257,766L255,766L254,766L251,766L249,766L247,766L245,766L243,767L240,767L238,768L236,768L234,768L234,769L233,769" stroke-opacity="1" stroke-width="5" stroke-linecap="round" stroke-linejoin="round" style="-webkit-tap-highlight-color: rgba(0, 0, 0, 0); stroke-opacity: 1; stroke-linecap: round; stroke-linejoin: round; user-select: text;"></path></svg>