<svg height="593" version="1.1" width="375" xmlns="http://www.w3.org/2000/svg" xmlns:xlink="http://www.w3.org/1999/xlink" style="overflow: hidden; position: relative; -webkit-user-select: text;"><desc style="-webkit-tap-highlight-color: rgba(0, 0, 0, 0); -webkit-user-select: text;">Created with Raphaël 2.2.0</desc><defs style="-webkit-tap-highlight-color: rgba(0, 0, 0, 0); -webkit-user-select: text;"></defs><path fill="none" stroke="#4736ff" d="M131,92L124,92L113,95L97,102L73,118L64,129L60,137L58,149L59,160L67,168L83,172L101,172L122,162L136,150L148,135L155,122L157,108L157,98L156,92L148,88L139,88L131,88L122,92" stroke-opacity="1" stroke-width="10" stroke-linecap="round" stroke-linejoin="round" style="-webkit-tap-highlight-color: rgba(0, 0, 0, 0); stroke-opacity: 1; stroke-linecap: round; stroke-linejoin: round; -webkit-user-select: text;"></path><path fill="none" stroke="#4736ff" d="M263,84L256,87L236,100L220,111L206,122L196,131L190,138L188,144L188,152L198,160L215,164L235,164L253,162L270,152L281,141L288,132L291,122L291,112L289,102L280,92L268,82L259,77L253,75L249,75L242,85" stroke-opacity="1" stroke-width="10" stroke-linecap="round" stroke-linejoin="round" style="-webkit-tap-highlight-color: rgba(0, 0, 0, 0); stroke-opacity: 1; stroke-linecap: round; stroke-linejoin: round; -webkit-user-select: text;"></path><path fill="none" stroke="#4736ff" d="M170,149L158,154L154,160L150,170L143,186L137,202L129,220L122,238L116,255L113,273L113,289L115,304L124,315L139,321L155,321L171,315L183,300L194,281L201,262L204,243L204,224L199,205L190,189L181,174L176,165L173,161L172,159" stroke-opacity="1" stroke-width="10" stroke-linecap="round" stroke-linejoin="round" style="-webkit-tap-highlight-color: rgba(0, 0, 0, 0); stroke-opacity: 1; stroke-linecap: round; stroke-linejoin: round; -webkit-user-select: text;"></path><path fill="none" stroke="#4736ff" d="M59,276L59,283L60,292L64,304L70,317L77,330L85,342L94,353L105,362L121,369L139,375L163,378L182,379L207,379L229,372L248,360L264,342L275,318L282,300L286,286L287,278L288,275L288,274L288,275L287,277" stroke-opacity="1" stroke-width="10" stroke-linecap="round" stroke-linejoin="round" style="-webkit-tap-highlight-color: rgba(0, 0, 0, 0); stroke-opacity: 1; stroke-linecap: round; stroke-linejoin: round; -webkit-user-select: text;"></path><path fill="none" stroke="#4736ff" d="M23,338L27,342L34,352L44,365L55,379L67,393L81,406L98,416L123,423L150,424L180,424L208,413L231,396L249,377L261,364L268,355L271,350L273,347L273,346" stroke-opacity="1" stroke-width="10" stroke-linecap="round" stroke-linejoin="round" style="-webkit-tap-highlight-color: rgba(0, 0, 0, 0); stroke-opacity: 1; stroke-linecap: round; stroke-linejoin: round; -webkit-user-select: text;"></path><path fill="none" stroke="#4736ff" d="M70,284L60,287L58,297L53,308L49,320L44,333L40,344L37,352L34,357L32,361L31,363" stroke-opacity="1" stroke-width="10" stroke-linecap="round" stroke-linejoin="round" style="-webkit-tap-highlight-color: rgba(0, 0, 0, 0); stroke-opacity: 1; stroke-linecap: round; stroke-linejoin: round; -webkit-user-select: text;"></path><path fill="none" stroke="#4736ff" d="M118,116L116,114L112,118L109,122L105,128L103,133L102,137L102,139L102,140L104,140L108,140L112,135L116,130L119,124L121,119L122,116L123,115" stroke-opacity="1" stroke-width="10" stroke-linecap="round" stroke-linejoin="round" style="-webkit-tap-highlight-color: rgba(0, 0, 0, 0); stroke-opacity: 1; stroke-linecap: round; stroke-linejoin: round; -webkit-user-select: text;"></path><path fill="none" stroke="#4736ff" d="M257,106L252,109L251,112L250,115L248,120L247,125L247,131L247,135L247,139L247,141L247,142L251,142L256,135L261,127L263,120L264,114L264,111L264,110L263,110L257,112L245,124" stroke-opacity="1" stroke-width="10" stroke-linecap="round" stroke-linejoin="round" style="-webkit-tap-highlight-color: rgba(0, 0, 0, 0); stroke-opacity: 1; stroke-linecap: round; stroke-linejoin: round; -webkit-user-select: text;"></path></svg>