<svg height="494" version="1.1" width="320" xmlns="http://www.w3.org/2000/svg" xmlns:xlink="http://www.w3.org/1999/xlink" style="overflow: hidden; position: relative; -webkit-user-select: text;"><desc style="-webkit-tap-highlight-color: rgba(0, 0, 0, 0); -webkit-user-select: text;">Created with Raphaël 2.2.0</desc><defs style="-webkit-tap-highlight-color: rgba(0, 0, 0, 0); -webkit-user-select: text;"></defs><path fill="none" stroke="#000000" d="M101,216L98,217L98,216L100,216L102,214L104,213L107,211L114,207L118,204L120,202L124,200L127,197L130,195L133,193L136,191L140,188L145,186L149,183L152,181L155,179L158,177L161,175L163,173L166,171L168,170L170,168L173,167L175,165L178,163L180,162L182,161L183,159L185,158L186,158L187,157L188,156L189,156L189,155L190,155L191,155L192,155L193,155L194,155L195,155L196,155L197,155L198,155L198,156L199,156L200,156L200,157L201,157L202,157L202,158L203,158L204,159L205,159L205,160L206,160L207,161L208,161L208,162L209,162L209,163L210,163L211,163L211,164L212,165L213,165L213,166L214,166L214,167L215,167L215,168L216,169L216,170L217,170L217,171L218,171L218,172L218,173L219,173L219,174L219,175L220,175L220,176L220,177L220,178L221,178L221,179L221,180L221,181L221,182L222,183L222,184L222,185L222,186L222,187L222,188L222,189L222,190L222,191L222,192L222,193L222,194L222,195L222,196L222,197L222,198L222,199L222,200L222,201L222,202L222,203L222,204L222,205L222,206L222,207L222,208L222,209L222,210L222,211L222,212L222,213L222,214L222,215L221,215L221,216L221,217L221,218L221,219L220,219L220,220L220,221L220,222L220,223L219,224L219,225L219,226L218,227L218,228L218,229L218,230L218,231L217,231L217,232L217,233L217,234L217,235L217,236L216,236L216,237L216,238L216,239L215,240L215,241L215,242L215,243L215,244L214,244L214,245L214,246L214,247L213,248L213,249L213,250L213,251L213,252L213,253L212,254L212,255L212,256L212,257L211,258L211,259L211,260L211,261L211,262L210,262L210,263L210,264L210,265L210,266L210,267L210,268L209,268L209,269L209,270L209,271L208,272L208,273L208,274L208,275L207,276L207,277L207,278L207,279L207,280L207,281L206,281L206,282L205,283L205,284L205,285L205,286L204,287L204,288L204,289L204,290L203,290L202,290L201,290L200,290L199,290L198,290L197,290L196,290L195,290L194,290L193,290L192,290L191,290L190,290L189,290L188,290L187,290L186,290L185,290L184,290L183,290L182,290L181,290L180,290L179,290L178,290L177,290L176,290L175,290L174,290L173,290L172,290L171,290L170,290L169,290L168,289L167,289L166,289L165,289L164,289L163,289L162,288L161,288L160,288L159,288L158,288L157,288L156,288L155,287L154,287L153,287L152,287L151,287L150,287L149,286L148,286L147,286L146,286L145,286L144,285L142,285L141,284L140,284L139,284L138,284L137,283L136,283L135,283L134,282L133,282L132,282L132,281L131,281L130,281L129,281L129,280L128,280L127,280L126,279L125,279L124,278L123,278L122,278L121,277L120,277L119,276L118,276L117,275L116,275L115,274L113,273L112,273L110,272L109,271L108,271L107,270L106,270L105,269L104,269L104,268L103,267L102,267L101,266L100,266L100,265L99,264L98,264L97,263L96,262L96,261L95,261L94,260L94,259L93,258L92,257L91,256L90,255L89,254L89,253L88,253L87,252L87,251L86,251L86,250L85,250L85,249L84,248L83,247L83,246L82,245L81,244L80,243L80,242L79,240L78,240L78,239L78,238L77,237L77,236L76,235L76,234L75,233L75,232L74,231L73,230L73,229L73,228L72,227L72,226L72,225L72,224L71,223L71,222L71,221L71,220L71,219L71,218L71,217L71,216L71,215L71,214L71,213L71,212L71,211L71,210L71,209L71,208L72,207L72,206L73,206L73,205L74,204L74,203L75,203L75,202L76,202L76,201L77,201L77,200L78,200L78,199L79,198L80,198L81,197L81,196L82,196L83,195L84,194L85,193L86,193L86,192L87,192L87,191L88,191L88,190L89,190L89,189L90,189L91,188L92,188L92,187L93,187L94,186L95,185L96,185L96,184L97,184L98,184L98,183L99,183L100,182L101,182L101,181L102,181L103,181L103,180L104,180L105,179L106,179L107,178L108,178L109,177L110,177L111,176L112,176L113,175L114,175L115,174L116,174L116,173L117,173L118,172L119,172L119,171L120,171L121,171L121,170L122,170L122,169L123,169L124,168L125,168L125,167L126,167L126,166L127,166L127,165L128,165L129,165L129,164L130,163L131,163L131,162L132,162L133,162L133,161L134,161L135,161L135,160L136,160L137,160L138,160L139,160L140,160L141,160L142,160L143,160L144,160L145,160L146,160L147,160L148,160L149,160L150,160L151,160L152,160L153,160L154,160L154,161L155,161L156,161L156,162L157,162L158,163L159,163L160,164L160,165L161,165L162,166L163,167L164,168L165,168L165,169L166,169L167,170L168,171L169,172L170,172L170,173L171,173L171,174L172,174L173,175L174,176L175,176L175,177L176,177L177,178L178,179L179,179L180,180L181,181L182,182L183,183L184,184L185,185L186,186L187,187L187,188L188,188L189,189L190,190L191,191L191,192L192,192L192,193L193,194L194,194L194,195L195,196L196,197L196,198L197,198L197,199L198,199L198,200L199,200L199,201L200,202L200,203L201,204L202,205L202,206L203,206L204,207L204,208L205,208L205,209L207,209L207,210L208,210L208,211L209,211L209,212L210,212L210,213L211,214L212,214L212,215L213,215L213,216L214,217L215,217L215,218L216,218L217,219L218,220L219,221L220,222L221,223L222,224L222,225L223,225L223,226L224,227L225,228L225,229L226,229L226,230L227,230L227,231L227,232L228,232L228,233L229,234L229,235L230,236L230,237L231,237L231,238L231,239L232,239L232,240L233,242L233,243L234,244L234,245L235,246L235,247L236,248L236,249L237,250L237,251L238,252L238,253L239,253L239,254L239,255L239,256L240,257L240,258L240,259L240,260L241,260L241,261L241,262L241,263L242,264L242,265L242,266L242,267L242,268L242,269L243,270L243,271L243,272L243,273L243,274L243,275L243,276L243,277L243,278L243,280L243,281L243,282L243,283L243,284L243,285L243,286L243,287L243,288L243,289L243,290L243,291L243,292L243,293L243,294L243,295L243,296L243,297L243,298L243,299L243,300L243,301L243,302L243,303L243,304L243,305L243,306L242,306L242,307L242,308L242,309L242,310L242,311L241,311L241,312L241,313L241,314L241,315L241,316L241,317L241,318L241,319L240,320L240,321L240,322L240,323L240,324L240,325L239,325L239,326L239,327L239,328L239,329L239,330L238,330L238,331L238,332L238,333L237,333L237,334L237,335L237,336L237,337L237,338L236,338L236,339L236,340L236,341L236,342L235,342L235,343L235,344L235,345L234,345L234,346L234,347L234,348L233,349L233,350L233,351L232,351L232,352L232,353L231,353L231,354L230,355L230,356L229,357L229,358L228,358L228,359L227,359L227,360L226,360L226,361L225,361L225,362L224,362L223,363L222,364L221,364L221,365L220,365L219,366L218,366L217,367L216,367L215,367L215,368L214,368L213,368L212,369L211,369L210,369L209,370L208,370L207,370L206,370L205,370L204,371L203,371L202,371L201,371L200,371L200,372L199,372L198,372L197,372L196,372L195,372L194,372L193,372L192,372L191,372L190,372L189,372L188,372L187,372L186,372L185,372L184,372L183,372L181,372L180,372L179,372L178,372L177,372L176,372L175,372L173,371L172,371L171,370L170,369L168,368L167,368L166,367L165,367L164,366L163,366L162,365L161,364L160,363L159,362L158,362L157,361L156,361L155,360L154,360L153,359L152,359L152,358L151,358L150,358L149,357L148,357L147,356L145,354L143,354L142,353L141,353L140,352L139,352L138,351L137,351L136,350L135,349L133,348L132,347L131,346L129,345L128,345L128,344L127,343L126,343L125,342L124,342L123,341L122,341L122,340L121,340L120,340L119,339L118,338L117,338L116,337L115,337L114,336L113,336L112,335L111,335L110,335L109,335L109,334L108,334L107,333L106,333L104,332L103,332L102,331L101,331L100,330L99,330L98,329L97,328L96,328L95,327L94,327L93,326L92,326L92,325L91,325L90,325L90,324L89,324L88,324L88,323L87,323L86,322L85,322L83,321L82,320L81,320L80,320L80,319L79,319L78,319L77,319L77,318L76,318L75,317L74,316L73,316L72,316L72,315L71,315L71,314L70,314L69,314L69,313L68,313L68,312L67,312L67,311L66,311L65,310L64,309L64,308L63,308L63,307L62,307L62,306L62,305L61,305L61,304L60,303L60,302L59,301L59,300L59,299L58,298L58,296L57,295L57,294L57,293L57,292L57,291L56,291L56,290L56,289L56,288L56,287L56,286L56,285L56,284L56,283L56,281L56,280L56,278L56,277L56,276L56,275L56,274L56,272L56,271L56,270L56,268L56,267L56,266L56,265L56,264L56,263L56,262L57,261L57,260L57,259L58,258L58,256L58,255L59,254L59,253L59,252L59,251L59,250L60,248L60,247L60,246L60,245L60,244L61,243L61,242L61,241L61,240L61,239L62,238L62,237L62,236L63,235L63,234L63,233L63,232L63,231L63,230L64,229L64,228L64,227L64,226L64,225L64,223L65,222L65,221L65,220L65,218L66,217L66,214L67,213L67,211L67,210L68,209L68,208L68,206L69,205L69,204L69,203L70,201L70,200L70,199L70,197L70,196L70,195L71,194L71,192L71,191L71,189L71,188L71,186L72,185L72,183L72,182L73,181L73,179L73,177L74,176L74,174L75,173L75,172L76,171L76,169L77,168L78,166L78,165L79,163L80,162L80,161L81,160L81,159L82,159L82,158L83,157L83,156L83,155L84,155L84,154L85,153L85,152L86,152L86,151L87,150L87,149L88,149L88,148L89,148L89,147L90,146L91,145L91,144L92,144L92,143L93,143L93,142L94,142L94,141L95,141L95,140L96,140L97,139L98,139L98,138L99,138L99,137L100,137L101,137L102,136L103,136L103,135L104,135L105,135L105,134L106,134L107,134L108,133L109,133L110,133L111,132L112,132L113,132L114,132L115,131L116,131L117,131L118,131L119,130L120,130L121,130L122,130L123,130L124,130L125,130L126,130L127,130L128,130L128,129L129,129L130,129L131,129L132,129L133,129L134,129L135,129L136,129L137,129L138,129L139,129L140,129L141,129L142,129L143,129L144,129L145,129L146,129L147,129L148,129L149,129L150,129L151,129L152,129L153,129L154,129L155,129L156,129L157,129L158,129L159,129L160,129L161,129L162,129L163,129L164,129L165,129L166,129L167,129L168,129L169,129L170,129L171,129L172,129L173,129L175,129L176,129L177,129L178,129L179,129L180,129L181,129L182,129L183,129L184,130L185,130L186,130L187,130L188,130L189,130L190,130L191,130L192,130L193,130L194,131L195,131L196,131L197,131L198,131L199,132L200,132L201,132L202,132L203,132L204,133L205,133L206,133L207,134L208,134L209,134L210,135L211,135L212,135L212,136L213,136L214,136L215,137L216,137L217,138L218,139L219,139L219,140L220,140L221,141L222,142L223,142L223,143L224,144L225,145L225,146L226,146L226,147L227,147L227,148L228,148L228,149L229,150L229,151L229,152L230,152L230,153L231,153L231,154L232,155L232,156L233,157L233,158L234,158L234,159L235,160L235,161L236,162L237,163L237,164L238,165L239,166L240,167L241,168L241,169L242,170L242,171L243,171L243,172L243,173L244,174L245,175L245,176L245,177L246,177L246,178L247,179L247,180L248,181L249,182L249,183L250,183L250,184L250,185L251,185L251,186L251,187L252,187L252,188L252,189L253,190L253,191L253,192L254,192L254,193L254,194L255,194L255,195L255,196L256,196L256,197L256,198L257,198L257,199L257,200L258,200L258,201L259,202L259,203L259,204L260,204L260,205L261,206L261,207L262,207L262,208L262,209L263,210L263,211L264,211L264,212L264,213L265,213L265,214L265,215L265,216L266,217L266,218L266,219L266,220L266,221L266,222L266,223L266,224L267,224L267,225L267,226L267,227L267,228L267,229L267,230L267,231L267,232L267,233L267,234L267,235L267,236L267,237L267,238L267,239L267,240L266,241L266,242L266,243L265,244L265,245L265,246L264,246L264,247L264,248L263,248L263,249L263,250L262,251L261,252L261,253L260,254L260,255L259,256L258,257L257,258L257,259L256,260L255,261L255,262L254,262L253,263L253,264L252,264L251,265L251,266L250,266L249,267L248,268L248,269L247,269L246,270L245,271L244,272L243,272L243,273L242,274L241,274L240,275L239,276L239,277L237,277L237,278L236,279L235,280L234,281L233,282L232,283L231,284L230,285L230,286L229,287L228,287L227,288L227,289L226,289L226,290L225,291L224,292L223,293L223,294L222,294L221,295L220,295L220,296L219,297L218,297L217,298L216,299L215,300L214,301L213,302L212,302L211,303L211,304L210,304L209,305L208,306L207,306L206,307L205,308L204,308L203,309L202,310L201,310L201,311L200,312L199,313L198,313L197,314L197,315L196,316L195,317L194,318L194,319L193,320L192,321L191,321L190,322L190,323L189,323L188,324L188,325L187,325L186,326L185,326L185,327L184,327L183,328L182,329L181,329L180,330L179,331L178,331L177,332L176,332L176,333L174,334L173,335L172,335L171,336L170,337L169,337L169,338L168,338L167,339L166,340L165,341L164,342L163,342L163,343L162,344L161,345L160,345L159,346L158,347L158,348L157,348L156,349L155,349L155,350L154,350L153,351L152,351L152,352L151,352L150,353L149,353L148,354L147,354L146,355L145,357L143,357L142,358L141,359L139,360L138,360L137,361L137,362L136,362L135,363L134,363L133,364L132,365L131,366L130,366L130,367L129,367L128,368L128,369L127,369L127,370L126,370L125,371L124,372L123,373L122,374L121,374L121,375L120,375L120,376L119,376L118,377L117,378L116,379L115,379L115,380L114,380L113,381L112,381L112,382L111,382L110,383L109,383L108,384L107,384L107,385L106,385L105,386L104,386L104,387L103,387L102,387L101,388L100,388L99,388L99,389L98,389L97,389L96,390L95,390L94,390L93,390L93,391L92,391L91,391L90,391L89,391L88,391L87,391L86,391L85,391L84,391L83,391L82,391L81,391L80,391L79,391L78,391L77,391L76,391L75,391L74,391L74,390L73,390L72,389L71,389L70,388L69,387L68,386L67,386L67,385L66,385L65,384L64,383L64,382L63,382L63,381L63,380L62,380L62,379L62,378L61,377L61,376L60,375L60,374L60,373L60,372L60,371L60,370L60,369L60,368L60,367L59,367L59,366L59,365L59,364L59,363L59,362L59,361L59,360L59,359L59,358L58,356L58,355L58,354L58,353L57,352L57,351L57,350L57,349L56,348L56,347L56,346L56,345L55,344L55,343L55,342L55,341L54,341L54,340L54,339L53,338L53,337L53,336L52,335L52,334L52,333L51,332L51,331L51,330L50,329L50,328L49,327L49,326L49,325L48,324L47,323L46,321L46,320L46,319L45,318L45,317L44,316L44,315L44,314L43,313L43,312L43,311L42,310L42,309L42,308L41,307L41,306L41,305L40,304L40,303L39,302L39,301L39,300L38,300L38,299L38,298L37,297L37,296L37,295L36,294L36,293L35,292L35,291L35,290L34,289L34,288L33,287L33,286L33,285L32,285L32,284L32,283L32,282L31,281L31,280L30,279L30,278L30,277L30,276L29,276L29,275L29,274L28,273L28,272L28,271L28,270L28,269L28,268L27,267L27,266L27,265L27,264L27,263L27,262L27,261L27,260L27,259L27,258L27,257L27,256L27,255L27,254L27,253L27,252L27,251L27,250L27,249L28,248L29,247L29,246L30,246L30,245L31,245L31,244L32,244L33,243L34,242L35,241L35,240L36,240L36,239L37,239L38,238L39,238L40,237L41,237L41,236L42,236L43,236L44,235L45,235L46,235L46,234L47,234L48,234L49,234L50,233L51,233L52,233L53,232L54,232L55,232L56,231L57,231L58,231L59,230L60,230L61,230L63,229L64,229L66,229L67,228L68,228L70,228L72,228L73,228L75,228L77,228L78,228L80,228L82,228L83,228L85,228L86,227L87,227L88,227L90,227L91,227L92,227L93,227L94,227L95,227L96,227L97,227L98,227L99,227L100,227L101,227L103,227L104,227L105,227L106,227L108,227L109,227L110,227L111,227L113,227L114,227L115,227L116,227L117,227L118,227L120,227L121,227L123,227L124,227L125,227L126,227L127,227L128,227L129,227L130,227L131,227L132,227L133,227L134,228L135,228L137,228L139,229L140,229L141,229L143,229L144,229L145,230L147,230L148,230L149,230L151,231L152,231L153,231L154,231L155,231L156,231L157,232L158,232L159,232L160,233L161,233L162,233L163,233L164,234L165,234L166,234L167,234L168,234L169,235L170,235L171,235L173,235L175,235L176,236L177,236L179,237L181,237L182,237L183,238L185,238L186,238L187,238L188,239L190,239L191,239L192,240L193,240L194,240L195,241L196,241L197,241L198,242L200,242L201,243L202,243L203,243L204,244L206,244L207,244L209,244L210,245L211,245L213,245L214,246L216,246L217,246L218,246L219,247L220,247L221,247L222,248L223,248L224,248L225,248L226,249L227,249L228,249L229,249L229,250L230,250L231,250L232,250L232,251L233,251L234,251L235,252L236,252L237,252L239,253L240,253L241,253L242,254L243,254L244,254L245,254L245,255L246,255L247,255L248,256L249,256L250,256L251,256L252,257L253,257L254,258L255,258L256,258L257,259L258,259L259,259L260,260L261,260L261,261L262,261L263,261L263,262L264,262L265,263L266,263L267,264L268,264L268,265L269,265L270,265L271,265L271,266L272,266L273,266L273,267L274,267L275,267L275,268L276,268L276,269L277,269L278,270L279,270L279,271L280,271L280,272L281,272L282,273L282,274L283,274L284,275L284,276L285,276L285,277L286,277L286,278L286,279L287,280L287,281L288,281L288,282L288,283L289,283L289,284L289,285L290,285L290,286L290,287L290,288L290,289L291,290L291,291L291,292L292,293L292,294L292,295L292,296L293,297L293,298L293,299L293,300L293,301L293,302L293,303L293,304L293,305L293,306L293,307L293,308L293,309L293,310L293,311L293,312L293,313L293,314L293,315L293,316L293,317L293,318L293,319L293,320L293,321L293,322L293,323L293,324L292,325L292,326L291,327L291,328L290,329L290,330L289,331L289,332L288,333L287,334L287,335L286,335L286,336L285,337L284,338L284,339L283,339L283,340L282,341L281,342L281,343L280,343L280,344L279,345L279,346L278,346L277,347L277,348L276,349L275,350L274,351L274,352L273,352L272,353L272,354L271,355L270,357L269,358L268,358L268,359L267,360L267,361L266,362L265,363L264,364L264,365L263,366L262,367L262,368L261,369L260,370L260,371L259,372L259,373L258,374L257,375L257,376L256,376L256,377L255,378L254,379L254,380L253,381L253,382L252,383L251,384L250,385L250,386L249,386L248,388L247,388L247,389L246,390L245,391L244,392L243,393L242,394L241,395L240,396L240,397L239,398L237,399L236,401L235,402L234,404L233,404L232,405L232,406L231,407L230,408L229,409L229,410L228,410L227,411L227,412L226,412L226,413L225,413L225,414L224,415L223,416L222,417L221,417L221,418L220,418L220,419L219,419L218,420L218,421L217,421L217,422L216,422L215,423L214,424L213,424L213,425L212,425L211,426L210,427L209,427L208,428L207,429L206,429L205,430L204,431L203,431L202,432L201,432L201,433L200,434L199,434L199,435L198,435L198,436L197,436L197,437L196,437L195,437L194,438L193,438L192,438L191,438L190,439L189,439L188,439L187,439L186,440L185,440L184,440L183,440L182,440L181,440L180,440L179,440L178,440L177,440L176,440L175,440L173,440L172,440L171,440L170,440L169,440L168,440L167,440L166,440L165,440L164,440L163,440L162,440L161,440L160,440L159,440L158,440L158,439L157,439L156,438L155,437L154,436L154,435L153,435L153,434L152,434L152,433L152,432L151,432L151,431L150,430L150,429L149,429L149,428L148,427L148,426L147,426L147,425L146,424L146,423L145,423L145,422L145,421L144,420L143,419L143,418L142,417L141,416L141,415L140,414L140,413L140,412L139,412L139,411L139,410L138,409L138,408L137,407L137,406L137,405L136,405L136,404L135,403L135,402L135,401L134,400L134,399L133,399L133,398L133,397L133,396L132,395L132,394L132,393L131,392L131,391L130,390L130,389L130,388L130,387L129,385L129,384L129,383L128,382L128,381L128,380L127,378L127,377L127,376L127,375L127,374L126,373L126,372L126,371L126,370L125,370L125,369L125,368L124,367L124,366L124,364L123,363L123,362L123,361L122,360L122,359L122,358L121,356L121,355L120,353L120,352L119,351L119,349L119,348L118,347L118,345L117,344L117,343L117,342L116,341L116,339L116,338L115,337L115,336L115,335L114,334L114,333L113,331L113,330L112,328L112,327L111,326L110,324L110,323L109,322L109,321L109,319L108,318L108,317L107,315L107,314L106,313L106,312L106,310L105,309L105,308L105,307L104,305L104,304L104,302L103,301L103,300L103,298L102,297L102,296L101,294L101,293L101,292L101,290L100,289L100,288L100,287L99,285L99,284L99,283L99,282L98,281L98,280L98,279L97,278L97,277L97,276L97,275L96,273L96,272L96,271L95,269L95,268L95,266L94,264L94,263L93,262L93,260L93,259L93,258L93,257L92,256L92,255L92,253L92,252L91,251L91,250L91,249L90,247L90,246L90,245L90,243L89,242L89,240L89,238L88,237L87,231L87,229L87,227L87,226L86,224L86,223L86,222L85,221L85,219L85,218L84,217L84,216L84,215L83,213L83,212L82,211L82,210L81,208L81,207L81,205L80,204L80,203L79,201L78,200L78,198L77,197L77,196L77,194L76,193L76,192L76,191L75,190L75,189L75,188L75,187L74,185L74,184L73,183L73,182L73,180L72,179L72,178L72,177L71,176L71,175L71,173L70,172L70,171L69,170L69,169L69,168L68,167L68,166L68,165L68,164L67,163L67,161L67,160L67,159L66,158L66,157L66,156L65,155L65,154L65,152L65,151L65,150L65,149L64,148L64,146L64,145L64,144L64,143L64,142L64,141L64,140L64,139L64,138L64,137L64,136L64,135L64,134L64,133L64,132L64,131L64,130L64,129L64,128L64,127L64,126L64,124L64,123L64,122L64,121L64,120L64,119L64,118L64,117L64,116L64,115L65,115L65,114L65,113L66,112L66,111L66,110L67,110L67,109L67,108L68,107L68,106L69,106L69,105L70,105L70,104L71,103L71,102L72,102L72,101L73,101L73,100L74,100L74,99L75,98L76,97L77,96L77,95L78,94L79,93L80,92L81,91L81,90L82,90L82,89L83,88L83,87L84,86L84,85L85,84L85,83L86,82L86,81L87,81L87,80L88,79L88,78L89,78L89,77L90,77L90,76L90,75L91,75L91,74L92,74L92,73L92,72L93,72L93,71L94,70L95,69L95,68L96,68L96,67L97,66L98,65L99,65L100,63L101,62L102,61L103,60L104,59L105,58L106,57L107,56L108,56L108,55L109,54L110,53L111,53L112,52L113,51L114,51L114,50L115,50L115,49L116,49L117,48L117,47L118,47L119,46L120,45L121,44L122,43L123,42L124,41L125,41L125,40L126,40L127,39L128,39L129,38L130,38L131,38L132,37L133,36L134,36L135,36L137,35L138,35L139,35L140,35L141,35L142,34L143,34L144,34L145,34L146,33L147,33L148,33L149,33L150,33L151,33L152,33L153,33L154,33L155,33L156,33L157,33L158,33L159,33L160,33L161,33L162,33L163,33L164,33L164,34L165,34L166,35L167,35L168,36L169,36L169,37L170,37L171,38L171,39L172,39L172,40L173,40L174,41L175,41L175,42L176,42L176,43L177,43L177,44L178,44L178,45L179,45L179,46L180,46L181,48L181,49L182,49L182,50L183,51L183,52L184,52L184,53L185,54L185,55L186,55L186,56L187,57L187,58L188,58L188,59L188,60L189,61L189,62L190,62L190,63L190,64L191,64L191,65L192,66L192,67L192,68L193,68L193,69L194,69L194,70L195,71L195,72L196,72L196,73L196,74L197,74L197,75L198,75L198,76L199,77L199,78L200,79L201,80L202,81L202,82L203,82L203,83L204,84L204,85L205,85L205,86L205,87L206,87L206,88L207,89L208,89L208,90L208,91L209,91L209,92L210,93L210,94L211,95L211,96L212,96L212,97L213,98L213,99L214,99L214,100L215,101L215,102L216,102L216,103L217,104L217,105L218,106L218,107L219,107L219,108L220,109L220,110L221,110L221,111L222,112L222,113L223,113L223,114L224,115L224,116L225,117L225,118L226,119L227,120L227,121L228,122L228,123L229,124L229,126L230,126L230,127L231,129L232,130L232,131L233,132L234,133L234,134L234,135L235,136L236,137L236,138L237,140L238,141L239,142L239,143L240,143L240,144L241,145L242,146L242,147L243,148L243,149L244,149L245,151L245,152L246,153L246,154L247,154L248,155L248,156L249,157L250,158L250,159L251,159L251,160L252,161L252,162L253,162L253,163L253,164L254,165L254,166L255,166L255,167L255,168L256,168L256,169L257,170L257,171L257,172L258,172L258,173L258,174L259,174L259,175L259,176L259,177L260,178L260,179L260,180L260,181L260,182L260,183L260,184L261,185L261,186L261,187L261,188L261,189L261,190L261,191L261,192L261,193L261,194L261,195L261,196L261,197L261,198L261,199L261,200L261,201L261,203L261,204L261,205L261,206L261,207L261,208L261,209L261,210L261,211L261,213L260,214L260,215L260,216L259,217L259,218L259,219L259,220L258,221L258,222L257,223L257,224L257,226L257,227L256,227L256,228L255,229L255,231L255,232L254,232L254,233L254,234L253,236L252,237L252,238L251,239L251,240L250,242L250,243L249,244L249,245L248,246L248,247L247,247L246,248L246,249L245,251L244,252L244,253L243,254L243,255L242,257L241,258L241,259L240,260L239,260L238,262L237,264L236,266L235,267L235,268L234,269L234,270L233,272L232,273L232,274L231,275L231,276L230,278L230,279L229,280L229,281L227,283L227,284L226,285L226,286L225,287L224,290L224,291L223,292L222,294L221,295L220,296L220,297L218,299L218,300L217,301L217,302L215,303L215,304L214,305L213,306L212,308L211,309L211,310L210,310L209,312L209,313L208,314L207,316L205,317L205,319L204,320L203,323L202,324L201,325L200,328L199,329L199,330L198,331L197,334L196,335L195,336L195,338L194,339L192,343L190,345L188,349L187,350L186,351L185,353L184,354L182,357L182,358L181,359L179,361L178,363L177,364L176,366L173,369L172,371L171,372L170,374L168,378L168,379L167,381L165,385L164,386L163,388L162,389L161,392L160,394L159,395L158,398L157,400L156,401L154,404L153,406L151,409L150,411L149,412L149,413L147,415L146,416L145,417L144,418L142,420L141,421L140,421L139,423L138,424L137,425L136,426L134,427L134,428L133,429L131,431L131,432L130,432L129,434L128,435L127,436L126,437L125,438L125,439L124,440L123,441L122,442L121,443L120,443L119,444L118,445L117,445L115,446L114,447L113,447L111,447L109,447L108,447L107,447L104,447L103,447L102,447L100,447L99,447L98,447L95,447L94,447L93,447L92,447L90,446L88,444L87,443L86,442L85,441L84,440L83,439L82,437L81,437L80,436L79,435L78,434L77,434L76,432L75,432L74,431L73,430L72,429L71,428L70,427L69,425L68,424L66,422L65,422L64,420L63,419L62,418L61,417L61,416L59,414L58,414L58,413L56,411L55,410L54,409L53,408L53,407L52,406L51,405L51,404L50,404L50,403L49,402L49,401L48,401L47,400L47,399L46,399L46,397L46,396L45,394L45,391L45,389L45,388L45,386L44,385L44,384L44,383L44,381L44,380L44,378L44,377L44,376L44,374L45,372L45,371L46,370L47,367L47,366L49,363L50,362L51,361L53,358L55,357L56,355L58,353L59,352L61,351L62,350L64,348L66,347L68,345L70,345L71,344L74,342L75,341L76,340L79,339L82,338L83,337L84,336L86,335L88,334L89,333L91,332L92,331L94,329L95,329L97,328L98,328L100,326L101,326L102,325L104,324L106,323L108,322L110,321L111,320L112,320L115,319L117,316L119,316L120,315L122,314L123,313L124,312L126,311L127,310L128,309L131,308L132,307L134,307L137,305L138,304L141,303L144,302L146,301L150,300L151,299L153,298L156,297L158,296L159,295L162,293L163,293L166,291L168,290L170,289L173,288L175,287L177,286L181,285L184,284L185,283L188,282L189,281L190,280L192,278L194,278L195,277L198,275L199,275L202,274L203,273L205,273L208,272L210,271L211,271L214,270L215,269L218,268L219,268L221,267L223,266L224,265L226,264L227,263L228,262L231,261L232,260L235,259L236,259L237,258L240,257L241,257L243,256L244,256L244,255L246,255L246,254L248,253L249,253L250,253L252,252L252,251L253,251L255,250L256,249L258,249L258,248L259,248L261,247L262,247L263,247L264,247L265,246L266,246L267,246L268,246L269,246L270,246L271,246L272,246L273,246L274,246L275,246L276,246L277,246L279,246L280,246L281,246L283,246L284,246L285,246L286,247L286,248L287,248L288,249L289,250L290,251L290,252L291,252L292,253L292,254L293,255L294,255L294,256L295,257L295,258L295,259L296,260L296,262L296,263L297,264L297,266L297,267L297,269L297,271L297,272L297,274L297,275L297,276L297,277L297,278L297,280L297,281L297,282L297,283L297,284L297,285L297,287L297,289L297,290L297,291L297,293L297,294L297,296L297,297L297,298L297,299L297,300L297,301L297,302L297,304L297,305L297,306L297,308L297,309L297,312L297,313L297,315L297,318L297,320L297,322L297,324L297,327L296,328L296,329L295,331L295,332L294,335L294,336L294,337L293,340L292,343L291,346L291,347L290,350L290,351L289,353L288,355L288,356L287,359L287,360L286,361L285,363L284,366L283,367L283,369L282,371L281,373L281,374L280,377L279,378L278,381L278,382L277,384L277,385L276,388L275,389L275,390L274,392L274,394L273,396L273,397L272,399L271,400L271,401L270,403L270,404L269,405L269,406L268,408L268,409L267,409L267,411L266,412L266,414L265,414L265,415L264,417L264,418L264,419L263,420L263,421L262,422L262,423L261,424L260,425L259,426L259,427L258,428L257,428L256,429L256,430L254,430L253,431L252,431L251,431L250,431L248,431L247,431L246,432L244,432L243,432L240,432L239,432L236,432L234,432L231,432L230,431L228,431L225,429L224,429L221,427L217,426L216,425L213,424L211,424L209,422L207,422L204,420L203,419L200,417L199,416L198,415L197,413L196,413L194,411L193,410L192,408L191,407L190,406L188,403L186,400L184,399L183,397L180,394L179,392L176,389L175,388L172,385L171,383L170,382L167,379L166,377L164,374L163,373L161,370L160,368L158,365L157,363L154,359L152,357L149,353L148,351L145,347L143,346L140,342L139,340L136,336L134,334L132,330L131,328L128,325L126,321L124,318L121,313L120,311L117,307L115,305L114,303L110,299L109,297L105,293L104,291L101,287L98,283L97,281L96,280L94,276L93,274L91,271L90,269L87,266L86,264L84,260L82,258L79,255L78,253L75,249L73,247L70,243L69,240L67,237L66,236L64,232L63,230L61,226L60,225L59,222L58,220L56,217L55,215L54,214L52,210L52,209L50,206L49,205L47,202L45,199L44,197L42,194L41,193L40,191L39,189L39,188L38,186L37,185L36,183L35,180L34,179L34,177L34,176L33,175L33,174L33,172L33,171L33,170L33,168L33,165L33,164L33,161L33,160L33,158L33,157L35,155L36,153L37,151L38,151L40,149L40,148L42,146L43,146L45,144L46,143L48,142L49,141L52,140L53,139L54,137L56,136L57,135L58,134L60,133L61,132L63,131L64,130L65,130L67,128L69,128L71,127L73,126L75,126L77,125L78,124L80,123L82,123L84,122L85,121L87,120L89,120L91,119L93,118L95,117L97,116L99,115L100,115L103,114L104,114L107,112L109,112L112,111L115,109L117,109L119,107L120,107L122,106L123,105L126,104L127,104L129,103L132,102L134,101L138,100L141,99L146,98L148,97L152,96L154,95L159,94L164,93L173,91L176,91L183,90L186,89L192,88L194,87L200,85L203,84L211,83L214,82L221,80L229,78L232,77L236,76L249,73L263,69L286,64L298,62L305,61" stroke-opacity="1" stroke-width="2" stroke-linecap="round" stroke-linejoin="round" style="-webkit-tap-highlight-color: rgba(0, 0, 0, 0); stroke-opacity: 1; stroke-linecap: round; stroke-linejoin: round; -webkit-user-select: text;"></path></svg>