<svg height="770" version="1.1" width="1347" xmlns="http://www.w3.org/2000/svg" xmlns:xlink="http://www.w3.org/1999/xlink" style="overflow: hidden; position: relative; user-select: text;"><desc style="-webkit-tap-highlight-color: rgba(0, 0, 0, 0); user-select: text;">Created with Raphaël 2.2.0</desc><defs style="-webkit-tap-highlight-color: rgba(0, 0, 0, 0); user-select: text;"></defs><path fill="none" stroke="#ff0000" d="M368,309L368,310L366,310L364,307L349,294L340,283L337,280L331,266L331,259L331,253L331,240L331,231L331,221L333,212L338,201L343,193L350,186L360,177L368,173L376,170L382,169L388,169L395,169L401,169L409,173L417,179L425,193L433,208L438,228L448,259L450,268L454,289L454,310L454,330L454,333L446,360L438,373L431,383L425,393L418,401L412,408L406,416L402,421L398,424L395,427L393,430L392,432L391,433L391,434L390,434L385,432L373,424L370,422L361,417L352,411L345,407L338,404L329,400L323,398L319,395L314,394L312,393L304,391L299,389L294,387L286,383L284,381L281,377L277,371L275,364L272,356L269,346L267,336L264,325L262,314L260,305L259,296L257,282L257,274L256,265L256,253L256,241L264,215L274,195L293,160L299,150L311,133L315,126L318,123L319,121L322,119L326,116L330,115L334,112L341,109L352,106L363,104L377,104L390,104L404,105L418,112L437,130L444,138L459,154L470,166L484,181L493,190L505,202L519,218L526,225L552,257L575,284L596,308L602,316L627,348L639,365L651,385L667,405L676,415L683,422L698,436L708,444L712,447L721,450L728,450L732,450L734,450L737,444L737,430L737,424L729,403L725,396L715,376L708,363L702,353L699,348L694,341L688,333L687,332L678,325L676,323L656,315L647,312L636,311L629,311L620,311L602,322L593,332L586,339L574,358L571,363L558,387L554,398L548,413L544,420L536,437L531,446L524,461L514,474L500,488L472,498L447,501L395,499L374,491L350,481L333,473L321,466L313,462L299,455L286,444L283,437L282,431L282,427L284,422L295,419L317,419L333,425L340,431L347,439L350,465L346,484L336,498L321,510L297,521L286,523L273,525L253,525L235,523L221,510L213,475L212,456L209,392L207,371L206,339L206,325L206,324L208,314L208,312L208,312" stroke-opacity="1" stroke-width="5" stroke-linecap="round" stroke-linejoin="round" style="-webkit-tap-highlight-color: rgba(0, 0, 0, 0); stroke-opacity: 1; stroke-linecap: round; stroke-linejoin: round; user-select: text;"></path><path fill="none" stroke="#4124ff" d="M668,236L667,236L664,236L642,229L634,225L621,220L614,216L610,212L609,209L608,206L607,202L607,195L612,186L624,174L639,164L657,158L678,155L708,155L719,158L730,166L737,173L740,176L743,185L744,190L744,195L744,198L742,203L739,209L736,214L733,221L730,229L729,233L727,247L726,257L726,265L726,272L726,276L729,282L739,292L755,300L765,304L777,306L787,307L792,307L802,307L806,307L810,305L811,305L812,304L812,306L812,311L809,327L808,350L807,377L807,402L807,417L808,433L811,446L815,459L817,466L818,471L818,473L818,482L818,485L819,488L829,494L833,496L853,502L858,502L867,505L868,505L862,512L857,514L823,525L811,528L764,534L751,536L737,539L734,540L724,545L719,547L717,549L714,549L712,549L704,541L695,530L677,519L670,516L654,513L629,512L615,512L610,512L603,512L602,512L601,512L600,512L599,512L599,511L598,511L598,510L598,508L595,490L595,474L595,461L594,444L593,442L593,440L592,440L586,445L582,452L570,471L557,487L537,510L529,516L521,522L513,527L485,538L439,552L382,567L359,573L327,581L306,586L296,588L277,592L273,594L269,595L265,596L265,593L258,593L243,593L187,584L147,570L128,559L111,543L95,506L88,479L77,398L73,367L68,329L64,306L64,301L64,294L64,293L69,288L81,277L104,258L116,247L131,235L134,234L154,241L163,250L174,264L176,267L178,268L178,266L178,265L178,263L186,263L192,269L196,275L206,291L223,309L246,327L257,335L260,341L260,359L257,370L254,391L254,393L254,395L254,392L251,373L232,325L224,307L213,270L211,242L216,202L221,163L221,150L221,122L234,101L260,91L275,88L276,88L276,88" stroke-opacity="1" stroke-width="5" stroke-linecap="round" stroke-linejoin="round" style="-webkit-tap-highlight-color: rgba(0, 0, 0, 0); stroke-opacity: 1; stroke-linecap: round; stroke-linejoin: round; user-select: text;"></path><path fill="none" stroke="#4124ff" d="M705,209L705,209" stroke-opacity="1" stroke-width="5" stroke-linecap="round" stroke-linejoin="round" style="-webkit-tap-highlight-color: rgba(0, 0, 0, 0); stroke-opacity: 1; stroke-linecap: round; stroke-linejoin: round; user-select: text;"></path><path fill="none" stroke="#4124ff" d="M665,198L665,197L669,197L673,198L677,201L682,205L685,208L688,211L689,214L692,216L693,217L693,219L693,220L693,221L694,221L694,222L694,224L694,226L693,229L691,233L690,234L687,238L685,241L683,243L682,245L680,247L679,248L678,250L677,252L677,253L676,254L675,255L675,256L673,256L671,258L669,259L666,260L663,261L657,263L655,263L652,263L650,263L648,263L645,263L643,263L640,263L637,263L634,263L632,262L628,261L625,261L622,260L619,260L617,260L615,259L613,259L611,258L610,257L609,256L607,254L605,250L603,247L600,243L597,238L596,236L592,229L588,224L584,219L580,214L577,212L571,205L567,202L565,198L564,194L563,191L563,184L563,175L564,168L568,156L572,147L575,139L577,132L579,127L579,124L579,122L579,121L579,120L579,119L582,119L584,119L595,119L607,120L619,120L623,120L628,120L631,120L635,120L638,119L644,116L651,116L662,114L671,114L682,114L692,114L698,114L703,114L708,114L717,115L725,117L733,119L741,122L745,123L748,125L751,126L755,128L761,130L764,133L768,136L773,140L775,142L779,147L779,149L784,157L785,160L788,178L788,184L788,201L788,207L788,212L788,215L786,216L785,218L785,219L783,221L781,223L777,228L776,232L776,237L776,244L782,253L794,263L806,270L817,272L827,275L841,279L852,283L857,286L864,291L865,292L870,299L872,304L875,311L878,320L880,325L880,336L880,346L876,357L868,377L860,396L858,404L854,419L854,428L854,435L857,442L860,444L867,449L871,451L872,451L874,451L889,461L904,473L916,483L920,487L925,494L925,501L922,513L906,541L890,563L879,575L871,581L848,590L830,594L825,594L777,595L752,598L719,602L686,608L679,611L654,616L644,619L634,619L629,619L626,619L621,609L614,599L598,585L587,578L556,567L546,564L540,564L539,564L541,564L549,566L550,585L527,630L497,665L478,674L459,680L454,680L451,680L447,680L430,678L392,678L365,678L346,678L260,698L256,699L243,702L242,702L241,702L228,702L210,702L176,697L151,691L134,687L121,680L85,652L69,635L61,614L61,612L61,611L61,609L51,571L46,555L43,537L43,533L43,532L43,517L43,500L43,465L44,422L47,365L53,308L59,272L59,264L59,258L54,248L52,240L52,210L53,203L57,174L58,166L59,166L65,166L94,166L105,166L113,166L116,166L122,164L142,162L154,162L161,168L164,175L167,183L167,193L167,208L167,220L177,232L182,234L189,235L189,227L189,217L187,206L183,177L182,164L182,154L182,145L182,141L182,136L182,135L182,132L182,131L182,126L184,116L192,94L200,67L203,60L206,57L210,54L218,50L227,44L231,42L241,42L247,49L251,54L257,57L270,63L281,64L285,64L291,68L293,71L295,75L296,78L297,84L297,88L297,91L297,94L297,99L292,106L288,111L285,116L284,117L283,117L278,123L274,130L270,137L267,142L264,148L266,147L284,133L298,122L309,113L310,112L313,109L322,103L334,95L356,86L375,80L390,76L399,76L418,83L426,88L438,96L453,101L461,105L469,109L476,114L483,120L495,128L502,133L508,137L533,153L544,161L547,164L549,166L549,167L549,168L547,168L545,168L537,162L533,159L531,156L529,153L529,147L531,135L536,130L543,130L543,129L544,121L547,116L549,112L556,107L558,106L574,97L597,88L609,87L639,89L672,93L717,100L744,110L748,112L749,112L749,112" stroke-opacity="1" stroke-width="5" stroke-linecap="round" stroke-linejoin="round" style="-webkit-tap-highlight-color: rgba(0, 0, 0, 0); stroke-opacity: 1; stroke-linecap: round; stroke-linejoin: round; user-select: text;"></path><path fill="none" stroke="#4124ff" d="M1016,413L1016,413" stroke-opacity="1" stroke-width="5" stroke-linecap="round" stroke-linejoin="round" style="-webkit-tap-highlight-color: rgba(0, 0, 0, 0); stroke-opacity: 1; stroke-linecap: round; stroke-linejoin: round; user-select: text;"></path><path fill="none" stroke="#4124ff" d="M984,427L984,425L981,412L981,408L981,403L983,398L992,393L1001,392L1014,391L1025,391L1032,391L1038,391L1041,397L1041,401L1035,422L1029,431L1004,464L991,476L977,487L965,491L958,493L953,493L951,493L951,491L951,490L966,480L987,473L1012,466L1027,465L1039,465L1043,465L1047,465L1046,469L1036,471L1030,471L1024,471L1007,462L995,447L992,441L988,408L988,391L992,381L993,379L995,375L996,374L996,373L996,372L996,370L996,369L996,361L994,348L989,332L982,315L978,303L973,291L970,279L968,274L968,272L967,270L967,269L967,268L966,268L966,268" stroke-opacity="1" stroke-width="5" stroke-linecap="round" stroke-linejoin="round" style="-webkit-tap-highlight-color: rgba(0, 0, 0, 0); stroke-opacity: 1; stroke-linecap: round; stroke-linejoin: round; user-select: text;"></path></svg>