<svg height="654" version="1.1" width="1132" xmlns="http://www.w3.org/2000/svg" xmlns:xlink="http://www.w3.org/1999/xlink" style="overflow: hidden; position: relative; user-select: text;"><desc style="-webkit-tap-highlight-color: rgba(0, 0, 0, 0); user-select: text;">Created with Raphaël 2.2.0</desc><defs style="-webkit-tap-highlight-color: rgba(0, 0, 0, 0); user-select: text;"></defs><path fill="none" stroke="#ff0000" d="M139,108L139,107L139,107L138,105L136,103L134,100L132,96L130,93L129,89L127,86L126,81L125,78L125,75L125,73L125,71L125,70L125,69L125,68L126,68L126,67L127,67L127,66L127,66L128,66L129,66L130,66L132,67L134,68L136,70L138,72L141,75L143,78L145,81L146,84L146,85L147,87L147,89L147,90L146,92L146,92L145,93L144,94L144,94L143,94L143,94L141,94L139,94L137,93L135,92L132,90L129,88L128,87L126,86L125,86L125,85" stroke-opacity="1" stroke-width="5" stroke-linecap="round" stroke-linejoin="round" style="-webkit-tap-highlight-color: rgba(0, 0, 0, 0); stroke-opacity: 1; stroke-linecap: round; stroke-linejoin: round; user-select: text;"></path><path fill="none" stroke="#ff0000" d="M186,98L186,98L187,98L187,96L186,95L184,93L183,90L181,88L178,84L176,81L174,78L173,75L172,73L170,70L170,69L170,67L170,66L170,66L170,65L170,64L170,64L170,63L171,63L171,62L172,62L172,62L173,61L174,61L175,61L177,61L178,61L180,62L181,63L184,65L185,67L187,70L189,73L190,75L190,78L190,80L190,82L190,83L190,85L189,86L188,87L188,88L187,89L186,90L184,91L184,92L182,92L180,92L178,93L176,93L174,93L172,93L171,93L170,93L170,93L169,92" stroke-opacity="1" stroke-width="5" stroke-linecap="round" stroke-linejoin="round" style="-webkit-tap-highlight-color: rgba(0, 0, 0, 0); stroke-opacity: 1; stroke-linecap: round; stroke-linejoin: round; user-select: text;"></path><path fill="none" stroke="#ff0000" d="M225,107L226,107L226,107L227,106L227,106L228,106L229,106L231,106L234,105L237,105L240,105L243,104L246,102L249,101L252,99L256,97L258,95L261,93L263,91L264,89L265,87L266,85L266,83L266,80L266,78L266,76L266,73L266,71L265,69L263,66L261,63L258,61L256,58L253,57L251,56L249,55L247,54L245,54L243,54L241,55L239,56L237,58L235,60L233,63L232,66L232,69L231,72L231,74L231,75L232,76L233,77L233,78L234,79L236,79L238,80L240,81L242,81L245,82L247,82L249,82L250,82L252,82L252,82L253,82" stroke-opacity="1" stroke-width="5" stroke-linecap="round" stroke-linejoin="round" style="-webkit-tap-highlight-color: rgba(0, 0, 0, 0); stroke-opacity: 1; stroke-linecap: round; stroke-linejoin: round; user-select: text;"></path><path fill="none" stroke="#ff0000" d="M329,100L328,101L327,101L325,102L323,102L321,102L319,102L316,102L313,102L311,100L308,99L305,98L304,97L302,96L300,95L298,93L297,92L295,89L293,87L292,85L290,83L288,81L287,80L286,77L285,76L284,74L284,73L284,71L284,69L284,67L284,65L284,63L284,61L285,59L286,58L287,57L288,55L289,54L290,53L291,53L292,52L294,52L295,52L297,52L299,52L300,52L302,52L304,53L305,54L306,55L307,56L308,57L308,59L308,60L308,62L308,65L308,67L306,71L304,75L303,78L301,81L299,83L298,85L297,86L297,86L297,86" stroke-opacity="1" stroke-width="5" stroke-linecap="round" stroke-linejoin="round" style="-webkit-tap-highlight-color: rgba(0, 0, 0, 0); stroke-opacity: 1; stroke-linecap: round; stroke-linejoin: round; user-select: text;"></path><path fill="none" stroke="#ff0000" d="M353,109L353,108L355,108L356,108L358,108L360,108L361,107L362,107L363,107L365,106L367,106L369,104L371,103L373,102L376,100L379,98L381,96L385,93L387,90L389,87L391,84L393,81L393,78L394,76L394,73L394,70L394,67L394,63L393,60L392,57L390,53L388,50L386,48L385,46L384,45L383,44L383,44L382,44L382,44L381,44L379,45L377,47L375,51L373,55L371,61L371,66L370,70L369,75L369,78L369,80L369,82L369,84L370,85L370,87L371,88L372,89L373,90L373,90L373,90L374,91L374,91L374,91L375,91L376,91L377,89L378,88L380,87L381,84L382,83L383,82L383,80L384,79L384,78L384,76L384,75L384,74L384,73L383,72L383,72L383,72L383,72L382,72L382,72" stroke-opacity="1" stroke-width="5" stroke-linecap="round" stroke-linejoin="round" style="-webkit-tap-highlight-color: rgba(0, 0, 0, 0); stroke-opacity: 1; stroke-linecap: round; stroke-linejoin: round; user-select: text;"></path><path fill="none" stroke="#ff0000" d="M412,102L413,102L415,102L417,102L420,102L423,101L427,100L430,100L434,99L438,98L442,97L446,96L449,95L452,94L454,93L457,91L459,90L461,88L463,86L464,84L465,82L465,80L465,77L465,74L465,70L464,66L464,63L462,59L461,57L460,54L458,53L457,51L456,50L455,49L453,49L453,49L452,49L451,49L451,49L450,49L448,51L446,53L444,56L441,59L439,63L437,66L435,70L433,73L432,75L431,78L431,79L431,81L431,82L431,83L431,84L432,85L432,87L433,88L433,89L434,90L434,91L435,92L436,92L436,93L437,93L438,93L438,93L440,93L440,93L442,92L443,91L445,90L447,88L448,86L449,86L450,84L450,83L451,82L451,81L451,80L451,79L451,78L451,78L451,78L451,78L450,77" stroke-opacity="1" stroke-width="5" stroke-linecap="round" stroke-linejoin="round" style="-webkit-tap-highlight-color: rgba(0, 0, 0, 0); stroke-opacity: 1; stroke-linecap: round; stroke-linejoin: round; user-select: text;"></path><path fill="none" stroke="#ff0000" d="M463,104L463,104L464,104L464,104L465,104L465,104L466,105L468,105L469,106L471,107L473,108L476,109L479,110L481,111L485,111L488,112L491,112L494,112L498,112L501,111L504,110L506,109L508,108L509,107L511,105L513,104L515,102L517,101L519,99L522,97L524,95L525,94L527,92L529,90L531,88L532,86L533,85L533,83L534,81L534,79L534,76L534,74L534,72L534,71L534,68L533,67L532,65L531,64L530,62L529,61L528,60L527,60L526,59L526,59L525,58L525,58L524,59L523,60L522,61L521,63L519,65L517,67L516,68L514,71L514,73L513,76L513,78L513,81L513,84L513,88L513,90L514,92L515,94L515,96L516,97L516,97L517,98L517,99L517,99L517,99L517,99L518,99L519,98L519,97L520,96L520,96L520,96L520,95L520,94L520,94L520,94" stroke-opacity="1" stroke-width="5" stroke-linecap="round" stroke-linejoin="round" style="-webkit-tap-highlight-color: rgba(0, 0, 0, 0); stroke-opacity: 1; stroke-linecap: round; stroke-linejoin: round; user-select: text;"></path><path fill="none" stroke="#ff0000" d="M540,111L541,111L543,111L545,111L549,110L554,109L558,109L563,108L568,106L573,104L577,103L580,101L582,99L586,97L589,95L591,93L595,90L598,87L600,84L603,81L606,78L609,74L610,72L612,68L612,66L612,63L612,60L612,57L610,55L609,52L608,51L607,50L606,49L605,49L604,49L604,49L604,49L602,49L601,49L599,49L596,51L594,52L591,55L587,58L584,60L583,63L581,65L580,68L579,70L578,73L577,75L577,77L577,79L577,81L577,82L577,83L577,85L577,86L577,88L578,89L578,90L579,91L579,92L580,93L580,93L580,93L581,93L581,93L582,93L584,92L585,91L586,90L586,90L587,89L587,89L588,89" stroke-opacity="1" stroke-width="5" stroke-linecap="round" stroke-linejoin="round" style="-webkit-tap-highlight-color: rgba(0, 0, 0, 0); stroke-opacity: 1; stroke-linecap: round; stroke-linejoin: round; user-select: text;"></path><path fill="none" stroke="#ff0000" d="M608,115L608,115L609,115L610,115L611,115L613,116L617,118L621,120L626,122L631,123L638,125L645,126L653,126L659,126L664,126L667,126L669,124L670,123L672,121L675,119L676,116L679,113L681,109L683,106L685,102L687,98L688,96L689,94L689,92L689,90L689,87L689,85L688,83L687,81L685,79L684,78L683,77L682,76L682,76L680,76L679,76L677,76L676,76L675,76L672,76L671,77L670,78L668,79L667,81L667,83L666,85L666,88L666,90L666,92L668,94L668,95L669,97L670,98L671,99L672,100L672,100L673,101L673,101L674,101L674,100L675,99L675,98L676,97L676,96L676,94L677,93L677,92L677,91L677,91L677,91" stroke-opacity="1" stroke-width="5" stroke-linecap="round" stroke-linejoin="round" style="-webkit-tap-highlight-color: rgba(0, 0, 0, 0); stroke-opacity: 1; stroke-linecap: round; stroke-linejoin: round; user-select: text;"></path><path fill="none" stroke="#ff0000" d="M714,123L714,123L715,123L716,121L717,120L719,119L720,117L722,115L723,112L725,110L726,107L728,104L729,102L731,99L733,96L734,94L735,91L737,89L738,87L739,85L740,84L740,82L741,80L741,79L741,77L741,77L741,75L741,74L740,73L738,71L738,71L736,70L735,70L735,70L733,70L732,70L731,70L730,71L728,73L727,74L727,75L726,77L726,78L726,79L726,81L726,82L726,83L726,84L726,84L726,85L727,85L727,86L727,86" stroke-opacity="1" stroke-width="5" stroke-linecap="round" stroke-linejoin="round" style="-webkit-tap-highlight-color: rgba(0, 0, 0, 0); stroke-opacity: 1; stroke-linecap: round; stroke-linejoin: round; user-select: text;"></path><path fill="none" stroke="#ff0000" d="M770,129L770,129L771,129L772,129L774,128L776,127L779,126L780,124L783,123L785,121L789,119L792,117L795,114L798,112L802,110L804,109L808,106L809,105L811,103L812,101L813,98L813,96L814,93L814,91L814,88L814,85L814,82L814,80L813,79L812,77L812,76L811,75L810,75L810,74L810,74L810,74L809,74L808,74L807,74L806,75L805,76L804,78L803,79L802,81L801,83L801,84L801,86L801,88L801,89L801,90L801,91L802,91L803,93L804,94L804,94L805,95L805,95L805,95L806,95L806,95L807,94L807,93L807,93L807,92L807,92L807,91" stroke-opacity="1" stroke-width="5" stroke-linecap="round" stroke-linejoin="round" style="-webkit-tap-highlight-color: rgba(0, 0, 0, 0); stroke-opacity: 1; stroke-linecap: round; stroke-linejoin: round; user-select: text;"></path><path fill="none" stroke="#ff0000" d="M859,123L859,123L860,123L861,122L863,119L866,117L868,114L870,111L873,108L876,104L878,101L879,98L880,96L881,93L882,91L883,89L883,87L883,86L883,84L883,82L883,81L883,80L882,79L882,79L881,78L879,77L879,77L877,76L875,76L874,76L871,76L869,76L866,78L864,79L863,82L861,83L858,86L858,87L858,89L858,91L857,93L857,94L857,95L858,95L858,96L858,96L858,96L859,96L860,96L860,95L860,95L861,94L862,94" stroke-opacity="1" stroke-width="5" stroke-linecap="round" stroke-linejoin="round" style="-webkit-tap-highlight-color: rgba(0, 0, 0, 0); stroke-opacity: 1; stroke-linecap: round; stroke-linejoin: round; user-select: text;"></path><path fill="none" stroke="#ff0000" d="M909,115L910,115L911,114L912,113L913,111L915,109L916,107L917,104L918,103L919,101L919,99L920,97L920,95L920,94L921,93L921,91L921,89L921,87L921,86L921,85L921,84L921,84L921,84L920,83L920,84L922,87L925,90L930,94L935,98L938,101L942,105L946,109L948,113L950,116L951,119L952,122L952,124L952,126L952,127L952,128L952,130L951,131L951,132L950,133L949,135L948,135L946,137L946,137L945,138L944,138L943,138L942,138L941,138L940,137L938,135L937,134L936,133L935,131L934,130L933,129L932,127L932,126L932,124L931,122L931,121L931,119L930,117L930,115L930,112L930,110L931,108L932,106L933,103L933,101L934,99L935,98L936,97L936,96L936,96L937,96L938,94L938,93L939,92" stroke-opacity="1" stroke-width="5" stroke-linecap="round" stroke-linejoin="round" style="-webkit-tap-highlight-color: rgba(0, 0, 0, 0); stroke-opacity: 1; stroke-linecap: round; stroke-linejoin: round; user-select: text;"></path><path fill="none" stroke="#ff0000" d="M216,349L215,349L214,346L211,342L209,337L207,334L205,330L203,326L200,322L198,319L196,316L195,314L194,312L194,310L193,308L193,307L193,305L192,304L192,302L192,300L192,298L192,296L193,294L193,292L194,290L195,289L196,288L197,286L199,285L200,283L201,283L202,282L203,281L205,281L206,281L209,281L210,281L212,282L214,283L215,284L217,286L218,289L219,292L220,294L220,297L220,300L220,302L219,304L217,307L216,308L214,310L213,311L212,313L210,314L209,315L207,317L205,319L203,320L201,322L199,324L197,326L195,328L193,330L191,331L191,332L191,332L191,332L191,332L192,331L192,331L192,331" stroke-opacity="1" stroke-width="5" stroke-linecap="round" stroke-linejoin="round" style="-webkit-tap-highlight-color: rgba(0, 0, 0, 0); stroke-opacity: 1; stroke-linecap: round; stroke-linejoin: round; user-select: text;"></path><path fill="none" stroke="#ff0000" d="M298,360L298,359L297,358L296,356L294,352L292,349L289,344L287,339L283,335L281,331L279,327L277,323L276,320L275,318L274,316L273,314L273,312L273,310L273,309L273,308L273,307L273,305L273,304L273,302L274,301L275,299L276,298L277,297L279,296L280,295L283,294L284,294L286,294L287,294L288,295L289,295L290,296L291,297L292,300L293,302L294,304L295,308L296,311L297,314L297,316L297,319L297,321L297,323L296,326L295,327L294,329L292,330L292,332L290,333L289,334L288,335L286,336L284,337L282,338L280,339L278,340L277,341L275,342L275,343L274,343L274,344L273,344L273,344" stroke-opacity="1" stroke-width="5" stroke-linecap="round" stroke-linejoin="round" style="-webkit-tap-highlight-color: rgba(0, 0, 0, 0); stroke-opacity: 1; stroke-linecap: round; stroke-linejoin: round; user-select: text;"></path><path fill="none" stroke="#ff0000" d="M391,358L390,358L388,356L386,353L382,350L379,347L376,345L374,343L372,341L369,338L367,337L366,336L365,335L364,334L363,333L362,332L362,331L361,330L361,328L360,326L360,324L359,321L359,318L358,314L358,311L358,307L358,303L358,299L358,295L359,292L360,289L361,285L362,283L363,282L364,281L365,280L365,280L366,279L366,279L367,279L368,279L369,279L370,279L371,280L372,281L373,283L374,285L375,287L377,290L377,292L378,296L378,300L378,305L378,309L378,315L378,320L377,325L377,328L376,330L376,332L375,333L375,333L375,334L374,335L374,335L373,335L373,336L372,336L371,337L370,337L370,338L368,339L367,339L367,340L365,340L365,341L365,341L364,341L363,342L363,342L362,342L362,342L362,343L362,343L361,343L361,343L361,344L361,344L360,344L360,344L360,345L360,345" stroke-opacity="1" stroke-width="5" stroke-linecap="round" stroke-linejoin="round" style="-webkit-tap-highlight-color: rgba(0, 0, 0, 0); stroke-opacity: 1; stroke-linecap: round; stroke-linejoin: round; user-select: text;"></path><path fill="none" stroke="#ff0000" d="M427,359L427,359L429,358L432,357L435,356L438,354L441,353L445,351L448,348L452,346L454,343L457,340L460,337L462,333L465,329L466,326L468,323L469,319L470,315L470,312L470,309L470,306L470,302L470,299L470,296L470,293L468,290L467,287L466,285L464,283L462,282L461,281L460,280L459,280L458,280L456,280L455,282L452,285L450,288L448,293L446,298L444,304L443,309L443,314L443,318L443,321L443,324L444,325L444,326L445,327L445,327L445,327L446,327L446,327L447,326L448,326L449,324L450,322L450,320L451,319L451,316L452,314L452,313L452,311L453,310L453,310L453,309L453,309L453,309L452,308" stroke-opacity="1" stroke-width="5" stroke-linecap="round" stroke-linejoin="round" style="-webkit-tap-highlight-color: rgba(0, 0, 0, 0); stroke-opacity: 1; stroke-linecap: round; stroke-linejoin: round; user-select: text;"></path><path fill="none" stroke="#ff0000" d="M472,349L473,350L476,351L479,351L483,352L487,352L492,352L495,352L500,352L503,352L505,351L509,350L512,348L514,347L516,345L518,343L520,340L522,337L524,335L525,332L527,328L528,326L530,324L531,321L531,318L532,316L532,314L533,311L533,309L534,307L534,305L534,303L534,301L534,299L534,297L534,296L534,294L533,293L533,292L532,291L532,291L532,290L531,290L530,290L530,290L529,290L528,290L527,290L526,290L523,291L522,292L520,294L517,296L515,298L513,300L512,302L511,303L510,305L509,307L509,309L509,310L509,312L509,314L509,316L509,318L510,321L510,323L512,325L513,328L514,330L516,332L517,333L519,334L519,335L521,335L522,335L523,335L523,335L525,335L525,334L526,333L527,332L527,331L528,329L528,328L529,326L529,324L530,322L530,320L530,318L530,317L530,315L529,314L529,313L529,312L528,312L528,311L528,310L528,309L528,309L527,308L527,308L527,308L527,307" stroke-opacity="1" stroke-width="5" stroke-linecap="round" stroke-linejoin="round" style="-webkit-tap-highlight-color: rgba(0, 0, 0, 0); stroke-opacity: 1; stroke-linecap: round; stroke-linejoin: round; user-select: text;"></path><path fill="none" stroke="#ff0000" d="M622,349L621,349L617,349L613,349L608,347L603,346L599,345L595,343L590,342L586,340L582,338L580,336L578,334L576,332L574,330L573,327L571,324L570,321L568,318L566,313L564,309L563,306L562,303L561,301L561,298L561,295L560,293L560,290L560,288L560,286L560,284L561,283L563,281L564,280L565,278L566,277L568,276L571,276L574,275L578,275L582,275L586,275L591,277L595,279L598,281L601,283L602,284L603,285L604,287L604,290L604,292L605,294L605,296L605,299L605,300L604,303L603,305L603,306L602,308L601,310L600,311L599,311L598,312L598,313L596,313L596,313L595,314L594,314L593,314L593,314L592,314L592,314L592,314L591,313L589,311L588,309L586,307L585,304L584,301L582,297L580,294L579,291L579,289L577,286L577,285L577,284L577,283L577,283L577,283L577,284L579,286L580,287L581,289L582,290L584,292L584,293L585,294L585,296L586,298L586,299L586,301L586,302L586,303L586,303L586,303" stroke-opacity="1" stroke-width="5" stroke-linecap="round" stroke-linejoin="round" style="-webkit-tap-highlight-color: rgba(0, 0, 0, 0); stroke-opacity: 1; stroke-linecap: round; stroke-linejoin: round; user-select: text;"></path><path fill="none" stroke="#ff0000" d="M677,359L677,358L678,358L679,357L680,357L682,356L684,355L685,354L687,352L689,351L691,349L694,346L696,344L699,341L702,339L705,336L707,334L709,331L710,328L711,327L712,325L713,322L713,320L713,317L714,313L714,309L714,305L713,301L712,297L711,294L710,289L708,286L706,283L704,281L702,280L701,279L699,279L698,279L697,279L694,280L692,282L689,284L686,287L682,290L680,293L679,295L678,297L677,298L677,300L677,300L677,301L677,302L677,303L678,304L679,305L680,306L680,307L681,309L683,310L684,311L685,312L686,312L687,312L688,313L688,313L689,313L689,313L690,313L690,313L690,313L691,313L691,313L692,312L693,310L693,309L693,308L694,306L694,305L694,304L694,303L694,303L694,302L694,302L694,301L695,301L695,300L695,299L695,299L695,298L695,297L695,296L695,296L695,295L695,294L695,294L695,294L694,294L694,294L693,294L693,295L692,296L691,297L691,298L690,300L690,301L689,303L689,304L689,304L689,304" stroke-opacity="1" stroke-width="5" stroke-linecap="round" stroke-linejoin="round" style="-webkit-tap-highlight-color: rgba(0, 0, 0, 0); stroke-opacity: 1; stroke-linecap: round; stroke-linejoin: round; user-select: text;"></path><path fill="none" stroke="#ff0000" d="M763,368L763,368L763,367L763,366L763,364L761,361L759,358L756,353L754,349L751,345L748,340L745,336L742,331L740,328L739,325L737,322L735,319L735,318L734,316L733,314L733,312L732,310L732,308L731,307L731,304L731,301L731,299L732,297L733,296L735,293L736,292L737,290L739,289L742,288L745,286L748,286L751,286L755,285L758,285L761,285L764,285L767,285L770,285L772,287L774,289L777,291L779,293L781,295L782,297L783,300L784,303L784,305L784,308L784,310L784,312L784,313L783,314L782,315L781,316L780,317L778,317L777,318L775,318L775,318L773,318L773,318L772,318L771,317L770,316L768,315L767,313L765,311L763,309L761,306L760,303L758,300L757,298L755,295L754,292L753,291L752,289L752,288L752,288L752,288L752,287L752,287L752,287L753,288L753,288L755,290L757,291L758,292L758,293L758,295L758,296L758,298L758,299L758,300L758,302L758,302L757,303L756,304L756,304L756,305L756,305L755,305" stroke-opacity="1" stroke-width="5" stroke-linecap="round" stroke-linejoin="round" style="-webkit-tap-highlight-color: rgba(0, 0, 0, 0); stroke-opacity: 1; stroke-linecap: round; stroke-linejoin: round; user-select: text;"></path><path fill="none" stroke="#ff0000" d="M865,362L864,362L863,361L860,360L858,358L854,357L851,355L848,353L845,351L842,350L840,348L838,347L837,345L836,344L835,344L834,343L834,342L834,341L833,340L833,338L833,337L833,335L833,333L833,330L833,327L833,324L833,321L834,316L835,313L835,310L837,306L837,304L839,301L839,299L840,297L841,295L842,293L842,292L843,290L844,289L845,288L846,287L847,287L847,286L848,286L849,286L850,286L852,286L854,287L856,289L858,291L860,293L862,295L864,298L864,300L865,302L866,305L866,307L866,309L866,310L866,312L865,312L865,313L865,314L864,315L863,316L863,317L862,317L861,318L861,318L860,319L859,319L859,320L857,320L857,320L856,321L856,321L855,321L855,321L855,320L854,319L854,318L853,316L853,315L853,313L853,312L853,310L853,309L853,307L852,305L852,303L852,302L852,301L852,300L852,300" stroke-opacity="1" stroke-width="5" stroke-linecap="round" stroke-linejoin="round" style="-webkit-tap-highlight-color: rgba(0, 0, 0, 0); stroke-opacity: 1; stroke-linecap: round; stroke-linejoin: round; user-select: text;"></path><path fill="none" stroke="#ff0000" d="M917,323L917,323L917,323L916,322L914,321L913,320L912,319L911,319L910,317L909,315L907,313L905,310L904,308L903,305L902,303L901,300L900,299L900,298L900,297L900,297L900,296L900,295L900,294L900,292L901,291L902,291L903,290L903,289L904,288L906,288L908,287L909,287L911,287L913,287L915,287L917,287L919,288L920,289L923,290L924,292L926,294L928,296L930,300L931,303L933,306L934,308L935,310L936,313L936,316L937,318L938,320L938,322L938,324L938,325L938,326L938,328L938,329L937,330L936,332L935,333L934,334L933,335L932,337L931,338L930,338L929,339L928,339L927,339L926,339L925,339L924,339L923,339L922,338L921,337L919,335L918,334L914,331L912,329L908,328L907,327L907,326L906,325L905,324L904,324L904,324L904,323L904,323L905,323L905,323L905,323L905,323L906,323L906,323L906,322" stroke-opacity="1" stroke-width="5" stroke-linecap="round" stroke-linejoin="round" style="-webkit-tap-highlight-color: rgba(0, 0, 0, 0); stroke-opacity: 1; stroke-linecap: round; stroke-linejoin: round; user-select: text;"></path><path fill="none" stroke="#ff0000" d="M182,404L183,404L184,404L185,404L187,404L188,404L190,404L193,404L196,404L199,404L202,403L203,403L206,401L209,400L210,398L211,397L212,396L212,396L212,396L212,395L212,394L212,394L211,393L211,392L211,391L210,390L210,389L209,388L208,387L207,386L205,384L203,383L201,381L199,380L196,380L194,379L192,379L190,379L188,379L186,379L185,379L183,380L182,381L180,382L179,385L177,389L176,393L176,398L175,403L174,408L174,413L175,417L176,420L177,424L179,428L182,430L184,433L188,435L191,437L194,438L197,439L200,439L204,439L207,439L210,438L213,437L215,435L217,434L218,433L219,432L220,430L220,429L220,428L221,427L221,427L221,427" stroke-opacity="1" stroke-width="5" stroke-linecap="round" stroke-linejoin="round" style="-webkit-tap-highlight-color: rgba(0, 0, 0, 0); stroke-opacity: 1; stroke-linecap: round; stroke-linejoin: round; user-select: text;"></path><path fill="none" stroke="#ff0000" d="M278,399L278,399L278,398L279,399L279,400L280,401L280,402L281,404L281,406L281,408L282,410L283,411L283,414L283,416L283,418L283,419L283,421L283,423L282,424L282,425L281,426L281,427L280,428L279,428L279,428L279,429L279,429L278,429L278,429L278,429L277,428L276,427L274,425L273,424L271,421L270,418L267,414L266,412L264,410L263,408L263,406L262,405L261,403L261,401L261,399L261,398L261,396L260,395L260,393L260,392L261,391L261,390L262,388L262,387L262,386L263,385L263,384L264,383L265,382L266,382L267,381L268,381L269,381L270,381L272,381L274,381L275,381L277,381L279,381L280,382L283,383L284,384L285,385L287,388L289,392L291,396L292,401L294,406L295,411L297,416L298,420L299,424L300,427L300,431L300,433L300,434L300,435L300,437L299,438L299,439L298,440L297,441L297,442L296,442L295,443L295,443L294,444L293,444L292,444L292,444L291,444L291,444L290,444L289,444L289,444L288,443L287,443L286,443L286,442L285,442L284,442L284,442L284,442L283,442L283,442" stroke-opacity="1" stroke-width="5" stroke-linecap="round" stroke-linejoin="round" style="-webkit-tap-highlight-color: rgba(0, 0, 0, 0); stroke-opacity: 1; stroke-linecap: round; stroke-linejoin: round; user-select: text;"></path><path fill="none" stroke="#ff0000" d="M333,421L333,421L335,422L337,423L340,424L343,424L347,425L350,426L353,426L355,426L357,426L358,426L359,426L360,426L361,425L363,424L363,423L364,421L364,419L365,418L366,416L366,414L367,412L367,411L367,410L367,408L367,407L367,407L367,406L367,405L367,404L367,403L367,403L367,402L367,402L367,402L366,401L366,401L366,401L366,400L365,400L365,400L365,400L364,400L364,400L363,400L363,400L362,400L361,401L359,402L358,403L356,404L354,406L353,407L352,408L350,410L349,411L348,412L347,413L347,413L347,414L346,415L346,415L346,416L346,416L345,417L345,418L345,419L345,420L345,422L345,423L345,425L345,427L345,429L346,431L346,433L347,435L348,436L349,438L350,439L351,440L352,441L353,442L355,443L357,443L359,444L361,444L363,444L365,444L367,444L370,443L372,442L373,440L374,440L376,438L377,437L379,436L379,435L380,434L381,433L381,433L381,432L381,432L382,432" stroke-opacity="1" stroke-width="5" stroke-linecap="round" stroke-linejoin="round" style="-webkit-tap-highlight-color: rgba(0, 0, 0, 0); stroke-opacity: 1; stroke-linecap: round; stroke-linejoin: round; user-select: text;"></path><path fill="none" stroke="#ff0000" d="M428,414L428,414L429,413L429,412L431,410L432,408L434,406L436,404L438,402L440,400L443,398L444,397L447,395L448,395L450,394L451,394L451,394L452,394L452,394L453,394L455,396L457,399L459,402L462,407L465,412L467,417L470,421L471,425L472,428L473,430L473,432L474,434L474,435L474,436L474,437L474,437L473,438L472,439L472,439L470,440L469,440L468,440L467,440L465,440L464,440L463,440L462,440L460,439L459,438L458,438L457,435L456,434L456,432L455,430L455,428L455,425L455,423L456,421L457,418L458,417L458,416L459,415L459,415L460,414L461,413L462,413L464,413L467,412L470,412L473,411L475,411L476,410L478,410L478,410L478,410" stroke-opacity="1" stroke-width="5" stroke-linecap="round" stroke-linejoin="round" style="-webkit-tap-highlight-color: rgba(0, 0, 0, 0); stroke-opacity: 1; stroke-linecap: round; stroke-linejoin: round; user-select: text;"></path><path fill="none" stroke="#ff0000" d="M525,390L525,390L524,390L523,390L523,390L522,390L520,390L519,391L517,392L516,394L513,396L511,399L510,400L509,401L508,403L507,404L506,405L506,406L505,407L505,408L504,409L504,411L504,413L503,415L503,417L503,420L502,423L502,426L502,429L502,433L502,436L503,440L504,443L505,446L506,448L507,450L508,450L509,451L509,452L510,452L510,452L511,452L511,452L512,451L514,449L516,447L518,445L521,443L523,440L524,438L525,436L526,434L527,432L527,431L527,429L527,428L527,427L526,426L525,424L524,423L524,423L523,422L522,420L521,420L520,419L520,419L519,418L519,418L519,418L518,418L518,418L518,418L518,418L517,418L516,418L515,418L515,418L514,419L513,419L513,419L512,419L512,419L512,419" stroke-opacity="1" stroke-width="5" stroke-linecap="round" stroke-linejoin="round" style="-webkit-tap-highlight-color: rgba(0, 0, 0, 0); stroke-opacity: 1; stroke-linecap: round; stroke-linejoin: round; user-select: text;"></path><path fill="none" stroke="#ff0000" d="M573,402L573,402L574,400L575,398L576,396L578,393L579,392L580,389L581,388L582,387L583,387L584,386L585,385L585,385L586,385L587,385L587,385L587,385L588,386L590,387L593,389L595,391L598,394L601,397L604,399L606,402L607,404L608,407L608,410L609,412L609,414L610,417L610,420L610,423L609,425L609,427L608,429L606,432L605,433L604,434L603,435L602,436L601,436L600,436L598,436L598,436L596,436L594,435L593,434L591,433L589,431L588,430L587,429L586,426L585,423L584,421L584,419L584,416L585,412L586,410L587,408L589,405L590,403L592,402L592,401L593,400L594,399L594,399L595,399L595,399L595,398L596,398L596,398L596,398L598,398L600,398L602,398L604,398L606,398L608,397L610,397L611,396L613,395L613,395L614,395" stroke-opacity="1" stroke-width="5" stroke-linecap="round" stroke-linejoin="round" style="-webkit-tap-highlight-color: rgba(0, 0, 0, 0); stroke-opacity: 1; stroke-linecap: round; stroke-linejoin: round; user-select: text;"></path><path fill="none" stroke="#ff0000" d="M673,388L674,388L674,388L677,388L680,388L683,388L687,388L691,389L694,391L697,392L700,393L702,395L704,396L704,397L705,398L705,400L706,403L706,405L706,408L706,411L706,413L706,416L706,419L705,421L704,424L702,427L701,429L700,430L698,432L697,433L696,434L694,434L693,434L691,434L689,434L687,434L685,433L684,432L683,431L682,430L680,428L678,426L676,424L674,421L673,418L672,415L671,412L670,409L670,407L671,405L671,403L671,401L673,399L674,398L675,396L676,395L677,394L677,394L678,393L680,392L681,392L683,391L684,391L686,391L687,390L688,390L688,390L689,389L689,389L689,388L690,388L690,387L690,387L691,386L691,386L691,385L691,385L691,384L691,384L691,384L692,384L692,383L692,383L692,383L692,382L692,382L692,382L694,381" stroke-opacity="1" stroke-width="5" stroke-linecap="round" stroke-linejoin="round" style="-webkit-tap-highlight-color: rgba(0, 0, 0, 0); stroke-opacity: 1; stroke-linecap: round; stroke-linejoin: round; user-select: text;"></path><path fill="none" stroke="#ff0000" d="M773,385L772,385L771,386L769,387L766,389L764,391L762,392L759,395L756,397L754,399L752,401L750,403L748,406L747,408L746,410L745,411L744,413L743,415L742,417L742,419L742,421L742,423L742,426L742,427L742,429L742,431L742,432L743,433L744,435L745,436L747,436L748,437L749,437L752,437L753,437L755,437L757,436L759,435L760,433L762,431L764,430L766,428L767,427L768,425L769,423L770,422L771,420L771,419L771,417L772,416L772,415L772,413L772,412L771,410L771,410L771,409L770,408L769,408L769,407L768,406L767,406L767,406L766,406L766,406L766,406L766,406L765,406L765,406" stroke-opacity="1" stroke-width="5" stroke-linecap="round" stroke-linejoin="round" style="-webkit-tap-highlight-color: rgba(0, 0, 0, 0); stroke-opacity: 1; stroke-linecap: round; stroke-linejoin: round; user-select: text;"></path><path fill="none" stroke="#ff0000" d="M854,399L854,399L854,399L853,399L852,400L851,401L851,402L849,403L848,404L847,405L846,405L844,406L843,407L842,407L841,408L841,409L840,410L838,411L837,412L836,413L834,414L833,415L832,417L831,419L830,421L828,423L827,426L826,428L826,431L825,432L825,434L825,435L825,436L825,437L825,437L826,438L826,438L826,438L827,437L828,436L830,435L832,435L835,433L837,432L839,431L841,429L843,428L844,428L845,427L845,426L845,425L845,425L845,423L845,423L845,421L844,419L843,417L843,415L842,413L841,411L840,409L838,407L837,406L837,405L836,404L836,404L836,404" stroke-opacity="1" stroke-width="5" stroke-linecap="round" stroke-linejoin="round" style="-webkit-tap-highlight-color: rgba(0, 0, 0, 0); stroke-opacity: 1; stroke-linecap: round; stroke-linejoin: round; user-select: text;"></path><path fill="none" stroke="#ff0000" d="M906,421L906,421L906,420L906,419L906,418L906,416L906,414L906,412L905,409L904,407L902,405L901,403L900,402L899,400L899,399L898,398L898,397L898,396L898,395L898,394L898,393L898,392L899,391L900,390L900,388L901,388L903,386L904,385L905,385L906,384L907,384L909,384L910,384L912,384L914,385L916,386L918,386L920,388L922,390L924,393L927,397L930,403L933,407L934,412L936,416L936,419L936,422L936,424L936,426L936,427L935,427L935,428L934,429L934,429L932,429L932,429L930,429L928,429L926,429L923,428L920,426L916,425L913,424L912,423L910,423L910,422L909,422L909,422" stroke-opacity="1" stroke-width="5" stroke-linecap="round" stroke-linejoin="round" style="-webkit-tap-highlight-color: rgba(0, 0, 0, 0); stroke-opacity: 1; stroke-linecap: round; stroke-linejoin: round; user-select: text;"></path><path fill="none" stroke="#ff0000" d="M183,515L181,515L180,515L179,515L178,515L178,515L177,515L177,515L176,514L176,513L175,512L175,509L175,506L175,504L174,501L174,498L174,495L174,493L174,492L175,490L175,488L175,487L176,486L177,485L178,483L179,482L180,481L182,480L184,479L187,479L188,478L189,478L191,478L192,478L193,478L194,478L196,480L197,481L199,483L200,484L201,487L203,489L203,492L204,495L204,499L204,503L204,507L204,512L203,517L201,521L200,525L199,528L198,531L196,533L195,534L194,536L192,537L192,537L190,538L189,539L188,539L187,539L185,540L183,540L182,540L181,540L179,539L178,539L177,538L175,536L173,534L171,532L169,530L168,528L166,526L165,525L165,524L165,523L165,521L164,519L164,517L164,515L164,512L164,508L164,504L164,501L164,498L166,494L167,492L168,489L169,488L170,485L171,484L172,484L172,483L172,482L173,482L173,482L173,482L173,482L174,482L175,483L175,483L175,483L176,483" stroke-opacity="1" stroke-width="5" stroke-linecap="round" stroke-linejoin="round" style="-webkit-tap-highlight-color: rgba(0, 0, 0, 0); stroke-opacity: 1; stroke-linecap: round; stroke-linejoin: round; user-select: text;"></path><path fill="none" stroke="#ff0000" d="M275,508L277,509L278,509L278,509L278,509L277,509L275,508L272,506L269,504L267,502L264,500L260,497L258,495L256,492L255,490L255,488L255,486L255,485L255,484L256,482L257,481L257,480L258,479L259,478L260,477L261,476L263,475L265,475L266,474L267,474L269,474L270,474L271,474L273,475L275,477L278,479L280,482L282,485L285,490L286,495L287,499L288,504L288,508L287,512L286,516L285,520L283,524L282,526L281,528L280,529L279,530L278,531L278,532L277,532L276,532L275,532L273,532L272,532L271,531L269,529L268,528L266,525L265,522L263,519L263,515L262,512L262,509L262,507L263,504L264,502L265,500L268,498L270,496L272,495L274,494L275,493L276,492L277,492L278,492L278,491L278,491L279,491L280,491L280,491L280,491L280,491" stroke-opacity="1" stroke-width="5" stroke-linecap="round" stroke-linejoin="round" style="-webkit-tap-highlight-color: rgba(0, 0, 0, 0); stroke-opacity: 1; stroke-linecap: round; stroke-linejoin: round; user-select: text;"></path><path fill="none" stroke="#ff0000" d="M354,504L355,504L355,504L356,504L357,503L359,502L361,501L363,499L365,498L366,497L368,495L369,494L369,494L370,492L370,492L370,491L370,490L370,489L370,489L370,488L370,487L370,487L369,486L369,486L368,485L368,484L367,484L367,484L367,483L366,483L366,482L365,482L364,482L363,482L362,482L362,482L360,482L359,482L358,482L357,482L356,483L355,483L353,484L353,484L351,486L350,487L349,488L347,489L347,491L346,492L346,493L345,495L345,497L345,500L345,502L345,504L345,506L345,507L345,508L346,509L346,510L347,512L348,513L348,515L349,515L350,517L350,518L351,519L352,521L353,522L354,523L356,524L357,525L357,525L359,525L360,525L361,525L362,525L362,525L363,525L364,525L364,524L365,524L365,524L365,523L366,523L366,523L366,523L366,523L367,523L367,522" stroke-opacity="1" stroke-width="5" stroke-linecap="round" stroke-linejoin="round" style="-webkit-tap-highlight-color: rgba(0, 0, 0, 0); stroke-opacity: 1; stroke-linecap: round; stroke-linejoin: round; user-select: text;"></path><path fill="none" stroke="#ff0000" d="M447,530L447,530L448,529L449,528L449,527L450,525L452,523L453,520L455,517L456,514L457,512L459,509L460,506L461,504L462,502L463,499L464,498L464,496L465,495L465,493L465,492L465,490L465,489L465,488L465,486L465,486L465,485L465,484L464,482L463,482L463,481L462,480L461,480L460,479L459,479L458,479L457,479L456,478L456,478L454,478L453,478L452,479L451,480L450,482L449,484L448,486L447,488L447,491L446,493L446,496L446,498L446,500L446,502L446,503L447,504L447,505L448,506L448,506L448,506L449,506L449,506L450,506L451,505L452,504L452,504L453,503L454,502L455,502L455,501L455,501" stroke-opacity="1" stroke-width="5" stroke-linecap="round" stroke-linejoin="round" style="-webkit-tap-highlight-color: rgba(0, 0, 0, 0); stroke-opacity: 1; stroke-linecap: round; stroke-linejoin: round; user-select: text;"></path><path fill="none" stroke="#ff0000" d="M547,521L546,521L545,521L544,522L543,522L542,523L540,523L539,523L538,524L538,524L536,524L535,524L534,524L533,524L531,524L529,524L527,523L525,523L524,522L521,521L519,520L517,518L515,517L513,516L512,515L510,513L508,511L507,509L506,508L505,506L504,503L503,500L502,496L501,493L501,489L500,486L500,483L500,480L499,477L499,475L499,473L499,471L499,470L499,469L499,468L499,467L499,466L500,466L500,465L501,464L501,463L502,463L503,462L505,462L507,462L510,461L512,461L514,461L516,461L519,462L520,463L522,464L522,464L524,466L525,467L526,469L527,471L527,473L527,475L527,477L528,479L528,481L528,482L528,484L527,485L527,486L526,488L526,489L525,490L524,491L524,492L523,492L523,493L522,493L522,494L522,494L521,495L521,495L521,494L520,492L519,489L518,487L517,484L516,481L515,479L515,477L514,475L514,474L514,472L514,472L514,471L514,470L514,470L514,470L514,470L514,469L515,469L515,469L515,470L516,470L516,471L516,472L516,473L516,474L516,475L516,475L516,476L516,477L516,478L516,478L516,478" stroke-opacity="1" stroke-width="5" stroke-linecap="round" stroke-linejoin="round" style="-webkit-tap-highlight-color: rgba(0, 0, 0, 0); stroke-opacity: 1; stroke-linecap: round; stroke-linejoin: round; user-select: text;"></path></svg>