<svg height="694" version="1.1" width="1024" xmlns="http://www.w3.org/2000/svg" xmlns:xlink="http://www.w3.org/1999/xlink" style="overflow: hidden; position: relative; -webkit-user-select: text;"><desc style="-webkit-tap-highlight-color: rgba(0, 0, 0, 0); -webkit-user-select: text;">Created with Raphaël 2.2.0</desc><defs style="-webkit-tap-highlight-color: rgba(0, 0, 0, 0); -webkit-user-select: text;"></defs><path fill="none" stroke="#ff0000" d="M95,118L100,136L109,189L110,204L111,232L111,243L111,251L111,259L111,266L111,271L111,276L111,280L111,282L111,285L111,286L111,288L111,290L112,292L113,293L115,295L116,297L118,298L120,300L122,301L124,303L126,304L129,306L131,308L134,310L138,312L143,315L149,319L155,323L163,326L172,330L182,334L191,338L200,344L209,348L218,351L228,352L235,353L245,353L252,353L259,349L266,342L271,334L277,320L281,302L283,280L283,257L283,234L279,213L273,195L265,178L257,163L248,150L239,137L228,124L219,112L211,104L203,97L195,89L186,82L178,76L171,70L164,66L157,61L150,57L145,55L141,55L136,55L132,55L129,58L127,63L125,72L125,85L125,99L125,118L127,137L130,155L133,173L136,189L139,204L143,218L148,231L155,243L164,253L171,261L180,267L189,272L197,275L206,278L215,280L224,282L233,285L241,292L247,302" stroke-opacity="1" stroke-width="5" stroke-linecap="round" stroke-linejoin="round" style="-webkit-tap-highlight-color: rgba(0, 0, 0, 0); stroke-opacity: 1; stroke-linecap: round; stroke-linejoin: round; -webkit-user-select: text;"></path><path fill="none" stroke="#ff0000" d="M426,204L426,204" stroke-opacity="1" stroke-width="5" stroke-linecap="round" stroke-linejoin="round" style="-webkit-tap-highlight-color: rgba(0, 0, 0, 0); stroke-opacity: 1; stroke-linecap: round; stroke-linejoin: round; -webkit-user-select: text;"></path><path fill="none" stroke="#ff0000" d="M270,438L265,440L259,440L252,443" stroke-opacity="1" stroke-width="5" stroke-linecap="round" stroke-linejoin="round" style="-webkit-tap-highlight-color: rgba(0, 0, 0, 0); stroke-opacity: 1; stroke-linecap: round; stroke-linejoin: round; -webkit-user-select: text;"></path><path fill="none" stroke="#ff0000" d="M177,483L172,484L169,484L167,484L164,487" stroke-opacity="1" stroke-width="5" stroke-linecap="round" stroke-linejoin="round" style="-webkit-tap-highlight-color: rgba(0, 0, 0, 0); stroke-opacity: 1; stroke-linecap: round; stroke-linejoin: round; -webkit-user-select: text;"></path><path fill="none" stroke="#ff0000" d="M136,482L136,482" stroke-opacity="1" stroke-width="5" stroke-linecap="round" stroke-linejoin="round" style="-webkit-tap-highlight-color: rgba(0, 0, 0, 0); stroke-opacity: 1; stroke-linecap: round; stroke-linejoin: round; -webkit-user-select: text;"></path><path fill="none" stroke="#ff0000" d="M109,397L112,387L112,380L113,376L113,375L114,374" stroke-opacity="1" stroke-width="5" stroke-linecap="round" stroke-linejoin="round" style="-webkit-tap-highlight-color: rgba(0, 0, 0, 0); stroke-opacity: 1; stroke-linecap: round; stroke-linejoin: round; -webkit-user-select: text;"></path><path fill="none" stroke="#ff0000" d="M114,366L114,366" stroke-opacity="1" stroke-width="5" stroke-linecap="round" stroke-linejoin="round" style="-webkit-tap-highlight-color: rgba(0, 0, 0, 0); stroke-opacity: 1; stroke-linecap: round; stroke-linejoin: round; -webkit-user-select: text;"></path><path fill="none" stroke="#ff0000" d="M111,388L107,394L106,400" stroke-opacity="1" stroke-width="5" stroke-linecap="round" stroke-linejoin="round" style="-webkit-tap-highlight-color: rgba(0, 0, 0, 0); stroke-opacity: 1; stroke-linecap: round; stroke-linejoin: round; -webkit-user-select: text;"></path><path fill="none" stroke="#ff0000" d="M123,433L126,433L128,433" stroke-opacity="1" stroke-width="5" stroke-linecap="round" stroke-linejoin="round" style="-webkit-tap-highlight-color: rgba(0, 0, 0, 0); stroke-opacity: 1; stroke-linecap: round; stroke-linejoin: round; -webkit-user-select: text;"></path><path fill="none" stroke="#ff0000" d="M157,384L160,387L164,390L165,394" stroke-opacity="1" stroke-width="5" stroke-linecap="round" stroke-linejoin="round" style="-webkit-tap-highlight-color: rgba(0, 0, 0, 0); stroke-opacity: 1; stroke-linecap: round; stroke-linejoin: round; -webkit-user-select: text;"></path><path fill="none" stroke="#ff0000" d="M186,403L186,403" stroke-opacity="1" stroke-width="5" stroke-linecap="round" stroke-linejoin="round" style="-webkit-tap-highlight-color: rgba(0, 0, 0, 0); stroke-opacity: 1; stroke-linecap: round; stroke-linejoin: round; -webkit-user-select: text;"></path><path fill="none" stroke="#ff0000" d="M208,389L208,389" stroke-opacity="1" stroke-width="5" stroke-linecap="round" stroke-linejoin="round" style="-webkit-tap-highlight-color: rgba(0, 0, 0, 0); stroke-opacity: 1; stroke-linecap: round; stroke-linejoin: round; -webkit-user-select: text;"></path><path fill="none" stroke="#ff0000" d="M439,380L439,380" stroke-opacity="1" stroke-width="5" stroke-linecap="round" stroke-linejoin="round" style="-webkit-tap-highlight-color: rgba(0, 0, 0, 0); stroke-opacity: 1; stroke-linecap: round; stroke-linejoin: round; -webkit-user-select: text;"></path><path fill="none" stroke="#ff0000" d="M425,306L420,299L415,297" stroke-opacity="1" stroke-width="5" stroke-linecap="round" stroke-linejoin="round" style="-webkit-tap-highlight-color: rgba(0, 0, 0, 0); stroke-opacity: 1; stroke-linecap: round; stroke-linejoin: round; -webkit-user-select: text;"></path><path fill="none" stroke="#ff0000" d="M387,279L387,279" stroke-opacity="1" stroke-width="5" stroke-linecap="round" stroke-linejoin="round" style="-webkit-tap-highlight-color: rgba(0, 0, 0, 0); stroke-opacity: 1; stroke-linecap: round; stroke-linejoin: round; -webkit-user-select: text;"></path><path fill="none" stroke="#ff0000" d="M345,361L346,367L346,374L345,379L345,385" stroke-opacity="1" stroke-width="5" stroke-linecap="round" stroke-linejoin="round" style="-webkit-tap-highlight-color: rgba(0, 0, 0, 0); stroke-opacity: 1; stroke-linecap: round; stroke-linejoin: round; -webkit-user-select: text;"></path><path fill="none" stroke="#ff0000" d="M391,411L391,411" stroke-opacity="1" stroke-width="5" stroke-linecap="round" stroke-linejoin="round" style="-webkit-tap-highlight-color: rgba(0, 0, 0, 0); stroke-opacity: 1; stroke-linecap: round; stroke-linejoin: round; -webkit-user-select: text;"></path><path fill="none" stroke="#ff0000" d="M395,458L391,460" stroke-opacity="1" stroke-width="5" stroke-linecap="round" stroke-linejoin="round" style="-webkit-tap-highlight-color: rgba(0, 0, 0, 0); stroke-opacity: 1; stroke-linecap: round; stroke-linejoin: round; -webkit-user-select: text;"></path><path fill="none" stroke="#ff0000" d="M385,144L390,146L385,146" stroke-opacity="1" stroke-width="5" stroke-linecap="round" stroke-linejoin="round" style="-webkit-tap-highlight-color: rgba(0, 0, 0, 0); stroke-opacity: 1; stroke-linecap: round; stroke-linejoin: round; -webkit-user-select: text;"></path><path fill="none" stroke="#ff0000" d="M620,300L623,295L624,292" stroke-opacity="1" stroke-width="5" stroke-linecap="round" stroke-linejoin="round" style="-webkit-tap-highlight-color: rgba(0, 0, 0, 0); stroke-opacity: 1; stroke-linecap: round; stroke-linejoin: round; -webkit-user-select: text;"></path><path fill="none" stroke="#ff0000" d="M362,530L370,533L372,533" stroke-opacity="1" stroke-width="5" stroke-linecap="round" stroke-linejoin="round" style="-webkit-tap-highlight-color: rgba(0, 0, 0, 0); stroke-opacity: 1; stroke-linecap: round; stroke-linejoin: round; -webkit-user-select: text;"></path><path fill="none" stroke="#ff0000" d="M608,141L616,136L617,132" stroke-opacity="1" stroke-width="5" stroke-linecap="round" stroke-linejoin="round" style="-webkit-tap-highlight-color: rgba(0, 0, 0, 0); stroke-opacity: 1; stroke-linecap: round; stroke-linejoin: round; -webkit-user-select: text;"></path><path fill="none" stroke="#ff0000" d="M573,487L579,484L585,481L586,475" stroke-opacity="1" stroke-width="5" stroke-linecap="round" stroke-linejoin="round" style="-webkit-tap-highlight-color: rgba(0, 0, 0, 0); stroke-opacity: 1; stroke-linecap: round; stroke-linejoin: round; -webkit-user-select: text;"></path><path fill="none" stroke="#ff0000" d="M828,249L822,245" stroke-opacity="1" stroke-width="5" stroke-linecap="round" stroke-linejoin="round" style="-webkit-tap-highlight-color: rgba(0, 0, 0, 0); stroke-opacity: 1; stroke-linecap: round; stroke-linejoin: round; -webkit-user-select: text;"></path><path fill="none" stroke="#ff0000" d="M802,378L802,378" stroke-opacity="1" stroke-width="5" stroke-linecap="round" stroke-linejoin="round" style="-webkit-tap-highlight-color: rgba(0, 0, 0, 0); stroke-opacity: 1; stroke-linecap: round; stroke-linejoin: round; -webkit-user-select: text;"></path><path fill="none" stroke="#ff0000" d="M809,268L815,260L823,247L833,229L844,212L857,194L872,179L888,165L906,150L926,133" stroke-opacity="1" stroke-width="5" stroke-linecap="round" stroke-linejoin="round" style="-webkit-tap-highlight-color: rgba(0, 0, 0, 0); stroke-opacity: 1; stroke-linecap: round; stroke-linejoin: round; -webkit-user-select: text;"></path><path fill="none" stroke="#ff0000" d="M835,318L837,315L841,299L850,273L862,241L873,209L886,177L900,149" stroke-opacity="1" stroke-width="5" stroke-linecap="round" stroke-linejoin="round" style="-webkit-tap-highlight-color: rgba(0, 0, 0, 0); stroke-opacity: 1; stroke-linecap: round; stroke-linejoin: round; -webkit-user-select: text;"></path><path fill="none" stroke="#ff0000" d="M826,283L828,266L833,205L836,184L839,168L842,156L845,147L848,139L851,132L853,128L855,127L856,127L856,136L855,161L850,188L844,217L837,246L830,275L825,303L822,329L820,350L819,372L817,394L815,413L813,425L812,431L812,427L812,407L812,384L812,354L811,326L809,294L809,254L809,211L811,175L816,151L819,134L822,121L824,113L825,109L826,109L826,112L824,125L822,147L820,178L817,210L812,243L808,278L805,309L803,336L803,358L803,383L803,406L803,425L803,438L803,448L803,455L803,458L803,449L804,430L804,401L806,371L807,342L808,311L809,277L811,244L813,217L816,197L818,182L819,172L823,165" stroke-opacity="1" stroke-width="5" stroke-linecap="round" stroke-linejoin="round" style="-webkit-tap-highlight-color: rgba(0, 0, 0, 0); stroke-opacity: 1; stroke-linecap: round; stroke-linejoin: round; -webkit-user-select: text;"></path><path fill="none" stroke="#0300ff" d="M777,507L777,497L777,481L773,462L768,440L760,417L753,396L744,375L736,354L728,331L720,309L715,292L712,274L712,255L712,238L714,226L716,217L719,211L720,206L721,202L721,200L718,200L712,201L705,215L698,237L690,265L683,299L679,335L676,369L676,400L676,422L677,442L682,459L689,472L695,480L704,485L713,487L724,488L738,488L751,487L763,482L774,476L785,467L794,456L801,441L805,425L806,406L806,388L806,371L803,358L798,346L792,338L783,330" stroke-opacity="1" stroke-width="5" stroke-linecap="round" stroke-linejoin="round" style="-webkit-tap-highlight-color: rgba(0, 0, 0, 0); stroke-opacity: 1; stroke-linecap: round; stroke-linejoin: round; -webkit-user-select: text;"></path><path fill="none" stroke="#0300ff" d="M272,433L269,425L275,399L280,369L284,334L286,299L287,268L287,246L287,229L285,219L282,212L280,208L278,206L275,207L274,222L272,250L269,281L264,311L258,338L254,358L251,377L250,392L250,406L254,417L262,426L273,431L285,432L301,428L319,412L336,396L352,378L363,359L370,335L371,297L364,251L347,220L331,207L317,205L301,205L286,216L273,235L261,261L251,293L245,324L243,347L245,371L253,386L266,399L279,407L290,409L303,408L313,393L319,363L319,323L307,275L281,232L253,204L229,186L207,175L186,167L171,161L158,157L146,154L137,152L129,151" stroke-opacity="1" stroke-width="5" stroke-linecap="round" stroke-linejoin="round" style="-webkit-tap-highlight-color: rgba(0, 0, 0, 0); stroke-opacity: 1; stroke-linecap: round; stroke-linejoin: round; -webkit-user-select: text;"></path><path fill="none" stroke="#0300ff" d="M226,367L233,357L236,337L237,308L237,274L232,235L220,192" stroke-opacity="1" stroke-width="5" stroke-linecap="round" stroke-linejoin="round" style="-webkit-tap-highlight-color: rgba(0, 0, 0, 0); stroke-opacity: 1; stroke-linecap: round; stroke-linejoin: round; -webkit-user-select: text;"></path><path fill="none" stroke="#0300ff" d="M184,394L187,380L188,363L188,335L187,306L184,276L178,248L172,223L165,202L160,187L156,177L153,171L152,168L158,181L169,210L181,245L191,275L200,301L207,324L212,340L218,355L222,369L226,381L229,395L230,404L231,410L232,414L232,416L232,418" stroke-opacity="1" stroke-width="5" stroke-linecap="round" stroke-linejoin="round" style="-webkit-tap-highlight-color: rgba(0, 0, 0, 0); stroke-opacity: 1; stroke-linecap: round; stroke-linejoin: round; -webkit-user-select: text;"></path><path fill="none" stroke="#0300ff" d="M675,569L674,564L674,560L674,551L674,534L674,513L674,489L674,464L674,433L674,407L674,385L674,365L675,352L675,341L675,332L675,324L675,316L675,306L676,289L678,276L680,261L680,251L680,241L680,235L680,229L678,224L675,220L672,217L668,217L662,217L656,224L649,239L643,258L635,283L631,310L627,341L626,375L626,404L626,421L626,433L629,443L631,450L632,455L634,457" stroke-opacity="1" stroke-width="5" stroke-linecap="round" stroke-linejoin="round" style="-webkit-tap-highlight-color: rgba(0, 0, 0, 0); stroke-opacity: 1; stroke-linecap: round; stroke-linejoin: round; -webkit-user-select: text;"></path><path fill="none" stroke="#fbff60" d="M788,460L797,444L801,429L807,410L814,391L821,374L830,360L839,348L848,336L857,323L867,307L876,287L884,272L891,257L896,246L901,236L904,230L907,224L909,221L911,219L913,219L916,219L920,227L925,242L930,258L935,278L938,297L940,312L940,326L940,339L940,352L938,365L934,378L929,397L921,441L916,482L911,492L905,496L900,499L896,500L892,500L889,494L887,486L886,469L882,443L879,414L877,383L876,355L876,327L876,300L877,271L879,244L883,224L886,208L890,197L893,190L896,185L899,183L903,180" stroke-opacity="1" stroke-width="5" stroke-linecap="round" stroke-linejoin="round" style="-webkit-tap-highlight-color: rgba(0, 0, 0, 0); stroke-opacity: 1; stroke-linecap: round; stroke-linejoin: round; -webkit-user-select: text;"></path><path fill="none" stroke="#3cff75" d="M681,390L673,380L673,362L673,333L675,300L677,265L678,233L680,203L684,173L689,149L694,130L700,112L706,101L711,93L717,86L724,80L729,76L735,73L744,73L753,73L765,76L777,86L785,100L789,119L789,140L780,167L770,193L756,220L742,244L728,264L710,288L695,311L682,333L670,356L662,371L656,379L653,382L653,374L655,353L663,320L672,287L683,256L696,227L709,200L722,179L732,164L743,154L755,146L768,139L780,134L793,130L806,128L820,127L834,127L847,127L859,131L869,137L877,146L883,161L886,179L886,207L886,238L884,270L882,299L879,325L877,345L874,363L872,384L869,409" stroke-opacity="1" stroke-width="5" stroke-linecap="round" stroke-linejoin="round" style="-webkit-tap-highlight-color: rgba(0, 0, 0, 0); stroke-opacity: 1; stroke-linecap: round; stroke-linejoin: round; -webkit-user-select: text;"></path><path fill="none" stroke="#092bff" d="M103,94L96,91L96,97L96,116L98,146L101,176L104,206L105,228L105,247L105,260L105,270L105,278L105,286L105,295L104,303L102,314L101,324L100,336L99,350L96,364L93,377L91,387L89,393L87,397L87,398L87,396L87,378L89,347L89,311L89,274L84,240L78,213L74,194L69,177L66,165L64,157L62,152L62,150L61,150L61,157L67,183L73,219L75,252L75,272L76,280L76,282L76,268L68,231L56,186L43,152L33,136L26,126L22,121L21,121L23,129L36,154L49,192L58,238L61,271L62,285L62,288L62,282L55,249L47,211L36,177L25,153L17,139L12,130L10,126L9,126L11,138L24,165L36,198L42,229L46,247L48,257L50,260L51,258L51,227L45,187L36,153L30,138L27,132L26,129L34,147L47,176L59,213L65,244L69,262L72,273L73,278L74,280L75,280L75,271L74,251L70,231L67,218L65,206" stroke-opacity="1" stroke-width="5" stroke-linecap="round" stroke-linejoin="round" style="-webkit-tap-highlight-color: rgba(0, 0, 0, 0); stroke-opacity: 1; stroke-linecap: round; stroke-linejoin: round; -webkit-user-select: text;"></path></svg>