<svg height="578" version="1.1" width="551" xmlns="http://www.w3.org/2000/svg" xmlns:xlink="http://www.w3.org/1999/xlink" style="overflow: hidden; position: relative; user-select: text;"><desc style="-webkit-tap-highlight-color: rgba(0, 0, 0, 0); user-select: text;">Created with Raphaël 2.2.0</desc><defs style="-webkit-tap-highlight-color: rgba(0, 0, 0, 0); user-select: text;"></defs><path fill="none" stroke="#ff0000" d="M328,143L327,143L326,143L325,141L322,139L320,137L317,135L314,132L310,129L306,126L303,123L300,121L296,119L294,116L290,115L287,113L283,113L279,113L272,113L266,113L260,114L252,118L245,125L235,134L226,146L218,157L209,170L201,184L195,197L193,203L189,213L185,222L184,229L183,232L182,238L182,243L182,247L182,250L182,255L183,257L185,259L188,261L195,264L201,265L209,267L214,268L222,270L228,272L231,273L236,275L239,277L244,281L245,282L245,284L246,286L246,290L246,292L246,294L244,297L240,299L237,301L232,303L227,305L221,307L215,308L209,309L204,310L198,310L193,310L187,310L184,308L180,306L178,302L175,298L172,289L171,281L171,270L171,261L171,249L173,237L176,225L180,214L183,208L188,198L192,190L197,183L202,177L208,171L218,164L222,163L234,158L243,157L254,157L264,157L269,157L277,160L280,161L286,164L290,167L293,169L294,170L296,171L296,172L297,172L297,173L297,173" stroke-opacity="1" stroke-width="5" stroke-linecap="round" stroke-linejoin="round" style="-webkit-tap-highlight-color: rgba(0, 0, 0, 0); stroke-opacity: 1; stroke-linecap: round; stroke-linejoin: round; user-select: text;"></path></svg>