<svg height="580" version="1.1" width="610" xmlns="http://www.w3.org/2000/svg" xmlns:xlink="http://www.w3.org/1999/xlink" style="overflow: hidden; position: relative; user-select: text;"><desc style="-webkit-tap-highlight-color: rgba(0, 0, 0, 0); user-select: text;">Created with Raphaël 2.2.0</desc><defs style="-webkit-tap-highlight-color: rgba(0, 0, 0, 0); user-select: text;"></defs><path fill="none" stroke="#ff0000" d="M247,215L246,214L246,213L246,212L246,211L246,209L246,206L246,202L246,194L246,188L247,181L248,177L251,170L253,165L253,164L255,160L257,157L258,155L259,154L262,153L263,153L264,153L266,153L268,155L270,159L272,164L274,174L275,182L276,193L276,205L276,217L276,229L274,235L272,245L269,253L266,259L263,266L260,270L257,274L255,278L253,279L251,282L250,284L248,286L247,288L246,290L245,293L245,295L245,298L245,301L245,304L247,306L250,309L254,311L258,313L267,314L274,314L289,314L296,312L307,307L318,299L328,292L332,288L340,280L345,272L352,258L354,248L354,238L354,233L354,216L354,211L352,201L349,193L346,184L343,176L340,170L336,164L334,163L331,159L329,158L328,156L326,156L324,156L323,156L322,159L321,171L321,185L321,205L321,228L322,240L324,262L327,281L328,288L329,301L330,305L331,313L331,318L331,322L331,325L330,328L328,328L325,329L317,329L310,328L301,322L291,314L279,303L267,290L254,276L232,248L218,229L212,221L207,215L205,211L200,204L197,198L195,195L194,189L195,188L206,188L231,192L247,199L275,211L305,226L318,234L339,249L346,254L359,265L363,268L370,274L374,278L376,280L377,282L377,283L377,284L377,284L372,284L367,281L353,271L339,257L324,242L316,232L302,216L290,200L285,194L281,190L275,184L270,178L267,176L265,173L263,173L262,173L260,173L259,173L258,174L257,177L256,180L256,182L255,184L255,187L255,189L255,190" stroke-opacity="1" stroke-width="5" stroke-linecap="round" stroke-linejoin="round" style="-webkit-tap-highlight-color: rgba(0, 0, 0, 0); stroke-opacity: 1; stroke-linecap: round; stroke-linejoin: round; user-select: text;"></path><path fill="none" stroke="#3cff5d" d="M423,328L423,328L423,327L423,326L423,325L423,325L423,324L423,323L423,322L423,320L423,317L423,315L423,311L422,304L422,300L422,293L422,287L422,280L422,274L422,267L422,261L422,260L422,256L422,254L423,252L424,251L426,251L428,251L432,251L437,253L440,255L444,258L445,260L447,263L449,264L450,266L450,267L450,267L449,268L445,268L438,268L422,265L406,260L387,253L362,242L337,231L327,226L318,222L303,214L299,212L289,207L284,204L280,202L278,200L278,200L277,199L281,199L292,199L308,202L330,211L355,224L366,232L375,239L390,251L399,260L404,269L407,275L408,280L408,284L405,289L399,291L389,292L369,292L351,292L326,285L298,276L271,266L259,260L237,251L230,248L216,241L213,238L206,234L202,231L200,229L199,228L198,227L198,226L202,226L205,226L210,228L218,235L222,242L226,252L231,275L232,297L232,309L231,349L229,360L225,380L222,387L216,401L212,411L207,418L202,423L197,426L188,428L182,428L175,428L171,427L165,423L163,422L160,419L158,418L156,416L156,415L155,415L155,414L156,414L157,414L157,414L158,414L159,415L160,416L160,417L160,418L161,419L161,420" stroke-opacity="1" stroke-width="5" stroke-linecap="round" stroke-linejoin="round" style="-webkit-tap-highlight-color: rgba(0, 0, 0, 0); stroke-opacity: 1; stroke-linecap: round; stroke-linejoin: round; user-select: text;"></path><path fill="none" stroke="#3cff5d" d="M140,168L140,167L140,167L140,167L140,166L141,166L143,165L147,162L153,159L159,157L162,155L169,152L174,150L177,149L181,148L184,146L187,145L189,144L190,144L192,143L192,143L192,143L193,143L193,144L193,147L193,152L193,165L193,179L193,190L195,207L198,223L201,230L206,242L211,251L217,258L221,263L226,266L231,267L241,268L248,268L255,266L256,267L258,267L260,268L262,268L263,268L264,270L266,274L268,277L268,279L270,282L270,284L272,287L272,289L273,290L273,292L273,292L273,292" stroke-opacity="1" stroke-width="5" stroke-linecap="round" stroke-linejoin="round" style="-webkit-tap-highlight-color: rgba(0, 0, 0, 0); stroke-opacity: 1; stroke-linecap: round; stroke-linejoin: round; user-select: text;"></path></svg>