<svg height="580" version="1.1" width="610" xmlns="http://www.w3.org/2000/svg" xmlns:xlink="http://www.w3.org/1999/xlink" style="overflow: hidden; position: relative; user-select: text;"><desc style="-webkit-tap-highlight-color: rgba(0, 0, 0, 0); user-select: text;">Created with Raphaël 2.2.0</desc><defs style="-webkit-tap-highlight-color: rgba(0, 0, 0, 0); user-select: text;"></defs><path fill="none" stroke="#ff0000" d="M327,212L327,212L326,212L325,212L324,212L323,212L321,212L319,212L317,212L315,212L312,211L310,211L308,211L306,211L303,211L301,210L300,210L298,210L296,210L295,210L294,210L292,210L291,210L290,210L289,210L288,210L287,210L286,210L285,210L284,210L283,210L282,210L281,211L279,211L276,213L275,214L273,215L270,217L267,219L265,221L262,223L260,226L259,227L254,230L253,232L251,234L249,236L248,237L246,239L245,241L244,242L243,243L242,245L241,246L240,247L240,248L239,249L238,249L238,250L238,250L237,251L237,251L236,252L236,252L236,253L236,253L236,253L236,254L235,254L235,254L235,255L235,255L235,255L235,256L235,256L234,256L234,257L234,257L234,257L234,257L234,257L234,257L234,257L234,257L234,256L234,256L234,256L234,256L233,256L233,255L233,255L233,255L233,255L233,255L233,255L233,254L232,254L232,254L232,254L232,254L232,254L232,254L232,254L231,253L231,253L231,253L231,253L231,253L231,252L230,252L230,251L230,251L230,251L229,250L229,250L229,249L228,249L228,248L228,247L228,247L228,246L227,245L227,245L227,244L226,244L226,243L226,242L226,242L226,241L225,241L225,240L225,240L225,239L224,238L224,238L224,237L224,236L223,235L223,234L223,234L223,233L223,231L222,230L222,227L221,225L221,223L221,220L221,217L221,214L221,211L221,208L221,204L221,201L221,198L221,194L221,190L221,187L222,184L223,180L224,179L225,174L226,172L227,170L228,167L229,165L230,163L231,160L232,158L233,157L233,155L234,153L235,152L236,150L237,149L237,147L237,147L238,146L239,145L239,144L239,143L240,143L240,142L240,142L240,141L241,141L241,141L241,140L242,140L242,140L242,139L242,139L243,138L243,138L243,138L244,137L244,136L245,136L245,136L246,135L247,135L247,134L248,134L249,133L250,133L250,132L251,131L252,131L253,131L254,130L254,130L255,129L256,129L257,128L258,128L259,128L260,127L261,127L262,127L263,127L264,126L265,126L266,126L267,126L268,125L269,125L270,125L271,125L272,125L273,124L274,124L275,124L276,124L277,124L278,124L279,123L280,123L281,123L282,123L283,123L283,123L285,123L286,123L287,123L288,123L289,123L289,123L290,123L291,123L292,123L292,123L293,123L294,123L294,123L295,124L295,124L296,124L297,125L297,125L297,125L298,125L299,126L299,126L300,127L301,127L301,127L302,128L302,128L303,129L303,129L304,130L305,130L306,131L306,132L307,132L307,133L308,133L309,134L309,134L310,135L311,136L312,136L312,137L313,138L314,139L315,140L315,140L316,141L317,142L317,143L318,143L319,144L319,145L320,146L320,146L321,147L322,148L322,148L322,149L323,149L323,150L323,151L324,151L324,151L324,152L325,152L325,152L325,153L325,153L325,153L325,154L326,154L326,154L326,154L326,155L326,155L326,155L326,155L326,156L326,156L326,156L326,156L326,157L326,157L326,157L326,157L326,158L326,158L326,158L326,159L326,159L326,160L326,160L326,160L326,161L326,161L326,161L326,161L326,162L326,162L326,162L326,162L326,163L326,163L326,163L326,163L326,164L326,164L326,164L326,164L326,165L326,165L326,165L326,165L326,166L326,166L325,166L325,166L325,167L325,167L325,168L325,168L325,168L325,169L324,169L324,169L324,170L324,170L324,171L324,171L324,171L324,172L323,173L323,173L323,174L323,174L322,175L322,175L322,176L322,177L321,177L321,178L321,179L321,179L320,180L320,180L320,181L320,181L320,181L319,182L319,182L319,182L319,182L319,183L319,183L318,183L318,184L318,184L318,184L318,185L318,185L318,185L318,186L318,186L318,186L318,187L318,187L318,188L318,188L318,189L318,189L318,190L318,190L318,191L318,191L319,192L319,192L319,193L319,193L320,194L320,194L320,195L320,195L320,196L321,196L321,197L321,197L321,198L321,198L321,199L321,199L321,199L322,200L322,200L322,200L322,201L322,201L322,202L322,202L322,202L322,202L322,203L322,203L322,203L322,204L322,204L322,204L322,204L322,205L322,205L323,205L323,205L323,206L323,206L323,206L323,206L323,206L324,207L324,207L324,207L324,207L324,208L325,208L325,208L325,208L325,208L326,208L326,209L326,209L326,209L326,209L327,209L327,209L327,210L327,210L327,210L328,210L328,210L328,210L329,210L329,211L329,211L329,211L330,211L330,211L330,211L331,212L331,212L331,212L332,212L332,213L333,213L333,213L333,213L333,214L334,214L334,214L334,214L334,215L334,215L334,215L334,215L334,215L335,216L335,216L335,216L335,216L335,217L335,217L336,217L336,218L336,218L336,219L337,220L337,220L337,221L337,222L338,222L338,223L338,224L338,225L339,226L339,227L339,228L339,229L339,231L339,232L339,234L339,235L339,237L339,239L339,240L339,242L338,244L338,245L337,247L336,249L335,251L334,252L333,254L332,255L331,257L329,259L328,260L327,262L325,263L324,264L323,266L322,267L321,268L319,269L318,270L317,270L316,271L315,272L314,273L312,274L311,274L310,276L309,276L307,277L306,278L305,278L304,279L303,279L302,280L301,280L301,280L300,280L300,280L299,280L299,280L298,280L298,280L297,280L297,280L296,280L296,280L295,280L294,280L294,280L293,280L293,280L292,281L291,281L291,281L290,281L289,281L288,281L287,281L286,281L285,281L284,281L283,281L282,281L281,281L279,281L278,281L277,281L276,281L275,281L274,281L273,280L272,280L270,279L270,279L269,279L268,278L267,278L266,278L266,278L265,278L265,278L264,278L264,278L263,278L262,278L262,278L261,278L261,278L260,278L260,278L259,278L258,278L258,278L257,278L257,278L256,277L255,277L255,276L254,276L254,275L253,275L253,274L252,274L252,273L251,273L251,272L250,272L249,272L249,271L248,271L248,271L247,270L247,270L246,270L246,270L245,269L245,269L245,269L244,269L244,269L243,269L243,268L242,268L242,268L241,267L241,267L241,267L240,267L240,266L240,266L239,266L239,265L238,265L238,265L238,265L238,265L237,264L237,264L237,264L237,264L237,264L237,263L237,263L237,263L237,263L237,262L237,262L237,262L237,262L237,261L236,261L236,261L236,260L236,260L236,260L236,259L236,259L236,258L235,258L235,258L235,257L235,257L235,256L235,256L235,256L235,256L235,255" stroke-opacity="1" stroke-width="5" stroke-linecap="round" stroke-linejoin="round" style="-webkit-tap-highlight-color: rgba(0, 0, 0, 0); stroke-opacity: 1; stroke-linecap: round; stroke-linejoin: round; user-select: text;"></path><path fill="none" stroke="#ff0000" d="M305,225L305,225L305,225L305,224L305,224L305,224L305,223L306,223L307,223L308,223L309,222L310,222L311,222L312,222L313,221L314,221L314,221L315,221L316,221L316,221L317,221L317,221L318,221L319,221L319,221L320,221L320,221L321,221L322,221L322,221L323,221L324,221L325,222L326,222L326,223L327,223L328,224L329,224L330,225L331,226L332,227L333,227L333,228L334,228L334,229L334,230L334,230L334,230L334,231L334,232L334,232L334,233L334,233L334,234L334,234L334,235L334,236L333,236L333,237L332,237L331,238L330,239L329,240L329,240L328,241L327,242L326,242L325,243L325,243L324,244L323,244L322,245L322,245L321,246L320,246L319,246L319,247L318,247L317,247L316,247L316,247L315,248L314,248L314,248L313,248L312,248L312,248L311,248L310,248L310,248L309,248L309,247L308,247L308,247L308,246L307,246L307,245L307,245L307,244L306,244L306,243L306,243L306,242L306,242L306,241L306,241L306,240L306,240L306,240L306,239L306,238L306,238L306,238L306,237L306,237L306,236L306,236L306,235L306,235L306,235L306,235L306,234L306,234L306,234L306,233L307,233L307,233L307,233L307,233L307,233L307,233L308,233L308,232L308,232L308,232L308,232L308,232L308,231L308,231L308,230L308,230L308,229L308,228L308,227L308,226L308,225L308,224L308,223L308,222L308,221L308,220L308,220L308,219L308,219L308,219L308,219L308,219L308,219L307,219L307,219L307,220L307,220L307,220" stroke-opacity="1" stroke-width="5" stroke-linecap="round" stroke-linejoin="round" style="-webkit-tap-highlight-color: rgba(0, 0, 0, 0); stroke-opacity: 1; stroke-linecap: round; stroke-linejoin: round; user-select: text;"></path><path fill="none" stroke="#ff0000" d="M286,222L286,222L285,222L284,222L284,223L283,223L282,223L281,224L280,224L279,224L279,224L278,225L277,225L277,225L276,225L275,226L275,226L275,226L274,227L274,227L273,228L273,228L272,229L272,230L272,231L272,232L271,232L271,233L271,234L271,235L271,235L271,236L270,237L270,237L270,237L270,238L270,238L270,239L270,239L270,239L270,240L270,240L270,240L270,241L270,241L271,242L271,242L271,242L271,242L272,243L272,243L272,243L273,243L273,243L273,243L274,244L275,244L275,244L276,245L277,245L277,245L278,245L279,246L280,246L280,246L281,246L282,247L283,247L283,247L284,247L285,247L286,247L287,247L287,247L288,247L288,247L289,247L290,247L290,247L290,247L290,247L291,247L291,247L291,247L292,247L292,247L292,247L293,247L293,247L294,246L294,246L294,245L295,245L295,244L295,244L295,244L295,243L296,243L296,242L296,242L296,241L296,241L296,240L296,240L296,239L296,239L296,238L296,238L296,237L296,237L296,237L296,236L296,235L295,235L295,235L295,234L295,233L295,233L294,233L294,232L294,232L294,232L293,232L293,231L292,231L292,230L292,230L291,230L291,230L290,229L290,229L290,228L289,228L289,228L289,227L289,227L288,227L288,227L288,227L288,227L288,227L288,227L287,227L287,226" stroke-opacity="1" stroke-width="5" stroke-linecap="round" stroke-linejoin="round" style="-webkit-tap-highlight-color: rgba(0, 0, 0, 0); stroke-opacity: 1; stroke-linecap: round; stroke-linejoin: round; user-select: text;"></path><path fill="none" stroke="#ff0000" d="M274,267L274,267L274,267L275,267L276,267L277,267L278,267L279,267L280,267L282,267L283,267L284,267L285,267L286,267L287,267L288,267L289,267L289,267L290,267L290,267L291,267L291,267L292,267L292,267L293,267L293,267L293,267L294,267L294,267L294,267L295,266L296,266L296,265L297,265L298,264L298,264L299,263L300,263L301,262L302,262L303,261L303,261L304,261L305,260L306,260L306,260L307,260L308,260L308,260L308,259L309,259L309,259L309,259L309,259L310,259L310,259" stroke-opacity="1" stroke-width="5" stroke-linecap="round" stroke-linejoin="round" style="-webkit-tap-highlight-color: rgba(0, 0, 0, 0); stroke-opacity: 1; stroke-linecap: round; stroke-linejoin: round; user-select: text;"></path><path fill="none" stroke="#ff0000" d="M301,252L301,252L301,252L301,252" stroke-opacity="1" stroke-width="5" stroke-linecap="round" stroke-linejoin="round" style="-webkit-tap-highlight-color: rgba(0, 0, 0, 0); stroke-opacity: 1; stroke-linecap: round; stroke-linejoin: round; user-select: text;"></path><path fill="none" stroke="#ff0000" d="M289,284L289,284L289,286L289,288L289,290L289,294L289,298L289,305L288,317L288,324L287,334L287,345L286,349L286,359L286,368L286,376L286,383L286,390L286,396L286,401L286,403L286,407L286,411L286,413L286,416L286,418L286,420L286,421L286,422L286,423L286,424L286,424L286,425L286,425L286,425L286,426L286,426L286,426L286,426L286,426L286,427" stroke-opacity="1" stroke-width="5" stroke-linecap="round" stroke-linejoin="round" style="-webkit-tap-highlight-color: rgba(0, 0, 0, 0); stroke-opacity: 1; stroke-linecap: round; stroke-linejoin: round; user-select: text;"></path><path fill="none" stroke="#ff0000" d="M284,328L284,329L283,330L281,332L278,334L275,337L270,342L262,349L256,354L249,360L241,366L232,373L228,376L220,382L211,388L205,392L197,397L191,402L185,406L180,410L175,414L171,417L169,418L166,420L164,422L161,424L159,426L158,427L157,428L155,429L154,430L154,431L153,432L152,432L152,433L151,433L151,433L151,434L151,434L150,434L150,434L150,435L150,435L150,435" stroke-opacity="1" stroke-width="5" stroke-linecap="round" stroke-linejoin="round" style="-webkit-tap-highlight-color: rgba(0, 0, 0, 0); stroke-opacity: 1; stroke-linecap: round; stroke-linejoin: round; user-select: text;"></path><path fill="none" stroke="#ff0000" d="M289,329L289,329L294,329L303,330L314,333L332,339L356,348L381,359L407,371L433,383L445,388L464,398L471,401L485,409L495,415L498,416L505,420L509,422L512,424L513,425L514,425L515,426L515,426L515,426L515,426L513,425L511,423" stroke-opacity="1" stroke-width="5" stroke-linecap="round" stroke-linejoin="round" style="-webkit-tap-highlight-color: rgba(0, 0, 0, 0); stroke-opacity: 1; stroke-linecap: round; stroke-linejoin: round; user-select: text;"></path><path fill="none" stroke="#ff0000" d="M287,428L287,428L286,428L286,428L285,428L284,428L283,428L282,428L281,428L280,428L279,428L279,428L278,428L278,428L277,428L277,428L277,429L277,429L277,429L276,430L276,430L275,431L274,432L273,433L272,434L271,436L270,438L268,439L267,441L266,443L264,444L263,446L261,448L260,450L259,451L258,453L257,454L256,455L256,456L255,457L255,458L254,459L254,459L253,461L252,462L252,463L251,464L249,466L247,468L246,470L244,473L242,475L241,476L239,479L235,483L234,484L232,486L230,488L228,490L226,492L225,493L224,494L223,495L223,496L222,497L222,497L222,498L222,498L221,498L221,498L221,499L222,499L222,499L222,499L222,499L222,499L223,499L223,499L223,499L224,499L224,499L224,500L225,501L227,503L228,504L229,506L231,508L232,509L234,512L236,513L238,515L240,516L242,518L243,519L245,520L247,521L248,522L249,523L249,524L250,525L251,525L251,525L251,526L252,526L252,527L252,527L252,527L253,527L253,528L253,528L253,528L253,528L253,527L253,527L253,527L253,527L253,526L253,526L253,525L253,525L253,524L254,523L254,522L254,522L254,521L255,520L255,518L255,518L255,516L255,515L255,514L255,512L255,512L255,510L255,509L254,508L254,507L253,506L252,506L252,505L251,505L250,504L249,504L249,504L248,503L247,503L246,503L245,502L244,502L243,502L242,501L241,501L240,501L239,500L239,500L238,499L237,499L236,499L235,498L234,498L234,498L233,498L232,497L232,497L231,497L230,497L229,497L229,497L228,497L228,497L227,497L227,497L227,497L226,497L226,497L226,497" stroke-opacity="1" stroke-width="5" stroke-linecap="round" stroke-linejoin="round" style="-webkit-tap-highlight-color: rgba(0, 0, 0, 0); stroke-opacity: 1; stroke-linecap: round; stroke-linejoin: round; user-select: text;"></path><path fill="none" stroke="#ff0000" d="M288,427L288,428L288,429L289,432L290,435L292,438L294,442L296,446L299,450L301,456L303,459L306,464L307,468L309,471L310,473L312,475L313,477L314,480L316,482L316,484L317,486L318,487L318,489L319,490L319,491L320,493L320,493L321,494L321,495L321,496L322,497L322,497L322,498L322,498L323,499L323,499L323,500L323,500L323,500L323,501L323,502L324,502L324,503L324,503L325,504L325,504L325,505L325,506L325,507L326,507L326,508L326,509L327,509L327,510L327,510L327,511L327,511L328,511L328,512L328,512L328,513L328,513L328,513L328,513L328,514L329,514L329,514L329,514L329,515L329,515L329,515L329,514L330,514L331,513L332,513L334,512L336,512L340,511L342,510L343,510L346,510L348,510L350,510L352,509L354,509L356,509L357,509L358,508L359,508L359,508L360,508L360,508L361,508L361,508L361,508L361,507L361,507L361,507L362,507L362,506L362,506L362,505L362,505L362,504L362,504L362,503L362,502L361,502L361,501L360,500L359,499L359,498L358,498L357,497L356,496L355,496L354,495L353,495L353,495L352,494L351,494L350,494L349,494L349,494L348,494L347,494L346,494L346,494L345,494L344,494L344,494L343,494L343,494L342,494L341,495L341,495L340,495L339,495L339,496L338,496L337,497L336,497L335,498L334,498L334,498L333,499L332,499L332,500L331,500L331,500L330,501L330,501L329,502L329,502L328,502L328,502L328,503L328,503L327,503L327,504L327,504L327,504L326,504L326,505L326,505L326,505L326,505" stroke-opacity="1" stroke-width="5" stroke-linecap="round" stroke-linejoin="round" style="-webkit-tap-highlight-color: rgba(0, 0, 0, 0); stroke-opacity: 1; stroke-linecap: round; stroke-linejoin: round; user-select: text;"></path></svg>