<svg height="871" version="1.1" width="1608" xmlns="http://www.w3.org/2000/svg" xmlns:xlink="http://www.w3.org/1999/xlink" style="overflow: hidden; position: relative; user-select: text;"><desc style="-webkit-tap-highlight-color: rgba(0, 0, 0, 0); user-select: text;">Created with Raphaël 2.2.0</desc><defs style="-webkit-tap-highlight-color: rgba(0, 0, 0, 0); user-select: text;"></defs><path fill="none" stroke="#ff0000" d="M296,271L295,271L294,268L294,262L294,252L294,241L294,227L294,214L294,200L294,188L295,175L297,163L298,154L301,146L303,138L306,132L309,126L312,121L315,117L319,113L325,110L331,108L342,106L353,104L369,104L387,104L408,107L436,111L465,120L494,130L521,143L544,158L560,175L572,192L580,210L585,229L586,251L585,274L582,296L578,323L575,345L568,370L565,391L562,412L561,434L563,456L567,472L572,489L578,506L587,520L598,532L613,543L630,551L649,558L673,563L703,565L735,565L770,563L801,558L835,549L871,537L897,529L928,515L958,501L987,483L1009,464L1028,444L1044,424L1056,406L1064,391L1069,379L1074,369L1076,361L1078,354L1079,348L1079,339L1078,331L1075,323L1073,317L1067,307L1061,299L1055,292L1046,284L1033,278L1019,272L1003,267L983,266L959,266L938,269L909,277L875,292L846,309L820,326L793,353L771,386L753,420L736,461L721,503L707,541L695,576L682,609L673,630L663,647L652,661L640,673L626,683L607,695L588,705L565,715L536,722L505,726L473,728L440,727L410,722L376,711L341,700L303,685L273,669L247,651L225,632L205,611L191,588L183,564L177,531L176,500L178,466L187,437L198,416L215,397L238,379L262,366L295,352L330,345L372,340L417,340L465,345L519,354L566,365L607,384L639,405L663,429L682,456L695,486L702,518L705,544L707,565L706,585L703,598L699,607L696,613L694,616L694,616L694,616L693,615L690,604L689,588L689,564L689,529L689,485L696,448L706,411L718,379L735,354L753,333L771,316L792,300L815,291L836,283L860,278L881,278L902,279L923,286L942,298L955,311L964,328L970,352L973,378L971,408L964,445L955,479L945,508L937,527L927,546L921,555L917,561L916,562L916,562L916,562L918,556L923,538L931,515L943,482L962,446L983,409L1010,373L1043,335L1071,308L1106,283L1137,266L1169,252L1198,244L1224,240L1246,240L1265,241L1282,246L1296,255L1306,266L1312,282L1319,307L1318,339L1314,377L1306,416L1294,449L1281,473L1266,496L1249,515L1232,530L1215,542L1198,549L1185,552L1172,553L1162,550L1151,541L1139,528L1126,508L1112,480L1101,447L1091,409L1083,363L1081,321L1081,281L1085,251L1092,228L1101,211L1110,196L1122,181L1134,169L1146,159L1157,151L1167,147L1175,144L1183,143L1188,143L1193,144L1197,147L1199,151L1201,160L1203,176L1201,194L1194,215L1181,238L1162,260L1143,276L1123,288L1100,295L1079,298L1056,298L1028,293L997,284L962,272L932,257L894,237L856,218L814,195L768,167L725,140L684,116L645,94L615,78L590,67L570,58L550,52L537,49L525,49L512,49L504,53L496,59L487,70L479,84L471,103L465,126L457,158L452,186L449,214L447,236L447,252L449,261L452,266L453,268L454,268" stroke-opacity="1" stroke-width="5" stroke-linecap="round" stroke-linejoin="round" style="-webkit-tap-highlight-color: rgba(0, 0, 0, 0); stroke-opacity: 1; stroke-linecap: round; stroke-linejoin: round; user-select: text;"></path><path fill="none" stroke="#a7ff5c" d="M530,176L532,175L533,175L534,174L538,173L541,171L547,169L555,167L573,163L591,158L614,153L636,149L662,142L694,137L728,131L760,127L787,123L820,119L850,117L882,117L907,117L931,119L947,123L959,126L972,130L980,134L986,140L993,147L998,158L1004,172L1007,185L1011,203L1012,219L1012,235L1010,251L1004,265L994,279L978,294L959,308L938,320L914,330L891,335L868,336L841,335L809,330L779,324L747,314L709,299L674,286L638,275L606,264L577,256L559,252L547,250L542,250L541,251L540,253L542,257L547,265L560,282L573,300L592,320L613,341L646,362L682,381L719,395L754,407L789,414L819,418L847,418L874,418L894,416L909,413L920,408L927,404L929,402L930,399L929,395L926,392L920,388L914,385L907,383L902,383L893,385L889,389L887,398L887,414L890,430L896,450L905,471L921,494L940,512L965,528L993,541L1022,550L1051,557L1085,564L1116,566L1148,566L1179,566L1208,565L1238,558L1261,551L1285,539L1306,524L1320,512L1331,496L1335,485L1336,480L1336,479L1336,479L1335,479L1332,484L1329,493L1326,510L1322,527L1319,544L1317,558L1317,570L1319,578L1324,583L1333,587L1345,590L1360,591L1377,591L1396,590L1414,584L1428,577L1443,569L1456,560L1466,552L1475,542L1480,532L1482,524L1481,516L1477,507L1471,498L1464,491L1454,484L1441,479L1425,477L1407,476L1389,479L1371,485L1352,494L1332,504L1314,514L1301,522L1292,527L1289,529L1288,530L1288,530L1288,530L1290,530L1293,529L1296,526L1297,522L1298,515L1297,507L1293,500L1284,490L1266,477L1236,458L1192,438L1133,420L1078,408L1023,405L964,409L909,421L853,441L786,467L731,496L682,523L631,553L589,579L559,597L538,609L525,614L519,616L515,616L512,616L509,614L506,612L503,608L497,600L489,591L476,575L461,562L442,546L420,528L391,505L360,482L327,465L299,446L276,434L253,422L236,413L226,408L218,405L212,404L209,403L206,402L204,402L203,402L203,402L204,401L207,394L208,385L208,373" stroke-opacity="1" stroke-width="5" stroke-linecap="round" stroke-linejoin="round" style="-webkit-tap-highlight-color: rgba(0, 0, 0, 0); stroke-opacity: 1; stroke-linecap: round; stroke-linejoin: round; user-select: text;"></path><path fill="none" stroke="#33acff" d="M450,219L450,220L450,220L450,222L451,224L453,230L454,240L456,256L456,276L456,302L455,331L451,366L446,402L441,436L434,460L429,481L420,501L414,511L410,518L407,521L405,524L404,525L402,527L401,528L400,529L397,529L394,530L392,531L389,532L387,533L384,534L381,536L378,539L376,540L373,542L372,544L369,546L367,547L365,548L361,549L358,550" stroke-opacity="1" stroke-width="5" stroke-linecap="round" stroke-linejoin="round" style="-webkit-tap-highlight-color: rgba(0, 0, 0, 0); stroke-opacity: 1; stroke-linecap: round; stroke-linejoin: round; user-select: text;"></path><path fill="none" stroke="#33acff" d="M282,125L282,125L282,124L282,124L282,123L283,121L285,120L288,117L291,115L295,112L301,110L308,106L316,103L323,101L332,99L339,97L347,95L352,93L358,92L363,91L367,90L373,89L377,89L382,89L387,89L393,89L399,89L407,90L417,94L426,97L437,103L454,112L474,124L497,140L522,157L547,177L573,199L598,221L625,242L646,258L664,272L682,284L701,297L715,307L730,316L745,325L759,331L772,337L786,343L798,347L809,351L822,353L835,355L849,355L861,355L874,352L890,348L907,342L925,334L942,324L961,311L981,295L999,280L1012,269L1023,260L1032,250L1036,245L1039,239L1041,235L1041,232L1041,229L1041,227L1039,225L1036,222L1030,220L1024,218L1015,216L1007,215L996,215L982,218L967,224L949,234L930,246L911,261L895,277L879,296L866,315L853,337L843,365L834,396L828,427L824,459L819,494L820,522L817,546L815,567L812,584L808,600L803,614L796,627L787,638L778,649L756,663L731,673L699,684L660,691L618,696L576,696L526,696L475,690L435,683L392,672L349,655L316,635L288,613L265,585L247,554L237,521L230,486L230,455L234,423L243,391L258,359L271,337L290,316L311,298L335,281L364,268L398,258L430,254L468,253L507,254L545,262L578,274L607,288L634,311L658,336L681,367L702,404L714,437L726,465L733,488L740,509L743,520L745,528L747,531L750,533L753,533L758,533L766,533L782,526L803,515L829,500L858,487L892,472L934,456L980,441L1024,427L1081,410L1130,395L1175,382L1218,370L1254,360L1283,351L1305,341L1321,334L1329,326L1333,320L1333,312L1330,303L1323,294L1310,286L1298,280L1282,275L1266,271L1248,269L1227,269L1210,271L1192,274L1179,279L1168,285L1159,291L1154,297L1151,301L1151,304L1151,307" stroke-opacity="1" stroke-width="9" stroke-linecap="round" stroke-linejoin="round" style="-webkit-tap-highlight-color: rgba(0, 0, 0, 0); stroke-opacity: 1; stroke-linecap: round; stroke-linejoin: round; user-select: text;"></path></svg>