<svg height="557" version="1.1" width="721" xmlns="http://www.w3.org/2000/svg" xmlns:xlink="http://www.w3.org/1999/xlink" style="overflow: hidden; position: relative; user-select: text;"><desc style="-webkit-tap-highlight-color: rgba(0, 0, 0, 0); user-select: text;">Created with Raphaël 2.2.0</desc><defs style="-webkit-tap-highlight-color: rgba(0, 0, 0, 0); user-select: text;"></defs><path fill="none" stroke="#ff0000" d="M411,261L410,261L409,261L409,261L408,261L407,261L406,261L404,261L402,261L400,261L398,260L397,259L395,258L393,257L391,256L389,255L387,254L385,252L383,251L381,249L379,248L376,246L374,244L372,242L370,240L369,239L366,236L364,235L362,233L361,232L359,231L357,229L355,227L354,225L352,223L351,222L349,219L348,217L347,214L346,213L345,211L344,206L343,205L342,203L342,200L342,197L341,194L341,192L341,189L341,187L341,185L341,183L341,181L341,180L341,179L341,178L341,177L342,176L343,175L345,174L348,173L350,172L354,171L358,170L363,170L369,170L374,170L380,170L385,171L386,173L389,174L391,175L393,176L395,177L395,178L396,178L396,179L396,179L397,179L397,179" stroke-opacity="1" stroke-width="5" stroke-linecap="round" stroke-linejoin="round" style="-webkit-tap-highlight-color: rgba(0, 0, 0, 0); stroke-opacity: 1; stroke-linecap: round; stroke-linejoin: round; user-select: text;"></path><path fill="none" stroke="#ff0000" d="M568,97L568,97L568,97L566,98L563,101L552,108L543,113L528,123L511,132L492,143L484,148L465,159L450,168L444,172L432,179L424,185L416,190L414,191L411,194L408,196L406,197L405,198L404,198L404,198L404,199L404,199L404,200L406,201L412,204L420,208L437,215L454,221L474,226L485,228L507,235L528,240L548,246L565,250L572,251L587,254L597,256L607,258L615,259L617,259L622,260L626,260L628,260L630,260L631,260L632,260L632,259L631,258L625,254L610,248L590,242L566,236L512,225L493,224L457,221L443,221L417,221L407,221L388,221L375,221L364,223L361,224L355,226L350,227L347,228L345,229L344,229L343,230L342,230L342,230L342,230L341,230L341,230L341,229L341,226L341,221L341,216L341,216L336,216L328,214L320,211L309,207L297,203L275,195L249,186L238,181L217,174L210,171L196,165L193,163L185,159L179,156L176,155L174,153L173,152L173,151L172,150L172,148L172,146L172,144L174,142L177,138L184,131L191,125L201,119L222,109L243,102L266,98L279,98L301,97L308,97L320,97L329,99L336,103L339,107L341,113L342,123L342,132L339,141L332,152L324,163L313,174L291,192L273,201L251,208L226,213L198,218L168,221L139,224L127,226L104,229L96,230L80,233L76,234L67,236L61,238L58,239L56,240L55,240L54,241L54,243L54,244L54,247L56,251L62,256L74,267L88,277L104,287L125,296L146,306L156,311L191,320L199,321L206,322L218,324L226,327L228,328L234,329L238,329L245,330L246,330" stroke-opacity="1" stroke-width="5" stroke-linecap="round" stroke-linejoin="round" style="-webkit-tap-highlight-color: rgba(0, 0, 0, 0); stroke-opacity: 1; stroke-linecap: round; stroke-linejoin: round; user-select: text;"></path></svg>