<svg height="622" version="1.1" width="1019" xmlns="http://www.w3.org/2000/svg" xmlns:xlink="http://www.w3.org/1999/xlink" style="overflow: hidden; position: relative; user-select: text;"><desc style="-webkit-tap-highlight-color: rgba(0, 0, 0, 0); user-select: text;">Created with Raphaël 2.2.0</desc><defs style="-webkit-tap-highlight-color: rgba(0, 0, 0, 0); user-select: text;"></defs><path fill="none" stroke="#ff0000" d="M131,237L131,237L131,236L131,236L131,236L131,235L132,233L145,231L171,229L210,229L264,229L321,229L342,233L359,240L392,251L399,257L418,268L431,277L439,286L444,294L445,300L446,305L446,311L445,319L440,323L434,326L418,329L403,329L367,329L338,319L299,306L280,298L265,292L238,280L231,278L225,275L216,269L210,266L203,261L203,258L204,256L223,252L248,251L286,251L336,251L387,251L409,251L425,253L438,256L446,258L463,261L472,264L484,268L485,271L485,273L482,274L468,276L453,276L417,276L382,266L362,258L347,252L335,247L328,243L313,238L304,233L297,230L294,229L291,227L291,227L302,229L334,242L366,255L408,271L429,279L466,291L479,296L508,304L530,309L536,309L541,310L548,311L553,312L560,312L560,310L558,303L549,293L536,277L505,244L475,214L435,179L394,147L349,119L329,111L292,96L277,94L247,88L224,87L216,87L201,87L190,92L176,102L173,109L173,127L178,151L200,176L229,205L270,236L317,266L369,296L390,306L433,325L448,330L477,341L486,342L504,346L526,346L541,334L543,324L544,318L544,295L536,278L524,257L507,235L488,213L465,193L453,186L432,175L413,169L406,169L392,168L375,168L364,177L362,192L362,225L373,255L386,272L409,303L435,332L461,356L473,365L496,381L514,393L521,396L534,400L545,403L554,403L561,403L566,403L573,399L576,392L578,385L578,375L578,357L571,341L560,322L546,303L530,282L511,262L492,243L470,224L448,211L437,206L414,198L396,193L388,192L360,189L346,189L341,189L330,189" stroke-opacity="1" stroke-width="5" stroke-linecap="round" stroke-linejoin="round" style="-webkit-tap-highlight-color: rgba(0, 0, 0, 0); stroke-opacity: 1; stroke-linecap: round; stroke-linejoin: round; user-select: text;"></path></svg>