<svg height="593" version="1.1" width="375" xmlns="http://www.w3.org/2000/svg" xmlns:xlink="http://www.w3.org/1999/xlink" style="overflow: hidden; position: relative; -webkit-user-select: text;"><desc style="-webkit-tap-highlight-color: rgba(0, 0, 0, 0); -webkit-user-select: text;">Created with Raphaël 2.2.0</desc><defs style="-webkit-tap-highlight-color: rgba(0, 0, 0, 0); -webkit-user-select: text;"></defs><path fill="none" stroke="#ff0000" d="M85,367L97,361L107,349L117,334L129,311L144,288L161,268L174,255L187,244L196,235L203,228L211,223L218,217L226,211L232,208L235,208L235,214L227,238L213,266L198,302L188,328L180,357L176,380L176,391L176,393L181,391L194,370L209,347L221,320L233,293L243,259L248,240L251,233L254,232L264,235L283,251L293,275L294,305L291,333L283,358L278,369L276,370L270,361L263,316L255,265L247,216L245,198L248,192L250,192L253,191L251,193L250,195L236,203L202,221L163,248L130,281L103,317L89,350L89,379L96,406L115,428L130,438L146,440L161,440L178,431L200,421L214,411L225,395L233,369L236,330L237,289L237,252L233,229L229,216L226,208L222,206L216,206L195,226L160,274L143,326L144,368L160,402L177,417L190,420L208,420L222,411L234,398L244,381L252,356L258,319L261,295L264,271L267,255" stroke-opacity="1" stroke-width="5" stroke-linecap="round" stroke-linejoin="round" style="-webkit-tap-highlight-color: rgba(0, 0, 0, 0); stroke-opacity: 1; stroke-linecap: round; stroke-linejoin: round; -webkit-user-select: text;"></path><path fill="none" stroke="#ff0000" d="M311,148L302,131L285,123L249,120L201,123L149,141L106,163L88,178L78,189L74,198L74,204L83,206L99,206L121,206L154,198L193,188L230,175L251,165L264,155L273,144L275,129L273,112L250,92L212,85L178,93L150,119L131,158L130,195L136,216L156,229L180,235L208,237L238,237L266,231L281,222L296,206L306,183L311,155L311,127L300,104L283,97L253,99L215,127L183,165L168,205L164,235L164,255L165,266L167,271L170,271L173,264" stroke-opacity="1" stroke-width="5" stroke-linecap="round" stroke-linejoin="round" style="-webkit-tap-highlight-color: rgba(0, 0, 0, 0); stroke-opacity: 1; stroke-linecap: round; stroke-linejoin: round; -webkit-user-select: text;"></path></svg>