<svg height="318" version="1.1" width="320" xmlns="http://www.w3.org/2000/svg" xmlns:xlink="http://www.w3.org/1999/xlink" style="overflow: hidden; position: relative; user-select: text;"><desc style="-webkit-tap-highlight-color: rgba(0, 0, 0, 0); user-select: text;">Created with Raphaël 2.2.0</desc><defs style="-webkit-tap-highlight-color: rgba(0, 0, 0, 0); user-select: text;"></defs><path fill="none" stroke="#ff0000" d="M102,90L103,84L103,81L103,77L103,72L101,65L98,59L94,53L91,50L89,49L88,49L86,49L84,50L82,60L81,71L82,88L86,111L91,136L99,162L108,179L118,189L128,197L138,201L152,202L169,202L185,197L199,190L213,181L221,172L226,165L228,157L227,149L224,144L220,137L216,132L212,129L209,128L206,127L202,127L199,127L196,129L195,133L194,138L193,144L193,150L193,156L194,160L196,165L198,167L199,169L202,171L206,171L212,171L222,169L229,164L234,159L237,153L239,142L238,132L234,122L227,111L221,104L213,99L202,95L192,93L184,93L180,95L178,98L177,104L177,113L179,123L182,134L186,143L190,150L192,155L197,159L202,163L209,165L219,167L227,165L233,163L237,159L239,156L241,150L240,141L236,132L229,122L220,115L207,108L190,104L171,102L153,102L140,106L132,112L130,117L127,127L127,137L128,147L132,156L136,162L139,166L145,170L150,172L157,173L169,173L179,170L186,167L190,163L193,159L194,154L193,147L190,143L187,139L183,136L175,134L164,133L155,134L147,139L142,144L139,151L136,163L134,177L134,186L135,194L137,201L140,206L143,211L149,216L155,221L163,224L174,226L182,227L186,227L188,227L189,226L189,226L188,226L188,225L187,225L185,225L182,225L178,225L174,227L168,230L163,233L156,237L151,240L145,242L140,243L134,245L130,246L125,247L120,248L116,248L112,248L109,249L107,249L106,249L105,249L104,250L103,250L103,250L103,250L102,250L100,250L99,250L98,249" stroke-opacity="1" stroke-width="5" stroke-linecap="round" stroke-linejoin="round" style="-webkit-tap-highlight-color: rgba(0, 0, 0, 0); stroke-opacity: 1; stroke-linecap: round; stroke-linejoin: round; user-select: text;"></path></svg>