<svg height="318" version="1.1" width="320" xmlns="http://www.w3.org/2000/svg" xmlns:xlink="http://www.w3.org/1999/xlink" style="overflow: hidden; position: relative; user-select: text;"><desc style="-webkit-tap-highlight-color: rgba(0, 0, 0, 0); user-select: text;">Created with Raphaël 2.2.0</desc><defs style="-webkit-tap-highlight-color: rgba(0, 0, 0, 0); user-select: text;"></defs><path fill="none" stroke="#54afff" d="M75,180L75,180L75,180L76,180L77,180L80,180L83,180L86,179L89,178L93,177L96,176L99,175L101,174L103,173L105,173L107,172L109,171L110,171L111,171L112,170L112,170L113,170L114,170L114,170L114,170L115,170L116,171L119,172L120,173L124,175L129,178L133,181L138,185L143,188L147,191L152,194L156,197L159,199L161,201L164,202L166,205L167,205L168,206L169,207L170,208L170,208L171,208L172,209L172,209L172,209L173,208L174,207L175,206L176,204L177,202L178,200L180,198L181,196L182,194L182,193L183,190L184,189L185,188L185,187L186,186L187,184L187,183L188,182L188,180L189,179L190,178L190,177L190,176L191,175L191,174L191,173L192,171L192,169L193,167L193,166L194,164L195,161L195,158L196,155L197,153L198,150L198,148L198,146L199,143L200,142L200,141L200,138L200,137L200,135L200,134L201,131L201,129L201,127L202,125L203,123L204,121L204,118L205,116L206,114L208,111L209,109L211,106L213,104L215,101L216,99L218,96L220,94L221,93L222,91L223,90L223,89L224,88L224,87L225,86L226,85L226,85L227,85L227,84L228,84L230,83L232,83L234,82L236,82L238,81L240,81L243,80L245,80L248,79L250,79L251,79L253,78L254,78L255,78L256,77L258,77L258,77L259,77L260,77L260,77L260,77L261,77L262,79L264,82L265,85L266,90L268,94L269,98L270,100L270,102L270,103L270,104L270,105L270,105L270,106L270,106L269,106L269,106L269,106L269,107L268,107L268,107L268,107L268,107" stroke-opacity="1" stroke-width="5" stroke-linecap="round" stroke-linejoin="round" style="-webkit-tap-highlight-color: rgba(0, 0, 0, 0); stroke-opacity: 1; stroke-linecap: round; stroke-linejoin: round; user-select: text;"></path></svg>