<svg height="593" version="1.1" width="375" xmlns="http://www.w3.org/2000/svg" xmlns:xlink="http://www.w3.org/1999/xlink" style="overflow: hidden; position: relative; -webkit-user-select: text;"><desc style="-webkit-tap-highlight-color: rgba(0, 0, 0, 0); -webkit-user-select: text;">Created with Raphaël 2.2.0</desc><defs style="-webkit-tap-highlight-color: rgba(0, 0, 0, 0); -webkit-user-select: text;"></defs><path fill="none" stroke="#ff0000" d="M151,106L135,103L125,108L110,119L96,139L88,161L85,185L85,208L86,226L94,242L103,251L116,256L135,257L156,254L176,242L189,229L201,212L209,195L214,180L215,168L216,158L216,148L210,138L194,127L172,114L158,109L150,107L144,106L141,106" stroke-opacity="1" stroke-width="5" stroke-linecap="round" stroke-linejoin="round" style="-webkit-tap-highlight-color: rgba(0, 0, 0, 0); stroke-opacity: 1; stroke-linecap: round; stroke-linejoin: round; -webkit-user-select: text;"></path><path fill="none" stroke="#ff0000" d="M309,107L297,106L288,106L278,111L263,122L248,136L232,155L220,174L213,196L211,215L211,232L211,243L212,251L215,256L221,258L233,258L245,248L261,231L271,216L279,196L284,176L286,156L286,139L286,130L286,125L284,122L280,120L276,120L271,120L264,129" stroke-opacity="1" stroke-width="5" stroke-linecap="round" stroke-linejoin="round" style="-webkit-tap-highlight-color: rgba(0, 0, 0, 0); stroke-opacity: 1; stroke-linecap: round; stroke-linejoin: round; -webkit-user-select: text;"></path><path fill="none" stroke="#ff0000" d="M168,197L161,197L157,197L155,197L156,197L172,197L189,197L210,197L231,196L251,196L271,197L287,204L297,212L302,224L302,240L294,255L278,273L260,291L242,312L225,332L216,344L213,352L213,355L216,355L234,352L250,346L261,344L268,344L272,344L271,359L256,380L232,406L212,426L192,441L180,448L172,450L165,449L160,430L160,405L160,376L164,347L169,316L174,288L177,263L180,241L181,224L184,210L187,201L189,195L190,192L186,203L172,222L157,244L141,268L128,291L120,309L116,320L116,327L116,330L131,329L149,318L167,307L180,300L189,298L194,298L197,309L197,334L197,374L204,417L213,450L222,471" stroke-opacity="1" stroke-width="5" stroke-linecap="round" stroke-linejoin="round" style="-webkit-tap-highlight-color: rgba(0, 0, 0, 0); stroke-opacity: 1; stroke-linecap: round; stroke-linejoin: round; -webkit-user-select: text;"></path><path fill="none" stroke="#ff0000" d="M67,36L64,41L64,46L64,57L63,67L62,80L62,93L62,107L62,118L65,127L74,138L83,146L94,155L107,164L116,173L125,185L132,200L134,215L134,227L133,242L128,255L120,267L111,277L103,285L98,293L95,306L95,322L98,339L106,358L120,378L131,392L142,400L151,401L163,397L175,377L183,355L191,331L198,308L205,295L210,288L214,288L221,298L230,321L238,348L245,378L251,405L253,418L254,423L255,423L261,408L269,380L277,341L284,304L292,271" stroke-opacity="1" stroke-width="5" stroke-linecap="round" stroke-linejoin="round" style="-webkit-tap-highlight-color: rgba(0, 0, 0, 0); stroke-opacity: 1; stroke-linecap: round; stroke-linejoin: round; -webkit-user-select: text;"></path><path fill="none" stroke="#ff0000" d="M257,113L257,113" stroke-opacity="1" stroke-width="5" stroke-linecap="round" stroke-linejoin="round" style="-webkit-tap-highlight-color: rgba(0, 0, 0, 0); stroke-opacity: 1; stroke-linecap: round; stroke-linejoin: round; -webkit-user-select: text;"></path><path fill="none" stroke="#0033ff" d="M114,334L114,339L119,351L128,365L141,380L155,391L165,395L175,395L184,381L189,356L192,330L194,310L196,299L200,295L205,295L212,313L221,337L230,364L238,390L243,408L247,420L249,427L250,431L250,435L249,438L238,442L223,449L201,458L177,464L153,466L130,466L115,464L106,459L101,453L100,442L100,429L101,413L107,395L116,374L126,354L138,330L150,308L158,294L164,285L170,281L175,280L183,280L195,285L211,287L229,287L247,273L261,252L272,225L276,195L276,165L273,135L263,112L255,100L248,92L241,88L233,88L226,88L217,88L205,90L193,92L180,93L168,94L159,94L153,94L149,94L148,93L148,84L154,69L163,53L171,42L178,34L188,29L200,28L213,28L229,32L245,39L260,48L273,60L281,71" stroke-opacity="1" stroke-width="5" stroke-linecap="round" stroke-linejoin="round" style="-webkit-tap-highlight-color: rgba(0, 0, 0, 0); stroke-opacity: 1; stroke-linecap: round; stroke-linejoin: round; -webkit-user-select: text;"></path><path fill="none" stroke="#0033ff" d="M284,141L273,165L258,189L248,204L240,219L235,237L234,257L234,277L234,297L235,315L235,328L235,335" stroke-opacity="1" stroke-width="5" stroke-linecap="round" stroke-linejoin="round" style="-webkit-tap-highlight-color: rgba(0, 0, 0, 0); stroke-opacity: 1; stroke-linecap: round; stroke-linejoin: round; -webkit-user-select: text;"></path><path fill="none" stroke="#0033ff" d="M116,59L105,54L102,54L100,56L96,67L91,89L89,108L88,126L88,135L88,138L92,138L101,134L115,121L128,110L138,106L146,106L154,107L159,129L160,156L160,184L160,205L160,224L160,235L160,241L161,244L168,244L176,243L182,240L187,238L189,238L189,240L181,259L165,281L146,304L126,325L111,342L101,355L97,365L94,371L94,375L94,377L100,378L110,378L119,378L125,378L131,378L133,384L132,400L121,424L112,447L106,464L106,476L106,482L111,484L130,475L151,454L179,425L204,400L219,382L229,373L233,372L236,375L236,399L236,423L237,441L241,459L247,468L253,472L263,472L271,460L276,438L279,419L281,403L283,395L284,392L286,391L290,391L293,391L299,391L308,386L318,366L325,341L331,310L334,280L334,251L334,230L334,217L335,212L335,208L337,208L341,208L346,208L352,206L355,195L355,178L351,161L339,139L327,119L315,100L307,86L299,80L292,78L283,80L267,97L250,117L231,140L215,161L201,180L193,195L189,206L188,215L188,220L197,225L212,231L223,242L230,257L232,277L232,297L229,317L222,342L216,368L212,396L210,424L206,447L201,460L194,469L186,473L174,473L163,472L149,462L132,443L118,415L109,378L109,344L113,312L121,286L134,257L146,231L157,211L163,196L167,187L167,181L167,178L156,178L140,178L125,179L112,181L103,185L97,190L93,206L93,231L95,259L100,289L104,314L106,324L109,324L110,297L112,251L115,203L115,157L115,131L115,121L114,121L105,142L93,196L86,253" stroke-opacity="1" stroke-width="5" stroke-linecap="round" stroke-linejoin="round" style="-webkit-tap-highlight-color: rgba(0, 0, 0, 0); stroke-opacity: 1; stroke-linecap: round; stroke-linejoin: round; -webkit-user-select: text;"></path><path fill="none" stroke="#0033ff" d="M92,53L97,58L105,58L117,59L131,61L148,63L160,65L174,68L186,71L197,76L205,81L210,89L211,97L211,106L207,118L199,130L190,145L183,159L180,168L180,174L181,176L192,176L207,171L218,164L229,157L234,154L235,154L233,155L218,173L202,195L189,218L178,241L173,260L171,273L171,281L172,284L180,285L189,280L197,266L200,248L200,223L195,204L186,187L175,179L164,179L152,195L143,231L141,265L142,300L150,324L162,340L177,346L196,336L211,301" stroke-opacity="1" stroke-width="5" stroke-linecap="round" stroke-linejoin="round" style="-webkit-tap-highlight-color: rgba(0, 0, 0, 0); stroke-opacity: 1; stroke-linecap: round; stroke-linejoin: round; -webkit-user-select: text;"></path></svg>