<svg height="612" version="1.1" width="498" xmlns="http://www.w3.org/2000/svg" xmlns:xlink="http://www.w3.org/1999/xlink" style="overflow: hidden; position: relative; user-select: text;"><desc style="-webkit-tap-highlight-color: rgba(0, 0, 0, 0); user-select: text;">Created with Raphaël 2.2.0</desc><defs style="-webkit-tap-highlight-color: rgba(0, 0, 0, 0); user-select: text;"></defs><path fill="none" stroke="#ff0000" d="M146,122L145,124L145,124L144,124L144,124L143,124L142,124L141,124L140,123L138,120L137,117L135,113L134,110L133,106L132,100L132,96L132,92L132,88L132,85L132,81L132,78L133,75L135,73L137,70L138,69L139,66L141,64L143,62L144,61L146,59L152,57L155,56L157,55L160,55L166,54L170,54L173,54L176,54L178,56L182,61L184,67L184,75L184,87L184,102L183,117L175,151L172,159L168,172L164,184L161,193L159,201L157,208L154,218L153,224L153,229L153,231L154,232L156,234L159,236L171,240L175,241L186,244L195,246L209,248L233,250L239,250L247,251L254,251L256,251L261,252L263,252L266,253L266,254L265,256L260,258L255,259L247,261L239,261L224,261L215,261L207,260L202,259L200,258L197,257L196,253L196,251L196,249L196,246L196,242L197,236L199,224L199,217L200,210L200,204L200,202L200,197L200,191L200,189L200,187L200,187L201,186L204,186L214,185L225,185L240,185L247,186L256,188L262,188L265,189L268,189L272,189L275,189L276,185L277,178L277,173L277,168L277,162L277,160L277,154L277,151L277,149L277,147L277,146L278,145L280,145L283,145L287,145L291,145L300,148L302,149L305,150L307,152L310,154L313,157L315,158L316,160L316,160L316,160L316,160L317,161L317,161L317,162" stroke-opacity="1" stroke-width="5" stroke-linecap="round" stroke-linejoin="round" style="-webkit-tap-highlight-color: rgba(0, 0, 0, 0); stroke-opacity: 1; stroke-linecap: round; stroke-linejoin: round; user-select: text;"></path><path fill="none" stroke="#1200ff" d="M272,221L272,221L272,221L273,221L275,221L277,221L278,221L280,221L282,221L284,221L286,221L287,221L289,221L290,221L291,221L291,221L292,221L293,221L293,221L293,221L293,221L294,221L294,222L295,222L295,223L295,223L295,224L296,224L296,224L296,225L296,225L297,226L298,227L298,228L299,229L300,230L301,230L302,231L303,232L304,232L305,233L306,233L307,233L308,234L309,234L310,234L311,234L312,234L313,234L314,234L315,233L315,233L316,232L317,231L318,231L318,230L319,228L319,227L319,226L320,224L320,222L320,221L320,219L320,216L320,214L319,211L318,208L316,206L315,204L313,200L312,199L310,196L308,194L306,192L305,190L303,188L302,187L301,186L300,185L299,184L298,183L298,183L298,182L298,182L297,181L297,181L297,181L297,181L297,180L297,180L297,180L297,179L298,179L298,178L299,178L300,177L300,177L301,176L302,176L302,175L303,175L303,175L304,174L305,174L305,174L306,174L307,174L308,174L308,174L309,174L310,175L311,176L313,179L314,181L315,182L316,184L317,187L317,188L318,189L319,191L319,191L319,192L319,192L320,193L320,193L321,193L321,193L322,193L322,193L323,193L324,193L326,192L326,192L328,190L329,189L331,188L332,186L334,185L335,184L336,182L337,181L338,180L339,178L340,177L341,176L341,175L342,173L342,172L343,170L343,169L343,168L343,166L344,165L344,163L344,162L344,160L344,159L344,157L344,156L344,154L344,151L344,148L345,145L345,142L345,139L345,135L345,131L345,127L344,123L343,122L342,119L340,116L339,114L338,112L337,111L336,110L334,110L334,109L333,109L332,109L331,109L330,108L329,108L328,108L327,108L325,108L324,108L322,107L320,107L318,107L316,107L314,107L312,107L310,107L308,106L307,106L306,106L304,106L303,106L302,106L301,106L300,106L299,106L298,106L297,106L296,106L295,106L294,106L293,106L292,106L291,106L291,107L290,107L289,107L289,107L288,107L288,107L287,107L286,107L285,107L285,107L284,107L283,107L282,107L282,107L281,107L280,107L279,107L278,107L278,107L276,107L276,108L274,108L273,108L272,109L271,109L270,110L270,110L269,111L268,112L267,113L266,114L265,115L264,117L263,118L262,119L262,121L261,122L261,123L260,123L260,124L260,125L260,125L260,126L259,126L259,127L259,127L259,128L259,128L259,129L259,129L259,130L259,131L259,132L259,133L259,134L259,136L259,137L259,138L260,140L260,142L260,143L261,144L261,145L261,146L262,146L262,147L262,147L262,147L262,148L262,148L262,148L262,148L262,149L262,149L262,149L261,150L260,151L259,152L257,153L256,154L255,156L253,157L251,158L250,159L249,160L248,160L247,161L246,161L245,162L245,162L245,162L244,163L243,163L242,163L241,163L241,163L240,163L239,163L237,163L235,163L233,163L231,163L229,163L226,163L226,163L223,163L221,163L219,163L217,163L215,163L214,163L213,163L211,163L210,163L209,163L209,163L208,163L208,163L208,163L207,163L207,163L207,162L207,160L207,158L208,155L209,152L210,149L211,146L212,144L213,142L214,139L215,136L216,134L217,131L218,130L219,128L220,126L221,125L221,124L222,124L222,124L223,123L223,123L223,123L223,123L223,122L223,120L223,117L224,114L225,111L226,107L228,103L229,99L231,95L233,91L236,87L236,86L239,81L240,80L242,77L244,74L246,72L248,69L249,67L251,64L253,62L254,59L256,57L257,55L258,53L260,51L261,49L261,48L262,46L263,45L264,44L265,44L266,44L268,44L269,44L270,44L272,44L274,44L275,44L277,45L278,45L280,46L281,47L282,48L283,49L285,49L286,50L287,50L288,51L289,51L291,51L292,51L294,51L296,51L298,51L301,51L303,51L307,51L310,51L313,51L317,52L321,54L324,55L328,57L332,60L333,60L336,62L339,63L341,64L343,64L344,65L346,65L347,66L348,66L349,66L349,66L350,66L350,66L351,66L351,66L351,66L351,66L352,66L352,66L352,67L352,67L355,67L359,67L361,68L364,69L366,69L368,71L369,71L371,72L372,73L373,75L374,76L375,76L375,77L376,78L376,78L376,79L377,80L377,80L377,81L377,82L377,83L378,84L379,85L380,88L382,90L383,92L384,93L387,96L387,98L389,100L390,102L391,105L392,109L393,111L393,112L393,116L393,117L393,119L393,122L393,124L391,128L391,129L390,131L388,134L387,135L386,138L384,140L383,142L381,144L380,146L379,148L378,149L376,151L375,152L375,152L374,152L374,153L374,153L374,153L374,153L375,154L375,154L375,154L376,154L376,155L376,155L376,156L376,158L376,159L376,160L374,164L372,165L372,166L371,168L370,168L369,169L369,170L368,171L368,171L367,172L367,173L367,174L366,176L366,176L366,177L366,178L366,180L365,181L365,182L365,183L364,184L363,186L363,187L362,188L362,189L362,190L362,190L361,191L361,192L360,194L360,194L359,195L359,195L359,196L357,197L356,197L355,198L354,198L353,199L353,199L352,199L351,200L350,200L349,200L348,201L347,201L347,202L347,202L347,202L347,202L347,203L346,203L346,204L346,205L345,207L344,211L344,213L343,215L343,215L343,216L343,217L343,217L343,218L343,220L343,221L343,224L344,227L344,230L344,231L344,232L344,235L344,235L344,236L344,238L339,244L332,253L332,253L331,254L331,255L330,256L328,257L326,260L325,261L321,263L319,263L317,264L316,264L314,265L310,266L309,266L306,266L304,266L303,266L301,266L300,266L299,267L299,267L296,268L295,268L294,268L294,268L292,268L291,268L290,268L289,268L289,268L287,268L287,267L286,267L286,267L285,266L284,266L283,265L281,264L280,264L277,262L276,262L276,262L275,261L274,261L274,261L273,260L272,260L271,259L269,259L269,258L268,258L268,258L267,257L267,257L266,257L266,257L265,257L264,256L263,256L264,256L266,257L269,258L271,260L274,261L278,263L279,264L283,267L285,268L287,270L288,271L288,271L288,271L288,272L288,272L288,272L288,272L287,271L286,269L285,268L283,267L282,265L281,263L280,261L278,258L276,254L276,252L275,248L275,247L274,245L274,243L274,242L274,240L274,238L274,234L274,232L274,230L275,230L275,230L275,229L275,228L275,228L273,227L270,227L267,227L263,227L261,227L260,227L257,227L256,228L254,234L254,235L254,238L254,239L254,240L255,241L254,255L249,271L244,287L241,296L239,301L239,303L238,304L238,305L238,305L238,305L241,306L257,306L262,306L268,305L277,302L278,302L278,302L272,301L267,300L252,291L250,288L250,286L250,282L250,280L253,270L257,265L261,261L269,254L269,254L269,254L268,254L267,254L264,254L263,254L259,253L257,252L256,251L255,250L255,250L256,250L257,250L259,250L260,251L261,258L262,261L262,267L262,268L262,271L262,271L261,271L263,271L268,271L279,271L291,272L298,274L300,276L300,277L300,284L302,302L309,311L314,311L327,298L334,290L338,286L351,273L359,269L361,269L361,270L360,275L349,288L343,289L332,290L323,288L303,272L301,266L301,265L301,260L301,257L305,251L307,248L313,238L325,220L326,218L328,213L328,212L329,207L330,207L330,205L330,204" stroke-opacity="1" stroke-width="5" stroke-linecap="round" stroke-linejoin="round" style="-webkit-tap-highlight-color: rgba(0, 0, 0, 0); stroke-opacity: 1; stroke-linecap: round; stroke-linejoin: round; user-select: text;"></path></svg>