<svg height="558" version="1.1" width="499" xmlns="http://www.w3.org/2000/svg" xmlns:xlink="http://www.w3.org/1999/xlink" style="overflow: hidden; position: relative; user-select: text;"><desc style="-webkit-tap-highlight-color: rgba(0, 0, 0, 0); user-select: text;">Created with Raphaël 2.2.0</desc><defs style="-webkit-tap-highlight-color: rgba(0, 0, 0, 0); user-select: text;"></defs><path fill="none" stroke="#ff0000" d="M282,233L282,233L282,234L282,234L283,236L284,237L290,240L296,242L303,243L310,244L315,244L323,244L331,244L337,244L344,241L348,238L352,234L356,228L358,223L361,211L361,201L361,181L360,172L355,156L345,127L335,105L322,82L306,54L286,28L277,19L270,13L257,4L208,1L201,11L193,22L187,35L185,40L180,51L176,61L172,71L170,79L168,88L167,94L165,102L164,109L164,116L164,124L164,137L164,147L164,157L166,169L167,174L170,182L172,189L174,192L176,196L177,199L179,202L180,203L180,204L181,204L182,205" stroke-opacity="1" stroke-width="5" stroke-linecap="round" stroke-linejoin="round" style="-webkit-tap-highlight-color: rgba(0, 0, 0, 0); stroke-opacity: 1; stroke-linecap: round; stroke-linejoin: round; user-select: text;"></path></svg>