<svg height="532" version="1.1" width="895" xmlns="http://www.w3.org/2000/svg" xmlns:xlink="http://www.w3.org/1999/xlink" style="overflow: hidden; position: relative; user-select: text;"><desc style="-webkit-tap-highlight-color: rgba(0, 0, 0, 0); user-select: text;">Created with Raphaël 2.2.0</desc><defs style="-webkit-tap-highlight-color: rgba(0, 0, 0, 0); user-select: text;"></defs><path fill="none" stroke="#ff0000" d="M158,185L158,185L157,185L156,185L155,185L154,185L153,185L151,183L150,182L149,180L148,180L146,177L145,174L142,170L142,168L140,166L140,165L139,163L139,161L138,160L138,158L137,156L137,155L136,154L136,153L136,151L135,150L135,149L135,148L135,148L134,147L134,146L134,145L133,144L133,144L133,143L132,143L132,143L132,142L132,141" stroke-opacity="1" stroke-width="5" stroke-linecap="round" stroke-linejoin="round" style="-webkit-tap-highlight-color: rgba(0, 0, 0, 0); stroke-opacity: 1; stroke-linecap: round; stroke-linejoin: round; user-select: text;"></path><path fill="none" stroke="#ff0000" d="M144,126L144,126L144,126L144,127L144,128L144,129L144,129L144,130L144,131L144,132L144,133L145,133L145,134L145,134L145,134L145,135L145,136L145,136L146,137L146,137L146,138L146,140L146,141L146,142L146,144L146,146L146,147L146,149L146,150L146,152L146,153L146,154L146,155L146,156L146,156L146,157L146,158L146,158L146,159L146,159L146,159L145,160L145,160L145,160L145,161L145,161L145,161L145,162L145,162L145,163L145,163L145,164L145,164L145,165L145,166L145,166L145,167L146,168L146,169L146,169L146,169L146,169L146,170L147,170L147,170L147,170L147,171L147,171L147,171L147,171L147,172L147,172L147,173L147,174L147,176L146,177L145,179L143,182L138,187L136,190L134,192L132,194L130,196L129,198L127,199L126,200L125,201L124,202L124,202L124,202L123,202L123,202L123,202L123,202L123,201L123,200L123,199L122,198L122,196L122,195L122,193L121,191L121,189L121,188L120,186L120,185L119,184L119,183L119,182L118,181L118,181L118,180L118,180L118,179L118,179L119,179L119,179L120,179L121,179L122,179L124,179L125,180L126,180L127,180L128,180L129,180L130,180L131,180L132,180L133,180L134,179L137,178L138,177L140,176L142,175L144,174L146,173L147,172L149,171L151,170L153,170L153,169L155,168L155,168L156,167L157,167L158,166L159,166L159,165L160,165L161,165L161,164L162,164L163,163L163,163L164,163L165,163L165,162L166,162L166,162L167,162L167,161L167,161L167,161L167,161L167,161L167,161L167,160L166,160L165,159L164,159L164,159L163,158L162,158L161,157L160,157L160,157L159,156L158,156L157,156L157,156L156,156L155,156L155,156L154,156L153,156L153,156L152,156L151,156L151,156L150,156L149,157L148,158L147,158L146,159L146,160L145,161L144,162L143,163L142,164L142,165L141,166L140,167L139,168L138,169L138,170L137,170L136,171L135,171L134,171L133,172L132,172L131,172L129,172L128,172L127,172L126,172L124,172L123,172L122,172L121,172L119,172L118,172L117,172L116,172L115,171L113,171L112,170L112,170L111,169L110,169L110,168L109,168L109,167L109,166L108,165L108,165L108,164L108,159L109,155L110,153L111,151L114,148L116,146L123,140L126,138L130,136L135,133L138,132L145,131L146,131L146,131L147,131L147,131L147,132L147,133L147,134L147,137L147,139L147,142L146,148L146,151L146,154L146,158L146,162L146,170L147,173L147,175L150,181L150,183L152,188L154,192L155,195L156,197L160,204L161,206L163,209L164,212L164,213L165,215L166,216L166,217L166,217L166,218L166,219L166,221L166,221L166,221L165,222L165,222L165,222L165,222L166,222L169,221L171,219L175,217L182,213L191,205L196,201L198,199L202,195L207,189L209,187L210,184L211,183L211,181L210,180L209,180L208,179L206,179L204,179L202,179L200,179L194,179L190,179L186,179L183,179L173,179L162,178L157,177L155,176L151,176L145,174L143,173L142,173L138,171L138,171L138,171L137,170" stroke-opacity="1" stroke-width="5" stroke-linecap="round" stroke-linejoin="round" style="-webkit-tap-highlight-color: rgba(0, 0, 0, 0); stroke-opacity: 1; stroke-linecap: round; stroke-linejoin: round; user-select: text;"></path><path fill="none" stroke="#6eff00" d="M96,199L96,199L96,197L96,197L96,195L96,193L96,192L96,190L96,189L96,188L96,187L96,186L96,185L96,185L96,184L97,184L97,184L98,183L99,183L99,182L100,182L101,181L101,181L102,181L103,180L104,180L105,179L106,179L107,178L109,177L111,176L113,176L115,176L117,175L119,175L122,175L123,175L125,175L127,175L128,175L129,175L131,175L132,175L133,175L134,175L137,176L138,176L139,176L141,177L143,178L145,178L147,179L149,180L150,180L152,181L154,181L155,182L156,183L157,183L158,184L158,185L159,187L160,188L160,190L160,193L161,197L161,201L161,206L161,211L161,215L161,217L161,223L161,228L161,231L160,233L159,238L158,239L157,242L156,245L155,247L153,249L151,252L150,252L149,254L147,254L145,255L143,255L141,256L139,256L136,256L135,256L133,256L131,256L130,255L127,253L126,251L124,248L122,245L121,243L120,239L119,236L119,233L119,229L119,226L119,221L119,217L119,213L119,211L119,208L119,205L120,202L121,199L122,198L123,195L124,193L126,191L129,189L132,185L135,184L137,183L140,182L143,181L145,180L149,179L151,179L154,179L157,178L159,178L161,178L164,178L166,178L168,178L170,179L171,180L173,182L175,184L176,187L178,190L179,194L180,198L181,202L183,206L183,208L185,212L186,215L188,220L190,222L191,224L194,228L196,230L199,232L201,234L205,236L208,237L211,238L213,239L218,239L221,239L229,237L233,233L237,228L240,221L241,217L244,206L243,205L242,201L240,199L237,195L234,193L229,190L226,189L218,187L213,187L212,187L206,187L203,187L200,187L196,188L193,190L189,192L184,195L180,198L176,201L168,208L165,211L161,214L158,218L156,221L154,223L153,224L152,226L151,228L151,231L151,234L152,236L155,240L158,243L161,246L165,250L172,256L174,257L176,260L179,261L182,263L184,264L185,265L185,265L187,265L189,266L190,266L191,266L194,265L196,263L197,261L203,248L206,239L209,229L211,213L213,195L213,190L213,180L213,170L207,155L202,150L192,140L182,134L169,129L162,127L155,126L152,125L150,125L146,123L144,123L142,122L139,119L137,117L135,115L133,111L132,109L132,106L131,104L131,100L131,98L131,96L131,95L131,94L131,93L131,94" stroke-opacity="1" stroke-width="5" stroke-linecap="round" stroke-linejoin="round" style="-webkit-tap-highlight-color: rgba(0, 0, 0, 0); stroke-opacity: 1; stroke-linecap: round; stroke-linejoin: round; user-select: text;"></path></svg>