<svg height="622" version="1.1" width="789" xmlns="http://www.w3.org/2000/svg" xmlns:xlink="http://www.w3.org/1999/xlink" style="overflow: hidden; position: relative; user-select: text;"><desc style="-webkit-tap-highlight-color: rgba(0, 0, 0, 0); user-select: text;">Created with Raphaël 2.2.0</desc><defs style="-webkit-tap-highlight-color: rgba(0, 0, 0, 0); user-select: text;"></defs><path fill="none" stroke="#3800ff" d="M383,302L383,301L383,300L383,298L383,292L383,283L384,275L386,271L389,265L396,261L416,259L455,259L515,277L549,305L567,335L572,358L572,378L567,400L556,413L532,429L510,440L479,453L449,461L430,463L416,464L398,461L383,451L373,439L360,417L357,395L357,373L361,347L372,321L380,302L384,294L386,291L387,290" stroke-opacity="1" stroke-width="5" stroke-linecap="round" stroke-linejoin="round" style="-webkit-tap-highlight-color: rgba(0, 0, 0, 0); stroke-opacity: 1; stroke-linecap: round; stroke-linejoin: round; user-select: text;"></path></svg>