<svg height="494" version="1.1" width="320" xmlns="http://www.w3.org/2000/svg" xmlns:xlink="http://www.w3.org/1999/xlink" style="overflow: hidden; position: relative; -webkit-user-select: text;"><desc style="-webkit-tap-highlight-color: rgba(0, 0, 0, 0); -webkit-user-select: text;">Created with Raphaël 2.2.0</desc><defs style="-webkit-tap-highlight-color: rgba(0, 0, 0, 0); -webkit-user-select: text;"></defs><path fill="none" stroke="#ff51ca" d="M96,197L97,213L97,221L98,229L98,239L100,248L104,254L111,258L117,259L126,259L136,259L146,257L155,254L164,251L172,250L180,249L187,248L193,248L199,248L206,248L211,249L215,252L219,255L222,258L225,262L227,268L230,274L231,280L232,286L232,292L232,299L232,305L230,310L226,316L220,321L211,326L204,329L197,329L189,329L180,329L173,326L167,322L163,318L159,312L158,306L158,300L158,293L162,285L172,278L183,272L191,268L200,264L211,260L219,256L226,250L231,243L236,234L240,226L243,217L245,210L245,202L245,194L243,187L238,180L232,175L224,171L213,167L203,164L198,160L195,157L193,154L193,149L193,143L196,138L200,134L203,131L205,129L207,128L208,128L207,128" stroke-opacity="1" stroke-width="5" stroke-linecap="round" stroke-linejoin="round" style="-webkit-tap-highlight-color: rgba(0, 0, 0, 0); stroke-opacity: 1; stroke-linecap: round; stroke-linejoin: round; -webkit-user-select: text;"></path><path fill="none" stroke="#ff51ca" d="M47,65L54,69L56,72L59,76L62,79L67,83L74,86L82,87L90,88L101,88L110,87L118,84L124,80L131,76L136,71L143,66L149,62L155,58L161,55L168,52L177,50L185,48L194,48L204,48L213,49L221,52L226,56L232,60L236,64L240,68L243,71L246,74L247,75L248,76L248,77L248,78L248,80L248,83L248,88L245,96L242,106L237,114L230,125L217,135L200,143L188,148L177,149L164,149L156,142L149,131L144,121L142,110L140,102L138,97L136,91L134,88L130,87L127,87L124,87L121,88L118,91L116,94L114,97L113,99L113,101L113,102L114,102L115,101L116,101L116,102L108,112L98,127L92,140L85,159L82,175L80,193L80,207L80,221L80,231L85,238L91,242L105,242L120,241L139,234L156,227L169,222L184,219L194,219L206,220L214,229L218,241L219,256L215,276L203,295L189,311L173,324L159,329L144,329L131,325L123,314L118,308L116,304L116,303L116,302L116,304L113,310L107,318L101,327L98,337L96,344L95,352L95,360L97,367L102,371L106,374L110,376L112,377L113,377L114,377" stroke-opacity="1" stroke-width="5" stroke-linecap="round" stroke-linejoin="round" style="-webkit-tap-highlight-color: rgba(0, 0, 0, 0); stroke-opacity: 1; stroke-linecap: round; stroke-linejoin: round; -webkit-user-select: text;"></path></svg>