<svg height="494" version="1.1" width="320" xmlns="http://www.w3.org/2000/svg" xmlns:xlink="http://www.w3.org/1999/xlink" style="overflow: hidden; position: relative; -webkit-user-select: text;"><desc style="-webkit-tap-highlight-color: rgba(0, 0, 0, 0); -webkit-user-select: text;">Created with Raphaël 2.2.0</desc><defs style="-webkit-tap-highlight-color: rgba(0, 0, 0, 0); -webkit-user-select: text;"></defs><path fill="none" stroke="#ff4747" d="M83,58L85,65L85,71L85,78L85,87L86,98L86,107L87,117L88,127L89,133L89,138L90,141L90,143L90,144" stroke-opacity="1" stroke-width="5" stroke-linecap="round" stroke-linejoin="round" style="-webkit-tap-highlight-color: rgba(0, 0, 0, 0); stroke-opacity: 1; stroke-linecap: round; stroke-linejoin: round; -webkit-user-select: text;"></path><path fill="none" stroke="#ff4747" d="M51,86L58,86L65,86L74,86L85,86L95,89L107,94L118,99L126,104L136,112L144,121L149,130L153,139L154,147L155,156L155,167L153,176L149,186L141,196L135,204L129,211L124,218L120,223L117,227L115,230L114,232L113,233L113,234L113,235" stroke-opacity="1" stroke-width="5" stroke-linecap="round" stroke-linejoin="round" style="-webkit-tap-highlight-color: rgba(0, 0, 0, 0); stroke-opacity: 1; stroke-linecap: round; stroke-linejoin: round; -webkit-user-select: text;"></path><path fill="none" stroke="#ff4747" d="M133,282L123,281L115,281L108,280L100,276L92,271L84,264L74,255L66,245L61,237L56,228L54,217L53,209L53,198L53,189L54,182L58,175L64,169L71,163L81,156L89,151L98,145L111,138L122,130L134,121L148,112L156,103L161,95L165,89L168,81L169,76L169,72L170,70L170,69" stroke-opacity="1" stroke-width="5" stroke-linecap="round" stroke-linejoin="round" style="-webkit-tap-highlight-color: rgba(0, 0, 0, 0); stroke-opacity: 1; stroke-linecap: round; stroke-linejoin: round; -webkit-user-select: text;"></path><path fill="none" stroke="#ff4747" d="M145,69L147,75L147,82L147,94L148,110L149,128L149,146L150,165L150,179L150,190L150,196L150,202L150,204L145,204" stroke-opacity="1" stroke-width="5" stroke-linecap="round" stroke-linejoin="round" style="-webkit-tap-highlight-color: rgba(0, 0, 0, 0); stroke-opacity: 1; stroke-linecap: round; stroke-linejoin: round; -webkit-user-select: text;"></path><path fill="none" stroke="#ff4747" d="M58,155L64,154L71,154L82,154L95,154L113,154L131,154L150,154L167,154L180,154L188,154L194,154L199,154L200,154L201,154L200,155" stroke-opacity="1" stroke-width="5" stroke-linecap="round" stroke-linejoin="round" style="-webkit-tap-highlight-color: rgba(0, 0, 0, 0); stroke-opacity: 1; stroke-linecap: round; stroke-linejoin: round; -webkit-user-select: text;"></path><path fill="none" stroke="#ff4747" d="M183,152L207,154L213,155L218,160L221,165L224,170L226,178L227,186L227,195L227,206L225,215L221,223L215,229L210,234L207,237L204,240L201,242L199,243" stroke-opacity="1" stroke-width="5" stroke-linecap="round" stroke-linejoin="round" style="-webkit-tap-highlight-color: rgba(0, 0, 0, 0); stroke-opacity: 1; stroke-linecap: round; stroke-linejoin: round; -webkit-user-select: text;"></path><path fill="none" stroke="#ff4747" d="M95,242L100,244L106,248L113,252L120,255L132,258L150,259L172,259L194,258L215,253L230,244L239,236L243,227L243,217L243,206L236,194L231,186L226,180L220,174L213,169L208,165L201,161L194,157L186,153L177,150L166,147L154,144L141,142L131,138L123,134L116,128L112,123L108,116L106,109L106,100L106,92L106,85L106,79L107,76L108,74L108,73L109,73" stroke-opacity="1" stroke-width="5" stroke-linecap="round" stroke-linejoin="round" style="-webkit-tap-highlight-color: rgba(0, 0, 0, 0); stroke-opacity: 1; stroke-linecap: round; stroke-linejoin: round; -webkit-user-select: text;"></path><path fill="none" stroke="#ff4747" d="M42,77L52,72L63,68L83,62L102,56L125,48L152,37L168,31L177,28L183,25L186,24L187,23L188,23L183,23" stroke-opacity="1" stroke-width="5" stroke-linecap="round" stroke-linejoin="round" style="-webkit-tap-highlight-color: rgba(0, 0, 0, 0); stroke-opacity: 1; stroke-linecap: round; stroke-linejoin: round; -webkit-user-select: text;"></path><path fill="none" stroke="#ff4747" d="M62,17L64,15L72,15L86,15L102,16L122,23L139,33L155,47L169,63L182,80L188,95L191,108L192,117L193,125L193,130L193,132L193,133L192,133" stroke-opacity="1" stroke-width="5" stroke-linecap="round" stroke-linejoin="round" style="-webkit-tap-highlight-color: rgba(0, 0, 0, 0); stroke-opacity: 1; stroke-linecap: round; stroke-linejoin: round; -webkit-user-select: text;"></path><path fill="none" stroke="#ff4747" d="M206,6L211,12L216,18L224,28L232,41L237,53L240,64L240,78L237,91L231,103L222,114L208,126L197,134L186,142L173,149L162,156L153,165L143,173L137,181L132,190L130,198L129,210L129,220L129,228L129,237L131,245L134,249L136,252L138,254L139,255L139,256L140,256" stroke-opacity="1" stroke-width="5" stroke-linecap="round" stroke-linejoin="round" style="-webkit-tap-highlight-color: rgba(0, 0, 0, 0); stroke-opacity: 1; stroke-linecap: round; stroke-linejoin: round; -webkit-user-select: text;"></path></svg>