<svg height="906" version="1.1" width="768" xmlns="http://www.w3.org/2000/svg" xmlns:xlink="http://www.w3.org/1999/xlink" style="overflow: hidden; position: relative; -webkit-user-select: text;"><desc style="-webkit-tap-highlight-color: rgba(0, 0, 0, 0); -webkit-user-select: text;">Created with Raphaël 2.2.0</desc><defs style="-webkit-tap-highlight-color: rgba(0, 0, 0, 0); -webkit-user-select: text;"></defs><path fill="none" stroke="#090000" d="M58,764L68,754L70,752L71,750L73,747L75,744L77,742L80,738L84,734L88,729L92,724L96,719L100,713L104,708L109,703L113,698L118,693L122,688L126,682L132,676L138,669L144,661L150,654L156,647L161,640L168,633L174,625L179,618L186,611L192,604L198,597L205,589L211,581L218,574L225,566L230,559L237,552L242,544L248,537L253,532L259,525L264,520L270,513L275,507L280,501L286,495L292,489L297,483L302,477L307,472L312,466L316,461L319,457L324,452L328,447L331,443L335,438L338,435L341,432L344,429L345,427L347,425L348,423L349,423L349,422L350,422L351,422L351,423L351,426L351,430L352,433L352,438L353,443L353,449L353,455L353,462L354,468L354,475L355,482L356,489L356,496L357,504L358,511L360,518L361,525L362,532L363,537L363,543L364,547L364,550L364,551L363,551L360,551L356,547L352,544L346,540L339,533L330,527L320,519L310,512L300,505L290,498L281,492L273,486L266,483L259,479L253,475L248,472L244,469L241,467L239,466L238,465L237,463L237,461L237,458L237,454L240,447L244,437L250,426L257,412L264,399L270,387L275,377L280,368L284,362L288,356L290,351L292,349L292,347L293,346L293,345L291,344L288,342L284,340L279,337L273,333L266,328L259,323L251,317L246,312L239,307L234,302L228,297L224,294L221,292L219,290L217,290L216,290L215,290L214,291L213,294L211,298L208,304L202,312L196,321L189,331L182,341L176,350L173,355L171,358L171,359L174,359L178,359L183,359L191,359L198,359L207,359L216,357L227,354L239,351L252,347L266,343L281,338L296,334L311,330L325,326L338,323L352,320L367,316L381,312L395,307L409,303L421,299L433,296L446,292L458,289L471,285L484,282L497,278L509,275L519,272L526,269L532,268L536,266L538,265L539,265L540,265L540,266L539,267L538,269L537,272L536,278L534,286L533,294L531,304L531,314L530,325L530,336L530,346L530,357L530,367L530,377L532,388L534,399L536,411L538,422L540,432L541,441L543,451L544,459L545,465L546,470L546,473L547,475L547,476L546,476L545,475L543,473L541,471L537,468L533,465L527,460L521,455L515,449L509,445L503,440L497,435L491,429L485,423L479,418L473,413L467,407L462,401L455,396L450,390L443,384L438,378L432,372L427,365L422,358L418,351L414,344L410,337L407,329L404,321L401,313L398,305L396,297L394,291L392,284L391,277L391,270L391,263L391,257L391,251L391,245L392,238L394,232L397,225L400,219L403,213L407,206L414,199L420,192L428,185L435,179L442,175L449,170L457,167L465,163L474,161L482,158L490,157L497,156L505,156L513,156L520,156L528,157L535,158L542,161L549,165L555,168L561,172L567,177L571,182L576,187L579,193L583,199L586,206L589,213L591,220L593,228L594,236L595,244L595,253L595,261L595,270L594,279L592,287L589,294L584,301L579,307L572,312L566,316L559,319L551,322L544,324L537,326L529,327L521,328L513,328L504,329L496,330L489,330L480,331L472,331L465,332L457,333L449,333L441,335L434,336L426,338L420,341L414,345L409,348L405,353L401,357L399,361L397,366L395,372L394,378L393,385L393,392L393,398L393,404L393,409L393,414L396,419L399,423L401,426L403,429L404,431L404,432L405,432L405,431L405,430L405,429L407,427L410,423L416,418L423,413L431,407L438,401L447,396L454,392L461,389L467,386L470,385L473,384L474,383L474,382L472,381L469,379L465,375L461,370L456,365L451,359L445,353L440,347L436,342L432,338L429,334L425,331L422,329L420,326L418,324L417,321L417,318L417,315L417,309L421,302L426,293L431,285L437,276L443,268L447,263L453,256L458,250L463,243L466,238L468,234L469,230L469,226L469,221L468,217L463,211L458,206L453,201L446,196L440,191L434,187L429,182L424,177L419,171L414,166L411,161L408,156L405,151L403,146L401,142L400,138L399,134L398,129L398,124L398,118L399,114L402,109L405,105L409,102L413,101L418,99L423,99L428,98L434,98L439,98L444,99L449,102L453,106L457,110L461,115L465,120L468,126L471,131L474,136L477,141L480,146L482,151L485,154L487,158L487,160L488,162L488,163L488,165L487,166L482,167L474,168L463,170L451,172L439,175L427,177L414,179L400,180L387,181L377,182L366,182L356,182L349,178L343,175L338,170L334,167L331,163L329,158L327,155L325,152L323,150L322,149L321,149L319,149L318,152L314,161L310,171L305,185L298,200L292,214L285,229L277,243L269,256L265,264L263,268L262,270L262,271L263,271L267,270L273,268L283,265L295,261L310,255L325,248L340,240L354,232L368,224L378,220L386,217L392,217L397,217L400,218L403,224L406,231L409,239L413,250L417,260L421,271L426,280L431,286L434,291L437,295L438,298L439,299L439,300L438,300L432,300L419,300L407,300L393,300L380,300L369,300L361,300L353,300L349,302L346,305L346,308L346,311L346,318L346,326L348,337L351,348L355,360L358,371L363,383L368,395L373,406L380,416L387,426L396,435L406,442L416,448L428,455L438,459L451,462L464,465L477,466L490,466L507,466L523,461L539,452L553,442L565,431L574,420L580,411L584,404L586,396L586,389L586,382L586,375L583,368L579,362L573,355L567,347L560,340L552,333L544,328L536,322L528,318L522,314L515,311L509,308L503,304L497,300L492,296L487,290L482,284L478,277L475,268L472,259L471,248L470,239L470,233L470,226L472,220L476,215L482,211L488,208L495,205L503,202L509,201L513,200L516,200L518,200L519,201L519,203L519,207L519,212L519,218L519,227L520,237L521,250L524,263L526,279L529,294L532,310L534,323L537,336L539,348L541,359L543,367L543,374L544,379L544,383L544,386L541,387L536,387L528,388L518,388L504,389L491,389L477,390L462,391L447,393L435,395L425,397L419,399L415,401L413,404L412,409L412,414L412,422L412,431L413,442L413,453L413,467L413,480L413,494L413,508L412,521L411,535L410,546L410,558L410,568L410,577L412,586L414,591L417,595L419,597L421,598L424,598L428,596L432,593L439,586L450,576L462,565L474,555L485,547L494,542L503,537L511,535L518,533L524,533L529,533L533,533L536,535L539,539L541,544L543,549L546,554L548,562L551,569L553,578L556,587L558,597L560,609L560,622L561,636L561,649L560,664L557,676L553,688L548,698L541,708L535,717L528,725L521,731L513,737L505,741L496,745L485,749L474,751L464,752L452,753L441,753L430,753L418,753L407,750L395,746L385,742L377,736L368,729L361,723L354,715L348,708L343,701L338,694L334,685L330,678L327,667L324,657L322,644L321,631L321,615L322,599L326,587L331,575L338,562L348,550L360,538L373,528L386,521L397,518L409,516L419,516L429,516L436,520L442,525L446,532L450,539L453,547L455,556L456,568L457,580L457,593L457,605L457,616L456,625L454,633L452,638L450,640L448,641L446,641L444,640L442,637L440,632L437,628L434,624L429,618L424,613L417,606L411,598L403,590L396,581L388,571L380,562L374,552L366,540L359,528L353,519L347,510L341,504L337,501L333,499L329,499L326,499L322,500L315,506L306,514L293,524L276,538L257,553L237,569L218,583L203,594L191,603L184,607L181,609L180,610L180,611L181,611L185,612L189,617L196,625L205,636L214,647L224,659L233,670L242,681L250,689L257,697L262,702L266,705L269,706L271,706L273,706L273,705L275,701L280,689L290,671L303,652L317,633L333,614L349,596L365,579L379,564L388,554L395,548L398,545L400,545L402,545L403,545L404,546L406,550L410,555L417,562L424,569L433,577L443,588L453,599L460,611L464,623L467,635L467,648L466,662L460,674L453,683L444,689L436,692L429,693L421,693L414,691L409,686L402,678L394,669L387,656L384,644L382,630L382,613L385,598L394,584L404,572L414,563L426,555L437,548L448,541L456,534L463,526L467,519L470,510L470,500L470,487L465,474L458,461L447,449L434,438L417,430L397,424L378,421L360,419L345,419L332,419L321,425L311,435L300,448L285,465L270,481L253,497L236,510L222,518L208,524L197,528L186,530L178,530L172,530L166,526L161,519L155,508L149,494L144,477L139,457L134,438L128,423L124,413L120,406L117,401L116,397L115,395L115,394L119,393L128,389L142,383L160,375L183,365L208,355L235,346L264,336L293,327L320,318L344,308L360,301L370,296L374,293L375,293L369,299L361,309L348,324L336,343L325,362L318,382L314,400L313,420L313,438L313,452L313,466L314,474L317,478L317,480L318,480L319,480L319,474L322,455L329,430L335,407L342,387L348,368L352,348L353,328L353,309L353,292L349,277L343,265L336,255L326,245L313,238L298,234L280,233L262,233L247,238L235,246L227,254L220,265L216,279L214,292L214,307L214,321L217,331L225,338L234,343L244,344L261,343L281,331L306,311L333,287L358,263L379,244L396,231L411,221L426,215L441,212L455,212L470,212L485,216L499,224L511,233L523,245L533,260L541,278L545,299L546,320L546,341L542,361L531,382L518,398L502,410L482,419L462,423L441,424L423,421L411,412L401,398L393,376L390,350L389,320L389,292L389,270L389,248L389,224L390,197L393,177L396,155L398,137L400,124L400,116L400,111L400,110L397,110L392,115L385,121L373,128L357,135L338,142L320,148L303,151L290,153L277,155L263,156L251,158L242,160L235,161L231,162L229,162L232,162L236,162L242,162L250,169L260,180L270,194L282,211L294,226L306,242L318,256L331,270L344,284L354,296L364,307L371,315L377,321L380,324L383,326L384,326L385,325L385,319L391,304L403,283L412,269L425,252L438,237L452,222L468,207L487,194L507,184L526,175L543,170L563,166L583,163L602,161L617,161L632,161L645,163L657,167L667,173L675,180L683,188L690,197L696,207L700,218L704,231L707,244L709,257L711,270L711,284L712,298L712,312L712,326L710,340L706,355L700,368L693,382L684,398L672,416L659,431L645,445L630,459L614,472L598,484L581,494L567,503L551,513L537,522L523,532L510,542L498,554L489,565L481,576L475,586L470,597L466,608L464,618L464,627L464,638L468,645L475,650L482,654L492,654L507,653L521,644L540,628L560,608L583,586L605,560L626,532L649,501L669,469L686,437L699,410L711,389L721,372L730,358L741,344L750,332L756,325L759,321L760,319L761,319L761,320L761,319" stroke-opacity="1" stroke-width="5" stroke-linecap="round" stroke-linejoin="round" style="-webkit-tap-highlight-color: rgba(0, 0, 0, 0); stroke-opacity: 1; stroke-linecap: round; stroke-linejoin: round; -webkit-user-select: text;"></path></svg>