<svg height="618" version="1.1" width="704" xmlns="http://www.w3.org/2000/svg" xmlns:xlink="http://www.w3.org/1999/xlink" style="overflow: hidden; position: relative; -webkit-user-select: text;"><desc style="-webkit-tap-highlight-color: rgba(0, 0, 0, 0); -webkit-user-select: text;">Created with Raphaël 2.2.0</desc><defs style="-webkit-tap-highlight-color: rgba(0, 0, 0, 0); -webkit-user-select: text;"></defs><path fill="none" stroke="#020000" d="M100,213L115,214L126,218L137,224L151,233L165,240L185,251L203,262L223,272L243,282L264,292L282,301L295,308L306,314L313,319L318,324L322,327L325,330L326,331L327,332L328,333L328,334L328,335L327,336L325,338L321,344L317,350L311,358L305,368L299,378L293,388L287,401L281,411L273,423L266,432L256,439L246,444L236,447L228,448L221,448L214,448L208,444L204,437L202,428L202,418L203,406L209,393L216,381L223,368L233,358L243,349L255,342L269,337L286,335L299,335L315,338L326,347L333,357L338,371L342,382L347,398L352,408L360,420L372,429L387,434L405,436L423,436L439,431L452,422L462,411L471,397L477,382L479,365L479,347L473,330L460,312L445,298L429,288L415,284L401,281L388,281L377,284L369,290L365,294L365,298L365,299L368,300L374,300L378,294L379,288L380,279L380,267L379,255L375,240L372,229L364,215L355,205L348,199L343,194L341,191L341,189L352,189L379,189L403,192L428,195L444,196L454,196L458,196L459,196" stroke-opacity="1" stroke-width="5" stroke-linecap="round" stroke-linejoin="round" style="-webkit-tap-highlight-color: rgba(0, 0, 0, 0); stroke-opacity: 1; stroke-linecap: round; stroke-linejoin: round; -webkit-user-select: text;"></path><path fill="none" stroke="#020000" d="M223,112L220,106L220,102L220,101L224,101L236,101L255,102L277,105L305,108L336,109L373,110L407,110L435,110L452,110L462,109L466,108L467,107L468,107" stroke-opacity="1" stroke-width="5" stroke-linecap="round" stroke-linejoin="round" style="-webkit-tap-highlight-color: rgba(0, 0, 0, 0); stroke-opacity: 1; stroke-linecap: round; stroke-linejoin: round; -webkit-user-select: text;"></path><path fill="none" stroke="#020000" d="M489,54L491,55L491,63L491,72L491,87L491,101L491,116L491,132L491,146L491,159L491,168L491,174L491,177L491,179L492,179L492,180L490,182L479,184" stroke-opacity="1" stroke-width="5" stroke-linecap="round" stroke-linejoin="round" style="-webkit-tap-highlight-color: rgba(0, 0, 0, 0); stroke-opacity: 1; stroke-linecap: round; stroke-linejoin: round; -webkit-user-select: text;"></path><path fill="none" stroke="#020000" d="M257,158L251,157L254,157L263,157L278,158L297,160L315,162L332,164L345,165L354,166L359,167L360,168L360,170L355,173L348,177L340,181L332,189L324,197L316,206L310,217L305,226L303,232L303,238L316,242L340,242L363,234L384,224L400,213L409,205L413,201L415,200L416,200L417,203L417,208L419,211L421,216L425,221L429,227L434,235L439,245L445,253L454,259L470,264L489,267L509,267L523,267L536,267L543,266L548,265L551,265L555,268L558,275L561,283L562,292L563,301L564,308L564,315L566,324L569,331L573,337L576,341L576,345L576,349L557,352L527,354L496,355L474,357L458,363L450,370L446,381L445,391L447,404L456,417L468,429L479,441L488,453L492,462L492,471L492,482L485,490L474,496L461,500L443,500L419,499L389,493L360,486L343,480L333,474L328,470L327,467L327,465L327,464L330,464L336,464" stroke-opacity="1" stroke-width="5" stroke-linecap="round" stroke-linejoin="round" style="-webkit-tap-highlight-color: rgba(0, 0, 0, 0); stroke-opacity: 1; stroke-linecap: round; stroke-linejoin: round; -webkit-user-select: text;"></path><path fill="none" stroke="#020000" d="M545,160L545,151L545,143L546,140L548,140L550,144L553,157L556,174L560,194L565,215L568,237L570,257L571,276L572,289L572,297L573,301L573,302L573,303" stroke-opacity="1" stroke-width="5" stroke-linecap="round" stroke-linejoin="round" style="-webkit-tap-highlight-color: rgba(0, 0, 0, 0); stroke-opacity: 1; stroke-linecap: round; stroke-linejoin: round; -webkit-user-select: text;"></path><path fill="none" stroke="#020000" d="M316,245L321,244L334,244L359,249L387,254L416,260L443,265L467,269L483,272L492,272L495,273L486,273" stroke-opacity="1" stroke-width="5" stroke-linecap="round" stroke-linejoin="round" style="-webkit-tap-highlight-color: rgba(0, 0, 0, 0); stroke-opacity: 1; stroke-linecap: round; stroke-linejoin: round; -webkit-user-select: text;"></path><path fill="none" stroke="#020000" d="M178,132L175,141L175,152L177,169L179,187L182,208L184,230L185,251L187,270L190,281L192,290L195,294L195,297L195,298" stroke-opacity="1" stroke-width="5" stroke-linecap="round" stroke-linejoin="round" style="-webkit-tap-highlight-color: rgba(0, 0, 0, 0); stroke-opacity: 1; stroke-linecap: round; stroke-linejoin: round; -webkit-user-select: text;"></path><path fill="none" stroke="#020000" d="M61,366L58,371L58,374L63,376L77,380L96,383L122,387L147,393L172,401L192,410L203,417L207,425L206,432L195,440L182,449L168,461L155,473L146,486L141,497L141,507L144,516L160,523L185,527L207,528L232,528L254,527L269,522L278,519L283,516L285,514L285,513L285,512L287,515L293,520L299,527L305,536L308,543L311,552L312,561L314,567L315,573L318,575L320,577L322,577L324,577L326,575L329,573L336,571L346,569L362,568L379,566L397,562L410,559L420,558L427,558L431,558L434,559L436,561L437,562L438,563L438,564L438,565L438,566" stroke-opacity="1" stroke-width="5" stroke-linecap="round" stroke-linejoin="round" style="-webkit-tap-highlight-color: rgba(0, 0, 0, 0); stroke-opacity: 1; stroke-linecap: round; stroke-linejoin: round; -webkit-user-select: text;"></path><path fill="none" stroke="#020000" d="M561,531L561,531" stroke-opacity="1" stroke-width="5" stroke-linecap="round" stroke-linejoin="round" style="-webkit-tap-highlight-color: rgba(0, 0, 0, 0); stroke-opacity: 1; stroke-linecap: round; stroke-linejoin: round; -webkit-user-select: text;"></path></svg>