<svg height="618" version="1.1" width="704" xmlns="http://www.w3.org/2000/svg" xmlns:xlink="http://www.w3.org/1999/xlink" style="overflow: hidden; position: relative; -webkit-user-select: text;"><desc style="-webkit-tap-highlight-color: rgba(0, 0, 0, 0); -webkit-user-select: text;">Created with Raphaël 2.2.0</desc><defs style="-webkit-tap-highlight-color: rgba(0, 0, 0, 0); -webkit-user-select: text;"></defs><path fill="none" stroke="#ff0000" d="M562,107L563,104L559,104L555,104L548,104L539,104L529,105L517,113L506,121L495,129L484,140L473,153L462,167L453,181L443,196L432,216L421,236L408,257L396,276L383,293L368,308L350,324L331,338L313,351L297,358L280,364L267,366L255,368L247,369L243,370L241,371L240,371L238,371" stroke-opacity="1" stroke-width="5" stroke-linecap="round" stroke-linejoin="round" style="-webkit-tap-highlight-color: rgba(0, 0, 0, 0); stroke-opacity: 1; stroke-linecap: round; stroke-linejoin: round; -webkit-user-select: text;"></path><path fill="none" stroke="#ff0000" d="M184,77L181,87L176,95L168,109L160,122L152,137L147,151L144,168L143,182L143,197L145,211L155,223L166,233L182,242L200,249L220,253L241,255L264,257L289,262L311,269L332,276L348,283L365,290L381,299L396,310L411,325L422,339L432,355L438,373L441,391L441,409L440,428L438,442L437,453L437,459L437,464L436,466L436,468L432,468" stroke-opacity="1" stroke-width="5" stroke-linecap="round" stroke-linejoin="round" style="-webkit-tap-highlight-color: rgba(0, 0, 0, 0); stroke-opacity: 1; stroke-linecap: round; stroke-linejoin: round; -webkit-user-select: text;"></path><path fill="none" stroke="#ff0000" d="M293,484L280,478L269,478L251,481L233,485L212,490L191,494L170,498L150,499L133,499L119,498L106,495L95,492L88,490L84,489L82,488L81,488L81,487L81,486L81,484L81,481L82,475L84,464L87,448L90,430L93,409L98,383L103,359L106,335L110,317L114,299L119,284L128,271L141,259L161,245L183,233L206,225L230,218L255,210L285,199L315,184L340,166L359,149L374,131L384,114L389,100L391,85L391,71L384,56L374,46L361,40L346,37L332,37L315,38L306,42L299,47L296,50L294,53L293,55L293,57L293,58L293,61" stroke-opacity="1" stroke-width="5" stroke-linecap="round" stroke-linejoin="round" style="-webkit-tap-highlight-color: rgba(0, 0, 0, 0); stroke-opacity: 1; stroke-linecap: round; stroke-linejoin: round; -webkit-user-select: text;"></path><path fill="none" stroke="#ff0000" d="M606,301L596,301L573,307L545,317L512,330L478,346L439,364L402,386L369,408L339,426L317,439L305,447L298,451L295,453L293,454L293,457" stroke-opacity="1" stroke-width="5" stroke-linecap="round" stroke-linejoin="round" style="-webkit-tap-highlight-color: rgba(0, 0, 0, 0); stroke-opacity: 1; stroke-linecap: round; stroke-linejoin: round; -webkit-user-select: text;"></path><path fill="none" stroke="#ff0000" d="M583,509L587,514L589,516L587,513L579,502L569,490L557,472L546,455L533,436L520,412L505,384L488,357L471,335L455,315L442,300L432,289L426,284L422,280L420,278L419,276L420,274" stroke-opacity="1" stroke-width="5" stroke-linecap="round" stroke-linejoin="round" style="-webkit-tap-highlight-color: rgba(0, 0, 0, 0); stroke-opacity: 1; stroke-linecap: round; stroke-linejoin: round; -webkit-user-select: text;"></path><path fill="none" stroke="#ff0000" d="M611,120L608,126L597,140L581,157L563,174L541,194L518,216L493,243L464,273L433,302L403,329L377,352L357,369L346,380L340,386L336,391L334,393L333,395L334,395L336,395L342,398L349,404L357,411L367,418L378,425L391,432L403,439L416,447L428,455L437,461L445,470L451,482L453,499L453,517L450,533L441,545L429,555L415,561L404,563L394,563L383,560L374,554L364,546L353,539L345,531L337,523L332,517L329,512L328,510L327,508L327,507L327,506" stroke-opacity="1" stroke-width="5" stroke-linecap="round" stroke-linejoin="round" style="-webkit-tap-highlight-color: rgba(0, 0, 0, 0); stroke-opacity: 1; stroke-linecap: round; stroke-linejoin: round; -webkit-user-select: text;"></path><path fill="none" stroke="#ff0000" d="M230,388L225,383L217,374L206,364L193,354L174,343L155,335L136,326L119,315L107,308L96,300L89,296L83,293L79,291L77,291L76,290L76,288L79,283L86,275L98,263L115,247L133,226L150,203L163,180L175,159L184,140L191,123L197,107L201,99L204,95L205,94L206,94L207,94L207,95L207,97L208,98L211,99L215,102L221,105L228,110L237,116L249,124L261,131L274,136L289,141L303,145L314,150L325,155L334,163L340,172L343,181L344,194L344,207L338,224L325,240L308,252L293,261L274,268L257,273L240,280L221,290L204,303L189,319L175,336L163,355L153,375L149,392L149,409L152,424L162,437L177,449L195,459L212,466L235,472L255,475L278,477L301,477L320,476L340,468L358,454L376,433L393,411L404,388L413,367L417,350L422,331L427,306L433,285L438,271L442,262L444,256L446,253L447,252L447,255" stroke-opacity="1" stroke-width="5" stroke-linecap="round" stroke-linejoin="round" style="-webkit-tap-highlight-color: rgba(0, 0, 0, 0); stroke-opacity: 1; stroke-linecap: round; stroke-linejoin: round; -webkit-user-select: text;"></path><path fill="none" stroke="#ff0000" d="M669,331L673,336L665,345L654,355L639,370L623,385L605,405L586,426L566,448L549,469L536,486L529,494L526,498L524,500L523,500L522,500L522,498L522,492L520,480L516,463L510,441L503,415L496,388L487,362L479,339L472,319L464,305L457,293L452,285L449,279L447,276L447,273L448,271L458,267L474,259L498,246L523,230L549,212L572,197L587,188L601,179L613,167L623,154L629,139L631,127L631,115L627,101L619,87L608,74L594,60L581,50L563,42L544,37L522,36L498,37L476,47L455,62L437,80L425,103L417,127L414,146L413,159L413,166L413,169L413,171L414,171L415,171" stroke-opacity="1" stroke-width="5" stroke-linecap="round" stroke-linejoin="round" style="-webkit-tap-highlight-color: rgba(0, 0, 0, 0); stroke-opacity: 1; stroke-linecap: round; stroke-linejoin: round; -webkit-user-select: text;"></path></svg>