<svg height="775" version="1.1" width="1183" xmlns="http://www.w3.org/2000/svg" xmlns:xlink="http://www.w3.org/1999/xlink" style="overflow: hidden; position: relative; user-select: text;"><desc style="-webkit-tap-highlight-color: rgba(0, 0, 0, 0); user-select: text;">Created with Raphaël 2.2.0</desc><defs style="-webkit-tap-highlight-color: rgba(0, 0, 0, 0); user-select: text;"></defs><path fill="none" stroke="#ff0000" d="M254,198L254,198L254,198L254,197L260,197L273,197L307,196L335,191L359,184L378,175L391,167L400,158L404,148L406,138L404,128L399,116L392,103L379,89L356,72L343,66L327,61L311,60L302,61L297,68L295,80L299,101L307,129L318,154L331,182L341,205L349,231L351,250L350,270L346,288L340,298L336,303L329,306L322,307L315,306L308,302L301,295L297,287L296,280L296,278L298,277L305,278L319,284L337,292L352,301L368,309L380,315L389,317L394,317L396,314L398,309L399,298L400,292L400,288L400,286L400,285" stroke-opacity="1" stroke-width="5" stroke-linecap="round" stroke-linejoin="round" style="-webkit-tap-highlight-color: rgba(0, 0, 0, 0); stroke-opacity: 1; stroke-linecap: round; stroke-linejoin: round; user-select: text;"></path></svg>