<svg height="650" version="1.1" width="1024" xmlns="http://www.w3.org/2000/svg" xmlns:xlink="http://www.w3.org/1999/xlink" style="overflow: hidden; position: relative; -webkit-user-select: text;"><desc style="-webkit-tap-highlight-color: rgba(0, 0, 0, 0); -webkit-user-select: text;">Created with Raphaël 2.2.0</desc><defs style="-webkit-tap-highlight-color: rgba(0, 0, 0, 0); -webkit-user-select: text;"></defs><path fill="none" stroke="#000000" d="M252,149L252,153L252,156L254,159L255,164L257,170L260,177L262,184L266,194L271,204L275,215L281,226L286,237L293,251L298,261L302,272L306,283L311,292L315,303L320,311L324,319L327,327L329,333L331,337L333,341L334,344L335,345L335,346L335,347L336,347L337,345L338,344L340,340L344,334L347,328L352,319L359,307L367,294L377,282L386,269L396,256L406,243L417,230L427,217L437,205L447,193L456,183L462,175L467,169L470,165L472,162L473,160L473,159L472,159L469,159L465,159L457,159L448,160L437,162L427,165L416,168L404,173L391,177L378,180L363,185L349,189L333,194L318,198L303,202L291,204L279,207L270,209L264,210L260,211L257,212L256,212L256,213L257,214L260,215L264,218L271,222L277,226L286,232L296,238L306,244L319,252L331,259L344,266L358,274L372,282L386,290L400,299L413,308L426,316L438,325L450,333L462,341L474,350L485,358L493,364L502,370L510,377L516,382L522,387L526,390L529,392L531,394L533,395L533,393L533,391L533,387L534,382L536,372L540,362L544,351L548,341L552,329L556,318L561,303L566,289L569,277L573,265L575,253L579,241L583,226L587,212L592,198L595,186L599,175L602,164L604,156L607,148L609,140L611,136L612,132L613,129L613,128L614,128L616,129L617,131L619,133L621,137L625,143L630,151L636,158L641,166L647,175L655,183L663,194L671,204L680,214L688,224L695,233L704,241L711,251L717,258L722,264L727,270L730,274L732,277L733,280L734,281L734,282L733,282L732,282L730,281L727,279L723,275L717,270L709,265L702,259L694,253L686,246L678,238L670,230L660,219L650,209L641,199L632,190L622,180L614,171L604,162L595,153L585,144L574,135L565,128L553,120L544,114L534,109L524,105L513,102L501,100L491,99L480,98L470,98L461,98L453,98L444,100L437,103L428,107L420,112L412,117L406,122L400,128L395,134L390,140L386,148L382,155L379,163L376,171L374,179L371,187L369,197L368,204L367,211L366,219L366,227L366,234L366,242L366,251L366,258L367,264L370,272L372,280L375,286L378,293L381,299L383,306L386,311L390,318L393,324L396,330L399,335L402,340L405,345L407,351L409,356L412,361L414,366L416,371L418,376L420,381L422,386L423,390L425,395L427,400L427,404L428,409L429,412L429,416L429,418L429,421L429,422L429,423L429,424L431,424" stroke-opacity="1" stroke-width="5" stroke-linecap="round" stroke-linejoin="round" style="-webkit-tap-highlight-color: rgba(0, 0, 0, 0); stroke-opacity: 1; stroke-linecap: round; stroke-linejoin: round; -webkit-user-select: text;"></path></svg>