<svg height="650" version="1.1" width="1024" xmlns="http://www.w3.org/2000/svg" xmlns:xlink="http://www.w3.org/1999/xlink" style="overflow: hidden; position: relative; -webkit-user-select: text;"><desc style="-webkit-tap-highlight-color: rgba(0, 0, 0, 0); -webkit-user-select: text;">Created with Raphaël 2.2.0</desc><defs style="-webkit-tap-highlight-color: rgba(0, 0, 0, 0); -webkit-user-select: text;"></defs><path fill="none" stroke="#000000" d="M130,145L132,141L137,138L143,134L148,129L157,121L166,113L175,106L185,98L194,91L201,85L207,81L211,78L214,77L216,76L216,77L218,80L220,84L222,91L225,98L228,105L230,114L233,124L237,131L241,141L244,149L246,154L248,159L250,163L250,166L251,168L250,168L247,165L241,160L233,154L227,146L219,139L212,131L205,124L199,117L193,109L188,103L184,97L181,93L179,90L177,87L176,85L174,83L173,83L172,83L170,83L168,84L165,86L159,90L153,95L147,99L140,102L135,105L130,108L128,110L125,112L123,113L123,114L123,115L123,116L123,117L123,119L125,123L127,127L130,131L133,138L136,145L140,151L143,158L147,166L150,173L154,180L158,186L162,192L165,197L168,202L170,205L172,208L174,210L175,211L175,212L176,212L177,212L179,210L182,207L186,202L193,194L200,186L210,175L218,165L226,158L234,150L242,142L249,135L255,130L260,124L265,119L268,116L270,113L272,111L273,109L273,108L273,107L273,106L273,105L272,105L271,103L269,100L267,96L264,92L262,88L259,84L257,80L254,76L250,72L246,68L242,64L237,61L231,57L226,54L221,52L215,50L209,48L203,46L197,45L191,44L185,44L180,44L175,44L169,44L163,44L159,44L155,44L150,45L145,45L140,46L135,46L130,47L127,47L123,48L120,48L116,48L113,48L109,48L106,48L104,48L101,48L99,47L98,46L96,45L95,44L94,44L93,43" stroke-opacity="1" stroke-width="5" stroke-linecap="round" stroke-linejoin="round" style="-webkit-tap-highlight-color: rgba(0, 0, 0, 0); stroke-opacity: 1; stroke-linecap: round; stroke-linejoin: round; -webkit-user-select: text;"></path><path fill="none" stroke="#000000" d="M267,224L257,220L259,222L261,225L264,229L268,234L272,239L275,246L279,252L282,258L286,263L288,268L291,272L293,275L295,278L296,280L296,281L296,282L296,283L294,284L292,285L286,289L279,295L270,302L263,308L257,312L253,316L249,319L246,321L244,323L242,324L241,324L240,324L239,323L237,320L236,316L234,311L231,305L228,298L225,291L222,285L218,281L216,275L213,272L211,268L209,265L208,263L208,261L208,260L209,260L212,260L219,259L228,257L240,255L253,254L267,252L281,250L295,247L308,244L320,241L328,239L334,238L339,237L343,236L344,235L346,234L346,233L346,231L346,227L346,221L346,214L346,207L345,198L345,191L344,184L344,178L344,172L344,168L343,164L343,161L342,159L342,158L341,157L340,157L338,157L337,157L337,158L336,160L335,162L335,166L334,171L333,176L332,182L331,189L331,196L330,203L330,210L330,219L330,228L330,235L330,244L329,253L329,261L328,270L328,277L327,285L327,290L327,294L327,297L326,299L326,300L325,300L324,300L323,300L322,300L319,300L316,300L313,299L308,298L304,297L298,297L291,295L284,294L278,293L271,292L264,291L258,290L254,289L250,289L246,288L243,287L241,286L239,284L238,282L237,281L235,278L235,276L233,273L232,270L231,267L230,264L229,261L229,258L228,255L228,251L228,248L228,245L228,241L228,238L228,234L230,231L233,227L235,224L237,221L240,219L242,217L245,216L248,214L252,213L256,212L259,211L264,210L268,209L272,209L276,208L280,208L284,208L288,208L291,208L296,208L299,208L303,209L306,210L308,212L311,214L314,216L317,218L319,220L322,223L324,226L326,228L328,231L330,233L332,235L334,238L336,240L338,243L340,245L343,248L345,251L347,253L349,256L351,258L353,260L355,263L357,265L359,267L361,269L363,271L365,273L367,275L369,277L371,278L373,280L375,282L377,283L379,285L381,286L383,287L385,288L387,289L388,290L391,291L392,292L395,292L397,293L399,294L401,294L403,295L406,296L408,296L410,297L413,297L415,297L417,297L419,297L421,297L422,297L423,297L424,297L425,297" stroke-opacity="1" stroke-width="5" stroke-linecap="round" stroke-linejoin="round" style="-webkit-tap-highlight-color: rgba(0, 0, 0, 0); stroke-opacity: 1; stroke-linecap: round; stroke-linejoin: round; -webkit-user-select: text;"></path><path fill="none" stroke="#000000" d="M396,257L398,258L400,258L404,258L408,259L414,260L420,261L427,261L434,262L444,263L453,263L462,263L471,264L480,264L489,264L499,261L507,258L515,254L522,250L528,246L532,243L534,241L536,240L538,239L538,238L537,238L536,238L535,237L534,236L533,234L531,230L527,225L524,219L520,214L517,209L514,204L511,197L508,192L506,187L504,184L502,181L500,179L499,178L498,177L497,177L496,177L495,177L493,177L491,178L488,179L484,180L477,183L469,185L461,187L455,188L448,190L444,190L440,191L438,191L438,192L437,192L437,193L437,194L439,195L440,197L442,200L446,204L449,210L454,216L459,224L463,232L468,240L473,248L478,255L482,261L486,268L489,274L492,279L494,283L495,286L496,288L497,289L497,287L497,285L498,276L501,268L505,258L509,247L512,238L517,228L522,218L529,208L535,197L541,188L545,181L549,175L551,170L552,167L553,165L553,164L553,163L551,163L549,163L546,162L543,161L540,159L536,158L533,156L528,153L524,151L520,148L516,145L512,142L508,139L505,136L501,134L498,132L495,131L493,130L492,129L490,129L489,129L489,131L488,133L486,137L483,143L479,149L474,156L468,164L461,173L454,180L447,186L442,190L437,194L434,197L431,200L429,201L429,202L428,202L428,203L428,204L429,204L430,204L431,205L432,206L434,207L436,208L438,209L440,210L442,212L444,213L447,214L450,215L452,217L455,218L458,219L460,220L463,221L465,221L468,222L470,222L473,223L476,223L479,224L482,224L485,224L488,224L491,224L494,224L498,224L501,224L505,224L508,224L512,224L515,224L519,224L522,224L527,224L531,224L535,224L538,224L542,224L546,224L549,224L553,224L556,224L559,224L563,224L566,225L568,225L571,225L574,225L577,225L579,226L582,226L584,226L585,226L587,226L588,226L589,226L590,226" stroke-opacity="1" stroke-width="5" stroke-linecap="round" stroke-linejoin="round" style="-webkit-tap-highlight-color: rgba(0, 0, 0, 0); stroke-opacity: 1; stroke-linecap: round; stroke-linejoin: round; -webkit-user-select: text;"></path><path fill="none" stroke="#000000" d="M567,200L571,197L575,197L580,197L585,197L592,197L599,197L606,197L612,197L619,197L624,197L629,197L633,197L636,197L638,197L639,197L640,197L640,196L640,193L641,189L641,185L642,180L643,172L643,166L644,161L646,155L646,149L648,142L648,138L648,134L648,130L648,128L648,127L648,126L646,126L644,126L642,127L638,128L634,130L628,132L623,134L619,135L614,136L610,137L607,138L605,139L604,139L603,140L602,140L602,141L602,142L602,144L604,146L606,149L608,154L611,161L613,168L616,175L619,183L623,191L627,201L630,207L634,215L637,223L639,230L642,235L644,241L646,245L647,249L648,251L649,253L649,254L649,255L649,254L648,253L647,251L644,248L640,243L636,239L631,234L626,230L621,226L616,221L611,216L605,211L599,207L593,202L588,197L583,193L579,189L575,187L573,185L572,183L571,183L570,182L570,181L573,180L575,180L580,179L590,176L599,173L609,168L620,165L632,161L643,158L654,155L662,152L669,150L673,149L677,148L679,147L680,147L681,147L682,147L682,148L683,149L684,151L685,152L686,154L687,156L688,158L690,160L691,163L692,165L694,168L695,172L696,175L697,179L698,182L699,185L699,188L699,192L699,195L699,200L699,203L699,207L699,211L699,215L699,219L697,224L696,228L694,231L692,235L690,238L688,242L686,246L683,250L682,253L679,256L677,259L675,262L672,264L670,267L668,270L665,272L663,275L660,278L658,281L655,284L653,287L651,290L649,292L647,295L645,298L643,302L642,305L641,308L639,311L638,314L637,317L636,319L635,322L635,325L634,327L634,329L634,331L633,332L633,333L633,334L634,334" stroke-opacity="1" stroke-width="5" stroke-linecap="round" stroke-linejoin="round" style="-webkit-tap-highlight-color: rgba(0, 0, 0, 0); stroke-opacity: 1; stroke-linecap: round; stroke-linejoin: round; -webkit-user-select: text;"></path><path fill="none" stroke="#000000" d="M699,289L692,292L691,293L690,295L688,297L686,301L684,305L682,309L679,314L676,319L674,324L673,329L672,334L671,339L670,344L670,350L670,355L670,360L670,365L671,370L672,374L673,377L673,381L673,383L673,384L673,385L673,386L674,386L675,386L676,386L677,385L678,384L681,384L684,382L691,379L697,377L707,374L717,370L725,368L734,365L741,364L747,362L750,360L754,359L755,358L756,358L756,357L756,356L756,355L756,354L755,352L753,350L750,348L748,345L744,342L740,339L735,336L730,333L724,331L717,328L711,326L704,324L697,321L691,319L685,317L679,315L675,314L672,312L669,311L668,310L667,310L666,310L666,311L666,313L666,315L665,318L665,322L664,328L662,333L660,339L658,345L655,352L653,358L651,363L648,369L646,374L645,380L643,384L643,388L641,392L641,394L640,396L639,398L639,399L639,400L639,401L641,402L643,403L645,405L648,407L653,409L658,412L664,415L671,418L677,421L684,424L689,426L692,428L696,430L698,431L699,432L700,432L700,431L700,429L700,427L700,425L700,419L702,413L704,405L706,397L708,389L710,381L712,373L714,365L716,358L718,350L720,344L721,337L724,328L726,321L728,316L731,310L732,306L734,302L735,299L736,297L737,296L738,296L740,296L741,296L743,296L746,296L751,297L756,299L763,302L770,304L778,307L785,309L792,311L799,313L805,314L811,316L816,317L820,319L823,320L826,321L828,322L829,323L829,324L829,325L829,326L829,327L829,329L829,330L829,332L829,334L829,336L829,338L829,340L828,343L827,345L826,348L825,352L824,355L823,358L822,360L820,362L819,364L818,366L817,368L816,369L815,370L814,372L814,373L813,375L812,375L812,377L811,378L811,379L810,380L810,382L809,383L809,385L808,386L807,388L807,389L806,390L806,392L805,393L804,395L804,396L804,398L803,399L802,401L802,403L801,404L801,405L801,406L800,408L800,409L799,409L799,410" stroke-opacity="1" stroke-width="5" stroke-linecap="round" stroke-linejoin="round" style="-webkit-tap-highlight-color: rgba(0, 0, 0, 0); stroke-opacity: 1; stroke-linecap: round; stroke-linejoin: round; -webkit-user-select: text;"></path><path fill="none" stroke="#000000" d="M856,362L854,363L854,366L854,369L854,374L854,380L854,384L854,391L854,398L854,405L853,411L853,416L852,421L852,426L852,431L852,435L852,438L852,441L852,443L852,444L852,445L852,446L853,446L855,447L859,448L865,450L872,453L879,455L886,457L892,459L896,460L899,461L901,461L902,461L903,461L903,460L903,458L903,455L903,450L903,444L903,437L903,428L904,421L906,413L908,404L909,396L911,390L912,384L913,377L913,373L913,370L913,368L913,367L911,367L909,367L907,367L905,370L901,372L893,379L885,385L876,391L867,397L857,404L849,411L841,416L834,421L828,426L824,430L820,433L818,435L815,437L814,438L813,438L812,438L811,436L810,433L807,429L804,425L801,420L798,415L795,410L793,405L791,401L789,398L787,394L785,391L783,388L782,387L782,385L781,384L783,384L785,383L789,382L799,378L808,373L818,368L831,362L841,355L850,350L857,345L865,341L870,338L874,336L877,335L878,335L879,335L880,335L881,335L881,336L882,337L882,339L884,341L885,343L886,346L888,350L891,354L893,359L895,364L898,369L901,375L903,382L905,387L908,392L910,397L912,403L914,408L915,413L916,417L917,420L917,424L917,427L917,431L917,434L917,438L916,441L914,444L912,447L910,452L907,457L904,461L902,465L899,469L896,472L894,474L891,477L888,480L885,482L882,484L879,487L876,489L873,491L870,494L867,496L864,498L861,500L858,502L856,505L853,507L851,510L848,513L846,516L843,518L841,520L839,523L837,525L835,529L833,532L832,535L831,539L829,542L828,545L827,548L827,551L826,553L826,555L826,557L826,558L826,559L826,560" stroke-opacity="1" stroke-width="5" stroke-linecap="round" stroke-linejoin="round" style="-webkit-tap-highlight-color: rgba(0, 0, 0, 0); stroke-opacity: 1; stroke-linecap: round; stroke-linejoin: round; -webkit-user-select: text;"></path><path fill="none" stroke="#000000" d="M875,527L869,530L868,532L867,535L866,538L865,541L863,545L862,548L861,552L860,556L858,561L857,565L856,569L855,574L855,578L854,583L854,587L854,591L854,595L854,598L854,601L854,603L854,606L854,608L854,609L854,610L855,611L855,612L855,613L856,613L857,613L859,613L860,611L862,610L865,609L868,606L874,603L881,600L889,597L896,594L901,591L906,588L911,586L915,585L918,583L922,581L925,580L928,579L931,578L932,577L933,576L933,574L933,573L933,571L933,569L933,566L933,561L933,556L933,550L933,545L933,538L932,532L932,528L932,523L931,519L931,515L931,511L931,509L930,508L930,507L929,507L928,507L926,508L925,510L923,512L920,514L917,516L914,519L911,522L907,525L903,528L900,532L898,535L896,538L894,541L894,543L893,545L893,546L893,547L893,548L894,549L896,550L897,552L900,555L903,559L906,563L911,568L914,572L918,577L923,582L927,588L930,593L933,597L935,600L937,603L938,605L940,607L940,608L941,608L942,608L942,606L943,604L945,600L950,592L954,584L958,577L963,569L967,562L971,555L975,549L979,542L983,536L987,530L990,525L993,521L996,518L997,515L998,512L998,510L998,508L998,506L998,504L997,502L993,499L990,496L985,492L981,489L977,484L973,480L969,476L965,472L962,467L959,464L957,460L955,457L954,455L953,453L952,452L952,451L952,452L952,453L952,455L952,459L952,462L952,467L953,474L954,484L956,493L957,503L959,513L962,523L964,534L967,542L969,551L971,561L974,569L975,574L976,580L978,584L979,588L979,590L979,591L979,589" stroke-opacity="1" stroke-width="5" stroke-linecap="round" stroke-linejoin="round" style="-webkit-tap-highlight-color: rgba(0, 0, 0, 0); stroke-opacity: 1; stroke-linecap: round; stroke-linejoin: round; -webkit-user-select: text;"></path></svg>