<svg height="650" version="1.1" width="1024" xmlns="http://www.w3.org/2000/svg" xmlns:xlink="http://www.w3.org/1999/xlink" style="overflow: hidden; position: relative; -webkit-user-select: text;"><desc style="-webkit-tap-highlight-color: rgba(0, 0, 0, 0); -webkit-user-select: text;">Created with Raphaël 2.2.0</desc><defs style="-webkit-tap-highlight-color: rgba(0, 0, 0, 0); -webkit-user-select: text;"></defs><path fill="none" stroke="#000000" d="M414,235L417,236L424,236L432,234L446,231L462,226L479,221L497,217L517,212L537,206L558,200L575,194L591,189L603,185L611,183L617,182L620,181L622,180L622,181L621,183L621,184L621,187L620,191L619,197L617,204L615,214L612,226L609,237L605,252L602,263L597,278L594,289L591,302L588,313L585,324L583,335L580,344L578,355L575,363L573,371L570,379L569,385L567,391L565,397L564,402L563,406L562,410L561,413L560,415L560,416L559,417L558,418L557,418L556,418L555,417L554,414L552,411L550,406L547,399L544,392L541,381L537,370L534,359L531,346L527,330L524,314L519,296L516,280L512,265L510,252L506,239L503,226L500,214L497,202L495,191L493,183L490,175L489,169L488,164L486,161L485,159L483,158L482,158L479,158L476,158L470,158L462,158L454,158L442,161L429,164L415,168L402,170L388,173L376,175L364,176L356,177L349,178L343,178L339,178L337,178L336,179L335,179L335,180L335,181L335,182L335,185L337,188L338,195L340,203L342,211L344,222L346,231L349,243L351,254L354,265L356,276L358,285L360,294L362,304L364,310L366,316L367,322L368,326L369,330L370,333L371,334L371,335L372,335L373,335L374,335L374,333L376,331L378,328L380,323L384,318L389,312L395,304L403,295L410,287L419,275L426,267L433,258L443,246L450,237L457,228L463,218L470,210L476,201L481,192L486,184L492,175L498,166L505,157L511,148L517,139L522,131L528,124L534,117L537,111L541,106L543,103L545,100L546,98L546,96L546,95L546,94L545,93L544,93L543,92L541,92L539,91L537,90L535,89L533,88L530,87L527,86L524,85L522,85L519,84L515,83L512,83L509,83L505,83L501,83L496,83L492,83L487,83L483,83L477,84L472,86L467,88L462,91L457,95L453,98L449,101L444,105L440,109L437,113L434,118L431,123L428,128L426,133L424,139L422,146L420,152L419,158L417,164L417,170L416,176L416,182L416,187L416,193L416,199L416,204L416,209L416,213L417,219L419,224L420,227L422,231L424,235L426,239L428,243L430,246L432,251L434,254L435,257L437,260L439,263L442,266L444,269L446,271L448,274L450,277L452,279L454,282L456,284L457,285L459,287L461,289L462,291L463,292L466,294L467,297L469,299L471,301L472,303L474,304L476,306L477,308L478,309L480,311L481,312L482,314L483,315L485,316L485,317L487,319L488,320L489,322L490,323L490,325L491,326L492,328L493,329L494,330L495,332L495,333L496,334L497,336L498,337L498,338L499,339L500,341L500,342L501,343L502,344L502,346L503,348L504,349L504,351L505,353L505,355L506,357L507,358L507,360L507,362L508,363L508,365L508,366L509,368L509,370L510,371L510,373L510,375L510,377L511,379L511,381L511,382L512,384L512,386L512,387L512,389L512,391L513,392L513,394L513,395L513,396L513,398L513,399L513,401L513,402L513,404L513,405L513,407L513,408L513,410L513,411L513,412L513,413L513,414L513,415L513,416L513,417L513,418L513,419L513,420" stroke-opacity="1" stroke-width="5" stroke-linecap="round" stroke-linejoin="round" style="-webkit-tap-highlight-color: rgba(0, 0, 0, 0); stroke-opacity: 1; stroke-linecap: round; stroke-linejoin: round; -webkit-user-select: text;"></path></svg>