<svg height="582" version="1.1" width="499" xmlns="http://www.w3.org/2000/svg" xmlns:xlink="http://www.w3.org/1999/xlink" style="overflow: hidden; position: relative; user-select: text;"><desc style="-webkit-tap-highlight-color: rgba(0, 0, 0, 0); user-select: text;">Created with Raphaël 2.2.0</desc><defs style="-webkit-tap-highlight-color: rgba(0, 0, 0, 0); user-select: text;"></defs><path fill="none" stroke="#ff0000" d="M171,86L171,86L171,86L170,89L162,99L155,109L142,128L134,140L129,148L126,155L124,159L123,163L123,168L123,174L126,182L144,193L172,203L220,211L242,212L263,212L272,211L278,209L280,207L281,204L281,200L277,190L270,183L248,166L236,162L221,158L205,156L192,155L184,155L177,155L172,155L170,155" stroke-opacity="1" stroke-width="5" stroke-linecap="round" stroke-linejoin="round" style="-webkit-tap-highlight-color: rgba(0, 0, 0, 0); stroke-opacity: 1; stroke-linecap: round; stroke-linejoin: round; user-select: text;"></path></svg>