<svg height="900" version="1.1" width="768" xmlns="http://www.w3.org/2000/svg" xmlns:xlink="http://www.w3.org/1999/xlink" style="overflow: hidden; position: relative; -webkit-user-select: text;"><desc style="-webkit-tap-highlight-color: rgba(0, 0, 0, 0); -webkit-user-select: text;">Created with Raphaël 2.2.0</desc><defs style="-webkit-tap-highlight-color: rgba(0, 0, 0, 0); -webkit-user-select: text;"></defs><path fill="none" stroke="#000000" d="M197,247L201,247L204,245L208,242L212,239L217,235L223,231L229,227L237,222L244,216L251,210L259,205L265,201L273,194L280,188L286,184L291,180L295,177L299,174L301,172L304,171L306,170L306,169" stroke-opacity="1" stroke-width="5" stroke-linecap="round" stroke-linejoin="round" style="-webkit-tap-highlight-color: rgba(0, 0, 0, 0); stroke-opacity: 1; stroke-linecap: round; stroke-linejoin: round; -webkit-user-select: text;"></path><path fill="none" stroke="#000000" d="M331,160L337,169L339,172L341,175L344,178L346,182L349,186L352,191L355,196L359,200L362,204L366,208L369,212L372,216L376,220L379,224L382,228L384,230L388,235L390,238L393,242L395,245L397,248L399,250L401,253L403,254L404,256L405,258L406,259L408,260L408,262L409,263L410,264L411,265L411,266L411,267" stroke-opacity="1" stroke-width="5" stroke-linecap="round" stroke-linejoin="round" style="-webkit-tap-highlight-color: rgba(0, 0, 0, 0); stroke-opacity: 1; stroke-linecap: round; stroke-linejoin: round; -webkit-user-select: text;"></path><path fill="none" stroke="#000000" d="M408,293L403,299L401,301L399,304L395,307L391,310L387,313L382,317L378,320L374,324L370,328L365,331L360,335L356,338L351,342L347,346L342,351L338,354L334,357L330,361L327,363L323,366L321,369L318,371L316,373L313,376L311,378L309,380L306,381L305,381L304,382L302,382" stroke-opacity="1" stroke-width="5" stroke-linecap="round" stroke-linejoin="round" style="-webkit-tap-highlight-color: rgba(0, 0, 0, 0); stroke-opacity: 1; stroke-linecap: round; stroke-linejoin: round; -webkit-user-select: text;"></path><path fill="none" stroke="#000000" d="M286,370L288,364L288,362L289,359L290,355L292,350L294,345L296,340L297,336L299,332L300,326L301,321L301,317L302,313L303,308L303,304L304,300L305,296L306,292L307,288L308,285L309,281L310,277L311,274L312,270L313,266L314,263L315,259L316,256L317,252L317,249L318,245L318,242L319,239L320,236L321,234L321,232L321,230L322,230L322,229L322,228L323,228L325,226" stroke-opacity="1" stroke-width="5" stroke-linecap="round" stroke-linejoin="round" style="-webkit-tap-highlight-color: rgba(0, 0, 0, 0); stroke-opacity: 1; stroke-linecap: round; stroke-linejoin: round; -webkit-user-select: text;"></path><path fill="none" stroke="#000000" d="M367,170L370,172L373,172L375,172L379,172L384,171L390,169L396,168L402,167L409,165L415,163L421,162L427,160L432,159L438,157L442,157L447,156L451,155L455,155L459,154L462,153L465,153L468,152L470,152L472,152L473,152L474,152L474,151" stroke-opacity="1" stroke-width="5" stroke-linecap="round" stroke-linejoin="round" style="-webkit-tap-highlight-color: rgba(0, 0, 0, 0); stroke-opacity: 1; stroke-linecap: round; stroke-linejoin: round; -webkit-user-select: text;"></path><path fill="none" stroke="#000000" d="M478,148L478,157L478,160L478,165L478,171L478,178L478,186L476,195L474,204L473,214L471,223L469,232L467,241L465,249L464,257L462,265L462,272L461,279L460,284L460,291L459,298L459,303L459,309L459,315L459,320L459,325L459,329L459,333L459,337L458,340L458,343L457,346L457,349L457,351L457,352L456,352L456,353L455,353" stroke-opacity="1" stroke-width="5" stroke-linecap="round" stroke-linejoin="round" style="-webkit-tap-highlight-color: rgba(0, 0, 0, 0); stroke-opacity: 1; stroke-linecap: round; stroke-linejoin: round; -webkit-user-select: text;"></path><path fill="none" stroke="#000000" d="M433,370L425,373L423,373L419,375L414,377L409,378L405,380L400,382L394,384L389,386L384,388L379,390L374,393L369,395L363,399L357,401L353,404L347,406L341,408L335,411L328,414L321,417L314,420L308,423L304,425L299,427L296,429L293,431L292,432L291,432L291,433L289,432L287,432" stroke-opacity="1" stroke-width="5" stroke-linecap="round" stroke-linejoin="round" style="-webkit-tap-highlight-color: rgba(0, 0, 0, 0); stroke-opacity: 1; stroke-linecap: round; stroke-linejoin: round; -webkit-user-select: text;"></path><path fill="none" stroke="#000000" d="M280,434L278,433L278,430L277,427L276,422L274,417L272,411L269,404L267,397L263,390L260,386L257,378L253,372L250,365L247,357L244,350L241,343L239,337L236,332L234,327L233,323L231,320L230,317L229,315L229,313L228,312L228,311L227,311L227,310L227,309" stroke-opacity="1" stroke-width="5" stroke-linecap="round" stroke-linejoin="round" style="-webkit-tap-highlight-color: rgba(0, 0, 0, 0); stroke-opacity: 1; stroke-linecap: round; stroke-linejoin: round; -webkit-user-select: text;"></path><path fill="none" stroke="#000000" d="M219,313L224,307L226,305L229,303L233,299L237,296L243,291L248,288L253,285L260,281L267,278L273,275L281,271L289,268L297,266L304,264L313,262L321,260L329,259L336,259L344,258L351,258L357,258L363,258L369,259L374,260L380,262L385,264L391,267L396,269L401,272L406,274L411,276L416,279L420,281L424,283L428,286L431,288L434,291L438,293L441,296L445,298L448,300L452,302L455,304L458,306L461,307L464,308L467,310L471,310L474,312L476,313L479,313L482,314L484,315L487,316L490,316L493,317L496,318L498,318L500,318L503,319L505,319L507,319L509,319L512,319L514,319L516,319L519,319L521,319L523,319L524,319L526,319L528,319L529,318L531,317L533,316L535,315L537,314L539,313L541,312L542,311L544,310L546,309L547,308L549,306L550,305L551,304L552,303L553,302L554,301L555,300L556,299L557,298L557,297L557,296L558,296L559,294L559,293L560,292L561,291L561,290L562,289L562,288L562,286" stroke-opacity="1" stroke-width="5" stroke-linecap="round" stroke-linejoin="round" style="-webkit-tap-highlight-color: rgba(0, 0, 0, 0); stroke-opacity: 1; stroke-linecap: round; stroke-linejoin: round; -webkit-user-select: text;"></path></svg>