<svg height="592" version="1.1" width="475" xmlns="http://www.w3.org/2000/svg" xmlns:xlink="http://www.w3.org/1999/xlink" style="overflow: hidden; position: relative; user-select: text;"><desc style="-webkit-tap-highlight-color: rgba(0, 0, 0, 0); user-select: text;">Created with Raphaël 2.2.0</desc><defs style="-webkit-tap-highlight-color: rgba(0, 0, 0, 0); user-select: text;"></defs><path fill="none" stroke="#ff0000" d="M148,146L148,146L148,144L148,144L148,141L148,139L150,135L153,132L163,126L176,119L192,114L202,111L219,108L227,108L239,108L249,108L256,108L260,111L263,115L266,122L266,130L266,147L263,154L257,167L249,183L240,198L229,212L217,227L205,239L192,248L177,257L163,265L148,271L141,273L128,277L124,278L117,280L112,282L109,283L107,284L106,284L106,285L112,287L134,294L147,298L176,307L205,317L219,321L246,332L268,340L275,342L290,348L300,351L303,352L309,353L312,354L315,354L317,354L317,353L318,349L318,343L317,336L313,325L308,314L303,300L298,287L293,273L290,268L284,258L279,249L269,239L262,234L253,232L249,231L243,231L240,231L232,231L228,231L225,234L221,240L220,243L219,247L218,253L218,259L218,265L218,270L218,276L218,281L220,285L222,289L224,294L227,298L230,303L233,307L237,310L241,313L245,316L249,319L253,320L262,324L269,327L277,328L287,331L297,333L307,335L313,335L321,336L330,337L336,337L341,337L344,336L349,331L352,325L352,318L353,307L353,294L353,281L352,265L349,249L343,233L336,217L328,204L317,193L296,173L279,165L258,159L232,155L203,153L173,153L160,153L139,158L132,161L119,167L111,172L101,182L100,196L101,205L113,218L133,234L174,262L191,271L225,289L240,297L266,308L276,310L295,315L309,316L321,316L329,316L340,308L344,299L350,279L351,259L351,239L341,216L315,179L284,157L241,137L216,133L176,126L161,126L135,126L128,126L113,132L97,142L90,158L90,171L99,188L127,223L158,250L196,280L216,293L252,316L268,324L297,339L320,347L328,349L342,351L362,352L368,351L378,338L381,325L382,306L382,283L379,258L367,232L333,188L300,165L280,157L242,146L208,143L194,143L169,144L152,152L139,162L131,175L126,188L126,202L126,227L135,244L150,264L168,282L190,301L214,318L227,325L248,336L269,346L290,352L296,353L311,355L322,355L330,355L336,353L344,347L347,339L350,323L350,309L350,290L344,270L332,245L317,218L308,205L292,182L286,174L275,159L267,148L260,139L258,137L253,131L249,128L246,125L242,122L239,120" stroke-opacity="1" stroke-width="5" stroke-linecap="round" stroke-linejoin="round" style="-webkit-tap-highlight-color: rgba(0, 0, 0, 0); stroke-opacity: 1; stroke-linecap: round; stroke-linejoin: round; user-select: text;"></path><path fill="none" stroke="#221bff" d="M253,281L252,284L252,284L251,286L250,287L249,287L248,289L246,289L243,290L237,290L232,290L224,290L215,290L203,287L190,282L178,277L166,272L161,269L154,264L147,260L145,258L143,255L140,252L139,248L139,245L139,243L142,239L153,233L168,228L206,220L240,220L262,220L275,220L300,226L319,234L334,245L345,256L352,268L356,281L358,294L359,308L359,321L359,326L356,336L352,344L347,351L337,358L328,361L311,362L292,362L271,358L244,348L212,336L181,320L169,314L146,299L129,286L118,274L112,261L109,250L109,231L120,210L147,192L217,161L284,148L322,147L350,147L370,148L407,154L417,159L437,168L450,178L465,193L467,204L467,213L466,222L460,230L451,238L432,249L414,252L390,252L343,252L325,248L290,237L276,231L265,225L249,217L245,214L229,203L227,198L226,192L228,187L241,182L259,177L282,174L292,174L298,174L307,174L318,176L320,181L320,189L320,198L313,210L305,221L294,230L284,240L278,243L270,249L267,251L263,255L259,258L256,262L256,266L256,270L259,273L266,278L276,283L287,288L293,290L303,294L312,296L321,297L328,297L334,297L342,294L346,288L350,280L352,270L353,258L353,246L349,226L336,212L322,200L312,195L296,188L289,187L276,184L267,183L260,183L254,184L247,189L244,197L243,204L243,214L243,226L244,239L249,252L255,266L263,280L270,293L279,307L283,312L290,321L296,328L299,330L302,334L305,337L307,338L309,338L341,258L343,238L343,203L341,183L328,164L291,129L214,97L196,95L180,95L152,95L128,95L109,104L95,115L78,139L74,157L74,181L77,208L94,236L130,283L165,315L205,343L225,354L261,373L295,387L308,390L335,396L343,396L377,397L389,397L400,391L408,382L413,371L421,347L422,327L422,305L415,280L400,256L363,213L328,188L309,181L273,167L258,165L231,164L209,164L191,164L179,171L170,180L160,199L160,216L160,234L170,257L188,282L226,329L242,342L271,368L301,388L331,406L342,411L364,420L371,422L384,425L395,426L410,426L414,424L421,412L423,398L424,378L424,353L421,323L401,267L379,229L364,215L338,191L325,185L302,175L279,170L259,170L241,171L213,185L200,201L190,220L187,230L184,247L184,266L184,300L193,320L206,341L223,360L243,377L263,392L272,398L291,409L309,418L324,423L330,424L341,425L350,425L361,425L366,419L370,412L376,391L378,371L379,346L379,317L376,281L366,246L349,214L329,188L306,167L294,163L273,153L253,150L234,150L202,152L185,163L177,171L163,186L154,201L148,216L146,232L146,262L151,281L177,320L206,346L226,359L260,381L296,401L309,407L335,416L344,418L361,420L374,421L391,421L398,415L402,407L406,387L407,370L407,347L400,320L379,266L357,227L329,187L293,149L272,134L232,112L196,97L164,91L134,91L124,93L103,103L86,115L72,130L63,145L57,162L54,177L54,192L54,206L59,228L71,243L88,258L108,273L132,287L157,300L185,311L211,319L222,321L243,325L262,326L268,326L280,325L297,318L303,311L309,300L316,280L317,261L317,238L317,213L310,184L299,156L284,127L276,116L259,97L242,83L225,72L209,68L193,67L179,67L156,76L143,91L134,108L126,132L123,158L123,185L127,213L153,267L167,282L193,311L222,336L254,358L281,375L294,381L317,392L338,400L344,401L357,403L367,404L374,404L383,402L386,397L388,389L388,370L388,353L387,333L378,311L366,283L350,254L333,226L313,202L291,180L265,164L252,160L213,147L202,147L181,147L165,151L151,161L131,182L125,200L125,220L125,242L141,284L165,314L195,344L213,357L248,382L283,405L297,412L326,427L349,436L356,438L372,442L383,443L392,443L397,442L404,436L405,427L406,409L406,390L400,365L390,336L376,304L344,242L330,223L303,189L251,138L234,130L201,114L172,105L145,105L134,105L112,108L94,118L80,128L70,141L64,154L61,169L61,194L65,210L87,242L112,266L146,292L165,302L203,323L240,341L253,345L281,357L304,363L312,364L325,367L335,367L341,367L348,364L350,358L350,349L350,329L346,312L338,290L325,263L309,235L290,207L280,196L262,177L246,164L230,155L217,150L204,149L192,149L181,151L171,157L162,166L154,175L151,180L146,188L142,198L139,207L138,216L138,225L138,232L138,241L138,249L141,256L144,263L148,269L151,274L155,279L157,282L161,285L165,288L170,290L175,291L184,293L192,293L201,293L206,293L215,293L222,293L226,292L231,290L235,288L240,285L241,282L241,280L241,276L237,273L232,269L216,261L201,254L180,246L158,238L148,235L139,233L125,230L113,228L104,228L97,228L96,228L89,228L86,230L85,232L83,235L83,240L82,244L82,246L82,249L82,251L82,252L82,253L82,255L82,255L81,255L81,255L79,255L78,253L74,248L70,243L65,236L61,227L57,216L56,210L51,193L51,181L51,168L51,155L55,142L62,127L72,114L82,100L87,95L91,92L98,85L108,75L113,72L117,70L118,70L121,69L123,69L124,68L126,68L127,68L127,68L128,68L129,68L130,68L131,68L132,68L133,68L135,69L136,71L137,76L138,82L138,91L138,111L138,130L138,140L138,159L139,178L140,196L141,203L142,217L143,228L144,232L144,238L145,244L145,248L146,251L146,254L146,255L146,256L146,257L145,257L143,257L138,257L134,253L131,250L127,246L124,240L121,236L120,223L120,219L126,214L141,208L158,206L180,205L191,205L209,207L238,224L244,232L249,239L250,245L251,250L251,252L251,258L250,260L247,263L240,266L228,266L213,266L191,266L167,261L139,253L126,250L116,246L98,240L93,237L83,233L76,229L68,223L67,220L67,217L67,214L67,211L68,208L71,204" stroke-opacity="1" stroke-width="5" stroke-linecap="round" stroke-linejoin="round" style="-webkit-tap-highlight-color: rgba(0, 0, 0, 0); stroke-opacity: 1; stroke-linecap: round; stroke-linejoin: round; user-select: text;"></path></svg>