<svg height="592" version="1.1" width="1032" xmlns="http://www.w3.org/2000/svg" xmlns:xlink="http://www.w3.org/1999/xlink" style="overflow: hidden; position: relative; user-select: text;"><desc style="-webkit-tap-highlight-color: rgba(0, 0, 0, 0); user-select: text;">Created with Raphaël 2.2.0</desc><defs style="-webkit-tap-highlight-color: rgba(0, 0, 0, 0); user-select: text;"></defs><path fill="none" stroke="#ff0000" d="M171,107L171,106L171,108L171,120L171,157L171,177L170,193L170,205L170,211L170,214L170,217L170,218L171,220L171,220L171,222L172,223L172,225L172,226L173,228L173,228" stroke-opacity="1" stroke-width="5" stroke-linecap="round" stroke-linejoin="round" style="-webkit-tap-highlight-color: rgba(0, 0, 0, 0); stroke-opacity: 1; stroke-linecap: round; stroke-linejoin: round; user-select: text;"></path><path fill="none" stroke="#ff0000" d="M224,109L224,108L225,108L233,108L254,106L274,103L300,102L314,102L336,104L345,110L351,117L355,123L357,139L358,156L358,179L356,197L351,216L343,228L335,237L327,241L319,244L312,246L306,247L297,249L295,249L293,250L293,250L294,250L297,250L304,251L318,253L330,256L348,261L364,264L378,265L385,266L392,266L397,266L402,265L403,265L404,264L404,264L405,264" stroke-opacity="1" stroke-width="5" stroke-linecap="round" stroke-linejoin="round" style="-webkit-tap-highlight-color: rgba(0, 0, 0, 0); stroke-opacity: 1; stroke-linecap: round; stroke-linejoin: round; user-select: text;"></path><path fill="none" stroke="#ff0000" d="M496,90L496,90L501,90L505,90L531,90L566,97L595,107L616,116L635,126L641,132L644,138L644,143L636,151L612,161L573,172L543,179L506,185L487,189L475,190L467,191L463,191L463,191L475,190L519,189L536,189L586,204L605,217L624,237L635,255L642,273L643,289L641,308L630,320L612,331L591,338L569,341L554,342L539,343L531,343L525,343L521,343L520,343L519,343L518,343L518,342L518,342" stroke-opacity="1" stroke-width="5" stroke-linecap="round" stroke-linejoin="round" style="-webkit-tap-highlight-color: rgba(0, 0, 0, 0); stroke-opacity: 1; stroke-linecap: round; stroke-linejoin: round; user-select: text;"></path><path fill="none" stroke="#113aff" d="M224,212L224,213L224,213L224,217L222,223L221,230L219,239L216,247L213,253L211,257L207,260L204,262L201,263L198,264L195,264L191,265L188,265L183,265L179,265L175,265L172,265L163,262L156,259L149,256L140,252L136,249L120,236L115,232L111,228L108,226L105,223L102,221L99,218L96,213L95,207L94,203L94,195L94,189L94,181L93,172L92,161L90,150L89,140L88,133L88,126L88,119L88,117L89,113L95,107L98,106L105,103L117,98L127,94L137,90L147,85L155,81L159,78L163,76L165,74L166,73L167,72L168,72L168,72L168,72L168,72L169,73L172,76L176,81L178,84L181,89L183,93L185,97L186,100L186,104L188,108L189,112L190,116L191,118L191,119L192,120L193,122L194,124L197,131L200,137L203,143L205,148L208,153L210,156L212,158L214,160L218,161L221,161L230,161L236,159L239,157L245,154L253,150L259,148L263,147L267,146L271,146L277,146L282,146L287,148L291,149L296,151L300,152L302,152L303,152L303,152L304,155L305,157L310,161L312,162L314,163L317,165L319,167L321,168L321,169L322,170L323,171L323,173L323,175L323,178L323,181L319,186L317,187L312,191L310,192L308,193L307,194L305,195L303,196L301,198L298,200L295,202L291,205L287,208L282,212L277,216L270,221L265,225L261,228L260,230L258,232L257,236L257,241L259,245L262,250L266,256L270,263L274,269L278,275L283,280L288,284L293,289L305,296L316,301L331,306L352,313L371,317L384,320L400,321L412,322L420,322L427,322L432,322L435,320L438,319L441,317L446,314L449,312L453,309L456,306L459,300L460,293L460,284L458,275L453,266L450,262L445,257L441,253L437,251L433,249L426,247L424,247L417,246L413,245L408,245L405,244L401,243L397,243L393,243L389,243L387,243L385,242L384,242L383,241L383,238L383,234L384,224L386,216L389,206L390,196L392,187L393,179L393,171L393,164L391,154L388,143L384,132L381,125L377,115L376,107L375,99L374,87L374,77L374,65L373,54L373,44L372,39L370,33L367,30L365,28L364,27L364,27L362,27L358,27L352,29L345,32L337,36L328,40L319,45L310,49L304,53L299,55L294,58L291,60L290,61L289,62L288,62L287,62L285,62L282,62L278,61L272,60L265,59L256,58L246,58L236,58L227,58L219,60L213,63L209,65L206,67L204,68L202,69L200,70L200,71L199,71L199,71L198,71" stroke-opacity="1" stroke-width="7" stroke-linecap="round" stroke-linejoin="round" style="-webkit-tap-highlight-color: rgba(0, 0, 0, 0); stroke-opacity: 1; stroke-linecap: round; stroke-linejoin: round; user-select: text;"></path></svg>