<svg height="592" version="1.1" width="1032" xmlns="http://www.w3.org/2000/svg" xmlns:xlink="http://www.w3.org/1999/xlink" style="overflow: hidden; position: relative; user-select: text;"><desc style="-webkit-tap-highlight-color: rgba(0, 0, 0, 0); user-select: text;">Created with Raphaël 2.2.0</desc><defs style="-webkit-tap-highlight-color: rgba(0, 0, 0, 0); user-select: text;"></defs><path fill="none" stroke="#ff0000" d="M171,107L171,106L171,108L171,120L171,157L171,177L170,193L170,205L170,211L170,214L170,217L170,218L171,220L171,220L171,222L172,223L172,225L172,226L173,228L173,228" stroke-opacity="1" stroke-width="5" stroke-linecap="round" stroke-linejoin="round" style="-webkit-tap-highlight-color: rgba(0, 0, 0, 0); stroke-opacity: 1; stroke-linecap: round; stroke-linejoin: round; user-select: text;"></path><path fill="none" stroke="#ff0000" d="M224,109L224,108L225,108L233,108L254,106L274,103L300,102L314,102L336,104L345,110L351,117L355,123L357,139L358,156L358,179L356,197L351,216L343,228L335,237L327,241L319,244L312,246L306,247L297,249L295,249L293,250L293,250L294,250L297,250L304,251L318,253L330,256L348,261L364,264L378,265L385,266L392,266L397,266L402,265L403,265L404,264L404,264L405,264" stroke-opacity="1" stroke-width="5" stroke-linecap="round" stroke-linejoin="round" style="-webkit-tap-highlight-color: rgba(0, 0, 0, 0); stroke-opacity: 1; stroke-linecap: round; stroke-linejoin: round; user-select: text;"></path><path fill="none" stroke="#ff0000" d="M496,90L496,90L501,90L505,90L531,90L566,97L595,107L616,116L635,126L641,132L644,138L644,143L636,151L612,161L573,172L543,179L506,185L487,189L475,190L467,191L463,191L463,191L475,190L519,189L536,189L586,204L605,217L624,237L635,255L642,273L643,289L641,308L630,320L612,331L591,338L569,341L554,342L539,343L531,343L525,343L521,343L520,343L519,343L518,343L518,342L518,342" stroke-opacity="1" stroke-width="5" stroke-linecap="round" stroke-linejoin="round" style="-webkit-tap-highlight-color: rgba(0, 0, 0, 0); stroke-opacity: 1; stroke-linecap: round; stroke-linejoin: round; user-select: text;"></path></svg>