<svg height="592" version="1.1" width="644" xmlns="http://www.w3.org/2000/svg" xmlns:xlink="http://www.w3.org/1999/xlink" style="overflow: hidden; position: relative; user-select: text;"><desc style="-webkit-tap-highlight-color: rgba(0, 0, 0, 0); user-select: text;">Created with Raphaël 2.2.0</desc><defs style="-webkit-tap-highlight-color: rgba(0, 0, 0, 0); user-select: text;"></defs><path fill="none" stroke="#ff0000" d="M124,204L124,202L124,201L124,200L124,199L124,197L124,196L124,194L124,192L125,188L133,180L145,173L159,165L169,162L184,155L191,154L204,152L215,151L223,151L230,151L234,151L237,152L240,155L241,158L241,163L242,171L242,178L242,187L239,196L235,208L228,221L223,234L220,240L216,249L212,259L210,269L208,283L208,293L212,301L219,311L228,321L247,338L263,348L273,354L290,363L307,371L323,378L329,380L341,384L349,386L353,386L359,388L363,388L367,388L369,388L372,388L372,386L373,383L373,377L373,372L370,364L365,355L352,337L345,329L324,307L307,293L288,279L278,273L260,264L242,255L226,248L220,246L216,244L208,241L203,239L199,238L197,237L200,238L223,247L253,261L290,280L330,306L349,319L384,345L398,356L424,375L446,393L453,399L467,409L471,412L479,419L484,423L487,425L489,427L490,427L491,428L491,427L490,425L488,422L485,418L477,410L474,408L468,402L462,397L456,392L451,387L445,382L440,377L434,373L428,369" stroke-opacity="1" stroke-width="5" stroke-linecap="round" stroke-linejoin="round" style="-webkit-tap-highlight-color: rgba(0, 0, 0, 0); stroke-opacity: 1; stroke-linecap: round; stroke-linejoin: round; user-select: text;"></path></svg>