<svg height="495" version="1.1" width="375" xmlns="http://www.w3.org/2000/svg" xmlns:xlink="http://www.w3.org/1999/xlink" style="overflow: hidden; position: relative; -webkit-user-select: text;"><desc style="-webkit-tap-highlight-color: rgba(0, 0, 0, 0); -webkit-user-select: text;">Created with Raphaël 2.2.0</desc><defs style="-webkit-tap-highlight-color: rgba(0, 0, 0, 0); -webkit-user-select: text;"></defs><path fill="none" stroke="#ff0000" d="M173,101L176,107L176,119L172,139L154,175L138,212L129,238L124,257L121,269L120,278L120,283L120,287L120,288L124,288L136,284L153,278L173,273L194,269L213,266L226,266L236,266L244,266L250,265L254,263L256,256L257,244L257,226L254,199L249,173L244,149L240,133L237,122L236,116L236,113L236,111L241,112L254,121L262,130L268,139L272,149L273,162L272,178L260,202L247,229L232,258L220,282L213,299L209,308L205,314L200,317L190,317L167,307L142,290L120,272L107,259L101,248L101,235L103,220L111,204L119,189L127,175L136,165L149,153L164,142L182,134L198,129L211,128L228,128L238,129L245,134L249,138L251,141L251,144L246,144L232,139L218,133L205,130L195,128L184,127L175,127L165,127L154,134L141,145L129,161L115,183L108,199L105,208" stroke-opacity="1" stroke-width="5" stroke-linecap="round" stroke-linejoin="round" style="-webkit-tap-highlight-color: rgba(0, 0, 0, 0); stroke-opacity: 1; stroke-linecap: round; stroke-linejoin: round; -webkit-user-select: text;"></path><path fill="none" stroke="#ff0000" d="M91,100L93,95L102,93L117,86L139,75L164,64L192,54L220,48L238,48L250,48L259,48L265,52L269,57L270,63L270,71L267,82L256,97L240,117L225,138L206,162L186,194L173,217L166,233L162,245L161,254L161,264L163,272L172,280L182,288L193,294L200,299L207,302L214,303L219,304L221,304" stroke-opacity="1" stroke-width="5" stroke-linecap="round" stroke-linejoin="round" style="-webkit-tap-highlight-color: rgba(0, 0, 0, 0); stroke-opacity: 1; stroke-linecap: round; stroke-linejoin: round; -webkit-user-select: text;"></path></svg>