<svg height="592" version="1.1" width="644" xmlns="http://www.w3.org/2000/svg" xmlns:xlink="http://www.w3.org/1999/xlink" style="overflow: hidden; position: relative; user-select: text;"><desc style="-webkit-tap-highlight-color: rgba(0, 0, 0, 0); user-select: text;">Created with Raphaël 2.2.0</desc><defs style="-webkit-tap-highlight-color: rgba(0, 0, 0, 0); user-select: text;"></defs><path fill="none" stroke="#ff0000" d="M224,183L222,183L221,183L221,183L221,183L228,186L237,189L250,196L256,200L271,209L284,218L297,228L308,239L311,244L317,252L322,260L323,262L325,268L326,272L326,276L326,281L326,283L326,285L323,287L317,289L311,289L302,289L290,289L267,288L258,287L241,282L223,276L206,270L189,263L177,257L165,251L161,247L152,240L146,234L141,227L138,220L136,213L135,201L135,193L137,183L149,164L165,149L201,120L237,99L278,80L299,74L314,70L343,64L351,64L368,64L380,64L387,66L389,68L393,71L395,74L396,77L396,78L396,80L396,81L392,81L387,81L380,75L365,62L354,49L348,41L337,27L328,12L326,6L332,0L345,45L353,86L357,109L364,151L366,168L369,199L371,225L371,233L372,249L372,261L372,269L371,275L369,279L364,283L358,287L350,288L341,289L329,289L317,289L305,285L298,282L288,278L280,274L273,269L267,264L262,259L259,254L256,251L255,247L254,245L253,242L252,240L251,237L251,236L250,235L250,234L249,234L249,233L248,233" stroke-opacity="1" stroke-width="5" stroke-linecap="round" stroke-linejoin="round" style="-webkit-tap-highlight-color: rgba(0, 0, 0, 0); stroke-opacity: 1; stroke-linecap: round; stroke-linejoin: round; user-select: text;"></path><path fill="none" stroke="#ff0000" d="M141,93L141,93L141,92L141,92L142,92L150,92L161,92L179,96L200,103L228,114L258,127L285,142L309,158L318,166L334,180L339,185L348,196L350,198L354,204L357,212L357,214L356,217L349,218L332,218L294,217L255,205L204,190L152,171L125,164L106,158L93,154L84,152L67,147L56,143L45,140L44,139L45,139L56,139L74,140L119,153L160,166L212,186L263,207L286,217L330,236L347,245L377,259L386,264L392,267L404,275L412,279L416,282L420,286L420,287L420,287L414,287L400,286L382,279L360,271L332,258L304,246L292,241L285,238L280,236L271,232L265,228L258,224L258,224L261,224L269,224L278,227L284,230L293,233L298,236L305,239L310,241L314,243L316,244L318,245L319,246L319,246L319,246L319,245L316,242L306,231L294,218L279,202L270,193L264,185L261,180L249,164L246,154L246,148L262,145L287,145L317,151L335,159L365,173L377,180L398,194L405,199L418,208L421,210L428,216L432,219L433,221L434,223L434,223L432,223L419,222L391,212L359,200L317,183L266,164L215,148L192,143L152,133L136,131L125,130L117,129L103,128L94,127L88,127L83,127L82,128L82,131L87,137L100,148L115,159L134,172L162,188L216,216L234,225L269,241L301,256L314,260L323,264L344,270L358,273L362,274L377,274L380,274L384,271L385,265L385,259L382,244L372,231L356,214L333,196L285,166L245,147L226,141L212,138L204,136L198,136L186,134L172,132L169,132L167,135L167,145L176,155L188,169L205,185L226,201L250,220L275,238L286,245L307,258L315,262L329,270L334,272L342,275L348,276L354,277L356,277L357,274L357,270L357,263L355,256L350,246L344,237L340,233L337,229L333,224" stroke-opacity="1" stroke-width="5" stroke-linecap="round" stroke-linejoin="round" style="-webkit-tap-highlight-color: rgba(0, 0, 0, 0); stroke-opacity: 1; stroke-linecap: round; stroke-linejoin: round; user-select: text;"></path></svg>