<svg height="503" version="1.1" width="835" xmlns="http://www.w3.org/2000/svg" xmlns:xlink="http://www.w3.org/1999/xlink" style="overflow: hidden; position: relative; user-select: text;"><desc style="-webkit-tap-highlight-color: rgba(0, 0, 0, 0); user-select: text;">Created with Raphaël 2.2.0</desc><defs style="-webkit-tap-highlight-color: rgba(0, 0, 0, 0); user-select: text;"></defs><path fill="none" stroke="#ff0000" d="M358,87L358,88L358,88L361,88L366,88L372,88L379,88L382,88L389,88L395,88L400,88L401,88L404,88L406,88L407,88L408,88L406,88L399,88L391,88L378,88L364,88L349,88L333,91L320,94L314,97L303,102L294,108L281,120L277,128L273,140L271,153L271,169L271,184L274,200L281,218L289,233L300,251L312,265L322,276L328,280L337,286L346,290L354,293L357,294L361,294L365,294L367,294L368,294L369,294L370,294L370,294L370,294L370,294L370,293L369,293L367,293L363,295L356,299L349,302L342,305L336,306L329,309L321,311L313,312L306,313L298,313L287,313L280,307L268,295L259,280L256,273L250,259L245,244L244,239L242,227L242,217L242,209L242,202L245,198L252,191L260,187L270,184L281,181L294,179L309,179L323,179L339,179L353,179L368,179L382,180L394,184L406,187L411,189L421,193L430,196L438,199L446,203L453,206L459,209L464,212L469,214L473,217L477,219L481,221L484,223L486,223L489,225L491,225L493,226L494,226L495,227L496,227L496,227L497,227L497,227L497,226L498,225L499,223L499,220L501,217L503,212L504,206L506,201L509,195L512,189L515,184L518,179L521,175L525,172L529,169L533,168L539,167L544,165L551,165L557,165L564,165L570,165L576,168L580,170L584,173L588,176L591,180L592,181L594,185L596,188L597,190L598,193L598,195L599,198L599,200L599,203L598,206L596,208L591,213L586,217L579,221L571,225L562,229L550,233L538,237L526,240L514,241L501,242L489,242L477,242L471,241L461,239L452,236L443,233L436,231L430,228L428,227L424,224L421,222L419,221L417,220L416,219L415,219L415,218L414,218L414,218" stroke-opacity="1" stroke-width="5" stroke-linecap="round" stroke-linejoin="round" style="-webkit-tap-highlight-color: rgba(0, 0, 0, 0); stroke-opacity: 1; stroke-linecap: round; stroke-linejoin: round; user-select: text;"></path></svg>