<svg height="495" version="1.1" width="375" xmlns="http://www.w3.org/2000/svg" xmlns:xlink="http://www.w3.org/1999/xlink" style="overflow: hidden; position: relative; -webkit-user-select: text;"><desc style="-webkit-tap-highlight-color: rgba(0, 0, 0, 0); -webkit-user-select: text;">Created with Raphaël 2.2.0</desc><defs style="-webkit-tap-highlight-color: rgba(0, 0, 0, 0); -webkit-user-select: text;"></defs><path fill="none" stroke="#ff0000" d="M40,21L59,25L69,25L79,29L92,33L105,37L118,41L132,46L149,50L161,54L173,58L181,60L190,63L196,64L203,66L210,67L216,69L224,71L232,74L242,77L252,80L263,84L271,87L278,89L284,90L288,91L290,91L291,91L291,86L286,76L276,62L264,51L254,44L242,36L234,31L225,28L217,25L210,23L203,22L198,20L193,20L188,19L183,18L177,18L170,17L163,16L157,14L150,13L143,12L138,11L134,11L129,10L124,9L119,7L113,6L108,4L103,2L100,1L96,0L92,0L86,0L81,0L75,0L70,0L66,1L63,2L60,4L56,6L53,8L49,10L45,12L41,13L37,14L34,15L31,15L28,15L26,15L22,15L20,13L18,11L16,9L15,8L15,7L16,11L18,22L21,33L22,42L23,52L23,61L23,69L23,77L21,84L19,91L17,98L15,107L13,115L12,125L12,137L12,148L11,160L11,168L10,180L10,191L10,202L10,211L10,219L10,227L10,237L10,247L10,259L10,275L10,290L11,304L11,314L11,324L11,334L11,348L11,364L11,381L10,398L10,412L10,423L9,432L9,439L9,445L8,450L8,455L8,459L8,463L8,467L8,471L12,476L21,481L34,484L48,486L65,487L81,487L97,487L113,486L131,483L149,480L168,477L185,473L201,471L214,470L226,470L236,470L246,470L257,472L268,474L276,475L286,477L294,478L303,480L312,482L323,484L332,487L342,490L348,494L352,497L354,500L354,502L354,501L354,491L352,471L347,445L339,415L328,389L322,374L319,366L317,360L317,354L317,348L318,342L322,334L326,327L329,321L332,318L335,315L337,315L338,315L339,315L341,323L342,335L342,349L342,366L342,382L342,397L341,413L340,426L339,436L339,444L339,450L340,454L344,456L350,459L355,461L358,462L359,462L359,459L357,451L355,434L355,415L355,389L355,364L354,346L351,334L347,321L343,311L337,300L332,284L330,272L330,262L330,253L331,247L333,241L336,237L338,235L339,232L341,228L344,221L348,210L353,195L359,179L363,166L365,152L366,135L366,120L366,108L365,98L363,88L360,80L357,69L355,59L354,51L353,47L353,44L353,42L353,39L353,35L354,32L354,29L355,26L355,24L355,23L355,22L353,19L347,11L341,4L336,0L331,-3L326,-3L321,-3L315,-2L310,1L305,3L302,5L298,6L296,7L295,8L294,8L291,8L284,10L274,13L263,16L249,19L231,21L215,23L199,26L188,28L175,30L167,31L157,32L148,32L137,31L122,26L106,19L88,12L76,9L69,6L63,4L58,2L55,1L53,1L50,1L46,1L42,1L37,1L31,4L26,7L22,9L20,12L18,16L18,22L17,27L17,31L17,35L17,38L17,40L17,41L17,45L23,58L36,80L45,95L50,103L52,106L53,107L56,102" stroke-opacity="1" stroke-width="5" stroke-linecap="round" stroke-linejoin="round" style="-webkit-tap-highlight-color: rgba(0, 0, 0, 0); stroke-opacity: 1; stroke-linecap: round; stroke-linejoin: round; -webkit-user-select: text;"></path><path fill="none" stroke="#5c51ff" d="M326,267L279,251L263,248L247,246L231,246L222,249L216,256L212,265L211,275L211,289L211,304L215,319L222,335L231,350L242,365L254,377L267,388L275,395L282,400L287,404L291,406L293,406L293,407L292,407L285,408L275,412L264,416L252,422L237,430L223,438L209,447L198,454L189,460L181,466L176,469L171,472L169,473L166,473L162,473L156,472L148,469L137,463L126,458L112,451L100,446L89,441L80,439L71,435L65,433L58,430L51,428L45,425L41,421L39,416L39,404L39,392L44,374L50,358L54,340L58,322L61,305L62,287L63,267L64,249L68,231L73,208L76,186L78,166L79,148L79,136L79,122L76,111L71,97L62,84L55,74L49,66L43,61L37,56L33,52L30,51L29,51L35,59L53,76L74,96L96,115L111,126L123,134L141,141L161,147L180,153L199,157L216,157L232,157L247,151L258,142L269,130L280,118L291,107L300,99L308,94L314,92L319,92L326,97L333,113L343,138L350,162L354,186L354,205L354,225L353,242L349,254L345,263L339,271L334,276L328,279L322,280L316,281L310,282L305,286L299,292L294,300L290,312L286,323L282,336L279,348L277,360L276,368L274,373L273,377L272,379L271,379L270,379L270,373" stroke-opacity="1" stroke-width="5" stroke-linecap="round" stroke-linejoin="round" style="-webkit-tap-highlight-color: rgba(0, 0, 0, 0); stroke-opacity: 1; stroke-linecap: round; stroke-linejoin: round; -webkit-user-select: text;"></path></svg>