<svg height="592" version="1.1" width="1023" xmlns="http://www.w3.org/2000/svg" xmlns:xlink="http://www.w3.org/1999/xlink" style="overflow: hidden; position: relative; user-select: text;"><desc style="-webkit-tap-highlight-color: rgba(0, 0, 0, 0); user-select: text;">Created with Raphaël 2.2.0</desc><defs style="-webkit-tap-highlight-color: rgba(0, 0, 0, 0); user-select: text;"></defs><path fill="none" stroke="#ff0000" d="M223,193L222,193L223,193L239,198L263,208L337,241L390,268L427,288L448,303L465,316L469,322L471,330L471,334L460,339L443,341L425,341L390,335L364,325L333,311L317,303L305,296L296,289L293,282L306,276L368,269L431,269L480,275L533,287L546,291L570,296L574,297L575,297L565,288L539,261L495,214L442,160L422,143L402,125L388,113L383,109L382,109L404,131L438,174L472,228L498,285L506,309L510,325L511,341L510,346L501,349L486,349L467,344L443,336L418,329L392,323L360,317L307,305L248,293L166,280L134,276L113,273L100,270L94,267L94,262L134,243L213,228L339,225L432,225L494,225L511,226L534,230L544,235L520,240L452,240L349,216L260,196L190,184L146,179L122,177L107,176L103,176L123,176L191,180L295,197L370,216L428,231L447,236L477,244L478,245L455,238L384,207L330,183L260,153L221,136L197,126L177,117L170,113L164,109L162,107L161,103L161,99" stroke-opacity="1" stroke-width="5" stroke-linecap="round" stroke-linejoin="round" style="-webkit-tap-highlight-color: rgba(0, 0, 0, 0); stroke-opacity: 1; stroke-linecap: round; stroke-linejoin: round; user-select: text;"></path><path fill="none" stroke="#ff0000" d="M493,112L493,112L494,112L507,119L552,157L619,230L667,292L686,321L696,339L702,353L703,360L703,364L697,366L683,367L653,365L614,353L566,336L536,326L514,320L502,317L491,317L498,334L532,366L578,407L608,431L627,445L638,452L646,457L649,459L650,459L650,452L634,424L597,355L554,267L526,200L512,153L508,117L519,101L561,108L618,143L653,171L676,190L689,200L699,207L702,210L703,210L702,208L684,184L638,128L616,103L596,83L585,73L580,71L577,71L577,87L577,114L593,167L619,220L657,275L684,306L706,325L725,340L733,343L744,344L749,315L747,273L725,216L712,192L699,171L689,156L681,151L679,169L679,219L695,285L712,330L734,373L745,391L757,406L761,411L763,412L763,412L762,409L742,392L684,352L603,302L532,263L447,220L405,201L363,183L344,176L335,172" stroke-opacity="1" stroke-width="5" stroke-linecap="round" stroke-linejoin="round" style="-webkit-tap-highlight-color: rgba(0, 0, 0, 0); stroke-opacity: 1; stroke-linecap: round; stroke-linejoin: round; user-select: text;"></path><path fill="none" stroke="#412eff" d="M252,312L251,314L251,314L250,314L250,314L249,314L247,314L244,314L238,314L229,310L221,304L214,299L212,296L209,291L208,287L207,283L207,282L207,281L207,281L205,281L204,281L203,281L203,281L210,286L239,303L287,331L327,354L360,376L376,388L383,394L385,397L385,399L381,401L368,401L336,399L297,389L267,380L233,372L223,371L208,368L202,367L200,367L202,368L229,381L310,416L356,435L401,450L425,456L447,459L459,459L467,454L472,438L472,404L442,339L391,270L340,228L270,189L250,185L216,181L210,189L218,220L245,259L286,297L318,321L354,342L371,346L388,347L403,341L409,324L411,296L401,251L371,208L318,159L296,144L281,135" stroke-opacity="1" stroke-width="5" stroke-linecap="round" stroke-linejoin="round" style="-webkit-tap-highlight-color: rgba(0, 0, 0, 0); stroke-opacity: 1; stroke-linecap: round; stroke-linejoin: round; user-select: text;"></path><path fill="none" stroke="#412eff" d="M191,61L191,61L192,61L197,61L208,61L241,61L268,70L310,99L323,114L332,132L335,145L335,155L331,163L317,170L286,170L247,168L201,156L184,150L169,144L157,138L153,135L153,131L195,126L251,126L312,132L345,144L366,156L385,173L394,188L396,200L396,208L392,214L379,218L361,218L336,209L307,189L299,181L294,168L308,160L377,156L429,160L466,172L485,182L496,190L503,195L505,199" stroke-opacity="1" stroke-width="3" stroke-linecap="round" stroke-linejoin="round" style="-webkit-tap-highlight-color: rgba(0, 0, 0, 0); stroke-opacity: 1; stroke-linecap: round; stroke-linejoin: round; user-select: text;"></path><path fill="none" stroke="#412eff" d="M400,51L399,50L399,50L404,50L408,50L429,62L459,83L492,115L512,140L531,172L539,189L549,212L551,218L553,224L556,230L563,239L583,259L611,287L642,323L660,348L672,369L681,390L685,401L687,411L687,417L687,421L684,424L679,424L669,423L644,413L599,396L524,369L477,356L460,353L436,349L427,349L422,352L430,365L448,377L497,401L528,412L548,417L567,420L585,421L599,422L613,422L625,422L637,422L650,422L661,422L672,418L684,412L694,404L702,392L708,380L713,359L714,350L714,341L714,334L713,329L712,325L710,322" stroke-opacity="1" stroke-width="3" stroke-linecap="round" stroke-linejoin="round" style="-webkit-tap-highlight-color: rgba(0, 0, 0, 0); stroke-opacity: 1; stroke-linecap: round; stroke-linejoin: round; user-select: text;"></path><path fill="none" stroke="#412eff" d="M771,178L777,179L785,189L805,215L824,247L836,274L848,307L853,325L854,340L856,357L856,362L853,367L845,371L836,371L825,371L812,371L810,374L814,385L830,400L844,412L862,422L877,427L889,428L900,424L911,409L919,384L921,342L916,292L897,230L882,195L870,168L863,155L861,149L860,148L865,155L879,186L894,230L907,284L917,337L920,369L921,392L921,406L918,423L910,427L876,426L852,417L820,404L799,395L776,387L761,380L756,378L753,375L752,371L761,368L786,365L820,364L845,364L871,364L884,364L892,365L896,366L896,366L889,366L866,365L804,349L715,317L670,301L626,287L599,280L580,274L572,273L570,273L570,272L570,272L572,269" stroke-opacity="1" stroke-width="3" stroke-linecap="round" stroke-linejoin="round" style="-webkit-tap-highlight-color: rgba(0, 0, 0, 0); stroke-opacity: 1; stroke-linecap: round; stroke-linejoin: round; user-select: text;"></path></svg>