<svg height="592" version="1.1" width="1023" xmlns="http://www.w3.org/2000/svg" xmlns:xlink="http://www.w3.org/1999/xlink" style="overflow: hidden; position: relative; user-select: text;"><desc style="-webkit-tap-highlight-color: rgba(0, 0, 0, 0); user-select: text;">Created with Raphaël 2.2.0</desc><defs style="-webkit-tap-highlight-color: rgba(0, 0, 0, 0); user-select: text;"></defs><path fill="none" stroke="#ff0000" d="M223,193L222,193L223,193L239,198L263,208L337,241L390,268L427,288L448,303L465,316L469,322L471,330L471,334L460,339L443,341L425,341L390,335L364,325L333,311L317,303L305,296L296,289L293,282L306,276L368,269L431,269L480,275L533,287L546,291L570,296L574,297L575,297L565,288L539,261L495,214L442,160L422,143L402,125L388,113L383,109L382,109L404,131L438,174L472,228L498,285L506,309L510,325L511,341L510,346L501,349L486,349L467,344L443,336L418,329L392,323L360,317L307,305L248,293L166,280L134,276L113,273L100,270L94,267L94,262L134,243L213,228L339,225L432,225L494,225L511,226L534,230L544,235L520,240L452,240L349,216L260,196L190,184L146,179L122,177L107,176L103,176L123,176L191,180L295,197L370,216L428,231L447,236L477,244L478,245L455,238L384,207L330,183L260,153L221,136L197,126L177,117L170,113L164,109L162,107L161,103L161,99" stroke-opacity="1" stroke-width="5" stroke-linecap="round" stroke-linejoin="round" style="-webkit-tap-highlight-color: rgba(0, 0, 0, 0); stroke-opacity: 1; stroke-linecap: round; stroke-linejoin: round; user-select: text;"></path></svg>