<svg height="593" version="1.1" width="375" xmlns="http://www.w3.org/2000/svg" xmlns:xlink="http://www.w3.org/1999/xlink" style="overflow: hidden; position: relative; -webkit-user-select: text;"><desc style="-webkit-tap-highlight-color: rgba(0, 0, 0, 0); -webkit-user-select: text;">Created with Raphaël 2.2.0</desc><defs style="-webkit-tap-highlight-color: rgba(0, 0, 0, 0); -webkit-user-select: text;"></defs><path fill="none" stroke="#ff0000" d="M60,95L62,106L60,113L57,122L53,133L50,142L49,151L49,158L49,166L49,173L51,179L55,184L59,188L62,191L66,193L69,195L73,197L76,198L79,199L82,199L86,199L92,197L99,189L108,179L117,169L123,161L129,153L135,145L140,138L143,134L145,131L146,128L146,127L146,125L146,124L146,122L146,120L145,116L137,110L122,105L107,100L94,97L81,95L73,94L68,94L65,94L64,94L64,95L68,95" stroke-opacity="1" stroke-width="5" stroke-linecap="round" stroke-linejoin="round" style="-webkit-tap-highlight-color: rgba(0, 0, 0, 0); stroke-opacity: 1; stroke-linecap: round; stroke-linejoin: round; -webkit-user-select: text;"></path><path fill="none" stroke="#ff0000" d="M295,78L282,71L269,80L250,96L232,118L215,146L202,174L193,197L190,211L187,219L185,225L183,229L182,232L181,234L179,235L179,236L178,237L182,237L198,235L221,227L243,218L257,214L268,211L279,207L288,203L295,199L300,196L304,191L307,186L310,179L312,170L314,158L316,146L318,137L320,127L322,116L322,104L322,93L322,84L320,76L316,72L311,69L303,69L297,69L291,69L286,71L280,73L274,78L265,84" stroke-opacity="1" stroke-width="5" stroke-linecap="round" stroke-linejoin="round" style="-webkit-tap-highlight-color: rgba(0, 0, 0, 0); stroke-opacity: 1; stroke-linecap: round; stroke-linejoin: round; -webkit-user-select: text;"></path><path fill="none" stroke="#ff0000" d="M175,185L170,190L165,197L154,210L137,232L123,255L112,279L104,301L98,318L94,335L91,347L88,357L85,367L83,373L81,378L79,382L78,385L77,388L75,389L74,391L74,392L73,393L72,393L71,394L70,395L69,396L68,397L67,398L67,399L67,401L67,403L67,405L67,407L67,409L67,412L68,414L70,416L72,418L74,420L76,421L77,422L78,423L80,424L81,424L82,425L83,425L84,426L85,428L85,433" stroke-opacity="1" stroke-width="5" stroke-linecap="round" stroke-linejoin="round" style="-webkit-tap-highlight-color: rgba(0, 0, 0, 0); stroke-opacity: 1; stroke-linecap: round; stroke-linejoin: round; -webkit-user-select: text;"></path><path fill="none" stroke="#ff0000" d="M87,472L86,465L89,465L93,464L96,460L101,453L106,443L111,431L117,419L121,410L126,401L131,395L135,389L138,386L141,383L143,382L145,380L147,378L150,376L154,373L159,369L165,365L171,361L176,359L181,357L184,357L186,357L188,357L190,357L191,357L192,357L193,358L193,359L191,361" stroke-opacity="1" stroke-width="5" stroke-linecap="round" stroke-linejoin="round" style="-webkit-tap-highlight-color: rgba(0, 0, 0, 0); stroke-opacity: 1; stroke-linecap: round; stroke-linejoin: round; -webkit-user-select: text;"></path><path fill="none" stroke="#ff0000" d="M58,500L59,501L63,504L69,506L76,509L83,511L92,512L99,512L105,512L112,513L118,513L122,513L126,513L128,513L131,513L133,510L136,506L138,500L141,494L146,486L151,478L156,470L161,461L166,452L172,444L175,439L179,433L181,427L184,422L186,417L189,413L192,408L196,403L202,399L210,394L220,390L229,386L237,383L244,380L251,377L256,372L261,366L264,358L267,350L269,341L269,333L270,323L270,317L270,311L270,308L270,307L271,306L273,306L275,305L277,304L280,301L282,297L285,292L289,287L291,282L293,278L294,275L295,273L296,271L296,270L297,269L297,268L300,267" stroke-opacity="1" stroke-width="5" stroke-linecap="round" stroke-linejoin="round" style="-webkit-tap-highlight-color: rgba(0, 0, 0, 0); stroke-opacity: 1; stroke-linecap: round; stroke-linejoin: round; -webkit-user-select: text;"></path><path fill="none" stroke="#ff0000" d="M154,314L157,307L162,299L174,286L188,273L204,260L216,254L229,249L241,248L250,248L257,248L263,249L269,250L274,251L281,251L290,244L297,239L303,234L309,230L313,227L318,225L322,224L328,223L333,222L338,220L344,217L350,214L355,209L359,204L362,200L365,196L368,192L370,187" stroke-opacity="1" stroke-width="5" stroke-linecap="round" stroke-linejoin="round" style="-webkit-tap-highlight-color: rgba(0, 0, 0, 0); stroke-opacity: 1; stroke-linecap: round; stroke-linejoin: round; -webkit-user-select: text;"></path><path fill="none" stroke="#ff0000" d="M204,87L194,99L189,109L182,119L174,132L164,144L156,155L147,167L137,182L126,198L117,214L110,226L104,239L98,250L94,259L89,269L86,278L82,287L78,296L76,304L73,312L70,320L68,329L67,335L65,342L63,349L62,356L61,361L61,366L61,371L61,375L61,378L61,379L59,379" stroke-opacity="1" stroke-width="5" stroke-linecap="round" stroke-linejoin="round" style="-webkit-tap-highlight-color: rgba(0, 0, 0, 0); stroke-opacity: 1; stroke-linecap: round; stroke-linejoin: round; -webkit-user-select: text;"></path><path fill="none" stroke="#ff0000" d="M31,69L35,75L35,81L35,88L34,96L31,108L29,119L27,132L26,145L25,157L25,166L25,176L25,185L25,192L26,198L28,205L30,211L34,217L36,222L39,227L41,231L42,234L44,235L46,236L50,236L54,236L58,236L61,236L64,236L66,237L69,240L71,242L74,243L76,244L79,245L80,245L81,246L82,248L82,253L82,262L79,274L74,285L69,294L64,304L59,312L56,318L52,324L49,330L47,334L46,339L45,343L44,347L44,352L44,356L44,360L43,364L43,367L43,371L43,373L42,374L42,375" stroke-opacity="1" stroke-width="5" stroke-linecap="round" stroke-linejoin="round" style="-webkit-tap-highlight-color: rgba(0, 0, 0, 0); stroke-opacity: 1; stroke-linecap: round; stroke-linejoin: round; -webkit-user-select: text;"></path><path fill="none" stroke="#ff0000" d="M176,534L181,534L185,534L191,533L196,528L202,519L207,509L213,497L217,488L221,479L225,471L227,464L229,457L230,452L230,448L230,445L230,443L230,441L230,440L230,439L230,437L230,436L230,434L231,431L234,427L239,422L245,416L250,413L255,408L259,404L262,400L265,396L268,393L271,389L273,386L276,383L279,378L283,374L287,370L289,366L291,363L294,359L296,354L299,349L303,344L307,340L310,335L314,330L317,325L321,320L324,315L328,310L331,305L334,300L336,297L338,293L339,290L341,288L342,287L346,285" stroke-opacity="1" stroke-width="5" stroke-linecap="round" stroke-linejoin="round" style="-webkit-tap-highlight-color: rgba(0, 0, 0, 0); stroke-opacity: 1; stroke-linecap: round; stroke-linejoin: round; -webkit-user-select: text;"></path><path fill="none" stroke="#ff0000" d="M268,118L264,124L262,129L257,134L252,141L245,148L241,155L237,160L234,164L233,166L232,168L232,169L232,170L232,171L232,172L232,173L232,175L233,177L236,179L238,181L241,183L244,184L247,185L250,186L253,186L257,186L260,186L262,186L263,185L265,183L266,181L268,178L270,175L272,172L274,169L276,166L278,163L280,160L281,157L281,153L282,148L282,144L282,140L282,137L282,135L282,133L281,133L279,133L275,133L270,133" stroke-opacity="1" stroke-width="5" stroke-linecap="round" stroke-linejoin="round" style="-webkit-tap-highlight-color: rgba(0, 0, 0, 0); stroke-opacity: 1; stroke-linecap: round; stroke-linejoin: round; -webkit-user-select: text;"></path><path fill="none" stroke="#ff0000" d="M95,130L93,133L91,136L89,139L87,142L86,145L85,148L84,152L83,156L82,159L81,162L81,164L81,167L81,169L81,172L81,173L81,175L83,176L85,176L88,176L92,176L94,175L95,173L97,171L98,169L99,166L101,163L102,159L103,156L104,152L105,149L105,147L105,146L105,144L105,143L105,142L105,141L105,140L104,139L104,137L104,136L105,131" stroke-opacity="1" stroke-width="5" stroke-linecap="round" stroke-linejoin="round" style="-webkit-tap-highlight-color: rgba(0, 0, 0, 0); stroke-opacity: 1; stroke-linecap: round; stroke-linejoin: round; -webkit-user-select: text;"></path><path fill="none" stroke="#ff0000" d="M59,16L61,21L61,24L60,28L60,32L59,36L59,40L59,44L59,48L59,51L60,53L62,55L64,58L67,59L69,61L73,62L76,62L79,63L81,63L84,64L86,64L89,65L92,65L95,66L98,66L102,67L105,67L108,68L111,70L114,71L116,73L118,74L120,75L122,76L124,76L126,77L128,79L130,80L132,81L134,82L136,83L138,83L141,83L144,83L146,83L149,83L153,82L157,80L161,78L165,76L167,74L170,73L171,73L172,73L173,72L174,72L176,71L179,70L183,68L187,66L191,64L194,61L198,59L202,57L205,54L209,52L212,49L215,47L218,44L222,42L225,40L228,39L230,37L233,36L235,35L237,34L239,33L241,32L242,32L242,31L243,31L244,31L244,30L245,29L245,27" stroke-opacity="1" stroke-width="5" stroke-linecap="round" stroke-linejoin="round" style="-webkit-tap-highlight-color: rgba(0, 0, 0, 0); stroke-opacity: 1; stroke-linecap: round; stroke-linejoin: round; -webkit-user-select: text;"></path><path fill="none" stroke="#ff0000" d="M116,16L117,21L117,23L117,24L117,27L120,29L123,30L127,31L133,31L139,31L144,31L149,31L152,31L154,31L155,31L156,31L157,31L159,31L160,31L162,31L165,29L168,27L172,25L175,23L178,21L180,20L183,19L185,19L186,18L187,18L188,18L190,18L191,18L192,18L193,18L194,18L195,18" stroke-opacity="1" stroke-width="5" stroke-linecap="round" stroke-linejoin="round" style="-webkit-tap-highlight-color: rgba(0, 0, 0, 0); stroke-opacity: 1; stroke-linecap: round; stroke-linejoin: round; -webkit-user-select: text;"></path><path fill="none" stroke="#4820ff" d="M326,538L317,525L310,505L299,477L285,448L268,421L245,393L218,366L191,344L174,332L168,327L164,324L161,323L166,330L182,354L201,395L216,436L226,471L231,495L234,511L237,525L239,534L240,539L240,540L238,533L230,512L216,480L195,447L165,417L139,393L125,378L116,366L109,356L104,349L102,346L106,356L126,393L148,441L161,478L166,500L168,515L169,526L169,530L168,525L155,500L123,461L92,429L76,414L66,400L57,388L51,380L46,376L43,376L42,383L43,417L55,461L63,503L63,538L63,555L62,559L57,559L51,550L46,530L42,504L42,473L42,445L41,429L41,422L40,420L38,424L36,449L36,485L36,522L36,546L33,560L30,566L28,568L28,569L31,569L46,562L63,552L85,538L102,529L116,524L131,522L147,522L162,526L180,533L199,540L216,548L229,553L239,558L248,561L256,564L267,567L276,568L283,572L286,574L287,574L288,574L291,571L291,560L277,527L252,486L224,457L203,441L191,431L186,427L186,426L193,428L207,438L219,452L231,469L238,482L245,491L254,500L268,504L284,505L301,505L313,503L324,495L330,483L330,460L326,425L307,384L283,347L257,312L228,283L205,264L195,255L193,253L198,257L229,289L267,334L297,383L308,413L313,430L316,440L321,446L327,446L336,445L339,429L337,406L326,379L308,342L283,309L253,279L216,250L172,222L147,209L135,205L126,205L117,208L113,223L110,247L113,283L125,324L138,365L147,398L149,409L149,410L149,407L138,380L126,345L119,302L116,254L112,211L109,184L102,164L93,149L85,141L73,138L49,139L28,156L22,181L36,220L65,259L91,300L106,324L115,331L120,325L120,284L117,244L108,209L94,178L78,148L68,128L62,111L59,101L58,95L56,94L50,94L40,98L29,103L18,110L12,116L8,124L8,136L24,156L55,181L74,193L83,193L91,171L97,133L98,100L98,73L91,48L83,31L77,21L74,15L72,12L72,13L78,31L98,63L120,99L143,137L158,162L169,176L178,184L191,184L211,176L233,159L251,138L261,113L261,89L259,72L242,53L219,38L192,26L169,20L157,20L156,27L169,59L196,100L227,146L246,180L252,190L258,193L268,193L281,189L303,180L324,168L342,152L350,138L354,124L354,112L353,97L343,81L325,61L302,45L285,36L276,34L271,34L270,34L270,36L275,40L291,41L310,41L330,41L348,38L358,35L363,34L365,33L363,33L354,33L339,33L322,33L304,33L290,33L277,38L269,43L262,46L253,49L240,49L215,37L192,22L184,13L184,5L185,-3L196,-7L209,-7L226,-2L244,18L257,37L260,46L261,50L260,52L249,52L229,51L201,45L174,41L147,38L123,37L107,37L95,37L83,37L72,37L63,37L55,36L47,32L42,28L38,25L37,24L41,37L55,60L66,82L69,93L69,100L67,103L62,104L58,104L55,103L55,93L65,83L80,80L103,84L135,111L167,148L194,187L210,212L219,225L228,236L238,247L252,256L269,269L284,283L297,296L306,306L312,314L315,320L318,327L319,333L319,341L319,350L318,362L316,370L316,377L316,384L316,389L316,391L321,391L328,386L333,373L337,354L338,325L338,295L334,265L320,231L310,208L305,194L304,185L304,178L311,178L326,181L341,199L349,222L351,249L351,277L350,300L347,317L344,332L342,346L341,359L339,373L339,389L338,405L336,422L334,440L332,458L330,476L329,490L329,503L329,512L329,518L329,524L329,528L329,531L328,533L326,536L323,538L319,540L314,542L307,543L298,544L287,545L274,546L258,548L242,548L224,548L205,544L186,539L168,533L152,528L136,524L123,522L109,519L97,516L90,513L83,508L80,499L80,486L84,470L94,448L103,422L115,388L121,356L122,321L122,292L115,267L110,248L108,234L106,224L103,217L98,211L89,206L68,200L44,194L26,190L18,188L16,188L16,191L33,216L59,261L81,315L94,361L98,387L100,402L103,410L107,414L116,414L141,403L164,384L182,364L194,341L199,315L202,292L202,278L202,269L193,263L178,263L166,270L153,289L145,303L138,311L132,314L125,315L118,315L116,308L116,291L122,267L134,243L140,232L142,226L142,223L137,221L114,219L91,219L74,219L63,225L57,236L57,256L65,285L81,321L92,348L102,372L109,384L117,386L131,385L155,375L189,367L215,367L235,376L244,387L250,395L252,403L253,413L253,422L245,432L230,443L212,447L193,447L176,445L158,437L136,426L116,416L96,403L78,387L71,369L71,342L79,307L94,273L108,242L119,222L132,212L143,211L161,223L179,256L197,307L210,364L211,409L207,432L196,447L179,458L162,465L144,469L132,470L122,470L109,466L92,450L72,429L51,408L42,391L38,376L34,363L32,356L30,353L29,353L30,369L39,392L48,419L53,439L55,453L57,462L62,466L71,463L82,447L88,420L82,387L67,355L51,322L35,291L26,264L20,234L16,205L15,186L15,171L15,161L15,153L15,147L15,141L15,132L16,119L19,101L23,90L26,82L28,77L30,72L32,70L32,69L33,68L33,66L32,63L28,58L26,53L24,46L22,40L22,37L22,35L22,34L21,34" stroke-opacity="1" stroke-width="5" stroke-linecap="round" stroke-linejoin="round" style="-webkit-tap-highlight-color: rgba(0, 0, 0, 0); stroke-opacity: 1; stroke-linecap: round; stroke-linejoin: round; -webkit-user-select: text;"></path></svg>