<svg height="593" version="1.1" width="375" xmlns="http://www.w3.org/2000/svg" xmlns:xlink="http://www.w3.org/1999/xlink" style="overflow: hidden; position: relative; -webkit-user-select: text;"><desc style="-webkit-tap-highlight-color: rgba(0, 0, 0, 0); -webkit-user-select: text;">Created with Raphaël 2.2.0</desc><defs style="-webkit-tap-highlight-color: rgba(0, 0, 0, 0); -webkit-user-select: text;"></defs><path fill="none" stroke="#ff0000" d="M60,95L62,106L60,113L57,122L53,133L50,142L49,151L49,158L49,166L49,173L51,179L55,184L59,188L62,191L66,193L69,195L73,197L76,198L79,199L82,199L86,199L92,197L99,189L108,179L117,169L123,161L129,153L135,145L140,138L143,134L145,131L146,128L146,127L146,125L146,124L146,122L146,120L145,116L137,110L122,105L107,100L94,97L81,95L73,94L68,94L65,94L64,94L64,95L68,95" stroke-opacity="1" stroke-width="5" stroke-linecap="round" stroke-linejoin="round" style="-webkit-tap-highlight-color: rgba(0, 0, 0, 0); stroke-opacity: 1; stroke-linecap: round; stroke-linejoin: round; -webkit-user-select: text;"></path><path fill="none" stroke="#ff0000" d="M295,78L282,71L269,80L250,96L232,118L215,146L202,174L193,197L190,211L187,219L185,225L183,229L182,232L181,234L179,235L179,236L178,237L182,237L198,235L221,227L243,218L257,214L268,211L279,207L288,203L295,199L300,196L304,191L307,186L310,179L312,170L314,158L316,146L318,137L320,127L322,116L322,104L322,93L322,84L320,76L316,72L311,69L303,69L297,69L291,69L286,71L280,73L274,78L265,84" stroke-opacity="1" stroke-width="5" stroke-linecap="round" stroke-linejoin="round" style="-webkit-tap-highlight-color: rgba(0, 0, 0, 0); stroke-opacity: 1; stroke-linecap: round; stroke-linejoin: round; -webkit-user-select: text;"></path><path fill="none" stroke="#ff0000" d="M175,185L170,190L165,197L154,210L137,232L123,255L112,279L104,301L98,318L94,335L91,347L88,357L85,367L83,373L81,378L79,382L78,385L77,388L75,389L74,391L74,392L73,393L72,393L71,394L70,395L69,396L68,397L67,398L67,399L67,401L67,403L67,405L67,407L67,409L67,412L68,414L70,416L72,418L74,420L76,421L77,422L78,423L80,424L81,424L82,425L83,425L84,426L85,428L85,433" stroke-opacity="1" stroke-width="5" stroke-linecap="round" stroke-linejoin="round" style="-webkit-tap-highlight-color: rgba(0, 0, 0, 0); stroke-opacity: 1; stroke-linecap: round; stroke-linejoin: round; -webkit-user-select: text;"></path><path fill="none" stroke="#ff0000" d="M87,472L86,465L89,465L93,464L96,460L101,453L106,443L111,431L117,419L121,410L126,401L131,395L135,389L138,386L141,383L143,382L145,380L147,378L150,376L154,373L159,369L165,365L171,361L176,359L181,357L184,357L186,357L188,357L190,357L191,357L192,357L193,358L193,359L191,361" stroke-opacity="1" stroke-width="5" stroke-linecap="round" stroke-linejoin="round" style="-webkit-tap-highlight-color: rgba(0, 0, 0, 0); stroke-opacity: 1; stroke-linecap: round; stroke-linejoin: round; -webkit-user-select: text;"></path><path fill="none" stroke="#ff0000" d="M58,500L59,501L63,504L69,506L76,509L83,511L92,512L99,512L105,512L112,513L118,513L122,513L126,513L128,513L131,513L133,510L136,506L138,500L141,494L146,486L151,478L156,470L161,461L166,452L172,444L175,439L179,433L181,427L184,422L186,417L189,413L192,408L196,403L202,399L210,394L220,390L229,386L237,383L244,380L251,377L256,372L261,366L264,358L267,350L269,341L269,333L270,323L270,317L270,311L270,308L270,307L271,306L273,306L275,305L277,304L280,301L282,297L285,292L289,287L291,282L293,278L294,275L295,273L296,271L296,270L297,269L297,268L300,267" stroke-opacity="1" stroke-width="5" stroke-linecap="round" stroke-linejoin="round" style="-webkit-tap-highlight-color: rgba(0, 0, 0, 0); stroke-opacity: 1; stroke-linecap: round; stroke-linejoin: round; -webkit-user-select: text;"></path><path fill="none" stroke="#ff0000" d="M154,314L157,307L162,299L174,286L188,273L204,260L216,254L229,249L241,248L250,248L257,248L263,249L269,250L274,251L281,251L290,244L297,239L303,234L309,230L313,227L318,225L322,224L328,223L333,222L338,220L344,217L350,214L355,209L359,204L362,200L365,196L368,192L370,187" stroke-opacity="1" stroke-width="5" stroke-linecap="round" stroke-linejoin="round" style="-webkit-tap-highlight-color: rgba(0, 0, 0, 0); stroke-opacity: 1; stroke-linecap: round; stroke-linejoin: round; -webkit-user-select: text;"></path><path fill="none" stroke="#ff0000" d="M204,87L194,99L189,109L182,119L174,132L164,144L156,155L147,167L137,182L126,198L117,214L110,226L104,239L98,250L94,259L89,269L86,278L82,287L78,296L76,304L73,312L70,320L68,329L67,335L65,342L63,349L62,356L61,361L61,366L61,371L61,375L61,378L61,379L59,379" stroke-opacity="1" stroke-width="5" stroke-linecap="round" stroke-linejoin="round" style="-webkit-tap-highlight-color: rgba(0, 0, 0, 0); stroke-opacity: 1; stroke-linecap: round; stroke-linejoin: round; -webkit-user-select: text;"></path><path fill="none" stroke="#ff0000" d="M31,69L35,75L35,81L35,88L34,96L31,108L29,119L27,132L26,145L25,157L25,166L25,176L25,185L25,192L26,198L28,205L30,211L34,217L36,222L39,227L41,231L42,234L44,235L46,236L50,236L54,236L58,236L61,236L64,236L66,237L69,240L71,242L74,243L76,244L79,245L80,245L81,246L82,248L82,253L82,262L79,274L74,285L69,294L64,304L59,312L56,318L52,324L49,330L47,334L46,339L45,343L44,347L44,352L44,356L44,360L43,364L43,367L43,371L43,373L42,374L42,375" stroke-opacity="1" stroke-width="5" stroke-linecap="round" stroke-linejoin="round" style="-webkit-tap-highlight-color: rgba(0, 0, 0, 0); stroke-opacity: 1; stroke-linecap: round; stroke-linejoin: round; -webkit-user-select: text;"></path><path fill="none" stroke="#ff0000" d="M176,534L181,534L185,534L191,533L196,528L202,519L207,509L213,497L217,488L221,479L225,471L227,464L229,457L230,452L230,448L230,445L230,443L230,441L230,440L230,439L230,437L230,436L230,434L231,431L234,427L239,422L245,416L250,413L255,408L259,404L262,400L265,396L268,393L271,389L273,386L276,383L279,378L283,374L287,370L289,366L291,363L294,359L296,354L299,349L303,344L307,340L310,335L314,330L317,325L321,320L324,315L328,310L331,305L334,300L336,297L338,293L339,290L341,288L342,287L346,285" stroke-opacity="1" stroke-width="5" stroke-linecap="round" stroke-linejoin="round" style="-webkit-tap-highlight-color: rgba(0, 0, 0, 0); stroke-opacity: 1; stroke-linecap: round; stroke-linejoin: round; -webkit-user-select: text;"></path><path fill="none" stroke="#ff0000" d="M268,118L264,124L262,129L257,134L252,141L245,148L241,155L237,160L234,164L233,166L232,168L232,169L232,170L232,171L232,172L232,173L232,175L233,177L236,179L238,181L241,183L244,184L247,185L250,186L253,186L257,186L260,186L262,186L263,185L265,183L266,181L268,178L270,175L272,172L274,169L276,166L278,163L280,160L281,157L281,153L282,148L282,144L282,140L282,137L282,135L282,133L281,133L279,133L275,133L270,133" stroke-opacity="1" stroke-width="5" stroke-linecap="round" stroke-linejoin="round" style="-webkit-tap-highlight-color: rgba(0, 0, 0, 0); stroke-opacity: 1; stroke-linecap: round; stroke-linejoin: round; -webkit-user-select: text;"></path><path fill="none" stroke="#ff0000" d="M95,130L93,133L91,136L89,139L87,142L86,145L85,148L84,152L83,156L82,159L81,162L81,164L81,167L81,169L81,172L81,173L81,175L83,176L85,176L88,176L92,176L94,175L95,173L97,171L98,169L99,166L101,163L102,159L103,156L104,152L105,149L105,147L105,146L105,144L105,143L105,142L105,141L105,140L104,139L104,137L104,136L105,131" stroke-opacity="1" stroke-width="5" stroke-linecap="round" stroke-linejoin="round" style="-webkit-tap-highlight-color: rgba(0, 0, 0, 0); stroke-opacity: 1; stroke-linecap: round; stroke-linejoin: round; -webkit-user-select: text;"></path><path fill="none" stroke="#ff0000" d="M59,16L61,21L61,24L60,28L60,32L59,36L59,40L59,44L59,48L59,51L60,53L62,55L64,58L67,59L69,61L73,62L76,62L79,63L81,63L84,64L86,64L89,65L92,65L95,66L98,66L102,67L105,67L108,68L111,70L114,71L116,73L118,74L120,75L122,76L124,76L126,77L128,79L130,80L132,81L134,82L136,83L138,83L141,83L144,83L146,83L149,83L153,82L157,80L161,78L165,76L167,74L170,73L171,73L172,73L173,72L174,72L176,71L179,70L183,68L187,66L191,64L194,61L198,59L202,57L205,54L209,52L212,49L215,47L218,44L222,42L225,40L228,39L230,37L233,36L235,35L237,34L239,33L241,32L242,32L242,31L243,31L244,31L244,30L245,29L245,27" stroke-opacity="1" stroke-width="5" stroke-linecap="round" stroke-linejoin="round" style="-webkit-tap-highlight-color: rgba(0, 0, 0, 0); stroke-opacity: 1; stroke-linecap: round; stroke-linejoin: round; -webkit-user-select: text;"></path><path fill="none" stroke="#ff0000" d="M116,16L117,21L117,23L117,24L117,27L120,29L123,30L127,31L133,31L139,31L144,31L149,31L152,31L154,31L155,31L156,31L157,31L159,31L160,31L162,31L165,29L168,27L172,25L175,23L178,21L180,20L183,19L185,19L186,18L187,18L188,18L190,18L191,18L192,18L193,18L194,18L195,18" stroke-opacity="1" stroke-width="5" stroke-linecap="round" stroke-linejoin="round" style="-webkit-tap-highlight-color: rgba(0, 0, 0, 0); stroke-opacity: 1; stroke-linecap: round; stroke-linejoin: round; -webkit-user-select: text;"></path></svg>