<svg height="612" version="1.1" width="759" xmlns="http://www.w3.org/2000/svg" xmlns:xlink="http://www.w3.org/1999/xlink" style="overflow: hidden; position: relative; user-select: text;"><desc style="-webkit-tap-highlight-color: rgba(0, 0, 0, 0); user-select: text;">Created with Raphaël 2.2.0</desc><defs style="-webkit-tap-highlight-color: rgba(0, 0, 0, 0); user-select: text;"></defs><path fill="none" stroke="#50ffdb" d="M312,187L313,187" stroke-opacity="1" stroke-width="5" stroke-linecap="round" stroke-linejoin="round" style="-webkit-tap-highlight-color: rgba(0, 0, 0, 0); stroke-opacity: 1; stroke-linecap: round; stroke-linejoin: round; user-select: text;"></path><path fill="none" stroke="#50ffdb" d="M241,118L241,118L243,119L251,123L265,131L301,150L328,163L363,179L376,186L404,199L413,203L433,213L440,216L452,222L463,227L470,229L471,229L475,231L477,232L479,232L479,232L480,232L480,232L479,232L477,229L472,223L462,210L449,196L433,178L414,157L373,113L357,100L328,73L297,51L268,32L256,27L235,17L226,15L212,11L189,10L182,10L171,16L167,24L162,33L159,44L157,56L156,70L156,87L156,103L159,119L162,126L166,138L171,148L175,156L179,161L182,165L187,169L188,169L190,172L192,173L194,173L195,174L195,174L196,174L196,174L197,174L197,174L197,174L197,174L198,173L199,171L199,167L201,160L201,153L202,144L203,139L203,130L204,121L204,119L205,113L205,110L206,107L206,106L206,105L207,104L207,104L209,104L211,104L213,104L215,105" stroke-opacity="1" stroke-width="5" stroke-linecap="round" stroke-linejoin="round" style="-webkit-tap-highlight-color: rgba(0, 0, 0, 0); stroke-opacity: 1; stroke-linecap: round; stroke-linejoin: round; user-select: text;"></path><path fill="none" stroke="#50ffdb" d="M326,56L326,57L326,62L326,68L326,76L326,86L326,97L326,109L326,114L326,122L326,125L326,131L326,135L326,138L326,141L326,142L326,143L326,143L326,143L326,143L326,144L326,144L326,144L328,146L329,148L333,152L338,158L345,165L361,180L376,193L394,208L415,223L435,240L456,256L465,264L482,279L496,291L502,296L511,304L518,311L520,314L524,318L527,321L528,322L529,323L530,324L531,324L531,324L531,324L530,324L529,324L527,323L525,321L522,319L515,314L510,309L503,304L495,296L486,288L475,278L463,267L442,245L426,229L409,211L391,193L371,174L361,167L344,152L328,141L321,138L308,130L297,125L288,122L279,120L270,119L262,119L255,119L248,119L241,120L235,123L228,125L223,129L218,132L213,136L208,140L204,144L201,148L198,152L197,156L195,160L195,164L195,168L195,171L195,175L197,178L201,182L205,186L213,194L220,199L228,206L237,214L246,222L257,232L261,236L270,244L278,250L286,256L293,260L306,265L315,266L324,266L334,266L345,261L350,257L356,251L362,245L365,239L366,232L367,221L367,214L363,207L357,199L346,190L327,173L311,161L292,149L270,138L249,128L226,119L214,115L195,110L174,106L156,104L149,104L136,104L126,104L118,106L112,110L108,115L105,121L104,126L104,131L104,137L106,146L113,153L127,163L142,168L162,173L187,176L212,177L227,177L248,177L257,177L263,177L273,175L279,174L284,173L285,172L286,171L286,170L285,169L273,168L258,166L237,163L213,159L199,158L176,155L153,153L133,151L125,151L111,151L106,151L99,151L93,151L90,152L87,154L87,156L89,161L99,168L115,178L153,199L192,218L239,238L293,258L349,273L372,277L391,279L405,281L430,285L437,285L450,286L458,286L463,286L466,286L467,286L467,285L467,284L467,283L467,281L462,277L452,270L439,260L423,249L404,235L394,229L374,215L355,203L348,199L333,189L322,182L312,176L309,175L304,172L301,170L299,169L298,168L297,168L297,168L298,168L303,168L311,166L322,164L335,161L350,158L364,155L378,151L385,148L397,145L402,143L409,141L414,140L418,139L420,138L421,137L422,137L422,137L422,137L421,137L421,137L420,137" stroke-opacity="1" stroke-width="7" stroke-linecap="round" stroke-linejoin="round" style="-webkit-tap-highlight-color: rgba(0, 0, 0, 0); stroke-opacity: 1; stroke-linecap: round; stroke-linejoin: round; user-select: text;"></path></svg>