<svg height="585" version="1.1" width="500" xmlns="http://www.w3.org/2000/svg" xmlns:xlink="http://www.w3.org/1999/xlink" style="overflow: hidden; position: relative; user-select: text;"><desc style="-webkit-tap-highlight-color: rgba(0, 0, 0, 0); user-select: text;">Created with Raphaël 2.2.0</desc><defs style="-webkit-tap-highlight-color: rgba(0, 0, 0, 0); user-select: text;"></defs><path fill="none" stroke="#ff0000" d="M229,124L230,124L245,129L279,147L350,194L414,245L454,282L486,313L476,387L428,387L339,367L235,337L183,320L132,302L109,294L90,284L83,279L77,271L75,257L80,226L97,189L112,156L129,114L138,89L145,67L150,51L152,44L153,39L154,37L154,35L154,35" stroke-opacity="1" stroke-width="5" stroke-linecap="round" stroke-linejoin="round" style="-webkit-tap-highlight-color: rgba(0, 0, 0, 0); stroke-opacity: 1; stroke-linecap: round; stroke-linejoin: round; user-select: text;"></path><path fill="none" stroke="#ff0000" d="M367,81L366,82L365,82L358,82L336,82L302,89L264,102L225,120L204,132L181,148L170,159L156,180L155,187L155,196L156,203L164,209L183,212L224,215L271,218L322,227L375,242L423,271L452,295L473,310L486,318L496,323L501,324L502,309L491,278L462,236L417,186L362,141L323,112L278,83L259,72L241,63L239,63L239,63L239,63L239,64L239,64L239,64" stroke-opacity="1" stroke-width="5" stroke-linecap="round" stroke-linejoin="round" style="-webkit-tap-highlight-color: rgba(0, 0, 0, 0); stroke-opacity: 1; stroke-linecap: round; stroke-linejoin: round; user-select: text;"></path></svg>