<svg height="546" version="1.1" width="963" xmlns="http://www.w3.org/2000/svg" xmlns:xlink="http://www.w3.org/1999/xlink" style="overflow: hidden; position: relative; user-select: text;"><desc style="-webkit-tap-highlight-color: rgba(0, 0, 0, 0); user-select: text;">Created with Raphaël 2.2.0</desc><defs style="-webkit-tap-highlight-color: rgba(0, 0, 0, 0); user-select: text;"></defs><path fill="none" stroke="#ff0000" d="M272,227L268,222L268,216L268,208L268,193L273,178L283,160L297,140L318,118L329,110L336,106L340,106L342,106L343,109L345,117L347,134L351,153L359,178L371,200L387,220L407,239L428,255L459,276L480,288L493,295L516,306L535,315L556,323L577,331L591,335L606,339L614,340L624,340L628,338L630,330L629,307L618,287L599,269L585,261L571,255L564,255L557,255L553,255L550,259L548,262L546,266L546,270L545,275L544,282L543,288L541,298L537,304L531,311L520,317L503,321L467,323L439,323L402,323L379,320L355,316L338,312L324,307L313,302L304,294L296,286L291,274L289,247L296,228L320,197L376,161L448,133L505,123L543,123L573,133L592,156L600,187L603,222L603,241L595,262L580,280L536,291L486,291L428,281L406,275L384,268L362,257L357,250L357,238L377,217L438,185L532,158L646,140L686,140L739,149L769,181L772,208L770,236L758,259L740,274L705,283L660,283L628,272L606,263L594,256L584,245L585,236L627,213L701,196L805,189L847,189L876,198L902,211L912,219L919,227L922,231L922,233L921,233L912,227L887,202L863,176L832,144L816,127L789,103L770,93L752,90L734,90L720,90L703,90L684,90L664,87L645,83L629,80L614,77L601,77L590,77L574,83L569,87L560,96L549,109L545,113L543,117L542,119L541,119L538,119L525,117L506,112L459,99L419,87L374,75L335,66L303,60L261,56L249,56L225,56L210,56L193,56L175,58L168,59L162,60L154,61L152,61L151,61L151,61L151,61L151,61L150,62L150,64L147,70L143,79L132,103L124,119L120,129L117,138L115,142L114,143" stroke-opacity="1" stroke-width="5" stroke-linecap="round" stroke-linejoin="round" style="-webkit-tap-highlight-color: rgba(0, 0, 0, 0); stroke-opacity: 1; stroke-linecap: round; stroke-linejoin: round; user-select: text;"></path><path fill="none" stroke="#ff0000" d="M102,86L101,87L101,88L99,90L95,97L81,120L63,157L37,219L25,262L24,283L24,305L32,322L46,331L67,338L92,344L110,346L130,349L139,349L148,349L154,348L157,342L159,325L159,304L159,291L158,282L157,273L156,268L156,266L156,265L156,265L157,267L162,282L167,305L173,336L179,359L191,389L199,401L209,410L220,415L240,420L261,422L286,422L311,419L327,414L338,409L352,399L357,390L357,373L348,344L282,267L236,226L216,208L188,181L179,172L173,165L171,161L171,160L171,160" stroke-opacity="1" stroke-width="5" stroke-linecap="round" stroke-linejoin="round" style="-webkit-tap-highlight-color: rgba(0, 0, 0, 0); stroke-opacity: 1; stroke-linecap: round; stroke-linejoin: round; user-select: text;"></path><path fill="none" stroke="#ff0000" d="M476,438L476,438L481,438L520,438L595,438L670,443L772,458L803,462L822,466L836,468L842,468L845,468L846,468L848,465L849,461L850,454L850,443L848,424L842,404L830,381L813,358L783,331L761,320L739,312L717,309L704,309L687,309L675,312L666,318L659,324L654,332L652,340L651,350L651,360L651,371L651,380L651,389L651,393L651,400L647,404L642,407L628,411L601,414L576,416L552,416L527,416L502,416L475,416L457,416L438,414L425,411L415,405L409,398L406,387L406,356L410,343L430,302L471,243L510,203L560,164L617,133L653,122L693,116L720,118L742,131L761,163L767,193L770,251L770,282L753,327L737,346L717,357L676,365L626,366L563,364L514,357L462,350L438,346L416,341L404,337L397,333L393,327L391,319L390,301L392,279L408,232L451,151L489,93L528,39L550,10" stroke-opacity="1" stroke-width="5" stroke-linecap="round" stroke-linejoin="round" style="-webkit-tap-highlight-color: rgba(0, 0, 0, 0); stroke-opacity: 1; stroke-linecap: round; stroke-linejoin: round; user-select: text;"></path><path fill="none" stroke="#ff0000" d="M482,27L479,29L478,29L476,29L471,30L463,31L450,32L432,32L407,32L361,32L334,32L300,32L282,32L261,34L252,36L243,38L238,40L234,41L228,46L225,49L221,54L217,60L215,64L211,70L209,76L207,80L205,84L204,87L203,89L203,91L203,93L208,94L289,95L346,96L392,101L425,106L454,112L467,116L477,119L482,120L485,121L486,121L486,121L487,121L487,121L488,120L488,119L489,119L488,119L480,119L454,119L414,119L363,119L328,119L298,118L269,116L257,115L247,114L243,112L241,111L240,109L240,110L235,116L217,138L195,170L160,218L136,260L122,285L119,295L117,303L117,309L118,313L126,317L138,322L160,330L182,337L197,342L216,350L230,358L243,372L245,377L246,385L246,390L237,395L215,398L179,399L131,398L99,393L87,391L70,388L63,386L60,384L60,382L60,378L63,369L68,358L76,336L86,311L106,267L120,241L133,220L147,200L154,192L159,186" stroke-opacity="1" stroke-width="5" stroke-linecap="round" stroke-linejoin="round" style="-webkit-tap-highlight-color: rgba(0, 0, 0, 0); stroke-opacity: 1; stroke-linecap: round; stroke-linejoin: round; user-select: text;"></path></svg>