<svg height="495" version="1.1" width="375" xmlns="http://www.w3.org/2000/svg" xmlns:xlink="http://www.w3.org/1999/xlink" style="overflow: hidden; position: relative; -webkit-user-select: text;"><desc style="-webkit-tap-highlight-color: rgba(0, 0, 0, 0); -webkit-user-select: text;">Created with Raphaël 2.2.0</desc><defs style="-webkit-tap-highlight-color: rgba(0, 0, 0, 0); -webkit-user-select: text;"></defs><path fill="none" stroke="#ff0000" d="M102,185L153,246L164,272L168,300L168,318L168,328" stroke-opacity="1" stroke-width="5" stroke-linecap="round" stroke-linejoin="round" style="-webkit-tap-highlight-color: rgba(0, 0, 0, 0); stroke-opacity: 1; stroke-linecap: round; stroke-linejoin: round; -webkit-user-select: text;"></path><path fill="none" stroke="#ff0000" d="M213,67L213,77L213,87L206,106L189,137L167,165L147,185L123,204L99,220L78,233L57,245L42,254L31,261L23,266L18,271L15,275L14,278L14,280L16,281L28,281L54,279L82,270L108,265L124,265L141,269L155,281L169,294L181,309L192,322L200,331L207,337L213,340L224,338L244,299L259,237L267,165L267,107L259,72L255,60L253,57L251,57L249,64L246,92L238,139L222,200L197,266L167,317L145,350L139,370L139,383L142,390L158,393L181,393L206,393L229,390L249,378L264,360L265,332L252,310L225,298L194,293L165,289L139,284L116,280L97,279L82,278L74,278L70,278L69,279L70,281L82,283L102,283L128,279L153,270L180,262L199,258L217,257L228,257L234,260L234,264L225,275L197,282L167,283L139,279L115,265L95,252L82,240L75,231L71,224L70,220L70,218L77,218L88,223L98,232L108,240L117,245L127,246L138,246L145,241L149,236" stroke-opacity="1" stroke-width="5" stroke-linecap="round" stroke-linejoin="round" style="-webkit-tap-highlight-color: rgba(0, 0, 0, 0); stroke-opacity: 1; stroke-linecap: round; stroke-linejoin: round; -webkit-user-select: text;"></path></svg>