<svg height="585" version="1.1" width="697" xmlns="http://www.w3.org/2000/svg" xmlns:xlink="http://www.w3.org/1999/xlink" style="overflow: hidden; position: relative; user-select: text;"><desc style="-webkit-tap-highlight-color: rgba(0, 0, 0, 0); user-select: text;">Created with Raphaël 2.2.0</desc><defs style="-webkit-tap-highlight-color: rgba(0, 0, 0, 0); user-select: text;"></defs><path fill="none" stroke="#ff0000" d="M273,188L274,188L282,188L288,187L293,187L314,189L327,189L334,189L360,189L377,189L396,189L415,186L422,183L437,177L441,174L449,168L450,167L457,160L457,157L457,154L457,153L448,153L436,153L423,153L414,153L400,156L384,160L368,166L354,174L339,182L326,191L313,203L304,214L296,227L291,238L286,251L285,264L285,276L285,287L291,297L299,306L307,312L317,318L323,319L331,321L335,322L341,322L345,322L348,322L349,322L349,322L348,322L338,322L322,325L302,327L279,331L251,334L224,336L195,337L169,338L156,338L132,338L112,336L106,334L100,333L92,330L87,328L80,325L80,321L80,315L88,307L102,297L120,281L129,273L136,265L147,252L150,248L157,239L162,234L164,230L166,227L167,225L168,225L168,224L168,224L170,224L174,224L178,224L185,226L201,233L214,242L231,254L251,270L275,290L298,312L310,323L329,340L335,346L339,349L346,355L351,359L356,362L357,362L358,360L358,355L357,346L352,333L340,310L327,291L312,271L295,253L287,245L280,240L267,228L263,226" stroke-opacity="1" stroke-width="5" stroke-linecap="round" stroke-linejoin="round" style="-webkit-tap-highlight-color: rgba(0, 0, 0, 0); stroke-opacity: 1; stroke-linecap: round; stroke-linejoin: round; user-select: text;"></path></svg>