<svg height="595" version="1.1" width="500" xmlns="http://www.w3.org/2000/svg" xmlns:xlink="http://www.w3.org/1999/xlink" style="overflow: hidden; position: relative; user-select: text;"><desc style="-webkit-tap-highlight-color: rgba(0, 0, 0, 0); user-select: text;">Created with Raphaël 2.2.0</desc><defs style="-webkit-tap-highlight-color: rgba(0, 0, 0, 0); user-select: text;"></defs><path fill="none" stroke="#ff0000" d="M75,58L75,58L75,59L75,60L75,62L75,74L75,85L75,97L75,109L75,115L75,122L75,127L75,131L75,133L75,135L75,136L75,136L75,137L75,137" stroke-opacity="1" stroke-width="5" stroke-linecap="round" stroke-linejoin="round" style="-webkit-tap-highlight-color: rgba(0, 0, 0, 0); stroke-opacity: 1; stroke-linecap: round; stroke-linejoin: round; user-select: text;"></path><path fill="none" stroke="#ff0000" d="M105,113L105,112L105,113L105,116L105,124L105,135L105,148L104,158L104,164L103,169L103,173L103,174L103,175L103,176L103,177L103,178L103,179L103,179L103,180L103,180L102,180L102,181" stroke-opacity="1" stroke-width="5" stroke-linecap="round" stroke-linejoin="round" style="-webkit-tap-highlight-color: rgba(0, 0, 0, 0); stroke-opacity: 1; stroke-linecap: round; stroke-linejoin: round; user-select: text;"></path><path fill="none" stroke="#ff0000" d="M140,71L140,73L140,73L140,74L140,75L140,77L140,78L140,83L140,90L140,95L140,102L140,107L140,111L140,113L140,115L140,117L140,118L140,119L140,119L140,119L140,119" stroke-opacity="1" stroke-width="5" stroke-linecap="round" stroke-linejoin="round" style="-webkit-tap-highlight-color: rgba(0, 0, 0, 0); stroke-opacity: 1; stroke-linecap: round; stroke-linejoin: round; user-select: text;"></path><path fill="none" stroke="#ff0000" d="M179,110L179,111L179,112L181,120L181,126L181,133L181,135L181,143L181,147L181,151L181,155L181,159L181,162L181,166L181,169L181,174L181,176L181,177L181,178L180,179L179,179" stroke-opacity="1" stroke-width="5" stroke-linecap="round" stroke-linejoin="round" style="-webkit-tap-highlight-color: rgba(0, 0, 0, 0); stroke-opacity: 1; stroke-linecap: round; stroke-linejoin: round; user-select: text;"></path><path fill="none" stroke="#ff0000" d="M230,71L230,72L230,72L230,73L230,75L230,82L230,91L230,100L230,109L230,117L230,123L230,129L230,134L230,138L230,140L230,142L230,143L230,144L230,144" stroke-opacity="1" stroke-width="5" stroke-linecap="round" stroke-linejoin="round" style="-webkit-tap-highlight-color: rgba(0, 0, 0, 0); stroke-opacity: 1; stroke-linecap: round; stroke-linejoin: round; user-select: text;"></path><path fill="none" stroke="#ff0000" d="M276,115L276,115L276,115L276,116L276,122L276,125L276,141L278,160L279,175L280,187L280,197L281,205L281,209L281,213L281,216L281,217L281,218L281,218L281,218" stroke-opacity="1" stroke-width="5" stroke-linecap="round" stroke-linejoin="round" style="-webkit-tap-highlight-color: rgba(0, 0, 0, 0); stroke-opacity: 1; stroke-linecap: round; stroke-linejoin: round; user-select: text;"></path></svg>