<svg height="546" version="1.1" width="500" xmlns="http://www.w3.org/2000/svg" xmlns:xlink="http://www.w3.org/1999/xlink" style="overflow: hidden; position: relative; user-select: text;"><desc style="-webkit-tap-highlight-color: rgba(0, 0, 0, 0); user-select: text;">Created with Raphaël 2.2.0</desc><defs style="-webkit-tap-highlight-color: rgba(0, 0, 0, 0); user-select: text;"></defs><path fill="none" stroke="#ff0000" d="M26,50L26,51L26,50L26,49L27,47L32,40L36,36L39,33L43,30L44,29L45,28L46,28L46,28L46,27L47,27L48,26L50,22L54,17L60,9L113,7L114,8L116,10L117,11L118,12L118,14L119,15L120,17L120,18L120,22L120,25L120,29L120,34L119,38L118,43L117,46L115,50L114,53L113,55L113,57L112,58L112,58L112,59L112,58L112,56L112,49L111,38L111,29L111,21L111,15L111,11L111,10L111,10L110,10L110,10L107,8L105,7L79,6L79,8L78,10L78,13L78,18L78,22L80,26L81,30L82,32L83,35L83,37L84,38L84,39L84,40L84,39L84,37L85,30L87,26L89,21L90,17L90,16L91,14L91,14L91,13L91,12L90,11L89,10L88,9L87,8L86,7L85,6L109,6L112,7L114,8L118,8L121,10L125,11L128,12L132,13L133,13L135,14L135,14L136,15L136,15L136,15L136,16L135,17L134,18L131,19L129,20L128,21L126,21L126,21L126,21L125,21L125,21L124,20L122,17L120,14L119,12L118,9L118,8L118,7L118,7L118,7L118,6L118,6L118,6L90,8L103,16L132,29L146,34L162,38L170,41L177,44L182,46L187,50L190,52L193,55L196,57L197,59L198,60L199,61L199,62L200,62L200,63L200,64L200,64L200,65L200,65L201,65L201,65L201,63L202,61L203,53L204,47L206,40L207,35L208,32L210,31L211,30L211,30L212,30L212,30L213,30L213,30L213,30L213,29L213,28L213,26L211,21L211,22L211,22L211,22L211,22L211,21L211,19L211,17L211,16L211,15L211,14L211,13L211,13L211,12L211,12L211,11L211,10L211,10L211,9L211,9L211,8L211,8L211,7L211,6L211,6" stroke-opacity="1" stroke-width="5" stroke-linecap="round" stroke-linejoin="round" style="-webkit-tap-highlight-color: rgba(0, 0, 0, 0); stroke-opacity: 1; stroke-linecap: round; stroke-linejoin: round; user-select: text;"></path><path fill="none" stroke="#ff0000" d="M272,8L271,9L271,10L270,15L270,20L270,25L270,31L270,35L270,39L270,42L270,46L270,48L270,49L270,50L270,52L270,52L270,53L270,54L270,54L270,55L270,55L270,55L272,55L278,55L289,54L301,53L313,53L319,53L325,53L329,53L331,53L332,52L333,50L334,48L334,46L334,44L334,40L334,37L333,35L332,33L331,31L330,30L329,28L328,26L328,24L327,23L326,21L325,19L324,18L324,16L324,15L323,14L323,13L322,12L322,11L322,10L321,9L321,8L320,7L320,6L320,5L319,5L319,4L319,4L319,3L319,3L319,3L319,3L319,3L318,2L318,1L318,0L318,0" stroke-opacity="1" stroke-width="5" stroke-linecap="round" stroke-linejoin="round" style="-webkit-tap-highlight-color: rgba(0, 0, 0, 0); stroke-opacity: 1; stroke-linecap: round; stroke-linejoin: round; user-select: text;"></path><path fill="none" stroke="#ff0000" d="M177,31L177,31L177,30L177,29L177,27L177,25L177,23L177,22L177,20L177,20L177,19L177,18L177,18L177,18L177,17L177,16L178,15L178,13L179,12L179,10L179,9L180,8L180,7L180,6L180,6" stroke-opacity="1" stroke-width="5" stroke-linecap="round" stroke-linejoin="round" style="-webkit-tap-highlight-color: rgba(0, 0, 0, 0); stroke-opacity: 1; stroke-linecap: round; stroke-linejoin: round; user-select: text;"></path></svg>