<svg height="563" version="1.1" width="1235" xmlns="http://www.w3.org/2000/svg" xmlns:xlink="http://www.w3.org/1999/xlink" style="overflow: hidden; position: relative; user-select: text;"><desc style="-webkit-tap-highlight-color: rgba(0, 0, 0, 0); user-select: text;">Created with Raphaël 2.2.0</desc><defs style="-webkit-tap-highlight-color: rgba(0, 0, 0, 0); user-select: text;"></defs><path fill="none" stroke="#ff0000" d="M264,238L263,238L262,237L259,233L255,227L249,217L246,207L244,199L244,191L244,185L245,176L253,169L265,166L277,165L291,165L305,166L317,171L327,178L334,185L339,192L344,200L347,211L350,224L351,238L353,264L354,284L355,303L358,320L361,334L363,346L363,352L363,360L362,363L358,367L353,368L347,369L341,369L337,369L333,367L329,365L328,363L328,362L327,360L327,359L327,359L327,358L327,357L326,357L326,355L326,355L325,353L324,351L323,349L322,348L321,347L320,345L320,344L319,344L319,344L319,344L319,344L318,344L317,343L314,343L311,343L307,342L304,342L298,341L292,340L288,339L284,338L281,337L279,337L275,335L273,334L270,333L268,331L265,327L261,322L258,317L255,309L253,302L251,291L250,274L250,262L250,256L250,240L250,234L250,229L250,226L250,225L250,224L250,225L250,226L246,237L236,264L229,279L220,301L212,318L210,323L207,328L205,331L205,332L205,333L205,333L208,334L227,337L245,338L261,338L280,338L297,338L310,335L322,332L335,329L364,324L388,324L440,326L472,338L509,356L542,379L560,394L567,401L570,405" stroke-opacity="1" stroke-width="5" stroke-linecap="round" stroke-linejoin="round" style="-webkit-tap-highlight-color: rgba(0, 0, 0, 0); stroke-opacity: 1; stroke-linecap: round; stroke-linejoin: round; user-select: text;"></path></svg>