<svg height="563" version="1.1" width="1009" xmlns="http://www.w3.org/2000/svg" xmlns:xlink="http://www.w3.org/1999/xlink" style="overflow: hidden; position: relative; user-select: text;"><desc style="-webkit-tap-highlight-color: rgba(0, 0, 0, 0); user-select: text;">Created with Raphaël 2.2.0</desc><defs style="-webkit-tap-highlight-color: rgba(0, 0, 0, 0); user-select: text;"></defs><path fill="none" stroke="#ff0000" d="M297,113L300,107L302,101L302,97L302,94L302,91L302,90L301,90L301,90L301,91L301,95L301,108L301,124L301,141L302,158L305,165L307,172L310,174L311,175L314,175L316,174L318,172L319,171L319,171L320,170" stroke-opacity="1" stroke-width="5" stroke-linecap="round" stroke-linejoin="round" style="-webkit-tap-highlight-color: rgba(0, 0, 0, 0); stroke-opacity: 1; stroke-linecap: round; stroke-linejoin: round; user-select: text;"></path><path fill="none" stroke="#ff0000" d="M384,128L384,128L383,127L382,124L380,121L378,118L376,116L373,113L372,112L372,111L372,111L372,111L373,111L373,110" stroke-opacity="1" stroke-width="5" stroke-linecap="round" stroke-linejoin="round" style="-webkit-tap-highlight-color: rgba(0, 0, 0, 0); stroke-opacity: 1; stroke-linecap: round; stroke-linejoin: round; user-select: text;"></path><path fill="none" stroke="#6484ff" d="M500,157L499,157L498,156L493,154L487,152L480,150L476,148L472,147L470,146L469,146L468,146L468,146L468,146L466,147L457,155L441,170L419,190L403,209L395,220L392,225L391,227L396,226L404,220L409,216L414,212L416,209L416,208L412,208L403,211L392,218L379,225L368,230L352,235L346,236L338,236L332,236L327,234L321,229L317,223L314,216L314,208L314,200L317,190L323,181L339,169L358,160L381,156L405,156L419,157L429,163L435,169L439,175L443,181L446,187L448,192L448,196L449,198L449,199L449,200L449,200L452,198L457,193L468,183L483,168L494,157L499,151L504,145L506,142L506,140L506,139L504,138L498,138L490,138L479,138L469,141L460,146L455,149L451,152L450,153L450,153L450,153L452,151L455,148L457,146L458,145L458,144" stroke-opacity="1" stroke-width="5" stroke-linecap="round" stroke-linejoin="round" style="-webkit-tap-highlight-color: rgba(0, 0, 0, 0); stroke-opacity: 1; stroke-linecap: round; stroke-linejoin: round; user-select: text;"></path><path fill="none" stroke="#1bff69" d="M505,249L505,249L505,248L502,246L482,228L468,214L461,208L456,203L453,201L452,201L451,200L451,201L451,202L453,204L460,210L469,216L483,219L503,221L513,219L520,214L524,207L526,200L528,192L529,186L530,180L531,175L532,172L532,170L532,169L531,168L530,168L528,168L526,169L525,175L525,188L526,207L534,234L546,268L562,302L581,332L593,347L599,356L604,362L607,365L607,366L607,366L598,366L582,366L556,366L520,366L480,365L446,363L424,362L403,360L394,359L388,356L385,352L385,346L387,338L393,326L398,314L402,301L403,289L403,278L403,272L401,267L400,265L400,262L405,256L412,249L420,240L425,233L428,226L430,219L430,214L428,208L421,200L415,195" stroke-opacity="1" stroke-width="5" stroke-linecap="round" stroke-linejoin="round" style="-webkit-tap-highlight-color: rgba(0, 0, 0, 0); stroke-opacity: 1; stroke-linecap: round; stroke-linejoin: round; user-select: text;"></path></svg>