<svg height="612" version="1.1" width="1154" xmlns="http://www.w3.org/2000/svg" xmlns:xlink="http://www.w3.org/1999/xlink" style="overflow: hidden; position: relative; user-select: text;"><desc style="-webkit-tap-highlight-color: rgba(0, 0, 0, 0); user-select: text;">Created with Raphaël 2.2.0</desc><defs style="-webkit-tap-highlight-color: rgba(0, 0, 0, 0); user-select: text;"></defs><path fill="none" stroke="#ff0000" d="M197,205L197,205L198,204L202,200L217,187L224,181L250,160L260,152L279,138L287,132L295,126L299,123L301,121L303,121L303,120L304,120L305,119L306,118L308,117L309,117L310,116L310,115L311,115L311,115" stroke-opacity="1" stroke-width="5" stroke-linecap="round" stroke-linejoin="round" style="-webkit-tap-highlight-color: rgba(0, 0, 0, 0); stroke-opacity: 1; stroke-linecap: round; stroke-linejoin: round; user-select: text;"></path><path fill="none" stroke="#ff0000" d="M230,205L231,205L233,205L239,204L252,202L270,202L294,202L304,202L313,202L319,202L322,202L323,202L323,202L324,202" stroke-opacity="1" stroke-width="5" stroke-linecap="round" stroke-linejoin="round" style="-webkit-tap-highlight-color: rgba(0, 0, 0, 0); stroke-opacity: 1; stroke-linecap: round; stroke-linejoin: round; user-select: text;"></path><path fill="none" stroke="#ff0000" d="M198,155L198,154L198,151L198,140L198,124L198,99L198,89L198,79L198,76L198,73L198,72L198,73L198,73L198,73" stroke-opacity="1" stroke-width="5" stroke-linecap="round" stroke-linejoin="round" style="-webkit-tap-highlight-color: rgba(0, 0, 0, 0); stroke-opacity: 1; stroke-linecap: round; stroke-linejoin: round; user-select: text;"></path><path fill="none" stroke="#ff0000" d="M594,222L594,221L593,219L574,197L546,170L524,152L505,141L488,129L480,125L475,122L472,121L471,121" stroke-opacity="1" stroke-width="5" stroke-linecap="round" stroke-linejoin="round" style="-webkit-tap-highlight-color: rgba(0, 0, 0, 0); stroke-opacity: 1; stroke-linecap: round; stroke-linejoin: round; user-select: text;"></path><path fill="none" stroke="#ff0000" d="M557,223L557,223L556,223L552,223L542,223L534,223L524,223L515,223L507,223L499,223L491,223L485,223L479,223L474,223L472,223L469,223L467,223L466,223L465,223L465,223L465,223L466,223" stroke-opacity="1" stroke-width="5" stroke-linecap="round" stroke-linejoin="round" style="-webkit-tap-highlight-color: rgba(0, 0, 0, 0); stroke-opacity: 1; stroke-linecap: round; stroke-linejoin: round; user-select: text;"></path><path fill="none" stroke="#ff0000" d="M599,180L599,180L599,178L599,167L602,144L605,131L609,114L610,106L610,99L610,94L610,92L610,91L610,91L610,90L610,90L610,90L610,89L610,89L610,88L610,88" stroke-opacity="1" stroke-width="5" stroke-linecap="round" stroke-linejoin="round" style="-webkit-tap-highlight-color: rgba(0, 0, 0, 0); stroke-opacity: 1; stroke-linecap: round; stroke-linejoin: round; user-select: text;"></path><path fill="none" stroke="#ff0000" d="M573,141L573,140L573,138L573,133L573,107L570,93L567,77L566,71L564,65L564,63L564,62L564,62L564,63L564,63L564,63L564,63" stroke-opacity="1" stroke-width="5" stroke-linecap="round" stroke-linejoin="round" style="-webkit-tap-highlight-color: rgba(0, 0, 0, 0); stroke-opacity: 1; stroke-linecap: round; stroke-linejoin: round; user-select: text;"></path><path fill="none" stroke="#ff0000" d="M526,194L526,194L524,194L516,193L498,189L459,180L434,176L417,173L404,173L394,172L389,172L387,172L387,172L387,172L387,172L388,172L388,172" stroke-opacity="1" stroke-width="5" stroke-linecap="round" stroke-linejoin="round" style="-webkit-tap-highlight-color: rgba(0, 0, 0, 0); stroke-opacity: 1; stroke-linecap: round; stroke-linejoin: round; user-select: text;"></path></svg>