<svg height="494" version="1.1" width="320" xmlns="http://www.w3.org/2000/svg" xmlns:xlink="http://www.w3.org/1999/xlink" style="overflow: hidden; position: relative; -webkit-user-select: text;"><desc style="-webkit-tap-highlight-color: rgba(0, 0, 0, 0); -webkit-user-select: text;">Created with Raphaël 2.2.0</desc><defs style="-webkit-tap-highlight-color: rgba(0, 0, 0, 0); -webkit-user-select: text;"></defs><path fill="none" stroke="#000000" d="M131,239L132,239L133,239L134,239L136,239L137,238L138,238L139,237L141,236L143,236L144,235L146,235L147,234L149,233L151,233L152,232L155,231L157,230L160,228L164,227L168,226L172,224L178,223L182,221L186,220L190,219L193,218L197,217L201,216L205,216L209,216L213,216L216,216L219,216L221,218L222,220L223,223L224,226L224,229L225,231L225,234L225,236L225,239L225,242L225,245L225,248L225,252L224,256L223,259L221,263L219,268L216,274L212,280L207,287L201,294L193,304L182,318L172,331L162,344" stroke-opacity="1" stroke-width="2" stroke-linecap="round" stroke-linejoin="round" style="-webkit-tap-highlight-color: rgba(0, 0, 0, 0); stroke-opacity: 1; stroke-linecap: round; stroke-linejoin: round; -webkit-user-select: text;"></path><path fill="none" stroke="#000000" d="M224,316L222,321L222,323L221,326L219,329L216,333L213,337L209,342L206,346L202,350L198,355L194,360L189,364L185,369L180,371L176,374L171,375L168,376L164,377L161,377L157,377L153,373L148,367L142,360L137,351L131,338L129,322" stroke-opacity="1" stroke-width="2" stroke-linecap="round" stroke-linejoin="round" style="-webkit-tap-highlight-color: rgba(0, 0, 0, 0); stroke-opacity: 1; stroke-linecap: round; stroke-linejoin: round; -webkit-user-select: text;"></path><path fill="none" stroke="#000000" d="M118,361L117,356L117,354L116,352L115,350L113,347L111,343L108,338L106,334L104,330L103,327L102,324L101,321L100,319L100,316L100,315L100,313L100,311L100,309L100,304L105,298L111,291L119,284L128,275L141,266L155,254L171,240" stroke-opacity="1" stroke-width="2" stroke-linecap="round" stroke-linejoin="round" style="-webkit-tap-highlight-color: rgba(0, 0, 0, 0); stroke-opacity: 1; stroke-linecap: round; stroke-linejoin: round; -webkit-user-select: text;"></path><path fill="none" stroke="#000000" d="M102,273L107,266L109,264L114,261L119,257L125,254L131,250L138,247L144,245L150,243L155,242L160,240L165,238L169,238L173,238L177,238L180,238L183,238L186,242L189,245L191,249L195,256L199,264L207,274L214,286L223,302" stroke-opacity="1" stroke-width="2" stroke-linecap="round" stroke-linejoin="round" style="-webkit-tap-highlight-color: rgba(0, 0, 0, 0); stroke-opacity: 1; stroke-linecap: round; stroke-linejoin: round; -webkit-user-select: text;"></path><path fill="none" stroke="#000000" d="M226,259L229,264L229,266L232,269L234,272L237,274L241,277L243,281L245,283L246,285L247,287L248,289L248,291L249,293L249,295L249,297L249,300L249,303L247,306L244,311L240,316L234,323L228,329L219,338L209,346L198,356L185,369L172,381" stroke-opacity="1" stroke-width="2" stroke-linecap="round" stroke-linejoin="round" style="-webkit-tap-highlight-color: rgba(0, 0, 0, 0); stroke-opacity: 1; stroke-linecap: round; stroke-linejoin: round; -webkit-user-select: text;"></path><path fill="none" stroke="#000000" d="M217,370L206,378L201,381L197,385L192,388L189,392L185,396L181,399L177,401L173,403L170,404L167,405L164,405L161,405L157,405L153,404L149,401L143,396L137,389L132,383L126,376L121,369L114,361L108,352" stroke-opacity="1" stroke-width="2" stroke-linecap="round" stroke-linejoin="round" style="-webkit-tap-highlight-color: rgba(0, 0, 0, 0); stroke-opacity: 1; stroke-linecap: round; stroke-linejoin: round; -webkit-user-select: text;"></path><path fill="none" stroke="#000000" d="M116,377L110,375L108,372L106,369L102,364L99,360L96,355L94,351L91,345L88,339L86,334L83,328L81,324L78,321L77,318L76,314L75,312L75,309L75,306L75,302L75,298L76,291L81,285L85,279L89,273L96,267L107,259L119,251L136,241L154,230" stroke-opacity="1" stroke-width="2" stroke-linecap="round" stroke-linejoin="round" style="-webkit-tap-highlight-color: rgba(0, 0, 0, 0); stroke-opacity: 1; stroke-linecap: round; stroke-linejoin: round; -webkit-user-select: text;"></path><path fill="none" stroke="#000000" d="M84,246L91,244L95,241L99,237L105,233L111,230L117,226L122,223L127,220L133,218L139,216L147,215L153,213L160,212L167,211L176,211L181,211L187,211L191,213L196,217L200,222L204,229L209,238L213,251L215,266L219,285L221,299" stroke-opacity="1" stroke-width="2" stroke-linecap="round" stroke-linejoin="round" style="-webkit-tap-highlight-color: rgba(0, 0, 0, 0); stroke-opacity: 1; stroke-linecap: round; stroke-linejoin: round; -webkit-user-select: text;"></path><path fill="none" stroke="#000000" d="M248,219L251,225L251,228L252,233L254,239L255,245L256,250L257,255L258,260L259,266L260,272L261,278L262,284L264,290L264,296L265,301L265,306L265,310L265,314L265,318L264,322L261,326L257,331L250,336L242,341L232,346L220,351L207,357L194,364L180,369" stroke-opacity="1" stroke-width="2" stroke-linecap="round" stroke-linejoin="round" style="-webkit-tap-highlight-color: rgba(0, 0, 0, 0); stroke-opacity: 1; stroke-linecap: round; stroke-linejoin: round; -webkit-user-select: text;"></path><path fill="none" stroke="#000000" d="M253,366L248,374L244,376L240,378L235,379L230,381L223,382L215,383L208,385L200,387L194,390L188,392L181,395L176,397L171,399L167,399L163,400L160,400L157,400L154,400L151,400L146,396L141,389L135,382L130,373L125,364L120,351L117,339L113,322" stroke-opacity="1" stroke-width="2" stroke-linecap="round" stroke-linejoin="round" style="-webkit-tap-highlight-color: rgba(0, 0, 0, 0); stroke-opacity: 1; stroke-linecap: round; stroke-linejoin: round; -webkit-user-select: text;"></path><path fill="none" stroke="#000000" d="M99,368L96,364L96,360L95,355L93,348L90,339L88,331L86,323L84,314L83,306L82,300L82,295L82,290L82,286L82,283L82,280L82,275L82,272L82,268L82,265L83,261L85,258L87,256L90,253L95,250L102,246L112,241L123,235L135,230L151,221" stroke-opacity="1" stroke-width="2" stroke-linecap="round" stroke-linejoin="round" style="-webkit-tap-highlight-color: rgba(0, 0, 0, 0); stroke-opacity: 1; stroke-linecap: round; stroke-linejoin: round; -webkit-user-select: text;"></path><path fill="none" stroke="#000000" d="M96,180L98,182L101,181L106,180L112,179L119,178L125,178L133,178L140,178L145,179L150,181L154,183L158,186L162,189L165,193L168,197L171,201L173,206L176,212L178,217L179,224L180,231L181,238L182,246L182,254L183,261L184,270L185,281L185,292L185,302" stroke-opacity="1" stroke-width="2" stroke-linecap="round" stroke-linejoin="round" style="-webkit-tap-highlight-color: rgba(0, 0, 0, 0); stroke-opacity: 1; stroke-linecap: round; stroke-linejoin: round; -webkit-user-select: text;"></path><path fill="none" stroke="#000000" d="M174,308L168,311L164,311L159,312L155,313L151,314L146,316L140,316L136,316L131,316L128,316L125,316L122,316L119,316L116,316L113,315L110,314L107,313L103,312L100,311L97,309L94,307L90,305L87,302L82,298L78,293L74,289L71,282L68,272L66,260L66,244L66,222" stroke-opacity="1" stroke-width="2" stroke-linecap="round" stroke-linejoin="round" style="-webkit-tap-highlight-color: rgba(0, 0, 0, 0); stroke-opacity: 1; stroke-linecap: round; stroke-linejoin: round; -webkit-user-select: text;"></path><path fill="none" stroke="#000000" d="M45,258L50,243L50,236L51,227L54,218L56,212L59,207L63,200L66,195L71,191L75,186L79,182L83,179L87,175L90,172L93,169L96,168L98,167L100,167L102,167L104,167L106,167L108,167L110,168L113,171L115,174L117,177L119,181L122,188L125,197L129,210L135,227L141,244L148,263" stroke-opacity="1" stroke-width="2" stroke-linecap="round" stroke-linejoin="round" style="-webkit-tap-highlight-color: rgba(0, 0, 0, 0); stroke-opacity: 1; stroke-linecap: round; stroke-linejoin: round; -webkit-user-select: text;"></path><path fill="none" stroke="#000000" d="M158,167L163,174L163,178L163,184L165,190L166,196L168,203L169,212L169,219L170,226L171,233L171,240L171,248L171,254L171,259L170,264L168,268L164,271L161,273L157,275L153,275L149,276L144,276L139,276L135,276L132,275L128,273L125,271L121,269L116,266L110,263L104,257L98,247L93,228L91,203" stroke-opacity="1" stroke-width="2" stroke-linecap="round" stroke-linejoin="round" style="-webkit-tap-highlight-color: rgba(0, 0, 0, 0); stroke-opacity: 1; stroke-linecap: round; stroke-linejoin: round; -webkit-user-select: text;"></path><path fill="none" stroke="#000000" d="M83,228L82,218L82,214L82,208L81,199L80,188L79,179L79,171L79,164L79,157L79,151L80,144L82,139L83,135L85,131L88,128L91,126L95,124L100,124L106,124L112,124L118,124L125,124L133,124L142,124L152,125L160,128L169,131L178,136L188,145L197,159L207,178L217,199" stroke-opacity="1" stroke-width="2" stroke-linecap="round" stroke-linejoin="round" style="-webkit-tap-highlight-color: rgba(0, 0, 0, 0); stroke-opacity: 1; stroke-linecap: round; stroke-linejoin: round; -webkit-user-select: text;"></path><path fill="none" stroke="#000000" d="M218,123L219,127L221,129L224,132L227,135L231,138L236,142L241,147L246,154L250,160L253,167L256,173L257,178L259,185L259,191L260,196L260,202L260,208L259,213L256,218L251,223L246,228L241,233L235,238L229,243L221,247L213,251L203,256L191,263L178,270" stroke-opacity="1" stroke-width="2" stroke-linecap="round" stroke-linejoin="round" style="-webkit-tap-highlight-color: rgba(0, 0, 0, 0); stroke-opacity: 1; stroke-linecap: round; stroke-linejoin: round; -webkit-user-select: text;"></path><path fill="none" stroke="#000000" d="M250,254L244,259L241,261L237,263L231,266L225,268L218,271L209,272L200,273L192,274L184,275L177,275L170,275L165,275L160,272L156,266L153,259L150,251L147,244L145,236L144,229L143,220L143,211L143,202L143,191L144,180L148,164L156,143" stroke-opacity="1" stroke-width="2" stroke-linecap="round" stroke-linejoin="round" style="-webkit-tap-highlight-color: rgba(0, 0, 0, 0); stroke-opacity: 1; stroke-linecap: round; stroke-linejoin: round; -webkit-user-select: text;"></path><path fill="none" stroke="#000000" d="M116,154L119,150L120,144L123,138L127,132L131,126L137,121L143,117L150,114L156,112L163,110L171,110L180,110L188,110L195,110L201,112L207,116L213,122L217,128L222,137L225,146L228,157L232,173L239,195L245,218L250,240L256,262" stroke-opacity="1" stroke-width="2" stroke-linecap="round" stroke-linejoin="round" style="-webkit-tap-highlight-color: rgba(0, 0, 0, 0); stroke-opacity: 1; stroke-linecap: round; stroke-linejoin: round; -webkit-user-select: text;"></path><path fill="none" stroke="#000000" d="M257,155L262,158L262,160L263,163L264,167L266,171L269,175L273,180L278,187L282,193L286,199L290,206L293,213L294,218L295,223L296,229L296,234L295,240L291,246L287,252L280,258L274,264L266,271L259,276L248,284L237,289L227,295L216,301L205,307" stroke-opacity="1" stroke-width="2" stroke-linecap="round" stroke-linejoin="round" style="-webkit-tap-highlight-color: rgba(0, 0, 0, 0); stroke-opacity: 1; stroke-linecap: round; stroke-linejoin: round; -webkit-user-select: text;"></path><path fill="none" stroke="#000000" d="M317,177L316,183L316,188L316,193L316,199L316,207L316,216L316,225L316,232L316,242L316,251L316,259L316,270L316,279L314,288L310,297L305,304L298,311L291,316L280,323L268,329L254,336L235,342L221,347L207,352L196,355" stroke-opacity="1" stroke-width="2" stroke-linecap="round" stroke-linejoin="round" style="-webkit-tap-highlight-color: rgba(0, 0, 0, 0); stroke-opacity: 1; stroke-linecap: round; stroke-linejoin: round; -webkit-user-select: text;"></path><path fill="none" stroke="#000000" d="M305,325L303,333L303,337L302,342L301,347L299,354L296,362L293,368L289,376L284,383L278,391L272,398L267,403L260,409L253,413L245,415L237,416L229,417L218,417L208,413L197,406L189,398L181,386L175,372L170,356L166,340L165,327L165,312" stroke-opacity="1" stroke-width="2" stroke-linecap="round" stroke-linejoin="round" style="-webkit-tap-highlight-color: rgba(0, 0, 0, 0); stroke-opacity: 1; stroke-linecap: round; stroke-linejoin: round; -webkit-user-select: text;"></path><path fill="none" stroke="#000000" d="M170,406L165,403L163,400L161,396L159,392L156,387L153,381L150,372L145,361L141,351L138,340L136,329L134,319L134,309L134,299L134,289L135,282L138,274L144,265L149,257L155,248L164,238L176,232L188,229L205,229" stroke-opacity="1" stroke-width="2" stroke-linecap="round" stroke-linejoin="round" style="-webkit-tap-highlight-color: rgba(0, 0, 0, 0); stroke-opacity: 1; stroke-linecap: round; stroke-linejoin: round; -webkit-user-select: text;"></path><path fill="none" stroke="#000000" d="M140,235L147,232L153,229L159,226L169,223L177,221L186,221L194,221L203,222L210,226L214,231L219,237L222,245L226,254L228,263L230,273L232,284L232,297L232,313L232,334L231,354L227,375L225,397L222,413" stroke-opacity="1" stroke-width="2" stroke-linecap="round" stroke-linejoin="round" style="-webkit-tap-highlight-color: rgba(0, 0, 0, 0); stroke-opacity: 1; stroke-linecap: round; stroke-linejoin: round; -webkit-user-select: text;"></path><path fill="none" stroke="#000000" d="M280,331L278,338L278,343L278,349L277,357L276,367L274,376L272,383L269,393L266,402L263,410L259,417L253,425L247,432L240,438L233,442L226,446L218,449L210,451L202,452L195,452L186,452L176,452L165,447L154,440L142,432L131,426L119,417" stroke-opacity="1" stroke-width="2" stroke-linecap="round" stroke-linejoin="round" style="-webkit-tap-highlight-color: rgba(0, 0, 0, 0); stroke-opacity: 1; stroke-linecap: round; stroke-linejoin: round; -webkit-user-select: text;"></path><path fill="none" stroke="#000000" d="M200,450L188,454L185,454L180,454L173,454L166,454L158,454L149,453L139,451L131,449L124,447L117,445L110,442L104,440L99,435L95,429L92,419L90,409L89,398L89,385L89,369L89,354L91,337L96,318L103,298L112,277L118,256" stroke-opacity="1" stroke-width="2" stroke-linecap="round" stroke-linejoin="round" style="-webkit-tap-highlight-color: rgba(0, 0, 0, 0); stroke-opacity: 1; stroke-linecap: round; stroke-linejoin: round; -webkit-user-select: text;"></path><path fill="none" stroke="#000000" d="M61,368L62,354L64,347L68,340L73,332L80,326L86,320L92,312L100,304L107,299L115,295L123,292L131,289L139,288L146,287L153,286L159,286L166,287L172,292L178,299L184,311L188,326L192,348L195,371L200,395L204,416" stroke-opacity="1" stroke-width="2" stroke-linecap="round" stroke-linejoin="round" style="-webkit-tap-highlight-color: rgba(0, 0, 0, 0); stroke-opacity: 1; stroke-linecap: round; stroke-linejoin: round; -webkit-user-select: text;"></path><path fill="none" stroke="#000000" d="M226,334L229,338L229,342L229,348L229,356L229,365L229,374L229,382L229,392L226,402L222,410L218,417L212,424L205,430L199,435L192,439L185,442L175,444L167,445L161,445L151,445L140,445L131,445L120,442L109,439L99,436L89,433L78,430L67,426L58,421L51,414L43,404" stroke-opacity="1" stroke-width="2" stroke-linecap="round" stroke-linejoin="round" style="-webkit-tap-highlight-color: rgba(0, 0, 0, 0); stroke-opacity: 1; stroke-linecap: round; stroke-linejoin: round; -webkit-user-select: text;"></path><path fill="none" stroke="#000000" d="M77,459L73,460L70,460L67,459L63,457L58,453L52,450L44,445L38,441L32,437L28,432L24,426L23,418L23,407L23,393L23,379L27,365L33,351L39,339L45,326L53,313L62,299L75,287L91,278L107,274L125,272" stroke-opacity="1" stroke-width="2" stroke-linecap="round" stroke-linejoin="round" style="-webkit-tap-highlight-color: rgba(0, 0, 0, 0); stroke-opacity: 1; stroke-linecap: round; stroke-linejoin: round; -webkit-user-select: text;"></path><path fill="none" stroke="#000000" d="M40,300L51,283L57,275L64,269L73,265L83,260L91,258L100,255L109,254L116,254L123,254L131,255L137,259L144,265L150,273L154,281L157,288L160,296L162,306L163,316L163,328L163,341L163,354L163,372L163,390L163,409L162,429L160,448" stroke-opacity="1" stroke-width="2" stroke-linecap="round" stroke-linejoin="round" style="-webkit-tap-highlight-color: rgba(0, 0, 0, 0); stroke-opacity: 1; stroke-linecap: round; stroke-linejoin: round; -webkit-user-select: text;"></path><path fill="none" stroke="#000000" d="M196,337L194,346L194,350L194,357L194,366L194,375L194,383L194,392L194,400L193,407L190,414L185,421L180,427L175,431L169,434L162,436L154,436L145,436L136,436L128,436L119,431L110,426L102,419L94,409L85,395L76,377L67,358L60,339L55,320L51,300L51,282L49,261" stroke-opacity="1" stroke-width="2" stroke-linecap="round" stroke-linejoin="round" style="-webkit-tap-highlight-color: rgba(0, 0, 0, 0); stroke-opacity: 1; stroke-linecap: round; stroke-linejoin: round; -webkit-user-select: text;"></path><path fill="none" stroke="#000000" d="M36,357L33,350L33,345L33,338L33,328L35,319L38,309L42,300L46,290L51,280L55,269L59,256L64,245L71,234L78,224L84,215L89,209L95,207L102,206L108,206L115,206L120,210L126,217L132,225L137,232L144,241L151,253L156,266L161,286L164,303L165,322L166,341" stroke-opacity="1" stroke-width="2" stroke-linecap="round" stroke-linejoin="round" style="-webkit-tap-highlight-color: rgba(0, 0, 0, 0); stroke-opacity: 1; stroke-linecap: round; stroke-linejoin: round; -webkit-user-select: text;"></path><path fill="none" stroke="#000000" d="M178,219L182,231L182,237L182,247L182,258L182,269L182,281L180,291L177,301L173,310L170,318L166,325L162,331L157,335L151,338L145,339L139,339L132,339L127,336L121,330L114,323L106,314L100,305L94,295L87,282L79,264L71,246L65,227L61,212L58,189" stroke-opacity="1" stroke-width="2" stroke-linecap="round" stroke-linejoin="round" style="-webkit-tap-highlight-color: rgba(0, 0, 0, 0); stroke-opacity: 1; stroke-linecap: round; stroke-linejoin: round; -webkit-user-select: text;"></path><path fill="none" stroke="#000000" d="M58,291L57,289L57,284L56,276L53,266L49,253L45,239L42,225L41,214L41,201L41,190L43,180L48,171L54,163L61,156L69,151L78,147L87,143L97,141L108,139L118,139L131,139L145,139L157,143L171,148L184,154L196,160" stroke-opacity="1" stroke-width="2" stroke-linecap="round" stroke-linejoin="round" style="-webkit-tap-highlight-color: rgba(0, 0, 0, 0); stroke-opacity: 1; stroke-linecap: round; stroke-linejoin: round; -webkit-user-select: text;"></path><path fill="none" stroke="#000000" d="M133,118L141,115L147,115L155,115L164,115L177,114L187,114L199,114L210,114L219,117L226,122L232,130L236,138L240,148L241,159L241,170L241,181L237,194L231,206L225,219L216,235L205,252L196,269L186,284" stroke-opacity="1" stroke-width="2" stroke-linecap="round" stroke-linejoin="round" style="-webkit-tap-highlight-color: rgba(0, 0, 0, 0); stroke-opacity: 1; stroke-linecap: round; stroke-linejoin: round; -webkit-user-select: text;"></path><path fill="none" stroke="#000000" d="M288,190L286,198L285,205L282,213L278,223L273,233L266,244L260,253L252,261L243,268L235,274L227,280L220,285L212,289L205,292L199,294L193,295L186,295L180,294L172,289L167,283L163,277L159,270L156,262L154,253L152,244L152,234L152,222L152,210L152,196L155,182L160,165L168,144L179,118L188,97L199,75" stroke-opacity="1" stroke-width="2" stroke-linecap="round" stroke-linejoin="round" style="-webkit-tap-highlight-color: rgba(0, 0, 0, 0); stroke-opacity: 1; stroke-linecap: round; stroke-linejoin: round; -webkit-user-select: text;"></path><path fill="none" stroke="#000000" d="M125,162L129,155L132,151L137,144L144,134L149,126L156,117L163,109L172,101L181,94L189,89L199,84L209,80L217,78L224,78L233,78L240,83L245,90L250,97L253,104L256,114L259,123L261,133L262,142L264,153L265,164L266,177L266,195L261,218L248,243L234,265L221,289L208,314L197,340" stroke-opacity="1" stroke-width="2" stroke-linecap="round" stroke-linejoin="round" style="-webkit-tap-highlight-color: rgba(0, 0, 0, 0); stroke-opacity: 1; stroke-linecap: round; stroke-linejoin: round; -webkit-user-select: text;"></path><path fill="none" stroke="#000000" d="M313,143L311,152L311,160L310,171L307,186L304,199L300,213L296,226L291,238L285,250L279,262L271,274L263,284L253,293L242,300L233,305L222,309L213,310L202,310L196,310L188,304L181,297L173,286L167,273L163,258L161,242L159,225L158,207L158,183L158,159L165,127" stroke-opacity="1" stroke-width="2" stroke-linecap="round" stroke-linejoin="round" style="-webkit-tap-highlight-color: rgba(0, 0, 0, 0); stroke-opacity: 1; stroke-linecap: round; stroke-linejoin: round; -webkit-user-select: text;"></path><path fill="none" stroke="#000000" d="M101,208L101,200L101,194L102,188L106,181L111,172L117,161L122,152L128,143L135,133L142,123L151,113L159,103L168,95L180,88L189,84L198,82L209,82L217,82L226,83L232,89L239,97L246,107L252,117L258,130L262,145L266,166L267,188L267,212L267,238L267,268L267,296" stroke-opacity="1" stroke-width="2" stroke-linecap="round" stroke-linejoin="round" style="-webkit-tap-highlight-color: rgba(0, 0, 0, 0); stroke-opacity: 1; stroke-linecap: round; stroke-linejoin: round; -webkit-user-select: text;"></path><path fill="none" stroke="#000000" d="M317,194L317,201L317,208L317,214L317,222L317,230L317,242L316,253L315,263L313,273L311,284L308,293L304,301L299,307L294,312L289,314L280,315L271,315L260,315L246,311L231,307L212,301L194,294L177,288L164,281L154,270" stroke-opacity="1" stroke-width="2" stroke-linecap="round" stroke-linejoin="round" style="-webkit-tap-highlight-color: rgba(0, 0, 0, 0); stroke-opacity: 1; stroke-linecap: round; stroke-linejoin: round; -webkit-user-select: text;"></path><path fill="none" stroke="#000000" d="M259,343L249,342L244,340L239,339L233,337L226,334L216,331L202,325L189,317L172,307L161,300L149,292L136,284L126,275L116,265L105,254L98,240L92,225L88,210L86,194L84,180L83,167L83,153L83,137L83,122L85,113L91,104L103,98L120,96L146,97L178,113" stroke-opacity="1" stroke-width="2" stroke-linecap="round" stroke-linejoin="round" style="-webkit-tap-highlight-color: rgba(0, 0, 0, 0); stroke-opacity: 1; stroke-linecap: round; stroke-linejoin: round; -webkit-user-select: text;"></path><path fill="none" stroke="#000000" d="M82,71L86,72L90,72L97,72L106,69L117,66L130,63L146,62L158,60L172,60L184,60L195,60L205,63L216,70L224,78L232,89L239,101L244,112L246,122L247,135L247,147L244,161L236,178L229,196L221,216L214,235L207,258" stroke-opacity="1" stroke-width="2" stroke-linecap="round" stroke-linejoin="round" style="-webkit-tap-highlight-color: rgba(0, 0, 0, 0); stroke-opacity: 1; stroke-linecap: round; stroke-linejoin: round; -webkit-user-select: text;"></path><path fill="none" stroke="#000000" d="M311,119L311,138L308,161L304,175L298,190L291,204L283,217L274,229L266,239L259,249L251,258L242,265L233,270L224,273L212,275L201,275L189,275L176,270L163,263L151,256L136,248L125,239L109,228L95,212L77,189L62,169L52,146L45,124L39,103L33,82" stroke-opacity="1" stroke-width="2" stroke-linecap="round" stroke-linejoin="round" style="-webkit-tap-highlight-color: rgba(0, 0, 0, 0); stroke-opacity: 1; stroke-linecap: round; stroke-linejoin: round; -webkit-user-select: text;"></path><path fill="none" stroke="#000000" d="M52,189L39,188L37,185L35,180L32,171L31,161L30,150L30,138L30,127L31,116L37,104L44,92L51,80L60,68L70,59L81,52L91,46L105,43L116,43L128,43L142,47L155,59L170,79L186,105L201,132L215,161" stroke-opacity="1" stroke-width="2" stroke-linecap="round" stroke-linejoin="round" style="-webkit-tap-highlight-color: rgba(0, 0, 0, 0); stroke-opacity: 1; stroke-linecap: round; stroke-linejoin: round; -webkit-user-select: text;"></path><path fill="none" stroke="#000000" d="M215,35L218,39L220,44L224,53L228,64L233,77L239,88L243,100L246,109L250,120L252,130L254,139L255,150L256,159L256,171L256,179L255,187L251,195L247,200L241,205L235,209L230,212L223,214L215,215L206,216L197,216L182,215L168,210L151,201L136,191L123,179L108,163L96,146L84,134L75,126" stroke-opacity="1" stroke-width="2" stroke-linecap="round" stroke-linejoin="round" style="-webkit-tap-highlight-color: rgba(0, 0, 0, 0); stroke-opacity: 1; stroke-linecap: round; stroke-linejoin: round; -webkit-user-select: text;"></path><path fill="none" stroke="#000000" d="M68,238L63,221L63,211L63,197L63,181L63,166L63,151L65,136L69,123L74,110L81,98L88,86L95,76L105,68L115,64L124,62L137,62L148,62L158,62L168,66L181,71L192,79L203,89L216,101L225,115L232,131L240,150L245,173L246,197L246,224" stroke-opacity="1" stroke-width="2" stroke-linecap="round" stroke-linejoin="round" style="-webkit-tap-highlight-color: rgba(0, 0, 0, 0); stroke-opacity: 1; stroke-linecap: round; stroke-linejoin: round; -webkit-user-select: text;"></path><path fill="none" stroke="#000000" d="M227,58L230,64L234,68L240,74L246,80L252,87L258,94L261,100L266,109L268,118L271,129L272,141L273,154L273,167L273,180L273,194L269,208L265,222L259,237L252,254L244,269L235,285L226,299L217,312L207,326L198,341L191,357L183,374L175,392L167,411" stroke-opacity="1" stroke-width="2" stroke-linecap="round" stroke-linejoin="round" style="-webkit-tap-highlight-color: rgba(0, 0, 0, 0); stroke-opacity: 1; stroke-linecap: round; stroke-linejoin: round; -webkit-user-select: text;"></path><path fill="none" stroke="#000000" d="M256,304L241,324L233,335L226,346L219,358L211,369L202,378L195,387L187,397L179,407L172,413L165,420L159,423L150,425L139,425L130,425L118,421L107,414L97,405L90,395L82,384L74,368L66,348L60,326L54,302" stroke-opacity="1" stroke-width="2" stroke-linecap="round" stroke-linejoin="round" style="-webkit-tap-highlight-color: rgba(0, 0, 0, 0); stroke-opacity: 1; stroke-linecap: round; stroke-linejoin: round; -webkit-user-select: text;"></path><path fill="none" stroke="#000000" d="M75,410L63,391L60,382L56,368L52,353L49,337L43,321L37,301L31,283L29,266L27,249L27,235L27,220L27,206L28,192L34,180L43,171L54,163L64,160L80,159L95,159L115,167L132,176L152,191L171,207L186,221L203,240L215,256" stroke-opacity="1" stroke-width="2" stroke-linecap="round" stroke-linejoin="round" style="-webkit-tap-highlight-color: rgba(0, 0, 0, 0); stroke-opacity: 1; stroke-linecap: round; stroke-linejoin: round; -webkit-user-select: text;"></path></svg>