<svg height="494" version="1.1" width="320" xmlns="http://www.w3.org/2000/svg" xmlns:xlink="http://www.w3.org/1999/xlink" style="overflow: hidden; position: relative; -webkit-user-select: text;"><desc style="-webkit-tap-highlight-color: rgba(0, 0, 0, 0); -webkit-user-select: text;">Created with Raphaël 2.2.0</desc><defs style="-webkit-tap-highlight-color: rgba(0, 0, 0, 0); -webkit-user-select: text;"></defs><path fill="none" stroke="#000000" d="M101,215L103,212L105,212L107,211L109,210L112,209L114,208L117,207L119,206L122,204L124,203L127,201L129,200L131,199L133,198L136,196L138,195L140,194L144,193L147,191L150,190L153,189L155,188L158,186L161,185L164,183L167,182L170,180L172,180L175,179L177,179L180,179L182,179L185,179L187,179L189,179L191,179L194,179L196,179L198,179L201,180L203,181L206,182L209,183L210,184L212,185L214,186L215,187L217,189L218,190L219,192L221,193L222,195L223,197L224,198L225,200L226,202L226,204L227,206L228,207L228,209L229,211L229,213L230,214L231,216L232,218L232,219L233,221L234,222L235,224L236,225L236,227L237,228L238,230L239,232L240,234L241,236L241,237L242,239L242,240L243,242L244,244L244,246L245,247L246,249L246,250L247,252L247,253L248,254L248,255L249,256L249,257L250,258L250,260L250,261L251,262L251,263L252,265L252,266L252,267L253,268L253,269L253,270L253,271L253,272L253,273L254,275L254,276L255,278L257,281L262,283" stroke-opacity="1" stroke-width="2" stroke-linecap="round" stroke-linejoin="round" style="-webkit-tap-highlight-color: rgba(0, 0, 0, 0); stroke-opacity: 1; stroke-linecap: round; stroke-linejoin: round; -webkit-user-select: text;"></path><path fill="none" stroke="#000000" d="M262,215L264,222L264,224L264,226L264,227L265,229L266,231L267,234L268,236L269,238L271,241L272,244L274,246L275,249L276,251L277,253L277,256L278,258L279,260L280,262L280,264L281,266L282,269L282,271L283,273L284,275L285,278L285,280L286,282L286,285L287,287L287,289L287,291L287,293L287,295L287,297L287,299L287,301L287,304L286,306L284,308L282,311L280,313L278,316L277,319L274,321L272,323L271,325L268,327L266,329L264,330L262,332L260,334L258,335L255,337L253,338L250,339L247,341L245,342L242,343L240,344L238,345L236,346L234,347L232,348L230,349L228,350L225,352L223,353L221,354L219,354L217,355L215,356L214,357L212,357L210,358L208,358L206,359L203,359L201,360L199,360L197,360L195,361L192,361L190,361L188,361L186,361L184,361L182,361L180,361L178,361L175,361L173,361L171,361L169,361L167,361L165,361L163,361L161,361L159,360L157,360L155,359" stroke-opacity="1" stroke-width="2" stroke-linecap="round" stroke-linejoin="round" style="-webkit-tap-highlight-color: rgba(0, 0, 0, 0); stroke-opacity: 1; stroke-linecap: round; stroke-linejoin: round; -webkit-user-select: text;"></path><path fill="none" stroke="#000000" d="M233,374L226,377L223,377L219,378L215,379L210,381L204,382L199,384L194,385L189,386L185,387L180,389L175,389L170,390L166,391L162,391L158,392L155,392L151,393L147,393L144,393L140,393L136,393L133,393L130,393L127,393L125,393L123,393L120,393L117,393L114,393L110,392L107,391L105,390L102,389L100,388L98,387L97,385L95,384L94,382L92,381L91,379L90,378L89,376L88,374L87,373L86,372L85,371L85,369L84,368L84,367L83,366L82,364L82,363L82,362L81,361L81,360L81,359L80,358L80,356L80,355L80,354L80,352L80,351L80,350L80,348L80,347L80,346L80,345L80,343L80,342L80,341L81,340L81,339L82,338L82,336L83,335L84,333L85,332L86,330L86,329L87,328L88,326L89,325L90,323L91,322L92,321L93,319L94,318L95,316L96,315L97,313L98,312L98,311L99,310L100,309L101,308L102,306L103,305L104,303L105,302L106,301L107,300L108,298L109,297L110,296L112,295L113,294L113,293L114,293L115,292L116,291L116,290L117,289L118,289L118,288L119,287L120,286L120,285L121,284L122,283L122,282L123,281L124,280L125,279L125,278L126,277L126,276L127,275L128,274L128,273L129,272L130,271L131,269L134,266L143,258" stroke-opacity="1" stroke-width="2" stroke-linecap="round" stroke-linejoin="round" style="-webkit-tap-highlight-color: rgba(0, 0, 0, 0); stroke-opacity: 1; stroke-linecap: round; stroke-linejoin: round; -webkit-user-select: text;"></path><path fill="none" stroke="#000000" d="M101,286L104,281L105,279L107,277L109,276L110,274L112,273L113,271L115,270L116,268L117,267L118,266L120,265L121,263L122,262L123,260L125,258L126,256L127,255L128,253L130,252L131,250L132,248L134,247L136,245L137,244L139,242L140,240L141,239L144,237L145,236L147,234L149,233L151,231L152,229L154,227L156,226L157,224L158,223L160,222L161,221L162,220L164,219L166,217L167,216L169,215L170,215L172,214L173,214L175,213L177,213L179,213L180,213L182,213L184,213L186,213L188,213L190,213L192,213L194,213L195,213L197,213L199,213L201,213L202,213L203,214L205,214L207,215L208,216L210,217L211,218L213,219L214,220L215,221L216,223L218,225L220,226L221,228L222,229L224,231L225,233L226,235L228,237L229,239L231,242L233,243L234,245L235,246L237,248L239,249L240,251L241,253L243,254L245,256L246,258L248,260L250,262L251,264L253,265L254,267L256,269L257,270L258,272L259,273L260,275L261,276L262,277L263,279L265,281L266,282L267,284L268,285L269,287L271,288L272,290L273,291L274,293L275,294L276,296L278,297L278,298L279,300L280,301L281,302L282,304L283,305L284,307L285,308L286,309L286,311L287,312L287,313L288,314L288,315L289,316L289,317L290,319L290,320L290,321L291,322L291,323L291,325L291,326L292,328L292,329L292,330L292,332L292,334L292,336L292,338L292,339L292,341L292,343L292,345L292,347L292,349L292,351L292,353L292,354L292,355L292,357L292,359L292,360L292,361L292,362L292,363L291,364L291,365L290,366L290,367L289,369L288,370L284,373L272,385" stroke-opacity="1" stroke-width="2" stroke-linecap="round" stroke-linejoin="round" style="-webkit-tap-highlight-color: rgba(0, 0, 0, 0); stroke-opacity: 1; stroke-linecap: round; stroke-linejoin: round; -webkit-user-select: text;"></path><path fill="none" stroke="#000000" d="M310,380L304,385L303,386L301,387L300,389L299,390L297,391L296,392L294,394L292,396L290,398L287,399L284,401L281,403L278,404L276,406L274,407L272,408L269,410L267,412L266,413L264,414L263,415L261,417L260,418L257,419L255,421L254,422L252,423L250,424L247,426L245,427L243,428L242,429L240,430L238,431L236,431L234,432L233,434L231,435L229,436L228,436L226,437L224,438L222,439L219,440L216,441L213,442L210,443L207,444L203,445L201,446L199,447L197,447L194,448L192,448L190,448L187,448L185,448L182,448L178,448L176,448L172,448L169,448L167,448L164,448L162,448L159,448L157,448L154,448L152,447L150,447L147,446L145,445L144,444L141,443L140,442L138,441L137,440L135,439L133,437L131,436L130,435L128,433L126,431L125,430L123,428L122,426L120,425L119,423L117,422L116,420L114,418L113,416L111,414L109,412L108,410L106,408L105,406L103,404L102,402L101,401L99,399L98,397L97,395L95,392L94,391L93,389L92,387L91,385L90,383L88,381L87,379L86,377L85,375L83,372L82,370L81,368L80,367L78,365L77,363L75,360L74,358L72,355L71,353L70,351L69,349L67,347L66,344L64,342L63,339L62,337L60,335L59,333L58,330L57,328L55,326L53,323L52,320" stroke-opacity="1" stroke-width="2" stroke-linecap="round" stroke-linejoin="round" style="-webkit-tap-highlight-color: rgba(0, 0, 0, 0); stroke-opacity: 1; stroke-linecap: round; stroke-linejoin: round; -webkit-user-select: text;"></path><path fill="none" stroke="#000000" d="M61,381L60,376L60,373L61,371L61,369L62,366L62,364L63,361L63,358L64,354L64,352L64,349L64,346L64,343L64,340L64,337L64,335L64,332L64,329L64,326L65,322L65,318L66,314L66,309L67,305L67,302L68,298L69,294L70,291L71,288L72,286L72,284L73,282L74,278L74,276L75,273L76,270L77,267L78,264L79,262L80,259L81,256L82,253L83,251L84,249L86,247L87,244L88,243L89,240L90,239L92,238L93,236L94,234L96,233L97,231L99,230L100,228L101,227L103,226L104,225L105,224L107,223L108,223L109,222L111,221L113,220L114,219L115,218L117,218L118,217L120,216L121,215L123,214L124,213L125,212L126,212L128,211L129,210L130,210L131,209L133,208L134,208L135,207L137,206L138,206L140,205L142,205L144,204L146,203L147,203L149,202L151,201L152,200L154,199L156,198L158,197L160,196L161,195L163,194L165,193L167,192L169,191L171,190L172,190L175,189L176,188L178,188L179,187L180,187L182,186L183,185L185,185L186,184L188,183L190,182L191,182L193,181L195,180L197,179L198,178L200,177L202,176L205,175L213,172L225,166" stroke-opacity="1" stroke-width="2" stroke-linecap="round" stroke-linejoin="round" style="-webkit-tap-highlight-color: rgba(0, 0, 0, 0); stroke-opacity: 1; stroke-linecap: round; stroke-linejoin: round; -webkit-user-select: text;"></path><path fill="none" stroke="#000000" d="M149,175L152,175L153,175L154,175L156,175L158,175L160,175L162,175L164,175L167,175L170,175L172,175L175,175L178,175L180,175L182,175L185,175L187,175L188,175L190,175L191,175L193,175L195,175L196,175L198,175L199,175L201,175L202,175L204,176L205,176L208,177L209,178L211,178L213,179L214,180L216,181L218,182L219,183L221,184L222,185L224,186L225,187L226,188L227,189L229,191L230,192L231,194L233,195L234,197L235,198L237,200L238,202L240,204L241,206L242,208L243,209L245,211L246,213L247,215L248,216L248,218L249,220L250,222L251,223L252,225L252,227L253,229L253,231L254,233L255,235L255,237L256,239L256,242L257,243L257,245L258,246L258,248L259,249L259,251L259,253L259,254L259,256L260,258L260,260L260,262L260,264L260,266L260,268L261,270L261,271L261,273L261,275L262,277L262,280L262,282L262,284L263,286L263,288L263,290L264,292L264,294L265,296L265,298L265,301L266,303L266,305L266,307L267,309L267,310L268,312L268,313L268,315L269,316L269,318L269,320L270,321L270,322L270,324L271,325L271,327L271,328L271,330L272,331L272,333L272,335L273,336L273,338L274,340L274,342L275,343L275,345L276,346L276,348L277,349L277,350L277,351L278,352L278,354L278,355L279,356L279,357L279,358L279,359L280,359L280,360L280,361L281,364L281,371" stroke-opacity="1" stroke-width="2" stroke-linecap="round" stroke-linejoin="round" style="-webkit-tap-highlight-color: rgba(0, 0, 0, 0); stroke-opacity: 1; stroke-linecap: round; stroke-linejoin: round; -webkit-user-select: text;"></path><path fill="none" stroke="#000000" d="M293,291L294,299L294,300L294,301L294,302L294,304L294,305L294,307L294,309L295,311L295,313L295,315L296,318L296,320L296,323L296,325L297,327L297,330L297,332L297,335L297,338L297,341L297,345L297,348L297,352L297,355L297,359L297,361L297,364L297,366L296,369L295,371L294,374L293,376L291,379L290,382L289,384L287,386L285,388L283,390L281,392L279,395L276,396L274,398L272,399L271,400L269,401L267,403L265,404L264,405L262,406L261,408L260,408L258,409L257,410L256,411L254,412L253,412L251,413L249,414L247,415L244,416L242,417L240,418L237,419L235,420L233,421L231,422L229,423L226,424L224,425L222,426L220,427L218,428L216,429L214,429L212,430L210,430L208,431L205,431L204,432L202,432L200,433L199,434L197,434L196,435L195,435L194,435L192,436L191,436L189,436L187,437L185,437L184,437L182,437L180,438L178,438L176,438L175,438L172,438L171,439L169,439L167,439L166,439L164,439L163,439L161,439L160,439L159,440L157,440L156,440L154,440L153,440L152,440L150,440L149,440L148,440L146,440L145,440L144,440L142,440L141,440L140,440L138,440L137,440L136,440L135,440L133,440L132,440L131,440L129,440L128,440L127,439L125,439L124,438L123,438L121,437L120,436L119,436L117,435" stroke-opacity="1" stroke-width="2" stroke-linecap="round" stroke-linejoin="round" style="-webkit-tap-highlight-color: rgba(0, 0, 0, 0); stroke-opacity: 1; stroke-linecap: round; stroke-linejoin: round; -webkit-user-select: text;"></path><path fill="none" stroke="#000000" d="M183,452L177,454L174,454L170,454L167,456L163,457L160,458L156,459L152,460L148,461L144,461L139,461L134,461L130,461L127,461L123,461L119,461L114,461L109,460L105,459L101,458L97,457L95,456L92,455L90,455L89,454L87,453L86,452L84,451L82,449L80,448L78,447L77,446L75,445L74,443L72,442L71,441L70,440L69,438L69,437L68,435L67,432L66,431L65,429L65,427L64,424L64,422L64,419L63,417L63,415L63,413L63,411L63,409L63,407L63,405L63,403L63,401L63,399L62,397L62,395L62,392L62,389L62,386L62,383L62,381L62,379L62,377L61,375L61,372L61,370L60,367L60,365L60,362L59,359L59,357L58,353L58,350L57,347L57,345L57,342L56,340L56,337L56,334L55,331L55,328L55,326L55,323L55,321L55,319L55,316L55,314L55,312L55,310L54,308L54,305L54,303L53,300L52,298L52,295L51,293L51,291L51,289L51,287L50,285L50,283L50,282L50,280L50,278L50,277L50,275L50,274L50,272L50,270L50,268L50,266L50,264L50,261" stroke-opacity="1" stroke-width="2" stroke-linecap="round" stroke-linejoin="round" style="-webkit-tap-highlight-color: rgba(0, 0, 0, 0); stroke-opacity: 1; stroke-linecap: round; stroke-linejoin: round; -webkit-user-select: text;"></path><path fill="none" stroke="#000000" d="M44,361L42,352L42,349L42,347L42,344L42,342L41,340L41,337L40,334L40,331L39,328L39,325L38,322L38,318L38,315L37,311L37,308L36,304L36,301L35,298L35,295L34,292L34,289L33,286L33,282L33,279L33,275L33,272L33,269L33,267L33,264L33,261L33,258L33,255L33,253L34,250L36,248L37,245L39,242L40,240L42,237L43,236L44,234L45,233L46,231L48,230L49,228L50,227L52,226L53,225L54,224L55,223L57,222L58,222L60,221L61,220L63,219L65,219L67,218L69,217L71,217L73,216L75,216L77,216L80,215L81,215L83,215L85,214L87,214L89,213L91,213L93,212L95,212L97,212L98,211L101,211L103,211L106,210L108,210L111,210L113,210L115,210L117,210L119,209L121,209L123,209L124,209L126,209L127,209L129,209L131,209L133,209L135,209L137,209L139,209L142,209L145,209L147,209L149,209L152,208L156,208L166,208L181,207" stroke-opacity="1" stroke-width="2" stroke-linecap="round" stroke-linejoin="round" style="-webkit-tap-highlight-color: rgba(0, 0, 0, 0); stroke-opacity: 1; stroke-linecap: round; stroke-linejoin: round; -webkit-user-select: text;"></path><path fill="none" stroke="#000000" d="M75,184L76,190L79,190L81,190L83,190L85,190L87,190L89,190L91,190L93,190L96,190L98,190L100,190L103,190L105,190L108,190L112,191L115,191L117,191L120,192L122,192L124,192L126,192L128,193L130,193L132,193L134,194L136,194L139,195L141,195L144,196L146,196L148,197L151,197L153,198L155,198L157,199L159,199L161,200L162,201L164,202L166,203L167,204L169,206L171,207L172,208L175,210L176,211L178,212L179,214L180,215L181,216L182,218L182,219L183,220L183,221L184,223L184,224L185,226L185,227L186,229L186,230L186,232L186,234L187,235L187,237L187,239L187,240L187,243L187,246L187,248L187,250L187,252L187,253L187,255L187,256L186,258L186,259L185,261L184,263L183,265L182,267L182,269L181,270L180,272L179,273L179,275L178,276L177,278L176,280L175,282L173,283L172,285L171,287L169,290L168,292L167,295L166,297L164,299L163,301L162,303L161,305L160,307L159,309L158,311L157,314L156,316L155,318L154,320L153,322L151,325L149,327L148,329L146,332L143,335L140,339L135,345L128,356" stroke-opacity="1" stroke-width="2" stroke-linecap="round" stroke-linejoin="round" style="-webkit-tap-highlight-color: rgba(0, 0, 0, 0); stroke-opacity: 1; stroke-linecap: round; stroke-linejoin: round; -webkit-user-select: text;"></path><path fill="none" stroke="#000000" d="M186,319L185,325L184,328L183,330L181,333L179,336L177,339L175,342L173,345L171,348L168,351L166,354L164,358L161,361L159,363L157,366L154,368L152,370L150,372L148,374L145,376L142,377L140,379L138,380L136,381L134,382L132,384L131,385L129,386L128,387L126,388L125,389L123,389L122,390L121,390L120,391L119,391L117,391L116,391L115,391L113,391L112,391L110,391L109,391L107,391L105,391L104,391L103,390L102,389L100,388L99,387L98,386L97,384L96,383L95,381L94,380L93,378L92,376L91,375L90,373L89,370L88,368L87,366L87,364L86,361L85,359L85,357L84,354L83,351L83,349L82,347L82,344L81,342L81,340L80,338L80,335L79,333L78,330L78,328L77,325L77,323L76,321L75,318L75,315L74,311L73,308L73,305L72,302L72,299L72,296L71,293L71,290L70,287L70,285L70,282L69,278L69,275L69,273L68,270L68,267L68,264L67,261L66,258L66,254L66,251L65,248L65,244L64,240L63,237L63,234L63,230L62,227L62,223L62,220L61,218L61,215L61,212L61,209L61,207L61,204L60,201L60,198L60,195L60,192L60,190L60,187L60,183L60,179L60,175L60,170L60,159" stroke-opacity="1" stroke-width="2" stroke-linecap="round" stroke-linejoin="round" style="-webkit-tap-highlight-color: rgba(0, 0, 0, 0); stroke-opacity: 1; stroke-linecap: round; stroke-linejoin: round; -webkit-user-select: text;"></path><path fill="none" stroke="#000000" d="M52,246L49,239L49,236L49,233L49,229L49,223L48,218L48,213L47,208L47,204L47,198L47,193L47,188L47,182L47,177L47,172L47,168L47,163L47,160L48,156L49,153L49,149L50,145L52,142L53,139L54,136L56,133L57,131L59,128L61,126L62,124L64,122L66,121L67,120L69,119L71,118L73,117L74,117L76,116L78,115L81,114L83,114L84,114L86,113L88,113L89,113L91,113L93,113L94,113L96,113L98,113L100,113L102,113L104,113L106,113L108,113L110,113L112,114L114,114L116,115L118,115L119,116L121,117L123,117L124,118L126,119L128,120L130,121L133,122L135,124L138,126L141,127L145,129L148,130L151,132L154,134L157,136L159,137L162,139L164,141L167,143L170,145L173,147L177,148L179,150L182,152L185,154L189,156L192,158L195,160L199,163L204,167L210,170L218,177L231,188L241,196" stroke-opacity="1" stroke-width="2" stroke-linecap="round" stroke-linejoin="round" style="-webkit-tap-highlight-color: rgba(0, 0, 0, 0); stroke-opacity: 1; stroke-linecap: round; stroke-linejoin: round; -webkit-user-select: text;"></path><path fill="none" stroke="#000000" d="M167,95L171,99L173,100L176,102L179,105L182,107L184,109L186,111L188,113L190,114L192,116L194,118L197,120L200,122L203,124L207,126L211,128L214,130L217,132L220,134L223,135L226,137L229,139L231,141L234,143L236,145L238,147L241,149L243,151L245,153L248,155L250,156L253,158L255,160L257,162L259,165L260,167L262,169L263,171L265,173L266,176L267,178L268,180L269,183L271,186L272,188L273,191L274,194L275,196L276,198L276,201L277,204L278,207L278,210L279,212L279,214L280,216L280,218L280,221L280,223L280,225L280,227L280,230L280,233L279,236L278,238L277,242L276,244L276,247L275,249L274,251L273,254L271,256L270,259L269,261L268,264L266,266L265,269L264,271L263,273L262,276L261,278L259,281L258,283L256,286L255,288L253,291L251,293L249,295L248,298L246,300L243,303L241,306L239,309L237,311L235,313L233,316L231,319L228,322L222,327L208,341L197,348L186,359" stroke-opacity="1" stroke-width="2" stroke-linecap="round" stroke-linejoin="round" style="-webkit-tap-highlight-color: rgba(0, 0, 0, 0); stroke-opacity: 1; stroke-linecap: round; stroke-linejoin: round; -webkit-user-select: text;"></path><path fill="none" stroke="#000000" d="M288,307L283,314L280,316L276,320L272,324L268,327L264,331L261,335L257,338L254,342L250,345L247,348L243,352L238,356L235,359L232,362L230,365L227,367L225,370L222,373L219,375L216,378L213,380L210,382L208,384L204,385L201,388L198,390L195,392L192,395L189,396L186,398L182,399L179,400L176,401L172,402L169,402L165,403L162,403L158,404L155,404L152,405L148,405L145,406L141,406L137,406L133,406L130,406L127,406L125,406L122,406L120,405L117,404L115,403L112,402L109,400L107,399L105,398L102,396L100,394L97,392L95,390L92,388L90,386L87,384L85,382L82,380L79,378L76,376L73,373L69,371L66,368L63,366L60,363L57,360L54,356L50,352L46,348L41,344L37,340L33,337L29,332L26,328L23,323L20,319L18,313L15,308L14,304L12,300L11,295L11,284" stroke-opacity="1" stroke-width="2" stroke-linecap="round" stroke-linejoin="round" style="-webkit-tap-highlight-color: rgba(0, 0, 0, 0); stroke-opacity: 1; stroke-linecap: round; stroke-linejoin: round; -webkit-user-select: text;"></path><path fill="none" stroke="#000000" d="M38,367L28,356L28,353L26,350L25,346L25,341L24,337L23,333L23,329L23,325L22,320L22,315L21,310L21,306L21,302L21,298L21,293L21,288L21,284L21,279L21,274L21,270L21,265L21,260L21,255L21,251L21,247L21,242L21,236L22,230L22,226L23,221L24,216L25,212L26,207L27,202L28,197L28,193L29,188L30,183L32,178L33,173L34,169L35,165L36,160L36,156L37,151L38,147L39,142L40,138L41,133L43,128L45,123L46,119L47,115L49,111L51,107L53,100L57,89L63,69" stroke-opacity="1" stroke-width="2" stroke-linecap="round" stroke-linejoin="round" style="-webkit-tap-highlight-color: rgba(0, 0, 0, 0); stroke-opacity: 1; stroke-linecap: round; stroke-linejoin: round; -webkit-user-select: text;"></path><path fill="none" stroke="#000000" d="M23,142L23,136L25,131L27,126L31,120L34,115L38,110L42,104L46,98L50,94L53,90L57,87L60,84L64,82L69,80L74,79L80,78L86,78L92,78L98,78L103,78L109,78L115,78L120,79L126,80L132,82L136,84L142,87L147,89L151,92L155,94L159,96L163,99L166,101L169,104L173,106L176,108L179,110L181,112L184,115L187,117L190,120L192,122L195,124L198,127L200,129L203,131L207,133L210,135L212,138L215,140L217,143L219,146L221,148L223,151L225,155L226,158L228,162L229,166L230,170L231,174L232,179L232,183L232,189L232,194L232,199L232,205L232,211L232,219L231,228L226,240L219,257L213,268" stroke-opacity="1" stroke-width="2" stroke-linecap="round" stroke-linejoin="round" style="-webkit-tap-highlight-color: rgba(0, 0, 0, 0); stroke-opacity: 1; stroke-linecap: round; stroke-linejoin: round; -webkit-user-select: text;"></path><path fill="none" stroke="#000000" d="M214,90L221,94L223,94L225,96L227,98L230,100L233,103L236,106L240,109L244,112L247,115L251,118L254,120L257,123L260,126L263,129L266,132L269,135L272,138L275,141L277,144L280,147L282,150L285,153L286,157L288,160L289,163L291,167L292,170L294,174L295,178L296,181L297,185L297,189L298,192L298,196L299,200L299,204L299,209L299,213L299,217L299,221L299,226L298,231L297,235L295,240L293,244L291,249L289,253L286,257L284,260L281,264L278,268L276,271L273,275L270,278L267,282L264,286L261,289L257,293L254,296L251,299L247,302L244,305L241,308L237,310L233,313L230,315L227,318L224,321L218,325L213,329L204,334L191,345L180,353" stroke-opacity="1" stroke-width="2" stroke-linecap="round" stroke-linejoin="round" style="-webkit-tap-highlight-color: rgba(0, 0, 0, 0); stroke-opacity: 1; stroke-linecap: round; stroke-linejoin: round; -webkit-user-select: text;"></path><path fill="none" stroke="#000000" d="M294,317L294,320L293,323L290,326L287,330L284,334L279,338L276,341L272,344L268,347L264,351L261,355L256,359L251,363L245,367L240,371L236,373L231,376L227,379L222,383L216,386L210,389L204,392L198,396L192,400L186,403L181,406L175,409L169,412L163,415L158,419L154,421L149,423L144,426L138,427L133,429L129,430L126,431L123,432L119,432L115,432L110,432L106,432L102,432L98,430L94,427L91,425L87,423L84,420L80,417L76,413L73,410L70,407L67,404L65,401L62,397L60,392L58,388L56,383L54,378L53,373L52,367L51,361L50,354L50,344L50,328L60,301L68,281" stroke-opacity="1" stroke-width="2" stroke-linecap="round" stroke-linejoin="round" style="-webkit-tap-highlight-color: rgba(0, 0, 0, 0); stroke-opacity: 1; stroke-linecap: round; stroke-linejoin: round; -webkit-user-select: text;"></path><path fill="none" stroke="#000000" d="M33,350L32,344L32,340L32,335L32,331L34,326L36,321L39,315L42,309L45,302L47,297L50,292L53,286L56,280L59,274L62,268L66,263L71,257L75,252L80,247L84,242L88,237L92,233L96,228L101,224L106,220L110,217L115,214L119,211L122,209L126,206L129,203L133,201L137,199L140,197L144,196L148,195L152,194L155,194L159,194L163,194L167,194L171,194L176,194L181,194L185,194L188,194L191,195L194,197L196,198L199,200L201,202L204,204L207,207L209,209L211,212L213,214L215,217L216,219L218,221L219,224L220,227L221,230L222,233L223,237L223,241L224,245L224,248L224,253L224,258L224,264L224,271L221,280L216,291L208,306L198,322L189,336L178,352" stroke-opacity="1" stroke-width="2" stroke-linecap="round" stroke-linejoin="round" style="-webkit-tap-highlight-color: rgba(0, 0, 0, 0); stroke-opacity: 1; stroke-linecap: round; stroke-linejoin: round; -webkit-user-select: text;"></path><path fill="none" stroke="#000000" d="M260,265L258,270L258,272L258,275L258,280L257,284L255,289L254,294L252,298L250,303L248,307L246,312L243,318L239,323L236,329L233,333L230,338L227,344L224,348L221,353L217,358L213,363L210,366L206,369L202,371L199,374L195,376L191,378L187,379L183,380L178,381L173,382L169,382L165,382L162,382L159,382L156,381L153,379L150,376L147,374L144,372L140,369L137,366L134,363L131,360L129,357L127,354L125,351L123,348L122,345L120,341L118,338L116,334L115,331L113,327L110,324L108,320L107,316L105,312L103,308L101,303L99,298L96,292L94,287L93,282L91,277L89,273L87,268L85,263L83,257L80,251L78,245L75,238L73,233L70,227L67,220L65,213L62,202L62,180L62,151" stroke-opacity="1" stroke-width="2" stroke-linecap="round" stroke-linejoin="round" style="-webkit-tap-highlight-color: rgba(0, 0, 0, 0); stroke-opacity: 1; stroke-linecap: round; stroke-linejoin: round; -webkit-user-select: text;"></path><path fill="none" stroke="#000000" d="M78,315L72,303L71,299L68,295L65,290L62,286L60,281L57,276L54,269L51,263L47,254L43,247L40,240L37,233L35,227L33,221L32,216L31,212L31,208L30,204L30,199L30,195L30,192L30,188L30,184L31,180L32,177L34,174L36,171L39,168L41,165L43,163L45,161L48,159L50,157L52,155L54,154L56,153L58,152L61,150L63,149L66,147L69,146L71,145L74,144L78,143L82,142L85,141L89,140L92,139L95,139L99,138L103,137L107,137L111,136L115,135L119,135L123,134L127,133L130,133L134,132L138,132L141,132L145,132L148,132L151,132L155,132L158,132L160,132L163,132L166,132L170,132L173,132L177,132L181,132L184,133L187,134L191,136L194,137L197,139L200,141L205,144L212,150L220,159L227,177L233,200L242,230" stroke-opacity="1" stroke-width="2" stroke-linecap="round" stroke-linejoin="round" style="-webkit-tap-highlight-color: rgba(0, 0, 0, 0); stroke-opacity: 1; stroke-linecap: round; stroke-linejoin: round; -webkit-user-select: text;"></path><path fill="none" stroke="#000000" d="M172,109L179,108L183,108L187,108L190,108L195,108L200,108L204,108L210,108L215,108L220,108L224,108L228,109L232,111L236,112L239,114L243,115L247,118L251,120L256,124L259,127L263,131L266,134L270,138L273,141L277,145L280,149L282,154L285,159L287,164L288,169L289,175L290,180L291,185L291,190L292,195L292,201L292,207L292,213L292,218L292,223L290,227L289,232L287,236L286,241L284,246L282,250L281,253L279,256L277,259L275,262L273,265L271,268L268,271L266,274L264,276L261,280L257,283L253,286L249,289L245,292L241,295L237,298L234,300L231,303L228,305L225,307L222,309L219,311L215,313L211,315L207,318L202,320L196,323L190,327L184,330L178,334L170,337L164,340L155,345L139,354L123,364" stroke-opacity="1" stroke-width="2" stroke-linecap="round" stroke-linejoin="round" style="-webkit-tap-highlight-color: rgba(0, 0, 0, 0); stroke-opacity: 1; stroke-linecap: round; stroke-linejoin: round; -webkit-user-select: text;"></path><path fill="none" stroke="#000000" d="M215,345L207,351L204,351L201,351L198,352L194,353L189,354L183,354L177,355L170,355L164,355L159,355L154,355L150,355L146,355L142,355L139,355L137,355L135,355L134,355L132,354L131,352L130,351L129,349L128,346L126,343L124,341L123,338L121,336L119,333L118,331L116,328L115,325L113,322L112,320L111,318L111,315L110,312L109,309L108,305L108,301L107,297L106,293L106,288L105,283L105,277L105,271L104,265L104,259L103,254L102,249L102,244L102,238L102,232L101,226L101,220L101,214L101,207L101,201L101,195L101,188L101,181L102,175L103,169L105,163L107,156L109,150L112,143L115,137L118,131L121,125L125,120L130,114L139,108L153,98L173,83L196,65" stroke-opacity="1" stroke-width="2" stroke-linecap="round" stroke-linejoin="round" style="-webkit-tap-highlight-color: rgba(0, 0, 0, 0); stroke-opacity: 1; stroke-linecap: round; stroke-linejoin: round; -webkit-user-select: text;"></path><path fill="none" stroke="#000000" d="M76,156L79,147L81,144L84,141L86,137L89,133L93,128L97,122L100,118L104,114L109,110L113,106L118,103L121,99L125,97L129,94L133,92L138,90L143,88L148,85L153,83L157,82L161,80L166,78L171,77L178,75L183,75L188,74L192,74L195,74L199,74L202,74L205,74L209,74L213,74L216,74L219,74L222,75L225,77L227,78L230,80L233,82L236,84L239,87L242,89L245,91L248,94L251,97L253,101L255,105L257,108L258,112L260,117L261,121L263,125L264,130L265,134L267,138L268,143L269,147L270,153L271,159L272,166L272,173L272,182L272,191L272,203L271,217L267,236L263,261L259,296L256,329L252,359" stroke-opacity="1" stroke-width="2" stroke-linecap="round" stroke-linejoin="round" style="-webkit-tap-highlight-color: rgba(0, 0, 0, 0); stroke-opacity: 1; stroke-linecap: round; stroke-linejoin: round; -webkit-user-select: text;"></path><path fill="none" stroke="#000000" d="M302,261L305,265L305,269L304,273L302,280L299,286L296,293L293,301L289,309L286,315L281,323L278,330L274,336L271,343L266,350L263,357L259,362L255,368L251,374L245,380L239,385L234,390L229,393L224,397L219,399L214,401L209,403L203,403L198,403L194,403L190,403L187,403L183,403L180,401L177,399L174,396L171,393L168,389L165,385L162,381L160,377L159,373L157,368L156,363L155,358L153,352L153,347L153,341L153,335L153,330L153,324L153,319L153,313L153,307L153,301L153,295L154,289L154,281L155,274L156,267L158,260L159,252L160,245L162,236L164,227L167,217L170,206L175,193L180,182L185,169L193,142L202,115L208,95" stroke-opacity="1" stroke-width="2" stroke-linecap="round" stroke-linejoin="round" style="-webkit-tap-highlight-color: rgba(0, 0, 0, 0); stroke-opacity: 1; stroke-linecap: round; stroke-linejoin: round; -webkit-user-select: text;"></path><path fill="none" stroke="#000000" d="M139,265L142,254L142,249L143,243L144,235L145,225L146,216L147,205L149,195L151,184L154,173L158,160L162,148L166,138L171,126L177,117L183,108L188,101L193,94L199,90L205,85L211,82L215,81L219,81L223,81L227,81L231,81L236,82L240,84L243,87L247,90L250,94L253,98L256,102L258,107L260,112L262,116L263,121L264,127L265,132L266,137L267,141L268,146L268,150L268,154L268,159L267,164L264,170L262,176L259,181L255,187L250,193L246,198L241,204L235,209L229,215L222,222L215,228L207,235L198,244L190,251L181,259L171,267L162,275L149,286L135,299L120,314L103,334L93,350L82,366" stroke-opacity="1" stroke-width="2" stroke-linecap="round" stroke-linejoin="round" style="-webkit-tap-highlight-color: rgba(0, 0, 0, 0); stroke-opacity: 1; stroke-linecap: round; stroke-linejoin: round; -webkit-user-select: text;"></path><path fill="none" stroke="#000000" d="M228,253L219,259L215,262L211,265L205,270L200,275L195,280L189,286L184,290L178,294L173,299L168,304L163,309L158,313L152,316L146,319L139,321L131,322L125,323L119,324L113,324L106,324L101,324L96,324L92,322L88,319L84,315L80,310L77,307L74,303L72,299L70,295L68,290L65,285L63,280L61,273L60,267L58,260L57,254L55,248L54,242L52,234L51,227L49,220L47,212L44,205L42,197L41,189L39,182L38,175L37,167L37,159L36,151L36,144L36,136L36,129L36,120L36,112L36,102L41,86L50,64" stroke-opacity="1" stroke-width="2" stroke-linecap="round" stroke-linejoin="round" style="-webkit-tap-highlight-color: rgba(0, 0, 0, 0); stroke-opacity: 1; stroke-linecap: round; stroke-linejoin: round; -webkit-user-select: text;"></path><path fill="none" stroke="#000000" d="M23,181L19,171L19,167L19,161L19,155L19,147L19,139L19,130L20,120L23,111L26,103L30,97L34,91L40,87L46,82L52,78L57,74L62,72L67,71L72,70L78,69L84,68L89,67L94,67L100,67L106,68L112,70L118,73L124,75L130,79L136,83L142,87L148,91L153,95L158,100L163,104L168,109L172,113L177,117L181,121L186,126L189,129L193,133L197,137L201,141L205,145L210,150L214,153L218,157L221,161L225,166L228,171L232,178L236,187L241,200L244,219L248,251L252,289L252,326" stroke-opacity="1" stroke-width="2" stroke-linecap="round" stroke-linejoin="round" style="-webkit-tap-highlight-color: rgba(0, 0, 0, 0); stroke-opacity: 1; stroke-linecap: round; stroke-linejoin: round; -webkit-user-select: text;"></path><path fill="none" stroke="#000000" d="M294,201L296,207L296,212L296,217L296,224L296,230L296,237L294,245L292,251L289,257L285,265L280,272L275,280L270,288L264,295L258,302L251,309L244,316L236,322L229,328L222,333L213,339L205,343L198,346L191,348L184,349L178,349L171,349L166,349L162,348L158,345L154,341L149,337L144,333L139,328L135,323L131,319L128,313L125,308L123,303L121,298L119,293L118,289L117,284L116,278L115,273L114,268L113,262L111,255L109,249L108,242L106,234L104,226L102,218L101,209L100,201L98,193L98,185L97,177L97,169L97,160L97,149L97,137L98,118L105,96L112,75" stroke-opacity="1" stroke-width="2" stroke-linecap="round" stroke-linejoin="round" style="-webkit-tap-highlight-color: rgba(0, 0, 0, 0); stroke-opacity: 1; stroke-linecap: round; stroke-linejoin: round; -webkit-user-select: text;"></path><path fill="none" stroke="#000000" d="M61,229L58,224L58,221L58,215L58,208L58,199L58,191L59,183L62,175L64,167L67,159L71,153L74,147L79,141L84,136L87,133L91,129L95,125L99,122L103,118L107,115L112,113L116,111L120,109L123,108L127,107L130,105L134,105L138,104L143,103L147,103L151,103L155,103L159,103L162,103L166,103L169,103L173,104L177,106L180,108L184,110L186,113L189,115L192,118L195,121L197,124L199,127L202,130L204,133L207,137L209,140L211,144L213,148L214,152L216,157L217,162L218,168L220,174L220,180L221,186L221,193L222,201L222,210L222,219L222,231L222,244L221,261L219,285L216,309L212,333" stroke-opacity="1" stroke-width="2" stroke-linecap="round" stroke-linejoin="round" style="-webkit-tap-highlight-color: rgba(0, 0, 0, 0); stroke-opacity: 1; stroke-linecap: round; stroke-linejoin: round; -webkit-user-select: text;"></path><path fill="none" stroke="#000000" d="M97,105L106,90L110,88L114,85L119,83L124,81L130,80L136,79L142,79L149,79L155,79L162,79L170,79L178,79L186,79L194,80L202,82L211,84L219,88L226,91L235,94L244,98L251,102L257,105L263,110L268,114L273,119L277,124L281,130L284,136L287,143L290,151L292,158L293,167L294,175L295,184L295,193L295,202L295,211L295,220L293,229L291,238L287,248L284,256L280,264L275,271L271,277L264,284L259,289L252,294L246,298L240,302L234,304L228,307L223,309L218,310L213,311L209,311L204,311L201,311L197,310L194,308L191,305L187,303L184,300L180,298L177,295L173,292L169,289L165,285L162,282L159,278L157,274L154,270L151,266L149,261L147,257L145,252L143,247L142,242L141,236L140,230L140,224L140,218L140,210L140,202L140,194L140,186L140,177L142,167L145,157L150,144L157,127L167,107L182,81L197,57L213,36" stroke-opacity="1" stroke-width="2" stroke-linecap="round" stroke-linejoin="round" style="-webkit-tap-highlight-color: rgba(0, 0, 0, 0); stroke-opacity: 1; stroke-linecap: round; stroke-linejoin: round; -webkit-user-select: text;"></path></svg>