<svg height="874" version="1.1" width="768" xmlns="http://www.w3.org/2000/svg" xmlns:xlink="http://www.w3.org/1999/xlink" style="overflow: hidden; position: relative; -webkit-user-select: text;"><desc style="-webkit-tap-highlight-color: rgba(0, 0, 0, 0); -webkit-user-select: text;">Created with Raphaël 2.2.0</desc><defs style="-webkit-tap-highlight-color: rgba(0, 0, 0, 0); -webkit-user-select: text;"></defs><path fill="none" stroke="#000000" d="M18,13L18,17L18,20L18,22L18,26L18,29L18,33L18,37L18,41L18,45L18,49L18,54L18,58L18,63L18,67L18,71L18,75L18,78L18,82L18,85L18,88L18,92L18,95L18,98L18,102L18,105L19,109L19,112L19,115L19,118L20,121L20,124L20,127L20,131L20,134L20,138L21,141L21,145L21,148L21,151L22,155L22,158L22,161L22,164L22,168L23,171L23,174L23,178L23,182L23,185L24,189L24,192L25,196L25,200L26,204L27,207L28,211L29,215L31,218L32,221L34,225L36,228L38,231L41,234L43,237L46,240L50,243L52,245L56,248L59,251L63,255L66,258L68,262L70,266L72,270L74,274L76,278L77,282L79,287L80,291L81,296L82,301L83,307L84,312L84,318L85,324L86,330L86,337L86,343L87,349L87,355L87,361L87,367L87,373L87,379L87,385L87,391L87,396L87,401L87,406L87,412L87,417L87,422L87,427L87,432L87,437L87,442L87,447L87,451L86,456L86,460L86,465L85,469L85,473L84,477L84,481L84,486L84,489L83,493L83,497L82,500L82,504L81,507L81,511L81,514L81,517L80,520L79,523L79,526L78,529L78,531L77,534L76,537L76,539L75,541L74,544L73,546L72,548L71,550L70,552L69,554L68,556L67,558L66,561L65,563L63,565L62,568L61,570L60,573L59,576L58,579L57,582L57,585L57,589L56,593L56,597L56,602L56,606L56,611L56,615L56,619L56,624L56,628L56,631L56,635L56,639L56,643L56,646L56,650L56,653L57,656L57,660L57,663L58,666L59,669L59,672L60,675L61,678L62,680L62,683L63,686L64,689L65,692L66,695L67,698L67,701L69,704L69,707L70,709L71,712L72,714L73,716L74,719L74,721L75,723L75,725L76,727L77,729L78,732L79,734L79,736L80,738L81,741L82,743L82,746L83,748L84,750L85,752L86,755L87,757L87,759L88,761L89,764L90,766L91,768L91,770L92,772L93,774L93,776L94,778L95,780L96,782L96,784L97,785L97,787L98,789L99,792L99,794L100,795L101,797L101,799L102,801L102,802L103,804L103,806L104,808L104,810L105,812L105,814L106,816L106,817L107,819L107,821L108,823L108,824L108,826L109,827L109,829L109,831L110,832L110,833L110,835L110,836L111,838L111,839L112,841L112,842L112,844L113,845L113,847L113,848L113,850L114,852L114,853L115,854L115,855L115,857L115,858L115,859L116,860L117,861L117,862L117,863L117,864L118,864L118,865L118,866L118,867L119,867L119,868L119,869L120,869L120,870L122,870" stroke-opacity="1" stroke-width="5" stroke-linecap="round" stroke-linejoin="round" style="-webkit-tap-highlight-color: rgba(0, 0, 0, 0); stroke-opacity: 1; stroke-linecap: round; stroke-linejoin: round; -webkit-user-select: text;"></path><path fill="none" stroke="#000000" d="M43,11L44,14L44,16L44,18L44,21L44,25L44,29L44,33L44,38L44,42L44,47L44,53L44,58L44,63L44,68L44,74L44,80L45,86L45,92L46,98L46,104L47,109L47,116L48,121L49,126L49,132L50,138L50,143L51,148L52,152L53,157L54,162L54,166L56,171L57,175L58,179L60,182L61,185L63,189L64,192L65,195L67,198L67,201L69,205L70,208L71,212L72,215L74,219L75,223L76,226L77,230L77,235L78,239L79,243L79,247L80,251L81,255L81,259L82,263L82,267L83,271L83,275L84,279L84,283L84,286L84,290L84,294L84,298L84,302L84,306L84,310L84,314L84,318L84,323L84,327L84,332L84,336L84,341L84,346L84,350L84,355L84,359L84,364L84,369L84,373L84,377L84,381L84,386L84,390L84,394L84,399L84,403L84,408L84,412L84,416L84,420L84,425L84,430L84,434L84,439L84,443L84,448L84,452L84,457L84,461L84,465L84,469L84,473L84,477L84,481L84,485L84,489L84,493L84,496L84,500L84,504L84,507L84,511L84,514L84,517L84,520L84,524L83,527L82,529L82,532L81,535L79,538L78,541L76,544L74,547L72,550L70,553L67,556L65,559L63,562L60,565L58,568L56,571L54,573L52,577L50,580L47,583L45,586L43,590L42,593L40,597L39,601L37,605L36,610L35,614L35,618L35,623L35,628L34,633L34,638L34,643L34,648L34,653L34,658L34,663L34,667L34,672L34,677L35,682L35,687L36,692L37,697L38,702L39,706L40,711L41,715L42,720L43,724L44,728L45,733L46,737L47,741L48,745L49,748L50,753L51,756L52,760L52,764L54,768L54,771L55,775L56,779L57,782L58,785L59,789L59,792L60,795L62,798L62,802L63,804L64,807L65,810L66,813L67,815L67,818L68,821L69,823L69,825L70,827L70,829L71,831L71,833L72,835L73,837L74,839L74,841L75,843L76,845L76,848L77,850L78,853L79,855L80,857L81,859L82,860L83,862L84,863L84,864L85,865L86,865L86,866L87,867L88,867L88,868L89,868L89,869L90,869L91,870L92,870" stroke-opacity="1" stroke-width="5" stroke-linecap="round" stroke-linejoin="round" style="-webkit-tap-highlight-color: rgba(0, 0, 0, 0); stroke-opacity: 1; stroke-linecap: round; stroke-linejoin: round; -webkit-user-select: text;"></path><path fill="none" stroke="#000000" d="M73,10L74,13L74,16L74,20L74,25L74,32L75,38L76,45L77,53L79,60L81,68L82,75L84,83L85,91L86,99L88,107L90,115L92,123L93,131L95,138L96,146L97,154L98,162L100,169L101,176L102,182L103,189L105,196L106,202L107,208L108,215L110,221L110,227L112,233L113,238L113,243L114,248L115,253L115,257L116,262L116,266L117,270L117,274L117,278L117,282L117,286L117,289L115,293L113,296L111,299L109,302L105,306L102,309L98,313L94,316L90,320L86,323L83,328L80,331L78,335L76,339L74,343L73,348L72,352L71,357L70,362L69,366L69,370L68,375L67,379L67,384L66,388L66,393L65,398L65,402L65,407L64,411L64,415L64,420L64,424L64,427L64,431L64,435L64,439L64,442L64,446L64,450L64,454L64,457L64,461L64,465L64,469L64,472L64,476L64,479L64,482L64,486L64,489L64,493L64,496L64,500L64,503L64,507L64,511L64,515L65,518L65,522L66,526L66,529L67,533L68,537L69,541L70,544L72,548L74,552L77,556L79,560L82,563L85,566L87,570L89,574L90,578L91,582L92,586L93,590L93,595L94,599L94,603L95,607L95,610L96,614L96,617L96,621L96,624L97,628L97,631L97,635L98,639L98,642L98,646L98,649L99,653L99,657L100,661L100,665L101,669L101,673L102,678L103,681L103,685L104,689L105,693L105,697L105,700L106,704L107,707L108,711L108,714L109,717L109,720L110,724L110,726L111,730L111,733L112,736L113,740L113,743L113,746L114,750L115,753L115,757L116,760L116,763L117,767L117,770L118,774L118,777L119,781L119,784L120,788L120,792L121,795L122,799L122,802L123,806L124,809L125,813L125,817L127,821L127,824L129,828L130,831L131,835L132,838L133,842L134,845L135,849L136,853L137,856L138,859L139,862L141,864L142,866L144,867L145,869L147,870L148,870" stroke-opacity="1" stroke-width="5" stroke-linecap="round" stroke-linejoin="round" style="-webkit-tap-highlight-color: rgba(0, 0, 0, 0); stroke-opacity: 1; stroke-linecap: round; stroke-linejoin: round; -webkit-user-select: text;"></path><path fill="none" stroke="#000000" d="M112,12L114,14L114,17L114,22L114,28L115,35L115,42L116,48L117,55L118,62L119,70L120,78L122,86L123,94L125,103L127,112L128,120L130,129L132,137L134,145L135,154L137,162L138,171L139,179L140,187L142,196L143,204L144,211L146,219L147,227L148,233L149,240L150,248L150,255L151,262L151,268L152,274L152,281L152,286L152,291L152,296L151,301L150,305L149,309L147,313L145,316L142,319L140,322L137,324L134,326L131,328L128,330L125,332L122,334L119,335L117,337L115,340L114,342L113,345L112,349L110,352L110,357L108,362L108,366L107,371L106,376L105,380L105,385L105,390L105,394L105,399L105,404L105,410L104,415L104,421L104,426L104,432L104,437L104,442L104,448L104,453L104,459L104,464L104,469L105,474L105,479L105,483L106,488L106,492L107,496L107,500L108,505L108,508L108,512L109,515L110,519L110,522L111,525L113,528L114,530L116,533L118,535L120,537L122,539L124,542L126,545L128,548L129,552L131,556L132,561L133,565L135,570L136,575L137,579L137,583L138,588L139,593L139,597L140,602L141,607L141,612L142,618L142,623L142,628L143,634L143,639L144,644L144,650L144,655L145,660L145,665L146,671L146,676L147,681L147,686L148,691L148,696L149,700L149,704L149,709L150,713L150,718L151,722L151,726L152,731L152,735L152,739L153,743L154,747L154,751L154,755L155,758L155,762L156,766L156,770L157,773L157,777L158,780L158,784L159,787L159,790L159,794L160,797L160,800L161,803L161,806L161,810L162,814L162,817L162,820L163,823L163,826L164,829L164,832L164,836L164,839L165,843L165,846L166,850L166,855L167,858L168,861L169,864L169,867" stroke-opacity="1" stroke-width="5" stroke-linecap="round" stroke-linejoin="round" style="-webkit-tap-highlight-color: rgba(0, 0, 0, 0); stroke-opacity: 1; stroke-linecap: round; stroke-linejoin: round; -webkit-user-select: text;"></path><path fill="none" stroke="#000000" d="M156,24L157,27L157,32L158,39L159,47L161,56L161,65L163,74L164,82L166,92L167,102L169,112L170,124L171,135L171,148L173,157L174,168L175,177L176,187L178,196L178,204L179,213L181,221L181,229L182,236L183,243L184,251L185,258L186,265L186,273L186,280L186,287L186,294L186,301L184,306L182,312L180,317L176,322L173,326L169,330L164,334L159,338L153,341L147,345L141,349L135,353L128,357L123,362L119,365L115,369L112,374L109,379L106,383L104,389L102,395L101,401L100,408L99,415L99,422L99,430L99,437L99,443L99,450L99,456L99,462L99,467L99,473L99,478L99,484L99,489L99,494L99,498L100,503L101,507L101,511L102,515L102,519L103,522L104,526L105,529L106,533L108,537L110,540L113,544L116,546L120,549L124,553L128,555L131,558L134,560L137,563L139,567L142,571L144,574L146,579L148,583L150,588L152,592L154,597L156,600L158,605L159,610L160,614L161,618L163,623L164,627L165,631L166,636L166,641L167,646L168,651L169,656L169,661L170,666L170,672L171,678L171,683L171,688L172,694L172,699L173,704L173,709L173,714L173,719L174,724L174,729L174,734L174,739L174,744L174,748L175,753L175,758L175,762L176,767L176,771L176,775L177,780L177,783L177,787L178,791L178,795L178,799L179,802L179,806L180,810L180,814L181,818L181,821L181,825L182,828L182,831L183,835L183,838L183,841L184,845L184,848L185,851L185,854L186,857L186,859L187,861L187,862L188,864L188,865L188,866L189,867L190,868L191,869L191,870" stroke-opacity="1" stroke-width="5" stroke-linecap="round" stroke-linejoin="round" style="-webkit-tap-highlight-color: rgba(0, 0, 0, 0); stroke-opacity: 1; stroke-linecap: round; stroke-linejoin: round; -webkit-user-select: text;"></path><path fill="none" stroke="#000000" d="M191,15L192,17L192,21L192,26L192,33L192,40L192,47L192,54L193,62L193,70L194,79L195,87L196,96L197,104L198,113L198,122L199,130L200,139L200,147L200,156L201,164L202,172L203,180L203,189L203,196L204,205L204,212L204,219L205,227L205,234L205,240L205,247L206,253L206,258L207,263L207,269L208,274L208,278L209,282L210,286L210,290L211,293L212,296L213,299L214,302L215,304L217,307L218,310L219,313L221,315L222,318L223,321L225,324L225,327L226,330L227,333L227,336L228,340L228,343L228,346L228,349L228,353L228,357L228,361L228,365L227,369L226,372L226,376L225,379L224,382L223,386L222,389L221,392L220,395L218,398L217,400L216,402L215,404L214,405L212,407L212,408L210,410L209,410L208,412L206,413L205,413L203,414L202,415L200,415L198,416L195,417L193,417L191,418L189,418L186,419L184,420L181,421L179,422L176,423L174,425L172,426L169,427L168,429L166,431L164,433L162,435L160,437L159,439L157,442L156,444L154,447L154,450L152,453L152,456L151,459L151,462L150,465L150,468L149,470L149,473L149,475L149,478L149,480L149,483L149,485L149,487L149,489L149,491L149,493L149,495L149,498L149,499L149,501L149,503L149,505L149,506L149,508L149,510L149,512L149,514L149,516L149,518L149,520L149,523L150,525L151,528L152,531L154,533L157,536L159,538L161,540L163,542L165,544L166,546L168,548L170,551L171,554L172,556L174,560L176,564L177,568L178,573L179,578L180,583L180,588L181,593L181,598L181,603L182,608L182,613L183,617L183,622L183,627L184,631L184,635L184,639L184,643L185,648L185,652L185,656L185,661L185,665L185,670L185,674L185,678L185,683L185,687L186,692L186,696L186,700L186,704L186,708L186,712L187,716L187,721L187,725L187,730L188,734L188,738L188,743L189,748L189,752L189,756L190,760L190,765L190,769L191,773L191,777L191,782L191,786L192,791L192,796L193,801L193,806L193,811L194,815L194,820L194,824L195,828L195,833L195,837L196,841L196,845L196,850L196,854L197,857L197,860L198,863L198,865L198,867L199,869L199,870" stroke-opacity="1" stroke-width="5" stroke-linecap="round" stroke-linejoin="round" style="-webkit-tap-highlight-color: rgba(0, 0, 0, 0); stroke-opacity: 1; stroke-linecap: round; stroke-linejoin: round; -webkit-user-select: text;"></path><path fill="none" stroke="#000000" d="M234,4L234,6L234,10L234,15L235,22L236,30L237,38L239,46L240,54L242,63L243,72L244,82L244,92L244,102L245,111L245,120L246,129L246,139L247,148L247,157L247,165L247,173L247,180L247,187L247,193L247,199L247,205L247,211L247,216L246,222L246,227L244,231L243,236L242,240L241,245L239,250L237,255L234,260L232,264L230,268L227,272L225,277L222,281L218,285L214,289L210,293L205,297L201,300L197,304L192,308L187,313L182,317L178,321L175,326L171,330L169,335L166,340L164,346L163,352L161,357L160,363L159,369L158,375L157,381L156,388L155,393L154,400L153,405L152,411L152,416L151,422L151,427L150,433L150,438L149,443L149,448L149,453L149,457L148,461L148,465L148,469L148,473L147,476L147,480L147,483L147,487L147,491L147,495L147,498L147,502L147,505L147,509L147,513L147,516L147,520L148,523L148,527L149,530L151,533L153,536L155,539L157,542L159,545L162,548L164,550L167,553L170,556L173,558L175,562L178,565L180,570L182,574L184,578L186,582L187,587L188,591L190,596L191,600L192,604L192,608L193,612L193,617L194,621L194,625L195,629L195,633L195,636L196,641L196,644L196,648L197,652L197,656L198,659L198,663L198,667L199,671L199,675L200,679L200,683L200,687L200,690L201,695L201,699L202,703L202,707L203,712L203,716L204,721L205,726L205,730L206,735L207,740L208,744L208,749L209,754L210,758L210,763L211,768L211,772L212,777L212,782L213,787L213,792L214,797L215,801L215,806L215,811L216,815L216,819L217,823L217,827L218,831L219,835L219,839L220,843L221,847L222,852L222,856L224,860L225,863L227,867L229,869L231,870" stroke-opacity="1" stroke-width="5" stroke-linecap="round" stroke-linejoin="round" style="-webkit-tap-highlight-color: rgba(0, 0, 0, 0); stroke-opacity: 1; stroke-linecap: round; stroke-linejoin: round; -webkit-user-select: text;"></path><path fill="none" stroke="#000000" d="M273,15L271,13L271,16L271,21L271,27L271,34L273,42L274,50L275,59L276,69L277,78L279,88L280,98L281,107L283,118L283,128L285,138L285,148L286,159L287,168L288,178L288,187L289,196L289,203L290,212L290,220L290,228L290,236L290,245L290,252L290,259L290,266L288,273L286,280L284,285L281,291L278,297L275,302L271,307L267,311L263,315L259,319L254,322L250,325L245,328L240,331L235,334L230,337L225,339L220,341L215,343L210,345L206,348L202,351L198,354L195,357L192,361L189,365L188,369L186,373L185,378L183,383L183,388L182,393L182,399L182,404L182,410L182,415L182,420L182,425L182,430L182,435L182,439L182,444L182,448L182,452L182,456L182,460L183,464L183,467L183,471L183,474L183,477L184,481L184,484L184,487L185,490L185,493L186,496L186,500L187,503L188,506L188,509L189,511L191,513L192,516L194,518L197,520L199,522L202,524L204,526L206,528L208,530L210,533L211,536L212,539L214,543L215,547L216,551L217,555L217,559L218,563L219,567L219,571L220,576L220,580L220,585L220,589L221,593L221,598L221,602L222,607L222,611L222,616L223,621L223,626L224,630L224,635L224,640L225,644L225,649L225,653L225,658L226,663L226,668L226,673L227,678L227,682L227,687L227,692L228,697L228,702L228,707L229,713L229,718L229,724L230,729L230,735L231,741L231,746L231,751L232,757L232,763L232,768L233,774L233,779L233,785L234,790L234,796L234,801L235,806L235,812L236,817L237,823L237,828L237,833L238,839L239,845L239,851L240,855L240,860L241,863L242,867L243,869L244,870" stroke-opacity="1" stroke-width="5" stroke-linecap="round" stroke-linejoin="round" style="-webkit-tap-highlight-color: rgba(0, 0, 0, 0); stroke-opacity: 1; stroke-linecap: round; stroke-linejoin: round; -webkit-user-select: text;"></path><path fill="none" stroke="#000000" d="M294,19L295,24L295,29L295,36L295,44L297,53L299,62L302,72L304,81L306,91L307,103L309,113L310,126L311,138L312,150L314,162L315,174L317,187L317,199L318,211L319,221L319,231L319,242L319,252L319,261L319,270L319,279L319,286L319,293L317,301L314,308L311,313L307,319L302,324L297,328L291,332L283,335L276,339L267,342L259,344L250,346L244,348L237,350L230,352L225,354L220,357L215,360L211,363L208,367L206,370L204,375L202,380L201,386L200,391L200,396L200,402L200,408L200,415L200,420L200,425L200,432L200,438L200,444L200,451L200,457L200,464L200,470L200,477L201,483L202,489L203,495L203,500L204,505L204,510L205,515L205,520L206,524L207,528L208,532L209,535L211,538L213,541L215,544L219,546L222,549L225,551L228,554L231,556L234,560L236,564L237,568L239,573L240,578L242,584L243,590L244,596L244,602L245,608L245,614L246,620L246,627L246,633L246,639L247,646L247,653L247,660L247,667L247,674L248,680L248,687L248,694L248,700L248,707L249,714L249,721L249,728L250,735L250,742L251,749L251,755L251,762L252,768L252,775L253,781L253,786L254,792L254,797L254,802L255,807L255,812L256,816L256,821L257,825L257,829L258,833L258,838L259,842L259,846L259,850L260,855L260,859L261,862L261,865L261,867L262,869L263,870" stroke-opacity="1" stroke-width="5" stroke-linecap="round" stroke-linejoin="round" style="-webkit-tap-highlight-color: rgba(0, 0, 0, 0); stroke-opacity: 1; stroke-linecap: round; stroke-linejoin: round; -webkit-user-select: text;"></path><path fill="none" stroke="#000000" d="M335,22L331,25L331,31L331,39L331,48L332,57L333,65L335,75L337,85L339,96L340,106L341,119L342,130L344,142L345,154L346,167L348,179L349,191L350,204L350,216L351,228L351,239L351,250L351,261L351,274L351,283L349,293L346,302L344,310L341,318L338,325L334,331L331,337L327,342L322,347L319,351L313,355L308,359L302,362L296,366L290,368L284,370L278,372L272,374L266,375L261,376L256,377L251,378L247,380L243,381L240,383L237,385L235,388L234,391L232,393L230,397L229,401L228,407L227,411L226,417L226,422L225,427L225,433L225,439L225,444L225,451L225,457L225,463L225,469L225,475L225,481L225,486L225,492L225,497L226,502L226,507L227,512L228,517L229,522L231,526L233,531L235,536L237,540L239,544L243,548L246,551L249,554L251,556L254,558L257,561L259,563L261,566L262,570L263,573L264,578L265,583L266,588L266,592L267,597L268,602L268,607L268,611L268,616L268,622L268,627L268,633L268,639L268,645L268,651L268,656L268,663L268,668L268,674L268,680L268,687L268,693L268,698L268,704L268,711L268,717L268,723L268,729L268,735L269,741L269,746L269,752L270,758L270,763L270,769L271,774L271,780L271,785L272,790L272,795L273,799L273,804L273,809L274,814L274,819L275,823L275,828L276,832L276,837L277,841L277,845L278,850L278,854L278,857L279,860L279,863L280,865L280,867L280,868L281,870" stroke-opacity="1" stroke-width="5" stroke-linecap="round" stroke-linejoin="round" style="-webkit-tap-highlight-color: rgba(0, 0, 0, 0); stroke-opacity: 1; stroke-linecap: round; stroke-linejoin: round; -webkit-user-select: text;"></path><path fill="none" stroke="#000000" d="M351,32L352,37L352,42L353,48L354,57L355,66L356,76L356,85L358,97L358,107L360,117L361,130L362,139L363,152L364,164L365,175L365,186L366,198L366,208L366,220L366,230L366,241L366,251L366,261L366,270L366,279L366,288L366,296L366,303L365,311L364,318L363,325L362,332L361,338L360,345L358,349L356,354L354,358L351,361L349,364L345,366L341,368L338,369L334,371L329,371L325,372L322,372L318,373L314,373L310,373L306,373L302,373L299,373L296,374L293,374L290,374L286,374L283,375L279,375L276,376L273,377L270,378L268,379L265,381L262,382L260,383L258,386L255,388L253,390L251,392L248,395L246,398L244,401L242,403L241,406L239,410L237,413L236,416L234,419L233,422L232,426L230,431L229,435L227,440L227,445L226,449L225,454L225,459L224,464L224,468L224,473L224,477L224,481L224,486L224,490L224,494L224,499L224,503L224,507L225,512L225,517L226,522L228,527L230,532L232,536L235,540L239,545L243,549L248,552L252,554L256,556L260,557L263,558L265,558L266,558L267,559L268,560L268,561L269,563L270,565L271,568L272,571L273,574L274,578L276,581L276,585L277,589L278,593L279,597L280,601L280,605L282,609L283,614L283,618L284,623L285,627L285,631L285,635L286,639L286,644L287,648L287,652L288,657L288,661L288,666L288,670L289,675L289,680L289,684L289,689L290,693L290,698L290,702L291,707L291,712L291,716L292,721L292,725L293,730L293,734L293,738L293,743L294,747L294,752L295,756L295,760L295,765L296,770L297,774L298,779L298,783L299,788L300,792L300,797L301,801L301,806L302,810L303,814L304,818L304,822L305,826L305,831L306,834L307,838L307,843L308,847L308,851L309,855L310,858L310,861L311,863L311,865L312,866L312,867L313,869L313,870L314,870" stroke-opacity="1" stroke-width="5" stroke-linecap="round" stroke-linejoin="round" style="-webkit-tap-highlight-color: rgba(0, 0, 0, 0); stroke-opacity: 1; stroke-linecap: round; stroke-linejoin: round; -webkit-user-select: text;"></path><path fill="none" stroke="#000000" d="M385,22L387,26L387,30L387,35L387,42L387,49L387,57L387,65L388,73L388,81L389,90L390,99L390,108L391,117L392,126L392,133L392,143L392,152L392,160L392,170L392,178L392,187L392,194L392,204L392,211L392,219L392,227L391,235L391,243L391,251L391,259L391,266L391,274L391,281L391,287L391,293L391,299L391,305L391,311L391,316L391,322L391,327L390,332L390,338L390,343L390,348L390,353L389,358L389,363L388,367L387,371L386,376L385,379L383,383L382,386L380,389L377,392L375,396L372,399L368,402L365,406L362,410L358,414L356,418L353,422L351,427L349,432L348,436L347,441L346,446L346,451L346,455L345,460L345,464L345,469L345,473L345,478L345,483L345,487L346,492L346,496L347,501L348,506L349,511L351,516L352,522L353,527L354,532L355,538L356,543L357,548L358,553L358,558L359,564L360,569L360,574L361,579L361,583L361,588L361,593L361,597L361,602L361,607L361,612L361,617L361,622L360,627L360,633L359,639L359,644L359,650L359,656L359,661L359,666L359,672L359,677L359,682L359,687L359,693L359,699L359,704L359,709L359,714L359,720L359,725L359,730L359,735L359,740L359,745L359,750L359,755L359,759L360,763L360,768L360,772L360,776L361,780L361,783L361,787L361,791L361,794L361,798L361,802L362,805L362,808L362,811L362,815L362,819L363,822L363,825L363,828L363,832L363,836L363,839L363,843L363,847L363,851L364,855L364,858L364,860L365,863L365,865L365,867L365,868L365,869L365,870L366,870" stroke-opacity="1" stroke-width="5" stroke-linecap="round" stroke-linejoin="round" style="-webkit-tap-highlight-color: rgba(0, 0, 0, 0); stroke-opacity: 1; stroke-linecap: round; stroke-linejoin: round; -webkit-user-select: text;"></path><path fill="none" stroke="#000000" d="M372,19L375,23L375,26L375,33L375,41L375,50L376,59L376,68L376,77L377,85L378,94L379,104L379,114L380,125L380,135L380,146L381,157L382,167L382,178L383,188L383,199L384,209L384,220L384,230L384,240L384,250L384,259L384,266L384,274L384,282L384,290L384,297L384,306L383,313L380,320L378,328L377,333L375,339L372,344L369,349L366,354L362,358L358,362L353,364L349,367L344,369L338,370L331,371L325,372L319,373L313,373L309,374L305,376L301,379L298,382L297,386L295,391L293,398L292,404L291,413L290,419L289,427L288,435L287,442L286,449L286,457L286,464L286,471L286,478L286,485L286,492L286,498L286,504L286,510L287,515L288,521L289,526L290,531L291,536L293,541L295,545L298,549L301,553L305,556L309,559L313,562L317,565L321,567L325,570L328,572L331,573L333,575L335,577L337,578L339,580L341,583L343,585L345,588L346,592L348,595L349,599L351,603L352,607L353,612L355,616L355,622L356,627L356,631L357,636L357,641L357,647L357,651L357,656L357,661L357,666L358,671L358,675L358,680L358,684L358,688L358,692L358,695L359,699L359,703L359,707L359,710L359,714L359,718L359,721L359,725L359,729L360,732L360,735L360,738L360,742L360,746L360,749L360,753L360,756L360,760L360,763L360,767L360,770L361,774L361,777L361,782L361,785L361,789L361,793L361,797L361,800L361,804L361,808L361,811L361,815L362,819L362,822L362,826L362,829L362,832L362,835L363,838L363,842L363,845L363,849L363,853L363,856L363,859L364,861L364,864L365,865L365,867L365,868L366,869L366,870" stroke-opacity="1" stroke-width="5" stroke-linecap="round" stroke-linejoin="round" style="-webkit-tap-highlight-color: rgba(0, 0, 0, 0); stroke-opacity: 1; stroke-linecap: round; stroke-linejoin: round; -webkit-user-select: text;"></path><path fill="none" stroke="#000000" d="M406,11L407,14L407,19L407,26L408,33L409,42L411,51L413,61L415,73L417,84L419,95L420,106L421,117L421,130L422,140L422,153L423,163L423,173L423,184L423,194L423,204L423,214L423,225L423,234L423,244L423,253L422,262L422,271L422,280L422,287L421,295L421,303L421,311L421,318L421,326L421,333L420,340L420,347L420,354L420,360L420,367L420,373L419,379L417,383L415,388L412,392L409,396L405,400L400,403L395,407L390,411L385,415L379,420L374,424L369,429L364,434L359,439L355,444L350,449L346,454L342,460L338,466L335,471L332,476L329,481L328,486L327,491L326,496L326,503L326,509L325,516L325,523L324,530L324,537L323,544L323,550L323,557L323,564L322,570L322,577L322,583L322,590L322,595L322,601L322,607L322,614L322,620L322,626L322,632L322,638L322,644L322,649L322,655L322,660L322,665L322,671L323,676L323,681L324,686L324,691L324,696L325,701L326,706L327,710L327,715L328,720L329,724L329,729L329,733L330,737L331,741L331,745L331,748L332,752L332,755L332,759L333,763L333,767L334,771L334,775L334,779L334,782L335,786L335,790L336,794L336,797L336,801L337,805L337,809L338,813L338,817L339,821L339,824L339,827L340,831L340,834L341,838L341,842L341,846L342,850L342,853L343,857L343,860L344,863L344,865L344,867L345,869L346,870" stroke-opacity="1" stroke-width="5" stroke-linecap="round" stroke-linejoin="round" style="-webkit-tap-highlight-color: rgba(0, 0, 0, 0); stroke-opacity: 1; stroke-linecap: round; stroke-linejoin: round; -webkit-user-select: text;"></path><path fill="none" stroke="#000000" d="M433,11L431,15L431,17L431,21L431,25L432,28L433,33L434,39L435,43L436,49L436,55L437,61L438,67L438,72L439,78L440,85L441,91L443,98L444,106L446,114L448,122L449,131L451,140L452,150L454,159L455,167L457,176L458,184L460,193L460,202L461,209L462,219L462,226L463,235L463,242L463,250L463,257L463,264L463,271L463,277L463,284L463,289L463,296L463,301L463,306L463,312L463,317L463,322L463,327L463,332L463,337L462,341L461,345L460,350L460,354L458,359L456,362L454,366L452,370L450,373L447,376L444,379L440,381L436,384L431,386L426,388L419,391L412,392L405,393L398,395L392,396L385,397L379,398L373,401L368,402L363,404L360,407L356,410L353,414L351,417L349,422L347,426L345,431L344,436L342,441L341,446L340,451L339,456L338,462L337,468L337,474L336,479L336,485L336,490L335,495L335,500L335,504L334,509L334,513L334,517L334,522L334,526L334,529L334,533L334,537L334,541L334,544L334,548L334,552L334,556L335,559L336,563L337,567L339,570L341,573L342,576L345,579L347,582L350,585L353,587L357,590L361,592L364,593L367,595L369,596L371,597L373,599L374,601L375,602L376,605L378,607L379,610L380,612L381,615L383,619L383,622L384,626L385,629L386,634L386,639L387,644L387,649L387,655L388,660L388,665L388,671L388,677L388,682L388,687L388,693L388,699L388,704L388,709L388,715L388,722L388,727L388,733L388,738L388,744L388,749L388,755L388,760L389,765L389,770L389,775L390,781L390,786L390,790L390,795L391,799L391,803L392,807L392,811L392,815L392,819L392,823L392,826L393,829L393,833L393,836L393,838L393,841L394,844L394,847L394,849L394,852L394,855L394,857L395,860L395,862L395,864L396,865L396,867L397,868" stroke-opacity="1" stroke-width="5" stroke-linecap="round" stroke-linejoin="round" style="-webkit-tap-highlight-color: rgba(0, 0, 0, 0); stroke-opacity: 1; stroke-linecap: round; stroke-linejoin: round; -webkit-user-select: text;"></path><path fill="none" stroke="#000000" d="M463,9L461,12L461,15L461,19L461,23L461,28L461,33L461,38L461,45L461,50L462,57L463,63L463,70L464,78L465,85L467,93L468,99L469,106L470,114L471,121L472,129L473,137L474,144L475,151L476,158L477,165L478,173L479,180L480,188L481,196L481,204L482,211L482,218L483,224L483,230L484,235L484,241L484,248L484,254L484,259L484,264L484,270L484,275L484,280L484,285L485,290L485,295L485,300L485,305L485,309L485,313L485,318L485,322L485,326L485,330L485,334L484,337L482,342L480,346L478,350L476,354L473,359L470,363L468,366L465,370L462,374L459,377L455,380L453,383L449,386L445,388L442,391L438,393L435,396L432,399L429,402L426,406L424,410L421,415L419,420L417,425L414,430L413,435L411,440L410,445L409,450L407,455L407,460L406,465L404,470L404,475L403,479L402,484L402,488L402,492L402,496L402,500L402,503L402,507L402,510L402,513L402,517L402,520L402,523L402,526L402,529L402,532L402,535L402,539L402,542L402,545L402,549L403,552L404,555L404,558L406,561L407,563L409,566L410,568L412,570L414,572L415,574L417,576L418,578L419,580L420,583L421,586L421,590L422,594L423,598L424,602L424,607L424,611L424,616L424,620L424,625L424,630L424,635L424,639L424,644L424,649L424,654L424,659L424,665L424,670L424,674L424,679L424,684L424,688L424,693L424,697L424,702L424,707L424,712L424,716L424,721L424,726L424,731L424,735L424,740L424,744L424,749L424,754L424,758L424,763L424,768L424,772L424,776L424,781L424,786L424,790L424,794L424,799L424,803L424,808L424,812L424,816L424,820L424,824L425,828L425,831L425,835L425,838L426,841L426,845L426,848L426,851L426,854L426,857L426,859L426,862L426,863L427,865L427,867L428,868L428,869L429,870L431,870" stroke-opacity="1" stroke-width="5" stroke-linecap="round" stroke-linejoin="round" style="-webkit-tap-highlight-color: rgba(0, 0, 0, 0); stroke-opacity: 1; stroke-linecap: round; stroke-linejoin: round; -webkit-user-select: text;"></path><path fill="none" stroke="#000000" d="M491,21L489,24L489,27L489,31L490,36L491,41L493,47L494,53L495,60L497,68L498,77L499,85L499,92L500,100L501,107L502,115L503,124L503,133L504,141L504,150L504,160L504,170L505,179L505,189L506,199L506,207L506,216L507,226L507,235L507,245L507,255L507,264L508,272L508,281L509,288L509,296L509,304L509,312L509,320L509,328L509,335L509,341L509,348L507,354L506,360L504,365L503,370L501,375L499,380L497,384L494,388L492,391L489,395L486,399L482,402L479,405L475,408L471,411L467,414L463,416L459,418L455,420L451,422L447,425L443,426L439,428L435,430L431,432L428,435L424,437L421,439L418,442L415,444L412,447L410,450L407,454L404,457L402,461L400,465L398,469L397,473L395,477L395,482L393,486L392,491L391,496L391,500L390,505L390,510L389,515L388,519L388,524L387,528L387,532L387,537L387,541L387,544L387,549L387,552L387,556L387,559L387,562L387,565L387,567L387,570L387,573L387,576L387,579L388,582L389,585L390,588L392,591L393,594L394,596L396,599L397,602L399,604L401,606L403,607L405,610L408,611L410,612L413,613L415,614L417,615L419,615L421,616L423,617L424,617L426,618L427,619L428,620L430,622L431,623L433,625L434,627L436,629L437,633L438,636L439,639L440,642L441,645L441,648L442,652L443,655L443,658L443,661L444,664L444,667L445,670L445,673L445,677L445,680L445,682L445,685L445,689L445,692L445,694L445,697L445,700L445,702L446,705L446,707L446,710L446,713L446,716L446,718L446,721L446,724L446,727L446,731L447,734L447,737L448,741L448,744L448,747L449,751L449,754L450,757L450,760L450,764L451,768L451,771L451,774L452,778L452,782L453,785L453,789L453,792L454,796L454,799L454,803L455,806L455,809L455,813L455,816L455,819L455,822L456,825L456,828L457,831L457,833L457,836L458,839L458,842L458,845L458,848L458,851L458,854L458,856L459,858L459,861L460,863L460,865L460,866L461,867L461,869L462,870L463,870L465,870" stroke-opacity="1" stroke-width="5" stroke-linecap="round" stroke-linejoin="round" style="-webkit-tap-highlight-color: rgba(0, 0, 0, 0); stroke-opacity: 1; stroke-linecap: round; stroke-linejoin: round; -webkit-user-select: text;"></path><path fill="none" stroke="#000000" d="M530,25L532,35L532,38L532,43L532,47L532,52L532,57L532,62L532,68L532,73L532,78L532,83L532,89L532,94L532,101L532,107L532,113L532,119L533,126L533,132L533,139L533,145L533,152L533,157L533,164L534,170L534,177L534,183L534,189L534,196L534,201L534,207L534,213L534,218L534,224L534,230L534,236L534,241L534,247L534,252L534,257L534,262L534,267L534,271L534,276L534,281L534,285L534,289L534,294L534,298L534,302L534,306L534,310L534,314L534,318L534,323L533,327L533,330L533,334L533,337L533,341L532,344L531,348L531,352L530,355L530,359L529,362L528,365L528,369L527,372L526,375L525,379L524,382L523,385L522,388L521,391L519,394L518,397L517,400L516,403L514,406L513,409L511,412L509,415L508,417L506,420L504,422L502,425L501,427L499,430L497,432L495,435L493,437L491,439L489,441L487,443L485,445L483,447L481,449L479,452L477,454L475,456L474,458L472,460L470,462L469,465L468,467L466,470L465,473L463,476L462,479L460,482L460,486L459,489L458,492L457,495L456,499L455,503L454,507L453,510L452,514L451,518L451,522L450,526L449,530L449,534L448,538L448,541L447,546L447,549L446,554L446,558L446,561L445,566L445,569L444,573L444,577L444,581L443,585L443,588L443,592L443,595L442,599L442,602L442,606L442,609L442,612L441,616L441,619L441,622L441,625L441,629L441,632L441,635L441,638L441,641L441,643L441,646L441,648L441,651L441,653L441,656L441,659L442,661L443,664L444,666L446,669L446,672L447,675L448,678L449,681L451,685L451,688L453,692L453,695L454,699L455,702L456,706L457,710L458,714L458,717L459,721L460,724L460,727L461,730L462,734L462,736L463,740L464,743L464,746L465,749L465,753L466,756L467,759L467,763L468,766L468,770L468,773L469,776L469,780L470,783L470,787L470,790L470,794L470,797L470,800L470,803L470,806L470,809L470,813L470,816L470,819L470,821L470,824L470,827L470,830L470,832L470,835L470,838L470,840L470,843L470,846L470,849L470,852L470,854L470,856L470,859L470,860L471,862L471,864L471,865L471,866L471,867L472,868L472,869" stroke-opacity="1" stroke-width="5" stroke-linecap="round" stroke-linejoin="round" style="-webkit-tap-highlight-color: rgba(0, 0, 0, 0); stroke-opacity: 1; stroke-linecap: round; stroke-linejoin: round; -webkit-user-select: text;"></path><path fill="none" stroke="#000000" d="M558,32L560,33L560,36L560,42L560,48L561,55L562,62L562,70L563,77L564,84L565,93L565,102L566,110L566,120L566,129L567,137L567,147L567,156L567,165L567,175L567,184L567,193L567,203L567,211L567,220L567,229L567,238L567,247L567,257L567,267L567,276L567,285L566,294L565,303L565,311L564,318L564,326L563,334L562,341L561,348L560,355L560,362L558,368L558,374L557,379L556,385L555,390L555,395L554,400L553,404L552,408L551,413L550,418L549,422L547,427L546,431L545,436L543,440L542,444L540,448L538,452L537,456L535,460L532,464L530,468L527,471L524,475L521,478L519,481L516,485L513,488L510,490L508,493L506,496L503,499L501,502L499,505L498,508L496,512L495,515L494,518L493,522L492,525L491,529L491,532L490,537L489,540L489,544L488,549L488,553L488,556L487,561L487,565L487,569L487,573L487,577L487,580L487,584L487,588L487,591L487,595L487,598L487,601L487,605L487,607L488,610L488,613L488,616L488,619L488,622L488,624L488,627L488,630L489,633L489,636L489,638L489,641L489,644L489,646L489,649L490,652L490,655L490,658L490,661L490,663L490,665L490,668L491,670L491,673L491,675L491,677L492,679L492,681L492,683L493,685L493,687L494,689L495,691L496,693L497,695L498,698L499,700L499,703L501,705L501,708L502,711L503,714L504,717L504,720L505,724L506,727L506,731L507,734L507,737L507,741L508,744L509,747L509,751L509,754L510,757L510,760L510,763L511,766L511,769L511,772L511,775L511,778L511,780L511,783L511,786L511,789L511,791L511,793L511,796L511,798L512,801L512,803L512,806L512,808L512,811L512,813L512,816L512,818L512,821L513,823L513,826L513,828L513,831L513,833L513,835L513,837L513,840L513,842L513,845L513,847L513,850L514,852L514,854L514,856L514,857L514,859L514,861L514,862L514,864L514,865L514,866L514,867L514,866" stroke-opacity="1" stroke-width="5" stroke-linecap="round" stroke-linejoin="round" style="-webkit-tap-highlight-color: rgba(0, 0, 0, 0); stroke-opacity: 1; stroke-linecap: round; stroke-linejoin: round; -webkit-user-select: text;"></path><path fill="none" stroke="#000000" d="M584,44L582,40L582,43L582,48L582,53L582,58L582,63L582,70L582,78L582,86L582,94L582,104L583,111L583,119L584,126L584,133L585,141L586,150L586,157L586,166L586,176L586,183L586,192L586,201L586,208L586,217L586,226L586,235L586,244L586,253L586,262L586,270L585,278L585,286L585,294L584,302L584,310L584,318L584,326L583,334L583,341L583,349L583,356L583,362L583,369L583,375L583,382L583,388L583,393L582,399L582,404L582,409L582,414L581,418L581,423L580,427L579,432L577,436L575,440L573,443L571,447L568,450L564,454L560,457L555,460L549,464L543,467L537,471L531,473L526,476L521,479L516,483L511,486L507,489L504,492L502,495L499,499L497,503L495,507L493,512L492,518L490,523L489,529L487,534L486,539L485,545L483,551L482,556L481,562L480,568L480,573L479,578L479,584L478,590L478,595L478,600L478,605L478,610L478,616L478,621L478,626L479,631L481,636L484,641L486,646L490,650L493,653L496,656L499,658L503,660L506,661L509,662L511,663L514,663L515,664L517,665L518,665L520,666L521,667L524,668L525,670L527,672L529,674L531,676L532,678L533,680L535,682L536,685L537,687L538,690L539,692L539,695L540,697L541,700L541,702L542,705L543,707L543,710L544,713L544,715L545,718L545,721L546,724L546,727L547,731L548,734L548,736L548,740L549,743L550,746L550,749L551,753L551,756L552,759L553,762L553,765L554,768L555,770L555,774L556,776L557,780L558,782L558,785L559,788L560,791L560,793L561,796L562,798L563,801L563,803L564,806L565,808L566,810L566,812L567,814L568,816L568,819L569,821L570,822L570,824L571,826L572,828L572,829L573,831L574,833L575,834L575,836L576,838L577,840L577,842L578,844L579,846L579,848L580,850L581,852L581,853L582,855L583,857L584,858L584,860L586,861L587,862L587,863L588,864L589,865L590,866L591,867L592,868L593,869L594,870" stroke-opacity="1" stroke-width="5" stroke-linecap="round" stroke-linejoin="round" style="-webkit-tap-highlight-color: rgba(0, 0, 0, 0); stroke-opacity: 1; stroke-linecap: round; stroke-linejoin: round; -webkit-user-select: text;"></path><path fill="none" stroke="#000000" d="M621,38L623,42L623,46L623,51L623,58L623,65L623,72L623,80L623,87L623,97L624,106L625,115L626,125L627,135L628,145L629,155L629,164L630,173L630,182L631,190L631,199L631,207L631,215L631,223L631,232L631,242L631,250L631,260L631,267L631,276L631,284L631,291L631,299L631,307L631,315L631,322L631,329L631,336L631,343L631,348L631,355L631,360L630,366L630,371L630,377L629,382L628,387L628,391L627,396L626,400L625,404L623,409L621,413L619,417L617,422L614,426L611,430L609,432L605,437L602,440L599,443L595,446L592,449L587,453L583,456L579,460L576,464L573,467L571,470L569,474L567,477L566,481L565,485L564,489L563,493L562,497L562,501L560,505L560,510L559,514L558,518L557,522L556,526L556,529L555,533L555,537L554,540L553,544L553,548L553,551L552,554L552,556L552,559L551,561L551,563L551,566L550,568L550,570L550,572L550,574L550,576L550,578L550,581L550,583L550,586L550,588L550,591L550,595L550,597L550,600L550,603L550,606L551,609L552,612L553,614L554,617L555,620L556,623L558,626L560,628L561,631L563,633L565,635L567,638L570,640L572,644L574,647L576,651L577,655L579,660L582,664L584,668L585,673L587,677L589,682L590,686L592,691L593,695L594,699L595,703L596,707L597,711L599,715L600,718L601,721L601,724L602,728L603,731L603,733L604,736L604,738L604,740L605,742L605,744L606,746L606,748L606,749L607,751L607,753L608,755L608,757L609,759L609,761L609,763L610,765L610,767L611,769L611,771L611,773L612,776L612,778L613,780L613,782L614,784L614,786L615,788L615,791L616,793L616,796L617,798L617,801L618,804L619,806L620,809L620,812L621,815L622,818L623,820L623,823L625,825L626,828L626,831L627,833L628,836L629,838L630,841L631,844L632,847L633,850L634,853L635,855L637,857L639,860L641,862L643,864L645,866L647,868L651,870" stroke-opacity="1" stroke-width="5" stroke-linecap="round" stroke-linejoin="round" style="-webkit-tap-highlight-color: rgba(0, 0, 0, 0); stroke-opacity: 1; stroke-linecap: round; stroke-linejoin: round; -webkit-user-select: text;"></path><path fill="none" stroke="#000000" d="M647,44L648,51L648,58L648,66L648,76L650,86L652,98L654,110L655,122L657,136L657,150L659,164L660,178L661,191L662,205L663,218L664,232L664,246L664,259L664,272L664,284L664,294L664,305L664,315L664,325L664,335L664,345L663,354L662,364L662,372L661,379L660,386L658,394L656,401L653,408L649,414L645,420L640,427L634,432L627,438L621,442L614,447L608,452L601,456L595,461L588,465L581,470L575,473L569,477L563,481L558,486L555,489L551,494L548,500L546,505L544,512L543,518L541,524L540,532L538,539L537,546L536,554L535,561L534,568L533,575L532,582L532,589L531,597L531,603L531,610L531,616L531,622L531,628L532,633L535,638L539,642L543,646L548,648L554,651L558,652L562,653L567,654L570,655L573,656L575,658L577,660L580,662L583,665L586,668L589,672L592,675L595,678L598,682L600,685L602,689L604,693L606,697L608,701L610,705L611,709L613,713L614,716L616,720L617,724L618,727L619,731L620,734L621,738L623,742L624,746L626,749L627,753L628,756L630,760L631,764L632,767L634,770L635,774L637,777L638,780L640,784L641,787L642,790L643,793L645,797L646,800L648,803L650,806L651,809L652,812L654,816L656,819L657,822L659,825L660,828L662,830L664,833L665,836L667,839L669,842L670,845L672,848L674,851L676,854L678,857L680,859L682,861L684,862L686,864L689,865L691,867L694,868L696,869L699,870L701,870L704,870L707,870" stroke-opacity="1" stroke-width="5" stroke-linecap="round" stroke-linejoin="round" style="-webkit-tap-highlight-color: rgba(0, 0, 0, 0); stroke-opacity: 1; stroke-linecap: round; stroke-linejoin: round; -webkit-user-select: text;"></path><path fill="none" stroke="#000000" d="M679,40L681,49L681,55L682,64L683,73L684,84L686,94L687,106L689,118L691,130L692,142L694,155L696,167L698,180L701,192L703,203L704,213L706,223L706,234L707,245L707,256L708,267L708,277L708,286L708,294L708,303L707,311L704,319L701,326L698,334L694,340L690,346L686,352L682,358L676,364L671,369L665,373L660,377L653,381L647,385L640,388L633,391L628,393L622,396L617,398L613,401L609,403L606,405L603,408L601,412L599,415L597,418L596,422L594,426L593,431L592,435L592,439L591,444L590,449L589,454L589,459L589,464L589,469L588,474L588,479L588,484L588,488L588,493L588,498L588,502L588,506L588,510L588,515L588,518L588,522L588,526L589,529L589,534L589,537L589,541L589,545L589,549L590,552L590,556L590,559L590,562L591,566L591,569L592,573L592,576L592,580L593,583L594,587L595,591L596,595L597,599L599,602L600,605L601,609L603,612L604,615L606,618L609,621L611,624L613,627L616,629L619,631L621,633L624,634L626,636L628,638L630,639L632,641L634,644L636,646L638,649L640,653L643,657L645,661L647,665L648,670L650,674L652,678L653,682L654,686L655,690L657,694L658,697L659,701L660,705L661,709L662,712L663,716L664,719L666,723L667,726L669,730L670,734L671,737L672,740L674,743L675,747L677,751L678,754L680,758L682,762L683,766L685,771L687,775L689,780L692,785L694,790L696,796L699,801L701,806L704,811L706,816L709,821L711,826L713,830L716,834L718,838L720,842L721,846L723,850L725,853L727,856L728,859L730,861L732,863L733,865L735,867L738,868L741,869L744,870" stroke-opacity="1" stroke-width="5" stroke-linecap="round" stroke-linejoin="round" style="-webkit-tap-highlight-color: rgba(0, 0, 0, 0); stroke-opacity: 1; stroke-linecap: round; stroke-linejoin: round; -webkit-user-select: text;"></path><path fill="none" stroke="#000000" d="M706,12L708,17L708,24L709,32L711,44L713,55L715,66L717,77L720,89L723,100L725,111L728,123L730,134L732,145L734,157L736,167L737,177L738,187L739,196L739,205L740,212L740,220L740,228L738,235L735,241L732,247L727,253L722,258L716,262L709,267L702,271L695,275L687,279L678,283L670,287L662,291L655,295L647,299L640,303L634,308L630,311L626,315L624,320L623,325L622,330L622,337L622,344L623,352L623,360L624,368L625,376L626,383L627,391L628,398L628,405L629,413L630,420L631,427L631,434L632,440L633,447L633,454L633,460L634,466L634,471L635,477L635,483L635,488L636,493L636,498L637,503L638,507L638,512L638,516L639,520L639,524L640,528L640,532L640,537L641,540L641,544L642,548L642,551L643,555L643,559L643,563L644,566L644,570L645,573L645,576L645,578L646,581L646,584L647,586L647,589L648,591L648,594L649,596L650,599L650,601L651,604L652,606L652,608L653,611L654,613L655,616L656,618L657,620L658,622L660,624L661,626L663,627L666,629L668,630L671,631L673,633L675,635L677,637L679,639L680,641L682,644L683,647L684,650L686,653L688,656L689,660L691,664L693,668L694,671L696,675L698,679L700,682L701,687L703,690L705,694L706,697L708,701L710,705L711,708L713,712L715,715L716,719L718,722L720,726L721,729L723,733L724,736L725,739L727,742L729,745L730,748L732,751L733,754L735,757L736,760L737,763L739,766L740,769L742,772L743,775L745,779L746,782L747,785L748,789L750,792L750,796L752,799L752,802L753,805L754,808L755,810L756,813L756,816L757,819L758,821L759,823L759,826L760,828L761,830L762,830L762,827" stroke-opacity="1" stroke-width="5" stroke-linecap="round" stroke-linejoin="round" style="-webkit-tap-highlight-color: rgba(0, 0, 0, 0); stroke-opacity: 1; stroke-linecap: round; stroke-linejoin: round; -webkit-user-select: text;"></path><path fill="none" stroke="#000000" d="M717,15L718,18L718,23L719,29L720,38L722,48L723,58L725,71L726,82L728,94L730,105L733,116L735,128L737,140L738,153L739,165L740,176L742,187L743,199L744,208L744,219L745,229L745,239L745,248L745,256L745,264L745,272L745,280L745,287L745,295L745,302L745,310L744,316L742,323L742,329L740,334L739,340L737,345L735,351L732,357L729,362L725,367L722,371L719,376L715,381L711,386L706,391L701,395L696,400L691,404L687,408L683,412L679,416L674,420L670,424L665,428L661,432L657,436L652,440L648,444L645,448L641,452L638,457L635,461L632,466L630,470L628,474L627,478L627,483L626,488L626,492L626,496L626,501L626,505L627,511L628,516L630,521L631,527L633,533L634,539L635,545L637,551L638,556L639,561L640,566L641,569L643,573L644,576L646,578L648,580L650,581L653,583L656,584L660,585L664,586L668,586L673,587L677,587L681,588L684,588L688,589L691,590L693,590L695,591L697,593L699,594L700,595L702,597L703,598L705,600L706,603L708,605L709,607L711,610L712,612L714,614L715,617L717,620L718,622L720,625L721,628L722,631L724,634L725,637L726,640L728,643L729,646L730,648L731,651L733,654L733,657L735,660L735,663L737,665L737,668L738,670L740,673L740,676L741,678L742,680L743,683L744,685L745,687L745,690L746,692L747,694L747,696L748,698L749,700L750,702L750,705L751,707L752,709L753,710L754,711" stroke-opacity="1" stroke-width="5" stroke-linecap="round" stroke-linejoin="round" style="-webkit-tap-highlight-color: rgba(0, 0, 0, 0); stroke-opacity: 1; stroke-linecap: round; stroke-linejoin: round; -webkit-user-select: text;"></path><path fill="none" stroke="#000000" d="M732,15L733,19L733,25L733,31L733,38L733,48L733,57L733,66L733,75L733,85L733,95L734,106L735,116L736,127L737,138L738,149L739,160L740,170L740,180L741,190L742,199L742,209L742,218L743,228L743,237L743,246L744,255L744,264L745,273L745,280L746,288L746,296L747,303L747,311L747,318L747,324L747,330L748,336L748,341L748,347L748,352L748,357L748,362L748,367L748,371L748,376L748,381L748,384L748,389L748,393L748,397L748,401L747,405L746,408L745,412L744,415L742,418L741,421L739,425L737,427L734,430L730,434L727,437L723,440L720,443L715,446L711,449L706,452L701,454L696,458L691,461L687,463L683,466L680,469L677,471L675,474L673,477L672,480L671,483L670,487L669,491L669,495L669,500L669,504L669,509L669,514L669,519L669,523L669,528L669,533L669,539L669,544L669,549L669,556L670,561L671,567L672,571L674,576L675,580L677,583L679,587L682,589L685,592L689,594L694,595L699,597L703,597L708,598L713,599L716,600L719,600L722,602L724,603L726,605L727,607L728,610L730,612L730,615L731,619L732,622L733,625L733,629L734,632L734,636L735,639L735,643L736,646L736,650L737,653L737,657L738,661L738,663L739,667L739,670L740,673L740,676L740,680L740,683L740,686L740,690L740,693L740,696L741,699L741,703L741,706L741,709L741,713L741,716L741,720L742,724L742,727L742,731L743,735L743,738L744,743L744,747L745,751L745,755L745,759L746,763L746,768L747,772L747,776L748,781L748,785L749,790L749,794L750,799L750,803L750,808L751,812L751,816L752,820L752,823L752,827L753,831L753,834L754,838L754,841L754,844L755,848L755,850L755,853L755,855L755,857L755,858L756,860L756,861L756,862L756,863L757,864L757,865L757,866L758,867L758,868L759,868L759,869L759,870" stroke-opacity="1" stroke-width="5" stroke-linecap="round" stroke-linejoin="round" style="-webkit-tap-highlight-color: rgba(0, 0, 0, 0); stroke-opacity: 1; stroke-linecap: round; stroke-linejoin: round; -webkit-user-select: text;"></path></svg>