<svg height="874" version="1.1" width="768" xmlns="http://www.w3.org/2000/svg" xmlns:xlink="http://www.w3.org/1999/xlink" style="overflow: hidden; position: relative; -webkit-user-select: text;"><desc style="-webkit-tap-highlight-color: rgba(0, 0, 0, 0); -webkit-user-select: text;">Created with Raphaël 2.2.0</desc><defs style="-webkit-tap-highlight-color: rgba(0, 0, 0, 0); -webkit-user-select: text;"></defs><path fill="none" stroke="#000000" d="M34,50L37,51L39,51L42,51L45,51L49,51L53,51L59,51L66,51L72,51L80,51L88,50L96,50L103,50L112,50L119,49L127,49L135,49L143,49L150,49L158,49L166,49L174,49L182,49L190,49L197,49L205,49L212,49L220,49L227,49L235,49L242,49L249,49L256,49L263,50L269,50L274,51L280,51L285,52L289,53L292,54L294,55L296,55L297,56L297,57L297,58L297,59L296,60L293,60L291,62L288,62L285,63L282,63L278,64L275,64L270,65L265,65L259,65L253,66L246,66L239,66L232,66L225,66L217,66L210,66L203,66L197,66L190,66L185,66L180,66L177,67L174,68L173,70L172,71L172,73L172,75L172,78L172,81L172,85L172,88L172,92L172,95L172,98L172,100L172,102L172,104L172,106L172,107L172,108L173,109L173,110L174,111L175,111L177,112L179,113L183,114L187,114L192,114L197,115L203,115L210,116L217,116L223,116L230,116L237,116L244,116L251,116L259,117L266,117L274,117L282,117L290,117L299,117L307,117L315,117L324,117L331,117L336,117L341,117L344,117L346,117L346,116L347,115L347,113L347,111L345,108L343,105L341,102L339,100L337,97L335,94L334,92L332,90L332,89L331,88L331,87L334,87L337,87L341,87L346,87L352,86L359,86L366,86L373,86L381,85L391,85L400,85L410,85L420,85L429,85L440,84L450,84L460,84L470,84L481,84L492,83L503,83L516,82L528,82L539,82L550,82L562,82L576,82L589,81L601,81L613,80L626,80L639,80L652,79L667,78L681,78L696,77L712,77L728,77L744,77L754,77L761,77L765,77L766,77" stroke-opacity="1" stroke-width="5" stroke-linecap="round" stroke-linejoin="round" style="-webkit-tap-highlight-color: rgba(0, 0, 0, 0); stroke-opacity: 1; stroke-linecap: round; stroke-linejoin: round; -webkit-user-select: text;"></path><path fill="none" stroke="#000000" d="M33,18L38,20L40,21L42,23L44,26L46,30L48,34L50,39L51,45L52,50L52,56L53,61L53,66L54,71L54,75L55,78L56,81L56,84L57,86L57,88L58,89L59,90L60,90L62,91L64,91L68,91L73,91L79,91L86,91L93,91L103,91L112,91L121,90L131,89L141,89L150,88L159,87L168,87L177,87L186,86L195,85L204,85L214,85L222,85L230,84L237,84L243,84L247,84L251,84L252,84L253,85L254,87L254,89L254,92L254,94L254,98L254,102L254,105L254,109L254,113L254,116L254,119L253,122L251,125L249,127L248,129L246,131L244,133L243,134L243,136L243,138L243,140L243,141L243,143L246,145L251,147L259,148L268,149L278,150L289,150L302,151L313,151L326,151L338,151L349,151L360,151L369,151L375,151L378,150L380,149L381,147L381,145L381,141L379,137L376,133L374,128L372,123L369,117L367,112L364,106L361,101L358,96L356,92L353,88L350,85L348,82L347,80L346,78L346,77L346,76L346,75L347,75L351,74L356,74L363,73L371,72L381,72L391,72L404,71L417,70L432,69L448,69L467,68L485,68L505,68L525,68L546,68L568,68L591,67L614,67L638,66L662,65L686,65L710,63L733,63L753,63L763,63L766,63" stroke-opacity="1" stroke-width="5" stroke-linecap="round" stroke-linejoin="round" style="-webkit-tap-highlight-color: rgba(0, 0, 0, 0); stroke-opacity: 1; stroke-linecap: round; stroke-linejoin: round; -webkit-user-select: text;"></path><path fill="none" stroke="#000000" d="M166,5L161,-3L161,2L163,7L165,12L167,19L169,25L171,32L172,40L174,48L175,55L177,62L178,68L181,75L182,80L184,85L185,88L186,90L186,92L187,92L186,92L182,92L177,92L171,92L164,92L156,92L147,92L138,92L130,92L122,93L116,94L112,96L109,97L107,99L106,100L106,102L106,104L106,107L105,110L105,114L104,118L103,122L102,126L101,130L101,134L101,137L101,140L101,142L103,143L105,145L108,146L113,147L119,148L128,148L137,148L149,148L161,146L175,144L191,140L205,138L220,136L234,134L248,133L261,131L274,130L283,129L292,128L298,128L302,128L305,128L306,128L306,130L306,132L306,136L306,139L306,143L306,148L307,154L307,159L308,164L308,168L309,172L309,175L309,177L307,179L304,181L300,181L293,181L285,181L277,181L268,179L258,178L248,177L238,176L229,176L221,176L213,176L206,176L200,176L197,176L194,177L192,179L191,181L191,182L191,185L191,187L191,190L191,193L191,196L191,198L191,200L191,201L192,201L195,202L201,202L210,203L220,203L231,203L244,203L258,203L273,203L288,203L306,202L324,201L341,200L361,199L381,198L402,197L425,196L448,196L471,196L494,195L518,195L541,194L565,194L590,193L615,192L643,191L666,191L695,189L724,188L754,186L766,184" stroke-opacity="1" stroke-width="5" stroke-linecap="round" stroke-linejoin="round" style="-webkit-tap-highlight-color: rgba(0, 0, 0, 0); stroke-opacity: 1; stroke-linecap: round; stroke-linejoin: round; -webkit-user-select: text;"></path><path fill="none" stroke="#000000" d="M700,18L703,19L703,23L703,29L703,36L703,44L704,53L706,63L707,72L708,82L710,92L711,100L712,107L712,113L712,118L712,122L712,124L711,125L707,126L701,126L691,126L680,126L667,124L653,122L638,121L620,119L606,118L592,117L581,116L572,116L567,116L564,116L562,116L561,117L561,120L561,123L561,127L560,131L560,137L559,143L558,148L558,153L558,159L558,164L558,169L558,173L559,178L560,182L561,185L562,189L564,191L565,194L566,196L567,198L567,199L567,200L567,201L566,202L562,202L556,203L549,203L541,203L531,203L521,203L511,203L499,203L486,203L475,203L464,203L453,203L442,203L432,202L421,202L411,202L399,201L386,201L375,201L363,201L351,201L340,201L329,201L317,201L306,201L294,201L281,201L268,201L255,201L241,201L226,202L210,203L191,204L173,204L154,205L132,206L110,208L86,209L57,211L28,212" stroke-opacity="1" stroke-width="5" stroke-linecap="round" stroke-linejoin="round" style="-webkit-tap-highlight-color: rgba(0, 0, 0, 0); stroke-opacity: 1; stroke-linecap: round; stroke-linejoin: round; -webkit-user-select: text;"></path><path fill="none" stroke="#000000" d="M476,124L477,126L477,130L477,135L478,141L480,149L481,157L482,166L482,176L483,185L483,195L483,204L483,213L482,220L482,227L481,232L480,236L480,239L479,241L479,242L478,243L477,243L476,243L473,243L468,243L459,242L447,241L435,240L421,240L407,239L392,238L378,238L363,237L349,236L336,235L322,235L309,234L296,234L283,233L269,233L255,233L242,232L229,232L217,231L206,231L195,231L183,231L173,231L163,231L153,231L143,231L133,231L124,231L115,231L107,231L98,231L88,230L77,229L64,228L43,227L14,225L2,223" stroke-opacity="1" stroke-width="5" stroke-linecap="round" stroke-linejoin="round" style="-webkit-tap-highlight-color: rgba(0, 0, 0, 0); stroke-opacity: 1; stroke-linecap: round; stroke-linejoin: round; -webkit-user-select: text;"></path><path fill="none" stroke="#000000" d="M98,143L97,148L97,151L97,156L97,160L97,166L97,172L97,179L98,185L98,191L98,198L98,205L98,210L98,215L99,221L99,225L99,229L99,231L100,233L101,234L103,234L107,235L113,235L121,235L132,235L143,235L154,235L168,235L180,235L192,236L205,237L215,238L226,238L235,239L244,239L250,240L255,241L259,241L261,242L262,242L263,242L263,239L263,235L263,230L263,224L263,218L263,213L263,207L263,202L263,199L263,195L263,193L263,191L263,190L265,189L270,189L276,189L285,189L294,188L306,187L318,186L329,186L339,186L348,186L354,186L358,187L361,189L362,194L363,198L363,204L363,210L363,216L363,223L363,230L363,235L362,240L361,246L361,250L360,255L359,258L359,260L359,262L359,263L359,264L361,265L365,265L370,265L377,265L385,265L395,265L405,265L416,265L427,265L439,265L451,265L462,265L474,265L485,265L496,265L506,266L516,266L526,266L535,266L544,266L553,266L562,266L572,266L582,266L593,266L604,266L616,266L629,266L642,266L655,266L668,266L682,266L701,266L721,266L745,266L761,266" stroke-opacity="1" stroke-width="5" stroke-linecap="round" stroke-linejoin="round" style="-webkit-tap-highlight-color: rgba(0, 0, 0, 0); stroke-opacity: 1; stroke-linecap: round; stroke-linejoin: round; -webkit-user-select: text;"></path><path fill="none" stroke="#000000" d="M635,155L636,164L636,169L638,174L640,181L642,188L645,195L647,203L649,211L651,220L653,229L655,237L656,244L657,251L658,258L659,265L659,270L660,275L660,280L660,284L660,286L660,287L660,288L658,289L654,289L649,289L642,289L634,289L624,289L615,289L606,289L596,289L586,289L575,288L564,287L553,286L542,285L531,284L518,283L506,282L494,281L482,280L471,280L458,279L446,279L434,279L423,278L412,277L401,277L390,277L379,277L368,276L358,276L349,276L339,275L330,275L320,275L311,275L301,275L291,275L281,275L271,275L261,275L251,275L241,275L231,275L222,275L212,275L202,275L193,275L183,275L176,275L167,275L159,275L151,275L143,275L133,275L124,275L115,275L105,275L96,275L85,275L71,275L58,275L44,275L25,275L12,274L4,272" stroke-opacity="1" stroke-width="5" stroke-linecap="round" stroke-linejoin="round" style="-webkit-tap-highlight-color: rgba(0, 0, 0, 0); stroke-opacity: 1; stroke-linecap: round; stroke-linejoin: round; -webkit-user-select: text;"></path><path fill="none" stroke="#000000" d="M133,175L132,178L132,182L133,187L135,193L136,199L138,208L139,214L140,223L141,232L141,241L141,250L141,259L140,267L139,273L139,279L139,283L139,285L139,286L139,287L140,287L144,287L150,287L160,287L170,287L182,287L193,287L206,287L219,287L230,287L242,287L251,287L259,288L266,289L271,291L274,292L276,293L278,293L279,293L279,289L279,285L279,278L279,272L279,267L279,261L279,256L279,253L279,250L279,249L279,247L279,246L281,245L284,244L289,243L295,242L301,242L307,241L314,241L318,241L323,241L326,242L328,243L329,246L330,249L330,253L330,257L330,261L330,264L330,269L330,273L330,277L330,280L330,284L329,287L329,291L329,294L329,296L329,299L329,302L329,304L331,306L334,308L339,310L344,312L352,313L360,315L369,316L378,318L388,319L397,320L404,320L409,320L414,320L417,320L420,318L421,314L421,307L421,300L421,292L421,284L421,275L420,267L419,258L417,250L416,242L414,233L412,226L411,219L409,212L409,205L409,200L409,195L409,189L410,185L414,180L419,177L423,173L429,170L436,168L442,167L451,165L457,164L465,164L475,164L484,164L493,164L504,164L514,164L524,164L535,164L545,164L556,163L566,163L577,162L587,162L596,162L604,162L611,162L616,162L619,162L620,162L621,163L621,164L621,166L621,168L622,171L622,175L622,179L623,184L623,191L623,196L625,203L626,210L626,217L627,223L627,230L628,237L628,243L628,250L628,256L628,261L628,267L628,273L628,278L629,282L631,286L633,290L635,293L638,296L640,298L643,300L646,302L650,303L653,305L657,306L662,307L668,308L674,309L680,309L688,310L697,310L708,310L725,310L746,310L760,310" stroke-opacity="1" stroke-width="5" stroke-linecap="round" stroke-linejoin="round" style="-webkit-tap-highlight-color: rgba(0, 0, 0, 0); stroke-opacity: 1; stroke-linecap: round; stroke-linejoin: round; -webkit-user-select: text;"></path><path fill="none" stroke="#000000" d="M713,185L717,193L717,198L719,205L720,213L722,221L724,229L725,238L726,246L727,255L728,264L728,273L729,281L730,289L730,296L730,302L730,307L730,312L730,316L730,319L728,322L725,324L720,326L716,328L712,330L706,330L699,331L693,331L686,331L677,331L669,330L660,325L651,320L643,315L634,309L627,302L620,296L616,290L611,283L609,278L607,272L605,268L604,264L602,261L599,259L596,256L593,255L587,254L580,253L570,253L560,253L550,253L538,253L527,253L515,253L505,253L494,253L485,253L477,253L467,253L460,253L455,253L450,253L447,253L446,254L446,255L446,256L446,258L446,261L446,264L446,269L446,274L446,280L446,286L446,292L446,298L446,303L446,309L446,314L447,319L447,323L447,328L447,332L447,336L447,339L446,341L444,343L442,345L439,345L435,346L431,347L426,347L420,347L414,347L407,347L400,347L392,347L384,347L376,347L368,347L360,347L352,347L344,347L334,347L326,347L317,347L307,347L298,347L288,347L279,347L270,347L260,347L251,347L242,347L233,347L224,347L215,347L206,347L197,347L187,347L178,347L168,347L158,347L148,347L138,347L127,347L117,347L107,347L96,347L86,347L73,347L60,347L41,347L19,345" stroke-opacity="1" stroke-width="5" stroke-linecap="round" stroke-linejoin="round" style="-webkit-tap-highlight-color: rgba(0, 0, 0, 0); stroke-opacity: 1; stroke-linecap: round; stroke-linejoin: round; -webkit-user-select: text;"></path><path fill="none" stroke="#000000" d="M50,255L49,260L49,266L49,273L49,282L49,291L49,301L49,309L49,316L49,324L49,332L49,338L49,343L49,348L49,352L49,356L49,359L49,361L50,363L52,365L55,366L60,367L66,368L73,369L83,369L93,370L103,370L113,371L124,371L133,371L141,371L149,372L156,372L161,372L164,371L167,369L168,366L169,362L169,357L169,351L169,345L168,338L167,329L166,322L166,315L164,308L164,303L163,298L162,294L161,289L161,286L161,283L161,281L161,279L161,278L164,277L168,277L173,276L179,276L186,276L192,276L197,276L201,278L204,280L207,283L208,287L210,291L210,295L211,299L211,304L211,308L211,313L211,318L211,322L211,325L211,330L211,333L211,337L210,340L210,343L210,347L210,349L210,352L210,354L210,356L210,358L210,359L210,360L211,362L213,363L215,364L217,364L219,365L222,365L225,366L228,366L232,366L237,367L242,367L246,367L252,367L257,367L263,367L270,367L275,367L281,367L287,367L293,367L300,367L305,367L312,367L319,367L325,367L331,367L338,367L344,367L350,367L356,367L363,367L369,367L376,367L383,367L389,366L396,366L404,366L412,366L419,366L428,366L436,366L444,366L453,366L462,366L470,366L480,366L488,365L497,365L506,365L515,365L524,364L533,364L543,364L552,364L561,364L571,364L581,364L592,364L602,364L613,364L624,364L635,364L647,364L657,364L670,363L682,362L697,360L714,358L733,357L753,355L764,354" stroke-opacity="1" stroke-width="5" stroke-linecap="round" stroke-linejoin="round" style="-webkit-tap-highlight-color: rgba(0, 0, 0, 0); stroke-opacity: 1; stroke-linecap: round; stroke-linejoin: round; -webkit-user-select: text;"></path><path fill="none" stroke="#000000" d="M690,265L693,276L693,284L694,293L694,303L696,314L696,324L696,334L696,344L696,354L696,363L696,370L696,377L696,382L695,387L693,390L691,391L687,392L681,393L672,393L662,393L652,393L640,393L626,393L614,393L601,393L591,393L579,393L570,393L563,393L557,393L553,393L549,393L547,393L546,393L545,390L544,387L544,383L543,378L543,374L542,368L542,363L542,356L542,349L542,342L542,337L542,332L542,328L541,324L540,321L538,320L535,318L531,318L526,317L519,317L512,317L504,317L498,317L493,317L489,317L486,317L484,319L483,321L482,324L481,327L481,331L480,335L480,339L480,344L480,348L479,352L479,356L479,360L479,364L479,369L479,372L479,375L479,378L479,381L479,384L479,387L479,389L478,391L477,393L476,394L475,395L473,396L471,397L468,397L465,398L462,398L458,399L453,400L448,400L442,401L436,401L431,401L425,402L419,402L412,402L406,403L401,403L395,403L388,403L382,403L375,403L368,403L361,403L354,403L347,403L340,403L333,403L327,403L320,403L314,403L307,403L301,403L294,403L288,403L281,403L274,404L267,404L259,404L252,404L244,404L237,404L229,405L221,405L213,405L206,405L198,406L191,406L184,407L178,407L173,408L167,408L161,408L157,408L151,409L146,409L142,410L137,410L132,410L127,411L123,411L119,412L115,412L110,412L106,413L102,413L98,413L94,414L90,414L86,415L83,415L79,415L75,416L71,416L69,417L66,418L64,418L62,418L61,418L60,418L59,418L59,416L59,413L59,410L57,405L57,400L55,394L54,389L54,384L54,379L54,374L54,371L54,368L54,366L54,365L54,364L57,362L62,361L68,360L77,358L90,357L103,355L117,352L135,350L152,347L169,344L185,342L198,341L211,340L221,340L228,340L233,340L237,340L239,342L240,346L240,350L240,356L239,362L238,369L236,376L234,384L232,391L230,397L228,404L227,409L226,413L226,417L225,420L225,422L225,424L225,425L227,426L231,427L236,428L242,428L249,429L259,429L268,429L277,429L286,429L295,429L305,429L314,429L324,429L333,429L342,429L351,429L361,428L370,428L379,427L388,427L397,427L405,426L414,426L423,425L432,425L442,424L453,424L463,423L473,423L483,422L494,422L504,421L514,421L523,420L532,420L541,419L549,419L558,418L567,418L576,417L584,416L593,416L602,415L611,415L620,415L628,415L638,414L646,414L653,414L662,413L671,413L679,412L688,411L697,411L706,410L716,409L728,408L742,407L755,405L762,402" stroke-opacity="1" stroke-width="5" stroke-linecap="round" stroke-linejoin="round" style="-webkit-tap-highlight-color: rgba(0, 0, 0, 0); stroke-opacity: 1; stroke-linecap: round; stroke-linejoin: round; -webkit-user-select: text;"></path><path fill="none" stroke="#000000" d="M622,342L622,348L622,353L622,359L622,365L623,371L623,379L624,386L626,392L627,399L628,406L628,413L629,418L629,424L630,429L630,434L630,438L630,442L631,445L631,448L631,451L631,453L631,454L631,455L629,456L625,457L620,458L613,459L604,460L595,461L586,462L575,462L565,463L554,463L543,463L533,463L521,463L511,463L500,463L491,463L483,463L475,463L467,463L459,463L451,463L443,463L435,463L426,463L418,463L409,463L401,463L391,463L383,463L373,463L364,463L355,463L346,463L337,464L328,464L319,464L310,465L302,465L293,465L284,465L277,465L269,465L260,466L253,466L245,466L236,467L229,467L220,467L212,468L205,468L197,469L190,469L183,469L176,469L169,469L162,470L155,470L148,470L141,470L134,471L127,471L120,471L113,472L106,472L99,473L93,473L87,473L82,474L76,474L71,474L64,474L58,474L51,474L44,474L37,474L27,474L16,474L8,472" stroke-opacity="1" stroke-width="5" stroke-linecap="round" stroke-linejoin="round" style="-webkit-tap-highlight-color: rgba(0, 0, 0, 0); stroke-opacity: 1; stroke-linecap: round; stroke-linejoin: round; -webkit-user-select: text;"></path><path fill="none" stroke="#000000" d="M99,394L100,397L100,401L100,405L100,410L100,414L100,420L100,424L100,430L100,435L99,439L98,444L98,449L97,453L97,458L97,461L97,465L97,469L97,473L97,476L97,479L98,482L98,484L100,486L101,488L102,489L103,490L105,491L108,491L112,492L116,492L121,493L126,493L132,493L139,493L145,493L151,493L158,493L164,493L171,493L178,493L185,493L192,493L199,493L205,493L212,493L220,493L227,493L234,493L240,492L247,492L254,492L261,492L268,492L274,491L281,491L288,491L295,490L302,490L310,490L316,490L322,489L328,489L334,489L340,489L346,489L353,488L360,488L367,488L374,488L382,488L390,488L398,488L406,488L414,487L422,487L430,486L438,486L446,486L455,485L463,485L471,485L479,484L487,484L496,484L504,484L512,484L519,484L526,484L533,484L540,484L546,484L551,484L557,484L562,484L568,484L574,484L581,484L587,483L594,483L599,483L606,483L612,483L618,482L625,482L631,482L638,482L644,481L651,481L658,481L664,481L671,481L677,481L684,480L690,480L695,479L700,479L706,479L711,479L717,478L723,478L730,478L739,478L748,478L757,478L763,476" stroke-opacity="1" stroke-width="5" stroke-linecap="round" stroke-linejoin="round" style="-webkit-tap-highlight-color: rgba(0, 0, 0, 0); stroke-opacity: 1; stroke-linecap: round; stroke-linejoin: round; -webkit-user-select: text;"></path><path fill="none" stroke="#000000" d="M681,388L684,391L684,397L684,405L684,414L684,425L684,435L684,444L684,452L684,462L684,470L684,478L684,485L684,492L684,499L684,505L684,510L684,515L684,520L684,524L684,527L683,529L680,531L676,532L670,532L663,533L654,533L645,533L635,533L625,533L614,533L603,533L592,533L582,533L572,533L562,532L554,532L545,531L538,530L532,528L527,525L522,522L519,517L516,512L514,507L513,503L512,498L511,492L511,486L511,481L511,475L510,469L510,464L509,460L509,456L508,452L507,449L506,447L504,445L503,444L500,444L497,444L493,444L489,444L482,444L477,444L470,444L464,444L457,444L451,444L444,445L438,445L432,446L426,447L420,447L416,449L412,450L408,452L405,454L403,457L402,460L401,463L400,467L399,471L398,475L397,479L397,484L397,488L396,493L396,497L396,501L396,505L395,508L395,511L393,514L392,516L391,517L389,519L387,520L384,521L381,522L378,523L374,524L370,524L365,524L361,525L356,525L351,526L346,526L341,526L335,526L329,526L324,526L318,526L312,526L306,526L300,526L295,526L289,526L282,526L276,526L270,526L263,526L257,526L251,526L244,526L238,526L232,526L227,526L220,526L215,526L209,527L203,527L198,527L193,527L188,527L183,527L178,528L173,528L168,528L163,529L157,529L152,529L145,529L139,530L132,530L126,530L119,531L113,531L105,531L99,532L93,532L87,532L81,533L76,534L71,534L66,534L61,535L55,535L49,535L42,535L28,536L15,536" stroke-opacity="1" stroke-width="5" stroke-linecap="round" stroke-linejoin="round" style="-webkit-tap-highlight-color: rgba(0, 0, 0, 0); stroke-opacity: 1; stroke-linecap: round; stroke-linejoin: round; -webkit-user-select: text;"></path><path fill="none" stroke="#000000" d="M51,498L49,502L49,505L49,509L49,514L49,519L49,523L49,528L49,533L49,537L49,541L49,545L49,549L49,553L49,556L48,559L48,561L48,563L48,565L48,566L48,567L48,568L50,568L53,569L57,570L63,571L69,571L76,572L83,572L91,573L98,573L106,573L113,573L119,573L126,573L132,573L138,573L144,573L151,573L158,573L165,573L172,573L181,573L188,573L196,573L204,573L211,573L219,573L226,573L233,573L239,573L246,573L253,573L259,573L265,573L272,573L278,573L285,573L290,572L296,572L301,572L307,572L312,572L317,571L322,571L325,571L329,571L331,570L333,569L334,568L334,567L334,566L334,564L334,562L334,560L334,557L334,554L334,551L333,548L332,545L331,542L330,539L329,535L328,532L327,529L327,525L325,522L324,519L324,516L322,512L322,509L321,506L320,503L320,499L319,496L319,494L319,492L319,491L320,490L322,490L324,490L328,490L331,490L334,490L338,490L342,490L346,491L351,492L356,493L361,493L366,494L371,494L376,495L381,495L387,495L392,495L399,495L405,495L412,495L419,495L426,495L434,495L442,495L450,495L459,495L468,494L477,494L487,493L496,493L506,493L517,492L526,491L535,491L543,491L550,491L555,491L558,491L560,493L560,495L560,499L560,503L559,507L558,512L557,517L556,521L555,525L554,529L553,534L552,538L551,542L550,546L549,549L549,551L549,554L549,555L550,556L551,557L554,557L557,558L560,558L565,559L569,559L573,559L578,559L583,559L588,559L593,559L599,559L604,559L609,559L615,559L621,559L627,559L633,558L638,558L644,558L650,558L655,558L662,557L668,557L674,557L682,557L691,556L702,555L716,554L733,551L747,547" stroke-opacity="1" stroke-width="5" stroke-linecap="round" stroke-linejoin="round" style="-webkit-tap-highlight-color: rgba(0, 0, 0, 0); stroke-opacity: 1; stroke-linecap: round; stroke-linejoin: round; -webkit-user-select: text;"></path><path fill="none" stroke="#000000" d="M697,492L701,496L701,500L702,505L702,512L703,518L703,524L703,531L704,538L704,545L704,552L705,559L705,567L705,572L705,578L705,584L705,589L705,593L705,596L705,598L702,600L699,601L693,602L685,602L675,602L664,602L651,602L638,602L624,602L611,602L597,601L584,601L572,600L559,600L547,599L536,598L526,598L516,597L509,597L504,596L502,596L500,595L500,594L500,592L500,590L502,585L504,581L505,576L507,569L510,562L513,554L517,545L521,538L524,531L527,525L531,519L533,514L536,510L536,506L537,504L537,503L537,502L534,501L530,501L524,501L517,501L510,501L502,502L495,502L489,502L483,502L477,502L472,502L467,502L462,502L457,502L451,502L446,502L441,502L435,502L430,501L425,501L421,500L416,500L411,500L406,500L401,500L396,500L390,500L385,500L380,499L375,499L370,499L364,499L358,498L352,498L345,498L338,498L331,498L323,498L315,498L307,497L299,497L292,497L286,497L283,498L280,502L278,507L278,513L278,520L278,527L278,534L278,542L278,549L278,555L278,560L278,566L278,571L278,576L278,579L278,583L278,585L277,587L275,588L273,590L270,590L267,590L263,591L258,591L252,591L246,591L239,591L232,591L226,591L220,591L213,591L207,591L201,591L195,591L190,590L184,590L178,590L173,590L167,590L162,590L157,590L152,590L147,590L142,590L137,590L133,590L128,590L124,590L119,590L115,590L110,590L105,590L101,590L97,590L93,590L88,590L84,590L80,590L75,590L70,590L63,590L54,590L41,590L27,590" stroke-opacity="1" stroke-width="5" stroke-linecap="round" stroke-linejoin="round" style="-webkit-tap-highlight-color: rgba(0, 0, 0, 0); stroke-opacity: 1; stroke-linecap: round; stroke-linejoin: round; -webkit-user-select: text;"></path><path fill="none" stroke="#000000" d="M22,565L19,572L19,577L19,581L19,588L19,593L19,599L19,604L19,610L19,615L19,621L19,626L19,630L19,633L19,634L19,635L20,636L23,636L26,636L32,637L39,637L50,637L59,638L70,638L81,639L93,640L105,642L114,643L125,644L135,645L146,646L156,646L167,647L178,647L188,647L197,647L203,647L208,647L210,646L211,645L212,642L212,639L212,634L212,629L211,622L209,616L208,610L205,604L203,597L201,591L199,586L198,582L196,578L195,575L195,572L195,570L195,568L198,566L204,564L211,563L220,562L229,562L238,562L247,562L254,562L259,563L262,566L264,569L265,573L266,578L266,584L266,590L264,596L262,601L260,607L258,611L256,615L255,619L255,622L254,624L254,625L254,626L254,627L255,627L258,628L261,628L264,629L269,629L274,629L281,629L287,629L295,629L302,629L310,629L317,629L324,629L332,629L339,629L347,629L354,629L362,629L369,629L377,629L385,629L393,629L402,629L409,629L417,629L426,629L434,629L443,629L451,629L458,628L466,628L474,628L482,628L492,628L501,628L510,628L520,628L531,628L542,628L553,628L565,628L578,628L591,628L603,628L613,628L626,628L637,628L650,627L662,626L673,625L687,624L702,624L722,624L744,624L760,624" stroke-opacity="1" stroke-width="5" stroke-linecap="round" stroke-linejoin="round" style="-webkit-tap-highlight-color: rgba(0, 0, 0, 0); stroke-opacity: 1; stroke-linecap: round; stroke-linejoin: round; -webkit-user-select: text;"></path><path fill="none" stroke="#000000" d="M630,535L631,545L631,550L631,556L631,562L631,570L631,578L631,586L631,595L632,603L633,610L633,617L633,622L633,628L633,633L633,637L633,640L630,642L628,644L624,644L619,645L613,646L606,647L599,648L591,648L583,648L573,649L564,649L555,650L547,650L540,651L531,651L524,651L517,651L510,651L503,651L496,651L490,651L482,651L475,651L468,651L462,651L454,651L447,651L440,651L432,651L424,651L416,652L408,652L400,652L391,653L384,653L375,653L368,654L360,654L352,655L344,656L337,656L331,657L325,657L319,658L312,658L306,658L299,659L293,659L285,660L277,660L269,661L259,661L250,661L240,662L229,662L219,663L208,663L197,664L186,665L175,665L164,666L154,667L143,668L132,668L121,669L108,669L94,670L76,670L49,672L20,673" stroke-opacity="1" stroke-width="5" stroke-linecap="round" stroke-linejoin="round" style="-webkit-tap-highlight-color: rgba(0, 0, 0, 0); stroke-opacity: 1; stroke-linecap: round; stroke-linejoin: round; -webkit-user-select: text;"></path><path fill="none" stroke="#000000" d="M94,596L96,602L96,608L96,614L96,623L96,630L96,639L96,647L96,654L96,661L96,666L96,672L96,677L96,680L96,683L98,685L100,687L103,689L109,690L116,692L125,694L136,695L149,696L162,696L175,697L188,697L201,697L212,697L224,697L234,697L243,697L250,697L257,695L262,693L266,690L268,686L271,682L271,678L271,674L272,669L272,663L272,656L272,650L272,644L272,638L271,634L270,628L270,624L269,619L268,616L268,612L268,609L268,607L268,605L270,604L272,603L275,603L279,603L284,603L289,603L296,603L303,603L311,603L319,603L326,603L334,603L341,603L347,603L353,603L359,603L365,603L371,603L378,603L385,603L392,603L400,603L407,603L414,603L422,603L430,603L437,603L445,603L452,603L460,602L468,602L475,602L484,602L493,602L500,601L508,600L516,600L523,600L530,599L537,599L544,599L551,598L558,598L565,597L571,597L577,597L584,596L589,596L596,596L601,595L607,595L613,595L620,594L626,594L633,593L639,593L645,593L652,592L658,591L664,590L671,590L676,589L681,588L687,588L694,587L699,587L706,586L713,585L720,585L728,584L737,583L750,580L761,577" stroke-opacity="1" stroke-width="5" stroke-linecap="round" stroke-linejoin="round" style="-webkit-tap-highlight-color: rgba(0, 0, 0, 0); stroke-opacity: 1; stroke-linecap: round; stroke-linejoin: round; -webkit-user-select: text;"></path><path fill="none" stroke="#000000" d="M689,545L689,550L689,556L689,563L689,573L690,583L691,594L692,604L693,615L694,624L694,634L694,642L695,649L695,656L695,662L695,666L695,670L693,672L690,673L685,675L677,676L669,677L659,678L649,679L636,680L624,681L612,682L602,682L592,683L581,684L572,684L562,685L555,685L548,685L543,685L538,685L536,685L534,685L534,684L534,682L534,679L534,675L534,670L535,664L536,658L536,651L538,644L539,636L541,629L542,623L543,618L544,615L545,613L545,612L544,612L540,612L534,612L525,612L513,611L500,610L487,608L473,606L459,604L447,603L438,602L430,601L425,601L421,601L419,601L418,601L418,602L417,605L417,608L416,613L415,619L414,624L414,630L414,637L414,644L414,649L414,655L414,660L414,665L414,669L414,673L414,675L414,678L413,680L412,682L410,684L407,685L404,687L400,689L395,691L390,692L383,693L377,694L370,695L362,696L354,696L347,697L340,697L334,697L327,697L322,697L317,697L311,697L305,697L300,697L296,697L290,697L285,697L280,697L275,697L270,697L264,697L259,697L253,698L247,698L242,698L235,699L229,699L224,699L218,700L212,700L205,701L199,701L193,702L186,702L179,703L173,703L166,704L159,704L152,704L147,705L141,705L135,706L130,706L125,707L120,707L114,707L108,707L103,708L97,708L91,709L85,709L78,709L71,710L64,711L57,712L49,713L40,714L28,715L16,716L6,716" stroke-opacity="1" stroke-width="5" stroke-linecap="round" stroke-linejoin="round" style="-webkit-tap-highlight-color: rgba(0, 0, 0, 0); stroke-opacity: 1; stroke-linecap: round; stroke-linejoin: round; -webkit-user-select: text;"></path><path fill="none" stroke="#000000" d="M151,636L151,639L151,644L151,651L151,658L151,667L151,676L151,683L151,691L150,698L150,704L149,709L148,714L147,719L147,722L147,724L147,726L147,727L148,728L152,729L159,729L168,731L180,732L193,732L206,733L219,734L228,734L236,734L243,734L247,734L251,734L254,734L256,731L257,728L258,725L258,721L259,717L259,712L259,708L259,703L259,697L259,692L259,687L259,682L259,677L258,673L257,668L256,665L256,661L255,659L255,657L255,656L255,655L255,654L256,654L258,653L261,652L265,652L271,651L277,651L284,650L291,649L299,649L307,649L314,649L321,648L327,648L334,648L341,648L347,648L354,648L361,648L368,647L375,647L383,646L390,646L398,646L405,646L412,645L419,645L424,644L430,644L437,644L443,643L448,643L455,642L460,642L467,641L472,641L479,641L486,641L493,640L500,640L507,640L514,639L522,639L529,639L537,638L545,637L552,636L560,636L567,635L575,634L582,633L589,633L596,632L604,632L611,632L617,631L624,631L631,630L638,630L645,629L652,629L658,628L665,628L672,628L679,627L685,627L692,627L699,627L705,626L713,625L720,625L727,624L734,624L742,623L749,622L761,619" stroke-opacity="1" stroke-width="5" stroke-linecap="round" stroke-linejoin="round" style="-webkit-tap-highlight-color: rgba(0, 0, 0, 0); stroke-opacity: 1; stroke-linecap: round; stroke-linejoin: round; -webkit-user-select: text;"></path><path fill="none" stroke="#000000" d="M723,576L730,585L731,590L732,598L732,606L733,615L733,624L733,633L733,641L733,650L733,657L733,664L733,671L733,676L732,680L731,685L730,688L729,690L728,692L725,695L723,696L718,698L712,699L703,700L694,701L683,702L673,702L662,703L652,704L641,704L631,705L620,705L609,705L597,705L584,705L574,705L560,705L548,705L535,705L521,705L509,705L495,705L483,705L470,705L460,705L448,705L438,705L427,706L417,706L407,707L396,708L385,709L375,709L366,710L356,711L348,711L339,712L331,712L324,713L315,713L306,714L298,714L290,715L283,715L275,716L267,716L260,717L252,717L245,717L237,718L228,718L221,719L213,719L204,719L197,720L189,720L182,721L174,722L167,723L159,724L153,724L146,725L139,725L132,726L126,727L120,728L114,729L108,730L103,731L98,731L93,732L87,733L82,733L76,734L72,734L67,734L61,735L55,735L49,736L43,736L36,737L28,738L19,738L10,739L4,739" stroke-opacity="1" stroke-width="5" stroke-linecap="round" stroke-linejoin="round" style="-webkit-tap-highlight-color: rgba(0, 0, 0, 0); stroke-opacity: 1; stroke-linecap: round; stroke-linejoin: round; -webkit-user-select: text;"></path><path fill="none" stroke="#000000" d="M44,670L41,683L41,687L41,693L41,702L41,711L42,720L42,727L42,734L42,739L42,743L42,746L43,748L43,749L43,750L44,751L45,751L46,751L47,752L50,752L54,753L59,754L64,755L70,756L77,757L84,757L92,758L100,758L108,758L115,758L122,758L130,758L137,758L144,758L150,758L158,758L166,758L174,757L183,756L191,756L200,755L209,755L218,755L225,755L234,755L241,755L249,754L256,754L263,754L271,754L278,753L286,753L293,753L300,752L307,752L314,752L321,751L327,751L334,751L340,751L347,750L354,750L361,750L368,749L376,749L384,749L392,749L400,749L407,749L415,749L423,749L431,749L439,749L447,748L457,748L465,748L474,748L483,748L493,747L502,747L511,747L521,746L530,746L538,746L546,746L554,745L564,745L572,744L579,743L587,743L595,742L602,741L611,741L619,741L627,740L637,740L644,740L652,740L660,740L667,739L674,739L682,739L689,739L696,738L703,738L710,737L718,736L725,736L734,735L743,734L750,734L757,733L763,732" stroke-opacity="1" stroke-width="5" stroke-linecap="round" stroke-linejoin="round" style="-webkit-tap-highlight-color: rgba(0, 0, 0, 0); stroke-opacity: 1; stroke-linecap: round; stroke-linejoin: round; -webkit-user-select: text;"></path><path fill="none" stroke="#000000" d="M614,653L615,658L615,664L615,672L616,682L617,693L617,704L618,715L618,726L618,734L618,741L618,749L618,755L618,762L618,767L618,772L618,777L618,781L618,784L618,787L618,788L618,789L615,790L610,791L604,792L597,793L589,794L582,795L573,796L566,797L557,798L549,799L541,800L532,801L522,802L512,802L504,802L494,803L487,803L480,804L474,804L467,804L460,804L452,805L444,805L436,805L428,805L420,805L413,805L405,805L398,805L390,806L383,806L376,806L370,806L363,806L356,807L349,807L342,808L335,808L328,809L320,809L313,809L305,809L298,810L290,810L283,811L276,811L268,811L261,811L254,811L247,811L239,811L232,811L224,811L217,811L209,811L201,811L193,811L185,811L178,811L170,812L162,812L154,812L146,812L138,812L130,812L122,812L116,812L110,812L104,812L99,812L94,812L89,812L84,812L79,812L75,812L71,812L67,812L64,811L59,811L56,811L52,811L47,811L44,811L40,811L36,811L32,811L28,811L23,811L18,811L11,811L4,811" stroke-opacity="1" stroke-width="5" stroke-linecap="round" stroke-linejoin="round" style="-webkit-tap-highlight-color: rgba(0, 0, 0, 0); stroke-opacity: 1; stroke-linecap: round; stroke-linejoin: round; -webkit-user-select: text;"></path><path fill="none" stroke="#000000" d="M76,601L72,611L72,616L72,622L72,630L72,638L72,646L72,655L72,664L72,673L72,680L72,690L72,698L73,706L74,714L75,721L75,729L76,736L76,743L76,751L76,757L76,763L76,768L76,773L75,778L74,782L74,787L73,791L72,794L71,798L70,801L70,804L69,807L69,809L69,811L69,813L69,814L69,815L69,816L70,817L72,819L74,819L76,820L79,821L83,821L87,821L92,822L98,822L105,822L111,822L118,822L123,822L129,822L134,822L139,822L143,822L147,822L152,822L156,822L161,822L166,822L172,822L180,822L187,822L194,822L200,822L208,821L214,821L220,821L226,821L232,821L237,821L244,821L250,821L256,821L262,821L269,821L276,821L283,821L290,821L297,821L305,821L313,821L321,821L329,821L339,821L348,821L357,821L366,821L375,821L383,821L392,821L401,821L409,821L419,821L427,821L435,821L443,821L453,821L460,821L468,821L476,821L484,821L492,821L500,821L508,820L516,820L523,819L531,819L538,818L546,818L554,817L561,817L569,816L577,816L584,816L592,816L599,816L605,816L612,816L618,815L625,815L631,815L637,815L643,814L648,814L654,814L659,813L664,813L670,812L676,811L682,811L687,811L692,810L699,810L703,809L709,809L715,809L720,808L726,807L732,806L738,805L745,804L752,803L758,801L764,800" stroke-opacity="1" stroke-width="5" stroke-linecap="round" stroke-linejoin="round" style="-webkit-tap-highlight-color: rgba(0, 0, 0, 0); stroke-opacity: 1; stroke-linecap: round; stroke-linejoin: round; -webkit-user-select: text;"></path><path fill="none" stroke="#000000" d="M691,624L690,635L690,639L690,645L690,651L690,658L690,666L691,675L692,683L693,691L694,699L695,707L695,714L696,723L696,730L697,738L697,745L697,752L698,759L698,766L698,773L698,780L698,786L698,793L698,799L698,805L698,811L698,816L698,821L698,826L698,829L698,832L698,835L698,837L698,838L698,840L698,842L697,843L695,845L692,846L689,847L685,848L681,849L676,850L672,850L667,851L661,851L656,852L650,852L645,852L640,852L634,852L628,852L623,852L616,852L610,852L604,852L598,852L591,852L584,852L577,852L570,851L563,851L556,851L549,851L541,850L532,850L524,850L515,850L506,849L497,849L487,848L478,848L468,847L459,846L449,845L439,845L429,845L419,844L410,844L401,844L392,844L383,844L374,844L366,844L358,844L349,844L341,844L332,844L322,844L314,844L306,844L298,844L290,844L282,844L274,844L266,844L259,844L252,844L245,844L239,844L232,844L226,845L219,845L214,845L207,845L201,845L195,845L189,845L182,845L176,845L169,845L163,845L157,845L152,845L146,845L141,845L137,845L132,845L128,845L125,844L122,844L118,844L115,843L112,843L108,843L105,843L101,842L98,842L95,842L92,842L89,842L86,842L84,842L81,842L79,841L76,841L74,841L72,841L69,841L67,841L64,841L62,841L59,841L56,841L53,841L50,841L48,841L46,841L43,841L41,841L39,841L36,841L34,841L32,841L29,841L26,841L24,841L21,841L19,841L17,841L15,841L13,841L11,841L9,841L7,841L3,840" stroke-opacity="1" stroke-width="5" stroke-linecap="round" stroke-linejoin="round" style="-webkit-tap-highlight-color: rgba(0, 0, 0, 0); stroke-opacity: 1; stroke-linecap: round; stroke-linejoin: round; -webkit-user-select: text;"></path></svg>