<svg height="874" version="1.1" width="768" xmlns="http://www.w3.org/2000/svg" xmlns:xlink="http://www.w3.org/1999/xlink" style="overflow: hidden; position: relative; -webkit-user-select: text;"><desc style="-webkit-tap-highlight-color: rgba(0, 0, 0, 0); -webkit-user-select: text;">Created with Raphaël 2.2.0</desc><defs style="-webkit-tap-highlight-color: rgba(0, 0, 0, 0); -webkit-user-select: text;"></defs><path fill="none" stroke="#000000" d="M254,128L254,143L254,151L254,158L253,165L253,172L253,179L253,186L253,192L253,199L253,205L253,211L253,216L253,223L253,230L253,236L253,242L253,248L253,254L253,259L253,264L253,269L253,273L253,278L253,282L253,285L253,289L253,292L254,296L254,298L254,302L255,306L256,309L256,312L258,315L259,318L261,320L263,323L266,325L270,326L274,328L279,328L286,328L294,328L302,328L311,328L319,325L329,324L337,323L345,322L352,321L357,320L362,320L366,320L368,320L370,320L371,322L372,325L372,328L373,332L373,338L373,345L374,352L374,362L374,371L374,381L374,390L374,399L374,407L374,415L374,422L374,427L374,433L374,438L374,443L374,447L373,450L371,452L368,454L363,456L353,458L334,461L302,463L266,463" stroke-opacity="1" stroke-width="5" stroke-linecap="round" stroke-linejoin="round" style="-webkit-tap-highlight-color: rgba(0, 0, 0, 0); stroke-opacity: 1; stroke-linecap: round; stroke-linejoin: round; -webkit-user-select: text;"></path><path fill="none" stroke="#000000" d="M333,258L331,263L331,274L329,286L327,298L327,312L327,322L327,334L327,344L327,354L327,363L327,372L328,381L328,388L329,396L329,403L330,409L331,415L332,419L335,423L338,427L341,430L346,432L352,433L360,435L367,435L377,436L387,436L396,436L405,434L413,432L418,432L420,432L422,432L423,434L424,439L424,445L424,453L424,462L424,472L424,483L424,493L424,503L424,514L423,524L422,534L421,544L419,552L417,559L414,566L411,571L406,576L401,579L394,582L382,585L363,588L334,590L298,590L257,585" stroke-opacity="1" stroke-width="5" stroke-linecap="round" stroke-linejoin="round" style="-webkit-tap-highlight-color: rgba(0, 0, 0, 0); stroke-opacity: 1; stroke-linecap: round; stroke-linejoin: round; -webkit-user-select: text;"></path><path fill="none" stroke="#000000" d="M300,354L298,368L297,379L297,391L297,405L297,419L297,431L297,444L297,457L297,469L297,480L297,492L297,503L297,513L297,523L297,533L297,543L297,550L297,558L297,564L298,568L300,570L305,571L311,572L321,572L334,572L346,572L360,572L374,570L386,568L395,568L403,568L410,568L413,568L416,570L417,574L418,580L419,587L419,596L419,605L419,614L419,624L419,633L417,641L414,649L410,655L404,659L396,662L379,664L351,664L316,664L276,660L240,651" stroke-opacity="1" stroke-width="5" stroke-linecap="round" stroke-linejoin="round" style="-webkit-tap-highlight-color: rgba(0, 0, 0, 0); stroke-opacity: 1; stroke-linecap: round; stroke-linejoin: round; -webkit-user-select: text;"></path><path fill="none" stroke="#000000" d="M391,437L389,447L387,462L385,477L383,493L381,507L380,520L380,530L379,540L378,550L378,559L377,569L375,578L375,586L373,595L373,602L372,609L372,616L372,623L372,627L372,631L376,633L382,634L392,634L411,634L430,634L447,634L461,632L474,631L482,631L487,631L491,631L493,635L494,641L494,648L494,658L494,668L494,680L494,694L494,704L494,716L494,729L493,739L490,748L486,755L480,760L471,763L450,764L412,764L368,761L324,758L287,751L263,738" stroke-opacity="1" stroke-width="5" stroke-linecap="round" stroke-linejoin="round" style="-webkit-tap-highlight-color: rgba(0, 0, 0, 0); stroke-opacity: 1; stroke-linecap: round; stroke-linejoin: round; -webkit-user-select: text;"></path><path fill="none" stroke="#000000" d="M296,600L295,610L295,619L295,630L295,643L293,655L292,667L290,678L290,687L289,698L288,707L288,716L288,725L287,733L287,741L287,748L287,754L288,759L292,763L299,766L312,770L330,775L355,780L380,785L402,790L419,795L430,800L437,803L440,805L441,807L441,809L441,811L439,813L437,816L434,819L433,823L431,828L430,832L429,837L428,841L426,847L425,852L423,855L420,859L415,862L404,862L371,860L325,847L264,832" stroke-opacity="1" stroke-width="5" stroke-linecap="round" stroke-linejoin="round" style="-webkit-tap-highlight-color: rgba(0, 0, 0, 0); stroke-opacity: 1; stroke-linecap: round; stroke-linejoin: round; -webkit-user-select: text;"></path><path fill="none" stroke="#000000" d="M463,486L463,493L463,505L463,519L461,532L460,547L459,561L458,574L457,588L456,600L455,611L454,622L453,632L452,642L451,651L450,658L449,663L449,668L449,671L450,673L453,673L460,673L471,670L488,663L509,653L528,645L542,639L551,637L556,637L558,637L560,641L560,650L560,659L560,673L561,685L562,698L563,711L565,724L566,738L567,750L567,761L566,772L563,779L559,785L553,790L543,794L531,797L509,799L476,799L443,799L414,799L382,790" stroke-opacity="1" stroke-width="5" stroke-linecap="round" stroke-linejoin="round" style="-webkit-tap-highlight-color: rgba(0, 0, 0, 0); stroke-opacity: 1; stroke-linecap: round; stroke-linejoin: round; -webkit-user-select: text;"></path><path fill="none" stroke="#000000" d="M430,506L429,529L429,544L429,562L429,577L429,593L429,607L429,620L429,633L429,644L429,654L429,664L429,674L429,681L429,689L429,696L429,702L431,706L434,709L438,711L447,712L462,712L481,712L501,709L519,704L535,700L545,697L553,696L557,696L560,696L562,699L562,706L563,714L563,724L563,733L563,744L563,755L564,766L564,777L564,784L564,792L564,797L562,802L557,807L548,811L530,814L501,817L471,817L440,812L411,796" stroke-opacity="1" stroke-width="5" stroke-linecap="round" stroke-linejoin="round" style="-webkit-tap-highlight-color: rgba(0, 0, 0, 0); stroke-opacity: 1; stroke-linecap: round; stroke-linejoin: round; -webkit-user-select: text;"></path><path fill="none" stroke="#000000" d="M495,406L496,419L496,435L496,453L496,474L496,494L496,510L497,525L497,540L498,554L498,567L499,578L499,589L499,599L500,607L500,613L502,619L504,623L507,626L513,627L522,628L536,628L554,628L570,626L583,623L592,621L599,620L604,620L607,620L609,624L609,632L610,645L610,658L610,672L610,685L610,698L610,711L610,723L609,732L607,741L604,748L601,753L595,758L586,761L570,763L547,765L515,768L484,771L455,775L434,779L419,782L410,784L404,785L401,785L400,786L399,786L398,785L397,783L395,780L393,775L390,767L388,756L385,742L383,724L383,705L382,683L382,659L382,630L381,603L380,581L378,559L377,539L375,524L374,510L373,500L373,491L373,484L373,478L373,473L373,471L373,469L374,469L376,469L380,469L385,469L397,469L414,469L435,469L459,470L483,471L504,473L522,474L533,475L541,475L545,476L547,476L548,476L548,475L548,473L548,472L548,470L548,467L548,464L548,459L548,453L548,446L548,436L548,426L548,413L548,399L547,381L545,363L545,345L543,327L543,313L542,302L541,295L540,291L540,289L539,288L538,288L537,288L536,288L535,288L533,289L531,290L528,290L521,291L507,291L487,292L463,293L431,294L399,296L369,298L344,301L327,303L317,305L311,306L309,306L308,307L309,307L310,307L310,306L310,304L310,302L310,299L310,296L310,293L310,287L310,278L311,262L313,243L315,222L317,201L317,186L317,172L317,162L317,154L317,149L317,145L317,143L317,142L318,141L318,140L319,140L320,140L322,140L325,140L330,140L339,140L357,140L377,139L397,137L412,135L422,134L430,134L434,134L437,134L438,134L438,135L438,137L438,140L438,142L438,144L438,147L438,150L438,154L438,160L438,167L438,177L438,191L438,204L438,218L438,233L438,247L437,262L436,273L436,283L435,290L434,295L433,298L432,301L431,302L430,302L429,303L427,303L426,303L424,303L422,301L419,300L415,298L409,297L400,295L387,292L367,288L340,282L314,278L293,275L271,274L256,273L244,273L237,272L231,272L228,272L226,271L226,273L227,276L227,281L227,291L228,303L228,318L228,334L228,349L228,363L228,373L228,382L228,388L229,394L230,398L232,401L234,403L237,404L239,405L242,405L246,405L251,405L259,405L270,404L283,401L299,397L317,393L336,388L354,383L367,380L377,379L383,379L387,379L389,383L390,390L390,398L390,409L390,420L390,433L390,445L390,457L389,466L388,476L387,483L385,489L383,493L380,496L375,498L353,495L300,484L225,472" stroke-opacity="1" stroke-width="5" stroke-linecap="round" stroke-linejoin="round" style="-webkit-tap-highlight-color: rgba(0, 0, 0, 0); stroke-opacity: 1; stroke-linecap: round; stroke-linejoin: round; -webkit-user-select: text;"></path><path fill="none" stroke="#000000" d="M169,257L169,268L169,281L169,295L169,308L169,321L169,331L169,343L169,354L169,367L170,379L170,391L171,403L172,413L173,424L174,434L175,443L177,451L180,455L183,458L189,460L198,460L212,460L231,457L251,453L272,448L292,444L306,442L315,442L321,442L326,444L329,451L331,463L331,475L332,488L332,500L333,514L333,528L334,541L334,551L334,562L334,569L334,575L334,579L329,582L323,583L310,584L290,584L267,584L241,580L218,572L190,560L167,543" stroke-opacity="1" stroke-width="5" stroke-linecap="round" stroke-linejoin="round" style="-webkit-tap-highlight-color: rgba(0, 0, 0, 0); stroke-opacity: 1; stroke-linecap: round; stroke-linejoin: round; -webkit-user-select: text;"></path><path fill="none" stroke="#000000" d="M125,133L125,137L124,146L122,158L120,170L119,183L118,194L118,207L118,221L117,235L117,251L117,267L117,279L117,288L118,295L121,301L123,305L127,308L130,310L135,312L141,313L152,313L171,313L193,313L217,313L240,313L261,313L276,313L287,313L295,313L300,313L304,313L305,313L306,313L306,310L306,307L305,303L304,296L302,289L300,280L299,270L297,260L295,250L293,238L291,226L288,214L285,202L282,189L278,177L275,164L271,153L268,141L265,133L263,123L261,116L260,109L260,103L260,99L260,96L263,94L266,93L269,93L274,93L280,93L288,93L298,94L310,95L323,96L338,98L356,99L377,100L404,100L433,99L466,95L511,89" stroke-opacity="1" stroke-width="5" stroke-linecap="round" stroke-linejoin="round" style="-webkit-tap-highlight-color: rgba(0, 0, 0, 0); stroke-opacity: 1; stroke-linecap: round; stroke-linejoin: round; -webkit-user-select: text;"></path><path fill="none" stroke="#000000" d="M487,30L484,42L482,59L481,75L480,89L479,103L479,114L478,125L478,138L478,151L478,165L480,178L481,191L483,203L485,216L486,228L487,240L487,250L487,259L486,265L483,268L477,269L466,270L451,270L431,268L406,264L383,260L366,258L352,258L340,258L334,260L329,263L327,267L326,273L326,280L326,289L326,300L326,314L326,327L326,339L325,348L325,357L325,364L327,369L332,374L340,376L355,377L378,377L407,377L433,373L453,370L472,367L486,366L495,365L500,364L503,364L504,364L504,363L504,362L504,359L502,356L500,351L498,345L497,336L495,328L493,318L491,309L489,297L486,286L484,274L481,260L478,243L475,223L473,202L470,183L469,171L468,165L467,161L467,159L466,158L467,158L468,158L470,159L472,160L476,160L482,161L492,161L505,162L520,162L533,162L547,162L557,162L568,162L578,162L586,162L593,162L598,162L602,162L604,164L606,169L607,174L608,181L608,188L608,196L608,206L608,215L608,224L608,234L608,244L608,255L608,268L608,279L608,291L607,301L605,314L604,323L603,334L601,343L600,350L598,357L596,361L593,364L589,367L584,369L579,371L571,372L562,374L550,376L539,378L528,380L516,381L506,381L493,382L482,382L468,382L455,382L440,382L416,382L377,380L319,375L246,373L171,373" stroke-opacity="1" stroke-width="5" stroke-linecap="round" stroke-linejoin="round" style="-webkit-tap-highlight-color: rgba(0, 0, 0, 0); stroke-opacity: 1; stroke-linecap: round; stroke-linejoin: round; -webkit-user-select: text;"></path><path fill="none" stroke="#000000" d="M313,214L310,230L303,267L301,283L300,296L300,307L300,318L300,331L300,343L300,356L300,369L300,379L300,390L300,400L300,410L299,420L296,428L293,435L288,437L280,439L269,440L254,441L232,441L203,441L173,438L147,435L128,434L115,433L106,433L102,433L100,434L99,438L99,444L99,452L100,464L100,478L100,492L100,506L100,520L100,532L100,542L100,550L100,557L100,562L103,565L109,567L122,568L149,568L181,565L215,559L244,555L263,553L277,552L285,552L289,552L291,552L291,553L291,554L290,555L289,555L287,554L285,550L283,543L282,537L280,528L279,518L278,506L276,493L276,479L275,465L274,449L273,434L271,419L271,405L269,392L267,382L265,373L262,366L259,362L254,358L250,356L246,354L242,354L237,354L230,354L224,354L215,354L205,355L193,357L181,359L164,363L148,366L129,369L111,373L93,377L80,379L71,381L65,381L62,381L60,381L60,380L60,377L60,374L61,371L61,366L62,361L62,354L62,348L62,340L62,332L63,322L63,312L63,301L64,290L64,277L64,265L65,253L67,241L68,229L70,217L72,206L73,196L75,187L76,178L79,174L81,170L83,169L86,168L88,168L93,168L99,168L108,167L120,167L135,167L149,167L165,167L181,167L196,167L212,167L227,166L237,166L246,166L251,166L255,166L257,168L258,171L258,175L258,180L258,187L257,196L256,204L254,216L251,226L249,237L247,248L246,259L244,271L243,283L241,296L239,308L238,323L236,337L234,352L232,367L230,382L228,396L227,409L225,422L223,434L222,445L220,454L219,463L217,469L215,476L213,480L210,484L206,487L201,489L196,491L190,493L182,494L172,495L159,495L143,495L122,495L85,486" stroke-opacity="1" stroke-width="5" stroke-linecap="round" stroke-linejoin="round" style="-webkit-tap-highlight-color: rgba(0, 0, 0, 0); stroke-opacity: 1; stroke-linecap: round; stroke-linejoin: round; -webkit-user-select: text;"></path><path fill="none" stroke="#000000" d="M150,338L150,349L150,384L150,400L150,416L150,430L151,443L151,456L152,469L152,483L152,496L153,509L153,522L153,534L153,546L153,556L153,563L153,571L153,575L153,577L157,578L162,578L174,578L192,576L212,574L232,572L246,572L260,572L268,572L274,575L278,581L279,589L280,599L280,609L280,621L280,632L278,644L276,654L275,664L274,675L273,684L271,693L268,698L265,702L261,703L254,704L242,704L227,704L212,704L195,703L180,703L166,703L153,703L143,703L135,704L129,705L125,707L122,708L119,710L118,712L116,714L115,714L115,715L115,712L115,706L115,698L115,688L115,675L115,658L116,641L116,622L117,607L117,593L117,582L117,574L117,568L117,563L116,561L116,560L117,560L119,560L123,560L129,560L137,560L147,560L160,561L174,561L191,563L209,564L229,565L252,565L276,565L299,565L320,566L335,566L347,568L355,570L361,572L366,576L369,580L371,585L372,593L373,600L373,610L373,619L373,629L372,639L371,648L370,658L368,668L367,678L365,689L363,700L360,710L357,721L356,729L354,738L353,747L352,754L351,760L351,765L351,770L351,775L351,778L353,781L355,783L358,785L361,787L364,788L368,789L374,791L380,792L388,793L397,794L406,794L416,795L426,796L439,797L451,798L463,800L472,802L482,803L492,805L500,806L507,806L513,807L519,807L524,807L529,807L533,807L536,804L540,800L543,794L547,787L549,779L551,769L552,755L553,742L553,727L553,710L553,690L553,672L552,654L549,636L547,620L545,605L543,592L540,578L537,566L535,554L533,545L532,538L531,532L531,527L531,522L531,518L531,515L531,514L534,512L538,512L543,512L551,511L564,510L582,507L604,505L635,502L670,498L720,492" stroke-opacity="1" stroke-width="5" stroke-linecap="round" stroke-linejoin="round" style="-webkit-tap-highlight-color: rgba(0, 0, 0, 0); stroke-opacity: 1; stroke-linecap: round; stroke-linejoin: round; -webkit-user-select: text;"></path><path fill="none" stroke="#000000" d="M688,366L680,397L677,413L674,429L672,444L669,460L667,476L665,490L664,505L663,520L663,534L663,548L663,560L662,571L660,580L657,588L654,593L649,597L641,598L628,598L604,594L576,588L549,584L526,582L505,581L490,580L481,580L476,579L474,578L474,576L474,570L478,560L483,545L487,531L490,515L492,498L492,479L493,459L493,438L493,420L493,407L494,401L497,398L503,397L518,397L550,397L592,396L642,395L704,393" stroke-opacity="1" stroke-width="5" stroke-linecap="round" stroke-linejoin="round" style="-webkit-tap-highlight-color: rgba(0, 0, 0, 0); stroke-opacity: 1; stroke-linecap: round; stroke-linejoin: round; -webkit-user-select: text;"></path><path fill="none" stroke="#000000" d="M679,283L674,297L664,331L661,349L658,365L656,379L655,393L653,408L653,422L653,435L653,448L653,459L653,471L653,480L650,488L643,494L635,498L622,499L604,499L584,499L557,496L534,492L516,488L500,485L490,482L483,479L480,477L477,475L477,471L477,465L479,454L484,437L492,415L499,391L505,369L508,350L510,330L511,311L511,294L511,278L512,262L513,248L516,237L522,231L535,225L562,218L599,211L633,206L660,204L684,199L712,194" stroke-opacity="1" stroke-width="5" stroke-linecap="round" stroke-linejoin="round" style="-webkit-tap-highlight-color: rgba(0, 0, 0, 0); stroke-opacity: 1; stroke-linecap: round; stroke-linejoin: round; -webkit-user-select: text;"></path><path fill="none" stroke="#000000" d="M638,104L635,119L635,136L634,151L633,168L632,182L631,196L631,210L631,225L631,241L631,260L631,276L633,289L634,303L635,313L635,322L635,328L631,333L624,335L612,335L593,335L566,333L538,331L509,330L482,329L463,329L446,329L433,329L425,329L420,329L417,329L416,329L415,328L415,326L415,323L414,319L414,313L412,306L411,297L409,287L408,277L407,265L406,254L406,243L406,229L406,216L406,204L406,192L406,182L406,171L407,160L408,149L408,138L409,129L409,122L409,116L409,112L411,110L414,109L417,109L420,109L427,110L438,111L452,113L472,115L494,117L518,119L541,120L563,121L582,121L596,122L605,122L610,123L613,125L615,127L615,130L615,133L615,138L613,143L612,149L611,156L611,163L610,172L609,180L608,190L608,200L608,211L608,225L607,238L607,253L606,267L606,282L605,297L604,311L604,326L603,341L602,355L601,370L599,384L598,398L596,410L594,422L591,432L586,442L580,451L573,457L563,463L551,467L534,471L517,473L499,473L481,473L463,473L444,469L426,463L409,457L395,451L380,446L366,440L351,433L334,427L318,421L303,417L292,415L283,415L274,415L268,416L263,420L261,425L259,432L258,441L257,450L257,463L256,476L256,489L256,504L256,520L256,539L256,554L256,574L256,589L256,605L256,621L256,634L256,647L256,656L257,665L258,671L259,677L259,681L259,684L260,686L260,688L260,689L260,690L259,690L257,690L254,690L250,690L238,690L205,690L144,690L70,695L8,703" stroke-opacity="1" stroke-width="5" stroke-linecap="round" stroke-linejoin="round" style="-webkit-tap-highlight-color: rgba(0, 0, 0, 0); stroke-opacity: 1; stroke-linecap: round; stroke-linejoin: round; -webkit-user-select: text;"></path><path fill="none" stroke="#000000" d="M155,556L154,572L154,588L152,605L149,622L147,636L146,650L145,664L144,678L144,692L144,707L143,719L142,730L142,741L141,750L141,757L141,762L141,766L142,768L144,769L150,769L159,769L172,768L186,766L201,764L216,764L231,764L244,765L254,769L262,775L267,780L270,785L272,792L272,800L272,809L272,816L270,824L268,831L266,837L263,843L261,848L257,852L254,854L250,855L245,856L237,856L226,855L213,853L198,851L183,849L170,848L156,848L144,848L134,848L127,848L122,848L119,848L117,848L117,847L117,846L117,845L117,843L117,841L117,838L117,835L118,831L118,826L118,818L118,810L116,800L114,788L113,775L110,760L108,743L106,724L104,704L103,683L102,665L101,653L101,643L101,636L101,633L101,632L101,633L101,635L104,637L110,640L121,643L134,646L150,651L166,653L184,655L204,656L226,656L250,656L274,656L298,656L321,656L342,656L362,656L377,656L392,656L401,656L408,657L412,658L415,660L417,663L417,667L417,673L417,680L417,690L417,699L417,710L416,722L414,734L412,746L411,758L409,767L407,775L406,782L404,788L402,792L400,796L398,798L396,800L394,801L391,802L388,802L383,803L377,803L371,804L361,804L349,804L335,804L315,805L294,806L273,807L254,808L236,810L222,811L211,813L203,813L198,814L195,814L194,814L194,813L194,811L194,808L194,805L194,801L194,797L194,792L194,787L194,780L192,772L191,763L189,754L188,742L187,730L185,718L184,706L183,693L181,679L178,662L176,646L175,629L172,611L171,597L169,584L168,576L167,571L167,567L167,565L169,565L172,565L178,566L189,568L205,570L222,572L243,572L271,572L300,572L330,570L360,568L389,566L417,564L439,563L461,562L480,561L496,561L511,561L526,560L540,558L554,557L569,555L584,553L599,551L617,549L635,546L657,544L687,540L728,537" stroke-opacity="1" stroke-width="5" stroke-linecap="round" stroke-linejoin="round" style="-webkit-tap-highlight-color: rgba(0, 0, 0, 0); stroke-opacity: 1; stroke-linecap: round; stroke-linejoin: round; -webkit-user-select: text;"></path><path fill="none" stroke="#000000" d="M632,448L628,458L627,467L626,476L626,483L626,491L626,498L626,507L626,516L626,526L626,535L626,548L626,560L626,573L626,586L626,600L626,613L626,625L626,635L626,644L623,650L615,652L587,651L553,646L513,639L472,634L438,634L412,634L396,637L388,640L385,641L388,640L395,630L402,615L408,601L412,585L412,571L412,552L411,532L408,512L406,493L406,478L406,465L410,457L417,453L430,451L458,448L493,445L534,443L576,443L618,443L667,443" stroke-opacity="1" stroke-width="5" stroke-linecap="round" stroke-linejoin="round" style="-webkit-tap-highlight-color: rgba(0, 0, 0, 0); stroke-opacity: 1; stroke-linecap: round; stroke-linejoin: round; -webkit-user-select: text;"></path><path fill="none" stroke="#000000" d="M645,343L639,374L637,388L636,402L636,417L635,431L634,446L633,460L633,476L633,490L633,506L633,522L633,537L633,552L633,566L633,577L633,586L632,593L627,597L616,598L599,598L575,596L548,590L519,587L496,585L477,585L466,584L460,584L459,583L459,582L464,575L474,561L491,542L508,523L522,505L533,488L538,474L541,464L544,456L546,452L548,452L549,452L550,452L551,458L555,467L560,482L565,502L570,528L572,556L575,588L577,619L577,651L577,682L577,712L577,738L577,765L580,789L588,799" stroke-opacity="1" stroke-width="5" stroke-linecap="round" stroke-linejoin="round" style="-webkit-tap-highlight-color: rgba(0, 0, 0, 0); stroke-opacity: 1; stroke-linecap: round; stroke-linejoin: round; -webkit-user-select: text;"></path><path fill="none" stroke="#000000" d="M444,692L451,699L467,699L493,702L519,704L541,705L566,706L588,707L607,707L621,707L632,708L639,709L645,709L650,710L652,712L654,714L655,717L655,722L655,729L655,737L653,745L651,754L649,763L648,772L648,781L647,788L647,793L646,798L645,802L643,804L640,806L638,806L635,806L632,806L628,806L622,806L616,806L608,806L600,806L590,806L580,806L567,806L553,807L535,809L519,811L502,812L487,813L477,814L470,814L465,814L462,814L461,813L460,811L460,807L460,803L460,797L460,790L460,783L459,775L458,766L458,756L458,745L458,731L458,717L458,701L458,682L458,664L458,644L458,623L458,600L458,577L458,553L458,524L458,499L457,477L456,454L455,432L455,411L455,391L455,375L455,361L455,350L455,340L455,332L457,325L460,319L465,314L472,310L483,305L499,300L516,297L530,296L546,295L562,295L577,295L591,295L600,295L609,295L616,295L623,295L627,295L630,294L633,293L635,292L637,291L638,290L639,289L640,287L640,286L640,283L640,279L640,273L640,267L639,259L638,250L638,241L638,232L637,223L637,213L637,204L637,194L637,184L637,174L637,165L636,157L635,150L635,145L633,141L632,138L630,136L628,135L626,135L623,135L619,134L611,134L596,133L574,133L549,133L520,133L492,136L463,138L434,142L404,146L376,150L351,153L331,155L314,155L300,156L291,156L285,156L282,156L281,155L281,154L281,152L281,151L282,151L284,151L286,155L288,162L290,172L292,185L294,200L296,218L298,234L299,247L300,260L301,269L302,278L305,284L307,289L310,292L314,294L319,295L325,296L333,296L341,297L353,298L366,298L378,300L391,301L404,302L414,303L424,303L432,304L438,304L441,304L443,304L444,304L442,304L440,303L438,301L436,299L435,296L434,292L433,288L431,284L431,280L429,276L428,271L427,266L426,260L425,254L424,246L423,237L421,228L420,217L419,204L417,191L415,177L414,162L412,147L411,133L409,119L408,105L407,92L405,82L405,74L404,68L404,63L403,60L403,59L403,58L404,58L406,58L409,58L412,58L415,58L420,58L432,58L456,58L495,58L538,58L587,58L647,58L724,53" stroke-opacity="1" stroke-width="5" stroke-linecap="round" stroke-linejoin="round" style="-webkit-tap-highlight-color: rgba(0, 0, 0, 0); stroke-opacity: 1; stroke-linecap: round; stroke-linejoin: round; -webkit-user-select: text;"></path><path fill="none" stroke="#000000" d="M355,21L351,38L350,56L350,71L350,81L351,88L352,93L354,99L356,106L358,115L360,127L361,137L361,146L362,153L362,159L362,163L359,167L353,168L345,169L329,170L308,171L279,174L250,177L225,182L206,187L191,191L183,194L180,195L179,195L180,188L183,176L186,159L189,141L193,121L196,101L198,83L199,72L199,64L199,60L199,59L195,59L192,59L185,62L169,64L139,65L100,66L54,66L14,63" stroke-opacity="1" stroke-width="5" stroke-linecap="round" stroke-linejoin="round" style="-webkit-tap-highlight-color: rgba(0, 0, 0, 0); stroke-opacity: 1; stroke-linecap: round; stroke-linejoin: round; -webkit-user-select: text;"></path><path fill="none" stroke="#000000" d="M71,22L69,35L68,50L66,65L65,77L64,87L64,99L64,111L64,124L64,139L64,155L64,170L64,185L64,198L64,209L64,220L64,230L64,236L67,242L72,245L80,247L93,247L110,249L129,250L148,251L163,252L177,253L186,254L191,255L193,255L195,255L195,252L195,245L195,235L193,221L192,203L190,186L188,169L185,153L182,140L178,127L176,118L175,110L175,104L177,100L186,97L212,94L251,89L300,85L369,80" stroke-opacity="1" stroke-width="5" stroke-linecap="round" stroke-linejoin="round" style="-webkit-tap-highlight-color: rgba(0, 0, 0, 0); stroke-opacity: 1; stroke-linecap: round; stroke-linejoin: round; -webkit-user-select: text;"></path><path fill="none" stroke="#000000" d="M343,40L339,56L337,73L334,90L333,104L332,119L331,131L330,145L329,159L329,174L328,189L328,203L328,213L327,224L327,232L327,240L327,245L327,250L329,252L336,254L347,255L361,257L380,258L394,259L409,260L418,261L424,261L427,262L429,262L430,262L430,258L430,252L430,243L430,230L429,218L428,201L425,185L421,169L417,154L412,140L406,126L400,112L392,99L386,87L382,78L381,71L381,68L382,65L390,64L410,62L453,58L519,57" stroke-opacity="1" stroke-width="5" stroke-linecap="round" stroke-linejoin="round" style="-webkit-tap-highlight-color: rgba(0, 0, 0, 0); stroke-opacity: 1; stroke-linecap: round; stroke-linejoin: round; -webkit-user-select: text;"></path><path fill="none" stroke="#000000" d="M581,24L577,35L572,52L566,69L562,82L560,93L558,103L557,114L555,125L555,138L554,152L553,165L553,176L552,187L551,197L550,208L550,217L548,226L547,233L545,238L542,240L537,241L528,241L510,240L482,234L452,228L424,223L398,220L379,217L361,213L348,211L336,208L327,206L320,204L315,202L312,201L309,201L307,201L306,201L305,201L304,204L303,209L302,216L302,224L300,233L299,247L298,260L296,274L295,288L294,302L293,316L291,330L290,345L288,358L288,371L287,382L286,393L286,401L286,409L286,416L286,421L288,425L291,428L297,431L303,432L312,433L327,435L346,436L367,438L388,440L407,442L421,443L431,444L439,444L443,444L447,444L448,444L449,442L449,439L449,434L449,427L449,420L449,413L449,405L449,397L448,388L447,380L445,372L443,364L440,355L436,347L433,339L429,332L423,323L418,316L411,308L404,301L397,294L390,286L383,279L378,274L373,269L371,266L369,263L369,261L369,260L370,260L373,260L375,260L379,260L383,260L389,259L397,258L409,257L423,257L441,257L460,257L481,257L510,256L544,255L584,254L624,253L664,253L704,253L756,250" stroke-opacity="1" stroke-width="5" stroke-linecap="round" stroke-linejoin="round" style="-webkit-tap-highlight-color: rgba(0, 0, 0, 0); stroke-opacity: 1; stroke-linecap: round; stroke-linejoin: round; -webkit-user-select: text;"></path><path fill="none" stroke="#000000" d="M672,79L668,96L666,113L665,128L664,143L664,157L664,172L664,187L664,206L664,224L664,243L665,260L666,274L667,288L668,298L668,310L668,319L663,327L654,332L637,336L607,336L570,336L527,331L482,326L440,321L404,316L380,313L368,313L363,313L361,313L362,317L366,326L367,338L368,354L368,374L368,394L368,415L368,435L368,454L368,469L369,482L369,491L372,497L376,501L394,501L433,498L481,490L530,481L572,473L603,466L620,461L628,457L631,454L633,452L633,451L633,449L631,449L628,447L626,445L625,442L623,438L622,434L621,430L621,425L620,418L620,411L620,404L620,396L620,386L620,376L620,362L620,346L620,325L620,303L620,282L619,264L616,253L614,246L612,243L610,241L608,241L606,241L602,241L596,241L589,241L580,241L569,242L557,243L543,244L527,245L507,246L486,247L465,247L441,247L413,247L384,247L353,247L317,247L277,248L236,249L198,251L169,253L153,254L144,255L139,256L138,257L138,258L141,260L145,262L147,267L149,274L151,282L152,293L153,306L154,320L156,336L158,354L160,371L163,388L166,405L168,421L170,437L171,451L173,465L174,476L174,485L175,492L175,498L176,503L176,507L176,510L176,512L177,513L178,514L180,515L183,515L186,515L192,515L201,515L215,515L229,515L244,512L260,509L271,506L281,504L289,503L294,503L298,503L300,503L301,504L301,507L301,510L301,513L301,517L301,522L301,529L301,536L301,544L301,554L301,564L301,578L300,591L299,605L298,618L298,632L297,646L296,659L296,670L296,680L296,689L296,697L296,702L296,706L295,709L295,711L294,712L293,713L291,714L288,714L286,714L283,714L276,714L265,714L251,716L236,718L220,720L203,723L186,726L171,729L157,731L143,733L131,736L121,737L111,738L103,740L96,741L91,741L87,741L84,741L83,741L81,740L81,735L80,726L79,715L77,704L76,692L74,681L72,668L70,654L68,637L65,620L63,603L61,586L59,570L58,556L57,538L55,524L54,508L52,494L51,480L50,470L49,461L49,455L49,450L49,446L49,444L54,444L74,442L124,437L201,426L317,408" stroke-opacity="1" stroke-width="5" stroke-linecap="round" stroke-linejoin="round" style="-webkit-tap-highlight-color: rgba(0, 0, 0, 0); stroke-opacity: 1; stroke-linecap: round; stroke-linejoin: round; -webkit-user-select: text;"></path><path fill="none" stroke="#000000" d="M177,429L175,453L173,472L170,489L170,504L170,518L172,531L175,543L176,556L177,570L178,586L178,606L178,624L178,641L177,658L175,670L173,681L171,688L169,691L166,692L162,692L155,691L141,686L125,681L102,674L84,671L69,669L58,668L50,668L45,668L43,668L43,671L43,675L43,680L43,687L42,699L40,711L37,725L35,738L33,751L32,760L32,769L32,775L32,782L32,786L33,789L33,791L35,792L37,792L44,792L60,788L84,781L108,775L132,770L150,766L167,763L181,761L194,759L204,759L210,759L215,759L217,759L218,759L219,761L219,763L219,764L219,766L218,768L218,772L217,778L217,786L217,795L217,805L216,815L215,825L214,832L213,839L212,844L211,848L210,852L208,854L208,855L207,855L206,856L205,856L204,856L203,856L201,856L200,856L199,856L198,856L196,856L195,856L193,856L191,856L188,855L183,855L176,854L169,854L162,853L152,853L142,853L132,852L121,850L111,849L103,847L98,844L93,840L90,832L86,822L84,810L81,799L80,789L79,779L79,766L79,752L79,736L79,716L79,697L79,681L79,662L78,644L78,624L77,601L76,578L76,554L76,529L76,505L76,481L75,457L74,435L72,413L71,391L69,369L69,347L68,326L67,305L67,284L67,265L67,247L67,229L67,211L67,194L67,179L67,164L69,150L70,136L71,123L73,111L74,99L75,87L76,78L77,69L78,62L79,57L79,53L79,52L81,53L83,55L86,55L93,58L103,60L115,64L132,68L149,72L169,76L190,80L217,83L243,87L271,91L302,94L339,98L386,100L447,101L531,101L645,100" stroke-opacity="1" stroke-width="5" stroke-linecap="round" stroke-linejoin="round" style="-webkit-tap-highlight-color: rgba(0, 0, 0, 0); stroke-opacity: 1; stroke-linecap: round; stroke-linejoin: round; -webkit-user-select: text;"></path></svg>