<svg height="874" version="1.1" width="768" xmlns="http://www.w3.org/2000/svg" xmlns:xlink="http://www.w3.org/1999/xlink" style="overflow: hidden; position: relative; -webkit-user-select: text;"><desc style="-webkit-tap-highlight-color: rgba(0, 0, 0, 0); -webkit-user-select: text;">Created with Raphaël 2.2.0</desc><defs style="-webkit-tap-highlight-color: rgba(0, 0, 0, 0); -webkit-user-select: text;"></defs><path fill="none" stroke="#000000" d="M66,45L65,49L65,53L65,58L65,65L65,75L65,85L65,95L65,105L65,114L65,123L65,130L65,137L65,142L65,147L65,149L65,151L65,152L65,153L67,153L70,153L76,153L90,153L112,153L143,150L182,144L226,134" stroke-opacity="1" stroke-width="5" stroke-linecap="round" stroke-linejoin="round" style="-webkit-tap-highlight-color: rgba(0, 0, 0, 0); stroke-opacity: 1; stroke-linecap: round; stroke-linejoin: round; -webkit-user-select: text;"></path><path fill="none" stroke="#000000" d="M107,104L109,105L120,105L139,106L164,106L194,106L220,105L240,103L259,102L271,102L278,102L282,102L284,102L283,102L283,103L283,104L283,105L283,107L283,112L283,123L284,136L285,155L286,174L287,194L287,214L288,234L288,249L289,261L289,269L289,275L289,279L289,278L289,276" stroke-opacity="1" stroke-width="5" stroke-linecap="round" stroke-linejoin="round" style="-webkit-tap-highlight-color: rgba(0, 0, 0, 0); stroke-opacity: 1; stroke-linecap: round; stroke-linejoin: round; -webkit-user-select: text;"></path><path fill="none" stroke="#000000" d="M87,242L93,243L113,243L151,243L192,243L236,242L279,239L318,236L348,233L367,232L379,232L385,232L389,232L391,232L390,232L389,232L389,231L389,230L388,226L385,216L378,193L371,163L364,126L361,79L361,34L362,-8" stroke-opacity="1" stroke-width="5" stroke-linecap="round" stroke-linejoin="round" style="-webkit-tap-highlight-color: rgba(0, 0, 0, 0); stroke-opacity: 1; stroke-linecap: round; stroke-linejoin: round; -webkit-user-select: text;"></path><path fill="none" stroke="#000000" d="M307,28L306,37L305,54L304,73L304,92L304,106L304,120L305,129L306,138L307,144L309,151L310,157L311,162L311,167L312,171L312,175L312,178L313,181L313,183L313,184L313,185L313,186L311,186L308,186L304,186L296,186L284,185L267,184L247,183L222,183L190,183L158,183L126,183L94,183" stroke-opacity="1" stroke-width="5" stroke-linecap="round" stroke-linejoin="round" style="-webkit-tap-highlight-color: rgba(0, 0, 0, 0); stroke-opacity: 1; stroke-linecap: round; stroke-linejoin: round; -webkit-user-select: text;"></path><path fill="none" stroke="#000000" d="M168,137L169,141L169,150L169,160L169,170L169,179L169,189L169,198L169,207L169,217L169,228L169,238L169,248L168,258L167,267L166,274L166,281L166,286L166,289L166,292L166,294L166,295L167,295L171,295L181,295L199,295L222,295L256,295L297,292L346,289L408,284L464,279" stroke-opacity="1" stroke-width="5" stroke-linecap="round" stroke-linejoin="round" style="-webkit-tap-highlight-color: rgba(0, 0, 0, 0); stroke-opacity: 1; stroke-linecap: round; stroke-linejoin: round; -webkit-user-select: text;"></path><path fill="none" stroke="#000000" d="M406,216L404,227L404,239L404,252L404,267L404,281L407,294L409,307L411,316L412,326L413,333L414,340L414,346L414,351L414,355L414,358L414,360L414,361L414,362L413,362L412,362L410,362L408,362L403,362L394,362L379,362L356,362L326,362L293,362L255,363L214,366L172,369L136,370" stroke-opacity="1" stroke-width="5" stroke-linecap="round" stroke-linejoin="round" style="-webkit-tap-highlight-color: rgba(0, 0, 0, 0); stroke-opacity: 1; stroke-linecap: round; stroke-linejoin: round; -webkit-user-select: text;"></path><path fill="none" stroke="#000000" d="M227,257L227,266L227,273L229,284L231,296L233,314L234,328L234,344L234,358L234,369L234,379L234,386L234,391L234,394L234,396L234,397L234,398L235,398L236,398L237,398L239,398L241,398L244,398L251,398L263,397L283,396L310,393L344,390L390,384L447,378L514,372L582,369" stroke-opacity="1" stroke-width="5" stroke-linecap="round" stroke-linejoin="round" style="-webkit-tap-highlight-color: rgba(0, 0, 0, 0); stroke-opacity: 1; stroke-linecap: round; stroke-linejoin: round; -webkit-user-select: text;"></path><path fill="none" stroke="#000000" d="M536,447L534,457L533,463L532,467L532,469L532,470L532,471L532,469L532,466L532,462L532,459L532,454L532,449L532,442L531,436L531,427L531,418L530,405L529,390L528,371L527,353L525,332L523,311L521,289L519,267L516,247L514,228L511,211L509,198L507,186L507,178L507,171L510,163L534,150L591,129L670,106L754,87" stroke-opacity="1" stroke-width="5" stroke-linecap="round" stroke-linejoin="round" style="-webkit-tap-highlight-color: rgba(0, 0, 0, 0); stroke-opacity: 1; stroke-linecap: round; stroke-linejoin: round; -webkit-user-select: text;"></path><path fill="none" stroke="#000000" d="M650,121L646,143L644,153L643,166L641,179L640,192L640,206L639,217L639,229L639,240L639,249L639,256L639,263L639,268L639,272L639,275L639,277L639,278L638,278L637,278L636,278L634,278L632,278L626,278L613,278L592,278L559,278L513,278L456,279L387,281L316,285" stroke-opacity="1" stroke-width="5" stroke-linecap="round" stroke-linejoin="round" style="-webkit-tap-highlight-color: rgba(0, 0, 0, 0); stroke-opacity: 1; stroke-linecap: round; stroke-linejoin: round; -webkit-user-select: text;"></path><path fill="none" stroke="#000000" d="M410,85L409,96L409,111L409,131L409,151L409,171L409,190L409,208L409,228L408,245L407,262L406,276L405,289L404,300L402,310L402,317L401,322L401,327L401,330L401,331L401,332L401,333L402,333L405,333L413,333L425,332L446,330L475,328L508,323L547,318L589,311L631,304L673,298L711,293" stroke-opacity="1" stroke-width="5" stroke-linecap="round" stroke-linejoin="round" style="-webkit-tap-highlight-color: rgba(0, 0, 0, 0); stroke-opacity: 1; stroke-linecap: round; stroke-linejoin: round; -webkit-user-select: text;"></path><path fill="none" stroke="#000000" d="M496,128L495,139L494,153L493,167L492,182L492,197L492,212L494,227L497,241L499,255L500,268L501,278L501,288L502,296L502,306L502,313L502,320L502,326L502,332L502,338L502,342L502,347L502,351L502,355L502,358L502,361L502,364L502,366L502,368L502,369L502,370L504,370L510,370L534,366L571,360L616,353L665,346L712,340" stroke-opacity="1" stroke-width="5" stroke-linecap="round" stroke-linejoin="round" style="-webkit-tap-highlight-color: rgba(0, 0, 0, 0); stroke-opacity: 1; stroke-linecap: round; stroke-linejoin: round; -webkit-user-select: text;"></path><path fill="none" stroke="#000000" d="M674,261L673,282L672,295L668,308L664,322L662,338L661,355L661,370L661,387L661,402L661,415L661,427L661,438L661,448L661,455L661,462L661,467L661,471L661,473L661,475L661,476L660,476L658,476L655,476L647,476L630,476L603,474L568,473L523,471L470,469L409,466L337,463L261,461" stroke-opacity="1" stroke-width="5" stroke-linecap="round" stroke-linejoin="round" style="-webkit-tap-highlight-color: rgba(0, 0, 0, 0); stroke-opacity: 1; stroke-linecap: round; stroke-linejoin: round; -webkit-user-select: text;"></path><path fill="none" stroke="#000000" d="M443,314L440,326L436,345L431,369L428,390L426,412L425,432L424,453L424,471L424,486L424,501L424,515L424,525L424,534L424,541L424,546L424,549L423,551L423,552L424,551L425,549L428,548L436,545L453,543L475,541L511,539L554,537L609,532L674,527L751,520" stroke-opacity="1" stroke-width="5" stroke-linecap="round" stroke-linejoin="round" style="-webkit-tap-highlight-color: rgba(0, 0, 0, 0); stroke-opacity: 1; stroke-linecap: round; stroke-linejoin: round; -webkit-user-select: text;"></path><path fill="none" stroke="#000000" d="M619,409L616,419L616,433L615,450L615,470L615,489L618,507L622,525L625,543L627,557L628,571L629,582L630,592L630,600L630,605L630,610L630,614L630,617L630,618L629,618L628,618L627,618L626,618L624,617L621,615L618,614L615,613L611,613L604,613L594,613L579,612L558,612L531,610L501,609L463,606L407,600L327,593L242,593" stroke-opacity="1" stroke-width="5" stroke-linecap="round" stroke-linejoin="round" style="-webkit-tap-highlight-color: rgba(0, 0, 0, 0); stroke-opacity: 1; stroke-linecap: round; stroke-linejoin: round; -webkit-user-select: text;"></path><path fill="none" stroke="#000000" d="M401,405L398,428L394,445L391,465L388,484L387,498L386,512L385,521L385,528L385,533L385,537L385,538L385,537L385,536L385,534L385,533L385,532L386,532L388,532L393,532L406,532L427,532L460,531L499,527L547,522L599,518L655,515L711,512" stroke-opacity="1" stroke-width="5" stroke-linecap="round" stroke-linejoin="round" style="-webkit-tap-highlight-color: rgba(0, 0, 0, 0); stroke-opacity: 1; stroke-linecap: round; stroke-linejoin: round; -webkit-user-select: text;"></path><path fill="none" stroke="#000000" d="M577,583L575,590L575,589L575,587L575,584L575,580L575,576L575,572L575,566L575,560L575,552L575,542L575,532L575,519L575,505L573,489L572,471L570,452L569,432L568,410L567,386L566,357L566,327L566,290L566,252L566,209" stroke-opacity="1" stroke-width="5" stroke-linecap="round" stroke-linejoin="round" style="-webkit-tap-highlight-color: rgba(0, 0, 0, 0); stroke-opacity: 1; stroke-linecap: round; stroke-linejoin: round; -webkit-user-select: text;"></path><path fill="none" stroke="#000000" d="M491,255L492,267L492,278L492,287L492,294L492,298L492,300L492,301L493,301L494,301L495,301L496,301L497,301L500,301L506,301L517,301L535,299L554,297L577,295L605,292L633,289L661,287L691,284L720,280L750,276L765,272" stroke-opacity="1" stroke-width="5" stroke-linecap="round" stroke-linejoin="round" style="-webkit-tap-highlight-color: rgba(0, 0, 0, 0); stroke-opacity: 1; stroke-linecap: round; stroke-linejoin: round; -webkit-user-select: text;"></path><path fill="none" stroke="#000000" d="M643,215L640,226L639,234L638,243L637,251L637,262L637,275L637,288L637,301L637,315L637,329L637,344L637,359L637,373L637,387L637,398L637,410L637,419L636,425L635,431L635,435L634,437L633,438L632,438L630,438L626,438L614,438L587,434L553,430L511,425L458,421L394,419L319,419L245,419" stroke-opacity="1" stroke-width="5" stroke-linecap="round" stroke-linejoin="round" style="-webkit-tap-highlight-color: rgba(0, 0, 0, 0); stroke-opacity: 1; stroke-linecap: round; stroke-linejoin: round; -webkit-user-select: text;"></path><path fill="none" stroke="#000000" d="M467,318L465,330L465,343L464,357L464,372L464,387L464,401L464,415L464,428L464,442L464,455L464,469L463,481L462,491L461,501L461,510L460,518L460,524L460,530L460,534L460,538L460,541L460,542L462,542L465,542L472,541L488,538L509,535L542,532L582,528L630,524L684,520L747,517" stroke-opacity="1" stroke-width="5" stroke-linecap="round" stroke-linejoin="round" style="-webkit-tap-highlight-color: rgba(0, 0, 0, 0); stroke-opacity: 1; stroke-linecap: round; stroke-linejoin: round; -webkit-user-select: text;"></path><path fill="none" stroke="#000000" d="M558,456L554,471L553,482L552,493L551,503L551,517L551,527L551,541L551,554L551,568L551,583L551,598L551,612L550,627L549,640L548,653L548,667L547,678L547,689L546,700L546,711L545,724L545,737L545,755L545,775L545,797L543,826" stroke-opacity="1" stroke-width="5" stroke-linecap="round" stroke-linejoin="round" style="-webkit-tap-highlight-color: rgba(0, 0, 0, 0); stroke-opacity: 1; stroke-linecap: round; stroke-linejoin: round; -webkit-user-select: text;"></path><path fill="none" stroke="#000000" d="M616,450L605,479L600,495L597,511L596,525L595,539L595,554L595,568L595,583L596,599L596,613L596,629L596,643L596,658L596,674L596,688L596,701L596,711L596,719L596,725L596,730L596,732L597,732L601,732L609,731L629,730L666,730L713,729L762,724" stroke-opacity="1" stroke-width="5" stroke-linecap="round" stroke-linejoin="round" style="-webkit-tap-highlight-color: rgba(0, 0, 0, 0); stroke-opacity: 1; stroke-linecap: round; stroke-linejoin: round; -webkit-user-select: text;"></path><path fill="none" stroke="#000000" d="M714,514L711,528L709,544L706,563L704,583L703,604L703,623L702,641L702,659L702,673L702,687L702,697L702,704L702,709L702,714L702,716L702,717L701,718L699,718L698,718L697,718L695,717L692,716L689,716L686,716L682,716L677,716L671,716L664,716L656,717L641,717L613,717L577,715L517,702L420,686" stroke-opacity="1" stroke-width="5" stroke-linecap="round" stroke-linejoin="round" style="-webkit-tap-highlight-color: rgba(0, 0, 0, 0); stroke-opacity: 1; stroke-linecap: round; stroke-linejoin: round; -webkit-user-select: text;"></path><path fill="none" stroke="#000000" d="M490,520L487,532L486,548L484,568L482,589L482,609L482,629L482,648L482,668L482,686L482,701L482,716L482,730L482,740L482,750L482,756L482,761L482,764L482,766L482,767L482,768L481,768L480,767L478,767L476,767L473,766L467,766L454,765L434,765L404,763L365,760L306,756L245,750L204,745" stroke-opacity="1" stroke-width="5" stroke-linecap="round" stroke-linejoin="round" style="-webkit-tap-highlight-color: rgba(0, 0, 0, 0); stroke-opacity: 1; stroke-linecap: round; stroke-linejoin: round; -webkit-user-select: text;"></path><path fill="none" stroke="#000000" d="M224,658L236,660L246,661L261,663L279,664L296,665L313,666L330,667L349,667L367,668L385,668L403,668L420,669L437,669L455,670L472,671L489,672L507,673L524,674L542,674L560,675L580,675L600,675L623,675L652,675L686,674L732,670" stroke-opacity="1" stroke-width="5" stroke-linecap="round" stroke-linejoin="round" style="-webkit-tap-highlight-color: rgba(0, 0, 0, 0); stroke-opacity: 1; stroke-linecap: round; stroke-linejoin: round; -webkit-user-select: text;"></path><path fill="none" stroke="#000000" d="M660,597L656,614L654,627L652,644L651,662L651,682L651,702L653,724L655,744L657,765L657,784L657,799L657,808" stroke-opacity="1" stroke-width="5" stroke-linecap="round" stroke-linejoin="round" style="-webkit-tap-highlight-color: rgba(0, 0, 0, 0); stroke-opacity: 1; stroke-linecap: round; stroke-linejoin: round; -webkit-user-select: text;"></path><path fill="none" stroke="#000000" d="M715,717L701,718L676,718L637,718L591,718L540,717L484,717L424,717L367,717L322,717" stroke-opacity="1" stroke-width="5" stroke-linecap="round" stroke-linejoin="round" style="-webkit-tap-highlight-color: rgba(0, 0, 0, 0); stroke-opacity: 1; stroke-linecap: round; stroke-linejoin: round; -webkit-user-select: text;"></path><path fill="none" stroke="#000000" d="M406,559L405,578L405,587L405,597L405,608L405,621L405,634L405,644L405,656L405,667L405,678L405,688L406,698L406,708L406,718L406,727L406,735L406,745L406,752L406,760L406,768L406,775L406,782L406,787L406,793L406,798L406,802L406,804L406,806L404,806L402,806L396,806L377,807L343,809L298,811L239,814L183,817L140,818" stroke-opacity="1" stroke-width="5" stroke-linecap="round" stroke-linejoin="round" style="-webkit-tap-highlight-color: rgba(0, 0, 0, 0); stroke-opacity: 1; stroke-linecap: round; stroke-linejoin: round; -webkit-user-select: text;"></path><path fill="none" stroke="#000000" d="M298,595L297,617L295,632L295,651L295,669L295,683L295,697L295,706L295,713L295,718L295,722L295,725L295,726L295,727L296,727L297,728L298,728L300,728L302,728L305,728L309,728L315,728L322,728L332,728L342,727L356,726L373,724L393,722L423,718L460,713L511,705L580,693" stroke-opacity="1" stroke-width="5" stroke-linecap="round" stroke-linejoin="round" style="-webkit-tap-highlight-color: rgba(0, 0, 0, 0); stroke-opacity: 1; stroke-linecap: round; stroke-linejoin: round; -webkit-user-select: text;"></path><path fill="none" stroke="#000000" d="M362,442L358,464L356,478L355,496L355,512L355,528L355,544L355,559L355,575L355,590L354,605L353,619L353,631L353,642L352,653L352,661L352,668L352,673L352,678L352,682L352,684L352,686L352,687L351,687L350,687L349,687L346,687L341,687L331,687L316,687L286,687L249,686L201,685L148,682L85,678" stroke-opacity="1" stroke-width="5" stroke-linecap="round" stroke-linejoin="round" style="-webkit-tap-highlight-color: rgba(0, 0, 0, 0); stroke-opacity: 1; stroke-linecap: round; stroke-linejoin: round; -webkit-user-select: text;"></path><path fill="none" stroke="#000000" d="M161,411L158,425L151,471L148,495L146,515L145,536L144,556L144,576L143,595L142,613L141,630L140,644L139,658L139,668L139,678L139,685L139,691L139,697L139,701L139,705L139,708L139,712L139,714L139,716L139,718L139,719L141,720L144,721L154,721L174,721L206,718L244,713L293,707L350,699L415,691L490,686L557,683" stroke-opacity="1" stroke-width="5" stroke-linecap="round" stroke-linejoin="round" style="-webkit-tap-highlight-color: rgba(0, 0, 0, 0); stroke-opacity: 1; stroke-linecap: round; stroke-linejoin: round; -webkit-user-select: text;"></path><path fill="none" stroke="#000000" d="M203,471L203,481L203,516L203,537L205,559L207,580L209,602L211,622L213,641L214,660L215,679L216,694L216,709L217,724L217,736L217,747L217,757L217,765L218,772L218,777L218,781L219,783L219,785L220,785L220,786L221,786L224,786L232,786L259,785L300,782L359,776L431,770L511,765L590,763" stroke-opacity="1" stroke-width="5" stroke-linecap="round" stroke-linejoin="round" style="-webkit-tap-highlight-color: rgba(0, 0, 0, 0); stroke-opacity: 1; stroke-linecap: round; stroke-linejoin: round; -webkit-user-select: text;"></path><path fill="none" stroke="#000000" d="M363,474L363,497L361,517L359,546L358,576L358,605L358,634L358,661L358,688L358,710L358,733L358,753L358,772L358,786L358,799L358,807L358,813L357,817L357,820L356,821L355,821L354,821L353,821L352,821L350,821L349,821L347,821L344,821L339,822L330,823L312,824L283,825L240,823L171,811L91,798" stroke-opacity="1" stroke-width="5" stroke-linecap="round" stroke-linejoin="round" style="-webkit-tap-highlight-color: rgba(0, 0, 0, 0); stroke-opacity: 1; stroke-linecap: round; stroke-linejoin: round; -webkit-user-select: text;"></path><path fill="none" stroke="#000000" d="M284,451L283,462L280,496L277,518L276,540L275,561L275,579L274,594L274,608L273,621L273,630L271,639L270,647L269,653L268,657L267,660L266,662L266,663L265,663L265,664L264,664L263,664L262,664L261,664L259,664L257,664L255,664L252,663L247,662L237,661L218,659L183,656L130,653L45,651" stroke-opacity="1" stroke-width="5" stroke-linecap="round" stroke-linejoin="round" style="-webkit-tap-highlight-color: rgba(0, 0, 0, 0); stroke-opacity: 1; stroke-linecap: round; stroke-linejoin: round; -webkit-user-select: text;"></path><path fill="none" stroke="#000000" d="M69,500L77,503L89,506L108,510L134,515L159,519L184,522L208,524L229,527L250,529L268,532L286,534L300,536L313,538L326,540L338,542L349,544L358,545L366,546L372,546L377,546L380,546L383,545L384,542L385,537L385,529L386,517L387,504L387,486L388,466L389,443L390,413L390,383L391,351L391,317" stroke-opacity="1" stroke-width="5" stroke-linecap="round" stroke-linejoin="round" style="-webkit-tap-highlight-color: rgba(0, 0, 0, 0); stroke-opacity: 1; stroke-linecap: round; stroke-linejoin: round; -webkit-user-select: text;"></path><path fill="none" stroke="#000000" d="M280,233L277,247L275,269L273,291L272,315L272,339L273,366L275,388L277,411L278,433L280,455L281,475L283,493L284,508L285,523L287,537L288,548L289,557L289,566L290,573L290,578L290,583L290,586L290,588L290,590L289,591L288,591L286,591L283,591L279,591L271,591L254,591L232,590L201,589L170,588L134,588L93,587L58,583" stroke-opacity="1" stroke-width="5" stroke-linecap="round" stroke-linejoin="round" style="-webkit-tap-highlight-color: rgba(0, 0, 0, 0); stroke-opacity: 1; stroke-linecap: round; stroke-linejoin: round; -webkit-user-select: text;"></path><path fill="none" stroke="#000000" d="M71,397L81,400L92,400L108,401L127,402L147,403L166,405L184,405L203,406L222,406L238,407L254,407L269,408L283,409L295,410L307,410L317,411L326,411L334,411L341,411L346,411L350,411L353,411L354,410L355,408L356,404L356,400L357,393L357,385L357,375L357,364L357,350L357,336L357,317L356,297L354,275L353,253L351,226L351,198L351,168L351,136" stroke-opacity="1" stroke-width="5" stroke-linecap="round" stroke-linejoin="round" style="-webkit-tap-highlight-color: rgba(0, 0, 0, 0); stroke-opacity: 1; stroke-linecap: round; stroke-linejoin: round; -webkit-user-select: text;"></path><path fill="none" stroke="#000000" d="M305,86L304,99L304,107L305,115L306,121L308,126L310,129L312,133L314,136L317,138L319,140L321,141L324,142L327,143L332,143L337,143L344,144L351,144L361,144L372,144L385,144L397,144L409,144L422,144L435,143L449,142L463,141L479,140L494,140L512,138L526,137L538,135L545,134L547,132L548,130L548,127L548,123L545,116L544,104L544,84L545,57L545,31L545,9L543,-18" stroke-opacity="1" stroke-width="5" stroke-linecap="round" stroke-linejoin="round" style="-webkit-tap-highlight-color: rgba(0, 0, 0, 0); stroke-opacity: 1; stroke-linecap: round; stroke-linejoin: round; -webkit-user-select: text;"></path><path fill="none" stroke="#000000" d="M445,56L442,72L441,87L439,103L438,122L438,143L438,165L438,187L438,208L439,226L440,241L441,256L442,268L442,278L442,286L442,293L442,298L442,303L442,307L442,310L442,311L442,313L442,314L443,314L447,314L455,314L471,314L500,314L535,314L579,314L628,314L682,314L740,314" stroke-opacity="1" stroke-width="5" stroke-linecap="round" stroke-linejoin="round" style="-webkit-tap-highlight-color: rgba(0, 0, 0, 0); stroke-opacity: 1; stroke-linecap: round; stroke-linejoin: round; -webkit-user-select: text;"></path><path fill="none" stroke="#000000" d="M630,133L629,152L627,168L625,189L624,209L624,230L624,251L624,272L624,291L624,310L624,324L624,340L624,354L624,366L624,376L624,385L624,392L624,398L624,403L624,406L624,408L624,410L623,411L622,411L621,411L618,411L616,411L610,410L601,409L587,408L569,406L547,405L515,403L480,401L435,399L372,395L295,391" stroke-opacity="1" stroke-width="5" stroke-linecap="round" stroke-linejoin="round" style="-webkit-tap-highlight-color: rgba(0, 0, 0, 0); stroke-opacity: 1; stroke-linecap: round; stroke-linejoin: round; -webkit-user-select: text;"></path><path fill="none" stroke="#000000" d="M183,195L179,214L176,231L174,253L173,276L173,297L173,318L173,338L173,359L173,379L172,394L172,410L171,424L171,437L170,447L169,457L168,464L167,472L167,476L166,481L166,483L166,486L165,486L165,487L164,487L163,487L161,487L159,487L155,485L150,483L141,481L128,478L114,476L96,474L78,473L57,472L37,470L22,465" stroke-opacity="1" stroke-width="5" stroke-linecap="round" stroke-linejoin="round" style="-webkit-tap-highlight-color: rgba(0, 0, 0, 0); stroke-opacity: 1; stroke-linecap: round; stroke-linejoin: round; -webkit-user-select: text;"></path><path fill="none" stroke="#000000" d="M107,260L106,282L106,298L106,317L106,336L106,354L106,370L106,386L107,399L108,411L109,420L110,429L112,436L114,443L115,448L118,451L119,454L121,456L124,458L126,459L129,460L132,460L136,461L141,461L147,461L154,461L161,461L169,461L176,461L184,461L193,461L200,461L209,461L218,461L227,461L237,460L250,459L268,457L295,454L328,451L370,447L425,444" stroke-opacity="1" stroke-width="5" stroke-linecap="round" stroke-linejoin="round" style="-webkit-tap-highlight-color: rgba(0, 0, 0, 0); stroke-opacity: 1; stroke-linecap: round; stroke-linejoin: round; -webkit-user-select: text;"></path><path fill="none" stroke="#000000" d="M210,316L211,335L211,354L213,381L217,404L221,426L225,447L228,469L231,489L234,507L236,521L238,534L239,544L240,554L241,560L241,564L242,568L242,570L242,571L241,571L240,571L238,571L236,571L231,572L219,572L198,574L166,576L130,577L89,578L49,578L26,578" stroke-opacity="1" stroke-width="5" stroke-linecap="round" stroke-linejoin="round" style="-webkit-tap-highlight-color: rgba(0, 0, 0, 0); stroke-opacity: 1; stroke-linecap: round; stroke-linejoin: round; -webkit-user-select: text;"></path><path fill="none" stroke="#000000" d="M130,437L129,451L129,465L128,482L127,497L127,514L127,529L127,544L127,559L127,573L127,587L127,600L127,610L127,622L127,632L127,641L127,648L127,653L127,658L127,662L128,664L128,665L129,665L129,666L130,666L131,666L133,666L141,665L156,663L174,660L195,658L224,655L256,652L293,647L337,641L387,634L430,629" stroke-opacity="1" stroke-width="5" stroke-linecap="round" stroke-linejoin="round" style="-webkit-tap-highlight-color: rgba(0, 0, 0, 0); stroke-opacity: 1; stroke-linecap: round; stroke-linejoin: round; -webkit-user-select: text;"></path><path fill="none" stroke="#000000" d="M267,475L264,490L263,502L262,516L262,532L262,548L263,563L266,578L268,592L269,605L271,617L271,627L271,637L271,646L271,654L271,662L271,669L271,674L271,679L271,683L271,687L271,690L271,692L271,694L272,695L272,696L273,697L275,697L280,697L293,697L315,695L346,692L380,690L421,686L469,681L521,676L579,672L641,669L695,667" stroke-opacity="1" stroke-width="5" stroke-linecap="round" stroke-linejoin="round" style="-webkit-tap-highlight-color: rgba(0, 0, 0, 0); stroke-opacity: 1; stroke-linecap: round; stroke-linejoin: round; -webkit-user-select: text;"></path><path fill="none" stroke="#000000" d="M483,457L480,475L478,489L477,507L477,522L477,540L477,556L477,572L477,586L477,599L478,610L478,621L478,631L478,640L478,647L478,654L478,659L478,663L478,667L478,669L478,671L478,672L479,673L481,673L482,673L485,674L490,674L500,675L519,675L542,676L575,678L611,678L654,679L702,680L754,680" stroke-opacity="1" stroke-width="5" stroke-linecap="round" stroke-linejoin="round" style="-webkit-tap-highlight-color: rgba(0, 0, 0, 0); stroke-opacity: 1; stroke-linecap: round; stroke-linejoin: round; -webkit-user-select: text;"></path><path fill="none" stroke="#000000" d="M710,378L699,405L693,427L689,451L688,476L688,498L688,521L688,542L688,561L689,577L689,591L689,604L689,613L689,622L688,629L687,633L686,637L685,639L684,640L684,641L683,641L682,641L681,641L679,641L677,641L672,641L664,641L651,640L636,639L616,638L595,636L566,635L533,632L494,628L446,623L389,614L328,603" stroke-opacity="1" stroke-width="5" stroke-linecap="round" stroke-linejoin="round" style="-webkit-tap-highlight-color: rgba(0, 0, 0, 0); stroke-opacity: 1; stroke-linecap: round; stroke-linejoin: round; -webkit-user-select: text;"></path><path fill="none" stroke="#000000" d="M483,313L479,325L476,343L472,370L470,391L468,413L466,436L464,457L463,477L462,495L460,512L458,528L456,541L454,555L451,568L449,579L447,588L445,597L443,604L442,610L441,614L440,619L438,621L438,623L436,624L434,625L432,625L430,625L426,625L417,625L400,624L375,619L347,614L317,609L287,604L259,597L231,586L206,573" stroke-opacity="1" stroke-width="5" stroke-linecap="round" stroke-linejoin="round" style="-webkit-tap-highlight-color: rgba(0, 0, 0, 0); stroke-opacity: 1; stroke-linecap: round; stroke-linejoin: round; -webkit-user-select: text;"></path><path fill="none" stroke="#000000" d="M333,338L331,349L331,366L329,386L328,409L327,431L327,454L327,476L327,498L327,517L327,537L327,556L327,573L326,590L324,603L322,617L321,629L319,640L318,649L317,658L316,665L316,671L315,676L315,680L315,683L315,685L315,687L316,688L318,688L322,689L331,689L346,689L370,689L402,686L438,682L479,677L522,672L569,667L623,665L673,664" stroke-opacity="1" stroke-width="5" stroke-linecap="round" stroke-linejoin="round" style="-webkit-tap-highlight-color: rgba(0, 0, 0, 0); stroke-opacity: 1; stroke-linecap: round; stroke-linejoin: round; -webkit-user-select: text;"></path><path fill="none" stroke="#000000" d="M613,639L607,663L602,680L598,698L594,716L592,732L589,748L588,761L586,775L585,787L584,796L582,804L581,811L579,817L579,821L577,825L577,827L576,829L575,830L575,831L574,832L573,832L572,833L571,833L570,833L567,834L564,834L557,836L546,837L528,838L498,838L459,837L404,833L334,828L265,826L214,824L181,819" stroke-opacity="1" stroke-width="5" stroke-linecap="round" stroke-linejoin="round" style="-webkit-tap-highlight-color: rgba(0, 0, 0, 0); stroke-opacity: 1; stroke-linecap: round; stroke-linejoin: round; -webkit-user-select: text;"></path><path fill="none" stroke="#000000" d="M303,418L298,435L293,451L288,469L284,488L282,505L281,519L281,534L281,547L280,561L278,573L276,584L273,594L270,602L268,610L266,617L264,623L262,627L261,632L259,635L259,637L257,639L256,640L255,640L253,641L251,641L249,641L246,641L241,641L231,639L218,636L200,632L180,629L153,625L124,622L91,620L53,617L17,612L3,605" stroke-opacity="1" stroke-width="5" stroke-linecap="round" stroke-linejoin="round" style="-webkit-tap-highlight-color: rgba(0, 0, 0, 0); stroke-opacity: 1; stroke-linecap: round; stroke-linejoin: round; -webkit-user-select: text;"></path><path fill="none" stroke="#000000" d="M67,373L64,389L63,410L62,437L62,468L62,498L62,527L63,556L65,585L67,612L68,633L69,655L70,674L71,689L73,702L73,711L74,718L74,723L75,727L75,729L76,730L76,731L77,732L79,732L81,732L84,733L92,733L104,734L122,734L145,734L176,731L211,725L253,718L300,708L363,693L433,677" stroke-opacity="1" stroke-width="5" stroke-linecap="round" stroke-linejoin="round" style="-webkit-tap-highlight-color: rgba(0, 0, 0, 0); stroke-opacity: 1; stroke-linecap: round; stroke-linejoin: round; -webkit-user-select: text;"></path><path fill="none" stroke="#000000" d="M183,545L181,563L180,588L178,615L178,642L178,668L178,690L181,711L184,730L187,748L189,765L191,778L191,788L192,796L193,802L193,806L193,808L193,809L192,809L191,809L190,809L188,809L186,809L182,809L175,809L162,811L134,814L100,816L63,817L32,817L11,808L2,794L1,764" stroke-opacity="1" stroke-width="5" stroke-linecap="round" stroke-linejoin="round" style="-webkit-tap-highlight-color: rgba(0, 0, 0, 0); stroke-opacity: 1; stroke-linecap: round; stroke-linejoin: round; -webkit-user-select: text;"></path><path fill="none" stroke="#000000" d="M51,550L51,532L51,519L51,506L51,493L51,480L51,463L49,447L47,427L45,406L43,386L40,368L38,349L36,331L34,313L33,295L33,279L32,264L32,250L32,239L31,229L30,222L30,217L29,213L29,211L31,211L47,212L84,212L139,211L212,207L304,201L398,196" stroke-opacity="1" stroke-width="5" stroke-linecap="round" stroke-linejoin="round" style="-webkit-tap-highlight-color: rgba(0, 0, 0, 0); stroke-opacity: 1; stroke-linecap: round; stroke-linejoin: round; -webkit-user-select: text;"></path><path fill="none" stroke="#000000" d="M162,77L158,91L149,134L149,158L149,180L149,200L150,220L152,240L153,262L154,282L154,298L154,314L154,329L154,342L154,354L154,365L154,375L153,384L153,390L153,394L152,397L152,399L152,401L151,401L150,401L149,402L148,402L146,402L144,402L140,402L127,402L94,400L50,399L5,398" stroke-opacity="1" stroke-width="5" stroke-linecap="round" stroke-linejoin="round" style="-webkit-tap-highlight-color: rgba(0, 0, 0, 0); stroke-opacity: 1; stroke-linecap: round; stroke-linejoin: round; -webkit-user-select: text;"></path><path fill="none" stroke="#000000" d="M241,49L239,62L234,106L231,133L228,160L227,182L226,206L226,228L226,251L226,272L226,290L226,304L226,316L226,327L225,335L225,342L224,347L224,351L223,354L223,356L223,357L223,358L224,358L225,358L229,358L237,357L251,357L273,357L307,356L349,354L398,351L455,347L522,344L587,342" stroke-opacity="1" stroke-width="5" stroke-linecap="round" stroke-linejoin="round" style="-webkit-tap-highlight-color: rgba(0, 0, 0, 0); stroke-opacity: 1; stroke-linecap: round; stroke-linejoin: round; -webkit-user-select: text;"></path><path fill="none" stroke="#000000" d="M329,24L320,84L318,104L317,126L317,147L317,170L317,193L317,215L317,237L317,257L317,272L317,287L317,301L317,313L317,323L316,333L316,340L316,346L316,350L316,353L316,355L316,356L316,357L317,357L320,357L327,357L342,357L367,357L403,356L444,355L490,354L538,353L595,353L651,353" stroke-opacity="1" stroke-width="5" stroke-linecap="round" stroke-linejoin="round" style="-webkit-tap-highlight-color: rgba(0, 0, 0, 0); stroke-opacity: 1; stroke-linecap: round; stroke-linejoin: round; -webkit-user-select: text;"></path><path fill="none" stroke="#000000" d="M446,82L469,94L494,103L520,110L546,114L572,118L593,120L613,122L628,123L642,123L651,124L659,124L667,125L674,125L681,126L687,126L692,126L696,126L699,126L700,124L701,122L701,119L701,115L699,109L697,102L696,92L694,80L694,68L692,56L691,47L691,36L690,26L690,13L690,-4" stroke-opacity="1" stroke-width="5" stroke-linecap="round" stroke-linejoin="round" style="-webkit-tap-highlight-color: rgba(0, 0, 0, 0); stroke-opacity: 1; stroke-linecap: round; stroke-linejoin: round; -webkit-user-select: text;"></path><path fill="none" stroke="#000000" d="M597,21L588,73L586,93L585,113L585,133L585,153L586,174L588,191L589,206L589,220L590,233L590,243L591,252L591,260L592,267L592,274L592,279L592,283L592,286L592,288L592,290L592,291L591,291L589,291L587,291L585,291L580,291L569,291L550,291L518,287L476,283L422,279L357,277L282,277L207,279" stroke-opacity="1" stroke-width="5" stroke-linecap="round" stroke-linejoin="round" style="-webkit-tap-highlight-color: rgba(0, 0, 0, 0); stroke-opacity: 1; stroke-linecap: round; stroke-linejoin: round; -webkit-user-select: text;"></path><path fill="none" stroke="#000000" d="M220,156L261,162L289,166L314,169L340,172L365,174L386,176L410,178L433,178L455,179L474,179L491,179L507,179L523,180L538,180L553,181L568,182L582,183L595,183L607,184L619,185L632,186L643,187L656,187L668,188L682,189L697,190L717,191L745,191" stroke-opacity="1" stroke-width="5" stroke-linecap="round" stroke-linejoin="round" style="-webkit-tap-highlight-color: rgba(0, 0, 0, 0); stroke-opacity: 1; stroke-linecap: round; stroke-linejoin: round; -webkit-user-select: text;"></path><path fill="none" stroke="#000000" d="M592,17L579,57L575,77L573,95L572,109L572,128L572,146L572,165L572,179L574,193L575,205L577,213L577,221L579,228L579,233L580,236L580,239L580,240L580,241L579,241L578,240L576,240L574,239L571,239L566,238L560,238L552,238L541,238L526,238L506,238L477,238L443,236L397,233L338,228" stroke-opacity="1" stroke-width="5" stroke-linecap="round" stroke-linejoin="round" style="-webkit-tap-highlight-color: rgba(0, 0, 0, 0); stroke-opacity: 1; stroke-linecap: round; stroke-linejoin: round; -webkit-user-select: text;"></path><path fill="none" stroke="#000000" d="M454,69L453,80L452,97L450,117L447,140L445,167L443,189L443,212L443,236L445,257L448,277L452,294L455,309L456,322L457,335L458,345L458,357L458,367L458,375L459,383L459,390L459,397L459,403L460,410L460,417L460,423L462,430L463,436L464,443L466,449L468,458L469,466L470,475L472,485L472,497L473,510L473,525L473,539L473,555L473,570L473,585L473,600L472,617L470,637" stroke-opacity="1" stroke-width="5" stroke-linecap="round" stroke-linejoin="round" style="-webkit-tap-highlight-color: rgba(0, 0, 0, 0); stroke-opacity: 1; stroke-linecap: round; stroke-linejoin: round; -webkit-user-select: text;"></path><path fill="none" stroke="#000000" d="M325,505L328,505L333,509L339,512L346,516L355,520L366,523L378,526L390,529L402,531L414,532L424,534L436,535L449,536L462,538L475,540L489,542L503,544L517,545L531,546L546,547L560,549L574,550L587,551L600,552L612,553L622,554L633,554L643,554L654,554L667,554L680,554L698,554L719,554L752,554" stroke-opacity="1" stroke-width="5" stroke-linecap="round" stroke-linejoin="round" style="-webkit-tap-highlight-color: rgba(0, 0, 0, 0); stroke-opacity: 1; stroke-linecap: round; stroke-linejoin: round; -webkit-user-select: text;"></path><path fill="none" stroke="#000000" d="M549,372L543,398L541,411L538,428L536,444L534,458L534,473L533,486L533,499L533,510L533,521L533,532L533,542L533,552L533,562L533,569L533,577L533,583L533,588L533,593L533,596L533,598L533,600L533,601L531,601L529,601L526,601L520,601L505,601L475,601L435,600L381,598L309,597L228,597" stroke-opacity="1" stroke-width="5" stroke-linecap="round" stroke-linejoin="round" style="-webkit-tap-highlight-color: rgba(0, 0, 0, 0); stroke-opacity: 1; stroke-linecap: round; stroke-linejoin: round; -webkit-user-select: text;"></path><path fill="none" stroke="#000000" d="M200,372L195,398L192,414L191,430L190,445L190,461L190,477L190,491L190,505L190,516L190,527L190,538L190,547L189,556L188,563L188,569L187,573L187,578L187,581L186,583L186,584L186,585L185,585L184,585L183,585L182,585L181,585L178,585L176,585L171,585L157,585L126,585L88,585L47,585L15,583L3,578" stroke-opacity="1" stroke-width="5" stroke-linecap="round" stroke-linejoin="round" style="-webkit-tap-highlight-color: rgba(0, 0, 0, 0); stroke-opacity: 1; stroke-linecap: round; stroke-linejoin: round; -webkit-user-select: text;"></path><path fill="none" stroke="#000000" d="M68,179L68,221L68,243L67,265L67,286L65,305L65,320L65,334L65,345L65,355L65,363L65,370L65,376L65,381L66,385L67,388L68,390L69,392L70,393L71,394L71,395L73,396L74,396L75,397L77,397L79,398L83,398L87,399L93,400L103,401L115,402L129,402L148,403L175,403L210,401L258,396L323,389L409,381L511,375L632,375" stroke-opacity="1" stroke-width="5" stroke-linecap="round" stroke-linejoin="round" style="-webkit-tap-highlight-color: rgba(0, 0, 0, 0); stroke-opacity: 1; stroke-linecap: round; stroke-linejoin: round; -webkit-user-select: text;"></path></svg>