<svg height="874" version="1.1" width="768" xmlns="http://www.w3.org/2000/svg" xmlns:xlink="http://www.w3.org/1999/xlink" style="overflow: hidden; position: relative; -webkit-user-select: text;"><desc style="-webkit-tap-highlight-color: rgba(0, 0, 0, 0); -webkit-user-select: text;">Created with Raphaël 2.2.0</desc><defs style="-webkit-tap-highlight-color: rgba(0, 0, 0, 0); -webkit-user-select: text;"></defs><path fill="none" stroke="#000000" d="M121,85L124,84L126,84L127,84L130,84L133,84L135,84L138,84L142,84L144,84L147,83L150,83L154,83L157,83L160,83L163,83L165,82L168,82L170,82L172,82L174,82L177,82L180,82L183,82L186,82L190,82L193,81L196,81L199,81L203,81L206,80L209,80L213,80L216,80L219,80L222,80L224,80L226,79L228,79L230,79L232,79L234,79L236,79L237,79L239,79L240,79L242,78L243,78L244,78L245,78L246,78L247,78L249,78L250,78L251,78L252,78L253,78L254,78L256,78L258,78L259,78L260,78L261,78L262,78L263,78L264,78L265,78L266,78L267,78L268,78L269,78L270,79L271,79L271,80L272,80L273,81L273,82L274,83L275,84L275,85L276,86L276,87L276,88L276,89L276,90L276,91L276,92L276,93L276,94L276,95L276,96L276,97L276,98L275,98L274,99L273,99L272,100L271,100L271,101L270,102L269,102L269,103L268,103L268,104L267,105L267,106L267,107L267,109L267,111L267,112L267,113L267,114L267,116L267,117L268,119L269,120L271,121L273,122L275,123L277,124L280,125L283,125L285,126L287,126L289,126L291,126L293,125L294,123L295,121L295,119L295,117L295,115L295,113L295,111L295,110L294,109L293,108L292,107L291,106L291,105L290,104L290,102L290,101L290,100L290,99L290,98L290,97L291,96L293,95L295,95L297,95L299,94L301,94L303,94L305,94L307,94L310,94L313,94L316,94L318,94L321,94L323,94L326,94L328,94L331,94L333,94L336,94L338,94L340,94L342,94L344,94L347,94L349,94L351,94L353,94L355,94L357,94L359,94L361,94L363,94L365,94L366,94L368,94L370,94L371,94L373,94L375,94L376,94L378,94L379,94L380,94L382,94L383,94L385,94L386,94L388,93L389,93L390,93L392,93L393,93L394,93L395,93L397,93L398,93L399,93L400,93L402,93L403,92L404,92L405,92L406,92L407,92L409,92L410,92L411,92L412,92L414,92L416,92L417,92L418,92L419,92L420,92L421,92L423,92L424,92L426,92L427,92L429,92L430,92L431,92L432,92L433,92L434,92L435,92L436,92L437,92L438,92L439,92L440,92L441,92L441,91L442,91L443,91L444,91L445,91L446,91L447,91L448,91L449,91L450,91L451,91L452,91L453,91L454,91L455,91L456,91L457,91L458,91L459,91L460,91L461,91L462,91L463,91L464,91L465,91L466,91L467,91L468,91L469,91L470,91L471,91L472,91L473,91L474,91L475,91L476,91L477,91L478,91L480,91L481,91L482,91L483,91L484,91L485,91L485,90L486,90L487,90L488,90L489,90L490,90L491,90L492,90L493,90L494,90L495,90L496,90L497,90L498,90L499,90L500,90L501,90L502,90L503,90L504,90L505,90L506,90L507,90L508,90L509,90L510,90L511,90L512,90L513,90L514,90L515,90L516,90L517,90L518,90L519,90L520,90L521,90L522,90L523,90L524,90L525,90L526,90L527,90L528,90L529,90L530,90L531,90L532,90L532,89L533,89L534,89L535,89L536,89L537,89L538,89L539,89L540,89L541,89L542,89L543,89L543,88L544,88L545,88L546,88L547,88L548,88L549,88L550,88L551,88L552,88L553,88L554,88L555,88L555,87L556,87L557,87L558,87L559,87L560,87L561,87L562,87L563,87L564,87L565,87L566,87L567,87L568,87L569,87L570,87L571,87L572,87L573,87L574,87L575,87L576,87L577,87L578,87L579,88L579,89L579,90L580,91L580,92L580,93L580,94L580,95L580,96L579,97L579,98L577,99L576,99L575,100L574,101L573,101L572,102L571,103L570,104L569,106L568,107L567,109L566,110L565,112L565,114L565,115L565,117L565,119L565,121L565,123L565,124L565,126L566,127L567,128L570,129L572,130L575,130L578,131L582,131L584,131L587,131L589,131L590,131L591,128L591,126L592,124L592,122L592,121L592,119L592,117L591,116L590,114L590,113L590,111L590,110L590,109L590,107L590,106L590,104L591,103L592,102L595,100L597,99L599,99L601,98L603,98L605,97L607,97L609,97L611,97L613,97L615,97L618,97L620,97L622,97L625,97L627,97L628,97L630,97L632,97L634,97L636,97L638,97L639,97L641,97L643,97L644,97L646,97L647,97L649,97L651,97L652,97L654,97L655,97L656,97L657,97L659,97L660,97L661,97L662,97L664,97L665,97L666,97L667,97L668,97L669,97L671,97L672,97L673,97L674,97L675,97L677,97L679,97L680,97L681,97L682,97L683,97L684,97L685,97L686,97L687,97L688,97L689,97L690,97L691,97L692,97L693,97L694,97L695,97L696,97L697,97L698,97L699,97L700,97L701,97L702,97L703,97L704,97L705,97L706,97L707,97L708,97L709,97L710,97L711,97L712,97L713,97L714,97L715,97L716,97L717,97L718,97L719,97L720,97L721,97L722,97L723,97L724,97L725,97L726,97L727,97L728,97L729,97L730,97L731,97L732,97L733,97L734,97L735,97L736,97L737,97L738,97L739,97L740,97L741,97L741,98L742,98L743,98L744,98L744,99L745,99L746,99L747,99L748,100L749,100L750,100L750,101L751,101L752,101L752,102L753,102L754,102L755,102L756,103L757,103L757,104L758,104L759,104L759,105L760,106L761,106L761,107L762,107L762,108L762,109L763,109L763,110L764,110L764,111L764,112L764,113L764,114L764,115L764,116L764,117L764,118L764,119L764,120L764,121L764,122L764,123L763,124L762,124L760,125L759,125L756,126L753,126L750,126L746,126L742,126L738,126L734,126L731,126L728,126L725,126L723,126L720,126L718,126L716,126L714,126L713,126L711,126L709,126L708,126L706,126L704,126L703,126L702,126L701,126L700,126L699,126L698,126L697,126L696,126L695,126L694,126L693,126L691,126L689,126L687,126L686,126L684,126L683,126L682,126L681,126L680,126L679,126L678,126L677,126L676,126L675,126L674,126L673,126L672,126L671,126L670,126L669,126L668,126L667,126L666,126L665,126L664,126L663,126L662,126L661,126L660,126L659,126L658,126L657,126L656,126L655,126L654,126L653,126L652,126L651,126L650,126L649,126L648,126L647,126L646,126L645,126L644,126L643,126L642,126L641,126L640,126L639,126L638,126L637,126L637,127L636,127L635,128L634,128L634,129L633,129L633,130L632,131L631,131L631,132L630,132L630,133L629,134L629,135L628,136L628,137L628,138L628,139L628,140L628,141L628,143L628,145L628,146L628,148L628,149L629,151L629,153L630,154L631,156L631,157L632,159L633,161L633,162L633,164L634,166L634,167L634,169L634,170L634,172L633,173L630,174L628,175L626,176L623,177L620,177L617,177L614,177L611,177L609,177L605,177L601,176L598,174L594,172L590,170L586,167L580,166L575,165L571,165L566,164L562,164L559,164L556,164L554,165L552,167L551,168L550,170L548,172L547,174L545,176L543,177L540,179L536,181L533,182L529,183L525,184L521,184L518,184L516,184L514,184L512,184L511,184L510,183L509,182L509,180L509,179L509,178L509,177L509,176L509,175L509,174L509,173L509,172L509,171L510,170L510,169L511,167L513,166L515,164L517,162L519,161L521,159L523,158L524,157L525,155L526,154L527,153L527,152L528,151L528,150L528,149L529,148L529,147L529,146L529,145L529,144L529,143L528,143L528,142L527,142L526,141L524,141L523,140L521,140L520,140L519,140L518,140L516,140L515,140L514,140L513,140L511,140L509,140L508,140L506,140L505,140L503,140L502,140L501,140L500,140L499,140L498,140L497,140L496,140L495,140L494,140L493,140L492,140L491,140L490,141L489,141L488,141L487,141L486,141L485,141L484,142L483,142L482,142L481,142L480,142L479,142L478,142L477,142L476,143L475,143L474,143L473,143L472,143L471,143L470,143L469,143L468,143L467,143L467,144L466,144L465,144L464,144L463,144L462,145L461,145L460,145L459,145L458,145L457,145L456,145L455,145L454,145L454,146L453,146L452,146L451,146L450,146L449,146L448,146L448,147L447,147L446,147L445,147L444,147L443,147L442,147L441,147L440,147L439,147L438,147L438,148L437,148L436,148L435,148L434,148L434,149L433,149L432,149L431,149L430,150L429,150L428,150L427,150L426,150L426,151L425,151L424,151L423,152L422,152L421,152L421,153L420,153L419,153L418,153L418,154L417,154L416,154L416,155L415,155L414,155L413,156L412,156L411,156L411,157L410,157L409,157L408,157L407,158L406,158L405,159L404,159L403,160L402,160L401,160L400,160L400,161L399,161L398,161L398,162L397,162L396,162L395,163L394,164L393,164L392,164L392,165L391,165L390,165L390,166L389,166L388,167L387,167L386,168L385,168L385,169L384,169L383,169L383,170L382,170L381,171L380,171L380,172L379,172L378,172L378,173L377,173L376,173L375,174L374,174L373,174L372,175L371,175L370,175L370,176L369,176L368,176L367,176L366,176L365,176L364,176L363,176L362,176L361,176L361,175L360,173L360,171L359,169L358,167L358,165L358,163L357,161L357,160L357,159L357,158L357,157L357,156L357,155L357,154L357,153L356,152L356,151L356,150L355,149L354,149L353,148L352,148L351,148L349,148L347,148L344,148L341,148L338,148L335,148L332,149L330,150L328,150L327,152L326,153L326,155L326,158L326,162L328,166L330,171L331,174L332,179L333,183L333,187L332,190L329,194L325,195L321,197L317,197L312,197L307,197L302,196L296,192L293,189L290,185L288,181L287,177L287,173L287,170L287,167L287,164L285,162L281,160L276,159L269,159L261,159L252,160L244,164L239,168L235,172L234,176L234,181L236,186L240,191L245,197L248,201L249,206L250,211L250,216L250,221L245,225L239,228L233,230L229,232L224,233L220,233L218,233L216,233L215,233L214,233L212,233L208,233L200,233L188,233L175,233L165,233L157,233L151,233L146,233L143,233L142,233L141,233L141,232L140,232L139,232L139,231L139,230L139,229L139,228L139,227L139,226L139,225L139,224L140,222L142,219L145,216L148,213L152,210L156,206L160,203L164,200L167,198L170,195L172,194L174,192L176,191L177,190L178,189L179,188L180,188L181,187L182,186L183,185L183,184L184,183L185,183L186,182L187,181L187,180L188,179L189,179L189,178L190,177L191,177L191,176L192,175L193,174L194,173L195,172L196,171L196,170L197,170L197,169L198,169L198,168L199,167L200,167L200,166L200,165L201,165L201,164L202,164L202,163L203,162L203,161L204,160L205,160L205,159L205,158L206,158L206,157L207,157L207,156L208,155L209,155L209,154L210,154L210,153L211,153L211,152L212,152L212,151L213,150L214,150L214,149L215,148L216,147L217,146L217,145L218,145L219,144L220,144L220,143L221,143L222,142L222,141L223,141L223,140L224,140L225,140L225,139L226,138L227,137L228,136L229,135L230,134L230,133L231,133L232,133L232,132L232,131L233,131L234,130L234,129L234,128L234,127L235,126L235,125L235,124L235,123L235,122L235,121L235,120L234,119L232,118L231,116L229,115L226,113L222,111L218,110L213,109L207,108L201,107L194,106L186,106L179,106L172,106L166,105L159,105L154,105L148,105L143,104L138,104L133,104L128,104L124,103L120,103L116,102L112,102L109,102L105,102L103,102L100,102L98,102L97,102L96,102L96,103L95,104L95,106L94,107L93,109L92,111L91,113L91,114L90,116L89,117L88,118L88,119L87,120L87,121L86,121L86,122L85,122L84,123L83,123L82,123L80,123L77,123L74,123L71,123L68,122L65,121L63,119L61,118L59,117L59,115L59,114L59,112L59,110L59,108L60,106L60,104L60,103L60,102L59,101L56,100L52,99L49,99L46,99L44,99L42,99L41,99L40,100L40,102L40,105L40,109L41,114L42,119L44,126L46,133L48,141L49,149L50,156L50,164L51,171L51,177L51,182L51,187L51,192L51,196L51,199L51,201L51,203L50,204L50,205L50,206L53,204L59,201L65,197L71,193L79,188L83,184L87,180L90,176L91,172L93,168L93,164L93,160L93,156L93,153L93,149L93,146L94,143L96,140L100,137L106,134L113,132L121,131L128,130L134,130L140,130L144,131L146,133L147,137L148,141L148,145L148,155L148,160L147,165L146,168L144,170L143,172L142,173L140,174L139,174L138,174L137,174L136,174L134,174L133,174L131,174L130,174L127,175L125,175L122,175L120,176L117,176L114,177L111,177L109,177L107,178L105,178L105,179L104,179L103,179L103,180L102,181L102,182L101,182L101,183L101,184L101,185L101,186L101,187L101,188L101,189L101,190L101,192L101,194L101,196L101,198L101,201L101,203L101,205L101,207L101,209L101,211L101,212L101,213L101,215L101,216L101,218L101,219L101,221L101,222L101,223L101,225L101,226L101,228L101,229L101,230L101,231L101,232L101,233L101,234L101,235L101,236L101,237L101,238L101,239L101,240L101,241L101,242L101,243L101,244L101,245L101,246L101,247L101,248L101,249L101,250L101,251L101,252L101,253L101,254L101,255L101,256L101,257L101,258L101,259L101,260L101,261L101,262L101,263L101,264L101,265L101,266L101,267L101,268L101,269L101,270L101,271L101,272L101,273L101,274L101,275L101,276L101,277L101,278L101,279L101,280L101,281L101,282L101,283L101,284L101,285L101,286L101,287L101,288L101,289L101,290L101,291L101,292L101,293L101,294L101,295L101,296L102,296L103,296L104,296L105,296L105,295L106,294L107,294L107,293L108,292L108,291L109,290L110,289L111,288L112,286L113,286L114,285L115,284L116,283L118,282L119,282L120,281L121,281L122,281L123,281L124,281L125,281L126,281L127,281L128,281L129,281L130,281L130,282L131,282L131,283L132,283L132,284L132,285L132,286L132,287L132,288L132,289L132,290L132,291L132,292L132,294L132,295L132,297L132,298L132,300L132,302L132,304L132,306L132,307L132,308L132,309L133,311L134,311L135,312L136,312L137,312L138,312L139,312L140,311L140,309L140,307L140,305L140,302L140,300L140,297L140,295L139,292L139,290L139,288L139,286L140,284L143,283L147,281L151,280L155,279L159,278L161,277L164,277L165,276L165,274L166,273L166,271L166,269L165,266L163,263L161,261L159,258L157,256L155,254L154,252L153,252L153,250L153,249L153,248L154,248L156,248L157,247L159,247L161,247L162,247L164,247L165,247L166,247L167,247L167,248L168,248L169,250L169,252L169,254L169,256L169,258L169,260L170,263L170,265L170,268L170,270L170,273L170,275L170,278L170,280L170,281L170,283L170,285L170,286L170,288L170,289L170,290L170,291L170,292L170,293L170,294L171,294L172,295L173,296L175,297L178,298L181,299L183,300L186,301L189,301L192,302L194,303L195,304L196,305L198,306L198,307L199,308L200,310L200,311L200,312L200,313L200,314L200,315L200,317L201,318L201,320L201,321L201,322L201,323L201,324L201,325L201,326L201,327L201,328L201,329L201,330L202,331L202,332L202,333L202,334L203,335L203,336L203,337L203,338L204,339L204,340L204,341L204,342L205,342L205,343L205,344L205,345L205,346L206,347L206,348L207,349L207,350L207,351L207,352L208,352L208,353L208,354L208,355L208,356L209,357L209,358L210,359L210,360L210,361L210,362L211,363L211,364L211,365L211,366L212,366L212,367L212,368L212,369L213,370L213,371L214,371L214,372L215,372L215,373L215,374L216,374L217,374L217,375L218,376L219,376L220,376L221,376L222,376L223,376L224,376L225,376L226,375L226,374L227,373L227,371L227,370L228,368L228,366L228,364L228,362L228,360L228,358L228,356L228,354L228,352L228,350L227,348L227,346L226,344L225,342L225,340L224,338L224,336L223,335L223,333L222,332L222,331L222,330L222,329L222,328L222,327L221,326L221,325L221,324L221,323L221,322L221,321L221,320L221,319L220,318L220,317L220,316L220,315L220,314L220,313L220,312L220,311L219,310L219,309L219,308L218,307L218,306L218,305L217,305L217,304L217,303L217,302L216,302L216,301L215,300L215,299L214,298L213,297L212,296L210,295L209,294L208,293L206,292L205,291L203,291L202,290L200,290L199,289L198,289L197,288L195,288L194,287L193,287L192,287L192,286L191,286L191,285L190,284L190,283L189,281L189,279L188,276L188,273L188,270L188,267L188,264L188,262L188,260L188,259L188,258L188,257L190,257L192,256L195,256L198,255L203,255L208,255L213,255L218,255L224,255L229,255L234,255L239,255L243,255L247,255L251,255L254,255L258,255L260,255L263,255L264,254L266,253L267,252L268,250L269,249L270,247L270,245L270,243L270,240L270,237L270,235L270,232L270,229L269,226L268,224L267,221L266,219L265,216L264,214L264,212L263,210L263,208L262,206L261,204L261,202L259,200L259,198L258,196L257,194L256,192L256,191L255,189L254,187L254,185L254,183L253,181L251,175L251,173L250,172L250,170L250,167L249,166L249,165L249,163L249,162L249,160L249,159L249,157L249,156L249,155L249,154L249,153L249,151L249,150L249,149L249,148L249,147L250,147L251,147L252,147L253,148L254,151L254,155L256,160L257,165L258,174L259,182L261,191L262,200L264,208L266,216L267,223L269,230L270,237L271,243L273,249L274,253L275,257L276,261L277,263L277,265L278,267L278,268L278,269L276,269L275,269L273,269L272,269L270,270L268,272L267,274L266,276L266,277L266,279L266,280L266,281L268,281L271,282L273,284L276,285L277,286L279,288L280,290L281,292L281,294L281,296L281,297L281,299L280,301L278,303L276,304L274,305L273,306L271,306L269,307L266,307L263,307L259,306L256,304L252,301L249,298L245,294L242,291L240,288L237,286L236,285L235,285L235,287L235,290L236,293L238,296L239,300L242,303L244,306L246,308L248,309L251,310L254,310L259,310L264,310L269,308L275,307L281,305L286,305L292,305L299,305L306,305L312,305L317,305L320,305L321,305L322,305L320,304L317,301L312,297L307,291L302,285L298,277L293,270L290,263L289,257L288,253L286,249L285,245L285,243L284,240L283,238L283,237L282,236L282,235L282,234L282,233L282,232L283,230L287,229L292,227L298,224L304,222L309,219L313,218L317,216L319,216L321,215L322,214L322,213L323,212L323,211L324,210L324,209L325,209L326,211L326,212L326,214L327,217L327,220L327,223L328,228L329,232L330,236L331,240L332,243L333,247L334,250L334,252L335,255L336,257L336,259L337,261L337,262L338,263L339,264L339,265L339,266L340,267L341,267L341,268L342,268L342,269L343,269L344,269L345,270L346,270L347,270L348,270L349,270L350,270L351,270L352,270L353,270L354,270L356,269L357,268L358,267L360,266L362,265L365,263L367,262L369,260L372,259L374,258L376,257L378,256L379,255L381,255L382,254L383,254L385,254L386,253L387,253L388,253L389,253L390,253L391,253L392,253L392,254L392,255L392,257L392,258L392,259L392,261L392,263L392,264L392,266L392,268L392,269L392,271L392,272L392,274L392,275L392,276L392,277L392,278L392,279L392,280L392,281L392,282L392,283L392,284L392,285L392,286L392,287L392,288L392,289L392,290L392,291L392,292L392,293L393,293L393,294L393,295L393,296L394,296L394,297L395,297L396,297L396,298L397,298L398,298L399,298L400,298L401,298L402,298L403,298L404,298L405,298L406,298L407,298L408,298L409,298L410,298L411,298L412,298L413,298L414,298L415,298L417,298L418,298L419,298L420,298L421,298L422,298L423,298L424,298L426,299L428,299L429,299L430,299L431,300L432,300L434,301L435,301L436,302L437,302L438,303L439,303L440,303L440,304L441,304L441,305L442,305L443,305L443,306L444,306L445,306L445,307L446,307L446,308L447,308L448,308L448,309L449,309L450,310L451,310L451,311L452,311L453,311L453,312L454,312L455,313L456,313L457,313L458,314L459,314L460,314L460,315L461,315L462,315L463,315L464,315L465,315L466,315L467,315L468,315L469,315L470,315L471,315L472,315L473,315L474,315L475,315L476,315L477,315L478,315L479,315L480,315L481,315L481,314L482,314L482,313L483,313L484,313L484,312L485,312L485,311L486,311L486,310L487,310L487,309L487,308L488,308L488,307L489,307L489,306L490,306L490,305L490,304L490,303L491,303L491,302L491,301L492,301L492,300L492,299L492,298L492,297L492,296L492,295L492,294L492,293L492,292L492,291L492,290L492,289L492,288L492,287L492,286L492,285L492,284L491,284L491,283L490,282L490,281L489,280L489,279L488,279L488,278L487,277L487,276L486,275L485,275L485,274L484,274L484,273L483,273L482,272L481,272L480,271L479,270L477,270L475,269L474,269L471,268L468,268L465,267L462,267L457,267L452,267L447,267L442,267L436,267L426,269L421,269L417,270L413,272L410,272L407,273L403,273L401,273L399,273L397,273L395,273L393,271L390,269L388,267L386,265L384,263L382,260L378,253L375,247L374,244L373,241L372,239L371,236L370,234L368,230L368,228L366,226L366,225L365,223L364,222L363,221L363,219L363,218L362,216L361,215L361,214L361,213L361,212L361,211L361,210L361,209L361,208L361,207L361,206L361,205L361,204L361,203L361,202L361,201L361,200L361,199L361,197L362,196L363,194L365,189L366,186L367,183L368,179L368,176L369,172L370,163L371,159L371,155L372,150L373,145L375,135L376,130L377,126L378,120L380,116L382,111L383,107L385,102L387,98L388,94L392,87L393,83L395,81L395,80L397,79L398,79L399,79L400,80L400,82L400,84L401,86L401,89L401,92L401,96L401,99L401,104L401,108L400,113L399,117L394,126L391,131L388,136L386,140L384,143L382,147L380,150L378,157L376,160L375,162L374,165L373,167L372,170L371,174L371,176L370,178L370,180L370,182L370,184L373,187L379,189L387,190L395,192L404,193L411,194L417,195L425,197L427,199L428,200L429,202L429,204L429,206L426,211L423,213L420,214L417,215L414,216L411,216L408,216L404,216L398,216L396,216L394,216L394,217L394,218L394,219L394,221L395,221L395,222L396,223L397,223L398,224L399,225L400,226L400,227L402,228L404,229L405,230L406,230L407,231L409,232L411,233L413,233L416,234L421,235L424,235L426,235L428,235L430,235L431,235L432,235L432,233L433,231L434,227L434,225L434,223L434,221L434,219L434,217L434,215L434,211L434,210L433,208L432,207L431,206L430,203L429,201L429,200L429,198L428,196L428,194L427,191L427,190L427,189L427,187L427,186L428,186L429,185L430,185L432,185L434,184L436,184L438,183L441,183L445,182L446,182L448,182L449,182L450,182L452,182L453,182L453,184L453,186L453,187L453,188L453,189L453,191L453,193L453,195L453,198L453,200L454,205L454,207L454,209L454,211L454,215L455,217L455,218L455,219L455,221L455,222L456,224L456,225L457,226L458,227L459,228L460,228L461,228L462,229L463,229L465,230L467,230L468,230L471,230L473,230L476,230L478,230L480,230L482,230L485,230L486,230L488,231L489,231L490,232L491,232L492,233L493,233L493,234L494,235L494,236L495,237L495,238L495,240L496,241L496,242L496,243L496,244L496,245L496,246L496,247L496,248L496,249L496,250L496,251L497,252L497,253L498,253L499,254L500,254L501,254L502,254L503,254L504,254L507,255L509,255L511,255L513,255L518,255L520,256L522,256L524,257L525,257L527,258L528,259L528,260L528,261L528,262L528,263L528,264L528,267L528,268L528,269L528,271L528,272L528,275L528,277L528,278L528,279L528,282L528,283L528,284L528,285L528,287L528,288L528,289L528,290L528,291L528,292L528,293L528,294L528,295L529,295L530,296L531,296L532,296L533,296L534,296L535,296L536,296L537,296L538,296L539,297L540,297L541,297L543,297L545,297L546,297L548,297L553,297L555,297L558,297L560,297L562,297L567,297L569,298L571,298L573,298L577,298L578,298L580,298L581,299L584,299L586,299L587,299L589,299L591,299L592,299L593,299L594,299L595,299L597,299L598,299L599,299L600,299L601,299L602,299L603,299L604,299L605,299L606,299L607,299L608,299L609,299L610,299L611,299L612,299L613,299L614,299L615,299L616,299L617,299L618,299L619,299L620,299L621,299L622,299L623,299L624,299L625,299L626,299L627,299L628,299L629,299L630,299L631,299L632,299L633,299L634,299L635,299L636,299L637,299L638,299L639,299L640,299L641,299L641,298L642,298L643,298L644,298L645,298L646,298L647,298L648,298L649,298L650,298L651,298L651,297L652,297L653,297L654,297L655,297L656,297L656,296L657,296L658,296L659,296L660,296L661,296L662,296L663,296L663,295L664,295L665,295L666,295L667,295L668,295L669,294L670,294L671,294L672,294L673,294L674,294L675,294L676,294L677,294L678,294L679,294L679,295L680,295L681,296L682,296L682,297L683,297L683,298L683,299L683,300L683,301L683,302L683,303L683,306L683,312L683,315L683,319L683,327L683,331L683,335L682,338L680,345L679,348L678,351L675,354L674,355L672,357L671,357L669,358L668,358L666,359L665,359L663,359L662,359L660,359L659,359L658,359L657,359L655,359L654,359L653,359L652,359L650,359L647,359L645,358L644,357L643,357L641,354L640,353L639,352L638,349L638,347L637,344L637,342L636,336L636,333L636,330L636,327L636,320L638,314L638,311L639,308L640,305L642,299L643,297L643,294L644,290L645,289L645,286L645,285L644,284L643,284L641,284L640,284L637,284L635,283L633,283L631,283L627,283L625,283L620,283L618,283L616,283L614,283L610,283L607,284L606,285L606,286L604,289L604,290L602,294L602,296L601,298L601,300L601,305L600,307L600,309L600,313L600,315L600,319L600,320L600,322L600,326L600,327L600,329L600,330L600,332L600,334L600,337L600,338L600,340L600,341L600,345L600,346L600,348L600,351L600,352L600,354L600,356L600,357L600,359L600,360L600,362L600,364L600,365L600,366L600,368L600,369L600,370L600,371L600,372L600,373L600,374L600,375L600,376L600,377L600,378L600,379L600,380L600,381L600,382L600,383L600,384L600,385L600,386L600,387L600,388L600,389L600,390L600,391L600,392L600,393L600,394L600,395L600,396L600,397L600,398L600,399L599,399L599,400L598,400L597,401L596,401L595,402L594,402L593,402L592,403L591,403L589,403L586,403L582,404L579,404L576,404L570,404L567,404L564,404L562,404L557,404L555,404L553,404L549,404L547,404L544,404L543,404L542,404L541,404L541,403L541,402L541,401L541,399L541,396L541,394L541,391L541,387L541,385L541,383L541,379L541,376L536,372L531,371L524,371L521,371L519,371L516,371L516,372L516,373L516,375L516,379L516,381L515,386L515,391L515,393L515,396L515,400L515,401L515,405L515,407L514,410L514,411L514,412L512,414L511,414L509,415L508,415L507,415L504,415L502,416L499,416L497,416L492,417L490,417L483,418L480,418L477,418L471,418L468,418L466,418L462,418L460,418L459,418L458,419L458,420L457,421L457,422L457,424L456,425L456,426L456,427L456,428L456,430L456,432L456,434L456,435L455,438L455,439L455,440L455,443L455,444L454,447L454,448L453,449L453,450L453,451L451,452L451,453L450,454L449,454L448,454L447,454L446,455L443,455L442,455L441,455L437,455L435,456L434,456L429,456L427,456L424,456L422,457L419,457L417,457L414,457L413,457L411,457L409,457L407,457L405,457L402,457L401,457L400,458L399,458L397,458L396,458L395,458L393,458L391,458L390,458L389,458L387,458L386,458L385,458L384,458L383,458L382,458L380,458L379,458L378,458L377,458L376,458L375,458L374,458L373,458L372,458L371,458L370,458L369,458L368,458L366,458L365,458L364,458L363,458L362,458L360,458L359,458L358,458L357,458L356,458L355,458L354,458L353,458L352,458L351,458L350,458L349,458L348,458L347,458L346,458L345,458L344,458L343,458L342,458L341,458L340,458L339,458L338,458L337,457L336,457L335,457L335,456L334,456L333,456L332,456L331,456L331,455L330,455L329,455L329,454L328,454L327,454L326,454L326,453L325,453L324,453L324,452L323,452L322,452L321,452L320,451L319,451L318,451L317,450L316,449L315,449L314,449L313,449L312,449L311,448L310,448L309,448L309,447L308,447L307,447L306,447L305,447L304,447L304,446L303,446L302,446L301,446L300,446L300,445L299,445L298,445L297,445L296,445L295,445L295,444L294,444L293,444L291,444L290,444L288,444L287,444L286,444L285,444L284,444L283,444L282,444L281,444L280,444L279,444L278,444L277,444L276,444L275,444L274,444L273,444L272,444L271,444L269,444L268,444L267,444L266,444L264,444L263,444L262,444L261,444L260,444L259,445L258,445L257,445L256,445L255,445L254,445L253,445L252,445L251,445L251,446L250,446L249,446L248,446L247,446L246,446L245,446L244,446L243,446L242,446L241,446L240,446L239,446L238,446L237,446L236,446L235,446L234,446L233,446L232,446L231,446L230,446L229,446L228,446L227,446L226,446L225,446L224,446L223,446L222,446L221,446L220,446L219,446L218,446L217,446L216,446L215,446L214,446L213,447L212,447L211,447L210,447L209,447L208,447L207,447L206,447L205,447L204,447L203,447L202,447L201,447L200,447L199,447L198,447L197,447L196,447L195,447L194,447L193,447L192,447L191,447L190,447L189,447L188,447L187,447L186,447L185,447L184,447L183,447L182,447L181,447L180,447L179,447L178,447L177,447L176,447L175,447L174,447L173,447L172,447L171,447L170,447L169,447L168,447L167,447L167,446L166,446L165,446L164,446L163,446L162,446L161,445L160,445L159,445L158,445L157,445L156,445L155,445L154,445L153,445L152,445L151,445L150,445L149,444L148,444L147,444L146,444L145,444L144,444L143,444L142,444L141,444L141,443L140,443L139,443L138,443L137,443L136,443L135,443L134,443L133,443L132,443L131,443L130,443L129,443L128,443L127,443L126,443L125,443L124,443L123,443L122,443L121,443L120,443L119,443L118,443L117,443L116,443L115,443L114,443L113,443L112,443L112,444L111,444L110,444L110,445L109,446L108,447L108,448L107,448L107,449L106,449L106,450L106,451L105,452L105,453L104,454L104,455L103,456L103,458L102,459L102,460L101,461L101,462L100,464L100,465L99,466L99,468L99,469L98,470L98,471L98,472L98,474L98,475L98,476L97,477L97,478L97,479L97,480L97,481L97,482L97,483L97,484L97,485L96,486L96,487L96,488L96,489L96,490L96,491L96,492L96,493L96,494L96,495L96,496L96,497L96,498L95,498L95,499L95,500L95,501L95,502L95,503L95,504L95,505L95,506L95,507L94,507L94,508L94,509L94,510L94,511L94,512L94,513L94,514L94,515L94,516L93,516L93,517L93,518L93,519L93,520L93,521L93,522L93,523L93,524L93,525L93,526L93,527L93,528L94,528L95,528L96,528L97,528L98,528L99,527L100,526L103,523L105,521L108,517L110,515L113,511L114,510L117,507L120,505L121,504L124,504L126,503L128,503L130,503L133,503L134,503L136,503L139,503L141,503L142,503L144,503L145,503L146,503L147,503L148,503L149,503L150,503L150,502L150,501L150,499L150,497L150,493L150,492L150,488L150,485L150,483L150,481L150,479L150,478L151,478L152,477L154,477L157,477L159,476L161,476L163,476L166,476L168,476L169,477L169,478L169,480L169,483L169,484L169,488L169,489L169,493L168,497L167,499L166,503L165,507L164,508L163,511L163,512L162,515L162,516L162,517L163,517L164,518L169,519L180,522L193,526L199,528L209,534L213,537L220,543L223,545L230,551L237,554L241,555L254,556L258,556L264,556L266,556L269,553L270,551L271,549L271,548L272,544L273,542L275,538L276,536L277,533L278,531L279,529L280,529L280,528L281,527L282,526L284,524L289,522L295,520L298,520L305,519L308,518L313,518L319,518L321,518L326,517L330,517L334,516L335,515L338,514L339,513L340,510L340,509L340,507L340,505L340,501L340,499L340,495L340,492L340,490L340,487L341,484L341,482L341,481L341,479L341,478L341,477L341,476L342,474L342,473L342,472L343,471L343,470L343,468L344,467L344,466L344,464L345,463L345,462L345,461L346,460L347,459L347,458L349,457L351,455L353,454L357,452L363,450L366,449L371,448L373,448L377,447L380,447L383,447L384,447L386,447L387,447L388,447L389,447L389,449L389,451L389,452L389,454L389,457L389,459L389,461L389,463L389,465L389,468L390,468L391,469L392,469L393,470L394,470L395,470L397,470L399,470L400,470L402,470L404,470L407,470L408,470L411,470L414,470L417,470L418,470L421,470L424,470L427,470L428,471L430,471L432,471L434,471L435,471L436,471L438,471L439,471L440,471L442,471L443,471L444,471L445,471L446,471L447,471L448,471L449,471L450,471L451,471L452,471L453,471L454,471L455,471L456,471L457,471L458,471L458,472L459,472L460,472L461,472L462,472L462,473L463,473L464,473L465,473L466,473L467,473L468,473L469,473L470,473L470,474L471,474L472,474L473,474L474,475L475,475L476,475L477,475L478,475L479,476L480,476L481,476L482,476L483,476L484,476L484,477L485,477L486,477L487,477L487,478L488,478L489,478L490,478L491,478L492,478L493,478L494,478L494,479L495,479L496,479L497,479L498,479L499,480L500,480L501,480L502,480L503,480L503,481L504,481L505,481L506,481L507,481L508,481L509,481L510,481L511,481L512,481L513,481L514,481L515,481L516,481L516,482L517,482L518,482L519,482L520,482L521,482L522,482L523,482L524,482L525,482L526,482L527,482L528,482L530,482L531,482L532,482L533,482L536,482L537,482L538,482L540,482L541,482L542,482L543,482L544,482L545,482L546,482L547,482L548,482L549,482L550,482L551,482L551,481L552,481L553,481L554,481L555,479L556,479L557,478L558,478L558,477L559,477L560,476L560,475L561,474L561,473L562,470L562,466L563,464L563,459L563,454L563,451L563,448L563,447L563,445L565,444L567,443L572,442L579,439L588,438L595,438L597,438L599,438L599,439L599,442L598,447L597,450L596,457L596,458L600,460L609,461L618,461L623,461L624,459L625,454L624,449L623,447L623,442L623,438L629,433L636,430L639,429L643,427L646,426L648,426L650,426L652,426L655,426L657,426L662,426L667,426L669,425L672,423L674,420L674,419L673,416L671,413L669,410L668,406L667,403L665,399L665,397L664,393L662,389L659,384L657,382L652,378L646,374L639,372L632,370L628,370L621,369L615,367L609,366L604,364L604,363L604,362L604,360L605,359L612,356L616,355L622,352L628,349L634,346L638,343L641,341L643,340L644,339L646,337L647,337L648,337L649,337L649,338L649,341L649,345L649,350L649,356L649,362L649,369L649,372L649,379L649,387L649,394L649,401L649,404L649,410L649,417L649,420L649,427L649,432L649,435L649,442L649,446L649,449L649,451L649,455L649,458L649,461L649,463L649,464L649,467L649,469L649,472L649,475L649,476L650,481L650,482L650,485L650,488L650,490L650,492L650,493L650,495L650,497L650,500L650,502L650,504L650,505L651,507L651,510L651,512L651,513L651,515L651,516L650,516L649,516L645,516L639,515L635,514L628,512L618,511L608,510L594,509L578,508L562,508L545,507L541,507L529,506L527,506L526,506L526,505L525,505L524,504L522,504L521,504L514,504L510,508L507,513L506,518L506,523L506,527L506,529L507,534L507,535L508,536L508,537L509,538L513,539L518,539L522,539L526,538L532,537L538,537L542,537L548,537L551,537L554,538L555,539L556,539L556,540L556,541L556,542L554,544L553,545L553,548L553,550L553,553L553,556L553,558L553,559L553,560L554,560L557,560L564,560L574,560L583,562L592,563L597,564L606,565L616,566L625,567L629,568L641,569L644,569L650,570L659,570L661,571L667,571L671,571L675,571L679,571L683,572L685,572L689,572L693,573L696,573L698,573L699,574L699,575L699,576L699,577L699,581L699,583L698,588L698,594L698,598L698,602L698,603L697,605L696,605L693,606L691,607L688,607L684,607L678,607L669,607L657,607L643,607L633,607L614,607L595,607L579,606L566,606L560,605L552,604L546,602L545,601L545,598L545,594L545,588L545,581L547,574L550,567L553,561L554,558L556,554L557,551L557,549L557,548L556,547L552,546L532,544L524,544L521,547L520,554L520,563L520,573L520,581L519,587L516,590L513,591L510,592L503,592L488,592L483,592L475,592L469,592L465,592L463,592L462,592L462,591L462,590L462,587L462,581L463,575L465,568L465,564L467,557L468,550L470,544L470,541L472,535L472,528L473,522L473,516L473,510L473,505L469,502L462,499L453,497L443,496L436,495L430,493L426,492L426,491L424,490L423,488L423,486L423,484L423,482L423,478L423,472L424,466L425,460L426,456L427,448L427,444L427,442L427,440L427,439L427,438L426,438L424,438L422,438L421,438L414,438L408,438L403,438L401,438L397,438L395,438L395,439L395,440L395,442L395,444L397,448L397,449L398,458L398,465L398,473L398,478L399,486L399,494L400,502L400,509L400,513L400,522L401,527L401,532L401,536L401,540L402,543L402,546L402,549L402,551L402,556L402,558L402,560L402,562L402,564L402,566L402,569L402,571L402,573L403,575L403,577L403,579L403,581L403,582L403,584L403,585L403,586L403,587L402,587L401,587L400,587L398,587L397,587L393,587L384,587L379,587L376,587L370,587L367,586L366,585L365,583L365,580L364,577L363,573L363,569L363,564L363,561L363,552L363,546L363,544L363,539L363,531L361,526L359,522L358,520L355,514L353,511L351,508L349,507L346,503L343,500L341,499L339,498L335,496L332,495L329,494L327,494L322,493L319,493L316,493L312,493L311,493L307,493L305,493L302,493L299,493L296,493L293,494L291,495L288,495L285,496L283,497L280,498L278,498L275,499L273,500L270,500L267,500L264,501L262,501L259,502L257,502L255,503L254,503L252,503L250,503L247,503L244,504L242,504L237,504L233,504L232,504L229,504L227,504L224,504L221,504L218,504L214,504L211,504L207,504L204,504L201,504L198,504L195,504L192,504L189,504L186,504L183,504L180,504L177,505L174,505L171,505L169,506L165,507L162,508L159,509L157,510L154,512L150,514L149,515L146,517L143,520L140,522L139,523L136,527L134,529L132,532L131,533L128,538L126,541L125,542L123,545L121,549L120,551L119,552L117,556L115,558L115,561L114,563L113,565L113,567L112,569L112,572L112,573L111,576L111,578L111,581L111,583L111,586L111,589L111,591L111,593L111,595L111,599L111,600L111,602L111,604L111,607L111,610L111,611L111,613L111,615L111,617L111,619L111,621L111,623L111,626L111,628L111,631L111,632L111,634L111,636L111,637L112,639L112,640L113,641L113,642L113,643L114,645L115,646L116,647L117,648L118,648L119,650L120,650L120,651L121,651L122,651L124,652L125,652L127,653L128,653L130,653L133,653L136,654L139,654L142,655L145,655L148,656L152,657L154,658L158,659L161,661L164,663L166,664L172,668L176,672L179,675L183,677L186,680L190,682L194,683L199,683L203,683L206,683L209,679L210,675L210,671L210,667L209,665L205,660L200,651L199,648L197,642L194,632L194,627L194,621L196,616L200,612L204,610L209,608L215,608L220,608L225,608L229,608L234,608L240,608L243,608L246,605L248,602L250,598L251,593L252,586L252,583L252,575L252,567L253,558L254,550L256,542L260,535L264,528L270,521L281,511L288,506L296,502L300,500L309,496L316,493L324,490L332,487L340,484L344,482L350,479L356,476L361,473L368,472L372,472L374,472L380,474L382,478L383,483L383,490L381,497L377,504L372,510L368,516L364,520L361,524L358,527L355,530L352,532L346,536L333,540L324,542L315,544L306,545L298,547L293,549L291,550L291,551L291,553L291,556L290,561L289,566L288,571L287,577L286,582L286,588L286,594L286,597L286,600L286,602L287,604L289,606L291,608L293,609L297,610L298,611L300,611L304,611L307,611L315,611L320,611L326,611L331,611L336,611L341,611L345,611L349,611L353,611L357,611L361,611L364,612L368,613L373,614L376,614L380,614L383,615L387,616L391,617L395,618L398,619L401,619L404,620L407,621L411,622L414,622L416,622L419,622L421,623L423,624L426,624L430,626L431,626L433,627L436,627L438,628L441,629L443,630L445,631L447,631L449,632L452,633L454,634L457,635L460,636L462,636L464,637L468,639L470,639L472,640L474,640L476,641L478,641L480,642L481,642L483,643L484,643L486,644L488,644L489,644L490,645L492,645L493,646L494,646L496,646L497,647L499,647L500,648L502,648L504,649L506,650L507,650L509,651L511,651L512,652L514,652L516,653L518,653L520,654L524,656L527,656L530,657L532,658L535,658L537,659L539,660L542,661L544,662L546,663L549,663L551,663L553,664L555,664L557,664L559,664L562,664L564,664L566,664L569,664L572,664L579,662L585,659L589,657L592,654L596,651L602,645L608,639L613,631L619,623L628,612L632,605L635,597L640,591L644,584L649,577L660,566L668,559L677,554L686,549L699,542L705,536L708,529L711,522L714,516L717,510L719,506L720,503L722,499L722,496L722,493L722,488L723,481L725,476L728,471L731,467L734,464L736,463L737,462L739,462L741,462L742,462L742,463L742,464L742,467L742,470L742,475L742,482L742,489L742,496L742,503L742,512L742,518L742,524L741,531L737,541L736,544L733,549L727,556L721,560L716,563L710,566L705,568L700,570L696,571L691,573L686,575L682,578L677,581L673,584L669,588L667,591L665,595L663,598L662,602L661,606L660,609L660,613L660,617L660,622L660,625L660,629L661,631L662,633L664,635L664,638L666,640L667,643L669,648L671,650L672,653L675,658L676,661L678,664L679,668L680,671L682,674L683,677L684,679L685,683L685,684L686,686L687,689L688,691L688,692L689,695L690,697L690,698L691,699L691,701L691,702L692,704L692,705L692,707L692,709L692,712L690,714L687,717L683,720L680,722L677,724L673,726L669,728L664,731L662,732L657,734L654,736L650,737L648,738L645,739L643,740L642,741L640,742L639,742L636,743L634,743L633,744L632,744L631,744L630,745L629,745L628,745L628,746L626,746L625,746L623,746L623,747L621,747L619,747L618,748L617,748L615,748L613,748L609,749L606,750L602,750L598,751L595,751L592,751L589,751L586,751L584,751L579,751L576,752L572,752L567,753L564,753L560,753L557,753L553,753L548,753L545,753L539,753L536,753L532,753L526,753L523,753L518,753L514,752L511,751L508,750L504,749L500,747L496,746L492,744L489,743L485,741L482,740L480,738L476,736L473,735L471,733L469,732L467,731L465,729L464,728L462,726L460,724L459,723L458,721L457,719L456,719L455,717L455,716L454,715L454,714L453,713L453,712L453,711L452,709L452,708L452,704L452,702L452,699L452,695L452,690L456,683L459,679L463,675L470,672L474,670L479,670L483,670L488,670L493,670L498,670L504,671L509,672L513,674L516,675L519,676L523,678L527,680L533,682L536,683L542,685L546,686L551,687L555,687L560,688L564,689L567,689L575,689L578,689L581,689L584,689L586,685L587,682L588,679L588,673L588,668L588,664L588,660L588,656L587,650L585,646L584,642L582,639L579,636L576,634L570,632L566,632L562,632L556,632L553,634L550,636L547,639L544,641L541,644L539,645L537,645L533,645L522,641L517,639L512,637L504,634L498,632L492,630L486,629L477,627L472,627L468,627L464,627L460,630L458,633L456,636L453,641L451,644L450,648L448,653L446,656L445,658L443,662L443,664L441,666L438,668L437,670L434,671L431,672L428,672L422,672L418,672L414,672L411,671L406,670L404,670L401,669L397,669L395,669L392,669L391,669L390,669L389,670L388,671L387,672L387,673L386,675L385,676L384,678L383,680L382,682L381,684L380,687L379,689L378,690L378,692L377,693L377,694L376,695L376,697L375,698L375,699L375,700L375,701L375,702L374,703L374,704L374,705L374,706L373,707L373,708L373,709L373,710L373,712L373,713L373,714L373,715L372,716L372,717L372,718L372,719L371,720L371,721L371,722L371,723L370,724L370,725L370,726L370,728L370,729L370,730L369,731L369,732L369,733L369,734L368,735L368,736L368,737L368,738L368,739L367,740L367,741L366,741L366,742L366,743L365,743L364,744L363,744L363,745L362,745L361,746L360,746L359,746L358,746L356,746L355,746L353,746L351,746L348,746L344,746L339,746L334,746L332,746L331,746L329,746L327,746L326,746L324,746L322,746L321,746L319,746L318,746L317,745L316,745L314,745L311,745L310,745L309,745L308,744L307,744L305,744L304,744L303,744L302,744L300,744L299,744L298,744L297,744L296,744L294,743L293,743L292,743L290,743L289,743L288,743L287,743L285,743L284,743L283,743L282,743L281,743L280,743L279,743L277,743L276,743L275,743L273,743L272,743L271,743L270,743L268,743L267,743L266,743L265,743L263,743L261,743L259,743L258,743L256,744L254,745L252,746L250,746L247,747L245,748L244,748L242,749L240,750L237,751L235,751L234,752L232,753L231,753L230,754L229,754L228,755L227,755L226,755L225,755L224,755L223,755L222,755L221,755L219,755L215,753L213,751L212,748L211,745L211,743L211,741L211,738L212,735L215,732L221,728L226,726L237,723L246,721L254,721L263,720L267,719L270,717L273,714L274,711L275,707L275,704L275,701L273,699L271,697L268,694L266,690L264,680L264,671L268,662L274,654L284,646L289,641L293,639L297,636L298,635L299,633L300,631L300,628L300,627L297,626L293,626L287,626L279,626L271,626L262,627L259,628L256,631L254,636L252,641L251,650L250,656L249,663L248,668L247,673L246,678L244,682L242,686L237,690L231,694L226,696L223,697L218,698L214,700L210,702L207,704L204,705L201,708L198,712L196,714L193,716L190,721L188,724L184,730L182,734L180,737L177,743L174,746L171,751L169,753L166,756L164,758L161,761L159,763L156,765L154,767L152,769L150,771L148,773L146,775L144,776L141,778L140,779L138,780L135,782L133,783L130,785L129,785L127,786L126,787L125,787L123,788L122,789L120,789L119,789L118,790L117,790L115,790L114,791L113,791L110,792L108,792L107,792L105,792L102,793L100,793L97,794L95,794L92,795L91,795L89,796L87,796L86,796L84,796L83,796L82,796L81,796L79,796L78,796L77,796L75,797L74,797L73,797L72,797L71,797L70,797L69,797L68,797L67,797L65,797L64,797L63,797L62,798L60,798L59,798L58,798L56,798L54,798L52,798L50,798L48,798L46,798L45,798L44,798L42,798L41,798L40,798L39,798L37,798L36,798L35,798L34,798L33,798L32,798L31,798L30,798L29,798L28,798L26,798L25,798L23,798L21,798L18,798L16,798L13,798L11,798L10,798L9,798L8,798L7,798L6,798L5,798L4,798L3,798L2,798L1,798L1,799" stroke-opacity="1" stroke-width="5" stroke-linecap="round" stroke-linejoin="round" style="-webkit-tap-highlight-color: rgba(0, 0, 0, 0); stroke-opacity: 1; stroke-linecap: round; stroke-linejoin: round; -webkit-user-select: text;"></path></svg>