<svg height="874" version="1.1" width="768" xmlns="http://www.w3.org/2000/svg" xmlns:xlink="http://www.w3.org/1999/xlink" style="overflow: hidden; position: relative; -webkit-user-select: text;"><desc style="-webkit-tap-highlight-color: rgba(0, 0, 0, 0); -webkit-user-select: text;">Created with Raphaël 2.2.0</desc><defs style="-webkit-tap-highlight-color: rgba(0, 0, 0, 0); -webkit-user-select: text;"></defs><path fill="none" stroke="#000000" d="M65,62L67,69L67,72L68,75L69,79L70,82L71,86L73,91L73,97L74,102L74,108L74,115L74,122L74,129L74,137L74,145L74,152L74,159L74,167L74,174L74,181L74,187L74,193L74,200L74,206L76,213L79,220L82,226L86,232L91,237L96,243L103,247L112,249L123,250L139,248L157,237" stroke-opacity="1" stroke-width="5" stroke-linecap="round" stroke-linejoin="round" style="-webkit-tap-highlight-color: rgba(0, 0, 0, 0); stroke-opacity: 1; stroke-linecap: round; stroke-linejoin: round; -webkit-user-select: text;"></path><path fill="none" stroke="#000000" d="M123,85L125,89L126,94L129,98L132,104L135,111L136,118L137,127L138,136L139,145L139,155L139,166L140,177L141,188L142,199L143,209L144,219L145,228L147,236L150,244L154,251L158,256L164,260L171,263L182,264L200,260L226,245" stroke-opacity="1" stroke-width="5" stroke-linecap="round" stroke-linejoin="round" style="-webkit-tap-highlight-color: rgba(0, 0, 0, 0); stroke-opacity: 1; stroke-linecap: round; stroke-linejoin: round; -webkit-user-select: text;"></path><path fill="none" stroke="#000000" d="M205,108L208,115L210,118L212,124L213,130L214,137L215,144L215,153L215,161L215,169L214,178L213,187L212,196L211,206L210,215L209,225L208,234L207,244L207,253L207,262L207,271L207,280L209,288L212,295L218,302L226,307L236,310L249,310L266,306" stroke-opacity="1" stroke-width="5" stroke-linecap="round" stroke-linejoin="round" style="-webkit-tap-highlight-color: rgba(0, 0, 0, 0); stroke-opacity: 1; stroke-linecap: round; stroke-linejoin: round; -webkit-user-select: text;"></path><path fill="none" stroke="#000000" d="M259,141L264,153L268,162L270,170L272,180L273,191L273,204L273,216L271,228L270,241L268,254L268,267L268,280L269,292L273,303L278,311L285,317L295,321L310,321L334,317" stroke-opacity="1" stroke-width="5" stroke-linecap="round" stroke-linejoin="round" style="-webkit-tap-highlight-color: rgba(0, 0, 0, 0); stroke-opacity: 1; stroke-linecap: round; stroke-linejoin: round; -webkit-user-select: text;"></path><path fill="none" stroke="#000000" d="M241,38L242,42L243,45L246,51L249,57L252,65L254,72L256,79L257,88L257,96L257,106L257,116L257,126L256,136L254,148L253,158L253,169L252,181L252,193L252,204L252,216L252,227L252,237L254,249L256,257L259,267L263,276L268,283L275,291L285,296L298,299L319,299L345,293" stroke-opacity="1" stroke-width="5" stroke-linecap="round" stroke-linejoin="round" style="-webkit-tap-highlight-color: rgba(0, 0, 0, 0); stroke-opacity: 1; stroke-linecap: round; stroke-linejoin: round; -webkit-user-select: text;"></path><path fill="none" stroke="#000000" d="M312,66L318,81L321,90L323,99L324,109L324,120L324,132L321,143L319,154L317,166L316,177L315,187L314,198L314,211L315,222L317,232L322,242L327,251L334,258L342,263L354,266L373,266L400,260" stroke-opacity="1" stroke-width="5" stroke-linecap="round" stroke-linejoin="round" style="-webkit-tap-highlight-color: rgba(0, 0, 0, 0); stroke-opacity: 1; stroke-linecap: round; stroke-linejoin: round; -webkit-user-select: text;"></path><path fill="none" stroke="#000000" d="M371,69L378,85L378,91L379,97L379,104L380,111L380,118L380,126L380,135L380,144L380,153L380,162L378,171L377,180L375,189L375,198L373,206L372,215L371,223L370,231L369,239L368,247L368,254L368,262L368,270L368,277L368,284L368,293L368,300L371,307L375,314L381,322L389,329L398,334L409,337L424,337L450,336L465,323" stroke-opacity="1" stroke-width="5" stroke-linecap="round" stroke-linejoin="round" style="-webkit-tap-highlight-color: rgba(0, 0, 0, 0); stroke-opacity: 1; stroke-linecap: round; stroke-linejoin: round; -webkit-user-select: text;"></path><path fill="none" stroke="#000000" d="M410,153L418,163L423,170L426,176L429,185L429,194L429,203L429,213L429,222L426,230L424,240L421,249L419,259L417,269L417,278L416,288L416,298L416,308L417,319L421,328L424,335L431,341L440,346L457,348L480,344" stroke-opacity="1" stroke-width="5" stroke-linecap="round" stroke-linejoin="round" style="-webkit-tap-highlight-color: rgba(0, 0, 0, 0); stroke-opacity: 1; stroke-linecap: round; stroke-linejoin: round; -webkit-user-select: text;"></path><path fill="none" stroke="#000000" d="M437,65L440,68L443,70L448,74L454,79L458,82L462,87L465,93L468,98L470,103L471,109L472,114L472,120L473,125L473,132L473,139L473,146L473,152L473,159L472,167L471,173L470,180L469,187L468,193L468,201L467,208L466,215L466,223L465,230L465,238L465,246L465,254L465,261L465,269L465,276L465,284L466,291L470,298L475,304L482,310L490,315L500,319L514,320L533,320" stroke-opacity="1" stroke-width="5" stroke-linecap="round" stroke-linejoin="round" style="-webkit-tap-highlight-color: rgba(0, 0, 0, 0); stroke-opacity: 1; stroke-linecap: round; stroke-linejoin: round; -webkit-user-select: text;"></path><path fill="none" stroke="#000000" d="M498,126L502,130L505,136L509,142L512,150L515,157L516,166L517,173L517,182L517,190L517,198L516,206L514,214L513,223L512,232L511,241L510,250L509,260L508,269L508,278L508,288L508,298L508,308L508,318L509,328L511,336L515,343L521,349L527,354L538,356L555,356L575,348L585,335" stroke-opacity="1" stroke-width="5" stroke-linecap="round" stroke-linejoin="round" style="-webkit-tap-highlight-color: rgba(0, 0, 0, 0); stroke-opacity: 1; stroke-linecap: round; stroke-linejoin: round; -webkit-user-select: text;"></path><path fill="none" stroke="#000000" d="M550,119L553,125L556,130L559,135L561,140L564,146L565,151L567,157L568,161L568,167L569,172L569,178L569,183L569,189L569,196L569,202L569,208L569,215L569,221L569,227L568,232L568,240L567,246L567,252L567,259L567,265L566,271L566,277L566,283L566,288L566,295L566,301L566,307L567,312L568,317L570,321L573,325L576,328L580,331L586,335L592,337L598,339L605,340L615,340L628,338L644,325" stroke-opacity="1" stroke-width="5" stroke-linecap="round" stroke-linejoin="round" style="-webkit-tap-highlight-color: rgba(0, 0, 0, 0); stroke-opacity: 1; stroke-linecap: round; stroke-linejoin: round; -webkit-user-select: text;"></path><path fill="none" stroke="#000000" d="M630,130L634,135L636,143L639,151L641,160L642,171L642,180L642,190L642,199L642,208L642,219L642,229L642,242L642,253L643,264L646,274L650,282L656,289L664,295L674,298L691,298L710,295L732,285" stroke-opacity="1" stroke-width="5" stroke-linecap="round" stroke-linejoin="round" style="-webkit-tap-highlight-color: rgba(0, 0, 0, 0); stroke-opacity: 1; stroke-linecap: round; stroke-linejoin: round; -webkit-user-select: text;"></path><path fill="none" stroke="#000000" d="M671,111L673,113L675,117L680,123L684,129L687,136L689,142L691,150L691,157L692,163L692,169L692,176L692,181L692,188L692,194L692,201L692,208L692,215L691,221L690,228L689,235L688,241L687,248L686,255L686,262L685,269L685,276L684,283L684,290L684,297L684,303L684,310L684,317L684,324L684,330L686,336L688,342L690,348L692,354L695,358L698,363L701,366L705,369L709,372L714,374L719,375L725,376L734,376L748,372L759,365" stroke-opacity="1" stroke-width="5" stroke-linecap="round" stroke-linejoin="round" style="-webkit-tap-highlight-color: rgba(0, 0, 0, 0); stroke-opacity: 1; stroke-linecap: round; stroke-linejoin: round; -webkit-user-select: text;"></path><path fill="none" stroke="#000000" d="M647,229L651,240L652,247L655,254L656,264L656,274L656,283L656,292L656,300L654,310L652,318L652,327L652,336L652,345L651,354L651,364L651,373L651,382L652,390L654,401L657,410L662,419L669,429L677,438L690,446L707,448" stroke-opacity="1" stroke-width="5" stroke-linecap="round" stroke-linejoin="round" style="-webkit-tap-highlight-color: rgba(0, 0, 0, 0); stroke-opacity: 1; stroke-linecap: round; stroke-linejoin: round; -webkit-user-select: text;"></path><path fill="none" stroke="#000000" d="M596,238L608,246L614,250L621,257L627,266L632,274L635,282L637,288L637,296L637,303L637,309L637,315L636,320L635,325L634,330L634,335L633,340L633,345L632,350L631,355L631,360L630,365L630,371L630,376L629,381L629,386L629,391L628,396L628,401L628,406L628,411L628,417L628,422L628,428L628,433L628,439L628,444L628,450L628,456L628,461L630,467L633,472L636,476L641,480L647,484L655,487L667,487L682,487L696,479" stroke-opacity="1" stroke-width="5" stroke-linecap="round" stroke-linejoin="round" style="-webkit-tap-highlight-color: rgba(0, 0, 0, 0); stroke-opacity: 1; stroke-linecap: round; stroke-linejoin: round; -webkit-user-select: text;"></path><path fill="none" stroke="#000000" d="M565,248L572,257L579,265L586,275L592,286L595,297L596,307L596,319L596,332L596,344L595,357L594,370L594,384L594,398L594,414L594,429L594,444L595,459L600,473L606,483L615,491L628,495L646,495" stroke-opacity="1" stroke-width="5" stroke-linecap="round" stroke-linejoin="round" style="-webkit-tap-highlight-color: rgba(0, 0, 0, 0); stroke-opacity: 1; stroke-linecap: round; stroke-linejoin: round; -webkit-user-select: text;"></path><path fill="none" stroke="#000000" d="M560,247L562,255L565,262L569,271L575,281L579,291L581,300L583,310L583,320L583,329L583,337L582,345L581,351L580,359L579,366L578,373L577,379L577,385L576,392L576,397L575,403L575,410L575,415L575,421L575,427L575,434L575,439L575,445L575,450L575,456L575,460L575,465L575,470L575,475L575,480L575,486L576,492L579,498L582,505L588,510L596,516L606,521L619,524L638,524L660,520" stroke-opacity="1" stroke-width="5" stroke-linecap="round" stroke-linejoin="round" style="-webkit-tap-highlight-color: rgba(0, 0, 0, 0); stroke-opacity: 1; stroke-linecap: round; stroke-linejoin: round; -webkit-user-select: text;"></path><path fill="none" stroke="#000000" d="M536,274L541,282L543,290L550,303L553,314L554,327L554,340L554,353L552,366L550,378L547,392L544,406L541,419L540,434L540,448L540,462L541,475L545,487L552,500L558,508L568,514L580,514" stroke-opacity="1" stroke-width="5" stroke-linecap="round" stroke-linejoin="round" style="-webkit-tap-highlight-color: rgba(0, 0, 0, 0); stroke-opacity: 1; stroke-linecap: round; stroke-linejoin: round; -webkit-user-select: text;"></path><path fill="none" stroke="#000000" d="M468,270L470,273L474,277L482,284L492,294L498,303L503,313L507,322L510,332L511,340L512,349L513,358L513,365L513,373L513,381L513,387L513,394L512,400L512,406L511,412L510,418L509,424L508,431L507,436L506,442L505,448L504,453L503,459L503,464L503,470L502,475L502,482L502,487L502,493L502,500L502,505L502,512L504,519L506,526L509,534L513,542L519,550L525,558L534,564L549,569L563,569" stroke-opacity="1" stroke-width="5" stroke-linecap="round" stroke-linejoin="round" style="-webkit-tap-highlight-color: rgba(0, 0, 0, 0); stroke-opacity: 1; stroke-linecap: round; stroke-linejoin: round; -webkit-user-select: text;"></path><path fill="none" stroke="#000000" d="M456,309L455,304L457,305L461,311L466,321L468,332L469,345L469,358L469,371L468,385L465,399L463,413L461,427L459,441L458,456L458,470L458,483L458,497L460,510L465,523L470,534L477,543L487,550L500,552" stroke-opacity="1" stroke-width="5" stroke-linecap="round" stroke-linejoin="round" style="-webkit-tap-highlight-color: rgba(0, 0, 0, 0); stroke-opacity: 1; stroke-linecap: round; stroke-linejoin: round; -webkit-user-select: text;"></path><path fill="none" stroke="#000000" d="M393,313L400,317L406,324L412,332L418,342L422,351L425,359L427,367L429,376L429,384L430,391L430,399L430,407L430,413L430,420L429,426L428,433L427,439L426,444L425,450L424,454L424,461L423,466L422,472L421,478L421,483L420,488L420,493L420,498L420,503L420,508L420,513L420,519L420,526L420,532L420,539L421,546L424,554L429,562L437,568L448,573L465,576L487,574" stroke-opacity="1" stroke-width="5" stroke-linecap="round" stroke-linejoin="round" style="-webkit-tap-highlight-color: rgba(0, 0, 0, 0); stroke-opacity: 1; stroke-linecap: round; stroke-linejoin: round; -webkit-user-select: text;"></path><path fill="none" stroke="#000000" d="M380,299L389,310L395,319L400,330L403,342L404,354L404,368L404,381L401,395L397,410L393,425L390,440L388,454L388,469L388,485L388,500L390,515L394,528L400,538L407,546L418,549" stroke-opacity="1" stroke-width="5" stroke-linecap="round" stroke-linejoin="round" style="-webkit-tap-highlight-color: rgba(0, 0, 0, 0); stroke-opacity: 1; stroke-linecap: round; stroke-linejoin: round; -webkit-user-select: text;"></path><path fill="none" stroke="#000000" d="M345,308L349,315L352,321L357,330L363,339L367,348L369,356L370,364L370,372L370,381L370,388L370,395L370,402L370,410L369,416L367,422L366,428L364,434L362,440L361,446L359,453L358,460L357,466L356,473L356,480L355,486L355,492L354,497L354,504L354,510L354,517L354,522L354,529L354,536L355,543L357,551L360,558L364,564L368,570L375,577L382,583L390,589L400,592L409,592" stroke-opacity="1" stroke-width="5" stroke-linecap="round" stroke-linejoin="round" style="-webkit-tap-highlight-color: rgba(0, 0, 0, 0); stroke-opacity: 1; stroke-linecap: round; stroke-linejoin: round; -webkit-user-select: text;"></path><path fill="none" stroke="#000000" d="M282,330L295,343L301,351L307,362L311,373L313,385L314,396L314,410L314,422L310,435L307,448L303,464L300,479L298,492L297,509L297,524L298,540L302,556L307,568L316,579L324,585L337,587" stroke-opacity="1" stroke-width="5" stroke-linecap="round" stroke-linejoin="round" style="-webkit-tap-highlight-color: rgba(0, 0, 0, 0); stroke-opacity: 1; stroke-linecap: round; stroke-linejoin: round; -webkit-user-select: text;"></path><path fill="none" stroke="#000000" d="M249,305L253,312L259,318L266,326L272,334L278,343L283,351L285,359L286,368L286,377L286,386L286,393L286,402L286,410L286,418L285,426L283,434L282,442L280,450L278,457L276,464L275,470L273,478L272,485L271,491L271,498L270,505L270,512L269,519L269,526L269,533L268,539L268,546L268,552L268,559L268,565L271,573L273,580L276,588L281,594L288,599L299,602L314,602L329,599L344,590" stroke-opacity="1" stroke-width="5" stroke-linecap="round" stroke-linejoin="round" style="-webkit-tap-highlight-color: rgba(0, 0, 0, 0); stroke-opacity: 1; stroke-linecap: round; stroke-linejoin: round; -webkit-user-select: text;"></path><path fill="none" stroke="#000000" d="M187,300L190,299L197,303L205,310L215,322L222,334L228,348L232,363L233,377L233,395L232,411L228,426L225,443L222,460L222,477L222,495L225,512L230,529L237,545L246,560L254,571L263,574" stroke-opacity="1" stroke-width="5" stroke-linecap="round" stroke-linejoin="round" style="-webkit-tap-highlight-color: rgba(0, 0, 0, 0); stroke-opacity: 1; stroke-linecap: round; stroke-linejoin: round; -webkit-user-select: text;"></path><path fill="none" stroke="#000000" d="M155,335L163,339L169,344L177,352L185,360L191,369L196,378L198,385L199,393L200,401L200,409L200,417L200,424L200,433L200,440L199,449L198,458L197,467L196,475L196,483L196,490L195,498L195,506L195,514L195,522L195,531L195,538L195,546L195,552L195,559L195,566L195,573L197,580L199,587L201,594L204,602L208,608L214,614L222,621L230,626L240,631L255,636L269,636" stroke-opacity="1" stroke-width="5" stroke-linecap="round" stroke-linejoin="round" style="-webkit-tap-highlight-color: rgba(0, 0, 0, 0); stroke-opacity: 1; stroke-linecap: round; stroke-linejoin: round; -webkit-user-select: text;"></path><path fill="none" stroke="#000000" d="M99,347L95,349L101,355L112,365L122,376L132,387L138,400L140,414L140,430L139,446L135,461L130,476L126,492L123,508L123,522L123,541L126,559L131,576L137,591L143,604L149,611L157,612" stroke-opacity="1" stroke-width="5" stroke-linecap="round" stroke-linejoin="round" style="-webkit-tap-highlight-color: rgba(0, 0, 0, 0); stroke-opacity: 1; stroke-linecap: round; stroke-linejoin: round; -webkit-user-select: text;"></path><path fill="none" stroke="#000000" d="M74,395L86,407L91,415L93,424L95,433L95,440L96,448L96,457L96,464L96,472L96,481L96,488L96,496L96,504L95,512L94,519L93,525L92,531L91,538L91,544L91,550L91,556L91,563L91,569L91,575L91,582L91,588L91,594L93,601L96,608L98,615L102,621L105,627L109,633L113,638L117,643L122,648L128,651L135,655L143,658L154,661L167,663L185,663L205,658" stroke-opacity="1" stroke-width="5" stroke-linecap="round" stroke-linejoin="round" style="-webkit-tap-highlight-color: rgba(0, 0, 0, 0); stroke-opacity: 1; stroke-linecap: round; stroke-linejoin: round; -webkit-user-select: text;"></path><path fill="none" stroke="#000000" d="M139,496L147,505L151,511L157,519L160,527L162,536L163,546L163,556L163,566L163,576L161,588L159,600L157,612L156,625L155,637L155,649L155,662L155,675L155,687L156,698L159,709L165,718L176,727L191,732L214,728" stroke-opacity="1" stroke-width="5" stroke-linecap="round" stroke-linejoin="round" style="-webkit-tap-highlight-color: rgba(0, 0, 0, 0); stroke-opacity: 1; stroke-linecap: round; stroke-linejoin: round; -webkit-user-select: text;"></path><path fill="none" stroke="#000000" d="M183,542L192,544L197,549L203,556L208,565L212,572L215,580L217,589L218,596L218,604L218,611L218,619L218,626L218,631L218,637L218,644L218,650L218,656L217,662L217,668L216,673L216,678L215,683L215,688L214,694L213,700L212,706L211,711L210,716L210,722L209,727L209,733L209,739L209,745L209,752L209,758L209,765L209,771L210,776L211,782L214,789L218,794L224,799L233,804L244,808L258,811L278,811L300,803" stroke-opacity="1" stroke-width="5" stroke-linecap="round" stroke-linejoin="round" style="-webkit-tap-highlight-color: rgba(0, 0, 0, 0); stroke-opacity: 1; stroke-linecap: round; stroke-linejoin: round; -webkit-user-select: text;"></path><path fill="none" stroke="#000000" d="M237,543L247,553L252,562L257,572L262,583L265,595L266,609L266,621L266,635L265,649L262,665L259,681L256,694L254,709L254,723L254,737L254,752L254,767L256,783L261,797L268,808L276,814L293,813" stroke-opacity="1" stroke-width="5" stroke-linecap="round" stroke-linejoin="round" style="-webkit-tap-highlight-color: rgba(0, 0, 0, 0); stroke-opacity: 1; stroke-linecap: round; stroke-linejoin: round; -webkit-user-select: text;"></path><path fill="none" stroke="#000000" d="M259,536L268,540L275,542L281,547L287,554L291,561L295,569L297,577L299,584L299,591L300,598L300,605L300,612L300,620L300,627L300,635L300,643L300,651L299,659L299,667L298,674L298,680L298,687L297,693L296,700L295,706L295,713L294,719L294,726L294,731L294,737L294,744L294,750L294,756L294,762L294,769L296,775L298,780L301,786L305,791L311,796L319,799L330,801L346,801L367,790" stroke-opacity="1" stroke-width="5" stroke-linecap="round" stroke-linejoin="round" style="-webkit-tap-highlight-color: rgba(0, 0, 0, 0); stroke-opacity: 1; stroke-linecap: round; stroke-linejoin: round; -webkit-user-select: text;"></path><path fill="none" stroke="#000000" d="M337,531L348,539L355,549L363,564L368,581L371,598L372,616L372,633L371,652L366,672L362,692L358,711L356,731L356,750L356,769L356,785L361,798L369,806L378,811L394,810" stroke-opacity="1" stroke-width="5" stroke-linecap="round" stroke-linejoin="round" style="-webkit-tap-highlight-color: rgba(0, 0, 0, 0); stroke-opacity: 1; stroke-linecap: round; stroke-linejoin: round; -webkit-user-select: text;"></path><path fill="none" stroke="#000000" d="M381,553L385,556L393,562L402,570L408,577L412,587L414,596L415,605L416,614L416,623L415,632L413,641L411,650L408,658L406,666L404,675L401,682L400,690L397,698L395,706L394,714L392,722L390,731L389,738L387,746L387,754L386,761L385,769L385,776L385,783L384,790L384,796L384,803L384,808L384,814L385,819L387,823L390,827L394,830L400,833L407,834L420,834L445,820" stroke-opacity="1" stroke-width="5" stroke-linecap="round" stroke-linejoin="round" style="-webkit-tap-highlight-color: rgba(0, 0, 0, 0); stroke-opacity: 1; stroke-linecap: round; stroke-linejoin: round; -webkit-user-select: text;"></path><path fill="none" stroke="#000000" d="M402,511L408,514L416,519L426,530L436,543L445,558L451,573L455,590L456,605L456,624L452,642L445,665L439,688L434,712L432,733L432,755L434,774L443,792L455,803L471,808" stroke-opacity="1" stroke-width="5" stroke-linecap="round" stroke-linejoin="round" style="-webkit-tap-highlight-color: rgba(0, 0, 0, 0); stroke-opacity: 1; stroke-linecap: round; stroke-linejoin: round; -webkit-user-select: text;"></path><path fill="none" stroke="#000000" d="M454,525L463,530L470,538L477,548L482,558L486,570L488,581L490,591L491,601L492,611L492,620L492,629L491,638L489,647L486,655L484,662L481,670L478,677L475,685L472,692L470,699L468,706L465,714L463,721L461,728L458,735L456,743L455,749L453,756L451,762L451,769L450,776L450,783L450,790L450,796L450,803L451,810L455,817L463,824L472,829L486,830L512,827" stroke-opacity="1" stroke-width="5" stroke-linecap="round" stroke-linejoin="round" style="-webkit-tap-highlight-color: rgba(0, 0, 0, 0); stroke-opacity: 1; stroke-linecap: round; stroke-linejoin: round; -webkit-user-select: text;"></path><path fill="none" stroke="#000000" d="M479,537L487,541L497,546L506,557L516,572L526,590L533,606L536,623L536,641L536,659L531,677L524,697L519,716L516,734L515,754L515,774L520,792L529,807L541,818L557,821" stroke-opacity="1" stroke-width="5" stroke-linecap="round" stroke-linejoin="round" style="-webkit-tap-highlight-color: rgba(0, 0, 0, 0); stroke-opacity: 1; stroke-linecap: round; stroke-linejoin: round; -webkit-user-select: text;"></path><path fill="none" stroke="#000000" d="M516,529L520,532L528,537L537,546L545,558L552,570L557,581L561,592L564,603L565,613L565,623L566,633L566,643L566,653L565,664L562,675L560,683L558,692L555,701L553,709L551,716L549,724L547,732L545,740L544,748L543,755L542,762L541,768L541,775L540,782L539,789L539,796L539,803L539,810L539,816L541,823L544,829L550,835L558,842L568,851L580,858L595,862L618,860" stroke-opacity="1" stroke-width="5" stroke-linecap="round" stroke-linejoin="round" style="-webkit-tap-highlight-color: rgba(0, 0, 0, 0); stroke-opacity: 1; stroke-linecap: round; stroke-linejoin: round; -webkit-user-select: text;"></path><path fill="none" stroke="#000000" d="M551,494L572,513L587,530L597,549L601,568L602,589L602,610L601,631L595,657L589,683L584,710L581,737L581,764L586,790L596,812L606,823" stroke-opacity="1" stroke-width="5" stroke-linecap="round" stroke-linejoin="round" style="-webkit-tap-highlight-color: rgba(0, 0, 0, 0); stroke-opacity: 1; stroke-linecap: round; stroke-linejoin: round; -webkit-user-select: text;"></path><path fill="none" stroke="#000000" d="M564,509L579,514L589,522L600,533L609,543L614,553L618,563L620,573L621,582L622,592L622,601L622,609L622,618L621,626L620,633L618,641L616,649L615,658L614,666L612,675L611,683L609,692L608,698L607,706L606,714L605,722L604,731L603,739L602,745L601,753L601,761L601,769L601,776L601,783L601,790L601,795L601,801L602,808L605,816L609,823L616,830L626,836L644,840L672,835" stroke-opacity="1" stroke-width="5" stroke-linecap="round" stroke-linejoin="round" style="-webkit-tap-highlight-color: rgba(0, 0, 0, 0); stroke-opacity: 1; stroke-linecap: round; stroke-linejoin: round; -webkit-user-select: text;"></path><path fill="none" stroke="#000000" d="M592,478L597,482L608,491L623,507L637,525L647,544L654,562L657,582L657,601L656,619L650,642L643,664L635,688L630,712L630,738L630,765L639,791L652,814L667,827L684,830" stroke-opacity="1" stroke-width="5" stroke-linecap="round" stroke-linejoin="round" style="-webkit-tap-highlight-color: rgba(0, 0, 0, 0); stroke-opacity: 1; stroke-linecap: round; stroke-linejoin: round; -webkit-user-select: text;"></path><path fill="none" stroke="#000000" d="M633,470L641,476L652,487L665,500L677,514L686,528L694,542L699,556L700,568L701,581L701,594L699,606L696,617L694,627L691,638L689,648L686,658L684,669L682,679L679,688L677,698L675,706L673,716L671,725L669,734L668,742L667,749L666,757L664,765L663,773L662,781L661,788L660,796L660,803L660,810L660,817L660,824L662,831L668,840L676,849L688,858L703,863L729,866L756,859" stroke-opacity="1" stroke-width="5" stroke-linecap="round" stroke-linejoin="round" style="-webkit-tap-highlight-color: rgba(0, 0, 0, 0); stroke-opacity: 1; stroke-linecap: round; stroke-linejoin: round; -webkit-user-select: text;"></path><path fill="none" stroke="#000000" d="M691,453L696,451L702,451L711,459L721,473L733,494L743,517L749,541L749,563L748,591L740,615L730,639L721,663L713,687L709,711L708,733L708,761L713,785L722,807L733,826L747,841L758,844" stroke-opacity="1" stroke-width="5" stroke-linecap="round" stroke-linejoin="round" style="-webkit-tap-highlight-color: rgba(0, 0, 0, 0); stroke-opacity: 1; stroke-linecap: round; stroke-linejoin: round; -webkit-user-select: text;"></path><path fill="none" stroke="#000000" d="M709,426L714,429L722,435L730,446L737,459L741,473L746,487L750,500L752,513L753,526L753,539L753,551L753,564L753,575L752,587L750,598L748,609L747,620L745,630L743,640L740,651L738,661L736,670L733,679L731,687L729,696L728,704L726,713L724,722L722,731L720,739L719,746L719,753L719,760L719,767L719,774L719,781L719,787L720,794L722,799L724,805L726,811L729,817L732,822L735,826L738,830L742,834L747,838L750,840L754,843L759,846L764,850" stroke-opacity="1" stroke-width="5" stroke-linecap="round" stroke-linejoin="round" style="-webkit-tap-highlight-color: rgba(0, 0, 0, 0); stroke-opacity: 1; stroke-linecap: round; stroke-linejoin: round; -webkit-user-select: text;"></path></svg>