<svg height="874" version="1.1" width="768" xmlns="http://www.w3.org/2000/svg" xmlns:xlink="http://www.w3.org/1999/xlink" style="overflow: hidden; position: relative; -webkit-user-select: text;"><desc style="-webkit-tap-highlight-color: rgba(0, 0, 0, 0); -webkit-user-select: text;">Created with Raphaël 2.2.0</desc><defs style="-webkit-tap-highlight-color: rgba(0, 0, 0, 0); -webkit-user-select: text;"></defs><path fill="none" stroke="#000000" d="M31,45L33,49L37,50L41,50L48,51L56,51L66,52L76,52L88,52L99,53L113,53L126,54L140,55L154,57L168,58L183,59L199,60L218,60L236,61L254,62L273,63L293,63L314,64L337,64L361,65L385,65L410,66L439,66L467,67L497,67L528,68L560,68L592,68L625,69L657,69L690,69L725,69L756,69L766,69" stroke-opacity="1" stroke-width="5" stroke-linecap="round" stroke-linejoin="round" style="-webkit-tap-highlight-color: rgba(0, 0, 0, 0); stroke-opacity: 1; stroke-linecap: round; stroke-linejoin: round; -webkit-user-select: text;"></path><path fill="none" stroke="#000000" d="M35,85L39,85L43,85L47,85L54,85L62,85L71,85L84,85L96,85L111,85L127,85L147,85L166,85L187,85L209,85L232,85L256,85L285,86L313,87L342,88L373,89L405,91L440,92L479,94L521,94L565,95L611,97L662,97L713,97" stroke-opacity="1" stroke-width="5" stroke-linecap="round" stroke-linejoin="round" style="-webkit-tap-highlight-color: rgba(0, 0, 0, 0); stroke-opacity: 1; stroke-linecap: round; stroke-linejoin: round; -webkit-user-select: text;"></path><path fill="none" stroke="#000000" d="M46,107L37,109L36,110L35,110L35,111L37,111L40,112L46,112L54,113L67,114L81,114L101,115L121,116L144,116L169,116L198,117L226,117L255,118L286,119L319,120L353,121L392,122L433,123L479,124L529,126L583,128L638,129L694,131L746,132" stroke-opacity="1" stroke-width="5" stroke-linecap="round" stroke-linejoin="round" style="-webkit-tap-highlight-color: rgba(0, 0, 0, 0); stroke-opacity: 1; stroke-linecap: round; stroke-linejoin: round; -webkit-user-select: text;"></path><path fill="none" stroke="#000000" d="M35,140L38,143L50,144L59,144L72,145L88,145L108,145L129,145L153,145L181,145L210,145L240,147L273,148L309,149L349,151L395,152L448,153L507,153L568,153L628,154L682,156L724,160" stroke-opacity="1" stroke-width="5" stroke-linecap="round" stroke-linejoin="round" style="-webkit-tap-highlight-color: rgba(0, 0, 0, 0); stroke-opacity: 1; stroke-linecap: round; stroke-linejoin: round; -webkit-user-select: text;"></path><path fill="none" stroke="#000000" d="M44,167L31,171L30,171L33,172L38,173L45,174L55,176L67,177L85,178L105,179L135,179L169,179L209,179L256,178L306,178L359,178L414,178L470,182L528,185L587,189L644,193L691,196" stroke-opacity="1" stroke-width="5" stroke-linecap="round" stroke-linejoin="round" style="-webkit-tap-highlight-color: rgba(0, 0, 0, 0); stroke-opacity: 1; stroke-linecap: round; stroke-linejoin: round; -webkit-user-select: text;"></path><path fill="none" stroke="#000000" d="M66,204L68,204L75,204L83,205L94,206L108,206L123,207L143,207L166,208L196,208L228,208L266,208L311,208L361,208L417,208L477,208L543,208L610,208L674,209L725,212" stroke-opacity="1" stroke-width="5" stroke-linecap="round" stroke-linejoin="round" style="-webkit-tap-highlight-color: rgba(0, 0, 0, 0); stroke-opacity: 1; stroke-linecap: round; stroke-linejoin: round; -webkit-user-select: text;"></path><path fill="none" stroke="#000000" d="M69,243L71,245L76,245L85,245L98,245L116,245L137,245L161,244L193,243L228,243L268,243L314,243L368,243L429,244L497,245L567,246L635,248L692,253L729,258" stroke-opacity="1" stroke-width="5" stroke-linecap="round" stroke-linejoin="round" style="-webkit-tap-highlight-color: rgba(0, 0, 0, 0); stroke-opacity: 1; stroke-linecap: round; stroke-linejoin: round; -webkit-user-select: text;"></path><path fill="none" stroke="#000000" d="M44,268L47,274L52,274L57,275L63,276L73,277L86,278L103,278L127,279L161,279L201,279L250,279L307,279L370,279L440,279L516,282L592,286L662,290L718,295" stroke-opacity="1" stroke-width="5" stroke-linecap="round" stroke-linejoin="round" style="-webkit-tap-highlight-color: rgba(0, 0, 0, 0); stroke-opacity: 1; stroke-linecap: round; stroke-linejoin: round; -webkit-user-select: text;"></path><path fill="none" stroke="#000000" d="M81,310L76,310L75,310L76,310L80,310L88,310L103,310L124,310L147,310L178,310L213,310L256,310L310,309L373,309L444,309L520,310L597,313L670,319L724,325" stroke-opacity="1" stroke-width="5" stroke-linecap="round" stroke-linejoin="round" style="-webkit-tap-highlight-color: rgba(0, 0, 0, 0); stroke-opacity: 1; stroke-linecap: round; stroke-linejoin: round; -webkit-user-select: text;"></path><path fill="none" stroke="#000000" d="M73,358L78,362L86,362L98,362L116,362L138,362L170,362L208,361L257,360L317,359L387,359L468,359L554,363L639,371L710,381" stroke-opacity="1" stroke-width="5" stroke-linecap="round" stroke-linejoin="round" style="-webkit-tap-highlight-color: rgba(0, 0, 0, 0); stroke-opacity: 1; stroke-linecap: round; stroke-linejoin: round; -webkit-user-select: text;"></path><path fill="none" stroke="#000000" d="M82,385L69,389L67,390L67,391L73,391L81,392L91,393L106,394L125,395L147,396L177,396L212,397L253,397L303,398L362,399L431,400L507,401L588,404L667,410L730,415" stroke-opacity="1" stroke-width="5" stroke-linecap="round" stroke-linejoin="round" style="-webkit-tap-highlight-color: rgba(0, 0, 0, 0); stroke-opacity: 1; stroke-linecap: round; stroke-linejoin: round; -webkit-user-select: text;"></path><path fill="none" stroke="#000000" d="M81,425L81,427L86,427L91,427L101,427L117,427L139,427L169,427L203,427L245,427L296,427L355,429L422,431L499,435L581,439L664,446L733,457" stroke-opacity="1" stroke-width="5" stroke-linecap="round" stroke-linejoin="round" style="-webkit-tap-highlight-color: rgba(0, 0, 0, 0); stroke-opacity: 1; stroke-linecap: round; stroke-linejoin: round; -webkit-user-select: text;"></path><path fill="none" stroke="#000000" d="M77,473L77,479L81,481L89,483L103,485L126,486L161,486L205,486L261,485L329,483L407,483L491,483L577,486L656,493L720,501" stroke-opacity="1" stroke-width="5" stroke-linecap="round" stroke-linejoin="round" style="-webkit-tap-highlight-color: rgba(0, 0, 0, 0); stroke-opacity: 1; stroke-linecap: round; stroke-linejoin: round; -webkit-user-select: text;"></path><path fill="none" stroke="#000000" d="M104,516L96,519L93,519L93,520L93,521L94,522L103,524L117,525L142,525L178,525L222,525L278,525L347,525L429,525L522,527L616,533L702,545" stroke-opacity="1" stroke-width="5" stroke-linecap="round" stroke-linejoin="round" style="-webkit-tap-highlight-color: rgba(0, 0, 0, 0); stroke-opacity: 1; stroke-linecap: round; stroke-linejoin: round; -webkit-user-select: text;"></path><path fill="none" stroke="#000000" d="M94,551L97,554L98,554L100,555L102,557L105,558L112,560L128,561L156,561L193,561L246,560L316,557L404,556L507,556L618,560L723,574" stroke-opacity="1" stroke-width="5" stroke-linecap="round" stroke-linejoin="round" style="-webkit-tap-highlight-color: rgba(0, 0, 0, 0); stroke-opacity: 1; stroke-linecap: round; stroke-linejoin: round; -webkit-user-select: text;"></path><path fill="none" stroke="#000000" d="M103,594L103,598L113,598L128,598L154,598L191,598L235,598L292,598L364,598L455,599L561,603L672,612L761,626" stroke-opacity="1" stroke-width="5" stroke-linecap="round" stroke-linejoin="round" style="-webkit-tap-highlight-color: rgba(0, 0, 0, 0); stroke-opacity: 1; stroke-linecap: round; stroke-linejoin: round; -webkit-user-select: text;"></path><path fill="none" stroke="#000000" d="M99,624L100,626L101,626L103,627L105,629L109,632L118,635L137,637L172,638L225,638L307,636L420,633L555,633L693,648" stroke-opacity="1" stroke-width="5" stroke-linecap="round" stroke-linejoin="round" style="-webkit-tap-highlight-color: rgba(0, 0, 0, 0); stroke-opacity: 1; stroke-linecap: round; stroke-linejoin: round; -webkit-user-select: text;"></path><path fill="none" stroke="#000000" d="M101,690L101,692L109,692L120,692L139,692L162,692L203,692L263,693L352,693L471,696L614,707L753,722" stroke-opacity="1" stroke-width="5" stroke-linecap="round" stroke-linejoin="round" style="-webkit-tap-highlight-color: rgba(0, 0, 0, 0); stroke-opacity: 1; stroke-linecap: round; stroke-linejoin: round; -webkit-user-select: text;"></path><path fill="none" stroke="#000000" d="M160,723L157,724L152,724L148,725L142,726L135,728L129,729L125,730L123,731L122,731L121,731L122,732L130,732L146,734L185,734L249,734L344,732L467,731L606,735L740,753" stroke-opacity="1" stroke-width="5" stroke-linecap="round" stroke-linejoin="round" style="-webkit-tap-highlight-color: rgba(0, 0, 0, 0); stroke-opacity: 1; stroke-linecap: round; stroke-linejoin: round; -webkit-user-select: text;"></path><path fill="none" stroke="#000000" d="M133,784L134,788L141,788L150,788L168,788L197,790L243,792L318,792L424,793L557,799L704,816" stroke-opacity="1" stroke-width="5" stroke-linecap="round" stroke-linejoin="round" style="-webkit-tap-highlight-color: rgba(0, 0, 0, 0); stroke-opacity: 1; stroke-linecap: round; stroke-linejoin: round; -webkit-user-select: text;"></path><path fill="none" stroke="#000000" d="M148,822L156,826L173,827L205,827L254,827L331,827L436,825L566,826L709,840" stroke-opacity="1" stroke-width="5" stroke-linecap="round" stroke-linejoin="round" style="-webkit-tap-highlight-color: rgba(0, 0, 0, 0); stroke-opacity: 1; stroke-linecap: round; stroke-linejoin: round; -webkit-user-select: text;"></path><path fill="none" stroke="#000000" d="M130,849L133,855L137,855L144,855L155,855L170,855L191,856L219,859L254,862L305,864L384,866L495,867L638,868" stroke-opacity="1" stroke-width="5" stroke-linecap="round" stroke-linejoin="round" style="-webkit-tap-highlight-color: rgba(0, 0, 0, 0); stroke-opacity: 1; stroke-linecap: round; stroke-linejoin: round; -webkit-user-select: text;"></path></svg>