<svg height="874" version="1.1" width="768" xmlns="http://www.w3.org/2000/svg" xmlns:xlink="http://www.w3.org/1999/xlink" style="overflow: hidden; position: relative; -webkit-user-select: text;"><desc style="-webkit-tap-highlight-color: rgba(0, 0, 0, 0); -webkit-user-select: text;">Created with Raphaël 2.2.0</desc><defs style="-webkit-tap-highlight-color: rgba(0, 0, 0, 0); -webkit-user-select: text;"></defs><path fill="none" stroke="#000000" d="M137,44L141,48L141,49L141,50L141,51L141,52L141,53L141,54L141,55L141,56L141,57L141,58L141,59L141,60L141,61L141,62L141,64L141,65L142,66L142,67L142,68L142,69L142,70L142,71L142,72L143,73L143,74L143,75L143,76L144,77L144,78L144,79L144,81L145,82L145,83L145,84L145,85L146,86L146,87L146,88L146,89L146,90L146,91L147,92L147,93L147,94L147,95L147,96L147,97L147,98L147,99L147,100L147,101L147,102L147,103L147,104L147,105L147,106L147,108L147,110L147,111L147,113L147,114L147,115L147,116L147,117L147,118L147,119L147,120L147,121L147,123L147,124L147,125L147,126L147,127L147,128L147,129L148,130L148,131L148,133L148,134L148,135L148,136L148,137L148,139L148,140L148,141L148,142L148,143L148,144L149,144L149,145L149,146L149,147L149,148L149,149L149,150L149,151L149,152L150,153L150,154L150,155L150,156L150,157L151,157L151,158L151,159L151,160L151,161L151,162L151,163L151,164L151,165L151,166L151,167L151,168L151,169L151,170L151,171L151,172L152,172L152,173L153,174L154,175" stroke-opacity="1" stroke-width="5" stroke-linecap="round" stroke-linejoin="round" style="-webkit-tap-highlight-color: rgba(0, 0, 0, 0); stroke-opacity: 1; stroke-linecap: round; stroke-linejoin: round; -webkit-user-select: text;"></path><path fill="none" stroke="#000000" d="M244,108L245,112L245,113L245,114L245,115L245,116L245,117L245,118L245,119L245,120L245,121L245,123L245,124L245,125L245,126L245,127L245,128L245,130L245,132L245,133L245,135L245,136L245,137L245,139L245,140L245,142L245,143L245,145L245,146L245,147L245,148L245,149L245,150L245,152L245,153L245,154L245,155L245,157L245,158L245,159L245,161L245,162L245,163L245,164L245,166L245,167L244,168L244,169L244,171L244,172L244,173L244,174L244,175L244,176L244,177L244,178L244,179L244,180L244,181L244,182L244,183L244,184L244,186L244,187L244,188L243,189L243,191L243,192L243,193L243,195L242,196L242,198L242,199L242,200L242,201L242,202L242,203L242,204L242,205L242,206L242,207L242,208L242,210L241,211L241,212L241,213L241,214L241,215L241,216L241,217L241,218L241,220L241,222L241,223L241,224L241,225L241,227L241,229L241,230L240,231L240,232L240,234L240,235L240,237L240,238L240,239L240,240L240,241L240,242L240,243L240,244L240,245L240,246L240,247L240,248L240,249L240,250L240,251L240,252L240,253L240,254L240,255L240,256L240,257L240,258L240,259L240,260L240,261L240,262L240,263L240,264L240,265L240,266L240,267L240,268L240,269L240,270L240,271L240,272L240,273L240,274L240,275L240,276L240,277L240,278L240,279L240,280L240,281L240,282L240,283L240,284L240,285L240,286L240,287L240,288L240,289L240,290L240,291L240,292L240,293L240,294L240,295L240,296L240,297L240,298L240,300L240,301L240,303L240,304L240,306" stroke-opacity="1" stroke-width="5" stroke-linecap="round" stroke-linejoin="round" style="-webkit-tap-highlight-color: rgba(0, 0, 0, 0); stroke-opacity: 1; stroke-linecap: round; stroke-linejoin: round; -webkit-user-select: text;"></path><path fill="none" stroke="#000000" d="M367,93L367,98L367,99L367,100L367,101L366,102L366,103L365,105L365,106L364,107L364,108L364,110L364,111L363,112L363,113L363,114L363,115L363,116L363,117L363,118L363,119L363,120L363,121L363,122L363,123L363,124L363,125L363,126L363,127L363,128L363,129L363,130L363,131L363,132L363,133L363,134L363,135L363,136L363,137L363,138L363,139L363,140L363,141L363,142L363,143L363,144L363,145L363,146L363,147L363,148L363,149L363,150L363,151L362,152L362,153L362,154L362,155L362,156L362,157L362,158L362,159L362,160L362,161L362,162L362,163L362,164L361,165L361,166L361,167L361,169L361,170L361,171L361,172L361,173L361,174L361,175L361,176L361,177L361,178L361,179L361,180L361,181L360,181L360,182L360,183L360,184L360,185L360,186L360,187L360,188L360,189L359,190L359,191L359,192L359,193L359,194L359,195L359,196L359,197L359,198L359,199L359,200L359,201L359,202L359,203L358,203L358,204L358,205L358,206L358,207L358,208L358,209L358,210L358,211L358,212L358,213L358,214L358,215L358,216L358,217L358,218L358,219L358,220L358,221L358,222L358,223L358,224L358,225L358,226L358,227L358,228L358,229L358,230L358,231L358,232L358,233L358,234L358,235L358,236L358,237L358,238L358,239L358,240L358,241L358,242L358,243L358,244L358,245L358,246L358,247L359,247L360,248L361,249L361,251L361,254" stroke-opacity="1" stroke-width="5" stroke-linecap="round" stroke-linejoin="round" style="-webkit-tap-highlight-color: rgba(0, 0, 0, 0); stroke-opacity: 1; stroke-linecap: round; stroke-linejoin: round; -webkit-user-select: text;"></path><path fill="none" stroke="#000000" d="M438,139L440,144L440,145L440,146L440,147L440,148L440,149L440,150L440,151L440,152L440,153L440,154L440,155L440,156L440,157L440,158L440,159L440,160L440,161L440,162L440,163L440,164L440,165L440,166L440,167L440,168L440,169L440,170L440,171L440,172L440,173L440,174L440,175L440,176L440,177L440,178L440,179L440,180L440,181L440,182L440,183L440,184L440,185L440,186L440,187L440,188L440,189L440,190L440,191L440,192L440,193L440,194L440,195L440,196L440,197L440,198L440,199L440,200L440,201L440,202L440,203L440,204L440,205L440,206L440,207L440,208L440,209L440,210L440,211L440,212L440,213L440,214L440,215L440,216L440,217L440,218L440,219L440,220L440,221L440,222L440,223L440,224L440,225L440,226L440,227L440,228L440,229L440,230L440,231L440,232L440,233L440,234L440,235L440,236L440,237L440,238L440,239L440,240L440,241L440,242L440,243L440,244L441,244L441,245L441,246L441,247L441,248L441,249L441,250L441,251L441,252L441,253L441,254L441,255L441,256L441,257L441,258L441,259L441,260L441,261L441,262L441,263L441,264L442,264L442,265L442,266L442,267L442,268L442,269L442,270L442,271L442,272L442,273L442,274L442,275L442,276L443,277L443,278L443,279L443,280L443,281L443,282L443,283L443,284L443,285L443,286L443,288L444,288L444,289L444,290L444,291L444,292L444,293L444,294L444,295L444,297L444,298L444,299L444,300L444,301L444,302L444,303L444,304L444,305L444,306L444,307L444,308L444,309L444,310L445,311L445,312L445,313L445,315L445,316L445,317L445,318L446,319L446,320L446,321L446,322L446,324L446,325L446,326L446,327L446,328L446,329L446,330L446,331L446,332L447,333L447,334L447,335L447,336L448,337L448,338L448,339L448,340L448,341L448,342L448,343L448,344L449,344L449,345L449,346L449,347L449,348L449,349L450,350L450,351L451,352L451,353L451,354L451,355L452,355L452,356L453,356L453,357L454,358L454,359L455,359L455,361L455,363" stroke-opacity="1" stroke-width="5" stroke-linecap="round" stroke-linejoin="round" style="-webkit-tap-highlight-color: rgba(0, 0, 0, 0); stroke-opacity: 1; stroke-linecap: round; stroke-linejoin: round; -webkit-user-select: text;"></path><path fill="none" stroke="#000000" d="M530,235L532,240L532,241L532,242L532,243L532,244L532,245L532,246L532,247L532,248L532,249L532,250L532,251L532,252L532,254L532,255L531,256L531,257L531,259L531,261L531,262L531,263L531,264L531,265L531,266L531,267L531,269L531,270L531,271L531,273L531,274L531,275L530,276L530,277L530,278L530,279L530,280L530,281L530,282L530,283L530,284L530,285L530,286L530,287L530,288L530,289L530,290L530,291L530,292L530,293L529,294L529,295L529,296L529,298L529,299L529,300L529,301L529,302L529,303L529,304L528,305L528,306L528,307L528,308L528,310L528,311L528,312L528,313L528,314L528,315L528,316L528,317L528,318L528,320L528,322L528,324L528,325L528,326L528,327L528,328L528,329L528,330L528,332L528,333L528,334L528,335L528,336L528,337L528,338L528,339L528,340L528,341L528,342L528,343L528,344L528,345L528,346L528,347L528,348L528,349L528,350L528,351L528,352L528,353L528,354L527,356L527,357L527,358L527,359L527,360L527,361L527,362L527,363L527,364L527,366L527,368L527,370L527,371L527,372L527,373L527,375L527,376L527,377L527,378L527,379L527,381L527,382L527,383L527,384L527,385L527,386L527,387L527,388L527,390L527,392L527,393L527,394L527,395L527,396L527,398L527,399L527,400L527,401L527,402L527,403L527,405L527,406L527,407L527,408L527,409L527,410L527,411L527,412L527,413L527,414L527,415L527,416L527,417L527,418L527,419L527,421L527,422L527,423L527,424L528,424L528,425L528,426L528,427L528,428L528,429L528,430L528,431L528,432L528,433L528,434L528,435L528,436L528,437L528,438L528,439L528,440L528,441L528,442L528,443L528,444L528,445L529,446L529,447L529,448L529,449L529,450L529,451L529,452L530,453L530,454L531,455L531,456L532,456L533,457L533,458L533,459L534,461" stroke-opacity="1" stroke-width="5" stroke-linecap="round" stroke-linejoin="round" style="-webkit-tap-highlight-color: rgba(0, 0, 0, 0); stroke-opacity: 1; stroke-linecap: round; stroke-linejoin: round; -webkit-user-select: text;"></path><path fill="none" stroke="#000000" d="M572,199L572,203L572,204L572,205L572,206L572,207L572,208L572,209L572,210L572,211L572,212L572,213L572,214L572,215L572,216L572,217L572,218L572,220L572,222L572,223L572,224L572,225L572,226L572,227L572,229L572,230L572,231L572,232L572,234L572,235L572,237L572,239L572,240L572,241L572,242L572,244L572,246L572,247L572,248L572,249L572,251L572,252L572,253L572,254L572,256L572,257L572,259L572,260L572,261L572,263L572,264L572,266L572,267L572,268L572,269L572,270L572,271L572,273L572,274L572,275L572,276L572,277L572,278L572,279L572,280L572,281L572,283L572,285L572,286L572,287L572,288L572,289L572,291L572,293L572,294L572,295L572,297L572,298L572,299L572,300L572,302L572,303L572,304L572,305L572,307L572,308L572,310L572,311L572,312L573,313L573,315L573,316L573,317L573,319L573,320L573,321L573,322L574,324L574,325L574,326L574,327L574,329L574,330L574,331L574,332L574,333L574,334L574,335L574,337L574,338L574,339L574,340L574,342L574,343L574,344L574,345L574,347L574,348L574,349L574,350L574,351L574,353L574,354L574,355L574,356L574,357L574,358L574,359L574,360L574,361L574,362L574,363L574,364L574,365L574,366L574,367L574,368L574,369L574,370L574,371L574,372L575,373L575,374L575,375L575,376L575,377L575,378L575,379L575,380L575,381L575,382L575,383L575,384L575,385L575,386L575,387L575,388L575,389L575,390L575,391L575,392L575,393L575,395L576,395L576,397L576,398L576,399L576,400L576,401L576,402L576,403L576,404L576,405L577,406L577,407L577,409L577,410L577,411L577,412L577,413L577,414L577,415L577,416L577,417L577,418L577,419L577,420L577,421L577,422L577,423L577,424L577,425L577,426L577,427L577,428L577,429L577,430L577,431L577,432L577,433L577,434L577,435L577,436L577,437L577,438L577,439L577,440L577,441L577,442L577,443L577,444L577,445L577,446L577,447L577,448L577,449L577,450L577,451L577,452L578,452L578,453L578,454L579,455L579,456L580,456L580,457L581,458L581,459L581,460" stroke-opacity="1" stroke-width="5" stroke-linecap="round" stroke-linejoin="round" style="-webkit-tap-highlight-color: rgba(0, 0, 0, 0); stroke-opacity: 1; stroke-linecap: round; stroke-linejoin: round; -webkit-user-select: text;"></path><path fill="none" stroke="#000000" d="M445,330L445,337L445,338L445,339L445,340L445,341L445,342L445,343L445,344L445,345L445,346L445,347L445,348L445,349L445,350L445,351L445,352L445,353L445,354L445,356L445,358L445,359L445,360L445,361L445,362L445,364L445,365L445,366L445,368L445,369L445,370L445,371L445,372L445,373L446,373L446,375L446,376L446,378L446,380L446,381L446,382L446,383L446,384L446,385L446,386L446,387L446,388L446,389L446,390L446,391L446,392L446,393L446,394L446,395L446,396L446,397L446,398L446,399L446,400L446,401L446,402L446,403L446,404L446,405L446,406L446,407L446,408L446,409L446,410L446,411L446,412L446,413L446,414L446,415L446,416L446,417L446,419L446,420L446,422L447,422L447,423L447,424L447,425L447,426L447,427L447,428L447,429L447,430L448,431L448,432L448,433L448,434L448,435L448,436L448,437L448,438L448,439L448,440L448,441L448,442L448,443L448,444L449,444L449,445L449,446L449,447L449,448L449,449L449,450L449,451L449,452L449,453L449,454L449,455L450,456L450,457L450,458L450,459L450,460L450,461L450,462L450,463L450,464L450,465L451,465L451,466L451,467L451,468L451,469L451,470L451,471L451,472L451,473L452,474L452,475L452,476L452,477L452,478L453,478L453,479L453,480L453,481L453,482L453,483L454,483L454,484L454,485L455,486L455,487L455,488L455,489L455,490L456,491L456,492L456,494L456,496L456,498L457,500L457,502L457,504L457,506" stroke-opacity="1" stroke-width="5" stroke-linecap="round" stroke-linejoin="round" style="-webkit-tap-highlight-color: rgba(0, 0, 0, 0); stroke-opacity: 1; stroke-linecap: round; stroke-linejoin: round; -webkit-user-select: text;"></path><path fill="none" stroke="#000000" d="M493,378L492,384L492,385L492,386L492,387L492,388L492,389L492,390L492,391L492,392L492,393L492,394L492,395L492,396L492,397L492,398L492,399L492,400L492,401L492,402L492,403L492,404L492,405L492,406L492,407L492,408L492,409L492,410L492,411L492,412L492,413L492,414L492,415L492,416L492,417L492,418L492,419L492,420L492,421L492,422L492,423L492,424L492,425L492,426L492,427L492,428L492,429L492,430L492,431L492,432L492,433L492,434L492,435L492,436L492,437L492,438L492,439L492,440L492,441L492,442L492,443L492,444L492,445L492,446L492,447L492,448L492,449L492,450L492,451L492,452L492,453L492,455L492,456L492,457L492,458L492,459L492,460L492,461L492,463L492,464L492,465L492,466L492,467L492,468L492,469L492,470L492,471L492,472L492,473L492,474L492,475L492,476L492,477L492,478L492,479L492,480L492,481L492,482L492,483L492,484L492,485L491,486L491,487L491,488L491,489L491,490L491,491L491,492L491,493L491,494L491,495L491,496L491,497L491,498L491,499L491,500L491,501L491,502L491,503L491,504L491,505L491,506L490,507L490,508L490,509L490,510L490,511L490,512L490,513L490,514L490,515L490,516L490,517L490,518L490,519L490,520L490,521L490,522L490,523L490,524L490,525L490,526L490,527L490,528L490,529L490,530L490,531L490,532L490,533L490,534L490,535L490,536L490,537L490,538L490,539L490,540L490,541L490,542L490,543L490,544L490,545L490,546L491,548L491,551L491,553L491,555" stroke-opacity="1" stroke-width="5" stroke-linecap="round" stroke-linejoin="round" style="-webkit-tap-highlight-color: rgba(0, 0, 0, 0); stroke-opacity: 1; stroke-linecap: round; stroke-linejoin: round; -webkit-user-select: text;"></path><path fill="none" stroke="#000000" d="M555,474L555,480L555,481L555,482L555,483L555,484L555,485L555,486L555,487L555,488L555,489L555,490L555,491L555,492L555,493L555,494L555,495L555,496L555,497L555,499L555,500L555,501L555,502L555,503L555,504L555,505L555,506L555,507L555,508L555,509L555,510L555,511L555,512L555,513L555,514L555,515L555,516L555,517L555,518L555,519L555,520L555,522L555,523L555,524L555,525L555,526L555,527L555,528L555,529L555,530L555,531L555,532L555,533L555,534L555,535L555,536L555,537L555,538L555,539L555,540L555,541L555,542L555,543L555,544L555,545L555,546L556,547L556,548L556,549L556,550L556,551L556,552L556,553L556,554L556,555L556,556L556,557L556,558L556,559L557,560L557,561L557,562L557,563L557,564L557,565L557,566L557,567L557,568L557,569L557,570L557,571L557,572L557,573L557,574L558,574L558,575L558,576L558,577L558,578L558,579L558,580L558,581L558,582L558,583L558,584L558,585L558,586L558,587L558,588L558,589L558,590L558,591L558,592L558,593L558,594L558,595L558,596L558,597L558,598L558,599L558,600L558,601L558,602L558,603L558,604L558,605L558,606L558,607L558,608L558,609L558,610L558,611L558,612L559,612L559,613L559,614L559,615L559,616L560,616L560,617L560,618L560,619L560,620L560,621L561,621L561,622L561,623L561,624L561,625L561,626L561,627L561,628L561,629L561,630L561,631L562,631L562,632L562,633L562,634L562,635L562,636L562,637L560,638L560,640L559,641L558,642" stroke-opacity="1" stroke-width="5" stroke-linecap="round" stroke-linejoin="round" style="-webkit-tap-highlight-color: rgba(0, 0, 0, 0); stroke-opacity: 1; stroke-linecap: round; stroke-linejoin: round; -webkit-user-select: text;"></path><path fill="none" stroke="#000000" d="M601,569L602,575L602,576L602,577L602,578L602,579L602,580L602,581L602,582L602,583L602,584L602,585L602,586L602,587L602,588L602,589L602,590L602,591L602,592L602,593L602,594L602,595L602,596L602,597L602,598L602,599L602,600L602,601L602,602L602,603L602,604L602,605L602,606L602,607L602,608L602,609L602,610L602,611L602,612L602,613L602,614L602,615L602,616L602,617L602,618L602,619L602,620L602,621L602,622L602,623L602,624L602,625L602,626L602,627L602,628L602,629L602,630L602,631L602,632L602,633L602,634L602,635L602,636L602,637L602,638L602,639L602,640L602,641L602,642L602,643L602,644L602,645L602,646L602,647L602,648L602,649L602,650L602,651L602,652L602,653L602,654L602,655L602,656L602,657L602,658L602,659L602,660L602,661L602,662L602,663L602,664L602,665L602,666L603,667L603,668L603,669L603,670L603,671L603,672L603,673L603,674L603,675L603,676L603,677L604,678L604,679L604,680L604,681L604,682L604,683L604,684L604,685L604,686L604,687L604,688L604,689L604,690L604,691L604,692L604,693L604,694L604,695L604,696L604,697L604,698L604,699L604,700L604,701L605,702L605,703L605,704L605,705L605,706L606,706L606,707L606,708L606,709L606,710L606,711L607,711L607,712L608,712L608,713L609,713L609,714L609,715L610,716L610,717L611,717L611,718L611,719L611,720L611,721L611,722L611,723L611,724" stroke-opacity="1" stroke-width="5" stroke-linecap="round" stroke-linejoin="round" style="-webkit-tap-highlight-color: rgba(0, 0, 0, 0); stroke-opacity: 1; stroke-linecap: round; stroke-linejoin: round; -webkit-user-select: text;"></path><path fill="none" stroke="#000000" d="M635,685L636,691L636,692L636,693L636,694L636,695L636,696L636,697L636,698L636,699L636,700L636,701L636,702L636,703L636,704L636,705L636,706L636,707L636,708L636,709L637,710L637,711L637,712L637,713L637,714L637,715L637,716L637,717L638,717L638,718L638,719L638,720L638,721L638,722L638,723L638,724L638,725L638,726L638,727L639,727L639,728L639,729L639,730L639,731L639,732L639,733L639,734L639,735L640,735L640,736L640,737L640,738L640,739L640,740L640,741L640,742L640,743L640,744L640,745L640,746L640,747L640,748L640,749L640,750L640,751L640,752L641,752L641,753L641,754L641,755L641,756L641,757L641,758L641,759L641,760L641,761L641,762L641,763L641,764L641,765L642,765L642,766L642,767L642,768L642,769L642,770L642,771L642,772L642,773L642,774L642,775L642,776L642,777L642,778L642,779L642,780L642,781L643,781L643,782L643,783L643,784L643,785L643,786L643,787L643,788L643,789L643,790L644,790L644,791L644,792L644,793L644,794L644,795L644,796L645,797L645,798L645,799L645,800L645,801L645,802L645,803L645,804L645,805L646,806L646,807L646,808L646,809L646,810L647,811L647,812L647,813L647,814L647,815L648,815L648,816L648,817L648,818L649,818L649,819L649,820L650,820L650,821L650,822L650,823L651,823L651,824L652,824L652,825L652,826L653,827L653,828L654,829L654,830L654,831L655,831L655,832L655,833L656,834L656,835L657,835L657,836L657,837L658,837L658,838L659,839L660,840L660,841L661,841L661,842L662,843L663,844" stroke-opacity="1" stroke-width="5" stroke-linecap="round" stroke-linejoin="round" style="-webkit-tap-highlight-color: rgba(0, 0, 0, 0); stroke-opacity: 1; stroke-linecap: round; stroke-linejoin: round; -webkit-user-select: text;"></path><path fill="none" stroke="#000000" d="M700,799L700,802L700,803L700,804L700,805L700,806L700,807L700,808L700,809L700,810L700,811L700,812L700,813L700,814L700,815L700,816L700,817L700,818L700,819L700,820L700,821L700,822L700,823L700,824L700,825L700,826L700,827L700,828L700,829L700,830L700,831L700,832L700,833L700,834L700,835L700,836L700,837L700,838L700,839L700,840L700,841L700,842L700,843L700,844L700,845L700,846L700,847L700,848L700,849L700,850L700,851L700,852L700,853L700,854L700,855L700,856L700,857L700,858L700,859L700,860L700,861L700,862L700,863L700,864L700,865L700,866L700,867L700,868L700,869" stroke-opacity="1" stroke-width="5" stroke-linecap="round" stroke-linejoin="round" style="-webkit-tap-highlight-color: rgba(0, 0, 0, 0); stroke-opacity: 1; stroke-linecap: round; stroke-linejoin: round; -webkit-user-select: text;"></path></svg>