<svg height="874" version="1.1" width="768" xmlns="http://www.w3.org/2000/svg" xmlns:xlink="http://www.w3.org/1999/xlink" style="overflow: hidden; position: relative; -webkit-user-select: text;"><desc style="-webkit-tap-highlight-color: rgba(0, 0, 0, 0); -webkit-user-select: text;">Created with Raphaël 2.2.0</desc><defs style="-webkit-tap-highlight-color: rgba(0, 0, 0, 0); -webkit-user-select: text;"></defs><path fill="none" stroke="#000000" d="M35,35L41,40L42,41L42,42L43,43L45,43L45,45L47,45L47,47L49,48L50,49L51,50L52,52L53,53L54,55L55,56L56,57L57,58L58,60L59,62L60,64L61,65L61,66L62,67L62,68L62,69L63,71L63,72L64,74L64,75L64,77L65,78L65,79L66,81L66,82L66,84L66,85L66,86L67,88L67,89L67,91L67,93L67,94L67,96L67,97L67,99L67,101L67,102L67,104L67,106L67,107L67,108L67,110L67,111L67,113L67,115L67,117L67,118L67,120L67,122L67,124L67,126L67,128L67,130L67,132L67,133L67,135L67,137L67,139L67,140L67,142L67,144L67,145L67,147L67,150L67,152L67,154L67,155L67,157L67,159L67,160L67,162L67,164L67,165L67,167L67,168L67,170L67,171L67,173L67,174L67,176L67,177L67,179L67,180L67,181L67,183L67,184L67,185L67,187L67,188L67,189L67,191L67,192L67,193L67,194L67,196L67,197L66,198L66,199L66,201L66,203L66,204L66,205L66,207L66,208L66,209L66,210L66,212L66,213L66,214L66,215L66,216L66,218L66,219L66,220L66,222L66,223L66,225L66,226L66,228L66,229L67,231L67,232L67,233L67,234L68,235L68,236L68,237L69,238L69,239L69,240L70,241L70,242L71,243L71,244L71,245L72,246L72,247L73,247L73,248L74,249L74,250L74,251L75,251L75,252L76,252L76,253L76,254L77,254L77,255L78,256L78,257L79,257L79,258L80,258L80,259L81,259L81,260L82,260L83,261L84,261L84,262L85,263L86,263L86,264L87,264L88,265L88,266L89,266L90,266L91,267L92,268L93,268L93,269L94,269L95,270L96,270L96,271L97,271L98,271L99,271L99,272L100,272L101,272L102,273L103,273L104,274L105,274L106,274L107,274L108,274L108,275L109,275L110,275L111,275L112,276L113,276L114,276L115,276L116,276L117,276L118,276L119,276L120,276L121,276L122,276L123,276L124,276L125,276L126,276L127,276L128,276L129,276L130,276L131,276L132,276L133,276L134,276L135,276L136,276L137,276L138,276L139,276L140,276L141,276L142,276L143,275L144,275L145,274L146,274L147,274L148,274L149,273L150,273L151,273L152,272L153,272L154,271L155,271L156,271L156,270L157,270L158,269L159,269L159,268L160,268L161,267L162,266L164,265L165,264L168,261" stroke-opacity="1" stroke-width="5" stroke-linecap="round" stroke-linejoin="round" style="-webkit-tap-highlight-color: rgba(0, 0, 0, 0); stroke-opacity: 1; stroke-linecap: round; stroke-linejoin: round; -webkit-user-select: text;"></path><path fill="none" stroke="#000000" d="M79,42L84,45L86,47L89,49L91,51L93,53L95,55L96,57L98,60L100,62L102,65L103,67L105,70L106,73L108,76L109,79L110,83L111,86L112,90L113,93L113,97L113,100L114,104L115,108L115,111L115,116L116,119L116,123L116,127L116,131L117,135L117,139L117,143L117,146L117,150L117,153L117,156L117,159L117,162L117,166L117,169L117,172L117,175L117,178L117,181L117,184L117,187L117,190L117,193L117,195L117,198L117,201L117,203L117,206L117,208L117,211L117,214L117,217L117,220L117,222L117,224L117,226L117,228L117,230L117,231L117,233L117,235L117,237L117,238L117,240L117,242L118,243L118,244L118,246L118,247L119,248L119,249L120,250L120,251L120,252L121,254L121,255L122,256L122,257L122,258L123,259L123,260L124,261L125,262L125,263L126,264L127,265L127,266L128,267L129,268L130,269L131,270L132,271L133,272L134,273L135,274L136,275L137,276L138,276L139,277L139,278L140,278L141,278L142,279L143,280L144,280L145,281L146,281L147,282L148,282L149,283L150,283L151,284L152,284L153,284L154,285L155,285L156,285L157,286L158,286L159,286L160,286L161,286L162,286L163,286L164,287L165,287L166,287L167,287L169,287L169,288L170,288L171,288L172,288L173,288L174,288L175,288L176,288L177,288L178,288L179,288L180,288L181,288L182,288L183,287L184,287L185,286L186,286L187,286L188,285L189,284L190,284L191,283L192,283L193,282L194,281L195,281L196,280L197,279L198,279L198,278L199,277L200,277L200,276L201,276L201,275L202,275L202,274L203,273L204,271L205,269L207,266L209,262L212,259L217,253" stroke-opacity="1" stroke-width="5" stroke-linecap="round" stroke-linejoin="round" style="-webkit-tap-highlight-color: rgba(0, 0, 0, 0); stroke-opacity: 1; stroke-linecap: round; stroke-linejoin: round; -webkit-user-select: text;"></path><path fill="none" stroke="#000000" d="M142,54L152,59L156,61L159,64L162,67L165,69L167,73L170,77L171,80L173,84L174,88L176,92L177,96L178,100L179,105L180,109L181,114L183,119L183,124L184,129L184,134L185,138L185,143L186,147L186,152L186,157L187,162L187,166L188,170L188,174L188,179L188,182L188,186L188,190L188,193L188,197L188,201L188,204L188,207L188,210L188,213L188,215L188,218L188,221L188,223L188,226L188,229L188,231L188,233L188,236L188,237L188,240L188,242L188,243L188,245L188,247L188,249L188,250L188,252L188,253L188,255L189,256L189,257L189,259L189,260L190,261L190,263L190,264L191,265L191,266L191,267L191,268L192,269L192,270L192,271L193,272L193,273L194,274L194,275L194,276L195,276L195,277L195,278L196,278L196,279L197,280L198,281L198,282L199,283L200,284L200,285L201,286L202,286L202,287L203,288L204,289L205,289L205,290L206,291L207,291L208,292L209,293L210,293L211,293L212,294L212,295L213,295L214,296L215,297L216,297L216,298L217,298L218,298L219,298L220,299L221,299L222,299L223,300L224,300L225,300L226,300L227,300L228,300L229,300L230,301L231,301L232,301L233,301L234,301L235,301L236,301L237,301L238,301L239,301L240,301L241,301L242,301L243,301L244,301L245,301L246,301L247,301L248,301L249,300L250,300L251,300L251,299L252,299L253,299L253,298L254,298L255,297L256,297L256,296L257,296L258,295L259,295L259,294L260,293L261,292L261,291L262,290L263,288L266,284L270,279" stroke-opacity="1" stroke-width="5" stroke-linecap="round" stroke-linejoin="round" style="-webkit-tap-highlight-color: rgba(0, 0, 0, 0); stroke-opacity: 1; stroke-linecap: round; stroke-linejoin: round; -webkit-user-select: text;"></path><path fill="none" stroke="#000000" d="M202,59L209,61L211,63L214,65L216,68L219,72L222,76L225,79L228,83L231,86L234,90L235,94L238,99L239,103L242,108L243,113L245,118L247,123L249,129L250,135L252,141L253,147L254,153L255,159L256,165L257,170L257,176L258,181L258,186L259,190L259,195L259,199L260,204L260,208L261,212L261,216L261,220L261,223L261,227L261,230L261,233L261,236L261,239L261,241L261,244L261,246L261,249L261,251L261,253L261,256L261,257L261,259L261,261L261,263L261,264L261,266L261,268L261,269L261,271L261,272L261,274L261,275L261,276L261,277L261,278L261,280L261,281L261,283L261,284L261,286L261,287L261,288L261,289L261,290L261,291L261,292L261,293L261,294L262,295L263,296L263,298L264,299L265,300L266,301L266,302L266,303L267,304L268,305L269,306L270,307L270,308L271,308L271,309L272,309L273,310L274,311L275,312L276,312L276,313L277,313L278,314L279,315L280,315L281,316L282,316L283,317L284,317L285,318L286,319L287,319L288,320L289,320L290,320L291,320L291,321L292,321L293,321L293,322L294,322L295,322L296,322L297,322L298,322L299,322L300,323L301,323L302,323L303,323L304,323L305,324L306,324L307,324L308,324L309,324L310,324L311,324L312,324L313,324L314,324L315,324L316,324L317,324L318,324L319,324L320,324L321,324L322,324L323,324L324,323L325,322L326,322L327,321L329,320L330,318L332,316L335,313L341,308" stroke-opacity="1" stroke-width="5" stroke-linecap="round" stroke-linejoin="round" style="-webkit-tap-highlight-color: rgba(0, 0, 0, 0); stroke-opacity: 1; stroke-linecap: round; stroke-linejoin: round; -webkit-user-select: text;"></path><path fill="none" stroke="#000000" d="M249,60L256,61L259,62L262,65L265,69L269,72L274,76L278,80L282,84L285,87L288,91L291,95L293,99L296,104L299,108L301,113L303,118L305,124L306,129L307,134L309,139L310,144L312,150L312,155L314,160L314,166L315,172L316,176L317,181L317,186L317,191L318,197L318,202L318,207L318,211L318,215L318,220L318,224L318,227L318,232L318,235L318,239L318,242L318,245L318,248L318,251L318,254L318,256L318,258L318,261L318,264L318,266L318,268L318,270L318,272L318,274L318,276L318,278L319,281L319,283L319,285L319,287L319,289L320,291L320,292L320,294L321,295L321,297L322,298L322,299L322,300L322,301L323,303L323,304L324,305L324,306L324,307L325,308L325,309L326,310L326,311L327,312L327,313L327,314L328,315L328,317L329,317L329,319L329,320L330,320L331,322L331,323L332,324L333,325L333,326L334,327L335,328L335,329L336,330L337,330L337,331L338,332L339,333L340,334L341,335L342,336L343,337L344,337L344,338L345,339L346,339L346,340L347,340L348,341L349,341L349,342L350,342L351,342L351,343L352,343L353,344L354,344L355,344L356,345L357,345L358,345L358,346L359,346L360,346L361,346L362,347L363,347L364,347L365,347L366,347L367,347L368,347L368,348L369,348L370,348L371,348L372,348L373,348L374,348L375,348L376,348L377,348L378,348L379,348L380,348L381,348L382,348L383,348L384,348L385,348L386,348L387,348L388,348L390,347L391,347L392,346L393,345L395,343L398,341L403,338L409,335" stroke-opacity="1" stroke-width="5" stroke-linecap="round" stroke-linejoin="round" style="-webkit-tap-highlight-color: rgba(0, 0, 0, 0); stroke-opacity: 1; stroke-linecap: round; stroke-linejoin: round; -webkit-user-select: text;"></path><path fill="none" stroke="#000000" d="M305,51L308,54L312,56L316,58L321,61L327,65L332,69L337,73L341,77L346,82L349,87L352,94L355,100L358,105L361,112L363,119L365,125L368,132L370,139L372,146L375,153L377,160L378,167L380,174L381,181L382,187L382,194L383,201L384,207L384,213L385,219L385,225L386,230L386,236L387,241L387,245L387,250L387,255L387,259L387,263L388,266L388,270L388,273L388,276L388,279L388,282L388,285L388,287L388,289L388,291L388,294L388,296L388,298L388,300L388,302L388,304L388,306L389,308L389,310L389,311L389,313L390,315L390,316L390,317L390,318L391,320L391,321L392,322L392,323L392,324L393,325L393,326L394,327L395,329L395,330L396,331L397,332L397,333L397,334L398,335L399,335L399,336L400,337L400,338L401,339L402,340L402,341L403,341L404,342L404,343L405,343L406,344L407,344L407,345L408,346L409,347L410,348L411,348L412,349L412,350L413,350L414,351L415,351L416,352L417,352L417,353L418,353L419,354L420,354L421,355L422,356L423,356L424,356L425,356L426,357L427,357L428,357L429,357L430,357L430,358L431,358L432,358L433,358L434,358L435,358L436,358L437,358L438,358L439,358L440,358L441,358L442,358L443,358L444,358L445,358L446,358L447,358L448,358L449,358L450,358L451,358L452,357L453,356L454,356L455,356L456,354L458,352L463,348" stroke-opacity="1" stroke-width="5" stroke-linecap="round" stroke-linejoin="round" style="-webkit-tap-highlight-color: rgba(0, 0, 0, 0); stroke-opacity: 1; stroke-linecap: round; stroke-linejoin: round; -webkit-user-select: text;"></path><path fill="none" stroke="#000000" d="M385,59L389,64L392,66L398,68L404,71L412,73L417,77L421,81L425,86L428,91L431,97L434,103L437,108L439,114L441,120L444,128L447,136L449,144L451,152L453,160L454,168L456,176L457,182L459,189L460,196L461,203L462,209L463,215L463,222L464,229L465,235L465,240L465,247L466,252L466,258L467,263L467,269L467,274L468,279L468,284L468,289L468,294L468,299L468,304L468,308L469,312L469,316L469,319L470,322L470,325L470,328L470,331L471,333L471,336L472,338L472,341L472,343L472,345L473,347L473,349L474,351L475,353L475,354L475,355L476,357L477,358L477,359L478,360L478,361L479,362L480,364L481,365L482,366L482,367L483,368L484,368L485,370L486,371L487,372L488,373L489,373L489,374L490,374L491,375L491,376L492,376L493,377L494,377L494,378L495,378L496,378L497,379L497,380L498,380L499,381L500,381L500,382L501,382L502,382L503,383L504,383L505,383L506,383L507,383L508,384L509,384L510,384L511,384L511,385L512,385L513,385L514,385L515,385L516,385L517,385L518,385L519,385L520,385L521,385L522,385L523,385L524,385L525,385L526,385L527,385L528,385L529,385L529,384L530,384L530,383L531,383L531,382L532,382L533,381L534,380L535,378L537,375L541,372" stroke-opacity="1" stroke-width="5" stroke-linecap="round" stroke-linejoin="round" style="-webkit-tap-highlight-color: rgba(0, 0, 0, 0); stroke-opacity: 1; stroke-linecap: round; stroke-linejoin: round; -webkit-user-select: text;"></path><path fill="none" stroke="#000000" d="M489,95L491,94L494,95L500,97L507,102L511,108L515,114L518,120L521,127L524,133L527,140L531,147L533,155L536,162L537,169L538,176L539,183L540,190L541,197L542,205L542,212L543,219L543,226L543,233L543,241L544,248L544,255L544,262L544,269L544,276L544,283L544,290L544,296L544,303L544,309L544,315L544,320L544,325L544,329L544,334L544,338L544,342L544,347L545,350L545,354L545,358L546,361L546,365L547,367L548,370L548,372L549,374L550,376L551,378L552,380L553,381L554,383L555,384L557,386L558,387L559,388L560,389L561,390L562,391L564,392L565,393L566,393L567,394L568,395L569,395L570,395L571,396L572,397L573,397L574,398L575,398L576,398L577,399L578,399L579,399L580,399L581,399L582,399L583,399L584,399L585,400L586,400L587,400L588,400L589,400L590,400L591,400L592,400L593,400L594,400L595,400L596,400L597,400L598,400L599,400L600,400L601,400L602,400L604,398L607,393" stroke-opacity="1" stroke-width="5" stroke-linecap="round" stroke-linejoin="round" style="-webkit-tap-highlight-color: rgba(0, 0, 0, 0); stroke-opacity: 1; stroke-linecap: round; stroke-linejoin: round; -webkit-user-select: text;"></path><path fill="none" stroke="#000000" d="M587,101L594,103L598,107L602,112L606,116L609,121L612,126L615,131L618,138L623,145L626,152L628,160L630,169L632,176L633,184L635,192L636,200L638,208L639,217L640,226L640,234L641,242L641,252L641,259L641,266L641,275L641,283L641,290L641,298L641,305L641,312L641,320L641,327L641,333L640,340L640,346L640,351L640,356L640,361L640,366L640,371L640,375L640,379L640,382L640,385L640,388L640,391L640,394L641,396L642,398L643,400L644,402L645,404L645,405L646,407L647,407L648,409L650,410L651,411L652,411L653,412L654,412L654,413L655,413L656,414L657,415L658,415L659,415L660,415L660,416L661,416L662,416L662,417L663,417L664,417L665,417L666,417L667,417L668,417L669,417L670,417L671,417L672,417L673,417L674,417L675,417L676,417L677,417L678,417L679,417L680,417L681,417L682,417L683,417L684,417L684,416L685,416L686,416L686,415L687,415L688,415L689,414L690,414L691,413L692,412L693,412L694,411L694,410L695,410L696,409L697,407L698,406L699,404L701,402L703,399L706,394" stroke-opacity="1" stroke-width="5" stroke-linecap="round" stroke-linejoin="round" style="-webkit-tap-highlight-color: rgba(0, 0, 0, 0); stroke-opacity: 1; stroke-linecap: round; stroke-linejoin: round; -webkit-user-select: text;"></path><path fill="none" stroke="#000000" d="M669,106L673,107L677,109L682,113L687,117L692,122L697,127L701,133L704,139L707,145L709,152L712,159L713,166L716,174L717,182L719,191L720,199L722,207L724,214L725,223L726,231L726,240L727,249L727,257L727,265L727,273L727,281L727,289L727,297L727,304L727,311L727,318L726,324L726,330L726,336L725,341L725,346L725,351L725,356L725,360L725,364L725,367L725,371L725,374L725,376L725,379L725,381L726,383L726,385L727,387L727,389L728,390L728,391L728,393L729,394L730,395L730,396L731,398L732,400L733,400L733,402L734,403L735,404L735,405L736,406L737,407L738,408L738,409L739,410L740,410L740,411L741,412L742,412L742,413L743,414L744,415L745,415L745,416L746,416L747,417L748,417L748,418L749,419L750,419L750,420L751,420L752,421L752,422L753,422L754,423L755,424L756,424L757,425L758,426L759,426L759,427L760,427L761,427L762,427L763,427L764,427L765,426" stroke-opacity="1" stroke-width="5" stroke-linecap="round" stroke-linejoin="round" style="-webkit-tap-highlight-color: rgba(0, 0, 0, 0); stroke-opacity: 1; stroke-linecap: round; stroke-linejoin: round; -webkit-user-select: text;"></path><path fill="none" stroke="#000000" d="M675,242L676,249L676,253L676,257L677,261L677,267L679,273L680,278L681,284L682,291L683,297L684,303L685,309L686,315L687,322L688,328L689,335L689,342L690,349L691,356L691,364L692,371L692,378L692,385L692,391L692,398L692,405L692,411L692,417L692,424L692,431L692,437L692,442L691,448L691,454L690,459L690,465L690,470L690,474L690,478L690,483L690,486L690,490L690,495L690,498L690,502L691,506L691,509L692,512L694,515L695,517L696,520L698,523L699,525L701,528L703,530L704,533L706,536L708,539L710,541L711,543L713,546L716,548L717,550L719,552L720,554L722,556L723,557L725,558L727,560L728,561L729,562L730,563L731,563L733,564L733,565L735,565L736,566L737,567L738,568L739,569L740,570L741,570L742,571L743,571L745,572L746,572L747,573L748,573L749,574L750,574L751,575L752,575L754,575L755,576L756,576L758,576L759,577L761,577L762,577L763,577L764,577L765,577" stroke-opacity="1" stroke-width="5" stroke-linecap="round" stroke-linejoin="round" style="-webkit-tap-highlight-color: rgba(0, 0, 0, 0); stroke-opacity: 1; stroke-linecap: round; stroke-linejoin: round; -webkit-user-select: text;"></path><path fill="none" stroke="#000000" d="M576,249L583,260L585,265L587,269L589,274L590,278L591,283L592,287L593,291L594,295L595,300L596,305L598,310L599,314L599,318L600,322L600,327L601,331L601,336L602,340L602,345L603,350L603,354L603,359L603,364L604,368L604,373L604,377L604,382L604,386L604,390L604,395L604,398L604,402L603,405L603,408L602,411L602,414L601,417L601,420L601,423L601,426L600,429L600,432L600,435L599,438L599,441L599,444L598,447L598,450L597,452L597,455L597,458L596,461L596,464L596,467L595,470L595,473L595,476L595,478L594,481L594,483L594,485L594,488L594,490L594,493L594,495L594,498L594,500L594,502L594,505L594,507L594,509L595,511L595,513L596,515L597,518L598,520L599,522L599,524L600,526L601,529L602,531L603,534L604,536L605,538L606,540L606,542L608,544L609,546L609,547L611,549L611,551L613,552L613,553L615,555L616,556L617,557L618,559L620,560L621,562L623,563L624,564L626,565L627,566L628,568L629,568L631,570L632,571L634,572L635,573L636,573L638,574L640,575L641,576L642,576L643,577L645,577L646,578L647,578L649,579L650,579L651,580L652,580L654,580L655,581L657,581L658,582L660,582L661,582L662,582L663,583L665,583L666,583L667,583L668,583L669,583L670,583L672,583L674,583L675,583L677,583L678,583L679,583L680,583L681,583L682,583L683,583L684,583L685,583L686,583L687,583L688,582L689,582L690,582L691,581L692,581L694,580L696,579L697,578L699,576L701,574L703,572L706,570" stroke-opacity="1" stroke-width="5" stroke-linecap="round" stroke-linejoin="round" style="-webkit-tap-highlight-color: rgba(0, 0, 0, 0); stroke-opacity: 1; stroke-linecap: round; stroke-linejoin: round; -webkit-user-select: text;"></path><path fill="none" stroke="#000000" d="M492,210L494,213L496,215L498,219L501,223L504,229L507,234L510,240L513,245L515,252L517,258L520,264L522,271L524,277L525,284L526,291L528,298L529,305L529,312L530,318L530,325L531,331L531,337L532,344L532,350L532,357L532,364L532,371L532,378L532,384L532,390L532,396L532,402L532,408L532,413L532,419L531,424L531,429L531,434L531,439L531,444L531,449L531,454L531,459L531,465L531,470L531,475L531,479L531,484L531,488L531,492L531,496L531,500L532,504L532,508L533,512L533,515L534,519L535,523L536,526L537,530L538,534L539,537L540,540L541,543L542,546L543,550L545,553L546,556L547,559L548,561L550,564L551,567L553,570L555,572L556,574L558,577L560,579L561,581L563,583L565,585L567,587L570,589L572,591L574,592L576,594L578,595L580,597L582,598L584,599L587,600L588,601L590,602L592,602L593,603L594,604L596,604L597,605L599,605L600,606L601,606L603,607L604,607L606,607L607,608L608,608L609,608L611,608L612,608L613,608L614,609L616,609L617,609L618,609L619,609L621,609L622,609L623,609L624,609L626,609L627,609L628,609L629,609L630,609L631,609L632,609L633,609L634,609L635,609L636,609L637,609L638,609L639,609L640,609L641,609L642,609L643,609L644,609L645,609L646,609L647,609L648,609L649,609L650,609L651,609L652,609L653,609L654,609L655,609L656,608L657,608L658,607L659,606L661,604L662,601" stroke-opacity="1" stroke-width="5" stroke-linecap="round" stroke-linejoin="round" style="-webkit-tap-highlight-color: rgba(0, 0, 0, 0); stroke-opacity: 1; stroke-linecap: round; stroke-linejoin: round; -webkit-user-select: text;"></path><path fill="none" stroke="#000000" d="M396,197L397,197L403,199L408,203L412,207L416,212L420,216L423,221L425,225L427,231L430,236L432,242L434,250L436,257L438,265L440,272L443,280L445,288L447,295L448,303L450,312L451,319L451,328L452,335L453,343L453,351L454,359L455,366L456,374L457,382L458,389L458,397L458,404L458,411L458,417L458,424L458,431L458,437L458,444L458,451L458,458L458,464L458,470L458,475L458,481L459,487L459,492L460,497L460,501L461,506L462,510L463,514L463,519L465,523L466,526L467,530L468,534L468,537L469,540L470,542L471,545L472,548L473,551L475,553L475,555L477,557L477,559L478,560L480,562L480,564L482,565L483,567L484,568L485,570L487,571L487,572L489,573L490,574L491,575L492,576L493,577L494,577L495,578L497,580L498,580L499,581L500,582L502,583L503,584L504,585L506,585L507,586L509,587L510,588L511,589L513,590L515,590L516,591L518,592L519,592L521,592L522,593L523,594L524,594L526,594L527,595L528,595L530,596L531,596L533,596L534,597L536,597L537,597L538,597L540,597L541,598L542,598L544,598L545,598L546,598L547,598L548,598L549,598L550,598L551,598L553,598L554,598L555,598L557,598L558,598L559,598L561,598L562,598L564,598L565,598L566,598L568,598L570,598L571,598L573,598L574,597L576,597L577,596L579,595L581,595L582,594L584,594L586,593L588,592L590,590L593,588L595,586L598,584L602,580L606,575L611,570L621,560" stroke-opacity="1" stroke-width="5" stroke-linecap="round" stroke-linejoin="round" style="-webkit-tap-highlight-color: rgba(0, 0, 0, 0); stroke-opacity: 1; stroke-linecap: round; stroke-linejoin: round; -webkit-user-select: text;"></path><path fill="none" stroke="#000000" d="M344,175L343,178L347,182L351,187L355,191L359,197L363,201L366,206L368,212L369,218L370,225L372,233L374,241L375,249L378,258L380,266L381,276L382,285L383,294L383,304L384,313L385,322L385,332L386,342L386,351L386,361L387,370L387,379L387,387L388,396L388,405L388,412L389,419L389,427L389,434L389,442L390,449L390,456L390,462L391,469L392,475L392,481L393,487L394,492L395,498L396,502L397,507L399,512L400,516L402,520L403,524L404,528L405,531L407,535L408,539L409,541L410,545L412,548L412,551L414,553L415,555L416,558L417,559L418,561L419,563L420,565L421,566L422,568L423,569L424,570L426,572L427,573L429,575L431,576L432,577L434,579L436,580L438,582L439,583L441,585L443,586L445,587L446,588L448,589L450,590L452,591L454,592L456,593L458,594L460,594L462,595L464,596L466,597L469,598L471,598L473,599L475,599L478,599L481,600L483,600L487,600L490,600L492,600L495,600L498,600L501,600L503,600L506,600L509,599L512,598L515,596L518,594L522,592L526,590L533,585L541,577" stroke-opacity="1" stroke-width="5" stroke-linecap="round" stroke-linejoin="round" style="-webkit-tap-highlight-color: rgba(0, 0, 0, 0); stroke-opacity: 1; stroke-linecap: round; stroke-linejoin: round; -webkit-user-select: text;"></path><path fill="none" stroke="#000000" d="M276,187L280,191L286,196L291,201L296,207L299,213L302,220L305,227L309,234L312,242L316,250L318,259L321,268L322,277L324,288L324,298L325,308L325,318L326,327L327,335L329,344L329,353L330,362L331,371L332,380L333,388L334,396L335,404L336,412L337,419L338,428L339,435L339,443L340,451L340,458L341,466L341,473L341,479L341,485L342,490L342,495L343,500L343,504L344,508L344,512L345,516L346,520L346,524L347,527L348,530L349,533L350,536L351,538L352,540L353,542L354,544L355,546L356,548L358,550L358,552L360,553L361,555L362,556L363,558L364,559L365,560L366,561L367,562L368,563L369,564L370,565L371,565L372,566L373,567L374,568L375,569L377,570L378,570L379,571L380,572L381,573L383,573L384,574L385,575L387,575L387,576L389,577L390,577L392,578L393,578L394,579L395,580L397,580L398,580L400,581L401,581L402,582L404,582L405,583L407,583L409,584L410,584L412,585L413,585L415,585L417,585L419,585L420,585L422,585L424,585L426,585L428,585L431,585L432,585L435,585L437,585L439,585L441,585L443,585L446,585L448,585L451,584L453,583L456,582L459,580L463,579L467,577L473,574L482,568" stroke-opacity="1" stroke-width="5" stroke-linecap="round" stroke-linejoin="round" style="-webkit-tap-highlight-color: rgba(0, 0, 0, 0); stroke-opacity: 1; stroke-linecap: round; stroke-linejoin: round; -webkit-user-select: text;"></path><path fill="none" stroke="#000000" d="M224,199L227,199L232,200L238,203L243,208L248,213L253,220L256,226L259,233L262,240L264,247L266,255L269,262L272,269L275,278L278,286L280,294L283,303L286,311L288,320L290,328L291,337L292,346L293,355L293,364L293,371L293,379L293,387L293,394L293,402L293,410L294,417L294,424L294,431L294,438L294,444L294,451L294,458L294,463L294,468L295,473L295,478L295,483L296,487L296,491L297,495L297,499L298,502L298,506L299,509L300,512L301,514L301,517L302,519L303,520L304,522L305,524L307,526L308,528L309,530L311,532L312,534L314,535L315,536L317,537L318,539L319,540L321,541L322,542L324,543L326,544L328,546L329,547L331,548L333,548L334,550L336,551L338,551L339,552L341,553L343,553L345,554L346,555L349,556L351,556L353,557L355,558L357,558L359,559L361,559L363,560L365,560L367,561L369,561L371,561L373,561L376,561L378,561L380,561L382,561L384,561L386,561L388,561L390,561L392,561L394,560L396,558L398,557L401,555L403,553L407,550L412,546L417,541L426,531" stroke-opacity="1" stroke-width="5" stroke-linecap="round" stroke-linejoin="round" style="-webkit-tap-highlight-color: rgba(0, 0, 0, 0); stroke-opacity: 1; stroke-linecap: round; stroke-linejoin: round; -webkit-user-select: text;"></path><path fill="none" stroke="#000000" d="M180,163L184,170L188,174L195,181L200,188L206,196L211,204L215,213L217,221L220,230L221,240L223,249L224,259L225,269L226,278L227,287L228,295L229,305L230,314L231,324L232,334L232,344L232,354L233,364L233,373L234,382L234,391L234,399L234,409L234,416L234,424L234,432L234,437L234,443L234,449L234,453L234,458L234,463L235,467L237,471L238,475L240,478L242,482L244,485L245,488L247,490L249,493L251,495L253,497L255,500L257,502L259,504L261,505L263,507L264,508L266,509L267,510L268,511L269,512L270,512L271,513L272,514L273,515L274,516L275,517L276,517L277,517L278,518L279,519L280,519L281,519L282,520L283,520L284,521L285,521L286,522L287,522L288,522L290,523L291,523L293,524L295,524L297,524L298,524L299,524L300,524L301,524L302,525L304,525L305,525L307,525L308,525L310,525L311,525L312,525L314,525L316,525L317,525L319,525L322,524L324,522L328,519L333,515L339,507" stroke-opacity="1" stroke-width="5" stroke-linecap="round" stroke-linejoin="round" style="-webkit-tap-highlight-color: rgba(0, 0, 0, 0); stroke-opacity: 1; stroke-linecap: round; stroke-linejoin: round; -webkit-user-select: text;"></path><path fill="none" stroke="#000000" d="M150,138L152,143L155,147L158,154L161,163L164,173L166,182L169,191L171,201L174,210L176,221L178,232L181,241L182,251L183,262L184,273L185,284L185,294L185,305L185,315L185,325L185,334L185,344L185,351L185,360L185,368L185,375L185,383L186,390L187,397L189,403L191,410L193,415L195,420L197,424L200,429L202,433L204,437L207,441L210,445L212,449L215,452L217,455L220,458L224,461L227,463L229,466L232,468L234,470L237,471L239,473L242,474L244,475L247,477L249,478L252,479L255,480L257,481L259,481L261,482L263,483L265,483L267,484L269,484L271,485L273,485L275,485L277,485L279,486L281,486L283,486L286,486L288,486L291,486L293,486L296,486L301,484" stroke-opacity="1" stroke-width="5" stroke-linecap="round" stroke-linejoin="round" style="-webkit-tap-highlight-color: rgba(0, 0, 0, 0); stroke-opacity: 1; stroke-linecap: round; stroke-linejoin: round; -webkit-user-select: text;"></path><path fill="none" stroke="#000000" d="M88,130L93,134L96,138L99,145L103,152L108,161L111,168L115,176L118,185L121,194L124,203L127,212L130,221L132,231L134,241L135,251L137,261L137,271L138,280L139,290L139,300L139,309L140,318L141,325L142,334L142,340L144,347L145,354L146,360L148,366L149,372L152,377L154,383L157,388L160,393L163,397L166,401L169,405L173,410L176,413L180,417L184,420L189,423L193,426L198,429L202,432L205,434L210,436L214,438L217,439L221,440L225,441L227,442L231,443L233,444L236,444L239,445L243,446L247,446L251,446L259,446L268,444" stroke-opacity="1" stroke-width="5" stroke-linecap="round" stroke-linejoin="round" style="-webkit-tap-highlight-color: rgba(0, 0, 0, 0); stroke-opacity: 1; stroke-linecap: round; stroke-linejoin: round; -webkit-user-select: text;"></path><path fill="none" stroke="#000000" d="M61,120L67,122L71,125L76,131L83,138L88,145L93,153L96,161L98,170L100,179L101,188L103,196L104,204L105,213L106,222L107,230L108,240L110,248L111,256L112,264L113,271L113,277L114,284L115,291L115,296L116,303L117,308L118,313L120,317L121,321L123,325L125,330L126,334L128,337L130,341L132,344L135,347L137,350L139,353L142,355L144,357L147,359L149,361L152,363L154,365L157,367L159,368L162,370L165,372L168,373L170,374L173,376L175,376L178,377L180,378L183,378L186,378L190,378L193,378L197,378L200,376L204,373L207,370L210,368" stroke-opacity="1" stroke-width="5" stroke-linecap="round" stroke-linejoin="round" style="-webkit-tap-highlight-color: rgba(0, 0, 0, 0); stroke-opacity: 1; stroke-linecap: round; stroke-linejoin: round; -webkit-user-select: text;"></path><path fill="none" stroke="#000000" d="M119,255L127,265L129,268L131,273L134,277L136,282L138,287L141,293L143,298L145,304L147,310L148,317L149,323L150,330L152,337L152,344L153,351L153,358L154,365L154,371L154,378L154,385L154,392L154,398L154,405L154,412L154,419L154,426L153,433L153,440L152,446L152,452L151,458L151,464L151,470L151,475L151,482L151,488L151,495L151,500L151,507L151,513L151,518L151,523L151,529L151,534L151,539L152,544L152,548L154,553L155,558L156,562L158,565L159,568L161,572L163,575L165,577L167,580L169,582L170,584L172,586L173,587L175,589L176,590L177,590L178,590L179,591L181,592L182,592L183,592L184,592L186,592L187,592L189,592L191,593L193,593L194,593L196,593L198,593L200,593L203,593L205,593L207,593L210,593L212,593L214,593L216,593L218,592L220,591L222,590L224,588" stroke-opacity="1" stroke-width="5" stroke-linecap="round" stroke-linejoin="round" style="-webkit-tap-highlight-color: rgba(0, 0, 0, 0); stroke-opacity: 1; stroke-linecap: round; stroke-linejoin: round; -webkit-user-select: text;"></path><path fill="none" stroke="#000000" d="M179,294L185,302L189,308L195,316L198,324L202,332L205,342L206,351L208,361L209,371L210,380L211,389L212,398L213,407L214,416L215,425L215,434L216,442L216,449L216,458L216,466L216,473L216,481L216,488L216,496L216,502L215,509L215,515L214,520L213,525L213,529L212,534L212,538L211,543L211,547L211,551L211,556L211,560L211,565L211,570L211,574L211,579L211,582L211,586L211,590L211,592L212,595L212,597L213,600L214,602L215,605L216,607L217,609L218,611L220,612L220,614L222,616L223,617L224,619L225,621L226,622L227,624L229,625L230,626L232,628L233,629L234,630L236,631L238,633L239,634L241,636L243,637L244,638L246,639L248,640L249,640L251,641L253,642L254,642L255,643L256,643L257,643L258,643L260,643L261,643L263,643L264,643L266,643L268,643L271,643L272,643L275,643L277,643L279,643L281,641L285,638L289,635L293,631L298,627L302,625" stroke-opacity="1" stroke-width="5" stroke-linecap="round" stroke-linejoin="round" style="-webkit-tap-highlight-color: rgba(0, 0, 0, 0); stroke-opacity: 1; stroke-linecap: round; stroke-linejoin: round; -webkit-user-select: text;"></path><path fill="none" stroke="#000000" d="M233,337L239,339L244,343L252,348L259,356L263,364L268,374L271,383L273,392L276,400L278,411L280,419L283,431L285,440L286,451L287,462L288,473L288,483L288,492L289,502L289,511L289,519L289,527L289,536L289,543L289,551L289,557L289,563L289,569L289,575L289,580L289,585L289,589L289,593L289,597L289,600L289,604L289,608L289,611L289,615L289,619L290,622L290,625L290,628L291,631L292,634L293,636L293,639L294,641L295,643L296,645L297,647L298,649L298,650L300,653L301,654L302,656L303,658L304,659L305,660L306,661L307,662L307,663L308,663L309,664L310,664L311,665L312,665L312,666L313,666L314,667L315,667L316,667L317,668L318,668L319,669L320,669L322,670L323,670L324,670L325,670L327,670L328,670L329,670L331,670L332,670L334,670L336,670L338,670L340,669L343,667L346,666L348,663" stroke-opacity="1" stroke-width="5" stroke-linecap="round" stroke-linejoin="round" style="-webkit-tap-highlight-color: rgba(0, 0, 0, 0); stroke-opacity: 1; stroke-linecap: round; stroke-linejoin: round; -webkit-user-select: text;"></path><path fill="none" stroke="#000000" d="M289,332L297,337L303,340L310,346L317,353L322,362L326,372L329,382L332,392L335,402L337,412L339,424L339,434L339,446L339,458L339,470L339,481L339,492L339,503L339,514L339,525L339,536L339,546L339,556L339,566L339,576L338,585L337,594L336,601L336,608L336,615L336,622L336,627L336,633L336,638L336,645L336,650L336,656L336,662L336,667L336,672L337,676L338,680L340,684L341,688L343,691L344,694L346,696L348,699L350,700L352,702L354,704L356,706L358,707L361,709L364,711L367,712L370,713L373,714L375,714L379,714L385,714L394,712L403,708L413,702" stroke-opacity="1" stroke-width="5" stroke-linecap="round" stroke-linejoin="round" style="-webkit-tap-highlight-color: rgba(0, 0, 0, 0); stroke-opacity: 1; stroke-linecap: round; stroke-linejoin: round; -webkit-user-select: text;"></path><path fill="none" stroke="#000000" d="M340,376L348,385L353,390L359,395L366,402L372,409L377,417L380,424L384,435L386,444L388,455L389,466L391,476L392,488L394,497L395,507L395,517L396,528L396,539L396,550L396,561L396,571L396,581L396,591L396,601L396,610L396,619L396,627L396,635L396,643L396,650L396,658L396,664L396,671L396,677L396,683L397,688L398,692L400,697L401,701L403,705L405,709L407,713L409,716L411,720L413,723L416,725L418,727L420,729L422,731L424,733L427,734L429,735L431,735L433,735L435,736L437,736L440,736L444,736L450,735L457,732L464,728L472,724L481,718L489,711" stroke-opacity="1" stroke-width="5" stroke-linecap="round" stroke-linejoin="round" style="-webkit-tap-highlight-color: rgba(0, 0, 0, 0); stroke-opacity: 1; stroke-linecap: round; stroke-linejoin: round; -webkit-user-select: text;"></path><path fill="none" stroke="#000000" d="M400,408L412,408L418,412L425,419L431,427L436,437L441,448L445,458L448,470L450,482L451,494L452,505L454,517L456,529L458,541L460,554L462,567L463,580L465,593L465,605L466,616L466,627L466,638L466,648L466,658L466,667L466,676L465,684L465,692L465,699L465,706L465,711L465,717L466,722L467,726L468,731L470,735L471,738L472,741L474,743L475,745L477,747L478,749L480,751L481,752L483,754L484,755L486,756L487,757L489,759L490,760L492,760L493,761L495,762L497,763L498,764L500,765L502,765L504,766L505,767L507,767L509,767L511,768L513,768L515,769L517,769L519,769L522,769L525,769L528,767L531,765L536,760L541,756" stroke-opacity="1" stroke-width="5" stroke-linecap="round" stroke-linejoin="round" style="-webkit-tap-highlight-color: rgba(0, 0, 0, 0); stroke-opacity: 1; stroke-linecap: round; stroke-linejoin: round; -webkit-user-select: text;"></path><path fill="none" stroke="#000000" d="M456,416L461,416L466,419L473,425L477,432L482,442L485,450L488,461L491,470L494,480L496,489L498,499L499,511L501,522L502,533L503,545L503,555L503,567L503,579L503,592L503,604L503,615L502,626L501,635L500,645L499,655L499,665L498,673L498,681L498,689L498,697L498,705L498,711L499,718L501,725L503,731L505,736L508,742L510,747L513,751L516,755L520,759L523,762L527,766L531,769L534,771L538,773L541,775L545,777L549,777L553,778L559,778L567,778L576,773" stroke-opacity="1" stroke-width="5" stroke-linecap="round" stroke-linejoin="round" style="-webkit-tap-highlight-color: rgba(0, 0, 0, 0); stroke-opacity: 1; stroke-linecap: round; stroke-linejoin: round; -webkit-user-select: text;"></path><path fill="none" stroke="#000000" d="M498,426L506,433L513,439L522,446L533,456L543,465L549,473L554,482L558,492L560,500L562,509L564,519L565,528L565,537L565,546L566,555L566,563L566,573L566,582L566,591L566,600L566,609L566,618L566,626L566,633L566,641L566,648L566,655L566,663L566,669L566,675L566,680L566,685L566,690L566,695L566,699L566,704L566,708L566,712L567,717L567,721L568,725L569,729L570,733L571,737L572,740L573,743L575,746L576,749L577,752L579,754L580,757L581,759L582,761L584,763L585,765L586,766L587,768L588,769L589,770L589,771L590,772L591,773L592,774L593,774L594,775L594,776L595,776L596,777L597,777L599,778L600,779L601,779L602,780L603,780L604,781L605,782L606,782L607,782L608,783L609,784L610,784L611,784L612,784L613,785L614,785L615,786L616,786L617,786L618,786L620,786L621,786L623,786L625,787L627,787L630,787L632,787L635,787L638,787L641,787L644,787L648,784L652,782L655,780" stroke-opacity="1" stroke-width="5" stroke-linecap="round" stroke-linejoin="round" style="-webkit-tap-highlight-color: rgba(0, 0, 0, 0); stroke-opacity: 1; stroke-linecap: round; stroke-linejoin: round; -webkit-user-select: text;"></path><path fill="none" stroke="#000000" d="M583,447L593,454L600,461L610,472L618,483L623,492L628,504L632,516L635,528L637,540L638,553L639,568L639,581L639,594L639,607L639,621L639,635L639,649L638,663L638,676L636,689L635,701L635,712L635,723L634,733L634,740L634,748L634,756L634,764L636,771L639,777L642,783L645,788L649,793L652,797L655,800L660,803L666,805L675,806L688,806L705,802" stroke-opacity="1" stroke-width="5" stroke-linecap="round" stroke-linejoin="round" style="-webkit-tap-highlight-color: rgba(0, 0, 0, 0); stroke-opacity: 1; stroke-linecap: round; stroke-linejoin: round; -webkit-user-select: text;"></path><path fill="none" stroke="#000000" d="M647,448L656,456L662,461L666,467L670,474L674,481L676,488L678,494L680,501L683,509L686,517L688,525L689,534L689,543L689,550L689,558L689,567L689,575L689,582L689,590L689,597L689,604L689,612L689,619L688,626L687,631L687,636L686,642L686,649L686,655L685,662L685,668L684,675L684,680L684,686L684,692L684,697L684,701L684,706L684,711L684,715L684,720L684,724L684,728L684,731L684,734L684,737L685,739L685,742L686,745L686,748L687,750L689,753L690,756L691,759L692,762L693,764L694,766L695,767L696,769L696,771L698,773L699,775L699,777L701,779L702,780L703,782L704,783L705,785L706,786L707,788L708,789L710,790L711,791L712,793L713,794L714,794L716,795L717,796L718,797L720,797L721,798L723,799L724,799L726,799L728,800L730,800L733,800L737,800L744,800L752,799L757,797" stroke-opacity="1" stroke-width="5" stroke-linecap="round" stroke-linejoin="round" style="-webkit-tap-highlight-color: rgba(0, 0, 0, 0); stroke-opacity: 1; stroke-linecap: round; stroke-linejoin: round; -webkit-user-select: text;"></path><path fill="none" stroke="#000000" d="M715,445L724,457L729,463L735,470L740,478L745,488L746,496L746,506L746,517L746,527L746,538L746,550L746,563L746,575L746,587L746,600L746,612L746,625L746,637L747,649L747,659L748,670L750,680L751,689L753,699L755,709L757,717L759,725L761,732L764,739L765,745L766,752" stroke-opacity="1" stroke-width="5" stroke-linecap="round" stroke-linejoin="round" style="-webkit-tap-highlight-color: rgba(0, 0, 0, 0); stroke-opacity: 1; stroke-linecap: round; stroke-linejoin: round; -webkit-user-select: text;"></path><path fill="none" stroke="#000000" d="M697,558L701,565L701,573L701,580L701,589L699,598L698,607L697,616L697,624L697,633L697,643L696,653L696,662L695,671L695,680L695,688L695,696L695,703L694,710L694,716L693,723L692,728L691,733L691,738L690,743L689,748L689,753L689,758L689,762L689,767L689,771L689,776L689,779L689,783L689,787L689,790L689,792L689,795L690,797L691,799L691,800L692,802L693,803L694,805L695,806L696,808L696,809L697,810L698,811L699,812L699,813L700,814L701,815L702,816L703,816L703,817L704,818L705,819L706,820L707,820L708,821L709,822L710,823L711,823L712,824L713,825L714,826L715,826L716,827L718,828L720,828L720,829L722,830L723,830L724,830L725,830L726,830L728,830L730,830L731,830L733,830L736,830L740,830L745,830L751,830L757,828L761,825" stroke-opacity="1" stroke-width="5" stroke-linecap="round" stroke-linejoin="round" style="-webkit-tap-highlight-color: rgba(0, 0, 0, 0); stroke-opacity: 1; stroke-linecap: round; stroke-linejoin: round; -webkit-user-select: text;"></path><path fill="none" stroke="#000000" d="M616,551L626,556L633,561L639,569L644,576L648,585L651,593L654,602L656,611L658,621L660,630L660,640L661,650L661,659L662,669L662,678L663,686L663,695L663,702L663,710L664,716L664,723L664,730L664,736L664,742L663,748L662,752L661,758L660,762L659,767L658,771L657,774L657,778L656,781L656,784L655,786L655,788L655,790L655,792L655,794L655,796L655,797L655,799L655,800L655,802L655,803L655,804L655,806L655,808L655,810L655,811L655,813L655,816L655,817L655,819L655,820L655,821L655,823L656,824L656,825L657,826L657,827L657,828L658,829L658,830L659,830L660,831L662,832L664,833L669,834L674,835L679,835" stroke-opacity="1" stroke-width="5" stroke-linecap="round" stroke-linejoin="round" style="-webkit-tap-highlight-color: rgba(0, 0, 0, 0); stroke-opacity: 1; stroke-linecap: round; stroke-linejoin: round; -webkit-user-select: text;"></path><path fill="none" stroke="#000000" d="M524,600L528,604L531,607L534,611L538,615L541,619L543,625L545,630L548,636L549,642L550,648L550,655L551,662L552,669L552,676L553,684L553,692L553,699L553,706L553,711L553,718L553,723L553,728L553,734L553,739L553,744L553,749L553,754L553,759L552,764L552,769L551,773L551,777L551,782L550,785L550,789L550,793L550,796L550,799L550,801L550,804L550,806L550,808L549,811L549,813L549,815L549,817L549,818L549,821L549,822L549,824L549,825L549,827L549,828L549,830L549,831L549,832L549,833L549,834L549,835L549,837L550,838L550,839L550,840L551,841L551,842L552,843L552,844L552,845L553,845L553,846L553,847L554,847L554,848L555,849L555,850L556,851L557,852L558,853L558,854L559,855L560,856L561,857L562,857L563,858L564,859L565,859L566,860L567,861L568,862L570,862L571,862L572,863L574,863L576,864L578,864L579,864L582,865L584,865L587,866L591,866L595,866L602,866L608,861" stroke-opacity="1" stroke-width="5" stroke-linecap="round" stroke-linejoin="round" style="-webkit-tap-highlight-color: rgba(0, 0, 0, 0); stroke-opacity: 1; stroke-linecap: round; stroke-linejoin: round; -webkit-user-select: text;"></path><path fill="none" stroke="#000000" d="M458,575L462,584L466,588L470,594L475,600L480,607L483,615L487,623L489,631L491,639L493,648L495,657L497,666L497,675L498,684L498,693L498,701L498,709L498,717L498,725L498,732L498,740L498,747L498,753L498,760L498,765L498,771L498,776L497,781L497,784L497,788L496,791L496,794L495,797L495,799L495,802L494,804L494,807L494,810L494,812L494,815L494,817L494,819L494,821L494,823L494,825L494,827L494,829L494,831L494,833L494,834L494,836L494,837L494,839L494,841L494,843L494,845L494,847L495,849L495,851L495,852L496,854L496,855L497,857L497,858L498,859L498,860L499,861L499,862L500,863L501,864L502,865L502,866L503,866L504,867L506,867L507,868L508,869L509,869L510,869L511,869L512,869L513,869L514,869L515,869L516,869L518,869L519,869L520,869L521,869" stroke-opacity="1" stroke-width="5" stroke-linecap="round" stroke-linejoin="round" style="-webkit-tap-highlight-color: rgba(0, 0, 0, 0); stroke-opacity: 1; stroke-linecap: round; stroke-linejoin: round; -webkit-user-select: text;"></path><path fill="none" stroke="#000000" d="M387,562L397,574L402,581L407,590L411,599L414,609L418,619L421,629L424,639L426,649L429,659L431,669L432,679L433,689L433,699L433,708L433,717L433,726L433,735L433,744L433,752L433,761L433,768L433,776L433,783L433,789L433,795L432,800L432,806L431,811L431,815L431,818L430,822L430,824L430,827L429,830L429,832L429,834L429,836L429,838L429,840L429,841L429,843L429,845L429,846L429,848L429,850L429,851L429,852L429,854L429,855L429,856L430,857L430,858L431,859L432,860L433,862L434,863L435,864L436,865L437,866L438,866L438,867L439,867L440,868L441,868L442,869L443,869L444,869L445,869L446,869L447,869L448,869L450,869L451,869L452,869" stroke-opacity="1" stroke-width="5" stroke-linecap="round" stroke-linejoin="round" style="-webkit-tap-highlight-color: rgba(0, 0, 0, 0); stroke-opacity: 1; stroke-linecap: round; stroke-linejoin: round; -webkit-user-select: text;"></path><path fill="none" stroke="#000000" d="M305,578L316,589L324,594L331,599L338,606L343,614L346,621L349,630L351,639L353,648L356,658L358,667L360,677L362,685L364,694L365,703L366,712L367,721L367,728L368,736L368,744L369,752L370,759L370,766L370,773L371,779L371,785L372,790L372,796L372,801L372,805L372,810L372,814L372,819L372,823L372,826L372,830L372,833L372,835L372,838L372,840L372,843L372,846L372,849L372,851L372,853L372,855L373,856L373,858L373,859L374,860L375,862L375,863L376,864L378,864L378,865L379,866L380,867L381,867L382,868L383,868L385,869L387,869L388,869L389,869L390,869L392,869L394,869L396,869" stroke-opacity="1" stroke-width="5" stroke-linecap="round" stroke-linejoin="round" style="-webkit-tap-highlight-color: rgba(0, 0, 0, 0); stroke-opacity: 1; stroke-linecap: round; stroke-linejoin: round; -webkit-user-select: text;"></path><path fill="none" stroke="#000000" d="M240,573L249,581L255,587L259,593L266,602L270,611L274,621L277,631L280,641L282,649L285,659L286,670L287,680L288,689L289,699L290,709L290,719L291,729L292,738L292,748L293,756L293,764L294,772L294,780L294,788L295,795L295,801L295,808L295,813L295,818L295,823L295,828L295,831L295,835L295,838L295,842L295,846L295,849L295,852L295,855L295,857L295,859L296,860L297,862L298,863L298,864L299,865L300,866L301,867L302,867L303,868L304,868L305,869L307,869L308,869L310,869L311,869L312,869L314,869L315,869L317,869L318,869L319,869L321,869L322,869" stroke-opacity="1" stroke-width="5" stroke-linecap="round" stroke-linejoin="round" style="-webkit-tap-highlight-color: rgba(0, 0, 0, 0); stroke-opacity: 1; stroke-linecap: round; stroke-linejoin: round; -webkit-user-select: text;"></path><path fill="none" stroke="#000000" d="M161,546L164,543L171,548L179,555L185,563L190,573L193,583L197,594L200,604L204,615L206,627L208,639L209,650L211,661L212,671L212,682L213,693L213,704L214,714L214,724L215,734L215,744L215,754L216,762L216,771L217,780L217,787L217,794L218,801L218,807L219,813L219,818L220,823L220,828L220,832L221,836L221,840L221,843L221,846L222,849L222,852L222,854L223,856L223,858L224,860L225,861L226,862L227,863L228,864L229,865L229,866L231,867L232,867L232,868L234,868L234,869L235,869L236,869L237,869L238,869L239,869L240,869L242,869L243,869L244,869L245,869" stroke-opacity="1" stroke-width="5" stroke-linecap="round" stroke-linejoin="round" style="-webkit-tap-highlight-color: rgba(0, 0, 0, 0); stroke-opacity: 1; stroke-linecap: round; stroke-linejoin: round; -webkit-user-select: text;"></path><path fill="none" stroke="#000000" d="M79,533L79,524L82,526L85,531L89,537L93,544L97,551L101,558L106,567L110,576L113,586L117,596L120,607L123,618L126,629L129,640L130,650L131,661L132,672L132,683L132,694L132,704L132,713L132,723L132,732L132,741L132,750L132,758L132,766L132,773L132,780L132,786L132,791L132,797L132,803L132,808L133,813L134,818L135,823L136,827L137,832L139,835L140,839L142,842L143,845L144,849L145,851L147,853L148,855L149,857L151,859L152,860L154,862L155,862L157,863L158,864L160,865L161,865L163,866L165,867L166,867L169,868L170,868L172,869L174,869L175,869L177,869L179,869L181,869L183,869L185,869L188,869L190,869L192,869L194,869L196,869L198,869L201,869L205,869" stroke-opacity="1" stroke-width="5" stroke-linecap="round" stroke-linejoin="round" style="-webkit-tap-highlight-color: rgba(0, 0, 0, 0); stroke-opacity: 1; stroke-linecap: round; stroke-linejoin: round; -webkit-user-select: text;"></path><path fill="none" stroke="#000000" d="M35,546L40,553L42,556L44,558L47,561L50,564L53,568L56,572L57,577L59,581L60,585L62,590L62,594L63,599L64,604L65,609L65,614L66,619L67,624L67,630L68,636L69,643L70,649L71,655L71,661L73,667L74,673L74,680L75,686L76,692L77,698L78,704L79,711L79,717L80,723L80,728L81,734L81,739L81,743L82,748L82,752L82,757L83,761L83,765L83,769L84,773L84,777L84,782L84,786L84,790L84,794L84,798L85,801L85,804L86,808L86,811L86,813L87,817L87,820L88,823L88,826L89,829L90,832L91,834L91,837L92,839L93,841L93,844L94,846L95,848L96,851L97,853L98,855L99,857L100,858L101,860L103,861L104,862L105,864L107,865L108,866L110,866L111,867L113,868L115,868L116,869L118,869L120,869L122,869L123,869L125,869L127,869L129,869L131,869L133,869" stroke-opacity="1" stroke-width="5" stroke-linecap="round" stroke-linejoin="round" style="-webkit-tap-highlight-color: rgba(0, 0, 0, 0); stroke-opacity: 1; stroke-linecap: round; stroke-linejoin: round; -webkit-user-select: text;"></path></svg>