<svg height="874" version="1.1" width="768" xmlns="http://www.w3.org/2000/svg" xmlns:xlink="http://www.w3.org/1999/xlink" style="overflow: hidden; position: relative; -webkit-user-select: text;"><desc style="-webkit-tap-highlight-color: rgba(0, 0, 0, 0); -webkit-user-select: text;">Created with Raphaël 2.2.0</desc><defs style="-webkit-tap-highlight-color: rgba(0, 0, 0, 0); -webkit-user-select: text;"></defs><path fill="none" stroke="#000000" d="M332,18L329,23L329,27L327,32L326,36L325,40L324,45L324,50L324,55L323,60L323,65L323,69L323,74L322,79L322,83L322,88L321,92L321,97L320,101L320,106L319,110L319,114L319,118L319,123L319,127L319,131L319,136L319,141L319,146L319,151L319,156L319,160L319,165L319,169L319,173L319,177L319,181L319,185L319,189L319,192L319,195L319,198L319,201L319,203L319,206L319,209L319,211L319,213L319,215L319,218L319,220L319,222L319,223L319,225L319,227L319,230L319,232L319,234L319,236L319,238L320,240L320,242L320,244L320,246L321,247L321,249L321,251L321,252L322,254L322,255L322,257L322,258L322,259L322,261L323,263L323,264L323,266L323,267L323,269L324,270L324,272L324,273L324,275L324,277L324,278L325,280L325,282L325,284L325,285L325,286L326,288L326,289L326,291L326,292L326,293L326,295L326,296L326,297L326,298L326,300L326,301L327,302L327,304L327,305L327,306L327,308L327,309L327,310L327,312L327,313L327,314L327,315L327,316L327,317L327,319L327,320L327,322L327,324L328,325L328,326L328,327L328,328L328,329L328,330L328,332L328,333L328,334L329,335L329,336L329,337L329,339L329,341L329,342L329,343L330,344L330,346L330,347L330,349L331,349L331,351L331,352L331,354L331,355L331,356L331,357L332,359L332,360L332,361L332,363L332,364L332,365L333,366L333,367L333,368L333,370L333,371L334,372L334,373L334,375L334,376L334,377L334,378L334,380L334,381L334,382L335,383L335,384L335,385L335,387L335,388L335,389L335,390L335,391L335,393L336,394L336,395L336,396L336,398L336,399L336,400L336,402L336,403L337,404L337,405L337,407L337,408L337,410L337,411L338,412L338,413L338,415L338,416L338,417L338,418L338,419L338,421L338,422L338,423L338,424L338,425L339,426L339,427L339,429L339,431L339,432L339,433L339,434L339,435L339,436L339,437L339,438L339,439L339,440L339,441L339,442L339,443L339,444L339,445L339,446L339,447L339,448L339,449L340,449L340,450L340,451L340,452L340,453L340,454L340,455L340,456L340,457L340,458L340,459L340,460L340,461L340,462L340,463L341,464L341,465L341,466L341,467L341,468L341,469L341,470L341,471L341,472L341,473L341,475L341,476L342,477L342,478L342,480L342,482L342,483L342,484L342,485L342,487L342,490L342,492L343,495L343,499L343,503L344,507L344,510" stroke-opacity="1" stroke-width="5" stroke-linecap="round" stroke-linejoin="round" style="-webkit-tap-highlight-color: rgba(0, 0, 0, 0); stroke-opacity: 1; stroke-linecap: round; stroke-linejoin: round; -webkit-user-select: text;"></path><path fill="none" stroke="#000000" d="M362,42L363,48L363,51L363,55L363,58L363,61L363,64L363,67L363,69L363,72L363,74L363,76L363,79L363,81L363,84L363,86L364,89L364,91L364,93L365,96L365,98L365,101L365,103L366,106L366,108L366,111L366,113L366,116L366,118L366,120L366,122L367,124L367,126L367,128L367,130L367,132L368,134L368,135L368,137L368,138L368,140L368,141L368,142L369,144L369,145L369,146L369,148L369,149L369,150L369,152L369,153L369,155L370,156L370,157L370,158L370,159L370,161L370,162L370,163L370,164L370,166L370,167L370,168L370,169L370,171L370,172L370,174L370,175L371,177L371,178L371,180L371,181L371,183L372,184L372,186L372,187L372,189L372,191L373,192L373,194L373,196L373,197L373,199L373,201L374,202L374,204L374,206L374,208L374,210L375,212L375,213L375,215L375,217L375,219L375,220L375,223L376,224L376,227L376,229L376,231L376,233L377,235L377,237L377,239L377,241L378,243L378,244L378,247L378,249L378,250L378,252L378,254L379,256L379,258L379,259L379,261L379,262L379,264L379,266L380,267L380,269L380,270L380,271L380,273L380,275L380,277L380,278L380,280L381,281L381,283L381,285L381,286L381,288L381,289L381,291L381,292L381,294L381,295L381,296L381,298L381,299L381,301L381,302L381,303L381,305L382,306L382,308L382,309L382,310L382,311L382,313L382,314L382,315L382,317L382,318L382,319L382,320L382,322L382,323L382,325L382,326L382,327L382,329L382,330L382,332L382,334L382,335L382,337L382,339L382,340L382,342L382,343L382,345L382,346L382,348L382,349L382,351L382,352L382,354L382,356L382,357L382,359L382,361L383,362L383,364L383,365L383,366L383,368L383,369L383,371L383,373L384,374L384,376L384,377L384,378L384,380L385,382L385,383L385,385L385,386L385,388L385,389L385,390L385,391L385,392L385,393L385,395L385,396L385,397L385,398L385,400L385,402L385,403L385,404L386,405L386,407L386,408L386,410L386,411L386,412L386,414L386,415L386,416L386,418L386,419L386,420L386,422L386,423L386,424L386,425L386,427L386,428L386,429L386,430L386,431L386,432L386,434L387,434L387,436L387,437L387,438L387,439L387,440L387,441L387,442L387,443L387,444L387,445L387,446L387,447L387,449L387,450L387,451L387,452L387,453L388,454L388,455L388,456L388,457L388,458L388,459L388,460L388,461L388,462L388,463L389,464L389,465L389,466L389,467L389,468L389,470L389,472L389,473L389,474L389,475L389,476L390,477L390,478L390,479L390,480L390,481L390,482L390,483L390,484L390,485L390,486L390,487L390,488L390,489L390,490L390,491L390,492L391,493L391,494L391,495L391,496L391,497L391,498L391,499L391,500L391,501L391,502L391,503L392,504L392,505L392,507L392,509L392,510L392,511L392,512L392,513L392,514L392,515L392,516L392,517L392,518L392,519L393,520L393,521L393,522L393,523L393,524L393,525L393,526L393,527L393,528L393,529L393,530L393,531L393,532L393,533L393,534L394,534L394,535L394,536L394,537L394,538L394,539L394,540L394,541L394,542L394,543L394,544L394,545L394,546L394,547L394,548L394,549L394,550L394,551L394,552L394,553L394,554L394,555L394,556L394,557L394,558L394,559L395,560L395,562L396,564L397,568L397,576L397,585" stroke-opacity="1" stroke-width="5" stroke-linecap="round" stroke-linejoin="round" style="-webkit-tap-highlight-color: rgba(0, 0, 0, 0); stroke-opacity: 1; stroke-linecap: round; stroke-linejoin: round; -webkit-user-select: text;"></path><path fill="none" stroke="#000000" d="M342,208L341,225L341,235L341,243L341,252L342,261L342,269L344,276L345,283L346,290L347,297L349,304L350,310L351,317L352,325L353,332L353,339L354,346L354,353L355,360L356,367L357,375L357,382L358,389L358,395L359,401L360,407L360,413L361,419L361,425L362,430L362,435L363,440L363,446L363,450L364,455L364,460L365,465L365,470L365,474L365,479L366,483L366,487L366,491L366,495L366,499L366,502L366,506L367,509L367,512L367,515L368,518L368,521L368,524L368,527L368,531L369,534L369,536L369,539L370,541L370,543L370,546L370,548L370,551L370,552L370,554L371,556L371,558L371,560L372,563L372,565L372,566L372,568L373,570L373,572L373,573L373,575L374,577L374,580L375,582L375,584L375,585L375,587L375,589L375,591L376,592L376,593L376,594L377,596L377,597L377,598L377,599L378,601L378,602L378,604L378,606L378,607L379,608L379,609L379,610L380,611L380,612L380,614L380,615L380,616L380,617L380,618L381,619L381,620L381,621L381,622L381,623L381,624L381,625L382,626L382,627L382,628L382,630L382,631L383,632L383,633L383,634L383,635L383,636L383,637L383,638L384,639L384,640L384,641L384,642L384,643L385,643L385,644L385,645L385,646L385,647L385,648L385,649L385,650L386,651L386,652L386,653L386,654L387,655L387,656L387,657L387,658L387,659L387,660L387,661L387,662L387,663L387,664L387,665L388,666L388,667L388,668L388,669L388,670L389,670L389,671L389,672L389,673L389,674L390,674L390,675L390,676L390,677L390,678L390,679L390,680L391,680L391,681L391,682L391,683L391,684L391,685L391,687L391,688L391,689L391,690L391,692L391,693L391,695L391,698L391,701L392,704L392,708" stroke-opacity="1" stroke-width="5" stroke-linecap="round" stroke-linejoin="round" style="-webkit-tap-highlight-color: rgba(0, 0, 0, 0); stroke-opacity: 1; stroke-linecap: round; stroke-linejoin: round; -webkit-user-select: text;"></path><path fill="none" stroke="#000000" d="M430,150L430,153L430,159L429,167L427,176L427,183L427,192L427,201L428,209L429,217L430,226L431,235L432,244L432,253L433,261L433,270L433,279L433,286L433,294L433,302L433,310L433,317L433,325L433,332L433,339L433,346L433,353L433,360L433,367L433,373L433,380L433,385L433,391L433,398L432,404L432,410L432,415L432,420L432,425L432,429L432,434L432,439L432,444L432,448L431,453L431,458L431,462L431,467L431,472L431,477L431,481L431,486L431,490L431,494L431,498L431,502L431,506L431,510L431,514L431,517L431,519L431,522L431,524L431,526L431,528L431,529L431,531L431,533L431,535L431,536L431,538L431,540L431,541L431,543L431,544L431,546L431,548L431,550L432,552L432,554L432,556L432,557L432,559L432,561L432,563L432,564L432,566L432,568L432,569L432,571L432,572L432,573L432,575L432,576L432,577L432,579L432,580L432,581L433,582L433,584L433,585L433,587L433,588L433,589L433,590L433,592L433,594L433,595L433,596L434,597L434,598L434,599L434,600L434,602L434,603L434,604L434,605L434,606L434,607L434,608L434,609L434,610L434,611L434,612L434,613L434,614L434,615L434,616L434,617L434,618L434,619L434,620L434,621L434,622L434,623L434,624L434,625L434,626L434,627L434,628L434,629L434,630L434,631L434,632L434,633L434,634L434,635L434,636L434,637L434,638L434,639L434,640L434,641L434,642L434,643L434,644L434,645L434,646L434,647L434,648L434,649L434,650L434,651L434,652L434,653L434,654L434,655L434,656L434,657L434,658L434,659L434,660L434,661L434,662L434,663L434,664L434,665L434,666L434,667L434,668L434,669L434,670L434,671L434,672L434,673L434,674L434,675L434,676L434,677L434,678L434,679L434,680L434,681L434,682L434,683L434,684L434,685L434,686L434,687L434,688L434,689L434,690L434,691L434,692L434,693L434,694L434,695L434,696L434,698L434,700L433,703L432,706L431,710" stroke-opacity="1" stroke-width="5" stroke-linecap="round" stroke-linejoin="round" style="-webkit-tap-highlight-color: rgba(0, 0, 0, 0); stroke-opacity: 1; stroke-linecap: round; stroke-linejoin: round; -webkit-user-select: text;"></path><path fill="none" stroke="#000000" d="M475,259L474,270L472,277L471,285L470,292L470,299L469,307L469,314L469,321L469,327L469,334L469,340L469,346L469,353L469,359L469,365L469,370L469,376L469,381L469,387L469,391L469,396L469,402L469,407L468,413L468,418L468,423L468,427L468,432L468,436L468,440L468,445L468,449L468,453L468,458L468,462L467,466L467,470L467,474L467,478L467,483L467,486L467,490L467,495L467,498L467,502L467,505L467,508L467,512L467,514L467,517L467,519L467,521L467,524L467,525L467,527L467,529L467,531L467,534L467,536L467,538L467,540L467,542L467,544L467,546L467,548L468,551L468,553L468,554L468,556L468,558L468,560L469,561L469,563L469,565L469,566L469,568L469,570L470,571L470,573L470,575L470,576L470,578L470,580L470,581L470,583L470,585L470,586L470,587L470,589L470,591L470,592L470,593L470,595L470,596L470,598L470,599L470,600L470,602L470,604L470,605L470,606L470,607L470,609L470,611L470,613L470,614L470,615L470,616L470,617L470,618L470,619L470,621L470,622L470,623L470,624L470,625L470,626L470,627L470,628L470,629L470,630L470,631L470,632L470,633L470,634L470,636L470,637L470,638L470,639L470,640L470,641L470,642L470,643L470,644L470,645L470,646L470,647L470,648L469,648L469,649L469,650L469,651L469,652L469,653L469,654L469,655L469,656L469,657L469,658L469,659L469,660L468,661L468,662L468,663L468,664L468,665L468,666L468,667L468,668L468,669L468,670L468,671L468,672L468,673L468,674L468,675L468,676L468,677L468,678L468,679L468,680L468,681L468,682L468,683L468,684L468,685L468,686L468,687L468,688L468,689L468,690L468,691L468,692L468,693L468,694L468,695L468,696L468,697L468,698L468,699L468,700L468,701L468,702L468,703L468,704L468,705L468,707L468,710L468,713L468,717L468,721L468,725L468,729L468,734" stroke-opacity="1" stroke-width="5" stroke-linecap="round" stroke-linejoin="round" style="-webkit-tap-highlight-color: rgba(0, 0, 0, 0); stroke-opacity: 1; stroke-linecap: round; stroke-linejoin: round; -webkit-user-select: text;"></path><path fill="none" stroke="#000000" d="M500,371L502,384L502,390L502,396L502,403L502,410L502,417L502,425L502,432L502,440L502,447L502,454L502,461L502,468L502,475L502,481L502,488L502,494L502,500L502,506L502,512L502,518L502,524L502,530L502,536L502,541L502,547L502,553L502,558L502,563L502,569L502,575L502,580L502,585L502,590L502,595L502,600L502,605L502,609L502,613L502,616L502,620L502,623L502,626L502,629L502,632L502,635L502,638L502,640L502,643L502,645L502,648L502,650L502,653L502,655L502,658L502,660L502,662L502,665L502,667L502,669L502,670L502,672L502,674L502,676L502,677L502,679L502,681L502,683L502,686L502,688L502,690L502,692L502,694L502,697L502,699L502,701L502,702L502,704L502,706L501,708L501,709L501,711L501,713L501,715L501,716L501,718L501,719L501,721L501,722L501,723L501,725L501,726L501,727L501,728L501,730L501,731L501,732L501,733L501,734L501,735L501,737L501,738L501,740L501,741L501,743L501,744L501,745L501,747L501,748L501,749L501,750L501,751L501,752L501,754L501,755L501,756L501,757L501,758L501,759L501,760L501,761L501,762L501,763L501,764L501,765L501,766L501,767L501,768L501,769L501,771L501,772L501,773L501,774L501,775L501,776L501,777L501,778L501,779L501,780L501,781L501,782L501,783L501,784L501,785L501,786L501,787L501,788L501,789L501,790L501,791L501,792L501,793L501,794L501,795L501,796L501,797L501,798L501,799L501,800L501,801L501,802L501,803L501,804L501,805L501,806L501,807L501,808L501,809L501,810L501,811L501,812L501,813L501,814L501,815L501,816L501,817L502,817L502,818L502,819L502,820L502,821L502,822L502,823L502,824L502,825L502,826L502,827L502,828L502,829L502,830L502,831L502,832L502,833L502,834L502,835L502,836L502,837L502,838L502,839L502,840L502,842L502,845" stroke-opacity="1" stroke-width="5" stroke-linecap="round" stroke-linejoin="round" style="-webkit-tap-highlight-color: rgba(0, 0, 0, 0); stroke-opacity: 1; stroke-linecap: round; stroke-linejoin: round; -webkit-user-select: text;"></path><path fill="none" stroke="#000000" d="M548,305L549,317L549,323L549,329L549,335L549,342L549,349L550,355L550,362L551,368L552,374L553,380L553,386L553,392L553,397L554,403L554,409L554,415L554,420L554,426L554,433L554,439L554,444L554,450L554,456L554,463L554,468L554,474L554,480L554,485L554,491L554,497L554,502L554,508L554,513L554,519L554,524L554,529L554,535L554,540L554,545L554,550L554,555L554,559L554,564L554,568L553,573L553,577L553,581L553,585L553,588L553,592L553,595L553,599L553,602L553,604L553,607L553,609L553,611L553,612L553,614L553,615L553,617L553,618L553,620L553,621L553,623L553,624L553,626L553,628L553,630L553,632L553,633L553,636L553,637L553,639L553,641L553,643L553,644L553,645L553,647L553,648L553,650L553,651L553,653L553,655L553,656L553,658L553,659L553,660L553,662L553,663L553,664L553,665L553,666L553,667L553,668L553,669L553,670L553,671L553,672L553,673L553,674L553,675L553,676L553,677L553,678L553,679L553,680L553,682L553,683L553,684L553,685L553,686L553,687L553,688L553,689L553,690L553,691L553,692L553,693L553,694L552,695L552,696L552,697L552,698L552,699L552,700L552,701L552,702L552,703L552,704L552,705L552,706L552,707L552,709L551,709L551,711L551,712L551,713L551,714L551,715L551,716L551,717L551,718L551,719L551,720L551,721L550,721L550,722L550,723L550,724L550,725L550,726L550,727L550,728L550,729L550,730L550,731L550,732L550,733L550,734L550,735L550,736L550,737L550,738L550,739L550,740L550,741L550,742L550,743L550,744L550,745L550,746L550,747L550,748L550,749L550,750L550,751L550,752L550,753L550,754L550,755L550,756L550,757L550,758L550,759L550,760L550,761L550,762L550,764L549,765L549,766L549,767L549,769L549,771L549,773L549,775L549,777L549,781L548,786L548,794L547,801" stroke-opacity="1" stroke-width="5" stroke-linecap="round" stroke-linejoin="round" style="-webkit-tap-highlight-color: rgba(0, 0, 0, 0); stroke-opacity: 1; stroke-linecap: round; stroke-linejoin: round; -webkit-user-select: text;"></path><path fill="none" stroke="#000000" d="M599,371L600,375L600,380L600,387L600,395L600,406L600,416L600,427L600,437L600,447L600,457L600,466L600,475L600,485L600,495L600,504L600,513L600,521L600,529L600,536L600,543L600,550L600,557L600,563L599,570L599,575L599,580L599,586L599,591L599,595L599,600L598,605L598,609L598,614L598,619L598,622L598,626L598,630L598,634L598,638L598,641L598,645L598,649L598,652L598,655L598,659L598,662L598,665L598,668L598,671L598,674L598,677L598,680L598,682L598,684L598,687L598,689L598,690L598,692L598,694L598,696L598,698L598,700L598,703L598,705L598,707L598,709L598,711L598,713L598,715L598,716L598,718L598,719L598,720L598,721L598,723L598,725L598,726L598,727L598,728L598,730L598,731L597,733L597,734L597,735L597,736L597,738L597,739L597,740L596,741L596,742L596,743L596,744L596,745L596,746L596,747L596,748L596,749L596,750L596,751L596,752L596,753L596,755L595,756L595,757L595,758L595,759L594,760L594,761L594,762L594,764L594,766L594,767L593,768L593,769L593,770L592,771L592,773L592,774L592,776L592,777L592,779L591,781L591,783L591,784L591,786L591,788L591,790L591,793L591,796L591,799" stroke-opacity="1" stroke-width="5" stroke-linecap="round" stroke-linejoin="round" style="-webkit-tap-highlight-color: rgba(0, 0, 0, 0); stroke-opacity: 1; stroke-linecap: round; stroke-linejoin: round; -webkit-user-select: text;"></path><path fill="none" stroke="#000000" d="M573,503L572,514L572,520L572,526L572,532L572,537L572,543L572,551L572,556L572,563L572,568L572,574L572,580L572,585L573,591L573,596L574,601L574,607L575,611L575,616L575,620L575,625L575,630L576,634L576,638L576,643L576,646L576,650L576,654L576,658L577,661L577,664L577,667L577,670L577,674L577,677L577,681L577,684L577,687L577,690L577,693L577,695L578,698L578,700L578,703L578,705L578,708L578,710L578,712L578,714L578,716L578,718L578,720L578,721L578,723L578,725L578,726L578,728L578,731L578,733L578,735L578,737L578,739L578,741L578,743L578,745L578,746L578,748L578,750L578,752L578,753L578,755L578,757L578,760L578,762L578,765L578,767L578,769L578,772L579,774L579,775L579,777L579,779L579,781L579,783L579,785L579,786L579,789L579,791L579,792L579,794L579,796L579,797L579,799L579,800L579,801L579,802L579,803L579,804L579,806L579,807L579,808L579,809L579,811L579,812L579,813L579,814L579,816L579,817L579,819L579,820L579,821L579,823L579,825L579,827L579,828L579,829L579,830L579,831L579,832L579,833L579,834L579,835L580,835L580,837L580,838L580,839L581,840L581,841L581,843L581,844L581,846L582,847L582,849L582,851L582,854L582,856L582,859L582,862L582,865L582,867L582,869" stroke-opacity="1" stroke-width="5" stroke-linecap="round" stroke-linejoin="round" style="-webkit-tap-highlight-color: rgba(0, 0, 0, 0); stroke-opacity: 1; stroke-linecap: round; stroke-linejoin: round; -webkit-user-select: text;"></path><path fill="none" stroke="#000000" d="M635,250L633,261L633,268L633,276L633,284L633,293L633,303L633,313L633,322L634,333L634,343L634,354L634,364L634,376L634,387L634,397L634,408L633,418L633,427L633,438L633,448L633,458L632,469L632,480L632,490L632,500L632,509L632,519L632,529L632,538L632,548L632,558L632,566L632,575L632,583L632,591L632,599L633,606L633,614L633,621L633,628L634,635L634,642L634,647L635,654L635,660L635,665L635,670L635,676L635,681L635,685L635,689L635,693L635,697L635,700L635,703L635,706L635,709L635,713L636,716L636,719L636,722L636,725L637,728L637,732L637,737L638,742L638,748L638,754L639,759" stroke-opacity="1" stroke-width="5" stroke-linecap="round" stroke-linejoin="round" style="-webkit-tap-highlight-color: rgba(0, 0, 0, 0); stroke-opacity: 1; stroke-linecap: round; stroke-linejoin: round; -webkit-user-select: text;"></path><path fill="none" stroke="#000000" d="M660,390L657,399L657,405L657,411L657,417L657,424L657,431L657,438L656,445L655,452L655,459L655,465L655,471L655,477L655,484L655,490L655,496L655,502L655,509L655,515L655,520L655,525L655,530L655,536L655,541L655,547L655,553L655,559L655,565L655,571L655,576L656,582L656,587L656,592L656,596L656,601L656,605L656,609L656,613L656,617L656,621L656,624L656,628L656,631L656,635L656,638L656,642L656,645L656,648L656,651L656,654L656,658L656,660L656,663L656,665L656,668L656,670L656,672L656,674L656,676L656,678L656,681L656,683L656,685L656,687L656,689L656,691L656,693L656,695L656,697L656,698L656,700L656,701L656,703L656,704L656,706L656,708L656,710L656,712L656,714L656,716L656,717L656,718L656,720L656,722L656,723L656,725L656,726L656,728L656,730L656,731L656,733L656,735L656,737L656,738L656,740L656,742L656,743L656,745L656,747L656,749L656,751L656,752L656,755L656,756L656,758L656,760L656,762L656,763L656,765L656,767L656,768L656,770L656,771L656,773L656,774L656,775L656,777L656,778L656,780L656,782L656,783L656,784L656,786L656,788L656,789L656,791L656,792L656,794L656,795L656,796L656,797L656,798L656,799L656,801L656,802L656,803L656,804L656,805L656,806L656,808L656,809L656,810L656,811L656,813L656,814L656,815L656,816L656,818L656,819L656,821L656,822L656,823L656,825L656,827L656,828L656,829L656,830L656,831L656,833L656,834L656,835L656,836L656,838L656,839L657,840L657,842L657,843L657,844L657,845L657,847L657,848L657,850L657,851L657,852L657,854L657,855L657,856L657,857L657,858L657,859L657,860L657,861L657,862L657,863L657,864L657,865L657,866L657,867L657,868L657,869L658,869" stroke-opacity="1" stroke-width="5" stroke-linecap="round" stroke-linejoin="round" style="-webkit-tap-highlight-color: rgba(0, 0, 0, 0); stroke-opacity: 1; stroke-linecap: round; stroke-linejoin: round; -webkit-user-select: text;"></path></svg>