<svg height="874" version="1.1" width="768" xmlns="http://www.w3.org/2000/svg" xmlns:xlink="http://www.w3.org/1999/xlink" style="overflow: hidden; position: relative; -webkit-user-select: text;"><desc style="-webkit-tap-highlight-color: rgba(0, 0, 0, 0); -webkit-user-select: text;">Created with Raphaël 2.2.0</desc><defs style="-webkit-tap-highlight-color: rgba(0, 0, 0, 0); -webkit-user-select: text;"></defs><path fill="none" stroke="#000000" d="M368,29L367,35L367,36L367,37L367,38L367,39L367,40L367,41L367,42L367,43L367,44L367,45L367,46L367,47L367,48L367,49L367,50L367,51L367,52L367,53L367,55L367,57L367,58L367,60L367,61L367,62L367,64L367,65L367,66L367,67L367,68L367,69L367,71L367,72L367,73L367,74L367,76L367,77L367,79L367,80L366,81L366,83L366,84L366,85L366,86L366,88L366,89L366,90L366,91L366,93L366,94L366,96L366,97L366,99L366,100L366,101L366,103L366,104L366,106L366,107L366,108L366,110L366,111L366,112L366,113L366,115L366,116L366,117L366,118L366,119L366,120L366,122L366,123L366,124L366,125L366,127L366,128L366,129L366,130L366,131L366,133L367,134L367,135L367,136L367,137L367,138L367,139L367,140L368,141L368,142L368,143L368,144L368,145L368,146L368,147L368,148L368,149L368,150L368,151L368,152L368,153L368,154L368,155L368,156L368,157L368,158L368,159L368,160L368,161L368,162L368,163L368,164L368,165L368,166L368,167L368,168L368,169L368,170L368,171L368,172L368,173L368,174L369,175L369,176L369,177L369,179L369,181L369,183L369,184L369,185L369,186L369,187L369,188L369,189L369,190L369,191L369,193L369,194L369,195L369,196L369,197L369,198L369,199L369,200L369,201L369,203L369,204L369,205L369,206L369,207L369,208L369,209L369,210L369,211L369,212L369,213L369,214L369,215L369,216L369,217L369,218L369,219L369,220L369,221L369,222L369,223L369,224L369,225L369,226L369,227L369,229L369,230L369,231L369,232L369,233L369,234L369,235L369,236L369,237L369,238L369,239L369,240L369,241L369,242L369,243L369,244L370,244L370,245L370,246L370,247L370,248L370,249L370,250L370,251L371,251L371,252L371,253L371,254L372,254L372,255L372,256L372,257L372,258L373,258L373,259L373,260L373,261L373,262L373,263L373,264L373,265L374,265L374,266L374,267L375,268L375,269L375,270L375,271L375,272L376,273L376,274L376,275L377,275L377,276L377,277L378,278L378,279L378,280L378,281L378,283L378,284L378,286L378,288L378,291L378,294L379,297L379,301" stroke-opacity="1" stroke-width="5" stroke-linecap="round" stroke-linejoin="round" style="-webkit-tap-highlight-color: rgba(0, 0, 0, 0); stroke-opacity: 1; stroke-linecap: round; stroke-linejoin: round; -webkit-user-select: text;"></path><path fill="none" stroke="#000000" d="M403,103L403,108L403,109L403,110L403,111L403,112L403,113L403,114L403,115L403,116L403,117L403,118L403,119L403,120L403,121L403,122L403,123L403,124L403,125L403,126L403,127L403,128L403,129L403,130L403,131L403,132L403,133L403,134L403,135L403,136L403,137L403,138L403,139L403,140L403,141L403,142L403,143L403,144L403,145L403,146L403,147L403,148L403,149L402,150L402,152L402,153L402,154L402,155L402,157L402,158L402,159L402,160L402,162L402,163L402,164L402,166L402,167L402,169L402,170L402,171L402,173L402,174L402,175L402,177L402,178L402,179L402,181L402,182L402,184L402,185L402,186L402,187L402,189L402,191L402,193L402,195L402,196L402,197L402,198L402,199L402,200L402,201L402,202L402,203L402,204L402,205L402,206L402,207L402,208L402,209L402,210L402,211L402,212L402,213L402,214L402,215L402,216L402,217L402,218L402,219L402,220L402,221L402,222L402,223L402,224L402,225L402,226L402,227L402,228L402,229L402,230L402,231L402,232L402,233L402,234L402,235L402,236L402,237L402,239L402,240L402,241L402,242L402,244L402,245L402,246L402,247L402,248L402,249L402,250L402,252L402,254L402,255L402,256L402,257L402,258L402,259L402,261L402,262L402,263L402,264L402,265L402,266L402,267L402,268L402,269L402,270L402,271L402,272L402,273L402,274L402,275L402,276L402,277L402,278L402,279L402,280L402,281L402,283L402,284L402,285L402,286L402,287L402,288L403,290L403,291L403,292L403,293L403,294L403,295L403,296L403,297L403,298L403,299L403,300L403,301L403,302L403,303L403,304L403,305L403,306L403,307L403,308L403,309L403,310L403,311L403,312L403,313L403,314L403,315L403,316L403,317L403,318L403,319L404,320L404,321L404,322L404,323L404,324L404,325L404,326L404,327L404,328L404,329L404,330L404,331L404,332L404,333L404,334L404,335L404,336L404,337L404,338L404,339L404,340L404,341L404,342L404,343L404,344L404,345L404,346L404,347L405,349L405,351L405,354L405,356L405,361L405,364" stroke-opacity="1" stroke-width="5" stroke-linecap="round" stroke-linejoin="round" style="-webkit-tap-highlight-color: rgba(0, 0, 0, 0); stroke-opacity: 1; stroke-linecap: round; stroke-linejoin: round; -webkit-user-select: text;"></path><path fill="none" stroke="#000000" d="M351,153L351,162L351,164L351,167L351,169L351,171L351,173L351,174L351,177L351,179L351,181L351,184L351,186L351,189L351,191L351,193L351,196L351,199L351,202L351,205L351,208L351,210L351,213L351,216L351,218L351,221L351,224L352,226L352,228L352,231L353,233L353,235L353,237L353,240L354,242L354,244L354,246L354,248L354,250L355,252L355,254L355,257L355,259L356,260L356,262L356,264L356,266L356,267L356,269L357,270L357,272L357,274L358,275L358,277L358,278L358,281L358,282L358,283L358,285L359,287L359,288L359,289L359,291L359,292L359,293L360,294L360,295L360,297L360,298L360,299L361,300L361,302L361,303L361,305L361,306L361,307L361,308L361,310L361,311L362,312L362,313L362,314L362,315L362,316L362,317L363,319L363,320L363,322L363,323L363,325L363,326L363,327L363,328L363,329L363,330L364,331L364,332L364,333L364,334L364,335L364,336L364,337L364,338L364,339L364,340L364,341L364,342L364,343L364,344L365,345L365,346L365,347L365,348L365,349L365,350L365,351L365,352L366,353L366,354L366,355L366,356L366,357L366,358L366,359L366,360L366,361L366,362L366,363L366,364L366,365L367,366L367,367L367,368L367,369L367,370L367,371L367,372L367,373L367,374L367,375L368,375L368,376L368,377L368,378L368,379L368,380L368,381L368,382L368,383L368,384L368,385L368,386L368,387L368,388L368,389L368,390L368,391L368,392L368,393L368,394L368,395L368,396L368,397L368,398L369,398L369,399L369,400L369,401L369,402L369,403L369,404L369,405L370,405L370,406L370,407L370,408L370,409L370,410L370,411L370,412L370,413L370,414L370,415L370,416L370,417L371,417L371,418L371,419L371,420L371,421L371,422L371,423L372,423L372,424L372,425L372,426L372,427L372,428L372,429L373,429L373,430L373,431L373,432L373,433L373,434L373,435L373,436L373,437L373,438L373,439L374,439L374,440L374,441L374,442L374,443L374,444L374,445L375,446L375,447L375,448L375,449L375,450L375,451L375,452L375,453L376,453L376,454L376,455L376,456L376,457L376,458L376,459L377,459L377,460L377,461L377,462L377,463L377,464L377,465L378,466L378,467L378,468L378,469L378,470L378,471L378,472L378,473L378,474L378,475L378,476L378,477L379,478L379,480L379,483L379,485L379,488L379,491L379,494L379,498L379,502" stroke-opacity="1" stroke-width="5" stroke-linecap="round" stroke-linejoin="round" style="-webkit-tap-highlight-color: rgba(0, 0, 0, 0); stroke-opacity: 1; stroke-linecap: round; stroke-linejoin: round; -webkit-user-select: text;"></path><path fill="none" stroke="#000000" d="M396,349L397,354L397,356L397,358L397,360L397,362L397,364L397,365L397,367L397,368L397,370L398,372L398,374L398,376L398,378L398,380L398,382L399,383L399,385L399,387L399,388L399,390L400,392L400,394L400,396L400,398L401,400L401,402L401,404L402,406L402,407L402,410L402,412L403,414L403,416L403,418L404,420L404,422L404,424L404,426L404,428L405,429L405,431L405,433L405,435L405,436L406,438L406,439L406,441L407,443L407,445L407,447L407,449L407,451L407,453L407,454L407,456L408,458L408,459L408,460L408,461L408,462L409,463L409,465L409,466L409,467L409,468L409,469L409,470L409,472L409,473L410,474L410,475L410,477L410,478L410,480L410,481L410,482L411,484L411,485L411,486L411,487L412,488L412,490L412,491L412,492L412,494L413,495L413,497L413,499L413,500L413,502L413,504L413,505L413,506L413,507L413,508L413,510L413,512L413,514L413,515L413,517L413,519L413,520L413,522L412,522" stroke-opacity="1" stroke-width="5" stroke-linecap="round" stroke-linejoin="round" style="-webkit-tap-highlight-color: rgba(0, 0, 0, 0); stroke-opacity: 1; stroke-linecap: round; stroke-linejoin: round; -webkit-user-select: text;"></path><path fill="none" stroke="#000000" d="M427,223L429,227L429,229L429,231L429,232L429,234L429,236L429,237L429,239L429,241L429,243L429,245L429,247L429,249L429,252L429,253L429,255L429,257L429,259L429,261L429,263L429,265L429,267L429,269L429,271L429,273L430,275L430,277L430,279L430,281L430,283L430,284L430,286L431,288L431,290L431,291L431,293L431,295L431,297L431,298L431,300L431,302L431,304L431,305L431,307L431,309L431,311L431,313L431,314L431,316L431,317L431,319L431,320L431,322L431,323L431,324L431,326L431,327L431,328L431,329L431,330L431,331L431,332L431,333L431,334L432,336L432,337L432,339L432,340L432,342L432,343L432,344L432,345L432,346L432,347L432,348L432,349L432,351L432,353L432,354L432,355L432,356L432,357L432,358L432,359L432,360L432,361L432,362L432,363L432,364L432,365L432,366L432,367L432,368L432,369L432,370L432,371L432,372L432,373L432,375L432,376L432,377L432,378L432,379L432,380L432,381L432,383L432,385L432,386L432,387L432,388L432,390L432,391L432,392L432,393L432,395L432,396L432,398L432,399L432,400L432,401L432,402L432,404L432,405L432,406L432,407L432,409L432,410L431,411L431,412L431,414L431,415L431,416L431,417L431,419L431,421L431,422L431,423L431,424L431,426L431,427L431,428L431,429L431,430L431,431L430,432L430,433L430,434L430,435L430,436L430,437L430,438L430,439L430,440L430,441L430,442L430,443L430,444L430,445L430,446L430,447L430,448L430,449L430,450L430,451L430,452L430,453L430,454L430,455L430,456L430,457L429,458L429,459L429,460L429,461L429,462L429,463L429,464L429,465L429,466L429,467L429,468L429,469L429,470L429,471L428,472L428,473L428,474L428,475L428,476L428,477L428,478L428,479L428,480L428,481L428,482L428,483L427,483L427,484L427,485L427,486L427,487L427,488L427,489L427,490L427,491L426,492L426,493L426,494L426,495L426,496L426,497L426,498L426,499L426,500L426,501L426,502L426,503L426,504L426,505L426,506L426,507L426,508L426,509L426,510L426,511L426,512L426,513L426,514L426,515L426,516L426,517L426,518L426,519L426,520L426,522L426,523L426,524L426,525L426,526L426,527L426,528L426,529L426,530L426,532L426,534L426,535L426,537L426,539L425,541L424,543L423,544" stroke-opacity="1" stroke-width="5" stroke-linecap="round" stroke-linejoin="round" style="-webkit-tap-highlight-color: rgba(0, 0, 0, 0); stroke-opacity: 1; stroke-linecap: round; stroke-linejoin: round; -webkit-user-select: text;"></path><path fill="none" stroke="#000000" d="M341,327L344,333L344,335L344,338L344,340L344,343L344,345L345,348L345,350L346,353L346,355L347,358L347,360L348,363L348,366L349,369L349,372L349,375L350,378L350,381L351,384L351,387L352,390L352,393L353,396L353,398L354,402L354,405L355,407L355,410L356,413L356,416L356,419L357,423L357,426L357,429L358,433L358,435L358,439L358,441L358,445L358,449L359,452L359,456L359,459L359,462L360,465L360,469L360,473L360,478L360,482L360,486L360,490L360,495" stroke-opacity="1" stroke-width="5" stroke-linecap="round" stroke-linejoin="round" style="-webkit-tap-highlight-color: rgba(0, 0, 0, 0); stroke-opacity: 1; stroke-linecap: round; stroke-linejoin: round; -webkit-user-select: text;"></path><path fill="none" stroke="#000000" d="M335,242L335,246L335,247L335,249L335,250L335,252L335,254L335,255L335,257L335,260L335,262L335,264L335,267L335,270L336,273L336,275L336,278L337,280L337,282L338,285L338,287L339,289L339,292L339,294L339,296L339,298L340,300L340,302L340,304L341,306L341,308L341,310L341,312L341,314L341,316L341,318L341,320L341,322L341,324L341,326L341,328L341,330L341,332L341,334L342,335L342,337L342,338L342,340L342,342L342,343L342,344L342,346L342,348L342,349L342,351L342,352L343,354L343,355L343,356L343,358L343,359L343,361L343,362L343,364L343,365L343,366L344,368L344,369L344,371L344,372L344,373L344,375L344,376L344,378L344,379L344,381L344,382L344,383L344,384L344,385L344,387L344,388L344,390L344,391L344,393L344,394L345,395L345,397L345,398L345,400L345,401L345,402L345,404L345,405L345,406L345,407L345,408L345,409L345,410L345,411L345,412L345,413L345,415L346,417L346,418L346,419L346,420L346,422L346,423L346,424L346,425L346,426L346,427L346,428L346,429L346,430L346,432L346,434L347,434L347,435L347,436L347,437L347,438L347,439L347,441L347,443L347,444L347,445L347,446L347,447L347,448L347,449L347,451L347,452L347,453L347,454L347,455L347,456L348,457L348,458L348,459L348,460L348,461L348,462L348,463L348,464L348,465L348,466L348,467L348,468L348,469L348,470L348,471L348,472L348,473L348,474L348,475L348,476L348,477L348,478L348,479L348,480L348,481L348,482L348,483L348,484L348,485L348,486L348,487L348,488L348,489L348,490L348,491L348,492L348,493L348,494L348,495L348,496L348,497L348,498L348,499L348,500L348,501L348,502L348,503L348,504L348,505L348,506L348,507L348,508L348,509L348,510L348,511L348,512L348,513L348,514L348,515L348,516L348,517L348,518L348,519L348,520L348,521L348,522L348,523L348,524L349,525L349,526L349,527L349,528L349,529L349,530L349,531L349,532L349,533L349,534L350,535L350,536L350,537L350,538L350,539L350,540L350,541L350,542L351,542L351,543L351,544L351,545L351,546L351,547L351,548L351,549L351,550L351,551L351,552L351,553L351,554L351,555L351,556L351,557L351,558L351,560L351,561L351,562L351,563L351,564L351,565L351,566L351,567L351,568L351,569L351,570L351,571L351,572L351,573L351,574L351,575L351,576L351,577L351,578L351,579L351,580L351,581L351,582L351,583L352,583L352,584L352,585L353,586L353,587L354,588L354,589L355,591L356,594L356,596L357,599" stroke-opacity="1" stroke-width="5" stroke-linecap="round" stroke-linejoin="round" style="-webkit-tap-highlight-color: rgba(0, 0, 0, 0); stroke-opacity: 1; stroke-linecap: round; stroke-linejoin: round; -webkit-user-select: text;"></path><path fill="none" stroke="#000000" d="M384,348L384,356L384,357L384,358L384,359L384,361L384,362L384,363L384,364L384,365L384,366L384,368L384,370L384,371L384,372L384,373L384,375L384,376L384,378L384,379L384,381L384,382L384,383L384,385L384,386L384,388L384,390L384,391L385,393L385,394L385,396L385,398L385,399L385,401L385,402L386,403L386,405L386,406L386,407L386,409L386,410L386,411L386,413L386,414L386,415L386,416L387,417L387,419L387,420L387,421L387,422L387,423L387,424L387,425L387,426L387,427L387,428L387,429L387,430L387,432L387,433L387,434L387,435L387,436L387,437L387,438L387,439L387,440L387,441L387,443L387,444L387,445L387,446L387,447L387,448L387,449L387,450L387,451L387,452L387,453L387,455L387,456L387,458L387,459L387,461L387,462L387,463L387,464L387,465L387,466L387,467L387,468L387,469L387,470L387,471L387,472L387,473L387,474L387,475L387,476L387,477L387,478L387,479L387,480L387,481L387,482L387,483L387,484L387,485L387,486L387,487L387,488L387,489L387,490L387,491L387,492L387,493L387,494L387,495L387,496L387,497L387,498L387,499L387,500L387,501L387,502L387,503L387,504L387,505L387,506L387,507L387,508L387,509L387,510L387,511L387,512L387,513L387,514L387,515L387,516L387,517L387,518L387,519L387,520L387,521L387,522L387,523L387,524L387,525L387,526L387,527L387,528L387,529L387,530L387,531L387,532L387,533L387,534L387,535L387,536L387,537L387,538L387,539L387,540L387,541L387,542L387,543L387,545L387,546L387,547L387,548L387,549L387,550L387,551L387,552L387,553L387,554L387,556L387,557L387,558L387,559L387,560L387,561L387,562L387,563L387,564L387,565L387,566L387,567L387,568L387,569L387,570L387,571L387,572L387,573L387,574L387,575L387,576L387,577L387,578L387,579L387,580L387,581L387,582L387,583L387,584L387,585L387,586L387,587L387,588L387,589L387,590L387,591L387,592L387,593L387,594L387,595L387,596L387,597L387,598L387,599L387,600L387,601L387,602L387,603L387,604L387,605L387,606L387,607L387,608L387,609L387,610L387,611L387,612L387,613L387,614L387,615L387,616L387,617L387,618L387,619L387,620L387,621L387,622L387,624L387,625L387,626L387,627L387,628L387,629L387,630L387,631L387,632L387,633L387,635L387,636L387,637L387,638L388,639L388,640L388,641L388,642L388,643L388,644L388,645L388,646L388,647L388,648L388,649L388,650L388,651L388,652L388,653L389,653L389,654L389,655L389,656L389,657L389,658L389,659L389,660L389,661L389,662L389,663L389,664L389,665L389,666L389,667L389,668L389,669L389,670L389,671L389,672L389,673L389,674L389,675L389,676L389,677L389,678L389,679L389,680L389,681L389,682L389,684L389,686L389,687L389,688L389,689L389,690L389,691L390,692L390,693L390,694L390,695L390,696L390,697L390,698L391,699L391,700L392,701L392,702L392,703L393,704L393,705L394,706L394,708L395,710L395,712L395,715L395,718L396,721" stroke-opacity="1" stroke-width="5" stroke-linecap="round" stroke-linejoin="round" style="-webkit-tap-highlight-color: rgba(0, 0, 0, 0); stroke-opacity: 1; stroke-linecap: round; stroke-linejoin: round; -webkit-user-select: text;"></path><path fill="none" stroke="#000000" d="M417,499L417,502L417,503L417,505L417,506L417,508L417,509L417,511L417,512L417,514L417,517L417,519L417,522L417,524L417,526L417,529L417,531L417,533L417,535L417,537L417,539L417,541L417,543L417,546L417,549L417,551L417,554L417,556L417,559L417,561L417,563L417,565L417,568L417,570L416,572L416,575L416,577L416,580L416,582L416,585L416,587L415,589L415,591L415,593L415,594L415,596L415,598L415,600L415,602L415,604L415,607L415,608L415,610L415,612L415,614L415,615L415,616L415,618L415,619L415,620L415,621L415,623L415,625L415,626L415,629L415,633L415,637L415,645L415,650" stroke-opacity="1" stroke-width="5" stroke-linecap="round" stroke-linejoin="round" style="-webkit-tap-highlight-color: rgba(0, 0, 0, 0); stroke-opacity: 1; stroke-linecap: round; stroke-linejoin: round; -webkit-user-select: text;"></path><path fill="none" stroke="#000000" d="M424,389L425,392L425,394L425,395L425,397L425,399L425,400L425,402L425,403L425,405L425,407L425,409L425,410L425,412L425,414L425,416L425,418L425,420L425,422L425,424L425,426L425,427L425,429L425,431L425,432L425,434L425,436L425,437L425,439L425,440L425,442L425,444L425,445L425,446L425,449L425,450L425,452L425,453L425,455L425,456L425,458L425,459L425,461L425,462L425,463L425,464L425,466L425,467L425,468L425,470L425,471L425,473L425,474L425,475L425,477L425,478L425,480L425,481L425,483L425,485L425,486L425,488L425,489L425,490L425,492L425,493L425,495L426,496L426,497L426,499L426,500L426,502L426,504L426,505L426,507L426,508L426,510L426,512L426,513L426,514L426,516L426,517L426,519L426,521L426,522L426,524L426,525L426,526L426,528L426,529L426,531L426,532L426,534L426,535L426,536L426,537L426,538L426,539L426,540L426,541L427,542L427,543L427,544L427,546L427,547L427,548L427,549L427,550L427,551L427,553L427,554L427,555L427,556L427,558L427,559L427,560L427,561L427,562L427,563L427,564L427,565L427,566L427,567L428,568L428,569L428,570L428,571L428,572L428,573L428,574L428,575L428,576L428,577L428,578L428,579L428,580L428,581L428,582L428,583L428,584L428,585L428,586L428,587L428,588L428,589L428,590L428,591L428,592L428,593L428,594L428,595L428,596L428,597L428,598L428,599L428,600L428,601L428,602L428,603L428,604L428,605L428,606L428,607L428,608L428,609L428,610L428,611L428,612L428,613L428,614L428,615L428,616L428,617L428,618L428,619L428,620L428,621L428,622L428,623L428,624L428,625L428,626L428,627L428,628L428,629L428,630L428,631L428,632L428,633L428,634L428,635L428,636L428,637L428,638L428,639L428,640L428,641L428,642L428,643L428,644L428,645L428,646L428,647L428,648L428,649L428,650L428,651L428,652L428,653L428,654L428,655L428,656L428,657L428,658L428,659L428,660L428,661L428,662L428,663L428,664L428,665L428,666L428,667L428,668L428,669L428,670L428,671L428,672L428,673L428,674L428,675L428,676L428,677L428,678L428,679L428,680L428,681L428,682L428,683L428,684L428,685L428,686L428,687L428,688L428,689L428,690L428,692L428,693L428,694L428,695L428,696L428,697L428,698L428,699L428,700L428,701L428,702L428,704L428,705L428,706L429,708L429,709L429,711L430,712L430,714L431,716L431,718L432,722L432,726L433,731L433,736" stroke-opacity="1" stroke-width="5" stroke-linecap="round" stroke-linejoin="round" style="-webkit-tap-highlight-color: rgba(0, 0, 0, 0); stroke-opacity: 1; stroke-linecap: round; stroke-linejoin: round; -webkit-user-select: text;"></path><path fill="none" stroke="#000000" d="M409,535L409,539L409,541L409,543L409,545L409,548L409,550L409,553L409,555L409,558L409,560L409,562L409,565L409,567L409,570L409,573L409,576L409,579L410,582L410,585L410,588L410,592L410,595L410,599L411,602L411,606L411,609L411,613L411,616L412,620L412,623L412,627L412,631L412,634L412,638L412,641L412,644L412,647L412,649L413,652L413,655L413,657L413,660L413,662L414,665L414,667L414,670L415,672L415,675L417,680L418,685L419,692L419,697L421,700" stroke-opacity="1" stroke-width="5" stroke-linecap="round" stroke-linejoin="round" style="-webkit-tap-highlight-color: rgba(0, 0, 0, 0); stroke-opacity: 1; stroke-linecap: round; stroke-linejoin: round; -webkit-user-select: text;"></path><path fill="none" stroke="#000000" d="M373,526L373,531L373,534L373,536L373,538L373,541L374,543L374,546L375,549L375,553L375,556L376,559L376,562L376,565L376,569L376,572L376,576L376,579L376,582L376,586L376,589L376,592L376,595L376,599L376,602L376,605L376,609L376,611L376,614L376,617L376,619L376,622L376,625L376,628L376,631L376,633L376,636L376,638L376,641L376,644L376,646L376,649L376,651L376,654L376,656L376,659L376,661L376,663L376,666L376,668L376,670L376,672L376,674L376,676L376,678L376,680L376,682L376,684L376,686L376,688L376,690L376,692L376,693L376,694L376,696L376,698L376,699L376,701L376,702L376,704L376,705L376,707L376,708L376,709L376,711L376,712L376,714L376,715L376,717L376,718L376,719L376,721L376,723L376,724L376,725L376,726L376,727L376,728L376,730L376,731L376,732L376,733L376,735L376,736L376,737L376,738L376,740L376,741L376,742L376,744L377,745L377,746L377,748L377,750L378,752L378,753L378,755L378,756L378,757L378,758L378,759L378,760L379,761L379,762L379,763L379,764L379,765L380,766L380,767L380,768L380,769L380,770L380,771L380,772L380,773L380,774L380,775L380,776L380,777L381,777L381,778L381,779L381,780L381,781L381,782L381,784L382,784L382,785L382,786L382,787L382,789L382,790L382,791L382,792L382,793L382,794L382,795L382,796L382,797L382,798L382,799L382,800L382,801L382,802L382,803L382,804L382,805L382,806L382,807L383,808L383,810L383,811L383,812L383,813L384,815L384,816L384,819L384,823L384,826" stroke-opacity="1" stroke-width="5" stroke-linecap="round" stroke-linejoin="round" style="-webkit-tap-highlight-color: rgba(0, 0, 0, 0); stroke-opacity: 1; stroke-linecap: round; stroke-linejoin: round; -webkit-user-select: text;"></path><path fill="none" stroke="#000000" d="M353,631L353,635L353,637L353,640L353,643L353,646L353,649L353,653L353,656L353,659L353,662L353,665L353,668L353,670L353,673L353,676L353,678L353,681L353,684L353,686L353,689L353,691L353,693L353,695L353,697L353,699L354,701L354,704L354,706L354,709L354,711L354,714L354,716L354,718L354,721L354,723L354,725L354,728L354,730L354,733L354,735L354,737L354,739L354,741L354,743L354,744L354,746L354,748L354,749L354,750L354,752L354,753L354,755L354,756L354,758L354,760L354,761L354,763L354,765L354,766L354,767L354,769L354,770L354,771L354,772L354,774L354,775L354,776L354,777L354,779L354,780L354,781L354,782L354,784L354,785L354,786L354,787L354,788L354,789L354,790L354,791L354,792L354,793L354,794L354,795L354,796L354,797L354,798L354,799L354,800L354,801L354,802L354,803L354,804L354,805L354,806L354,807L354,808L354,809L354,810L354,811L354,812L354,813L354,814L354,815L354,816L354,818L354,819L354,820L354,821L354,822L354,823L354,824L354,825L354,826L354,827L354,828L354,829L354,830L354,831L354,832L354,833L354,834L354,835L354,836L354,838L354,840L354,841L354,842L354,843L354,844L354,845L354,846L354,847L354,848L354,849L354,850L354,852L354,854L354,855L354,856L354,857L354,859L354,860L354,861L354,862L354,863L354,864L354,865L354,866L354,867L354,868L354,869" stroke-opacity="1" stroke-width="5" stroke-linecap="round" stroke-linejoin="round" style="-webkit-tap-highlight-color: rgba(0, 0, 0, 0); stroke-opacity: 1; stroke-linecap: round; stroke-linejoin: round; -webkit-user-select: text;"></path><path fill="none" stroke="#000000" d="M401,734L400,743L400,747L400,751L400,756L400,762L400,767L400,772L400,777L400,783L400,788L400,793L400,798L400,803L399,808L398,813L398,818L397,822L397,827L397,831L397,836L397,840L397,845L397,852L397,857L397,862L397,866L397,868" stroke-opacity="1" stroke-width="5" stroke-linecap="round" stroke-linejoin="round" style="-webkit-tap-highlight-color: rgba(0, 0, 0, 0); stroke-opacity: 1; stroke-linecap: round; stroke-linejoin: round; -webkit-user-select: text;"></path></svg>