<svg height="874" version="1.1" width="768" xmlns="http://www.w3.org/2000/svg" xmlns:xlink="http://www.w3.org/1999/xlink" style="overflow: hidden; position: relative; -webkit-user-select: text;"><desc style="-webkit-tap-highlight-color: rgba(0, 0, 0, 0); -webkit-user-select: text;">Created with Raphaël 2.2.0</desc><defs style="-webkit-tap-highlight-color: rgba(0, 0, 0, 0); -webkit-user-select: text;"></defs><path fill="none" stroke="#000000" d="M47,69L47,70L49,70L51,70L52,70L55,70L57,70L59,70L62,70L64,70L67,70L69,70L71,70L74,70L76,70L79,70L81,70L84,70L86,70L89,70L91,70L94,70L96,70L100,70L103,70L106,70L110,70L113,70L117,70L121,70L125,70L129,70L133,70L137,70L140,70L144,70L147,70L151,70L155,70L158,70L162,70L165,70L169,70L172,71L176,71L179,72L183,72L186,72L189,73L192,73L195,74L198,74L200,75L203,75L206,75L209,76L212,77L214,77L217,78L220,79L222,80L224,80L226,81L229,82L231,83L233,84L235,85L237,85L239,86L241,87L242,88L244,88L246,89L247,90L249,91L251,92L251,93L253,94L254,95L256,96L256,97L258,98L259,99L260,100L261,101L261,102L263,103L263,104L264,105L266,106L266,107L268,109L268,110L269,111L270,113L271,114L272,115L273,116L274,117L274,118L275,119L276,120L276,121L277,122L277,123L278,125L278,126L278,127L279,128L279,129L280,131L280,133L281,134L281,135L281,136L282,138L282,139L282,140L282,141L283,142L283,143L283,144L283,145L283,146L283,148L283,149L283,150L283,152L283,153L283,154L283,155L283,156L283,157L283,158L283,159L283,160L283,161L283,162L282,162L282,163L281,164L281,165L280,165L280,166L280,167L279,168L278,169L278,170L277,171L276,171L276,172L275,172L274,173L273,174L272,175L271,176L270,177L269,177L268,178L267,178L266,179L265,180L264,180L263,181L262,182L261,182L259,182L258,183L257,184L256,184L254,184L253,185L252,185L250,186L249,186L247,187L246,187L244,187L243,188L241,188L239,189L238,189L236,189L234,189L232,190L231,190L229,190L227,190L226,191L225,191L223,191L221,191L220,191L218,192L216,192L215,192L213,192L212,192L210,192L208,192L206,192L205,192L203,192L201,192L199,193L198,193L195,193L194,193L192,193L190,193L188,193L187,193L185,193L183,193L181,193L179,193L178,193L176,194L174,194L172,194L170,194L168,194L166,194L164,194L161,194L159,194L157,194L155,194L153,194L151,194L148,194L146,194L144,194L142,194L139,194L137,194L135,194L133,194L131,194L129,194L127,194L125,194L122,194L120,194L118,195L116,195L114,195L113,195L111,195L109,195L108,195L105,195L104,195L102,195L101,195L99,195L98,195L96,195L95,195L93,195L92,195L91,195L89,196L88,196L86,196L85,196L84,196L83,196L81,196L80,196L79,196L77,196L76,196L75,196L73,196L72,196L71,196L69,196L68,196L67,196L66,196L65,196L64,196L62,196L61,196L60,196L59,196L58,196L57,196L56,196L55,196L54,196L52,196L49,195L45,193L41,190" stroke-opacity="1" stroke-width="5" stroke-linecap="round" stroke-linejoin="round" style="-webkit-tap-highlight-color: rgba(0, 0, 0, 0); stroke-opacity: 1; stroke-linecap: round; stroke-linejoin: round; -webkit-user-select: text;"></path><path fill="none" stroke="#000000" d="M83,108L80,111L80,112L80,114L80,116L80,118L80,120L80,122L80,125L80,127L80,130L80,133L80,136L80,138L80,141L80,144L80,147L80,150L80,153L80,156L80,159L80,162L80,165L80,168L80,170L80,173L80,176L80,179L80,181L80,184L80,186L80,188L80,190L80,193L80,194L80,196L80,199L80,201L80,203L80,204L80,206L79,208L79,210L79,212L79,214L79,216L79,218L79,220L79,221L79,223L79,225L79,226L79,228L79,229L79,230L79,231L79,232L79,233" stroke-opacity="1" stroke-width="5" stroke-linecap="round" stroke-linejoin="round" style="-webkit-tap-highlight-color: rgba(0, 0, 0, 0); stroke-opacity: 1; stroke-linecap: round; stroke-linejoin: round; -webkit-user-select: text;"></path><path fill="none" stroke="#000000" d="M67,262L71,262L73,261L74,260L76,259L78,258L80,257L82,257L85,256L87,255L89,255L92,254L94,254L97,253L99,252L102,252L105,252L108,252L110,252L113,251L116,251L119,251L122,251L125,250L127,250L130,250L133,250L135,249L138,249L140,248L143,248L146,247L148,247L151,246L154,245L157,244L159,243L161,243L164,242L166,240L169,239L171,238L173,237L176,235L178,234L180,233L182,231L184,230L186,228L188,227L190,225L191,224L193,222L195,221L196,219L198,218L199,216L200,215L201,213L202,212L203,211L204,209L205,207L205,206L206,204L207,202L208,201L208,199L208,197L209,196L209,194L210,193L210,191L210,189L211,188L211,187L212,185L212,183L212,182L213,180L213,179L213,177L214,176L214,174L214,173L215,172L215,170L215,169L215,167L216,166L216,165L217,163L217,162L217,160L218,159L219,157L220,155L220,154L221,153L222,150L222,149L223,147L224,145L225,144L226,142L227,140L228,138L229,137L230,135L232,133L233,131L234,130L235,128L236,127L237,125L239,124L240,122L242,121L243,119L245,118L247,116L249,115L251,114L253,113L255,111L257,110L259,109L261,108L263,106L265,105L266,104L268,103L271,102L273,101L275,100L277,99L278,98L280,97L283,96L285,95L287,94L289,93L291,92L293,92L295,90L298,89L300,88L302,87L303,87L305,86L307,85L309,83L311,82L313,81L315,80L317,79L318,78L320,77L322,76L323,75L324,73L326,72L328,71L329,70L331,68L332,67L334,66L335,65L336,63L337,63L339,61L340,60L341,59L342,58L343,56L344,55L344,54L345,53L346,52L347,51L348,50L348,48L349,48L349,46L350,46L351,44L351,43L351,42L352,41L352,40L353,39L353,38L353,37L354,36L355,35L355,34L355,33L356,32L356,31L356,30L356,29L356,28L357,27L357,26L357,24L357,23L357,21L357,20L357,18L357,15L357,11L357,2" stroke-opacity="1" stroke-width="5" stroke-linecap="round" stroke-linejoin="round" style="-webkit-tap-highlight-color: rgba(0, 0, 0, 0); stroke-opacity: 1; stroke-linecap: round; stroke-linejoin: round; -webkit-user-select: text;"></path><path fill="none" stroke="#000000" d="M311,12L311,14L311,16L311,19L312,21L313,24L314,26L314,28L315,31L316,34L316,37L317,40L317,43L317,47L318,50L318,53L319,57L319,60L319,64L319,68L320,72L320,76L321,80L321,84L321,88L322,92L322,96L322,99L323,104L323,107L323,110L324,114L324,117L324,120L324,123L325,126L325,129L326,132L326,135L327,138L327,140L327,143L328,146L328,149L329,151L329,154L329,156L330,159L330,161L331,164L331,166L331,169L332,171L332,173L332,175L333,178L333,180L333,182L333,184L333,187L334,189L334,191" stroke-opacity="1" stroke-width="5" stroke-linecap="round" stroke-linejoin="round" style="-webkit-tap-highlight-color: rgba(0, 0, 0, 0); stroke-opacity: 1; stroke-linecap: round; stroke-linejoin: round; -webkit-user-select: text;"></path><path fill="none" stroke="#000000" d="M285,151L290,152L292,152L294,152L295,152L297,152L299,152L300,152L302,152L305,152L307,152L309,152L311,152L313,152L315,152L317,152L319,152L321,152L323,152L325,152L327,152L329,152L330,152L332,152L334,152L336,152L338,152L339,152L341,152L342,152L344,152L346,152L347,152L349,152L351,152L353,152L354,152L356,152L358,152L359,152L361,152L363,152L364,152L366,153L368,153L369,153L371,154L373,155L374,155L375,156L377,157L379,157L380,158L382,159L383,160L385,160L386,161L387,162L389,162L390,163L392,164L393,165L395,166L396,166L397,167L399,168L400,169L401,169L403,170L404,171L406,172L407,172L409,173L410,174L412,175L414,176L415,177L417,177L418,178L419,179L421,179L422,180L424,181L425,182L427,182L429,183L430,184L431,184L433,185L434,185L436,186L437,186L438,187L440,187L441,187L443,188L444,188L446,188L447,189L448,189L450,189L451,189L452,189L454,189L455,189L457,189L458,189L460,190L461,190L463,190L465,190L466,190L468,190L469,190L471,190L472,190L474,190L476,190L477,190L479,190L481,190L482,190L484,190L485,189L487,189L489,189L490,188L492,187L494,187L496,186L497,185L499,184L501,183L502,182L504,182L505,181L507,179L508,179L510,177L511,177L512,175L514,174L515,173L516,172L517,170L519,169L519,167L521,166L522,165L523,164L524,162L525,161L526,160L526,158L527,157L528,155L528,154L528,153L529,152L529,150L530,149L530,148L531,146L531,145L531,143L531,142L531,140L531,139L531,138L531,136L531,135L531,133L531,131L531,130L531,129L531,128L531,126L531,125L531,123L531,122L531,121L531,120L531,119L530,117L530,116L529,115L529,114L528,112L527,111L526,109L526,108L525,107L524,106L523,104L522,103L521,102L520,101L519,100L518,99L517,98L516,97L516,96L515,95L514,94L513,93L512,92L511,92L510,91L509,90L508,89L507,89L507,88L506,87L505,87L504,86L503,86L502,85L501,85L501,84L500,84L499,83L498,82L497,82L496,81L495,81L494,80L493,80L492,80L492,79L491,79L490,78L489,78L488,77L487,77L486,77L486,76L485,76L484,76L484,75L483,75L482,75L481,75L480,75L480,74L479,74L478,74L477,74L477,73L476,73L475,73L474,73L473,73L472,73L472,72L471,72L470,72L469,72L468,72L467,72L466,71" stroke-opacity="1" stroke-width="5" stroke-linecap="round" stroke-linejoin="round" style="-webkit-tap-highlight-color: rgba(0, 0, 0, 0); stroke-opacity: 1; stroke-linecap: round; stroke-linejoin: round; -webkit-user-select: text;"></path><path fill="none" stroke="#000000" d="M502,21L499,27L499,28L499,29L499,30L499,31L499,32L499,34L499,36L498,38L497,40L497,42L496,45L495,47L494,50L493,53L492,55L491,58L490,61L490,64L489,67L487,69L487,72L486,75L485,78L484,81L482,84L482,87L480,90L479,93L478,97L477,99L475,103L474,106L473,109L472,111L470,114L470,117L468,120L467,123L466,126L465,129L464,132L463,135L462,138L460,140L460,143L458,145L457,148L456,151L455,154L454,156L453,159L452,162L451,165L450,167L448,170L448,172L446,175L446,177L444,180L443,182L442,184L441,187L441,189L440,191L439,192L438,194L438,196L437,197L436,199L436,200L435,202L435,203L434,204L434,206L434,207" stroke-opacity="1" stroke-width="5" stroke-linecap="round" stroke-linejoin="round" style="-webkit-tap-highlight-color: rgba(0, 0, 0, 0); stroke-opacity: 1; stroke-linecap: round; stroke-linejoin: round; -webkit-user-select: text;"></path><path fill="none" stroke="#000000" d="M368,250L362,249L361,247L360,246L360,245L359,244L358,243L358,241L357,240L357,239L356,238L356,237L356,236L356,235L356,234L355,233L355,231L355,230L355,229L355,228L355,226L355,225L355,223L355,221L355,220L355,218L355,216L355,215L355,213L355,211L355,209L355,207L355,206L355,204L356,201L356,199L357,197L358,196L358,194L359,191L360,189L361,187L362,186L363,184L364,182L366,180L366,179L368,177L368,176L370,174L370,172L372,171L373,169L374,167L375,166L376,164L378,162L379,161L381,159L382,157L384,155L385,154L387,153L389,151L390,150L392,148L393,147L395,145L397,144L398,143L400,142L402,141L404,140L405,139L407,138L409,137L411,136L412,135L414,133L417,133L419,131L421,131L423,129L425,128L427,128L429,127L431,126L433,125L436,124L438,123L440,123L443,122L445,121L447,120L449,120L451,119L454,118L456,117L458,116L461,116L463,115L465,115L468,114L470,113L472,113L475,112L477,111L480,111L482,111L484,110L487,109L489,109L491,108L493,108L495,107L497,106L499,106L501,105L503,104L505,103L507,103L509,102L511,102L513,101L514,100L516,99L518,99L519,98L521,98L522,97L524,97L525,96L526,95L528,94L529,93L531,92L532,91L533,89L535,89L536,87L538,86L539,85L541,84L542,82L543,81L544,80L545,79L546,78L547,77L548,76L549,75L549,74L550,72L551,71L551,70L552,69L552,68L553,67L553,66L553,65L553,64L553,63L553,62L553,61L553,60L553,59L553,58L553,57L553,56L553,55L553,54L553,53L553,51L553,50L553,49L553,48L553,47L553,46L553,44L552,43L551,42L551,41L550,40L550,39L550,38L549,37L549,36L548,35L548,34L547,33L546,33L545,32L545,31L544,30L543,30L543,29L542,28L541,28L541,27L540,26L539,26L538,25L537,24L536,24L535,23L534,23L533,22L532,22L531,21L530,21L529,21L528,20L527,20L526,19L525,19L524,19L523,19L521,18L520,18L519,18L518,18L517,18L516,17L515,17L514,17L512,17L511,17L510,17L509,17L508,17L507,17L506,17L504,17L503,17L502,17L501,17L500,17L499,17L498,17L497,17L496,17L494,17L494,18L492,18L491,19L490,19L489,19L487,20L486,20L485,21L484,21L483,22L482,23L481,23L480,24L479,24L478,25L477,25L477,26L476,26L475,27L474,28L473,29L472,30L472,31L471,31L470,32L470,33L469,34L468,34L468,35L468,36L467,36L467,37L467,38L467,40" stroke-opacity="1" stroke-width="5" stroke-linecap="round" stroke-linejoin="round" style="-webkit-tap-highlight-color: rgba(0, 0, 0, 0); stroke-opacity: 1; stroke-linecap: round; stroke-linejoin: round; -webkit-user-select: text;"></path><path fill="none" stroke="#000000" d="M393,60L395,64L395,65L395,66L396,68L397,69L399,70L400,72L402,74L404,76L406,78L408,80L411,83L413,86L417,89L420,93L423,97L426,100L430,104L433,107L437,111L441,115L445,119L449,123L453,128L458,132L462,136L467,141L471,145L475,149L479,153L483,157L487,162L491,166L495,170L499,174L503,179L507,183L511,187L514,191L518,196L522,200L525,204L528,208L532,212L536,216L539,218" stroke-opacity="1" stroke-width="5" stroke-linecap="round" stroke-linejoin="round" style="-webkit-tap-highlight-color: rgba(0, 0, 0, 0); stroke-opacity: 1; stroke-linecap: round; stroke-linejoin: round; -webkit-user-select: text;"></path><path fill="none" stroke="#000000" d="M507,147L514,149L516,149L517,149L519,149L520,150L521,151L523,152L524,153L526,153L527,154L529,155L531,156L532,157L533,158L535,160L536,160L538,162L539,163L541,164L542,165L544,166L545,167L548,169L549,170L551,172L553,173L555,174L556,175L558,177L560,178L562,179L564,180L566,181L568,182L570,183L572,184L573,185L575,185L577,186L579,187L581,187L582,188L584,189L586,189L588,189L589,190L591,190L593,191L595,191L597,191L599,192L600,192L602,192L604,192L605,192L607,192L609,192L611,192L612,192L614,192L616,192L617,192L619,192L621,192L623,192L625,192L626,191L628,191L629,190L631,190L633,189L635,188L636,187L638,186L640,185L641,184L643,184L645,182L646,181L647,179L649,178L650,177L652,175L653,174L655,173L656,172L657,170L658,169L659,167L660,166L661,165L662,163L663,162L664,161L664,160L665,158L666,157L667,156L667,154L668,153L669,152L669,150L669,149L670,148L671,146L671,145L672,143L672,142L673,141L673,140L674,138L674,137L674,136L675,134L675,133L676,131L676,130L676,129L677,127L677,126L677,125L677,123L677,122L677,121L677,120L677,119L677,118L677,117L677,116L677,114L677,112L677,111L677,110L677,109L677,108L677,106L677,105L677,104L677,102L677,101L677,100L677,99L677,97L677,96L677,95L677,94L677,92L677,90L677,89L677,88L677,87L677,86L677,85L677,84L677,83L676,82L676,81L676,80L676,79L676,78L676,77L676,76L676,75L676,74L676,73L676,72L675,71L675,70L675,69L675,68L675,67L675,65L675,63" stroke-opacity="1" stroke-width="5" stroke-linecap="round" stroke-linejoin="round" style="-webkit-tap-highlight-color: rgba(0, 0, 0, 0); stroke-opacity: 1; stroke-linecap: round; stroke-linejoin: round; -webkit-user-select: text;"></path><path fill="none" stroke="#000000" d="M639,14L639,17L639,19L639,21L639,23L639,25L639,27L639,29L639,32L639,34L639,36L639,38L639,41L639,43L639,45L639,48L639,50L639,53L639,55L639,57L640,60L640,63L640,65L641,68L641,71L642,74L642,77L643,80L643,82L645,85L645,88L646,90L647,93L649,96L650,99L652,101L653,104L654,106L656,109L657,111L659,114L660,116L662,118L664,121L665,123L667,126L669,128L670,131L672,133L674,136L676,138L677,141L679,144L681,147L682,150L684,153L685,156L686,160L688,162L689,165L690,168L691,171L691,174L692,177L692,179L693,182L693,184L693,187L693,190L693,192L693,195L693,197L693,199L693,202L693,204L693,206L692,208L691,210L690,212L689,214L688,216L687,217L686,218L684,220L683,221L682,222L680,223L678,225L677,226L675,227L673,228L672,230L670,230L668,231L666,232L664,233L663,233L661,234L659,234L657,235L655,235L653,236L651,236L649,236L647,236L645,236L644,236L642,236L640,236L638,236L636,236L634,236L632,236L630,235L628,235L626,234L623,233L621,232L619,231L618,230L616,229L613,228L612,227L610,226L608,226L606,225L605,224L603,223L601,223L600,222L598,222L596,221L595,221L594,221L592,220L590,220L589,220L587,220L586,220L584,220L582,220L581,220L579,220L578,220L576,220L575,220L573,220L571,220L570,220L568,220L566,221L564,221L562,222L560,223L559,223L557,224L555,225L554,226L552,227L551,228L549,229L548,230L546,232L545,233L544,234L543,235L542,236L541,238L540,239L539,240L538,241L538,242L537,243L536,245L536,246L535,247L534,248L534,249L533,250L533,252L533,253L532,254L532,255L532,256L531,257L531,258L531,259L531,260L531,261L531,262L531,263L530,264L530,265L530,266L530,267L530,268L529,269L529,270L529,271L529,272L528,272L528,273L528,274L528,275L528,276L528,277L528,278L527,278L527,279L527,280L527,281" stroke-opacity="1" stroke-width="5" stroke-linecap="round" stroke-linejoin="round" style="-webkit-tap-highlight-color: rgba(0, 0, 0, 0); stroke-opacity: 1; stroke-linecap: round; stroke-linejoin: round; -webkit-user-select: text;"></path><path fill="none" stroke="#000000" d="M522,313L521,315L521,317L521,319L521,322L521,324L521,327L521,329L520,331L519,334L519,336L518,338L518,340L517,342L516,344L516,347L516,349L515,352L514,355L514,358L513,362L513,365L512,368L511,371L511,374L510,376L510,379L509,382L509,385L508,388L508,390L507,393L507,396L506,398L505,400L504,402L504,405L504,406L503,408L503,410L503,412L502,414L502,415L502,417L501,419L501,420L501,422L501,423L501,425L500,427L500,428L500,430L500,431L499,432L499,434L499,435L499,436L499,437L499,438L499,439L499,440L499,439" stroke-opacity="1" stroke-width="5" stroke-linecap="round" stroke-linejoin="round" style="-webkit-tap-highlight-color: rgba(0, 0, 0, 0); stroke-opacity: 1; stroke-linecap: round; stroke-linejoin: round; -webkit-user-select: text;"></path><path fill="none" stroke="#000000" d="M520,462L525,467L527,467L528,467L530,467L532,468L533,468L535,469L537,469L538,469L541,469L543,469L545,469L547,469L550,469L552,469L554,469L556,469L558,469L560,469L562,469L564,469L566,469L568,469L570,469L572,469L575,469L577,469L578,469L580,469L582,469L584,468L586,467L588,466L590,466L592,465L594,464L595,463L597,462L599,461L601,460L603,459L605,457L606,456L608,455L610,454L611,453L613,452L614,450L616,449L617,448L618,447L620,446L621,444L622,444L623,442L624,441L625,439L626,438L626,437L627,436L628,435L628,433L629,432L629,431L630,430L630,428L631,427L632,425L632,424L633,423L633,422L633,421L634,420L634,418L635,417L635,416L635,415L636,413L636,412L637,410L637,409L638,408L638,406L638,405L638,403L639,402L639,401L639,399L639,398L639,396L639,395L639,393L639,392L639,391L639,389L639,388L639,386L639,385L639,383L639,382L639,380L639,379L639,377L639,376L639,374L639,373L639,371L639,370L638,369L638,368L638,366L637,366L636,364L636,363L635,362L635,361L634,360L633,359L633,358L632,357L631,356L630,354L629,352L628,352L627,350L626,349L626,348L625,347L624,347L623,346L622,345L621,344L620,343L619,342L618,341L617,340L616,340L616,339L615,338L613,338L613,337L612,337L611,336L610,335L609,335L609,334L608,333L607,333L606,332L605,331L605,330L604,330L604,329L603,329L602,328L601,328L600,327L599,327L599,326L598,325L597,325L596,325L596,324L595,324L595,323L594,323L594,322L594,321L594,320L594,318" stroke-opacity="1" stroke-width="5" stroke-linecap="round" stroke-linejoin="round" style="-webkit-tap-highlight-color: rgba(0, 0, 0, 0); stroke-opacity: 1; stroke-linecap: round; stroke-linejoin: round; -webkit-user-select: text;"></path><path fill="none" stroke="#000000" d="M619,252L617,257L617,260L617,262L617,264L617,266L617,268L617,270L617,272L617,274L618,277L618,279L619,280L620,282L621,284L622,286L623,288L624,290L625,292L626,294L627,296L628,298L630,300L630,302L632,304L633,306L634,308L635,311L637,313L638,315L640,318L641,320L642,322L643,324L644,326L645,328L646,331L647,333L647,335L648,338L648,340L649,343L649,345L649,348L649,350L649,353L649,355L649,357L649,359L649,362L648,363L647,365L646,367L645,368L644,370L643,371L641,373L639,374L638,376L636,376L635,377L633,378L632,379L630,379L629,380L628,380L626,381L625,381L623,381L622,381L621,381L619,381L617,381L615,381L613,381L611,381L609,381L607,381L605,381L604,381L601,381L599,381L597,381L595,381L593,381L592,381L589,381L588,381L586,381L584,381L583,380L581,380L579,380L578,380L577,380L575,380L573,380L572,380L570,380L569,380L567,380L565,380L564,381L562,381L560,383L559,383L558,385L556,386L555,387L553,389L552,390L550,392L549,393L548,394L547,396L546,397L545,398L544,400L543,401L542,403L541,404L540,406L539,407L538,409L537,410L536,412L535,413L533,414L533,415L532,417L531,418L530,420L528,420L528,422L527,423L526,424L525,425L524,426L523,427L521,427L520,428L519,429L518,430L516,431L515,432L514,432L513,433L511,434L510,435L509,435L508,436L507,436L505,437L504,437L503,437L502,437L500,438L499,438L497,438L496,438L494,438L493,438L491,438L490,438L488,438L487,438L485,438L484,438L482,438L480,438L479,438L477,438L476,437L475,437L473,436L472,435L470,434L469,433L468,432L466,432L465,431L464,430L463,429L462,427L460,427L459,425L458,424L457,423L456,421L455,420L453,418L452,416L451,415L450,413L449,411L448,410L447,409L446,407L445,406L444,405L443,403L442,402L441,401L440,400L439,398L438,398L438,397L436,396L434,394L424,391" stroke-opacity="1" stroke-width="5" stroke-linecap="round" stroke-linejoin="round" style="-webkit-tap-highlight-color: rgba(0, 0, 0, 0); stroke-opacity: 1; stroke-linecap: round; stroke-linejoin: round; -webkit-user-select: text;"></path><path fill="none" stroke="#000000" d="M429,270L432,272L432,273L432,275L432,277L432,279L432,281L432,284L432,286L432,288L433,290L433,292L433,294L433,296L434,299L434,301L434,304L435,307L435,310L436,313L436,315L436,318L437,321L437,324L438,327L438,330L438,333L439,336L439,339L440,341L440,344L441,346L441,349L442,351L442,354L443,357L443,359L443,362L444,364L444,367L445,369L445,371L446,374L446,376L446,379L447,381L447,383L448,386L448,388L448,390L448,392L448,394L449,396L449,398L450,399L450,400L451,400" stroke-opacity="1" stroke-width="5" stroke-linecap="round" stroke-linejoin="round" style="-webkit-tap-highlight-color: rgba(0, 0, 0, 0); stroke-opacity: 1; stroke-linecap: round; stroke-linejoin: round; -webkit-user-select: text;"></path><path fill="none" stroke="#000000" d="M318,282L320,279L321,279L323,278L324,277L327,276L329,274L331,274L333,272L336,272L338,271L341,269L344,268L346,267L349,267L352,266L354,264L357,264L360,263L362,262L365,262L368,261L370,260L373,260L375,260L378,260L380,260L383,260L385,260L388,260L391,260L393,260L396,260L399,260L402,260L404,260L407,260L409,261L412,261L415,262L418,263L420,264L423,265L426,267L428,267L430,269L432,269L434,270L436,272L438,273L440,274L442,275L443,277L445,278L447,279L448,280L450,281L452,283L453,284L455,285L456,286L458,288L459,289L460,290L461,291L463,293L464,294L465,295L466,296L467,297L468,298L469,300L470,301L470,302L471,303L472,304L473,306L474,307L475,308L475,309L476,311L477,312L477,313L478,314L479,315L480,316L480,317L481,318L482,320L483,322L483,323L484,324L484,325L485,326L485,327L485,328L486,329L486,330L487,331L487,332L487,333L488,334L488,335L489,336L489,337L490,338L490,339L490,340L490,341L491,342L491,343L491,344L491,345L492,345L492,346L492,347L492,348L492,349L493,349L493,350L494,350" stroke-opacity="1" stroke-width="5" stroke-linecap="round" stroke-linejoin="round" style="-webkit-tap-highlight-color: rgba(0, 0, 0, 0); stroke-opacity: 1; stroke-linecap: round; stroke-linejoin: round; -webkit-user-select: text;"></path><path fill="none" stroke="#000000" d="M477,223L480,227L482,230L484,233L485,237L487,240L489,244L490,247L492,251L494,255L495,259L497,263L498,267L499,271L501,275L502,279L502,284L503,288L503,292L504,296L504,300L504,304L504,308L504,311L504,314L504,317L504,320L504,323L504,325L502,328L501,330L500,332L499,334L497,335L495,337L494,339L492,341L490,342L488,343L487,345L485,346L483,347L481,348L479,349L477,350L475,351L472,352L470,352L468,353L465,354L463,354L460,355L458,356L455,356L453,357L451,357L449,358L447,358L445,358L443,358L441,358L439,358L438,358L436,358L434,358L432,358L430,358L428,358L426,358L425,358L423,358L422,358L420,358L419,358L417,358L416,358L414,358L412,359L411,359L410,359L409,359L407,360L406,360L405,361L404,361L402,362L401,362L400,363L398,364L397,364L395,365L394,366L393,367L391,368L390,369L389,370L387,371L386,372L385,374L384,375L383,376L381,377L380,379L379,380L378,381L377,383L376,384L375,386L374,387L373,388L373,390L372,391L371,393L370,394L370,396L369,398L368,399L368,401L368,403L368,405L367,407L367,409L367,410L367,412L367,414L367,415L367,417L367,419L367,420L367,422L367,423L367,425L367,426L367,427L367,428L368,430L368,432L369,433L369,434L370,435L370,436L370,437L371,438L372,439L372,440L373,441L373,442L374,443L375,444L375,445L376,446L377,447L378,447L378,448L379,449L380,450L381,451L382,452L382,453L383,453L384,454L385,454L385,455L386,456L387,456L388,457L389,458L390,459L391,460L392,461L393,461L395,462L396,463L397,464L398,464L400,464L400,465L402,465L403,466L406,466L409,467L413,468" stroke-opacity="1" stroke-width="5" stroke-linecap="round" stroke-linejoin="round" style="-webkit-tap-highlight-color: rgba(0, 0, 0, 0); stroke-opacity: 1; stroke-linecap: round; stroke-linejoin: round; -webkit-user-select: text;"></path><path fill="none" stroke="#000000" d="M475,473L472,475L471,475L470,475L469,474L468,473L467,472L465,471L464,470L463,469L461,467L460,466L458,464L457,463L455,461L454,460L452,459L451,457L449,456L448,454L446,452L444,451L442,449L440,447L438,446L435,444L433,442L431,440L429,438L426,436L424,434L422,432L419,430L417,427L415,425L412,424L410,421L408,419L405,417L403,415L400,413L398,410L395,408L392,405L390,403L387,400L383,398L380,395L377,392L374,389L371,387L369,385L366,383L363,381L361,378L358,376L356,374L353,371L350,369L348,366L346,364L343,362L341,360L339,358L337,357L336,355L335,354L335,353" stroke-opacity="1" stroke-width="5" stroke-linecap="round" stroke-linejoin="round" style="-webkit-tap-highlight-color: rgba(0, 0, 0, 0); stroke-opacity: 1; stroke-linecap: round; stroke-linejoin: round; -webkit-user-select: text;"></path><path fill="none" stroke="#000000" d="M364,284L364,288L364,289L364,291L364,292L365,293L365,295L366,297L366,298L366,300L366,302L367,303L367,306L367,307L367,309L368,311L368,312L368,314L368,316L368,318L368,319L368,321L368,323L368,324L368,326L368,328L368,329L368,331L368,332L368,334L368,335L368,337L368,339L368,340L367,342L367,344L366,346L365,347L365,349L364,351L363,353L363,354L362,356L361,358L360,359L360,361L359,362L358,363L357,365L356,366L356,367L355,369L354,370L353,371L352,372L351,373L351,374L350,375L349,376L349,377L348,378L347,379L346,380L345,381L344,382L343,383L342,384L341,385L340,386L339,387L339,388L338,388L336,389L336,390L335,391L334,391L333,392L332,393L331,393L331,394L330,395L329,395L328,396L327,397L326,397L324,398L322,399L322,400L321,400L319,401L318,402L317,402L315,403L314,403L313,403L312,404L310,404L309,405L307,405L306,405L305,406L304,406L302,406L301,407L300,407L298,407L297,408L296,408L295,408L293,408L292,408L290,408L289,408L288,409L286,409L285,409L283,409L282,409L280,409L279,409L278,409L276,409L275,409L273,409L272,409L271,409L269,409L267,409L266,409L265,409L263,409L262,409L260,409L259,409L257,409L256,409L254,409L253,408L252,408L251,408L250,408L249,407L247,407L246,406L245,406L244,405L243,405L242,405L241,404L239,404L238,403L237,403L236,402L234,402L233,401L232,401L231,401L230,400L229,400L228,400L227,399L226,399L225,398L224,398L223,398L222,397L221,397L220,396L219,396L218,396L217,396L217,395L216,395L215,395L215,394L215,393L214,392" stroke-opacity="1" stroke-width="5" stroke-linecap="round" stroke-linejoin="round" style="-webkit-tap-highlight-color: rgba(0, 0, 0, 0); stroke-opacity: 1; stroke-linecap: round; stroke-linejoin: round; -webkit-user-select: text;"></path><path fill="none" stroke="#000000" d="M343,323L340,325L340,327L339,328L339,330L337,332L336,335L334,336L333,338L331,340L329,342L327,344L326,346L324,347L322,349L320,350L318,351L316,352L314,353L312,354L310,356L307,357L305,358L302,359L300,359L297,360L294,361L291,361L288,362L285,362L281,362L278,362L275,362L272,362L269,362L266,362L263,362L260,362L257,362L254,362L251,361L247,360L245,359L242,359L239,358L236,357L233,356L230,355L228,355L225,354L222,354L219,353L216,353L214,353L211,352L208,352L206,352L203,352L201,352L198,352L196,352L193,352L191,352L189,352L187,352L184,353L182,354L179,354L177,356L174,357L172,358L170,360L168,361L166,363L163,364L161,366L159,368L157,370L156,372L154,374L152,376L151,378L149,381L148,383L147,386L146,388L144,390L144,392L142,395L142,397L141,398L141,401L140,402L140,404L139,406L139,408L139,410L139,412L139,414L139,416L139,418L139,420L139,422L139,423L139,425L139,427L139,429L139,431L139,432L139,434L139,436L139,437L140,439L141,441L142,443L142,444L143,446L143,447L144,449L144,451L145,452L145,453L146,455L146,456L147,458L147,459L147,460L148,462L148,464L149,465L149,466L149,467L149,468L150,469L150,470L150,471L150,472L150,473L151,474L151,475L151,477L151,478L151,479L151,481L151,482L151,483L151,485L151,486L151,488L151,489L151,490L151,491L151,493L151,494L151,495L151,496L151,498L150,499L150,500L149,501L149,502L148,503L147,504L147,505L146,507L145,507L144,509L144,510L143,511L142,512L141,512L140,513L139,514L139,515L137,516L135,517L134,517L133,518L132,518L130,519L129,520L127,520L126,520L125,521L124,521L122,521L121,522L120,522L118,522L117,522L116,522L114,522L113,522L112,522L110,522L109,522L108,522L107,522L106,522L105,522L104,522L103,522L102,522L101,522L100,522L98,522L97,521L96,520L92,518L82,515" stroke-opacity="1" stroke-width="5" stroke-linecap="round" stroke-linejoin="round" style="-webkit-tap-highlight-color: rgba(0, 0, 0, 0); stroke-opacity: 1; stroke-linecap: round; stroke-linejoin: round; -webkit-user-select: text;"></path><path fill="none" stroke="#000000" d="M53,471L55,475L58,475L61,475L64,475L68,475L72,476L77,476L82,477L86,477L91,478L95,478L99,478L103,479L108,479L114,480L119,480L125,481L131,481L137,481L144,482L150,482L157,482L164,482L171,482L177,483L184,483L191,483L198,483L205,484L212,484L219,485L225,485L232,486L237,486L242,486L246,487L250,487L254,488L256,488L257,488L258,488L259,488L258,488" stroke-opacity="1" stroke-width="5" stroke-linecap="round" stroke-linejoin="round" style="-webkit-tap-highlight-color: rgba(0, 0, 0, 0); stroke-opacity: 1; stroke-linecap: round; stroke-linejoin: round; -webkit-user-select: text;"></path><path fill="none" stroke="#000000" d="M186,539L191,536L192,535L193,534L194,534L195,533L196,532L197,531L198,530L199,529L200,528L201,527L202,525L203,524L204,523L204,522L205,520L206,518L207,517L208,515L208,514L209,513L210,512L210,510L210,509L211,508L211,506L212,505L212,504L213,502L213,501L214,499L214,498L214,497L215,495L215,494L215,492L215,491L215,489L216,488L216,486L216,485L216,483L216,482L216,480L216,479L216,477L216,476L216,474L216,472L216,471L216,469L216,467L216,465L216,463L216,461L216,459L215,458L215,456L215,454L214,453L213,451L213,449L212,448L212,446L211,444L210,443L209,442L208,440L208,439L207,437L206,436L205,435L205,434L204,432L203,431L202,430L201,429L200,427L199,426L198,425L197,424L196,422L195,421L194,420L193,419L192,418L191,417L189,415L188,414L187,413L186,412L185,411L183,410L182,409L181,408L180,407L179,406L178,405L176,404L175,403L174,402L173,401L172,400L171,399L169,398L168,398L167,397L166,396L164,395L163,394L162,393L161,393L160,392L159,392L157,391L156,391L154,390L153,389L152,388L151,388L149,387L148,387L147,386L146,386L144,385L143,385L142,384L141,384L140,383L139,383L137,382L135,381L134,381L133,381L132,380L131,380L130,379L128,379L127,379L126,378L125,378L124,377L122,377L120,376L118,376L117,376L116,376L115,376L114,375L113,375L112,375L111,375L110,374L109,374L108,374L107,374L106,374L105,374L103,374L102,373L101,373L100,373L98,373L96,373L95,373L93,373L92,373L91,373L89,373L88,373L87,373L86,373L85,373L84,373L83,373L82,373L81,373L80,373L80,371L81,371" stroke-opacity="1" stroke-width="5" stroke-linecap="round" stroke-linejoin="round" style="-webkit-tap-highlight-color: rgba(0, 0, 0, 0); stroke-opacity: 1; stroke-linecap: round; stroke-linejoin: round; -webkit-user-select: text;"></path><path fill="none" stroke="#000000" d="M41,351L37,350L39,350L41,349L44,348L49,347L54,345L60,342L68,340L76,337L85,333L94,330L104,327L115,323L125,320L137,316L149,312L159,308L169,305L177,303L184,300L189,298L192,298L195,297L196,296" stroke-opacity="1" stroke-width="5" stroke-linecap="round" stroke-linejoin="round" style="-webkit-tap-highlight-color: rgba(0, 0, 0, 0); stroke-opacity: 1; stroke-linecap: round; stroke-linejoin: round; -webkit-user-select: text;"></path><path fill="none" stroke="#000000" d="M139,205L139,208L139,209L139,211L139,212L140,214L140,216L141,218L141,219L142,221L142,223L143,225L144,227L144,229L145,231L146,233L147,235L148,236L149,238L150,239L152,240L153,242L154,244L156,245L157,247L159,248L160,250L161,251L163,252L164,253L166,255L168,256L169,257L171,258L173,259L174,260L176,261L178,262L180,263L182,264L183,264L186,266L188,267L190,267L192,268L194,269L196,269L198,270L200,271L203,272L205,272L208,273L210,274L213,275L215,276L218,277L220,279L223,280L226,281L228,283L231,284L234,286L236,287L239,289L241,290L244,292L246,294L248,296L250,297L253,299L255,301L257,303L259,306L261,308L262,310L264,312L266,315L267,317L268,319L270,321L271,323L272,325L273,328L275,330L276,333L277,336L278,339L278,341L279,344L280,347L280,349L281,352L281,354L282,356L282,359L282,361L282,363L282,365L282,367L282,369L282,371L282,372L281,374L280,376L280,378L279,379L278,381L277,383L276,385L276,386L275,388L273,390L273,391L271,393L270,394L269,396L268,397L267,398L266,400L265,401L263,402L262,403L261,404L259,405L257,406L256,407L254,408L253,409L251,410L250,411L248,412L246,413L245,414L243,415L242,415L240,416L238,417L236,417L234,418L232,418L230,419L228,420L226,420L224,420L222,421L220,421L218,422L216,422L214,422L212,423L210,423L208,424L205,424L204,425L202,425L200,426L199,427L198,427L196,428L195,429L193,430L192,431L190,432L189,433L188,435L186,435L186,437L184,439L183,440L182,442L181,443L180,445L178,447L178,448L177,450L176,452L176,453L175,455L174,456L174,459L173,460L173,462L172,464L172,466L172,467L172,469L171,471L171,473L171,476L171,478L171,480L171,482L171,484L171,487L171,489L171,491L171,493L171,495L171,496L171,498L172,500L172,503L173,505L173,506L174,508L174,510L175,512L176,514L176,516L177,518L178,519L178,521L179,522L180,523L181,524L182,525L183,526L183,527L184,529L186,529L187,531L188,532L189,533L190,534L191,535L192,536L193,537L195,538L196,539L198,539L199,540L200,541L201,542L203,543L204,544L205,544L206,545L208,545L209,546L210,546L211,547L212,547L214,548L215,548L217,549L218,549L219,550L220,550L222,551L223,551L225,551L226,551L228,551L234,553" stroke-opacity="1" stroke-width="5" stroke-linecap="round" stroke-linejoin="round" style="-webkit-tap-highlight-color: rgba(0, 0, 0, 0); stroke-opacity: 1; stroke-linecap: round; stroke-linejoin: round; -webkit-user-select: text;"></path><path fill="none" stroke="#000000" d="M232,447L232,449L234,452L236,454L239,456L242,458L246,461L249,464L252,467L256,471L259,474L262,477L265,480L268,483L270,486L272,490L273,493L275,496L276,500L277,503L278,507L279,510L279,515L280,518L280,522L280,525L280,529L280,532L280,535L280,539L280,542L280,545L279,548L277,551L276,554L274,556L273,558L271,561L269,564L268,567L266,569L264,572L262,574L261,576L259,578L256,581L254,583L252,585L250,587L248,589L246,591L244,593L242,595L240,595L239,597L240,595" stroke-opacity="1" stroke-width="5" stroke-linecap="round" stroke-linejoin="round" style="-webkit-tap-highlight-color: rgba(0, 0, 0, 0); stroke-opacity: 1; stroke-linecap: round; stroke-linejoin: round; -webkit-user-select: text;"></path><path fill="none" stroke="#000000" d="M296,513L299,513L301,513L303,513L306,514L310,514L313,515L317,516L322,517L326,518L329,520L334,520L338,521L341,522L345,524L349,524L352,526L356,527L359,528L363,529L366,530L369,531L372,532L375,532L378,533L382,534L385,535L389,536L392,537L396,537L400,538L403,539L407,540L410,540L413,541L417,541L420,542L423,543L426,543L430,544L432,544L435,545L438,546L440,546L442,547L444,547L446,548L447,548L448,549L449,549" stroke-opacity="1" stroke-width="5" stroke-linecap="round" stroke-linejoin="round" style="-webkit-tap-highlight-color: rgba(0, 0, 0, 0); stroke-opacity: 1; stroke-linecap: round; stroke-linejoin: round; -webkit-user-select: text;"></path><path fill="none" stroke="#000000" d="M414,467L416,470L417,471L420,472L422,474L425,476L428,478L431,481L434,483L438,486L441,489L444,492L448,495L451,498L453,501L455,504L458,507L459,511L461,514L463,517L465,521L466,524L467,527L468,530L469,534L470,537L470,540L471,543L471,546L472,549L472,551L472,554L472,557L472,559L472,562L472,564L472,566L472,568L472,570L472,572L471,574L470,576L469,578L468,579L467,581L466,582L465,584L464,585L463,587L461,588L460,590L458,592L457,593L455,595L453,597L451,599L450,600L448,602L446,604L444,605L443,607L441,608L438,610L436,611L434,613L432,614L431,615L429,617L427,618L426,619L424,620L423,621L422,621L421,622L421,619" stroke-opacity="1" stroke-width="5" stroke-linecap="round" stroke-linejoin="round" style="-webkit-tap-highlight-color: rgba(0, 0, 0, 0); stroke-opacity: 1; stroke-linecap: round; stroke-linejoin: round; -webkit-user-select: text;"></path><path fill="none" stroke="#000000" d="M526,490L521,493L521,495L521,497L520,499L519,502L518,505L518,507L517,511L516,514L516,517L515,520L514,523L514,526L514,529L513,533L513,536L512,539L512,543L512,546L512,549L512,552L512,555L512,558L512,561L511,564L511,567L511,570L510,573L510,575L509,578L508,580L507,583L506,585L505,588L504,590L502,592L501,593L499,595L498,597L496,598L494,599L492,601L490,602L488,603L486,604L484,605L482,606L480,607L477,607L475,607L472,608L470,608L467,609L464,609L461,609L459,609L456,609L453,609L451,609L448,609L444,607L441,606L438,605L435,604L432,602L429,600L426,599L423,597L421,596L418,594L415,593L412,591L409,589L407,588L404,586L402,585L399,583L397,583L394,581L392,580L389,580L387,579L385,579L383,578L381,578L379,578L377,578L375,578L373,578L370,578L368,578L366,578L363,578L361,578L359,578L356,578L354,579L351,580L349,581L346,582L344,583L341,584L339,585L336,586L334,587L332,589L330,590L327,592L325,593L324,595L322,597L320,598L318,600L317,602L315,603L314,605L312,607L311,608L310,610L309,612L308,614L307,615L306,617L305,619L304,621L303,623L302,624L302,626L301,627L300,629L299,630L298,632L297,633L296,634L295,636L295,637L294,639L293,640L292,641L291,643L290,645L289,646L288,648L286,649L285,651L284,651L283,653L282,653L281,655L280,656L279,657L278,658L277,658L276,659L275,660L274,661L273,662L271,663L270,663L269,664L268,664L266,665L265,665L264,666L263,666L261,667L259,667L258,668L256,668L255,668L254,669L252,669L251,669L249,669L247,669L246,669L244,669L243,669L241,669L239,669L238,669L236,669L234,669L232,669L231,669L229,669L228,669L227,668L226,668L225,668L224,667L222,666L220,665L219,665L218,664L217,663L217,661L216,658L210,650" stroke-opacity="1" stroke-width="5" stroke-linecap="round" stroke-linejoin="round" style="-webkit-tap-highlight-color: rgba(0, 0, 0, 0); stroke-opacity: 1; stroke-linecap: round; stroke-linejoin: round; -webkit-user-select: text;"></path><path fill="none" stroke="#000000" d="M194,584L196,584L196,586L196,588L196,590L196,594L196,597L196,601L196,605L196,609L196,613L196,617L195,622L195,627L195,631L195,635L195,640L195,645L194,650L194,654L193,659L193,664L193,668L193,673L192,678L192,682L192,686L192,690L191,695L191,699L191,703L191,707L191,710L191,713L190,716L190,719L190,721L189,722L189,723L189,724L188,722L186,719" stroke-opacity="1" stroke-width="5" stroke-linecap="round" stroke-linejoin="round" style="-webkit-tap-highlight-color: rgba(0, 0, 0, 0); stroke-opacity: 1; stroke-linecap: round; stroke-linejoin: round; -webkit-user-select: text;"></path><path fill="none" stroke="#000000" d="M189,610L185,613L183,613L182,613L180,614L178,615L177,616L175,618L173,619L171,621L169,622L167,624L166,626L164,627L162,629L160,631L159,633L157,635L156,637L154,639L153,642L152,644L150,646L149,649L148,652L147,655L146,658L145,661L144,665L144,669L143,673L143,677L142,680L142,684L142,688L142,692L142,695L142,699L142,702L142,705L142,708L142,710L142,713L142,716L142,719L143,722L144,725L145,727L146,730L147,732L149,735L150,738L152,740L153,743L154,745L156,748L158,750L160,752L161,754L163,756L165,758L166,760L168,762L170,764L171,765L173,767L174,769L176,770L177,772L179,773L181,775L182,776L184,778L186,779L188,780L189,782L191,783L193,784L195,785L196,786L198,787L200,788L201,789L203,790L204,790L205,791L206,792L207,792L207,790L207,787" stroke-opacity="1" stroke-width="5" stroke-linecap="round" stroke-linejoin="round" style="-webkit-tap-highlight-color: rgba(0, 0, 0, 0); stroke-opacity: 1; stroke-linecap: round; stroke-linejoin: round; -webkit-user-select: text;"></path><path fill="none" stroke="#000000" d="M166,716L170,722L172,725L175,728L177,730L180,733L183,735L186,738L189,740L193,742L195,745L198,747L201,748L204,751L207,752L210,753L212,755L215,756L218,757L221,758L224,759L227,760L229,761L232,761L234,762L237,763L239,763L242,763L244,764L246,764L249,764L251,764L252,764L254,764L256,764L259,764L260,764L262,763L264,763L266,762L267,761L268,760L271,759L272,758L274,756L276,755L277,753L278,752L280,750L282,748L283,746L285,744L286,742L288,740L289,738L290,735L291,733L292,731L293,728L293,726L294,724L295,721L295,719L295,716L296,714L296,711L297,708L297,705L297,703L297,700L297,698L297,695L297,693L297,691L297,688L297,686L297,684L297,682L297,680L297,678L296,675L296,673L295,671L295,669L294,667L293,664L293,662L292,659L291,656L291,653L290,650L290,647L289,645L289,642L288,639L288,636L287,634L287,631L287,629L287,626L287,623L287,620L287,618L287,615L287,613L287,611L287,609L287,606L287,604L288,602L288,599L289,597L290,595L291,593L293,590L294,588L295,586L297,584L298,582L300,580L301,578L303,577L305,575L306,573L308,572L310,570L312,569L314,567L317,566L319,565L321,564L323,563L325,562L327,561L329,561L331,560L333,559L335,559L337,558L339,558L340,558L342,558L344,558L345,558L346,558L348,558L349,558L351,558L352,558L354,558L356,558L357,558L358,558L360,558L362,558L363,559L365,559L366,560L368,561L369,561L370,562L371,562L372,563L373,564L375,565L376,566L377,566L378,568L380,568L381,570L382,571L383,572L384,573L385,573L386,575L387,576L388,577L389,578L390,578L391,580L392,580L392,581L393,582L394,583L395,584L395,585L396,586L397,587L397,588L397,589L398,590L399,591L399,593L401,595" stroke-opacity="1" stroke-width="5" stroke-linecap="round" stroke-linejoin="round" style="-webkit-tap-highlight-color: rgba(0, 0, 0, 0); stroke-opacity: 1; stroke-linecap: round; stroke-linejoin: round; -webkit-user-select: text;"></path><path fill="none" stroke="#000000" d="M411,541L412,549L412,551L412,553L412,554L412,556L412,558L413,560L413,563L414,565L414,568L415,571L416,574L416,577L417,580L417,583L418,585L418,588L419,591L420,594L420,597L421,600L421,604L422,607L423,611L423,615L424,619L424,623L424,627L425,631L425,634L426,638L426,642L426,646L427,650L427,653L428,657L428,661L428,665L428,669L429,673L429,676L429,679L429,682L429,684L429,686L429,687L429,688" stroke-opacity="1" stroke-width="5" stroke-linecap="round" stroke-linejoin="round" style="-webkit-tap-highlight-color: rgba(0, 0, 0, 0); stroke-opacity: 1; stroke-linecap: round; stroke-linejoin: round; -webkit-user-select: text;"></path><path fill="none" stroke="#000000" d="M324,611L326,617L327,620L328,623L329,626L331,629L332,632L334,636L336,639L337,643L339,646L341,650L343,653L345,657L347,661L349,664L351,668L353,672L356,675L358,678L361,681L363,685L366,687L368,690L370,692L373,695L375,697L377,700L379,702L381,704L383,706L385,707L388,709L390,710L392,712L394,713L396,714L398,716L400,717L402,718L404,719L406,720L408,721L409,721L411,722L413,723L415,724L417,724L418,724L420,725L421,725L423,725L424,726L426,726L428,726L429,726L431,726L433,726L434,726L436,726L437,726L438,726L440,726L441,726L442,726L444,726L445,726L446,726L448,726L449,726L450,726L451,726L453,726L454,726L455,726L457,726L458,725L459,724L460,724L462,723L463,722L464,721L465,720L467,719L468,719L469,718L470,717L470,716L472,716L472,715L473,714L474,713L475,712L476,712L477,711L477,710L478,709L479,708L480,707L480,706L481,705L482,704L482,703L483,702L484,701L484,700L485,699L485,697L486,696L487,695L487,694L488,692L488,691L489,690L490,688L490,687L490,685L491,684L491,682L492,681L492,680L493,679L493,678L494,676L494,675L494,673L495,672L495,670L495,669L496,667L496,666L497,664L497,663L497,661L497,660L497,658L498,656L498,655L498,653L499,652L499,651L499,650L499,648L499,647L500,646L500,645L500,644L500,643L501,642L501,641L501,640L501,639L502,637" stroke-opacity="1" stroke-width="5" stroke-linecap="round" stroke-linejoin="round" style="-webkit-tap-highlight-color: rgba(0, 0, 0, 0); stroke-opacity: 1; stroke-linecap: round; stroke-linejoin: round; -webkit-user-select: text;"></path><path fill="none" stroke="#000000" d="M519,607L519,605L520,605L521,604L521,603L521,602L522,602L522,601L523,600L523,599L524,598L524,597L524,596L525,595L525,594L526,593L527,592L528,591L528,590L529,589L530,588L531,587L532,586L533,585L534,584L535,583L536,583L537,582L538,581L539,580L540,580L541,579L543,578L544,578L545,577L547,576L548,576L549,576L551,576L552,575L553,575L555,575L556,575L558,575L560,575L561,575L562,575L564,575L566,575L567,575L569,575L571,575L572,575L575,575L576,575L578,575L579,575L582,575L583,576L585,576L587,576L588,576L590,576L592,576L593,577L595,577L596,577L598,577L600,577L601,577L603,577L605,577L607,577L609,577L611,577L613,577L615,577L617,576L619,576L622,575L624,573L626,573L629,571L631,570L633,568L635,567L638,565L640,563L642,562L644,560L645,558L647,556L649,555L650,552L652,550L653,548L655,545L656,543L657,540L658,538L659,535L660,533L661,530L662,527L662,525L663,522L664,520L664,517L664,515L664,512L664,510L664,507L664,505L664,503L664,500L664,498L664,495L663,493L662,491L661,489L660,487L659,485L657,483L656,482L655,480L653,478L652,477L650,476L649,474L647,472L646,471L645,470L643,469L641,467L640,466L638,465L637,464L635,463L634,462L633,461L631,461L630,460L629,459L628,458L626,457L624,456L623,456L621,455L620,454L619,454L618,453L617,452L616,452L614,451L613,450L612,449L611,448L610,447L609,447L608,446L607,445L606,444L605,443L604,442L604,441L603,439L602,438L601,437L600,435L599,433L599,432L598,430L597,429L596,427L596,425L595,424L595,422L594,421L594,419L594,418L594,416L594,415L593,413L593,411L593,409L593,408L593,406L593,404L593,403L593,401L593,400L593,399L593,398L593,397L593,396L593,394L593,393L594,392L594,391L594,390L595,388L596,387L596,386L597,384L598,383L599,382L599,381L600,380L601,379L601,378L602,377L603,376L604,376L604,375L605,374L606,373L607,372L608,372L609,371L610,370L611,370L612,369L613,369L613,368L614,368L615,367L616,366L617,366L618,365L619,364L620,364L621,363L621,362L621,361L622,361L626,359" stroke-opacity="1" stroke-width="5" stroke-linecap="round" stroke-linejoin="round" style="-webkit-tap-highlight-color: rgba(0, 0, 0, 0); stroke-opacity: 1; stroke-linecap: round; stroke-linejoin: round; -webkit-user-select: text;"></path><path fill="none" stroke="#000000" d="M652,340L657,336L658,336L659,335L660,334L661,333L662,332L663,331L664,330L666,329L667,328L668,327L670,325L671,324L673,323L674,321L676,320L677,318L679,317L680,315L682,314L684,312L685,310L687,308L689,307L690,305L692,303L694,301L696,300L697,298L699,297L700,296L701,294L702,294L703,293L704,292L705,292" stroke-opacity="1" stroke-width="5" stroke-linecap="round" stroke-linejoin="round" style="-webkit-tap-highlight-color: rgba(0, 0, 0, 0); stroke-opacity: 1; stroke-linecap: round; stroke-linejoin: round; -webkit-user-select: text;"></path><path fill="none" stroke="#000000" d="M677,238L680,239L682,239L684,240L687,241L690,243L694,245L697,247L700,249L703,251L706,254L709,256L712,259L714,261L717,264L719,266L721,269L723,271L724,274L726,277L727,279L728,283L730,286L730,289L732,291L733,294L734,297L735,300L735,303L736,306L737,309L737,312L738,315L738,318L739,320L739,323L739,325L739,328L739,331L739,333L739,336L739,339L739,342L739,345L739,348L739,351L738,354L737,357L737,360L735,363L735,366L733,369L733,372L731,375L730,377L729,380L728,383L726,386L725,388L724,391L722,394L720,397L718,399L716,402L714,404L713,407L711,409L709,411L708,413L706,415L704,417L702,418L700,420L699,422L697,423L695,425L693,426L691,428L689,429L687,430L685,432L684,433L682,434L680,435L678,436L677,437L675,438L673,439L672,439L671,440L670,441L670,442" stroke-opacity="1" stroke-width="5" stroke-linecap="round" stroke-linejoin="round" style="-webkit-tap-highlight-color: rgba(0, 0, 0, 0); stroke-opacity: 1; stroke-linecap: round; stroke-linejoin: round; -webkit-user-select: text;"></path><path fill="none" stroke="#000000" d="M646,471L640,475L639,476L638,477L636,478L634,479L632,480L630,481L628,483L626,484L624,485L623,486L621,488L619,488L617,490L615,491L613,492L611,493L609,495L606,496L604,498L602,499L600,501L597,502L595,503L593,505L591,507L588,508L585,510L583,511L580,513L577,515L575,516L572,517L570,519L567,520L565,521L563,523L561,524L559,525L557,526L556,527" stroke-opacity="1" stroke-width="5" stroke-linecap="round" stroke-linejoin="round" style="-webkit-tap-highlight-color: rgba(0, 0, 0, 0); stroke-opacity: 1; stroke-linecap: round; stroke-linejoin: round; -webkit-user-select: text;"></path><path fill="none" stroke="#000000" d="M536,541L534,546L534,548L534,550L534,552L533,554L533,556L532,558L532,561L531,563L531,565L531,567L531,569L531,571L531,574L531,576L531,579L531,582L531,584L531,587L532,590L533,593L534,596L536,599L536,601L538,604L539,606L540,608L541,610L543,612L544,614L546,615L548,617L549,618L550,620L553,621L554,622L556,624L558,625L559,626L561,627L563,628L565,629L566,629L568,630L570,631L572,631L574,632L576,632L577,633L579,634L582,634L584,634L586,635L588,635L590,636L592,636L594,637L596,637L598,638L600,639L602,639L604,640L606,641L608,641L609,642L611,643L613,644L614,644L616,645L617,646L618,647L620,648L621,649L623,650L624,651L625,652L627,653L628,655L629,656L631,658L632,659L633,661L635,662L635,663L637,665L638,666L639,667L640,669L640,670L641,672L642,673L643,675L644,677L645,679L645,680L646,682L646,684L647,685L647,687L647,689L648,690L648,692L649,693L649,695L650,696L650,697L650,699L650,700L650,702L650,703L650,704L650,705L650,706L650,708L650,709L650,710L650,711L650,712L650,713L649,714L649,716L648,716L648,718L647,719L647,720L646,721L645,723L645,724L644,725L643,726L643,727L642,728L641,729L640,730L639,731L639,732L638,733L637,734L636,735L635,736L634,736L633,737L633,738L632,738L631,739L630,740L629,740L628,741L627,742L626,742L625,743L624,743L623,744L622,744L621,745L621,746L620,746L619,746L617,746" stroke-opacity="1" stroke-width="5" stroke-linecap="round" stroke-linejoin="round" style="-webkit-tap-highlight-color: rgba(0, 0, 0, 0); stroke-opacity: 1; stroke-linecap: round; stroke-linejoin: round; -webkit-user-select: text;"></path><path fill="none" stroke="#000000" d="M591,773L579,779L577,779L574,780L572,782L569,783L567,785L565,786L562,787L560,788L558,789L555,791L553,792L550,793L548,794L546,795L543,796L541,797L538,799L536,799L533,800L531,801L529,802L527,803L525,804L523,804L521,805L519,806L517,807L516,808L515,809L514,809" stroke-opacity="1" stroke-width="5" stroke-linecap="round" stroke-linejoin="round" style="-webkit-tap-highlight-color: rgba(0, 0, 0, 0); stroke-opacity: 1; stroke-linecap: round; stroke-linejoin: round; -webkit-user-select: text;"></path><path fill="none" stroke="#000000" d="M441,799L446,799L447,798L448,796L450,795L451,793L453,792L455,789L457,787L460,785L463,782L467,779L470,777L474,775L478,772L482,770L485,768L490,766L493,765L497,763L502,761L505,760L509,760L512,759L516,758L519,758L523,757L526,757L530,756L533,756L537,756L540,756L543,756L547,756L550,756L553,756L556,756L558,756L561,757L563,758L565,758L568,759L570,760L573,761L575,763L577,763L579,765L582,765L584,767L586,768L588,768L590,769L592,770L594,772L595,772L596,773L598,775L599,775L601,776L601,777L603,778L604,779L604,780L605,781L606,782L607,783L608,785L609,785L610,787L611,787L612,789L613,789L613,791L614,792L615,793L616,794L616,795L617,796L618,797L618,798L619,799L620,800L621,801L621,802L622,803L623,804L623,805L624,806L625,807L625,808L626,808L626,809L627,810L627,811L628,811L628,812L629,813L630,813" stroke-opacity="1" stroke-width="5" stroke-linecap="round" stroke-linejoin="round" style="-webkit-tap-highlight-color: rgba(0, 0, 0, 0); stroke-opacity: 1; stroke-linecap: round; stroke-linejoin: round; -webkit-user-select: text;"></path><path fill="none" stroke="#000000" d="M637,826L640,831L642,833L643,833L644,835L645,836L647,836L648,837L650,838L651,839L652,840L655,840L656,841L658,842L660,842L661,843L663,843L664,843L666,843L668,843L670,843L672,843L674,843L676,843L678,841L680,840L682,839L684,838L686,837L688,836L690,835L691,833L693,833L694,831L695,830L696,829L697,828L698,826L699,825L700,823L701,821L702,819L703,818L703,816L704,814L705,811L705,809L706,806L706,804L707,802L707,800L707,798L707,796L707,794L707,792L707,789L707,787L707,785L707,782L707,780L707,777L707,775L706,772L706,770L705,768L704,765L703,762L702,760L701,757L701,754L699,751L699,749L697,746L696,744L695,742L694,739L692,736L690,734L689,731L687,729L686,726L684,723L682,721L681,718L679,715L677,712L675,710L674,707L672,704L670,702L668,699L666,697L664,695L663,692L661,690L660,687L658,685L656,682L655,680L653,677L651,674L650,672L648,669L647,667L645,664L644,661L643,659L642,656L640,653L640,650L639,647L638,644L638,641L638,638L638,634L638,631L638,628L638,625L638,622L638,619L638,617L638,615L638,612L638,610L639,608L640,606L642,604L643,602L645,600L646,599L647,597L649,595L650,594L652,593L653,591L655,590L656,588L657,587L659,586L660,585L662,583L663,582L664,581L665,580L667,579L668,578L669,577L671,576L672,575L674,574L675,573L677,572L678,571L679,570L680,569L681,568L682,567L683,566L684,566L685,565L686,565L686,564L686,563L687,563L688,562" stroke-opacity="1" stroke-width="5" stroke-linecap="round" stroke-linejoin="round" style="-webkit-tap-highlight-color: rgba(0, 0, 0, 0); stroke-opacity: 1; stroke-linecap: round; stroke-linejoin: round; -webkit-user-select: text;"></path><path fill="none" stroke="#000000" d="M707,541L707,539L708,539L709,538L710,537L711,535L713,534L714,531L716,529L718,527L720,525L721,523L723,522L724,520L725,518L727,517L728,515L730,514L731,513L732,512L733,512L734,511L734,510L735,510L735,507" stroke-opacity="1" stroke-width="5" stroke-linecap="round" stroke-linejoin="round" style="-webkit-tap-highlight-color: rgba(0, 0, 0, 0); stroke-opacity: 1; stroke-linecap: round; stroke-linejoin: round; -webkit-user-select: text;"></path><path fill="none" stroke="#000000" d="M745,495L746,490L745,490L744,488L742,487L741,486L739,484L737,483L735,481L733,480L731,479L729,478L727,476L725,476L723,474L721,474L719,473L717,472L715,471L713,471L711,471L708,470L706,470L703,470L701,470L699,470L696,470L694,470L691,470L689,470L686,470L684,470L681,470L679,470L677,470L674,471L671,472L668,473L665,474L662,476L660,477L657,478L655,479L652,481L650,482L647,484L645,486L643,488L640,489L638,491L635,493L633,496L630,498L628,500L626,503L623,506L621,509L619,512L618,515L616,518L614,520L612,523L611,525L609,528L608,530L607,533L606,535L605,538L604,540L603,542L602,544L601,547L600,549L599,552L599,554L598,557L598,560L597,563L596,567L596,570L596,573L595,576L595,579L595,582L595,585L595,587L595,590L595,592L595,595L595,597L595,599L595,601L595,603L595,605L595,607L595,609L595,611L596,613L596,615L596,617L597,619L597,621L597,623L598,624L598,626L599,628L599,629L599,631L600,633L600,635L601,636L601,638L602,639L603,641L603,643L604,644L604,646L605,647L605,648L606,650L606,652L607,653L607,655L608,656L609,658L609,660L610,661L610,663L611,665L611,666L611,668L612,669L612,670L613,672L613,673L614,674L614,675L615,676L615,677L615,678L616,679L616,680L616,681L616,682L616,686" stroke-opacity="1" stroke-width="5" stroke-linecap="round" stroke-linejoin="round" style="-webkit-tap-highlight-color: rgba(0, 0, 0, 0); stroke-opacity: 1; stroke-linecap: round; stroke-linejoin: round; -webkit-user-select: text;"></path><path fill="none" stroke="#000000" d="M619,713L621,716L621,718L621,719L621,722L621,724L621,726L621,729L622,731L622,734L623,736L623,739L624,741L624,743L625,745L626,747L627,748L627,750L628,752L629,753L629,755L630,756L630,758L631,760L631,761L632,763L633,765L633,766L633,768L634,770L634,772L635,774L635,775L636,777L636,779L637,780L637,782L638,783L638,784L638,785L639,785L639,786L640,786" stroke-opacity="1" stroke-width="5" stroke-linecap="round" stroke-linejoin="round" style="-webkit-tap-highlight-color: rgba(0, 0, 0, 0); stroke-opacity: 1; stroke-linecap: round; stroke-linejoin: round; -webkit-user-select: text;"></path><path fill="none" stroke="#000000" d="M668,754L670,757L670,759L670,761L670,763L671,765L671,768L671,770L672,772L672,774L672,777L672,779L672,781L672,783L672,785L672,787L672,788L671,790L669,792L669,794L667,796L666,797L664,799L663,801L662,802L660,803L659,804L657,806L655,807L653,808L651,809L649,811L647,812L645,813L643,814L642,814L639,815L637,816L635,816L632,817L630,817L628,817L625,817L623,817L620,817L618,817L615,817L613,816L610,816L608,814L606,813L604,812L602,811L600,809L599,808L597,806L595,804L594,803L593,801L592,799L590,797L589,796L588,794L587,792L586,790L585,788L584,786L583,784L583,782L582,780L581,777L581,775L580,773L580,771L579,769L579,767L578,765L578,763L577,760L577,758L577,755L576,753L575,751L575,748L575,746L574,743L573,740L572,738L571,735L570,733L569,730L568,728L567,726L566,724L565,721L564,719L563,717L562,715L561,712L560,711L558,709L557,707L556,705L555,703L553,702L552,700L550,699L549,697L547,696L545,694L544,693L542,692L541,690L539,690L538,688L536,687L534,686L533,685L532,685L530,684L529,683L527,682L526,682L524,682L523,681L521,680L519,680L518,680L516,680L515,680L513,679L512,679L510,679L509,679L507,679L505,679L504,679L502,679L501,679L499,679L497,679L496,679L494,679L493,679L491,679L490,680L488,680L487,680L485,681L483,682L482,682L480,683L479,684L477,685L476,685L474,687L473,687L472,688L470,689L469,690L467,692L465,693L463,695L462,696L460,697L459,699L458,700L457,701L455,702L454,704L453,705L451,706L450,707L449,709L448,710L447,711L446,712L445,713L445,714L444,714L444,715L441,718" stroke-opacity="1" stroke-width="5" stroke-linecap="round" stroke-linejoin="round" style="-webkit-tap-highlight-color: rgba(0, 0, 0, 0); stroke-opacity: 1; stroke-linecap: round; stroke-linejoin: round; -webkit-user-select: text;"></path><path fill="none" stroke="#000000" d="M425,737L421,741L419,742L419,743L417,745L416,747L414,748L412,750L411,752L409,754L407,755L405,758L403,760L401,762L399,764L396,766L393,769L391,771L388,773L385,776L383,779L380,781L378,784L375,787L372,789L368,792L366,794L363,797L361,799L359,802L358,803L356,804L356,805" stroke-opacity="1" stroke-width="5" stroke-linecap="round" stroke-linejoin="round" style="-webkit-tap-highlight-color: rgba(0, 0, 0, 0); stroke-opacity: 1; stroke-linecap: round; stroke-linejoin: round; -webkit-user-select: text;"></path><path fill="none" stroke="#000000" d="M370,830L366,833L365,833L363,833L361,833L358,834L356,834L353,834L350,834L348,834L345,834L343,834L341,834L338,833L336,832L334,831L332,829L330,827L328,825L325,823L323,821L321,818L319,815L318,811L316,808L314,804L313,801L312,798L311,794L310,791L310,788L310,785L309,782L309,778L309,775L309,771L309,767L309,763L309,759L310,756L310,753L311,750L312,747L312,744L314,741L314,738L316,735L317,732L319,729L320,726L322,724L324,722L325,719L327,717L329,715L331,713L333,712L335,710L336,708L339,707L341,705L342,703L344,702L346,700L349,699L351,698L353,697L356,695L358,694L361,693L363,692L365,692L368,691L369,690L372,690L374,689L376,689L378,688L380,688L382,687L383,687L385,687L388,687L390,687L392,687L394,687L396,687L397,687L399,687L401,687L402,687L404,687L405,687L406,687L407,687L408,687L409,687L411,687L412,687L413,687L414,687L415,687L417,688L419,688L419,689L420,689L421,689L422,690L423,690L424,690L425,691L426,691L429,692" stroke-opacity="1" stroke-width="5" stroke-linecap="round" stroke-linejoin="round" style="-webkit-tap-highlight-color: rgba(0, 0, 0, 0); stroke-opacity: 1; stroke-linecap: round; stroke-linejoin: round; -webkit-user-select: text;"></path><path fill="none" stroke="#000000" d="M455,679L459,680L460,680L462,680L463,680L465,680L467,680L469,680L471,679L473,678L475,677L477,676L479,675L481,673L483,671L485,669L486,667L488,664L489,662L490,659L491,656L492,652L492,649L493,645L493,642L493,638L493,634L493,631L493,627L492,624L490,620L489,617L487,613L485,610L482,607L480,604L477,602L475,599L471,597L468,594L465,592L463,590L459,588L456,586L453,584L450,582L446,580L443,578L439,577L436,576L432,574L429,573L426,572L422,571L419,569L416,568L412,567L409,566L406,565L402,564L400,563L396,562L393,561L390,560L387,558L383,558L380,556L378,555L375,554L372,553L369,552L367,551L364,550L362,549L360,547L358,546L356,545L353,543L351,541L349,540L348,539L346,537L344,535L342,533L341,532L339,530L338,528L336,526L335,524L333,522L332,520L331,518L329,516L328,514L327,512L326,510L325,508L324,506L324,504L323,502L323,500L322,498L322,496L322,494L321,492L321,489L321,487L321,485L321,483L321,481L321,479L321,478L321,476L321,474L321,472L321,471L321,469L321,467L321,466L321,464L321,463L322,461L322,459L323,458L324,457L324,456L325,455L326,454L327,452L328,451L329,449L330,448L331,447L331,446L332,446L333,445L333,444L334,443L335,442L336,442L337,442" stroke-opacity="1" stroke-width="5" stroke-linecap="round" stroke-linejoin="round" style="-webkit-tap-highlight-color: rgba(0, 0, 0, 0); stroke-opacity: 1; stroke-linecap: round; stroke-linejoin: round; -webkit-user-select: text;"></path><path fill="none" stroke="#000000" d="M353,432L353,426L353,425L353,424L354,422L355,420L356,418L357,417L358,415L360,412L362,410L364,408L366,405L367,403L369,400L370,398L372,395L373,393L375,390L377,387L379,384L380,381L382,379L383,376L385,373L387,370L389,366L391,364L392,360L395,357L396,354L398,351L400,348L401,345L402,343L403,341L404,340L404,339L405,338L407,338" stroke-opacity="1" stroke-width="5" stroke-linecap="round" stroke-linejoin="round" style="-webkit-tap-highlight-color: rgba(0, 0, 0, 0); stroke-opacity: 1; stroke-linecap: round; stroke-linejoin: round; -webkit-user-select: text;"></path><path fill="none" stroke="#000000" d="M421,321L424,316L424,315L426,313L427,311L428,309L429,306L431,304L432,302L433,299L434,297L435,294L436,291L437,289L437,286L438,283L438,279L439,276L439,273L439,269L439,267L439,264L439,261L439,258L439,256L439,253L438,250L436,247L435,245L434,243L432,240L430,238L428,235L426,233L424,231L421,229L419,227L416,225L413,223L410,221L407,219L404,217L401,216L398,214L395,212L392,211L389,209L385,208L382,207L378,206L374,205L370,204L366,204L362,204L358,203L355,203L351,203L348,203L344,203L341,203L338,203L335,204L332,204L329,206L327,206L324,208L322,209L320,210L318,211L316,213L314,214L312,216L310,217L309,218L307,220L306,221L304,222L302,224L301,225L300,227L298,228L297,229L296,231L295,232L294,234L293,235L292,236L291,238L290,240L289,241L288,243L287,244L286,245L285,247L285,248L283,250L283,252L282,254L281,255L280,257L280,258L279,260L278,262L278,263L277,264L277,265L276,267L276,268L275,269L274,270L274,272L273,273L273,274L273,275L273,276L273,278L272,280" stroke-opacity="1" stroke-width="5" stroke-linecap="round" stroke-linejoin="round" style="-webkit-tap-highlight-color: rgba(0, 0, 0, 0); stroke-opacity: 1; stroke-linecap: round; stroke-linejoin: round; -webkit-user-select: text;"></path><path fill="none" stroke="#000000" d="M247,317L246,320L246,321L246,323L246,325L245,327L245,329L244,331L244,334L243,336L242,339L242,342L241,345L240,348L239,351L238,354L237,357L237,360L236,363L235,366L234,369L233,372L232,375L231,379L230,382L229,386L228,389L227,393L226,396L225,399L224,402L223,405L222,408L222,412L221,415L220,418L220,420L219,423L218,425L218,427L217,429L217,430L217,431L217,432" stroke-opacity="1" stroke-width="5" stroke-linecap="round" stroke-linejoin="round" style="-webkit-tap-highlight-color: rgba(0, 0, 0, 0); stroke-opacity: 1; stroke-linecap: round; stroke-linejoin: round; -webkit-user-select: text;"></path><path fill="none" stroke="#000000" d="M210,447L210,451L210,452L210,454L210,456L210,458L211,460L211,462L212,464L212,466L213,469L214,471L215,473L216,476L217,478L217,480L218,482L219,484L220,486L221,488L222,490L223,492L224,493L225,495L226,497L227,499L228,502L230,504L231,506L233,509L234,512L236,515L238,518L239,522L240,525L241,528L242,532L242,535L243,539L243,542L243,546L243,550L243,554L243,558L243,561L242,564L240,567L239,570L237,572L236,575L234,577L232,579L230,581L227,583L225,585L223,587L221,588L218,590L216,591L214,592L211,593L209,594L206,595L204,595L202,596L200,596L198,597L195,597L193,597L191,597L188,597L186,597L184,597L181,597L179,597L176,597L174,597L171,597L168,596L164,595L161,594L159,593L155,593L152,592L149,591L146,590L144,590L141,590L138,590L136,589L133,589L131,589L128,589L126,589L124,589L122,589L121,589L119,589L118,589L116,589L114,590L113,590L111,590L109,591L108,592L106,593L104,595L102,596L100,597L98,598L97,600L95,600L93,602L92,603L90,605L88,607L87,608L85,610L84,612L82,614L81,616L80,619L79,621L77,624L76,627L75,629L74,632L74,634L73,637L72,640L72,643L71,646L71,648L71,651L71,653L71,656L71,658L71,661L71,663L71,666L71,668L71,671L71,673L71,676L71,678L72,680L73,682L74,685L74,687L76,689L76,691L78,692L79,694L80,696L81,697L82,699L83,700L84,701L85,702L86,703L86,704L87,704L88,704" stroke-opacity="1" stroke-width="5" stroke-linecap="round" stroke-linejoin="round" style="-webkit-tap-highlight-color: rgba(0, 0, 0, 0); stroke-opacity: 1; stroke-linecap: round; stroke-linejoin: round; -webkit-user-select: text;"></path><path fill="none" stroke="#000000" d="M114,734L116,737L118,739L119,741L121,742L122,744L124,746L126,748L128,750L130,751L132,753L134,755L136,757L138,758L140,761L143,763L145,765L147,768L149,770L152,772L154,775L156,777L158,779L160,781L161,784L163,786L165,787L166,789L168,791L169,792L171,793L172,794L173,795L174,796L174,797" stroke-opacity="1" stroke-width="5" stroke-linecap="round" stroke-linejoin="round" style="-webkit-tap-highlight-color: rgba(0, 0, 0, 0); stroke-opacity: 1; stroke-linecap: round; stroke-linejoin: round; -webkit-user-select: text;"></path><path fill="none" stroke="#000000" d="M128,809L133,813L135,813L137,815L140,816L142,817L145,819L147,820L149,821L152,822L154,823L157,825L159,826L162,827L165,828L168,830L171,831L174,832L177,833L180,834L183,835L187,836L191,836L194,837L197,837L200,837L203,837L207,837L210,837L212,837L216,837L219,837L221,837L224,837L226,837L229,836L232,836L234,835L237,833L239,833L242,831L245,830L248,828L250,827L253,825L255,823L257,822L259,820L260,818L262,816L263,814L265,813L266,811L268,809L269,806L270,804L271,802L272,800L273,798L274,796L275,794L276,791L277,788L277,786L278,783L278,781L279,779L279,777L280,775L280,772L280,770L280,768L280,765L280,763L280,761L280,759L280,757L280,754L280,752L280,749L280,747L280,745L280,742L279,741L279,738L278,736L278,735L277,733L276,731L276,729L275,728L274,726L273,724L273,723L272,722L271,720L270,719L269,718L268,716L267,715L266,713L265,712L264,711L263,709L262,708L261,707L260,705L259,704L258,703L256,701L255,700L254,698L253,697L252,696L251,695L251,694L250,693L249,692L249,691L248,690L248,689" stroke-opacity="1" stroke-width="5" stroke-linecap="round" stroke-linejoin="round" style="-webkit-tap-highlight-color: rgba(0, 0, 0, 0); stroke-opacity: 1; stroke-linecap: round; stroke-linejoin: round; -webkit-user-select: text;"></path><path fill="none" stroke="#000000" d="M235,662L232,658L230,657L229,656L228,654L227,653L225,651L223,649L222,647L220,645L218,644L216,642L214,641L212,640L210,638L208,637L206,636L204,634L202,633L200,631L198,630L195,629L193,627L191,626L188,624L185,623L181,622L178,621L175,619L172,618L169,617L166,616L162,614L159,613L156,612L152,611L149,610L146,609L143,608L139,607L136,607L132,606L128,605L125,604L121,604L118,602L114,602L111,601L108,600L104,599L101,598L98,597L95,595L91,594L88,592L85,590L81,588L78,586L75,584L71,582L69,580L66,578L63,576L61,573L58,571L56,569L54,567L52,564L51,562L49,559L48,556L47,553L45,550L44,547L43,544L43,541L42,537L42,533L42,530L42,527L42,523L42,520L42,517L43,513L43,510L44,507L45,505L46,502L47,499L49,496L50,494L52,491L53,488L55,486L56,483L58,481L59,479L61,477L62,476L64,474L66,472L67,470L69,469L71,467L72,465L74,464L76,461L78,460L80,458L82,457L84,455L85,454L87,452L89,451L91,449L92,448L93,447L95,445L96,444L98,442L100,441L101,439L103,438L104,436L105,434L107,432L108,431L109,429L110,427L112,425L113,424L114,422L115,420L117,418L118,416L118,414L120,412L120,410L121,408L122,405L122,403L123,402L123,400L124,398L124,396L125,394L125,392L125,390L125,388L125,386L125,384L125,382L125,380L125,378L125,376L125,375L125,373L125,371L124,370L123,369L123,367L122,366L122,365L121,364L120,362L119,360L118,359L118,358L117,357L116,356L115,355L115,354L114,353L114,352L113,351L112,350L111,349L110,348L110,347L109,345L108,345L107,343L105,342L105,341L104,340L103,339L102,338L101,337L101,336L100,335L99,335L98,333L97,332L96,332L96,331L95,330L95,329L94,328L93,328L93,327L92,326L91,325L89,323" stroke-opacity="1" stroke-width="5" stroke-linecap="round" stroke-linejoin="round" style="-webkit-tap-highlight-color: rgba(0, 0, 0, 0); stroke-opacity: 1; stroke-linecap: round; stroke-linejoin: round; -webkit-user-select: text;"></path><path fill="none" stroke="#000000" d="M72,288L70,284L70,283L69,281L68,280L67,278L67,277L65,275L64,273L64,271L62,269L61,267L60,265L59,264L58,262L57,260L56,258L55,257L54,255L53,253L52,252L51,250L50,248L49,246L48,244L47,242L46,240L45,238L44,236L43,234L42,233L41,230L40,228L39,227L38,225L38,224L37,223L37,222L37,221" stroke-opacity="1" stroke-width="5" stroke-linecap="round" stroke-linejoin="round" style="-webkit-tap-highlight-color: rgba(0, 0, 0, 0); stroke-opacity: 1; stroke-linecap: round; stroke-linejoin: round; -webkit-user-select: text;"></path><path fill="none" stroke="#000000" d="M23,189L25,181L25,179L26,176L28,174L30,171L32,167L34,164L37,161L39,158L41,155L44,153L47,150L50,148L53,145L56,143L60,141L64,139L68,137L73,135L77,133L81,132L85,131L89,130L93,129L97,128L101,127L104,126L107,126L110,126L113,126L115,126L117,126L119,126L121,126L122,126L124,126L126,126L127,126L129,126L130,126L132,126L133,126L135,127L136,127L137,128L139,129L140,129L142,130L144,131L145,131L146,132L147,133L149,133L150,134L151,135L153,136L154,137L155,137L157,138L158,139L159,140L161,141L162,142L163,143L164,144L166,145L167,146L169,147L170,148L171,149L172,150L173,151L174,153L175,153L176,154L177,155L178,156L180,157L181,158L182,159L183,160L184,161L186,162L187,163L188,164L189,165L190,167L191,168L192,169L193,170L195,172L196,173L197,174L198,175L199,177L200,178L201,179L202,180L202,181L203,181L204,183" stroke-opacity="1" stroke-width="5" stroke-linecap="round" stroke-linejoin="round" style="-webkit-tap-highlight-color: rgba(0, 0, 0, 0); stroke-opacity: 1; stroke-linecap: round; stroke-linejoin: round; -webkit-user-select: text;"></path><path fill="none" stroke="#000000" d="M190,128L196,130L199,131L201,132L204,134L207,136L210,137L212,139L214,141L217,143L220,145L222,148L225,150L227,153L229,155L232,157L234,160L236,162L239,165L241,168L243,171L245,174L246,177L248,179L249,182L251,185L252,189L253,191L254,195L255,199L256,202L256,205L257,208L257,212L258,216L258,219L259,223L259,226L259,230L259,233L259,236L259,240L259,243L259,246L258,250L257,253L256,256L256,259L254,262L254,265L252,268L251,271L249,274L248,277L246,279L245,282L243,284L241,287L239,289L238,291L236,293L234,295L233,297L231,298L230,301L229,303L227,305L227,307L225,309L224,312L223,314L222,317L221,319L220,322L220,324L219,327L218,329L218,332L217,335L217,337L217,340L217,343L217,346L217,348L217,351L217,354L217,357L217,359L218,362L219,364L220,367L221,370L223,372L225,375L226,378L228,381L229,383L231,386L233,388L235,390L237,392L239,393L242,396L244,397L246,399L248,401L251,403L253,405L256,406L259,408L261,409L264,410L267,412L270,413L273,414L276,415L278,415L281,416L284,417L287,417L290,418L293,418L297,418L299,418L302,418L304,418L307,418L309,418L311,418L314,418L316,418L318,418L319,417L321,417L323,416L324,415L326,415L328,414L329,413L331,413L332,412L333,412L334,411L334,410L335,409L337,408" stroke-opacity="1" stroke-width="5" stroke-linecap="round" stroke-linejoin="round" style="-webkit-tap-highlight-color: rgba(0, 0, 0, 0); stroke-opacity: 1; stroke-linecap: round; stroke-linejoin: round; -webkit-user-select: text;"></path><path fill="none" stroke="#000000" d="M366,386L368,385L370,385L371,385L373,385L374,384L376,383L378,383L380,382L381,381L383,380L385,379L388,378L390,377L392,376L394,375L396,374L398,373L400,371L402,370L404,369L407,368L409,367L411,366L414,364L416,362L419,361L421,359L424,357L427,356L429,354L432,353L434,351L436,350L439,348L441,347L443,345L446,344L448,343L450,342L452,340L453,339L455,338L457,337L458,337L459,336L460,335L461,335L462,335L463,334L464,334" stroke-opacity="1" stroke-width="5" stroke-linecap="round" stroke-linejoin="round" style="-webkit-tap-highlight-color: rgba(0, 0, 0, 0); stroke-opacity: 1; stroke-linecap: round; stroke-linejoin: round; -webkit-user-select: text;"></path><path fill="none" stroke="#000000" d="M468,267L470,262L472,262L475,262L477,262L480,262L483,263L487,263L490,264L494,265L497,266L501,268L504,269L507,270L510,272L513,273L515,275L518,277L521,278L523,280L525,282L527,284L529,286L531,289L533,291L536,294L537,296L539,298L541,301L542,303L543,305L545,308L546,310L547,312L548,314L549,317L550,319L551,321L552,323L552,325L553,327L553,329L554,331L554,334L555,335L555,338L555,340L556,342L556,344L556,346L556,348L556,350L556,352L556,354L556,356L556,358L556,360L556,362L556,364L556,365L556,367L556,369L556,371L556,373L555,375L555,376L554,379L553,380L553,382L552,383L551,386L550,387L550,389L549,391L548,393L547,394L546,396L545,398L545,400L544,401L543,403L542,405L541,406L541,408L540,409L539,410L538,412L537,413L536,414L536,415L535,416L534,418L533,419L533,420L532,421L531,422L531,423L530,424L529,425" stroke-opacity="1" stroke-width="5" stroke-linecap="round" stroke-linejoin="round" style="-webkit-tap-highlight-color: rgba(0, 0, 0, 0); stroke-opacity: 1; stroke-linecap: round; stroke-linejoin: round; -webkit-user-select: text;"></path><path fill="none" stroke="#000000" d="M584,337L584,345L584,347L584,349L584,352L584,355L584,358L583,361L583,364L583,367L583,370L582,373L582,376L581,379L580,381L580,383L579,386L578,389L577,391L576,395L575,397L573,401L572,403L570,407L568,410L567,413L565,416L563,419L562,422L560,425L558,427L555,430L553,432L551,435L548,437L545,439L543,442L540,444L537,446L534,447L531,449L529,451L526,452L524,454L521,456L518,458L516,460L513,462L510,464L508,466L506,469L503,471L501,473L499,476L497,479L494,482L492,485L491,488L489,491L487,494L486,497L485,500L484,502L483,505L482,508L481,512L481,515L480,518L480,521L480,524L480,527L480,531L480,534L480,537L480,540L480,543L480,546L481,549L482,551L484,554L485,557L487,560L489,563L490,566L492,568L494,570L496,573L498,574L499,576L501,578L503,580L505,581L507,583L509,584L511,585L513,585L515,586L517,587L520,588L522,589L525,590L528,590L531,590L535,591L538,591L541,592L544,592L548,592L550,592L554,592L557,592L560,592L563,592L566,591L569,590L572,590L575,589L577,588L580,587L582,586L585,585L587,583L589,582L592,581L594,579L597,577L600,576L603,573L605,572L607,570L610,568L612,565L615,563L617,561L619,558L621,556L624,554L626,551L628,548L630,545L632,542L633,539L635,537L636,534L637,531L638,528L639,525L640,522L642,519L643,516L643,513L644,510L645,507L645,505L646,502L646,499L647,497L647,494L647,491L648,489L648,486L649,484L649,481L649,478L649,476L649,474L650,472L650,470L650,468L650,466L650,464L650,463L650,461L651,459L651,457L651,456L652,454L652,453L652,451L652,449L652,448L652,446L653,444L653,443L654,441L654,439L654,438L655,436L655,435L655,433L655,431L656,429L656,427L657,425L658,422L660,419L662,415L663,409" stroke-opacity="1" stroke-width="5" stroke-linecap="round" stroke-linejoin="round" style="-webkit-tap-highlight-color: rgba(0, 0, 0, 0); stroke-opacity: 1; stroke-linecap: round; stroke-linejoin: round; -webkit-user-select: text;"></path><path fill="none" stroke="#000000" d="M683,379L689,375L689,374L690,372L691,371L692,370L693,368L694,366L696,364L697,362L699,360L701,358L702,356L704,353L706,351L707,349L709,347L711,345L712,342L714,340L716,337L717,335L719,332L721,330L723,327L725,324L726,321L728,318L731,315L733,313L735,309L737,306L739,304L740,301L742,298L744,296L745,293L747,290L748,288L750,285L751,283L752,281L752,279L753,277L754,275L755,274" stroke-opacity="1" stroke-width="5" stroke-linecap="round" stroke-linejoin="round" style="-webkit-tap-highlight-color: rgba(0, 0, 0, 0); stroke-opacity: 1; stroke-linecap: round; stroke-linejoin: round; -webkit-user-select: text;"></path><path fill="none" stroke="#000000" d="M762,233L760,228L760,226L760,224L760,222L760,220L759,218L759,215L759,213L758,210L757,206L757,204L757,200L755,197L755,195L754,192L753,189L752,187L751,184L750,182L749,179L747,177L746,174L744,172L742,170L740,167L738,164L736,162L734,159L732,157L730,154L728,151L725,149L723,146L720,144L718,142L716,140L714,138L712,136L709,134L707,132L705,131L703,129L701,128L699,127L696,126L694,124L693,123L690,122L689,121L686,121L685,120L683,119L681,119L679,118L677,117L675,116L674,116L672,115L670,115L669,114L667,114L665,114L664,114L662,114L661,114L659,113L658,113L656,113L655,113L653,113L652,113L650,113L648,113L647,113L646,113L645,113L643,113L642,113L641,113L640,113L639,113L638,113L636,114L635,114L633,114L632,115L630,116L629,116L628,116L626,117L625,118L623,119L622,120L621,121L620,121L618,122L617,123L616,124L615,125L613,126L611,127L611,128L610,129L609,129L609,130L609,131L607,133" stroke-opacity="1" stroke-width="5" stroke-linecap="round" stroke-linejoin="round" style="-webkit-tap-highlight-color: rgba(0, 0, 0, 0); stroke-opacity: 1; stroke-linecap: round; stroke-linejoin: round; -webkit-user-select: text;"></path><path fill="none" stroke="#000000" d="M618,156L615,159L615,160L613,162L611,164L609,165L607,167L605,168L603,169L601,170L599,171L596,172L594,173L592,173L589,174L587,174L584,174L582,174L580,174L578,174L576,174L574,173L572,172L570,170L567,168L566,166L564,164L563,162L561,160L560,157L559,155L558,153L557,150L557,148L556,146L556,143L556,140L555,138L555,135L555,132L555,129L555,126L555,123L555,121L555,118L555,115L555,112L555,110L555,107L555,104L555,102L555,99L555,97L555,94L554,92L554,89L553,86L552,83L551,81L550,78L549,75L548,72L546,70L544,68L543,65L541,63L538,60L536,58L534,56L532,54L530,52L527,50L525,48L522,46L520,45L517,43L515,42L512,41L509,39L507,38L504,37L501,36L498,36L495,35L492,33L489,33L486,32L483,31L480,31L476,30L473,29L470,29L467,29L464,29L461,29L458,29L455,29L452,29L448,29L445,29L442,29L439,29L436,31L432,32L429,33L426,35L422,36L419,38L416,40L413,42L410,44L407,46L404,48L401,50L399,53L396,55L394,57L392,60L390,62L387,64L385,66L384,69L383,71L381,73L380,76L378,78L377,80L376,82L375,85L374,86L373,88L373,90L372,92L372,93L371,95L370,97L370,98L370,100L369,102L368,104L368,105L368,107L368,109L367,110L367,112L366,114L366,116L366,117L366,119L366,121L365,122L365,124L365,126L365,127L364,129L364,131L364,132L364,133L363,136L361,141" stroke-opacity="1" stroke-width="5" stroke-linecap="round" stroke-linejoin="round" style="-webkit-tap-highlight-color: rgba(0, 0, 0, 0); stroke-opacity: 1; stroke-linecap: round; stroke-linejoin: round; -webkit-user-select: text;"></path><path fill="none" stroke="#000000" d="M346,186L345,189L345,191L345,193L344,195L344,198L343,200L342,202L341,205L340,207L339,210L338,213L336,216L336,219L335,222L334,225L334,228L333,230L332,233L331,236L330,238L329,241L328,245L327,247L326,251L324,255L323,258L322,261L320,264L319,268L317,271L316,274L314,278L313,281L311,285L310,288L308,291L307,294L305,297L305,300L303,303L302,306L302,308L301,311L300,313L300,314L300,315L300,316L299,317" stroke-opacity="1" stroke-width="5" stroke-linecap="round" stroke-linejoin="round" style="-webkit-tap-highlight-color: rgba(0, 0, 0, 0); stroke-opacity: 1; stroke-linecap: round; stroke-linejoin: round; -webkit-user-select: text;"></path><path fill="none" stroke="#000000" d="M282,332L282,335L282,337L282,339L282,340L282,343L282,345L282,347L282,350L283,353L284,355L285,358L286,361L288,363L290,366L291,368L293,371L295,373L298,376L300,379L302,381L304,383L306,386L308,388L311,389L314,391L316,393L319,394L322,396L324,397L327,398L330,399L332,400L335,401L338,402L340,403L343,404L346,404L349,405L351,405L354,406L356,406L359,407L362,407L365,407L368,408L370,408L373,408L376,408L378,408L381,408L383,408L385,408L387,408L390,408L392,408L394,408L396,408L398,408L400,408L402,408L404,408L405,408L407,408L408,408L409,408L410,408L412,408" stroke-opacity="1" stroke-width="5" stroke-linecap="round" stroke-linejoin="round" style="-webkit-tap-highlight-color: rgba(0, 0, 0, 0); stroke-opacity: 1; stroke-linecap: round; stroke-linejoin: round; -webkit-user-select: text;"></path><path fill="none" stroke="#000000" d="M445,412L444,413L446,413L448,413L451,413L455,413L458,413L462,413L466,413L470,414L474,414L479,414L482,414L486,414L490,414L494,414L498,414L502,414L506,414L510,414L514,414L517,414L521,414L525,414L528,414L531,414L534,414L537,414L538,414L540,414L541,414L542,414" stroke-opacity="1" stroke-width="5" stroke-linecap="round" stroke-linejoin="round" style="-webkit-tap-highlight-color: rgba(0, 0, 0, 0); stroke-opacity: 1; stroke-linecap: round; stroke-linejoin: round; -webkit-user-select: text;"></path><path fill="none" stroke="#000000" d="M566,419L570,424L572,425L573,427L574,429L575,431L575,433L576,435L577,438L577,440L578,442L578,445L579,447L579,450L579,453L579,455L579,458L579,460L579,463L579,465L579,468L579,471L577,473L575,476L573,479L571,482L569,485L566,488L564,490L561,493L558,495L555,498L552,500L549,502L545,503L542,505L538,507L534,509L531,510L527,511L524,512L520,512L516,513L513,514L509,514L506,514L502,514L499,514L495,514L491,514L487,513L484,512L480,511L476,509L472,507L468,506L464,504L460,502L455,500L451,498L447,497L443,495L439,493L435,491L431,489L426,487L422,485L418,483L414,481L409,479L405,478L401,476L397,474L392,473L389,471L385,470L380,469L376,468L372,467L368,466L363,466L359,466L355,466L351,466L347,466L344,466L340,467L336,468L334,469L331,471L328,472L325,473L322,475L320,477L318,478L315,480L313,482L310,485L308,487L306,489L304,492L302,494L300,496L298,498L296,500L295,503L293,505L292,507L290,509L290,511L288,514L287,516L286,519L285,522L283,524L283,527L282,530L281,533L280,536L280,539L280,542L279,545L279,547L279,549L279,551L279,553L279,555L279,556L279,558L279,560L279,562L279,564L279,566L279,568L279,570L279,572L279,573L279,575L279,576L279,578L280,578L280,579L280,580L281,584" stroke-opacity="1" stroke-width="5" stroke-linecap="round" stroke-linejoin="round" style="-webkit-tap-highlight-color: rgba(0, 0, 0, 0); stroke-opacity: 1; stroke-linecap: round; stroke-linejoin: round; -webkit-user-select: text;"></path><path fill="none" stroke="#000000" d="M289,619L290,622L290,624L290,627L290,630L290,633L290,636L290,639L290,641L291,644L291,646L292,648L292,651L292,654L293,657L293,660L293,663L294,666L294,670L295,673L295,676L295,680L296,683L296,687L297,691L298,694L298,697L298,700L299,703L300,705L300,707L300,709L301,710L301,711L302,711L302,712L302,713L302,716" stroke-opacity="1" stroke-width="5" stroke-linecap="round" stroke-linejoin="round" style="-webkit-tap-highlight-color: rgba(0, 0, 0, 0); stroke-opacity: 1; stroke-linecap: round; stroke-linejoin: round; -webkit-user-select: text;"></path><path fill="none" stroke="#000000" d="M295,755L299,759L299,760L299,762L300,764L301,766L303,769L305,771L307,773L310,776L312,778L315,780L318,783L321,785L324,787L327,789L329,791L332,793L335,795L338,797L341,798L343,799L346,800L349,802L351,802L354,803L356,804L359,805L362,805L365,806L367,806L370,806L373,806L375,806L378,806L380,806L382,806L384,806L386,806L388,806L390,806L393,806L395,806L397,805L400,804L403,804L406,803L409,802L411,801L414,800L417,799L419,798L422,797L424,796L426,795L429,794L431,793L432,792L434,790L436,789L439,787L441,786L443,784L446,782L448,780L450,779L452,777L454,775L456,773L458,772L460,770L463,768L464,765L467,763L469,761L471,759L473,758L475,756L477,754L479,753L480,752L481,751L482,751L482,750L483,749L483,748L484,747" stroke-opacity="1" stroke-width="5" stroke-linecap="round" stroke-linejoin="round" style="-webkit-tap-highlight-color: rgba(0, 0, 0, 0); stroke-opacity: 1; stroke-linecap: round; stroke-linejoin: round; -webkit-user-select: text;"></path><path fill="none" stroke="#000000" d="M503,736L506,732L507,729L509,727L511,724L514,721L516,718L519,715L521,712L524,709L526,706L529,703L531,701L534,699L537,697L540,695L543,693L545,691L549,690L552,689L555,688L558,687L562,687L565,686L568,686L572,686L576,686L579,686L582,686L586,686L589,686L592,686L595,687L597,688L600,689L603,690L605,691L607,692L609,694L611,696L613,697L615,699L616,701L618,703L619,705L621,707L622,709L623,711L625,713L626,715L627,717L627,719L628,721L628,723L629,725L629,727L630,729L630,731L631,734L631,736L631,738L631,741L631,743L631,746L631,748L631,751L631,754L631,757L631,759L631,762L630,765L630,767L629,769L628,771L627,773L626,775L625,777L623,779L622,781L621,784L619,786L618,788L616,790L614,792L612,794L610,796L608,798L606,799L604,801L601,803L599,804L597,806L594,808L592,809L589,811L587,813L584,814L581,815L577,817L574,818L570,819L567,821L564,821L560,822L557,823L553,824L550,825L546,825L543,826L540,826L536,827L532,827L528,828L524,828L520,828L516,829L512,829L508,830L504,830L500,831L496,831L492,831L488,831L484,831L480,831L476,831L472,831L467,832L463,832L459,832L455,833L451,833L448,833L444,834L440,835L437,836L434,836L431,837L429,837L426,838L424,839L421,840L418,841L416,842L413,843L411,845L408,846L406,848L404,849L401,851L399,853L397,854L395,855L394,857L392,858L390,859L388,860L387,862L385,862L383,863L382,864L381,865L380,866L379,867L378,867L376,868L375,868L374,869L373,870L372,870L370,870L368,870L366,870" stroke-opacity="1" stroke-width="5" stroke-linecap="round" stroke-linejoin="round" style="-webkit-tap-highlight-color: rgba(0, 0, 0, 0); stroke-opacity: 1; stroke-linecap: round; stroke-linejoin: round; -webkit-user-select: text;"></path></svg>