<svg height="874" version="1.1" width="768" xmlns="http://www.w3.org/2000/svg" xmlns:xlink="http://www.w3.org/1999/xlink" style="overflow: hidden; position: relative; -webkit-user-select: text;"><desc style="-webkit-tap-highlight-color: rgba(0, 0, 0, 0); -webkit-user-select: text;">Created with Raphaël 2.2.0</desc><defs style="-webkit-tap-highlight-color: rgba(0, 0, 0, 0); -webkit-user-select: text;"></defs><path fill="none" stroke="#000000" d="M184,109L183,113L183,119L183,126L183,136L183,145L184,155L184,164L185,173L186,180L186,188L186,194L187,200L187,204L187,208L187,212L187,214L188,216L188,218L189,219L192,220L199,220L217,221L239,221L268,218L296,213L322,209" stroke-opacity="1" stroke-width="5" stroke-linecap="round" stroke-linejoin="round" style="-webkit-tap-highlight-color: rgba(0, 0, 0, 0); stroke-opacity: 1; stroke-linecap: round; stroke-linejoin: round; -webkit-user-select: text;"></path><path fill="none" stroke="#000000" d="M230,170L234,173L242,174L255,175L268,176L281,176L291,177L301,177L309,177L314,178L318,178L320,179L321,180L321,181L321,183L321,185L321,189L321,193L321,198L321,204L321,211L321,219L321,228L321,237L321,246L320,255L319,264L318,271L318,278L317,283L317,286L314,288" stroke-opacity="1" stroke-width="5" stroke-linecap="round" stroke-linejoin="round" style="-webkit-tap-highlight-color: rgba(0, 0, 0, 0); stroke-opacity: 1; stroke-linecap: round; stroke-linejoin: round; -webkit-user-select: text;"></path><path fill="none" stroke="#000000" d="M228,243L227,250L227,255L227,260L227,265L227,270L227,275L227,279L228,281L228,283L229,284L232,284L235,284L244,284L256,284L272,284L293,284L312,283L330,282L345,281L360,279L374,279L385,278" stroke-opacity="1" stroke-width="5" stroke-linecap="round" stroke-linejoin="round" style="-webkit-tap-highlight-color: rgba(0, 0, 0, 0); stroke-opacity: 1; stroke-linecap: round; stroke-linejoin: round; -webkit-user-select: text;"></path><path fill="none" stroke="#000000" d="M373,230L373,236L373,240L373,247L373,254L373,263L372,271L372,279L372,287L372,295L372,302L372,307L372,313L372,319L371,323L371,327L371,330L370,333L370,335L370,337L368,338L366,339L362,340L353,340L339,341L319,341L297,342L273,342L249,342L227,342L207,341" stroke-opacity="1" stroke-width="5" stroke-linecap="round" stroke-linejoin="round" style="-webkit-tap-highlight-color: rgba(0, 0, 0, 0); stroke-opacity: 1; stroke-linecap: round; stroke-linejoin: round; -webkit-user-select: text;"></path><path fill="none" stroke="#000000" d="M253,289L252,294L252,301L252,310L252,318L252,328L252,335L252,342L252,349L252,356L253,361L253,365L253,369L254,372L254,374L254,376L255,377L256,379L259,379L263,380L270,381L280,381L295,382L313,382L332,382L352,382L373,382L396,381L417,381" stroke-opacity="1" stroke-width="5" stroke-linecap="round" stroke-linejoin="round" style="-webkit-tap-highlight-color: rgba(0, 0, 0, 0); stroke-opacity: 1; stroke-linecap: round; stroke-linejoin: round; -webkit-user-select: text;"></path><path fill="none" stroke="#000000" d="M365,297L364,306L364,315L364,324L364,335L364,346L364,357L364,367L364,376L365,384L365,392L366,399L366,404L366,409L366,413L366,416L366,418L366,420L365,421L363,421L361,421L357,421L348,422L334,422L316,423L298,424L278,425L256,425L235,425L215,425L198,423" stroke-opacity="1" stroke-width="5" stroke-linecap="round" stroke-linejoin="round" style="-webkit-tap-highlight-color: rgba(0, 0, 0, 0); stroke-opacity: 1; stroke-linecap: round; stroke-linejoin: round; -webkit-user-select: text;"></path><path fill="none" stroke="#000000" d="M183,345L183,351L183,360L183,370L183,381L183,390L183,400L183,409L183,417L183,424L183,431L183,438L183,443L183,447L183,452L183,455L184,458L186,461L187,464L189,466L191,467L195,469L203,471L216,472L239,473L273,473L318,469L370,466L412,464" stroke-opacity="1" stroke-width="5" stroke-linecap="round" stroke-linejoin="round" style="-webkit-tap-highlight-color: rgba(0, 0, 0, 0); stroke-opacity: 1; stroke-linecap: round; stroke-linejoin: round; -webkit-user-select: text;"></path><path fill="none" stroke="#000000" d="M339,391L337,395L336,403L334,412L333,421L332,430L331,440L331,448L331,456L331,464L331,470L331,476L331,481L331,486L331,491L331,494L331,496L331,498L331,500L331,501L330,502L328,503L324,504L313,506L297,508L277,510L249,512L215,513L176,513" stroke-opacity="1" stroke-width="5" stroke-linecap="round" stroke-linejoin="round" style="-webkit-tap-highlight-color: rgba(0, 0, 0, 0); stroke-opacity: 1; stroke-linecap: round; stroke-linejoin: round; -webkit-user-select: text;"></path><path fill="none" stroke="#000000" d="M268,415L266,418L265,427L262,438L260,449L259,462L258,473L258,483L258,493L258,501L258,509L258,516L259,522L260,527L261,532L263,537L264,540L266,543L267,546L270,548L272,549L276,551L280,553L288,554L299,556L312,557L333,558L354,559L378,559L402,560L432,560L469,559" stroke-opacity="1" stroke-width="5" stroke-linecap="round" stroke-linejoin="round" style="-webkit-tap-highlight-color: rgba(0, 0, 0, 0); stroke-opacity: 1; stroke-linecap: round; stroke-linejoin: round; -webkit-user-select: text;"></path><path fill="none" stroke="#000000" d="M441,450L440,459L439,469L437,480L434,491L432,504L430,517L430,527L429,539L429,549L429,557L429,565L429,573L429,580L429,585L429,590L428,595L426,600L423,605L420,608L417,612L412,616L406,619L399,622L390,624L379,625L365,626L345,626L323,626L295,624L265,619L238,610" stroke-opacity="1" stroke-width="5" stroke-linecap="round" stroke-linejoin="round" style="-webkit-tap-highlight-color: rgba(0, 0, 0, 0); stroke-opacity: 1; stroke-linecap: round; stroke-linejoin: round; -webkit-user-select: text;"></path><path fill="none" stroke="#000000" d="M357,432L354,443L353,454L350,468L348,484L347,498L346,514L346,528L346,542L346,555L346,566L346,577L346,587L346,594L346,601L346,607L346,612L346,615L346,618L346,620L346,621L348,622L351,622L356,622L368,622L388,622L416,619L446,613L475,605L502,599L526,593" stroke-opacity="1" stroke-width="5" stroke-linecap="round" stroke-linejoin="round" style="-webkit-tap-highlight-color: rgba(0, 0, 0, 0); stroke-opacity: 1; stroke-linecap: round; stroke-linejoin: round; -webkit-user-select: text;"></path><path fill="none" stroke="#000000" d="M502,481L501,487L501,496L499,507L498,520L497,535L495,553L494,567L493,582L493,593L493,605L493,615L493,624L493,632L493,639L493,645L492,651L492,655L490,658L489,661L487,663L484,665L479,667L471,668L457,668L435,668L405,668L375,667L345,662L321,654L303,644" stroke-opacity="1" stroke-width="5" stroke-linecap="round" stroke-linejoin="round" style="-webkit-tap-highlight-color: rgba(0, 0, 0, 0); stroke-opacity: 1; stroke-linecap: round; stroke-linejoin: round; -webkit-user-select: text;"></path><path fill="none" stroke="#000000" d="M385,506L382,516L381,529L380,543L379,559L378,575L378,591L378,605L377,620L377,633L376,644L376,654L375,663L375,670L375,678L375,684L374,688L374,692L374,695L374,696L374,697L374,698L376,699L381,699L392,699L413,699L441,699L469,699L499,698L534,693L567,685" stroke-opacity="1" stroke-width="5" stroke-linecap="round" stroke-linejoin="round" style="-webkit-tap-highlight-color: rgba(0, 0, 0, 0); stroke-opacity: 1; stroke-linecap: round; stroke-linejoin: round; -webkit-user-select: text;"></path><path fill="none" stroke="#000000" d="M585,435L583,450L580,460L579,472L578,486L577,501L577,515L577,529L577,542L577,555L577,565L577,576L577,585L577,594L577,601L576,608L575,613L574,618L572,621L570,624L567,626L563,627L559,628L555,629L547,629L534,629L514,629L485,629L453,629L420,628L386,619" stroke-opacity="1" stroke-width="5" stroke-linecap="round" stroke-linejoin="round" style="-webkit-tap-highlight-color: rgba(0, 0, 0, 0); stroke-opacity: 1; stroke-linecap: round; stroke-linejoin: round; -webkit-user-select: text;"></path><path fill="none" stroke="#000000" d="M438,404L434,424L431,437L430,452L429,467L429,483L429,497L429,511L430,524L430,537L431,547L431,558L432,568L432,576L434,583L435,590L437,595L440,600L443,605L447,608L453,612L461,614L474,615L494,615L518,615L545,614L574,610L612,603L652,595" stroke-opacity="1" stroke-width="5" stroke-linecap="round" stroke-linejoin="round" style="-webkit-tap-highlight-color: rgba(0, 0, 0, 0); stroke-opacity: 1; stroke-linecap: round; stroke-linejoin: round; -webkit-user-select: text;"></path><path fill="none" stroke="#000000" d="M580,414L576,424L575,435L572,449L570,464L567,479L565,492L563,506L562,519L560,531L560,541L558,554L558,564L557,574L555,584L555,593L554,601L553,608L552,615L551,622L550,628L549,633L548,637L545,641L538,646L525,649L503,652L470,652L434,651L395,642L358,629L329,610" stroke-opacity="1" stroke-width="5" stroke-linecap="round" stroke-linejoin="round" style="-webkit-tap-highlight-color: rgba(0, 0, 0, 0); stroke-opacity: 1; stroke-linecap: round; stroke-linejoin: round; -webkit-user-select: text;"></path><path fill="none" stroke="#000000" d="M379,400L375,410L374,423L371,439L370,456L368,473L368,488L368,503L368,517L368,531L368,544L367,558L366,570L365,582L364,591L363,601L362,610L362,617L361,624L361,631L361,636L361,641L361,646L365,649L372,653L383,658L402,661L431,663L463,663L504,659L545,650" stroke-opacity="1" stroke-width="5" stroke-linecap="round" stroke-linejoin="round" style="-webkit-tap-highlight-color: rgba(0, 0, 0, 0); stroke-opacity: 1; stroke-linecap: round; stroke-linejoin: round; -webkit-user-select: text;"></path><path fill="none" stroke="#000000" d="M516,354L515,360L514,369L511,380L509,392L507,406L507,419L506,430L506,441L506,452L506,463L506,473L506,484L506,493L505,502L503,510L501,518L499,524L495,530L491,536L486,540L482,543L475,546L467,548L455,548L441,548L419,548L392,546L366,543L340,539L312,529L290,511" stroke-opacity="1" stroke-width="5" stroke-linecap="round" stroke-linejoin="round" style="-webkit-tap-highlight-color: rgba(0, 0, 0, 0); stroke-opacity: 1; stroke-linecap: round; stroke-linejoin: round; -webkit-user-select: text;"></path><path fill="none" stroke="#000000" d="M383,337L380,351L378,366L375,380L373,396L372,413L372,428L372,445L372,461L372,475L373,488L373,500L374,510L374,520L375,529L375,537L375,544L375,550L376,555L376,560L378,564L380,567L383,570L387,572L394,574L407,576L427,578L450,580L475,581L507,581L542,579L592,568" stroke-opacity="1" stroke-width="5" stroke-linecap="round" stroke-linejoin="round" style="-webkit-tap-highlight-color: rgba(0, 0, 0, 0); stroke-opacity: 1; stroke-linecap: round; stroke-linejoin: round; -webkit-user-select: text;"></path><path fill="none" stroke="#000000" d="M432,393L438,397L448,399L468,402L489,405L510,407L531,409L548,412L561,415L573,418L581,420L589,424L594,426L597,430L600,433L602,437L603,441L604,446L605,452L605,458L606,464L606,471L606,478L607,486L607,495L607,504L604,515L599,526L589,538L576,549L556,561L533,574L514,588L503,594" stroke-opacity="1" stroke-width="5" stroke-linecap="round" stroke-linejoin="round" style="-webkit-tap-highlight-color: rgba(0, 0, 0, 0); stroke-opacity: 1; stroke-linecap: round; stroke-linejoin: round; -webkit-user-select: text;"></path><path fill="none" stroke="#000000" d="M474,287L471,295L470,306L468,318L467,331L467,348L467,367L467,381L467,395L467,408L468,420L469,431L469,442L470,452L470,459L470,467L470,473L471,478L472,482L473,486L475,488L479,490L483,492L490,494L501,496L518,498L538,498L560,498L585,496L609,489L635,481L658,470L674,459" stroke-opacity="1" stroke-width="5" stroke-linecap="round" stroke-linejoin="round" style="-webkit-tap-highlight-color: rgba(0, 0, 0, 0); stroke-opacity: 1; stroke-linecap: round; stroke-linejoin: round; -webkit-user-select: text;"></path><path fill="none" stroke="#000000" d="M596,275L596,286L595,296L594,307L593,320L592,336L592,353L592,369L592,384L593,398L595,411L597,424L599,436L600,448L601,457L601,467L602,475L602,483L603,490L603,497L603,503L602,509L598,515L591,522L582,528L570,533L553,537L530,539L499,539L467,539L434,536L399,530" stroke-opacity="1" stroke-width="5" stroke-linecap="round" stroke-linejoin="round" style="-webkit-tap-highlight-color: rgba(0, 0, 0, 0); stroke-opacity: 1; stroke-linecap: round; stroke-linejoin: round; -webkit-user-select: text;"></path><path fill="none" stroke="#000000" d="M427,259L424,267L424,275L424,287L424,301L425,315L427,330L429,343L430,357L431,369L432,379L433,388L434,396L434,403L435,408L435,413L436,416L437,420L439,422L441,424L445,426L452,428L463,430L476,432L496,433L517,434L542,434L574,433L610,429L644,421" stroke-opacity="1" stroke-width="5" stroke-linecap="round" stroke-linejoin="round" style="-webkit-tap-highlight-color: rgba(0, 0, 0, 0); stroke-opacity: 1; stroke-linecap: round; stroke-linejoin: round; -webkit-user-select: text;"></path><path fill="none" stroke="#000000" d="M590,278L590,282L590,291L590,304L590,318L592,337L593,354L594,368L595,384L595,398L596,411L596,422L597,432L597,442L598,449L598,457L598,464L598,470L598,475L598,479L598,483L595,486L592,489L585,492L575,495L560,498L539,500L511,503L484,505L458,508L437,510L417,510L397,510" stroke-opacity="1" stroke-width="5" stroke-linecap="round" stroke-linejoin="round" style="-webkit-tap-highlight-color: rgba(0, 0, 0, 0); stroke-opacity: 1; stroke-linecap: round; stroke-linejoin: round; -webkit-user-select: text;"></path><path fill="none" stroke="#000000" d="M524,206L524,213L524,223L524,236L524,252L525,267L526,281L528,295L529,307L531,319L532,330L533,339L534,347L535,354L536,361L537,366L538,370L539,374L541,376L544,379L549,381L557,382L570,384L589,386L609,386L630,386L652,386L669,380L682,374" stroke-opacity="1" stroke-width="5" stroke-linecap="round" stroke-linejoin="round" style="-webkit-tap-highlight-color: rgba(0, 0, 0, 0); stroke-opacity: 1; stroke-linecap: round; stroke-linejoin: round; -webkit-user-select: text;"></path><path fill="none" stroke="#000000" d="M625,229L624,240L624,251L624,264L625,279L625,294L626,308L626,322L626,335L627,348L627,359L627,370L627,380L627,389L627,396L627,404L626,410L624,416L623,420L620,425L616,430L611,434L604,438L594,442L583,444L570,445L556,446L540,447L520,447L502,447L485,447L467,447L452,447L437,447L421,447L411,443" stroke-opacity="1" stroke-width="5" stroke-linecap="round" stroke-linejoin="round" style="-webkit-tap-highlight-color: rgba(0, 0, 0, 0); stroke-opacity: 1; stroke-linecap: round; stroke-linejoin: round; -webkit-user-select: text;"></path><path fill="none" stroke="#000000" d="M425,191L424,196L424,206L424,217L424,231L426,245L429,258L431,270L432,282L433,292L434,302L435,312L436,320L438,328L440,335L442,341L445,346L448,351L453,354L459,359L467,361L478,364L492,365L510,365L529,365L550,365L572,365L595,364L617,362L636,357" stroke-opacity="1" stroke-width="5" stroke-linecap="round" stroke-linejoin="round" style="-webkit-tap-highlight-color: rgba(0, 0, 0, 0); stroke-opacity: 1; stroke-linecap: round; stroke-linejoin: round; -webkit-user-select: text;"></path><path fill="none" stroke="#000000" d="M559,200L558,223L558,235L558,250L558,265L558,279L558,293L558,306L560,318L561,329L562,339L563,349L563,359L564,368L564,377L564,384L564,391L564,398L562,403L559,408L555,412L549,415L538,418L521,420L501,422L479,424L456,425L434,426L413,428L396,429L383,430L373,430L363,430L353,426" stroke-opacity="1" stroke-width="5" stroke-linecap="round" stroke-linejoin="round" style="-webkit-tap-highlight-color: rgba(0, 0, 0, 0); stroke-opacity: 1; stroke-linecap: round; stroke-linejoin: round; -webkit-user-select: text;"></path><path fill="none" stroke="#000000" d="M347,175L345,185L345,196L345,208L345,223L345,238L345,252L346,265L348,277L349,287L350,297L351,306L352,313L353,320L355,326L358,332L360,337L364,342L368,347L372,351L378,354L385,357L392,360L404,362L417,364L431,364L448,364L466,364L486,364L511,362L531,358" stroke-opacity="1" stroke-width="5" stroke-linecap="round" stroke-linejoin="round" style="-webkit-tap-highlight-color: rgba(0, 0, 0, 0); stroke-opacity: 1; stroke-linecap: round; stroke-linejoin: round; -webkit-user-select: text;"></path><path fill="none" stroke="#000000" d="M494,211L492,220L492,230L492,244L492,258L493,273L494,287L496,301L497,313L499,325L500,336L501,345L502,355L502,366L502,375L502,384L502,391L502,399L502,406L501,412L499,417L497,421L493,425L487,428L477,431L465,433L449,434L429,434L411,434L393,434L375,434L360,434L344,434L331,434L318,433L306,424" stroke-opacity="1" stroke-width="5" stroke-linecap="round" stroke-linejoin="round" style="-webkit-tap-highlight-color: rgba(0, 0, 0, 0); stroke-opacity: 1; stroke-linecap: round; stroke-linejoin: round; -webkit-user-select: text;"></path><path fill="none" stroke="#000000" d="M268,212L266,218L266,230L266,244L266,264L266,278L268,293L269,306L271,318L271,329L272,340L273,349L273,356L273,363L273,369L273,374L273,378L274,382L276,385L278,387L280,389L284,391L290,392L298,393L308,394L322,394L335,394L349,394L365,394L385,394L404,393L424,391L444,386L461,380" stroke-opacity="1" stroke-width="5" stroke-linecap="round" stroke-linejoin="round" style="-webkit-tap-highlight-color: rgba(0, 0, 0, 0); stroke-opacity: 1; stroke-linecap: round; stroke-linejoin: round; -webkit-user-select: text;"></path><path fill="none" stroke="#000000" d="M402,209L400,216L400,227L400,240L400,258L402,274L403,291L404,308L405,323L407,339L407,354L409,369L409,383L411,396L412,409L412,419L414,430L414,439L414,447L414,454L414,461L414,466L412,470L407,474L400,478L389,481L376,483L361,485L343,486L323,486L303,486L283,486L264,484L246,481L229,476" stroke-opacity="1" stroke-width="5" stroke-linecap="round" stroke-linejoin="round" style="-webkit-tap-highlight-color: rgba(0, 0, 0, 0); stroke-opacity: 1; stroke-linecap: round; stroke-linejoin: round; -webkit-user-select: text;"></path><path fill="none" stroke="#000000" d="M231,323L229,337L227,349L226,363L226,380L226,396L226,410L226,423L226,437L226,449L226,462L226,472L226,483L226,490L226,498L226,504L226,510L226,515L226,520L226,523L229,527L233,531L239,534L249,539L261,542L276,544L294,546L313,546L332,546L352,543L372,539L391,533" stroke-opacity="1" stroke-width="5" stroke-linecap="round" stroke-linejoin="round" style="-webkit-tap-highlight-color: rgba(0, 0, 0, 0); stroke-opacity: 1; stroke-linecap: round; stroke-linejoin: round; -webkit-user-select: text;"></path><path fill="none" stroke="#000000" d="M348,444L347,452L347,460L347,471L347,484L348,497L348,510L348,524L348,537L348,550L348,562L348,572L348,583L347,593L346,602L346,609L345,616L344,622L343,627L342,631L340,635L336,639L331,643L324,646L314,649L302,651L289,652L273,653L258,653L241,653L222,653L205,652L188,647" stroke-opacity="1" stroke-width="5" stroke-linecap="round" stroke-linejoin="round" style="-webkit-tap-highlight-color: rgba(0, 0, 0, 0); stroke-opacity: 1; stroke-linecap: round; stroke-linejoin: round; -webkit-user-select: text;"></path><path fill="none" stroke="#000000" d="M176,463L174,472L174,482L174,493L174,508L174,522L174,537L174,551L175,566L175,580L175,593L175,603L175,614L175,623L174,632L174,639L174,646L173,653L173,660L173,665L173,671L173,676L175,681L178,686L184,690L193,695L204,699L222,702L243,704L266,704L294,704L318,700L335,695" stroke-opacity="1" stroke-width="5" stroke-linecap="round" stroke-linejoin="round" style="-webkit-tap-highlight-color: rgba(0, 0, 0, 0); stroke-opacity: 1; stroke-linecap: round; stroke-linejoin: round; -webkit-user-select: text;"></path><path fill="none" stroke="#000000" d="M283,530L281,539L281,550L281,563L281,579L281,595L283,611L285,626L286,641L288,655L288,668L288,681L288,691L288,701L288,710L288,717L288,724L288,730L287,734L286,738L285,741L283,744L280,746L275,748L270,749L264,751L256,752L247,753L235,754L223,754L208,755L192,755L176,755L156,755L139,750" stroke-opacity="1" stroke-width="5" stroke-linecap="round" stroke-linejoin="round" style="-webkit-tap-highlight-color: rgba(0, 0, 0, 0); stroke-opacity: 1; stroke-linecap: round; stroke-linejoin: round; -webkit-user-select: text;"></path><path fill="none" stroke="#000000" d="M170,505L168,517L168,529L168,542L169,557L171,572L174,587L176,600L178,614L179,627L180,639L180,649L180,660L180,670L180,678L180,686L180,694L180,701L181,707L181,714L183,719L185,724L187,729L191,732L195,735L203,738L213,741L227,741L246,741L265,741L286,737L312,729L334,717" stroke-opacity="1" stroke-width="5" stroke-linecap="round" stroke-linejoin="round" style="-webkit-tap-highlight-color: rgba(0, 0, 0, 0); stroke-opacity: 1; stroke-linecap: round; stroke-linejoin: round; -webkit-user-select: text;"></path><path fill="none" stroke="#000000" d="M259,510L261,513L261,518L262,522L264,527L266,532L269,537L273,541L277,545L282,549L288,553L294,556L302,559L310,562L319,564L328,566L336,569L341,571L346,574L351,578L354,582L357,588L360,596L362,604L365,615L366,627L367,639L368,653L368,668L368,683L367,698L364,712L361,724L356,734L349,743L339,751L329,756L316,760L300,763L283,763L263,763L242,763L216,753" stroke-opacity="1" stroke-width="5" stroke-linecap="round" stroke-linejoin="round" style="-webkit-tap-highlight-color: rgba(0, 0, 0, 0); stroke-opacity: 1; stroke-linecap: round; stroke-linejoin: round; -webkit-user-select: text;"></path><path fill="none" stroke="#000000" d="M235,543L233,551L232,562L231,575L230,591L230,607L230,622L230,636L231,649L232,661L232,672L233,682L233,691L233,699L233,706L233,711L233,716L234,720L236,724L239,726L242,729L247,732L255,735L267,738L283,742L299,744L317,746L339,746L366,746L395,745L426,741L453,734" stroke-opacity="1" stroke-width="5" stroke-linecap="round" stroke-linejoin="round" style="-webkit-tap-highlight-color: rgba(0, 0, 0, 0); stroke-opacity: 1; stroke-linecap: round; stroke-linejoin: round; -webkit-user-select: text;"></path><path fill="none" stroke="#000000" d="M445,619L444,622L444,629L443,638L442,649L442,662L441,675L441,685L441,697L441,707L440,716L438,725L437,733L436,741L434,748L433,754L431,760L428,765L426,770L422,774L417,778L410,781L402,783L389,785L374,786L354,786L333,786L311,786L288,782L268,777L249,766" stroke-opacity="1" stroke-width="5" stroke-linecap="round" stroke-linejoin="round" style="-webkit-tap-highlight-color: rgba(0, 0, 0, 0); stroke-opacity: 1; stroke-linecap: round; stroke-linejoin: round; -webkit-user-select: text;"></path><path fill="none" stroke="#000000" d="M259,507L259,511L259,520L259,531L260,546L263,561L267,577L270,593L272,606L274,621L275,634L276,647L276,658L276,668L276,678L276,686L276,695L276,702L276,708L277,714L280,719L284,724L289,728L297,731L309,734L323,736L341,738L356,738L376,738L394,738L412,738L430,737L449,734L468,731L486,724" stroke-opacity="1" stroke-width="5" stroke-linecap="round" stroke-linejoin="round" style="-webkit-tap-highlight-color: rgba(0, 0, 0, 0); stroke-opacity: 1; stroke-linecap: round; stroke-linejoin: round; -webkit-user-select: text;"></path><path fill="none" stroke="#000000" d="M499,601L497,610L497,620L497,634L497,648L496,663L496,678L496,691L496,702L496,714L496,726L495,736L494,747L493,757L492,765L490,773L489,779L487,785L484,790L480,795L475,800L467,804L457,808L445,811L431,814L416,815L397,816L378,818L360,818L343,818L327,815L315,807" stroke-opacity="1" stroke-width="5" stroke-linecap="round" stroke-linejoin="round" style="-webkit-tap-highlight-color: rgba(0, 0, 0, 0); stroke-opacity: 1; stroke-linecap: round; stroke-linejoin: round; -webkit-user-select: text;"></path><path fill="none" stroke="#000000" d="M387,588L387,593L387,602L387,614L387,629L387,649L388,668L389,685L390,699L390,714L391,727L391,738L392,749L393,758L394,765L395,772L397,778L400,783L403,787L406,790L410,793L414,795L419,797L425,799L433,800L441,802L451,802L465,803L479,803L497,803L517,802L539,799L564,795L589,787L611,777L623,766" stroke-opacity="1" stroke-width="5" stroke-linecap="round" stroke-linejoin="round" style="-webkit-tap-highlight-color: rgba(0, 0, 0, 0); stroke-opacity: 1; stroke-linecap: round; stroke-linejoin: round; -webkit-user-select: text;"></path><path fill="none" stroke="#000000" d="M537,576L536,582L536,593L534,605L533,619L533,636L533,656L532,671L532,687L532,702L532,715L533,727L533,737L533,748L533,757L533,765L531,772L530,778L527,784L524,789L519,794L514,798L507,802L499,806L489,809L479,811L468,814L455,816L442,818L427,819L409,821L390,821L366,819L353,810" stroke-opacity="1" stroke-width="5" stroke-linecap="round" stroke-linejoin="round" style="-webkit-tap-highlight-color: rgba(0, 0, 0, 0); stroke-opacity: 1; stroke-linecap: round; stroke-linejoin: round; -webkit-user-select: text;"></path><path fill="none" stroke="#000000" d="M467,603L466,610L466,620L466,632L466,646L466,665L466,682L466,696L468,709L470,722L471,734L472,744L473,754L474,761L475,769L476,775L477,780L479,785L480,788L482,792L485,794L487,797L490,799L493,801L497,803L501,804L507,806L515,806L525,807L538,807L552,807L566,807L583,806L599,803L616,797L643,785" stroke-opacity="1" stroke-width="5" stroke-linecap="round" stroke-linejoin="round" style="-webkit-tap-highlight-color: rgba(0, 0, 0, 0); stroke-opacity: 1; stroke-linecap: round; stroke-linejoin: round; -webkit-user-select: text;"></path><path fill="none" stroke="#000000" d="M606,559L604,566L603,577L600,590L599,606L598,623L598,641L598,660L598,677L598,692L598,707L598,720L598,732L598,743L598,753L598,763L597,771L595,778L593,783L589,788L586,793L581,797L576,800L568,803L561,806L553,808L543,809L531,811L517,811L501,811L480,811L460,811L440,809L421,805L400,798L377,786L350,768" stroke-opacity="1" stroke-width="5" stroke-linecap="round" stroke-linejoin="round" style="-webkit-tap-highlight-color: rgba(0, 0, 0, 0); stroke-opacity: 1; stroke-linecap: round; stroke-linejoin: round; -webkit-user-select: text;"></path><path fill="none" stroke="#000000" d="M185,479L182,485L182,494L180,505L180,518L180,533L180,551L181,567L182,581L183,597L183,610L183,624L183,635L183,646L181,656L178,665L176,673L174,679L172,685L170,689L168,693L166,696L163,699L159,701L155,702L149,704L143,706L137,707L130,707L123,707L115,707L106,707L98,707L89,706L79,703L66,695L49,678" stroke-opacity="1" stroke-width="5" stroke-linecap="round" stroke-linejoin="round" style="-webkit-tap-highlight-color: rgba(0, 0, 0, 0); stroke-opacity: 1; stroke-linecap: round; stroke-linejoin: round; -webkit-user-select: text;"></path><path fill="none" stroke="#000000" d="M101,476L99,489L98,505L96,524L94,545L94,567L93,589L93,609L93,627L93,642L92,658L91,672L91,683L91,693L91,701L91,708L91,713L91,718L91,723L91,728L92,732L94,736L96,739L99,743L103,746L109,750L116,753L125,755L137,757L150,758L168,758L187,757L211,750L234,740L258,728L281,710L296,690" stroke-opacity="1" stroke-width="5" stroke-linecap="round" stroke-linejoin="round" style="-webkit-tap-highlight-color: rgba(0, 0, 0, 0); stroke-opacity: 1; stroke-linecap: round; stroke-linejoin: round; -webkit-user-select: text;"></path><path fill="none" stroke="#000000" d="M25,562L29,570L32,573L42,575L60,577L81,579L101,580L120,582L135,583L149,584L163,586L175,589L183,591L191,595L197,598L202,602L206,606L209,611L212,618L214,623L216,630L217,639L219,647L219,654L220,664L220,674L220,684L220,696L217,707L214,718L210,730L207,742L203,754L199,765L195,776L191,787L186,799L185,809L185,813" stroke-opacity="1" stroke-width="5" stroke-linecap="round" stroke-linejoin="round" style="-webkit-tap-highlight-color: rgba(0, 0, 0, 0); stroke-opacity: 1; stroke-linecap: round; stroke-linejoin: round; -webkit-user-select: text;"></path><path fill="none" stroke="#000000" d="M135,452L134,458L132,470L130,486L130,505L130,526L132,546L135,565L137,581L139,595L142,607L144,619L145,627L147,636L149,644L150,650L152,655L154,660L157,664L160,667L164,670L168,673L174,675L182,678L191,679L201,680L212,681L227,681L241,681L257,679L272,674L288,667L306,654L322,633" stroke-opacity="1" stroke-width="5" stroke-linecap="round" stroke-linejoin="round" style="-webkit-tap-highlight-color: rgba(0, 0, 0, 0); stroke-opacity: 1; stroke-linecap: round; stroke-linejoin: round; -webkit-user-select: text;"></path><path fill="none" stroke="#000000" d="M87,418L93,418L104,419L120,424L139,428L157,433L174,436L188,438L203,439L216,441L225,443L232,445L237,447L240,450L242,454L244,459L246,465L247,471L249,480L251,488L252,498L253,508L253,518L253,529L253,542L252,553L251,564L249,576L246,587L242,598L237,609L231,619L224,629L216,638L205,648L189,662L175,667" stroke-opacity="1" stroke-width="5" stroke-linecap="round" stroke-linejoin="round" style="-webkit-tap-highlight-color: rgba(0, 0, 0, 0); stroke-opacity: 1; stroke-linecap: round; stroke-linejoin: round; -webkit-user-select: text;"></path><path fill="none" stroke="#000000" d="M133,320L130,334L127,347L125,366L125,386L126,404L129,422L133,439L136,454L138,468L140,481L142,493L144,503L145,512L147,520L149,527L151,533L153,539L155,544L158,549L161,554L165,558L171,562L178,565L189,568L205,569L225,570L252,570L279,567L307,561L335,551L358,532" stroke-opacity="1" stroke-width="5" stroke-linecap="round" stroke-linejoin="round" style="-webkit-tap-highlight-color: rgba(0, 0, 0, 0); stroke-opacity: 1; stroke-linecap: round; stroke-linejoin: round; -webkit-user-select: text;"></path><path fill="none" stroke="#000000" d="M232,239L233,243L233,256L233,270L234,288L236,304L237,317L239,331L241,345L242,358L242,369L243,380L243,390L243,399L243,406L243,413L243,420L243,426L243,431L243,435L244,437L248,440L253,443L262,445L278,448L295,450L314,451L335,451L356,451L382,447L404,441L417,435L429,425" stroke-opacity="1" stroke-width="5" stroke-linecap="round" stroke-linejoin="round" style="-webkit-tap-highlight-color: rgba(0, 0, 0, 0); stroke-opacity: 1; stroke-linecap: round; stroke-linejoin: round; -webkit-user-select: text;"></path><path fill="none" stroke="#000000" d="M320,239L320,243L320,255L319,270L318,289L318,308L318,323L318,339L318,354L319,369L319,383L320,396L321,407L321,418L321,429L320,438L318,447L314,454L310,461L306,467L300,472L294,476L285,479L276,481L263,482L249,482L229,482L211,482L193,479L176,473L163,463" stroke-opacity="1" stroke-width="5" stroke-linecap="round" stroke-linejoin="round" style="-webkit-tap-highlight-color: rgba(0, 0, 0, 0); stroke-opacity: 1; stroke-linecap: round; stroke-linejoin: round; -webkit-user-select: text;"></path><path fill="none" stroke="#000000" d="M241,181L240,195L240,208L240,221L242,236L244,251L245,264L246,278L246,289L247,299L248,310L249,319L250,328L251,337L252,345L254,353L256,360L259,365L262,369L266,374L271,376L278,379L289,382L304,384L320,384L340,384L357,384L373,382L388,380L404,376L424,368L436,359" stroke-opacity="1" stroke-width="5" stroke-linecap="round" stroke-linejoin="round" style="-webkit-tap-highlight-color: rgba(0, 0, 0, 0); stroke-opacity: 1; stroke-linecap: round; stroke-linejoin: round; -webkit-user-select: text;"></path><path fill="none" stroke="#000000" d="M379,137L379,170L382,186L385,201L387,213L390,226L392,239L394,251L395,264L395,274L396,284L396,294L396,303L396,310L396,317L396,323L395,328L392,333L388,337L383,340L376,343L365,345L351,346L331,346L311,346L290,346L269,346L249,346L232,342" stroke-opacity="1" stroke-width="5" stroke-linecap="round" stroke-linejoin="round" style="-webkit-tap-highlight-color: rgba(0, 0, 0, 0); stroke-opacity: 1; stroke-linecap: round; stroke-linejoin: round; -webkit-user-select: text;"></path><path fill="none" stroke="#000000" d="M307,120L307,155L307,172L307,187L308,204L310,217L312,232L314,247L315,260L317,270L318,281L319,289L319,296L320,303L321,310L322,315L324,319L327,323L331,326L336,329L344,332L352,334L364,336L378,336L397,336L417,336L437,333L462,328L482,320L493,309" stroke-opacity="1" stroke-width="5" stroke-linecap="round" stroke-linejoin="round" style="-webkit-tap-highlight-color: rgba(0, 0, 0, 0); stroke-opacity: 1; stroke-linecap: round; stroke-linejoin: round; -webkit-user-select: text;"></path><path fill="none" stroke="#000000" d="M435,90L434,125L436,142L437,157L438,172L439,186L441,199L441,212L442,222L442,234L442,243L442,253L442,261L442,268L441,276L439,282L436,287L432,292L428,296L423,299L415,301L407,304L396,306L383,307L370,308L354,308L338,308L319,308L301,308L287,308L273,306L257,301L245,291" stroke-opacity="1" stroke-width="5" stroke-linecap="round" stroke-linejoin="round" style="-webkit-tap-highlight-color: rgba(0, 0, 0, 0); stroke-opacity: 1; stroke-linecap: round; stroke-linejoin: round; -webkit-user-select: text;"></path><path fill="none" stroke="#000000" d="M244,81L244,97L244,110L244,126L244,140L246,155L248,169L249,182L251,194L252,206L253,216L254,226L254,235L256,241L257,248L259,255L261,260L264,264L267,268L271,271L276,274L283,277L291,279L301,280L312,281L325,281L340,281L358,281L376,281L394,281L412,279L432,277L453,274L473,268L489,260" stroke-opacity="1" stroke-width="5" stroke-linecap="round" stroke-linejoin="round" style="-webkit-tap-highlight-color: rgba(0, 0, 0, 0); stroke-opacity: 1; stroke-linecap: round; stroke-linejoin: round; -webkit-user-select: text;"></path><path fill="none" stroke="#000000" d="M362,65L361,74L361,84L361,94L363,107L364,120L366,133L368,146L369,159L370,172L371,184L372,194L373,204L373,213L373,221L373,229L373,236L373,241L373,247L373,253L373,257L373,262L372,265L371,269L370,272L370,275L370,278L373,284L380,290L392,298L413,308L437,317L467,324L507,328L546,328L579,325" stroke-opacity="1" stroke-width="5" stroke-linecap="round" stroke-linejoin="round" style="-webkit-tap-highlight-color: rgba(0, 0, 0, 0); stroke-opacity: 1; stroke-linecap: round; stroke-linejoin: round; -webkit-user-select: text;"></path><path fill="none" stroke="#000000" d="M448,102L445,108L445,116L445,128L445,142L445,157L446,172L448,188L450,203L451,216L453,229L454,241L455,251L457,260L458,268L459,275L460,281L462,285L463,289L465,292L468,295L470,297L472,299L477,301L487,304L499,306L518,307L539,307L566,300L589,291L605,277" stroke-opacity="1" stroke-width="5" stroke-linecap="round" stroke-linejoin="round" style="-webkit-tap-highlight-color: rgba(0, 0, 0, 0); stroke-opacity: 1; stroke-linecap: round; stroke-linejoin: round; -webkit-user-select: text;"></path><path fill="none" stroke="#000000" d="M551,84L554,94L554,109L554,128L554,146L554,161L555,178L555,192L555,205L555,214L555,222L555,230L555,235L555,240L555,244L555,248L553,251L550,254L545,258L538,261L529,264L518,267L505,269L490,271L474,272L455,272L436,272L418,272L398,272L378,270L358,268L339,264L313,257" stroke-opacity="1" stroke-width="5" stroke-linecap="round" stroke-linejoin="round" style="-webkit-tap-highlight-color: rgba(0, 0, 0, 0); stroke-opacity: 1; stroke-linecap: round; stroke-linejoin: round; -webkit-user-select: text;"></path><path fill="none" stroke="#000000" d="M390,61L390,95L390,109L391,125L392,139L393,153L394,165L395,177L395,187L396,196L397,205L398,212L400,218L402,224L406,230L409,235L414,239L420,243L427,245L435,248L443,250L453,251L463,252L475,252L489,252L502,252L519,251L536,248L553,244L571,239L588,232L601,222L609,208" stroke-opacity="1" stroke-width="5" stroke-linecap="round" stroke-linejoin="round" style="-webkit-tap-highlight-color: rgba(0, 0, 0, 0); stroke-opacity: 1; stroke-linecap: round; stroke-linejoin: round; -webkit-user-select: text;"></path><path fill="none" stroke="#000000" d="M495,46L495,56L495,65L495,77L496,89L497,102L497,115L498,127L499,136L499,147L499,156L500,163L500,170L500,177L500,183L500,188L499,193L497,197L494,201L488,205L481,208L471,211L458,213L443,213L421,214L400,214L378,214L356,214L334,214L313,214L294,213L276,211L262,204" stroke-opacity="1" stroke-width="5" stroke-linecap="round" stroke-linejoin="round" style="-webkit-tap-highlight-color: rgba(0, 0, 0, 0); stroke-opacity: 1; stroke-linecap: round; stroke-linejoin: round; -webkit-user-select: text;"></path><path fill="none" stroke="#000000" d="M295,49L295,62L295,72L295,82L295,92L295,102L296,110L297,119L299,128L300,136L302,142L304,149L306,154L309,158L312,161L315,165L320,167L327,169L334,171L344,172L354,173L368,174L381,174L396,174L414,173L431,172L449,170L468,167L487,165L508,162L527,155" stroke-opacity="1" stroke-width="5" stroke-linecap="round" stroke-linejoin="round" style="-webkit-tap-highlight-color: rgba(0, 0, 0, 0); stroke-opacity: 1; stroke-linecap: round; stroke-linejoin: round; -webkit-user-select: text;"></path><path fill="none" stroke="#000000" d="M328,46L331,50L341,53L352,55L366,56L381,57L396,57L410,57L424,57L437,57L446,58L452,60L458,63L462,66L465,70L468,74L470,79L472,84L475,91L477,99L479,107L480,116L482,126L482,137L482,150L482,162L482,175L480,188L477,201L474,213L470,224L467,235L464,245L459,253" stroke-opacity="1" stroke-width="5" stroke-linecap="round" stroke-linejoin="round" style="-webkit-tap-highlight-color: rgba(0, 0, 0, 0); stroke-opacity: 1; stroke-linecap: round; stroke-linejoin: round; -webkit-user-select: text;"></path><path fill="none" stroke="#000000" d="M340,6L339,18L339,31L339,43L339,57L339,70L339,82L341,94L344,104L347,113L350,122L354,129L359,136L364,141L370,145L378,148L388,150L399,152L412,153L424,153L439,153L453,153L469,153L487,153L505,151L524,149L543,146L565,143L585,138L593,132" stroke-opacity="1" stroke-width="5" stroke-linecap="round" stroke-linejoin="round" style="-webkit-tap-highlight-color: rgba(0, 0, 0, 0); stroke-opacity: 1; stroke-linecap: round; stroke-linejoin: round; -webkit-user-select: text;"></path><path fill="none" stroke="#000000" d="M463,2L461,12L461,22L461,33L460,46L460,58L459,71L458,81L458,92L457,102L457,110L457,119L456,126L456,133L455,140L453,148L451,155L448,162L444,169L440,175L435,181L428,187L421,191L411,195L401,198L388,199L374,199L355,199L336,198L314,195L291,191L268,189L245,187L226,184L207,182" stroke-opacity="1" stroke-width="5" stroke-linecap="round" stroke-linejoin="round" style="-webkit-tap-highlight-color: rgba(0, 0, 0, 0); stroke-opacity: 1; stroke-linecap: round; stroke-linejoin: round; -webkit-user-select: text;"></path><path fill="none" stroke="#000000" d="M215,30L212,45L212,55L211,66L211,78L211,88L211,100L211,111L211,123L211,134L211,145L211,157L210,167L210,177L209,187L208,197L208,206L208,214L208,222L208,230L208,237L208,243L211,250L215,256L220,261L229,267L239,271L256,274L275,276L298,276L327,274L353,268L379,262L400,252" stroke-opacity="1" stroke-width="5" stroke-linecap="round" stroke-linejoin="round" style="-webkit-tap-highlight-color: rgba(0, 0, 0, 0); stroke-opacity: 1; stroke-linecap: round; stroke-linejoin: round; -webkit-user-select: text;"></path><path fill="none" stroke="#000000" d="M276,98L274,111L273,123L272,135L271,150L271,164L271,178L271,191L271,204L272,216L273,228L273,238L273,247L273,257L273,266L273,273L271,279L268,285L265,290L260,294L254,297L246,300L234,302L222,304L210,306L197,308L184,308L170,308L156,308L141,308L127,308L115,308L105,308L97,307L90,303L82,295" stroke-opacity="1" stroke-width="5" stroke-linecap="round" stroke-linejoin="round" style="-webkit-tap-highlight-color: rgba(0, 0, 0, 0); stroke-opacity: 1; stroke-linecap: round; stroke-linejoin: round; -webkit-user-select: text;"></path><path fill="none" stroke="#000000" d="M133,182L130,195L130,206L129,220L129,239L129,254L129,269L129,284L129,298L129,311L129,322L129,334L129,345L129,356L129,366L129,376L129,385L129,392L129,400L129,406L129,412L131,417L133,421L137,425L142,428L149,432L159,435L171,437L189,438L208,439L229,439L255,437L281,432L307,426L336,418L369,403" stroke-opacity="1" stroke-width="5" stroke-linecap="round" stroke-linejoin="round" style="-webkit-tap-highlight-color: rgba(0, 0, 0, 0); stroke-opacity: 1; stroke-linecap: round; stroke-linejoin: round; -webkit-user-select: text;"></path><path fill="none" stroke="#000000" d="M183,196L180,219L180,233L180,246L180,261L181,274L182,287L183,300L185,314L186,328L186,341L186,352L186,363L186,373L186,383L186,391L186,398L185,404L183,409L181,412L178,415L173,416L166,418L155,419L143,421L129,423L114,425L100,426L89,427L77,427L66,420L52,411" stroke-opacity="1" stroke-width="5" stroke-linecap="round" stroke-linejoin="round" style="-webkit-tap-highlight-color: rgba(0, 0, 0, 0); stroke-opacity: 1; stroke-linecap: round; stroke-linejoin: round; -webkit-user-select: text;"></path><path fill="none" stroke="#000000" d="M55,312L57,324L64,328L79,331L100,332L125,332L151,332L175,332L198,333L218,335L236,337L250,339L263,342L272,344L280,347L285,350L289,354L292,358L294,363L296,369L298,375L299,382L300,391L301,400L302,411L303,424L303,438L303,453L303,469L302,483L300,498L297,511L294,524L289,541L281,558L275,566" stroke-opacity="1" stroke-width="5" stroke-linecap="round" stroke-linejoin="round" style="-webkit-tap-highlight-color: rgba(0, 0, 0, 0); stroke-opacity: 1; stroke-linecap: round; stroke-linejoin: round; -webkit-user-select: text;"></path><path fill="none" stroke="#000000" d="M70,395L77,401L87,402L104,402L124,403L144,403L159,403L175,403L188,403L198,403L205,405L210,407L214,409L216,413L217,418L218,423L219,430L220,438L220,446L220,456L221,466L221,476L221,488L221,498L221,511L220,524L218,537L216,550L215,563L212,575L210,587L206,598L203,602" stroke-opacity="1" stroke-width="5" stroke-linecap="round" stroke-linejoin="round" style="-webkit-tap-highlight-color: rgba(0, 0, 0, 0); stroke-opacity: 1; stroke-linecap: round; stroke-linejoin: round; -webkit-user-select: text;"></path><path fill="none" stroke="#000000" d="M28,461L33,467L41,469L52,472L69,475L83,477L98,479L114,480L129,481L144,482L157,484L169,486L178,487L188,488L198,490L207,491L216,493L225,494L233,495L239,495L246,495L251,495L256,492L259,489L263,483L267,476L271,468L274,457L276,447L278,435L278,422L279,408L279,390L279,371L278,350" stroke-opacity="1" stroke-width="5" stroke-linecap="round" stroke-linejoin="round" style="-webkit-tap-highlight-color: rgba(0, 0, 0, 0); stroke-opacity: 1; stroke-linecap: round; stroke-linejoin: round; -webkit-user-select: text;"></path><path fill="none" stroke="#000000" d="M147,171L147,186L147,197L151,211L154,224L157,238L160,253L162,269L164,283L165,297L166,310L166,321L167,331L168,340L169,348L170,354L172,361L176,366L179,371L184,374L190,379L197,382L206,384L218,386L233,387L249,388L269,388L289,388L314,384L339,379L366,372L399,362L424,349" stroke-opacity="1" stroke-width="5" stroke-linecap="round" stroke-linejoin="round" style="-webkit-tap-highlight-color: rgba(0, 0, 0, 0); stroke-opacity: 1; stroke-linecap: round; stroke-linejoin: round; -webkit-user-select: text;"></path><path fill="none" stroke="#000000" d="M300,109L310,113L322,116L335,119L349,121L363,123L379,126L395,128L409,130L422,132L432,133L441,135L446,137L451,139L455,143L458,147L460,154L463,161L465,169L466,179L468,189L468,203L468,216L468,230L468,246L468,265L468,283L467,301L467,316L466,332L466,349L466,364L467,373" stroke-opacity="1" stroke-width="5" stroke-linecap="round" stroke-linejoin="round" style="-webkit-tap-highlight-color: rgba(0, 0, 0, 0); stroke-opacity: 1; stroke-linecap: round; stroke-linejoin: round; -webkit-user-select: text;"></path><path fill="none" stroke="#000000" d="M459,71L468,74L480,75L497,77L516,77L533,78L548,78L565,78L581,78L594,78L603,78L608,80L611,83L613,87L613,91L613,97L613,103L612,110L611,119L609,128L607,141L605,154L604,168L603,183L603,198L602,214L601,230L600,249L599,266L599,281L597,297L595,313L592,326L588,338L583,349L575,360L566,364" stroke-opacity="1" stroke-width="5" stroke-linecap="round" stroke-linejoin="round" style="-webkit-tap-highlight-color: rgba(0, 0, 0, 0); stroke-opacity: 1; stroke-linecap: round; stroke-linejoin: round; -webkit-user-select: text;"></path><path fill="none" stroke="#000000" d="M456,146L460,152L465,155L474,160L487,163L504,167L523,169L541,172L558,175L574,178L587,181L599,182L607,184L615,184L623,185L628,185L635,185L640,185L646,184L652,180L657,175L662,170L666,162L669,155L671,146L672,137L672,126L672,115L672,100L672,85L672,69L672,54L672,40L672,30" stroke-opacity="1" stroke-width="5" stroke-linecap="round" stroke-linejoin="round" style="-webkit-tap-highlight-color: rgba(0, 0, 0, 0); stroke-opacity: 1; stroke-linecap: round; stroke-linejoin: round; -webkit-user-select: text;"></path><path fill="none" stroke="#000000" d="M621,22L619,47L618,63L616,75L615,88L615,99L614,111L613,125L612,139L611,154L611,169L610,182L609,194L609,207L608,217L608,228L607,239L606,248L605,257L603,265L599,271L594,275L584,279L569,281L550,283L528,284L499,284L468,284L438,284L416,284L397,281L383,275" stroke-opacity="1" stroke-width="5" stroke-linecap="round" stroke-linejoin="round" style="-webkit-tap-highlight-color: rgba(0, 0, 0, 0); stroke-opacity: 1; stroke-linecap: round; stroke-linejoin: round; -webkit-user-select: text;"></path><path fill="none" stroke="#000000" d="M479,133L493,134L509,134L529,134L551,134L573,133L591,132L604,131L614,131L623,131L629,131L633,131L637,131L639,132L640,133L641,135L642,137L643,141L643,146L644,153L644,161L645,171L645,181L645,191L645,202L645,214L645,227L645,239L644,252L641,266L639,279L635,292L632,304L628,316L623,328L618,338L611,347L598,355" stroke-opacity="1" stroke-width="5" stroke-linecap="round" stroke-linejoin="round" style="-webkit-tap-highlight-color: rgba(0, 0, 0, 0); stroke-opacity: 1; stroke-linecap: round; stroke-linejoin: round; -webkit-user-select: text;"></path><path fill="none" stroke="#000000" d="M466,204L486,200L507,200L530,199L552,199L574,199L594,199L611,199L627,200L640,202L652,204L661,206L669,208L675,210L681,212L685,214L687,217L690,222L691,228L691,234L691,242L691,252L691,261L691,274L691,286L690,298L689,311L689,323L689,337L689,349L689,362L688,372L686,382L682,390L676,398L664,404L645,409L615,414L583,417L549,418L517,418L492,413" stroke-opacity="1" stroke-width="5" stroke-linecap="round" stroke-linejoin="round" style="-webkit-tap-highlight-color: rgba(0, 0, 0, 0); stroke-opacity: 1; stroke-linecap: round; stroke-linejoin: round; -webkit-user-select: text;"></path><path fill="none" stroke="#000000" d="M647,222L645,227L643,235L639,245L635,260L632,272L630,286L629,299L629,311L628,323L628,334L628,345L628,355L628,365L627,374L626,382L626,389L626,396L626,401L626,407L626,411L627,416L629,420L632,423L638,427L646,430L659,434L679,435L711,435L734,425" stroke-opacity="1" stroke-width="5" stroke-linecap="round" stroke-linejoin="round" style="-webkit-tap-highlight-color: rgba(0, 0, 0, 0); stroke-opacity: 1; stroke-linecap: round; stroke-linejoin: round; -webkit-user-select: text;"></path><path fill="none" stroke="#000000" d="M523,312L522,332L522,345L522,359L523,374L525,388L527,403L528,415L529,427L531,439L531,449L532,460L532,470L533,478L533,487L533,494L534,501L535,508L536,514L537,520L539,525L541,530L545,536L550,541L558,546L568,551L584,555L601,557L621,558L640,558L657,555L670,549L682,539L695,518" stroke-opacity="1" stroke-width="5" stroke-linecap="round" stroke-linejoin="round" style="-webkit-tap-highlight-color: rgba(0, 0, 0, 0); stroke-opacity: 1; stroke-linecap: round; stroke-linejoin: round; -webkit-user-select: text;"></path><path fill="none" stroke="#000000" d="M520,389L519,396L521,398L530,399L546,401L565,402L584,403L602,403L616,403L630,404L639,406L645,408L650,412L653,417L655,422L656,427L658,435L659,444L660,452L661,462L662,472L663,482L663,493L664,503L664,513L665,524L666,536L666,547L666,557L665,566L660,576L651,585L638,592L620,598L595,603L568,605L538,605L497,599L460,588" stroke-opacity="1" stroke-width="5" stroke-linecap="round" stroke-linejoin="round" style="-webkit-tap-highlight-color: rgba(0, 0, 0, 0); stroke-opacity: 1; stroke-linecap: round; stroke-linejoin: round; -webkit-user-select: text;"></path><path fill="none" stroke="#000000" d="M426,449L424,455L424,461L422,467L420,476L419,484L418,494L417,505L417,515L417,525L417,536L417,546L417,556L417,566L417,575L417,582L417,590L417,598L417,605L417,611L417,617L418,623L420,628L423,633L427,638L433,643L442,648L454,652L472,656L493,657L516,657L542,656L565,651L588,642L612,628L631,605" stroke-opacity="1" stroke-width="5" stroke-linecap="round" stroke-linejoin="round" style="-webkit-tap-highlight-color: rgba(0, 0, 0, 0); stroke-opacity: 1; stroke-linecap: round; stroke-linejoin: round; -webkit-user-select: text;"></path><path fill="none" stroke="#000000" d="M425,496L429,501L438,501L455,501L477,501L501,500L524,500L543,500L556,500L568,500L575,503L580,506L584,510L586,516L588,522L589,530L591,538L592,547L593,556L594,567L594,578L594,589L594,600L594,613L594,625L592,637L589,649L586,660L582,671L578,681L572,690L565,698L555,706L541,714L519,722L499,722" stroke-opacity="1" stroke-width="5" stroke-linecap="round" stroke-linejoin="round" style="-webkit-tap-highlight-color: rgba(0, 0, 0, 0); stroke-opacity: 1; stroke-linecap: round; stroke-linejoin: round; -webkit-user-select: text;"></path><path fill="none" stroke="#000000" d="M424,536L422,546L422,553L421,561L420,570L419,582L419,595L419,607L419,617L419,629L419,640L419,652L419,663L419,673L419,682L419,690L419,698L419,704L419,710L420,716L424,721L429,726L435,730L444,734L455,738L469,741L487,743L506,743L525,743L545,743L562,740L580,736L598,733L615,729L639,722L668,709" stroke-opacity="1" stroke-width="5" stroke-linecap="round" stroke-linejoin="round" style="-webkit-tap-highlight-color: rgba(0, 0, 0, 0); stroke-opacity: 1; stroke-linecap: round; stroke-linejoin: round; -webkit-user-select: text;"></path><path fill="none" stroke="#000000" d="M654,558L652,570L651,578L650,587L650,599L649,611L648,624L648,635L647,647L647,658L647,669L647,679L646,689L646,699L646,707L645,715L645,723L645,731L643,737L641,745L639,751L635,757L628,764L620,769L611,774L604,777L594,780L584,782L573,782L559,782L543,775L526,768L510,759L495,750L483,740L465,722" stroke-opacity="1" stroke-width="5" stroke-linecap="round" stroke-linejoin="round" style="-webkit-tap-highlight-color: rgba(0, 0, 0, 0); stroke-opacity: 1; stroke-linecap: round; stroke-linejoin: round; -webkit-user-select: text;"></path><path fill="none" stroke="#000000" d="M530,578L525,596L521,607L518,618L514,632L512,646L510,661L509,675L509,687L508,699L507,709L507,720L505,730L502,741L499,751L497,758L493,766L489,774L483,780L478,786L471,792L463,797L454,800L444,803L433,806L420,807L404,807L384,807L364,803L339,794L311,781L287,761" stroke-opacity="1" stroke-width="5" stroke-linecap="round" stroke-linejoin="round" style="-webkit-tap-highlight-color: rgba(0, 0, 0, 0); stroke-opacity: 1; stroke-linecap: round; stroke-linejoin: round; -webkit-user-select: text;"></path><path fill="none" stroke="#000000" d="M341,561L339,577L336,590L334,605L334,620L334,637L334,652L334,667L334,681L334,695L334,707L332,719L330,731L327,741L324,751L321,758L317,766L312,774L307,780L301,786L296,791L290,794L283,798L276,800L268,802L259,803L249,804L236,804L222,804L204,804L181,798L160,789L141,775" stroke-opacity="1" stroke-width="5" stroke-linecap="round" stroke-linejoin="round" style="-webkit-tap-highlight-color: rgba(0, 0, 0, 0); stroke-opacity: 1; stroke-linecap: round; stroke-linejoin: round; -webkit-user-select: text;"></path><path fill="none" stroke="#000000" d="M103,610L104,632L104,647L105,664L107,681L108,695L109,709L110,723L110,734L111,746L111,756L111,766L111,775L111,784L111,793L111,801L113,807L114,811L117,816L120,820L125,823L130,826L137,829L145,831L157,833L169,834L185,835L201,836L221,836L240,836L259,832L278,828L289,824" stroke-opacity="1" stroke-width="5" stroke-linecap="round" stroke-linejoin="round" style="-webkit-tap-highlight-color: rgba(0, 0, 0, 0); stroke-opacity: 1; stroke-linecap: round; stroke-linejoin: round; -webkit-user-select: text;"></path><path fill="none" stroke="#000000" d="M243,840L243,842L243,839L243,834L242,827L241,818L240,808L239,798L238,787L237,777L235,767L234,756L232,744L230,733L229,721L228,708L227,696L226,687L224,678L222,670L218,663L215,657L210,652L205,648L197,643L190,639L179,636L170,634L156,634L142,634L127,633L107,633L83,632L59,632" stroke-opacity="1" stroke-width="5" stroke-linecap="round" stroke-linejoin="round" style="-webkit-tap-highlight-color: rgba(0, 0, 0, 0); stroke-opacity: 1; stroke-linecap: round; stroke-linejoin: round; -webkit-user-select: text;"></path><path fill="none" stroke="#000000" d="M84,510L82,505L82,506L82,511L82,517L83,525L84,534L84,544L84,554L85,567L85,577L85,588L85,597L85,607L85,616L85,625L85,634L85,642L87,650L89,657L91,664L95,671L98,677L103,682L108,687L113,691L120,695L129,697L142,698L160,698L179,697L200,692L222,685L238,677" stroke-opacity="1" stroke-width="5" stroke-linecap="round" stroke-linejoin="round" style="-webkit-tap-highlight-color: rgba(0, 0, 0, 0); stroke-opacity: 1; stroke-linecap: round; stroke-linejoin: round; -webkit-user-select: text;"></path><path fill="none" stroke="#000000" d="M111,613L109,599L109,591L109,583L109,572L109,559L110,546L111,533L112,523L113,513L113,505L113,496L113,487L113,479L112,471L110,462L108,456L106,451L103,447L101,445L98,444L95,443L90,443L84,443L75,443L67,443L60,443L54,441L50,439L41,435" stroke-opacity="1" stroke-width="5" stroke-linecap="round" stroke-linejoin="round" style="-webkit-tap-highlight-color: rgba(0, 0, 0, 0); stroke-opacity: 1; stroke-linecap: round; stroke-linejoin: round; -webkit-user-select: text;"></path><path fill="none" stroke="#000000" d="M55,418L53,414L53,410L52,403L50,395L48,385L47,376L46,368L46,359L45,352L45,345L45,338L45,331L45,325L45,318L45,313L45,306L45,301L45,295L46,289L48,282L50,277L53,269L56,263L58,259L61,256L64,254L68,253L74,253L84,253L97,254L112,255L131,256L150,256L171,256L197,251L213,248" stroke-opacity="1" stroke-width="5" stroke-linecap="round" stroke-linejoin="round" style="-webkit-tap-highlight-color: rgba(0, 0, 0, 0); stroke-opacity: 1; stroke-linecap: round; stroke-linejoin: round; -webkit-user-select: text;"></path><path fill="none" stroke="#000000" d="M145,117L147,121L147,129L147,139L147,151L148,162L148,175L149,186L149,198L149,209L149,220L149,229L149,238L149,246L149,254L149,261L149,268L149,274L147,280L143,284L139,288L134,290L127,291L118,292L109,293L99,294L88,295L78,296L69,297L61,297L53,297L46,291" stroke-opacity="1" stroke-width="5" stroke-linecap="round" stroke-linejoin="round" style="-webkit-tap-highlight-color: rgba(0, 0, 0, 0); stroke-opacity: 1; stroke-linecap: round; stroke-linejoin: round; -webkit-user-select: text;"></path><path fill="none" stroke="#000000" d="M67,99L67,112L67,124L67,138L67,153L67,166L68,176L68,187L69,197L70,207L71,216L72,224L73,231L74,238L76,245L77,251L79,257L81,262L83,266L86,270L89,273L93,277L98,279L105,283L113,285L121,286L132,287L145,287L159,286L175,282L189,277L203,271L217,264L239,250" stroke-opacity="1" stroke-width="5" stroke-linecap="round" stroke-linejoin="round" style="-webkit-tap-highlight-color: rgba(0, 0, 0, 0); stroke-opacity: 1; stroke-linecap: round; stroke-linejoin: round; -webkit-user-select: text;"></path><path fill="none" stroke="#000000" d="M91,97L98,97L106,98L117,99L130,99L143,98L157,97L170,97L183,97L193,96L204,96L211,96L217,96L221,96L224,96L226,98L227,101L228,106L230,111L232,119L233,126L234,135L236,145L236,156L237,167L237,181L237,193L237,205L237,218L234,230L231,243L226,257L221,268L213,282L205,297L196,311" stroke-opacity="1" stroke-width="5" stroke-linecap="round" stroke-linejoin="round" style="-webkit-tap-highlight-color: rgba(0, 0, 0, 0); stroke-opacity: 1; stroke-linecap: round; stroke-linejoin: round; -webkit-user-select: text;"></path><path fill="none" stroke="#000000" d="M85,147L92,152L101,152L115,153L132,153L149,154L166,154L182,154L198,155L212,155L225,155L235,155L246,156L256,156L265,156L273,157L281,157L288,157L293,158L298,158L302,158L307,157L310,153L312,148L315,141L317,132L319,123L321,112L322,101L322,89L322,76L322,67L322,57L319,49L315,45" stroke-opacity="1" stroke-width="5" stroke-linecap="round" stroke-linejoin="round" style="-webkit-tap-highlight-color: rgba(0, 0, 0, 0); stroke-opacity: 1; stroke-linecap: round; stroke-linejoin: round; -webkit-user-select: text;"></path><path fill="none" stroke="#000000" d="M243,21L242,27L242,40L240,56L239,75L238,89L237,104L237,117L237,129L237,143L237,157L238,171L239,185L239,197L239,207L240,218L240,230L240,241L240,254L239,264L237,275L234,284L229,292L225,298L217,305L209,311L199,315L186,320L170,323L152,326L135,328L115,329L97,329L79,329L65,329L51,329L41,329L33,329L26,329" stroke-opacity="1" stroke-width="5" stroke-linecap="round" stroke-linejoin="round" style="-webkit-tap-highlight-color: rgba(0, 0, 0, 0); stroke-opacity: 1; stroke-linecap: round; stroke-linejoin: round; -webkit-user-select: text;"></path><path fill="none" stroke="#000000" d="M131,257L130,264L130,274L130,285L130,298L129,312L128,325L128,337L128,349L128,360L128,374L128,386L128,395L128,406L128,415L128,425L128,433L130,440L132,446L134,452L138,458L143,463L148,468L154,473L161,477L169,481L179,485L193,487L212,488L234,488L260,485L282,480L304,473L326,464L342,452" stroke-opacity="1" stroke-width="5" stroke-linecap="round" stroke-linejoin="round" style="-webkit-tap-highlight-color: rgba(0, 0, 0, 0); stroke-opacity: 1; stroke-linecap: round; stroke-linejoin: round; -webkit-user-select: text;"></path><path fill="none" stroke="#000000" d="M106,356L118,359L135,361L158,362L181,362L203,362L225,361L247,359L269,357L290,357L308,357L322,357L333,358L341,361L348,366L353,371L358,379L362,388L366,396L368,405L371,416L373,425L373,438L374,450L374,464L374,477L373,490L370,504L365,520L359,533L352,545L346,555L336,566L327,574L314,581L290,587L261,587" stroke-opacity="1" stroke-width="5" stroke-linecap="round" stroke-linejoin="round" style="-webkit-tap-highlight-color: rgba(0, 0, 0, 0); stroke-opacity: 1; stroke-linecap: round; stroke-linejoin: round; -webkit-user-select: text;"></path><path fill="none" stroke="#000000" d="M115,461L118,464L126,464L142,464L162,465L182,465L202,466L221,466L241,466L261,466L278,467L292,467L306,468L316,469L325,471L333,473L339,475L343,478L346,483L349,490L350,497L351,504L351,513L351,522L350,532L348,544L347,554L345,566L344,578L342,590L341,601L340,613L339,625L337,634L337,645L337,655L337,664L339,673L346,682L357,691L380,698L412,696" stroke-opacity="1" stroke-width="5" stroke-linecap="round" stroke-linejoin="round" style="-webkit-tap-highlight-color: rgba(0, 0, 0, 0); stroke-opacity: 1; stroke-linecap: round; stroke-linejoin: round; -webkit-user-select: text;"></path><path fill="none" stroke="#000000" d="M399,466L397,476L395,484L393,496L391,510L389,524L388,539L388,554L388,569L388,585L388,601L388,616L389,629L390,640L392,651L394,658L397,667L400,674L404,680L407,685L412,690L417,695L422,698L429,702L436,704L446,706L458,707L472,708L490,708L509,708L531,705L554,699L577,688L604,668" stroke-opacity="1" stroke-width="5" stroke-linecap="round" stroke-linejoin="round" style="-webkit-tap-highlight-color: rgba(0, 0, 0, 0); stroke-opacity: 1; stroke-linecap: round; stroke-linejoin: round; -webkit-user-select: text;"></path><path fill="none" stroke="#000000" d="M500,456L496,476L494,489L492,504L492,521L492,537L492,554L492,570L492,588L492,603L493,619L493,634L494,649L494,663L494,675L494,686L492,695L489,705L485,713L479,721L472,728L462,734L451,738L439,741L425,741L406,741L387,741L367,741L346,741L325,741L305,741L291,741L280,741L270,739L261,730L256,712" stroke-opacity="1" stroke-width="5" stroke-linecap="round" stroke-linejoin="round" style="-webkit-tap-highlight-color: rgba(0, 0, 0, 0); stroke-opacity: 1; stroke-linecap: round; stroke-linejoin: round; -webkit-user-select: text;"></path><path fill="none" stroke="#000000" d="M290,447L288,454L286,464L283,476L281,493L281,507L281,527L281,544L282,561L284,578L285,593L285,609L285,624L285,637L285,650L285,662L283,673L280,681L277,689L273,696L269,702L265,706L260,709L255,712L249,713L242,713L235,713L226,713L216,713L204,712L193,710L182,708L174,706L168,702L164,695L160,679" stroke-opacity="1" stroke-width="5" stroke-linecap="round" stroke-linejoin="round" style="-webkit-tap-highlight-color: rgba(0, 0, 0, 0); stroke-opacity: 1; stroke-linecap: round; stroke-linejoin: round; -webkit-user-select: text;"></path><path fill="none" stroke="#000000" d="M329,467L325,479L321,491L318,507L317,521L317,536L317,551L317,565L317,579L317,594L317,607L317,620L317,633L316,645L315,657L314,668L313,679L312,689L312,698L312,706L312,713L317,719L324,726L333,732L344,737L361,740L377,742L395,742L415,741L437,732L456,719L473,700" stroke-opacity="1" stroke-width="5" stroke-linecap="round" stroke-linejoin="round" style="-webkit-tap-highlight-color: rgba(0, 0, 0, 0); stroke-opacity: 1; stroke-linecap: round; stroke-linejoin: round; -webkit-user-select: text;"></path><path fill="none" stroke="#000000" d="M174,571L172,581L178,581L193,583L215,585L244,586L271,587L293,587L315,588L334,590L349,593L361,595L369,599L375,603L380,609L383,616L385,624L387,632L389,642L390,652L391,663L392,673L392,685L392,697L392,709L391,721L387,731L382,742L375,752L369,760L360,767L351,773L341,779L327,783L310,785L282,785L250,775L229,756L216,728" stroke-opacity="1" stroke-width="5" stroke-linecap="round" stroke-linejoin="round" style="-webkit-tap-highlight-color: rgba(0, 0, 0, 0); stroke-opacity: 1; stroke-linecap: round; stroke-linejoin: round; -webkit-user-select: text;"></path><path fill="none" stroke="#000000" d="M253,520L247,524L246,536L244,553L242,570L242,585L241,602L240,617L240,632L239,646L239,661L238,675L237,688L234,700L233,709L232,719L231,729L231,736L231,743L231,750L234,757L237,763L243,768L251,774L260,779L271,782L284,785L298,787L315,787L335,787L355,787L377,785L402,779L427,770L458,753" stroke-opacity="1" stroke-width="5" stroke-linecap="round" stroke-linejoin="round" style="-webkit-tap-highlight-color: rgba(0, 0, 0, 0); stroke-opacity: 1; stroke-linecap: round; stroke-linejoin: round; -webkit-user-select: text;"></path><path fill="none" stroke="#000000" d="M212,707L213,712L214,716L218,721L227,725L242,730L260,732L279,733L300,733L321,733L340,733L355,733L369,733L381,734L391,735L402,736L413,738L422,740L431,742L437,746L441,748L445,753L447,758L449,764L449,772L450,781L450,790L450,800L450,810L448,819L447,828L446,836L446,844L446,854L446,859L446,857" stroke-opacity="1" stroke-width="5" stroke-linecap="round" stroke-linejoin="round" style="-webkit-tap-highlight-color: rgba(0, 0, 0, 0); stroke-opacity: 1; stroke-linecap: round; stroke-linejoin: round; -webkit-user-select: text;"></path><path fill="none" stroke="#000000" d="M507,541L504,558L502,570L500,586L499,605L499,624L499,639L499,658L499,675L499,690L499,706L499,720L499,734L499,746L499,756L498,766L497,776L496,785L496,791L496,799L496,806L499,811L504,816L512,820L521,823L531,826L541,828L551,829L564,829L577,829L593,826L609,817L631,799" stroke-opacity="1" stroke-width="5" stroke-linecap="round" stroke-linejoin="round" style="-webkit-tap-highlight-color: rgba(0, 0, 0, 0); stroke-opacity: 1; stroke-linecap: round; stroke-linejoin: round; -webkit-user-select: text;"></path><path fill="none" stroke="#000000" d="M560,516L561,526L561,541L561,561L561,581L562,601L564,620L565,637L566,655L566,672L566,687L566,703L566,719L566,733L567,746L567,758L569,768L570,777L573,786L576,793L579,799L584,804L590,808L599,812L609,815L622,817L640,819L661,819L687,816L717,803L740,785" stroke-opacity="1" stroke-width="5" stroke-linecap="round" stroke-linejoin="round" style="-webkit-tap-highlight-color: rgba(0, 0, 0, 0); stroke-opacity: 1; stroke-linecap: round; stroke-linejoin: round; -webkit-user-select: text;"></path><path fill="none" stroke="#000000" d="M666,466L665,488L665,501L664,519L664,538L664,558L664,578L664,597L664,612L664,629L664,644L664,659L664,673L664,683L663,694L661,703L658,711L653,719L646,726L637,732L626,738L611,743L600,746L584,750L570,751L555,753L540,753L526,753L511,753L499,750L488,745L476,733L461,707" stroke-opacity="1" stroke-width="5" stroke-linecap="round" stroke-linejoin="round" style="-webkit-tap-highlight-color: rgba(0, 0, 0, 0); stroke-opacity: 1; stroke-linecap: round; stroke-linejoin: round; -webkit-user-select: text;"></path><path fill="none" stroke="#000000" d="M570,415L570,424L570,437L569,456L568,475L567,493L567,511L568,528L570,544L573,558L576,571L579,582L583,592L587,600L592,606L596,612L602,616L609,621L617,625L626,629L635,631L644,633L653,635L663,636L674,636L686,636L696,632L709,623L724,607L740,582" stroke-opacity="1" stroke-width="5" stroke-linecap="round" stroke-linejoin="round" style="-webkit-tap-highlight-color: rgba(0, 0, 0, 0); stroke-opacity: 1; stroke-linecap: round; stroke-linejoin: round; -webkit-user-select: text;"></path><path fill="none" stroke="#000000" d="M677,230L674,252L672,269L669,289L669,310L669,329L670,347L672,366L674,383L675,398L676,413L677,425L677,436L678,447L678,456L678,464L677,471L674,478L670,483L664,489L655,494L645,498L633,500L620,502L606,502L591,502L573,502L554,501L534,498L514,494L494,489L475,479L458,465" stroke-opacity="1" stroke-width="5" stroke-linecap="round" stroke-linejoin="round" style="-webkit-tap-highlight-color: rgba(0, 0, 0, 0); stroke-opacity: 1; stroke-linecap: round; stroke-linejoin: round; -webkit-user-select: text;"></path><path fill="none" stroke="#000000" d="M422,252L429,259L445,260L473,260L501,262L528,263L550,263L574,263L594,263L613,264L627,264L640,265L649,265L658,265L664,265L669,262L674,259L678,255L682,250L686,244L690,235L695,226L699,215L701,204L703,192L703,179L703,166L703,152L702,137L699,119L696,101L683,76" stroke-opacity="1" stroke-width="5" stroke-linecap="round" stroke-linejoin="round" style="-webkit-tap-highlight-color: rgba(0, 0, 0, 0); stroke-opacity: 1; stroke-linecap: round; stroke-linejoin: round; -webkit-user-select: text;"></path><path fill="none" stroke="#000000" d="M623,16L623,28L623,44L621,62L620,82L618,102L618,119L618,133L618,148L618,162L618,175L618,188L618,197L618,207L618,216L618,223L616,230L613,237L609,243L605,247L600,250L593,254L586,256L577,257L567,257L555,257L541,257L527,254L510,250L494,248L477,246L460,245L441,243L422,243L402,242L382,240L363,238L340,232L327,224" stroke-opacity="1" stroke-width="5" stroke-linecap="round" stroke-linejoin="round" style="-webkit-tap-highlight-color: rgba(0, 0, 0, 0); stroke-opacity: 1; stroke-linecap: round; stroke-linejoin: round; -webkit-user-select: text;"></path><path fill="none" stroke="#000000" d="M528,17L525,34L522,50L519,68L516,85L515,98L514,111L514,123L514,136L514,150L514,164L514,178L514,191L514,203L514,216L514,228L513,241L511,253L510,265L508,277L507,286L507,296L507,305L507,313L507,320L513,328L519,334L527,339L538,342L551,345L566,346L581,346L598,345L614,337L637,324L652,304" stroke-opacity="1" stroke-width="5" stroke-linecap="round" stroke-linejoin="round" style="-webkit-tap-highlight-color: rgba(0, 0, 0, 0); stroke-opacity: 1; stroke-linecap: round; stroke-linejoin: round; -webkit-user-select: text;"></path><path fill="none" stroke="#000000" d="M467,117L473,118L487,119L505,119L524,119L539,119L554,118L568,118L582,118L593,118L603,118L609,118L613,121L616,126L617,131L618,137L618,145L618,154L619,163L619,174L619,186L619,199L619,211L618,224L616,237L613,249L611,261L608,273L604,285L596,297L587,307L574,316L556,323L531,329L501,331L469,331L448,320" stroke-opacity="1" stroke-width="5" stroke-linecap="round" stroke-linejoin="round" style="-webkit-tap-highlight-color: rgba(0, 0, 0, 0); stroke-opacity: 1; stroke-linecap: round; stroke-linejoin: round; -webkit-user-select: text;"></path><path fill="none" stroke="#000000" d="M564,95L560,90L548,90L530,90L510,91L492,91L478,91L465,91L454,91L443,92L432,92L422,93L412,93L402,93L392,93L382,93L375,94L369,94L363,96L359,98L356,101L354,105L351,111L349,119L346,129L345,140L344,154L343,167L342,182L341,197L341,211L341,226L342,239L344,252L349,265L356,277L371,284L400,284" stroke-opacity="1" stroke-width="5" stroke-linecap="round" stroke-linejoin="round" style="-webkit-tap-highlight-color: rgba(0, 0, 0, 0); stroke-opacity: 1; stroke-linecap: round; stroke-linejoin: round; -webkit-user-select: text;"></path><path fill="none" stroke="#000000" d="M330,134L331,141L332,141L349,141L380,138L404,134L420,132L432,131L443,131L452,132L460,135L468,137L474,138L480,138L484,138L488,138L491,138L493,134L494,129L495,124L497,118L497,109L498,100L499,90L499,81L499,73L499,63L499,54L499,46L498,38L495,31L491,25L485,19L477,13L462,7" stroke-opacity="1" stroke-width="5" stroke-linecap="round" stroke-linejoin="round" style="-webkit-tap-highlight-color: rgba(0, 0, 0, 0); stroke-opacity: 1; stroke-linecap: round; stroke-linejoin: round; -webkit-user-select: text;"></path><path fill="none" stroke="#000000" d="M428,31L419,41L407,49L391,57L375,61L364,63L355,63L348,64L341,64L333,64L326,64L317,64L307,64L298,64L288,64L277,64L266,64L254,64L241,64L229,64L217,64L204,64L193,64L184,64L178,64L175,64L173,66L171,70L171,77L169,85L166,96L164,109L161,123L159,140L157,157L156,174L156,189L156,204L158,218L163,233L169,246L175,253" stroke-opacity="1" stroke-width="5" stroke-linecap="round" stroke-linejoin="round" style="-webkit-tap-highlight-color: rgba(0, 0, 0, 0); stroke-opacity: 1; stroke-linecap: round; stroke-linejoin: round; -webkit-user-select: text;"></path><path fill="none" stroke="#000000" d="M81,138L85,138L93,138L108,140L127,141L146,141L162,141L179,141L195,141L211,141L224,141L234,141L242,141L250,142L256,142L261,142L266,142L270,142L273,142L278,142L282,139L286,136L290,131L293,126L295,119L298,112L299,104L300,94L301,85L301,72L301,60L301,48L299,37L298,28L295,18L290,10" stroke-opacity="1" stroke-width="5" stroke-linecap="round" stroke-linejoin="round" style="-webkit-tap-highlight-color: rgba(0, 0, 0, 0); stroke-opacity: 1; stroke-linecap: round; stroke-linejoin: round; -webkit-user-select: text;"></path><path fill="none" stroke="#000000" d="M215,20L214,26L214,36L212,48L211,59L209,72L208,81L207,91L206,100L206,110L206,121L206,131L206,143L205,153L205,162L204,172L204,181L203,189L203,196L203,204L202,211L200,217L198,224L194,229L189,234L183,237L174,241L163,245L149,248L135,251L119,253L104,254L89,254L75,254L62,254L50,252L38,248L24,239L17,222" stroke-opacity="1" stroke-width="5" stroke-linecap="round" stroke-linejoin="round" style="-webkit-tap-highlight-color: rgba(0, 0, 0, 0); stroke-opacity: 1; stroke-linecap: round; stroke-linejoin: round; -webkit-user-select: text;"></path><path fill="none" stroke="#000000" d="M105,44L106,49L106,61L106,76L105,94L103,108L101,123L100,136L100,150L99,163L98,177L98,187L98,198L98,206L98,213L100,220L103,226L105,233L110,238L114,243L120,248L127,252L136,257L146,261L157,264L169,266L184,266L203,266L221,262L239,256L256,249L272,241L290,229" stroke-opacity="1" stroke-width="5" stroke-linecap="round" stroke-linejoin="round" style="-webkit-tap-highlight-color: rgba(0, 0, 0, 0); stroke-opacity: 1; stroke-linecap: round; stroke-linejoin: round; -webkit-user-select: text;"></path><path fill="none" stroke="#000000" d="M91,133L108,132L135,132L167,132L198,133L225,134L242,136L256,140L266,145L275,153L281,161L285,170L287,179L288,190L288,200L288,213L288,225L288,237L288,250L287,264L286,277L285,291L283,303L281,315L279,326L275,336L269,345L262,352L252,358L239,362L220,364L200,366L180,366L160,367L141,367L122,367L105,367L88,366L71,362L50,350" stroke-opacity="1" stroke-width="5" stroke-linecap="round" stroke-linejoin="round" style="-webkit-tap-highlight-color: rgba(0, 0, 0, 0); stroke-opacity: 1; stroke-linecap: round; stroke-linejoin: round; -webkit-user-select: text;"></path><path fill="none" stroke="#000000" d="M120,307L121,318L121,331L118,346L115,359L112,372L109,384L106,395L105,404L103,415L102,426L101,437L101,447L100,458L100,467L100,476L100,483L100,490L100,499L101,506L103,513L107,520L111,526L118,532L128,537L143,540L161,541L180,541L198,539L213,532L224,524L231,515L235,504L237,493L239,480L239,466L240,447L243,428L246,406L249,385L251,366L257,351L263,343L271,340L285,340L302,343L318,349L329,359L334,374L334,391L333,408L328,425L323,444L319,462L315,480L311,495L308,510L305,522L302,534L301,544L299,553L299,560L298,567L298,573L298,577L295,580" stroke-opacity="1" stroke-width="5" stroke-linecap="round" stroke-linejoin="round" style="-webkit-tap-highlight-color: rgba(0, 0, 0, 0); stroke-opacity: 1; stroke-linecap: round; stroke-linejoin: round; -webkit-user-select: text;"></path><path fill="none" stroke="#000000" d="M124,563L125,574L128,580L134,587L143,592L156,595L176,595L208,593L243,588L285,580L331,573L375,566L414,561L447,556L477,547" stroke-opacity="1" stroke-width="5" stroke-linecap="round" stroke-linejoin="round" style="-webkit-tap-highlight-color: rgba(0, 0, 0, 0); stroke-opacity: 1; stroke-linecap: round; stroke-linejoin: round; -webkit-user-select: text;"></path><path fill="none" stroke="#000000" d="M375,491L370,509L368,517L367,526L367,535L367,544L367,554L367,563L367,573L366,584L365,595L364,607L362,616L359,627L357,638L353,648L351,656L348,664L343,672L337,677L331,680L324,681L314,680L302,674L289,666L274,655L257,639L240,621L219,602L198,585L183,576L171,570L163,569L155,569L149,576L143,589L138,602L135,615L132,631L129,648L126,665L125,683L123,697L123,711L123,723L123,733L123,742L127,750L132,755L143,757L166,757L200,756L234,751L265,748L291,747L313,746L333,741" stroke-opacity="1" stroke-width="5" stroke-linecap="round" stroke-linejoin="round" style="-webkit-tap-highlight-color: rgba(0, 0, 0, 0); stroke-opacity: 1; stroke-linecap: round; stroke-linejoin: round; -webkit-user-select: text;"></path><path fill="none" stroke="#000000" d="M146,676L145,683L162,683L194,683L228,683L265,683L302,680L340,677L376,673L408,670L434,667L452,663L466,661L475,658L480,656L482,656L483,656L483,658L482,662L480,668L478,676L477,686L476,699L474,711L472,724L471,738L468,751L466,763L463,775L460,783L458,791L455,798L453,803L450,808L446,811L443,814L438,817L434,819L429,820L423,821L417,821L409,821L400,821L388,821L375,821L357,819L339,816L318,814L295,811L268,810L246,809L226,807L210,804L197,794" stroke-opacity="1" stroke-width="5" stroke-linecap="round" stroke-linejoin="round" style="-webkit-tap-highlight-color: rgba(0, 0, 0, 0); stroke-opacity: 1; stroke-linecap: round; stroke-linejoin: round; -webkit-user-select: text;"></path><path fill="none" stroke="#000000" d="M461,442L458,472L457,486L455,500L455,515L455,529L455,543L455,557L454,571L453,581L452,592L451,601L451,608L451,613L451,618L453,623L457,626L464,630L474,634L490,638L508,643L528,646L547,648L566,649L580,649L593,649L602,649L609,646L616,639L623,627L634,606" stroke-opacity="1" stroke-width="5" stroke-linecap="round" stroke-linejoin="round" style="-webkit-tap-highlight-color: rgba(0, 0, 0, 0); stroke-opacity: 1; stroke-linecap: round; stroke-linejoin: round; -webkit-user-select: text;"></path><path fill="none" stroke="#000000" d="M632,399L630,429L628,445L626,461L624,475L622,490L621,505L619,519L618,533L618,548L617,561L616,575L615,588L613,599L612,608L611,618L610,627L610,635L610,644L610,651L613,657L619,663L626,669L635,673L642,677L648,679L654,680L659,681L664,682L668,682L671,682L674,682L676,682L678,683L680,684L682,685L684,687L684,690L685,695L685,702L685,712L685,724L682,736L679,749L676,762L674,775L674,788L672,799L672,804L672,801" stroke-opacity="1" stroke-width="5" stroke-linecap="round" stroke-linejoin="round" style="-webkit-tap-highlight-color: rgba(0, 0, 0, 0); stroke-opacity: 1; stroke-linecap: round; stroke-linejoin: round; -webkit-user-select: text;"></path><path fill="none" stroke="#000000" d="M667,451L667,465L667,476L667,489L667,508L667,527L670,546L673,568L676,590L679,611L683,631L685,649L686,664L686,678L686,692L682,703L677,712L669,721L661,727L651,733L639,737L625,740L607,742L588,743L566,743L538,743L508,743L470,739L426,735L373,731L302,724L212,718L115,717" stroke-opacity="1" stroke-width="5" stroke-linecap="round" stroke-linejoin="round" style="-webkit-tap-highlight-color: rgba(0, 0, 0, 0); stroke-opacity: 1; stroke-linecap: round; stroke-linejoin: round; -webkit-user-select: text;"></path></svg>