<svg height="874" version="1.1" width="768" xmlns="http://www.w3.org/2000/svg" xmlns:xlink="http://www.w3.org/1999/xlink" style="overflow: hidden; position: relative; -webkit-user-select: text;"><desc style="-webkit-tap-highlight-color: rgba(0, 0, 0, 0); -webkit-user-select: text;">Created with Raphaël 2.2.0</desc><defs style="-webkit-tap-highlight-color: rgba(0, 0, 0, 0); -webkit-user-select: text;"></defs><path fill="none" stroke="#000000" d="M19,10L25,14L27,14L28,14L29,15L30,16L31,17L32,18L33,20L35,21L36,23L37,24L38,26L40,28L40,30L42,32L42,34L43,36L44,38L45,40L46,43L47,45L47,47L48,49L48,51L49,54L50,56L50,59L51,62L51,65L52,68L52,70L53,74L53,77L54,80L54,83L54,86L55,89L55,93L56,97L56,99L57,103L57,106L57,109L58,112L58,116L59,119L59,123L59,126L60,131L60,136L60,140L60,145L60,150L61,155L61,160L61,165L61,170L61,174L61,179L61,184L61,189L61,194L61,199L61,204L61,209L61,214L61,219L61,223L61,228L61,233L61,238L61,243L61,247L61,253L61,257L61,262L61,267L61,272L61,277L61,282L61,287L61,292L61,296L61,301L61,306L61,311L61,315L61,320L61,324L61,328L61,333L61,337L61,342L61,347L61,351L62,355L63,359L64,364L65,367L66,371L67,374L69,377L70,379L71,382L73,383L74,386L76,387L77,389L78,391L79,393L81,395L81,396L83,399L84,401L85,403L86,406L87,408L88,411L88,414L89,416L90,420L91,422L91,425L92,429L92,432L93,436L93,440L94,444L94,448L95,452L95,456L96,460L96,464L96,468L96,472L96,476L96,481L96,485L96,490L96,494L96,498L96,503L96,508L96,513L96,518L96,522L96,527L95,532L94,537L93,542L93,547L93,551L92,556L92,561L91,565L91,569L90,574L90,579L89,583L89,587L88,592L88,596L88,600L87,604L87,608L86,612L86,616L86,620L86,624L86,628L85,632L85,636L85,640L85,644L85,648L85,652L85,656L85,661L85,664L85,668L85,672L85,676L85,680L85,684L85,687L85,690L85,694L85,697L85,701L85,704L85,707L85,710L85,713L85,716L85,718L85,721L85,724L85,726L85,729L85,732L85,735L85,737L85,740L85,745L85,747L85,750L85,752L85,755L85,757L85,760L85,762L85,765L85,767L85,769L85,771L85,773L85,775L85,778L85,780L85,782L85,785L85,787L85,789L85,792L85,794L85,797L85,799L85,801L85,803L85,805L85,807L85,809L85,811L85,814L85,816L85,818L85,820L85,822L86,824L86,826L86,828L87,829L87,831L88,833L88,834L88,836L89,838L89,839L90,840L91,842L91,844L91,845L92,846L93,848L93,849L94,851L95,852L96,853L97,855L98,856L100,857L101,858L103,860L105,861L107,862L110,863L114,864L118,865L123,866L128,866L135,867L142,867" stroke-opacity="1" stroke-width="5" stroke-linecap="round" stroke-linejoin="round" style="-webkit-tap-highlight-color: rgba(0, 0, 0, 0); stroke-opacity: 1; stroke-linecap: round; stroke-linejoin: round; -webkit-user-select: text;"></path><path fill="none" stroke="#000000" d="M57,16L61,21L61,24L62,26L63,28L64,31L66,34L67,38L67,42L69,46L69,50L70,55L71,59L73,65L74,69L76,74L76,79L77,85L78,89L79,95L79,102L79,107L80,114L80,119L80,126L81,132L81,138L81,145L81,153L82,160L82,167L82,173L82,180L83,187L83,194L83,202L83,210L83,217L83,225L83,232L83,239L83,246L83,252L83,259L83,266L83,272L83,278L83,284L83,289L83,294L83,300L83,305L83,310L83,315L83,320L84,325L84,330L85,335L86,339L87,343L88,347L90,352L91,355L93,359L95,363L97,366L99,369L101,372L103,374L105,377L106,380L107,383L108,386L108,388L109,391L110,394L110,398L110,401L111,404L111,407L112,411L112,414L113,418L113,422L113,425L113,429L113,433L113,437L113,441L114,444L114,449L114,453L115,457L115,461L115,466L115,470L115,474L115,479L115,483L116,488L116,493L116,498L116,503L116,508L116,513L116,518L116,523L116,528L116,534L116,539L116,544L116,550L116,556L116,561L116,566L116,571L116,577L116,582L115,588L115,593L115,599L115,604L114,610L114,615L114,621L113,627L113,633L113,639L113,644L112,651L112,658L111,663L111,670L110,675L110,680L110,685L110,690L109,695L109,700L109,705L108,710L108,715L108,719L108,724L108,728L108,733L108,737L108,741L108,745L108,749L108,753L108,757L108,760L108,763L108,767L108,770L108,773L108,777L108,780L108,783L108,786L108,789L108,791L108,794L108,796L108,798L108,800L108,802L108,805L108,807L108,810L108,812L108,815L109,818L109,820L110,823L110,825L110,827L111,829L112,831L112,833L113,835L114,837L114,839L115,841L116,843L117,845L118,847L118,849L119,851L120,853L121,855L122,857L124,858L125,860L126,861L127,862L129,863L130,864L131,865L132,866L134,867L135,867L137,868L138,868L140,869L143,869L146,870L149,870L154,870L161,870L170,870L182,870L195,870" stroke-opacity="1" stroke-width="5" stroke-linecap="round" stroke-linejoin="round" style="-webkit-tap-highlight-color: rgba(0, 0, 0, 0); stroke-opacity: 1; stroke-linecap: round; stroke-linejoin: round; -webkit-user-select: text;"></path><path fill="none" stroke="#000000" d="M86,15L86,19L86,20L86,22L87,24L88,26L89,28L89,31L91,34L91,37L92,41L93,45L94,50L95,54L96,59L97,64L98,69L99,75L100,80L100,85L101,89L101,95L102,100L103,105L103,110L104,116L105,121L105,127L105,133L106,138L107,144L107,150L108,157L108,163L108,170L108,178L108,184L108,190L108,195L108,201L108,206L108,213L108,218L108,225L108,233L108,238L108,246L108,252L108,257L108,262L108,267L108,272L108,276L108,281L108,285L109,290L109,295L109,300L110,306L110,311L110,316L111,321L112,325L113,330L114,334L115,337L119,343L120,346L122,350L125,354L127,358L129,362L131,366L132,370L133,374L134,379L135,383L135,388L136,393L137,397L137,402L137,407L138,412L138,417L139,422L139,426L139,432L139,437L139,442L139,447L139,453L139,458L139,464L139,469L139,475L139,481L139,487L139,492L139,498L139,503L139,508L139,514L139,519L139,524L139,529L139,534L138,540L138,546L138,551L138,556L138,562L137,568L137,573L137,580L137,585L137,592L137,598L137,605L137,610L137,615L137,621L137,628L137,633L137,639L137,645L136,652L136,658L136,663L136,670L135,675L135,681L135,686L135,691L134,695L134,700L134,705L133,709L133,714L133,718L132,722L132,726L132,730L132,734L132,738L132,742L132,746L132,750L132,753L132,757L132,761L132,765L132,768L132,772L132,775L132,779L132,783L132,787L132,791L132,794L132,798L133,802L133,806L134,810L135,814L136,816L137,820L137,823L138,825L139,828L140,830L141,832L142,835L143,837L144,839L145,841L146,843L147,845L148,847L148,849L149,850L150,852L151,854L152,855L153,856L154,857L155,858L156,859L157,860L158,860L159,861L161,862L162,863L164,864L165,865L167,865L169,866L173,866L177,867L183,867L191,867L200,867L212,864" stroke-opacity="1" stroke-width="5" stroke-linecap="round" stroke-linejoin="round" style="-webkit-tap-highlight-color: rgba(0, 0, 0, 0); stroke-opacity: 1; stroke-linecap: round; stroke-linejoin: round; -webkit-user-select: text;"></path><path fill="none" stroke="#000000" d="M115,14L118,19L118,21L118,24L119,27L120,30L121,33L122,37L122,41L124,45L125,49L125,53L126,58L127,63L127,68L128,73L128,79L129,85L130,89L130,95L131,100L132,106L132,111L133,118L133,124L134,130L135,136L135,141L135,148L136,155L137,161L137,168L137,174L137,181L138,187L138,193L138,200L138,205L138,212L138,218L139,225L139,231L139,237L139,243L139,249L139,256L139,262L139,269L139,274L139,280L140,285L140,290L140,295L140,299L141,303L141,308L142,311L143,315L144,318L146,321L148,324L149,327L151,330L152,333L153,336L154,339L155,342L156,345L157,348L157,352L158,356L158,359L159,363L159,366L160,370L160,374L161,377L161,381L161,385L161,389L161,393L162,397L162,401L162,406L162,410L162,415L162,420L162,424L162,429L162,434L162,439L162,444L162,450L162,455L162,461L162,466L162,471L162,476L162,482L162,487L162,492L162,497L162,502L162,507L162,513L162,519L162,524L162,531L162,537L162,544L162,551L162,557L162,564L162,571L162,577L162,584L162,589L162,595L162,601L162,607L162,613L162,619L161,625L161,631L161,637L161,643L161,648L161,654L161,660L161,665L160,670L160,675L160,681L160,686L159,690L159,695L159,699L159,704L159,708L159,712L159,716L159,721L159,725L159,730L159,734L159,739L159,744L159,749L159,754L159,758L159,763L159,768L159,773L159,777L159,782L159,787L159,791L159,795L159,799L159,802L159,806L159,809L160,813L161,816L161,819L162,822L163,824L164,826L165,829L166,831L167,833L168,836L169,838L170,840L171,842L172,844L173,846L174,848L176,851L177,853L178,855L180,857L181,859L183,860L185,862L188,863L191,864L193,865L197,866L200,867L205,867L209,868L214,868L219,868L225,866" stroke-opacity="1" stroke-width="5" stroke-linecap="round" stroke-linejoin="round" style="-webkit-tap-highlight-color: rgba(0, 0, 0, 0); stroke-opacity: 1; stroke-linecap: round; stroke-linejoin: round; -webkit-user-select: text;"></path><path fill="none" stroke="#000000" d="M148,11L149,19L149,21L149,24L149,27L150,30L151,33L152,37L154,41L155,45L156,49L158,55L159,60L160,65L161,70L161,75L163,80L163,85L164,91L165,97L166,104L166,110L167,117L168,123L169,131L170,138L171,146L171,153L172,161L173,169L173,177L174,184L174,191L174,199L175,207L175,214L176,221L176,229L176,236L176,243L176,250L176,256L176,263L176,269L177,276L177,282L178,288L178,294L180,299L181,303L182,308L183,313L185,317L186,320L187,324L188,328L189,332L190,336L191,340L192,344L192,348L193,352L193,356L194,360L194,365L195,369L195,374L195,379L195,384L195,388L195,394L195,399L195,405L195,411L195,417L195,423L195,429L195,436L195,443L195,450L195,457L195,464L195,471L195,478L195,486L195,493L195,500L194,506L194,513L194,520L194,527L193,533L193,540L193,546L193,554L193,560L193,567L193,573L193,580L193,587L193,594L192,600L192,607L192,612L191,619L191,626L191,632L191,638L191,645L191,651L191,658L191,665L191,670L191,677L191,684L191,690L191,696L191,702L191,708L191,714L191,719L191,725L191,730L191,735L191,740L191,744L191,748L191,753L191,757L191,761L191,765L191,770L191,774L191,778L191,782L191,786L191,790L192,794L192,799L193,803L193,807L193,811L194,815L195,819L195,823L196,827L196,831L197,835L198,838L198,842L199,846L200,850L201,854L202,857L203,860L203,862L204,864L205,865L206,867L208,867L209,869L210,870L212,870L214,870L216,870" stroke-opacity="1" stroke-width="5" stroke-linecap="round" stroke-linejoin="round" style="-webkit-tap-highlight-color: rgba(0, 0, 0, 0); stroke-opacity: 1; stroke-linecap: round; stroke-linejoin: round; -webkit-user-select: text;"></path><path fill="none" stroke="#000000" d="M187,9L186,14L186,16L186,18L186,21L187,24L188,29L189,33L189,38L191,44L191,49L192,54L193,59L195,65L195,71L196,77L197,84L198,90L198,96L199,100L200,106L200,111L201,117L201,122L202,128L203,134L203,140L203,146L204,152L204,158L205,163L205,169L205,175L205,180L206,187L206,191L206,197L207,203L207,208L207,214L208,219L208,224L208,229L208,234L209,238L209,243L210,247L210,251L210,255L210,258L210,262L210,265L210,269L210,272L211,274L211,277L212,279L212,282L213,284L214,287L215,289L215,291L216,294L217,296L217,298L217,300L218,302L218,304L219,306L220,309L220,311L220,313L221,315L221,318L222,320L222,323L222,325L223,328L223,330L224,333L224,336L224,340L224,342L225,346L225,350L225,354L225,358L225,362L225,366L225,370L225,375L225,379L225,384L225,389L225,394L225,400L225,406L225,413L225,418L225,425L225,432L225,439L225,445L225,452L225,460L225,467L225,475L225,482L225,490L225,498L225,505L224,513L224,521L223,529L223,537L223,545L223,552L223,560L223,568L223,576L222,583L222,591L222,599L222,607L222,615L222,623L222,630L222,638L221,646L221,653L220,661L220,668L219,675L219,682L219,689L218,696L218,702L218,709L218,715L218,721L218,728L218,733L218,739L218,745L218,752L218,758L218,764L218,770L218,776L218,782L218,787L219,793L219,798L220,803L220,809L220,814L221,819L222,823L223,827L224,831L224,835L225,839L226,843L226,847L227,850L228,854L229,857L230,860L232,862L233,865L235,867L238,869L243,870" stroke-opacity="1" stroke-width="5" stroke-linecap="round" stroke-linejoin="round" style="-webkit-tap-highlight-color: rgba(0, 0, 0, 0); stroke-opacity: 1; stroke-linecap: round; stroke-linejoin: round; -webkit-user-select: text;"></path><path fill="none" stroke="#000000" d="M224,2L223,4L223,5L223,8L224,10L225,13L225,15L226,18L226,21L227,25L227,29L227,32L227,36L228,40L228,43L228,47L229,50L229,55L229,58L229,62L230,65L230,69L230,73L231,77L231,81L231,85L232,89L232,93L232,97L232,100L232,104L232,107L232,110L232,114L233,117L233,121L233,125L234,128L234,133L234,137L234,140L235,145L236,149L236,153L237,157L237,161L237,165L238,170L238,173L239,177L239,182L239,186L239,190L239,194L239,199L240,204L240,208L240,213L241,218L241,223L242,228L242,232L242,237L243,241L243,245L244,250L244,254L244,258L245,262L245,266L246,270L246,274L246,278L247,282L247,286L248,289L248,293L248,297L249,301L249,306L249,310L249,313L250,317L250,321L251,325L251,330L251,334L251,338L252,342L252,346L253,351L253,355L254,360L254,364L254,369L254,374L254,379L254,384L255,390L255,395L256,401L256,406L256,412L257,418L257,424L258,430L258,436L259,443L259,449L259,456L260,462L260,469L260,476L261,483L261,489L261,495L261,503L262,509L262,516L262,522L262,529L262,536L262,542L262,549L262,555L262,562L262,568L262,574L262,580L262,585L262,591L262,597L262,602L262,607L262,613L261,618L261,624L261,630L261,635L261,641L261,646L261,652L260,658L260,663L260,669L260,675L259,680L259,686L259,691L259,697L259,702L259,707L259,713L259,718L259,723L259,729L259,734L259,739L259,745L259,750L259,755L259,760L259,766L259,771L259,776L259,781L259,786L259,790L259,795L259,799L259,803L259,807L259,811L259,815L259,819L259,822L259,825L259,828L259,831L259,835L259,838L259,840L259,843L259,846L259,848L259,851L259,853L259,855L260,857L260,859L260,861L261,862L261,863L261,864L261,865L261,866L261,867L262,867L262,868L262,869L263,870" stroke-opacity="1" stroke-width="5" stroke-linecap="round" stroke-linejoin="round" style="-webkit-tap-highlight-color: rgba(0, 0, 0, 0); stroke-opacity: 1; stroke-linecap: round; stroke-linejoin: round; -webkit-user-select: text;"></path><path fill="none" stroke="#000000" d="M257,2L257,6L257,9L257,12L257,15L257,19L257,22L257,26L257,30L257,35L257,39L257,44L257,49L257,54L258,59L258,64L259,70L259,75L259,80L260,85L261,90L261,95L262,100L263,105L263,109L264,114L264,119L265,124L265,130L266,135L266,140L266,145L267,149L267,153L268,158L268,162L269,166L270,170L270,174L271,179L271,183L271,187L272,191L272,194L273,198L273,202L274,205L275,208L276,211L276,215L277,218L278,221L279,225L280,228L281,230L282,233L283,236L283,238L284,241L285,243L286,246L287,249L288,252L288,255L289,258L289,261L290,264L290,267L290,270L291,273L291,276L291,279L291,283L291,286L291,290L291,293L291,297L291,301L291,304L291,308L291,312L291,316L291,320L291,325L291,329L291,333L291,337L291,342L291,346L291,351L291,355L291,360L291,365L291,369L291,374L291,379L291,384L291,390L291,395L291,401L291,407L291,413L291,419L291,425L291,432L291,438L291,444L291,452L290,458L290,465L290,472L290,478L290,486L289,492L289,499L288,505L288,512L288,518L288,524L288,531L287,537L287,543L286,549L286,556L286,562L285,567L285,573L285,579L285,585L285,590L285,596L285,602L284,607L283,613L283,619L283,624L283,629L283,635L282,641L282,646L282,652L281,657L281,663L280,668L280,673L280,679L280,684L280,690L280,695L280,701L280,706L280,712L280,717L280,723L280,729L280,734L280,740L280,745L280,751L280,756L280,762L280,767L280,772L280,777L280,782L280,787L280,793L280,798L280,802L280,807L280,811L280,815L280,820L280,823L280,827L280,831L280,834L280,838L280,841L280,844L280,847L280,850L280,854L280,857L280,860L280,862L280,864L280,867L280,869L280,870" stroke-opacity="1" stroke-width="5" stroke-linecap="round" stroke-linejoin="round" style="-webkit-tap-highlight-color: rgba(0, 0, 0, 0); stroke-opacity: 1; stroke-linecap: round; stroke-linejoin: round; -webkit-user-select: text;"></path><path fill="none" stroke="#000000" d="M288,7L291,12L291,14L291,17L291,21L291,24L291,29L291,33L291,37L291,42L291,47L291,53L291,60L291,65L291,71L292,77L292,83L293,89L293,94L293,100L294,106L294,111L294,117L295,123L295,128L295,134L296,140L297,146L298,152L299,158L300,163L302,168L303,174L304,178L305,182L306,187L307,191L309,195L310,199L312,203L313,206L314,210L316,213L317,216L318,220L319,223L320,227L321,230L322,233L323,236L324,239L325,242L326,245L326,249L327,253L327,257L328,261L328,264L329,269L329,273L329,278L329,282L329,286L329,291L329,295L329,300L329,305L328,310L328,315L327,320L326,325L325,330L324,335L324,340L323,345L323,350L322,355L322,361L321,366L321,371L320,376L319,382L319,388L319,393L318,398L318,404L317,409L317,415L317,420L316,427L316,432L315,438L315,444L314,449L314,455L314,461L313,467L313,473L313,478L312,484L312,490L312,495L312,501L312,508L312,515L312,521L312,527L312,534L312,541L312,548L312,554L312,562L312,569L312,576L312,583L312,589L312,596L312,602L312,609L312,615L312,622L312,629L312,636L312,642L312,648L311,655L311,661L311,668L311,675L310,681L310,688L310,695L310,701L310,707L310,714L310,720L310,726L310,733L309,738L309,745L309,750L308,756L308,761L308,767L308,772L307,777L307,782L307,787L307,791L307,796L306,799L306,804L306,808L305,812L305,816L305,820L305,823L305,827L304,831L304,835L304,839L304,843L303,848L303,852L303,855L303,859L303,862L303,864L303,866L303,867L303,868L303,869L303,870" stroke-opacity="1" stroke-width="5" stroke-linecap="round" stroke-linejoin="round" style="-webkit-tap-highlight-color: rgba(0, 0, 0, 0); stroke-opacity: 1; stroke-linecap: round; stroke-linejoin: round; -webkit-user-select: text;"></path><path fill="none" stroke="#000000" d="M329,1L328,4L328,7L328,12L328,17L328,22L328,27L328,33L328,38L328,45L328,51L328,57L328,64L328,70L328,76L329,82L330,87L331,93L333,99L334,104L335,111L336,117L337,124L338,131L339,137L340,143L341,150L342,156L344,163L345,169L346,174L347,180L348,185L349,190L350,195L351,200L352,205L353,209L354,214L355,218L356,223L356,228L358,232L358,236L359,240L361,245L361,250L362,254L363,259L363,263L364,268L365,273L365,278L366,282L366,287L367,291L367,296L367,301L367,305L367,310L367,314L367,318L367,323L367,328L367,332L367,336L367,341L367,345L366,350L365,354L364,359L364,364L363,368L363,372L362,376L361,380L360,384L359,388L358,392L357,396L356,399L355,403L354,407L353,411L351,415L350,420L349,424L348,429L347,433L346,437L346,442L345,446L344,450L344,455L343,460L342,465L342,470L341,475L341,480L341,485L341,490L340,495L340,500L340,506L340,511L339,517L339,522L339,527L339,533L339,539L339,544L339,550L339,556L338,562L338,568L338,573L338,578L338,584L337,589L337,595L337,600L337,605L337,610L336,615L336,620L336,625L336,630L336,635L336,640L336,645L336,650L335,654L335,659L335,663L335,668L335,672L334,677L334,681L334,685L334,690L334,694L334,698L334,702L334,706L334,710L333,714L333,719L333,723L333,727L332,731L332,736L332,740L332,744L332,748L332,752L332,756L331,760L331,764L331,769L331,773L331,777L331,781L331,785L331,790L331,794L331,798L330,802L330,806L330,810L330,813L330,817L330,820L330,823L330,827L330,830L330,833L330,836L330,839L330,842L330,845L330,849L330,853L330,857L330,860L330,864L331,867L331,869" stroke-opacity="1" stroke-width="5" stroke-linecap="round" stroke-linejoin="round" style="-webkit-tap-highlight-color: rgba(0, 0, 0, 0); stroke-opacity: 1; stroke-linecap: round; stroke-linejoin: round; -webkit-user-select: text;"></path><path fill="none" stroke="#000000" d="M357,4L361,18L361,24L361,32L361,40L362,49L364,58L366,67L367,75L369,85L371,94L373,102L375,111L377,120L379,129L381,137L384,145L386,154L388,162L390,171L392,179L395,188L397,196L400,204L402,211L405,218L407,225L408,232L409,239L409,247L410,255L410,262L411,269L411,276L411,283L411,291L412,298L412,306L412,313L412,321L412,330L412,337L412,345L412,353L412,360L410,368L409,376L407,383L406,391L404,398L402,405L400,413L398,420L397,427L395,435L393,442L392,448L390,456L389,464L387,471L386,478L385,486L384,493L383,500L382,507L381,514L380,521L380,527L379,534L378,540L378,546L377,552L377,558L376,564L376,569L375,575L375,580L375,585L375,591L375,597L375,602L375,607L375,613L375,618L375,624L375,629L375,634L375,639L375,645L375,650L375,656L375,661L375,666L375,672L375,678L375,683L375,690L375,696L375,702L375,707L375,713L375,718L375,723L375,729L374,734L374,738L374,743L373,748L373,753L373,757L373,762L373,765L373,770L373,773L373,777L373,781L373,784L373,787L373,790L373,793L373,796L373,798L373,801L373,803L373,805L373,807L373,810L373,812L373,814L373,816L373,818L373,820L373,822L372,823L372,825L372,827L372,828L372,830L372,831L372,833L372,835L371,837L371,838L371,840L371,842L371,844L370,846L370,848L370,850L370,851L370,853L370,855L370,856L370,857L370,858L370,860L370,861L370,862L370,864L370,865L373,868L375,869" stroke-opacity="1" stroke-width="5" stroke-linecap="round" stroke-linejoin="round" style="-webkit-tap-highlight-color: rgba(0, 0, 0, 0); stroke-opacity: 1; stroke-linecap: round; stroke-linejoin: round; -webkit-user-select: text;"></path><path fill="none" stroke="#000000" d="M387,13L385,18L385,19L385,21L385,23L385,25L385,27L385,30L386,33L387,36L387,38L388,41L389,44L390,47L391,50L392,53L394,56L395,60L395,63L396,67L397,70L397,73L398,76L399,80L400,83L401,86L402,89L403,92L404,96L405,99L407,102L408,105L409,108L411,111L412,114L413,117L415,120L416,123L418,126L419,129L421,132L423,135L424,138L426,141L427,144L429,148L430,151L431,155L433,158L434,162L435,165L436,168L437,172L438,175L439,179L440,183L441,187L443,191L443,195L444,199L445,203L446,207L446,212L447,216L447,221L448,225L448,230L448,235L449,241L449,247L449,252L449,259L449,264L449,270L449,277L449,283L449,289L449,296L449,302L448,308L447,314L446,321L446,327L445,334L443,340L443,346L441,352L440,358L439,364L438,370L436,376L435,382L434,388L431,394L430,401L428,407L426,413L425,418L423,424L421,430L419,437L417,442L416,448L414,454L412,460L410,466L409,472L407,478L406,483L404,490L403,495L402,502L401,507L400,515L400,521L399,527L398,534L398,541L397,547L397,553L397,559L396,566L396,572L396,578L395,584L395,590L395,596L395,601L395,607L395,612L395,618L394,623L394,629L394,634L393,639L393,644L393,649L393,654L392,659L392,663L392,668L392,673L392,678L392,683L392,687L392,692L392,697L392,701L392,705L392,710L392,714L392,719L392,724L392,729L392,734L392,738L392,743L392,748L392,753L392,758L393,762L393,766L393,770L393,774L394,778L394,782L394,786L395,790L395,794L395,797L395,801L396,805L396,808L397,811L397,814L397,818L398,821L398,823L399,826L399,828L400,831L400,833L400,836L400,838L401,841L401,843L402,845L402,848L402,850L402,852L403,853L403,855L403,856L404,857L404,859L404,860L405,861L405,862L406,863L406,864L407,865L407,866L408,866L408,867L409,867L409,868L410,869L411,870L413,870" stroke-opacity="1" stroke-width="5" stroke-linecap="round" stroke-linejoin="round" style="-webkit-tap-highlight-color: rgba(0, 0, 0, 0); stroke-opacity: 1; stroke-linecap: round; stroke-linejoin: round; -webkit-user-select: text;"></path><path fill="none" stroke="#000000" d="M428,11L426,19L426,21L426,24L426,26L426,30L426,33L427,37L428,41L429,45L430,48L431,52L432,56L433,61L434,65L434,70L435,75L436,80L438,85L439,89L441,93L442,97L443,102L445,107L446,112L447,116L448,121L450,125L451,129L453,134L454,139L455,144L457,148L458,153L459,158L460,163L462,169L463,174L464,179L466,184L468,189L470,195L472,200L475,206L477,211L479,217L481,223L483,228L485,234L487,240L489,246L491,252L492,258L494,264L495,270L496,276L497,282L498,288L498,294L499,300L499,305L499,312L500,318L500,323L500,330L500,335L500,342L500,348L500,354L500,361L500,367L500,373L500,379L499,385L498,391L498,396L497,402L496,407L494,413L493,418L492,423L491,429L490,434L488,439L487,443L486,448L484,453L482,458L480,463L479,467L477,472L476,477L475,481L473,487L471,492L470,497L468,503L466,508L465,514L463,520L461,525L460,530L458,536L457,541L456,546L454,552L453,557L451,562L450,566L449,571L448,577L446,581L445,587L444,592L442,597L441,602L439,608L438,614L437,620L436,625L434,631L433,637L432,643L431,648L429,654L428,660L427,665L426,672L426,678L425,683L424,690L424,696L424,701L424,707L424,712L424,718L423,723L423,729L423,734L423,738L423,743L423,748L422,752L422,756L422,760L422,764L422,768L422,771L421,775L421,779L421,782L421,786L421,789L421,792L421,796L421,799L421,802L421,804L421,807L421,810L421,813L421,816L421,818L421,821L421,823L421,826L421,828L421,831L421,833L422,836L422,837L422,839L423,841L423,843L423,845L424,848L424,850L424,853L425,855L427,859L429,862L432,863" stroke-opacity="1" stroke-width="5" stroke-linecap="round" stroke-linejoin="round" style="-webkit-tap-highlight-color: rgba(0, 0, 0, 0); stroke-opacity: 1; stroke-linecap: round; stroke-linejoin: round; -webkit-user-select: text;"></path><path fill="none" stroke="#000000" d="M467,15L469,21L469,22L469,24L469,26L469,29L469,32L469,35L469,38L469,42L469,45L469,49L469,53L469,56L469,60L470,65L470,69L471,73L471,77L472,82L473,86L475,90L475,95L476,99L477,104L478,109L479,113L480,118L480,123L481,128L482,134L483,139L484,145L485,151L487,156L487,161L490,167L491,172L492,178L494,184L495,189L497,194L498,200L499,206L501,212L502,218L504,224L506,230L507,236L509,243L511,249L512,257L514,262L516,270L518,276L519,282L521,289L522,295L524,301L525,308L526,314L526,320L526,327L527,333L527,339L528,344L528,350L528,356L528,362L528,368L528,374L528,379L528,384L528,391L528,396L528,401L527,407L526,413L525,418L524,424L523,429L521,435L520,441L519,447L518,452L517,458L516,463L516,468L515,474L514,480L513,485L512,490L511,495L510,501L509,506L508,511L507,516L506,521L504,527L503,531L502,536L500,541L499,546L497,551L496,556L494,562L492,568L490,573L489,579L487,585L485,591L483,597L482,602L480,608L479,614L477,620L476,626L474,632L473,638L472,644L470,649L469,654L468,658L466,663L465,668L464,673L463,677L462,681L461,685L460,690L459,694L458,698L457,702L456,706L455,710L455,714L454,719L453,722L453,726L453,731L452,734L452,738L452,743L452,747L452,751L452,755L452,759L452,763L452,768L452,772L452,776L452,780L452,783L452,787L452,790L452,794L452,797L452,801L452,804L452,807L452,810L452,813L452,815L452,818L452,821L452,823L453,826L453,828L453,830L453,832L454,834L454,836L454,838L455,840L455,842L455,844L455,846L456,848L456,850L456,852L456,853L457,855L457,856L458,857L458,858L458,859L459,860L459,861L460,862L460,863L460,864L461,864L461,865L462,865L463,866L463,867L464,867L464,868L465,868L465,869L466,869L467,870L468,870L470,870L474,870L480,870L491,870" stroke-opacity="1" stroke-width="5" stroke-linecap="round" stroke-linejoin="round" style="-webkit-tap-highlight-color: rgba(0, 0, 0, 0); stroke-opacity: 1; stroke-linecap: round; stroke-linejoin: round; -webkit-user-select: text;"></path><path fill="none" stroke="#000000" d="M503,16L506,23L506,25L506,28L506,31L506,33L506,37L506,41L506,44L506,48L506,53L506,57L506,62L506,66L506,71L506,77L506,82L506,88L506,94L506,100L507,106L507,110L508,117L508,122L509,128L510,134L511,140L511,147L512,153L513,160L514,166L515,172L516,179L517,185L519,191L520,198L521,204L523,211L525,217L527,223L529,231L531,237L533,244L535,252L536,258L538,265L539,272L541,279L542,285L543,292L544,298L545,305L546,312L547,319L548,325L549,332L550,338L550,345L550,352L551,359L551,366L551,373L551,380L551,387L551,393L551,401L551,407L551,414L550,420L549,427L548,435L547,441L546,448L545,455L543,462L542,469L541,475L540,482L539,489L538,495L537,502L536,509L535,517L533,524L532,531L531,538L530,545L529,552L528,559L527,566L526,573L526,579L524,586L523,593L522,600L521,607L519,613L518,620L516,627L516,633L514,639L513,646L512,652L510,658L509,664L507,670L506,675L505,680L504,685L502,690L501,695L500,699L499,704L498,708L497,712L496,717L495,721L494,726L493,730L492,734L492,738L491,743L490,747L490,751L489,755L489,759L489,763L488,767L488,770L488,773L488,776L487,779L487,782L487,785L487,787L487,789L487,792L487,794L487,796L487,798L487,799L487,801L487,803L487,804L487,806L487,807L487,809L487,810L487,811L487,813L487,814L487,815L487,816L487,818L487,819L487,820L488,821L488,823L488,824L488,826L489,826L489,828L489,829L490,830L490,831L490,832L490,833L490,834L491,836L491,837L492,838L492,839L492,841L493,842L493,843L494,844L494,845L494,846L495,848L495,849L496,850L497,851L497,853L497,854L498,855L499,855L499,856L500,857L501,858L501,859L502,860L503,860L504,861L504,862L505,862L506,863L507,863L508,864L509,865L510,865L511,866L512,866L513,867L515,867L518,867L522,868L527,868L533,868" stroke-opacity="1" stroke-width="5" stroke-linecap="round" stroke-linejoin="round" style="-webkit-tap-highlight-color: rgba(0, 0, 0, 0); stroke-opacity: 1; stroke-linecap: round; stroke-linejoin: round; -webkit-user-select: text;"></path><path fill="none" stroke="#000000" d="M541,25L541,29L541,32L541,35L541,39L541,43L541,48L541,53L541,58L541,64L541,70L541,75L541,81L541,87L541,94L541,100L541,106L541,113L541,120L541,126L541,133L542,139L543,145L544,152L545,158L546,165L547,172L548,179L548,186L550,193L550,199L552,206L553,213L554,221L555,228L556,235L557,243L558,250L559,257L561,264L563,272L565,279L566,286L568,294L570,300L572,307L573,315L574,323L575,330L576,337L576,345L577,353L577,360L577,367L577,374L577,381L577,388L577,396L577,403L577,410L577,417L577,423L577,430L577,437L576,444L575,450L574,457L572,464L571,471L570,477L567,485L566,491L564,498L562,505L560,512L559,519L558,525L557,532L556,539L555,546L554,552L553,558L552,565L551,571L550,578L549,583L548,590L547,595L545,600L545,605L544,610L543,616L541,622L541,627L540,632L539,638L538,644L537,649L536,654L536,660L535,665L534,670L533,675L533,680L532,685L531,690L531,695L530,700L529,705L528,710L528,715L528,720L527,725L526,730L526,735L526,739L526,744L526,748L526,752L526,755L526,759L526,763L526,766L526,770L526,774L526,777L526,781L526,785L526,788L526,791L526,794L526,797L526,800L526,804L526,806L526,809L526,812L526,815L526,818L526,821L526,823L526,826L526,828L527,831L527,833L528,835L528,837L528,838L529,840L529,842L530,844L530,846L530,848L531,850L531,852L531,853L532,855L532,857L533,858L533,859L534,860L534,862L535,862L536,863L536,864L537,865L538,865L538,866L539,867L540,867L541,867L541,868L542,869L543,869L544,870L545,870L547,870L550,870L554,870L560,870" stroke-opacity="1" stroke-width="5" stroke-linecap="round" stroke-linejoin="round" style="-webkit-tap-highlight-color: rgba(0, 0, 0, 0); stroke-opacity: 1; stroke-linecap: round; stroke-linejoin: round; -webkit-user-select: text;"></path><path fill="none" stroke="#000000" d="M580,24L577,26L577,29L577,31L576,33L575,36L575,39L574,43L573,46L572,50L572,55L572,60L571,65L571,70L570,76L570,82L570,89L570,95L570,101L570,107L570,114L570,121L570,127L570,134L570,140L570,147L570,154L570,161L570,168L571,175L571,182L572,189L573,196L575,204L576,211L577,219L579,226L580,233L581,241L583,248L585,256L587,264L589,272L591,279L592,286L594,293L595,299L596,306L597,313L599,320L600,326L601,332L602,339L603,345L603,352L604,358L604,364L605,370L605,376L606,382L606,388L606,393L606,399L606,405L606,411L606,416L606,422L606,427L606,432L606,437L606,443L606,448L606,453L606,458L605,463L604,468L604,473L603,477L602,482L601,487L600,491L599,496L597,500L596,505L595,509L594,514L593,518L592,522L591,527L590,531L589,535L588,539L587,543L586,547L585,550L584,554L584,557L583,561L582,564L582,568L581,571L581,575L580,578L579,582L579,586L578,590L577,594L577,598L576,602L575,606L575,610L574,614L574,618L573,622L572,625L572,629L571,633L570,636L569,641L568,645L567,648L567,653L566,656L565,661L564,665L563,669L562,673L562,677L560,681L559,685L558,690L557,694L556,698L555,703L554,707L553,712L553,716L552,720L551,724L550,729L549,733L548,737L548,741L547,745L546,749L545,753L545,757L545,761L544,765L544,769L543,772L543,776L543,779L543,782L543,785L543,788L542,791L542,794L542,797L542,799L542,802L542,805L542,808L542,810L542,813L542,816L542,818L542,821L542,823L542,826L542,828L543,830L543,832L543,834L543,836L544,838L544,840L545,842L545,844L545,845L546,848L546,849L547,851L547,853L548,854L548,855L549,857L549,858L550,859L550,860L551,861L552,862L553,862L554,863L555,864L555,865L557,865L558,866L559,867L561,867L562,868L564,868L565,869L567,870L570,870L573,870L577,870L582,870" stroke-opacity="1" stroke-width="5" stroke-linecap="round" stroke-linejoin="round" style="-webkit-tap-highlight-color: rgba(0, 0, 0, 0); stroke-opacity: 1; stroke-linecap: round; stroke-linejoin: round; -webkit-user-select: text;"></path><path fill="none" stroke="#000000" d="M608,26L609,31L609,34L609,36L608,39L607,42L606,45L605,48L605,53L604,57L603,61L602,66L601,72L600,79L599,85L599,92L599,98L599,104L599,111L599,118L599,126L599,133L599,141L599,148L599,156L599,165L600,173L600,180L601,189L602,198L603,207L604,216L604,225L605,233L606,242L608,251L609,260L610,269L611,278L612,286L614,296L616,304L617,313L618,322L619,331L621,340L621,348L622,357L622,366L623,376L623,385L623,393L623,403L623,412L623,421L623,430L622,438L621,447L620,456L618,465L617,473L616,483L615,491L615,500L613,508L612,517L610,526L609,534L607,543L606,552L604,560L602,569L599,577L597,585L594,593L592,601L589,610L587,618L585,626L584,634L582,642L580,650L579,656L578,663L577,670L576,677L575,684L573,690L572,696L571,702L570,706L569,712L568,718L567,724L566,729L565,735L565,740L564,745L564,751L564,756L563,761L563,765L563,770L562,775L562,779L562,783L561,787L561,792L561,795L560,799L560,802L560,806L560,809L560,812L560,816L560,819L560,822L560,825L560,827L560,830L560,832L560,834L560,836L560,838L560,840L560,842L560,844L561,846L561,848L561,850L562,851L562,853L562,855L563,856L564,857L564,859L565,860L565,861L566,862L567,863L567,864L568,864L569,865L569,866L570,866L570,867L571,867L572,868L573,869L574,869L575,870L576,870L577,870L578,870L580,870" stroke-opacity="1" stroke-width="5" stroke-linecap="round" stroke-linejoin="round" style="-webkit-tap-highlight-color: rgba(0, 0, 0, 0); stroke-opacity: 1; stroke-linecap: round; stroke-linejoin: round; -webkit-user-select: text;"></path><path fill="none" stroke="#000000" d="M646,35L644,45L643,49L642,53L640,58L639,65L638,71L637,77L636,84L635,92L635,99L635,106L635,114L634,122L634,130L633,139L633,147L633,156L633,165L632,172L632,182L632,191L631,199L631,208L631,217L631,226L631,235L631,243L631,251L632,259L633,267L634,276L636,283L637,290L638,297L639,304L640,311L642,318L643,325L644,332L645,339L646,345L647,352L649,359L650,365L651,371L652,377L652,383L653,388L654,394L655,399L655,404L656,410L656,415L656,420L656,425L656,431L656,436L656,442L656,447L656,452L656,457L656,463L656,469L655,474L655,480L654,486L653,492L653,498L652,504L651,510L650,516L649,522L648,528L647,534L646,540L645,546L644,551L643,558L642,563L640,569L639,575L637,580L635,586L634,592L632,597L630,603L628,609L627,614L624,620L622,625L620,631L618,636L616,642L614,648L612,653L609,659L607,665L606,671L604,677L601,683L599,688L597,694L596,700L594,705L592,711L591,716L589,721L589,727L587,731L586,737L585,742L584,747L584,753L583,758L582,763L582,768L581,773L581,778L580,783L580,788L579,793L579,798L579,802L579,806L579,811L579,816L579,820L579,824L579,828L579,832L579,836L579,839L579,843L579,846L579,850L579,853L579,856L580,859L581,861L582,863L582,865L583,866L584,867L585,868L586,869L587,870L588,870L589,870L590,870L591,870" stroke-opacity="1" stroke-width="5" stroke-linecap="round" stroke-linejoin="round" style="-webkit-tap-highlight-color: rgba(0, 0, 0, 0); stroke-opacity: 1; stroke-linecap: round; stroke-linejoin: round; -webkit-user-select: text;"></path><path fill="none" stroke="#000000" d="M684,34L684,44L684,48L683,54L682,60L681,66L680,72L679,79L678,85L677,92L676,98L675,105L675,111L674,118L674,124L673,131L672,138L672,145L671,152L670,159L670,165L669,172L669,179L668,186L668,193L668,200L668,207L668,214L668,222L668,229L668,237L668,244L668,252L668,260L669,267L669,275L670,281L671,289L672,297L674,304L674,311L676,318L677,327L678,334L679,341L679,348L680,357L681,364L682,371L682,379L683,387L684,394L684,401L685,409L686,416L687,424L687,431L688,439L689,446L689,454L689,461L689,469L689,476L689,483L689,490L689,498L689,505L689,512L689,520L689,527L687,534L686,541L685,548L684,554L682,561L681,568L679,575L677,581L675,588L673,594L672,600L669,606L667,612L666,618L664,624L662,630L660,636L657,642L655,648L652,653L650,659L648,665L645,670L643,676L641,680L638,685L636,689L634,693L632,697L630,702L628,705L626,709L624,713L623,716L621,721L619,725L618,729L617,732L616,736L614,740L613,743L612,747L611,751L609,754L609,758L608,761L607,764L606,767L605,770L604,772L604,775L603,778L602,781L601,784L601,786L600,789L599,791L599,794L598,796L598,798L597,801L597,803L596,805L596,808L596,810L596,812L596,815L596,817L596,819L596,821L596,824L595,826L595,828L595,831L595,833L595,835L595,837L595,840L595,842L595,844L595,847L595,849L595,851L595,853L595,855L595,857L595,858L595,860L595,862L595,863L595,864L595,865L596,866L596,867L597,868L599,869L600,870L602,870" stroke-opacity="1" stroke-width="5" stroke-linecap="round" stroke-linejoin="round" style="-webkit-tap-highlight-color: rgba(0, 0, 0, 0); stroke-opacity: 1; stroke-linecap: round; stroke-linejoin: round; -webkit-user-select: text;"></path><path fill="none" stroke="#000000" d="M715,55L714,65L714,72L714,80L713,88L712,97L711,106L710,114L709,123L708,133L708,143L708,153L707,164L707,174L706,184L706,194L706,203L705,213L705,222L705,232L705,241L705,251L705,261L705,270L705,280L705,289L705,298L705,307L706,316L706,325L706,333L707,342L707,349L708,358L709,366L709,374L710,382L711,390L711,398L711,405L712,414L712,421L713,429L713,438L714,445L714,455L715,464L715,471L715,481L715,489L715,497L715,505L715,512L715,520L715,527L715,535L715,542L715,549L715,556L715,563L715,570L714,576L713,583L712,589L711,595L709,600L708,606L706,611L705,617L703,622L701,627L700,633L698,638L696,644L694,648L692,653L690,658L688,662L686,668L685,673L683,677L680,686L678,690L676,695L674,699L673,704L671,708L669,712L667,716L665,720L664,724L662,728L660,732L659,736L657,738L656,742L654,745L652,748L651,751L650,754L648,757L647,759L645,762L644,765L643,767L641,770L640,773L638,776L638,779L636,782L635,784L634,787L633,789L633,792L632,794L631,797L631,799L630,802L630,804L629,807L628,810L628,812L628,815L627,818L627,821L626,824L626,827L626,830L626,833L626,836L626,838L626,842L626,845L626,848L626,851L626,853L626,856L626,858L626,860L626,862L626,864L626,865L626,867L626,868L626,869L626,870" stroke-opacity="1" stroke-width="5" stroke-linecap="round" stroke-linejoin="round" style="-webkit-tap-highlight-color: rgba(0, 0, 0, 0); stroke-opacity: 1; stroke-linecap: round; stroke-linejoin: round; -webkit-user-select: text;"></path><path fill="none" stroke="#000000" d="M733,79L735,85L735,89L735,96L735,103L735,112L735,119L734,128L734,138L734,147L734,157L734,167L734,177L734,187L734,197L733,208L733,218L733,229L733,240L733,250L733,260L733,270L732,281L732,291L731,302L730,313L730,324L730,335L730,345L730,358L730,368L730,379L731,390L731,401L732,412L733,422L734,433L735,444L736,456L737,467L738,477L739,489L740,500L741,510L741,520L742,530L742,540L743,550L743,560L743,570L743,579L744,588L744,597L744,605L744,612L744,620L744,628L744,635L744,642L744,649L743,655L742,661L740,667L739,672L737,678L735,682L733,687L731,692L729,696L727,700L725,704L723,708L721,712L719,716L717,720L715,724L713,727L711,730L709,733L707,736L705,738L703,741L701,743L699,746L698,748L696,750L694,751L693,753L691,755L690,756L689,758L687,760L685,762L684,763L682,765L681,767L679,768L678,770L677,772L676,773L675,775L674,776L673,778L672,780L671,781L670,782L669,784L668,785L667,787L666,789L665,791L664,792L663,794L662,796L662,797L661,799L660,801L660,803L659,804L658,806L657,809L657,811L656,813L655,815L655,817L654,819L654,821L653,823L653,825L652,827L652,829L651,831L651,832L651,834L650,835L650,837L650,838L650,840L650,841L650,843L649,844L649,845L649,846L649,848L649,849L648,850L648,852L648,853L648,854L648,855L648,856L648,857L648,858L648,859L648,860L648,861L648,862L648,863L648,864L648,865L648,866L648,867L648,868L648,869L648,870" stroke-opacity="1" stroke-width="5" stroke-linecap="round" stroke-linejoin="round" style="-webkit-tap-highlight-color: rgba(0, 0, 0, 0); stroke-opacity: 1; stroke-linecap: round; stroke-linejoin: round; -webkit-user-select: text;"></path></svg>