<svg height="874" version="1.1" width="768" xmlns="http://www.w3.org/2000/svg" xmlns:xlink="http://www.w3.org/1999/xlink" style="overflow: hidden; position: relative; -webkit-user-select: text;"><desc style="-webkit-tap-highlight-color: rgba(0, 0, 0, 0); -webkit-user-select: text;">Created with Raphaël 2.2.0</desc><defs style="-webkit-tap-highlight-color: rgba(0, 0, 0, 0); -webkit-user-select: text;"></defs><path fill="none" stroke="#000000" d="M76,35L74,40L74,41L74,43L74,44L74,45L74,47L74,49L74,50L74,52L74,53L74,55L74,56L74,58L74,60L74,62L74,64L74,66L74,68L74,71L74,74L74,77L74,79L74,82L74,84L74,86L74,88L74,90L74,93L74,95L74,98L74,100L73,102L73,104L73,106L73,108L73,110L73,112L73,114L72,116L72,118L72,121L72,123L72,125L72,127L72,128L72,130L72,132L72,134L72,135L72,137L72,139L72,141L72,143L72,146L73,148L73,150L74,152L74,154L75,156L76,158L77,160L78,162L79,164L81,166L82,168L83,170L84,172L86,174L87,175L89,176L91,178L92,179L93,180L95,181L96,183L98,184L100,184L101,185L103,186L105,186L106,187L108,188L110,188L112,189L113,189L115,189L117,189L118,190L120,190L121,190L122,190L124,190L125,190L126,190L128,190L129,190L130,190L132,190L133,190L134,190L136,190L137,189L138,189L140,188L141,187L142,186L144,186L145,185L147,184L148,184L149,183L149,182L151,181L152,180L152,179L154,179L154,177L155,176L156,175L157,174L158,173L159,172L160,171L161,169L162,168L163,166L164,164L165,162L166,159L168,157L169,154L170,148L173,137" stroke-opacity="1" stroke-width="5" stroke-linecap="round" stroke-linejoin="round" style="-webkit-tap-highlight-color: rgba(0, 0, 0, 0); stroke-opacity: 1; stroke-linecap: round; stroke-linejoin: round; -webkit-user-select: text;"></path><path fill="none" stroke="#000000" d="M132,63L132,75L132,78L132,81L132,83L132,85L132,87L132,89L132,92L132,94L132,96L132,99L132,101L132,104L132,107L132,110L132,113L132,117L132,120L132,124L132,128L132,132L133,135L133,139L133,142L133,146L134,149L134,152L134,156L135,159L135,163L135,167L136,171L136,174L137,178L138,181L139,185L140,188L142,191L144,193L145,196L147,198L149,201L150,203L152,205L154,207L157,209L159,211L161,213L163,214L166,216L169,218L171,219L174,220L177,221L180,223L183,223L186,223L188,224L191,224L194,224L197,224L200,224L203,224L205,224L209,224L212,223L215,221L219,219L222,217L225,215L229,213L232,210L236,208L239,205L242,202L245,198L248,192L251,184L256,173" stroke-opacity="1" stroke-width="5" stroke-linecap="round" stroke-linejoin="round" style="-webkit-tap-highlight-color: rgba(0, 0, 0, 0); stroke-opacity: 1; stroke-linecap: round; stroke-linejoin: round; -webkit-user-select: text;"></path><path fill="none" stroke="#000000" d="M212,45L214,49L214,51L214,54L215,57L216,61L217,65L219,69L220,74L220,79L221,85L221,90L222,96L222,101L223,107L224,113L225,119L226,125L227,132L229,138L230,145L232,151L233,157L234,162L236,168L238,174L239,179L242,183L244,187L246,191L249,195L252,198L255,202L259,205L263,207L267,210L271,212L275,213L279,215L284,216L288,216L293,216L298,216L302,216L309,213L315,208L323,201L332,189L343,174L351,157" stroke-opacity="1" stroke-width="5" stroke-linecap="round" stroke-linejoin="round" style="-webkit-tap-highlight-color: rgba(0, 0, 0, 0); stroke-opacity: 1; stroke-linecap: round; stroke-linejoin: round; -webkit-user-select: text;"></path><path fill="none" stroke="#000000" d="M294,29L294,39L294,41L294,44L294,48L294,51L295,55L296,59L297,63L298,67L299,71L300,75L301,79L302,83L303,87L305,91L306,95L307,99L309,102L311,105L312,108L314,111L317,114L319,117L321,120L324,122L326,124L329,125L332,127L336,128L340,129L344,130L348,130L353,130L358,130L365,127L373,121L381,111L389,100" stroke-opacity="1" stroke-width="5" stroke-linecap="round" stroke-linejoin="round" style="-webkit-tap-highlight-color: rgba(0, 0, 0, 0); stroke-opacity: 1; stroke-linecap: round; stroke-linejoin: round; -webkit-user-select: text;"></path><path fill="none" stroke="#000000" d="M337,41L339,48L339,51L339,55L339,59L339,63L339,68L339,73L340,80L340,86L340,93L340,99L341,106L342,113L344,118L346,123L349,129L351,134L354,139L357,143L360,148L362,151L365,155L367,158L369,161L372,164L374,167L376,169L378,171L380,172L381,173L383,174L384,175L385,175L387,176L388,176L390,176L391,176L392,176L393,176L395,176L396,176L398,176L400,176L401,176L402,176L404,176L405,176L407,176L408,176L409,176L411,176L412,176L414,175L415,174L417,173L418,172L420,171L421,169L424,167L427,163L433,155L443,142" stroke-opacity="1" stroke-width="5" stroke-linecap="round" stroke-linejoin="round" style="-webkit-tap-highlight-color: rgba(0, 0, 0, 0); stroke-opacity: 1; stroke-linecap: round; stroke-linejoin: round; -webkit-user-select: text;"></path><path fill="none" stroke="#000000" d="M402,28L401,34L401,38L401,42L401,46L401,52L401,58L402,64L403,69L404,75L406,82L408,88L409,94L412,99L415,103L421,108L429,111L442,113L459,113L477,107" stroke-opacity="1" stroke-width="5" stroke-linecap="round" stroke-linejoin="round" style="-webkit-tap-highlight-color: rgba(0, 0, 0, 0); stroke-opacity: 1; stroke-linecap: round; stroke-linejoin: round; -webkit-user-select: text;"></path><path fill="none" stroke="#000000" d="M474,30L465,29L464,29L463,31L463,34L463,38L462,43L462,49L462,54L462,60L462,66L462,71L462,77L462,82L462,87L462,92L461,97L461,103L461,108L461,113L461,118L461,123L461,128L461,132L461,136L461,140L462,145L463,149L464,154L465,158L465,162L467,167L468,171L470,174L471,178L473,181L475,184L477,188L479,191L481,194L484,197L486,200L489,202L492,204L494,206L497,208L501,210L504,212L507,214L509,215L512,216L514,217L517,218L519,218L522,219L524,219L526,219L529,219L532,219L535,219L538,219L541,218L545,217L549,215L553,213L558,211L563,208L568,205L574,201L580,194L586,186L592,178" stroke-opacity="1" stroke-width="5" stroke-linecap="round" stroke-linejoin="round" style="-webkit-tap-highlight-color: rgba(0, 0, 0, 0); stroke-opacity: 1; stroke-linecap: round; stroke-linejoin: round; -webkit-user-select: text;"></path><path fill="none" stroke="#000000" d="M518,84L517,93L517,97L517,101L517,106L517,113L517,119L517,126L517,133L517,141L517,148L517,157L517,165L518,173L519,180L521,189L524,197L527,204L533,213L538,220L545,225L555,227L568,227" stroke-opacity="1" stroke-width="5" stroke-linecap="round" stroke-linejoin="round" style="-webkit-tap-highlight-color: rgba(0, 0, 0, 0); stroke-opacity: 1; stroke-linecap: round; stroke-linejoin: round; -webkit-user-select: text;"></path><path fill="none" stroke="#000000" d="M572,99L566,102L565,106L564,112L563,118L562,125L560,133L559,141L559,148L559,156L559,164L559,171L559,177L560,186L561,193L562,200L565,208L567,215L568,220L570,226L573,231L575,236L579,242L581,247L584,251L587,255L591,260L594,264L596,267L600,271L604,274L607,276L610,278L614,280L618,281L622,282L626,283L630,283L634,284L638,284L642,284L646,284L651,283L655,280L660,276L666,271L672,263L679,253L686,237" stroke-opacity="1" stroke-width="5" stroke-linecap="round" stroke-linejoin="round" style="-webkit-tap-highlight-color: rgba(0, 0, 0, 0); stroke-opacity: 1; stroke-linecap: round; stroke-linejoin: round; -webkit-user-select: text;"></path><path fill="none" stroke="#000000" d="M599,31L594,36L594,39L594,42L594,45L594,50L594,55L594,61L594,66L594,72L594,78L594,84L594,89L594,95L594,100L594,106L594,113L594,118L594,123L594,130L594,137L594,142L594,148L594,153L594,159L595,164L595,169L596,174L597,179L599,184L601,189L603,193L605,198L607,201L610,205L613,209L616,212L619,215L623,218L628,220L632,222L637,223L642,223L647,223L654,223L660,223L667,219L672,214L678,208L684,201L687,190L690,178" stroke-opacity="1" stroke-width="5" stroke-linecap="round" stroke-linejoin="round" style="-webkit-tap-highlight-color: rgba(0, 0, 0, 0); stroke-opacity: 1; stroke-linecap: round; stroke-linejoin: round; -webkit-user-select: text;"></path><path fill="none" stroke="#000000" d="M670,77L669,85L669,90L669,94L669,100L669,106L670,112L671,118L672,123L674,130L675,136L676,142L678,147L680,153L682,158L685,163L688,167L691,171L694,174L698,176L703,177L710,178L719,178L728,172L736,163L742,153" stroke-opacity="1" stroke-width="5" stroke-linecap="round" stroke-linejoin="round" style="-webkit-tap-highlight-color: rgba(0, 0, 0, 0); stroke-opacity: 1; stroke-linecap: round; stroke-linejoin: round; -webkit-user-select: text;"></path><path fill="none" stroke="#000000" d="M718,78L714,74L713,75L713,78L713,82L713,89L713,94L713,100L713,106L714,113L715,118L716,123L718,128L719,133L720,138L721,143L722,147L723,151L725,154L727,156L729,158L733,158L738,158L745,158L752,155L760,149" stroke-opacity="1" stroke-width="5" stroke-linecap="round" stroke-linejoin="round" style="-webkit-tap-highlight-color: rgba(0, 0, 0, 0); stroke-opacity: 1; stroke-linecap: round; stroke-linejoin: round; -webkit-user-select: text;"></path><path fill="none" stroke="#000000" d="M458,174L458,177L458,181L458,184L459,187L459,191L460,196L460,200L460,204L461,208L461,212L461,215L461,219L461,223L461,226L461,230L461,233L461,237L461,240L462,244L462,248L463,252L463,256L463,260L463,264L464,268L464,272L465,276L465,279L465,283L465,286L466,289L467,293L468,295L469,298L470,301L472,304L473,307L475,310L476,312L478,314L480,316L482,317L483,319L485,320L487,321L490,322L492,324L495,325L497,326L500,327L503,327L506,327L508,328L511,328L514,329L516,329L519,329L522,329L526,329L530,328L534,326L539,324L545,320L551,315L557,307L561,297" stroke-opacity="1" stroke-width="5" stroke-linecap="round" stroke-linejoin="round" style="-webkit-tap-highlight-color: rgba(0, 0, 0, 0); stroke-opacity: 1; stroke-linecap: round; stroke-linejoin: round; -webkit-user-select: text;"></path><path fill="none" stroke="#000000" d="M513,206L515,210L515,213L515,217L515,220L516,223L516,227L516,231L516,235L516,240L517,244L517,248L518,253L518,257L519,261L519,264L520,268L521,271L521,275L523,278L524,282L525,285L527,289L528,292L531,295L533,299L536,302L538,305L541,307L544,310L547,312L551,314L555,317L559,318L562,320L567,322L572,323L577,324L582,325L586,325L591,325L596,324L602,321L607,316L612,310L617,302L621,292" stroke-opacity="1" stroke-width="5" stroke-linecap="round" stroke-linejoin="round" style="-webkit-tap-highlight-color: rgba(0, 0, 0, 0); stroke-opacity: 1; stroke-linecap: round; stroke-linejoin: round; -webkit-user-select: text;"></path><path fill="none" stroke="#000000" d="M608,198L607,201L607,204L607,207L608,211L609,216L609,223L611,229L611,235L613,242L613,249L614,255L616,263L616,270L617,277L618,284L620,291L621,298L623,304L625,310L627,316L629,322L632,328L635,333L639,337L643,341L647,345L652,347L657,349L662,351L667,351L673,351L678,351L684,350L690,345L696,338L701,331L705,321L707,310" stroke-opacity="1" stroke-width="5" stroke-linecap="round" stroke-linejoin="round" style="-webkit-tap-highlight-color: rgba(0, 0, 0, 0); stroke-opacity: 1; stroke-linecap: round; stroke-linejoin: round; -webkit-user-select: text;"></path><path fill="none" stroke="#000000" d="M680,239L673,231L672,231L672,235L672,240L672,246L672,252L672,259L674,266L675,274L676,281L677,288L679,294L680,300L682,306L684,312L686,317L688,322L691,326L694,330L698,332L702,335L706,337L711,337L717,337L724,337L731,332L737,324L743,313" stroke-opacity="1" stroke-width="5" stroke-linecap="round" stroke-linejoin="round" style="-webkit-tap-highlight-color: rgba(0, 0, 0, 0); stroke-opacity: 1; stroke-linecap: round; stroke-linejoin: round; -webkit-user-select: text;"></path><path fill="none" stroke="#000000" d="M715,204L716,212L716,217L716,222L716,228L717,235L718,242L720,249L722,254L725,259L730,262L737,265L744,266L752,266" stroke-opacity="1" stroke-width="5" stroke-linecap="round" stroke-linejoin="round" style="-webkit-tap-highlight-color: rgba(0, 0, 0, 0); stroke-opacity: 1; stroke-linecap: round; stroke-linejoin: round; -webkit-user-select: text;"></path><path fill="none" stroke="#000000" d="M379,151L375,152L375,155L375,159L375,166L374,170L374,176L374,182L373,188L373,193L373,198L373,203L373,208L373,214L373,218L374,223L375,227L376,232L376,237L377,243L378,247L379,252L380,258L380,263L381,269L382,274L383,279L383,283L384,288L385,293L386,298L387,301L389,305L391,308L392,310L395,313L397,316L400,319L404,321L407,323L411,326L414,328L419,330L424,331L428,332L433,332L440,332L448,332L455,331L462,327L468,319L474,309" stroke-opacity="1" stroke-width="5" stroke-linecap="round" stroke-linejoin="round" style="-webkit-tap-highlight-color: rgba(0, 0, 0, 0); stroke-opacity: 1; stroke-linecap: round; stroke-linejoin: round; -webkit-user-select: text;"></path><path fill="none" stroke="#000000" d="M430,232L433,244L433,250L434,256L435,263L436,269L437,276L438,282L438,288L438,295L439,302L439,307L440,313L441,319L443,324L446,329L450,333L455,338L459,342L464,345L470,349L476,351L482,352L490,352L500,351L507,346" stroke-opacity="1" stroke-width="5" stroke-linecap="round" stroke-linejoin="round" style="-webkit-tap-highlight-color: rgba(0, 0, 0, 0); stroke-opacity: 1; stroke-linecap: round; stroke-linejoin: round; -webkit-user-select: text;"></path><path fill="none" stroke="#000000" d="M511,301L508,303L508,306L508,309L508,313L508,318L509,323L509,328L510,334L511,339L511,344L512,350L513,355L514,360L514,365L516,371L518,376L519,381L522,385L525,390L529,393L533,397L538,400L543,402L550,404L557,405L566,405L577,402L585,396" stroke-opacity="1" stroke-width="5" stroke-linecap="round" stroke-linejoin="round" style="-webkit-tap-highlight-color: rgba(0, 0, 0, 0); stroke-opacity: 1; stroke-linecap: round; stroke-linejoin: round; -webkit-user-select: text;"></path><path fill="none" stroke="#000000" d="M565,320L563,332L563,336L563,342L563,348L563,354L565,361L566,367L567,373L569,379L570,385L572,390L575,395L579,400L583,404L588,407L593,410L600,410L608,410L617,407L624,399" stroke-opacity="1" stroke-width="5" stroke-linecap="round" stroke-linejoin="round" style="-webkit-tap-highlight-color: rgba(0, 0, 0, 0); stroke-opacity: 1; stroke-linecap: round; stroke-linejoin: round; -webkit-user-select: text;"></path><path fill="none" stroke="#000000" d="M407,280L408,289L408,293L408,298L408,303L408,309L408,315L408,320L408,326L408,331L407,337L407,342L407,347L407,352L407,357L407,363L407,368L407,373L407,378L407,383L407,388L408,393L408,399L409,404L411,408L412,413L414,418L417,423L419,427L422,431L425,434L429,437L432,440L436,443L441,445L446,448L452,449L458,451L464,452L471,453L480,453L487,453L497,449L508,440L517,427" stroke-opacity="1" stroke-width="5" stroke-linecap="round" stroke-linejoin="round" style="-webkit-tap-highlight-color: rgba(0, 0, 0, 0); stroke-opacity: 1; stroke-linecap: round; stroke-linejoin: round; -webkit-user-select: text;"></path><path fill="none" stroke="#000000" d="M363,223L364,227L365,230L366,235L368,241L370,248L372,257L373,264L374,273L374,280L375,290L375,298L376,305L377,314L378,322L379,330L380,338L382,346L383,353L384,359L385,367L387,374L389,380L390,386L392,392L395,398L397,403L399,408L402,413L404,418L407,422L411,427L415,431L419,434L424,437L429,439L435,441L441,442L448,442L456,442L465,442L475,438L484,432L494,419" stroke-opacity="1" stroke-width="5" stroke-linecap="round" stroke-linejoin="round" style="-webkit-tap-highlight-color: rgba(0, 0, 0, 0); stroke-opacity: 1; stroke-linecap: round; stroke-linejoin: round; -webkit-user-select: text;"></path><path fill="none" stroke="#000000" d="M322,169L322,179L322,183L322,189L322,195L322,201L322,206L323,213L323,219L324,225L324,232L324,238L325,245L325,252L326,259L327,266L327,272L327,279L328,286L328,292L329,298L329,305L329,311L330,317L331,323L332,329L334,334L335,339L337,344L339,349L341,354L344,359L348,364L351,368L356,373L361,377L366,380L371,383L378,384L385,385L394,385L404,384L411,378L418,369" stroke-opacity="1" stroke-width="5" stroke-linecap="round" stroke-linejoin="round" style="-webkit-tap-highlight-color: rgba(0, 0, 0, 0); stroke-opacity: 1; stroke-linecap: round; stroke-linejoin: round; -webkit-user-select: text;"></path><path fill="none" stroke="#000000" d="M277,170L277,176L277,180L277,185L277,192L277,199L277,207L277,216L276,225L276,234L276,244L276,254L276,263L276,273L276,281L278,291L282,300L285,308L289,318L294,326L299,332L305,336L312,339L321,339L330,337L338,329L344,319" stroke-opacity="1" stroke-width="5" stroke-linecap="round" stroke-linejoin="round" style="-webkit-tap-highlight-color: rgba(0, 0, 0, 0); stroke-opacity: 1; stroke-linecap: round; stroke-linejoin: round; -webkit-user-select: text;"></path><path fill="none" stroke="#000000" d="M209,189L208,198L208,202L209,207L210,213L211,218L211,224L212,229L212,235L212,240L212,246L212,251L212,256L212,261L212,266L212,272L212,277L212,282L212,288L212,293L212,298L212,303L212,308L212,313L212,318L212,323L213,327L214,332L215,337L216,342L217,346L218,350L220,355L221,359L222,364L224,368L225,372L228,377L230,380L233,383L236,387L239,390L243,393L247,396L251,399L256,402L262,404L267,405L273,407L278,407L283,407L289,407L294,407L300,405L305,400L311,392L317,383L324,369L332,353" stroke-opacity="1" stroke-width="5" stroke-linecap="round" stroke-linejoin="round" style="-webkit-tap-highlight-color: rgba(0, 0, 0, 0); stroke-opacity: 1; stroke-linecap: round; stroke-linejoin: round; -webkit-user-select: text;"></path><path fill="none" stroke="#000000" d="M278,67L275,62L275,67L275,71L275,76L275,82L275,87L275,94L275,101L275,107L275,115L275,122L275,130L275,137L275,145L276,154L277,161L278,169L278,177L279,184L280,191L281,198L282,206L283,212L284,219L285,226L287,232L288,238L289,244L291,249L293,255L295,260L297,264L300,269L302,274L306,277L310,280L313,283L317,286L322,288L325,290L329,292L334,293L338,294L342,294L346,294L350,294L353,294L358,292L364,287L370,280L376,271" stroke-opacity="1" stroke-width="5" stroke-linecap="round" stroke-linejoin="round" style="-webkit-tap-highlight-color: rgba(0, 0, 0, 0); stroke-opacity: 1; stroke-linecap: round; stroke-linejoin: round; -webkit-user-select: text;"></path><path fill="none" stroke="#000000" d="M180,147L182,162L183,167L183,172L184,178L184,185L184,191L184,198L184,203L184,210L184,217L185,224L185,232L186,239L187,247L188,254L190,261L191,269L193,276L195,284L198,291L200,296L203,303L207,307L211,311L215,315L221,319L227,322L233,324L239,325L245,326L252,326L259,326L266,323L272,318L278,308L283,298" stroke-opacity="1" stroke-width="5" stroke-linecap="round" stroke-linejoin="round" style="-webkit-tap-highlight-color: rgba(0, 0, 0, 0); stroke-opacity: 1; stroke-linecap: round; stroke-linejoin: round; -webkit-user-select: text;"></path><path fill="none" stroke="#000000" d="M140,172L140,179L140,183L141,189L142,195L143,201L144,208L144,215L145,223L145,230L146,237L146,245L148,252L151,259L154,266L157,274L161,279L164,285L168,289L171,294L175,297L180,300L186,300L193,300L201,297L208,290L215,281" stroke-opacity="1" stroke-width="5" stroke-linecap="round" stroke-linejoin="round" style="-webkit-tap-highlight-color: rgba(0, 0, 0, 0); stroke-opacity: 1; stroke-linecap: round; stroke-linejoin: round; -webkit-user-select: text;"></path><path fill="none" stroke="#000000" d="M92,187L92,193L92,197L92,203L92,208L92,215L92,222L92,227L92,235L92,242L92,249L92,256L91,263L91,270L91,277L91,282L91,289L91,295L91,300L91,305L91,311L91,315L91,320L91,325L92,329L93,333L94,338L95,342L96,348L98,352L101,356L103,360L105,364L109,368L112,372L115,376L120,380L123,383L128,386L132,389L136,392L141,394L145,397L150,398L155,400L159,402L164,404L168,405L173,406L178,406L183,406L188,406L194,406L199,406L205,406L211,404L217,401L222,398L228,394L233,390L239,385L244,378L247,369L249,360" stroke-opacity="1" stroke-width="5" stroke-linecap="round" stroke-linejoin="round" style="-webkit-tap-highlight-color: rgba(0, 0, 0, 0); stroke-opacity: 1; stroke-linecap: round; stroke-linejoin: round; -webkit-user-select: text;"></path><path fill="none" stroke="#000000" d="M165,308L165,310L165,317L165,324L166,331L166,338L167,346L167,354L167,361L167,369L168,378L169,385L170,393L172,400L174,407L176,413L179,420L183,427L186,433L191,438L196,442L201,446L208,449L214,451L222,451L230,451L239,450L248,445L257,439L268,429L278,418L286,405" stroke-opacity="1" stroke-width="5" stroke-linecap="round" stroke-linejoin="round" style="-webkit-tap-highlight-color: rgba(0, 0, 0, 0); stroke-opacity: 1; stroke-linecap: round; stroke-linejoin: round; -webkit-user-select: text;"></path><path fill="none" stroke="#000000" d="M208,344L209,355L209,361L210,368L212,376L212,383L214,393L215,402L216,410L217,417L219,425L221,432L225,438L229,444L234,449L242,455L249,458L257,461L267,463L277,463L289,463L300,456L309,446L315,431" stroke-opacity="1" stroke-width="5" stroke-linecap="round" stroke-linejoin="round" style="-webkit-tap-highlight-color: rgba(0, 0, 0, 0); stroke-opacity: 1; stroke-linecap: round; stroke-linejoin: round; -webkit-user-select: text;"></path><path fill="none" stroke="#000000" d="M291,334L289,337L289,342L289,349L289,356L289,364L289,372L289,380L289,387L289,395L289,402L289,410L289,417L289,423L290,430L292,435L294,441L296,446L298,451L300,455L302,459L305,462L307,465L310,468L313,471L315,473L319,476L322,478L324,480L327,483L330,485L333,486L336,488L340,489L343,490L347,490L350,490L353,491L357,491L361,491L364,491L367,491L370,491L374,491L378,490L381,488L384,487L388,485L392,482L396,478L400,475L403,470L407,466L410,460L414,452L418,440" stroke-opacity="1" stroke-width="5" stroke-linecap="round" stroke-linejoin="round" style="-webkit-tap-highlight-color: rgba(0, 0, 0, 0); stroke-opacity: 1; stroke-linecap: round; stroke-linejoin: round; -webkit-user-select: text;"></path><path fill="none" stroke="#000000" d="M349,327L347,337L347,344L347,350L347,358L347,367L347,376L347,384L347,394L347,403L347,411L347,421L347,429L347,436L347,444L347,452L348,460L348,467L349,475L350,482L352,488L354,495L356,501L360,507L363,512L367,517L370,522L375,527L378,531L383,535L386,539L390,541L394,544L398,547L402,549L406,551L409,552L414,553L417,553L421,553L425,553L429,553L433,553L438,553L443,551L447,549L452,547L456,544L460,541L465,538L469,534L472,530L477,524L480,520L483,515L487,509L490,503L493,496L497,489L500,479L502,469L504,456" stroke-opacity="1" stroke-width="5" stroke-linecap="round" stroke-linejoin="round" style="-webkit-tap-highlight-color: rgba(0, 0, 0, 0); stroke-opacity: 1; stroke-linecap: round; stroke-linejoin: round; -webkit-user-select: text;"></path><path fill="none" stroke="#000000" d="M448,349L444,361L444,369L444,378L444,390L444,403L445,415L447,428L449,440L451,453L454,466L457,478L461,488L466,497L472,505L480,511L487,515L495,517L504,517L513,514L521,507L530,495L536,483" stroke-opacity="1" stroke-width="5" stroke-linecap="round" stroke-linejoin="round" style="-webkit-tap-highlight-color: rgba(0, 0, 0, 0); stroke-opacity: 1; stroke-linecap: round; stroke-linejoin: round; -webkit-user-select: text;"></path><path fill="none" stroke="#000000" d="M502,374L496,383L496,390L496,398L496,407L496,417L496,427L496,436L496,446L496,457L496,468L497,478L499,488L503,497L507,506L511,512L517,519L525,523L534,524L546,524L560,519L570,509L582,495" stroke-opacity="1" stroke-width="5" stroke-linecap="round" stroke-linejoin="round" style="-webkit-tap-highlight-color: rgba(0, 0, 0, 0); stroke-opacity: 1; stroke-linecap: round; stroke-linejoin: round; -webkit-user-select: text;"></path><path fill="none" stroke="#000000" d="M523,337L526,342L530,347L534,352L538,359L541,366L544,373L547,381L549,388L551,396L551,403L552,410L552,417L552,424L552,432L551,440L549,447L548,453L546,460L544,467L543,474L541,482L540,488L539,495L538,502L538,509L538,515L537,522L537,529L537,534L537,540L537,546L538,551L540,556L542,560L545,564L548,568L551,572L556,575L561,578L566,580L572,582L577,582L584,582L591,582L599,580L607,575L616,569L626,558L640,540" stroke-opacity="1" stroke-width="5" stroke-linecap="round" stroke-linejoin="round" style="-webkit-tap-highlight-color: rgba(0, 0, 0, 0); stroke-opacity: 1; stroke-linecap: round; stroke-linejoin: round; -webkit-user-select: text;"></path><path fill="none" stroke="#000000" d="M593,351L592,367L592,374L592,384L591,395L591,406L590,417L590,427L590,438L590,448L590,458L590,468L591,480L594,490L597,500L602,507L609,514L617,518L628,520L641,520L655,512L667,496" stroke-opacity="1" stroke-width="5" stroke-linecap="round" stroke-linejoin="round" style="-webkit-tap-highlight-color: rgba(0, 0, 0, 0); stroke-opacity: 1; stroke-linecap: round; stroke-linejoin: round; -webkit-user-select: text;"></path><path fill="none" stroke="#000000" d="M601,336L606,341L609,345L612,350L615,356L617,362L618,369L619,377L619,386L619,394L618,403L617,412L617,420L617,430L617,439L617,447L618,455L619,461L621,468L623,475L625,481L628,486L631,490L635,494L640,497L647,500L656,501L669,501L685,494L703,482" stroke-opacity="1" stroke-width="5" stroke-linecap="round" stroke-linejoin="round" style="-webkit-tap-highlight-color: rgba(0, 0, 0, 0); stroke-opacity: 1; stroke-linecap: round; stroke-linejoin: round; -webkit-user-select: text;"></path><path fill="none" stroke="#000000" d="M658,322L664,328L667,332L671,338L675,345L678,352L680,359L681,368L682,377L682,385L681,394L679,402L678,411L677,420L677,429L677,438L677,448L682,456L688,462L697,467L710,468L726,468" stroke-opacity="1" stroke-width="5" stroke-linecap="round" stroke-linejoin="round" style="-webkit-tap-highlight-color: rgba(0, 0, 0, 0); stroke-opacity: 1; stroke-linecap: round; stroke-linejoin: round; -webkit-user-select: text;"></path><path fill="none" stroke="#000000" d="M713,325L710,331L710,334L710,340L710,347L710,354L710,363L710,373L710,382L710,393L710,402L710,412L711,421L714,429L719,434L726,439L737,442L750,442" stroke-opacity="1" stroke-width="5" stroke-linecap="round" stroke-linejoin="round" style="-webkit-tap-highlight-color: rgba(0, 0, 0, 0); stroke-opacity: 1; stroke-linecap: round; stroke-linejoin: round; -webkit-user-select: text;"></path><path fill="none" stroke="#000000" d="M141,350L131,348L125,347L121,346L118,345L117,345L116,345L116,347L116,349L116,353L116,357L116,362L116,368L116,374L116,380L115,385L115,391L114,396L113,402L112,408L111,415L110,420L109,426L108,431L107,436L106,442L105,447L104,453L103,458L102,463L102,468L101,474L101,480L101,486L101,492L101,497L102,504L104,510L107,516L110,522L114,527L118,533L123,538L129,542L136,546L143,551L150,554L158,557L166,559L174,560L183,560L193,558L204,552L216,542L231,523" stroke-opacity="1" stroke-width="5" stroke-linecap="round" stroke-linejoin="round" style="-webkit-tap-highlight-color: rgba(0, 0, 0, 0); stroke-opacity: 1; stroke-linecap: round; stroke-linejoin: round; -webkit-user-select: text;"></path><path fill="none" stroke="#000000" d="M80,317L78,320L78,323L78,327L78,330L78,334L78,341L78,347L78,354L77,361L77,368L77,376L77,384L77,392L77,400L77,406L78,412L80,419L82,425L85,431L88,437L92,441L96,446L100,450L105,454L109,458L115,461L120,463L124,464L131,464L142,462L159,446" stroke-opacity="1" stroke-width="5" stroke-linecap="round" stroke-linejoin="round" style="-webkit-tap-highlight-color: rgba(0, 0, 0, 0); stroke-opacity: 1; stroke-linecap: round; stroke-linejoin: round; -webkit-user-select: text;"></path><path fill="none" stroke="#000000" d="M57,200L61,208L61,213L61,218L61,225L62,231L62,237L62,244L62,250L62,257L63,264L64,270L65,276L67,283L69,288L71,294L74,300L77,307L81,312L85,317L89,322L93,326L96,330L101,334L105,337L110,339L115,342L119,344L124,346L130,347L134,348L141,348L146,348L151,348L157,348L164,345L171,340L182,332L197,317" stroke-opacity="1" stroke-width="5" stroke-linecap="round" stroke-linejoin="round" style="-webkit-tap-highlight-color: rgba(0, 0, 0, 0); stroke-opacity: 1; stroke-linecap: round; stroke-linejoin: round; -webkit-user-select: text;"></path><path fill="none" stroke="#000000" d="M49,98L50,102L50,106L51,111L51,118L52,125L52,132L52,139L52,145L52,152L52,159L52,166L52,173L52,179L52,186L52,193L53,198L55,204L59,210L62,216L66,222L71,227L76,232L81,237L88,240L93,244L98,247L105,248L111,249L120,249L130,249L140,244L154,235L170,219L181,197" stroke-opacity="1" stroke-width="5" stroke-linecap="round" stroke-linejoin="round" style="-webkit-tap-highlight-color: rgba(0, 0, 0, 0); stroke-opacity: 1; stroke-linecap: round; stroke-linejoin: round; -webkit-user-select: text;"></path><path fill="none" stroke="#000000" d="M181,71L181,81L181,87L181,94L182,103L183,111L184,118L184,126L185,134L185,142L185,150L186,158L186,166L187,174L188,180L190,187L192,193L195,200L198,206L203,211L210,218L219,222L231,225L246,226L266,226" stroke-opacity="1" stroke-width="5" stroke-linecap="round" stroke-linejoin="round" style="-webkit-tap-highlight-color: rgba(0, 0, 0, 0); stroke-opacity: 1; stroke-linecap: round; stroke-linejoin: round; -webkit-user-select: text;"></path><path fill="none" stroke="#000000" d="M44,308L45,317L47,322L50,328L50,334L51,342L52,349L52,356L53,364L54,371L54,378L54,386L55,394L55,401L55,409L55,417L55,424L55,431L55,437L55,444L56,450L57,456L59,462L61,468L63,474L65,479L67,485L70,489L73,493L76,497L80,501L84,505L88,507L93,509L97,512L102,513L106,514L111,515L117,516L122,517L128,517L133,517L139,517L147,515L153,511L164,502L178,488" stroke-opacity="1" stroke-width="5" stroke-linecap="round" stroke-linejoin="round" style="-webkit-tap-highlight-color: rgba(0, 0, 0, 0); stroke-opacity: 1; stroke-linecap: round; stroke-linejoin: round; -webkit-user-select: text;"></path><path fill="none" stroke="#000000" d="M174,438L178,442L182,446L186,450L188,455L190,461L190,466L191,473L191,480L191,487L189,495L188,503L186,509L185,516L183,523L183,530L182,536L182,543L182,549L182,556L182,562L183,567L186,573L190,577L193,582L198,585L203,587L210,590L217,591L223,591L230,591L238,591L246,587L254,580L263,569L271,553" stroke-opacity="1" stroke-width="5" stroke-linecap="round" stroke-linejoin="round" style="-webkit-tap-highlight-color: rgba(0, 0, 0, 0); stroke-opacity: 1; stroke-linecap: round; stroke-linejoin: round; -webkit-user-select: text;"></path><path fill="none" stroke="#000000" d="M239,463L240,473L241,480L243,487L244,495L246,504L246,512L246,521L246,530L246,539L244,547L243,556L243,563L243,571L242,580L242,587L242,594L242,602L242,609L242,616L244,622L247,627L251,633L254,637L259,641L265,643L272,645L281,645L292,645L304,633" stroke-opacity="1" stroke-width="5" stroke-linecap="round" stroke-linejoin="round" style="-webkit-tap-highlight-color: rgba(0, 0, 0, 0); stroke-opacity: 1; stroke-linecap: round; stroke-linejoin: round; -webkit-user-select: text;"></path><path fill="none" stroke="#000000" d="M298,475L290,481L290,486L290,494L290,503L290,512L290,521L291,531L292,541L292,551L292,561L293,570L293,577L293,585L294,592L296,597L299,603L302,608L307,613L311,616L316,619L322,620L327,621L332,622L338,622L344,622L350,618L356,614L363,607L370,599L380,586L393,568" stroke-opacity="1" stroke-width="5" stroke-linecap="round" stroke-linejoin="round" style="-webkit-tap-highlight-color: rgba(0, 0, 0, 0); stroke-opacity: 1; stroke-linecap: round; stroke-linejoin: round; -webkit-user-select: text;"></path><path fill="none" stroke="#000000" d="M343,464L349,476L351,483L353,491L355,499L356,508L356,517L356,526L355,536L353,545L352,555L350,564L349,573L348,581L348,588L347,596L347,603L347,610L347,617L347,624L348,631L350,637L351,642L353,646L355,650L358,654L361,657L364,660L368,663L372,664L376,665L380,666L385,667L389,667L395,667L400,664L406,660L412,655L419,649L426,641L435,627" stroke-opacity="1" stroke-width="5" stroke-linecap="round" stroke-linejoin="round" style="-webkit-tap-highlight-color: rgba(0, 0, 0, 0); stroke-opacity: 1; stroke-linecap: round; stroke-linejoin: round; -webkit-user-select: text;"></path><path fill="none" stroke="#000000" d="M403,500L411,508L414,514L417,522L419,531L420,540L421,551L422,562L422,573L423,585L423,597L423,608L424,619L424,631L424,641L426,651L428,661L431,668L435,674L441,678L449,680L461,681L477,680L492,673L502,663L504,651" stroke-opacity="1" stroke-width="5" stroke-linecap="round" stroke-linejoin="round" style="-webkit-tap-highlight-color: rgba(0, 0, 0, 0); stroke-opacity: 1; stroke-linecap: round; stroke-linejoin: round; -webkit-user-select: text;"></path><path fill="none" stroke="#000000" d="M466,567L471,571L475,576L477,582L480,590L482,598L482,607L483,616L483,625L483,634L483,644L482,654L482,664L481,673L481,680L481,688L481,694L481,700L481,706L482,711L484,716L486,720L488,723L491,726L494,729L496,731L499,733L502,734L505,735L509,736L512,736L516,736L520,736L525,736L531,733L536,730L542,725L547,721L554,713L560,704L566,692" stroke-opacity="1" stroke-width="5" stroke-linecap="round" stroke-linejoin="round" style="-webkit-tap-highlight-color: rgba(0, 0, 0, 0); stroke-opacity: 1; stroke-linecap: round; stroke-linejoin: round; -webkit-user-select: text;"></path><path fill="none" stroke="#000000" d="M522,540L521,544L521,551L521,560L521,570L521,583L521,594L521,608L521,618L521,632L521,643L521,657L521,670L524,683L526,694L530,705L535,715L539,721L547,728L555,732L564,736L576,738L589,738L601,738L615,729" stroke-opacity="1" stroke-width="5" stroke-linecap="round" stroke-linejoin="round" style="-webkit-tap-highlight-color: rgba(0, 0, 0, 0); stroke-opacity: 1; stroke-linecap: round; stroke-linejoin: round; -webkit-user-select: text;"></path><path fill="none" stroke="#000000" d="M549,544L558,544L562,545L569,548L576,555L581,561L585,569L587,578L587,587L587,597L587,606L587,615L587,624L587,632L587,641L587,649L587,658L587,665L587,673L587,680L588,687L589,693L590,699L591,704L593,709L595,714L597,717L601,721L604,724L608,727L613,729L618,732L624,733L630,735L636,736L643,736L651,736L659,731L667,726L675,714" stroke-opacity="1" stroke-width="5" stroke-linecap="round" stroke-linejoin="round" style="-webkit-tap-highlight-color: rgba(0, 0, 0, 0); stroke-opacity: 1; stroke-linecap: round; stroke-linejoin: round; -webkit-user-select: text;"></path><path fill="none" stroke="#000000" d="M611,512L621,511L625,515L630,523L637,531L643,541L648,552L651,563L651,576L651,590L651,604L649,617L647,631L646,645L646,660L646,674L646,688L648,701L653,714L659,724L668,731L678,733L693,731" stroke-opacity="1" stroke-width="5" stroke-linecap="round" stroke-linejoin="round" style="-webkit-tap-highlight-color: rgba(0, 0, 0, 0); stroke-opacity: 1; stroke-linecap: round; stroke-linejoin: round; -webkit-user-select: text;"></path><path fill="none" stroke="#000000" d="M660,485L670,495L676,502L682,509L685,517L687,526L687,536L687,545L686,555L684,564L682,573L681,582L679,590L678,598L677,605L677,613L677,620L677,628L677,636L676,643L676,650L676,656L676,663L676,670L676,675L677,680L679,685L680,689L682,693L684,697L686,701L688,705L690,709L693,711L696,714L699,717L701,718L705,720L709,721L715,722L721,722L730,721L743,713L754,701" stroke-opacity="1" stroke-width="5" stroke-linecap="round" stroke-linejoin="round" style="-webkit-tap-highlight-color: rgba(0, 0, 0, 0); stroke-opacity: 1; stroke-linecap: round; stroke-linejoin: round; -webkit-user-select: text;"></path><path fill="none" stroke="#000000" d="M726,492L725,501L725,507L725,515L725,524L724,535L724,546L723,557L723,568L723,579L723,589L723,599L726,607L729,615L733,621L740,626L749,629L759,629" stroke-opacity="1" stroke-width="5" stroke-linecap="round" stroke-linejoin="round" style="-webkit-tap-highlight-color: rgba(0, 0, 0, 0); stroke-opacity: 1; stroke-linecap: round; stroke-linejoin: round; -webkit-user-select: text;"></path><path fill="none" stroke="#000000" d="M534,648L543,657L547,663L550,668L552,675L553,682L553,689L553,697L551,704L548,711L545,718L544,724L542,730L541,737L540,743L540,748L540,755L539,762L539,768L539,774L539,779L539,785L538,791L538,795L538,800L538,804L538,809L538,813L538,818L538,821L538,824L539,828L540,831L541,834L543,838L544,841L546,845L548,847L552,851L557,854L565,856L576,858L589,858L607,855L626,842" stroke-opacity="1" stroke-width="5" stroke-linecap="round" stroke-linejoin="round" style="-webkit-tap-highlight-color: rgba(0, 0, 0, 0); stroke-opacity: 1; stroke-linecap: round; stroke-linejoin: round; -webkit-user-select: text;"></path><path fill="none" stroke="#000000" d="M616,663L612,665L608,671L604,680L602,689L600,700L599,711L599,725L599,738L599,750L599,762L599,775L599,788L600,798L600,809L601,819L604,828L608,835L613,842L621,849L630,855L642,856L660,850" stroke-opacity="1" stroke-width="5" stroke-linecap="round" stroke-linejoin="round" style="-webkit-tap-highlight-color: rgba(0, 0, 0, 0); stroke-opacity: 1; stroke-linecap: round; stroke-linejoin: round; -webkit-user-select: text;"></path><path fill="none" stroke="#000000" d="M643,666L650,670L655,674L658,678L661,683L663,688L664,694L665,700L665,707L665,714L665,720L665,727L664,733L662,740L662,747L661,754L660,761L660,768L659,774L658,782L658,788L658,794L658,799L658,805L658,811L658,816L658,821L658,825L658,829L658,832L658,836L658,839L659,842L660,845L661,849L662,852L664,855L666,857L668,859L671,861L674,862L679,864L683,864L689,865L694,865L700,866L707,866L715,866L723,866L735,857" stroke-opacity="1" stroke-width="5" stroke-linecap="round" stroke-linejoin="round" style="-webkit-tap-highlight-color: rgba(0, 0, 0, 0); stroke-opacity: 1; stroke-linecap: round; stroke-linejoin: round; -webkit-user-select: text;"></path><path fill="none" stroke="#000000" d="M449,651L447,662L447,671L448,684L451,696L452,709L452,722L452,736L451,750L450,764L448,778L448,792L448,806L450,818L456,829L466,839L479,845L493,846L512,844" stroke-opacity="1" stroke-width="5" stroke-linecap="round" stroke-linejoin="round" style="-webkit-tap-highlight-color: rgba(0, 0, 0, 0); stroke-opacity: 1; stroke-linecap: round; stroke-linejoin: round; -webkit-user-select: text;"></path><path fill="none" stroke="#000000" d="M490,584L494,583L499,585L504,588L509,594L510,599L511,606L511,613L511,620L510,627L508,634L507,641L506,647L506,655L505,662L505,670L504,677L504,685L504,692L504,697L504,701L504,707L504,712L504,717L504,722L504,728L504,733L504,738L504,743L505,748L506,753L508,759L509,764L511,769L512,774L514,779L517,785L521,790L526,795L531,799L537,803L545,806L555,809L566,810L583,810L603,802L623,788" stroke-opacity="1" stroke-width="5" stroke-linecap="round" stroke-linejoin="round" style="-webkit-tap-highlight-color: rgba(0, 0, 0, 0); stroke-opacity: 1; stroke-linecap: round; stroke-linejoin: round; -webkit-user-select: text;"></path><path fill="none" stroke="#000000" d="M598,579L600,590L600,597L600,606L601,616L601,626L601,637L601,650L601,662L600,675L599,687L598,699L598,710L598,721L598,730L599,740L602,748L607,756L613,764L619,770L628,775L641,777L659,775L679,760" stroke-opacity="1" stroke-width="5" stroke-linecap="round" stroke-linejoin="round" style="-webkit-tap-highlight-color: rgba(0, 0, 0, 0); stroke-opacity: 1; stroke-linecap: round; stroke-linejoin: round; -webkit-user-select: text;"></path><path fill="none" stroke="#000000" d="M640,554L645,556L647,561L650,568L653,577L655,585L656,592L656,602L656,610L656,619L656,627L655,636L653,644L652,652L650,659L649,666L648,674L647,681L647,688L645,694L645,701L644,706L643,712L643,718L643,724L643,730L643,735L643,741L643,747L643,752L644,757L646,762L648,767L650,772L652,777L655,781L657,785L660,788L664,792L667,795L672,797L677,799L686,800L698,800L713,799L731,788L749,773L762,751" stroke-opacity="1" stroke-width="5" stroke-linecap="round" stroke-linejoin="round" style="-webkit-tap-highlight-color: rgba(0, 0, 0, 0); stroke-opacity: 1; stroke-linecap: round; stroke-linejoin: round; -webkit-user-select: text;"></path><path fill="none" stroke="#000000" d="M704,543L703,555L703,563L703,575L702,588L700,601L699,614L697,628L696,641L695,654L694,667L694,679L696,691L701,702L706,712L713,720L722,726L735,728L754,727" stroke-opacity="1" stroke-width="5" stroke-linecap="round" stroke-linejoin="round" style="-webkit-tap-highlight-color: rgba(0, 0, 0, 0); stroke-opacity: 1; stroke-linecap: round; stroke-linejoin: round; -webkit-user-select: text;"></path><path fill="none" stroke="#000000" d="M370,566L366,569L368,574L371,581L374,589L376,597L377,604L377,613L377,620L377,629L377,638L376,647L375,655L374,665L373,673L372,682L371,691L370,699L369,708L368,717L366,725L365,733L364,741L363,748L362,756L361,764L361,771L361,778L361,785L361,792L361,799L361,806L361,814L364,821L368,826L372,833L379,840L387,846L400,853L412,856L431,856L450,844L466,826" stroke-opacity="1" stroke-width="5" stroke-linecap="round" stroke-linejoin="round" style="-webkit-tap-highlight-color: rgba(0, 0, 0, 0); stroke-opacity: 1; stroke-linecap: round; stroke-linejoin: round; -webkit-user-select: text;"></path><path fill="none" stroke="#000000" d="M410,659L412,677L412,686L412,695L412,705L412,715L412,725L412,735L410,745L409,755L409,765L409,774L412,785L417,794L426,800L438,803L456,803L474,800" stroke-opacity="1" stroke-width="5" stroke-linecap="round" stroke-linejoin="round" style="-webkit-tap-highlight-color: rgba(0, 0, 0, 0); stroke-opacity: 1; stroke-linecap: round; stroke-linejoin: round; -webkit-user-select: text;"></path><path fill="none" stroke="#000000" d="M454,531L452,539L452,544L451,550L450,556L450,563L449,570L449,577L449,585L448,592L448,600L446,608L445,616L444,623L444,631L444,638L443,646L443,654L443,661L443,669L443,676L443,684L443,691L443,697L444,704L444,711L445,717L446,723L446,729L447,735L449,741L451,746L453,751L456,755L461,760L468,764L477,767L490,769L505,769L524,769" stroke-opacity="1" stroke-width="5" stroke-linecap="round" stroke-linejoin="round" style="-webkit-tap-highlight-color: rgba(0, 0, 0, 0); stroke-opacity: 1; stroke-linecap: round; stroke-linejoin: round; -webkit-user-select: text;"></path><path fill="none" stroke="#000000" d="M275,601L276,610L278,618L281,627L283,638L283,651L283,664L280,676L277,689L274,700L273,712L272,721L271,735L271,747L271,759L271,770L273,779L276,788L283,796L291,800L305,803L324,803L346,796" stroke-opacity="1" stroke-width="5" stroke-linecap="round" stroke-linejoin="round" style="-webkit-tap-highlight-color: rgba(0, 0, 0, 0); stroke-opacity: 1; stroke-linecap: round; stroke-linejoin: round; -webkit-user-select: text;"></path><path fill="none" stroke="#000000" d="M314,600L313,602L313,606L313,612L315,620L316,629L317,638L318,648L319,659L319,670L319,682L319,692L319,705L319,716L318,726L318,738L318,748L318,760L322,771L329,780L341,788L356,791L374,791" stroke-opacity="1" stroke-width="5" stroke-linecap="round" stroke-linejoin="round" style="-webkit-tap-highlight-color: rgba(0, 0, 0, 0); stroke-opacity: 1; stroke-linecap: round; stroke-linejoin: round; -webkit-user-select: text;"></path><path fill="none" stroke="#000000" d="M324,491L324,497L324,501L324,506L324,511L324,518L324,526L323,532L322,539L322,546L321,554L320,562L320,570L320,579L319,586L319,592L319,599L319,606L319,611L319,617L319,624L319,630L319,636L319,641L319,646L319,652L319,658L319,663L320,667L320,671L321,674L322,678L322,682L323,687L325,691L327,696L332,701L340,706L352,713L366,717L383,720L401,720" stroke-opacity="1" stroke-width="5" stroke-linecap="round" stroke-linejoin="round" style="-webkit-tap-highlight-color: rgba(0, 0, 0, 0); stroke-opacity: 1; stroke-linecap: round; stroke-linejoin: round; -webkit-user-select: text;"></path><path fill="none" stroke="#000000" d="M222,551L222,565L222,573L222,581L222,588L222,597L222,606L221,614L221,624L220,633L218,643L217,654L215,664L214,674L213,684L212,693L211,703L211,714L211,723L211,733L214,743L222,750L237,757L256,762L278,762" stroke-opacity="1" stroke-width="5" stroke-linecap="round" stroke-linejoin="round" style="-webkit-tap-highlight-color: rgba(0, 0, 0, 0); stroke-opacity: 1; stroke-linecap: round; stroke-linejoin: round; -webkit-user-select: text;"></path><path fill="none" stroke="#000000" d="M184,560L184,580L183,587L181,595L180,604L179,611L178,619L178,627L178,635L177,643L177,650L176,656L176,663L176,669L176,675L176,680L177,686L178,691L179,697L180,702L181,708L183,714L184,720L186,726L187,732L188,737L189,742L190,747L191,753L193,758L194,764L195,768L197,773L198,777L200,781L203,784L208,788L213,791L221,795L234,797L251,797L273,794" stroke-opacity="1" stroke-width="5" stroke-linecap="round" stroke-linejoin="round" style="-webkit-tap-highlight-color: rgba(0, 0, 0, 0); stroke-opacity: 1; stroke-linecap: round; stroke-linejoin: round; -webkit-user-select: text;"></path><path fill="none" stroke="#000000" d="M249,670L254,681L254,689L253,700L250,711L247,723L245,734L243,743L242,754L242,764L242,774L242,783L242,792L242,799L244,805L246,811L250,816L255,821L262,826L272,830L285,830L301,826" stroke-opacity="1" stroke-width="5" stroke-linecap="round" stroke-linejoin="round" style="-webkit-tap-highlight-color: rgba(0, 0, 0, 0); stroke-opacity: 1; stroke-linecap: round; stroke-linejoin: round; -webkit-user-select: text;"></path><path fill="none" stroke="#000000" d="M133,534L131,546L131,553L132,562L133,572L135,581L135,588L136,596L136,604L136,611L136,617L136,624L136,630L136,636L137,641L137,647L137,653L137,659L137,665L138,670L139,675L139,681L140,687L141,692L143,697L145,703L147,708L151,714L156,719L161,724L166,728L171,733L176,738L183,743L192,747L205,748L222,748L243,740" stroke-opacity="1" stroke-width="5" stroke-linecap="round" stroke-linejoin="round" style="-webkit-tap-highlight-color: rgba(0, 0, 0, 0); stroke-opacity: 1; stroke-linecap: round; stroke-linejoin: round; -webkit-user-select: text;"></path><path fill="none" stroke="#000000" d="M175,610L174,622L174,631L174,641L174,655L174,667L174,680L174,690L174,701L174,712L174,721L175,731L176,740L177,748L178,756L180,764L181,770L184,776L188,782L195,788L206,790L224,790L247,774" stroke-opacity="1" stroke-width="5" stroke-linecap="round" stroke-linejoin="round" style="-webkit-tap-highlight-color: rgba(0, 0, 0, 0); stroke-opacity: 1; stroke-linecap: round; stroke-linejoin: round; -webkit-user-select: text;"></path><path fill="none" stroke="#000000" d="M95,563L93,574L93,580L93,586L93,592L93,599L93,607L93,614L93,622L93,629L93,636L93,643L93,650L93,657L93,663L93,668L94,673L94,677L95,682L95,687L96,691L96,695L97,699L97,703L98,707L98,711L98,715L99,718L99,722L100,726L101,730L101,734L102,738L103,742L104,745L105,749L106,753L108,757L110,762L112,766L115,771L118,775L122,780L127,784L133,789L139,793L147,796L159,799L176,799L199,787" stroke-opacity="1" stroke-width="5" stroke-linecap="round" stroke-linejoin="round" style="-webkit-tap-highlight-color: rgba(0, 0, 0, 0); stroke-opacity: 1; stroke-linecap: round; stroke-linejoin: round; -webkit-user-select: text;"></path><path fill="none" stroke="#000000" d="M127,628L126,639L126,647L126,658L128,668L130,680L131,689L132,699L134,710L135,720L137,730L138,739L140,747L144,755L147,763L153,771L160,777L171,781L195,781L225,774" stroke-opacity="1" stroke-width="5" stroke-linecap="round" stroke-linejoin="round" style="-webkit-tap-highlight-color: rgba(0, 0, 0, 0); stroke-opacity: 1; stroke-linecap: round; stroke-linejoin: round; -webkit-user-select: text;"></path><path fill="none" stroke="#000000" d="M54,634L56,647L56,655L57,663L57,671L57,680L57,688L57,695L57,702L57,709L57,714L57,719L57,724L57,729L57,734L57,739L57,744L57,749L57,754L57,759L57,764L57,769L57,774L57,779L58,785L59,789L60,794L61,799L62,804L64,809L65,813L67,817L69,821L71,823L74,825L78,828L82,830L87,831L92,833L98,835L104,836L111,837L120,838L133,838L149,834L169,824L188,808" stroke-opacity="1" stroke-width="5" stroke-linecap="round" stroke-linejoin="round" style="-webkit-tap-highlight-color: rgba(0, 0, 0, 0); stroke-opacity: 1; stroke-linecap: round; stroke-linejoin: round; -webkit-user-select: text;"></path><path fill="none" stroke="#000000" d="M96,529L93,539L93,546L93,554L95,565L96,575L97,585L97,598L97,609L95,620L93,632L92,643L91,654L91,664L91,675L95,685L102,693L112,699L126,702L145,700" stroke-opacity="1" stroke-width="5" stroke-linecap="round" stroke-linejoin="round" style="-webkit-tap-highlight-color: rgba(0, 0, 0, 0); stroke-opacity: 1; stroke-linecap: round; stroke-linejoin: round; -webkit-user-select: text;"></path><path fill="none" stroke="#000000" d="M155,466L154,475L157,479L159,484L161,490L162,496L163,502L163,509L163,513L163,519L162,525L161,530L161,536L160,541L159,548L159,553L159,559L159,565L159,573L159,579L159,586L159,592L159,599L160,606L161,613L162,619L163,625L165,631L167,637L169,642L171,647L174,652L177,656L181,660L185,663L191,666L197,668L205,670L215,670L227,670L246,659" stroke-opacity="1" stroke-width="5" stroke-linecap="round" stroke-linejoin="round" style="-webkit-tap-highlight-color: rgba(0, 0, 0, 0); stroke-opacity: 1; stroke-linecap: round; stroke-linejoin: round; -webkit-user-select: text;"></path><path fill="none" stroke="#000000" d="M212,461L208,475L208,483L208,496L208,508L208,522L208,535L208,548L208,562L208,576L208,590L208,602L208,613L210,623L216,632L225,639L240,644L259,645L287,643" stroke-opacity="1" stroke-width="5" stroke-linecap="round" stroke-linejoin="round" style="-webkit-tap-highlight-color: rgba(0, 0, 0, 0); stroke-opacity: 1; stroke-linecap: round; stroke-linejoin: round; -webkit-user-select: text;"></path><path fill="none" stroke="#000000" d="M256,469L257,470L257,474L259,480L261,486L263,495L264,501L264,509L264,517L264,526L263,533L261,541L259,546L258,553L257,559L256,566L256,573L255,580L254,586L254,593L254,599L254,606L254,612L254,618L254,624L254,630L255,635L257,641L259,645L260,650L262,655L264,659L266,664L269,668L273,672L276,677L280,680L285,683L292,686L299,688L307,689L319,689L334,683L353,671L372,656" stroke-opacity="1" stroke-width="5" stroke-linecap="round" stroke-linejoin="round" style="-webkit-tap-highlight-color: rgba(0, 0, 0, 0); stroke-opacity: 1; stroke-linecap: round; stroke-linejoin: round; -webkit-user-select: text;"></path><path fill="none" stroke="#000000" d="M334,417L335,430L334,439L333,450L330,461L329,471L328,483L327,495L326,507L325,519L324,532L324,543L324,556L325,568L330,579L339,589L351,595L363,599L383,599" stroke-opacity="1" stroke-width="5" stroke-linecap="round" stroke-linejoin="round" style="-webkit-tap-highlight-color: rgba(0, 0, 0, 0); stroke-opacity: 1; stroke-linecap: round; stroke-linejoin: round; -webkit-user-select: text;"></path><path fill="none" stroke="#000000" d="M363,412L364,412L365,417L369,423L373,430L376,439L378,447L379,456L379,466L380,473L380,481L380,489L380,496L380,502L380,508L379,513L378,519L378,524L377,529L377,535L377,540L377,546L377,551L377,556L378,561L379,565L380,570L382,575L385,580L387,584L390,588L392,591L395,594L399,597L403,599L407,601L410,602L414,602L419,603L424,603L431,602L439,597L450,589L461,579L477,564" stroke-opacity="1" stroke-width="5" stroke-linecap="round" stroke-linejoin="round" style="-webkit-tap-highlight-color: rgba(0, 0, 0, 0); stroke-opacity: 1; stroke-linecap: round; stroke-linejoin: round; -webkit-user-select: text;"></path><path fill="none" stroke="#000000" d="M437,421L438,435L438,443L438,452L438,463L438,475L438,487L437,498L437,512L437,524L437,536L437,549L439,561L443,571L450,580L458,587L471,589L495,588" stroke-opacity="1" stroke-width="5" stroke-linecap="round" stroke-linejoin="round" style="-webkit-tap-highlight-color: rgba(0, 0, 0, 0); stroke-opacity: 1; stroke-linecap: round; stroke-linejoin: round; -webkit-user-select: text;"></path><path fill="none" stroke="#000000" d="M511,395L509,393L509,398L509,405L509,410L509,417L509,424L508,432L507,439L505,447L504,454L502,461L501,468L499,474L498,481L497,488L496,494L495,500L495,505L494,510L494,516L494,521L494,527L494,533L494,538L494,544L494,550L494,556L494,561L497,565L499,570L502,574L506,578L510,581L514,584L519,587L526,588L536,588L549,586L567,575L585,562" stroke-opacity="1" stroke-width="5" stroke-linecap="round" stroke-linejoin="round" style="-webkit-tap-highlight-color: rgba(0, 0, 0, 0); stroke-opacity: 1; stroke-linecap: round; stroke-linejoin: round; -webkit-user-select: text;"></path><path fill="none" stroke="#000000" d="M575,404L574,413L574,419L573,429L573,438L572,448L572,459L570,469L569,480L567,490L567,500L566,510L566,521L566,531L566,540L570,550L576,557L585,562L602,565L626,565" stroke-opacity="1" stroke-width="5" stroke-linecap="round" stroke-linejoin="round" style="-webkit-tap-highlight-color: rgba(0, 0, 0, 0); stroke-opacity: 1; stroke-linecap: round; stroke-linejoin: round; -webkit-user-select: text;"></path><path fill="none" stroke="#000000" d="M629,375L629,382L629,386L629,392L629,398L629,405L629,412L628,418L627,425L626,431L624,438L623,444L623,450L622,456L621,462L621,467L620,472L620,477L619,482L619,486L619,491L619,495L619,500L619,505L619,510L619,515L620,519L621,524L623,529L625,533L627,536L629,540L632,543L635,547L638,549L642,551L645,553L648,553L652,554L657,554L664,554L673,550L687,539" stroke-opacity="1" stroke-width="5" stroke-linecap="round" stroke-linejoin="round" style="-webkit-tap-highlight-color: rgba(0, 0, 0, 0); stroke-opacity: 1; stroke-linecap: round; stroke-linejoin: round; -webkit-user-select: text;"></path><path fill="none" stroke="#000000" d="M661,358L664,368L664,375L662,383L661,391L659,400L657,410L657,421L657,431L657,441L657,452L657,463L657,473L657,484L660,495L665,503L673,511L687,517L704,518L728,515" stroke-opacity="1" stroke-width="5" stroke-linecap="round" stroke-linejoin="round" style="-webkit-tap-highlight-color: rgba(0, 0, 0, 0); stroke-opacity: 1; stroke-linecap: round; stroke-linejoin: round; -webkit-user-select: text;"></path><path fill="none" stroke="#000000" d="M666,231L667,239L667,244L666,250L665,256L664,263L662,272L662,278L661,285L660,293L660,300L659,307L659,315L658,322L657,331L656,338L655,345L654,352L653,358L653,364L653,371L653,378L653,383L653,390L653,396L654,402L656,408L658,414L660,419L663,425L665,429L669,433L672,436L676,439L680,441L687,442L696,442L709,442L725,436" stroke-opacity="1" stroke-width="5" stroke-linecap="round" stroke-linejoin="round" style="-webkit-tap-highlight-color: rgba(0, 0, 0, 0); stroke-opacity: 1; stroke-linecap: round; stroke-linejoin: round; -webkit-user-select: text;"></path><path fill="none" stroke="#000000" d="M558,215L570,223L576,228L582,236L587,245L589,254L592,263L592,271L592,280L592,288L592,297L592,306L591,316L590,326L590,337L590,348L590,360L593,371L598,381L604,390L615,400L628,405L641,406" stroke-opacity="1" stroke-width="5" stroke-linecap="round" stroke-linejoin="round" style="-webkit-tap-highlight-color: rgba(0, 0, 0, 0); stroke-opacity: 1; stroke-linecap: round; stroke-linejoin: round; -webkit-user-select: text;"></path><path fill="none" stroke="#000000" d="M531,215L536,224L536,230L536,236L536,244L535,253L534,259L533,267L533,274L533,281L533,288L532,294L532,300L531,306L531,313L530,318L530,324L530,329L529,335L529,341L529,347L529,352L529,359L529,364L529,371L530,377L531,383L533,389L535,395L538,402L541,407L547,412L554,415L568,417L588,417" stroke-opacity="1" stroke-width="5" stroke-linecap="round" stroke-linejoin="round" style="-webkit-tap-highlight-color: rgba(0, 0, 0, 0); stroke-opacity: 1; stroke-linecap: round; stroke-linejoin: round; -webkit-user-select: text;"></path><path fill="none" stroke="#000000" d="M464,205L462,206L462,211L465,219L470,230L474,240L478,251L480,261L480,272L480,284L478,295L475,306L471,317L469,328L468,337L468,347L468,359L474,368L484,379L496,385L507,389L523,389" stroke-opacity="1" stroke-width="5" stroke-linecap="round" stroke-linejoin="round" style="-webkit-tap-highlight-color: rgba(0, 0, 0, 0); stroke-opacity: 1; stroke-linecap: round; stroke-linejoin: round; -webkit-user-select: text;"></path><path fill="none" stroke="#000000" d="M414,195L415,206L418,215L420,223L422,233L423,244L424,254L424,263L424,280L424,288L424,297L424,304L424,312L424,319L424,326L424,333L424,339L424,347L425,354L426,360L427,368L429,374L431,381L435,388L438,393L444,400L451,407L459,412L471,416L490,416" stroke-opacity="1" stroke-width="5" stroke-linecap="round" stroke-linejoin="round" style="-webkit-tap-highlight-color: rgba(0, 0, 0, 0); stroke-opacity: 1; stroke-linecap: round; stroke-linejoin: round; -webkit-user-select: text;"></path><path fill="none" stroke="#000000" d="M356,218L356,225L360,234L367,246L375,259L382,271L385,284L386,299L386,315L383,332L380,348L379,365L379,378L381,393L390,404L404,410L418,411" stroke-opacity="1" stroke-width="5" stroke-linecap="round" stroke-linejoin="round" style="-webkit-tap-highlight-color: rgba(0, 0, 0, 0); stroke-opacity: 1; stroke-linecap: round; stroke-linejoin: round; -webkit-user-select: text;"></path><path fill="none" stroke="#000000" d="M300,247L300,266L300,275L300,284L301,294L302,301L302,309L302,315L302,322L302,328L302,334L302,341L302,347L302,353L302,359L302,364L302,370L302,376L302,382L302,388L302,393L302,399L303,405L305,410L307,415L309,421L312,427L316,433L322,438L328,442L339,445L355,446L373,444" stroke-opacity="1" stroke-width="5" stroke-linecap="round" stroke-linejoin="round" style="-webkit-tap-highlight-color: rgba(0, 0, 0, 0); stroke-opacity: 1; stroke-linecap: round; stroke-linejoin: round; -webkit-user-select: text;"></path><path fill="none" stroke="#000000" d="M239,246L242,256L244,264L248,276L251,288L255,300L256,313L257,325L257,339L256,354L256,370L256,387L259,402L267,415L278,425L292,431L308,431" stroke-opacity="1" stroke-width="5" stroke-linecap="round" stroke-linejoin="round" style="-webkit-tap-highlight-color: rgba(0, 0, 0, 0); stroke-opacity: 1; stroke-linecap: round; stroke-linejoin: round; -webkit-user-select: text;"></path><path fill="none" stroke="#000000" d="M191,283L198,302L200,310L201,320L202,330L203,339L203,347L203,354L204,361L205,368L205,375L207,381L208,388L209,394L210,400L212,407L213,412L214,418L215,424L217,429L218,435L220,442L222,448L225,455L228,461L232,466L239,470L249,473L266,473L290,471L313,460" stroke-opacity="1" stroke-width="5" stroke-linecap="round" stroke-linejoin="round" style="-webkit-tap-highlight-color: rgba(0, 0, 0, 0); stroke-opacity: 1; stroke-linecap: round; stroke-linejoin: round; -webkit-user-select: text;"></path><path fill="none" stroke="#000000" d="M162,279L154,289L154,296L156,306L159,317L164,328L168,340L170,353L170,366L170,379L170,393L170,407L170,421L171,437L176,451L182,463L191,473L202,478L219,478" stroke-opacity="1" stroke-width="5" stroke-linecap="round" stroke-linejoin="round" style="-webkit-tap-highlight-color: rgba(0, 0, 0, 0); stroke-opacity: 1; stroke-linecap: round; stroke-linejoin: round; -webkit-user-select: text;"></path><path fill="none" stroke="#000000" d="M145,245L142,259L141,267L140,276L139,286L139,293L139,302L139,309L139,315L138,322L137,327L136,334L135,339L134,344L132,351L131,356L130,362L129,366L129,371L129,376L129,381L129,386L129,391L129,396L129,402L129,407L129,412L129,416L129,422L130,427L131,432L133,437L135,442L138,448L141,452L146,457L152,461L161,464L176,465L194,464L214,451" stroke-opacity="1" stroke-width="5" stroke-linecap="round" stroke-linejoin="round" style="-webkit-tap-highlight-color: rgba(0, 0, 0, 0); stroke-opacity: 1; stroke-linecap: round; stroke-linejoin: round; -webkit-user-select: text;"></path><path fill="none" stroke="#000000" d="M110,146L111,157L112,165L115,175L118,187L118,200L118,213L118,227L115,241L113,256L113,271L113,286L115,301L122,313L131,322L142,327L159,327" stroke-opacity="1" stroke-width="5" stroke-linecap="round" stroke-linejoin="round" style="-webkit-tap-highlight-color: rgba(0, 0, 0, 0); stroke-opacity: 1; stroke-linecap: round; stroke-linejoin: round; -webkit-user-select: text;"></path><path fill="none" stroke="#000000" d="M155,115L169,125L174,133L177,142L178,150L179,159L180,167L180,175L180,182L180,189L180,196L180,202L180,210L180,217L180,224L180,231L181,238L181,244L183,250L183,255L184,261L186,267L187,273L188,279L190,285L193,290L195,295L198,300L200,305L204,309L208,313L212,318L217,321L222,324L228,326L237,326L248,325L265,311" stroke-opacity="1" stroke-width="5" stroke-linecap="round" stroke-linejoin="round" style="-webkit-tap-highlight-color: rgba(0, 0, 0, 0); stroke-opacity: 1; stroke-linecap: round; stroke-linejoin: round; -webkit-user-select: text;"></path><path fill="none" stroke="#000000" d="M250,103L252,114L252,125L252,138L252,153L252,168L252,183L252,198L252,212L252,227L254,242L256,255L260,267L268,276L277,282L289,286L301,286" stroke-opacity="1" stroke-width="5" stroke-linecap="round" stroke-linejoin="round" style="-webkit-tap-highlight-color: rgba(0, 0, 0, 0); stroke-opacity: 1; stroke-linecap: round; stroke-linejoin: round; -webkit-user-select: text;"></path><path fill="none" stroke="#000000" d="M302,92L306,106L308,113L310,122L311,130L312,139L312,147L312,156L312,162L312,170L312,178L312,186L312,193L312,201L312,207L312,214L312,220L312,225L312,230L312,235L312,239L312,244L313,248L314,253L315,258L317,263L319,267L321,273L323,277L326,281L329,286L333,289L337,293L341,295L344,297L349,298L353,298L362,298L376,292L398,278" stroke-opacity="1" stroke-width="5" stroke-linecap="round" stroke-linejoin="round" style="-webkit-tap-highlight-color: rgba(0, 0, 0, 0); stroke-opacity: 1; stroke-linecap: round; stroke-linejoin: round; -webkit-user-select: text;"></path><path fill="none" stroke="#000000" d="M404,107L408,116L408,123L411,133L414,143L415,155L417,166L417,176L417,189L417,200L414,210L412,221L410,232L409,244L409,254L409,264L409,274L413,281L419,286L427,290L441,290L460,287" stroke-opacity="1" stroke-width="5" stroke-linecap="round" stroke-linejoin="round" style="-webkit-tap-highlight-color: rgba(0, 0, 0, 0); stroke-opacity: 1; stroke-linecap: round; stroke-linejoin: round; -webkit-user-select: text;"></path><path fill="none" stroke="#000000" d="M466,103L468,110L468,116L472,123L475,130L476,136L478,143L478,149L479,155L479,161L479,167L479,172L479,178L479,184L478,189L477,194L477,199L476,205L475,211L475,216L475,222L475,227L474,232L474,238L474,243L474,249L474,254L474,259L474,265L474,270L474,275L474,280L475,285L476,290L479,294L481,298L484,301L488,304L494,305L505,305L523,295" stroke-opacity="1" stroke-width="5" stroke-linecap="round" stroke-linejoin="round" style="-webkit-tap-highlight-color: rgba(0, 0, 0, 0); stroke-opacity: 1; stroke-linecap: round; stroke-linejoin: round; -webkit-user-select: text;"></path><path fill="none" stroke="#000000" d="M508,86L516,99L519,108L522,120L525,132L528,145L529,158L529,172L529,186L527,199L525,213L525,226L525,240L526,252L533,265L541,275L553,282L565,284L586,284" stroke-opacity="1" stroke-width="5" stroke-linecap="round" stroke-linejoin="round" style="-webkit-tap-highlight-color: rgba(0, 0, 0, 0); stroke-opacity: 1; stroke-linecap: round; stroke-linejoin: round; -webkit-user-select: text;"></path><path fill="none" stroke="#000000" d="M576,88L582,97L585,103L588,109L589,115L591,122L592,128L592,133L593,138L593,144L593,150L593,156L593,162L593,168L592,174L592,181L592,187L590,193L589,200L589,207L588,213L588,220L587,225L587,231L587,237L587,243L587,249L587,255L587,261L587,267L588,272L589,278L592,283L594,287L599,291L605,294L614,295L633,295" stroke-opacity="1" stroke-width="5" stroke-linecap="round" stroke-linejoin="round" style="-webkit-tap-highlight-color: rgba(0, 0, 0, 0); stroke-opacity: 1; stroke-linecap: round; stroke-linejoin: round; -webkit-user-select: text;"></path><path fill="none" stroke="#000000" d="M622,69L625,74L630,83L635,94L641,108L643,121L644,136L644,151L643,165L641,180L637,196L633,210L631,223L631,237L631,250L637,264L645,276L653,282L664,285L681,285" stroke-opacity="1" stroke-width="5" stroke-linecap="round" stroke-linejoin="round" style="-webkit-tap-highlight-color: rgba(0, 0, 0, 0); stroke-opacity: 1; stroke-linecap: round; stroke-linejoin: round; -webkit-user-select: text;"></path><path fill="none" stroke="#000000" d="M678,78L683,87L688,94L692,103L694,112L695,121L695,130L695,140L695,149L694,157L692,164L691,171L690,178L690,185L689,192L689,198L688,204L688,211L688,218L688,223L688,229L688,235L688,240L689,246L690,252L692,257L694,262L695,267L697,272L700,277L703,281L706,284L710,287L713,289L718,291L723,291L735,291L757,285" stroke-opacity="1" stroke-width="5" stroke-linecap="round" stroke-linejoin="round" style="-webkit-tap-highlight-color: rgba(0, 0, 0, 0); stroke-opacity: 1; stroke-linecap: round; stroke-linejoin: round; -webkit-user-select: text;"></path><path fill="none" stroke="#000000" d="M731,75L728,82L728,91L726,102L725,114L723,127L723,140L723,153L722,166L722,179L722,191L723,201L724,210L728,221L731,230L737,237L745,243L760,246" stroke-opacity="1" stroke-width="5" stroke-linecap="round" stroke-linejoin="round" style="-webkit-tap-highlight-color: rgba(0, 0, 0, 0); stroke-opacity: 1; stroke-linecap: round; stroke-linejoin: round; -webkit-user-select: text;"></path></svg>