<svg height="874" version="1.1" width="768" xmlns="http://www.w3.org/2000/svg" xmlns:xlink="http://www.w3.org/1999/xlink" style="overflow: hidden; position: relative; -webkit-user-select: text;"><desc style="-webkit-tap-highlight-color: rgba(0, 0, 0, 0); -webkit-user-select: text;">Created with Raphaël 2.2.0</desc><defs style="-webkit-tap-highlight-color: rgba(0, 0, 0, 0); -webkit-user-select: text;"></defs><path fill="none" stroke="#000000" d="M181,714L177,715L178,715L179,715L181,715L183,715L185,715L188,715L191,715L193,715L197,715L199,714L202,714L204,714L207,714L210,714L213,714L216,713L219,713L222,712L225,712L229,712L232,711L235,711L239,711L242,711L246,711L250,711L254,711L256,710L260,710L263,710L266,710L269,710L273,709L276,709L279,709L281,709L283,709L284,709L285,709L286,709L287,709L288,711L288,713L288,714L288,716L288,717L288,718L288,719L288,721L286,721L283,721L280,721L278,722L275,723L272,723L269,724L266,725L263,726L261,726L259,727L257,727L255,728L252,728L250,729L248,729L246,730L245,730L244,730L244,727L244,724L244,721L244,718L244,716L244,714L244,713L243,712L243,711L244,711L246,711L249,711L252,711L255,711L258,710L262,710L266,709L269,709L273,709L277,708L281,708L286,708L290,705L295,705L298,705L302,704L308,703L313,701L316,701L320,699L325,698L330,697L334,696L338,694L341,694L342,693L344,692L345,692L346,692L346,694L346,697L346,700L346,703L346,704L346,706L346,707L344,708L341,708L338,708L335,709L331,709L329,709L327,709L326,710L325,710L325,709L325,706L325,702L325,698L325,694L325,691L325,688L325,686L326,684L326,683L327,681L328,680L328,677L329,674L329,670L329,667L330,663L330,661L330,660L331,658L331,657L331,655L332,654L332,651L333,648L333,644L334,640L334,637L334,634L335,633L336,631L336,630L336,629L337,628L337,627L338,627L338,626L339,626L340,626L342,626L344,626L347,625L350,624L353,624L356,623L357,622L358,622L359,621L360,621L361,621L361,622L361,624L361,626L362,627L362,628L363,630L363,631L364,633L364,634L364,635L364,636L364,637L363,638L360,638L356,638L352,638L347,638L343,638L338,638L334,638L329,638L324,638L319,638L315,638L312,638L308,638L305,638L301,638L297,638L293,638L289,639L285,639L282,639L279,639L276,639L274,639L272,639L271,639L270,639L270,641L270,643L270,645L270,648L270,650L270,653L270,654L270,655L270,656L270,657L271,657L272,657L274,657L277,657L280,657L283,657L287,657L292,657L296,657L301,657L306,657L310,657L315,657L320,657L324,657L329,657L332,657L336,657L340,657L344,657L348,656L351,656L354,656L357,655L360,655L362,655L364,655L365,654L366,654L367,654L367,655L367,656L367,657L367,658L367,660L367,662L367,663L367,664L367,666L367,667L367,668L365,668L362,669L358,669L355,670L352,670L350,670L348,670L347,670L346,670L346,667L346,665L346,662L346,661L346,660L346,659L347,659L349,659L351,659L354,659L358,659L361,658L365,658L370,657L373,657L377,657L380,657L384,657L388,657L392,657L395,657L399,656L402,656L405,655L408,655L411,655L413,655L414,654L416,654L417,654L417,653L417,654L417,655L417,656L417,658L417,661L417,665L417,670L417,675L417,676L417,678L417,679L415,679L412,679L409,679L405,679L401,679L397,680L393,680L389,680L386,680L383,680L380,680L377,680L374,680L372,680L370,680L369,680L368,680L368,681L368,682L368,683L368,684L368,687L369,690L369,694L370,698L370,701L370,703L370,705L370,706L370,707L371,707L373,707L375,707L378,707L382,707L386,707L391,706L397,706L403,705L407,705L411,704L415,703L417,703L419,703L420,702L420,703L420,705L420,706L420,707L420,709L420,711L420,714L420,717L421,720L421,722L421,724L421,725L421,728L419,728L417,728L414,728L412,728L408,729L404,729L400,729L396,729L392,730L389,730L386,730L383,730L380,731L378,731L375,731L372,731L369,731L366,731L364,731L361,731L359,732L358,732L356,732L356,734L356,733L356,731L356,729L355,726L354,723L353,720L353,718L352,715L351,714L351,712L351,711L352,711L354,711L357,711L360,711L364,711L369,711" stroke-opacity="1" stroke-width="3" stroke-linecap="round" stroke-linejoin="round" style="-webkit-tap-highlight-color: rgba(0, 0, 0, 0); stroke-opacity: 1; stroke-linecap: round; stroke-linejoin: round; -webkit-user-select: text;"></path><path fill="none" stroke="#000000" d="M383,709L388,709L393,709L396,709L398,709L402,709L406,709L409,709L414,709L419,709L424,708L429,708L434,708L438,707L443,706L447,706L451,706L455,705L458,705L460,705L461,705L462,705L462,706L462,707L462,708L462,710L462,712L462,714L462,716L462,718L462,719L462,720L462,721L460,722L457,722L454,723L450,723L446,724L441,725L437,726L433,726L430,726L428,726L426,726L425,726L424,726L424,722L424,718L424,715L424,712L424,710L424,707L424,703L424,699L424,694L424,692L424,689L424,688L424,687L426,687L430,687L434,686L439,685L445,684L451,684L455,683L459,683L463,682L465,682L467,682L468,681L468,680L469,680L469,679L469,678L469,677L469,675L469,672L469,670L469,665L469,663L469,660L468,658L467,657L465,656L464,655L461,654L458,653L455,653L452,652L448,652L445,652L443,652L441,653L439,653L438,655L438,656L438,658L438,660L438,664L439,668L440,672L441,677L443,679L444,681L446,682L447,684L448,685L449,686L450,688L450,690L450,691L450,692L451,692L452,691L453,690L456,690L459,689L462,689L467,689L471,689L475,689L480,689L482,689L485,688L487,688L488,688L488,689L489,692L489,696L489,700L489,703L489,705L489,706L489,707L489,708L489,709L489,710L488,711L487,711L486,711L484,711L482,711L479,711L477,711L474,711L471,711L468,711L466,711L464,712L462,712L460,712L458,712L455,712L453,713L451,713L448,713L446,713L443,714L441,714L438,714L436,714L434,714L431,715L429,715L426,716L424,716L422,716L420,717L418,718L416,718L414,718L412,718L409,719L407,719L405,719L404,720L402,720L400,720L398,720L397,721L395,721L394,721L392,721L391,722L389,722L388,723L386,723L385,723L384,724L383,724L382,724L381,725L380,726L380,728L380,729L380,730L380,731L380,732L380,733L380,734L380,735L380,736L380,738L380,740L380,742L380,743L380,745L380,746L380,747L380,748L380,750L380,751L380,752L379,753L378,753L377,754L376,754L375,754L373,754L372,754L371,754L370,754L368,754L367,754L366,754L364,754L363,754L362,754L361,755L359,755L357,755L355,755L353,756L350,756L347,756L345,757L343,757L341,757L338,757L336,757L333,757L330,757L327,758L324,758L321,758L317,758L314,758L312,759L309,759L307,759L304,759L302,759L300,759L298,759L296,759L294,760L292,760L290,760L289,760L288,760L287,760L287,761L287,762L287,764L287,765L287,767L287,768L287,770L287,772L287,774L287,775L287,777L287,778L287,779L287,780L287,781L288,781L290,781L293,781L295,781L297,781L299,781L302,781L304,781L306,781L307,781L310,781L313,781L316,781L320,781L324,781L327,781L330,780L334,780L337,780L340,780L343,779L346,779L348,779L351,779L354,779L356,779L359,779L362,779L364,779L366,778L369,777L371,777L373,777L375,776L377,776L380,775L383,775L386,774L388,774L390,774L392,773L394,773L396,772L398,772L399,770L401,770L403,770L405,770L407,770L408,770L409,770L411,770L412,769L413,769L414,769L415,769L416,769L416,768L416,767L416,765L416,764L416,763L416,762L415,761L415,760L415,759L417,759L419,759L420,759L422,759L424,759L426,759L427,759L429,759L430,759L431,759L432,759L433,759L434,759L434,760L434,761L434,762L434,763L434,765L434,766L434,767L434,768L434,769L436,769L438,769L440,769L443,769L445,769L447,769L450,769L452,769L454,770L455,770L456,770L457,770L457,769L457,768L457,766L457,765L457,763L457,762L456,762L455,761L455,760L455,759L454,757L454,755L453,753L453,750L452,747L452,744L451,742L451,740L450,738L450,737L450,736L449,735L449,734L449,733L449,731L449,728L449,725L449,721L448,718L448,715L448,713L448,711L447,711L447,710L447,709L447,708L446,706L446,704L446,701L446,698L446,695L446,692L445,690L445,688L445,687L445,686L445,685L445,684L445,683L444,682L444,680L444,678L444,675L444,674L444,670L444,667L444,665L443,663L443,662L443,660L443,659L443,658L443,656L443,655L443,654L443,653L443,651L443,649L443,647L443,645L443,642L443,639L443,637L443,636L443,635L443,633L443,632L444,632L445,632L447,632L449,631L452,631L455,631L457,631L458,631L459,631L460,631L461,631L461,632L461,635L461,638L461,643L461,648L461,651L461,654L461,656L461,658L461,660L461,663L461,666L461,670L461,673L461,676L461,679L461,680L461,682L461,684L461,686L460,689L460,694L460,698L460,702L460,705L459,707L459,709L459,710L459,711L459,713L458,716L458,719L458,722L458,724L457,730L457,731L456,732L456,733L456,734L457,734L458,734L460,734L463,734L466,734L468,734L472,734L475,734L477,734L480,734L481,734L482,734L483,734L483,732L483,730L482,726L482,722L481,718L480,715L479,712L479,711L478,711L477,710L477,709L477,708L477,707L477,706L478,705L481,704L485,704L488,703L492,702L495,702L498,701L500,701L501,701L502,701L503,701L504,701L504,702L504,704L504,706L504,707L504,709L504,712L504,716L504,720L504,723L504,726L504,730L504,731L506,731L507,731L510,731L513,731L517,731L520,731L524,731L526,731L529,731L532,731L533,731L534,731L534,730L534,728L534,726L534,723L534,719L534,716L534,714L533,712L533,711L533,710L533,708L533,706L533,703L533,699L533,695L533,691L533,688L533,687L533,685L533,684L533,683L533,682L533,680L533,678L533,677L533,676L532,676L531,676L529,676L527,676L524,676L521,677L518,677L515,677L511,677L508,678L504,678L501,678L498,678L495,678L492,678L490,678L488,678L485,678L483,678L480,678L476,678L472,678L469,678L466,678L463,678L460,678L458,678L455,678L453,678L450,678L448,679L446,679L443,679L441,679L439,679L437,679L435,679L432,679L429,679L426,679L423,679L419,680L417,680L414,680L412,680L409,680L407,680L404,680L401,680L398,680L395,680L392,680L390,680L388,680L385,680L383,680L381,680L378,680L376,680L373,680L370,680L368,680L366,680L364,680L362,680L360,680L358,680L356,680L354,681L352,681L351,681L350,681L349,681L349,682L349,683L349,684L349,687L349,690L349,694L349,697L350,701L350,704L350,705L350,707L350,709L350,710L350,711L350,712L350,713L351,714L351,715L352,715L353,715L354,715L356,715L358,715L360,715L363,715L367,715L370,715L373,715L376,715L379,715L381,715L382,715L383,715L383,714L383,713L383,712L383,711L383,710L383,709L383,706L383,704L383,699L383,695L382,692L382,689L381,687L381,685L381,684L380,683L381,683L383,683L386,683L390,683L392,683L395,683L398,683L400,683L401,683L402,683L403,683L404,683L404,684L404,686L404,689L404,693L404,698L405,701L405,704L405,706L404,708L404,709L404,711L404,715L404,719L404,723L403,726L403,729L402,731L402,733L401,734L401,735L401,736L400,738L400,739L400,741L400,743L400,744L399,745L399,746L398,747L397,747L396,747L395,747L394,747L392,747L390,747L387,747L385,747L383,747L381,747L379,747L377,747L375,747L373,747L372,747L370,748L368,748L367,748L366,748L365,748L364,748L363,748L363,745L363,743L363,740L363,738L363,737L363,736L363,735L363,734L363,733L363,732L363,731L363,728L362,728L361,728L359,728L357,728L355,729L352,729L349,729L346,730L342,730L339,730L336,730L334,730L331,731L328,731L326,731L322,731L320,731L317,731L315,731L313,732L311,732L309,732L308,732L307,732L305,732L304,732L303,732L302,732L302,733L302,734L302,735L302,736L302,738L302,742L302,745L302,749L302,752L302,755L302,757L302,758L302,759L302,760L302,761L303,761L304,761L306,761L308,761L310,761L312,761L315,761L318,761L322,761L325,761L329,761L332,761L335,761L337,761L339,761L340,761L341,761L341,760L341,758L341,756L341,752L341,747L340,743L339,740L337,738L336,737L336,735L335,735L334,735L334,734L334,733L334,732L334,731L335,730L337,729L340,729L343,728L347,728L351,727L356,727L360,727L364,726L368,726L371,726L374,726L376,726L378,726L379,726L380,726L380,727L380,728L380,730L380,731L380,733L380,734L380,737L380,740L380,745L380,750L380,754L380,757L380,760L380,761L380,762L380,763L380,764L379,765L377,765L374,765L370,765L365,762L360,763L355,765L351,765L346,766L340,767L336,768L330,769L326,769L322,770L318,770L314,770L310,770L307,770L304,770L301,770L298,770L295,770L293,770L292,770L290,770L288,770L287,770L286,770L285,771L285,772L285,773L285,775L285,777L285,779L285,782L285,783L285,784L285,786L285,787L285,789L285,792L285,796L285,799L285,802L285,805L285,807L285,808L285,809L285,810L287,810L288,810L290,810L293,810L297,810L300,810L303,810L306,810L310,810L313,810L317,810L321,810L325,810L329,810L332,810L335,810L339,810L342,810L346,810L349,810L352,810L355,809L358,809L361,808L363,808L366,808L370,807L373,807L376,806L380,806L383,806L387,805L390,805L392,804L396,803L400,802L403,801L407,801L411,800L414,799L417,798L421,798L424,797L428,797L430,796L433,796L436,796L439,796L442,796L445,796L447,795L450,795L453,794L455,794L458,793L460,793L461,792L463,792L465,792L467,791L468,791L469,791L470,791L471,790L471,789L471,788L471,786L470,784L470,782L469,778L468,774L466,770L465,767L465,765L464,763L463,762L463,761L462,760L461,758L461,756L460,755L460,753L459,752L458,752L458,751L455,751L453,751L450,752L446,753L442,754L438,755L433,755L428,756L424,756L419,757L416,757L412,757L409,757L405,758L402,758L400,758L397,759L396,759L396,760L396,762L397,765L397,769L398,774L398,778L399,782L399,784L399,786L399,787L399,788L400,788L402,788L404,788L408,788L412,789L417,789L423,789L429,789L433,788L438,788L443,788L447,787L451,787L453,787L455,787L456,787L457,787L458,787L459,789L459,793L460,797L460,802L460,806L460,808L460,810L460,811L458,812L455,812L451,812L446,812L441,813L436,813L431,813L426,813L421,814L417,814L412,814L407,815L403,815L398,815L394,816L389,816L384,816L379,816L372,817L367,817L362,818L356,818L350,819L345,819L341,819L337,819L334,820L330,820L327,821L324,821L322,821L320,821L317,822L315,822L312,823L310,824L307,825L304,826L302,827L299,828L297,828L295,829L294,829L293,830L292,830L292,827L292,823L292,820L292,818L292,816L292,814L292,812L292,808L292,803L292,799L292,794L292,790L292,788L292,786L292,784L292,782L292,780L292,779L291,779L288,779L285,779L281,779L277,779L272,779L267,779L263,779L259,780L254,780L251,780L249,780L247,780L246,781L246,782L246,783L246,784L246,785L246,787L246,791L246,798L246,802L246,806L246,808L246,810L246,811L247,811L249,811L253,811L256,811L259,810L263,810L268,810L272,809L274,809L276,808L277,807L278,805L278,801L278,796L278,792L278,788L278,783L278,774L279,768L279,765L279,762L279,760L279,758L278,758L275,758L272,758L268,758L263,758L259,758L254,758L249,758L244,758L240,758L235,758L232,758L229,758L228,758L227,758L227,757L227,755L227,751L227,745L227,742L227,738L227,735L227,732L227,729L227,725L227,721L227,718L227,716L226,714L226,713L228,713L232,712L239,711L244,711L250,711L255,710L259,710L263,710L265,710L266,710L267,712L267,718L268,724L268,728L269,732L269,736L270,743L270,748L270,752L270,755L270,757L270,758L270,759L268,759L266,759L263,760L260,760L257,760L253,760L249,761L244,761L239,762L235,762L231,762L227,762L222,762L220,762L217,762L215,762L214,762L213,762L213,760L213,757L213,751L213,745L213,741L213,737L213,733L213,729L213,724L213,720L213,718L213,716L213,715L212,714L210,714L209,714L207,714L205,715L203,715L199,715L195,716L191,716L188,716L184,717L180,718L176,718L173,719L169,719L167,719L164,720L163,720L162,720L161,720L160,718L160,716L160,714L160,712L159,710L159,708L159,705L159,701L159,697L158,692L158,689L157,686L157,685L157,684L156,683L156,682L155,682L155,681L155,680L157,680L161,680L165,680L169,679L174,679L179,678L183,678L188,677L194,677L199,677L203,676L208,675L212,674L217,673L222,673L225,673L229,672L232,672L236,672L239,672L242,672L244,672L246,672L249,672L252,672L255,672L258,673L261,673L264,674L268,674L272,674L276,674L279,674L282,675L284,675L287,675L289,675L291,676L293,676L296,677L298,677L301,677L303,677L305,678L307,678L309,678L310,678L311,678L312,678L312,677L312,674L312,670L312,666L312,663L312,660L312,658L312,655L312,652L312,648L312,644L312,640L312,638L312,635L312,633L312,632L311,632L310,632L307,632L305,632L300,632L294,632L289,632L283,632L278,632L273,632L268,632L263,632L261,632L259,632L258,632L257,632L257,634L257,638L257,644L258,649L259,653L260,657L261,665L261,671L262,676L262,679L262,684L262,685L263,685L266,685L269,685L272,685L276,685L281,685L288,685L293,685L298,685L302,684L305,684L306,684L307,684L307,683L307,682L307,677L307,671L307,666L306,662L305,658L304,654L302,647L302,641L300,637L299,633L298,631L296,629L295,627L294,626L294,625L293,625L293,624L293,623L295,622L297,621L301,621L305,620L310,620L315,620L320,620L325,619L331,619L337,619L341,617L343,617L346,616L347,616L347,617L347,620L347,624L347,626L347,629L347,632L347,638L347,644L347,648L347,652L347,654L347,656L346,656L345,656L343,656L340,656L336,657L330,657L323,657L317,657L311,658L304,658L298,658L291,659L286,659L282,659L278,659L276,659L275,659L274,659L274,658L274,654L275,648L275,641L276,638L276,634L276,630L277,625L277,619L278,615L278,612L278,609L278,608L278,607L276,607L275,607L272,607L269,607L266,607L262,607L259,607L255,607L251,607L247,607L243,608L239,609L235,609L232,609L230,610L229,611L228,611L228,612L228,613L228,614L228,616L228,619L228,626L228,629L228,631L229,635L229,641L229,646L229,650L229,653L229,655L229,656L230,656L232,656L235,656L239,656L244,656L250,656L257,655L262,655L268,655L274,655L278,655L280,655L281,655L281,654L281,653L281,650L281,645L281,641L281,637L281,633L281,629L281,621L281,615L280,611L280,608L280,606L280,604L279,603L279,602L278,602L278,601L281,599L283,599L286,599L290,599L294,598L299,598L303,598L308,598L312,598L316,598L320,598L324,598L329,598L333,598L337,598L341,598L344,598L348,598L351,598L353,598L355,598L357,598L358,598L360,598L363,598L365,598L367,598L369,598L372,598L374,598L376,598L379,598L381,598L384,598L388,598L392,598L396,598L400,598L403,598L406,598L409,598L411,598L413,598L415,598L416,598L417,598L418,598L419,598L419,599L419,601L419,603L419,604L419,607L419,611L419,615L419,619L419,622L419,624L419,626L417,626L416,627L414,627L411,628L407,628L400,628L394,628L387,628L380,629L373,629L368,629L364,629L360,629L358,629L357,629L357,628L358,623L359,615L361,610L361,607L361,604L361,600L362,595L362,592L362,590L362,588L364,588L366,588L370,588L373,589L377,590L381,591L384,592L387,593L388,595L389,597L390,599L390,602L390,603L390,605L390,608L390,612L390,620L390,624L390,627L389,629L389,631L388,633L387,635L387,636L387,637L387,638L386,638L385,638L384,638L383,638L381,638L379,639L377,639L374,639L371,639L368,639L365,639L362,639L360,639L358,639L357,639L357,640L357,642L357,644L357,647L357,649L357,652L357,654L357,655L357,656L357,657L357,658L359,658L361,658L365,658L370,658L374,658L379,658L384,658L387,658L390,658L392,658L393,658L394,657L394,655L394,653L394,649L394,644L394,640L394,637L394,635L394,634L393,633L392,633L390,633L387,633L385,633L382,633L378,633L375,633L371,633L368,633L367,633L365,631L364,631L364,630L364,629L364,627L364,623L364,618L364,615L364,611L364,609L364,607L364,606L365,606L367,606L370,605L373,605L378,605L383,605L387,605L394,605L398,605L402,604L404,604L406,604L407,604L407,605L407,608L407,616L407,621L407,625L407,628L407,631L407,634L407,636L407,638L407,639L406,641L404,641L403,642L400,642L397,642L394,642L390,642L387,642L385,640L383,639L381,638L380,636L380,634L379,633L379,631L379,628L379,622L379,615L378,611L378,607L377,601L376,593L375,587L374,584L373,580L372,576L372,573L372,570L372,567L372,564L372,561L372,560L372,559L371,558L372,558L375,558L379,558L383,558L389,558L394,558L400,558L404,558L409,558L413,558L415,558L417,558L418,558L419,558L419,560L419,563L419,566L419,570L419,574L420,576L420,579L420,583L421,590L421,596L421,599L421,602L421,604L421,605L419,605L416,605L412,605L408,605L402,606L397,606L393,606L389,606L385,606L383,606L382,606L382,605L382,603L382,597L382,590L382,587L382,584L382,581L382,580L383,580L385,580L389,580L396,580L402,580L409,580L416,580L422,579L427,579L431,579L434,579L437,579L438,579L438,580L438,581L439,586L439,592L439,599L440,601L441,604L441,605L441,606L441,607L439,607L435,607L431,607L424,607L419,607L414,607L409,608L406,608L403,608L401,608L400,608L400,610L400,614L400,619L400,624L400,626L400,630L400,633L400,637L400,640L400,642L400,643L400,644L400,645L401,645L404,645L407,645L412,645L416,644L421,643L427,643L432,642L436,641L438,641L439,641L439,640L439,639L439,638L439,637L439,635L439,633L439,631L439,627L439,622L439,618L439,614L438,611L438,609L437,608L436,608L435,608L434,608L433,608L431,608L429,608L426,609L422,609L417,610L414,610L413,610L413,611L413,612L413,614L413,618L413,622L413,626L414,628L414,632L415,638L415,644L415,648L415,651L415,653L415,655L415,656L415,657L415,658L416,658L417,658L419,658L422,658L426,658L431,658L435,658L440,658L445,658L450,658L455,658L459,658L463,658L467,658L470,658L472,658L474,658L476,658L477,658L478,658L479,658L479,657L479,656L478,654L476,651L474,646L472,641L471,638L470,634L469,631L468,627L467,622L466,618L465,614L465,611L464,609L463,608L463,607L464,607L467,607L471,607L475,607L481,606L486,606L491,606L494,606L498,606L500,606L502,606L503,606L504,606L504,607L504,612L504,619L504,623L504,627L504,631L504,637L504,643L504,646L504,649L504,651L504,653L503,653L501,653L499,653L496,654L493,654L489,654L483,655L478,655L473,655L469,655L464,655L460,655L457,655L455,655L454,655L453,655L453,654L453,648L453,638L453,636L452,633L451,628L450,625L449,623L449,622L448,621L448,620L449,620L452,620L456,620L463,619L469,619L475,618L482,617L489,616L494,616L499,615L503,615L505,615L508,615L509,615L510,615L511,615L511,618L511,622L511,625L511,628L511,631L511,635L511,640L511,647L511,649L511,650L511,651L509,651L506,651L502,651L497,649L493,648L488,645L485,644L480,643L476,642L473,642L471,641L470,641L469,640L469,638L469,637L470,635L472,633L474,632L477,630L480,628L482,625L484,623L484,621L485,621L485,620L486,620L487,620L489,620L491,620L494,620L497,621L499,621L501,621L502,622L503,624L504,625L504,626L504,628L504,630L504,634L504,641L504,650L504,654L504,657L504,658L503,660L503,662L502,663L502,665L502,666L501,666L499,667L497,667L493,667L489,667L485,667L480,667L475,668L469,669L465,670L462,671L459,671L458,671L458,672L458,673L458,675L458,677L458,679L458,681L458,684L458,687L458,693L458,697L458,701L457,704L457,705L457,706L458,706L460,706L464,706L469,706L475,706L482,706L488,705L493,705L500,704L507,704L512,704L521,704L523,704L524,704L525,704L525,702L525,700L524,695L522,691L520,688L518,685L516,682L514,678L513,672L512,667L511,664L510,661L509,660L509,658L511,658L515,657L520,655L525,655L531,654L535,653L539,653L543,653L544,653L545,653L546,653L547,654L547,655L548,658L548,664L549,672L550,676L551,680L552,683L553,688L553,694L553,697L553,700L553,702L553,704L554,704L552,704L550,704L546,704L542,704L537,704L532,704L527,704L523,705L519,705L511,705L508,705L506,705L504,705L504,706L504,707L504,709L504,713L504,721L504,726L504,729L504,732L504,735L504,737L504,738L504,740L504,741L504,743L502,743L499,743L495,743L491,743L487,743L482,743L477,743L472,743L468,743L465,743L462,743L460,743L459,743L459,746L459,749L459,752L459,755L459,757L459,760L459,762L459,772L459,776L459,780L459,783L459,784L459,785L459,786L460,786L463,786L465,786L469,786L472,786L476,786L480,786L484,786L487,786L490,786L493,786L496,786L498,786L502,786L504,786L507,786L509,786L512,786L514,786L517,786L519,786L522,786L524,786L527,786L530,786L533,786L535,786L537,786L540,786L542,786L545,786L550,786L552,786L555,786L558,786L560,786L562,786L564,786L566,786L570,786L572,786L575,786L577,786L579,786L581,786L583,786L585,786L587,786L589,785L591,785L592,785L592,784L592,783L592,782L593,780L593,776L593,772L593,769L593,766L593,764L593,762L593,759L593,757L593,755L593,752L593,750L593,748L593,747L593,745L593,744L592,744L589,744L587,744L583,744L579,744L575,744L571,744L567,744L562,744L558,744L555,744L549,744L546,744L543,744L541,744L538,744L533,744L529,744L526,744L524,744L521,744L518,744L516,744L510,744L508,744L505,744L503,744L501,744L499,744L497,743L496,743L496,741L496,740L496,739L496,738L497,737L498,735L498,733L499,731L499,728L500,724L500,721L500,718L500,717L500,716L501,716L502,716L504,716L507,716L510,716L514,716L518,715L523,715L528,715L533,715L542,715L545,715L548,715L550,715L551,715L552,715L553,715L553,717L553,720L553,725L553,728L553,731L553,733L553,735L553,739L553,743L553,746L553,752L553,754L553,755L553,756L551,756L548,756L545,757L541,757L537,757L532,757L527,757L519,757L515,757L513,757L511,757L510,757L509,757L508,755L509,757L509,758L509,759L509,761L509,764L509,768L509,773L509,776L509,779L509,782L509,784L509,785L511,785L514,785L516,785L520,785L524,785L533,785L536,785L540,785L543,785L545,785L546,785L548,785L548,786L548,787L548,789L548,791L548,794L548,798L548,801L548,804L548,807L548,810L548,811L548,812" stroke-opacity="1" stroke-width="3" stroke-linecap="round" stroke-linejoin="round" style="-webkit-tap-highlight-color: rgba(0, 0, 0, 0); stroke-opacity: 1; stroke-linecap: round; stroke-linejoin: round; -webkit-user-select: text;"></path><path fill="none" stroke="#000000" d="M549,813L537,814L533,814L528,814L524,814L519,814L514,814L510,814L505,814L500,814L496,814L492,814L488,814L485,814L482,814L480,814L479,814L477,814L476,814L476,812L476,810L476,805L476,800L475,796L475,792L475,790L475,788L474,787L474,785L474,783L474,779L474,776L474,772L474,769L474,767L474,765L474,764L474,763L475,763L477,763L480,763L482,763L486,763L490,763L494,763L498,763L501,763L505,763L508,763L511,763L514,762L516,762L518,762L521,762L524,762L526,762L529,762L531,762L534,762L537,762L539,762L542,762L544,762L546,762L548,762L550,762L552,762L554,762L555,762L557,762L558,762L560,761L562,761L565,761L567,761L569,761L570,761L572,760L575,760L577,760L578,760L579,760L580,760L580,759L580,758L580,757L580,755L580,752L580,749L579,745L579,742L579,740L578,738L577,736L577,734L577,733L577,731L577,728L577,726L577,723L577,721L577,719L577,718L576,717L575,717L573,717L571,717L568,718L565,718L561,719L556,719L551,720L546,720L542,720L537,721L533,721L531,721L528,721L527,721L527,722L527,723L527,725L527,727L527,730L527,731L527,734L527,737L528,743L529,749L530,753L530,756L530,759L530,760L530,761L531,761L531,762L534,762L537,762L541,762L545,762L550,762L555,762L560,762L564,762L566,762L567,762L568,762L569,762L569,760L568,755L568,748L567,742L567,739L567,735L566,728L565,722L564,717L563,714L562,711L562,710L562,709L561,709L562,708L565,708L568,708L572,707L577,707L582,707L586,707L589,707L593,705L595,705L596,705L597,705L597,706L597,707L597,709L597,714L597,721L598,726L598,729L598,732L598,735L598,736L598,737L598,738L598,739L598,740L596,740L594,741L591,743L588,743L583,744L579,745L574,745L569,745L564,745L560,745L557,745L554,745L553,745L552,745L551,745L551,744L551,742L551,739L551,738L551,736L551,735L551,734L551,732L551,731L552,731L554,731L559,731L564,731L569,730L574,730L579,730L585,730L590,729L594,729L597,728L600,728L602,728L604,728L605,728L606,728L606,729L606,731L606,733L606,735L607,738L607,742L608,745L608,749L608,752L608,754L608,755L608,756L608,757L607,757L605,758L603,758L600,758L596,758L592,759L587,759L582,759L577,759L572,759L568,759L564,760L560,760L558,760L557,760L556,760L555,760L555,761L555,762L555,765L555,770L555,774L555,778L555,781L555,784L555,785L555,786L556,786L559,786L562,786L565,786L570,786L574,786L579,786L584,786L589,786L594,786L598,786L601,786L605,786L608,786L611,786L613,786L614,786L615,786L616,786L616,785L616,783L615,780L614,776L613,770L612,767L611,764L610,761L609,757L607,752L606,745L606,741L604,738L604,737L603,730L602,724L602,719L601,715L601,711L600,709L600,704L599,699L599,695L598,691L597,688L597,686L596,684L596,682L596,680L595,678L595,676L595,672L594,668L594,665L594,663L594,661L593,660L593,659L593,658L592,657L592,656L592,654L592,652L592,649L592,645L592,643L591,640L591,637L591,636L591,635L590,634L590,633L589,633L587,633L585,633L582,633L579,633L575,633L571,633L567,633L562,633L558,633L554,633L551,633L548,633L545,633L542,633L540,633L538,633L537,633L537,635L537,638L537,642L537,648L537,651L537,654L538,657L538,661L538,667L538,672L538,676L538,679L538,680L539,681L539,682L540,682L541,682L543,682L545,682L549,682L553,682L558,682L564,682L571,682L577,682L582,682L587,682L592,682L595,682L597,682L599,682L600,682L601,682L601,680L601,677L601,670L600,666L599,662L599,659L598,657L597,656L597,655L596,654L595,654L593,654L591,654L587,654L583,655L577,654L572,654L567,654L562,654L558,654L553,655L550,655L549,655L548,655L548,656L548,658L548,664L548,671L548,675L548,680L548,682L548,687L548,691L548,694L548,696L548,697L548,699L548,700L549,700L551,700L554,699L558,699L562,698L567,698L573,698L578,698L582,698L585,698L587,698L588,698L589,698L589,697L589,695L589,692L588,689L586,686L585,683L584,679L582,674L581,670L579,666L578,664L577,662L577,661L579,661L583,661L587,661L594,661L600,661L607,661L612,661L618,660L623,660L627,660L629,660L630,660L631,660L632,660L632,661L632,665L632,670L632,674L632,677L632,680L633,682L633,685L633,688L633,692L633,694L633,697L633,698L633,699L631,699L629,700L627,700L624,701L620,701L616,701L612,703L608,704L604,704L601,704L599,705L598,705L598,704L598,701L598,697L598,692L598,689L598,685L598,681L598,675L599,670L599,665L599,661L599,658L599,655L599,649L599,645L599,642L599,639L599,636L599,635L600,633L600,631L601,631L602,631L604,631L606,631L608,631L612,631L615,631L618,631L621,631L624,631L627,631L629,631L631,631L632,631L633,631L633,629L633,628L633,624L633,618L633,614L633,611L633,609L632,607L632,606L631,605L630,604L630,603L630,601L630,599L630,595L630,592L630,588L630,586L630,585L630,583L630,582L630,581L628,581L627,581L625,581L622,581L618,581L614,581L608,581L603,582L597,582L592,582L587,582L581,583L576,583L572,583L570,583L569,583L568,584L568,586L568,590L568,594L568,598L568,602L568,605L568,611L569,619L569,624L569,627L570,630L570,633L570,638L570,642L570,645L570,647L570,648L570,649L570,650L572,650L575,650L578,650L582,650L589,650L596,650L603,650L610,650L616,650L621,650L625,650L628,650L629,650L630,650L630,649L630,645L630,641L630,637L630,633L630,629L630,621L630,615L630,611L630,609L630,607L630,605L630,604L629,604L627,604L625,604L622,604L618,604L612,604L606,604L601,604L595,603L590,603L587,603L584,602L584,601L584,602L584,603L584,604L585,608L585,614L586,618L586,621L586,624L587,625L587,626L588,626L591,626L593,626L596,625L601,624L607,623L613,622L617,621L622,621L626,621L630,621L634,621L635,621L636,621L637,621L637,623L638,625L638,628L638,629L638,633L639,636L639,642L639,646L639,649L639,652L639,653L639,654L639,655L638,655L637,655L634,655L631,655L627,655L623,655L618,655L612,655L607,655L601,655L597,655L592,655L588,655L584,655L582,655L579,655L577,655L576,655L575,654L574,651L574,645L574,641L574,636L574,633L574,629L574,624L574,619L574,614L574,611L574,609L574,607L574,606L573,606L572,606L570,606L567,606L564,606L560,606L557,606L553,606L548,606L545,606L541,606L538,606L535,606L532,606L530,606L528,606L527,606L526,606L525,610L525,616L525,621L525,625L525,628L525,630L525,632L525,634L525,635L525,636L525,637L526,637L530,637L534,637L540,636L544,636L549,636L553,635L556,635L558,635L559,635L559,634L559,633L559,631L559,627L559,619L559,614L559,610L559,605L559,596L559,588L559,584L559,582L559,578L559,572L559,566L559,562L559,559L559,556L558,555L558,554L557,554L556,554L555,554L553,554L551,554L548,554L544,554L539,554L533,555L527,555L521,556L516,556L509,556L504,557L498,557L492,558L487,558L482,558L477,558L473,558L471,558L468,559L467,559L466,559L465,559L465,560L465,562L465,563L465,567L465,570L465,573L465,575L465,578L465,580L465,586L465,592L465,597L465,600L465,603L465,606L465,609L465,612L465,614L465,616L465,618L465,619L466,619L470,619L475,619L480,619L485,618L493,618L502,617L509,617L516,617L521,617L526,617L530,617L531,617L532,617L532,616L532,615L532,612L532,610L532,608L532,605L532,598L532,590L532,586L532,584L532,582L532,581L532,580L530,580L528,580L525,580L521,580L516,580L510,580L504,580L500,580L496,580L492,580L491,580L490,580L490,577L490,570L489,562L489,558L489,553L489,549L488,547L488,546L488,544L488,543L488,542L488,541L489,540L492,539L497,539L504,538L512,538L520,538L528,537L534,537L539,537L542,537L544,537L545,537L545,541L545,545L545,548L545,551L545,557L545,565L545,571L545,575L545,580L545,585L545,588L545,590L544,591L542,592L541,592L538,592L534,592L529,592L523,592L516,592L509,592L503,593L496,593L492,593L487,593L484,593L482,593L481,593L480,593L480,592L480,588L480,585L480,582L480,579L480,576L480,574L480,572L480,570L480,568L480,566L480,565L480,564L482,564L486,564L489,564L494,564L500,564L506,564L513,564L519,564L526,564L533,564L539,564L545,564L550,564L554,564L558,564L560,564L563,564L565,564L566,564L567,563L569,563L570,563L571,563L572,563L572,562L572,561L572,560L572,559L572,558L572,556L572,554L571,551L570,545L569,540L569,536L568,534L567,532L567,531L567,530L567,529L566,529L565,529L564,529L562,529L558,529L554,529L548,529L543,529L539,529L535,529L533,529L532,529L531,529L531,530L531,534L531,540L532,545L532,548L533,553L533,562L533,570L533,574L533,577L533,580L533,582L533,583L533,584L534,584L536,584L538,584L542,584L547,583L553,583L560,583L565,583L569,583L572,583L574,582L575,582L575,581L575,580L575,577L575,573L575,567L574,563L572,559L571,557L570,556L569,554L569,553L568,553L568,552L568,551L569,551L571,550L575,550L580,549L584,548L590,548L595,548L599,548L602,548L604,548L605,548L606,548L607,548L607,549L607,552L608,556L608,564L608,570L609,573L609,576L609,578L610,579L610,580L608,580L604,580L599,580L594,581L587,582L580,584L574,585L570,586L566,587L564,587L562,587L562,586L562,585L562,583L562,582L562,580L562,577L562,565L562,559L562,551L562,537L562,531L562,529L562,527L561,527L561,526L560,526L561,526L565,526L569,526L576,526L583,526L590,526L597,526L604,526L611,526L616,526L622,526L626,526L629,526L631,526L634,526L636,526L637,526L638,526L639,526L640,526L640,524L640,522L640,518L639,514L638,509L638,506L637,503L636,501L635,498L634,495L634,490L633,486L633,482L633,479L631,477L630,476L629,474L628,472L627,470L626,467L626,463L626,461L625,458L625,455L624,453L624,452L624,451L623,451L622,451L619,451L615,451L609,451L602,452L595,453L587,454L579,454L573,455L568,455L563,455L560,456L558,456L557,456L557,457L557,459L557,463L557,468L557,471L557,475L557,482L557,491L557,496L557,500L557,505L557,509L557,512L557,513L557,514L558,514L561,514L566,513L572,512L580,512L589,512L596,511L604,511L610,511L614,511L618,511L619,511L620,511L620,510L620,507L620,505L620,503L619,497L618,490L618,485L618,483L618,480L618,478L617,478L616,478L614,478L612,478L609,478L604,478L599,478L593,478L587,478L579,478L574,478L570,478L566,478L564,478L562,478L562,479L562,483L562,489L562,494L562,497L562,501L563,505L564,509L564,513L564,517L564,520L564,522L564,523L564,524L564,521L565,518L567,515L569,513L573,510L578,508L584,506L590,505L594,504L599,503L604,502L607,501L609,501L611,501L612,501L613,501L615,503L616,508L617,514L618,518L619,523L620,525L621,528L622,529L622,530L623,531L623,532L623,534L621,536L616,538L611,540L603,542L596,544L588,545L580,547L574,548L569,548L564,549L560,549L558,549L557,549L557,547L557,541L557,535L556,531L554,526L553,519L551,513L550,508L550,505L549,502L548,500L548,499L548,498L548,497L549,497L553,497L559,497L567,497L576,497L582,497L587,497L592,497L595,497L596,497L598,497L598,500L598,503L598,512L598,518L598,522L598,525L598,528L598,530L598,531L598,532L596,532L593,532L589,532L583,532L577,532L570,532L562,532L554,532L546,532L539,532L532,532L525,532L518,532L511,532L504,532L499,532L493,532L487,532L482,532L477,532L474,532L472,532L470,532L469,532L469,531L469,529L469,527L469,524L469,520L469,515L469,510L470,507L470,505L470,503L471,503L472,503L475,503L478,503L482,503L488,503L493,503L498,502L502,502L506,502L508,502L509,502L510,502L511,502L511,504L511,509L511,515L511,520L511,524L511,526L511,530L511,534L511,536L511,537L511,538L511,539L509,539L507,539L504,539L500,539L497,539L492,539L487,537L483,536L479,535L476,534L472,531L470,531L469,531L468,531L468,534L467,536L467,539L466,542L466,545L466,547L466,549L466,551L466,552L466,553L466,556L466,558L466,562L466,564L466,567L466,569L466,570L466,571L469,569L472,567L478,565L484,563L489,563L493,563L498,562L502,562L505,561L507,561L508,561L509,561L509,560L509,559L509,557L509,556L509,552L509,548L508,544L507,541L507,537L507,535L507,533L507,532L506,532L504,532L503,532L501,532L498,532L494,532L489,532L482,532L476,532L469,532L462,532L455,532L447,532L441,532L437,532L432,532L428,532L425,532L424,532L422,532L422,533L422,534L422,536L422,540L422,544L422,548L423,551L423,553L423,556L423,559L423,562L423,565L423,567L423,568L423,569L423,570L426,570L429,568L435,566L440,565L446,564L451,564L456,564L461,564L464,564L466,564L467,564L468,564L468,563L468,561L467,559L466,557L465,555L464,551L463,543L463,535L463,530L463,527L463,523L463,520L463,518L463,517L463,516L461,516L458,516L455,516L452,516L448,516L444,516L441,516L439,516L438,516L438,517L438,520L438,523L438,527L438,534L438,542L439,547L439,550L439,553L439,558L439,565L439,571L439,575L439,577L439,581L439,584L439,587L439,592L439,595L439,599L439,600L439,601L439,602L442,602L444,602L448,602L451,602L455,602L458,602L461,602L463,602L464,602L465,602L465,601L465,599L465,595L465,592L465,587L465,584L465,580L466,571L467,563L468,559L469,557L470,554L471,551L472,549L472,548L471,548L469,548L466,548L463,548L458,548L453,548L448,548L443,548L438,548L433,548L427,548L423,548L418,548L414,548L409,548L405,549L400,549L396,549L392,549L388,550L385,550L381,550L379,550L377,550L375,550L374,550L373,550L373,547L373,542L373,538L373,534L372,529L372,527L372,526L373,526L374,526L377,526L381,524L386,524L390,523L395,522L399,522L402,522L404,522L406,522L407,522L408,522L408,524L408,526L408,529L408,534L408,541L409,546L409,549L409,553L409,556L409,562L409,565L409,569L409,571L409,573L409,574L407,574L405,574L402,574L399,574L394,574L390,574L385,575L379,575L374,575L370,576L367,576L365,576L363,576L363,574L363,568L363,562L362,558L362,554L362,550L361,546L361,542L360,539L360,536L359,534L359,533L359,532L359,531L359,530L360,530L363,530L367,530L373,530L380,530L386,530L394,530L401,530L409,530L417,529L424,529L431,529L436,529L442,529L447,528L452,528L457,528L460,528L463,528L466,527L468,527L469,526L470,526L470,525L470,522L470,519L470,513L470,509L470,505L470,503L470,500L470,497L470,492L470,487L469,483L469,481L469,479L469,478L468,478L465,478L463,478L460,478L456,478L451,479L446,479L439,480L434,480L427,480L422,480L417,481L413,481L411,481L409,481L408,481L408,482L408,485L408,488L409,493L411,496L412,500L414,505L414,512L415,517L416,520L416,523L416,525L416,526L417,526L418,526L421,526L424,526L430,526L436,526L442,526L446,526L451,526L455,526L458,526L459,526L460,526L460,525L460,524L460,521L460,516L460,510L460,506L459,499L458,490L456,485L455,482L455,479L454,479L454,475L453,472L453,469L453,463L452,458L451,454L451,451L451,450L450,448L450,446L449,444L449,441L448,438L448,435L447,432L447,429L447,428L446,427L446,426L446,425L445,424L444,424L444,423L447,423L450,423L454,422L459,422L463,422L468,422L471,420L475,420L477,420L479,420L480,420L480,421L480,424L480,429L480,438L480,443L480,447L481,457L481,464L481,469L481,473L481,478L481,486L481,492L481,495L481,498L481,500L481,502L482,502L483,502L485,502L488,502L492,502L496,502L500,502L507,502L510,502L512,502L513,502L514,502L514,501L514,499L514,495L512,488L510,483L508,480L506,477L504,474L502,471L499,469L498,466L496,464L496,463L495,462L495,461L495,460L497,460L499,459L503,458L507,458L511,457L516,456L519,456L521,455L524,455L525,455L526,455L527,455L528,457L528,461L528,465L529,469L529,472L530,475L530,477L531,480L531,481L531,483L531,484L531,485L529,485L526,485L522,486L516,486L509,487L501,489L495,490L488,491L481,493L475,493L472,493L468,493L465,493L463,492L462,489L461,484L460,481L459,478L458,475L457,471L456,468L455,466L455,464L455,463L455,462L456,462L460,462L464,462L470,462L477,461L483,461L490,461L497,461L504,461L510,461L517,460L523,459L529,458L535,458L540,457L546,456L550,456L555,455L560,455L563,454L567,454L569,453L571,453L572,453L572,452L572,455L571,460L571,465L570,470L570,473L569,475L569,478L569,480L568,482L567,483L566,483L564,484L560,485L555,487L549,488L543,490L534,492L528,492L520,493L513,493L508,494L503,494L499,494L497,494L496,493L495,490L495,487L495,484L495,480L495,478L495,477L495,476L495,475L496,475L497,475L501,475L504,475L509,475L516,475L522,475L528,475L532,475L535,475L537,475L538,475L538,476L538,480L538,487L538,491L538,495L538,498L538,501L538,505L538,510L538,514L538,517L538,518L537,519L536,519L533,519L529,519L524,519L518,520L511,521L505,522L498,523L494,524L489,524L485,524L483,525L482,525L481,525L481,523L481,514L481,508L480,504L480,495L480,487L480,481L480,477L480,467L479,458L479,451L478,450L478,446L478,440L478,434L478,430L477,427L477,424L476,421L475,418L475,415L474,412L474,410L473,409L473,408L475,408L480,407L484,407L490,406L496,406L503,406L509,405L514,405L519,405L524,405L528,404L531,404L533,404L534,404L534,408L534,412L534,417L534,420L534,426L534,435L534,441L534,445L534,449L534,453L533,457L533,459L532,461L531,461L530,462L529,462L528,458L528,455L528,449L528,436L528,430L528,426L528,422L529,412L529,405L529,402L529,400L530,398L530,396L530,395L530,391L530,387L530,383L530,380L530,378L530,376L530,375L530,374L529,374L528,374L527,374L525,374L522,374L519,374L516,375L511,375L507,375L500,375L495,375L490,375L485,375L479,375L475,376L470,376L467,376L463,376L461,376L459,376L458,376L458,377L458,380L458,384L458,388L458,392L458,396L458,403L458,412L458,417L457,420L455,425L454,430L454,434L453,435L453,436L453,437L455,437L459,437L464,436L470,434L478,432L486,431L495,429L504,428L514,427L523,427L530,427L543,426L549,425L554,425L558,425L561,425L563,425L565,425L566,425L567,425L567,427L568,432L568,439L568,443L569,447L570,453L570,457L570,461L570,464L570,466L570,467L568,467L565,467L560,468L553,468L545,470L537,471L532,472L526,472L521,473L518,473L516,473L514,473L514,466L513,458L513,453L513,446L512,437L512,431L512,426L512,417L512,407L512,403L512,401L512,400L512,399L513,399L515,399L519,399L524,399L531,399L538,399L548,399L556,399L562,399L567,399L572,399L575,399L577,399L578,399L578,405L578,412L578,416L578,420L577,425L577,432L577,437L577,441L576,443L575,444L575,445L573,446L570,446L567,446L562,446L557,446L553,446L549,446L546,446L544,446L543,446L543,445L543,443L543,440L543,435L545,431L545,428L546,427L547,425L548,425L549,425L551,425L554,425L558,425L571,425L577,425L584,425L589,425L594,425L599,425L604,425L609,425L613,425L616,425L621,425L625,425L628,425L632,425L635,425L638,425L640,425L641,425L642,425L642,428L642,433L642,438L642,442L642,445L642,448L642,451L641,455L640,461L640,466L639,470L638,473L638,475L637,478L636,485L636,490L635,494L635,497L635,500L635,502L635,505L635,508L635,514L635,518L635,521L635,524L635,526L634,528L634,534L634,538L633,542L633,545L633,548L633,551L633,552L633,554L632,557L632,560L632,562L631,563L631,565L631,566L631,567L630,567L629,566L627,564L625,563L622,562L619,561L616,560L612,560L609,560L607,560L604,560L603,560L601,559L600,559L599,559L599,558L599,557L599,556L599,554L599,550L599,541L599,536L599,532L599,528L599,522L599,514L599,509L599,506L600,503L600,497L600,491L600,486L600,482L600,479L600,475L600,462L600,457L600,454L600,451L600,449L600,446L600,442L601,434L601,430L601,428L601,426L601,424L602,422L602,419L602,416L602,412L602,408L602,405L602,402L602,401L602,399L602,397L603,397L604,397L606,397L608,397L611,397L613,397L616,397L619,397L621,397L623,397L625,397L626,397L626,398L626,400L626,406L626,412L625,416L624,420L623,425L622,434L622,440L621,444L621,447L620,450L619,452L618,454L618,456L617,456L616,457L615,458L613,458L611,458L608,458L600,458L596,458L592,459L588,459L585,460L582,460L580,460L579,460L578,460L577,460L577,458L577,454L577,451L577,445L577,436L578,430L578,427L579,422L579,415L580,411L580,406L581,403L581,400L582,398L582,394L582,387L582,384L582,381L582,379L582,378L582,377L582,376L582,375L580,375L577,375L573,375L569,375L565,375L558,375L555,375L552,375L550,375L549,375L549,376L549,379L549,384L549,388L549,392L549,395L549,400L549,408L549,415L549,418L549,421L549,424L549,425L549,426L550,426L551,426L553,426L557,426L561,426L565,426L570,425L575,425L580,424L583,424L585,424L586,424L587,424L587,423L587,422L587,419L587,414L587,408L587,403L587,399L587,392L587,385L587,381L587,378L587,375L587,373L587,372L586,372L585,372L581,372L578,372L574,372L569,372L564,372L558,372L550,374L544,374L538,374L533,374L521,374L516,374L511,374L504,374L499,374L494,374L488,374L482,374L476,374L471,374L460,374L455,374L449,374L444,374L439,374L435,374L430,374L426,374L422,374L419,374L413,375L412,375L410,375L409,375L409,376L409,377L409,379L409,383L409,388L409,391L409,394L409,397L409,400L409,403L409,409L409,411L409,412L409,413L410,413L413,413L417,412L421,412L426,411L431,410L437,410L443,410L450,408L452,408L453,407L453,404L453,402L453,400L451,399L451,395L450,388L450,381L450,376L450,369L449,365L449,360L448,356L448,352L448,350L448,348L451,348L455,348L459,348L464,348L468,348L472,348L475,348L477,348L479,348L480,348L481,350L481,355L482,362L482,365L482,369L483,375L483,384L483,394L483,399L483,413L483,417L483,419L483,421L483,422L482,422L481,422L479,422L476,422L473,422L464,422L458,422L453,422L446,422L441,422L435,423L429,423L424,424L414,424L409,425L406,425L403,425L401,425L400,425L400,426L400,427L400,429L400,432L400,435L400,438L400,442L400,445L400,448L400,455L400,458L400,462L400,466L400,467L401,467L402,467L404,467L407,467L411,467L416,466L421,466L426,464L441,463L446,462L449,462L451,462L452,461L452,460L452,458L452,457L452,455L451,451L451,447L451,445L451,441L451,439L451,435L450,434L449,434L448,434L446,434L443,434L437,435L433,436L429,436L425,436L422,437L421,437L419,437L419,438L419,439L419,441L419,444L420,446L421,451L421,456L422,463L422,468L422,472L422,475L422,486L422,490L422,492L422,497L422,500L421,500L421,501L421,502L422,502L425,502L428,502L431,502L437,502L438,502L439,502L440,502L440,501L440,497L440,491L440,485L440,481L440,477L441,465L441,462L441,460L441,458L440,458L438,459L435,459L431,460L426,461L422,461L416,462L406,463L401,463L396,463L391,463L386,464L375,465L370,466L365,466L360,467L354,468L343,468L338,469L333,469L328,470L324,470L317,471L314,471L313,471L312,472L312,473L312,474L312,476L312,485L313,490L313,494L314,497L314,499L314,502L316,502L318,502L320,502L325,502L330,502L337,502L348,502L353,502L360,502L365,502L370,502L375,502L384,502L389,501L392,501L397,500L399,500L400,500L400,499L401,499L401,498L401,497L401,495L401,493L400,490L399,482L398,479L397,477L397,474L396,469L396,463L395,455L395,452L395,450L394,450L393,450L392,450L389,450L386,450L382,450L373,450L366,450L364,450L363,450L363,451L365,458L366,466L366,470L367,475L368,494L368,498L368,503L368,512L368,522L368,526L368,529L368,531L368,535L368,542L368,544L368,546L368,547L369,547L371,547L374,547L377,546L380,546L387,544L388,543L390,543L390,541L392,535L392,531L392,529L392,524L392,517L392,511L392,501L392,492L392,488L392,483L392,476L392,472L392,466L392,458L392,457L392,458L391,460L389,461L387,463L380,465L375,466L371,466L366,467L358,467L355,467L353,467L352,467L352,468L352,469L352,470L352,473L352,475L353,489L354,495L355,498L355,502L356,512L356,516L356,519L356,522L356,524L357,524L359,524L363,524L366,524L369,523L375,522L377,522L378,522L379,521L380,521L380,520L380,518L380,514L379,510L378,505L377,498L377,495L376,492L376,491L375,491L373,491L372,492L369,492L363,493L353,495L348,495L342,495L337,496L332,496L324,497L322,497L320,497L319,497L319,498L319,499L319,500L320,504L322,512L323,522L324,526L325,535L325,543L325,551L325,558L326,566L326,572L326,577L326,580L326,585L326,594L326,597L326,599L326,601L326,603L327,603L329,603L331,603L334,603L337,603L341,603L345,603L351,603L354,603L355,603L356,603L357,601L357,597L357,591L357,580L357,572L357,563L357,558L359,547L359,543L359,541L359,539L358,541L355,542L352,543L348,543L339,545L333,546L329,547L323,547L322,547L321,547L321,548L322,549L323,551L323,553L324,563L324,568L324,571L324,573L324,575L324,576L325,576L327,576L330,575L333,574L337,573L343,570L344,570L345,570L346,569L346,567L346,564L346,558L346,554L345,547L345,540L345,531L345,529L345,526L344,525L342,525L340,524L334,524L329,524L324,524L315,522L310,522L307,521L304,520L300,519L298,518L297,517L297,516L297,515L296,511L296,505L296,500L295,492L295,482L294,479L294,477L294,476L295,476L300,475L306,475L312,473L324,470L327,470L330,469L331,469L331,474L331,478L331,488L331,495L331,500L331,516L331,520L331,523L331,525L331,526L330,526L327,526L323,526L319,526L310,527L305,527L296,527L293,527L288,527L286,527L285,527L284,527L283,527L283,519L282,512L281,502L280,498L280,495L279,495L278,495L278,496L278,498L277,500L276,513L275,520L274,524L274,533L272,546L272,548L271,551L271,552L271,553L271,554L271,555L271,556L271,557L274,557L278,557L284,556L290,556L300,555L303,555L307,555L310,555L311,555L312,555L312,554L310,553L309,552L307,549L305,544L303,539L302,534L302,532L300,529L298,527L296,527L293,527L290,528L280,531L275,532L263,535L258,536L254,537L249,538L249,539L249,542L250,546L251,553L251,562L251,569L252,573L252,580L252,582L252,583L253,583L255,583L258,583L261,583L270,582L275,582L285,582L288,582L290,582L292,582L292,585L292,597" stroke-opacity="1" stroke-width="3" stroke-linecap="round" stroke-linejoin="round" style="-webkit-tap-highlight-color: rgba(0, 0, 0, 0); stroke-opacity: 1; stroke-linecap: round; stroke-linejoin: round; -webkit-user-select: text;"></path><path fill="none" stroke="#000000" d="M292,608L291,613L291,617L291,620L291,621L290,621L287,623L283,624L279,626L274,628L270,628L265,629L260,629L256,629L254,630L252,630L251,630L250,630L249,630L249,625L248,616L247,610L246,599L245,589L244,584L244,580L242,571L242,563L242,560L242,558L242,557L242,556L243,556L247,556L251,556L257,555L263,554L269,554L275,554L280,553L285,553L288,553L290,553L291,553L291,558L291,567L291,573L291,576L291,581L291,590L291,596L291,600L291,603L292,604L292,607L292,608L291,608L289,608L285,608L281,608L276,608L271,608L266,608L263,608L260,608L259,608L258,608L258,607L258,604L258,599L258,590L258,585L257,583L257,581L257,580L259,580L263,580L268,579L275,577L283,575L291,573L299,570L305,569L313,568L321,566L327,565L331,563L335,563L339,562L341,562L342,562L343,561L344,561L344,564L344,568L344,572L344,575L344,581L344,582L344,585L344,588L344,590L344,592L344,594L343,594L341,597L337,597L331,597L325,598L318,599L310,600L302,601L295,602L290,602L285,603L281,604L278,604L276,604L275,604L274,604L273,604L272,597L270,587L268,581L266,567L264,559L263,554L262,544L261,535L261,529L261,519L260,511L260,507L260,502L260,496L260,490L260,487L260,485L260,483L259,481L258,481L257,481L255,481L253,482L250,485L247,486L243,488L238,489L232,490L227,492L222,492L217,493L214,493L210,494L208,494L206,494L205,494L205,495L205,497L205,499L205,502L205,510L205,519L206,523L206,532L207,541L207,547L207,552L207,558L207,565L207,570L207,573L207,575L207,576L207,577L208,577L209,577L211,577L214,577L219,575L223,574L227,573L232,572L236,571L240,569L242,568L244,568L244,566L244,564L244,561L244,558L244,556L243,552L242,540L242,533L241,523L240,513L239,507L239,503L239,495L238,485L237,480L236,477L235,473L234,466L234,461L234,458L234,457L234,456L233,455L232,456L232,458L231,459L230,461L227,462L224,463L220,464L216,465L211,466L207,467L202,468L198,468L195,468L193,469L192,469L191,469L191,470L191,471L191,473L191,474L191,482L191,491L191,496L192,500L192,504L193,506L193,507L193,508L194,508L195,508L197,508L199,507L202,507L207,506L213,505L220,505L227,505L234,504L241,504L248,504L255,503L262,503L267,503L272,503L276,502L279,502L281,502L283,502L284,502L284,505L284,513L284,518L284,522L284,525L284,531L284,539L284,545L284,548L284,550L284,552L284,553L283,553L281,553L278,553L274,553L270,553L263,553L257,553L250,553L244,553L237,553L231,553L224,553L217,553L210,553L205,553L199,553L195,553L191,553L189,553L187,553L187,555L187,561L187,569L187,573L187,577L188,581L188,586L188,591L188,595L188,597L188,599L188,600L189,600L192,600L195,600L201,600L207,599L215,596L221,595L227,593L234,591L239,590L244,589L247,588L249,588L250,588L251,588L251,590L251,596L251,599L252,602L252,604L252,607L253,611L253,613L254,616L254,618L254,619L254,621L254,622L254,623L252,624L249,626L245,626L239,628L234,628L229,628L222,629L217,629L212,630L208,630L204,630L201,630L199,630L198,630L197,630L196,630L196,631L196,632L196,635L196,638L196,647L196,651L196,653L196,656L197,659L197,661L197,662L197,663L198,664L199,664L202,664L206,664L210,662L215,661L220,660L225,660L228,659L231,659L232,659L233,659L234,659L234,661L234,666L234,672L234,677L234,681L234,686L234,692L234,697L234,700L234,702L234,703L234,704L233,704L231,704L227,704L223,704L219,704L214,705L209,705L204,706L199,706L195,707L192,708L189,708L187,708L185,708L184,708L183,708L183,707L183,704L182,697L181,692L181,688L180,680L179,669L179,662L179,657L177,642L177,635L177,632L176,631L176,628L176,624L176,622L176,620L176,618L176,615L176,612L176,610L176,608L176,607L175,605L175,603L175,599L175,597L175,594L175,592L175,590L175,589L176,589L177,589L179,588L183,586L186,585L191,584L195,583L199,582L203,582L207,582L210,582L212,581L214,581L215,581L215,580L215,579L215,577L215,573L215,568L215,563L214,559L213,556L213,553L212,551L212,550L212,549L211,548L210,548L209,548L207,548L204,548L200,548L195,548L190,546L185,545L179,543L174,543L169,543L164,542L161,542L159,542L158,542L157,542L157,543L157,546L157,548L157,551L157,555L157,566L157,573L158,582L158,596L158,601L158,607L158,614L158,618L158,621L158,622L158,623L158,624L159,624L160,624L164,624L168,623L174,621L179,620L186,619L194,618L200,617L204,617L209,616L213,616L217,615L219,615L220,615L221,615L221,616L221,621L221,625L221,628L221,631L221,637L221,643L221,649L221,652L221,655L221,657L221,658L220,658L218,658L215,658L211,658L207,658L202,658L196,658L191,658L186,658L181,658L176,658L172,658L169,658L165,658L162,658L160,658L158,658L156,658L155,658L154,658L153,658L152,658L151,658L150,658L149,658L148,658L147,658L146,655L145,645L144,637L143,631L142,618L141,611L140,608L139,606L139,604L139,603L139,602L139,600L140,598L144,596L147,595L152,593L158,591L164,590L169,588L174,586L180,584L183,583L186,583L188,583L189,582L190,582L190,581L190,578L190,572L190,563L190,558L188,553L188,548L187,543L186,539L185,535L185,533L184,531L184,530L183,530L182,530L180,530L177,530L174,530L169,530L163,531L157,531L151,532L146,533L141,533L137,533L134,533L132,533L131,533L131,532L131,531L131,530L132,526L132,519L132,511L132,508L132,505L132,503L132,502L132,501L132,500L132,499L132,498L132,497L133,497L136,497L140,497L145,497L150,496L156,495L163,493L170,490L175,488L180,487L183,486L186,486L187,485L188,485L188,488L188,493L188,497L188,507L188,519L188,525L188,537L189,546L190,551L191,558L191,565L191,570L191,573L191,574L191,575L189,575L186,575L183,574L179,574L175,574L170,574L166,574L161,574L158,574L156,575L154,575L153,575L153,572L153,565L153,559L152,553L151,536L150,528L149,519L149,513L149,508L149,504L149,501L149,500L149,497L148,495L148,494L148,490L148,486L147,482L147,479L146,477L146,474L145,471L145,467L144,462L144,458L144,455L143,453L143,452L142,451L142,450L142,449L142,447L142,445L142,443L142,441L142,437L142,434L142,431L142,429L142,427L142,425L142,424L142,423L142,422L142,421L142,420L142,419L143,418L144,417L146,417L149,416L152,415L157,413L162,411L168,409L174,407L179,405L183,404L187,403L190,402L191,402L192,402L191,400L190,399L189,397L188,389L188,381L188,377L187,373L187,370L186,367L186,365L186,363L186,361L186,360L185,359L184,359L182,359L178,359L174,358L169,356L162,356L157,354L152,353L147,353L143,352L140,351L139,351L139,357L139,364L139,368L140,378L141,389L142,395L142,407L143,417L144,422L144,430L145,436L145,440L145,443L145,444L145,445L146,445L147,445L149,445L152,445L155,444L160,443L166,441L171,441L175,441L179,441L182,440L185,439L186,439L186,437L186,435L186,432L186,428L186,424L184,414L183,406L182,402L181,398L180,390L180,386L180,384L179,383L178,383L177,383L176,384L173,385L169,388L164,390L158,394L154,394L150,394L146,395L142,395L140,395L139,395L140,395L141,395L142,395L142,401L143,410L144,415L145,419L145,422L146,423L147,425L149,425L152,425L154,425L159,425L163,425L168,425L173,425L179,425L186,425L192,425L197,425L203,425L208,425L214,425L220,424L225,424L230,424L234,424L239,424L244,424L247,424L249,423L251,423L252,423L253,423L254,423L254,424L254,427L254,435L254,441L254,444L255,449L255,457L255,464L255,468L255,474L255,475L253,475L250,475L246,475L242,475L236,476L229,477L222,479L216,480L210,482L205,483L200,483L195,483L191,485L188,485L186,485L185,485L185,481L185,478L185,472L185,460L184,454L184,450L183,443L183,437L183,433L183,430L181,428L181,426L181,425L183,425L185,425L189,425L193,425L198,425L202,425L207,425L212,425L217,425L222,425L225,425L228,425L229,424L230,424L231,424L231,421L230,415L228,407L227,402L226,399L225,393L225,388L224,385L223,384L222,383L222,381L221,381L220,381L218,381L215,381L212,381L208,381L204,381L201,381L199,381L198,381L197,381L197,383L197,388L197,392L197,397L198,407L198,416L199,420L199,429L199,438L199,443L200,445L200,448L200,449L200,450L201,450L203,450L205,450L209,450L213,450L219,450L224,450L229,450L235,450L240,450L244,450L246,450L248,450L249,450L249,449L249,448L249,444L249,436L249,431L248,427L248,419L246,409L246,405L245,403L245,401L245,400L244,400L245,400L248,400L251,399L256,399L262,398L268,398L273,397L278,397L284,395L289,394L295,393L299,392L302,392L305,392L306,392L307,392L307,393L307,395L307,396L307,400L307,409L307,415L308,419L308,427L309,435L309,441L309,445L309,449L309,451L309,454L309,455L309,456L308,456L306,457L302,458L298,459L293,460L287,460L280,461L272,462L265,464L260,465L256,466L251,467L247,468L245,468L244,468L243,468L242,465L240,460L239,447L236,447L234,443L233,439L232,435L230,432L230,431L230,429L230,428L233,428L237,428L241,428L247,428L253,428L260,428L267,428L274,428L281,427L288,427L295,427L301,427L307,427L312,427L318,427L324,427L329,427L334,427L338,426L343,426L347,426L351,425L354,425L356,425L358,425L358,426L358,431L358,437L358,442L358,446L358,450L358,456L358,461L358,465L358,466L358,468L357,469L357,470L356,470L353,470L349,470L344,471L337,472L329,473L322,473L312,474L305,474L295,475L288,475L281,476L276,476L270,477L266,477L264,477L263,477L263,476L263,472L263,463L263,457L263,454L262,451L261,448L261,447L261,446L263,446L267,446L272,445L279,445L287,444L295,442L302,441L307,441L312,441L316,441L319,441L320,441L321,441L321,444L321,446L321,448L321,451L321,457L321,461L321,465L321,468L321,470L321,471L320,470L320,467L319,459L318,454L317,445L317,435L316,430L315,426L315,417L314,410L313,403L312,400L312,396L311,393L311,391L310,390L310,389L310,388L313,388L316,386L322,385L326,383L331,381L336,381L339,380L344,379L347,379L350,379L351,379L352,379L353,379L353,381L353,386L353,390L353,393L353,399L353,409L353,416L353,420L353,428L353,436L353,439L353,442L353,444L353,445L353,446L351,446L349,446L346,446L341,446L336,446L331,446L326,446L322,446L317,446L314,446L311,446L310,446L309,446L309,441L309,432L309,427L309,422L309,417L308,413L308,410L308,409L308,408L308,407L309,407L310,406L313,405L317,405L323,405L329,404L336,404L343,403L352,402L358,402L366,401L372,401L377,401L383,400L387,400L391,400L394,400L396,399L397,399L398,399L399,399L399,402L399,408L399,415L399,419L399,424L399,433L399,436L399,440L399,442L399,443L399,444L398,444L397,444L395,444L392,444L387,444L382,445L377,446L372,446L368,447L365,448L363,448L362,448L362,445L362,437L362,431L362,425L362,411L361,404L361,400L361,395L360,385L359,380L358,376L358,374L358,373L357,372L359,372L362,372L366,372L370,372L374,371L378,371L380,371L381,371L383,371L383,373L383,381L383,389L383,393L383,397L383,405L383,411L383,415L383,419L383,420L383,422L382,422L381,422L380,422L379,420L376,419L373,419L369,418L364,417L359,416L353,415L347,415L341,415L337,415L331,415L326,415L322,415L318,415L316,415L314,415L314,413L314,410L314,405L314,400L314,391L314,381L313,376L312,368L312,358L312,353L311,349L311,346L310,344L309,341L309,337L309,332L309,328L309,326L309,324L309,323L309,322L311,322L315,322L322,322L328,321L335,321L340,320L345,320L349,319L353,319L354,318L356,318L356,319L356,322L356,330L356,336L356,341L356,348L357,355L357,358L357,360L355,359L351,358L347,358L342,358L338,359L332,360L327,362L322,364L319,365L316,366L314,366L313,366L313,365L313,361L313,355L314,346L314,344L315,337L315,333L316,330L316,328L316,327L314,327L312,328L309,330L305,331L302,332L293,332L288,333L282,334L276,335L271,335L266,336L264,336L263,337L262,337L262,339L262,342L262,345L262,353L262,361L262,366L262,370L262,375L262,378L262,380L262,381L263,381L266,381L270,379L274,379L280,378L286,376L291,376L296,376L300,376L304,376L305,376L307,376L307,375L307,374L307,373L305,369L303,360L301,353L300,349L298,346L297,342L296,339L295,337L294,335L293,334L293,333L293,332L294,332L297,332L301,332L307,332L316,332L323,331L329,330L335,329L341,328L347,328L351,327L354,327L356,327L357,327L357,328L357,334L357,339L357,343L357,356L357,364L357,368L357,375L357,383L356,388L355,390L355,392L354,393L353,393L351,393L349,393L346,393L341,394L336,395L331,395L327,396L322,396L318,397L314,397L311,397L309,397L307,397L306,397L305,397L305,396L306,392L306,383L306,378L306,372L306,364L306,359L306,354L306,351L306,349L306,348L307,348L310,348L313,348L317,348L324,348L331,348L338,347L345,347L352,347L359,347L366,347L373,347L378,347L382,347L385,346L387,346L387,351L387,360L387,365L388,368L388,372L388,376L388,378L388,379L388,380L388,381L388,382L386,383L384,385L380,386L377,388L373,390L370,390L368,391L366,391L366,386L366,382L366,378L366,375L365,371L365,367L364,362L363,359L363,356L363,355L363,354L362,354L362,351L362,350L362,349L362,348L363,348L366,348L369,348L373,349L378,349L382,349L387,349L390,349L392,349L394,349L395,349L396,349L396,350L396,355L396,361L396,365L396,370L396,376L397,385L397,390L397,394L397,398L397,400L397,401L396,402L394,402L392,403L389,405L385,406L380,407L375,407L369,408L363,410L359,410L356,411L353,411L352,411L351,412L351,413L352,414L354,417L356,419L357,422L360,429L361,434L361,439L361,443L362,445L362,447L362,448L363,448L364,448L367,448L371,448L378,448L385,448L394,447L402,446L411,446L419,445L426,444L430,444L433,444L434,444L435,442L435,439L435,434L435,429L435,424L435,410L435,402L434,397L434,388L433,382L432,378L431,376L431,375L430,375L429,375L427,375L425,375L422,375L418,375L411,376L404,376L399,376L393,376L388,376L384,376L381,376L380,376L379,376L379,378L379,381L379,387L379,391L379,395L380,399L382,407L382,413L383,416L383,419L383,421L383,422L383,423L384,423L385,423L387,423L390,421L394,421L398,420L403,419L410,419L417,418L425,417L431,416L435,416L439,415L442,415L444,415L445,414L445,413L445,410L444,406L442,402L441,396L439,384L438,377L437,368L436,359L434,354L433,352L433,350L432,349L431,349L431,348L430,348L429,347L427,347L424,346L419,346L413,346L406,346L400,346L394,346L390,346L386,346L383,346L381,346L380,346L380,341L380,332L380,327L380,323L380,317L381,311L381,308L381,306L381,305L381,304L382,304L385,303L390,301L396,300L402,298L409,298L414,297L419,297L422,297L426,297L428,297L429,297L430,301L430,308L430,314L430,323L430,336L430,342L430,347L430,354L430,358L430,361L430,362L429,362L426,362L422,362L417,362L411,363L405,364L401,364L397,365L394,365L392,365L392,366L392,361L392,355L392,350L392,334L392,330L392,327L392,324L392,322L392,321L390,320L391,320L394,320L399,320L405,320L412,320L420,320L430,320L439,320L448,320L455,320L463,319L470,319L476,318L482,318L488,318L492,317L496,316L499,315L502,315L506,314L510,313L513,313L515,313L516,313L517,313L517,314L517,316L517,321L517,331L517,337L517,342L517,349L517,359L517,364L517,368L517,369L517,371L516,371L514,371L511,371L508,371L502,371L495,371L487,372L480,372L474,372L468,373L463,373L458,374L455,375L452,375L451,375L450,375L450,374L450,369L450,356L451,349L451,335L451,328L451,324L451,322L451,320L451,319L453,319L457,319L462,319L468,319L475,319L482,319L487,318L491,318L494,318L497,318L498,317L498,316L497,314L494,310L491,303L490,299L488,293L486,281L485,275L483,272L482,270L482,269L482,268L481,268L480,268L477,267L474,267L469,267L464,267L459,267L455,267L453,267L451,267L452,270L454,279L455,288L456,292L458,305L458,313L458,318L458,327L458,335L458,339L458,342L458,343L458,344L460,344L464,344L470,344L476,343L484,343L492,342L501,341L508,340L514,340L519,340L523,340L526,340L527,340L528,340L527,340L526,340L525,343L524,345L524,357L524,365L524,369L523,376L522,383L521,386L520,388L518,389L515,390L510,391L504,391L500,392L496,393L491,393L486,393L481,395L478,395L476,395L475,395L474,395L474,393L474,386L474,378L474,372L476,354L476,346L476,338L476,334L476,331L476,329L476,328L479,327L484,326L490,325L496,325L503,324L511,323L519,323L528,323L533,323L537,323L540,323L542,323L543,323L543,329L543,336L543,341L543,346L543,357L543,363L543,367L542,370L541,371L541,372L539,372L536,372L533,372L528,372L524,372L518,372L511,372L507,372L502,372L497,372L494,372L493,372L492,372L491,371L491,369L491,361L491,353L491,335L491,328L491,325L491,322L492,322L496,322L502,322L510,323L519,323L529,323L538,323L546,323L554,323L560,321L563,321L565,321L566,321L567,321L567,320L565,313L562,304L560,298L558,294L555,288L554,282L553,278L552,275L551,273L551,271L551,270L550,270L546,270L541,270L535,270L529,270L524,270L520,271L518,271L517,271L517,273L517,281L517,287L517,291L517,302L517,312L517,317L517,327L517,335L517,339L517,342L517,343L517,344L518,344L521,344L526,344L532,344L538,344L545,343L553,343L559,343L565,343L569,343L571,343L572,343L573,343L573,345L572,354L572,363L571,367L571,372L570,379L570,383L570,386L570,388L570,389L568,390L567,390L564,390L560,390L555,390L548,391L542,392L538,393L533,394L530,394L528,395L526,395L525,395L524,393L524,385L524,378L524,371L524,361L522,355L521,352L521,349L520,348L519,347L519,346L521,346L525,346L531,346L537,346L545,344L553,344L560,344L575,344L582,344L589,344L594,344L599,344L601,344L604,344L606,344L607,344L608,344L608,345L608,347L608,353L608,361L608,366L608,369L608,375L608,384L607,390L606,391L606,395L606,399L605,404L605,410L605,415L604,419L604,421L604,423L604,425L604,427L604,432L604,437L604,441L604,444L604,446L603,446L603,448L601,449L600,449L598,449L595,449L591,449L585,449L578,449L571,449L563,449L556,449L549,449L544,450L533,451L529,451L526,451L525,451L525,444L525,432L525,425L525,409L525,401L525,387L525,377L525,371L524,364L523,358L522,353L522,349L522,346L522,342L522,338L523,337L526,337L531,337L536,338L544,339L554,339L563,340L570,340L576,340L581,340L584,340L586,340L587,340L588,336L588,332L588,327L588,324L588,319L587,307L587,300L586,297L585,293L584,291L584,290L583,289L582,289L581,289L579,289L575,289L561,289L556,289L551,289L547,289L545,288L543,287L542,287L542,286L542,290L542,295L543,306L544,313L545,319L545,329L545,335L546,339L546,342L547,343L548,343L550,343L553,343L557,341L562,339L569,339L577,338L584,337L590,337L595,337L599,337L601,336L602,334L602,330L603,326L603,322L603,318L602,306L602,299L601,292L601,283L600,279L599,276L599,274L599,272L599,271L599,270L598,270L596,270L593,270L587,269L579,269L562,269L555,269L548,269L543,269L540,269L538,269L538,267L541,264L544,258L547,250L549,245L550,241L552,235L553,230L554,226L554,223L555,221L555,220L556,219L559,218L563,218L568,217L575,216L584,215L592,213L599,213L605,213L610,213L614,213L616,213L618,213L619,213L620,215L621,217L621,226L623,234L624,239L627,248L629,256L630,261L631,263L631,265L631,266L629,267L625,267L618,268L609,269L599,270L589,273L579,276L567,283L562,285L558,286L555,286L553,286L552,282L550,276L550,272L547,260L545,249L542,244L540,241L537,236L536,235L538,235L543,235L550,235L560,234L569,234L581,232L589,232L594,231L598,229L601,229L602,229L603,229L604,230L604,233L604,236L604,239L604,243L603,256L603,262L603,268L603,278L603,285L603,287L603,288L602,288L601,288L599,288L596,288L592,289L586,289L580,289L575,289L571,289L567,287L560,276L557,269L555,262L553,252L552,247L550,244L548,243L546,241L544,240L541,240L538,240L535,240L531,240L524,241L518,241L510,242L502,242L495,242L490,242L485,242L480,242L481,244L483,251L484,258L484,264L485,277L485,286L486,290L486,293L486,295L486,297L488,297L492,297L498,297L507,297L516,297L525,297L533,296L541,296L551,296L558,296L562,296L567,296L573,295L575,295L576,295L577,295L577,294L577,289L574,279L572,273L568,261L566,259L562,257L558,257L551,257L545,257L541,259L536,260L531,261L526,262L522,263L521,263L521,262L521,252L521,241L521,232L521,225L522,222L522,219L522,217L523,215L524,215L527,215L530,215L535,215L542,213L550,213L559,213L568,212L577,211L583,211L588,211L592,211L595,211L597,211L597,213L597,217L597,228L597,235L597,240L598,250L599,257L599,261L599,264L599,266L599,267L594,268L591,268L587,268L572,270L565,274L559,279L555,282L553,283L550,283L549,283L549,275L549,270L551,254L552,247L552,243L552,241L552,240L553,240L556,240L560,239L567,239L574,238L581,238L589,237L597,237L605,237L617,237L622,237L624,237L626,237L626,240L626,244L626,257L626,263L626,269L627,280L627,286L628,289L628,291L628,293L625,293L620,295L613,298L606,302L602,305L599,308L596,311L595,313L594,315L593,315L593,314L594,314L597,317L598,323L598,334L599,340L599,344L599,350L599,357L599,364L599,365L600,366L601,366L602,366L605,366L609,366L614,365L620,364L626,362L632,360L640,359L643,359L644,359L644,358L644,356L644,352L645,341L646,330L647,327L649,321L650,319L650,317L650,315L648,315L643,315L633,315L624,315L616,315L609,314L604,313L599,312L595,311L594,311L594,312L595,315L596,318L597,327L598,336L599,341L599,363L599,367L599,369L599,371L599,372L600,372L601,373L606,373L610,373L616,373L632,373L638,373L643,373L647,373L650,373L651,373L652,373L652,361L652,351L651,336L650,326L648,319L645,305L644,298L642,279L641,274L640,271L639,268L639,265L637,261L635,261L634,261L633,261L631,261L628,261L623,261L610,263L602,264L592,264L585,264L579,264L575,264L567,264L565,264L563,264L562,264L560,264L558,264L553,264L550,264L546,264L543,264L541,264L537,264L534,264L528,264L524,264L519,264L515,264L505,264L500,264L494,264L489,264L483,264L478,264L465,264L460,264L454,264L450,264L446,264L442,262L441,257L441,252L441,248L441,244L441,238L438,226L437,224L436,222L436,221L436,220L438,220L446,218L453,216L462,215L469,214L475,213L480,213L489,213L491,213L493,213L494,213L495,217L498,235L499,240L499,257L500,273L500,279L501,286L501,288L498,288L493,288L487,288L481,288L473,288L465,288L446,290L438,291L433,293L429,293L425,293L422,293L421,293L421,286L421,275L421,268L421,253L421,246L421,243L421,240L420,240L417,240L414,240L411,240L405,240L396,240L392,240L390,240L388,240L387,240L387,242L387,245L387,253L387,260L387,264L387,271L387,282L387,286L387,288L387,289L387,290L387,291L391,291L397,291L411,291L419,291L426,291L431,291L436,292L438,292L441,292L442,283L442,275L442,264L443,248L443,242L444,232L444,227L444,225L444,223L443,223L441,225L437,228L431,231L424,232L409,235L402,235L397,236L392,236L389,236L387,236L385,236L385,237L385,240L386,245L388,256L390,262L391,268L392,288L393,291L394,293L395,295L395,297L394,297L390,298L385,299L381,300L375,300L363,303L357,304L352,304L347,305L334,308L331,308L327,308L319,308L315,307L310,307L306,307L302,307L297,307L295,307L294,307L293,304L293,296L293,290L293,281L293,276L293,269L293,267L293,266L296,266L300,266L307,266L314,266L322,265L333,264L337,264L341,264L342,264L344,265L344,266L344,273L343,282L343,293L343,306L343,312L343,316L343,319L343,324L343,325L343,326L340,327L338,327L334,327L329,327L324,327L317,330L307,334L299,337L296,338L293,339L293,340L293,341L293,342L293,345L295,349L298,355L301,362L305,368L307,370L308,371L310,371L314,371L317,371L322,371L337,371L344,370L352,370L359,370L370,370L374,370L378,369L378,368L379,365L379,358L379,342L379,328L378,322L378,310L378,296L378,291L378,286L378,279L377,277L376,276L374,275L367,274L359,274L350,276L340,278L320,283L312,283L305,283L301,283L298,281L297,274L299,266L302,259L306,248L307,244L309,242L310,240L310,238L310,237L311,237L314,235L320,233L329,229L338,224L353,221L358,220L363,220L368,220L373,223L375,231L376,236L379,259L381,266L383,277L384,286L385,290L386,293L386,294L386,295L384,295L381,295L375,295L361,295L350,295L341,295L331,295L319,295L315,296L313,296L312,296L312,295L314,289L317,278L320,259L321,251L322,246L324,243L325,239L328,232L328,231L329,230L327,230L322,230L317,230L312,230L300,230L295,230L290,229L283,227L280,227L278,227L276,226L276,232L276,237L276,243L276,256L276,269L276,280L276,284L276,288L276,289L278,289L283,287L288,286L294,285L312,281L321,279L328,278L339,278L344,277L346,277L348,276L348,275L348,273L348,271L346,254L346,246L346,232L346,218L346,214L346,211L346,210L345,210L343,210L332,210L314,213L305,213L295,213L287,214L273,215L267,215L261,215L261,216L261,220L261,229L261,235L263,260L264,267L266,284L268,296L268,306L268,312L268,320L268,325L269,330L270,338L270,340L270,343L270,344L270,346L270,347L270,348L271,349L271,348L272,347L274,345L277,344L286,343L294,343L301,343L309,341L316,341L319,341L320,341L322,335L322,329L322,325L322,302L322,296L322,285L322,274L322,273L322,274L319,277L314,280L306,283L288,286L277,286L266,287L248,288L242,288L237,289L233,290L232,290L232,293L232,294L234,303L235,312L239,330L239,339L240,353L240,360L240,364L240,368L240,369L242,369L244,369L248,369L261,369L271,369L283,369L288,369L291,369L293,369L293,366L291,356L290,349L288,320L288,313L287,310L286,308L285,308L284,308L281,309L277,311L263,315L255,317L237,318L229,318L223,319L217,319L211,319L210,319L210,320L211,325L212,339L212,345L212,359L212,366L212,375L212,379L212,383L213,383L215,383L220,379L225,378L238,376L247,376L260,377L263,378L266,378L267,379L266,378L263,375L261,369L258,345L257,330L257,324L257,320L257,317L256,317L255,317L254,317L251,318L235,320L222,321L208,321L186,327L176,332L161,337L157,338L153,339L151,339L151,335L151,329L153,311L153,300L153,294L153,288L153,286L153,283L154,282L157,278L163,275L169,272L177,270L195,269L201,269L212,269L215,269L216,269L216,278L216,286L216,312L216,319L217,331L220,344L221,347L222,350L222,351L221,351L217,351L211,351L204,352L187,354L180,356L170,359L168,359L166,359L166,352L167,347L170,330L171,299L172,291L172,274L172,268L173,260L173,251L173,249L173,248L170,251L167,255L158,260L153,261L146,261L130,261L111,261L109,261L109,263L109,265L109,283L110,289L111,310L112,315L113,321L113,322L115,322L118,322L123,322L139,321L149,320L168,320L177,318L183,317L188,317L190,317L190,316L183,314L176,312L161,310L156,309L151,308L144,303L142,302L142,299L142,295L144,288L146,276L147,252L148,244L149,234L149,230L149,227L149,223L150,224L152,226L156,227L170,227L176,227L181,227L188,227L191,229L192,234L193,244L193,259L193,263L193,266L193,272L193,273L193,274L192,274L191,275L183,278L176,281L169,284L159,287L155,288L150,288L149,288L149,281L149,276L149,273L149,261L149,253L149,248L149,247L150,247L157,247L164,247L180,247L189,247L207,247L218,247L226,247L237,247L240,247L243,247L244,247L244,249L242,253L239,263L238,268L237,277L236,288L236,292L236,294L234,296L232,297L226,297L222,297L208,295L197,295L193,295L191,295L190,291L195,274L199,262L200,252L203,242L203,234L204,223L205,220L205,217L208,217L212,217L220,218L233,216L237,215L242,214L245,212L245,210L241,202L238,197L236,194L232,189L232,186L232,174L232,170L232,165L232,164L231,164L228,164L225,164L212,164L205,166L198,166L183,169L176,170L169,172L167,173L166,174L166,176L166,184L166,190L166,213L166,221L166,231L166,237L166,239L166,240L166,241L175,241L183,241L197,241L204,241L210,241L221,241L224,241L228,242L229,242L229,240L226,234L222,225L215,213L210,208L202,207L198,207L192,207L190,206L189,205L189,196L192,195L200,191L206,189L213,187L222,179L224,177L227,174L229,173L230,173L232,173L237,176L242,177L247,177L258,179L263,180L270,182L271,184L271,187L271,190L269,200L267,216L267,229L267,233L266,235L263,238L260,239L247,240L240,242L231,243L227,244L224,245L223,245L223,243L225,226L225,220L225,212L223,205L223,200L223,198L226,195L230,195L241,194L246,194L254,194L268,194L276,194L290,195L297,196L308,196L312,197L315,197L316,197L316,198L314,197L314,195L312,193L311,185L310,175L308,166L308,163L307,155L307,152L307,146L307,144L307,142L302,142L288,142L281,142L273,141L271,141L270,140L270,142L270,153L270,167L270,181L270,186L269,205L268,209L268,213L271,213L275,212L288,210L295,210L307,209L312,209L315,209L315,208L314,204L311,193L310,174L309,167L308,162L308,161L308,159L307,159L301,159L291,159L275,159L269,160L259,160L256,160L252,160L251,159L251,158L251,155L251,148L252,140L254,120L255,115L256,110L256,109L254,109L250,110L245,111L229,113L219,114L204,118L200,118L193,119L193,120L195,125L197,131L199,135L201,157L202,161L202,170L202,174L202,175L203,175L206,175L217,176L226,181L239,186L244,186L248,188L249,188L247,174L244,169L236,156L231,151L224,145L220,143L218,138L219,138L222,137L231,135L236,135L249,133L257,131L263,130L275,130L288,130L294,128L300,126L302,125L303,125L303,128L303,132L302,146L302,155L302,159L302,168L302,172L300,177L298,179L287,181L282,182L270,183L265,183L254,179L254,173L254,163L256,151L257,141L257,139L258,136L259,136L260,136L263,136L274,136L280,136L297,137L303,137L316,137L321,137L327,137L328,137L329,137L329,139L329,155L329,161L329,184L328,189L327,202L327,206L325,209L324,210L318,210L313,211L305,213L300,214L292,216L288,218L288,219L288,223L288,227L288,235L290,239L293,246L295,250L296,259L297,262L299,264L300,265L303,265L315,265L322,262L334,258L339,256L348,255L353,255L354,255L354,253L354,250L354,242L354,229L354,219L354,215L354,201L354,198L351,197L348,197L336,198L322,203L317,205L307,207L304,207L298,200L296,196L292,181L291,172L291,167L291,164L296,159L306,148L311,145L323,140L328,139L337,139L340,138L345,138L348,138L352,138L355,139L357,140L363,152L365,157L369,180L370,186L371,196L371,201L371,206L371,207L362,204L356,203L323,206L318,208L312,210L311,211L312,211L316,211L325,211L329,211L340,211L347,209L352,196L353,192L353,186L353,183L350,175L349,172L345,168L343,167L337,165L332,164L331,163L330,163L331,163L333,163L344,161L353,159L369,157L378,156L392,155L396,155L400,155L400,156L400,158L398,162L397,168L397,184L397,193L397,198L397,203L397,205L397,208L395,209L384,213L368,218L364,222L359,227L358,228L357,228L357,225L356,216L350,197L348,196L346,196L344,196L347,195L353,193L371,191L378,191L395,190L401,190L407,190L409,190L409,191L407,207L406,211L405,227L405,234L405,242L405,247L405,248L403,249L400,250L391,254L386,257L377,260L371,261L370,261L369,252L369,249L369,237L369,222L369,218L369,208L369,205L369,197L369,194L369,192L369,191L371,191L375,191L382,191L385,191L390,189L392,189L394,189L395,189L395,188L393,186L387,182L383,178L374,169L366,159L362,151L356,141L354,138L351,130L350,128L350,127L352,127L363,121L370,119L386,115L392,114L402,113L407,113L408,113L409,113L409,116L409,125L409,141L411,155L414,171L415,186L416,187L416,189L412,190L406,190L388,191L379,193L366,195L361,195L360,195L359,191L359,175L358,174L358,165L358,163L358,162L367,159L382,159L390,160L407,162L417,162L434,162L446,163L451,163L455,163L455,164L455,165L453,168L450,181L449,185L448,203L448,214L448,227L448,232L447,236L446,237L441,238L431,239L424,240L412,242L403,244L400,245L398,245L398,244L398,223L399,204L400,196L400,174L400,167L400,166L400,165L403,165L407,165L417,164L423,164L433,163L436,163L439,163L438,167L436,177L436,189L436,200L435,210L434,215L431,215L428,215L420,215L416,214L412,210L411,208L414,193L415,189L417,172L418,167L419,144L419,131L420,121L420,114L420,110L420,109L421,109L422,109L429,109L435,107L438,106L444,106L446,106L448,106L449,108L450,110L451,127L452,138L452,152L453,164L453,182L453,185L453,189L452,189L449,190L443,190L438,190L427,190L420,188L418,187L417,184L417,176L417,172L422,166L425,157L425,150L425,145L424,142L424,141L426,141L430,141L442,141L450,141L471,141L481,141L486,141L491,141L494,141L495,141L497,141L500,141L502,140L504,140L506,140L507,140L509,140L509,142L509,156L509,159L509,175L509,182L509,186L509,192L507,192L505,192L494,193L487,196L475,201L464,205L460,205L454,205L452,206L452,204L453,196L454,190L455,183L456,169L456,165L456,164L459,163L462,163L471,163L477,163L487,163L495,163L498,163L499,163L499,169L499,178L499,187L499,194L499,208L499,215L499,221L499,223L499,224L492,224L487,224L476,224L470,225L468,226L468,225L468,221L470,206L470,190L470,175L470,160L470,146L468,127L466,116L466,114L466,112L466,111L468,111L480,111L487,111L490,111L491,111L491,114L491,122L491,133L491,152L491,157L491,164L491,167L491,169L490,169L482,168L470,166L460,165L457,165L453,164L453,160L452,150L451,146L450,139L449,135L449,134L449,133L450,132L457,130L460,130L472,127L484,125L498,123L505,123L519,120L532,119L537,119L546,118L551,118L553,118L554,118L554,117L554,118L554,123L554,133L551,147L551,155L550,169L550,179L549,187L548,190L546,191L543,191L533,192L518,194L510,195L507,195L502,194L502,188L502,175L502,165L502,160L502,157L504,157L508,157L519,157L535,155L541,154L550,153L553,152L553,153L553,156L553,162L553,179L553,185L553,203L553,213L553,218L553,220L550,222L544,224L534,224L527,225L514,227L505,230L500,230L499,230L499,228L499,218L500,202L500,195L500,187L500,184L500,181L501,181L504,181L513,181L525,181L530,181L538,181L544,181L545,181L546,181L547,181L547,186L547,190L547,208L547,229L547,238L547,241L547,242L539,241L533,241L522,241L517,241L510,241L508,241L511,240L515,232L520,221L524,215L528,211L531,207L533,206L534,207L538,210L542,212L551,213L556,214L565,214L570,214L572,215L572,218L572,222L570,234L570,237L569,242L567,243L563,243L559,243L549,243L539,243L530,243L528,240L528,225L532,210L535,192L535,182L535,168L535,164L536,164L545,164L550,164L562,164L568,163L582,160L584,160L585,160L586,160L586,163L587,181L587,186L588,203L589,212L589,216L589,217L589,218L585,219L574,220L566,221L558,223L553,223L552,219L554,215L556,208L557,203L557,193L557,179L556,170L555,168L555,164L553,161L553,156L552,154L551,149L551,144L551,141L550,139L550,138L550,134L549,125L549,122L548,117L547,113L547,110L547,108L546,102L546,95L546,90L546,89L546,86L546,83L546,80L546,73L546,65L546,62L546,61L548,62L551,62L559,61L581,59L587,59L588,59L589,59L589,72L588,90L588,112L589,133L590,138L592,150L592,155L591,157L580,157L562,157L552,157L538,157L533,159L532,159L532,148L532,142L532,119L533,102L533,96L533,94L537,93L550,93L562,91L582,89L601,89L611,88L629,87L638,87L642,87L640,94L636,104L633,119L632,134L632,141L631,147L629,152L626,155L612,158L593,159L578,154L573,150L572,148L571,141L571,130L570,118L570,116L573,115L594,115L603,114L616,113L626,113L630,113L633,113L633,118L633,126L633,137L633,158L632,169L631,181L631,186L631,187L631,188L629,188L623,187L609,187L598,187L594,187L590,187L589,187L590,186L599,171L607,157L609,147L611,140L611,136L611,137L613,137L616,138L628,138L641,139L646,139L656,139L662,139L664,139L663,146L662,155L660,167L659,183L658,189L658,190L658,191L656,191L650,191L638,191L624,191L619,191L612,191L611,191L611,190" stroke-opacity="1" stroke-width="3" stroke-linecap="round" stroke-linejoin="round" style="-webkit-tap-highlight-color: rgba(0, 0, 0, 0); stroke-opacity: 1; stroke-linecap: round; stroke-linejoin: round; -webkit-user-select: text;"></path><path fill="none" stroke="#000000" d="M610,190L609,199L609,208L609,212L609,218L609,225L609,231L609,233L609,235L609,236L612,236L616,236L620,235L626,234L634,232L646,229L656,225L660,224L668,223L670,223L672,223L673,223L673,221L673,218L673,216L674,197L674,193L674,191L674,188L673,186L672,185L669,184L666,184L662,184L659,184L643,184L638,184L635,184L631,184L629,184L629,186L629,189L631,197L633,206L633,212L634,221L634,230L635,235L635,238L635,240L636,240L639,240L642,240L647,240L653,240L660,240L667,240L676,238L684,236L690,235L693,235L696,235L698,235L699,235L699,236L699,237L699,238L699,239L699,241L699,244L699,255L699,261L699,265L699,269L699,273L699,277L699,281L699,284L699,286L699,288L698,289L697,290L697,291L696,291L695,292L693,292L689,292L681,292L672,292L662,292L650,292L639,292L629,292L622,292L618,292L615,292L613,292L613,289L615,281L617,276L619,272L621,263L623,252L625,245L626,233L627,229L627,226L628,224L629,223L632,223L635,222L640,222L646,221L652,220L659,220L664,219L668,219L671,219L672,219L672,221L672,228L672,234L672,237L671,244L671,257L671,263L670,267L670,280L669,288L669,292L669,299L668,309L668,314L668,317L668,320L668,322L668,324L667,325L665,325L662,325L657,324L652,322L647,322L641,322L637,321L631,320L628,320L626,320L624,320L624,319L624,314L627,304L630,298L633,287L635,278L635,274L635,272L635,271L635,270L636,270L639,270L643,270L650,270L656,270L662,270L667,270L670,270L672,269L673,269L674,266L674,261L674,251L674,245L674,225L674,216L674,198L674,191L674,181L674,171L674,161L674,146L674,139L674,130L674,121L674,116L674,113L674,110L673,107L672,105L671,105L670,105L669,105L667,105L664,105L660,106L654,106L646,107L635,107L625,107L616,107L607,106L599,105L594,104L591,103L589,103L590,103L593,104L595,107L596,111L597,125L598,133L598,143L599,154L599,159L600,162L600,164L601,164L603,164L606,164L610,164L613,164L616,164L620,163L623,163L626,162L628,161L629,159L630,157L630,152L630,147L629,143L628,137L626,123L626,113L626,94L626,87L625,79L624,68L624,64L623,59L623,55L623,52L622,50L622,49L621,49L620,49L617,52L613,54L605,56L597,57L587,57L577,57L569,58L561,58L556,58L550,58L548,58L546,58L546,60L547,68L548,77L549,82L549,97L549,105L549,109L549,111L549,113L552,113L558,113L567,113L577,112L584,112L589,111L594,111L596,110L597,109L597,108L597,106L597,100L597,93L597,88L596,74L596,67L595,63L595,62L595,60L594,60L593,60L591,61L588,62L584,62L577,63L569,64L559,64L548,65L534,66L521,67L507,69L494,70L484,72L474,72L468,73L463,73L460,73L459,73L457,74L457,73L457,68L458,65L458,61L458,52L459,47L459,44L460,42L460,40L460,39L461,39L462,39L464,39L469,39L475,38L483,38L491,37L498,37L504,37L509,37L513,37L515,37L517,37L518,37L518,38L518,44L518,50L518,55L518,65L518,78L518,84L519,99L519,106L520,112L520,117L521,120L521,123L521,125L519,127L514,128L505,130L496,131L484,132L472,133L464,134L457,134L453,134L449,134L446,133L446,130L446,121L446,117L446,110L446,98L446,91L446,87L446,85L445,84L445,83L448,82L454,81L461,80L470,79L482,78L493,75L503,74L512,74L520,74L526,75L531,75L535,77L537,78L538,79L538,82L538,84L538,88L538,97L538,103L538,108L538,112L538,117L538,118L537,121L536,121L535,123L532,123L529,124L524,125L517,125L507,127L499,130L493,132L488,133L483,134L481,135L480,135L479,135L479,134L479,127L480,120L482,116L483,109L485,99L485,94L485,91L485,88L485,87L485,86L487,86L490,86L494,86L499,86L504,86L509,86L513,86L515,86L517,86L518,86L519,86L519,87L519,92L519,101L519,106L519,110L519,116L520,120L520,123L520,125L520,128L519,130L517,132L515,133L512,133L510,131L508,121L507,115L507,100L507,91L507,84L507,79L507,74L507,70L507,67L507,65L507,64L507,63L506,62L503,62L498,62L492,63L484,65L475,67L467,69L455,73L447,74L439,75L431,76L423,76L417,77L412,77L407,77L405,77L404,77L403,77L403,78L404,80L406,82L407,85L409,93L410,101L411,106L412,111L412,118L412,122L412,125L412,126L414,126L418,125L425,118L432,117L439,116L445,116L451,115L455,115L458,115L459,115L460,115L460,113L460,106L460,96L459,91L458,87L458,84L457,83L457,82L455,82L453,82L451,83L445,83L439,84L431,84L422,84L414,84L404,85L397,85L390,86L385,86L380,86L376,86L374,86L373,86L373,84L373,77L373,69L374,65L375,62L376,59L376,58L377,57L378,57L379,57L381,57L385,57L392,55L400,53L407,50L414,49L418,49L422,49L425,49L426,49L427,51L427,55L427,58L427,66L427,76L427,83L427,90L427,101L427,107L427,111L427,114L427,116L427,117L424,118L420,119L414,119L407,120L397,120L388,120L378,123L370,126L365,128L360,128L356,128L354,128L353,128L353,122L353,118L353,113L353,103L353,94L353,91L353,89L353,87L352,86L353,86L357,86L363,86L372,84L381,83L389,81L396,79L400,79L403,79L405,79L406,79L407,79L407,82L407,83L407,88L406,100L406,107L406,113L406,123L406,129L406,133L406,135L406,136L406,137L402,137L398,137L391,137L385,137L378,138L370,138L363,139L356,139L351,140L346,140L342,140L339,140L337,140L336,140L335,140L335,138L335,131L335,120L335,114L335,100L334,92L333,88L332,86L332,84L332,82L332,80L332,79L331,79L330,79L329,79L327,79L324,79L319,80L314,82L307,82L300,83L293,84L285,84L280,84L276,84L273,84L271,84L271,85L271,86L271,94L271,103L272,108L273,119L274,129L275,134L275,137L275,141L275,142L276,143L278,143L281,143L287,143L295,141L304,140L311,140L319,140L327,140L334,140L338,140L342,140L344,140L345,140L345,139L344,133L342,121L341,113L339,101L337,96L336,94L334,94L333,94L332,94L329,94L325,99L320,100L313,104L308,107L302,109L298,110L294,111L292,111L291,112L290,112L290,109L290,100L289,93L287,89L284,80L282,72L280,69L279,67L278,66L278,65L282,65L287,63L295,62L305,61L314,60L327,58L339,57L348,56L355,56L360,56L364,56L367,56L368,57L369,62L369,73L369,80L370,86L370,101L370,107L370,113L370,121L370,125L370,127L370,128L368,128L366,126L361,123L355,123L344,124L334,129L327,131L322,133L318,133L315,134L314,134L314,133L314,123L314,118L314,111L314,96L314,90L314,86L312,82L312,79L311,79L310,78L314,76L323,72L330,69L337,67L342,65L346,65L350,64L351,64L352,64L352,63L352,62L352,59L351,51L350,43L349,40L348,38L348,36L347,35L346,35L344,35L341,35L337,35L331,35L322,35L312,35L302,35L291,35L281,35L273,35L265,35L260,35L256,35L254,35L253,35L253,40L253,48L253,53L253,57L252,69L251,78L250,82L249,86L248,89L247,91L251,91L256,90L265,90L274,90L281,90L289,90L293,89L298,89L300,89L301,89L301,90L301,100L301,108L301,115L300,129L300,133L300,136L299,138L298,140L297,141L296,142L295,142L293,142L289,143L285,145L279,147L271,150L262,151L253,152L244,152L237,153L230,153L224,153L220,153L217,153L215,153L215,151L215,147L215,142L215,138L213,125L212,118L211,114L211,108L211,100L211,94L211,91L212,89L212,87L213,86L213,87L214,89L216,90L220,91L228,91L236,90L246,89L256,89L266,89L273,89L278,89L281,89L282,89L283,89L281,99L278,106L276,110L274,119L273,128L273,131L272,135L272,137L271,137L271,138L270,138L267,138L263,138L257,137L248,137L240,137L234,137L229,137L227,137L225,137L225,135L225,127L227,119L229,112L232,94L232,86L232,77L232,71L232,67L232,63L232,62L232,61L232,60L236,60L242,60L249,60L258,60L267,58L273,56L278,55L280,54L283,54L283,55L283,58L283,65L283,75L283,79L283,86L283,92L283,96L283,97L282,97L281,95L280,92L279,87L278,74L276,67L275,61L273,52L272,46L271,42L270,39L269,37L268,36L267,36L265,36L262,36L258,36L251,37L243,38L232,42L222,45L212,47L203,48L197,48L192,49L189,49L187,49L187,50L187,52L188,55L188,59L189,71L189,79L189,85L189,96L189,105L188,109L187,112L186,113L186,114L187,114L191,114L198,114L208,113L216,113L224,113L229,113L234,113L237,113L239,113L239,112L239,109L239,100L238,92L237,83L235,69L234,63L232,60L232,57L231,55L230,55L228,55L225,55L220,55L213,55L206,55L199,55L194,55L189,55L185,55L182,55L180,55L179,55L179,54L179,52L179,50L179,45L179,41L179,38L179,35L179,32L179,30L179,29L179,28L180,28L181,27L185,25L190,21L194,18L197,18L200,17L204,17L207,17L208,17L209,17L210,17L211,21L211,26L211,29L211,38L212,50L212,57L214,70L215,79L215,82" stroke-opacity="1" stroke-width="3" stroke-linecap="round" stroke-linejoin="round" style="-webkit-tap-highlight-color: rgba(0, 0, 0, 0); stroke-opacity: 1; stroke-linecap: round; stroke-linejoin: round; -webkit-user-select: text;"></path><path fill="none" stroke="#000000" d="M218,87L213,86L211,86L208,86L202,86L193,86L184,86L177,86L166,86L159,87L154,87L151,88L148,88L147,88L146,88L146,89L147,95L148,103L148,108L149,115L150,127L150,132L151,135L151,137L151,139L151,140L152,140L154,140L157,139L162,139L170,139L179,139L190,139L198,139L203,139L208,139L211,139L212,139L212,138L212,135L210,123L208,116L207,101L206,93L205,89L205,85L204,82L204,79L203,78L200,78L197,78L193,78L186,79L181,79L174,79L168,79L164,80L160,80L159,81L158,81L157,82L157,83L158,86L161,95L162,104L165,109L167,123L168,132L169,139L170,153L170,159L171,162L171,166L171,172L171,177L171,180L171,183L171,184L169,184L165,184L161,184L156,182L150,181L144,180L139,180L134,180L131,180L129,180L128,180L127,180L127,176L127,172L127,169L129,162L132,151L133,144L135,141L135,140L136,138L137,137L138,137L139,137L141,137L144,137L148,137L154,137L164,137L173,137L182,135L189,135L194,135L199,135L203,135L204,135L205,137L205,141L205,150L205,156L205,160L205,165L205,175L205,181L205,185L205,188L205,189L205,191L204,191L200,191L196,191L189,191L181,191L174,191L166,191L160,191L154,190L149,190L145,190L143,189L142,189L141,189L141,190L141,198L141,206L141,210L141,215L141,224L141,231L141,235L141,237L141,238L141,239L141,240L144,240L149,240L158,240L167,240L176,240L186,240L192,240L195,240L198,240L200,240L202,238L202,227L202,220L202,201L202,191L202,180L202,171L202,167L202,165L202,163L201,163L200,163L199,163L195,163L189,163L183,163L176,163L169,164L166,164L163,164L161,164L161,165L161,173L162,182L164,188L166,206L168,214L169,232L171,240L173,252L174,261L174,266L176,274L176,284L176,289L176,293L176,298L176,309L176,313L176,317L176,319L176,322L176,325L176,329L176,332L176,336L176,339L175,342L175,343L175,344L174,344L173,344L171,345L167,345L161,345L152,345L140,345L130,345L120,346L110,347L103,348L97,350L92,351L88,352L86,354L85,354L85,355L85,359L84,366L84,383L83,397L81,417L81,429L80,439L79,443L79,446L79,447L79,448L84,445L94,441L110,434L125,428L141,425L154,424L164,424L172,423L177,423L180,423L181,423L179,423L177,423L175,423L174,424L174,433L174,442L175,451L177,467L178,473L179,477L179,482L179,488L178,492L175,494L169,496L161,497L152,499L140,500L129,503L120,505L113,506L110,506L108,506L108,495L108,478L108,451L104,424L101,409L96,401L92,397L90,395L88,393L93,387L101,381L110,378L120,377L129,377L135,380L139,390L140,404L140,418L141,436L142,445L144,451L146,462L148,469L149,472L149,475L149,477L146,478L135,480L121,482L108,482L100,482L91,480L85,479L81,479L79,479L79,480L84,482L91,483L101,483L114,482L125,479L132,478L137,478L139,478L140,478L140,479L140,484L139,488L139,490L139,493L141,494L142,495L144,497L145,502L147,520L149,532L149,541L149,551L149,557L149,561L149,564L145,564L138,563L130,560L121,559L109,559L100,563L93,566L89,569L87,572L86,574L86,575L89,576L95,576L103,577L112,577L121,577L132,571L142,562L149,557L153,556L154,555L155,555L155,567L155,575L158,596L161,603L163,608L164,613L164,617L165,620L165,622L164,623L156,622L146,618L131,618L116,623L103,626L93,628L86,631L82,633L80,636L80,638L80,640L83,644L89,648L96,653L103,655L110,660L117,672L119,679L120,683L121,685L121,687L121,688L121,687L121,684L122,682L122,677L124,666L129,661L138,648L148,636L156,632L161,629L166,629L169,629L172,629L175,644L177,652L180,657L184,670L186,677L187,680L187,682L188,683L188,684L180,684L168,683L153,682L135,682L122,684L110,692L103,699L99,704L98,711L100,725L110,730L122,730L141,718L153,711L166,701L177,692L187,688L196,688L204,701L209,709L213,726L213,731L213,733L206,724L195,714L183,712L164,721L152,731L139,741L131,750L127,755L127,758L131,759L149,759L173,755L196,755L214,755L227,757L234,759L235,763L228,780L214,789L196,802L187,807L184,808L188,808L209,796L234,788L253,784L261,782L234,796L192,813L142,836L97,866" stroke-opacity="1" stroke-width="3" stroke-linecap="round" stroke-linejoin="round" style="-webkit-tap-highlight-color: rgba(0, 0, 0, 0); stroke-opacity: 1; stroke-linecap: round; stroke-linejoin: round; -webkit-user-select: text;"></path></svg>