<svg height="874" version="1.1" width="768" xmlns="http://www.w3.org/2000/svg" xmlns:xlink="http://www.w3.org/1999/xlink" style="overflow: hidden; position: relative; -webkit-user-select: text;"><desc style="-webkit-tap-highlight-color: rgba(0, 0, 0, 0); -webkit-user-select: text;">Created with Raphaël 2.2.0</desc><defs style="-webkit-tap-highlight-color: rgba(0, 0, 0, 0); -webkit-user-select: text;"></defs><path fill="none" stroke="#000000" d="M362,256L355,253L353,253L350,253L347,253L344,254L341,255L339,255L337,257L335,258L334,260L332,262L330,265L329,268L327,270L327,273L325,276L324,279L324,283L324,286L324,289L323,292L323,295L323,298L323,300L323,302L323,304L323,306L323,307L324,309L324,311L326,313L328,315L330,317L331,319L333,320L334,322L336,323L338,324L340,324L341,325L343,325L344,326L346,326L347,326L349,326L350,327L351,327L352,327L353,327L354,327L355,327L356,327L357,327L358,327L359,327L360,327L361,327L362,327L363,327L364,327L365,327L366,326L367,326L368,326L369,325L370,325L371,325L372,324L373,324L374,323L375,323L376,322L377,322L378,321L379,320L380,319L381,318L382,317L383,316L383,315L384,314L385,313L386,311L386,310L387,308L388,306L389,305L390,303L390,302L391,300L391,298L392,296L392,294L393,293L393,290L394,288L394,286L395,284L395,282L395,280L395,278L395,276L395,274L395,272L395,270L395,268L395,266L395,264L394,262L393,260L392,258L391,256L390,255L388,253L387,251L386,250L385,248L383,246L382,245L380,242L378,241L376,239L374,237L372,235L370,234L368,233L365,231L363,230L361,230L358,229L356,228L354,228L351,228L349,228L346,228L344,228L342,228L340,228L339,228L337,228L336,228L334,228L333,228L332,228L331,229L330,230L329,230L329,231L328,232L327,233L326,233L325,234L324,235L323,236L322,237L321,238L320,239L319,240L319,242L317,243L317,244L316,245L315,246L314,247L314,248L313,249L313,250L312,251L312,252L312,253L311,254L311,255L310,257L310,258L310,259L309,261L309,262L309,264L309,266L308,268L308,269L308,271L308,272L308,273L308,274L308,275L308,276L308,278L308,279L308,280L308,281L308,282L309,284L309,285L310,286L310,287L311,289L312,290L312,291L313,291L313,292L314,293L315,293L316,294L317,295L318,296L319,297L320,298L322,298L323,299L324,300L325,301L326,301L327,301L329,302L329,303L331,303L332,304L333,304L334,304L335,305L336,305L337,305L338,305L339,305L339,306L340,306L341,306L342,306L343,306L344,306L345,306L346,306L347,306L348,306L349,306L350,306L351,306L352,306L353,306L355,306L357,305L361,303L365,302L368,301" stroke-opacity="1" stroke-width="5" stroke-linecap="round" stroke-linejoin="round" style="-webkit-tap-highlight-color: rgba(0, 0, 0, 0); stroke-opacity: 1; stroke-linecap: round; stroke-linejoin: round; -webkit-user-select: text;"></path><path fill="none" stroke="#000000" d="M454,207L451,204L449,204L446,204L443,204L440,204L436,204L433,204L429,204L425,205L421,207L418,208L414,211L412,213L409,216L407,219L405,222L404,225L402,228L400,232L399,235L397,239L397,243L396,247L395,250L395,254L395,258L395,262L395,266L396,269L397,273L398,276L400,279L402,281L403,284L405,286L407,289L410,291L412,293L415,294L418,295L421,296L424,297L426,298L429,298L431,298L434,298L436,298L440,298L443,298L447,297L450,295L453,293L456,291L459,289L461,286L463,284L465,281L467,278L469,275L470,272L472,268L472,264L473,261L473,257L473,254L473,251L473,247L473,244L471,240L469,237L466,234L463,231L460,229L457,227L453,225L448,225L444,224L441,224L438,224L436,224L434,225L433,225L431,228L430,230L429,232L427,235L426,239L426,242L425,246L425,249L425,253L425,256L425,259L426,262L427,265L429,268L431,270L434,271L436,272L437,272L440,272L443,272L447,269L451,265L453,262L455,259L456,255L456,252L456,250L455,247L453,245L448,244L444,243L440,243L436,243L433,243L430,243L428,243L426,245L424,246L423,248L422,250L421,252L421,254L421,256L421,258L421,260L421,262L421,264L421,266L421,267L421,269L421,270L423,271L424,272L425,272L426,273L428,274L429,274L430,274L431,275L432,275L434,275L435,276L436,276L437,276L438,276L440,276L441,276L443,276L444,276L447,275L453,272" stroke-opacity="1" stroke-width="5" stroke-linecap="round" stroke-linejoin="round" style="-webkit-tap-highlight-color: rgba(0, 0, 0, 0); stroke-opacity: 1; stroke-linecap: round; stroke-linejoin: round; -webkit-user-select: text;"></path><path fill="none" stroke="#000000" d="M414,199L409,196L406,196L402,196L397,196L392,196L387,196L383,196L378,196L374,197L370,199L367,201L365,204L363,207L361,211L360,215L359,219L358,223L357,226L357,230L357,235L357,239L357,243L357,246L357,249L359,252L361,255L363,258L366,260L368,263L372,265L375,267L378,269L381,270L383,272L387,272L390,272L395,272L399,272L403,272L408,272L413,269L418,267L423,264L426,262L429,259L431,256L434,253L434,250L435,246L435,242L435,238L434,235L432,231L430,228L427,225L424,221L420,218L416,215L412,212L408,211L404,210L399,210L394,210L390,210L387,210L384,213L383,217L381,221L380,225L379,230L378,236L378,240L378,245L378,249L378,253L379,256L380,259L383,262L385,264L388,265L391,266L395,267L398,267L402,267L405,266L409,263L412,259L414,256L415,252L415,249L415,245L414,242L410,238L406,236L400,235L394,233L390,233L385,233L381,233L377,235L374,238L371,242L370,245L368,249L368,252L368,256L368,259L368,263L368,267L368,270L370,273L371,275L373,277L375,279L377,280L378,281L380,282L381,284L383,284L385,285L386,286L387,286L389,286L390,287L392,287L393,288L394,288L395,288L396,288L397,288L398,288L399,288L400,288L401,288L402,288L403,288L404,288L405,288L406,288L407,288L408,288L409,288L410,288L411,288L413,287L416,286L421,285" stroke-opacity="1" stroke-width="5" stroke-linecap="round" stroke-linejoin="round" style="-webkit-tap-highlight-color: rgba(0, 0, 0, 0); stroke-opacity: 1; stroke-linecap: round; stroke-linejoin: round; -webkit-user-select: text;"></path><path fill="none" stroke="#000000" d="M440,313L435,308L431,305L426,302L420,298L414,295L409,293L404,291L398,291L392,291L388,291L384,291L381,293L379,296L377,298L376,301L374,303L373,306L372,309L370,312L369,315L368,318L368,321L367,324L367,326L367,328L367,330L367,332L367,334L367,336L367,338L367,341L368,343L369,345L370,347L372,349L373,351L375,352L376,354L378,355L379,356L381,357L383,358L385,359L387,360L389,360L392,361L395,362L398,362L402,362L406,362L411,362L416,362L421,361L426,359L430,356L434,353L436,349L437,345L438,341L438,337L438,334L436,330L433,326L426,323L420,320L412,318L406,318L396,318L388,318L383,319L378,322L373,325L371,329L369,333L368,338L368,343L368,348L368,354L370,359L373,363L377,366L381,368L390,369L398,369L407,369L415,365L424,359L428,354L431,349L431,345L431,342L430,338L425,336L419,335L415,334L409,333L404,333L400,333L395,333L392,334L389,337L386,339L384,342L383,345L382,349L381,352L380,354L380,357L379,359L379,362L379,364L379,365L379,367L379,369L379,370L379,372L379,374L379,375L379,376L380,377L380,379L381,380L382,381L383,382L385,383L386,384L387,386L390,387L392,388L395,388L398,389L403,390L410,391L418,391L424,391" stroke-opacity="1" stroke-width="5" stroke-linecap="round" stroke-linejoin="round" style="-webkit-tap-highlight-color: rgba(0, 0, 0, 0); stroke-opacity: 1; stroke-linecap: round; stroke-linejoin: round; -webkit-user-select: text;"></path><path fill="none" stroke="#000000" d="M360,329L357,324L353,322L349,319L345,318L341,317L336,316L332,316L329,316L326,317L322,319L320,321L317,325L315,328L313,331L312,334L310,338L310,342L309,345L309,349L309,352L309,355L309,358L309,360L309,363L310,365L311,368L312,370L314,372L316,374L318,376L320,377L322,379L325,379L327,380L329,381L330,381L332,382L334,382L336,382L338,382L341,382L343,382L347,382L351,380L354,378L357,375L360,372L362,369L363,366L364,362L364,358L364,355L362,353L360,351L357,349L353,348L351,348L348,348L346,348L344,348L342,348L341,350L340,352L339,354L339,356L339,358L339,361L339,363L339,365L339,366L341,367L342,368L344,369L345,369L347,369L350,368L352,365L354,362L355,358L355,355L355,353L355,352L353,350L351,350L347,350L344,350L342,350L341,351L340,352L340,354L340,356L340,359L340,362L341,365L344,369L348,372L356,374L368,374" stroke-opacity="1" stroke-width="5" stroke-linecap="round" stroke-linejoin="round" style="-webkit-tap-highlight-color: rgba(0, 0, 0, 0); stroke-opacity: 1; stroke-linecap: round; stroke-linejoin: round; -webkit-user-select: text;"></path><path fill="none" stroke="#000000" d="M502,275L490,275L485,275L478,275L471,277L466,279L461,282L457,285L453,290L450,294L447,300L445,306L443,312L441,318L440,323L439,328L439,332L439,336L439,340L439,344L440,347L441,350L443,353L444,356L447,358L449,360L452,362L454,363L457,364L459,365L462,366L464,367L467,368L470,368L473,369L478,369L482,369L487,369L494,368L499,366L504,363L507,359L510,356L513,353L515,348L516,344L517,340L518,335L519,331L519,326L519,320L519,315L517,311L514,306L509,303L503,299L497,297L490,296L484,295L477,295L472,295L469,298L466,301L463,306L462,312L460,318L460,324L460,330L460,337L460,341L461,345L464,348L467,349L472,350L480,350L486,348L492,344L495,340L498,336L499,332L499,328L498,324L495,323L490,321L486,320L482,320L479,320L477,320L475,322L472,325L471,328L470,332L470,336L470,339L470,342L470,345L471,347L473,349L475,350L476,351L478,351L479,351L481,351L482,351L484,351L486,351L488,351L490,349L491,347L492,346L493,344L494,342L494,340L494,338L494,337L494,335L493,334L492,332L490,332L488,331L486,330L484,329L482,329L479,329L476,329L473,329L471,330L468,331L466,333L465,335L463,337L462,339L461,342L460,344L460,347L460,349L460,352L460,354L460,355L460,357L460,359L460,361L460,362L460,364L460,365L461,366L462,367L463,368L463,369L464,370L465,371L466,371L467,372L468,373L469,373L470,374L471,374L472,374L474,375L475,375L477,375L478,375L480,376L482,376L483,376L485,376L487,376L489,376L491,376L493,376L495,376L497,376L500,376L502,376L504,375L507,373L508,372L510,371L512,369L513,368L514,366L514,364L514,363L514,361L514,359L510,358L504,356L498,355L492,354L486,354L480,354L472,354L467,354L462,355L458,358L454,362L450,368L446,373L444,378L442,384L441,391L441,398L441,406L441,413L444,420L449,424L460,427L468,428L478,428L489,426L497,420L503,411L506,404L506,398L504,392L497,388L488,385L476,383L468,382L460,382L450,382L443,383L438,386L433,391L430,396L427,400L425,405L423,409L422,413L421,417L420,420L420,423L420,426L420,429L420,431L420,433L420,435L420,437L420,439L421,441L422,442L423,443L424,444L425,446L426,447L427,448L429,449L430,451L432,452L434,454L437,455L441,456L445,457L451,457L459,457L465,457" stroke-opacity="1" stroke-width="5" stroke-linecap="round" stroke-linejoin="round" style="-webkit-tap-highlight-color: rgba(0, 0, 0, 0); stroke-opacity: 1; stroke-linecap: round; stroke-linejoin: round; -webkit-user-select: text;"></path><path fill="none" stroke="#000000" d="M418,359L412,361L406,362L399,365L394,368L389,371L386,375L383,378L381,382L379,387L378,393L376,399L375,405L375,409L374,415L374,419L374,423L374,427L375,430L376,433L378,436L380,438L381,440L383,441L385,443L387,444L390,445L392,446L394,447L397,447L400,447L404,447L409,447L413,447L417,447L422,447L426,447L431,445L434,443L438,441L441,439L443,435L445,432L448,428L449,425L450,421L451,417L451,413L452,409L452,405L451,400L448,396L445,392L442,389L438,387L435,385L432,384L428,384L424,384L421,384L417,384L415,386L412,388L410,392L409,396L407,399L406,403L406,407L406,411L406,415L406,419L406,422L406,424L408,426L410,428L413,428L416,429L420,429L424,428L428,425L430,422L432,419L432,415L432,412L432,410L430,408L425,407L420,407L416,407L413,407L411,408L409,413L409,418" stroke-opacity="1" stroke-width="5" stroke-linecap="round" stroke-linejoin="round" style="-webkit-tap-highlight-color: rgba(0, 0, 0, 0); stroke-opacity: 1; stroke-linecap: round; stroke-linejoin: round; -webkit-user-select: text;"></path><path fill="none" stroke="#000000" d="M352,378L345,378L342,378L339,378L334,378L330,378L324,378L318,379L313,381L308,383L304,386L301,389L298,393L295,397L293,401L291,405L289,409L288,414L287,419L286,423L286,427L286,432L286,436L286,441L286,444L286,448L288,451L290,454L292,456L294,458L296,459L298,461L300,462L302,464L305,465L307,466L310,467L312,468L315,469L318,470L322,470L324,471L327,471L330,471L334,471L338,471L341,469L345,467L348,464L352,461L356,459L359,455L362,453L365,449L367,446L369,442L370,439L371,435L373,431L373,427L374,423L374,420L375,416L375,413L375,410L375,408L374,405L372,402L370,399L368,396L366,394L364,392L362,390L360,389L357,387L354,386L349,386L345,385L341,385L333,385" stroke-opacity="1" stroke-width="5" stroke-linecap="round" stroke-linejoin="round" style="-webkit-tap-highlight-color: rgba(0, 0, 0, 0); stroke-opacity: 1; stroke-linecap: round; stroke-linejoin: round; -webkit-user-select: text;"></path><path fill="none" stroke="#000000" d="M327,425L327,425" stroke-opacity="1" stroke-width="5" stroke-linecap="round" stroke-linejoin="round" style="-webkit-tap-highlight-color: rgba(0, 0, 0, 0); stroke-opacity: 1; stroke-linecap: round; stroke-linejoin: round; -webkit-user-select: text;"></path><path fill="none" stroke="#000000" d="M298,330L290,329L286,329L284,329L282,330L279,332L275,335L271,338L268,342L265,346L262,349L260,353L258,358L257,363L256,369L256,373L256,377L256,381L256,386L256,391L256,395L257,399L259,403L261,407L263,410L266,413L268,416L271,420L273,423L276,426L278,428L281,430L283,432L286,434L289,435L292,436L295,437L297,437L299,437L301,438L303,438L305,439L307,439L309,439L311,439L314,439L317,439L319,439L322,439L325,439L327,439L330,439L334,439L337,439L340,438L344,437L347,435L350,433L353,430L356,427L359,424L363,420L365,417L367,413L369,409L370,404L372,400L373,395L373,391L374,386L374,382L374,377L374,371L373,367L370,362L367,358L364,354L361,351L357,348L353,345L349,343L344,342L339,341L335,341L331,341L328,341L326,342L324,345L321,348L319,352L316,356L314,361L312,366L310,372L310,376L309,381L309,387L309,392L309,397L310,400L313,404L316,408L319,410L323,412L327,414L330,414L334,414L340,414L345,412L349,409L353,405L356,400L358,397L360,392L361,388L361,383L361,379L361,375L358,372L355,369L351,366L348,365L344,364L341,364L339,364L337,364L336,366L336,374" stroke-opacity="1" stroke-width="5" stroke-linecap="round" stroke-linejoin="round" style="-webkit-tap-highlight-color: rgba(0, 0, 0, 0); stroke-opacity: 1; stroke-linecap: round; stroke-linejoin: round; -webkit-user-select: text;"></path><path fill="none" stroke="#000000" d="M334,355L334,355" stroke-opacity="1" stroke-width="5" stroke-linecap="round" stroke-linejoin="round" style="-webkit-tap-highlight-color: rgba(0, 0, 0, 0); stroke-opacity: 1; stroke-linecap: round; stroke-linejoin: round; -webkit-user-select: text;"></path><path fill="none" stroke="#000000" d="M331,267L325,265L322,265L320,265L317,265L313,265L309,267L305,269L302,273L298,276L295,279L292,281L290,285L287,289L285,293L283,296L282,300L281,303L280,306L280,309L280,313L280,317L280,320L280,324L280,327L281,330L283,332L285,335L287,338L289,341L291,344L293,347L296,349L298,351L301,353L303,355L305,357L307,358L310,359L312,360L314,361L316,362L318,362L321,363L322,363L324,364L326,364L327,364L329,364L330,364L331,364L334,364L335,364L338,364L340,364L342,364L344,364L347,363L349,362L352,361L354,360L356,358L359,357L361,354L363,352L366,348L368,344L371,339L373,334L375,329L377,323L378,318L379,313L379,308L379,301L379,296L376,292L373,288L369,284L365,281L361,279L355,278L349,277L343,277L338,277L334,277L330,278L326,280L322,284L319,287L316,292L313,297L311,301L310,307L310,314L310,320L312,328L319,335L327,336" stroke-opacity="1" stroke-width="5" stroke-linecap="round" stroke-linejoin="round" style="-webkit-tap-highlight-color: rgba(0, 0, 0, 0); stroke-opacity: 1; stroke-linecap: round; stroke-linejoin: round; -webkit-user-select: text;"></path><path fill="none" stroke="#000000" d="M307,306L307,306" stroke-opacity="1" stroke-width="5" stroke-linecap="round" stroke-linejoin="round" style="-webkit-tap-highlight-color: rgba(0, 0, 0, 0); stroke-opacity: 1; stroke-linecap: round; stroke-linejoin: round; -webkit-user-select: text;"></path><path fill="none" stroke="#000000" d="M289,232L278,233L274,235L269,237L264,240L261,243L258,246L255,250L253,253L251,257L249,262L248,268L247,272L246,277L246,282L246,287L246,292L246,296L249,300L251,303L254,308L257,311L261,315L264,318L268,321L271,323L274,325L276,327L279,328L281,329L283,330L285,330L287,330L289,331L291,331L293,331L295,331L298,331L299,331L301,331L303,331L305,331L308,331L310,330L313,329L316,328L318,326L321,325L323,323L325,322L327,320L329,318L331,316L334,313L336,311L339,307L342,303L345,301L347,297L349,293L351,289L351,285L352,281L353,277L353,274L353,269L353,265L351,260L347,256L344,252L339,248L336,244L332,240L328,236L324,233L319,231L316,229L312,228L307,228L303,228L298,228L293,228L290,229L286,231L283,234L280,236L277,240L274,243L271,247L268,251L266,254L264,258L263,262L262,266L261,269L261,273L261,276L261,280L263,283L265,288L268,291L270,294L273,297L276,299L280,302L285,303L290,304L295,304L303,304L312,303L319,299L326,293" stroke-opacity="1" stroke-width="5" stroke-linecap="round" stroke-linejoin="round" style="-webkit-tap-highlight-color: rgba(0, 0, 0, 0); stroke-opacity: 1; stroke-linecap: round; stroke-linejoin: round; -webkit-user-select: text;"></path><path fill="none" stroke="#000000" d="M292,252L292,252" stroke-opacity="1" stroke-width="5" stroke-linecap="round" stroke-linejoin="round" style="-webkit-tap-highlight-color: rgba(0, 0, 0, 0); stroke-opacity: 1; stroke-linecap: round; stroke-linejoin: round; -webkit-user-select: text;"></path><path fill="none" stroke="#000000" d="M335,183L327,177L325,177L322,177L318,177L314,178L311,180L307,182L304,184L300,187L297,191L293,194L290,196L288,200L286,203L284,206L283,210L282,214L281,218L280,222L280,225L280,228L280,232L280,235L280,240L280,243L280,246L282,250L284,252L286,255L288,258L291,261L293,264L296,266L298,268L301,270L303,272L306,273L308,274L311,275L314,275L317,276L320,276L324,276L327,276L331,276L334,276L339,274L342,272L346,270L349,267L352,264L355,262L357,259L358,255L360,251L361,247L362,243L363,238L363,234L363,229L363,225L363,220L363,216L363,211L361,208L359,204L356,201L353,199L350,196L346,195L343,194L339,193L335,193L331,193L327,193L323,193L318,194L314,195L311,197L308,199L306,202L304,206L302,210L301,215L301,219L301,223L301,227L301,231L301,235L303,239L305,242L309,244L314,247L319,247L323,248L328,248L333,248L337,246L341,242L344,237L345,233L346,229L346,225L345,223L342,221L338,220L333,220L326,220" stroke-opacity="1" stroke-width="5" stroke-linecap="round" stroke-linejoin="round" style="-webkit-tap-highlight-color: rgba(0, 0, 0, 0); stroke-opacity: 1; stroke-linecap: round; stroke-linejoin: round; -webkit-user-select: text;"></path><path fill="none" stroke="#000000" d="M393,150L387,150L385,150L383,150L380,151L378,152L374,153L371,154L368,156L366,158L363,161L361,165L360,168L358,172L356,175L355,180L354,184L353,188L353,191L353,195L353,198L353,202L354,206L356,209L358,213L361,216L364,218L367,221L371,223L374,225L377,227L380,229L384,231L387,233L391,234L395,234L398,235L402,235L407,235L411,235L415,235L421,232L426,230L431,227L435,223L439,219L442,214L445,209L448,204L449,198L450,194L451,189L451,184L451,179L451,173L451,168L448,163L445,158L442,155L438,151L435,148L430,145L425,143L419,142L415,141L411,141L406,141L402,141L398,141L395,141L392,142L390,143L388,145L386,146L385,148L384,150L383,153L381,156L380,160L380,163L379,167L379,170L378,173L378,176L378,179L378,182L378,185L378,187L379,190L379,192L380,194L382,196L383,199L384,201L385,202L387,204L389,206L391,208L393,209L395,211L397,212L400,213L402,213L404,213L406,213L408,213L411,213L414,213L417,213L421,211L425,209L429,207L432,204L435,202L437,199L439,194L440,190L440,186L440,182L438,178L434,174L427,172L422,170L417,170L405,170L398,170" stroke-opacity="1" stroke-width="5" stroke-linecap="round" stroke-linejoin="round" style="-webkit-tap-highlight-color: rgba(0, 0, 0, 0); stroke-opacity: 1; stroke-linecap: round; stroke-linejoin: round; -webkit-user-select: text;"></path><path fill="none" stroke="#000000" d="M528,187L525,181L523,181L519,181L514,181L509,183L504,186L499,189L495,193L492,196L490,199L487,202L486,206L485,210L484,214L483,218L483,222L483,225L482,229L482,233L482,237L482,241L483,245L485,249L487,253L489,257L491,260L494,264L497,267L500,269L503,271L506,272L509,273L512,274L516,275L520,276L524,276L530,276L536,276L542,276L548,274L553,272L558,269L562,266L565,262L568,259L570,255L572,250L574,246L575,241L575,236L575,231L575,226L575,222L575,217L574,211L572,207L570,203L568,199L565,194L562,190L560,187L556,184L552,183L548,182L543,182L540,182L536,182L533,182L529,185L526,187L522,191L519,194L517,196L515,200L513,204L512,207L511,211L511,214L511,217L511,221L511,225L511,228L511,231L511,235L512,238L514,240L516,242L519,244L526,247" stroke-opacity="1" stroke-width="5" stroke-linecap="round" stroke-linejoin="round" style="-webkit-tap-highlight-color: rgba(0, 0, 0, 0); stroke-opacity: 1; stroke-linecap: round; stroke-linejoin: round; -webkit-user-select: text;"></path><path fill="none" stroke="#000000" d="M528,301L522,305L521,306L520,307L519,309L518,311L517,313L516,316L515,319L514,322L514,325L514,328L514,332L514,335L514,339L514,342L516,345L517,348L519,350L522,352L524,354L527,357L530,359L533,360L536,362L538,363L541,364L545,364L549,365L553,365L558,365L562,365L567,365L571,363L574,360L577,358L579,356L581,354L583,352L585,349L586,347L587,344L588,341L589,337L589,334L590,331L591,328L591,325L591,322L591,318L591,315L591,313L591,310L591,308L591,306L590,304L589,302L587,300L586,298L584,297L581,295L579,294L576,293L574,291L571,291L569,290L566,290L564,290L561,290L559,290L556,290L553,291L550,293L548,295L546,298L545,300L543,302L542,304L541,306L541,309L540,312L539,315L539,318L539,321L539,325L539,328L539,331L539,334L539,337L539,341L541,344L543,346L545,348L549,350L553,352L560,355" stroke-opacity="1" stroke-width="5" stroke-linecap="round" stroke-linejoin="round" style="-webkit-tap-highlight-color: rgba(0, 0, 0, 0); stroke-opacity: 1; stroke-linecap: round; stroke-linejoin: round; -webkit-user-select: text;"></path><path fill="none" stroke="#000000" d="M555,375L550,376L547,376L544,376L541,377L538,379L533,381L528,383L525,385L522,387L520,390L519,392L518,395L517,398L517,401L516,405L516,408L516,412L516,415L516,417L516,420L517,422L519,425L521,427L523,429L525,431L527,434L529,436L531,437L533,439L536,440L538,441L542,441L546,441L550,441L554,441L558,441L561,440L563,438L566,435L568,433L570,431L572,428L575,425L576,422L578,418L579,414L580,410L581,406L581,402L581,398L581,393L581,390L579,385L577,381L574,379L571,376L567,374L564,372L561,371L557,371L553,371L550,371L547,371L545,372L543,374L541,376L540,379L538,381L537,383L536,386L535,390L534,393L534,396L534,399L534,403L534,406L534,408L534,411L534,413L534,415L535,416L536,417L537,417L538,417L539,417L541,418L542,418L543,418L545,418L547,418L548,417L549,415L550,413L550,411L550,409L550,407L549,406L547,405L544,404L542,404L539,404L536,404L533,404" stroke-opacity="1" stroke-width="5" stroke-linecap="round" stroke-linejoin="round" style="-webkit-tap-highlight-color: rgba(0, 0, 0, 0); stroke-opacity: 1; stroke-linecap: round; stroke-linejoin: round; -webkit-user-select: text;"></path><path fill="none" stroke="#000000" d="M519,413L515,411L513,411L510,411L507,411L503,411L499,411L496,411L492,411L490,412L487,414L486,416L485,417L484,420L483,422L483,424L482,427L482,429L481,431L481,433L481,435L481,438L481,440L481,443L481,445L482,447L483,448L485,449L486,451L487,452L489,453L490,454L492,454L494,455L497,455L499,456L502,456L504,456L506,456L508,456L510,455L512,453L514,451L516,449L517,447L518,446L518,443L519,440L519,438L519,436L519,434L518,432L516,431L514,430L512,430L510,430L508,430L505,430L503,430L501,430L500,430L499,432L499,433L499,435L499,437L499,439L499,441L502,444" stroke-opacity="1" stroke-width="5" stroke-linecap="round" stroke-linejoin="round" style="-webkit-tap-highlight-color: rgba(0, 0, 0, 0); stroke-opacity: 1; stroke-linecap: round; stroke-linejoin: round; -webkit-user-select: text;"></path><path fill="none" stroke="#000000" d="M494,477L487,483L485,483L482,483L479,484L477,486L474,488L472,490L472,492L471,494L471,497L471,499L471,501L472,503L473,505L474,507L475,508L477,509L479,510L482,511L485,511L489,511L492,511L495,511L497,510L498,508L499,506L499,504L499,502L498,501L496,500L494,499L491,498L490,498L487,498L485,498L484,498L483,499L482,501" stroke-opacity="1" stroke-width="5" stroke-linecap="round" stroke-linejoin="round" style="-webkit-tap-highlight-color: rgba(0, 0, 0, 0); stroke-opacity: 1; stroke-linecap: round; stroke-linejoin: round; -webkit-user-select: text;"></path><path fill="none" stroke="#000000" d="M490,502L487,497L485,497L483,496L480,496L475,496L472,496L468,496L465,496L463,497L461,498L460,500L459,502L458,505L458,507L457,509L457,511L457,513L457,515L458,518L459,520L462,521L466,522L470,522L475,522L479,522L483,520L488,515L491,507L492,503L492,498L493,493L492,490L491,489L489,488L486,486L481,485" stroke-opacity="1" stroke-width="5" stroke-linecap="round" stroke-linejoin="round" style="-webkit-tap-highlight-color: rgba(0, 0, 0, 0); stroke-opacity: 1; stroke-linecap: round; stroke-linejoin: round; -webkit-user-select: text;"></path><path fill="none" stroke="#000000" d="M475,439L466,435L463,435L459,436L455,437L451,439L448,442L446,445L443,448L442,452L441,456L441,461L441,465L441,469L441,473L442,476L444,479L447,482L450,485L452,487L455,488L457,489L460,490L462,490L464,491L466,491L469,491L474,490L478,487L483,484L487,481L490,478L492,474L494,471L494,468L494,464L494,461L492,458L490,455L487,452L485,449L483,447L480,444L477,443L475,442L471,442L468,442L466,442L464,442L463,442L461,443L460,445L459,447L458,450L458,453L457,456L457,459L457,462L457,465L458,467L459,469L460,470L462,471L463,471L464,471L465,471L466,469L467,467L467,465L467,464L467,463" stroke-opacity="1" stroke-width="5" stroke-linecap="round" stroke-linejoin="round" style="-webkit-tap-highlight-color: rgba(0, 0, 0, 0); stroke-opacity: 1; stroke-linecap: round; stroke-linejoin: round; -webkit-user-select: text;"></path><path fill="none" stroke="#000000" d="M537,445L532,444L529,444L527,444L525,446L522,448L520,451L518,454L516,457L514,461L513,464L512,468L512,471L511,474L511,477L511,480L512,482L514,485L516,487L519,490L522,492L525,493L528,495L531,496L534,496L538,497L542,497L547,497L552,495L558,491L561,488L565,483L566,479L567,474L568,470L568,466L568,461L567,458L564,454L561,450L558,448L555,446L552,444L548,442L545,442L541,442L538,442L536,442L534,442L533,444L531,447L530,450L528,454L527,458L526,462L526,467L526,471L526,475L526,477L527,479L529,481L531,481L533,481L536,481L539,480L542,477L543,474L543,471L543,469L543,468L541,468L535,468L528,471" stroke-opacity="1" stroke-width="5" stroke-linecap="round" stroke-linejoin="round" style="-webkit-tap-highlight-color: rgba(0, 0, 0, 0); stroke-opacity: 1; stroke-linecap: round; stroke-linejoin: round; -webkit-user-select: text;"></path><path fill="none" stroke="#000000" d="M428,465L426,463L424,462L420,461L416,461L412,461L407,461L402,461L397,461L393,461L390,463L387,466L385,469L383,473L381,477L380,481L380,485L380,489L380,493L380,497L380,502L380,505L382,510L383,513L385,517L389,520L391,523L394,525L397,527L399,528L402,529L405,529L409,529L412,529L417,529L422,529L426,528L430,526L433,524L436,521L438,517L441,513L442,509L444,505L445,501L446,497L446,493L446,489L446,485L446,481L444,478L442,475L440,471L438,468L436,466L433,465L429,464L425,464L420,464L415,464L411,464L408,466L406,468L404,472L402,476L401,479L400,483L399,488L399,493L399,497L399,500L399,503L400,505L402,507L404,508L408,509L412,509L417,508L421,505L424,500L426,496L427,493L427,490L426,489L422,488L418,488L413,488" stroke-opacity="1" stroke-width="5" stroke-linecap="round" stroke-linejoin="round" style="-webkit-tap-highlight-color: rgba(0, 0, 0, 0); stroke-opacity: 1; stroke-linecap: round; stroke-linejoin: round; -webkit-user-select: text;"></path><path fill="none" stroke="#000000" d="M390,417L374,415L366,415L358,415L349,417L342,421L337,424L333,428L330,433L327,440L326,447L325,454L324,461L324,468L324,475L324,481L325,488L328,495L330,499L334,503L337,507L341,511L345,515L348,517L351,519L356,520L360,521L366,522L372,522L377,522L383,522L388,521L393,520L397,518L400,515L403,512L405,509L407,505L409,500L410,495L412,491L413,487L415,482L416,478L417,473L417,468L417,464L417,459L417,455L417,450L414,446L412,443L409,440L407,437L403,434L399,432L395,431L391,430L387,429L383,429L379,429L375,429L371,429L367,430L364,432L361,434L358,436L356,439L354,442L352,447L351,451L350,456L350,462L350,467L350,472L350,477L350,481L352,485L356,489L358,492L361,494L365,495L368,497L371,497L375,497L380,495L383,492L386,488L388,483L388,479L388,475L388,472L387,469L383,468L379,468L375,468L372,469L368,473" stroke-opacity="1" stroke-width="5" stroke-linecap="round" stroke-linejoin="round" style="-webkit-tap-highlight-color: rgba(0, 0, 0, 0); stroke-opacity: 1; stroke-linecap: round; stroke-linejoin: round; -webkit-user-select: text;"></path><path fill="none" stroke="#000000" d="M305,476L291,477L287,477L283,478L278,480L273,482L269,485L265,488L261,491L259,495L257,499L256,504L256,508L256,513L256,519L256,524L258,529L261,534L263,539L267,543L270,546L273,548L276,550L280,552L284,553L289,554L295,554L300,554L305,554L310,550L313,546L315,541L317,537L318,532L318,527L318,522L318,517L318,512L318,507L317,503L315,498L312,494L310,491L307,488L305,487L300,485L295,485L289,485L284,485L279,485L273,488L268,494L265,500L264,512" stroke-opacity="1" stroke-width="5" stroke-linecap="round" stroke-linejoin="round" style="-webkit-tap-highlight-color: rgba(0, 0, 0, 0); stroke-opacity: 1; stroke-linecap: round; stroke-linejoin: round; -webkit-user-select: text;"></path><path fill="none" stroke="#000000" d="M295,519L292,516L290,516L289,516L287,516L285,518L283,520L282,522L282,524L282,527L282,530L282,532L284,533L287,533L290,533L292,533L294,532L295,529L295,526L295,525L295,524L294,524L293,524" stroke-opacity="1" stroke-width="5" stroke-linecap="round" stroke-linejoin="round" style="-webkit-tap-highlight-color: rgba(0, 0, 0, 0); stroke-opacity: 1; stroke-linecap: round; stroke-linejoin: round; -webkit-user-select: text;"></path><path fill="none" stroke="#000000" d="M366,522L362,522L360,522L358,524L356,526L354,528L353,531L352,534L351,537L351,540L351,544L351,548L351,551L351,555L353,558L355,561L357,563L360,564L363,564L369,564L374,562L379,557L381,554L383,550L383,546L383,542L383,539L381,537L378,535L374,535L371,534L368,534L366,534L365,534L363,536L361,538L361,541L361,544L361,547L361,550L361,552L362,554L363,555L366,555L368,555L369,555L370,553L370,551L370,550L369,550L370,552" stroke-opacity="1" stroke-width="5" stroke-linecap="round" stroke-linejoin="round" style="-webkit-tap-highlight-color: rgba(0, 0, 0, 0); stroke-opacity: 1; stroke-linecap: round; stroke-linejoin: round; -webkit-user-select: text;"></path><path fill="none" stroke="#000000" d="M444,532L439,530L437,530L434,530L431,532L429,533L426,535L424,537L423,539L421,542L421,545L421,548L421,551L421,554L421,557L421,560L423,563L425,566L428,568L431,571L434,572L437,573L441,574L448,574L454,571L459,566L463,561L466,557L467,553L468,549L468,545L468,541L466,539L464,537L460,535L457,534L453,534L449,534L446,534L443,534L440,535L438,537L437,540L436,543L435,546L435,549L435,552L435,555L435,558L436,560L437,563L439,564L441,565L443,566L445,566L447,566L449,566L451,563L453,561L453,558L454,556L454,555L454,554L451,554L448,554L445,554L443,554L441,554L440,554L440,555L440,557L440,558L440,560L442,561L443,561L445,561L446,561L447,561L448,560L448,558L448,557L447,556L445,556L443,556L441,556L440,556L438,556L438,557L438,558L438,560L438,561L438,563L438,564L439,565L440,566L442,566L444,566L446,566L448,565L448,563L448,561L447,561L443,561L440,561L437,561L434,564L431,566L429,568L428,571L427,573L426,575L426,578L426,580L426,582L426,583L426,585L427,585L428,585L429,583L428,580L427,578L422,575L418,574L414,573L409,573L404,573L400,573L396,574L393,575L391,577L390,578L390,581L390,583L390,586L390,588L390,591L392,593L397,595L407,595L418,595" stroke-opacity="1" stroke-width="5" stroke-linecap="round" stroke-linejoin="round" style="-webkit-tap-highlight-color: rgba(0, 0, 0, 0); stroke-opacity: 1; stroke-linecap: round; stroke-linejoin: round; -webkit-user-select: text;"></path><path fill="none" stroke="#000000" d="M490,539L487,537L485,537L482,537L479,540L475,543L472,547L469,551L466,556L464,561L463,565L462,569L462,573L462,576L462,579L463,583L465,585L468,589L472,592L476,595L479,597L482,599L486,601L490,602L497,602L504,602L509,602L517,598L523,594L529,589L534,583L538,578L540,574L541,569L542,564L542,559L542,554L542,549L542,545L542,541L540,538L537,534L533,531L529,528L525,525L520,523L516,521L511,520L506,520L502,520L497,520L494,520L492,520L489,522L487,525L485,528L482,532L480,535L477,539L475,543L474,547L473,551L472,555L472,559L472,563L472,567L472,570L472,573L474,575L476,577L479,579L480,580L483,581L485,582L487,583L489,584L491,584L494,584L497,584L500,584L504,584L507,582L511,580L514,577L517,574L519,571L519,568L520,564L520,561L520,559L520,557L519,555L517,554L515,552L513,551L510,550L507,550L504,550L501,550L499,550L497,550L495,552L494,555L493,558L493,561L493,565L493,571L494,574L499,575L504,576" stroke-opacity="1" stroke-width="5" stroke-linecap="round" stroke-linejoin="round" style="-webkit-tap-highlight-color: rgba(0, 0, 0, 0); stroke-opacity: 1; stroke-linecap: round; stroke-linejoin: round; -webkit-user-select: text;"></path><path fill="none" stroke="#000000" d="M261,417L257,415L254,415L250,415L246,415L242,415L238,415L234,417L230,419L227,421L225,424L222,427L220,430L218,433L217,437L216,441L215,446L215,451L215,456L215,461L215,467L215,472L217,475L220,479L224,483L227,486L231,489L235,492L238,494L242,495L244,496L247,496L249,496L251,496L254,496L256,496L259,496L261,494L264,492L267,490L268,489L271,487L271,486L273,484L273,483L274,481L275,478L276,476L276,473L277,471L278,468L278,464L279,460L279,456L279,452L279,448L279,444L279,441L278,437L275,434L272,432L268,430L265,429L261,428L258,427L254,427L250,427L246,427L242,428L238,429L236,431L235,433L234,435L233,438L233,441L233,444L233,448L233,451L233,454L233,457L233,460L234,463L237,464L239,466L242,467L244,468L249,468L258,465L268,459" stroke-opacity="1" stroke-width="5" stroke-linecap="round" stroke-linejoin="round" style="-webkit-tap-highlight-color: rgba(0, 0, 0, 0); stroke-opacity: 1; stroke-linecap: round; stroke-linejoin: round; -webkit-user-select: text;"></path><path fill="none" stroke="#000000" d="M259,337L253,333L251,333L249,333L245,333L241,335L237,337L234,340L230,344L228,347L226,350L224,354L223,357L222,362L221,366L220,370L220,374L220,379L220,383L221,388L222,392L225,395L227,398L230,401L234,404L239,407L243,409L246,411L251,413L254,413L258,414L261,415L265,415L269,415L273,415L278,415L283,413L288,410L292,407L296,403L300,400L302,396L305,391L307,386L309,380L310,374L310,369L310,363L310,359L310,355L308,351L305,347L302,344L298,340L293,337L288,335L284,333L279,332L274,331L268,331L263,331L258,331L254,333L250,336L247,340L244,344L242,349L241,354L240,359L240,366L240,374L240,381L245,391L250,395L259,400L266,400" stroke-opacity="1" stroke-width="5" stroke-linecap="round" stroke-linejoin="round" style="-webkit-tap-highlight-color: rgba(0, 0, 0, 0); stroke-opacity: 1; stroke-linecap: round; stroke-linejoin: round; -webkit-user-select: text;"></path><path fill="none" stroke="#000000" d="M283,354L274,359L271,361L268,364L266,368L265,372L265,376L265,380L268,383L275,385L285,385L298,380" stroke-opacity="1" stroke-width="5" stroke-linecap="round" stroke-linejoin="round" style="-webkit-tap-highlight-color: rgba(0, 0, 0, 0); stroke-opacity: 1; stroke-linecap: round; stroke-linejoin: round; -webkit-user-select: text;"></path><path fill="none" stroke="#000000" d="M250,240L245,240L240,240L235,240L231,240L227,242L223,244L217,247L212,250L208,254L204,258L201,263L199,269L197,275L195,281L194,287L193,293L193,299L193,305L194,312L196,319L199,324L203,329L208,334L212,338L217,343L222,347L227,350L232,353L238,355L242,357L247,357L252,357L258,357L265,357L273,354L281,348L287,344L294,336L299,328L303,318L306,310L308,300L308,292L308,284L308,275" stroke-opacity="1" stroke-width="5" stroke-linecap="round" stroke-linejoin="round" style="-webkit-tap-highlight-color: rgba(0, 0, 0, 0); stroke-opacity: 1; stroke-linecap: round; stroke-linejoin: round; -webkit-user-select: text;"></path><path fill="none" stroke="#000000" d="M208,253L216,250L222,248L229,245L238,243L244,243L251,243L256,243L262,243L268,247L272,250L276,254L279,259L282,264L284,269L285,274L286,280L287,286L288,291L288,296L288,301L288,308L286,314L284,319L280,325L277,330L271,335L266,339L261,342L254,344L248,345L241,345L233,345L226,345L219,341L212,337L208,334L205,329L203,323L202,316L202,310L202,303L202,297L204,291L208,287L212,284L216,281L220,280L224,279L227,279L231,279L234,279L238,279L241,281L244,282L247,285L249,288L250,291L251,294L252,297L252,301L252,304L252,310L252,314L251,318L249,322L245,327L239,331L231,335L222,337L212,337L201,338L188,338" stroke-opacity="1" stroke-width="5" stroke-linecap="round" stroke-linejoin="round" style="-webkit-tap-highlight-color: rgba(0, 0, 0, 0); stroke-opacity: 1; stroke-linecap: round; stroke-linejoin: round; -webkit-user-select: text;"></path><path fill="none" stroke="#000000" d="M170,313L172,310L175,310L178,310L183,310L188,310L192,310L197,313L201,315L204,318L207,322L210,326L212,329L214,333L216,337L217,342L219,346L219,351L220,356L220,362L220,367L218,371L215,376L212,380L210,383L207,386L203,390L198,392L191,395L183,396L177,397L170,398L162,398L156,398L149,398L144,396L139,392L134,388L130,384L128,379L127,373L126,366L126,359L127,352L130,345L135,338L139,332L143,329L147,325L152,323L157,321L161,320L166,320L171,320L175,320L179,321L183,323L186,325L188,328L191,332L193,335L194,339L195,343L195,347L195,353L195,358L195,364L193,368L190,371L186,375L183,378L179,379L174,381L168,381L162,381L156,381L152,380L149,377L147,373L147,367L147,362L152,356L161,350L171,346L180,344" stroke-opacity="1" stroke-width="5" stroke-linecap="round" stroke-linejoin="round" style="-webkit-tap-highlight-color: rgba(0, 0, 0, 0); stroke-opacity: 1; stroke-linecap: round; stroke-linejoin: round; -webkit-user-select: text;"></path><path fill="none" stroke="#000000" d="M234,400L232,397L231,395L229,393L226,392L222,391L215,390L211,390L205,390L200,390L195,391L191,393L188,396L186,398L184,402L183,405L182,408L181,412L181,416L181,420L181,425L181,429L181,432L181,437L181,440L182,444L185,448L187,451L191,455L193,458L196,461L199,464L202,466L205,468L208,469L212,471L215,471L218,472L220,472L223,472L226,472L229,472L232,471L235,468L238,466L241,463L243,460L244,458L246,454L246,451L247,447L248,444L248,441L248,438L248,435L248,432L248,429L246,426L244,423L241,420L239,418L236,416L234,415L231,414L228,413L226,413L223,413L221,413L218,413L216,413L214,415L212,417L211,419L210,422L209,425L209,429L208,432L208,437L208,442L209,445L212,450L220,455" stroke-opacity="1" stroke-width="5" stroke-linecap="round" stroke-linejoin="round" style="-webkit-tap-highlight-color: rgba(0, 0, 0, 0); stroke-opacity: 1; stroke-linecap: round; stroke-linejoin: round; -webkit-user-select: text;"></path><path fill="none" stroke="#000000" d="M264,486L259,485L258,485L256,485L254,485L251,485L247,485L243,485L239,486L237,487L234,488L233,490L231,493L230,495L230,497L229,500L229,502L229,505L229,507L229,510L229,513L229,515L229,518L229,520L231,522L233,524L234,525L236,526L238,527L240,528L242,528L243,529L245,529L246,529L249,529L252,528L255,527L258,525L261,523L262,521L263,520L263,518L264,516L264,514L264,512L264,510L263,509L263,508L262,507L261,506L261,505L260,505L260,504L259,504L259,503L258,503L257,503L256,503L254,503L253,503L252,503L251,503L250,503L249,504L248,504L247,505L246,505L245,505L244,506L244,507L243,508L243,510L242,510L242,511L242,512L242,513L242,514L242,515L242,516L243,517L244,518L246,519L249,520L252,520" stroke-opacity="1" stroke-width="5" stroke-linecap="round" stroke-linejoin="round" style="-webkit-tap-highlight-color: rgba(0, 0, 0, 0); stroke-opacity: 1; stroke-linecap: round; stroke-linejoin: round; -webkit-user-select: text;"></path><path fill="none" stroke="#000000" d="M217,493L212,488L210,488L208,488L206,488L203,488L200,488L197,488L194,488L191,488L188,488L185,488L183,489L181,490L180,492L179,494L178,497L177,499L176,502L175,505L174,508L174,511L174,513L173,516L173,519L173,522L173,525L173,528L173,530L173,532L174,534L174,536L175,538L176,539L178,541L179,542L181,544L182,545L183,546L186,547L187,548L189,549L190,549L191,550L193,550L194,551L195,551L197,551L198,551L199,551L200,551L201,551L202,551L203,551L205,551L207,551L209,551L211,551L212,551L214,549L216,548L218,546L220,546L221,544L222,543L224,542L225,540L226,538L227,536L228,533L229,531L230,529L231,527L231,524L232,522L232,519L232,516L232,513L232,511L232,508L232,506L232,504L230,502L228,500L225,499L223,498L220,496L216,495L213,495L210,494L207,494L204,494L201,494L199,494L197,494L195,495L193,496L192,498L191,499L191,501L191,503L190,505L190,507L190,508L190,511L190,513L190,516L190,518L191,520L192,522L193,524L195,526L198,527L204,530L211,532" stroke-opacity="1" stroke-width="5" stroke-linecap="round" stroke-linejoin="round" style="-webkit-tap-highlight-color: rgba(0, 0, 0, 0); stroke-opacity: 1; stroke-linecap: round; stroke-linejoin: round; -webkit-user-select: text;"></path><path fill="none" stroke="#000000" d="M260,549L256,549L253,549L250,549L247,549L243,549L239,550L237,551L234,553L233,554L231,556L230,557L229,559L228,561L227,563L227,564L226,566L226,568L225,571L225,574L225,576L225,579L225,581L225,583L225,585L225,587L226,589L227,590L227,592L228,593L229,595L230,596L231,597L232,598L234,600L235,600L236,602L237,602L239,603L240,604L242,604L244,605L245,605L246,606L249,606L250,607L252,607L255,607L257,607L260,608L263,608L266,608L269,608L273,608L276,607L278,606L281,603L285,600L288,595L292,591L295,586L298,582L300,578L302,575L304,571L305,567L306,563L307,559L307,556L307,553L307,550L305,548L302,546L299,544L294,542L290,540L286,539L283,538L279,537L276,537L273,537L270,537L267,537L265,537L262,537L261,537L259,539L257,540L256,542L255,544L254,546L253,549L251,551L251,555L250,557L249,561L249,564L249,568L249,571L249,574L249,577L249,578L249,580L249,582L251,584L252,585L254,587L255,588L256,588L257,589L259,590L260,590L261,591L262,591L263,592L265,592L266,592L268,592L269,592L270,592L271,592L273,592L275,590L277,589L278,588L279,585L280,584L280,583L280,582L281,580L281,579L281,578L281,576L281,575L281,574L281,573L281,571L281,570L280,569L280,568L278,568L277,567L276,566L274,566L273,566L271,566L269,566L268,566L266,566L265,566L263,566L262,567L261,568L261,569L261,570L261,571L261,573L261,576L261,578L263,580L266,582L274,582" stroke-opacity="1" stroke-width="5" stroke-linecap="round" stroke-linejoin="round" style="-webkit-tap-highlight-color: rgba(0, 0, 0, 0); stroke-opacity: 1; stroke-linecap: round; stroke-linejoin: round; -webkit-user-select: text;"></path><path fill="none" stroke="#000000" d="M340,459L334,454L331,454L329,452L325,452L319,452L314,452L309,452L305,453L301,455L298,457L295,460L292,464L290,468L288,473L286,478L285,482L285,487L285,492L285,496L285,501L288,505L290,509L293,511L296,514L299,516L302,518L305,519L307,520L310,521L312,521L314,521L318,521L324,520L329,516L334,512L339,507L343,504L346,499L347,495L348,490L348,485L345,481L341,477L337,473L334,471L330,468L327,466L324,466L320,465L318,465L315,465L313,465L312,467L310,469L309,472L307,475L306,478L305,482L305,486L305,490L305,493L305,497L305,500L306,502L309,503L310,504L312,505L314,505L316,505L317,503L318,500L318,498L318,497L318,496L317,496L315,496L312,496" stroke-opacity="1" stroke-width="5" stroke-linecap="round" stroke-linejoin="round" style="-webkit-tap-highlight-color: rgba(0, 0, 0, 0); stroke-opacity: 1; stroke-linecap: round; stroke-linejoin: round; -webkit-user-select: text;"></path><path fill="none" stroke="#000000" d="M357,532L353,530L350,530L345,530L340,530L336,530L332,530L329,530L327,531L325,533L324,535L322,537L321,541L319,545L319,549L318,553L318,557L318,561L318,564L318,567L320,570L322,572L324,574L326,576L328,578L331,579L334,580L336,580L341,580L346,580L351,580L354,578L358,576L362,573L366,570L368,565L370,561L371,557L371,552L371,548L371,544L368,541L366,539L363,537L361,536L359,535L357,534L355,534L353,534L350,534L348,534L346,534L344,534L342,535L341,537L339,539L338,541L337,544L336,548L336,552L335,556L335,560L335,564L336,566L337,568L341,570L344,570L347,570L351,568L352,564L353,560L354,557L353,556L349,556" stroke-opacity="1" stroke-width="5" stroke-linecap="round" stroke-linejoin="round" style="-webkit-tap-highlight-color: rgba(0, 0, 0, 0); stroke-opacity: 1; stroke-linecap: round; stroke-linejoin: round; -webkit-user-select: text;"></path><path fill="none" stroke="#000000" d="M417,531L409,530L405,530L401,530L397,531L392,533L389,535L387,537L385,540L383,543L382,547L380,551L380,555L379,558L379,561L379,564L379,568L379,571L380,573L382,575L384,578L386,579L388,581L390,582L393,583L396,583L398,584L401,585L403,585L408,585L413,584L418,581L421,579L424,577L426,575L428,572L429,569L429,566L430,563L430,560L429,556L428,553L426,550L423,548L421,546L418,544L415,543L413,542L411,541L408,541L405,541L403,541L401,541L399,543L397,545L395,547L394,550L393,554L392,557L392,560L392,563L394,565L406,566" stroke-opacity="1" stroke-width="5" stroke-linecap="round" stroke-linejoin="round" style="-webkit-tap-highlight-color: rgba(0, 0, 0, 0); stroke-opacity: 1; stroke-linecap: round; stroke-linejoin: round; -webkit-user-select: text;"></path><path fill="none" stroke="#000000" d="M364,578L358,574L356,574L353,573L351,573L348,573L345,573L343,573L340,573L338,575L335,578L333,580L330,583L328,586L326,589L324,592L323,597L321,602L320,606L320,610L320,614L320,619L320,623L320,627L322,631L323,634L325,636L327,638L328,640L329,641L331,642L332,643L333,644L335,644L336,645L339,646L340,647L342,647L344,648L345,648L347,648L348,648L350,649L351,649L354,649L357,649L361,649L366,646L369,643L373,639L377,635L379,631L382,628L384,624L385,619L387,613L387,609L387,603L387,599L387,595L387,592L385,589L383,587L380,585L376,583L373,582L368,581L364,581L361,581L358,581L355,581L353,581L351,582L349,583L348,585L346,588L345,590L344,593L343,597L342,601L342,605L342,609L342,612L342,616L344,619L346,622L348,624L350,625L352,626L354,626L357,626L361,624L363,620L364,617L364,615L364,613L363,613L361,613L358,613L356,613L355,613L354,613" stroke-opacity="1" stroke-width="5" stroke-linecap="round" stroke-linejoin="round" style="-webkit-tap-highlight-color: rgba(0, 0, 0, 0); stroke-opacity: 1; stroke-linecap: round; stroke-linejoin: round; -webkit-user-select: text;"></path><path fill="none" stroke="#000000" d="M444,581L440,581L437,581L434,581L430,582L426,583L422,585L418,587L415,589L412,591L408,595L405,597L403,601L401,604L400,608L398,612L397,617L397,622L397,626L397,631L397,635L397,640L398,645L400,648L402,652L403,655L405,658L407,661L409,664L412,666L414,669L417,671L424,674L429,676L435,678L441,679L446,679L450,679L454,679L457,679L460,677L464,673L468,668L471,665L474,660L477,654L479,648L480,641L481,635L482,629L483,624L483,619L483,616L483,612L482,607L479,604L475,601L472,599L468,596L465,595L461,594L458,593L454,593L451,593L447,593L444,594L441,596L438,599L434,602L432,606L429,610L426,614L424,618L423,622L423,627L423,632L423,637L423,642L424,646L427,649L429,651L432,652L435,653L440,653L445,653L449,651L451,646L453,640L453,636L452,633L448,630L444,629L441,629L438,629L436,630L434,632L434,635" stroke-opacity="1" stroke-width="5" stroke-linecap="round" stroke-linejoin="round" style="-webkit-tap-highlight-color: rgba(0, 0, 0, 0); stroke-opacity: 1; stroke-linecap: round; stroke-linejoin: round; -webkit-user-select: text;"></path><path fill="none" stroke="#000000" d="M439,162L442,157L446,155L451,152L457,149L463,146L471,144L478,143L485,143L493,143L503,143L509,143L514,145L519,148L524,152L528,157L531,163L533,169L534,175L535,182L535,189L535,196L534,204L529,213L523,222L517,229L511,237L502,243L494,248L487,252L477,253L469,254L462,254L454,251L446,245L440,240L434,235L430,229L426,222L424,215L422,206L422,199L422,190L423,183L425,178L429,174L433,171L438,169L445,167L451,165L457,165L464,165L471,165L477,165L481,165L485,168L488,171L491,175L492,179L493,184L493,189L493,194L492,199L489,203L485,207L480,211L476,214L471,217L468,218L463,219L460,219L457,219L453,219L450,216L448,211L446,208L445,204L444,200L444,197L445,192L449,189L454,185L459,183L463,182L467,182L471,182L475,185L478,189L480,192L480,195L480,199L480,203L477,208L472,212L468,214L463,216L456,216L452,216L448,215L446,211L446,208L446,204L446,202L451,199L455,199L460,199L466,201" stroke-opacity="1" stroke-width="5" stroke-linecap="round" stroke-linejoin="round" style="-webkit-tap-highlight-color: rgba(0, 0, 0, 0); stroke-opacity: 1; stroke-linecap: round; stroke-linejoin: round; -webkit-user-select: text;"></path><path fill="none" stroke="#000000" d="M298,171L296,167L296,165L296,161L298,157L301,153L305,149L310,144L317,140L324,137L330,135L338,134L346,134L352,134L357,134L363,135L367,137L371,140L375,144L377,148L379,153L380,157L380,161L380,166L380,170L380,174L378,179L373,184L368,188L363,192L358,195L351,198L345,199L339,199L333,199L327,199L321,195L317,190L313,185L311,180L310,176L310,170L310,165L310,159L313,155L317,150L323,147L329,145L334,144L339,143L345,143L349,144L353,148L356,150L358,155L359,159L360,163L360,168L359,172L356,176L351,179L346,181L342,182L338,182L334,182L332,181L330,178L330,175L330,172L330,170L331,169L333,168L336,168L339,168L341,169L342,172L343,175L343,178L343,181L337,183" stroke-opacity="1" stroke-width="5" stroke-linecap="round" stroke-linejoin="round" style="-webkit-tap-highlight-color: rgba(0, 0, 0, 0); stroke-opacity: 1; stroke-linecap: round; stroke-linejoin: round; -webkit-user-select: text;"></path><path fill="none" stroke="#000000" d="M298,161L296,153L295,152L292,150L288,149L283,148L277,146L270,145L262,145L255,145L248,145L240,146L235,148L231,150L227,153L224,157L222,162L219,167L217,173L216,179L215,184L215,191L215,197L215,203L215,209L217,215L219,220L221,224L223,228L226,231L229,235L234,238L238,241L243,243L249,245L253,246L260,247L266,247L273,247L280,247L288,247L296,244L302,241L307,237L313,233L319,228L323,222L325,216L328,211L329,204L329,198L330,192L330,185L330,179L330,173L328,168L325,162L322,158L318,155L314,153L309,150L303,149L298,148L291,148L286,148L280,148L273,148L268,148L263,149L259,150L256,153L253,157L250,161L248,165L246,170L244,174L242,179L241,185L240,189L240,194L240,199L240,203L240,206L242,210L244,213L247,216L249,219L252,222L255,223L258,224L260,225L263,225L266,225L268,225L271,225L274,225L277,225L280,222L283,220L286,217L288,215L290,213L292,210L293,207L293,205L294,202L294,200L294,197L294,194L294,191L293,189L291,186L289,184L288,182L285,181L284,180L282,180L280,180L278,180L277,180L275,180L273,180L271,181L270,184L268,186L267,189L266,191L266,194L266,197L266,200L266,203L266,205L268,208L271,210L274,212L277,213L280,213L283,213L285,213L287,213L288,210L288,207L288,204L288,201L286,199L284,199L281,199L278,199L273,206" stroke-opacity="1" stroke-width="5" stroke-linecap="round" stroke-linejoin="round" style="-webkit-tap-highlight-color: rgba(0, 0, 0, 0); stroke-opacity: 1; stroke-linecap: round; stroke-linejoin: round; -webkit-user-select: text;"></path><path fill="none" stroke="#000000" d="M464,261L462,250L462,248L462,245L464,242L468,239L474,235L481,231L486,229L493,228L501,227L508,227L514,227L519,227L524,227L528,230L532,233L536,238L538,242L541,247L543,252L545,257L546,263L547,269L548,273L548,278L548,283L548,287L548,291L546,296L544,300L541,304L537,308L533,311L528,314L524,316L520,318L516,318L512,319L508,319L503,319L498,318L493,315L489,312L486,310L482,307L480,304L477,301L475,298L474,295L473,291L472,287L472,284L472,280L472,277L472,273L472,269L474,266L476,262L478,259L481,257L484,255L487,253L491,252L497,251L502,250L506,250L510,250L514,250L518,250L522,252L526,256L529,260L532,264L534,268L535,272L536,277L537,281L537,286L537,291L535,296L531,299L527,303L524,305L520,307L516,308L512,309L508,309L503,309L499,309L495,309L492,307L490,304L488,301L487,298L486,294L486,291L486,288L486,284L486,281L487,278L489,274L492,271L495,269L498,267L501,266L504,266L507,266L510,266L513,267L516,270L518,272L519,275L521,277L521,279L522,281L522,284L522,287L522,290L521,293L519,296L516,298L513,300L510,301L506,301L502,301L499,301L497,301L496,299L496,297L496,294L496,292L496,291L496,289L498,288L500,287L503,286L505,286L507,286L509,286L511,286L512,289L512,291L512,293L512,295L512,296L511,299" stroke-opacity="1" stroke-width="5" stroke-linecap="round" stroke-linejoin="round" style="-webkit-tap-highlight-color: rgba(0, 0, 0, 0); stroke-opacity: 1; stroke-linecap: round; stroke-linejoin: round; -webkit-user-select: text;"></path><path fill="none" stroke="#000000" d="M548,380L547,371L547,368L546,365L544,363L542,360L538,357L534,354L530,351L525,349L521,346L518,344L514,343L511,342L507,342L504,342L500,342L496,344L492,347L488,351L484,354L480,359L475,363L471,369L468,374L466,378L465,381L464,385L464,389L464,393L464,398L465,403L466,406L469,411L471,415L474,418L477,422L480,425L482,428L485,430L487,432L489,432L492,433L494,434L496,434L499,434L502,434L506,434L510,434L514,434L518,434L523,434L527,432L532,429L536,425L539,420L541,415L543,410L546,405L548,400L548,395L549,391L549,386L549,383L549,379L549,375L547,372L545,369L543,367L542,364L540,363L537,361L535,360L532,359L528,358L525,358L522,357L519,357L516,357L514,357L511,357L508,358L506,359L503,361L500,363L497,365L494,368L493,370L491,373L490,375L489,378L488,381L488,383L488,386L488,388L488,391L488,395L488,398L488,402L488,405L488,407L489,410L490,411L492,413L493,415L495,415L497,416L499,417L502,417L505,418L507,418L511,418L514,418L518,417L521,415L525,413L528,410L531,408L532,406L533,404L533,401L533,398L533,394L533,391L533,388L531,385L530,383L529,381L527,379L525,378L524,376L521,376L519,375L517,375L515,375L514,375L512,375L510,375L509,376L507,378L504,380L503,382L502,383L501,386L501,388L501,391L501,395L501,398L502,401L504,403L506,403L508,403" stroke-opacity="1" stroke-width="5" stroke-linecap="round" stroke-linejoin="round" style="-webkit-tap-highlight-color: rgba(0, 0, 0, 0); stroke-opacity: 1; stroke-linecap: round; stroke-linejoin: round; -webkit-user-select: text;"></path><path fill="none" stroke="#000000" d="M529,489L527,484L527,483L526,481L524,480L522,479L520,478L518,478L516,478L513,478L511,478L509,478L506,478L504,480L501,482L499,484L497,487L495,490L494,493L493,496L492,500L492,503L492,507L492,510L492,514L493,517L495,520L497,523L500,525L503,527L507,530L511,532L515,534L521,535L528,536L534,536L540,536L545,533L549,529L552,524L553,519L553,514L553,510L553,505L553,501L553,495L551,491L550,488L548,484L545,481L543,479L541,476L538,475L536,475L533,475L531,475L528,475L524,475L521,478L518,481L515,484L513,487L510,490L509,493L507,497L507,501L507,505L507,509L507,512L507,514L507,516L508,518L510,519L512,520L516,520L521,520L527,520L532,517L536,514L537,510L538,505L538,501L538,498L536,498L533,498L525,500" stroke-opacity="1" stroke-width="5" stroke-linecap="round" stroke-linejoin="round" style="-webkit-tap-highlight-color: rgba(0, 0, 0, 0); stroke-opacity: 1; stroke-linecap: round; stroke-linejoin: round; -webkit-user-select: text;"></path><path fill="none" stroke="#000000" d="M531,575L526,565L523,563L521,562L518,561L515,560L512,560L509,560L506,560L502,560L498,560L495,560L492,561L490,563L487,565L485,568L483,571L481,573L480,578L477,582L476,586L475,590L475,594L475,598L475,602L475,606L475,610L476,613L478,615L480,618L482,619L484,621L486,622L488,624L490,624L492,625L494,625L497,626L499,626L500,626L502,626L504,625L507,624L509,623L511,622L513,620L515,618L519,615L523,612L525,609L528,606L530,603L531,600L532,597L532,593L532,590L532,587L532,585L531,582L529,580L527,578L525,576L523,574L521,573L519,572L517,571L516,571L515,571L514,571L513,571L511,571L510,573L508,574L507,575L506,576L505,578L505,580L504,583L503,585L503,588L503,591L503,594L503,598L504,600L505,602L507,603L509,603L510,603L511,600L512,597L512,595L512,594" stroke-opacity="1" stroke-width="5" stroke-linecap="round" stroke-linejoin="round" style="-webkit-tap-highlight-color: rgba(0, 0, 0, 0); stroke-opacity: 1; stroke-linecap: round; stroke-linejoin: round; -webkit-user-select: text;"></path><path fill="none" stroke="#000000" d="M451,620L448,613L447,611L446,609L443,607L440,603L437,600L434,597L431,595L427,593L423,590L419,589L416,588L412,587L409,587L405,587L402,587L397,587L394,588L390,590L387,593L383,597L380,602L377,606L374,610L372,614L370,617L369,622L368,626L367,630L367,634L367,639L368,645L371,651L374,656L376,659L379,663L382,666L386,669L390,672L395,673L399,673L404,673L410,672L417,667L424,663L430,657L434,651L437,647L438,643L439,639L439,635L439,632L438,628L436,625L434,622L432,619L429,617L425,614L421,612L418,609L415,608L412,607L409,605L405,605L402,605L400,605L396,605L393,607L391,609L389,612L388,615L387,619L386,626L385,631L385,635L385,640L385,645L387,649L391,653L395,655L398,656L401,656L404,656L406,654L407,651L407,646L407,643L407,641L405,640L403,640L401,640L396,642" stroke-opacity="1" stroke-width="5" stroke-linecap="round" stroke-linejoin="round" style="-webkit-tap-highlight-color: rgba(0, 0, 0, 0); stroke-opacity: 1; stroke-linecap: round; stroke-linejoin: round; -webkit-user-select: text;"></path><path fill="none" stroke="#000000" d="M360,576L352,568L349,566L346,564L342,562L338,561L331,558L324,556L317,553L312,552L308,552L303,552L299,552L295,553L290,556L286,560L283,564L279,568L277,573L274,578L272,583L271,588L270,592L269,595L269,599L269,603L269,608L269,612L271,617L273,621L276,626L279,630L283,634L287,638L292,640L295,642L300,643L303,643L307,643L311,643L315,641L320,636L324,632L329,626L332,622L335,617L337,612L340,607L341,603L343,598L344,594L344,590L344,587L344,584L344,582L342,580L340,578L337,576L334,575L331,574L327,573L323,573L319,573L314,573L310,573L307,574L304,577L300,579L298,583L295,585L294,588L293,591L293,595L293,599L293,603L293,607L294,611L296,615L299,617L301,620L304,621L306,621L309,621L310,621L312,620L312,619L313,616L313,613L313,610L313,607L313,605L312,602L311,601L310,601L308,600L307,600L306,600L305,600L305,601L305,602L304,603L304,605L304,606L303,607L303,609L303,610L303,612L303,614L303,616L303,617L303,619L303,622L303,623L305,624L307,625L308,626L312,626" stroke-opacity="1" stroke-width="5" stroke-linecap="round" stroke-linejoin="round" style="-webkit-tap-highlight-color: rgba(0, 0, 0, 0); stroke-opacity: 1; stroke-linecap: round; stroke-linejoin: round; -webkit-user-select: text;"></path><path fill="none" stroke="#000000" d="M222,616L223,616L228,616L240,619L255,624L273,628L293,630L317,630L348,630L380,630L414,629L447,628L474,626L492,624L504,622L510,622L513,621L514,620L514,619L513,619L512,619" stroke-opacity="1" stroke-width="5" stroke-linecap="round" stroke-linejoin="round" style="-webkit-tap-highlight-color: rgba(0, 0, 0, 0); stroke-opacity: 1; stroke-linecap: round; stroke-linejoin: round; -webkit-user-select: text;"></path></svg>