<svg height="874" version="1.1" width="768" xmlns="http://www.w3.org/2000/svg" xmlns:xlink="http://www.w3.org/1999/xlink" style="overflow: hidden; position: relative; -webkit-user-select: text;"><desc style="-webkit-tap-highlight-color: rgba(0, 0, 0, 0); -webkit-user-select: text;">Created with Raphaël 2.2.0</desc><defs style="-webkit-tap-highlight-color: rgba(0, 0, 0, 0); -webkit-user-select: text;"></defs><path fill="none" stroke="#000000" d="M101,88L103,88L105,88L106,88L108,88L110,88L112,88L114,88L115,88L118,88L120,89L122,89L124,89L127,89L130,90L132,90L136,90L139,90L142,90L144,90L147,90L149,90L152,90L154,90L157,91L160,91L164,91L166,91L169,91L172,91L175,92L178,92L181,92L184,92L188,92L191,92L195,92L198,92L202,92L205,92L209,92L213,92L217,92L221,92L224,92L228,92L231,92L235,93L239,93L243,93L247,93L251,93L254,93L258,93L262,93L267,93L271,93L276,93L280,93L284,93L289,93L293,93L298,93L302,93L306,94L310,94L315,94L319,94L324,94L328,94L333,94L337,94L342,94L346,94L351,94L355,94L358,94L363,94L368,94L372,94L377,94L381,94L385,94L389,94L393,94L397,94L402,94L406,94L410,94L414,94L419,94L424,94L428,94L432,94L436,94L441,94L445,94L450,94L454,94L458,94L462,94L467,94L472,94L476,94L481,94L486,94L490,94L495,94L500,94L505,94L509,94L514,93L518,93L521,93L525,93L528,93L532,92L535,92L538,92L542,92L545,92L549,91L553,91L558,91L561,91L565,90L570,90L573,90L577,89L581,89L585,89L589,89L592,89L595,89L599,89L602,89L605,89L608,89L611,89L614,89L617,89L620,89L623,89L626,88L629,88L632,88L635,88L638,88L640,88L643,88L645,88L648,87L650,87L653,87L655,87L658,87L660,87L663,87L665,87L667,86L669,86L671,86L673,85L675,85L677,85L679,85L681,85L683,85L684,85L686,85L687,85L688,85L689,85L690,85" stroke-opacity="1" stroke-width="5" stroke-linecap="round" stroke-linejoin="round" style="-webkit-tap-highlight-color: rgba(0, 0, 0, 0); stroke-opacity: 1; stroke-linecap: round; stroke-linejoin: round; -webkit-user-select: text;"></path><path fill="none" stroke="#000000" d="M84,115L88,115L90,115L91,115L93,115L96,115L98,115L100,115L103,115L105,115L108,114L111,114L114,114L117,114L119,114L122,114L124,114L126,114L128,114L130,114L133,114L135,114L138,114L141,114L143,114L146,114L148,114L150,114L153,114L156,114L159,114L162,114L166,114L169,114L172,114L175,114L178,114L182,114L186,114L191,114L195,114L199,114L203,114L208,114L212,114L217,114L221,114L225,114L229,114L234,114L238,114L242,114L246,114L250,114L254,114L258,114L261,114L265,114L269,114L273,114L276,114L280,114L283,114L287,114L290,114L294,114L298,114L302,114L306,114L310,114L313,114L317,114L322,114L325,114L329,114L332,114L336,114L339,114L342,114L346,114L349,114L353,115L356,115L359,115L363,115L367,115L370,116L375,116L378,116L382,116L385,116L389,116L392,117L396,117L400,117L404,117L407,117L411,117L414,118L419,118L423,118L428,118L432,118L438,118L444,118L450,118L455,118L462,118L468,118L475,118L480,118L486,118L491,118L497,118L502,118L506,118L510,118L514,118L518,118L522,118L527,118L531,118L536,118L541,118L545,118L551,118L556,118L561,118L566,118L570,118L575,118L580,118L584,117L589,117L592,117L596,117L600,116L604,116L608,116L611,116L615,116L618,116L621,116L625,116L628,116L631,116L635,116L638,116L641,116L644,116L646,115L649,115L652,115L654,115L657,115L659,115L662,115L664,115L666,115L669,115L671,114L672,114L674,114L676,114L678,114L680,114L682,114L683,114L685,114L686,114L688,114L689,114L691,114L692,114L694,114L695,114L696,113L697,113L699,113L701,113L702,113L703,113L705,113L706,113L706,112L708,112L709,112L710,112L711,112L712,112L713,112L714,111L715,111L716,111L717,111L718,111L718,110L719,110L720,110L721,110L721,109L722,109L723,109L724,108L725,108L725,107L728,107" stroke-opacity="1" stroke-width="5" stroke-linecap="round" stroke-linejoin="round" style="-webkit-tap-highlight-color: rgba(0, 0, 0, 0); stroke-opacity: 1; stroke-linecap: round; stroke-linejoin: round; -webkit-user-select: text;"></path><path fill="none" stroke="#000000" d="M57,132L61,131L63,131L64,131L66,131L67,131L68,131L69,131L71,131L72,131L74,131L75,131L76,131L78,131L80,131L82,131L85,131L87,131L89,131L91,131L93,131L96,131L98,131L100,131L102,131L105,132L108,132L110,132L113,132L116,132L119,132L121,132L124,132L126,132L129,132L132,132L135,132L138,132L141,132L144,132L147,132L150,132L152,132L156,132L159,132L162,132L165,132L168,132L171,132L173,132L176,132L178,132L180,132L183,132L185,132L188,132L190,132L193,132L195,132L198,132L201,132L203,132L206,132L208,132L211,132L215,132L218,132L221,132L225,132L228,132L232,132L236,132L240,132L244,132L249,132L252,132L256,132L260,132L264,132L268,132L272,132L276,132L279,132L283,132L286,132L290,132L293,132L297,132L300,132L303,132L307,132L310,132L314,132L318,132L322,132L326,132L329,132L333,132L336,132L340,132L344,132L349,132L353,132L357,132L361,132L365,132L369,132L373,132L377,132L380,132L384,132L387,132L390,132L394,132L397,132L400,132L404,132L407,132L410,132L414,132L417,132L421,132L424,132L428,132L431,132L435,133L438,133L441,133L445,133L448,133L452,133L455,133L459,133L463,133L466,133L470,133L474,133L477,133L482,133L486,133L490,133L493,134L497,134L501,134L505,134L508,134L512,135L516,135L519,135L523,135L527,135L531,135L535,135L539,135L543,135L547,135L551,135L555,135L560,135L564,135L568,135L572,135L577,135L580,135L584,135L588,135L591,136L594,136L598,136L601,136L604,136L607,136L610,136L613,136L617,136L620,136L623,136L627,136L630,136L634,136L637,136L640,136L643,136L646,136L648,136L650,136L653,136L655,136L657,136L660,136L662,136L664,136L666,136L667,136L669,136L672,136L674,136L676,136L678,136L679,136L682,136L684,136L685,136L687,136L689,136L691,136L694,136L696,136L697,136L699,136L701,136L703,136L705,136L707,136L709,136L711,136L713,136L715,136L716,136L718,136L720,136L722,136L724,136L725,136L727,136L728,136L730,136L732,136L733,136L734,136L735,136L736,136L737,136L738,136L740,136L741,135L742,135L743,135L744,135L745,135L747,134L754,134" stroke-opacity="1" stroke-width="5" stroke-linecap="round" stroke-linejoin="round" style="-webkit-tap-highlight-color: rgba(0, 0, 0, 0); stroke-opacity: 1; stroke-linecap: round; stroke-linejoin: round; -webkit-user-select: text;"></path><path fill="none" stroke="#000000" d="M30,143L34,145L35,145L37,145L38,145L40,145L41,145L42,145L44,145L45,145L47,145L49,145L51,145L54,145L57,146L60,146L63,146L66,146L69,146L71,146L75,146L79,146L84,146L88,146L91,146L95,146L99,146L102,146L105,146L109,146L113,146L116,146L119,146L122,146L125,146L129,146L132,146L136,146L140,146L144,146L147,147L150,147L154,147L159,147L163,147L167,147L171,147L175,147L179,147L184,147L188,147L193,147L198,147L202,147L207,147L212,147L217,147L222,147L227,147L232,147L238,147L244,147L249,147L255,147L261,147L268,147L273,147L279,147L285,147L292,147L297,147L302,147L307,147L312,147L317,147L322,147L327,147L330,147L334,147L338,147L342,147L346,147L351,147L354,147L358,148L363,148L368,148L373,148L377,148L381,148L386,148L391,148L396,148L401,148L406,148L411,148L417,148L423,148L428,148L434,148L439,149L445,149L451,149L455,150L460,150L466,150L471,150L476,150L481,150L486,151L490,151L495,151L500,152L505,152L509,152L514,152L518,152L522,153L527,153L531,153L535,153L539,153L543,153L546,153L550,153L555,153L558,153L562,153L566,153L570,153L574,153L578,153L582,153L586,153L589,153L594,153L598,153L602,153L606,153L610,153L614,153L618,153L621,153L625,153L628,154L632,154L635,154L639,154L642,154L645,154L648,154L651,154L654,154L657,154L659,154L661,154L664,154L666,154L668,154L670,154L672,154L675,155L677,155L680,155L682,155L684,155L686,155L689,155L691,155L693,155L694,155L696,155L698,155L700,155L703,155L705,155L707,155L708,155L710,155L712,155L714,155L716,155L717,155L719,155L720,155L722,155L723,155L725,155L726,155L728,155L730,155L731,155L732,155L734,155L735,155L736,155L737,155L738,155L740,155L741,155L742,155L743,155L745,155L746,155L747,155L748,155L750,155L751,155L752,155L753,155L754,155L755,155L756,155L757,155L759,155L761,155L762,155" stroke-opacity="1" stroke-width="5" stroke-linecap="round" stroke-linejoin="round" style="-webkit-tap-highlight-color: rgba(0, 0, 0, 0); stroke-opacity: 1; stroke-linecap: round; stroke-linejoin: round; -webkit-user-select: text;"></path><path fill="none" stroke="#000000" d="M4,164L9,164L10,164L11,164L13,164L15,164L17,164L19,164L-746,164L-744,165L-742,165L-741,165L-739,165L-737,166L-735,166L-732,166L-730,167L-728,167L-726,167L-724,167L-722,167L-720,167L-717,167L-715,167L-712,167L-710,167L-707,167L-705,167L-703,167L-701,167L-699,167L-698,167L-697,167L-696,167L-697,167L-701,167" stroke-opacity="1" stroke-width="5" stroke-linecap="round" stroke-linejoin="round" style="-webkit-tap-highlight-color: rgba(0, 0, 0, 0); stroke-opacity: 1; stroke-linecap: round; stroke-linejoin: round; -webkit-user-select: text;"></path><path fill="none" stroke="#000000" d="M16,164L18,164L20,164L22,164L25,164L27,164L29,164L31,164L33,164L36,164L38,164L40,164L42,164L44,164L46,164L48,164L50,164L53,164L55,164L58,164L61,164L64,164L66,164L68,164L71,164L73,164L75,164L77,164L79,164L82,164L85,164L88,164L91,164L93,164L96,164L99,164L102,164L105,164L109,164L113,164L116,164L120,164L123,164L126,164L130,164L133,164L137,164L141,164L144,164L148,164L152,164L155,164L158,164L161,164L165,164L169,164L172,164L175,164L178,164L181,164L185,164L188,164L191,164L194,164L197,164L200,164L203,164L206,164L209,164L212,164L216,164L219,164L222,164L226,164L230,164L233,164L237,164L242,164L246,164L250,164L254,164L259,164L263,164L268,164L273,164L277,164L280,164L284,164L288,164L292,164L295,164L299,164L303,164L307,164L311,164L315,164L319,164L323,164L327,164L331,164L334,164L338,164L342,164L346,164L350,164L353,164L358,164L361,164L366,164L370,164L374,164L378,165L382,165L385,165L389,165L393,165L396,165L400,165L404,166L407,166L410,166L414,166L418,166L422,167L426,167L430,167L434,167L438,167L441,167L446,167L449,167L454,168L458,168L462,168L466,168L470,169L474,169L478,170L482,170L486,170L490,171L494,171L498,171L503,172L507,172L511,172L515,172L519,173L523,173L527,173L532,174L536,174L541,174L545,174L550,174L556,174L561,175L566,175L572,175L578,175L584,175L589,175L594,175L599,175L604,175L609,175L613,175L618,175L622,175L627,175L631,175L636,175L640,175L644,175L649,176L654,176L658,176L662,176L666,176L670,176L674,176L679,176L683,176L687,176L691,176L695,176L698,176L702,176L705,176L709,176L712,176L715,176L718,176L721,176L724,176L727,176L730,176L733,176L735,176L737,176L738,176L740,176L742,176L743,176L745,176L747,176L749,176L750,176L752,176L753,176L754,176L755,176L757,176L759,176L760,176L761,176L762,176L762,175L763,175L764,175L765,175" stroke-opacity="1" stroke-width="5" stroke-linecap="round" stroke-linejoin="round" style="-webkit-tap-highlight-color: rgba(0, 0, 0, 0); stroke-opacity: 1; stroke-linecap: round; stroke-linejoin: round; -webkit-user-select: text;"></path><path fill="none" stroke="#000000" d="M18,185L24,184L25,184L27,184L28,184L30,184L32,184L33,184L35,184L37,184L40,184L42,184L44,184L46,184L48,184L50,184L52,184L55,184L58,184L61,184L64,184L67,184L70,184L73,184L76,184L79,184L82,184L86,184L89,184L93,184L96,184L99,184L103,184L106,184L109,184L113,184L117,184L120,184L123,184L126,184L129,184L132,184L136,184L139,184L142,184L145,184L148,184L152,184L154,184L158,184L161,185L165,185L169,185L173,185L177,185L181,185L186,185L189,185L193,185L197,185L201,185L205,185L209,185L213,185L217,185L222,185L226,185L230,185L234,185L239,185L243,185L248,184L252,184L256,184L261,184L266,184L271,184L276,184L281,184L286,184L292,184L297,184L302,184L308,184L314,184L319,184L325,183L329,183L334,183L339,183L344,183L349,183L353,183L358,183L362,183L366,183L371,183L375,183L379,183L383,182L387,182L391,182L394,182L398,182L401,182L405,182L408,182L412,182L416,182L420,182L425,182L429,182L434,182L438,182L442,182L446,182L450,182L454,182L459,182L464,182L469,182L475,182L480,182L485,182L491,182L496,182L501,182L506,183L511,183L516,183L520,184L524,184L528,184L532,184L536,184L540,185L544,185L548,185L551,185L555,185L559,185L563,186L567,186L570,186L574,186L578,186L582,186L585,187L589,187L593,187L597,187L601,187L604,187L608,187L612,187L616,188L621,188L625,188L629,188L633,188L637,188L642,188L646,188L650,189L654,189L657,189L661,189L665,189L669,189L672,189L676,189L679,189L683,189L686,189L689,189L693,189L696,189L699,189L701,189L704,189L706,189L709,189L711,189L713,189L715,189L717,189L719,189L721,189L723,189L725,189L727,189L729,189L730,189L733,189L735,189L736,189L737,189L739,189L740,189L742,189L743,189L745,189L746,189L747,189L749,189L750,189L752,189L754,189L755,189L756,189L757,189L758,189L759,188L761,188L762,187" stroke-opacity="1" stroke-width="5" stroke-linecap="round" stroke-linejoin="round" style="-webkit-tap-highlight-color: rgba(0, 0, 0, 0); stroke-opacity: 1; stroke-linecap: round; stroke-linejoin: round; -webkit-user-select: text;"></path><path fill="none" stroke="#000000" d="M24,199L26,198L29,198L32,198L35,198L38,198L42,198L45,198L48,198L52,198L55,198L59,198L63,198L67,198L70,198L73,198L76,198L80,198L84,198L88,198L92,198L95,198L99,198L103,198L107,198L111,198L115,198L119,198L123,198L127,198L132,198L136,198L140,198L144,198L148,198L152,198L155,198L159,198L162,198L166,198L169,198L173,198L176,198L180,198L183,198L187,198L191,198L194,198L198,198L201,198L204,198L208,198L211,198L215,198L218,198L222,198L225,198L228,198L232,198L235,198L239,198L243,198L246,198L250,198L254,198L257,198L260,198L263,198L268,197L272,197L276,197L279,197L283,197L287,197L291,197L295,197L299,197L303,197L307,197L311,196L316,196L320,196L325,196L329,196L333,196L337,196L341,196L345,196L349,196L352,196L355,196L358,196L362,196L365,196L368,196L372,196L375,196L378,196L381,196L384,196L387,196L390,196L393,196L396,196L399,196L402,196L405,196L407,196L410,196L413,196L416,196L419,196L422,196L426,196L429,196L432,197L436,197L439,197L443,197L447,197L451,197L455,197L458,197L461,198L465,198L469,198L473,198L477,198L482,198L486,199L490,199L494,199L499,199L503,199L507,200L511,200L515,200L519,200L523,200L528,200L532,201L537,201L542,201L547,201L552,201L557,201L562,201L567,202L572,202L577,202L583,202L587,202L592,202L597,202L601,203L606,203L611,203L615,203L620,203L626,204L631,204L636,204L642,204L647,204L652,204L657,205L662,205L667,205L671,205L676,205L680,206L684,206L687,206L690,206L693,206L696,206L699,206L701,206L704,206L707,206L710,206L713,206L716,206L718,206L720,206L723,206L725,206L727,206L730,206L731,206L733,206L735,206L737,206L738,206L739,206L741,206L742,206L745,206L747,206L754,205" stroke-opacity="1" stroke-width="5" stroke-linecap="round" stroke-linejoin="round" style="-webkit-tap-highlight-color: rgba(0, 0, 0, 0); stroke-opacity: 1; stroke-linecap: round; stroke-linejoin: round; -webkit-user-select: text;"></path><path fill="none" stroke="#000000" d="M37,220L41,219L42,219L45,219L47,219L49,219L52,219L54,219L58,219L62,219L65,219L69,219L72,219L75,219L79,219L83,219L86,219L91,219L94,219L98,219L103,219L108,219L113,219L119,219L125,219L130,219L137,219L143,219L148,219L154,219L161,219L166,219L171,219L177,219L183,219L188,219L193,219L198,219L203,219L208,219L213,219L219,219L225,219L230,219L235,219L240,219L245,219L250,218L255,218L260,218L265,218L270,218L276,217L281,217L286,217L291,217L296,217L300,217L305,217L309,217L313,217L318,217L322,217L327,217L331,217L335,217L339,217L343,217L347,217L351,217L355,217L359,217L363,217L367,217L371,217L375,217L379,218L383,218L387,218L390,218L394,218L398,218L402,218L406,218L410,218L414,218L417,218L421,218L425,218L429,218L433,218L436,219L440,219L444,219L448,219L453,219L457,219L461,219L465,219L470,219L474,219L478,220L482,220L486,221L490,221L494,221L497,221L501,221L504,221L508,221L512,221L515,221L519,221L523,221L527,221L531,221L534,221L538,221L542,221L546,222L550,222L554,222L558,222L562,222L566,222L570,222L574,223L578,223L582,223L586,223L590,223L594,223L597,223L600,223L604,223L607,223L611,224L614,224L617,224L621,224L625,224L629,224L633,225L636,225L640,225L643,225L647,226L651,226L655,226L658,226L662,226L664,226L668,226L671,226L674,226L677,226L679,226L682,226L684,226L686,226L689,226L691,226L694,226L696,226L699,226L701,226L704,226L707,226L709,226L712,226L715,226L717,226L720,226L722,226L724,226L726,226L728,226L730,226L731,226L733,226L735,226L736,226L738,226L739,226L741,226L743,226L749,226" stroke-opacity="1" stroke-width="5" stroke-linecap="round" stroke-linejoin="round" style="-webkit-tap-highlight-color: rgba(0, 0, 0, 0); stroke-opacity: 1; stroke-linecap: round; stroke-linejoin: round; -webkit-user-select: text;"></path><path fill="none" stroke="#000000" d="M54,237L57,237L58,237L59,237L62,237L64,237L66,237L69,237L71,237L75,237L79,237L83,237L87,237L91,237L95,237L98,237L103,237L107,237L112,237L116,237L120,237L124,237L127,237L131,237L135,237L138,237L142,237L146,238L150,238L154,238L159,238L163,238L168,238L172,238L177,238L183,238L188,238L194,238L200,238L205,238L212,238L218,238L223,238L229,238L234,238L240,238L246,238L251,238L258,238L264,238L271,238L277,238L283,238L289,238L296,238L302,238L309,238L316,238L323,238L330,238L336,238L341,238L348,238L353,238L358,238L363,238L369,238L375,238L380,237L386,237L391,237L397,237L404,237L409,237L416,237L422,236L429,236L435,236L442,236L448,236L454,236L459,236L465,236L470,236L475,236L480,236L484,236L488,236L492,236L497,236L500,236L504,236L508,236L512,236L517,236L522,236L527,236L532,236L537,236L542,236L547,236L552,237L557,237L562,238L567,238L571,238L576,239L580,239L585,240L590,240L595,240L600,241L605,241L609,241L614,241L619,242L624,242L628,242L633,243L637,243L642,243L646,244L651,244L656,244L660,245L664,245L668,245L671,245L675,245L678,245L681,245L683,245L685,245L687,245L688,245L689,245L691,245L692,245L694,245L696,245L698,245" stroke-opacity="1" stroke-width="5" stroke-linecap="round" stroke-linejoin="round" style="-webkit-tap-highlight-color: rgba(0, 0, 0, 0); stroke-opacity: 1; stroke-linecap: round; stroke-linejoin: round; -webkit-user-select: text;"></path><path fill="none" stroke="#000000" d="M101,260L105,261L108,261L110,261L113,261L115,261L119,261L122,261L125,261L128,261L132,261L136,261L140,261L144,261L147,261L150,261L154,261L157,261L161,261L165,261L168,261L172,261L175,261L179,261L183,261L188,261L193,261L198,261L203,261L208,261L214,261L219,260L225,260L231,260L237,260L244,260L249,260L254,260L259,260L264,260L269,260L274,260L279,260L284,260L290,260L295,260L301,260L306,260L313,260L319,260L325,260L331,260L337,260L344,260L349,260L354,260L360,260L365,260L370,260L375,260L380,260L385,260L390,260L395,260L400,260L405,260L410,260L417,260L421,260L427,260L433,260L439,260L446,260L452,260L457,260L462,260L468,260L473,260L478,260L484,260L489,260L495,260L500,260L505,260L510,260L516,260L521,260L526,260L531,260L536,260L541,260L546,260L550,260L555,260L560,260L564,260L568,260L572,260L575,260L579,260L582,260L584,260L588,260L590,260L593,260L596,260L600,260L603,260L606,260L609,260L611,260L614,260L616,260L619,260L621,260L624,260L626,260L629,260L632,260L634,260L636,260L638,260L640,260L643,260L644,260L647,260L649,260L651,260L652,260L654,260L656,260" stroke-opacity="1" stroke-width="5" stroke-linecap="round" stroke-linejoin="round" style="-webkit-tap-highlight-color: rgba(0, 0, 0, 0); stroke-opacity: 1; stroke-linecap: round; stroke-linejoin: round; -webkit-user-select: text;"></path><path fill="none" stroke="#000000" d="M134,284L144,284L148,284L152,284L157,284L162,283L167,283L172,283L176,282L182,282L188,282L193,282L199,281L205,281L212,281L218,281L223,281L229,281L236,281L242,281L247,281L252,281L258,281L265,281L271,281L277,281L283,281L290,280L296,280L301,280L306,280L313,279L318,279L324,279L328,279L333,279L338,279L344,279L349,279L353,279L358,279L363,278L369,278L375,278L380,278L385,278L392,278L398,278L403,278L409,278L415,277L421,277L427,277L432,277L438,277L444,277L449,277L455,277L459,277L465,277L470,277L476,277L481,277L485,277L490,277L494,277L499,277L504,277L508,277L511,277L515,277L519,277L523,277L527,277L531,277L535,277L538,277L542,277L545,277L549,277L553,277L557,277L560,277L563,277L566,277L570,277L573,277L577,277L579,277L583,277L586,277L589,277L593,277L596,277L600,277L604,277L606,277L610,277L613,277L615,277L617,278L620,278L622,278L624,278L626,278L628,278L631,278L633,278L635,278L638,279L640,279L643,279L645,279L651,279" stroke-opacity="1" stroke-width="5" stroke-linecap="round" stroke-linejoin="round" style="-webkit-tap-highlight-color: rgba(0, 0, 0, 0); stroke-opacity: 1; stroke-linecap: round; stroke-linejoin: round; -webkit-user-select: text;"></path><path fill="none" stroke="#000000" d="M177,304L180,304L183,304L186,304L191,304L195,304L198,304L203,304L208,304L213,304L218,304L223,304L228,304L234,304L239,304L243,304L247,304L251,304L255,304L259,304L264,304L269,304L274,304L279,304L286,304L292,304L298,304L305,304L312,303L319,303L326,303L333,302L340,302L347,301L353,301L359,301L366,300L372,300L378,300L384,299L390,298L395,298L401,298L405,298L409,298L414,297L417,297L421,297L426,297L430,297L434,297L438,297L441,297L445,297L449,297L453,297L457,297L461,297L465,297L470,297L474,297L479,297L483,297L488,297L493,297L498,297L503,297L507,297L512,297L517,297L522,297L526,297L531,297L536,297L541,297L545,297L550,297L555,297L560,298L564,298L568,298L573,299L577,299L582,300L585,300L589,300L592,300L595,300L598,300L601,300L604,300L606,300L609,300L611,300L613,300L615,300L617,300L621,300" stroke-opacity="1" stroke-width="5" stroke-linecap="round" stroke-linejoin="round" style="-webkit-tap-highlight-color: rgba(0, 0, 0, 0); stroke-opacity: 1; stroke-linecap: round; stroke-linejoin: round; -webkit-user-select: text;"></path><path fill="none" stroke="#000000" d="M222,324L228,324L231,324L234,324L239,324L244,324L249,324L254,324L261,324L268,323L276,323L285,322L294,321L300,320L305,320L312,320L318,320L324,320L331,320L338,320L345,320L353,320L361,319L368,319L375,318L383,318L390,318L397,318L404,317L409,317L415,317L420,317L426,316L430,316L435,316L439,316L443,316L448,316L453,316L458,316L462,316L467,316L472,316L476,316L481,316L485,316L490,316L494,316L499,316L504,316L508,316L513,316L517,316L521,316L526,316L530,316L535,316L539,316L543,316L546,316L550,316L553,316L556,316L559,316L562,316L565,316L567,316L570,316L574,316L577,316L580,316L584,316L590,316L596,316" stroke-opacity="1" stroke-width="5" stroke-linecap="round" stroke-linejoin="round" style="-webkit-tap-highlight-color: rgba(0, 0, 0, 0); stroke-opacity: 1; stroke-linecap: round; stroke-linejoin: round; -webkit-user-select: text;"></path><path fill="none" stroke="#000000" d="M240,344L244,344L246,344L249,344L252,344L256,344L263,344L268,344L274,344L280,344L287,343L293,343L300,343L307,343L313,342L320,342L325,342L329,342L334,342L339,342L344,342L349,341L354,340L360,340L367,340L373,340L380,340L387,340L393,339L400,339L405,339L410,338L416,338L421,338L426,338L431,338L435,338L439,338L443,338L448,338L453,338L457,338L461,338L465,338L470,338L474,338L479,338L483,338L487,338L492,338L497,338L502,338L507,338L512,338L518,338L523,338L528,338L533,338L538,338L542,338L548,338" stroke-opacity="1" stroke-width="5" stroke-linecap="round" stroke-linejoin="round" style="-webkit-tap-highlight-color: rgba(0, 0, 0, 0); stroke-opacity: 1; stroke-linecap: round; stroke-linejoin: round; -webkit-user-select: text;"></path><path fill="none" stroke="#000000" d="M266,365L270,364L272,364L275,364L278,364L283,364L289,364L295,364L300,364L305,363L310,363L316,363L321,362L325,362L329,362L334,362L341,362L347,362L352,362L358,362L366,362L373,361L379,361L385,361L392,361L398,361L403,361L409,361L415,361L421,361L426,360L432,360L439,360L446,360L453,360L458,360L464,360L471,360L477,360L482,360L487,360L493,360L498,360L503,360L508,360L515,360" stroke-opacity="1" stroke-width="5" stroke-linecap="round" stroke-linejoin="round" style="-webkit-tap-highlight-color: rgba(0, 0, 0, 0); stroke-opacity: 1; stroke-linecap: round; stroke-linejoin: round; -webkit-user-select: text;"></path><path fill="none" stroke="#000000" d="M294,386L298,386L300,386L304,386L307,386L312,386L317,386L322,386L327,386L331,386L335,386L341,386L346,386L351,386L355,386L359,386L363,386L368,386L373,386L377,386L382,386L387,386L392,386L397,386L402,386L407,386L411,386L416,386L421,386L425,386L430,386L435,386L440,386L445,386L450,386L455,386L460,386L465,386L470,386L475,386L478,385L481,385" stroke-opacity="1" stroke-width="5" stroke-linecap="round" stroke-linejoin="round" style="-webkit-tap-highlight-color: rgba(0, 0, 0, 0); stroke-opacity: 1; stroke-linecap: round; stroke-linejoin: round; -webkit-user-select: text;"></path><path fill="none" stroke="#000000" d="M322,413L329,413L332,413L336,413L341,413L345,413L350,413L355,413L360,413L365,413L369,413L373,413L378,413L382,413L387,413L393,413L399,413L404,413L411,413L418,412L426,412L433,411L440,410L446,410L451,410L456,409" stroke-opacity="1" stroke-width="5" stroke-linecap="round" stroke-linejoin="round" style="-webkit-tap-highlight-color: rgba(0, 0, 0, 0); stroke-opacity: 1; stroke-linecap: round; stroke-linejoin: round; -webkit-user-select: text;"></path><path fill="none" stroke="#000000" d="M346,438L350,439L353,439L356,439L361,439L366,439L370,439L374,439L378,439L381,439L385,439L387,439L392,439L396,439L401,438L405,438L409,437L414,437L417,437L420,437" stroke-opacity="1" stroke-width="5" stroke-linecap="round" stroke-linejoin="round" style="-webkit-tap-highlight-color: rgba(0, 0, 0, 0); stroke-opacity: 1; stroke-linecap: round; stroke-linejoin: round; -webkit-user-select: text;"></path><path fill="none" stroke="#000000" d="M362,459L366,459L368,459L371,459L374,459L377,459L380,459L385,459L390,459L395,459L399,459L404,458L409,458" stroke-opacity="1" stroke-width="5" stroke-linecap="round" stroke-linejoin="round" style="-webkit-tap-highlight-color: rgba(0, 0, 0, 0); stroke-opacity: 1; stroke-linecap: round; stroke-linejoin: round; -webkit-user-select: text;"></path><path fill="none" stroke="#000000" d="M379,475L385,477L387,477L389,477L391,477L394,477L395,477" stroke-opacity="1" stroke-width="5" stroke-linecap="round" stroke-linejoin="round" style="-webkit-tap-highlight-color: rgba(0, 0, 0, 0); stroke-opacity: 1; stroke-linecap: round; stroke-linejoin: round; -webkit-user-select: text;"></path><path fill="none" stroke="#000000" d="M383,493L383,493" stroke-opacity="1" stroke-width="5" stroke-linecap="round" stroke-linejoin="round" style="-webkit-tap-highlight-color: rgba(0, 0, 0, 0); stroke-opacity: 1; stroke-linecap: round; stroke-linejoin: round; -webkit-user-select: text;"></path><path fill="none" stroke="#000000" d="M369,505L375,504L377,504L378,504L381,504L385,504L389,504L394,504" stroke-opacity="1" stroke-width="5" stroke-linecap="round" stroke-linejoin="round" style="-webkit-tap-highlight-color: rgba(0, 0, 0, 0); stroke-opacity: 1; stroke-linecap: round; stroke-linejoin: round; -webkit-user-select: text;"></path><path fill="none" stroke="#000000" d="M333,527L340,526L342,526L345,526L347,526L351,526L354,526L357,526L361,526L364,526L367,526L370,526L374,526L377,526L380,526L382,526L384,526L387,526L389,526L392,526L394,526L397,526L401,526L404,526L408,526L412,526L415,526L419,526L423,526L426,526L430,526L434,526L437,526L441,526L446,526L450,526L453,526L457,526L461,526L465,526L469,526L473,526L477,526L481,526L485,526L489,526L494,526L498,526L502,526L507,526L511,526L516,526L520,526L524,526L528,526L533,526" stroke-opacity="1" stroke-width="5" stroke-linecap="round" stroke-linejoin="round" style="-webkit-tap-highlight-color: rgba(0, 0, 0, 0); stroke-opacity: 1; stroke-linecap: round; stroke-linejoin: round; -webkit-user-select: text;"></path><path fill="none" stroke="#000000" d="M313,548L316,546L317,546L320,546L322,546L325,546L329,546L331,546L336,546L340,546L345,546L349,546L353,546L356,546L359,546L362,546L366,546L370,546L373,546L377,546L380,546L383,546L386,546L389,546L392,546L395,546L399,546L402,546L405,546L408,546L412,546L416,546L420,546L424,546L428,546L431,546L435,546L438,546L443,546L447,546L452,546L456,546L460,546L465,546L469,546L473,546L477,546L481,546L485,546L490,547L494,547L499,547L504,547L509,548L514,548L520,548L525,549L529,549L534,549L538,549L543,549L548,549L553,549L558,549L563,549L567,549L572,549L576,549L580,549L584,549L587,549L591,549L594,549L597,549L602,549" stroke-opacity="1" stroke-width="5" stroke-linecap="round" stroke-linejoin="round" style="-webkit-tap-highlight-color: rgba(0, 0, 0, 0); stroke-opacity: 1; stroke-linecap: round; stroke-linejoin: round; -webkit-user-select: text;"></path><path fill="none" stroke="#000000" d="M256,573L259,571L262,571L266,571L270,571L273,571L276,571L279,571L283,571L286,571L290,571L293,571L298,571L301,571L305,571L309,571L314,572L318,572L322,572L327,572L330,572L334,572L337,572L341,572L345,572L348,572L351,572L354,572L358,572L361,572L364,572L367,572L371,572L375,572L378,572L382,572L385,572L390,572L394,572L398,572L403,572L407,572L411,572L414,572L418,572L422,572L427,572L431,572L435,572L439,572L444,572L450,572L455,572L460,572L465,572L470,572L474,572L478,572L482,572L486,571L490,571L493,571L497,571L502,571L507,571L512,571L516,571L520,571L524,571L528,571L531,571L534,571L538,571L541,571L544,571L547,571L550,571L553,571L557,571L559,571L562,571L565,571L567,571L570,571L574,571L576,571L579,571L581,571L584,571L587,571L589,571L591,570L594,570L596,570L599,570L602,570L605,570L608,570L611,570L613,570L616,570L619,569L622,569L624,569L628,569L630,569L633,569L635,568L638,568L643,568" stroke-opacity="1" stroke-width="5" stroke-linecap="round" stroke-linejoin="round" style="-webkit-tap-highlight-color: rgba(0, 0, 0, 0); stroke-opacity: 1; stroke-linecap: round; stroke-linejoin: round; -webkit-user-select: text;"></path><path fill="none" stroke="#000000" d="M193,595L199,594L201,594L203,594L206,594L208,594L212,594L215,594L219,595L222,595L225,595L228,595L231,596L235,596L239,597L244,597L248,597L252,597L256,597L261,597L266,597L270,597L274,597L278,597L281,597L284,597L287,597L290,597L293,597L297,597L300,597L305,597L309,597L313,597L318,597L322,597L327,597L331,597L336,597L341,597L346,597L350,597L354,597L358,597L363,597L367,597L372,597L376,597L380,597L384,597L389,597L393,597L398,597L403,597L407,597L412,597L417,597L421,597L426,597L431,597L436,597L441,597L446,597L451,597L456,597L460,597L465,597L470,597L476,597L481,597L486,597L491,597L497,597L504,597L508,597L513,597L517,597L522,597L527,597L532,597L536,597L541,597L545,597L550,597L555,597L559,597L564,597L569,597L574,597L579,597L584,597L589,597L594,597L600,597L605,597L609,596L613,596L616,596L621,596L625,596L629,596L633,596L637,596L640,596L644,596L647,596L652,596L655,596L659,596L662,596L665,596L668,596L671,596L674,595L677,595L680,595L684,595L686,595L690,595L693,594L696,594L699,594L702,593L705,593L711,593" stroke-opacity="1" stroke-width="5" stroke-linecap="round" stroke-linejoin="round" style="-webkit-tap-highlight-color: rgba(0, 0, 0, 0); stroke-opacity: 1; stroke-linecap: round; stroke-linejoin: round; -webkit-user-select: text;"></path><path fill="none" stroke="#000000" d="M145,610L148,610L150,610L153,610L156,610L160,610L163,610L167,611L170,611L174,612L178,612L183,612L188,613L192,613L197,614L200,614L205,614L210,614L214,615L218,615L222,616L226,616L230,616L235,617L240,617L244,617L249,617L254,617L259,617L263,617L269,617L273,617L278,618L282,618L287,619L293,619L298,619L303,620L308,620L314,621L321,621L326,621L331,621L336,622L342,622L347,622L352,622L358,622L363,623L369,623L375,623L380,623L387,624L395,624L402,624L410,624L417,624L424,625L431,625L438,625L444,626L451,626L456,626L462,626L469,626L475,626L480,626L485,626L491,626L497,626L504,626L509,626L515,626L521,626L526,626L532,626L538,626L545,626L551,626L557,626L562,626L569,626L576,626L582,626L589,626L595,626L600,626L606,626L610,626L615,626L619,626L623,626L627,626L631,626L634,626L637,626L640,626L644,626L647,627L650,627L653,627L656,627L659,627L661,627L663,627L665,627L667,627L670,627L672,627L675,627L677,628L679,628L681,628L683,628L686,628L689,628L691,628L694,628L697,629L700,629L703,629L707,629L710,629L713,629L715,629L717,629L720,629L723,629" stroke-opacity="1" stroke-width="5" stroke-linecap="round" stroke-linejoin="round" style="-webkit-tap-highlight-color: rgba(0, 0, 0, 0); stroke-opacity: 1; stroke-linecap: round; stroke-linejoin: round; -webkit-user-select: text;"></path><path fill="none" stroke="#000000" d="M105,635L102,636L105,636L108,636L111,636L115,636L119,636L123,636L127,636L132,636L136,636L141,636L144,636L148,636L151,636L154,636L156,636L159,636L162,636L166,636L169,636L174,636L178,636L183,636L188,636L193,636L197,636L201,636L205,636L209,636L214,636L218,636L221,636L225,636L228,636L232,636L236,636L240,636L245,636L249,636L255,636L261,636L267,636L272,636L277,636L282,636L287,636L291,636L295,636L299,636L303,636L306,636L310,636L313,636L317,636L321,636L324,636L328,636L332,636L336,636L340,636L344,636L347,636L351,636L355,636L359,636L363,636L368,636L373,637L377,637L381,637L385,637L389,637L394,637L399,637L403,638L407,638L412,638L416,638L421,638L425,638L429,638L433,639L436,639L441,639L445,639L449,639L453,639L457,639L461,639L465,639L469,639L473,639L477,639L481,640L485,640L490,640L494,640L499,641L505,641L510,641L515,641L521,642L528,642L533,642L538,643L544,643L550,643L555,643L560,644L565,644L572,644L577,644L582,644L587,644L592,644L598,645L604,645L610,645L615,645L621,645L628,645L633,645L638,645L644,645L650,645L656,645L661,645L666,645L671,645L675,645L680,645L684,645L688,645L691,644L695,644L699,644L702,644L706,644L710,644L713,644L721,644" stroke-opacity="1" stroke-width="5" stroke-linecap="round" stroke-linejoin="round" style="-webkit-tap-highlight-color: rgba(0, 0, 0, 0); stroke-opacity: 1; stroke-linecap: round; stroke-linejoin: round; -webkit-user-select: text;"></path><path fill="none" stroke="#000000" d="M59,657L62,658L63,658L65,658L67,658L71,658L74,658L79,658L83,658L87,658L91,658L96,658L99,658L103,658L108,658L112,658L117,658L121,658L126,658L132,658L138,658L143,658L148,658L154,658L159,658L164,657L168,657L172,657L175,657L178,657L182,657L186,657L190,657L194,657L199,657L204,657L209,656L214,656L219,656L223,656L227,656L231,656L235,656L239,656L244,656L250,656L255,656L262,656L268,655L273,655L279,655L286,655L293,655L300,655L305,655L311,655L317,655L322,655L328,655L334,655L339,655L345,655L350,655L356,655L362,655L368,655L374,655L380,655L386,655L393,655L400,655L405,655L411,655L416,655L423,655L428,655L433,655L438,655L443,655L449,655L454,655L458,655L463,655L467,655L471,655L476,655L480,655L484,655L487,655L492,655L496,655L500,655L504,655L508,655L512,655L516,655L521,655L525,655L529,655L533,656L538,656L543,656L548,656L553,656L557,656L561,656L565,656L570,657L574,657L579,657L584,657L589,658L593,658L597,658L601,658L606,658L609,659L613,659L616,660L620,660L624,661L628,661L631,661L635,661L638,662L642,662L645,662L649,662L653,662L657,662L660,662L663,663L666,663L669,663L672,663L675,663L679,663L682,663L685,663L688,663L691,663L694,663L697,663L700,663L703,663L707,663L710,663L713,663L716,663L719,663L722,663L724,663L728,663" stroke-opacity="1" stroke-width="5" stroke-linecap="round" stroke-linejoin="round" style="-webkit-tap-highlight-color: rgba(0, 0, 0, 0); stroke-opacity: 1; stroke-linecap: round; stroke-linejoin: round; -webkit-user-select: text;"></path><path fill="none" stroke="#000000" d="M29,683L34,683L36,683L39,683L42,683L47,683L54,682L60,682L65,682L71,681L78,681L84,681L91,680L97,680L103,680L110,679L117,679L122,678L129,678L136,678L142,678L149,678L156,678L164,677L170,677L176,677L183,676L191,676L198,676L205,676L212,676L219,675L226,675L232,675L239,675L246,675L251,675L257,674L265,674L271,674L277,674L283,674L290,674L297,674L303,674L310,674L320,674L327,673L334,673L344,673L351,673L358,673L368,673L375,673L383,673L394,673L403,673L413,673L423,673L432,673L441,673L451,673L458,674L465,674L473,675L480,676L486,676L493,677L501,678L509,678L516,678L524,679L533,679L542,680L551,680L560,680L567,681L577,681L584,682L592,682L600,683L608,683L615,684L621,684L628,684L635,684L641,684L647,684L655,684L661,684L667,684L674,684L680,684L687,685L693,685L699,685L705,686L712,686L718,687L723,687L727,687L730,687L733,687L736,687L738,687L740,687L747,687" stroke-opacity="1" stroke-width="5" stroke-linecap="round" stroke-linejoin="round" style="-webkit-tap-highlight-color: rgba(0, 0, 0, 0); stroke-opacity: 1; stroke-linecap: round; stroke-linejoin: round; -webkit-user-select: text;"></path><path fill="none" stroke="#000000" d="M30,707L35,705L37,705L40,705L44,705L50,705L57,705L62,705L67,705L73,705L80,705L86,705L93,705L98,705L103,705L110,705L116,705L121,705L128,705L136,705L143,705L150,704L159,704L167,703L175,703L184,702L192,702L199,702L206,702L214,701L221,701L228,701L236,700L243,700L250,700L256,700L263,700L271,699L276,699L283,699L291,699L299,699L306,699L314,699L322,699L329,699L337,699L346,699L353,699L360,699L367,699L373,699L378,699L384,699L389,699L396,699L401,699L407,699L412,698L420,698L426,698L432,698L438,698L445,698L452,698L457,698L462,698L468,698L472,698L477,698L481,698L485,698L490,698L495,698L500,698L506,699L511,699L518,699L524,699L529,699L534,699L538,699L543,700L548,700L554,700L559,700L565,700L571,700L577,701L582,701L588,701L593,701L599,702L604,702L609,702L614,702L618,702L623,702L627,702L632,702L636,702L640,702L644,702L648,702L652,702L656,702L660,702L663,702L666,702L668,702L671,702L674,702L677,703L679,703L682,703L685,703L688,703L690,703L692,703L694,703L696,703L699,703L701,703L703,703L706,703L707,703L709,703L711,704L713,704L715,704L716,704L718,704L719,704L720,705L721,705L723,705L726,705" stroke-opacity="1" stroke-width="5" stroke-linecap="round" stroke-linejoin="round" style="-webkit-tap-highlight-color: rgba(0, 0, 0, 0); stroke-opacity: 1; stroke-linecap: round; stroke-linejoin: round; -webkit-user-select: text;"></path><path fill="none" stroke="#000000" d="M55,731L59,730L61,730L63,730L67,730L70,730L74,730L78,730L83,730L88,730L93,730L97,730L101,730L105,730L110,730L115,730L120,730L125,730L131,730L137,730L143,729L149,729L156,729L163,728L169,727L174,727L180,726L185,726L191,726L195,726L201,726L206,726L212,726L218,725L223,725L229,725L235,725L242,724L248,724L254,724L261,724L268,724L273,724L279,724L286,724L293,724L298,724L304,724L310,724L316,724L322,724L327,724L333,724L341,724L348,724L354,724L361,724L368,724L375,724L380,724L386,724L393,724L398,724L404,724L409,724L414,724L420,724L425,724L431,725L436,725L443,725L449,726L456,726L462,726L469,726L476,726L482,726L489,727L495,727L502,727L509,727L515,727L522,727L529,727L536,727L543,727L550,727L557,727L564,727L572,727L579,727L586,727L593,727L599,728L605,728L611,728L617,728L623,729L628,729L633,729L638,729L643,729L647,729L651,729L655,729L658,729L662,729L665,729L669,729L673,729L677,729L680,729L684,729L687,729L690,729L693,729L696,729L700,729L704,729L708,729L713,729L719,729" stroke-opacity="1" stroke-width="5" stroke-linecap="round" stroke-linejoin="round" style="-webkit-tap-highlight-color: rgba(0, 0, 0, 0); stroke-opacity: 1; stroke-linecap: round; stroke-linejoin: round; -webkit-user-select: text;"></path><path fill="none" stroke="#000000" d="M91,758L94,758L96,758L99,758L102,758L106,758L110,758L114,758L118,758L121,758L125,757L129,757L133,757L137,756L141,756L144,756L148,756L152,756L156,756L160,756L164,756L168,756L171,756L175,756L179,756L183,756L189,755L195,755L200,755L207,754L213,753L220,753L227,753L234,752L242,752L247,752L253,751L260,751L266,751L272,751L278,751L284,751L290,751L296,751L301,751L307,751L315,751L322,751L327,751L334,751L341,751L348,751L353,751L359,751L365,751L371,751L376,751L381,751L387,751L393,751L400,751L404,751L410,751L417,751L424,751L429,751L434,751L440,751L446,751L451,751L456,751L460,751L465,751L470,751L475,751L479,751L483,751L487,752L492,752L496,752L500,752L504,752L509,752L513,752L517,752L522,753L526,753L531,753L536,753L540,753L545,753L549,753L553,753L558,753L562,753L565,753L569,753L573,753L577,753L582,753L586,753L589,753L593,753L597,753L601,753L605,753L609,753L612,753L616,753L619,753L622,753L625,753L628,753L630,753L633,753L637,753L639,753L642,753L645,753L647,753L650,753L652,753L655,753L658,753L661,753L664,753L667,753L669,753L672,753L674,753L678,753L681,753L684,753L687,753L690,753L692,753L695,753L698,753L700,754L703,754L705,754L706,754L708,755L711,755L713,755L715,755L719,755L722,756" stroke-opacity="1" stroke-width="5" stroke-linecap="round" stroke-linejoin="round" style="-webkit-tap-highlight-color: rgba(0, 0, 0, 0); stroke-opacity: 1; stroke-linecap: round; stroke-linejoin: round; -webkit-user-select: text;"></path><path fill="none" stroke="#000000" d="M119,778L121,779L124,779L127,779L132,779L137,779L143,779L148,779L152,779L158,779L163,779L168,779L173,779L178,779L184,779L189,779L193,779L198,779L202,779L207,779L212,779L217,779L223,779L228,779L235,779L242,779L248,779L254,779L261,779L268,779L274,779L280,779L285,779L292,779L299,779L305,779L312,779L319,779L326,779L333,779L341,779L350,779L357,779L365,779L374,779L382,779L389,779L398,779L405,779L412,779L420,779L427,779L432,779L438,779L445,779L451,779L456,779L462,779L467,779L474,779L479,779L485,779L490,779L496,779L501,779L506,779L511,779L516,779L522,779L528,779L534,779L540,779L548,779L555,779L562,779L569,779L577,779L584,779L591,779L598,779L606,779L614,779L624,779L633,779L640,779L647,779L653,779L659,779L664,780L669,780L674,780L679,781L686,781L694,782" stroke-opacity="1" stroke-width="5" stroke-linecap="round" stroke-linejoin="round" style="-webkit-tap-highlight-color: rgba(0, 0, 0, 0); stroke-opacity: 1; stroke-linecap: round; stroke-linejoin: round; -webkit-user-select: text;"></path><path fill="none" stroke="#000000" d="M174,810L177,809L181,809L187,809L193,809L198,809L205,809L212,809L219,809L226,809L233,809L240,809L246,809L251,809L257,809L263,809L270,809L276,809L282,809L289,809L297,809L305,809L314,809L324,809L334,809L344,809L355,809L366,809L376,809L387,809L398,809L409,809L421,809L433,809L443,809L454,809L464,809L474,809L483,809L493,809L502,809L512,809L521,810L530,810L540,811L549,811L558,811L567,811L575,811L585,811L593,811L600,811L606,811L611,811L616,811L618,811L622,811" stroke-opacity="1" stroke-width="5" stroke-linecap="round" stroke-linejoin="round" style="-webkit-tap-highlight-color: rgba(0, 0, 0, 0); stroke-opacity: 1; stroke-linecap: round; stroke-linejoin: round; -webkit-user-select: text;"></path><path fill="none" stroke="#000000" d="M198,841L203,840L209,840L217,840L227,839L238,838L249,836L260,836L273,835L283,835L297,834L307,834L322,834L332,833L347,833L360,833L374,833L387,833L402,833L416,833L429,833L442,833L455,833L465,833L476,833L487,833L497,833L506,833L513,833L519,833L523,833L525,833" stroke-opacity="1" stroke-width="5" stroke-linecap="round" stroke-linejoin="round" style="-webkit-tap-highlight-color: rgba(0, 0, 0, 0); stroke-opacity: 1; stroke-linecap: round; stroke-linejoin: round; -webkit-user-select: text;"></path><path fill="none" stroke="#000000" d="M232,855L233,857L237,857L243,857L247,857L254,857L261,857L268,856L275,856L282,856L290,855L297,855L304,855L311,855L318,854L323,854L329,854L334,854L341,854L348,854L353,854L359,854L366,854L373,854L379,854L385,854L391,854L397,854L403,854L409,854L415,854L421,854L426,854L432,854L436,854L441,854L446,854L452,854L457,854L462,854L468,854L473,854L479,854L485,854L490,854L496,854L501,854L506,854L511,854L516,854L521,855L526,855L532,855L537,855L542,855L547,855L553,855L559,855L565,855L571,855L577,855L582,855L588,855L593,855L599,855L604,855L609,855L614,855L619,855L624,855L629,855L635,855L639,855L643,855L647,855L651,855L655,855L659,855L663,855L667,855L670,855L673,855L677,855L679,855L682,855L684,855L687,855L690,855L692,855L694,855L697,855L699,855L702,855L705,855L708,855L711,855L713,855L716,856L719,856L722,856L725,856L728,856L731,856L733,856L736,857L738,857L740,857L742,857L745,857L749,857L752,857L755,858L758,858L760,858L762,858L764,858L765,858L766,859" stroke-opacity="1" stroke-width="5" stroke-linecap="round" stroke-linejoin="round" style="-webkit-tap-highlight-color: rgba(0, 0, 0, 0); stroke-opacity: 1; stroke-linecap: round; stroke-linejoin: round; -webkit-user-select: text;"></path></svg>