<svg height="874" version="1.1" width="768" xmlns="http://www.w3.org/2000/svg" xmlns:xlink="http://www.w3.org/1999/xlink" style="overflow: hidden; position: relative; -webkit-user-select: text;"><desc style="-webkit-tap-highlight-color: rgba(0, 0, 0, 0); -webkit-user-select: text;">Created with Raphaël 2.2.0</desc><defs style="-webkit-tap-highlight-color: rgba(0, 0, 0, 0); -webkit-user-select: text;"></defs><path fill="none" stroke="#000000" d="M348,505L350,505L351,505L352,505L353,504L354,503L356,502L357,501L358,501L360,499L361,498L363,498L364,497L366,496L367,495L369,494L370,493L372,493L373,492L375,491L377,491L378,490L380,489L381,488L383,488L384,487L385,486L387,486L388,485L390,484L392,483L393,482L395,481L397,480L399,479L401,479L403,477L405,476L407,475L409,474L411,472L412,471L414,470L416,469L418,468L420,467L423,466L425,465L427,464L430,463L431,462L434,461L435,460L437,459L439,458L441,457L443,455L445,454L447,453L450,452L452,450L454,449L456,448L458,446L460,445L461,444L463,443L464,442L466,441L468,440L470,440L471,439L473,438L474,437L476,437L477,436L478,435L479,435L480,434L481,433L482,433L482,432L483,432L484,431L485,431L486,430L487,430L487,429L488,429" stroke-opacity="1" stroke-width="5" stroke-linecap="round" stroke-linejoin="round" style="-webkit-tap-highlight-color: rgba(0, 0, 0, 0); stroke-opacity: 1; stroke-linecap: round; stroke-linejoin: round; -webkit-user-select: text;"></path><path fill="none" stroke="#000000" d="M330,511L328,508L327,508L326,508L325,507L323,505L322,505L320,503L319,502L317,501L315,501L313,499L312,498L310,497L308,496L307,495L306,494L304,493L303,491L302,490L300,488L298,487L297,486L295,484L293,483L290,481L288,480L286,479L284,477L282,475L280,473L278,471L277,470L275,469L273,467L271,466L270,464L268,463L266,462L264,461L263,459L261,458L260,457L259,456L257,454L256,452L254,451L253,449L251,447L250,446L249,445L247,443L246,442L245,441L243,440L242,439L240,437L239,437L238,435L237,435L236,434L235,433L234,432L233,430L232,430L231,428L230,427L229,426L229,425L228,424L227,423L226,422L225,421L225,420L224,420L223,419L222,418L221,417L220,416L219,416L218,415L218,414L217,414L217,413L216,413L215,413L215,412L214,411L213,411L212,410L212,409L211,409L210,408" stroke-opacity="1" stroke-width="5" stroke-linecap="round" stroke-linejoin="round" style="-webkit-tap-highlight-color: rgba(0, 0, 0, 0); stroke-opacity: 1; stroke-linecap: round; stroke-linejoin: round; -webkit-user-select: text;"></path><path fill="none" stroke="#000000" d="M180,327L180,333L181,336L181,339L183,342L184,344L186,347L188,351L190,354L192,357L195,362L198,366L200,370L203,374L207,379L210,382L214,386L218,390L222,394L225,398L229,402L232,405L235,408L239,411L243,414L247,417L251,420L254,423L257,426L261,429L266,431L269,433L273,435L276,437L279,439L283,440L286,442L290,444L293,446L296,448L300,450L303,451L306,452L308,453L312,454L315,455L318,456L321,457L324,457L326,458L329,458L331,459L333,459L335,459L337,460L340,460L342,460L345,460L347,460L349,460L351,460L353,460L356,460L357,460L359,460L361,460L363,460L366,460L368,460L370,460L373,460L375,460L377,459L379,459L380,459L382,458L384,457L386,457L388,455L390,454L392,453L394,452L397,451L399,450L401,449L402,448L404,447L406,446L407,445L409,444L410,443L411,443L412,442L413,441L414,441L416,440L417,440L418,439L419,438L420,437L422,437L423,436L425,435L426,435L427,434L428,433L429,433L430,432L431,431L432,430L433,430L434,429L434,428L436,428L436,426L438,425L439,424L440,423L441,422L442,421L443,420L443,419L445,418L446,417L448,416L449,415L450,414L451,413L452,411L453,410L455,409L455,408L457,406L458,405L458,404L459,403L460,401L461,399L462,398L463,396L463,394L464,393L465,391L466,390L467,389L468,387L468,386L469,384L470,382L471,381L472,379L472,377L474,376L475,374L475,372L476,371L477,369L477,367L479,365L480,363L480,361L481,359L482,357L483,355L484,352L485,350L485,348L486,346L487,343L488,340L489,338L490,335L490,333L491,330L492,328L492,326L493,324L494,322L495,320L496,318L497,316L497,314L498,312L499,311L499,309L501,307L501,306L502,304L503,302L504,301L504,299L505,298L505,297L506,296L506,294L507,293L507,292L507,290L508,289L508,288L509,287L509,286L509,285L510,284L510,283L510,282" stroke-opacity="1" stroke-width="5" stroke-linecap="round" stroke-linejoin="round" style="-webkit-tap-highlight-color: rgba(0, 0, 0, 0); stroke-opacity: 1; stroke-linecap: round; stroke-linejoin: round; -webkit-user-select: text;"></path><path fill="none" stroke="#000000" d="M485,192L485,194L485,196L485,197L485,199L485,202L486,204L486,206L487,209L488,212L489,216L490,219L491,222L492,225L494,228L495,232L497,235L499,238L502,242L504,245L506,249L508,253L509,256L511,260L514,263L515,267L517,270L519,273L521,275L523,278L525,280L528,282L530,285L532,287L534,289L536,292L538,294L540,296L541,298L543,300L545,301L546,302L548,304L550,304L552,306L553,306L555,307L557,308L558,309L560,310L561,311L562,311L564,312L565,313L566,313L567,313L569,314L570,315L571,315L572,316L573,316L575,316L576,317L577,317L578,317L579,318L580,318L579,318" stroke-opacity="1" stroke-width="5" stroke-linecap="round" stroke-linejoin="round" style="-webkit-tap-highlight-color: rgba(0, 0, 0, 0); stroke-opacity: 1; stroke-linecap: round; stroke-linejoin: round; -webkit-user-select: text;"></path><path fill="none" stroke="#000000" d="M81,340L86,340L88,340L89,340L91,340L93,340L96,340L98,340L101,340L105,340L108,340L111,340L115,339L118,338L121,338L124,337L127,336L130,335L133,334L136,333L139,332L143,330L146,329L149,328L152,326L154,324L157,322L160,320L163,318L166,316L169,313L171,311L174,309L177,307L180,305L183,303L185,300L188,298L191,295L193,292L195,289L198,287L200,284L201,282L203,280L205,278L207,276L209,273L210,271L212,268L214,266L215,263L217,261L219,258L220,256L221,254L222,252L223,250L225,248L226,245L227,243L228,240L229,238L230,235L232,233L232,231L234,229L235,227L236,225L237,223L238,221L239,219L240,218L241,216L242,215L242,214L243,213L243,212L243,211" stroke-opacity="1" stroke-width="5" stroke-linecap="round" stroke-linejoin="round" style="-webkit-tap-highlight-color: rgba(0, 0, 0, 0); stroke-opacity: 1; stroke-linecap: round; stroke-linejoin: round; -webkit-user-select: text;"></path><path fill="none" stroke="#000000" d="M110,273L115,269L115,268L116,267L118,266L119,265L120,263L122,262L123,260L124,259L126,258L127,257L130,255L132,253L134,252L136,250L138,248L140,247L142,245L144,243L146,241L148,239L150,237L152,235L154,233L157,231L160,229L162,228L165,226L167,224L170,222L172,220L175,218L177,216L180,214L182,211L185,210L188,208L191,206L194,204L197,203L200,201L203,199L205,197L208,196L211,194L215,192L218,190L221,188L224,187L227,185L231,183L234,181L237,180L242,178L245,177L249,175L252,174L256,172L260,170L265,168L269,167L273,165L278,163L282,160L288,159L293,157L298,155L302,154L306,153L310,152L314,151L318,150L322,149L325,148L329,148L332,147L335,146L339,146L344,145L347,144L351,143L355,143L358,143L362,142L366,142L369,142L373,141L375,141L379,141L382,141L385,141L387,141L390,141L393,141L396,141L398,141L401,141L403,141L406,141L408,141L411,141L414,142L416,142L419,143L422,143L424,143L427,144L430,145L432,146L434,146L436,147L438,148L441,148L443,149L446,150L448,151L451,151L453,152L455,153L457,154L458,155L460,155L462,156L464,157L465,158L467,159L469,160L470,161L472,162L474,163L476,164L478,165L480,166L481,167L483,168L484,169L485,170L487,171L488,172L489,173L490,174L492,175L492,177L494,177L495,179L496,180L497,181L499,183L499,184L501,185L502,187L503,188L504,190L505,192L506,193L507,194L508,196L509,197L509,199L510,200L511,201L512,202L513,204L514,205L514,206L515,208L516,209L516,211L517,212L518,214L519,215L519,216L520,217L521,219L521,220L522,221L523,222L524,224L525,225L525,226L526,227L527,228L527,229L528,230L528,231L529,232L530,233L531,234L531,235L532,236L533,238L533,239L534,240L535,242L536,243L536,244L537,245L538,247L539,248L540,249L541,250L541,252L543,253L543,254L544,255L545,256L546,257L548,258L548,259L550,260L551,262L552,262L553,264L555,265L556,266L557,267L558,268L559,269L560,270L561,271L562,272L563,272L564,274L565,275L566,275L567,276L568,277L570,277L570,278L572,279L573,279L575,280L576,280L577,281L579,282L580,282L582,282L583,283L584,284L585,284L587,284L588,285L589,285L590,286L592,286L592,287L594,287L595,288L596,288L597,289L598,289L599,289L601,290L602,290L604,290L605,290L606,291L607,291L609,291L610,291L611,291L612,292L613,292L614,292L615,292L616,292L617,292L618,292L619,292L620,292L621,292L622,292L623,292L624,292L625,292L626,292L626,291" stroke-opacity="1" stroke-width="5" stroke-linecap="round" stroke-linejoin="round" style="-webkit-tap-highlight-color: rgba(0, 0, 0, 0); stroke-opacity: 1; stroke-linecap: round; stroke-linejoin: round; -webkit-user-select: text;"></path><path fill="none" stroke="#000000" d="M554,206L559,208L560,209L562,211L563,213L565,215L567,216L569,219L571,221L574,223L576,225L579,227L582,229L585,231L587,233L590,236L593,239L596,241L598,244L601,247L604,249L607,251L610,253L613,255L615,257L617,259L619,262L621,264L624,267L626,270L629,272L631,274L634,276L636,278L638,280L640,282L642,284L644,286L646,288L647,290L650,292L651,294L653,295L655,297L657,299L659,300L661,302L662,303L664,304L666,305L667,306L668,308L670,309L671,311L672,312L674,313L675,315L677,316L678,317L679,318L681,319L682,321L683,321L684,322L685,323L686,323L687,324L688,325L689,326L689,325" stroke-opacity="1" stroke-width="5" stroke-linecap="round" stroke-linejoin="round" style="-webkit-tap-highlight-color: rgba(0, 0, 0, 0); stroke-opacity: 1; stroke-linecap: round; stroke-linejoin: round; -webkit-user-select: text;"></path><path fill="none" stroke="#000000" d="M622,213L625,215L627,215L628,216L630,218L632,219L633,221L635,222L638,224L639,225L641,227L643,228L645,231L647,233L649,235L651,238L654,240L657,243L660,245L662,248L664,251L667,253L669,256L671,259L673,262L675,265L677,267L679,270L681,273L682,276L684,279L685,281L686,284L687,286L688,288L689,291L690,294L691,296L691,299L692,301L693,303L693,305L694,306L694,309L694,311L694,313L694,316L694,319L694,321L694,323L694,326L694,328L694,329L694,332L694,333L694,336L694,338L694,340L694,342L694,344L694,346L694,348L694,350L694,352L693,353L693,355L692,357L691,360L691,362L690,364L689,366L689,367L688,369L687,372L686,373L685,375L684,377L683,379L682,381L680,383L679,385L678,387L676,389L675,391L674,394L672,396L671,398L670,399L669,401L667,403L666,404L664,406L662,408L660,410L658,411L656,413L654,415L652,417L651,419L649,420L647,422L646,424L644,425L643,427L642,428L640,429L639,430L638,431L636,432L635,433L633,434L632,435L630,436L628,437L627,437L626,438L625,439L623,440L623,441L622,442L621,442L619,444L618,445L617,446L616,447L615,447L614,448L613,449L612,450L611,451L612,451L613,451" stroke-opacity="1" stroke-width="5" stroke-linecap="round" stroke-linejoin="round" style="-webkit-tap-highlight-color: rgba(0, 0, 0, 0); stroke-opacity: 1; stroke-linecap: round; stroke-linejoin: round; -webkit-user-select: text;"></path><path fill="none" stroke="#000000" d="M686,340L682,343L681,343L680,344L679,344L678,345L677,346L676,347L675,349L673,350L672,352L670,354L668,355L666,357L664,360L661,362L658,364L655,367L652,369L649,372L647,374L644,376L641,379L638,381L635,383L632,385L629,387L627,389L624,391L622,394L620,396L617,399L615,401L613,403L610,406L607,408L604,411L601,413L598,416L596,419L593,423L590,426L587,429L584,432L581,434L578,437L575,439L572,442L569,445L566,447L564,450L561,453L558,455L555,458L551,460L548,462L545,465L543,467L540,470L537,472L535,475L532,477L529,479L526,481L524,484L521,486L519,487L516,489L514,491L512,493L510,495L507,497L505,498L503,501L500,503L498,505L496,506L494,508L492,509L490,510L488,512L486,513L485,515L483,516L481,518L479,519L477,521L475,522L472,524L470,526L469,528L467,530L465,531L463,532L462,534L460,535L459,537L457,538L455,539L453,540L452,542L451,543L449,544L448,544L446,545L445,547L444,548L443,549L442,550L441,552L439,553L438,554L437,555L436,556L435,557L434,557L434,556L434,555" stroke-opacity="1" stroke-width="5" stroke-linecap="round" stroke-linejoin="round" style="-webkit-tap-highlight-color: rgba(0, 0, 0, 0); stroke-opacity: 1; stroke-linecap: round; stroke-linejoin: round; -webkit-user-select: text;"></path><path fill="none" stroke="#000000" d="M373,70L375,69L376,69L377,69L378,69L380,69L381,70L383,70L384,71L386,72L388,73L390,75L393,76L396,78L399,79L402,81L404,83L407,85L410,87L413,89L415,90L418,92L421,94L424,96L426,97L429,99L432,100L434,102L436,104L439,107L441,109L444,112L448,114L451,117L454,119L456,122L459,124L462,126L464,129L466,132L469,135L472,138L475,141L477,143L480,146L482,148L484,151L486,153L488,156L490,159L492,161L493,164L495,166L497,169L499,171L502,173L504,175L505,178L507,180L509,182L510,185L511,187L512,190L514,192L515,195L516,197L517,199L518,201L519,203L520,205L521,207L522,209L524,212L524,214L525,216L526,219L527,221L528,223L529,225L530,227L530,229L531,231L532,233L532,234L533,237L533,238L534,241L534,243L535,245L535,247L536,249L536,251L537,253L537,255L538,257L538,259L538,262L539,264L539,267L540,269L540,271L540,273L541,275L541,277L541,279L541,281L541,283L541,286L541,289L541,291L541,294L541,296L541,298L541,300L541,302L541,304L541,305L541,307L541,309L541,311L541,313L541,316L541,318L541,320L541,323L541,325L541,327L541,329L541,332L541,334L541,336L541,339L541,342L540,344L540,347L539,349L539,352L538,354L538,356L537,358L537,361L536,364L536,366L535,369L535,371L534,373L534,376L533,378L533,380L532,382L531,385L531,387L530,389L529,392L528,394L527,397L526,400L525,403L524,406L523,408L521,411L521,413L519,417L518,420L516,424L515,427L513,430L511,433L510,436L508,439L507,442L505,444L503,447L502,449L500,451L498,454L497,456L495,457L494,459L493,461L492,463L490,464L490,466L488,468L487,470L486,471L485,473L484,475L482,476L481,479L480,480L478,481L477,483L475,484L473,486L471,487L470,488L468,490L467,491L465,493L464,495L463,496L461,498L460,499L458,501L457,502L455,503L454,505L452,506L450,508L448,509L446,510L445,511L443,512L441,513L440,514L438,516L437,517L435,518L434,520L432,521L431,522L429,524L427,525L426,526L424,527L422,528L421,530L419,531L417,532L416,532L415,533L414,534L412,535L412,536L410,537L409,537L408,538L407,539L406,540L404,541L402,542L401,543L399,544L397,545L395,546L393,547L392,549L390,549L389,551L387,552L386,553L385,554L384,555L383,556L382,556L380,557L380,558L378,559L377,559L376,560L375,560L374,561L373,561L372,562L371,562L371,563L370,563L370,564L369,564L368,564L368,563L369,562L370,561" stroke-opacity="1" stroke-width="5" stroke-linecap="round" stroke-linejoin="round" style="-webkit-tap-highlight-color: rgba(0, 0, 0, 0); stroke-opacity: 1; stroke-linecap: round; stroke-linejoin: round; -webkit-user-select: text;"></path><path fill="none" stroke="#000000" d="M357,316L354,320L354,322L354,323L354,324L354,326L354,328L354,330L354,332L354,335L354,338L354,340L354,343L354,347L354,350L354,353L354,357L354,360L354,364L354,369L354,373L354,377L354,381L354,386L354,391L354,396L354,401L354,406L354,410L354,415L354,419L354,424L354,428L354,432L354,436L354,440L354,445L354,449L354,453L354,457L354,460L354,464L354,468L354,472L354,476L354,479L354,482L354,485L354,488L354,490L353,493L353,495L353,498L353,500L353,501L353,503L353,505L353,507L353,508L353,509L353,510L353,509L353,507" stroke-opacity="1" stroke-width="5" stroke-linecap="round" stroke-linejoin="round" style="-webkit-tap-highlight-color: rgba(0, 0, 0, 0); stroke-opacity: 1; stroke-linecap: round; stroke-linejoin: round; -webkit-user-select: text;"></path><path fill="none" stroke="#000000" d="M361,92L357,100L357,102L357,106L357,109L356,114L356,118L356,122L355,126L355,132L355,137L355,143L355,148L355,153L355,158L355,163L355,167L355,171L355,175L355,179L355,183L355,187L355,192L355,195L355,199L355,204L355,208L355,212L355,216L355,221L355,224L355,228L355,232L355,236L355,240L355,243L355,245L355,248L355,251L355,253L355,256L355,258L355,260L355,261L355,262L355,263L356,263" stroke-opacity="1" stroke-width="5" stroke-linecap="round" stroke-linejoin="round" style="-webkit-tap-highlight-color: rgba(0, 0, 0, 0); stroke-opacity: 1; stroke-linecap: round; stroke-linejoin: round; -webkit-user-select: text;"></path><path fill="none" stroke="#000000" d="M225,106L228,112L229,114L232,117L234,120L237,124L239,127L242,130L245,134L248,138L250,142L253,146L256,150L259,154L261,158L264,162L268,166L271,170L273,173L276,177L278,180L280,184L282,188L285,191L287,195L290,198L293,201L295,204L298,207L302,211L305,215L307,218L310,222L312,226L316,229L319,233L322,237L325,241L328,244L330,247L333,250L335,254L338,257L340,260L343,263L345,266L348,268L350,271L351,273L353,276L355,277L356,279L358,282L359,284L361,286L363,289L364,291L366,294L368,296L370,299L372,302L374,304L376,307L378,309L380,312L382,315L384,318L386,322L388,325L390,327L393,330L395,333L398,335L400,338L402,341L404,344L407,347L408,349L409,352L411,353L413,355L414,357L416,360L417,362L419,364L421,366L423,368L425,370L427,372L429,375L430,377L432,379L434,381L435,383L436,385L438,387L440,389L441,391L443,393L445,396L447,398L448,400L451,402L452,404L454,406L455,407L457,409L459,411L460,412L461,414L463,416L464,418L465,420L467,422L468,424L470,425L471,427L472,429L474,430L475,432L477,434L479,435L480,437L482,439L483,440L484,442L485,444L486,445L487,447L488,449L490,451L490,453L492,454L493,456L494,458L496,459L497,461L499,463L501,464L503,467L504,468L506,470L507,471L508,474L509,476L511,477L512,479L513,481L514,482L515,484L516,485L518,486L519,488L521,490L522,492L524,493L526,496L527,498L529,500L531,502L532,503L533,505L534,507L536,508L536,510L538,511L539,513L540,514L541,515L543,517L544,519L545,520L546,522L547,524L548,525L550,527L551,528L552,530L553,532L555,533L556,534L557,536L558,537L560,538L560,539L561,541L562,542L563,543L564,544L565,546L566,547L567,549L568,550L569,551L570,552L570,554L571,555L572,556L572,557L573,559L574,559L575,561L576,562L577,563L579,564L579,565L581,566L582,566L583,567L583,569L584,569L585,570L586,571L586,572L587,573L588,574L588,575L589,576L590,577L591,578L591,579L592,580L593,581L593,582L594,583L595,584L595,585L596,586L597,586L597,587L598,588L599,589L600,590L601,591L602,592L602,593L603,593L604,593L604,592L604,590" stroke-opacity="1" stroke-width="5" stroke-linecap="round" stroke-linejoin="round" style="-webkit-tap-highlight-color: rgba(0, 0, 0, 0); stroke-opacity: 1; stroke-linecap: round; stroke-linejoin: round; -webkit-user-select: text;"></path><path fill="none" stroke="#000000" d="M301,55L304,63L304,65L304,67L304,70L305,72L305,74L306,76L306,79L307,81L307,84L308,86L308,88L309,89L309,91L310,93L310,95L310,97L311,99L311,101L312,103L312,105L313,107L313,109L314,111L314,114L315,116L317,118L317,121L318,123L319,126L320,128L321,130L322,132L322,134L323,136L324,138L325,140L326,142L327,144L328,146L329,148L329,150L330,152L331,154L333,157L334,159L335,162L336,165L337,167L339,170L340,172L341,175L343,177L345,180L346,183L348,185L349,188L351,190L352,193L353,196L355,198L356,200L357,203L359,206L360,208L361,211L363,213L364,216L366,218L368,221L370,224L371,227L373,229L375,232L377,235L378,237L380,240L381,243L382,245L383,248L385,250L386,252L387,255L389,258L390,260L392,263L394,266L395,269L397,271L399,274L401,277L403,279L404,282L406,284L407,287L409,289L410,292L412,295L413,297L414,300L416,302L418,304L420,307L422,309L424,311L425,313L427,315L429,318L430,320L431,323L433,325L435,328L436,330L437,332L439,334L441,336L442,338L444,340L446,343L448,345L450,347L451,350L453,352L455,354L457,357L458,359L460,361L461,363L463,365L464,368L465,370L467,373L468,375L470,378L472,380L473,382L475,384L477,386L478,388L480,390L482,392L483,394L484,396L485,398L487,400L488,402L489,404L490,406L492,408L493,410L494,411L496,413L498,415L499,417L502,419L503,420L505,422L507,425L508,426L509,428L511,430L512,432L513,433L514,435L515,436L517,438L518,439L519,442L521,443L522,445L524,447L525,448L526,449L528,451L529,453L531,454L532,455L534,457L535,458L536,459L538,461L538,462L540,463L541,464L542,466L543,467L545,469L546,470L548,471L549,472L550,474L553,475L554,477L555,478L557,479L558,481L559,481L560,483L561,483L562,484L563,486L564,486L565,487L566,488L567,489L568,490L569,491L570,492L571,493L572,494L574,495L575,496L577,497L579,498L580,499L581,500L582,500L584,502L585,503L586,503L587,505L588,505L589,506L591,507L592,508L593,509L594,510L595,510L596,511L598,512L599,512L600,513L601,514L603,515L604,515L606,516L607,517L608,517L609,518L611,518L612,519L613,520L614,520L615,521L616,522L618,522L618,523L620,523L621,524L623,524L624,525L626,526L627,527L629,527L630,528L632,529L633,529L635,530L636,530L637,531L638,532L640,532L642,533L643,534L644,534L645,534L646,535L648,535L649,536L651,536L652,537L654,537L655,537L657,538L658,538L660,539L661,539L663,539L664,540L666,540L667,541L669,541L670,541L672,541L673,542L675,542L676,542L677,543L679,543L680,543L681,543L682,544" stroke-opacity="1" stroke-width="5" stroke-linecap="round" stroke-linejoin="round" style="-webkit-tap-highlight-color: rgba(0, 0, 0, 0); stroke-opacity: 1; stroke-linecap: round; stroke-linejoin: round; -webkit-user-select: text;"></path><path fill="none" stroke="#000000" d="M678,431L678,436L678,438L678,440L678,442L679,445L679,448L680,452L681,455L682,458L683,462L684,465L684,469L685,472L686,476L687,479L688,483L689,486L689,490L690,494L691,498L691,502L693,506L693,510L694,514L695,518L696,522L696,527L697,531L698,535L699,539L700,543L701,547L701,551L702,554L703,558L703,562L704,566L705,569L706,572L706,575L707,578L708,580L708,583L709,585L710,588L711,591L711,594L712,596L713,599L713,601L714,604L715,606L715,608L716,610L716,612L717,614L717,616L718,617L718,619L718,620L719,621L719,622L720,623L720,624L720,625L721,625" stroke-opacity="1" stroke-width="5" stroke-linecap="round" stroke-linejoin="round" style="-webkit-tap-highlight-color: rgba(0, 0, 0, 0); stroke-opacity: 1; stroke-linecap: round; stroke-linejoin: round; -webkit-user-select: text;"></path><path fill="none" stroke="#000000" d="M701,658L692,665L690,666L687,668L684,670L681,672L677,674L674,676L670,678L667,681L664,683L660,685L655,688L651,690L648,692L644,695L640,697L635,700L630,702L627,704L623,706L619,709L616,711L613,713L610,715L606,717L602,719L599,720L596,722L593,723L590,725L587,726L584,728L581,729L577,731L575,732L572,734L569,735L566,737L564,738L562,739L559,741L556,742L553,743L551,744L548,745L546,746L545,746L544,747L543,747L544,747" stroke-opacity="1" stroke-width="5" stroke-linecap="round" stroke-linejoin="round" style="-webkit-tap-highlight-color: rgba(0, 0, 0, 0); stroke-opacity: 1; stroke-linecap: round; stroke-linejoin: round; -webkit-user-select: text;"></path><path fill="none" stroke="#000000" d="M589,393L589,391L590,391L592,392L594,393L596,396L599,398L601,401L604,403L607,406L610,409L612,411L615,414L617,418L619,421L621,424L623,427L626,431L628,434L630,437L632,439L635,442L636,445L638,449L640,452L641,455L643,458L644,461L645,463L646,466L647,469L648,472L650,475L650,478L651,481L652,485L653,487L654,490L655,492L655,495L656,497L656,499L657,502L657,504L657,506L658,509L658,511L659,513L659,516L660,518L660,520L660,523L660,526L660,528L660,531L660,534L660,536L660,539L660,542L660,545L660,548L660,551L660,553L660,556L659,558L658,561L657,564L657,567L657,570L656,573L655,575L655,578L654,580L653,583L652,585L651,588L650,590L649,593L648,595L647,597L645,600L644,602L643,604L642,607L640,609L638,612L637,614L635,616L633,618L630,620L628,622L627,624L625,627L623,629L622,631L620,633L618,636L616,638L614,640L611,642L609,644L606,646L603,647L601,649L598,651L595,652L593,654L591,656L588,657L585,659L582,661L579,662L576,663L573,665L571,666L568,667L566,668L563,669L560,670L558,670L554,671L551,672L548,673L545,673L542,674L540,675L537,676L534,677L531,678L528,678L525,679L522,680L519,680L516,681L513,681L510,682L507,682L504,682L501,683L497,684L494,684L491,685L489,685L486,685L483,686L481,686L478,686L475,686L472,687L469,687L466,687L464,687L461,687L459,687L456,687L454,687L451,687L448,687L445,688L442,688L440,688L437,689L435,689L432,689L430,689L427,689L424,689L421,689L419,689L416,689L414,689L411,689L409,689L406,689L404,689L401,689L398,689L395,689L392,689L390,689L387,690L385,690L383,690L380,690L378,690L375,690L372,690L369,690L366,690L364,690L361,690L359,690L356,690L354,690L352,690L349,690L347,690L345,690L342,690L340,690L338,690L336,690L334,690L332,690L330,690L328,690L327,690L325,690L323,690L321,690L319,690L317,690L315,690L313,690L312,690L310,690L309,690L307,690L306,690L305,690L304,690L302,690L301,690L300,690L298,690L297,690L295,690L294,690L293,690L291,690L289,690L288,690L287,690L285,690L284,690L283,690L282,690L281,690L280,691L279,691L278,691L277,691L276,691L275,691L274,691L275,691L276,691" stroke-opacity="1" stroke-width="5" stroke-linecap="round" stroke-linejoin="round" style="-webkit-tap-highlight-color: rgba(0, 0, 0, 0); stroke-opacity: 1; stroke-linecap: round; stroke-linejoin: round; -webkit-user-select: text;"></path><path fill="none" stroke="#000000" d="M210,711L213,709L216,709L219,709L223,709L227,709L231,708L238,707L246,705L254,702L266,699L274,697L283,695L295,691L306,687L319,682L333,676L349,670L364,664L381,658L396,652L408,648L421,645L429,642L436,640L440,638L443,637L445,636L446,635L446,634" stroke-opacity="1" stroke-width="5" stroke-linecap="round" stroke-linejoin="round" style="-webkit-tap-highlight-color: rgba(0, 0, 0, 0); stroke-opacity: 1; stroke-linecap: round; stroke-linejoin: round; -webkit-user-select: text;"></path><path fill="none" stroke="#000000" d="M322,593L324,595L324,597L325,600L326,604L328,608L330,614L332,619L334,624L336,630L339,637L342,644L345,650L348,658L351,665L354,672L357,680L360,687L362,693L365,699L368,705L370,711L373,716L375,721L376,724L377,728L378,731L379,734L379,736L380,737L380,738L380,736" stroke-opacity="1" stroke-width="5" stroke-linecap="round" stroke-linejoin="round" style="-webkit-tap-highlight-color: rgba(0, 0, 0, 0); stroke-opacity: 1; stroke-linecap: round; stroke-linejoin: round; -webkit-user-select: text;"></path><path fill="none" stroke="#000000" d="M316,500L318,504L319,505L321,506L322,507L324,507L326,508L329,510L331,510L333,511L335,512L338,512L341,513L344,514L347,515L350,516L353,517L356,517L359,518L362,519L366,520L369,522L373,523L377,524L381,526L384,527L387,529L391,531L396,533L400,535L403,537L407,539L411,541L414,543L418,546L421,548L425,551L428,553L431,556L434,558L436,561L438,564L441,566L443,568L445,571L447,573L450,576L452,579L454,582L455,585L457,588L458,590L460,593L461,595L463,598L464,601L465,605L465,608L466,611L467,614L468,617L469,620L470,623L470,626L471,629L471,632L472,635L472,639L472,642L473,645L473,648L473,651L473,654L473,658L473,661L472,664L472,668L471,670L470,674L470,677L469,680L468,684L466,687L465,690L464,693L463,695L462,698L460,701L459,704L458,706L456,709L455,711L453,714L451,716L449,718L448,720L446,722L443,724L442,726L440,728L438,731L436,733L434,735L432,738L430,740L428,742L426,744L424,746L421,747L419,748L417,750L414,752L412,753L410,755L408,756L405,758L403,760L400,761L397,763L395,765L392,766L389,768L386,769L384,770L381,772L378,773L374,775L369,776L365,777L360,779L355,781L349,783L343,785L337,787L330,789L324,791L317,792L311,793L306,794L300,794L294,794L288,795L283,796L279,796L274,797L270,797L265,797L261,797L257,797L252,797L248,797L243,797L239,797L235,797L231,796L227,794L222,793L218,792L214,791L210,789L206,788L202,787L198,785L195,784L191,782L187,781L183,780L180,778L177,777L174,775L172,774L169,772L166,771L164,770L161,768L158,767L156,766L154,765L152,763L149,761L148,760L146,758L144,757L142,755L140,754L138,753L136,751L134,750L132,748L130,747L129,746L127,744L126,743L125,742L123,741L122,740L121,738L120,737L119,736L118,735L118,734L117,734L117,733" stroke-opacity="1" stroke-width="5" stroke-linecap="round" stroke-linejoin="round" style="-webkit-tap-highlight-color: rgba(0, 0, 0, 0); stroke-opacity: 1; stroke-linecap: round; stroke-linejoin: round; -webkit-user-select: text;"></path><path fill="none" stroke="#000000" d="M90,690L93,692L94,692L96,692L98,692L101,692L104,693L108,694L111,695L115,696L118,697L121,697L125,698L129,699L133,700L137,701L142,701L147,702L151,702L155,703L159,703L164,704L168,704L173,704L177,704L182,704L187,704L191,704L196,704L200,704L205,704L210,703L215,702L220,701L224,699L228,698L232,697L238,695L243,694L248,692L253,690L256,687L261,685L266,682L271,680L275,677L278,674L282,672L286,668L290,665L294,662L298,658L301,655L303,652L306,648L309,645L312,641L314,638L316,634L319,631L321,627L323,623L325,619L327,615L328,610L329,606L331,601L332,597L333,593L334,589L335,586L335,583L336,579L336,576L336,572L336,569L336,566L336,562L336,559L336,556L336,552L336,549L336,545L336,541L335,538L334,534L333,531L332,527L330,523L329,519L328,516L326,513L324,510L323,507L321,504L319,501L317,498L315,496L313,493L311,490L309,488L307,486L305,483L302,480L300,477L297,474L295,472L292,469L289,467L286,465L284,463L282,461L280,460L278,458L276,456L274,455L272,454L269,453L267,452L265,450L263,449L261,448L259,447L257,446L255,444L253,444L251,443L249,442L248,441L246,440L245,440L244,439L244,438L245,438" stroke-opacity="1" stroke-width="5" stroke-linecap="round" stroke-linejoin="round" style="-webkit-tap-highlight-color: rgba(0, 0, 0, 0); stroke-opacity: 1; stroke-linecap: round; stroke-linejoin: round; -webkit-user-select: text;"></path><path fill="none" stroke="#000000" d="M101,420L102,421L102,423L104,426L106,430L110,433L113,437L117,441L120,447L124,451L127,457L132,462L136,468L140,473L144,479L147,484L150,489L154,493L158,499L162,505L166,510L169,515L174,521L177,527L180,532L184,538L188,542L192,547L195,553L198,558L201,562L205,567L208,571L211,576L215,580L218,585L221,588L224,593L227,597L229,600L231,604L233,607L235,611L237,614L239,616L240,618L242,620L243,622L244,623L245,625L246,626L247,628L247,629L248,630L249,631L249,632L249,633L250,633L250,634L250,632L250,631" stroke-opacity="1" stroke-width="5" stroke-linecap="round" stroke-linejoin="round" style="-webkit-tap-highlight-color: rgba(0, 0, 0, 0); stroke-opacity: 1; stroke-linecap: round; stroke-linejoin: round; -webkit-user-select: text;"></path><path fill="none" stroke="#000000" d="M262,627L263,622L263,620L263,617L263,613L264,607L265,602L267,597L268,591L269,585L271,580L272,573L273,568L273,563L274,557L275,552L276,546L277,541L278,535L279,529L280,523L281,516L282,509L283,502L285,493L285,485L287,477L287,470L288,463L288,456L288,449L289,442L290,435L290,429L290,423L291,418L291,412L292,407L292,402L293,397L293,392L294,388L295,383L295,379L295,374L295,370L296,366L296,362L296,359L296,356L296,354L296,352L296,351L296,350L297,350" stroke-opacity="1" stroke-width="5" stroke-linecap="round" stroke-linejoin="round" style="-webkit-tap-highlight-color: rgba(0, 0, 0, 0); stroke-opacity: 1; stroke-linecap: round; stroke-linejoin: round; -webkit-user-select: text;"></path><path fill="none" stroke="#000000" d="M292,264L290,267L290,268L290,269L290,272L289,274L289,277L288,279L288,282L287,285L287,289L286,294L286,298L285,301L285,305L285,308L284,312L283,316L283,320L282,323L282,327L281,330L281,334L280,337L280,341L280,345L279,349L279,353L279,357L278,361L278,364L278,369L277,372L277,376L276,379L276,383L276,386L275,388L275,392L274,395L274,398L273,401L273,405L272,408L272,410L271,413L270,416L270,419L269,422L268,425L268,428L267,431L266,433L266,436L265,438L264,440L263,442L263,445L262,447L262,450L261,452L260,455L259,457L259,459L258,461L257,464L256,465L256,467L255,469L254,471L253,473L251,474L250,476L249,477L248,478L247,479L246,480L245,481L244,482L242,482L242,483L240,483L239,484L238,484L237,485L235,485L234,486L233,486L232,486L231,486L230,486L229,486L228,486L227,486L226,486L225,486L224,486L223,486L222,486L220,486L219,486L218,486L217,486L216,486L215,486L214,486L212,486L211,486L210,486L209,486L208,486L207,486L206,486L205,485L204,485L203,485L203,484L201,484L200,483L199,482L198,482L197,481L195,480L194,480L193,479L192,478L191,478L189,477L188,476L187,476L186,475L185,474L184,474L183,473L182,473L181,472L181,471L180,470L179,470L178,469L178,468L177,467L176,466L175,465L175,464L174,464L173,463L173,462L172,461L171,460L171,459L170,459L169,458L168,457L167,456L166,455L165,454L164,453L164,452L163,451L162,451L161,450L161,449L160,448L159,447L158,446L157,445L157,444L156,443L155,442L154,441L154,440L153,439L152,438L152,437L151,436L150,435L149,435L149,434L148,433L147,432L147,431L146,430L145,429L145,428L144,427L143,426L142,425L141,424L141,423L140,422L139,421L139,420L138,419L137,418L136,417L135,416L135,415L133,414L132,413L132,412L131,410L130,410L129,409L128,408L128,407L127,406L127,405L126,404L125,403L125,402L124,401L123,399L122,398L122,397L121,396L120,395L120,394L119,393L119,392L118,391L117,390L116,389L115,388L115,387L114,386L113,385L112,384L111,383L110,382L110,381L109,380L108,379L107,378L106,377L106,376L105,375L105,374L104,373L104,372L103,371L103,370L102,369L101,368L101,367L100,366L99,364L98,364L98,363L97,362L97,361L96,360L96,359L95,358L94,357L93,356L93,355L92,354L91,353L91,352L90,350L89,349L88,348L87,347L87,346L86,345L85,345L84,343L84,342L83,341L82,340L81,339L80,338L79,337L78,335L77,334L76,332L75,331L74,329L74,328L73,326L72,325L71,324L71,323L70,321L69,320L69,319L68,318L67,317L67,315L66,314L65,312L64,311L63,309L62,308L61,307L59,305L58,304L57,303L56,301L55,300L54,298L53,297L52,295L52,294L51,292L50,291L49,289L48,288L47,286L47,284L45,283L45,281L44,279L42,278L41,276L40,274L39,272L37,269L36,267L35,265L33,263L32,260L30,258L29,256L28,255L26,252L25,251L24,249L23,247L21,245L20,243L19,241L18,238L16,235L15,231L13,226L11,220L10,213L8,209" stroke-opacity="1" stroke-width="5" stroke-linecap="round" stroke-linejoin="round" style="-webkit-tap-highlight-color: rgba(0, 0, 0, 0); stroke-opacity: 1; stroke-linecap: round; stroke-linejoin: round; -webkit-user-select: text;"></path><path fill="none" stroke="#000000" d="M14,120L20,127L23,129L26,131L30,135L35,138L39,142L43,145L47,149L51,153L56,156L61,160L66,165L69,169L74,173L79,177L84,180L89,184L93,189L97,193L102,197L107,201L112,204L116,207L121,211L125,214L130,218L135,222L140,225L144,228L149,230L153,233L158,236L162,238L166,241L171,245L174,247L177,250L181,253L186,255L190,257L193,260L197,262L201,264L205,267L209,270L213,273L218,275L222,277L225,279L229,280L233,282L238,284L242,286L246,287L250,289L254,291L258,293L262,295L267,297L270,298L274,300L278,301L281,303L285,304L289,305L293,306L298,308L301,308L305,309L308,310L312,311L316,312L319,312L323,313L327,313L330,314L333,314L336,315L339,315L342,315L345,315L348,315L351,315L354,315L357,315L360,315L362,315L364,315L367,315L369,315L372,315L375,314L377,314L379,313L381,313L383,312L385,312L386,311L388,311L390,311L392,310L395,309L397,308L399,308L401,307L402,306L404,305L406,304L407,303L409,302L411,301L413,299L415,298L417,296L419,296L421,294L424,293L426,291L428,290L430,289L432,288L434,286L436,285L438,284L440,282L441,281L443,280L446,278L448,277L450,275L452,274L454,272L455,269L458,267L459,265L461,263L463,261L465,258L467,255L469,253L471,250L474,247L476,245L478,242L480,239L482,236L483,233L485,230L487,227L488,224L490,221L492,218L494,215L496,212L499,208L502,204L504,201L506,197L508,193L510,189L511,185L514,182L516,178L518,173L520,170L522,166L524,162L526,159L528,154L530,151L532,147L533,143L535,140L537,136L538,133L540,129L542,126L543,122L545,119L547,115L548,112L550,108L552,105L554,102L555,98L557,95L559,92L560,89L562,86L563,83L564,80L566,77L567,75L569,72L570,69L572,66L574,63L576,60L577,57L579,55L581,51L582,49L584,46L585,44L587,43L588,41L589,39L590,36L591,35L592,33L593,31L594,29L595,29L595,27L596,27L596,26" stroke-opacity="1" stroke-width="5" stroke-linecap="round" stroke-linejoin="round" style="-webkit-tap-highlight-color: rgba(0, 0, 0, 0); stroke-opacity: 1; stroke-linecap: round; stroke-linejoin: round; -webkit-user-select: text;"></path><path fill="none" stroke="#000000" d="M624,15L616,23L614,25L612,28L609,32L606,36L603,39L600,43L597,46L595,50L592,54L590,59L588,63L585,68L582,72L579,77L577,81L575,86L572,91L570,96L568,100L566,106L564,111L562,116L561,120L559,125L558,129L556,133L555,138L553,143L552,147L550,151L549,155L548,160L548,164L547,169L546,173L546,178L545,182L545,187L545,193L544,198L544,203L544,208L544,213L544,217L544,222L544,226L544,230L544,235L544,239L544,243L545,247L546,252L548,256L549,260L551,264L553,268L555,273L557,276L559,280L561,283L563,287L565,291L567,294L568,298L570,301L573,304L575,307L578,310L581,312L583,315L586,317L588,319L591,322L593,324L595,326L597,328L600,329L603,331L606,332L609,333L611,334L613,335L615,336L617,337L619,338L621,340L623,341L625,342L627,343L630,344L632,344L634,345L636,346L638,346L640,347L643,347L644,348L646,348L647,349L650,349L651,349L653,350L655,350L658,350L660,351L662,351L664,352L666,352L667,352L669,353L671,353L673,353L674,353L677,353L678,353L680,353L682,354L684,354L686,354L688,354L690,354L691,354L693,354L695,354L697,354L699,355L700,355L702,355L704,355L706,355L708,355L710,355L712,355L714,356L716,356L717,356L719,356L720,356L722,356L724,356L725,356L727,356L728,357L730,357L731,357L733,357L734,357L736,357L737,357L738,357L740,357L741,357L742,357L744,357L746,357L747,357L749,357L750,357L751,357" stroke-opacity="1" stroke-width="5" stroke-linecap="round" stroke-linejoin="round" style="-webkit-tap-highlight-color: rgba(0, 0, 0, 0); stroke-opacity: 1; stroke-linecap: round; stroke-linejoin: round; -webkit-user-select: text;"></path><path fill="none" stroke="#000000" d="M424,28L425,26L427,28L429,30L432,33L434,36L437,39L441,43L445,46L449,49L453,53L457,57L461,60L465,65L470,70L476,74L482,78L487,83L492,88L497,93L502,97L507,101L512,106L516,111L521,116L527,121L532,125L537,129L541,134L546,138L551,143L557,148L560,151L565,155L569,158L572,161L576,165L579,167L582,170L585,172L588,174L590,177L592,178L594,180L596,182L598,183L600,184L601,184L601,185L602,185" stroke-opacity="1" stroke-width="5" stroke-linecap="round" stroke-linejoin="round" style="-webkit-tap-highlight-color: rgba(0, 0, 0, 0); stroke-opacity: 1; stroke-linecap: round; stroke-linejoin: round; -webkit-user-select: text;"></path><path fill="none" stroke="#000000" d="M737,41L737,46L736,46L734,47L733,48L731,50L728,52L726,54L722,58L718,61L713,65L708,69L703,72L699,76L694,80L689,84L682,89L677,94L671,98L665,102L658,106L652,111L646,116L641,121L635,125L628,129L620,135L613,140L604,146L598,150L590,156L582,162L573,168L565,174L557,179L548,184L541,189L534,195L526,200L520,204L514,209L507,213L500,218L494,223L490,226L483,230L477,234L471,239L465,243L459,247L453,251L447,255L442,257L436,261L431,264L425,268L419,272L414,274L409,277L404,280L398,283L393,286L389,289L384,291L380,294L375,297L371,299L367,301L363,303L360,305L356,306L353,308L349,310L346,311L342,313L339,315L335,317L332,318L329,320L326,321L323,323L319,324L316,326L313,327L310,328L308,329L306,330L304,331L302,332L300,334L298,335L295,335L293,337L290,337L288,339L287,340L285,341L284,342L283,342L282,343L281,344L280,344L280,345" stroke-opacity="1" stroke-width="5" stroke-linecap="round" stroke-linejoin="round" style="-webkit-tap-highlight-color: rgba(0, 0, 0, 0); stroke-opacity: 1; stroke-linecap: round; stroke-linejoin: round; -webkit-user-select: text;"></path><path fill="none" stroke="#000000" d="M128,352L129,356L132,357L135,360L139,362L142,365L147,369L150,372L155,377L160,381L166,385L171,389L176,393L181,398L187,403L193,408L198,413L203,418L207,422L212,428L218,433L223,438L229,443L234,449L240,456L245,461L251,466L256,472L263,479L270,485L275,489L281,495L287,500L294,506L299,511L305,515L310,520L314,525L320,530L325,535L329,539L335,544L340,548L346,553L351,558L355,561L359,565L363,568L368,572L372,576L376,579L380,583L384,587L387,590L392,593L396,596L400,599L403,602L407,606L410,609L413,612L416,614L420,617L423,619L426,621L429,623L431,624L434,627L435,629L437,631L438,632L439,633L439,634L440,634L441,636" stroke-opacity="1" stroke-width="5" stroke-linecap="round" stroke-linejoin="round" style="-webkit-tap-highlight-color: rgba(0, 0, 0, 0); stroke-opacity: 1; stroke-linecap: round; stroke-linejoin: round; -webkit-user-select: text;"></path><path fill="none" stroke="#000000" d="M545,568L543,572L542,572L540,573L538,576L536,578L533,580L529,583L526,586L521,590L518,593L514,596L510,599L507,603L502,606L498,610L494,614L490,617L485,622L480,627L474,632L468,637L462,642L456,647L449,652L443,657L437,662L431,667L425,672L419,677L413,682L407,687L402,692L396,697L390,702L385,707L380,711L375,716L370,719L366,722L361,726L357,729L353,732L349,735L346,738L342,741L339,743L336,746L333,748L330,751L327,753L324,755L320,758L317,761L313,763L310,766L307,768L305,770L302,772L299,775L296,777L293,779L290,781L287,783L285,785L282,787L280,789L278,791L276,792L274,794L272,795L270,797L268,798L266,799L264,800L262,801L261,802L260,803L259,803L259,804L259,803L260,801" stroke-opacity="1" stroke-width="5" stroke-linecap="round" stroke-linejoin="round" style="-webkit-tap-highlight-color: rgba(0, 0, 0, 0); stroke-opacity: 1; stroke-linecap: round; stroke-linejoin: round; -webkit-user-select: text;"></path><path fill="none" stroke="#000000" d="M38,564L41,566L43,566L45,566L47,566L51,567L54,568L59,569L63,570L68,572L73,574L77,577L82,580L86,583L91,585L94,588L98,591L103,594L107,598L111,601L115,605L118,609L122,613L124,616L127,619L130,623L133,626L136,630L139,634L142,638L144,641L146,644L148,647L149,651L151,654L152,658L153,661L154,665L156,668L157,671L159,674L160,677L161,680L162,684L163,687L164,691L165,695L166,698L166,702L167,706L168,710L168,714L169,717L169,720L169,723L169,726L169,729L169,732L169,735L169,738L169,741L169,743L169,746L169,748L169,750L169,752L169,754L169,755L168,758L168,760L167,763L166,765L166,767L165,769L164,771L164,773L163,775L162,777L161,779L160,781L159,783L159,785L158,787L157,788L157,789L155,791L154,792L154,794L153,795L152,796L152,797L151,799L151,800L150,801L149,802L149,803L148,804L147,805L147,806L146,807L146,808L145,809L144,810L144,811L144,812L143,813L142,814L142,815L141,816L140,817L139,817L139,818L139,819L138,819L137,820L137,821L136,821L135,822L134,823L133,823L133,824L132,824L132,825L131,825L131,826L130,826L130,827L129,827L129,828L128,828L127,828L127,829L126,830L125,830L125,831L124,831L124,832L123,832L122,832L122,833L121,833L120,833L117,836" stroke-opacity="1" stroke-width="5" stroke-linecap="round" stroke-linejoin="round" style="-webkit-tap-highlight-color: rgba(0, 0, 0, 0); stroke-opacity: 1; stroke-linecap: round; stroke-linejoin: round; -webkit-user-select: text;"></path><path fill="none" stroke="#000000" d="M34,708L37,706L39,706L43,706L48,706L54,705L62,704L68,703L77,702L86,701L94,699L103,697L113,696L122,694L133,691L144,689L154,686L165,684L176,681L188,679L199,676L212,673L224,670L237,668L249,665L264,662L276,659L290,656L303,652L316,649L328,646L341,644L353,641L366,638L377,635L387,632L397,629L408,627L419,625L430,622L440,620L451,618L462,615L473,612L485,610L495,607L507,604L517,601L528,598L537,596L548,594L558,592L567,590L575,588L583,587L589,585L595,583L600,582L605,581L609,580L611,580L613,579L614,579L615,579L617,579" stroke-opacity="1" stroke-width="5" stroke-linecap="round" stroke-linejoin="round" style="-webkit-tap-highlight-color: rgba(0, 0, 0, 0); stroke-opacity: 1; stroke-linecap: round; stroke-linejoin: round; -webkit-user-select: text;"></path><path fill="none" stroke="#000000" d="M435,543L438,546L441,547L445,550L450,554L455,558L460,563L465,568L471,573L478,578L485,585L491,590L499,596L506,602L513,609L521,616L528,622L536,627L543,634L550,639L557,645L564,651L571,657L578,663L584,668L590,673L596,678L603,682L609,687L614,691L619,695L625,699L630,703L635,707L640,711L643,714L646,717L650,719L652,722L655,724L657,725L658,726L659,726L660,727L661,726" stroke-opacity="1" stroke-width="5" stroke-linecap="round" stroke-linejoin="round" style="-webkit-tap-highlight-color: rgba(0, 0, 0, 0); stroke-opacity: 1; stroke-linecap: round; stroke-linejoin: round; -webkit-user-select: text;"></path><path fill="none" stroke="#000000" d="M751,490L752,490L751,490L749,490L747,491L744,492L741,493L739,493L736,495L733,496L729,497L726,499L722,501L719,503L714,505L709,507L705,510L701,512L696,514L692,517L688,519L683,522L679,524L675,527L672,530L668,533L664,536L660,539L656,542L652,545L648,549L644,553L640,556L635,561L631,564L626,568L623,571L618,576L615,580L611,584L606,589L602,592L598,596L595,600L592,604L590,608L587,611L585,615L582,618L579,621L577,624L575,627L572,631L570,635L568,638L566,641L565,644L563,648L561,651L559,654L558,658L555,661L554,664L552,667L550,669L549,672L548,674L547,677L546,679L545,682L544,685L543,687L543,690L542,692L541,694L541,695L540,697L540,699L539,701L539,702L538,704L538,706L538,708L537,710L537,712L537,714L537,715L537,716L536,718L536,719L536,721L536,722L536,724L535,725L535,726L535,728L534,729L534,731L534,732L534,733L533,735L533,736L533,738L533,739L533,741L533,742L533,743L533,745L533,746L533,748L533,749L532,751L532,752L532,754L532,755L532,757L532,758L532,760L532,761L532,763L532,764L532,765L532,767L532,768L532,769L532,771L532,772L532,773L532,775L532,776L532,777L532,778L532,780L532,781L532,782L532,783L532,784L533,785L533,787L533,789L534,790L534,792L535,794L535,795L536,796L536,797L536,798L536,799L536,800L537,801L537,802L537,803L538,804L538,805L538,806L539,807L539,808L540,809L540,810L541,811L542,812L542,813L543,814L543,815L544,816L544,817L545,818L545,819L545,820L546,820L546,821L547,822L547,823L548,823L548,824L548,825L548,826L549,826L550,826L551,829" stroke-opacity="1" stroke-width="5" stroke-linecap="round" stroke-linejoin="round" style="-webkit-tap-highlight-color: rgba(0, 0, 0, 0); stroke-opacity: 1; stroke-linecap: round; stroke-linejoin: round; -webkit-user-select: text;"></path><path fill="none" stroke="#000000" d="M536,486L540,495L543,499L546,505L550,511L554,517L558,524L562,532L565,539L570,546L574,555L579,564L584,573L589,582L593,591L597,600L601,608L606,617L611,627L616,636L621,646L626,655L631,664L637,673L642,684L646,694L651,704L656,714L661,723L666,731L669,739L673,747L676,756L680,764L684,772L688,781L692,792L698,809L708,838" stroke-opacity="1" stroke-width="5" stroke-linecap="round" stroke-linejoin="round" style="-webkit-tap-highlight-color: rgba(0, 0, 0, 0); stroke-opacity: 1; stroke-linecap: round; stroke-linejoin: round; -webkit-user-select: text;"></path></svg>