<svg height="906" version="1.1" width="768" xmlns="http://www.w3.org/2000/svg" xmlns:xlink="http://www.w3.org/1999/xlink" style="overflow: hidden; position: relative; -webkit-user-select: text;"><desc style="-webkit-tap-highlight-color: rgba(0, 0, 0, 0); -webkit-user-select: text;">Created with Raphaël 2.2.0</desc><defs style="-webkit-tap-highlight-color: rgba(0, 0, 0, 0); -webkit-user-select: text;"></defs><path fill="none" stroke="#000000" d="M176,557L189,550L193,548L197,545L202,542L206,538L211,536L216,533L222,530L227,527L232,524L238,521L242,518L247,516L252,512L258,509L264,506L270,502L275,499L280,496L287,493L292,491L298,489L304,485L310,482L317,479L323,477L329,474L336,471L342,468L349,465L355,462L361,460L366,457L372,455L378,453L383,452L389,450L395,448L400,447L405,445L411,443L417,441L422,439L428,437L434,435L440,433L446,431L452,429L457,428L462,427L467,426L471,425L475,424L478,423L482,423L485,422L487,421L491,421L494,420L497,418L499,418L503,417L506,416L510,415L514,413L518,413L522,411L526,411L529,410L533,409L536,409L540,408L543,407L546,407L549,407L551,406L553,406L555,406L557,406L558,405L560,405L562,405L563,404L564,404L566,404L567,404L569,404L571,404L573,404" stroke-opacity="1" stroke-width="5" stroke-linecap="round" stroke-linejoin="round" style="-webkit-tap-highlight-color: rgba(0, 0, 0, 0); stroke-opacity: 1; stroke-linecap: round; stroke-linejoin: round; -webkit-user-select: text;"></path><path fill="none" stroke="#000000" d="M451,435L434,445L431,445L428,447L425,449L422,451L419,452L415,454L410,456L405,458L400,460L395,462L391,465L386,467L381,470L376,472L371,474L366,477L362,478L358,480L353,482L348,484L343,486L339,489L334,492L329,494L324,497L318,499L313,502L308,503L303,506L298,508L293,510L287,512L281,515L276,517L271,520L265,522L261,524L256,526L251,528L248,530L244,532L240,533L237,535L234,537L232,538L230,540L228,541L227,542L225,543L223,544L222,545L220,546L217,548L215,549L212,551L210,552L207,554L205,556L202,557L200,559L198,560L195,561L193,562L191,564L189,565L187,566L185,568L183,569L181,570L179,572L177,574L176,575L174,577L172,579L170,580L169,581L168,582L167,582L166,583L164,583L164,582L166,581L167,580L169,578L172,576L175,572L179,568L184,563L189,559L194,554L197,550L202,545L206,540L210,536L215,533L219,529L223,525L227,521L231,518L235,514L239,511L243,507L247,504L250,502L253,499L256,496L259,494L263,491L267,488L271,486L275,484L278,482L282,479L286,477L290,474L295,472L298,470L302,467L306,465L310,463L313,462L317,460L319,458L323,457L326,456L329,455L332,453L336,451L339,450L343,448L347,446L351,445L354,443L358,441L361,440L364,439L368,438L371,436L375,435L378,434L381,433L384,432L387,431L390,431L393,430L396,428L399,428L402,427L404,426L407,426L409,425L411,424L413,424L415,423L417,422L419,422L421,421L424,421L426,420L429,419L431,419L434,418L436,417L439,416L441,416L443,414L446,413L448,413L451,412L453,411L455,411L457,410L459,409L461,409L463,408L464,408L465,407L467,406L468,406L469,406L470,405L472,404L473,404L474,403L475,402L477,401L478,401L479,401L480,400L481,400L482,400L481,400L479,400L476,401L472,404L468,406L463,409L459,411L455,414L450,416L446,419L442,422L438,425L435,428L431,430L429,433L426,435L423,438L420,440L418,443L415,446L413,449L411,451L407,453L404,456L400,459L397,461L393,464L390,467L387,470L384,472L382,474L379,477L376,478L374,480L371,482L369,484L366,485L364,487L362,489L360,491L358,494L355,496L353,498L351,500L348,502L346,503L343,505L340,507L337,509L334,511L331,514L328,516L326,518L323,520L320,521L317,523L315,525L312,527L309,528L306,530L304,533L301,534L298,536L295,537L292,540L289,541L286,542L283,544L281,545L278,546L276,548L273,550L270,551L267,552L265,553L262,554L259,556L256,557L253,559L250,562L247,564L244,567" stroke-opacity="1" stroke-width="5" stroke-linecap="round" stroke-linejoin="round" style="-webkit-tap-highlight-color: rgba(0, 0, 0, 0); stroke-opacity: 1; stroke-linecap: round; stroke-linejoin: round; -webkit-user-select: text;"></path><path fill="none" stroke="#000000" d="M207,582L216,565L219,562L223,557L226,554L229,552L234,549L238,547L244,543L249,539L255,534L261,530L267,525L273,522L277,519L283,516L287,513L293,510L298,508L302,505L307,503L312,501L316,499L321,497L325,495L329,493L334,491L337,489L343,486L347,484L351,483L356,481L361,479L365,478L370,476L373,474L378,473L381,471L385,469L387,468L390,467L393,465L397,464L400,463L403,462L406,461L409,460L413,458L417,457L421,456L426,454L431,452L435,450L439,448L443,447L447,445L450,445L453,444L456,443L459,442L461,441L464,440L466,439L468,438L471,438L473,436L475,435L477,433L480,432L483,431L485,430L488,429L490,428L492,428L494,426L496,425L499,424L502,423L505,421L509,420L513,419L516,418" stroke-opacity="1" stroke-width="5" stroke-linecap="round" stroke-linejoin="round" style="-webkit-tap-highlight-color: rgba(0, 0, 0, 0); stroke-opacity: 1; stroke-linecap: round; stroke-linejoin: round; -webkit-user-select: text;"></path><path fill="none" stroke="#000000" d="M521,417L534,413L531,413L528,416L525,417L521,419L518,422L514,425L509,428L505,431L501,434L497,437L493,439L490,442L487,444L484,446L481,448L478,450L475,452L473,455L470,457L468,459L465,461L462,463L459,465L456,468L453,470L451,472L448,474L446,476L443,478L440,480L437,482L434,484L431,486L427,488L423,491L419,492L414,495L410,497L406,499L402,501L399,502L395,503L392,505L388,506L384,507L381,508L378,510L374,510L371,511L368,511L364,511L361,512L357,513L353,514L350,515L346,516L341,516L338,517L334,518L331,518L328,518L324,519L320,519L317,519L312,519L309,519L305,519L301,520L297,520L293,520L289,520L286,521L282,521" stroke-opacity="1" stroke-width="5" stroke-linecap="round" stroke-linejoin="round" style="-webkit-tap-highlight-color: rgba(0, 0, 0, 0); stroke-opacity: 1; stroke-linecap: round; stroke-linejoin: round; -webkit-user-select: text;"></path><path fill="none" stroke="#000000" d="M164,491L174,483L178,481L182,480L186,480L190,479L193,479L198,479L202,479L206,479L212,479L217,479L222,479L228,479L234,478L240,477L246,474L252,473L258,471L264,469L270,467L276,464L281,462L287,460L294,457L299,455L305,452L311,448L317,445L322,441L328,438L333,434L338,431L344,428L349,426L353,423L358,421L362,418L367,416L371,415L376,412L381,411L386,408L391,406L396,404L401,402L404,401L409,399L412,397L417,396L421,394L425,393L429,392L433,392L436,391L440,390L444,389L447,389L451,389L454,389L458,389L460,389L463,389L466,389L468,389L471,389L474,390L476,390L479,391L482,392L485,393L487,393L490,394L492,395L494,395L497,396L499,396L502,397L504,398L507,399L509,399L511,399L513,400L515,400L517,400L519,400L521,400L524,400L526,400L529,400L531,400L533,400L536,400L538,400L541,400L543,399L545,398L548,397L550,396L552,395L555,394L557,392L560,391L562,389L565,387L567,385L570,383L572,381L574,378L576,375L577,372L579,369L581,366" stroke-opacity="1" stroke-width="5" stroke-linecap="round" stroke-linejoin="round" style="-webkit-tap-highlight-color: rgba(0, 0, 0, 0); stroke-opacity: 1; stroke-linecap: round; stroke-linejoin: round; -webkit-user-select: text;"></path><path fill="none" stroke="#000000" d="M193,425L200,420L204,420L209,420L214,420L220,420L225,420L231,420L237,420L244,420L249,419L256,419L262,419L269,419L275,419L282,419L288,418L295,418L300,418L307,418L313,417L319,416L325,416L331,414L336,412L342,410L349,407L354,405L360,403L367,400L372,398L378,396L383,394L389,393L394,392L399,390L404,388L408,387L412,386L417,384L421,383L425,382L430,381L434,380L438,379L442,378L446,377L451,376L455,376L463,375L468,375L472,374L476,374L481,374L485,374L489,374L493,374L498,374L502,374L507,374L511,374L515,374L519,374L524,374L528,374L532,375L536,375L541,375L544,375L548,375L553,375L557,375L560,375L564,374L568,373L571,372L575,371L578,371L581,370L584,369L587,368L591,367L594,365L597,363L601,360L606,357L611,353L616,348L621,343L625,339L628,336" stroke-opacity="1" stroke-width="5" stroke-linecap="round" stroke-linejoin="round" style="-webkit-tap-highlight-color: rgba(0, 0, 0, 0); stroke-opacity: 1; stroke-linecap: round; stroke-linejoin: round; -webkit-user-select: text;"></path><path fill="none" stroke="#000000" d="M616,297L606,302L601,305L595,309L590,313L584,318L579,323L573,328L568,333L562,339L555,345L549,352L544,357L539,363L534,369L529,375L525,381L520,387" stroke-opacity="1" stroke-width="5" stroke-linecap="round" stroke-linejoin="round" style="-webkit-tap-highlight-color: rgba(0, 0, 0, 0); stroke-opacity: 1; stroke-linecap: round; stroke-linejoin: round; -webkit-user-select: text;"></path><path fill="none" stroke="#000000" d="M208,314L207,313L212,309L218,306L225,302L233,298L241,294" stroke-opacity="1" stroke-width="5" stroke-linecap="round" stroke-linejoin="round" style="-webkit-tap-highlight-color: rgba(0, 0, 0, 0); stroke-opacity: 1; stroke-linecap: round; stroke-linejoin: round; -webkit-user-select: text;"></path><path fill="none" stroke="#000000" d="M413,474L428,467L431,467L434,467L438,466" stroke-opacity="1" stroke-width="5" stroke-linecap="round" stroke-linejoin="round" style="-webkit-tap-highlight-color: rgba(0, 0, 0, 0); stroke-opacity: 1; stroke-linecap: round; stroke-linejoin: round; -webkit-user-select: text;"></path><path fill="none" stroke="#000000" d="M635,194L627,197L623,197L619,199L614,200L608,202L602,204L597,205L591,207L584,210L577,212L572,214L565,216L559,219L552,221L545,224L540,226L533,229L526,231L520,234L513,236L506,239L499,241L494,243L488,246L484,247L479,248" stroke-opacity="1" stroke-width="5" stroke-linecap="round" stroke-linejoin="round" style="-webkit-tap-highlight-color: rgba(0, 0, 0, 0); stroke-opacity: 1; stroke-linecap: round; stroke-linejoin: round; -webkit-user-select: text;"></path><path fill="none" stroke="#000000" d="M305,318L298,321L293,323L289,326L284,329L279,332L273,335L268,337L262,339L258,341L254,343L250,345L246,347L243,348L240,350L238,350L235,351L234,352L232,353L231,353L229,353L227,353" stroke-opacity="1" stroke-width="5" stroke-linecap="round" stroke-linejoin="round" style="-webkit-tap-highlight-color: rgba(0, 0, 0, 0); stroke-opacity: 1; stroke-linecap: round; stroke-linejoin: round; -webkit-user-select: text;"></path><path fill="none" stroke="#000000" d="M157,620L161,616L163,613L166,610L169,608L174,604L178,601L183,598L189,595L194,593L200,590L205,587L211,586L216,584L221,582L225,581L230,580L235,579L241,577L245,576L250,574L256,573L261,571L266,570L272,569L278,567L283,566L288,564L293,563L298,562L303,561L308,559L314,559" stroke-opacity="1" stroke-width="5" stroke-linecap="round" stroke-linejoin="round" style="-webkit-tap-highlight-color: rgba(0, 0, 0, 0); stroke-opacity: 1; stroke-linecap: round; stroke-linejoin: round; -webkit-user-select: text;"></path><path fill="none" stroke="#000000" d="M407,288L418,288L424,288L429,288L434,287L441,287L447,286L453,285L457,285L462,284L467,283L472,282L476,282L480,282L484,282L487,282L490,282L493,281L497,280L501,280L504,280L508,280L511,280L514,280L517,280L521,279L525,279" stroke-opacity="1" stroke-width="5" stroke-linecap="round" stroke-linejoin="round" style="-webkit-tap-highlight-color: rgba(0, 0, 0, 0); stroke-opacity: 1; stroke-linecap: round; stroke-linejoin: round; -webkit-user-select: text;"></path><path fill="none" stroke="#000000" d="M450,528L468,525L472,525L477,525L481,525L485,525L488,525L492,525L494,525L497,525L499,525L501,525L503,525L504,525L506,525L507,525L509,525L510,524L511,524L512,523L514,523L515,522L516,522L517,522L518,521L519,520L520,520" stroke-opacity="1" stroke-width="5" stroke-linecap="round" stroke-linejoin="round" style="-webkit-tap-highlight-color: rgba(0, 0, 0, 0); stroke-opacity: 1; stroke-linecap: round; stroke-linejoin: round; -webkit-user-select: text;"></path><path fill="none" stroke="#000000" d="M621,268L611,272L608,272L605,273L601,275L597,276L593,278L587,280L580,282L574,284L568,285L562,288L556,290L550,292L545,294L540,295L536,297L531,299L526,300L521,302L517,304L513,306L509,307L503,309L498,310L491,312" stroke-opacity="1" stroke-width="5" stroke-linecap="round" stroke-linejoin="round" style="-webkit-tap-highlight-color: rgba(0, 0, 0, 0); stroke-opacity: 1; stroke-linecap: round; stroke-linejoin: round; -webkit-user-select: text;"></path><path fill="none" stroke="#000000" d="M408,574L389,579L385,579L381,581L377,581L373,583L370,584L366,586L362,588L358,590L355,593" stroke-opacity="1" stroke-width="5" stroke-linecap="round" stroke-linejoin="round" style="-webkit-tap-highlight-color: rgba(0, 0, 0, 0); stroke-opacity: 1; stroke-linecap: round; stroke-linejoin: round; -webkit-user-select: text;"></path><path fill="none" stroke="#000000" d="M178,668L184,666L186,665L189,664L192,662L195,660L198,659L201,658L204,657L207,656L210,654L214,653L217,652L221,651L225,650L228,648L232,647L235,646L238,644L241,643" stroke-opacity="1" stroke-width="5" stroke-linecap="round" stroke-linejoin="round" style="-webkit-tap-highlight-color: rgba(0, 0, 0, 0); stroke-opacity: 1; stroke-linecap: round; stroke-linejoin: round; -webkit-user-select: text;"></path><path fill="none" stroke="#000000" d="M368,603L383,604L386,604L390,604L394,604L397,604L401,604L405,604L409,604L413,604L417,604L420,604L424,604L427,604L430,604L434,604L436,604L439,604L443,604L446,604L449,604" stroke-opacity="1" stroke-width="5" stroke-linecap="round" stroke-linejoin="round" style="-webkit-tap-highlight-color: rgba(0, 0, 0, 0); stroke-opacity: 1; stroke-linecap: round; stroke-linejoin: round; -webkit-user-select: text;"></path><path fill="none" stroke="#000000" d="M541,617L529,620L525,620L521,621L519,623L515,624L512,625L509,627L506,627L503,629L500,631L497,632L494,634L492,635L490,636L487,637L485,638L483,638L481,640L480,640L477,642L475,643L472,644L469,646L466,650" stroke-opacity="1" stroke-width="5" stroke-linecap="round" stroke-linejoin="round" style="-webkit-tap-highlight-color: rgba(0, 0, 0, 0); stroke-opacity: 1; stroke-linecap: round; stroke-linejoin: round; -webkit-user-select: text;"></path><path fill="none" stroke="#000000" d="M577,383L567,392L564,393L560,395L555,397L550,399L545,401L539,403L534,404L528,406L524,408L519,409L515,411L511,412L507,413L503,415L500,416L497,416L495,417L492,418L490,419L487,421L484,422L481,423L479,425L476,426L473,427L470,428L468,430L465,431L461,432L456,432" stroke-opacity="1" stroke-width="5" stroke-linecap="round" stroke-linejoin="round" style="-webkit-tap-highlight-color: rgba(0, 0, 0, 0); stroke-opacity: 1; stroke-linecap: round; stroke-linejoin: round; -webkit-user-select: text;"></path><path fill="none" stroke="#000000" d="M333,725L327,728L324,728L321,729L317,730L314,732L310,733L306,735L302,737L300,739L297,741L294,743L292,744L290,745L288,746L287,748L285,749L283,750L281,751L279,752L277,753L274,754L272,756L269,757L266,759" stroke-opacity="1" stroke-width="5" stroke-linecap="round" stroke-linejoin="round" style="-webkit-tap-highlight-color: rgba(0, 0, 0, 0); stroke-opacity: 1; stroke-linecap: round; stroke-linejoin: round; -webkit-user-select: text;"></path><path fill="none" stroke="#000000" d="M120,418L127,417L135,417L144,416L154,415L166,413L174,412L184,412L194,411L201,411L211,410L220,409L227,409L234,408L242,408L249,407L256,406L264,406L271,404L278,403L284,401L291,400L298,399L304,399L310,397L318,395" stroke-opacity="1" stroke-width="5" stroke-linecap="round" stroke-linejoin="round" style="-webkit-tap-highlight-color: rgba(0, 0, 0, 0); stroke-opacity: 1; stroke-linecap: round; stroke-linejoin: round; -webkit-user-select: text;"></path><path fill="none" stroke="#000000" d="M289,671L292,670L296,670L300,669L304,669L308,667L312,666L316,666L320,664L324,664L329,662L333,662L337,661L341,660L344,659L347,658L351,658L353,657L356,656L359,655L363,655L365,654L368,654L370,653L373,653L375,652L378,652L381,652L384,651L387,651" stroke-opacity="1" stroke-width="5" stroke-linecap="round" stroke-linejoin="round" style="-webkit-tap-highlight-color: rgba(0, 0, 0, 0); stroke-opacity: 1; stroke-linecap: round; stroke-linejoin: round; -webkit-user-select: text;"></path><path fill="none" stroke="#000000" d="M485,372L491,372L496,372L502,372L507,372L513,372L518,372L525,372L530,372L536,372L541,372L546,372L551,372L556,372L561,372L566,372L571,372L577,372L582,372L587,372L592,373L596,373L601,373L606,374L611,374L615,375L619,375L623,375L628,375L632,376L636,376L640,377L643,377L649,377" stroke-opacity="1" stroke-width="5" stroke-linecap="round" stroke-linejoin="round" style="-webkit-tap-highlight-color: rgba(0, 0, 0, 0); stroke-opacity: 1; stroke-linecap: round; stroke-linejoin: round; -webkit-user-select: text;"></path><path fill="none" stroke="#000000" d="M548,608L554,606L556,606L558,605L561,604L564,603L567,603L571,602L575,601L579,600L584,599L589,598L592,597L596,596L599,596L601,595L603,595L605,594L606,593L608,593L609,593L611,592L612,591L613,591L615,590L617,590L618,589L621,589" stroke-opacity="1" stroke-width="5" stroke-linecap="round" stroke-linejoin="round" style="-webkit-tap-highlight-color: rgba(0, 0, 0, 0); stroke-opacity: 1; stroke-linecap: round; stroke-linejoin: round; -webkit-user-select: text;"></path><path fill="none" stroke="#000000" d="M684,387L677,391L669,393L661,395L653,398L645,401L634,404L626,406L618,409L609,411L601,413L593,416L584,418L576,421L568,424L562,426L555,428L548,431L543,433L538,435L531,437L525,438L520,440L516,441L511,442L505,444L498,445L490,447" stroke-opacity="1" stroke-width="5" stroke-linecap="round" stroke-linejoin="round" style="-webkit-tap-highlight-color: rgba(0, 0, 0, 0); stroke-opacity: 1; stroke-linecap: round; stroke-linejoin: round; -webkit-user-select: text;"></path><path fill="none" stroke="#000000" d="M399,694L394,696L390,697L385,699L380,701L376,703L371,705L367,708L363,710L358,712L355,714L351,716L348,717L344,720L341,721L337,723L334,725L330,727L327,728L324,730L321,731L318,732L316,734L312,735L308,737L304,739L300,741L296,742L291,745L287,748L282,751" stroke-opacity="1" stroke-width="5" stroke-linecap="round" stroke-linejoin="round" style="-webkit-tap-highlight-color: rgba(0, 0, 0, 0); stroke-opacity: 1; stroke-linecap: round; stroke-linejoin: round; -webkit-user-select: text;"></path><path fill="none" stroke="#000000" d="M149,775L137,773L134,773L131,773L128,773L125,773L121,772L117,771L113,771L109,770L105,770L101,769L96,768L92,767L88,766" stroke-opacity="1" stroke-width="5" stroke-linecap="round" stroke-linejoin="round" style="-webkit-tap-highlight-color: rgba(0, 0, 0, 0); stroke-opacity: 1; stroke-linecap: round; stroke-linejoin: round; -webkit-user-select: text;"></path><path fill="none" stroke="#000000" d="M81,431L91,424L96,421L101,419L109,417L117,414L126,411L137,408L147,404L157,400L168,396L178,392L189,389L200,386L210,382L220,380L228,377L236,375L244,373L250,371L256,370L264,367L270,366L276,364L283,362L290,361L297,360L303,358L309,357L317,354L327,348" stroke-opacity="1" stroke-width="5" stroke-linecap="round" stroke-linejoin="round" style="-webkit-tap-highlight-color: rgba(0, 0, 0, 0); stroke-opacity: 1; stroke-linecap: round; stroke-linejoin: round; -webkit-user-select: text;"></path><path fill="none" stroke="#000000" d="M259,625L263,625L268,624L272,621L276,619L281,617L285,615L289,614L293,612L298,611L302,610L307,609L312,608L316,606L321,605L326,603L331,602L337,600L342,598L348,597L353,595L358,593L362,592L367,591L371,590L375,589L379,588L384,588" stroke-opacity="1" stroke-width="5" stroke-linecap="round" stroke-linejoin="round" style="-webkit-tap-highlight-color: rgba(0, 0, 0, 0); stroke-opacity: 1; stroke-linecap: round; stroke-linejoin: round; -webkit-user-select: text;"></path><path fill="none" stroke="#000000" d="M685,290L673,295L670,296L666,299L662,301L659,303L655,305L652,307L648,308L645,310L643,311L640,313L636,314L633,316L629,317L625,319L621,320L618,322L614,324L610,325L606,327L602,328L599,330L595,331L592,332L588,333L584,334L579,335L575,336L570,337L561,338" stroke-opacity="1" stroke-width="5" stroke-linecap="round" stroke-linejoin="round" style="-webkit-tap-highlight-color: rgba(0, 0, 0, 0); stroke-opacity: 1; stroke-linecap: round; stroke-linejoin: round; -webkit-user-select: text;"></path><path fill="none" stroke="#000000" d="M482,588L477,591L473,592L468,593L463,594L459,596L453,597L448,599L442,601L436,603L431,605L426,607L421,609L415,611L410,613L404,616L399,618L393,620L387,623L382,625L376,627L372,628L367,630L363,632L359,632L356,634L353,635L349,636L346,637L344,638L340,639L336,640L331,642L327,646" stroke-opacity="1" stroke-width="5" stroke-linecap="round" stroke-linejoin="round" style="-webkit-tap-highlight-color: rgba(0, 0, 0, 0); stroke-opacity: 1; stroke-linecap: round; stroke-linejoin: round; -webkit-user-select: text;"></path><path fill="none" stroke="#000000" d="M365,385L358,390L354,390L350,390L345,392L341,392L336,394L331,396L325,397L320,399L315,401L311,402L306,404L302,405L298,406L293,408L289,409L285,410L281,411L278,413L274,414L270,415L266,416L260,418" stroke-opacity="1" stroke-width="5" stroke-linecap="round" stroke-linejoin="round" style="-webkit-tap-highlight-color: rgba(0, 0, 0, 0); stroke-opacity: 1; stroke-linecap: round; stroke-linejoin: round; -webkit-user-select: text;"></path><path fill="none" stroke="#000000" d="M206,700L198,703L195,703L192,703L189,704L186,705L183,707L179,709L176,711L173,713L169,715L166,717L163,719L159,721L156,722L153,724L151,725L148,726L145,727L142,727L139,729L136,729L133,731L130,731L127,732L124,733L121,734L117,734L114,735L110,736L106,737L102,739L97,741" stroke-opacity="1" stroke-width="5" stroke-linecap="round" stroke-linejoin="round" style="-webkit-tap-highlight-color: rgba(0, 0, 0, 0); stroke-opacity: 1; stroke-linecap: round; stroke-linejoin: round; -webkit-user-select: text;"></path><path fill="none" stroke="#000000" d="M62,494L66,495L70,494L76,492L84,489L91,486L99,482L108,479L116,476L123,474L132,472L140,469L148,467L156,465L164,462L171,460L177,456L184,453L192,450L198,448L205,447L212,445L220,443L225,441L231,440L237,439L244,438L249,436L255,435L261,433L268,431L275,427" stroke-opacity="1" stroke-width="5" stroke-linecap="round" stroke-linejoin="round" style="-webkit-tap-highlight-color: rgba(0, 0, 0, 0); stroke-opacity: 1; stroke-linecap: round; stroke-linejoin: round; -webkit-user-select: text;"></path><path fill="none" stroke="#000000" d="M254,666L263,661L268,660L273,658L278,656L283,653L289,651L294,649L300,647L307,644L312,642L318,640L324,637L330,635L335,633L340,631L346,630L351,627L356,625L362,623L367,621L372,619L377,617L382,615L387,613L392,612L397,610L402,608L407,607L412,606L417,603L421,601L426,599L431,597L436,595L441,593L445,591L449,590L454,589" stroke-opacity="1" stroke-width="5" stroke-linecap="round" stroke-linejoin="round" style="-webkit-tap-highlight-color: rgba(0, 0, 0, 0); stroke-opacity: 1; stroke-linecap: round; stroke-linejoin: round; -webkit-user-select: text;"></path><path fill="none" stroke="#000000" d="M519,358L527,358L531,358L536,358L541,357L547,354L554,352L559,350L565,348L571,346L577,345L583,344L587,343L593,342L599,341L605,341L609,340L613,339L618,339L621,338L625,338L628,338L632,338L635,338L638,337L641,336L646,333" stroke-opacity="1" stroke-width="5" stroke-linecap="round" stroke-linejoin="round" style="-webkit-tap-highlight-color: rgba(0, 0, 0, 0); stroke-opacity: 1; stroke-linecap: round; stroke-linejoin: round; -webkit-user-select: text;"></path><path fill="none" stroke="#000000" d="M571,558L580,554L586,552L590,550L593,549L598,547L604,544L609,541L614,539L620,537L626,535L630,533L635,531L640,530L645,528L649,527L653,526L657,524L662,523L667,521L672,519L677,517L682,515L688,513L695,510L701,507L708,504L715,500L722,496L729,496" stroke-opacity="1" stroke-width="5" stroke-linecap="round" stroke-linejoin="round" style="-webkit-tap-highlight-color: rgba(0, 0, 0, 0); stroke-opacity: 1; stroke-linecap: round; stroke-linejoin: round; -webkit-user-select: text;"></path><path fill="none" stroke="#000000" d="M728,320L724,320L720,320L716,321L711,323L705,326L698,329L691,332L684,335L678,337L672,339L666,341L660,343L655,345L651,346L647,348L643,350L639,352L634,353L629,355L626,356L621,358L618,359L613,361" stroke-opacity="1" stroke-width="5" stroke-linecap="round" stroke-linejoin="round" style="-webkit-tap-highlight-color: rgba(0, 0, 0, 0); stroke-opacity: 1; stroke-linecap: round; stroke-linejoin: round; -webkit-user-select: text;"></path><path fill="none" stroke="#000000" d="M496,399L487,406L484,406L479,408L474,410L469,411L463,413L458,415L452,416L446,418L441,420L436,421L431,423L426,425L421,426L417,428L410,429" stroke-opacity="1" stroke-width="5" stroke-linecap="round" stroke-linejoin="round" style="-webkit-tap-highlight-color: rgba(0, 0, 0, 0); stroke-opacity: 1; stroke-linecap: round; stroke-linejoin: round; -webkit-user-select: text;"></path><path fill="none" stroke="#000000" d="M317,661L312,664L308,664L305,666L301,668L297,670L292,673L287,676L281,678L276,682L271,686L266,689L261,692L257,695L255,701" stroke-opacity="1" stroke-width="5" stroke-linecap="round" stroke-linejoin="round" style="-webkit-tap-highlight-color: rgba(0, 0, 0, 0); stroke-opacity: 1; stroke-linecap: round; stroke-linejoin: round; -webkit-user-select: text;"></path><path fill="none" stroke="#000000" d="M278,461L262,467L258,467L253,468L247,470L241,471L234,473L227,475L220,477L212,479L204,481" stroke-opacity="1" stroke-width="5" stroke-linecap="round" stroke-linejoin="round" style="-webkit-tap-highlight-color: rgba(0, 0, 0, 0); stroke-opacity: 1; stroke-linecap: round; stroke-linejoin: round; -webkit-user-select: text;"></path><path fill="none" stroke="#000000" d="M140,748L132,751L128,751L122,754L116,757" stroke-opacity="1" stroke-width="5" stroke-linecap="round" stroke-linejoin="round" style="-webkit-tap-highlight-color: rgba(0, 0, 0, 0); stroke-opacity: 1; stroke-linecap: round; stroke-linejoin: round; -webkit-user-select: text;"></path><path fill="none" stroke="#000000" d="M94,499L98,499L102,499L107,498L113,496L119,494L127,492L137,489L144,486L153,482L161,479L167,476L173,474L179,472L185,471" stroke-opacity="1" stroke-width="5" stroke-linecap="round" stroke-linejoin="round" style="-webkit-tap-highlight-color: rgba(0, 0, 0, 0); stroke-opacity: 1; stroke-linecap: round; stroke-linejoin: round; -webkit-user-select: text;"></path><path fill="none" stroke="#000000" d="M645,189L633,189L621,190L609,192L595,196L581,200L569,203L553,206L541,209L528,211L516,213L505,215L493,216" stroke-opacity="1" stroke-width="5" stroke-linecap="round" stroke-linejoin="round" style="-webkit-tap-highlight-color: rgba(0, 0, 0, 0); stroke-opacity: 1; stroke-linecap: round; stroke-linejoin: round; -webkit-user-select: text;"></path><path fill="none" stroke="#000000" d="M386,444L380,444L372,444L364,444L356,445L348,447L341,448L334,450L326,451L319,454" stroke-opacity="1" stroke-width="5" stroke-linecap="round" stroke-linejoin="round" style="-webkit-tap-highlight-color: rgba(0, 0, 0, 0); stroke-opacity: 1; stroke-linecap: round; stroke-linejoin: round; -webkit-user-select: text;"></path><path fill="none" stroke="#000000" d="M344,227L335,227L330,227L324,227L318,229L312,230L305,231L298,233L292,234L285,234L279,236L272,236L266,237L260,237L254,238L249,238L241,239" stroke-opacity="1" stroke-width="5" stroke-linecap="round" stroke-linejoin="round" style="-webkit-tap-highlight-color: rgba(0, 0, 0, 0); stroke-opacity: 1; stroke-linecap: round; stroke-linejoin: round; -webkit-user-select: text;"></path><path fill="none" stroke="#000000" d="M115,260L110,260L108,260L106,260L105,260L104,260L104,259" stroke-opacity="1" stroke-width="5" stroke-linecap="round" stroke-linejoin="round" style="-webkit-tap-highlight-color: rgba(0, 0, 0, 0); stroke-opacity: 1; stroke-linecap: round; stroke-linejoin: round; -webkit-user-select: text;"></path><path fill="none" stroke="#000000" d="M173,163L183,163L190,163L196,163L203,163L211,163L218,163L225,162L231,161L239,161L245,160L252,159L263,157L273,153" stroke-opacity="1" stroke-width="5" stroke-linecap="round" stroke-linejoin="round" style="-webkit-tap-highlight-color: rgba(0, 0, 0, 0); stroke-opacity: 1; stroke-linecap: round; stroke-linejoin: round; -webkit-user-select: text;"></path><path fill="none" stroke="#000000" d="M196,251L203,251L208,251L213,251L220,251L225,250L231,248L237,246L242,245L247,244L251,243L256,241L262,241L268,239L273,238L278,237L283,236L290,235" stroke-opacity="1" stroke-width="5" stroke-linecap="round" stroke-linejoin="round" style="-webkit-tap-highlight-color: rgba(0, 0, 0, 0); stroke-opacity: 1; stroke-linecap: round; stroke-linejoin: round; -webkit-user-select: text;"></path><path fill="none" stroke="#000000" d="M358,149L366,146L373,145L382,144L391,143L400,142L407,141L414,141L422,140L429,140L434,139L440,139L446,139L451,138L455,138L460,137L465,137L472,135L482,131" stroke-opacity="1" stroke-width="5" stroke-linecap="round" stroke-linejoin="round" style="-webkit-tap-highlight-color: rgba(0, 0, 0, 0); stroke-opacity: 1; stroke-linecap: round; stroke-linejoin: round; -webkit-user-select: text;"></path><path fill="none" stroke="#000000" d="M415,208L422,208L427,208L431,208L436,208L443,208L450,208L456,208L463,208L472,207L480,206L486,205L495,204L503,202L510,201L517,200L524,199L531,198L537,197L543,195L549,195L554,194L559,194L563,193L567,192L572,192L577,190" stroke-opacity="1" stroke-width="5" stroke-linecap="round" stroke-linejoin="round" style="-webkit-tap-highlight-color: rgba(0, 0, 0, 0); stroke-opacity: 1; stroke-linecap: round; stroke-linejoin: round; -webkit-user-select: text;"></path><path fill="none" stroke="#000000" d="M669,140L663,136L657,136L651,136L644,137L635,138L626,139L617,141L608,142L599,144L590,145L580,147L571,149L561,150L551,152L543,153L534,154L527,155L520,156L515,156L509,157L504,157L498,158L493,158L488,160L482,161L478,162L473,163L468,164L464,166L459,167L455,168L450,168L445,169L441,170L436,170L432,170L427,171L421,172L416,172L411,173L404,175L398,176L391,178L385,179L378,181L371,182L364,183L356,185L346,186L334,189L318,194L301,201" stroke-opacity="1" stroke-width="5" stroke-linecap="round" stroke-linejoin="round" style="-webkit-tap-highlight-color: rgba(0, 0, 0, 0); stroke-opacity: 1; stroke-linecap: round; stroke-linejoin: round; -webkit-user-select: text;"></path></svg>