<svg height="906" version="1.1" width="768" xmlns="http://www.w3.org/2000/svg" xmlns:xlink="http://www.w3.org/1999/xlink" style="overflow: hidden; position: relative; -webkit-user-select: text;"><desc style="-webkit-tap-highlight-color: rgba(0, 0, 0, 0); -webkit-user-select: text;">Created with Raphaël 2.2.0</desc><defs style="-webkit-tap-highlight-color: rgba(0, 0, 0, 0); -webkit-user-select: text;"></defs><path fill="none" stroke="#000000" d="M91,25L97,31L97,34L97,36L99,39L100,42L102,45L104,49L106,52L108,55L110,58L112,61L114,64L117,67L119,69L121,72L124,75L126,77L129,80L132,82L135,85L138,88L141,90L144,92L147,95L149,97L152,98L154,100L157,102L160,103L163,105L166,106L169,107L171,109L174,110L176,111L178,112L181,113L184,114L186,115L188,116L191,117L193,117L195,118L197,119L199,119L201,119L203,120L205,120L208,121L211,121L214,122L217,122L220,122L222,123L225,123L227,123L230,123L233,123L236,123L239,123L243,123L246,123L249,123L251,123L254,123L257,123L260,123L263,123L266,123L269,123L272,123L274,123L277,123L280,123L283,123L286,123L290,123L294,122L298,122L301,122L305,122L308,122L312,121L317,121L321,121L325,120L329,120L333,119L338,119L343,119L348,119L353,118L357,118L363,117L369,117L374,117L380,117L387,117L393,117L400,117L407,117L414,117L422,117L430,117L438,117L447,117L455,117L463,117L473,117L481,117L489,117L499,117L507,117L515,117L525,117L533,117L541,117L551,118L559,118L567,119L577,119L584,119L592,120L600,120L608,121L614,121L621,122L629,123L636,123L641,124L647,124L654,125L660,125L664,126L669,126L674,126L680,126L685,126L690,126L695,126L700,126L705,126L711,126L715,126L720,126L724,126L728,125L733,124L736,123L740,122L742,121L745,120L748,119L751,118L753,117L755,115L757,114L759,113L759,112L760,110L761,108L762,107L762,105L763,104L764,102L764,100L764,98L765,96L765,94L765,91L766,89L766,86L766,83L766,81" stroke-opacity="1" stroke-width="5" stroke-linecap="round" stroke-linejoin="round" style="-webkit-tap-highlight-color: rgba(0, 0, 0, 0); stroke-opacity: 1; stroke-linecap: round; stroke-linejoin: round; -webkit-user-select: text;"></path><path fill="none" stroke="#000000" d="M74,21L79,27L79,28L81,29L82,31L83,33L84,34L85,36L86,37L87,39L88,41L90,42L91,44L92,46L93,47L94,49L95,51L96,53L97,54L98,56L99,58L101,60L102,62L103,64L105,66L106,68L108,70L109,72L110,73L112,75L114,77L115,78L117,80L118,81L120,83L121,85L122,86L124,88L125,89L127,91L128,93L130,94L132,96L133,97L135,99L136,100L138,101L139,103L141,104L143,105L144,106L146,108L148,109L149,110L151,112L153,113L156,115L158,116L160,118L162,119L164,120L166,121L169,122L170,123L172,124L174,125L176,126L178,127L180,127L182,128L184,128L187,129L189,130L192,130L195,131L197,132L199,132L201,132L203,133L205,133L206,134L208,134L210,134L212,134L214,135L216,135L218,135L220,135L222,136L225,136L227,136L229,136L231,136L233,136L236,136L239,136L242,137L244,137L246,137L249,137L251,137L254,137L256,137L259,137L262,137L265,138L268,138L271,138L273,138L276,138L278,138L281,138L284,138L286,138L290,139L293,139L295,139L298,139L301,139L304,139L307,139L310,139L313,139L316,139L319,139L323,139L326,139L329,139L331,139L334,139L336,139L339,139L342,139L345,139L348,139L350,139L353,139L356,139L358,139L361,139L364,139L367,139L370,139L373,139L377,139L380,139L383,139L385,139L389,139L392,139L396,139L400,139L403,139L406,139L409,139L412,139L416,139L420,139L424,139L427,139L431,139L434,139L437,139L441,139L445,139L449,139L453,139L456,139L460,139L463,139L467,139L471,139L475,139L479,139L483,139L487,139L492,139L497,139L502,139L507,139L511,139L515,139L519,139L523,139L527,139L531,139L535,139L538,139L541,139L544,139L547,140L550,140L553,141L556,141L558,141L560,141L563,141L565,141L567,141L569,142L572,142L574,142L576,143L579,143L581,143L583,143L585,143L588,144L590,144L592,144L594,144L596,144L598,144L601,144L604,144L606,145L609,145L611,145L613,145L615,145L617,145L619,145L622,145L624,146L627,146L630,146L633,146L635,146L638,146L641,146L643,147L646,147L648,147L651,148L654,148L657,148L660,148L663,149L665,149L668,149L670,149L673,149L676,149L679,149L682,149L685,149L688,149L691,149L693,149L695,149L697,149L699,149L701,149L704,149L706,149L709,149L711,149L714,149L716,149L718,149L720,149L721,149L723,149L725,149L727,149L729,149L730,149L733,149L734,149L736,149L738,149L740,149L741,149L743,148L744,148L746,148L748,147L750,146L751,146L752,146L754,146L755,145L757,144L758,144L759,144L759,143L760,143L761,142L761,141L762,141L762,140L762,139L763,139L763,138L764,137L764,136L765,135L765,134L765,133L765,132L766,132L766,131L766,130L766,129L766,128L766,127L766,126L766,125L766,124L766,123L766,121L766,119L766,118L766,116L766,114L766,112L766,108L766,105" stroke-opacity="1" stroke-width="5" stroke-linecap="round" stroke-linejoin="round" style="-webkit-tap-highlight-color: rgba(0, 0, 0, 0); stroke-opacity: 1; stroke-linecap: round; stroke-linejoin: round; -webkit-user-select: text;"></path><path fill="none" stroke="#000000" d="M54,22L58,27L58,28L58,29L59,31L59,32L61,33L62,35L62,37L64,38L65,40L66,42L67,44L68,45L69,47L71,49L71,51L73,53L74,55L76,57L77,59L79,61L80,63L81,65L83,67L84,69L86,71L87,73L88,74L89,76L91,78L91,79L93,80L94,82L95,84L96,85L98,87L99,88L100,90L102,91L103,93L105,94L106,95L108,97L109,98L111,100L113,101L114,102L116,104L118,105L119,107L121,108L122,109L124,110L125,111L127,112L129,113L130,114L132,115L134,116L136,117L137,118L139,119L141,120L142,121L144,122L145,122L147,123L148,124L149,124L151,125L152,126L154,127L155,128L157,129L159,129L160,130L162,132L164,132L166,133L167,134L169,134L170,135L172,136L174,137L175,137L176,138L178,139L180,139L181,140L183,141L186,141L187,142L189,143L191,143L193,144L195,144L197,144L198,145L200,146L201,146L203,146L204,147L206,147L207,148L209,148L210,149L212,149L214,149L216,150L218,150L220,150L221,151L223,151L225,151L226,151L228,152L229,152L231,152L233,153L235,153L237,153L239,153L242,153L244,153L246,154L249,154L251,154L253,155L255,155L257,155L259,155L261,155L263,156L266,156L268,156L270,156L272,156L274,156L276,156L278,156L280,156L282,156L285,156L287,156L290,156L292,156L295,156L297,156L300,156L302,156L303,156L305,156L307,156L309,156L311,156L314,156L316,156L319,156L321,156L324,156L326,156L328,156L331,156L333,156L335,156L337,156L339,156L342,156L345,156L348,156L350,156L353,156L355,156L357,156L360,156L362,156L364,156L367,156L370,156L373,156L375,156L378,156L380,156L383,156L385,156L388,156L391,156L394,156L396,156L399,156L402,156L404,156L407,156L409,156L411,156L413,156L415,156L418,156L420,156L423,156L426,156L429,156L431,156L434,156L436,156L438,156L441,156L443,156L446,156L448,156L451,156L453,156L455,156L458,156L460,156L462,156L464,156L466,156L468,156L470,155L472,155L475,155L477,155L479,155L481,155L483,155L485,155L487,155L490,155L492,155L494,155L497,155L500,155L503,155L506,155L508,155L511,155L513,155L515,155L518,155L520,155L522,155L525,155L527,155L530,155L532,155L534,155L536,155L538,155L540,155L542,155L544,155L546,155L548,155L551,155L553,155L555,155L558,155L560,155L562,155L565,155L567,155L569,155L571,155L573,155L575,155L578,155L580,155L582,155L584,155L587,155L589,155L592,155L594,155L596,155L599,155L601,155L604,155L607,155L610,155L613,155L616,156L618,156L621,156L623,156L626,156L629,156L633,156L635,157L638,157L641,157L644,157L646,158L648,158L651,158L653,158L655,158L658,158L660,158L663,158L665,158L667,159L669,159L671,159L673,159L675,159L677,160L679,160L682,160L684,160L686,160L688,161L690,161L692,161L694,161L696,161L698,161L700,161L702,161L704,161L706,161L708,161L711,161L713,161L715,161L717,162L719,162L720,162L722,162L724,162L725,162L728,162L729,162L731,163L733,163L735,163L737,163L739,163L741,163L743,163L745,163L747,163L749,163L751,163L753,163L755,163L757,163L758,163L759,163L760,163L761,163L762,163L763,162L764,162L764,161L765,160L765,159L766,158L766,157L766,156L766,155L766,154L766,153L766,151L766,149L766,147L766,146L766,144L766,141" stroke-opacity="1" stroke-width="5" stroke-linecap="round" stroke-linejoin="round" style="-webkit-tap-highlight-color: rgba(0, 0, 0, 0); stroke-opacity: 1; stroke-linecap: round; stroke-linejoin: round; -webkit-user-select: text;"></path><path fill="none" stroke="#000000" d="M29,27L30,31L30,33L30,34L30,36L31,37L32,39L33,40L34,42L35,43L36,45L37,47L38,49L39,51L41,53L42,55L43,57L45,59L47,62L48,64L50,66L52,69L53,71L55,73L57,76L59,78L62,80L63,82L65,84L67,86L69,88L71,90L73,92L75,94L77,95L79,98L81,99L83,101L85,102L87,104L89,106L91,107L93,110L95,111L97,113L99,115L101,116L103,118L105,119L108,121L110,122L112,123L113,124L115,126L117,127L119,128L120,129L122,130L124,131L126,132L127,134L130,134L131,136L134,137L136,138L138,139L140,140L142,141L144,141L146,142L147,143L149,144L151,144L153,145L154,146L156,147L158,147L160,148L161,149L164,149L165,149L167,150L169,151L170,151L172,152L173,152L175,153L176,153L178,153L179,154L181,155L183,155L184,156L186,156L188,156L191,157L193,157L194,158L196,158L198,158L200,159L202,159L203,160L205,160L207,161L209,161L210,161L212,162L214,162L216,162L218,163L220,163L221,163L223,163L224,163L226,163L227,164L229,164L231,164L232,165L234,165L237,165L239,166L241,166L243,166L245,166L247,166L249,166L250,167L252,167L254,167L255,167L257,167L259,167L260,167L262,168L264,168L266,168L268,168L270,168L271,168L273,168L275,168L277,168L279,168L280,169L283,169L285,169L287,169L289,169L291,169L293,170L295,170L297,170L299,170L301,170L303,170L305,170L307,170L309,170L311,170L313,170L315,171L317,171L319,171L322,171L324,171L325,171L327,171L329,171L331,171L333,171L334,171L336,171L339,171L341,171L343,171L346,171L348,172L350,172L352,172L353,172L356,172L357,172L359,172L361,172L363,172L365,172L368,172L370,172L372,172L374,172L376,172L378,172L380,172L382,172L385,172L387,172L389,172L392,172L394,172L397,172L400,172L402,172L404,172L406,172L408,172L409,172L412,172L414,172L416,172L418,172L420,172L422,172L424,172L426,172L428,172L430,172L432,172L434,172L435,172L437,172L439,172L441,172L443,172L445,172L447,172L449,172L451,172L453,172L455,172L458,172L460,172L462,172L463,172L465,172L468,172L470,172L472,172L475,172L477,172L479,172L481,172L484,172L486,172L489,172L491,172L494,172L496,172L499,172L502,172L505,172L507,172L510,172L513,172L515,172L518,172L521,172L524,172L526,172L529,172L532,172L534,172L537,172L539,172L541,172L543,172L546,172L548,172L550,172L553,172L555,172L558,172L560,172L562,172L564,172L566,172L568,172L570,172L572,172L575,172L577,172L580,172L583,172L586,172L589,172L591,172L593,172L595,172L597,172L600,172L602,172L605,172L607,172L610,172L612,172L614,172L616,172L619,172L621,172L624,172L626,172L629,172L632,172L634,172L637,172L639,172L641,172L643,173L645,173L647,173L650,173L652,173L654,174L656,174L659,174L661,174L663,174L664,175L667,175L668,175L670,175L672,175L674,175L676,175L678,175L680,175L682,175L685,176L687,176L689,176L691,176L693,176L695,176L697,176L699,176L701,177L703,177L705,177L707,177L709,177L711,177L713,177L715,177L717,177L719,177L720,177L722,177L724,177L725,177L727,177L729,177L731,177L733,177L734,177L736,177L738,177L740,177L742,177L744,177L745,177L748,177L750,177L752,177L754,177L755,177L757,177L758,177L759,177L760,177L761,177L762,177L763,177L764,177L765,176L766,175L766,174L766,173L766,172L766,170L766,169L766,167L766,166L766,164" stroke-opacity="1" stroke-width="5" stroke-linecap="round" stroke-linejoin="round" style="-webkit-tap-highlight-color: rgba(0, 0, 0, 0); stroke-opacity: 1; stroke-linecap: round; stroke-linejoin: round; -webkit-user-select: text;"></path><path fill="none" stroke="#000000" d="M41,63L45,68L45,70L45,71L46,73L47,75L48,77L49,78L50,81L52,83L53,85L55,88L57,90L58,92L59,94L61,96L63,99L64,101L66,103L68,105L70,107L71,109L74,110L76,113L79,115L81,117L84,119L86,121L89,123L92,124L94,127L96,128L99,130L101,132L103,133L106,135L109,136L111,138L114,139L116,141L118,142L120,144L122,145L124,146L126,147L128,148L130,149L132,150L135,151L137,152L139,153L142,154L144,155L146,156L148,156L150,157L152,158L154,158L156,159L158,160L160,161L162,161L165,162L167,163L169,163L171,164L173,164L174,165L176,166L178,166L180,166L183,167L185,168L187,168L189,168L191,169L194,169L196,170L198,170L200,170L202,171L204,171L206,172L209,172L212,173L215,173L217,173L220,174L223,174L226,175L229,175L232,175L234,176L238,176L242,177L244,177L248,178L251,178L254,178L257,178L261,179L264,179L268,180L271,180L274,180L277,180L280,181L283,181L286,182L289,182L292,183L295,183L298,183L301,183L304,184L307,184L310,184L312,185L316,185L319,185L322,185L325,185L328,185L331,185L333,185L336,185L339,186L343,186L346,186L350,186L353,186L356,186L360,186L363,186L367,187L370,187L374,187L377,187L380,187L383,187L386,187L389,187L392,187L395,187L399,187L402,188L405,188L408,188L411,188L414,188L416,188L419,188L422,188L425,188L428,188L430,188L433,188L436,188L438,188L441,188L444,188L447,188L451,188L454,188L457,188L460,188L463,188L465,188L468,188L471,188L475,188L478,188L481,188L484,188L487,188L490,188L493,188L497,188L500,188L504,188L507,188L509,188L512,188L515,188L518,188L521,188L524,189L527,189L530,189L533,189L536,189L538,189L541,189L545,189L548,189L551,189L555,190L558,190L561,190L564,190L567,190L570,190L573,190L575,190L578,190L581,190L583,190L586,190L588,190L589,190L592,190L594,190L596,190L598,190L600,190L603,190L605,190L608,190L610,190L613,190L615,190L618,190L620,190L622,190L625,190L627,190L630,190L633,190L635,190L638,190L640,190L643,190L645,190L647,190L649,190L651,190L653,190L656,190L658,190L660,190L662,191L664,191L667,191L669,191L671,191L672,191L675,191L677,191L679,192L681,192L683,192L685,192L687,192L689,192L691,192L692,192L694,192L696,192L697,192L699,192L701,192L702,192L704,192L706,192L708,192L711,192L712,192L714,192L716,192L718,192L719,192L720,192L722,192L723,192L725,192L726,192L728,192L730,192L731,192L733,192L735,192L737,192L738,192L740,192L742,192L744,192L746,192L748,192L750,192L752,192L754,192L757,192L758,192L759,192L760,192L761,192L762,192L763,192L764,192L765,192L766,191L766,190L766,189L766,188L766,187L766,186L766,185L766,181" stroke-opacity="1" stroke-width="5" stroke-linecap="round" stroke-linejoin="round" style="-webkit-tap-highlight-color: rgba(0, 0, 0, 0); stroke-opacity: 1; stroke-linecap: round; stroke-linejoin: round; -webkit-user-select: text;"></path><path fill="none" stroke="#000000" d="M36,100L42,104L43,105L44,107L45,108L47,110L48,112L50,114L52,115L53,117L55,119L57,121L59,123L61,125L63,127L65,129L67,130L69,132L71,134L73,135L75,137L77,139L80,141L82,142L85,144L87,146L89,147L92,149L94,150L96,151L98,153L100,154L102,155L103,156L106,157L108,158L110,159L112,160L114,161L116,162L118,163L120,164L122,165L125,166L127,167L130,168L132,168L135,169L137,170L140,171L142,171L144,172L147,173L149,173L152,174L154,175L156,175L158,176L161,176L163,177L165,178L167,178L169,179L171,179L173,180L174,180L176,180L177,181L179,181L181,182L183,183L185,183L188,183L190,184L192,184L194,185L196,185L198,186L200,186L203,187L205,187L207,188L210,188L212,189L215,190L218,190L220,190L223,191L226,192L228,192L231,192L234,193L238,194L242,194L246,195L249,195L253,196L256,196L261,197L265,197L268,197L272,198L276,198L279,199L282,199L285,199L289,199L292,199L296,199L299,200L302,200L305,200L308,200L312,200L314,200L318,200L321,200L324,200L327,200L329,200L331,200L334,200L336,200L339,200L342,200L344,200L347,200L350,200L353,200L355,200L358,200L360,200L363,200L366,200L368,200L371,200L374,200L377,200L380,200L382,200L385,200L388,200L391,200L394,200L397,200L400,200L402,200L405,200L408,200L410,200L413,200L415,200L418,200L421,200L424,200L427,200L430,200L433,200L436,201L439,201L442,201L446,201L450,201L454,201L457,201L461,201L464,201L468,201L471,201L475,201L479,201L482,201L486,201L489,201L492,201L496,201L499,201L503,201L507,201L510,202L513,202L517,202L521,202L525,202L528,202L533,202L536,202L540,203L544,203L548,203L551,203L555,203L558,204L562,204L565,204L568,204L572,205L575,205L579,205L583,205L587,205L590,206L594,206L597,206L601,206L604,207L608,207L611,207L615,207L618,207L621,207L624,208L628,208L631,208L635,208L638,208L641,208L644,209L647,209L650,209L652,209L655,209L658,209L661,209L664,209L667,209L669,209L672,210L674,210L677,210L679,210L682,210L684,210L687,210L689,210L691,210L694,210L696,210L698,210L700,210L702,210L705,210L707,210L710,210L713,210L715,211L717,211L719,211L721,211L723,211L725,211L727,211L729,211L731,211L733,211L735,211L737,211L739,211L741,212L743,212L745,212L747,212L750,212L752,212L754,212L756,212L758,212L759,212L760,212L761,212L762,212L763,212L764,212L765,212L765,211L766,211L766,210L766,209L766,208L766,207L766,206L766,204L766,202L766,197" stroke-opacity="1" stroke-width="5" stroke-linecap="round" stroke-linejoin="round" style="-webkit-tap-highlight-color: rgba(0, 0, 0, 0); stroke-opacity: 1; stroke-linecap: round; stroke-linejoin: round; -webkit-user-select: text;"></path><path fill="none" stroke="#000000" d="M38,136L43,138L43,139L44,140L45,141L47,143L48,144L50,146L52,147L53,148L55,149L57,151L58,152L60,153L62,155L64,156L66,158L67,159L69,161L71,162L73,163L75,165L77,166L79,168L81,169L84,170L86,172L88,173L90,174L92,175L94,177L96,178L98,180L101,181L103,182L105,183L108,184L110,185L113,186L115,187L117,188L119,188L121,189L123,190L125,191L127,191L129,192L132,193L134,193L137,194L139,195L142,195L144,196L147,196L149,197L151,197L154,198L156,198L158,199L160,199L163,200L165,200L167,200L170,200L172,201L174,201L176,201L178,202L181,202L183,202L186,202L188,203L191,203L193,203L195,204L198,204L200,204L202,205L205,205L207,205L209,206L212,206L214,206L217,207L219,207L221,207L224,207L226,207L228,208L231,208L234,208L236,209L239,209L242,209L245,209L248,209L251,210L254,210L256,210L259,211L262,211L266,211L269,212L272,212L275,212L278,212L281,212L284,212L287,212L290,212L293,213L297,213L300,213L303,213L306,213L309,213L312,213L315,213L319,213L322,213L325,213L328,213L331,213L334,213L336,214L339,214L343,214L346,214L350,214L353,214L356,214L359,214L362,214L365,214L368,214L372,214L375,214L378,214L380,214L383,214L386,214L389,214L392,214L396,214L400,214L403,214L407,214L410,214L414,214L418,214L422,214L426,214L430,214L434,214L438,214L441,214L445,214L449,214L453,214L456,214L460,214L463,214L465,214L469,214L472,214L475,214L478,214L481,214L484,214L487,214L489,214L492,214L494,214L497,214L500,214L503,214L505,214L508,214L510,214L513,214L515,214L517,214L519,214L521,214L524,215L526,215L529,215L531,215L533,215L536,215L538,215L541,215L543,215L545,215L548,215L550,215L553,216L556,216L559,216L561,216L563,216L566,216L568,216L570,216L572,216L575,216L577,217L580,217L582,217L585,217L587,217L589,217L592,217L594,217L596,217L599,218L601,218L604,218L607,218L610,219L612,219L615,219L618,219L620,219L623,219L626,219L629,219L631,219L634,220L637,220L639,220L641,220L643,220L645,220L647,220L649,220L651,220L653,221L656,221L658,221L661,221L663,221L665,221L667,221L669,221L671,221L672,221L674,221L677,222L679,222L681,222L683,222L686,222L688,222L690,222L692,223L694,223L696,223L698,223L700,223L702,223L704,224L706,224L708,224L711,224L713,224L714,224L716,224L718,224L720,224L721,224L723,224L724,224L725,224L727,224L729,224L730,224L732,224L733,224L735,224L736,224L737,224L739,224L740,224L742,224L743,224L744,224L746,224L747,224L749,224L751,224L752,224L754,224L755,224L757,224L758,224L759,224L760,224L761,224L762,224L763,224L764,224L765,224L766,224L766,223L766,222L766,221L766,217" stroke-opacity="1" stroke-width="5" stroke-linecap="round" stroke-linejoin="round" style="-webkit-tap-highlight-color: rgba(0, 0, 0, 0); stroke-opacity: 1; stroke-linecap: round; stroke-linejoin: round; -webkit-user-select: text;"></path><path fill="none" stroke="#000000" d="M51,173L57,178L59,179L61,180L62,181L64,183L65,184L67,185L68,186L70,187L71,188L73,189L75,190L76,191L79,192L81,192L83,193L85,194L88,195L90,196L93,197L95,198L97,199L100,200L102,201L104,202L107,203L109,204L111,205L114,206L116,207L118,207L120,208L122,209L125,210L127,211L129,211L132,212L134,212L136,213L138,214L140,214L142,214L144,215L146,215L148,216L149,216L152,217L154,217L156,217L158,218L160,218L162,219L164,219L166,219L169,219L171,219L173,220L174,220L176,220L178,220L180,221L182,221L184,221L186,221L188,221L191,221L193,221L195,222L197,222L199,222L201,222L203,222L205,222L208,223L210,223L212,223L215,223L218,223L220,223L222,224L225,224L227,224L229,224L232,224L234,224L237,224L239,224L242,225L244,225L246,225L248,225L251,225L253,225L255,226L258,226L261,226L263,226L267,226L270,226L273,227L276,227L279,227L282,227L285,227L288,227L292,227L295,228L299,228L302,228L305,228L307,228L311,228L314,228L317,228L320,228L324,228L327,228L329,228L333,229L336,229L339,229L342,229L346,229L349,229L352,229L356,229L359,229L362,229L366,229L370,229L374,229L378,229L381,229L385,229L389,229L393,229L397,229L401,229L404,229L408,229L411,229L414,229L417,229L421,229L424,229L428,229L431,229L434,229L438,229L441,229L445,229L448,229L453,229L456,229L460,229L464,229L468,229L473,229L477,229L481,229L485,229L489,229L493,229L497,229L501,228L504,228L508,228L511,228L514,228L518,228L521,228L524,227L528,227L531,227L534,227L538,227L541,227L544,227L548,227L551,227L555,227L558,227L562,227L565,227L569,227L572,227L577,227L580,227L584,226L587,226L591,226L594,226L597,226L601,226L604,226L607,226L611,226L614,226L617,226L620,226L623,226L627,226L630,226L634,226L637,226L640,226L644,226L647,226L650,226L653,226L656,226L660,226L662,226L665,226L668,226L671,226L673,226L676,226L679,226L682,226L684,226L687,226L689,226L692,226L694,226L697,226L699,227L701,227L704,227L706,227L709,227L712,228L714,228L716,228L718,228L720,228L722,228L724,228L726,229L728,229L730,229L732,229L735,229L737,229L740,229L742,229L745,229L748,229L751,229L754,229L757,229L759,229L761,229L762,229L764,229L765,229L766,229L766,228L766,227" stroke-opacity="1" stroke-width="5" stroke-linecap="round" stroke-linejoin="round" style="-webkit-tap-highlight-color: rgba(0, 0, 0, 0); stroke-opacity: 1; stroke-linecap: round; stroke-linejoin: round; -webkit-user-select: text;"></path><path fill="none" stroke="#000000" d="M43,192L48,197L50,199L52,200L55,202L58,203L61,205L64,207L67,208L71,210L74,211L77,213L80,214L83,215L86,217L89,218L92,219L94,220L97,221L100,222L103,223L107,224L110,225L113,226L117,226L120,227L123,228L126,229L129,230L132,230L135,231L138,231L141,232L144,233L147,234L149,234L152,234L154,235L157,236L160,236L163,236L167,237L170,237L174,238L177,238L181,238L185,239L189,239L193,240L197,240L200,241L203,241L207,241L210,241L213,241L217,242L220,242L224,242L227,242L231,242L235,242L239,243L243,243L246,243L250,243L254,243L259,243L263,243L268,243L272,243L277,243L282,243L287,243L292,243L297,243L302,243L307,243L312,243L317,243L321,243L325,243L329,243L334,243L338,243L342,243L346,243L350,243L354,243L358,243L362,243L366,243L370,243L374,243L378,243L382,243L385,243L389,243L393,243L397,243L401,243L405,243L409,243L413,243L417,243L421,243L425,243L429,243L433,243L437,243L441,243L446,243L451,243L455,243L459,243L464,243L468,243L473,243L478,243L482,243L487,243L492,243L496,243L501,243L506,243L510,243L515,243L519,243L524,243L529,243L534,243L538,243L543,243L548,243L553,243L557,243L561,243L566,243L570,243L574,243L578,243L582,243L586,243L589,243L593,243L596,243L600,244L603,244L606,244L609,244L612,244L615,244L617,244L620,244L622,244L625,244L628,245L631,245L634,245L637,245L639,245L642,245L645,245L647,245L650,245L653,245L656,246L659,246L662,246L664,246L667,246L669,246L672,246L674,246L676,246L678,246L680,246L683,246L685,246L687,246L689,246L691,246L694,246L696,247L698,247L700,247L702,247L705,247L707,247L709,247L712,247L714,247L716,247L718,247L720,248L721,248L723,248L725,248L727,248L729,248L731,248L733,248L735,248L737,248L739,248L741,248L743,248L745,248L747,248L750,248L752,248L754,248L756,248L758,248L759,248L761,248L762,248L763,248L764,248L765,247L765,246L766,246L766,245L766,244L766,243L766,241L766,239" stroke-opacity="1" stroke-width="5" stroke-linecap="round" stroke-linejoin="round" style="-webkit-tap-highlight-color: rgba(0, 0, 0, 0); stroke-opacity: 1; stroke-linecap: round; stroke-linejoin: round; -webkit-user-select: text;"></path><path fill="none" stroke="#000000" d="M45,221L44,221L45,221L47,221L50,223L52,224L54,224L57,226L60,226L62,228L65,229L67,230L70,231L72,232L74,234L76,234L79,236L81,237L84,238L86,239L89,240L92,241L95,243L98,243L101,245L104,246L108,246L111,247L114,248L118,249L120,250L123,251L126,251L129,252L132,253L136,253L139,253L142,254L145,255L148,255L151,256L154,256L157,257L160,257L163,258L166,258L170,259L173,259L176,260L179,260L183,260L186,261L190,261L193,262L197,262L200,263L203,263L207,263L211,263L215,264L218,264L222,264L225,265L229,265L232,265L236,265L240,265L244,265L247,265L251,265L254,265L258,265L262,265L266,265L269,265L273,266L276,266L280,266L283,266L287,266L291,266L295,266L299,266L302,266L305,266L309,266L312,266L316,266L320,266L323,266L327,266L330,266L334,266L338,266L342,266L346,266L351,266L355,266L359,266L363,266L368,266L372,266L376,266L380,266L383,266L387,266L390,266L394,266L398,266L402,266L405,266L409,266L412,266L416,266L420,266L424,266L428,266L432,266L436,266L441,266L445,266L450,266L455,265L459,265L464,265L469,265L474,265L480,265L484,265L489,265L494,265L500,265L505,265L509,265L514,265L519,264L523,264L528,264L533,264L537,264L541,264L545,264L550,264L554,264L558,264L561,264L565,264L568,264L571,264L574,264L577,264L581,264L584,264L587,264L590,264L592,264L595,264L597,264L600,264L603,264L606,264L609,264L611,264L613,264L616,264L619,264L622,264L625,264L628,264L631,264L634,264L637,264L640,264L643,264L645,264L648,264L651,264L654,264L656,264L659,264L662,264L664,265L667,265L669,265L671,265L673,265L675,265L677,265L679,265L682,265L684,265L687,265L689,266L691,266L693,266L695,266L697,266L699,266L700,266L702,266L704,266L706,266L708,266L710,266L712,267L714,267L716,267L717,267L718,267L720,267L721,267L723,267L724,267L725,267L727,267L728,267L730,267L731,267L733,267L735,267L736,267L737,267L739,267L741,267L742,267L744,267L745,267L747,267L750,267L752,267L753,267L755,267L757,267L758,267L759,267L760,266L761,266L762,265L763,264L764,264L764,263L765,262L765,261L766,261L766,260L766,259L766,258L766,256L766,249" stroke-opacity="1" stroke-width="5" stroke-linecap="round" stroke-linejoin="round" style="-webkit-tap-highlight-color: rgba(0, 0, 0, 0); stroke-opacity: 1; stroke-linecap: round; stroke-linejoin: round; -webkit-user-select: text;"></path><path fill="none" stroke="#000000" d="M49,247L53,249L55,249L56,249L58,250L60,251L63,251L66,253L69,253L72,255L75,256L79,257L82,258L85,260L88,261L91,262L93,263L96,265L99,266L102,267L105,268L109,269L112,270L116,271L119,272L122,273L126,273L129,274L132,275L136,275L139,276L142,277L144,277L147,277L150,278L153,279L156,280L159,280L162,281L165,282L169,282L172,282L175,283L178,283L181,284L185,284L188,285L191,285L195,285L198,286L202,286L205,286L209,286L212,287L216,287L220,287L223,287L227,287L230,287L233,287L237,287L240,288L244,288L247,288L251,288L254,288L258,288L261,288L265,288L269,288L273,288L276,288L280,288L284,288L288,288L292,288L296,288L300,288L304,288L308,288L313,288L318,288L322,288L327,288L331,288L336,288L341,288L346,288L350,288L354,288L358,288L361,288L366,288L369,288L373,288L377,288L381,288L385,288L388,288L392,288L397,288L401,288L404,288L408,288L412,288L415,288L419,288L423,288L427,288L431,288L435,288L439,288L443,288L448,288L453,288L458,288L463,288L468,288L475,288L480,288L486,287L494,287L501,287L508,287L514,287L521,287L528,287L534,287L540,287L545,287L551,287L556,287L561,287L565,287L569,287L573,287L577,287L582,287L585,287L589,287L594,287L597,287L602,287L606,287L611,287L615,287L619,287L624,287L628,287L633,287L637,287L641,287L645,287L649,287L653,287L657,287L660,287L664,287L667,287L671,287L674,287L677,287L681,287L684,287L688,287L691,287L694,287L697,287L700,287L703,287L706,287L709,287L712,286L716,286L718,286L721,286L724,286L726,286L729,286L731,286L734,286L737,286L739,286L741,286L744,286L747,286L749,286L752,286L754,286L756,286L758,286L759,286L761,286L762,286L763,285L764,285L765,285L765,284L766,283L766,282L766,281L766,280L766,278L766,277L766,275" stroke-opacity="1" stroke-width="5" stroke-linecap="round" stroke-linejoin="round" style="-webkit-tap-highlight-color: rgba(0, 0, 0, 0); stroke-opacity: 1; stroke-linecap: round; stroke-linejoin: round; -webkit-user-select: text;"></path><path fill="none" stroke="#000000" d="M17,270L23,269L25,269L27,269L29,269L32,270L35,270L38,271L41,272L45,273L49,274L53,275L57,276L61,277L64,277L67,279L70,280L73,281L77,282L80,283L84,285L89,286L93,287L98,289L103,290L108,292L113,293L118,294L122,296L127,297L132,298L137,299L141,300L145,301L149,302L154,302L158,303L163,304L167,305L171,305L176,306L181,307L186,307L191,308L195,308L200,309L205,309L210,309L214,310L219,310L223,310L228,311L232,311L237,311L242,311L247,311L252,311L257,312L263,312L268,312L274,312L280,312L285,312L292,312L298,312L303,312L308,312L314,312L319,312L325,312L330,312L335,312L341,312L347,312L352,312L358,312L365,312L371,311L377,311L383,311L390,311L396,311L403,310L409,310L416,310L422,309L428,309L434,309L441,309L447,309L454,309L460,308L468,308L475,308L482,307L490,307L497,307L505,307L512,307L519,307L526,307L533,307L539,307L545,307L552,307L558,307L564,307L570,307L577,307L583,307L589,307L594,307L600,307L606,307L611,307L616,307L620,307L624,307L629,307L633,307L638,307L643,307L647,307L652,307L657,307L661,307L666,307L670,307L674,307L679,307L683,307L688,307L692,307L696,307L700,307L704,307L708,307L712,307L716,307L720,307L724,307L728,307L731,307L735,307L739,307L742,307L747,306L751,306L755,305L758,304L760,304L762,303L763,302L764,302L765,300L766,299L766,298L766,295L766,292" stroke-opacity="1" stroke-width="5" stroke-linecap="round" stroke-linejoin="round" style="-webkit-tap-highlight-color: rgba(0, 0, 0, 0); stroke-opacity: 1; stroke-linecap: round; stroke-linejoin: round; -webkit-user-select: text;"></path><path fill="none" stroke="#000000" d="M40,299L42,302L45,302L47,302L49,302L52,303L55,303L58,304L61,304L64,305L66,305L69,306L71,306L74,307L77,307L80,307L84,308L87,308L90,309L93,309L97,310L101,311L105,311L109,312L114,312L118,313L122,314L126,314L130,315L135,316L139,316L144,317L147,317L152,318L155,319L159,319L163,319L166,320L169,320L173,321L176,321L180,321L183,322L187,323L191,323L194,324L198,324L201,324L205,325L208,325L211,325L215,326L218,326L221,326L225,326L227,326L230,326L233,326L236,326L239,326L242,327L246,327L249,327L251,327L254,327L257,327L261,327L264,327L267,327L271,327L273,327L276,327L279,327L282,327L285,327L289,327L293,327L297,327L300,327L304,327L307,327L312,327L316,327L320,327L324,327L328,327L333,326L337,326L341,326L346,326L349,325L353,325L357,325L361,324L365,324L369,324L373,324L376,324L380,323L383,323L387,323L391,322L395,322L400,322L403,322L407,321L412,321L416,321L421,321L426,321L430,321L434,320L438,320L442,320L446,320L450,319L453,319L457,319L460,319L464,319L467,319L471,318L475,318L479,318L484,318L488,318L492,318L497,318L503,317L507,317L512,317L517,317L523,317L528,316L533,316L538,316L542,316L546,316L550,316L555,316L559,316L563,316L567,316L572,316L576,316L580,316L584,316L589,316L592,316L596,316L600,316L604,316L608,316L612,316L615,316L618,316L622,316L625,316L628,316L632,316L635,316L638,316L642,316L645,316L647,316L650,316L654,316L657,316L660,316L663,316L666,316L669,316L671,316L674,316L676,316L679,316L682,316L685,316L688,316L691,316L693,316L696,316L699,316L701,316L703,316L707,316L710,316L713,316L716,316L718,316L721,316L723,316L725,316L728,316L730,316L733,316L735,316L737,316L740,316L742,316L744,316L747,316L750,316L752,316L754,316L757,316L758,316L759,316L760,315L762,314L762,313L763,312L764,311L764,310L765,308L766,307L766,304L766,302L766,299" stroke-opacity="1" stroke-width="5" stroke-linecap="round" stroke-linejoin="round" style="-webkit-tap-highlight-color: rgba(0, 0, 0, 0); stroke-opacity: 1; stroke-linecap: round; stroke-linejoin: round; -webkit-user-select: text;"></path><path fill="none" stroke="#000000" d="M46,321L49,323L50,324L51,324L53,325L54,326L56,326L58,326L60,327L62,328L64,328L67,329L69,329L72,330L75,331L78,331L81,332L85,332L88,333L92,333L95,333L99,334L103,334L107,335L111,335L115,336L118,336L122,336L125,336L129,336L133,337L137,337L140,337L144,337L148,338L151,338L155,338L159,338L163,338L167,338L171,338L176,338L181,338L186,338L191,338L195,338L200,339L204,339L208,339L212,339L217,339L220,339L224,339L227,339L231,339L235,339L239,339L242,339L246,339L250,339L254,339L258,339L262,339L266,339L271,339L274,339L278,339L282,339L286,339L290,339L295,339L298,339L302,339L306,339L310,339L314,339L318,339L322,339L327,339L330,339L334,338L339,338L343,338L347,338L351,338L355,338L358,338L362,338L366,338L371,337L375,337L378,337L382,337L386,337L389,337L393,337L396,337L400,337L404,337L407,337L410,337L413,337L417,336L420,336L424,336L428,336L431,336L435,336L439,336L444,336L449,336L453,336L458,335L463,335L468,335L473,335L478,334L483,334L488,334L492,334L497,333L502,333L506,333L510,333L514,333L518,333L523,333L527,333L532,333L537,333L542,333L547,333L553,332L558,332L563,332L568,332L573,332L579,332L584,332L588,332L593,332L597,332L602,332L606,332L611,332L614,332L618,332L623,332L627,332L631,332L635,332L639,332L643,332L647,332L652,332L657,332L661,332L666,332L670,332L674,332L678,332L683,332L686,332L690,332L694,332L697,332L701,332L704,332L708,332L711,332L715,332L718,332L722,332L725,332L728,332L731,332L735,332L738,332L741,332L745,332L748,332L752,332L755,332L758,332L760,331L762,331L763,330L764,329L765,328L766,327L766,326L766,325L766,323L766,321L766,320" stroke-opacity="1" stroke-width="5" stroke-linecap="round" stroke-linejoin="round" style="-webkit-tap-highlight-color: rgba(0, 0, 0, 0); stroke-opacity: 1; stroke-linecap: round; stroke-linejoin: round; -webkit-user-select: text;"></path><path fill="none" stroke="#000000" d="M41,357L45,353L47,353L49,353L50,353L52,353L54,353L56,354L58,354L60,355L63,355L65,355L67,356L70,356L72,357L74,357L77,358L80,358L84,359L87,359L91,360L94,360L98,361L103,361L107,362L112,362L117,362L122,362L127,362L132,362L138,362L144,362L149,362L153,362L158,362L162,362L167,362L171,362L176,362L180,362L184,362L189,362L193,362L198,362L202,362L206,362L210,362L214,362L218,362L222,362L226,362L230,362L234,362L239,362L243,362L247,362L251,362L255,362L260,362L264,362L268,362L273,362L277,362L281,362L286,362L291,362L297,361L302,361L308,360L314,360L321,360L326,360L331,359L338,358L344,358L349,358L354,358L359,357L364,357L369,357L373,356L377,356L381,356L385,356L388,356L392,355L395,355L398,355L402,355L404,355L408,355L411,355L414,355L417,354L420,354L424,354L427,354L430,354L433,353L436,353L439,353L443,353L446,353L450,353L453,353L457,352L460,352L463,352L467,352L470,351L474,351L478,351L482,351L485,351L490,350L494,350L498,350L503,350L507,350L511,350L515,349L519,349L524,349L528,349L532,349L536,349L539,349L543,349L547,349L550,349L555,349L558,349L561,348L565,348L568,348L571,348L575,348L579,348L582,348L586,348L589,348L592,348L596,348L599,348L603,348L607,348L611,348L615,348L619,348L624,348L629,348L634,348L639,348L643,348L648,348L654,348L659,348L664,348L669,348L674,348L679,348L684,348L689,348L694,348L698,348L703,348L707,348L711,348L715,348L718,348L722,348L725,348L728,348L731,348L734,348L737,348L740,348L743,348L746,348L749,348L752,348L754,348L757,348L759,348L760,348L762,348L763,348L764,347L765,346L766,345L766,344L766,343L766,342L766,340L766,335" stroke-opacity="1" stroke-width="5" stroke-linecap="round" stroke-linejoin="round" style="-webkit-tap-highlight-color: rgba(0, 0, 0, 0); stroke-opacity: 1; stroke-linecap: round; stroke-linejoin: round; -webkit-user-select: text;"></path><path fill="none" stroke="#000000" d="M36,373L42,376L44,376L47,376L49,376L52,376L55,376L58,376L61,377L64,377L67,377L69,378L71,378L74,379L76,379L79,379L81,379L84,379L86,379L89,379L91,379L94,379L97,379L101,379L104,379L108,379L111,379L115,379L119,379L123,379L127,379L131,379L135,379L139,379L144,379L148,379L152,379L156,379L161,379L165,379L169,379L173,379L177,379L181,379L185,379L189,379L193,379L196,379L200,379L204,379L208,379L212,379L216,379L220,379L224,379L228,379L232,379L235,379L239,379L242,379L246,379L250,379L253,379L257,379L260,379L264,379L268,379L272,379L276,379L280,379L284,379L288,379L293,379L297,378L301,378L306,378L310,377L315,377L319,377L324,377L328,376L333,376L337,375L342,375L346,375L351,375L355,374L359,374L363,373L368,373L372,373L376,373L380,372L383,372L387,372L391,372L395,372L400,372L403,372L407,372L411,372L414,371L418,371L421,371L425,371L429,371L432,370L436,370L439,370L442,370L446,370L450,370L454,370L458,370L461,370L465,370L469,370L474,370L479,370L483,369L488,369L493,369L499,369L504,369L509,369L515,369L520,368L527,368L532,368L537,368L542,367L546,367L551,367L556,367L560,367L565,367L569,367L573,367L578,367L583,367L587,367L592,367L596,367L601,367L606,367L611,367L616,367L621,367L625,367L630,367L635,367L639,367L643,367L647,367L650,367L655,367L658,367L662,367L665,367L669,368L672,368L675,368L679,368L683,368L686,368L690,369L693,369L696,369L699,369L703,369L707,369L711,369L714,369L718,369L720,369L723,369L726,369L729,369L732,369L735,369L738,369L741,369L744,369L747,369L751,369L754,369L757,369L759,369L760,368L762,367L763,367L764,365L765,365L766,363L766,362L766,360L766,358" stroke-opacity="1" stroke-width="5" stroke-linecap="round" stroke-linejoin="round" style="-webkit-tap-highlight-color: rgba(0, 0, 0, 0); stroke-opacity: 1; stroke-linecap: round; stroke-linejoin: round; -webkit-user-select: text;"></path><path fill="none" stroke="#000000" d="M39,403L43,404L46,404L48,404L52,404L55,404L59,404L63,404L67,404L71,404L74,404L78,404L81,404L85,404L89,404L93,404L96,404L100,404L103,404L106,404L110,404L113,404L117,404L120,404L124,404L127,404L132,404L136,404L140,404L144,404L149,404L153,403L157,403L161,402L164,402L168,402L171,402L175,402L178,401L181,401L185,401L188,401L192,401L196,401L200,400L204,400L208,400L212,399L217,399L221,399L225,399L229,398L233,398L237,398L241,397L244,397L248,396L252,396L255,396L259,396L262,395L265,395L268,394L272,394L276,394L278,394L282,393L285,393L289,393L293,392L297,392L301,392L305,392L310,391L314,391L319,391L323,390L327,390L330,390L334,390L337,389L341,389L345,389L349,389L352,389L355,389L358,389L362,388L365,388L369,388L373,388L376,388L380,388L383,387L387,387L391,387L395,387L400,387L404,387L407,387L411,387L415,386L419,386L423,386L427,386L431,386L434,385L438,385L441,385L445,385L448,385L452,385L455,385L459,385L462,385L465,384L469,384L473,384L477,384L480,384L484,384L488,384L492,384L496,384L500,384L504,384L509,384L513,384L516,384L521,384L525,383L529,383L533,383L536,383L540,383L543,383L547,383L550,383L554,383L558,383L561,383L565,383L568,382L572,382L575,382L579,382L583,382L587,382L591,382L595,382L599,382L604,382L608,382L612,382L617,382L621,382L626,382L630,382L634,382L638,382L641,382L644,382L647,382L650,382L653,382L657,382L660,382L662,382L665,382L668,382L670,382L673,382L675,382L678,382L681,382L683,382L686,382L688,382L691,382L693,382L695,382L697,382L699,383L702,383L704,383L707,383L709,383L712,383L714,383L716,383L718,383L721,384L723,384L725,384L727,384L730,384L732,384L735,384L737,384L740,384L742,384L745,384L748,384L751,384L754,384L757,384L759,384L760,384L762,383L763,383L764,382L765,382L766,381L766,379L766,377L766,375" stroke-opacity="1" stroke-width="5" stroke-linecap="round" stroke-linejoin="round" style="-webkit-tap-highlight-color: rgba(0, 0, 0, 0); stroke-opacity: 1; stroke-linecap: round; stroke-linejoin: round; -webkit-user-select: text;"></path><path fill="none" stroke="#000000" d="M48,430L51,428L52,428L54,428L56,428L58,428L60,428L63,428L66,428L68,428L71,428L74,428L76,428L79,428L82,428L85,429L88,429L92,429L95,429L99,429L103,429L106,429L111,429L115,429L120,429L125,429L131,429L137,429L142,429L147,429L153,428L159,427L165,427L171,426L177,426L182,425L189,425L194,424L199,424L205,423L210,423L215,423L220,422L225,422L229,421L234,421L239,421L244,420L249,420L254,420L259,419L263,419L268,418L273,418L278,418L283,417L288,417L293,417L298,416L302,416L307,416L311,415L316,415L321,414L325,414L329,413L334,413L339,412L344,412L348,411L353,411L358,410L363,410L370,409L375,409L380,408L385,408L391,407L397,407L402,407L407,406L411,406L416,406L421,406L426,406L430,405L435,405L439,405L444,405L449,404L454,404L459,404L464,404L470,404L475,404L480,404L485,404L490,404L495,404L500,404L505,403L509,403L514,403L518,403L522,403L526,403L530,403L534,403L537,403L541,403L544,403L548,403L552,403L556,403L560,403L563,403L567,403L571,403L575,403L579,403L582,403L586,403L589,403L592,403L596,403L599,403L602,403L605,403L608,403L611,403L613,403L616,403L618,403L621,403L623,403L626,403L629,403L631,403L634,403L636,403L638,403L640,403L642,403L644,403L646,403L648,403L651,403L653,403L655,403L657,403L660,403L662,403L663,403L665,403L667,403L669,403L671,403L673,403L675,403L677,403L679,403L682,403L684,403L687,403L689,403L691,403L694,403L695,403L697,403L699,403L702,403L704,403L706,403L709,403L711,403L713,403L715,403L717,403L719,403L721,403L723,403L725,403L727,403L728,403L730,403L732,403L734,403L736,403L738,403L740,403L742,403L743,403L745,403L747,403L750,403L752,403L754,403L756,403L758,403L759,403L760,403L761,403L762,402L763,402L764,401L765,400L765,399L766,399L766,398L766,397L766,396L766,395L766,394" stroke-opacity="1" stroke-width="5" stroke-linecap="round" stroke-linejoin="round" style="-webkit-tap-highlight-color: rgba(0, 0, 0, 0); stroke-opacity: 1; stroke-linecap: round; stroke-linejoin: round; -webkit-user-select: text;"></path><path fill="none" stroke="#000000" d="M37,457L42,458L44,458L47,458L49,458L52,458L55,458L59,458L62,458L65,458L69,458L72,458L76,458L79,458L83,458L86,457L89,457L93,457L96,457L99,457L103,456L105,456L109,455L113,455L116,455L119,454L122,454L126,453L129,453L132,452L136,452L140,451L144,451L148,450L152,450L156,449L160,449L164,448L168,448L172,447L176,447L181,446L185,445L190,445L195,445L199,444L204,444L210,443L215,443L219,443L224,443L228,442L232,442L237,442L242,442L246,441L250,441L255,441L260,440L265,440L270,440L276,440L281,440L288,439L294,439L300,438L306,438L312,437L319,437L325,436L331,435L338,435L345,434L351,433L358,433L364,432L371,431L378,431L384,430L390,429L397,429L403,428L409,428L416,427L423,427L429,426L436,426L443,426L451,426L458,425L465,425L473,425L481,425L488,425L495,425L502,425L508,425L514,424L520,424L527,424L532,424L537,424L543,424L548,424L554,424L560,424L565,424L570,424L577,424L582,424L587,424L593,424L598,424L603,424L608,424L613,424L617,424L621,424L626,424L630,424L635,424L638,425L643,425L646,425L650,425L654,425L657,425L661,426L664,426L668,426L672,426L675,426L679,426L683,426L687,427L690,427L694,427L697,427L700,427L703,428L707,428L710,428L713,428L716,428L718,428L721,428L723,428L726,428L728,428L731,428L733,428L736,428L739,428L742,428L745,428L748,428L751,428L754,428L757,428L759,428L761,428L762,428L763,428L764,428L765,427L766,426L766,425L766,424L766,423L766,420" stroke-opacity="1" stroke-width="5" stroke-linecap="round" stroke-linejoin="round" style="-webkit-tap-highlight-color: rgba(0, 0, 0, 0); stroke-opacity: 1; stroke-linecap: round; stroke-linejoin: round; -webkit-user-select: text;"></path><path fill="none" stroke="#000000" d="M48,489L53,489L55,489L59,489L63,489L67,488L71,486L75,485L79,484L83,484L86,483L90,483L94,482L98,482L101,481L104,481L108,480L112,479L116,479L121,477L126,477L132,475L137,474L143,473L149,472L154,472L161,470L167,469L174,468L180,467L188,467L196,465L204,464L213,463L222,461L231,460L240,458L249,457L257,455L266,454L275,453L282,452L290,451L298,450L304,450L311,449L318,449L324,448L331,447L338,447L345,446L352,445L358,445L366,444L373,443L380,443L386,443L394,442L400,442L406,441L413,441L420,441L426,440L432,440L439,440L446,440L453,440L460,440L468,440L475,440L482,440L490,440L500,440L508,440L517,440L526,440L533,440L542,440L551,440L558,440L566,440L576,440L584,440L592,440L600,440L608,440L616,440L624,440L633,440L640,440L647,440L653,441L660,441L665,441L670,441L676,442L682,442L686,442L691,442L696,443L701,443L707,443L712,443L717,443L721,443L725,443L730,443L735,443L740,443L746,443L751,443L756,443L759,443L763,443L765,443L766,442L766,440" stroke-opacity="1" stroke-width="5" stroke-linecap="round" stroke-linejoin="round" style="-webkit-tap-highlight-color: rgba(0, 0, 0, 0); stroke-opacity: 1; stroke-linecap: round; stroke-linejoin: round; -webkit-user-select: text;"></path><path fill="none" stroke="#000000" d="M37,526L40,527L43,527L47,527L52,526L57,524L63,523L68,521L74,519L79,518L85,517L91,515L96,514L102,513L108,511L115,510L121,508L129,506L137,504L146,502L155,499L166,496L176,494L187,491L198,489L208,487L218,485L227,484L237,482L246,481L253,481L262,479L270,479L276,478L283,477L290,477L297,476L304,475L310,474L317,474L324,473L330,472L337,472L344,471L350,470L356,469L363,469L369,469L375,468L382,467L389,467L397,466L404,465L412,465L421,464L429,463L438,463L448,462L458,461L467,461L477,460L487,460L497,460L507,460L516,460L526,460L534,459L545,459L554,459L563,459L572,459L582,459L589,459L599,459L609,459L616,459L625,459L634,459L641,460L649,460L657,460L664,461L672,461L679,461L686,462L693,462L699,462L706,462L713,463L720,463L726,463L733,463L741,463L750,463L756,463L761,463L765,462L766,460" stroke-opacity="1" stroke-width="5" stroke-linecap="round" stroke-linejoin="round" style="-webkit-tap-highlight-color: rgba(0, 0, 0, 0); stroke-opacity: 1; stroke-linecap: round; stroke-linejoin: round; -webkit-user-select: text;"></path><path fill="none" stroke="#000000" d="M37,556L40,557L42,557L45,557L49,555L54,553L58,551L64,549L69,546L74,544L80,541L86,538L93,536L98,534L104,531L111,529L119,526L126,524L135,521L144,519L152,516L162,514L171,511L183,509L193,507L204,504L215,502L227,500L238,498L249,496L258,495L268,493L278,492L288,491L298,490L306,489L315,488L323,488L330,487L339,486L346,486L354,485L363,484L372,484L381,483L391,482L402,482L414,480L426,479L437,479L450,478L460,477L473,477L483,477L494,477L505,477L515,477L525,477L533,477L543,477L553,477L560,477L568,477L578,477L586,477L596,477L606,477L613,477L623,477L632,477L640,477L649,478L658,478L665,479L672,479L680,479L687,480L694,480L701,481L707,481L713,482L718,482L723,482L729,483L734,483L740,483L747,483L753,483L758,483L762,483L765,483" stroke-opacity="1" stroke-width="5" stroke-linecap="round" stroke-linejoin="round" style="-webkit-tap-highlight-color: rgba(0, 0, 0, 0); stroke-opacity: 1; stroke-linecap: round; stroke-linejoin: round; -webkit-user-select: text;"></path><path fill="none" stroke="#000000" d="M52,583L54,584L57,584L62,583L67,581L72,579L78,576L84,574L90,572L96,570L101,569L108,567L113,566L119,564L123,563L130,561L135,559L143,558L150,556L157,554L165,552L173,549L181,547L190,544L198,540L206,537L214,535L223,532L231,529L240,526L248,523L256,521L265,518L273,516L281,514L289,512L295,511L302,509L308,508L315,507L321,506L328,505L334,504L341,503L349,501L355,500L363,499L370,498L377,497L383,496L390,495L397,495L403,494L409,493L415,492L421,491L427,491L432,491L437,491L442,490L448,490L453,490L458,489L463,489L468,489L473,489L478,489L483,489L488,489L494,488L499,488L504,488L509,488L515,488L521,488L528,488L533,488L538,488L545,488L552,488L559,488L565,488L574,488L581,488L588,488L594,488L602,488L609,488L615,488L621,488L628,488L635,488L640,488L646,488L653,488L659,489L664,489L670,489L676,489L683,489L688,490L693,490L698,491L703,491L709,491L714,492L720,492L725,493L730,493L737,494L742,494L749,494L755,495L759,495L763,495L766,495" stroke-opacity="1" stroke-width="5" stroke-linecap="round" stroke-linejoin="round" style="-webkit-tap-highlight-color: rgba(0, 0, 0, 0); stroke-opacity: 1; stroke-linecap: round; stroke-linejoin: round; -webkit-user-select: text;"></path><path fill="none" stroke="#000000" d="M54,609L58,609L61,609L65,608L69,606L74,605L79,603L84,601L89,600L95,599L100,598L105,596L112,595L118,593L125,591L131,588L137,587L145,585L152,583L159,580L167,578L175,576L183,574L191,571L200,570L208,567L217,565L226,562L234,560L242,558L250,556L257,554L264,552L271,550L278,548L284,546L291,544L297,542L303,541L310,539L317,537L323,536L329,534L334,533L340,532L346,530L351,529L356,528L362,528L368,527L374,526L379,525L384,525L390,524L396,523L401,523L406,522L411,522L417,521L424,520L430,520L436,519L442,519L449,518L454,518L460,517L466,517L472,516L477,516L482,516L487,516L493,515L499,515L505,515L510,514L516,514L521,514L527,513L533,513L538,513L543,513L548,513L553,513L558,513L562,512L567,512L573,512L579,512L584,512L589,512L594,511L600,511L606,511L611,511L616,511L623,511L630,511L635,511L641,511L647,511L654,511L660,511L666,511L672,511L679,511L686,511L691,511L696,511L701,511L707,511L712,511L717,511L722,511L726,511L730,511L735,511L739,511L744,511L749,511L754,511L758,511L762,511L764,511L766,511" stroke-opacity="1" stroke-width="5" stroke-linecap="round" stroke-linejoin="round" style="-webkit-tap-highlight-color: rgba(0, 0, 0, 0); stroke-opacity: 1; stroke-linecap: round; stroke-linejoin: round; -webkit-user-select: text;"></path><path fill="none" stroke="#000000" d="M50,652L52,651L54,651L59,650L63,648L68,646L73,643L77,642L81,639L86,637L93,633L98,631L105,628L110,626L118,623L123,621L129,619L136,616L142,613L149,611L156,608L162,606L169,604L175,602L181,600L189,598L196,595L204,593L211,591L219,589L227,587L234,584L242,582L250,579L257,577L264,575L271,573L278,571L285,569L291,568L298,566L303,564L309,563L315,562L321,560L327,559L332,557L338,556L344,555L349,554L354,553L360,552L364,551L370,550L375,549L380,548L385,547L391,547L397,546L403,545L408,545L414,544L421,543L426,542L431,542L437,542L443,541L449,541L454,541L459,540L464,540L470,540L475,540L480,539L485,539L491,538L497,538L503,537L508,537L513,537L518,536L524,536L530,536L535,535L542,535L548,535L554,535L559,535L565,535L570,534L577,534L582,534L588,534L593,534L599,534L604,534L609,534L614,534L619,534L625,534L631,534L636,534L641,534L647,534L652,534L658,534L663,534L668,534L673,534L678,534L683,534L688,534L692,534L696,534L701,534L705,534L709,534L713,534L717,534L721,534L725,534L729,534L733,534L737,534L741,534L745,534L750,534L754,534L758,534L761,533L763,533L765,533L766,533" stroke-opacity="1" stroke-width="5" stroke-linecap="round" stroke-linejoin="round" style="-webkit-tap-highlight-color: rgba(0, 0, 0, 0); stroke-opacity: 1; stroke-linecap: round; stroke-linejoin: round; -webkit-user-select: text;"></path><path fill="none" stroke="#000000" d="M58,680L61,678L63,678L66,678L69,677L74,675L79,672L84,669L89,666L95,664L101,661L107,658L114,655L122,652L129,649L135,646L142,643L149,640L156,637L163,633L171,630L178,627L185,624L193,621L200,618L209,615L217,612L226,609L234,606L243,603L251,601L259,598L268,596L276,593L283,591L291,589L299,587L306,586L314,583L323,581L331,580L338,578L346,576L353,575L361,574L369,571L377,570L383,569L390,568L398,567L405,565L412,564L421,563L427,562L434,561L441,560L449,559L456,559L463,558L470,557L476,556L482,556L487,555L493,554L500,554L505,554L510,554L515,553L520,553L526,553L530,553L535,552L539,552L544,552L548,552L553,552L557,552L560,552L565,552L568,551L572,551L577,551L581,551L585,551L589,551L593,551L597,551L601,551L606,551L611,551L615,551L619,551L623,551L627,551L632,551L636,551L640,551L645,551L649,551L654,551L659,551L663,551L668,551L672,551L677,551L682,551L687,551L691,551L696,551L700,551L705,551L710,551L714,551L718,551L721,551L725,552L729,552L733,552L737,552L741,552L745,552L749,552L752,552L756,552L759,552L761,552L763,552L764,552L766,552L766,553" stroke-opacity="1" stroke-width="5" stroke-linecap="round" stroke-linejoin="round" style="-webkit-tap-highlight-color: rgba(0, 0, 0, 0); stroke-opacity: 1; stroke-linecap: round; stroke-linejoin: round; -webkit-user-select: text;"></path><path fill="none" stroke="#000000" d="M57,721L61,720L64,720L68,718L72,715L76,713L81,710L88,707L94,703L100,699L106,695L113,691L120,687L127,683L135,678L143,675L149,671L157,667L164,663L171,659L178,655L185,651L194,647L202,642L209,639L217,635L225,631L232,628L240,625L248,623L254,621L262,618L270,615L278,612L285,610L293,608L300,606L307,604L313,603L321,601L327,599L334,597L340,596L347,594L353,593L361,591L370,589L377,587L385,586L393,584L402,583L410,581L419,580L428,578L435,577L443,576L451,575L458,574L464,574L470,573L476,573L481,572L487,571L492,571L498,570L504,569L509,569L514,568L519,568L526,567L531,567L536,566L542,566L548,565L553,565L558,564L562,564L567,564L572,564L577,564L582,563L587,563L592,563L597,562L603,562L608,562L613,562L617,562L622,562L627,562L631,562L635,562L640,562L644,562L647,562L651,562L655,562L658,562L662,562L665,562L668,562L671,562L674,562L677,562L681,562L685,562L689,562L692,562L696,562L699,562L702,562L706,562L710,562L714,562L717,562L720,562L723,562L726,562L729,562L732,562L735,562L738,562L742,562L746,562L749,562L752,562L755,562L758,562L760,562L762,562L763,562L764,562L765,562L766,562" stroke-opacity="1" stroke-width="5" stroke-linecap="round" stroke-linejoin="round" style="-webkit-tap-highlight-color: rgba(0, 0, 0, 0); stroke-opacity: 1; stroke-linecap: round; stroke-linejoin: round; -webkit-user-select: text;"></path><path fill="none" stroke="#000000" d="M46,735L53,737L57,735L63,733L68,731L74,729L80,726L87,722L94,719L101,715L107,711L114,709L120,706L128,703L135,699L144,695L152,692L159,688L168,684L175,681L184,676L193,672L201,669L209,664L219,661L226,657L234,654L242,651L249,648L256,645L263,642L272,639L279,636L287,633L295,630L303,627L311,625L318,622L326,620L331,618L339,615L346,614L352,612L358,610L365,608L372,607L378,605L384,604L390,603L395,601L401,600L406,599L411,598L417,597L423,596L428,595L433,594L439,593L445,593L451,592L455,591L460,591L467,590L473,589L479,588L484,588L490,587L496,586L501,586L507,585L511,584L517,584L523,583L528,583L533,583L538,582L542,582L548,581L553,581L557,581L562,581L567,580L572,580L577,580L582,579L586,579L591,579L596,579L603,578L608,578L613,578L618,578L623,578L629,578L634,578L639,578L643,578L648,577L653,577L658,577L663,577L668,577L672,577L677,577L682,577L686,577L690,577L694,577L697,577L701,577L705,577L709,577L713,577L717,577L720,577L723,577L727,577L730,577L734,577L737,577L741,577L745,577L749,577L752,577L755,577L758,577L759,577L761,577L762,577L764,577L765,577L766,577L766,578L766,579" stroke-opacity="1" stroke-width="5" stroke-linecap="round" stroke-linejoin="round" style="-webkit-tap-highlight-color: rgba(0, 0, 0, 0); stroke-opacity: 1; stroke-linecap: round; stroke-linejoin: round; -webkit-user-select: text;"></path><path fill="none" stroke="#000000" d="M64,766L69,762L73,761L76,759L81,756L86,753L93,750L101,745L108,741L115,737L124,731L133,725L142,720L150,716L158,712L166,708L175,703L185,698L195,693L204,688L212,685L222,681L231,677L240,673L249,669L258,665L266,662L274,659L282,656L291,652L299,649L307,645L316,642L324,639L332,637L339,635L347,632L355,630L362,628L370,625L378,623L385,621L394,620L402,618L410,616L419,614L427,612L435,610L443,609L450,608L456,607L463,606L469,605L475,604L481,603L487,602L493,601L500,601L507,600L512,599L519,598L527,597L534,596L541,596L548,595L554,594L560,594L567,593L573,593L580,592L586,592L592,591L597,591L603,591L609,591L613,591L619,591L625,590L631,590L636,590L642,589L647,589L652,589L657,589L662,589L667,589L672,589L677,589L683,589L688,589L692,589L697,589L701,589L706,589L710,589L714,589L718,589L722,589L725,589L729,589L733,589L737,589L742,589L747,589L752,589L755,589L758,589L761,589L762,589L764,589L765,589L766,589L766,592" stroke-opacity="1" stroke-width="5" stroke-linecap="round" stroke-linejoin="round" style="-webkit-tap-highlight-color: rgba(0, 0, 0, 0); stroke-opacity: 1; stroke-linecap: round; stroke-linejoin: round; -webkit-user-select: text;"></path><path fill="none" stroke="#000000" d="M62,783L69,782L71,782L75,782L79,781L83,778L88,776L95,773L101,769L108,765L117,760L125,756L134,751L142,746L151,741L159,736L167,731L174,727L183,723L191,718L201,712L210,707L220,703L228,698L237,693L246,688L255,683L264,679L273,675L281,671L290,667L299,664L308,660L315,657L324,654L333,651L341,647L349,645L358,642L366,640L374,637L382,635L388,632L397,630L404,628L412,627L419,625L426,623L432,622L438,621L444,620L451,619L456,618L461,617L468,616L473,615L478,614L483,613L489,612L495,611L501,610L506,610L512,609L517,608L524,608L531,607L537,606L543,605L550,605L557,604L563,604L570,603L577,603L584,603L590,603L596,602L604,602L610,601L616,601L621,601L628,601L633,601L639,601L645,601L650,601L657,601L662,601L667,601L672,601L677,601L683,601L688,601L693,601L697,601L701,601L706,601L710,601L714,601L718,601L722,601L726,601L730,601L734,601L738,601L743,601L748,601L753,601L757,601L760,601L763,601L764,600L765,599L766,599" stroke-opacity="1" stroke-width="5" stroke-linecap="round" stroke-linejoin="round" style="-webkit-tap-highlight-color: rgba(0, 0, 0, 0); stroke-opacity: 1; stroke-linecap: round; stroke-linejoin: round; -webkit-user-select: text;"></path><path fill="none" stroke="#000000" d="M72,812L79,813L85,812L95,807L107,800L117,795L128,789L138,783L150,777L162,767L174,758L185,750L195,743L207,736L220,728L232,720L241,714L251,708L261,703L270,698L279,694L286,690L293,686L301,683L309,679L319,675L328,671L335,669L343,666L351,663L358,661L366,659L376,656L384,654L393,652L401,649L408,648L416,646L424,644L432,642L441,640L450,638L460,636L469,635L478,633L486,632L494,630L503,629L510,628L517,627L527,626L535,625L542,624L550,624L557,623L564,623L570,623L577,622L583,622L588,622L593,621L599,621L604,621L610,620L615,620L620,620L626,620L631,620L636,620L641,620L646,620L651,620L655,620L660,620L664,620L669,620L673,620L678,620L682,620L686,620L691,620L696,620L701,620L706,620L712,620L718,620L723,620L728,620L733,620L739,620L746,620L752,620L756,620L760,620L762,619L764,618L765,618L765,617L766,617" stroke-opacity="1" stroke-width="5" stroke-linecap="round" stroke-linejoin="round" style="-webkit-tap-highlight-color: rgba(0, 0, 0, 0); stroke-opacity: 1; stroke-linecap: round; stroke-linejoin: round; -webkit-user-select: text;"></path><path fill="none" stroke="#000000" d="M113,832L108,834L112,834L115,834L120,832L126,830L132,826L139,822L147,815L154,811L163,805L170,800L179,794L186,788L193,783L200,778L209,773L216,767L224,761L231,756L239,751L246,746L255,741L263,736L271,731L279,726L286,722L293,719L300,715L307,712L313,708L320,704L328,700L335,697L342,693L351,689L358,686L366,682L372,680L380,677L386,675L392,673L399,670L405,669L411,666L417,664L423,663L430,660L436,659L443,656L450,654L455,653L460,652L467,651L472,649L478,648L482,647L487,647L492,646L499,645L504,644L509,644L513,643L518,642L523,642L528,641L533,641L539,640L545,639L551,638L558,638L563,637L570,637L577,637L584,637L591,636L597,636L604,636L611,635L616,635L621,635L627,635L633,635L640,635L645,635L650,635L655,634L661,634L667,634L672,634L676,634L681,634L686,634L690,634L695,634L699,634L704,634L709,634L714,634L718,634L722,634L726,634L730,634L733,634L737,634L741,634L745,635L749,635L754,635L757,635L760,635L763,635L764,635L765,635L766,635" stroke-opacity="1" stroke-width="5" stroke-linecap="round" stroke-linejoin="round" style="-webkit-tap-highlight-color: rgba(0, 0, 0, 0); stroke-opacity: 1; stroke-linecap: round; stroke-linejoin: round; -webkit-user-select: text;"></path><path fill="none" stroke="#000000" d="M119,856L122,855L126,855L131,853L137,848L145,842L153,836L159,832L166,826L173,819L180,813L188,807L196,801L205,794L214,787L222,781L231,774L240,768L251,761L260,754L270,748L280,742L290,736L302,729L313,722L323,717L334,711L345,706L357,702L368,697L379,693L387,690L395,687L404,685L412,683L419,680L427,678L434,676L441,674L447,672L454,671L461,669L467,668L475,666L481,664L487,663L493,662L500,661L508,659L514,658L522,657L529,656L536,655L543,654L551,653L558,652L564,652L569,651L575,651L581,650L587,649L592,649L598,648L604,648L609,647L615,647L620,647L625,647L630,647L636,647L641,647L646,647L652,647L657,647L662,646L667,646L673,646L679,646L684,646L690,646L695,645L701,645L706,645L711,645L715,645L719,645L723,645L727,645L730,645L734,645L737,645L742,645L748,645L752,645L757,645L760,645L763,645L764,645L765,644L766,644" stroke-opacity="1" stroke-width="5" stroke-linecap="round" stroke-linejoin="round" style="-webkit-tap-highlight-color: rgba(0, 0, 0, 0); stroke-opacity: 1; stroke-linecap: round; stroke-linejoin: round; -webkit-user-select: text;"></path><path fill="none" stroke="#000000" d="M162,855L166,858L169,858L173,857L178,854L183,850L189,846L195,841L204,835L212,829L219,823L227,817L235,812L244,806L251,800L259,795L266,790L274,784L281,779L289,773L295,769L302,764L309,759L315,755L324,750L330,746L335,743L341,740L346,737L352,733L358,730L364,727L369,725L375,722L380,721L386,719L392,716L397,714L403,712L407,710L412,710L417,708L424,705L430,703L435,703L440,701L447,699L455,698L462,696L470,693L477,692L483,691L490,689L498,688L506,686L512,685L519,683L528,682L534,681L541,680L549,679L556,678L562,677L568,676L575,676L581,675L587,674L592,674L599,673L605,671L612,671L618,670L625,670L631,669L636,669L643,667L649,667L656,666L663,666L671,665L678,665L684,664L691,664L698,664L706,663L715,663L724,663L731,663L743,663L754,662L760,662L764,660L766,659" stroke-opacity="1" stroke-width="5" stroke-linecap="round" stroke-linejoin="round" style="-webkit-tap-highlight-color: rgba(0, 0, 0, 0); stroke-opacity: 1; stroke-linecap: round; stroke-linejoin: round; -webkit-user-select: text;"></path><path fill="none" stroke="#000000" d="M195,866L203,869L205,869L207,868L210,867L213,866L218,862L223,858L229,854L235,849L240,845L246,839L253,833L259,828L264,823L270,819L276,815L281,810L286,806L292,803L296,800L302,796L308,793L314,789L320,784L327,781L333,776L339,773L345,769L351,765L358,761L363,759L368,756L374,754L380,751L386,748L392,745L397,743L403,741L409,738L414,736L419,734L424,732L429,730L434,728L441,725L448,723L455,720L461,719L468,717L475,716L481,714L487,712L492,711L499,710L505,708L510,708L515,706L521,705L527,704L532,703L538,702L544,701L551,700L557,699L562,698L569,698L576,697L582,696L589,695L595,694L601,693L606,693L611,692L616,691L621,691L627,690L633,689L638,689L644,688L650,687L655,686L660,686L665,686L671,685L677,685L684,684L690,684L696,684L703,684L710,683L716,683L722,683L728,683L733,683L737,683L744,683L752,683L757,683L761,682L764,681L765,680L766,679" stroke-opacity="1" stroke-width="5" stroke-linecap="round" stroke-linejoin="round" style="-webkit-tap-highlight-color: rgba(0, 0, 0, 0); stroke-opacity: 1; stroke-linecap: round; stroke-linejoin: round; -webkit-user-select: text;"></path><path fill="none" stroke="#000000" d="M255,887L264,883L267,880L270,878L273,875L277,872L282,869L287,864L293,859L298,854L305,849L311,844L317,839L324,834L330,829L336,824L344,817L351,812L358,807L365,802L370,799L377,795L383,792L389,788L396,783L402,780L409,776L415,773L421,769L430,765L438,760L446,757L453,754L459,751L465,749L470,746L476,744L482,742L486,739L491,737L496,736L502,734L507,732L511,730L516,728L521,727L527,725L533,723L538,722L544,720L550,719L555,718L559,717L563,716L567,715L572,715L578,714L584,712L588,712L593,710L598,710L604,709L610,708L616,708L623,708L630,707L636,707L642,706L648,706L654,705L661,704L668,703L675,703L681,702L687,702L692,702L697,702L702,702L707,702L713,702L718,702L722,702L727,702L732,702L737,702L743,702L749,702L754,702L758,702L762,701L764,700L765,698L766,697" stroke-opacity="1" stroke-width="5" stroke-linecap="round" stroke-linejoin="round" style="-webkit-tap-highlight-color: rgba(0, 0, 0, 0); stroke-opacity: 1; stroke-linecap: round; stroke-linejoin: round; -webkit-user-select: text;"></path><path fill="none" stroke="#000000" d="M296,876L300,884L307,879L314,872L322,864L331,857L340,850L349,842L357,836L364,830L372,824L380,819L386,815L392,812L398,807L404,804L411,800L418,796L425,793L431,790L437,786L443,783L449,780L455,776L460,774L466,771L473,768L479,765L486,762L491,760L497,758L501,757L506,755L510,754L514,753L519,751L525,749L531,748L535,747L541,745L546,743L553,742L558,741L563,739L569,738L576,737L582,735L587,734L592,733L598,732L604,731L608,730L612,729L616,728L620,727L625,727L630,726L634,725L639,725L643,724L648,724L654,723L658,722L663,722L667,721L672,720L677,720L682,720L686,720L691,720L695,719L700,719L704,719L708,718L712,718L716,718L720,718L723,718L727,718L731,718L734,718L737,718L740,718L744,718L748,718L752,718L756,718L759,717L762,715L764,714L765,713L766,713" stroke-opacity="1" stroke-width="5" stroke-linecap="round" stroke-linejoin="round" style="-webkit-tap-highlight-color: rgba(0, 0, 0, 0); stroke-opacity: 1; stroke-linecap: round; stroke-linejoin: round; -webkit-user-select: text;"></path><path fill="none" stroke="#000000" d="M326,885L335,886L339,883L344,880L349,875L357,869L364,863L371,858L378,853L385,849L390,843L397,838L404,832L410,827L416,824L420,821L424,818L430,815L438,810L446,805L452,801L460,798L467,794L474,791L481,788L488,784L494,781L500,779L506,777L512,774L519,771L527,769L534,767L541,764L548,762L555,760L561,758L567,756L572,755L579,753L584,751L589,750L595,748L601,747L606,746L611,745L616,744L621,743L627,742L632,742L638,741L643,740L649,738L655,737L660,737L666,735L671,734L678,734L685,733L691,732L697,732L703,731L709,730L716,730L721,729L726,729L731,729L735,729L740,729L747,729L754,729L758,728L762,727L764,725L765,724L766,723" stroke-opacity="1" stroke-width="5" stroke-linecap="round" stroke-linejoin="round" style="-webkit-tap-highlight-color: rgba(0, 0, 0, 0); stroke-opacity: 1; stroke-linecap: round; stroke-linejoin: round; -webkit-user-select: text;"></path><path fill="none" stroke="#000000" d="M356,874L366,874L370,873L377,870L384,866L390,863L397,858L405,853L411,849L417,844L423,839L429,835L434,832L440,828L446,824L451,822L458,818L465,815L474,810L481,807L487,804L493,801L499,799L506,797L512,794L519,791L525,789L532,786L537,783L543,781L550,779L557,776L562,775L568,773L574,771L580,770L585,769L591,768L596,766L603,765L609,764L615,763L621,761L627,760L633,759L639,758L645,757L651,756L657,755L662,754L668,753L673,753L678,752L684,751L689,751L694,751L700,750L706,749L712,749L718,748L725,747L730,746L735,746L739,745L745,745L750,745L755,744L759,743L762,742L764,741L765,739L766,738" stroke-opacity="1" stroke-width="5" stroke-linecap="round" stroke-linejoin="round" style="-webkit-tap-highlight-color: rgba(0, 0, 0, 0); stroke-opacity: 1; stroke-linecap: round; stroke-linejoin: round; -webkit-user-select: text;"></path><path fill="none" stroke="#000000" d="M403,874L419,866L427,863L435,859L443,855L452,851L459,847L466,844L472,841L479,838L485,835L491,832L498,829L504,827L508,825L513,823L519,820L525,817L532,815L538,812L546,810L553,807L560,805L566,802L574,800L581,798L587,795L593,793L599,792L605,790L611,788L616,787L622,786L629,784L635,783L641,781L647,780L653,779L660,777L665,776L669,776L674,775L679,774L683,773L687,773L691,772L696,771L699,771L703,771L707,770L711,770L714,770L717,769L720,768L723,768L725,768L728,768L731,768L734,767L736,767L739,767L741,767L743,767L746,767L749,766L753,766L757,766L759,765L761,764L763,763L764,762L764,761L765,760L765,759L766,758L766,757" stroke-opacity="1" stroke-width="5" stroke-linecap="round" stroke-linejoin="round" style="-webkit-tap-highlight-color: rgba(0, 0, 0, 0); stroke-opacity: 1; stroke-linecap: round; stroke-linejoin: round; -webkit-user-select: text;"></path><path fill="none" stroke="#000000" d="M433,872L447,863L454,860L462,858L472,854L481,850L489,848L497,844L507,841L516,837L526,833L537,828L548,824L556,822L565,819L575,816L585,813L594,809L605,806L613,803L623,800L634,798L645,795L657,793L667,790L676,789L685,788L694,786L702,785L711,783L718,782L726,781L734,778L741,778L750,777L757,776L762,774L764,771L766,769L766,768" stroke-opacity="1" stroke-width="5" stroke-linecap="round" stroke-linejoin="round" style="-webkit-tap-highlight-color: rgba(0, 0, 0, 0); stroke-opacity: 1; stroke-linecap: round; stroke-linejoin: round; -webkit-user-select: text;"></path><path fill="none" stroke="#000000" d="M446,877L455,874L458,873L462,872L468,870L475,867L482,864L490,861L498,858L506,855L513,853L519,850L526,848L531,846L536,844L541,843L545,841L550,839L556,837L561,835L565,834L571,832L577,830L583,828L589,826L594,824L599,823L604,822L609,821L613,820L619,818L625,817L630,817L635,817L639,816L644,815L650,814L655,813L660,812L663,812L667,811L670,810L673,810L677,810L681,810L685,809L689,809L693,808L698,808L702,807L706,807L711,806L714,805L718,805L722,804L726,803L731,802L735,801L740,800L745,800L750,800L754,799L758,798L761,797L763,796L764,794L765,793L766,790L766,789" stroke-opacity="1" stroke-width="5" stroke-linecap="round" stroke-linejoin="round" style="-webkit-tap-highlight-color: rgba(0, 0, 0, 0); stroke-opacity: 1; stroke-linecap: round; stroke-linejoin: round; -webkit-user-select: text;"></path><path fill="none" stroke="#000000" d="M489,866L504,863L511,860L520,856L530,853L538,851L548,848L557,845L566,842L576,839L584,837L593,835L601,833L611,831L619,829L630,827L639,825L647,823L656,822L665,820L676,819L686,817L694,815L702,813L709,813L717,812L725,810L734,808L743,806L754,805L761,802L764,800L766,798L766,796" stroke-opacity="1" stroke-width="5" stroke-linecap="round" stroke-linejoin="round" style="-webkit-tap-highlight-color: rgba(0, 0, 0, 0); stroke-opacity: 1; stroke-linecap: round; stroke-linejoin: round; -webkit-user-select: text;"></path><path fill="none" stroke="#000000" d="M511,880L519,877L526,875L533,871L541,868L549,866L558,863L566,861L574,858L583,856L591,854L599,853L607,851L615,849L623,846L633,844L641,842L647,840L653,839L660,838L664,837L670,836L675,834L682,834L687,833L692,832L697,832L702,831L706,830L711,829L715,829L719,829L723,828L725,828L729,828L732,827L735,827L740,827L744,827L748,827L752,827L756,827L759,827L762,825L763,824L764,823L765,822L766,820L766,819L766,817L766,816L766,815L766,813" stroke-opacity="1" stroke-width="5" stroke-linecap="round" stroke-linejoin="round" style="-webkit-tap-highlight-color: rgba(0, 0, 0, 0); stroke-opacity: 1; stroke-linecap: round; stroke-linejoin: round; -webkit-user-select: text;"></path></svg>