<svg height="906" version="1.1" width="768" xmlns="http://www.w3.org/2000/svg" xmlns:xlink="http://www.w3.org/1999/xlink" style="overflow: hidden; position: relative; -webkit-user-select: text;"><desc style="-webkit-tap-highlight-color: rgba(0, 0, 0, 0); -webkit-user-select: text;">Created with Raphaël 2.2.0</desc><defs style="-webkit-tap-highlight-color: rgba(0, 0, 0, 0); -webkit-user-select: text;"></defs><path fill="none" stroke="#000000" d="M394,20L390,28L390,30L390,32L390,34L390,37L390,40L390,43L390,45L390,48L390,51L390,54L390,57L390,60L390,63L390,65L390,68L390,71L390,73L390,76L390,79L390,83L390,85L390,88L390,91L390,93L391,96L391,98L392,100L392,102L392,104L393,106L395,107L395,109L397,111L399,112L401,114L402,115L404,116L406,117L407,118L409,119L410,120L411,122L412,124L412,125L412,128L413,130L413,133L413,136L413,140L413,144L413,148L413,153L413,157L413,162L413,167L413,172L413,178L413,183L413,189L413,194L412,199L412,203L412,208L411,212L410,217L410,222L409,227L409,232L409,236L408,240L408,244L408,247L408,250L408,253L408,256L408,258L408,260L408,261L408,263L408,265L408,266L409,268L409,269L411,271L412,272L414,274L416,275L418,276L420,276L424,276L430,276" stroke-opacity="1" stroke-width="5" stroke-linecap="round" stroke-linejoin="round" style="-webkit-tap-highlight-color: rgba(0, 0, 0, 0); stroke-opacity: 1; stroke-linecap: round; stroke-linejoin: round; -webkit-user-select: text;"></path><path fill="none" stroke="#000000" d="M442,107L444,114L444,117L444,122L444,126L444,132L444,137L444,143L444,149L443,156L443,161L442,166L442,173L441,178L441,184L440,189L439,195L439,200L439,206L438,211L438,216L438,221L438,226L437,231L437,235L437,239L437,243L437,246L437,250L437,253L437,257L437,260L437,263L438,265L438,268L440,270L441,273L443,275L444,276L446,278L447,280L448,281L450,282L451,283L453,284L454,285L455,285L457,286L458,287L460,287L461,288L462,288L463,289L465,289L466,289L468,289L469,290L470,290L472,290L473,291L475,292L477,294L479,296L480,297L481,299L482,301L482,303L483,305L483,307L484,310L484,314L484,320L484,326L484,333L484,343" stroke-opacity="1" stroke-width="5" stroke-linecap="round" stroke-linejoin="round" style="-webkit-tap-highlight-color: rgba(0, 0, 0, 0); stroke-opacity: 1; stroke-linecap: round; stroke-linejoin: round; -webkit-user-select: text;"></path><path fill="none" stroke="#000000" d="M453,190L453,202L453,206L453,211L453,218L453,224L453,231L453,237L453,243L453,248L452,254L452,259L451,264L451,269L451,274L451,279L451,283L451,286L451,288L452,290L454,292L456,293L458,293L461,294L463,294L466,295L468,296L471,297L473,299L475,301L477,303L479,306L481,310L483,314L485,319L486,326L486,331L487,337L487,344L487,351L487,358L487,366L486,373L485,381L485,389L485,396L485,404L485,411L485,419L485,428L487,435L488,440L490,443" stroke-opacity="1" stroke-width="5" stroke-linecap="round" stroke-linejoin="round" style="-webkit-tap-highlight-color: rgba(0, 0, 0, 0); stroke-opacity: 1; stroke-linecap: round; stroke-linejoin: round; -webkit-user-select: text;"></path><path fill="none" stroke="#000000" d="M424,288L434,296L437,301L439,307L441,314L443,321L444,329L445,336L446,345L446,352L446,360L446,368L446,376L446,383L446,391L446,399L445,406L444,411L444,417L443,422L443,427L443,432L443,436L443,440L443,445L443,450L443,454L445,460L447,464L449,468L452,472L455,475L458,478L463,481L468,482L475,483" stroke-opacity="1" stroke-width="5" stroke-linecap="round" stroke-linejoin="round" style="-webkit-tap-highlight-color: rgba(0, 0, 0, 0); stroke-opacity: 1; stroke-linecap: round; stroke-linejoin: round; -webkit-user-select: text;"></path><path fill="none" stroke="#000000" d="M419,343L424,347L426,350L428,355L428,361L429,367L429,374L430,381L430,387L431,394L431,401L431,406L431,412L431,418L431,423L431,429L431,434L431,438L431,443L431,447L431,451L431,456L431,460L431,465L431,469L431,472L431,476L431,480L431,484L431,487L431,490L431,493L432,496L432,499L433,501L434,503L435,506L436,509L438,512L440,515L443,516L446,518L450,519L456,520L464,519L472,512" stroke-opacity="1" stroke-width="5" stroke-linecap="round" stroke-linejoin="round" style="-webkit-tap-highlight-color: rgba(0, 0, 0, 0); stroke-opacity: 1; stroke-linecap: round; stroke-linejoin: round; -webkit-user-select: text;"></path><path fill="none" stroke="#000000" d="M462,390L461,398L461,404L462,411L463,420L464,431L465,441L465,450L465,458L465,464L465,470L466,477L466,485L468,491L470,497L473,502L478,507L483,509L490,510L498,507" stroke-opacity="1" stroke-width="5" stroke-linecap="round" stroke-linejoin="round" style="-webkit-tap-highlight-color: rgba(0, 0, 0, 0); stroke-opacity: 1; stroke-linecap: round; stroke-linejoin: round; -webkit-user-select: text;"></path><path fill="none" stroke="#000000" d="M496,381L500,386L503,391L506,396L508,403L508,409L509,416L509,423L509,432L509,438L508,445L507,452L505,458L504,463L503,469L503,474L502,479L502,483L502,488L502,492L502,497L502,502L502,507L502,511L502,516L502,521L502,527L503,533L505,538L507,542L509,545L513,548L518,549L524,548" stroke-opacity="1" stroke-width="5" stroke-linecap="round" stroke-linejoin="round" style="-webkit-tap-highlight-color: rgba(0, 0, 0, 0); stroke-opacity: 1; stroke-linecap: round; stroke-linejoin: round; -webkit-user-select: text;"></path><path fill="none" stroke="#000000" d="M348,228L351,235L351,239L353,244L354,252L356,260L357,269L358,279L359,289L359,299L360,310L360,321L361,331L361,340L361,350L361,359L361,370L361,382L361,392L361,402L362,411L363,418L363,427L365,435L366,440L368,448L370,455L372,461L375,466L379,471L385,474L393,475L403,474L413,462" stroke-opacity="1" stroke-width="5" stroke-linecap="round" stroke-linejoin="round" style="-webkit-tap-highlight-color: rgba(0, 0, 0, 0); stroke-opacity: 1; stroke-linecap: round; stroke-linejoin: round; -webkit-user-select: text;"></path><path fill="none" stroke="#000000" d="M404,356L409,362L410,367L412,372L413,379L414,386L414,394L415,403L415,411L415,420L412,431L411,438L409,447L407,456L406,467L405,479L405,488L405,496L405,505L406,510L409,514L412,516L417,516" stroke-opacity="1" stroke-width="5" stroke-linecap="round" stroke-linejoin="round" style="-webkit-tap-highlight-color: rgba(0, 0, 0, 0); stroke-opacity: 1; stroke-linecap: round; stroke-linejoin: round; -webkit-user-select: text;"></path><path fill="none" stroke="#000000" d="M374,262L377,268L377,273L377,278L378,284L379,291L379,298L379,305L379,311L379,318L378,326L377,333L376,341L375,348L375,356L375,364L375,371L375,380L375,387L375,394L375,401L375,409L375,415L375,422L375,428L374,435L373,441L373,448L372,455L372,460L371,466L371,472L371,477L371,483L371,488L371,493L371,498L371,502L372,507L374,511L377,513L381,516L387,518L397,518L409,514L420,503" stroke-opacity="1" stroke-width="5" stroke-linecap="round" stroke-linejoin="round" style="-webkit-tap-highlight-color: rgba(0, 0, 0, 0); stroke-opacity: 1; stroke-linecap: round; stroke-linejoin: round; -webkit-user-select: text;"></path><path fill="none" stroke="#000000" d="M415,293L424,295L427,299L429,303L430,308L430,316L430,326L430,335L428,347L424,357L422,366L419,377L417,387L416,399L415,408L415,418L415,431L417,440L421,450L426,456L431,461" stroke-opacity="1" stroke-width="5" stroke-linecap="round" stroke-linejoin="round" style="-webkit-tap-highlight-color: rgba(0, 0, 0, 0); stroke-opacity: 1; stroke-linecap: round; stroke-linejoin: round; -webkit-user-select: text;"></path><path fill="none" stroke="#000000" d="M425,441L429,445L431,449L433,455L434,462L435,468L435,475L435,482L435,489L435,496L435,503L435,510L435,516L435,523L435,529L434,535L434,540L434,545L434,550L434,555L434,560L434,565L434,570L434,574L434,579L434,584L434,588L434,591L434,595L435,598L436,601L438,604L440,607L444,609L451,610L458,610L468,606" stroke-opacity="1" stroke-width="5" stroke-linecap="round" stroke-linejoin="round" style="-webkit-tap-highlight-color: rgba(0, 0, 0, 0); stroke-opacity: 1; stroke-linecap: round; stroke-linejoin: round; -webkit-user-select: text;"></path><path fill="none" stroke="#000000" d="M472,504L478,514L480,518L482,525L483,533L484,541L484,550L484,559L484,568L484,578L484,587L484,596L484,605L486,614L491,621L497,623L503,623" stroke-opacity="1" stroke-width="5" stroke-linecap="round" stroke-linejoin="round" style="-webkit-tap-highlight-color: rgba(0, 0, 0, 0); stroke-opacity: 1; stroke-linecap: round; stroke-linejoin: round; -webkit-user-select: text;"></path><path fill="none" stroke="#000000" d="M514,491L519,496L524,501L527,508L531,515L532,521L533,528L533,537L532,545L530,554L527,562L524,569L522,575L520,581L518,587L516,593L515,599L514,605L512,611L511,617L511,622L510,627L510,631L510,635L510,640L510,643L510,647L510,651L510,655L510,659L510,663L510,667L510,670L510,674L510,677L511,679L512,682L514,684L516,685L521,686L528,686L534,679" stroke-opacity="1" stroke-width="5" stroke-linecap="round" stroke-linejoin="round" style="-webkit-tap-highlight-color: rgba(0, 0, 0, 0); stroke-opacity: 1; stroke-linecap: round; stroke-linejoin: round; -webkit-user-select: text;"></path><path fill="none" stroke="#000000" d="M380,488L382,492L385,498L387,507L389,516L390,528L391,540L391,554L392,567L392,581L394,596L397,610L401,622L407,632L413,638L419,638" stroke-opacity="1" stroke-width="5" stroke-linecap="round" stroke-linejoin="round" style="-webkit-tap-highlight-color: rgba(0, 0, 0, 0); stroke-opacity: 1; stroke-linecap: round; stroke-linejoin: round; -webkit-user-select: text;"></path><path fill="none" stroke="#000000" d="M286,394L293,394L297,397L300,402L302,407L304,413L305,419L306,426L306,434L306,443L306,451L306,460L305,469L305,479L305,489L305,499L305,509L305,518L305,526L305,534L305,542L305,549L305,555L306,562L307,569L307,575L308,581L310,587L310,592L311,597L312,602L314,607L315,613L317,618L318,623L320,627L324,631L328,634L334,636L344,636L356,628L368,608" stroke-opacity="1" stroke-width="5" stroke-linecap="round" stroke-linejoin="round" style="-webkit-tap-highlight-color: rgba(0, 0, 0, 0); stroke-opacity: 1; stroke-linecap: round; stroke-linejoin: round; -webkit-user-select: text;"></path><path fill="none" stroke="#000000" d="M324,470L329,474L331,479L334,484L336,491L338,499L339,508L339,516L339,524L339,535L339,543L339,552L339,562L339,570L341,579L342,586L345,592L348,596L352,597L360,594" stroke-opacity="1" stroke-width="5" stroke-linecap="round" stroke-linejoin="round" style="-webkit-tap-highlight-color: rgba(0, 0, 0, 0); stroke-opacity: 1; stroke-linecap: round; stroke-linejoin: round; -webkit-user-select: text;"></path><path fill="none" stroke="#000000" d="M319,326L323,325L326,328L329,332L330,337L331,344L332,351L333,358L333,364L333,371L333,378L333,385L333,393L333,402L333,409L333,417L333,425L333,433L333,440L333,448L332,455L332,463L332,470L332,477L331,484L331,491L331,497L331,503L330,508L330,515L330,522L330,527L330,533L330,539L330,545L330,550L330,555L330,560L330,565L330,569L331,574L332,578L333,582L334,586L335,591L337,594L339,596L342,598L350,598L362,594L375,579" stroke-opacity="1" stroke-width="5" stroke-linecap="round" stroke-linejoin="round" style="-webkit-tap-highlight-color: rgba(0, 0, 0, 0); stroke-opacity: 1; stroke-linecap: round; stroke-linejoin: round; -webkit-user-select: text;"></path><path fill="none" stroke="#000000" d="M359,343L366,343L370,345L375,349L380,355L383,362L384,372L384,382L384,392L383,405L381,417L378,431L375,445L373,460L372,474L372,486L372,498L375,509L380,518L387,525L395,533" stroke-opacity="1" stroke-width="5" stroke-linecap="round" stroke-linejoin="round" style="-webkit-tap-highlight-color: rgba(0, 0, 0, 0); stroke-opacity: 1; stroke-linecap: round; stroke-linejoin: round; -webkit-user-select: text;"></path><path fill="none" stroke="#000000" d="M370,515L377,522L379,526L381,530L383,536L384,542L385,547L385,554L385,560L385,566L385,572L385,578L385,584L385,589L385,594L385,600L385,606L385,613L385,619L385,623L385,629L385,634L384,639L383,644L383,647L382,651L381,655L381,659L380,662L380,665L380,669L380,671L380,674L380,676L381,679L385,681L392,684L404,684L417,676" stroke-opacity="1" stroke-width="5" stroke-linecap="round" stroke-linejoin="round" style="-webkit-tap-highlight-color: rgba(0, 0, 0, 0); stroke-opacity: 1; stroke-linecap: round; stroke-linejoin: round; -webkit-user-select: text;"></path><path fill="none" stroke="#000000" d="M409,538L413,539L416,542L420,548L423,557L424,565L424,572L425,580L425,590L425,599L424,611L422,620L421,630L421,639L421,645L423,650L429,653L435,653" stroke-opacity="1" stroke-width="5" stroke-linecap="round" stroke-linejoin="round" style="-webkit-tap-highlight-color: rgba(0, 0, 0, 0); stroke-opacity: 1; stroke-linecap: round; stroke-linejoin: round; -webkit-user-select: text;"></path><path fill="none" stroke="#000000" d="M449,530L455,531L458,534L460,538L463,545L465,552L467,561L467,568L467,577L467,585L464,593L462,601L460,608L457,616L455,622L453,628L452,635L451,642L451,648L450,654L450,660L449,665L449,670L449,674L449,678L449,682L450,686L455,689L464,689L475,680" stroke-opacity="1" stroke-width="5" stroke-linecap="round" stroke-linejoin="round" style="-webkit-tap-highlight-color: rgba(0, 0, 0, 0); stroke-opacity: 1; stroke-linecap: round; stroke-linejoin: round; -webkit-user-select: text;"></path><path fill="none" stroke="#000000" d="M478,242L486,247L491,252L495,256L499,261L502,266L504,273L504,279L504,285L504,294L503,302L501,310L498,320L496,329L494,338L493,346L492,355L491,365L489,375L487,384L485,393L485,401L484,408L483,416L483,423L483,431L483,439L483,447L483,454L483,461L484,466L485,472L487,477L490,482L493,487L497,491L502,493L510,493L519,484" stroke-opacity="1" stroke-width="5" stroke-linecap="round" stroke-linejoin="round" style="-webkit-tap-highlight-color: rgba(0, 0, 0, 0); stroke-opacity: 1; stroke-linecap: round; stroke-linejoin: round; -webkit-user-select: text;"></path><path fill="none" stroke="#000000" d="M516,342L521,346L525,350L529,355L532,361L534,367L535,377L535,385L535,393L534,404L531,413L527,424L524,435L522,446L521,455L521,465L521,472L524,480L528,484L532,485" stroke-opacity="1" stroke-width="5" stroke-linecap="round" stroke-linejoin="round" style="-webkit-tap-highlight-color: rgba(0, 0, 0, 0); stroke-opacity: 1; stroke-linecap: round; stroke-linejoin: round; -webkit-user-select: text;"></path><path fill="none" stroke="#000000" d="M508,500L514,509L518,513L521,517L523,522L525,528L526,534L526,538L527,544L527,549L527,555L527,561L527,567L527,573L526,580L524,586L524,591L523,596L522,601L521,607L521,613L520,619L520,624L519,629L519,635L519,640L519,644L519,648L519,652L519,657L519,661L519,664L519,668L519,671L519,674L520,676L524,676L530,671L535,662" stroke-opacity="1" stroke-width="5" stroke-linecap="round" stroke-linejoin="round" style="-webkit-tap-highlight-color: rgba(0, 0, 0, 0); stroke-opacity: 1; stroke-linecap: round; stroke-linejoin: round; -webkit-user-select: text;"></path><path fill="none" stroke="#000000" d="M536,488L540,492L545,497L550,503L553,508L555,514L556,521L556,529L555,538L550,548L547,559L545,568L543,578L541,588L540,596L540,605L540,614L540,621L540,629L540,637L540,644L538,648" stroke-opacity="1" stroke-width="5" stroke-linecap="round" stroke-linejoin="round" style="-webkit-tap-highlight-color: rgba(0, 0, 0, 0); stroke-opacity: 1; stroke-linecap: round; stroke-linejoin: round; -webkit-user-select: text;"></path><path fill="none" stroke="#000000" d="M475,630L482,631L486,633L489,637L492,642L494,645L497,650L498,654L498,659L498,665L498,673L497,681L494,689L491,697L489,706L487,715L486,722L486,729L486,737L487,744L494,753L501,754" stroke-opacity="1" stroke-width="5" stroke-linecap="round" stroke-linejoin="round" style="-webkit-tap-highlight-color: rgba(0, 0, 0, 0); stroke-opacity: 1; stroke-linecap: round; stroke-linejoin: round; -webkit-user-select: text;"></path><path fill="none" stroke="#000000" d="M526,611L528,613L533,615L538,620L542,626L544,632L545,636L547,642L547,649L547,660L545,670L542,679L540,688L538,695L537,703L536,709L536,716L536,725L536,737L537,744" stroke-opacity="1" stroke-width="5" stroke-linecap="round" stroke-linejoin="round" style="-webkit-tap-highlight-color: rgba(0, 0, 0, 0); stroke-opacity: 1; stroke-linecap: round; stroke-linejoin: round; -webkit-user-select: text;"></path><path fill="none" stroke="#000000" d="M443,680L443,683L448,684L454,688L457,692L460,696L462,701L462,706L462,712L462,720L460,728L457,737L455,743L453,750L452,756L452,763L452,770L452,775L452,779L452,783L452,785L453,785L455,779" stroke-opacity="1" stroke-width="5" stroke-linecap="round" stroke-linejoin="round" style="-webkit-tap-highlight-color: rgba(0, 0, 0, 0); stroke-opacity: 1; stroke-linecap: round; stroke-linejoin: round; -webkit-user-select: text;"></path><path fill="none" stroke="#000000" d="M304,617L307,621L312,621L318,621L322,622L328,624L333,628L336,635L337,642L338,650L339,659L340,669L340,679L341,689L341,697L342,705L343,714L343,721L344,728L344,734L345,741L346,748L346,755L347,765L348,772L349,777L351,779L355,779L364,759" stroke-opacity="1" stroke-width="5" stroke-linecap="round" stroke-linejoin="round" style="-webkit-tap-highlight-color: rgba(0, 0, 0, 0); stroke-opacity: 1; stroke-linecap: round; stroke-linejoin: round; -webkit-user-select: text;"></path><path fill="none" stroke="#000000" d="M239,453L244,452L249,452L253,454L258,457L262,462L264,468L267,476L268,484L269,492L269,501L269,511L269,520L269,530L269,540L269,549L269,558L269,566L269,574L269,582L269,590L269,597L269,605L271,614L271,622L273,631L275,640L278,645L280,646L288,643" stroke-opacity="1" stroke-width="5" stroke-linecap="round" stroke-linejoin="round" style="-webkit-tap-highlight-color: rgba(0, 0, 0, 0); stroke-opacity: 1; stroke-linecap: round; stroke-linejoin: round; -webkit-user-select: text;"></path><path fill="none" stroke="#000000" d="M256,228L261,230L265,233L269,238L271,246L273,254L274,263L275,272L275,283L275,296L275,309L275,323L275,336L275,349L275,362L275,372L275,384L275,394L274,404L274,413L274,421L274,428L274,435L274,441L274,447L275,453L276,459L277,463L278,468L278,472L280,476L281,480L282,484L284,486L287,489L291,490L301,490L317,470" stroke-opacity="1" stroke-width="5" stroke-linecap="round" stroke-linejoin="round" style="-webkit-tap-highlight-color: rgba(0, 0, 0, 0); stroke-opacity: 1; stroke-linecap: round; stroke-linejoin: round; -webkit-user-select: text;"></path><path fill="none" stroke="#000000" d="M298,229L302,231L307,235L312,239L316,246L317,255L317,267L317,279L314,292L311,305L309,317L307,329L307,341L307,352L312,362L319,370L325,373L335,371" stroke-opacity="1" stroke-width="5" stroke-linecap="round" stroke-linejoin="round" style="-webkit-tap-highlight-color: rgba(0, 0, 0, 0); stroke-opacity: 1; stroke-linecap: round; stroke-linejoin: round; -webkit-user-select: text;"></path><path fill="none" stroke="#000000" d="M334,133L336,131L340,131L344,132L349,133L351,135L354,139L355,144L356,150L356,156L356,163L355,171L353,180L353,189L352,199L351,210L351,221L350,234L349,245L347,257L345,268L344,280L342,290L341,300L340,310L340,319L339,326L339,335L339,342L339,350L339,356L339,363L339,368L339,374L339,379L339,384L339,389L339,392L341,394L342,396L345,397L350,398L356,398L365,393" stroke-opacity="1" stroke-width="5" stroke-linecap="round" stroke-linejoin="round" style="-webkit-tap-highlight-color: rgba(0, 0, 0, 0); stroke-opacity: 1; stroke-linecap: round; stroke-linejoin: round; -webkit-user-select: text;"></path><path fill="none" stroke="#000000" d="M351,87L356,88L360,93L365,100L368,110L370,119L371,129L371,141L371,153L369,166L366,183L363,200L361,217L359,232L359,246L359,258L359,265L363,266" stroke-opacity="1" stroke-width="5" stroke-linecap="round" stroke-linejoin="round" style="-webkit-tap-highlight-color: rgba(0, 0, 0, 0); stroke-opacity: 1; stroke-linecap: round; stroke-linejoin: round; -webkit-user-select: text;"></path><path fill="none" stroke="#000000" d="M388,59L395,54L399,56L402,61L404,67L405,75L406,83L407,90L407,100L407,107L407,117L407,127L406,136L403,145L402,154L400,163L400,171L400,180L400,189L399,198L398,207L397,216L397,225L396,234L395,241L395,249L394,256L393,265L392,271L391,278L390,285L389,292L388,298L388,305L387,311L387,317L387,323L387,328L387,333L387,338L387,342L388,345L392,349L396,352L404,354L418,353L434,334" stroke-opacity="1" stroke-width="5" stroke-linecap="round" stroke-linejoin="round" style="-webkit-tap-highlight-color: rgba(0, 0, 0, 0); stroke-opacity: 1; stroke-linecap: round; stroke-linejoin: round; -webkit-user-select: text;"></path><path fill="none" stroke="#000000" d="M431,82L438,81L444,83L450,88L454,94L458,102L458,109L458,119L458,132L458,143L455,154L454,166L453,178L453,187L453,199L453,211L453,219L457,226L461,227L472,221" stroke-opacity="1" stroke-width="5" stroke-linecap="round" stroke-linejoin="round" style="-webkit-tap-highlight-color: rgba(0, 0, 0, 0); stroke-opacity: 1; stroke-linecap: round; stroke-linejoin: round; -webkit-user-select: text;"></path><path fill="none" stroke="#000000" d="M461,73L464,80L470,87L476,95L480,104L483,111L484,119L484,129L484,136L483,145L481,154L479,162L476,170L474,179L472,188L470,196L469,205L468,213L466,221L465,229L464,238L463,245L463,252L462,260L462,267L461,274L461,281L461,288L461,294L461,300L461,306L462,312L464,317L467,321L472,322L481,322L491,312L498,300" stroke-opacity="1" stroke-width="5" stroke-linecap="round" stroke-linejoin="round" style="-webkit-tap-highlight-color: rgba(0, 0, 0, 0); stroke-opacity: 1; stroke-linecap: round; stroke-linejoin: round; -webkit-user-select: text;"></path><path fill="none" stroke="#000000" d="M491,136L498,143L503,149L507,156L511,163L513,170L515,179L516,188L516,198L516,210L511,221L505,235L501,247L497,260L494,272L493,284L493,293L493,303L495,307L502,308" stroke-opacity="1" stroke-width="5" stroke-linecap="round" stroke-linejoin="round" style="-webkit-tap-highlight-color: rgba(0, 0, 0, 0); stroke-opacity: 1; stroke-linecap: round; stroke-linejoin: round; -webkit-user-select: text;"></path><path fill="none" stroke="#000000" d="M516,162L518,166L522,170L527,176L531,184L534,192L535,201L535,209L535,217L535,225L535,234L535,243L534,250L532,258L530,266L528,272L526,279L525,287L523,293L522,299L520,305L519,311L518,317L517,324L516,329L515,336L514,342L513,348L513,353L512,359L512,364L512,369L512,373L512,377L512,382L512,387L512,392L512,396L512,401L512,405L512,409L513,413L514,417L515,421L517,424L519,427L524,431L531,433L543,433" stroke-opacity="1" stroke-width="5" stroke-linecap="round" stroke-linejoin="round" style="-webkit-tap-highlight-color: rgba(0, 0, 0, 0); stroke-opacity: 1; stroke-linecap: round; stroke-linejoin: round; -webkit-user-select: text;"></path><path fill="none" stroke="#000000" d="M283,143L283,142L297,142L304,146L311,153L315,162L317,173L318,186L320,202L322,220L324,236L325,251L329,265L335,278L341,285L347,287" stroke-opacity="1" stroke-width="5" stroke-linecap="round" stroke-linejoin="round" style="-webkit-tap-highlight-color: rgba(0, 0, 0, 0); stroke-opacity: 1; stroke-linecap: round; stroke-linejoin: round; -webkit-user-select: text;"></path><path fill="none" stroke="#000000" d="M264,167L271,167L278,167L285,169L291,173L297,178L301,185L304,194L305,203L306,212L306,223L306,237L306,251L304,266L302,281L302,295L302,306L302,318L302,328L302,338L302,347L303,356L305,365L305,371L307,378L308,383L310,387L312,390L316,392L324,392L332,385" stroke-opacity="1" stroke-width="5" stroke-linecap="round" stroke-linejoin="round" style="-webkit-tap-highlight-color: rgba(0, 0, 0, 0); stroke-opacity: 1; stroke-linecap: round; stroke-linejoin: round; -webkit-user-select: text;"></path><path fill="none" stroke="#000000" d="M226,119L234,118L241,118L247,120L253,123L256,128L260,135L261,144L263,152L264,164L265,177L265,192L266,207L267,226L268,241L269,256L272,268L276,275L282,278" stroke-opacity="1" stroke-width="5" stroke-linecap="round" stroke-linejoin="round" style="-webkit-tap-highlight-color: rgba(0, 0, 0, 0); stroke-opacity: 1; stroke-linecap: round; stroke-linejoin: round; -webkit-user-select: text;"></path><path fill="none" stroke="#000000" d="M212,204L220,203L227,204L234,207L242,213L246,221L249,229L251,237L252,244L253,254L253,263L253,273L253,286L253,296L253,307L253,316L253,326L253,335L253,344L253,353L253,362L253,370L253,379L253,389L253,396L253,404L253,412L253,419L253,426L253,432L253,438L253,443L253,448L254,453L255,457L256,462L257,465L259,469L262,471L268,472L278,472L289,458" stroke-opacity="1" stroke-width="5" stroke-linecap="round" stroke-linejoin="round" style="-webkit-tap-highlight-color: rgba(0, 0, 0, 0); stroke-opacity: 1; stroke-linecap: round; stroke-linejoin: round; -webkit-user-select: text;"></path><path fill="none" stroke="#000000" d="M271,63L275,63L281,63L291,66L300,71L307,79L310,89L311,99L311,112L311,126L311,139L310,152L308,165L307,178L307,192L307,205L307,217L308,227L310,236L312,242L315,246L319,247L325,241" stroke-opacity="1" stroke-width="5" stroke-linecap="round" stroke-linejoin="round" style="-webkit-tap-highlight-color: rgba(0, 0, 0, 0); stroke-opacity: 1; stroke-linecap: round; stroke-linejoin: round; -webkit-user-select: text;"></path><path fill="none" stroke="#000000" d="M320,42L323,44L326,49L329,57L333,66L336,76L339,83L342,92L345,100L348,107L351,115L351,125L352,135L352,146L352,157L351,167L349,177L348,187L347,198L346,210L345,220L344,233L343,244L341,255L339,267L338,277L337,287L336,297L336,307L335,315L335,323L335,331L335,338L335,346L335,354L334,362L334,369L334,375L334,382L333,389L333,395L333,402L333,409L333,416L333,422L333,428L333,435L333,440L333,446L333,452L333,458L334,463L336,468L337,473L340,477L345,482L352,487L364,491L382,491L403,485L419,465" stroke-opacity="1" stroke-width="5" stroke-linecap="round" stroke-linejoin="round" style="-webkit-tap-highlight-color: rgba(0, 0, 0, 0); stroke-opacity: 1; stroke-linecap: round; stroke-linejoin: round; -webkit-user-select: text;"></path><path fill="none" stroke="#000000" d="M402,39L403,36L409,36L417,39L425,43L431,48L433,54L434,61L434,71L434,83L433,95L431,108L429,122L427,138L426,157L426,175L426,193L426,207L426,221L428,232L431,241L436,248L443,252L454,252L470,239" stroke-opacity="1" stroke-width="5" stroke-linecap="round" stroke-linejoin="round" style="-webkit-tap-highlight-color: rgba(0, 0, 0, 0); stroke-opacity: 1; stroke-linecap: round; stroke-linejoin: round; -webkit-user-select: text;"></path><path fill="none" stroke="#000000" d="M453,52L460,51L466,52L473,56L479,61L483,68L487,75L489,83L490,92L491,102L491,114L491,127L491,139L490,151L489,164L487,177L485,189L484,200L483,210L482,220L482,231L482,241L481,251L481,262L480,272L479,282L478,291L478,300L478,309L478,318L477,326L477,333L477,341L477,349L476,357L476,364L476,372L475,379L475,387L475,394L475,402L475,409L475,416L475,423L475,429L475,435L476,441L477,446L478,452L480,457L482,462L485,466L491,471L499,474L511,474L524,465L533,443" stroke-opacity="1" stroke-width="5" stroke-linecap="round" stroke-linejoin="round" style="-webkit-tap-highlight-color: rgba(0, 0, 0, 0); stroke-opacity: 1; stroke-linecap: round; stroke-linejoin: round; -webkit-user-select: text;"></path><path fill="none" stroke="#000000" d="M482,220L491,221L499,223L507,228L514,235L518,244L521,254L523,266L524,279L524,292L524,307L523,321L520,339L518,352L516,366L516,379L516,392L516,402L516,413L520,422L526,430L533,434L542,434L552,424L559,406" stroke-opacity="1" stroke-width="5" stroke-linecap="round" stroke-linejoin="round" style="-webkit-tap-highlight-color: rgba(0, 0, 0, 0); stroke-opacity: 1; stroke-linecap: round; stroke-linejoin: round; -webkit-user-select: text;"></path><path fill="none" stroke="#000000" d="M505,202L514,203L521,209L531,220L535,230L538,242L539,254L540,264L541,275L541,288L541,301L541,314L541,326L541,338L540,348L539,361L538,370L536,382L536,392L534,402L533,413L532,422L531,431L531,440L530,449L530,457L529,465L529,474L528,482L528,489L527,496L527,503L526,510L526,517L526,522L526,529L526,534L526,539L526,544L527,548L529,552L532,556L536,559L543,564L553,567L566,567L580,559L589,544" stroke-opacity="1" stroke-width="5" stroke-linecap="round" stroke-linejoin="round" style="-webkit-tap-highlight-color: rgba(0, 0, 0, 0); stroke-opacity: 1; stroke-linecap: round; stroke-linejoin: round; -webkit-user-select: text;"></path><path fill="none" stroke="#000000" d="M368,377L376,384L388,386L402,392L411,399L418,408L423,418L425,431L426,444L427,457L427,472L427,489L425,504L423,518L420,533L417,549L416,562L414,576L413,590L413,603L413,615L417,625L424,634L429,635L436,632L439,615" stroke-opacity="1" stroke-width="5" stroke-linecap="round" stroke-linejoin="round" style="-webkit-tap-highlight-color: rgba(0, 0, 0, 0); stroke-opacity: 1; stroke-linecap: round; stroke-linejoin: round; -webkit-user-select: text;"></path><path fill="none" stroke="#000000" d="M297,438L303,442L310,445L318,455L326,467L330,477L334,489L336,501L336,511L336,524L336,536L336,550L336,565L335,579L335,594L335,608L335,621L335,631L335,642L336,651L338,662L340,671L341,679L343,686L344,693L345,697L346,701L348,705L350,708L353,710L359,712L371,712L388,708L403,687" stroke-opacity="1" stroke-width="5" stroke-linecap="round" stroke-linejoin="round" style="-webkit-tap-highlight-color: rgba(0, 0, 0, 0); stroke-opacity: 1; stroke-linecap: round; stroke-linejoin: round; -webkit-user-select: text;"></path><path fill="none" stroke="#000000" d="M259,520L264,519L272,520L283,530L290,543L293,554L296,567L297,577L297,591L297,607L294,622L291,635L289,649L287,661L286,672L286,685L286,697L290,708L295,718L304,726L317,732L327,732L333,718" stroke-opacity="1" stroke-width="5" stroke-linecap="round" stroke-linejoin="round" style="-webkit-tap-highlight-color: rgba(0, 0, 0, 0); stroke-opacity: 1; stroke-linecap: round; stroke-linejoin: round; -webkit-user-select: text;"></path><path fill="none" stroke="#000000" d="M205,584L207,584L214,585L222,591L231,603L235,612L238,619L241,628L242,639L244,650L246,659L247,670L248,680L248,690L248,699L248,708L248,718L248,728L248,739L247,749L247,760L246,771L246,781L246,791L245,800L245,807L245,817L245,824L245,833L246,841L249,849L254,856L261,861L273,863L290,860" stroke-opacity="1" stroke-width="5" stroke-linecap="round" stroke-linejoin="round" style="-webkit-tap-highlight-color: rgba(0, 0, 0, 0); stroke-opacity: 1; stroke-linecap: round; stroke-linejoin: round; -webkit-user-select: text;"></path><path fill="none" stroke="#000000" d="M290,667L293,670L300,676L305,689L308,701L311,714L312,727L312,741L312,754L312,765L312,775L314,785L317,796L321,810L326,825L332,839L339,852L347,860L356,866L368,862L378,841" stroke-opacity="1" stroke-width="5" stroke-linecap="round" stroke-linejoin="round" style="-webkit-tap-highlight-color: rgba(0, 0, 0, 0); stroke-opacity: 1; stroke-linecap: round; stroke-linejoin: round; -webkit-user-select: text;"></path><path fill="none" stroke="#000000" d="M349,687L358,684L364,684L370,690L377,698L381,709L383,720L383,731L383,745L383,758L383,770L382,780L382,791L382,801L382,812L384,824L389,834L396,844L405,852L414,855L424,853" stroke-opacity="1" stroke-width="5" stroke-linecap="round" stroke-linejoin="round" style="-webkit-tap-highlight-color: rgba(0, 0, 0, 0); stroke-opacity: 1; stroke-linecap: round; stroke-linejoin: round; -webkit-user-select: text;"></path><path fill="none" stroke="#000000" d="M412,681L414,684L417,689L420,695L424,703L426,712L429,720L430,729L431,735L432,743L432,751L433,758L433,766L433,771L433,778L433,784L433,789L433,795L433,800L433,806L433,812L433,819L433,829L433,836L433,843L432,847L432,851L432,854L432,856L432,858L433,861L438,868L449,877L461,884L473,884L482,872" stroke-opacity="1" stroke-width="5" stroke-linecap="round" stroke-linejoin="round" style="-webkit-tap-highlight-color: rgba(0, 0, 0, 0); stroke-opacity: 1; stroke-linecap: round; stroke-linejoin: round; -webkit-user-select: text;"></path><path fill="none" stroke="#000000" d="M502,673L510,683L514,690L518,701L521,715L522,731L522,749L521,769L518,788L514,805L513,818L513,831L516,844L528,859L541,870L553,875" stroke-opacity="1" stroke-width="5" stroke-linecap="round" stroke-linejoin="round" style="-webkit-tap-highlight-color: rgba(0, 0, 0, 0); stroke-opacity: 1; stroke-linecap: round; stroke-linejoin: round; -webkit-user-select: text;"></path></svg>