<svg height="906" version="1.1" width="768" xmlns="http://www.w3.org/2000/svg" xmlns:xlink="http://www.w3.org/1999/xlink" style="overflow: hidden; position: relative; -webkit-user-select: text;"><desc style="-webkit-tap-highlight-color: rgba(0, 0, 0, 0); -webkit-user-select: text;">Created with Raphaël 2.2.0</desc><defs style="-webkit-tap-highlight-color: rgba(0, 0, 0, 0); -webkit-user-select: text;"></defs><path fill="none" stroke="#000000" d="M314,27L315,30L315,31L315,32L315,34L315,36L315,37L315,39L315,41L315,42L315,44L315,45L315,46L315,47L315,49L315,50L315,51L315,52L315,54L315,55L315,56L315,57L315,59L315,60L315,61L315,63L315,64L315,66L315,67L315,69L315,70L315,71L315,73L315,75L315,76L315,77L315,78L315,79L315,80L315,81L315,82L315,83L315,85L315,87L315,88L315,90L315,91L315,93L315,94L315,95L315,97L315,98L316,100L317,100L317,102L318,102L319,103L320,104L321,105L322,106L323,107L324,107L325,107L326,108L327,109L328,109L329,110L330,110L331,111L332,112L333,113L334,113L335,115L336,115L337,116L338,117L339,118L339,119L340,119L341,121L341,122L341,123L342,124L342,125L342,127L342,128L342,129L343,130L343,132L343,133L343,134L343,136L343,137L343,139L343,140L343,141L343,143L343,145L343,146L343,148L343,149L343,151L343,152L343,153L343,155L343,156L343,158L343,159L343,160L343,161L343,163L343,165L343,166L343,168L343,170L343,171L343,173L343,175L343,176L343,178L343,179L344,181L344,183L344,184L344,185L345,187L345,189L346,190L346,192L346,193L347,194L348,195L349,197L349,198L350,199L351,200L351,201L352,202L353,203L354,204L355,204L356,205L357,205L358,206L361,207L363,207L366,208" stroke-opacity="1" stroke-width="5" stroke-linecap="round" stroke-linejoin="round" style="-webkit-tap-highlight-color: rgba(0, 0, 0, 0); stroke-opacity: 1; stroke-linecap: round; stroke-linejoin: round; -webkit-user-select: text;"></path><path fill="none" stroke="#000000" d="M287,111L289,112L289,114L289,117L289,120L290,124L291,127L292,130L293,133L293,136L294,139L295,141L295,145L296,148L297,151L298,153L299,156L300,159L301,161L302,164L304,166L305,168L306,170L308,172L310,174L312,175L314,177L315,178L317,180L319,180L322,181L324,182L326,183L328,183L330,184L331,184L333,185L335,185L336,185L338,185L339,186L341,186L342,187L344,187L345,188L346,189L347,190L349,191L350,192L351,193L351,194L352,195L353,197L353,198L354,199L354,200L355,202L355,203L356,204L356,206L356,207L356,209L356,212L356,214L356,216L356,219L356,221L356,223L356,226L356,228L356,230L356,232L356,235L356,237L356,240L356,242L356,245L356,247L356,250L356,252L356,254L356,256L356,258L356,260L356,262L356,264L356,266L357,268L357,270L358,271L358,273L359,275L360,277L361,278L362,280L363,281L365,282L366,284L367,285L368,286L370,287L371,287L373,288L374,289L376,289L378,290L379,290L381,290L382,290L383,290L385,290L387,290L388,290L390,290L392,290L397,290L402,289" stroke-opacity="1" stroke-width="5" stroke-linecap="round" stroke-linejoin="round" style="-webkit-tap-highlight-color: rgba(0, 0, 0, 0); stroke-opacity: 1; stroke-linecap: round; stroke-linejoin: round; -webkit-user-select: text;"></path><path fill="none" stroke="#000000" d="M414,170L411,175L411,176L410,178L408,179L407,180L405,181L403,183L401,185L400,188L398,190L396,194L395,197L394,200L393,202L392,205L391,207L391,210L390,214L390,217L390,221L390,225L390,229L390,233L389,236L389,240L389,243L389,247L389,250L389,253L389,256L389,258L389,260L389,263L389,265L388,268L388,270L388,273L388,275L388,277L387,280L387,282L387,284L387,287L387,289L387,292L386,295L386,299L385,302L385,305L385,308L384,311L383,313L383,315L382,317L381,319L380,321L378,323L376,324L375,326L373,327L371,328L369,330L367,331L365,331L363,332L361,333L358,333L356,334L354,334L352,335L349,335L347,336L344,336L342,337L340,338L338,338L336,339L334,340L333,341L331,341L330,342L329,343L327,344L326,345L325,347L324,349L322,351L321,353L320,355L319,356L318,358L317,360L317,362L317,365L316,367L316,369L315,372L314,374L314,377L314,379L313,382L313,384L312,386L312,388L312,390L311,392L311,394L310,397L310,399L310,402L310,404L310,407L310,411L310,414L310,418L310,426L311,432" stroke-opacity="1" stroke-width="5" stroke-linecap="round" stroke-linejoin="round" style="-webkit-tap-highlight-color: rgba(0, 0, 0, 0); stroke-opacity: 1; stroke-linecap: round; stroke-linejoin: round; -webkit-user-select: text;"></path><path fill="none" stroke="#000000" d="M325,152L327,157L327,160L327,163L327,166L328,170L328,175L329,179L329,183L329,188L329,192L329,197L329,201L329,205L329,209L329,214L329,219L329,224L329,228L329,232L330,236L330,240L330,243L331,247L331,250L332,253L332,256L333,259L334,261L335,263L336,266L338,268L339,270L340,273L342,275L343,276L345,277L347,279L349,280L350,281L352,282L354,282L356,282L358,283L360,284L361,284L363,284L366,284L368,284L370,284L373,284L375,284L378,284L380,284L382,284L384,284L386,285L387,285L389,285L391,286L392,287L393,289L395,290L396,292L397,293L398,295L399,297L400,299L400,301L401,304L402,306L402,308L402,310L402,313L402,315L402,318L402,321L402,324L402,327L402,330L401,333L400,336L400,339L399,342L399,345L399,348L399,351L398,354L398,358L398,360L398,363L398,366L398,368L398,371L398,374L398,376L398,379L398,382L398,384L398,387L399,389L400,391L400,393L402,395L403,397L404,399L406,402L408,404L411,406L417,409L424,410L430,411L439,411" stroke-opacity="1" stroke-width="5" stroke-linecap="round" stroke-linejoin="round" style="-webkit-tap-highlight-color: rgba(0, 0, 0, 0); stroke-opacity: 1; stroke-linecap: round; stroke-linejoin: round; -webkit-user-select: text;"></path><path fill="none" stroke="#000000" d="M475,246L470,239L469,241L468,243L466,245L464,247L462,249L460,252L458,254L455,257L453,260L451,264L450,268L448,271L447,275L446,279L445,283L444,287L443,292L443,296L442,301L442,305L441,310L441,314L441,319L441,324L441,328L441,333L441,336L441,341L441,344L441,348L441,352L441,355L441,359L441,362L441,365L441,368L441,371L441,375L441,379L441,382L441,386L441,390L441,394L441,397L441,401L441,404L441,407L441,410L441,413L441,415L440,418L440,420L439,422L439,425L438,427L437,429L435,431L434,432L432,433L431,434L429,435L426,435L424,436L421,436L419,437L416,437L414,438L411,438L409,438L406,439L404,440L401,440L399,441L397,442L395,443L392,445L391,446L389,448L387,450L385,452L384,455L383,457L381,460L380,462L378,465L377,468L376,470L375,474L374,477L373,481L372,484L371,488L370,491L369,494L368,498L368,501L368,505L367,508L367,512L366,516L366,519L366,522L366,525L366,530L364,536L363,544" stroke-opacity="1" stroke-width="5" stroke-linecap="round" stroke-linejoin="round" style="-webkit-tap-highlight-color: rgba(0, 0, 0, 0); stroke-opacity: 1; stroke-linecap: round; stroke-linejoin: round; -webkit-user-select: text;"></path><path fill="none" stroke="#000000" d="M329,267L331,269L334,272L338,275L342,279L346,283L349,287L351,292L353,296L355,301L356,307L357,311L357,318L358,323L358,329L358,334L358,341L358,347L358,353L358,358L358,364L358,370L358,376L358,381L358,386L358,392L358,397L358,402L358,406L358,411L358,414L358,418L358,421L358,423L358,426L358,428L360,430L362,432L363,433L365,435L367,435L369,437L370,438L372,438L373,439L374,440L376,442L378,443L379,445L380,446L382,448L383,450L384,452L385,454L385,456L386,458L387,460L387,463L388,466L388,468L388,471L388,474L388,477L388,481L388,484L388,487L388,491L388,494L388,498L388,501L388,505L388,508L388,512L388,515L388,518L388,521L388,525L388,528L388,531L389,534L389,537L390,540L390,543L391,545L392,548L393,551L394,553L396,556L397,558L400,561L406,564L414,566L425,566" stroke-opacity="1" stroke-width="5" stroke-linecap="round" stroke-linejoin="round" style="-webkit-tap-highlight-color: rgba(0, 0, 0, 0); stroke-opacity: 1; stroke-linecap: round; stroke-linejoin: round; -webkit-user-select: text;"></path><path fill="none" stroke="#000000" d="M499,302L497,307L497,310L497,314L496,319L495,325L494,330L492,336L491,341L489,347L486,352L484,358L480,362L477,367L474,372L470,376L466,380L463,384L459,387L456,390L452,392L448,394L445,397L441,399L438,401L434,403L431,405L427,406L423,408L419,410L416,411L412,413L409,415L404,418L401,421L397,423L394,427L391,430L388,433L386,436L384,439L382,442L380,445L378,449L377,452L376,456L375,460L374,464L373,467L373,471L372,475L372,480L372,484L372,487L372,491L372,494L372,497L372,501L372,504L372,507L372,510L372,513L372,516L372,518L372,521L372,524L372,527L372,529L372,532L372,535L372,538L372,540L372,543L372,545L372,548L372,550L373,553L373,555L373,558L373,561L373,564L373,567L373,569L373,571L373,574L372,576L371,577L370,579L369,581L367,583L365,585L361,588L356,590L349,591L341,591L331,588" stroke-opacity="1" stroke-width="5" stroke-linecap="round" stroke-linejoin="round" style="-webkit-tap-highlight-color: rgba(0, 0, 0, 0); stroke-opacity: 1; stroke-linecap: round; stroke-linejoin: round; -webkit-user-select: text;"></path><path fill="none" stroke="#000000" d="M313,303L315,309L319,309L322,311L325,313L328,315L330,316L333,319L335,321L336,324L337,327L338,331L339,335L339,339L339,343L339,348L339,353L339,357L339,362L339,367L339,374L339,380L339,385L339,391L339,396L339,402L339,407L339,412L339,417L339,422L339,427L339,432L339,436L339,441L339,445L339,450L339,453L339,457L339,461L339,464L339,467L339,470L339,473L341,476L342,478L344,481L345,483L347,485L349,486L352,488L354,489L356,489L359,490L363,490L366,491L370,491L373,491L377,491L380,491L383,490L386,490L388,490L390,490L392,490L394,490L396,490L397,491L398,491L400,493L401,494L402,496L403,498L404,500L405,502L406,505L407,508L407,511L407,513L408,516L408,518L408,521L408,524L408,528L408,530L408,533L409,536L409,539L409,542L409,545L409,547L409,550L409,553L409,556L409,559L409,562L409,565L410,569L410,572L411,576L411,580L412,584L413,588L414,591L415,595L416,598L417,602L419,605L420,608L422,611L426,615L433,618L442,619L454,619L468,615L482,606" stroke-opacity="1" stroke-width="5" stroke-linecap="round" stroke-linejoin="round" style="-webkit-tap-highlight-color: rgba(0, 0, 0, 0); stroke-opacity: 1; stroke-linecap: round; stroke-linejoin: round; -webkit-user-select: text;"></path><path fill="none" stroke="#000000" d="M511,377L509,383L509,387L509,392L508,399L508,405L508,411L508,418L508,425L508,432L508,438L507,444L507,450L505,455L504,460L502,465L500,470L497,475L495,479L492,484L490,487L486,490L483,493L480,495L476,497L473,499L470,501L466,502L463,503L459,504L455,504L451,505L446,506L441,506L437,507L432,508L428,509L424,510L421,511L418,512L416,513L414,515L412,516L411,518L409,521L408,524L407,527L405,531L404,535L403,539L402,543L401,547L401,551L401,555L401,559L401,563L401,567L401,571L401,575L401,579L401,582L401,586L401,589L401,593L401,596L402,599L402,603L402,606L402,610L402,613L402,617L402,620L402,623L402,626L402,629L402,632L402,635L402,637L402,640L402,643L402,645L402,647L401,649L400,650L399,652L397,653L395,655L392,657L388,658L385,659L380,660L375,660L368,660L361,654L353,645" stroke-opacity="1" stroke-width="5" stroke-linecap="round" stroke-linejoin="round" style="-webkit-tap-highlight-color: rgba(0, 0, 0, 0); stroke-opacity: 1; stroke-linecap: round; stroke-linejoin: round; -webkit-user-select: text;"></path><path fill="none" stroke="#000000" d="M299,404L299,409L299,413L299,418L300,426L300,433L300,440L301,448L301,455L302,462L302,469L302,477L302,483L302,489L302,496L303,501L304,508L305,513L306,518L307,523L310,528L311,533L313,536L315,540L317,543L320,546L322,548L324,550L327,552L329,553L331,554L334,554L336,554L339,555L341,555L344,555L346,555L349,555L351,555L353,556L355,557L356,557L358,559L359,560L361,562L362,563L363,565L365,567L366,569L367,572L368,574L369,577L369,581L370,584L370,588L370,591L370,595L370,599L370,603L370,607L370,612L370,615L370,620L370,623L370,627L370,630L370,634L369,637L369,640L369,643L369,646L369,648L369,651L369,653L369,655L369,657L369,659L369,661L369,664L369,666L369,667L369,669L369,670L370,671L373,673L377,675L381,675L388,675L397,675L409,667" stroke-opacity="1" stroke-width="5" stroke-linecap="round" stroke-linejoin="round" style="-webkit-tap-highlight-color: rgba(0, 0, 0, 0); stroke-opacity: 1; stroke-linecap: round; stroke-linejoin: round; -webkit-user-select: text;"></path><path fill="none" stroke="#000000" d="M504,496L505,503L505,507L505,511L504,516L503,520L502,525L501,530L499,535L497,540L495,545L491,552L487,557L484,561L480,566L477,569L474,572L470,575L468,577L465,579L463,580L460,581L457,581L454,582L451,583L447,583L443,584L440,584L436,584L431,584L427,584L424,584L420,584L417,584L414,584L411,584L409,585L407,586L405,587L403,589L402,591L400,593L398,596L397,600L395,605L395,610L394,614L394,619L394,624L394,628L394,632L394,637L394,641L394,645L394,649L394,654L394,658L394,662L394,666L394,669L394,672L394,675L394,677L394,680L394,683L394,685L393,688L393,690L392,691L392,693L391,694L390,696L389,697L387,699L386,700L384,702L382,703L380,705L377,708L374,709L370,711L367,712L363,713L358,713L350,713L340,708L329,698" stroke-opacity="1" stroke-width="5" stroke-linecap="round" stroke-linejoin="round" style="-webkit-tap-highlight-color: rgba(0, 0, 0, 0); stroke-opacity: 1; stroke-linecap: round; stroke-linejoin: round; -webkit-user-select: text;"></path><path fill="none" stroke="#000000" d="M265,454L272,450L277,450L282,451L288,454L293,459L298,462L302,467L305,473L307,478L309,485L310,491L311,498L312,507L313,514L314,523L314,532L315,539L315,547L315,556L315,564L315,572L315,580L315,588L315,596L315,603L315,611L315,618L315,623L315,628L314,634L314,639L314,644L313,648L313,652L313,656L313,659L313,663L313,666L313,668L313,671L314,672L317,674L318,675L320,676L322,677L324,678L326,678L328,678L331,678L334,678L337,678L340,678L343,677L347,676L351,674L353,672L357,671L360,670L362,669L365,669L367,668L369,668L371,668L373,668L375,668L376,669L378,669L380,671L381,672L382,674L383,676L384,678L385,680L385,682L385,684L386,687L386,689L387,691L387,694L387,696L387,698L387,700L387,702L387,704L387,706L387,708L387,710L387,712L387,715L387,717L387,719L387,721L387,723L387,725L387,727L387,730L387,732L387,735L387,737L387,739L387,741L387,743L387,745L387,746L389,748L391,751L396,751L404,751" stroke-opacity="1" stroke-width="5" stroke-linecap="round" stroke-linejoin="round" style="-webkit-tap-highlight-color: rgba(0, 0, 0, 0); stroke-opacity: 1; stroke-linecap: round; stroke-linejoin: round; -webkit-user-select: text;"></path><path fill="none" stroke="#000000" d="M516,579L510,583L506,585L501,587L496,589L491,592L487,594L481,597L475,600L470,604L465,609L461,615L458,619L455,624L451,631L448,639L445,647L442,654L441,661L439,667L438,671L437,677L437,682L437,686L437,691L437,695L437,699L437,702L437,705L437,709L437,712L437,716L437,720L437,724L437,727L437,731L437,735L437,738L436,741L436,744L436,747L436,749L435,752L434,754L433,755L431,757L430,759L428,760L426,761L424,763L421,764L419,765L417,766L414,767L412,768L409,769L407,769L404,770L402,771L400,771L398,771L396,772L395,773L393,774L392,775L390,776L389,777L388,778L387,780L386,781L385,783L385,785L384,787L384,790L383,792L383,794L383,797L383,800L382,802L382,805L382,807L381,811L381,814L381,817L380,820L380,823L379,825L378,827L376,831L374,834L372,835" stroke-opacity="1" stroke-width="5" stroke-linecap="round" stroke-linejoin="round" style="-webkit-tap-highlight-color: rgba(0, 0, 0, 0); stroke-opacity: 1; stroke-linecap: round; stroke-linejoin: round; -webkit-user-select: text;"></path><path fill="none" stroke="#000000" d="M232,490L236,492L241,492L245,494L249,496L254,500L260,504L264,509L268,514L270,520L272,527L273,535L275,543L276,552L278,560L279,569L280,576L280,585L281,591L282,598L283,606L283,613L284,620L284,626L285,631L285,638L286,643L286,649L287,654L288,659L289,664L290,668L292,671L293,674L295,676L296,678L298,680L300,682L302,683L304,685L306,686L308,687L311,688L314,689L317,689L320,690L323,690L325,691L328,691L330,691L332,691L334,691L336,691L338,691L340,692L342,692L344,693L345,695L347,696L349,698L350,701L351,703L352,706L353,710L354,713L355,716L356,720L356,722L357,726L357,729L357,732L357,734L357,737L357,741L357,744L357,746L357,749L357,752L357,755L357,759L357,762L356,765L356,768L355,771L354,774L353,777L353,779L353,782L353,784L352,787L352,790L352,795L352,803L353,808L357,812" stroke-opacity="1" stroke-width="5" stroke-linecap="round" stroke-linejoin="round" style="-webkit-tap-highlight-color: rgba(0, 0, 0, 0); stroke-opacity: 1; stroke-linecap: round; stroke-linejoin: round; -webkit-user-select: text;"></path><path fill="none" stroke="#000000" d="M509,666L506,669L503,670L499,671L495,674L491,677L487,681L483,684L479,689L475,694L471,698L468,703L465,709L463,715L462,720L461,725L460,731L460,737L459,742L459,747L458,752L458,759L458,764L458,769L457,773L457,778L456,781L456,785L456,788L456,791L456,795L456,799L455,802L455,806L454,809L453,812L452,814L450,816L447,817L443,818L440,819L436,820L433,821L429,822L426,823L423,824L420,824L417,826L415,827L412,828L410,830L407,832L405,833L403,835L401,837L399,839L397,841L395,844L393,846L392,848L390,850L389,852L388,853L387,855L387,857L387,859L386,861L386,863L385,867L385,871L384,874L383,878L383,880" stroke-opacity="1" stroke-width="5" stroke-linecap="round" stroke-linejoin="round" style="-webkit-tap-highlight-color: rgba(0, 0, 0, 0); stroke-opacity: 1; stroke-linecap: round; stroke-linejoin: round; -webkit-user-select: text;"></path><path fill="none" stroke="#000000" d="M183,494L186,500L192,503L196,506L200,510L204,514L208,519L211,526L214,533L217,541L219,550L220,559L222,569L223,579L224,588L225,598L225,606L226,614L226,621L227,629L227,637L228,645L228,653L229,661L229,668L229,674L230,681L230,687L231,693L232,698L234,702L235,707L237,711L239,715L241,718L243,721L245,723L247,725L249,725L251,726L254,727L256,727L259,727L261,727L264,727L267,727L269,727L272,727L274,727L277,727L279,727L281,727L284,727L286,727L288,728L291,728L293,729L295,730L297,732L299,734L301,737L302,739L304,742L305,744L306,746L306,749L307,751L307,754L308,756L308,758L308,761L308,763L308,765L308,767L308,770L308,772L308,774L308,776L308,778L308,780L307,782L307,784L307,786L307,788L307,790L307,792L307,793L307,795L307,796L307,798L307,800L307,801L307,802L308,804L312,805L318,805" stroke-opacity="1" stroke-width="5" stroke-linecap="round" stroke-linejoin="round" style="-webkit-tap-highlight-color: rgba(0, 0, 0, 0); stroke-opacity: 1; stroke-linecap: round; stroke-linejoin: round; -webkit-user-select: text;"></path><path fill="none" stroke="#000000" d="M532,311L533,316L533,319L533,324L533,328L534,333L534,337L535,342L536,347L537,353L537,359L537,365L537,370L537,376L537,381L537,386L537,391L535,396L533,401L532,406L530,409L528,413L525,416L522,419L519,422L516,424L514,426L510,427L507,428L503,430L500,430L496,431L492,431L488,431L485,431L481,431L477,431L473,431L469,431L465,431L461,430L457,429L453,429L449,429L445,429L441,429L438,429L434,429L431,431L427,433L424,436L421,439L419,443L417,448L415,452L414,457L412,463L411,468L409,473L408,479L407,484L406,489L405,494L405,500L404,506L404,511L404,516L403,522L403,528L403,533L403,539L403,544L403,549L403,554L403,559L403,563L403,568L403,572L403,578L403,583L403,588L403,593L403,597L403,601L402,605L401,608L400,612L398,615L397,617L395,619L392,621L390,622L387,623L384,625L380,626L375,627L368,627L361,628L353,628L343,623L333,614" stroke-opacity="1" stroke-width="5" stroke-linecap="round" stroke-linejoin="round" style="-webkit-tap-highlight-color: rgba(0, 0, 0, 0); stroke-opacity: 1; stroke-linecap: round; stroke-linejoin: round; -webkit-user-select: text;"></path><path fill="none" stroke="#000000" d="M194,343L196,341L199,341L202,344L205,347L208,352L210,357L212,362L215,367L217,375L220,382L222,389L223,396L224,405L225,411L225,419L225,427L225,435L225,443L225,450L225,457L225,464L225,471L226,478L226,485L226,492L226,499L226,506L226,511L227,518L227,524L228,530L229,536L230,542L232,548L235,554L237,559L240,564L243,568L246,571L249,573L251,575L255,577L259,579L263,580L268,581L275,581L283,581L290,581L297,578L304,576L310,574L315,573L320,572L324,572L327,572L330,572L332,573L334,575L335,578L336,581L338,585L340,588L341,591L343,595L344,598L346,602L347,606L348,610L349,613L350,618L350,621L351,624L351,627L351,631L351,635L351,639L351,642L351,646L351,650L350,654L350,657L349,661L349,664L349,668L348,671L348,674L348,678L348,681L348,684L348,687L348,691L349,693L351,697L353,700L356,704L360,708L366,709L374,709L384,709" stroke-opacity="1" stroke-width="5" stroke-linecap="round" stroke-linejoin="round" style="-webkit-tap-highlight-color: rgba(0, 0, 0, 0); stroke-opacity: 1; stroke-linecap: round; stroke-linejoin: round; -webkit-user-select: text;"></path><path fill="none" stroke="#000000" d="M395,224L397,216L392,218L388,221L384,224L380,227L375,231L371,234L367,237L363,241L359,245L356,250L352,255L349,260L346,265L344,271L342,277L340,282L339,289L338,295L337,301L336,308L336,314L335,321L335,328L334,334L334,341L334,348L334,355L334,362L334,368L334,375L334,383L334,390L334,398L334,405L334,411L334,417L334,423L334,428L334,433L334,438L334,442L334,446L334,450L332,455L330,459L327,463L324,467L320,469L315,473L311,475L307,477L302,479L297,481L292,483L287,484L282,484L277,485L272,485L267,485L263,485L260,485L257,485L254,485L252,485L250,486L248,486L246,487L244,489L242,491L240,494L239,496L237,500L236,504L234,509L233,513L232,518L231,522L231,527L231,532L231,537L231,541L231,546L231,552L231,556L231,561L231,566L232,571L233,576L234,581L235,586L237,591L237,596L239,601L239,606L240,610L241,615L241,619L242,622L242,625L242,628L242,630L240,634L235,635" stroke-opacity="1" stroke-width="5" stroke-linecap="round" stroke-linejoin="round" style="-webkit-tap-highlight-color: rgba(0, 0, 0, 0); stroke-opacity: 1; stroke-linecap: round; stroke-linejoin: round; -webkit-user-select: text;"></path><path fill="none" stroke="#000000" d="M131,266L130,270L130,272L130,275L132,277L134,278L136,280L138,281L140,282L143,283L146,285L150,286L154,287L158,288L161,290L165,292L169,295L171,298L175,302L178,306L181,310L184,314L187,319L190,323L192,328L195,333L197,339L199,345L200,351L203,358L204,364L206,371L208,378L209,384L209,392L210,399L210,406L210,413L210,419L210,426L210,433L210,439L208,446L208,453L208,460L207,466L207,473L207,478L207,484L207,490L207,496L208,501L209,506L212,511L214,515L217,518L220,520L224,523L227,524L230,525L234,526L237,527L239,528L242,528L245,529L247,530L249,531L251,533L254,534L256,537L258,539L259,542L261,545L263,548L264,551L266,555L267,559L267,563L268,567L268,571L269,574L269,578L269,582L269,586L269,590L269,594L269,598L269,601L269,605L269,609L269,613L269,618L269,621L269,625L269,629L269,633L269,637L269,642L269,645L269,649L269,653L270,657L271,663L272,669" stroke-opacity="1" stroke-width="5" stroke-linecap="round" stroke-linejoin="round" style="-webkit-tap-highlight-color: rgba(0, 0, 0, 0); stroke-opacity: 1; stroke-linecap: round; stroke-linejoin: round; -webkit-user-select: text;"></path><path fill="none" stroke="#000000" d="M549,149L539,152L535,152L529,153L524,156L518,158L514,162L510,166L507,170L503,175L500,180L496,186L493,192L490,200L487,207L485,214L482,221L480,229L479,236L477,244L476,253L475,260L474,269L473,276L473,284L472,292L472,299L472,307L472,314L472,322L473,329L475,336L475,342L476,350L477,357L477,364L477,371L477,379L477,385L477,390L477,395L475,401L473,405L472,409L470,412L468,414L466,416L464,418L463,418L460,419L457,420L453,420L449,420L445,420L440,420L436,420L431,420L427,420L423,419L419,419L416,418L413,418L410,418L407,418L404,418L401,418L398,419L395,421L392,423L389,426L387,429L385,432L382,435L380,438L378,442L375,445L373,451L371,456L370,461L368,466L367,471L366,477L366,482L365,487L364,492L363,498L362,504L361,509L360,513L358,518L356,523L354,527L352,530L350,534L348,537L346,540L344,542L342,542L338,543L332,543L325,542" stroke-opacity="1" stroke-width="5" stroke-linecap="round" stroke-linejoin="round" style="-webkit-tap-highlight-color: rgba(0, 0, 0, 0); stroke-opacity: 1; stroke-linecap: round; stroke-linejoin: round; -webkit-user-select: text;"></path><path fill="none" stroke="#000000" d="M241,251L251,254L257,257L263,261L267,266L270,273L271,280L271,288L271,296L271,304L272,314L272,322L273,331L273,340L273,349L274,358L274,367L274,377L274,386L274,395L274,404L274,410L273,417L273,424L273,431L272,438L272,446L272,453L272,460L272,465L272,470L273,476L275,481L276,484L278,488L281,491L283,493L287,495L290,496L293,497L297,498L301,498L306,498L310,498L316,498L322,497L325,496L329,496L333,496L337,496L340,496L343,496L346,496L348,498L351,501L353,504L355,508L357,511L360,514L362,518L364,522L366,526L368,531L370,536L371,540L373,545L373,549L374,554L375,559L376,564L376,569L377,573L378,578L378,583L379,588L380,592L380,596L382,599L383,603L385,606L387,609L390,613L395,616L403,618L412,619L424,619L435,616L449,608L463,599" stroke-opacity="1" stroke-width="5" stroke-linecap="round" stroke-linejoin="round" style="-webkit-tap-highlight-color: rgba(0, 0, 0, 0); stroke-opacity: 1; stroke-linecap: round; stroke-linejoin: round; -webkit-user-select: text;"></path><path fill="none" stroke="#000000" d="M545,275L543,277L543,280L542,284L540,290L537,297L534,303L532,310L529,317L526,325L524,333L522,339L521,346L519,355L519,362L518,370L517,378L517,386L517,394L517,403L517,410L517,418L517,427L518,435L518,442L519,450L519,457L519,465L520,472L520,480L521,487L521,494L521,501L522,508L522,514L522,520L522,526L522,532L522,537L521,540L519,544L515,546L512,549L507,551L502,553L497,554L492,555L488,556L483,557L478,557L474,557L469,557L465,557L462,557L459,557L456,557L453,557L451,557L448,558L445,560L442,563L439,565L437,568L435,571L433,575L431,580L429,584L428,589L426,593L425,598L424,603L423,608L423,613L422,617L422,622L422,626L422,631L422,636L422,641L422,645L422,650L422,654L422,659L422,663L422,668L422,671L422,675L422,679L422,682L422,686L422,689L422,692L422,694L422,697L422,699L422,701L421,703L420,705L419,707L417,710L415,712L412,715L409,717L404,719L396,720L388,720L379,718L370,711" stroke-opacity="1" stroke-width="5" stroke-linecap="round" stroke-linejoin="round" style="-webkit-tap-highlight-color: rgba(0, 0, 0, 0); stroke-opacity: 1; stroke-linecap: round; stroke-linejoin: round; -webkit-user-select: text;"></path><path fill="none" stroke="#000000" d="M177,217L182,212L185,212L188,212L191,215L194,218L196,221L198,225L200,229L201,234L203,239L204,244L205,250L206,256L207,262L207,268L208,275L208,281L208,286L208,293L208,299L208,306L208,312L207,319L206,325L205,332L204,338L203,345L203,352L202,359L201,365L200,372L200,378L200,384L199,389L199,395L199,401L199,406L199,411L199,416L199,420L199,424L200,427L201,431L203,433L205,436L207,438L209,440L211,442L213,443L215,443L217,444L220,444L222,445L225,445L227,445L229,445L232,445L235,445L239,444L242,443L245,443L249,443L251,443L254,443L256,443L259,443L261,443L263,443L266,443L268,443L271,445L273,447L275,450L277,452L279,456L280,459L282,463L283,466L285,470L285,474L286,478L287,483L287,487L288,491L288,496L288,500L288,505L288,510L288,514L288,518L288,523L288,528L288,533L287,538L287,543L286,549L285,554L285,559L285,564L285,568L285,573L285,577L285,582L285,586L285,591L285,595L285,598L285,603L285,606L286,610L286,613L288,617L290,620L292,623L295,625L298,627L305,631L313,632L322,633L335,633" stroke-opacity="1" stroke-width="5" stroke-linecap="round" stroke-linejoin="round" style="-webkit-tap-highlight-color: rgba(0, 0, 0, 0); stroke-opacity: 1; stroke-linecap: round; stroke-linejoin: round; -webkit-user-select: text;"></path><path fill="none" stroke="#000000" d="M482,102L480,104L476,106L474,109L472,112L470,116L469,121L468,125L468,130L468,135L468,141L468,147L468,153L468,161L468,170L468,178L468,186L468,194L468,202L468,210L468,217L469,226L469,233L469,241L469,249L469,257L469,265L469,273L469,280L469,288L468,296L467,304L465,312L462,319L459,326L456,333L453,338L449,342L445,346L442,350L439,353L436,355L432,358L429,359L426,360L422,360L418,361L414,361L410,362L405,362L400,362L396,362L391,362L387,362L383,362L379,362L376,362L373,362L370,363L368,364L366,365L364,367L362,370L360,372L358,376L356,379L355,383L353,387L352,391L351,394L350,398L349,402L349,406L349,411L348,415L348,419L348,424L348,430L348,435L348,440L348,446L348,452L348,459L348,464L348,471L349,477L349,483L349,489L350,496L350,502L351,508L351,513L351,518L352,523L352,528L352,533L352,537L352,542L352,546L352,550L352,554L352,558L351,562L350,565L348,569L346,571L345,574L342,577L340,580L336,584L333,587L329,590L324,591L317,592L310,592L302,589L295,581L288,568" stroke-opacity="1" stroke-width="5" stroke-linecap="round" stroke-linejoin="round" style="-webkit-tap-highlight-color: rgba(0, 0, 0, 0); stroke-opacity: 1; stroke-linecap: round; stroke-linejoin: round; -webkit-user-select: text;"></path><path fill="none" stroke="#000000" d="M226,265L232,267L235,268L238,271L240,274L242,278L245,282L247,288L249,293L250,299L252,307L254,314L254,322L255,329L256,337L256,345L256,353L256,360L256,367L256,373L256,380L256,387L256,393L255,399L255,405L254,411L254,418L253,424L252,431L251,436L251,442L251,448L250,453L250,458L250,463L250,467L250,472L250,477L251,482L252,486L254,490L256,494L258,498L261,501L263,505L266,508L269,511L273,513L276,514L280,516L283,517L288,518L292,518L297,518L301,518L305,518L310,518L315,518L321,517L326,516L331,515L336,514L342,514L348,514L353,514L357,514L361,515L365,516L368,518L371,521L374,525L377,528L380,532L382,536L384,540L386,545L387,549L389,554L390,558L391,563L392,568L392,572L393,577L393,583L393,588L393,593L393,597L393,602L393,606L393,610L393,615L393,619L393,623L393,626L393,630L393,634L393,638L393,642L393,646L393,650L393,654L393,658L393,662L393,666L393,670L393,674L393,678L394,683L395,688L397,692L400,697L404,703L410,708L417,711L426,713L438,713L450,713L465,708" stroke-opacity="1" stroke-width="5" stroke-linecap="round" stroke-linejoin="round" style="-webkit-tap-highlight-color: rgba(0, 0, 0, 0); stroke-opacity: 1; stroke-linecap: round; stroke-linejoin: round; -webkit-user-select: text;"></path><path fill="none" stroke="#000000" d="M561,409L549,415L544,419L539,424L533,431L529,437L524,443L520,450L516,457L513,465L509,473L506,482L503,490L501,499L499,508L498,516L497,524L497,532L497,540L497,547L497,554L497,561L497,567L497,574L497,580L497,585L498,591L498,596L498,601L498,606L498,610L498,615L498,620L498,624L498,627L499,632L499,636L499,640L499,644L499,648L499,652L499,656L499,660L497,664L495,669L494,672L491,675L489,678L486,681L483,684L479,686L475,688L470,691L465,691L460,693L454,693L448,693L443,693L438,693L434,693L430,693L426,693L423,693L420,694L418,695L416,696L414,697L412,699L411,700L409,703L408,705L407,708L405,710L404,713L403,716L402,719L401,722L400,724L400,727L400,729L399,732L399,734L399,737L399,741L399,744L399,747L399,751L399,753L399,756L399,758L399,761L398,763L398,765L398,766L398,768L397,771L397,772L397,774L396,776L395,778L395,780L395,781L394,783L392,786L390,790L385,796L380,801L375,804L370,804" stroke-opacity="1" stroke-width="5" stroke-linecap="round" stroke-linejoin="round" style="-webkit-tap-highlight-color: rgba(0, 0, 0, 0); stroke-opacity: 1; stroke-linecap: round; stroke-linejoin: round; -webkit-user-select: text;"></path><path fill="none" stroke="#000000" d="M290,133L293,135L294,139L295,144L295,151L295,158L295,166L295,175L295,181L295,190L294,199L293,207L291,214L289,222L287,229L285,236L283,244L282,251L280,258L280,265L279,271L278,277L278,282L278,288L278,294L278,299L278,304L278,309L278,315L279,319L280,324L283,328L284,332L286,336L289,339L291,342L294,345L297,348L300,350L303,351L306,353L310,353L313,353L317,354L322,354L327,354L331,354L335,354L339,354L344,354L348,354L351,354L354,354L357,354L360,354L362,355L364,356L366,358L369,360L371,363L373,366L375,370L378,374L379,378L380,383L381,388L382,393L382,398L383,403L383,408L383,413L383,418L383,423L383,428L383,433L382,438L381,443L381,448L380,452L380,457L380,461L380,466L379,470L379,475L379,480L378,485L378,490L378,494L377,499L377,503L377,507L377,511L377,515L377,518L377,522L377,525L377,529L378,533L379,536L380,540L382,543L384,547L386,550L389,552L391,555L394,558L397,560L403,562L410,562L422,562L433,560L445,555" stroke-opacity="1" stroke-width="5" stroke-linecap="round" stroke-linejoin="round" style="-webkit-tap-highlight-color: rgba(0, 0, 0, 0); stroke-opacity: 1; stroke-linecap: round; stroke-linejoin: round; -webkit-user-select: text;"></path><path fill="none" stroke="#000000" d="M519,200L514,202L510,206L506,211L502,217L499,224L496,231L494,239L492,248L491,256L489,265L487,274L485,283L484,293L482,303L480,312L479,322L478,331L478,339L478,349L477,357L477,365L477,373L477,381L477,388L477,395L477,402L477,408L477,413L477,420L477,426L477,432L477,437L478,442L478,448L479,453L479,459L479,464L479,468L479,473L477,478L475,483L474,487L472,491L470,494L468,497L466,499L464,501L461,502L458,503L453,503L447,504L441,504L436,504L429,504L424,504L419,504L414,504L410,504L406,504L403,504L400,504L398,505L396,507L394,508L392,511L390,513L388,515L387,518L385,520L384,524L384,527L383,530L383,534L382,537L382,540L382,543L382,547L382,550L382,554L382,558L382,562L382,566L382,570L382,574L382,577L382,581L382,586L382,590L382,593L382,597L382,601L382,606L382,609L382,613L382,617L382,620L382,624L382,627L382,631L382,634L382,637L382,640L382,643L381,645L380,647L379,649L378,652L375,654L373,655L370,657L364,658L356,658L342,654L329,644" stroke-opacity="1" stroke-width="5" stroke-linecap="round" stroke-linejoin="round" style="-webkit-tap-highlight-color: rgba(0, 0, 0, 0); stroke-opacity: 1; stroke-linecap: round; stroke-linejoin: round; -webkit-user-select: text;"></path><path fill="none" stroke="#000000" d="M225,190L231,190L234,190L237,193L239,198L240,202L242,209L242,216L243,223L243,230L244,239L245,248L245,255L246,264L246,272L246,280L246,287L246,294L246,302L246,308L246,315L246,321L246,327L246,333L246,338L246,343L246,348L247,352L248,356L250,360L252,363L254,367L256,370L259,372L261,374L265,376L268,378L272,379L276,381L280,382L284,383L289,383L293,383L298,383L302,383L306,383L310,383L313,383L316,383L319,383L321,384L323,386L324,388L326,390L327,392L329,395L330,399L331,402L333,406L334,410L335,414L336,418L337,423L337,427L338,432L338,436L338,440L338,445L338,448L338,452L338,457L338,461L338,465L338,469L338,474L338,478L338,483L337,487L337,491L336,495L336,500L334,504L333,508L331,512L330,515L328,518L326,520L324,523L321,525L316,527L311,529L304,530" stroke-opacity="1" stroke-width="5" stroke-linecap="round" stroke-linejoin="round" style="-webkit-tap-highlight-color: rgba(0, 0, 0, 0); stroke-opacity: 1; stroke-linecap: round; stroke-linejoin: round; -webkit-user-select: text;"></path><path fill="none" stroke="#000000" d="M451,84L441,88L435,91L430,95L426,100L422,106L419,113L418,119L417,126L416,134L416,143L416,152L415,163L414,173L413,184L412,195L411,204L410,213L409,223L408,232L407,242L407,252L406,261L405,270L405,280L404,287L404,294L403,302L402,308L401,314L400,319L398,324L396,329L393,333L389,337L385,340L379,343L373,346L367,349L361,351L355,353L349,354L342,354L336,355L330,355L324,355L319,355L314,355L310,356L306,357L302,358L298,359L295,360L290,362L287,364L283,366L280,369L278,372L276,375L274,379L273,383L272,386L271,390L270,393L269,397L268,401L268,406L268,410L268,416L268,423L268,433L268,440L268,448L268,456L268,465L266,478L262,492L260,501" stroke-opacity="1" stroke-width="5" stroke-linecap="round" stroke-linejoin="round" style="-webkit-tap-highlight-color: rgba(0, 0, 0, 0); stroke-opacity: 1; stroke-linecap: round; stroke-linejoin: round; -webkit-user-select: text;"></path><path fill="none" stroke="#000000" d="M223,64L222,69L222,74L221,80L220,86L218,93L217,100L216,107L215,115L215,122L215,129L215,137L215,145L215,152L215,160L215,169L215,176L215,185L216,192L217,198L220,204L222,208L224,212L227,215L230,218L234,221L238,223L242,224L246,226L251,226L256,227L261,228L266,228L271,228L276,227L280,225L285,221L290,219L295,216L300,213L304,212L307,211L311,210L314,210L317,210L319,210L321,211L323,212L324,214L326,217L327,219L327,222L329,225L329,229L330,232L331,237L332,243L333,248L334,254L334,260L334,268L334,275L334,282L334,289L334,296L334,302L334,308L334,314L334,321L334,327L334,334L334,342L334,349L334,356L335,363L335,370L335,376L336,382L338,387L339,392L341,397L344,402L346,409L349,414L353,420L356,426L360,430L366,434L378,435L392,435L412,433" stroke-opacity="1" stroke-width="5" stroke-linecap="round" stroke-linejoin="round" style="-webkit-tap-highlight-color: rgba(0, 0, 0, 0); stroke-opacity: 1; stroke-linecap: round; stroke-linejoin: round; -webkit-user-select: text;"></path><path fill="none" stroke="#000000" d="M542,73L536,76L532,77L527,79L522,83L517,88L513,95L509,102L506,111L504,119L502,128L500,136L499,145L498,153L497,162L497,171L496,179L496,188L495,197L495,204L494,214L494,223L494,232L493,241L493,251L492,260L492,269L491,278L491,285L490,293L489,302L488,308L487,314L485,320L482,325L479,329L475,332L471,336L466,338L461,340L456,341L451,343L446,343L441,343L436,344L432,344L427,344L423,344L419,344L415,344L411,345L408,345L405,346L402,348L400,350L398,351L397,354L395,356L393,359L392,362L391,366L390,370L390,374L389,378L389,383L389,388L389,393L388,399L388,405L388,411L388,417L388,424L388,431L388,436L388,441L388,447L388,452L388,457L388,466L388,477" stroke-opacity="1" stroke-width="5" stroke-linecap="round" stroke-linejoin="round" style="-webkit-tap-highlight-color: rgba(0, 0, 0, 0); stroke-opacity: 1; stroke-linecap: round; stroke-linejoin: round; -webkit-user-select: text;"></path><path fill="none" stroke="#000000" d="M374,37L372,42L372,45L372,49L372,52L372,58L372,65L372,71L373,78L373,85L373,93L374,101L374,108L375,116L375,123L375,130L376,137L376,144L378,150L379,156L380,163L382,168L384,173L386,178L389,181L391,184L395,187L397,189L401,192L404,194L408,195L412,196L416,197L420,197L425,197L429,197L432,197L435,197L438,197L441,197L443,197L445,197L446,197L448,197L449,197L450,198L451,200L452,202L453,205L454,208L455,211L455,215L456,219L456,223L457,228L457,232L457,236L457,241L457,246L457,251L457,256L457,261L457,267L456,273L455,278L455,283L454,290L453,295L453,302L453,307L453,313L453,319L453,326L453,332L453,338L453,343L454,349L456,355L457,359L459,363L461,367L463,371L465,374L471,378L477,379" stroke-opacity="1" stroke-width="5" stroke-linecap="round" stroke-linejoin="round" style="-webkit-tap-highlight-color: rgba(0, 0, 0, 0); stroke-opacity: 1; stroke-linecap: round; stroke-linejoin: round; -webkit-user-select: text;"></path><path fill="none" stroke="#000000" d="M548,119L548,122L548,126L548,132L549,139L551,147L553,155L555,163L556,171L557,178L557,184L557,192L557,200L557,206L557,213L557,220L557,225L556,230L556,235L555,239L555,243L553,248L552,252L550,255L548,258L546,261L543,263L539,265L534,267L529,268L523,269L518,270L512,270L507,271L502,271L497,272L492,272L489,273L485,273L483,274L480,275L478,277L476,279L473,282L471,285L469,288L467,292L465,296L464,301L463,305L463,310L462,316L462,322L461,328L461,333L461,340L461,345L461,352L461,358L461,364L461,371L461,378L461,384L461,391L462,398L462,403L463,409L463,414L463,420L463,425L463,430L463,434L463,437L463,440L463,444L463,448L463,451L463,455L462,459L460,463L458,466L456,469L454,472L451,474L448,476L446,479L443,480L440,482L436,483L424,483L410,477" stroke-opacity="1" stroke-width="5" stroke-linecap="round" stroke-linejoin="round" style="-webkit-tap-highlight-color: rgba(0, 0, 0, 0); stroke-opacity: 1; stroke-linecap: round; stroke-linejoin: round; -webkit-user-select: text;"></path><path fill="none" stroke="#000000" d="M238,76L237,83L237,90L237,98L237,105L237,114L237,121L238,129L239,137L240,146L240,153L240,163L240,172L240,179L240,186L240,194L240,200L240,206L240,212L242,217L244,222L245,227L247,231L249,236L251,240L254,244L256,247L259,251L262,253L265,255L269,256L273,258L277,258L280,258L284,258L288,258L290,258L293,258L296,258L298,257L300,256L302,256L304,256L306,256L308,256L310,256L312,256L314,256L315,257L317,259L319,261L320,264L321,266L322,270L323,273L324,277L324,280L324,284L324,288L324,292L324,297L324,302L324,307L324,311L324,317L324,324L324,328L324,334L324,340L324,345L324,350L324,356L324,361L324,367L324,373L324,378L324,383L324,388L324,392L324,397L325,401L325,405L326,409L327,412L327,416L329,418L329,422L331,424L332,427L334,429L336,431L338,433L340,435L342,437L345,438L348,440L351,440L355,441L358,442L366,442L378,438L390,430L404,419" stroke-opacity="1" stroke-width="5" stroke-linecap="round" stroke-linejoin="round" style="-webkit-tap-highlight-color: rgba(0, 0, 0, 0); stroke-opacity: 1; stroke-linecap: round; stroke-linejoin: round; -webkit-user-select: text;"></path><path fill="none" stroke="#000000" d="M560,295L551,301L548,304L545,307L543,310L541,315L539,321L538,327L537,333L537,340L536,347L536,354L535,361L535,370L534,378L533,385L533,393L533,401L533,409L532,416L532,424L532,431L532,436L532,442L532,448L532,455L532,460L532,465L532,469L532,473L532,477L532,482L532,485L532,489L532,493L531,496L529,500L528,503L526,506L523,508L521,510L518,511L516,513L512,513L509,514L506,515L502,516L498,516L494,516L490,516L486,516L482,516L478,516L475,516L472,516L469,516L467,517L464,518L462,519L460,520L458,523L456,525L454,527L453,530L451,533L451,535L450,538L449,541L448,544L448,547L448,551L448,554L448,558L448,562L448,566L448,569L448,573L448,577L448,581L448,584L448,588L449,591L449,595L450,598L450,601L450,605L451,608L451,612L451,616L451,620L451,623L452,627L452,630L453,634L453,638L454,642L455,645L456,649L458,652L459,655L460,658L462,661L465,665L471,668L477,669L486,670" stroke-opacity="1" stroke-width="5" stroke-linecap="round" stroke-linejoin="round" style="-webkit-tap-highlight-color: rgba(0, 0, 0, 0); stroke-opacity: 1; stroke-linecap: round; stroke-linejoin: round; -webkit-user-select: text;"></path><path fill="none" stroke="#000000" d="M234,273L235,277L236,282L237,290L240,301L242,309L244,319L245,328L245,337L246,346L246,355L246,364L246,372L244,381L244,389L243,397L243,405L243,412L242,418L242,425L242,430L242,435L242,440L242,444L243,448L244,452L246,455L248,458L250,461L251,463L254,465L256,465L259,467L261,467L264,468L268,469L271,469L275,470L278,470L281,471L285,471L288,472L291,472L294,472L297,473L299,474L301,475L303,476L305,478L307,479L309,482L310,484L312,487L314,490L316,494L317,499L319,503L319,508L320,513L320,519L321,524L321,530L321,536L322,542L322,547L322,554L322,561L323,567L323,572L323,579L323,586L323,591L323,596L323,601L323,606L323,610L322,614L320,618L318,623L314,627L309,631L304,635L299,639L294,642L289,644L285,646L280,647L276,648L272,649L270,649L268,650L266,651L264,651L262,652L261,654L259,655L257,656L256,658L254,660L253,662L251,664L250,666L248,669L246,672L245,674L244,677L244,679L243,682L242,686L242,690L242,694L242,698L242,702L242,705L242,709L242,712L241,714L241,716L241,718L240,721L240,723L240,725L240,727L240,729L240,731L240,733L240,736L240,738L240,740L240,742L240,744L240,747L241,750L241,759L241,775L241,787" stroke-opacity="1" stroke-width="5" stroke-linecap="round" stroke-linejoin="round" style="-webkit-tap-highlight-color: rgba(0, 0, 0, 0); stroke-opacity: 1; stroke-linecap: round; stroke-linejoin: round; -webkit-user-select: text;"></path><path fill="none" stroke="#000000" d="M568,486L566,494L566,499L566,506L566,514L566,523L565,533L564,541L563,549L562,557L560,565L559,573L558,581L557,590L556,597L556,605L555,612L555,619L553,625L551,631L549,636L547,639L544,642L541,644L536,645L531,647L526,647L520,648L514,648L509,648L503,648L498,648L494,648L491,648L488,648L485,648L482,649L479,650L477,651L474,653L472,654L470,657L468,659L466,661L465,664L464,666L464,669L463,671L463,674L463,676L463,679L463,682L463,685L463,689L463,693L463,697L463,700L463,705L463,709L463,713L463,717L463,722L463,725L463,729L463,732L463,735L463,737L464,739L464,742L464,744L464,746L464,748L465,750L465,752L465,754L466,756L466,757L467,759L468,760L469,761L470,763L472,764L474,765L476,766L478,767L481,768L485,768L488,768L492,769L494,769L497,770L499,771L501,772L502,773L503,774L504,776L506,778L507,781L507,783L507,785L507,787L507,789L507,791L507,794L507,796L507,800L507,804L507,815L507,823L507,830" stroke-opacity="1" stroke-width="5" stroke-linecap="round" stroke-linejoin="round" style="-webkit-tap-highlight-color: rgba(0, 0, 0, 0); stroke-opacity: 1; stroke-linecap: round; stroke-linejoin: round; -webkit-user-select: text;"></path><path fill="none" stroke="#000000" d="M159,507L158,511L158,515L159,523L162,534L164,543L166,556L167,568L169,580L170,592L171,603L173,614L174,623L176,632L178,641L180,649L182,657L183,665L186,672L188,678L191,685L194,691L197,697L200,701L204,705L207,708L211,710L215,712L220,712L224,713L228,714L233,714L238,714L243,714L248,714L252,714L256,714L259,714L262,714L264,714L266,714L267,714L268,714L270,714L271,714L272,715L274,717L275,719L276,721L278,724L279,727L280,729L281,732L281,734L282,737L283,740L283,742L283,744L283,746L284,748L284,749L284,751L284,753L285,754L285,756L285,758L285,760L286,762L286,764L286,766L286,768L286,770L287,771L287,773L287,775L287,777L287,778L287,780L287,781L287,783L286,788L285,794L285,799" stroke-opacity="1" stroke-width="5" stroke-linecap="round" stroke-linejoin="round" style="-webkit-tap-highlight-color: rgba(0, 0, 0, 0); stroke-opacity: 1; stroke-linecap: round; stroke-linejoin: round; -webkit-user-select: text;"></path><path fill="none" stroke="#000000" d="M299,528L298,532L298,537L298,543L297,554L297,564L296,574L296,584L295,594L292,605L289,615L286,623L283,630L281,636L278,642L275,647L272,652L268,656L264,659L260,662L256,665L252,667L249,668L245,669L242,669L239,670L236,670L233,671L230,671L227,671L225,672L223,673L220,674L219,675L217,677L215,679L212,681L210,685L209,688L207,693L206,698L205,703L205,708L205,715L205,721L205,727L205,733L207,739L209,744L211,750L212,754L213,759L215,764L215,768L216,771L217,774L217,777L217,779L217,782L217,784L217,787L217,790L217,793L217,795L217,798L217,800L217,802L217,804L217,806L217,807L216,809L215,811L213,812L212,814L209,816L207,818L203,821L199,823L194,825L189,826L180,826L169,816L160,800L155,780" stroke-opacity="1" stroke-width="5" stroke-linecap="round" stroke-linejoin="round" style="-webkit-tap-highlight-color: rgba(0, 0, 0, 0); stroke-opacity: 1; stroke-linecap: round; stroke-linejoin: round; -webkit-user-select: text;"></path><path fill="none" stroke="#000000" d="M196,518L195,520L195,527L195,538L196,551L198,564L199,576L200,589L200,602L201,614L202,626L203,637L204,647L205,657L207,668L208,678L210,688L210,697L211,704L212,712L213,719L214,724L215,729L216,734L218,739L219,743L221,747L223,751L226,754L229,757L232,759L235,761L239,762L242,763L245,764L248,764L251,764L253,764L255,764L257,764L259,764L261,764L263,764L265,764L267,764L268,765L271,766L273,768L274,769L276,771L276,773L277,776L278,778L278,781L278,783L278,787L278,790L278,793L278,796L278,799L278,802L278,804L278,807L278,809L278,812L278,814L278,816L278,818L278,820L278,822L278,823L279,824L280,826L280,827L282,828L283,829L288,831L295,831L305,825L315,812" stroke-opacity="1" stroke-width="5" stroke-linecap="round" stroke-linejoin="round" style="-webkit-tap-highlight-color: rgba(0, 0, 0, 0); stroke-opacity: 1; stroke-linecap: round; stroke-linejoin: round; -webkit-user-select: text;"></path><path fill="none" stroke="#000000" d="M580,472L577,473L572,474L568,478L564,483L559,489L555,494L553,500L550,506L548,514L546,522L545,530L544,540L543,550L541,560L541,571L540,581L539,590L538,597L538,606L538,613L538,621L538,628L538,635L537,642L537,647L537,653L537,659L537,666L537,671L537,676L536,681L535,686L533,691L531,696L528,701L524,705L521,709L518,712L515,714L511,715L508,717L504,717L499,718L494,718L490,719L484,719L479,719L474,719L469,719L465,719L462,719L459,720L456,721L453,723L451,725L448,729L445,733L442,737L440,741L438,745L437,749L436,752L436,756L435,760L435,764L434,769L434,773L433,778L432,782L432,786L431,790L431,795L430,800L429,804L429,810L428,817L426,826L424,832L422,836L419,839" stroke-opacity="1" stroke-width="5" stroke-linecap="round" stroke-linejoin="round" style="-webkit-tap-highlight-color: rgba(0, 0, 0, 0); stroke-opacity: 1; stroke-linecap: round; stroke-linejoin: round; -webkit-user-select: text;"></path><path fill="none" stroke="#000000" d="M304,544L300,551L300,559L300,567L300,577L300,590L300,602L300,613L300,625L300,636L300,647L300,657L300,666L300,675L300,683L300,690L301,697L303,703L305,708L306,711L309,715L311,717L314,720L317,721L319,722L322,723L324,723L327,724L329,724L331,725L332,725L334,726L336,728L338,730L339,732L341,734L341,737L342,740L343,743L343,746L344,749L344,752L344,756L344,760L344,763L344,766L344,770L344,773L343,776L343,779L342,782L342,785L341,788L341,790L340,793L340,796L339,799L339,801L339,804L339,806L338,808L338,810L337,812L337,815L336,817L336,819L336,820L335,822L334,824L334,825L332,828L327,834L319,839L313,841" stroke-opacity="1" stroke-width="5" stroke-linecap="round" stroke-linejoin="round" style="-webkit-tap-highlight-color: rgba(0, 0, 0, 0); stroke-opacity: 1; stroke-linecap: round; stroke-linejoin: round; -webkit-user-select: text;"></path><path fill="none" stroke="#000000" d="M518,29L514,29L511,36L509,44L508,52L508,59L507,67L507,75L507,82L507,89L507,96L507,103L507,111L506,119L505,126L504,132L504,138L502,144L500,149L498,153L496,158L493,161L490,165L487,167L483,170L480,172L476,173L472,174L468,174L464,174L460,174L457,174L453,173L450,170L446,168L442,166L438,165L435,163L431,162L428,162L426,162L423,162L420,163L417,164L415,166L414,168L413,171L412,175L412,180L412,185L411,190L410,196L409,202L409,207L407,213L407,219L406,224L404,230L404,236L404,243L403,250L403,255L403,261L403,266L403,271L403,276L403,280L404,284L404,288L406,292L407,295L409,299L410,302L412,306L414,309L416,311L418,313L420,315L423,316L426,318L431,319L449,319" stroke-opacity="1" stroke-width="5" stroke-linecap="round" stroke-linejoin="round" style="-webkit-tap-highlight-color: rgba(0, 0, 0, 0); stroke-opacity: 1; stroke-linecap: round; stroke-linejoin: round; -webkit-user-select: text;"></path><path fill="none" stroke="#000000" d="M461,25L460,25L460,30L460,37L460,46L460,54L460,62L460,70L460,78L461,88L461,97L461,105L461,114L461,122L460,128L459,135L459,142L458,149L458,156L457,163L457,170L457,177L457,182L457,187L457,193L457,197L457,201L458,205L459,209L462,212L464,214L467,217L470,218L474,219L478,220L482,220L487,220L491,220L495,220L499,220L502,220L506,218L509,217L511,217L514,217L517,217L520,217L522,217L524,217L526,217L528,219L531,221L532,223L533,225L535,228L536,231L537,235L537,239L538,243L538,248L539,252L539,257L539,262L539,267L539,273L539,279L538,283L538,289L536,294L536,300L534,306L533,311L532,317L532,322L531,328L531,333L531,338L531,343L531,349L531,354L531,359L531,364L531,368L533,373L534,378L536,382L538,386L540,391L543,394L548,396L559,397L570,397L580,394" stroke-opacity="1" stroke-width="5" stroke-linecap="round" stroke-linejoin="round" style="-webkit-tap-highlight-color: rgba(0, 0, 0, 0); stroke-opacity: 1; stroke-linecap: round; stroke-linejoin: round; -webkit-user-select: text;"></path><path fill="none" stroke="#000000" d="M388,49L386,52L386,56L386,63L386,72L386,81L386,91L387,100L389,108L390,117L391,127L392,136L392,145L392,152L392,161L392,169L392,177L392,184L392,191L392,198L392,204L392,210L391,215L390,219L387,222L385,226L383,228L380,230L376,231L373,232L369,232L365,233L361,233L358,233L353,233L350,233L346,233L344,233L340,233L338,233L335,233L333,233L331,233L329,233L328,234L326,235L324,237L323,239L322,241L321,244L320,247L319,250L319,253L319,256L319,260L319,264L319,269L319,274L319,279L319,285L319,290L319,296L320,302L321,307L322,312L322,317L323,323L323,328L324,333L324,337L324,342L324,346L324,351L324,355L324,359L324,362L323,366L322,369L320,373L318,376L317,379L314,381L312,383L308,384L302,384L295,384L287,377" stroke-opacity="1" stroke-width="5" stroke-linecap="round" stroke-linejoin="round" style="-webkit-tap-highlight-color: rgba(0, 0, 0, 0); stroke-opacity: 1; stroke-linecap: round; stroke-linejoin: round; -webkit-user-select: text;"></path><path fill="none" stroke="#000000" d="M266,53L266,55L266,60L266,67L266,76L265,84L265,92L265,100L265,108L265,117L265,125L265,133L265,143L265,151L265,161L265,169L265,176L265,183L265,190L265,195L265,201L265,205L266,209L267,214L269,217L271,221L273,224L276,226L280,228L283,229L287,231L291,232L296,232L300,233L305,233L309,233L313,233L317,233L321,233L325,232L329,232L334,231L338,231L342,231L347,231L351,231L355,231L358,232L362,234L365,236L368,239L370,242L373,246L375,250L378,255L379,260L381,265L382,270L383,276L383,281L383,287L383,294L383,300L383,307L383,312L383,319L383,325L383,332L383,338L383,345L383,352L383,357L383,363L383,369L383,375L383,380L383,386L383,391L383,396L383,401L384,405L386,409L389,412L392,415L398,418L407,418L414,418L420,416" stroke-opacity="1" stroke-width="5" stroke-linecap="round" stroke-linejoin="round" style="-webkit-tap-highlight-color: rgba(0, 0, 0, 0); stroke-opacity: 1; stroke-linecap: round; stroke-linejoin: round; -webkit-user-select: text;"></path><path fill="none" stroke="#000000" d="M217,85L219,88L219,98L219,104L219,110L219,117L219,123L219,129L219,136L219,144L219,151L219,158L219,166L220,174L220,181L221,187L222,194L222,200L222,205L223,211L223,216L223,223L223,229L222,234L220,238L218,243L216,247L214,250L211,253L208,255L205,257L203,258L200,259L196,260L193,260L190,261L186,262L183,262L179,263L177,264L174,265L172,266L171,268L169,270L168,272L167,275L167,277L167,281L167,285L167,289L167,294L167,299L167,305L167,311L167,318L167,324L167,331L168,337L169,344L170,351L171,359L172,366L173,375L174,382L175,389L176,397L177,404L178,411L178,418L179,424L179,430L180,435L180,440L181,445L181,450L181,455L181,459L181,462L181,466L181,469L181,472L180,475L179,477L178,480L177,482L176,484L175,485L173,486L171,486L165,486L152,479L139,470" stroke-opacity="1" stroke-width="5" stroke-linecap="round" stroke-linejoin="round" style="-webkit-tap-highlight-color: rgba(0, 0, 0, 0); stroke-opacity: 1; stroke-linecap: round; stroke-linejoin: round; -webkit-user-select: text;"></path><path fill="none" stroke="#000000" d="M171,190L168,200L168,207L168,216L168,226L168,237L168,248L169,258L170,268L170,280L171,291L171,302L171,313L171,324L171,333L171,343L172,350L172,357L174,362L175,367L177,371L179,375L182,377L184,378L187,379L189,380L192,380L194,380L198,380L200,380L204,380L207,379L211,378L215,377L218,375L222,375L225,375L228,375L231,375L234,375L237,375L240,375L243,375L245,377L247,379L249,382L251,384L253,388L254,392L255,396L256,401L257,407L257,412L257,419L257,426L257,432L257,439L256,445L255,452L254,459L253,466L252,472L251,479L251,486L251,491L250,497L250,503L250,508L250,513L250,518L250,522L250,526L250,530L250,535L250,538L250,542L251,545L252,548L254,551L256,554L259,557L263,559L270,562L280,563L295,563" stroke-opacity="1" stroke-width="5" stroke-linecap="round" stroke-linejoin="round" style="-webkit-tap-highlight-color: rgba(0, 0, 0, 0); stroke-opacity: 1; stroke-linecap: round; stroke-linejoin: round; -webkit-user-select: text;"></path><path fill="none" stroke="#000000" d="M548,122L545,127L545,134L545,144L545,155L545,167L545,179L545,190L545,201L545,213L545,225L543,237L542,248L541,260L540,270L538,280L537,290L535,298L533,306L532,314L530,321L528,328L525,334L522,340L519,344L515,348L510,352L505,355L500,357L494,359L488,360L483,361L477,362L472,362L467,362L463,362L458,362L455,362L452,362L449,362L447,362L444,364L442,367L440,372L438,377L436,383L436,389L435,396L434,404L434,412L434,419L434,427L434,435L434,443L434,450L434,459L434,467L434,474L434,482L434,489L434,496L434,503L434,509L434,514L435,518L436,523L438,527L441,530L443,534L446,537L450,539L453,541L456,542L459,544L463,544L466,545L470,545L473,545L477,545L480,545L484,544L487,542L491,541L495,540L499,539L502,538L506,538L509,537L512,537L515,537L517,537L519,537L521,537L523,537L524,537L526,538L527,539L528,540L529,542L531,544L531,546L533,548L534,551L535,554L535,558L536,562L536,566L536,570L536,574L536,578L536,582L536,587L536,591L536,596L536,600L536,604L536,608L536,611L536,615L536,619L536,622L536,626L536,630L536,634L536,637L536,641L536,645L536,650L539,656L544,661L549,664" stroke-opacity="1" stroke-width="5" stroke-linecap="round" stroke-linejoin="round" style="-webkit-tap-highlight-color: rgba(0, 0, 0, 0); stroke-opacity: 1; stroke-linecap: round; stroke-linejoin: round; -webkit-user-select: text;"></path><path fill="none" stroke="#000000" d="M588,309L584,314L582,321L581,331L580,342L579,353L579,364L579,375L579,384L579,395L578,405L578,415L577,425L575,434L573,443L571,451L568,458L566,463L563,468L560,471L558,474L555,475L552,477L548,477L545,477L541,477L536,477L531,477L526,475L521,473L517,472L514,471L510,470L507,470L504,470L502,470L501,472L499,474L497,478L495,482L494,488L493,493L492,499L492,504L492,510L492,516L492,522L492,528L492,533L492,540L493,546L494,552L494,559L495,566L496,572L497,579L497,585L498,592L498,598L499,604L499,611L500,616L500,621L501,626L501,631L501,635L501,640L501,644L501,647L501,651L501,654L501,657L500,660L498,663L495,666L491,667L484,667L474,658" stroke-opacity="1" stroke-width="5" stroke-linecap="round" stroke-linejoin="round" style="-webkit-tap-highlight-color: rgba(0, 0, 0, 0); stroke-opacity: 1; stroke-linecap: round; stroke-linejoin: round; -webkit-user-select: text;"></path><path fill="none" stroke="#000000" d="M528,520L525,527L525,535L525,544L525,555L525,566L525,576L525,586L525,593L525,601L524,608L524,615L523,621L522,627L521,632L521,638L521,643L521,648L521,653L521,658L521,662L521,666L521,669L523,673L525,676L526,679L528,682L531,684L533,686L535,688L538,689L540,690L542,690L544,691L545,691L547,692L548,692L549,693L550,694L552,695L553,696L554,698L555,700L555,702L556,705L556,708L556,710L556,714L556,717L556,721L556,724L556,727L556,729L555,732L555,735L554,737L553,739L553,742L552,744L551,746L551,748L550,749L550,751L549,753L548,755L548,757L548,759L547,761L547,764L546,766L546,768L545,770L545,773L545,775L545,777L544,780L544,782L544,784L544,787L544,789L544,791L544,794L544,796L544,800L545,809L549,813L554,814" stroke-opacity="1" stroke-width="5" stroke-linecap="round" stroke-linejoin="round" style="-webkit-tap-highlight-color: rgba(0, 0, 0, 0); stroke-opacity: 1; stroke-linecap: round; stroke-linejoin: round; -webkit-user-select: text;"></path><path fill="none" stroke="#000000" d="M425,53L425,59L425,65L426,74L428,86L431,97L433,106L435,116L437,125L438,135L440,145L441,154L441,164L441,174L441,183L441,191L441,199L441,205L441,212L441,217L439,220L437,224L435,226L432,228L429,229L426,230L422,230L418,230L414,230L410,230L405,228L401,225L397,221L394,219L390,216L387,214L385,212L382,211L380,211L378,211L375,211L374,211L372,212L370,214L368,216L367,219L365,223L363,228L362,232L361,237L360,242L359,247L358,252L358,258L358,265L357,273L357,280L357,289L357,299L357,307L357,315L356,325L356,332L356,340L356,348L355,355L355,362L354,367L352,375L347,389L341,403" stroke-opacity="1" stroke-width="5" stroke-linecap="round" stroke-linejoin="round" style="-webkit-tap-highlight-color: rgba(0, 0, 0, 0); stroke-opacity: 1; stroke-linecap: round; stroke-linejoin: round; -webkit-user-select: text;"></path><path fill="none" stroke="#000000" d="M171,44L171,46L171,52L171,59L171,69L171,80L171,91L172,101L174,111L175,121L176,131L177,141L178,151L178,161L179,170L179,178L179,185L179,192L179,197L177,202L175,206L172,210L169,214L165,218L162,220L158,222L154,224L149,225L145,226L141,226L137,227L132,227L129,227L125,228L123,228L121,229L119,230L118,232L117,234L115,237L114,242L113,247L112,253L111,259L110,265L110,272L110,279L110,286L110,293L109,301L109,309L109,316L109,324L109,331L109,338L109,345L110,352L110,359L110,366L111,373L112,380L113,387L113,393L114,400L114,406L115,411L115,417L115,422L115,427L115,431L115,435L115,440L115,443L115,447L115,450L115,452L115,454L115,455L114,456L111,456L106,455L98,448" stroke-opacity="1" stroke-width="5" stroke-linecap="round" stroke-linejoin="round" style="-webkit-tap-highlight-color: rgba(0, 0, 0, 0); stroke-opacity: 1; stroke-linecap: round; stroke-linejoin: round; -webkit-user-select: text;"></path><path fill="none" stroke="#000000" d="M122,125L120,130L120,138L120,150L120,163L120,177L120,190L121,203L121,216L122,228L122,241L122,253L122,264L122,277L122,288L122,298L122,308L122,317L122,326L123,334L125,341L128,348L130,353L133,357L136,360L139,363L143,365L146,367L150,368L154,368L157,368L161,368L165,367L169,365L173,363L176,360L181,358L185,356L190,354L195,353L199,352L204,352L208,352L212,352L216,352L220,353L222,356L226,360L228,364L231,369L232,375L234,381L235,387L236,394L236,401L236,409L236,416L236,426L236,433L236,440L234,449L233,456L232,464L230,472L229,480L228,486L228,494L228,501L228,507L228,513L228,519L228,525L228,531L229,536L230,541L232,545L234,550L236,554L238,557L241,561L243,564L246,566L249,567L253,568L267,565L283,550L296,535" stroke-opacity="1" stroke-width="5" stroke-linecap="round" stroke-linejoin="round" style="-webkit-tap-highlight-color: rgba(0, 0, 0, 0); stroke-opacity: 1; stroke-linecap: round; stroke-linejoin: round; -webkit-user-select: text;"></path><path fill="none" stroke="#000000" d="M558,103L558,108L558,114L558,123L558,133L558,144L558,155L558,166L558,177L558,187L558,199L558,209L558,219L557,229L556,238L555,247L553,256L553,265L552,274L551,282L551,290L551,299L551,307L551,315L553,323L555,329L558,335L561,340L564,343L567,346L570,347L574,348L578,348L581,348L585,348L588,348L591,348L593,348L596,348L599,350L603,354L606,360L609,365L610,371L611,377L611,383L611,389L611,396L610,404L608,412L605,419L602,427L600,435L598,443L596,449L595,457L594,464L593,472L592,479L592,487L591,495L590,503L589,511L588,518L588,526L587,535L587,542L587,549L587,557L587,564L587,571L587,579L587,586L587,592L587,598L587,605L587,610L588,615L589,620L591,625L593,630L596,634L600,637L607,640L614,640L624,637L631,627" stroke-opacity="1" stroke-width="5" stroke-linecap="round" stroke-linejoin="round" style="-webkit-tap-highlight-color: rgba(0, 0, 0, 0); stroke-opacity: 1; stroke-linecap: round; stroke-linejoin: round; -webkit-user-select: text;"></path><path fill="none" stroke="#000000" d="M543,511L545,517L550,519L556,522L562,526L567,529L572,532L577,535L580,538L584,542L587,547L589,552L590,558L591,564L592,569L592,574L592,580L592,586L592,592L592,597L592,603L592,609L590,615L589,622L587,628L585,634L584,640L582,645L581,651L579,656L578,662L577,668L577,672L576,677L575,681L575,686L575,690L575,693L575,696L575,699L575,701L575,703L575,704L577,705L578,706L580,707L582,708L584,708L585,709L587,710L588,711L590,712L591,714L592,716L594,719L595,721L596,724L596,726L596,729L597,731L597,734L597,737L597,739L597,742L596,744L596,747L594,750L594,753L593,755L592,758L591,761L590,764L589,766L588,768L587,771L587,773L586,776L585,778L585,779L584,781L584,783L584,784L583,786L583,787L582,789L582,790L582,792L581,793L581,794L580,796L580,797L580,798L579,800L579,801L579,802L579,803L579,805L579,806L579,807L579,809L579,810L579,813L579,822L579,830L583,834" stroke-opacity="1" stroke-width="5" stroke-linecap="round" stroke-linejoin="round" style="-webkit-tap-highlight-color: rgba(0, 0, 0, 0); stroke-opacity: 1; stroke-linecap: round; stroke-linejoin: round; -webkit-user-select: text;"></path></svg>