<svg height="906" version="1.1" width="768" xmlns="http://www.w3.org/2000/svg" xmlns:xlink="http://www.w3.org/1999/xlink" style="overflow: hidden; position: relative; -webkit-user-select: text;"><desc style="-webkit-tap-highlight-color: rgba(0, 0, 0, 0); -webkit-user-select: text;">Created with Raphaël 2.2.0</desc><defs style="-webkit-tap-highlight-color: rgba(0, 0, 0, 0); -webkit-user-select: text;"></defs><path fill="none" stroke="#000000" d="M80,24L81,28L81,29L81,30L81,31L81,32L80,33L80,34L80,35L80,37L80,38L79,39L79,41L79,42L79,44L79,45L79,46L79,48L79,50L79,51L79,53L79,55L79,56L79,59L79,61L79,62L79,64L79,66L79,68L79,70L79,72L79,74L79,76L79,78L79,81L79,83L79,85L79,87L79,89L79,91L79,93L79,95L79,98L79,100L79,102L79,104L78,106L78,108L78,110L78,113L78,115L77,117L77,119L77,122L77,124L77,126L76,128L76,131L76,133L76,136L76,138L76,141L76,143L76,145L76,148L76,150L75,152L75,155L75,158L75,160L75,163L75,166L74,169L74,171L74,174L74,177L74,180L74,183L74,187L74,190L74,193L74,196L74,199L74,202L74,204L74,207L74,210L74,213L74,216L74,219L74,222L74,226L74,229L74,233L74,236L74,240L74,243L74,247L74,251L74,254L74,258L74,261L74,265L74,268L74,272L74,276L74,279L74,283L74,287L74,290L74,294L74,298L74,302L74,306L74,310L74,314L74,318L74,322L74,326L74,330L74,334L74,338L74,343L74,348L74,352L74,356L74,361L74,365L74,370L74,375L74,379L74,384L74,388L75,392L75,396L75,401L75,405L75,409L75,413L75,417L75,421L75,425L75,428L75,432L76,436L76,440L76,444L76,448L76,452L77,455L77,460L77,464L77,468L78,472L78,476L78,479L78,484L78,487L78,491L79,495L79,500L79,503L79,508L80,512L80,516L81,520L81,525L81,529L82,533L82,537L83,542L83,546L84,550L84,555L84,559L85,563L85,567L86,570L86,574L86,578L86,581L86,585L86,589L86,592L86,596L86,599L86,603L86,606L86,610L86,613L86,617L86,620L86,623L86,626L86,630L86,632L86,636L86,639L86,642L86,645L86,649L86,652L86,655L86,659L86,662L86,666L86,669L86,673L86,676L86,680L86,684L86,688L86,692L86,696L86,700L86,703L86,708L86,712L86,715L86,719L86,723L87,727L87,730L87,734L88,738L88,742L88,745L89,749L89,752L89,756L90,759L90,763L90,766L90,769L91,772L91,775L91,778L91,781L91,784L92,787L92,790L92,793L93,796L93,799L93,801L93,804L94,806L94,809L94,811L95,812L95,814L95,816L95,817L96,818L96,819L96,818L96,816L96,813" stroke-opacity="1" stroke-width="1" stroke-linecap="round" stroke-linejoin="round" style="-webkit-tap-highlight-color: rgba(0, 0, 0, 0); stroke-opacity: 1; stroke-linecap: round; stroke-linejoin: round; -webkit-user-select: text;"></path><path fill="none" stroke="#000000" d="M151,24L153,28L153,30L153,32L153,34L153,36L153,39L153,41L153,44L152,46L152,49L152,52L152,56L152,59L152,62L152,66L152,69L152,73L152,77L152,81L152,86L152,90L152,94L152,98L152,101L152,105L152,109L152,112L152,116L152,120L152,124L151,128L151,132L151,136L151,141L151,145L150,149L150,153L150,157L150,161L149,165L149,168L149,171L149,175L149,178L149,182L149,185L149,189L149,193L149,196L149,200L148,204L148,207L148,211L148,215L148,219L148,222L148,226L148,230L148,234L148,238L148,243L148,247L148,251L148,256L148,260L148,265L148,270L148,274L148,279L148,283L148,288L148,292L148,297L148,302L148,307L148,311L148,315L148,320L148,324L148,328L148,333L148,336L148,341L148,344L148,348L148,351L148,354L148,358L148,360L148,364L148,367L148,370L148,373L148,377L148,380L148,384L148,387L148,391L148,394L148,398L148,402L148,406L148,409L148,413L148,417L148,421L148,425L148,428L148,432L148,436L148,440L148,444L148,448L148,452L148,457L148,461L148,465L148,469L148,474L148,478L149,482L149,486L149,491L149,495L149,499L149,504L149,509L149,513L149,518L150,523L150,527L150,532L151,536L151,541L151,545L151,550L151,554L152,559L152,563L152,567L152,571L152,576L152,579L152,583L152,587L152,591L152,594L152,598L152,601L152,605L152,608L152,612L152,616L152,620L152,623L152,627L152,630L152,634L152,637L152,641L152,644L152,648L152,652L152,655L152,659L152,662L152,666L152,669L152,673L152,676L152,680L152,684L152,688L153,691L153,695L153,698L153,702L154,705L154,709L154,712L154,716L154,719L154,722L155,726L155,729L155,732L155,735L155,739L155,742L156,744L156,747L156,750L156,753L156,755L156,758L156,761L156,763L156,766L156,768L156,770L156,772L156,774L156,776L156,778L156,780L156,782L156,784L156,785L156,787L156,789L156,791L156,792L156,794L156,795L156,797L156,798L156,799L156,800L156,802L156,804L156,805L156,806L156,807L156,808L156,809L156,810L156,811L156,808L156,805" stroke-opacity="1" stroke-width="1" stroke-linecap="round" stroke-linejoin="round" style="-webkit-tap-highlight-color: rgba(0, 0, 0, 0); stroke-opacity: 1; stroke-linecap: round; stroke-linejoin: round; -webkit-user-select: text;"></path><path fill="none" stroke="#000000" d="M231,36L231,37L231,38L231,39L231,40L231,42L231,43L231,44L231,45L231,46L231,48L231,50L231,51L231,53L231,55L231,57L231,59L231,62L231,64L231,66L231,68L231,71L231,73L231,75L231,78L231,80L231,82L231,84L231,86L231,89L231,91L231,93L231,96L231,98L231,100L231,103L231,105L231,108L231,110L231,113L231,115L231,118L231,121L231,123L231,126L231,129L231,132L231,134L231,137L231,139L231,142L231,144L231,147L231,149L231,152L231,154L231,157L231,160L231,163L231,166L231,168L231,171L231,175L231,178L232,180L232,183L232,187L232,190L232,193L232,196L232,199L232,203L232,206L232,209L232,213L232,216L232,219L232,223L232,226L232,230L232,233L232,236L232,239L232,243L232,246L232,249L232,252L232,256L232,258L232,261L232,265L232,268L232,270L232,273L232,276L232,280L232,282L232,285L232,288L232,290L232,293L232,296L232,298L232,301L232,304L232,306L232,308L232,311L232,313L232,315L232,320L232,322L232,324L232,327L232,329L232,332L232,335L232,337L232,340L232,343L232,345L232,348L232,350L232,353L232,355L232,358L232,360L232,362L232,365L232,367L232,370L232,372L232,375L232,377L232,380L232,382L232,385L232,388L232,390L232,393L232,396L232,399L232,401L232,404L232,407L232,410L232,413L232,416L232,419L232,422L232,425L232,428L232,431L232,434L232,437L232,440L232,443L232,446L232,449L232,452L232,455L232,458L232,461L232,464L232,468L232,471L232,474L232,477L232,481L232,484L232,487L232,491L232,494L232,498L232,501L232,504L232,508L232,512L232,515L232,518L232,522L232,525L232,528L232,532L232,535L232,538L232,542L232,545L232,548L232,552L232,555L232,559L232,562L232,565L232,569L232,572L232,576L232,579L232,582L232,586L232,588L232,592L232,595L232,598L232,601L232,604L232,608L232,611L232,614L232,618L232,621L232,624L232,627L232,630L232,633L232,636L232,639L232,642L232,645L232,648L232,651L232,654L232,657L232,660L232,663L232,666L232,669L232,672L232,676L232,679L232,682L232,685L232,688L232,691L232,694L232,697L232,700L232,703L232,705L232,708L232,710L232,713L232,715L232,718L232,720L232,723L232,725L232,728L232,730L232,732L232,734L232,737L232,739L232,742L232,744L232,746L232,749L232,751L232,753L232,755L232,758L232,760L232,762L232,764L232,766L232,768L232,771L232,773L232,775L232,776L232,778L232,781L232,782L232,784L232,786L232,788L232,789L232,791L232,793L232,794L232,795L232,797L232,798L232,799L232,801L232,802L232,803L232,804L232,805L232,806L232,807L232,808L233,807L233,806L233,804L234,802" stroke-opacity="1" stroke-width="1" stroke-linecap="round" stroke-linejoin="round" style="-webkit-tap-highlight-color: rgba(0, 0, 0, 0); stroke-opacity: 1; stroke-linecap: round; stroke-linejoin: round; -webkit-user-select: text;"></path><path fill="none" stroke="#000000" d="M306,31L306,32L306,33L306,34L306,35L306,36L306,37L306,38L306,39L306,41L306,43L306,45L306,46L306,49L306,50L306,52L306,54L306,56L306,59L306,61L306,64L306,66L306,69L306,72L306,75L306,78L306,80L306,83L306,87L306,90L306,93L306,96L306,99L306,102L306,106L306,110L306,114L306,118L306,122L306,126L306,130L306,134L306,138L306,142L306,146L306,150L306,153L306,157L307,161L307,165L307,169L307,173L307,178L307,182L307,186L307,190L308,195L308,199L308,203L308,208L308,212L308,217L308,221L308,225L308,230L308,234L308,238L308,243L308,248L308,253L308,258L308,263L308,268L308,273L308,279L308,285L308,290L308,295L308,301L308,306L308,311L308,316L308,321L308,326L308,331L308,336L308,340L308,345L308,350L308,354L308,359L308,364L308,369L308,374L308,379L308,384L308,389L308,394L308,398L308,403L308,408L308,413L309,417L309,422L309,426L309,431L309,435L309,440L309,444L309,449L309,454L309,458L309,463L309,468L309,473L309,479L309,484L309,489L309,494L309,499L309,504L309,509L309,513L309,518L309,523L309,528L309,532L309,536L309,540L309,544L309,548L309,552L309,557L309,561L309,565L309,569L309,573L309,578L309,582L309,586L309,591L309,595L309,599L309,604L309,608L309,613L309,617L309,622L309,626L309,631L309,635L309,640L309,644L309,648L309,652L309,656L309,660L309,664L309,667L309,671L309,674L309,677L309,681L309,683L309,687L309,690L309,693L309,695L309,698L309,701L309,704L309,706L309,709L309,712L309,714L309,717L309,720L309,722L309,725L309,728L309,731L309,734L308,737L308,739L308,742L308,745L308,748L308,751L308,753L308,756L308,759L308,761L308,764L308,766L308,768L308,771L308,773L308,776L308,778L308,780L308,782L308,784L308,787L308,789L308,791L308,793L308,795L308,797L308,798L308,800L308,802L308,804L308,805L308,807L308,809L308,810L307,812L307,814L307,815L307,817L307,818L307,819L307,820L307,821L307,822L307,823L307,824L307,822L307,820L307,817L307,815" stroke-opacity="1" stroke-width="1" stroke-linecap="round" stroke-linejoin="round" style="-webkit-tap-highlight-color: rgba(0, 0, 0, 0); stroke-opacity: 1; stroke-linecap: round; stroke-linejoin: round; -webkit-user-select: text;"></path><path fill="none" stroke="#000000" d="M389,17L390,20L390,21L390,23L390,24L390,25L390,27L390,28L390,30L390,32L390,34L390,35L390,38L390,40L390,42L390,45L390,47L390,50L390,53L390,56L390,59L390,62L390,66L390,69L390,73L390,77L390,81L390,85L390,89L390,93L390,97L390,100L390,104L390,107L390,111L390,115L390,118L390,121L390,125L390,129L390,132L390,136L390,140L390,144L390,147L390,151L390,155L390,158L390,162L390,166L390,170L390,175L390,180L390,185L390,190L390,195L390,200L390,205L390,210L390,214L390,219L390,223L390,228L390,232L390,236L390,240L390,244L390,248L390,253L390,257L390,262L390,266L390,270L390,275L390,279L390,283L390,287L390,292L390,296L390,301L390,305L390,309L390,314L389,318L389,322L389,326L389,331L388,336L388,341L388,346L388,351L388,357L388,363L388,368L388,374L388,379L388,384L388,389L387,393L387,398L387,402L387,406L387,411L387,415L387,419L387,423L386,427L386,431L386,435L386,440L385,444L385,448L385,452L385,457L385,461L385,465L384,469L384,474L384,478L384,482L384,486L384,490L384,494L384,498L384,501L384,505L384,509L384,513L384,517L384,521L384,525L384,528L384,532L384,536L384,540L384,543L384,547L384,550L384,554L384,558L384,562L384,565L384,569L384,573L384,577L384,581L384,584L384,588L384,592L384,596L384,599L384,603L384,607L384,610L384,615L384,619L384,623L384,627L384,630L384,635L384,639L384,643L384,647L384,651L384,655L384,659L384,664L384,668L384,672L384,676L384,680L384,685L384,689L384,693L384,697L384,701L384,705L384,710L384,714L384,718L384,722L383,726L383,730L383,734L383,737L383,741L383,745L383,749L383,752L383,755L382,758L382,761L382,764L382,767L381,770L381,772L381,775L380,777L380,780L380,782L380,784L380,787L380,789L379,791L379,793L379,795L379,798L379,800L378,802L378,804L378,806L378,808L378,810L378,812L378,815L378,817L378,819L378,822L378,823L378,825L378,827L378,828L378,829L378,830L378,831L378,832L378,829L378,828" stroke-opacity="1" stroke-width="1" stroke-linecap="round" stroke-linejoin="round" style="-webkit-tap-highlight-color: rgba(0, 0, 0, 0); stroke-opacity: 1; stroke-linecap: round; stroke-linejoin: round; -webkit-user-select: text;"></path><path fill="none" stroke="#000000" d="M469,29L471,31L471,32L471,33L471,34L471,35L471,36L471,37L471,38L471,39L471,40L471,42L471,43L471,44L470,46L470,48L470,50L470,52L470,54L470,57L470,59L469,62L469,64L469,67L469,70L469,73L469,76L469,79L469,82L469,86L469,89L469,93L469,97L469,100L469,104L469,107L469,111L469,115L469,118L469,122L469,125L469,129L469,132L469,136L469,139L469,143L469,146L469,150L469,153L469,157L469,161L469,164L469,168L469,172L469,176L469,180L469,184L469,188L470,192L470,196L470,200L470,204L470,207L470,211L470,215L470,219L470,223L470,227L470,231L470,234L470,238L470,242L470,246L470,250L470,254L470,258L470,262L470,266L470,270L470,274L470,278L470,282L470,286L470,290L470,294L470,299L470,302L470,307L470,310L470,314L470,317L470,321L470,324L470,327L469,330L469,333L469,336L469,340L469,343L469,346L469,349L468,353L468,356L468,359L468,362L468,366L467,369L467,372L467,376L466,379L466,383L466,387L465,390L465,394L465,398L465,403L465,407L464,411L464,416L464,421L464,426L464,431L464,435L464,440L464,445L464,450L464,454L464,459L464,463L464,467L464,472L464,476L464,480L464,484L464,488L464,492L464,496L463,499L463,503L463,506L463,510L463,514L463,517L463,520L463,524L463,528L463,531L463,535L463,539L463,542L463,546L463,550L462,554L462,558L462,561L462,565L462,569L462,572L461,576L461,580L461,584L461,587L461,591L460,594L460,598L460,602L460,606L460,609L460,613L460,616L459,620L459,623L459,627L459,630L459,634L459,637L459,640L459,643L459,646L459,649L459,652L459,655L459,659L459,661L459,664L459,668L459,671L459,674L459,676L459,679L459,682L459,686L459,688L459,691L459,694L459,697L459,699L459,702L459,705L459,707L459,710L459,713L459,716L459,719L459,722L459,725L459,727L459,730L459,733L458,736L458,739L458,742L458,744L458,747L458,750L458,752L458,755L458,758L458,761L458,764L458,766L458,769L458,771L458,774L457,777L457,779L457,782L457,784L457,787L457,790L457,792L457,795L457,797L457,800L457,802L457,804L457,806L457,808L457,810L457,812L457,814L457,816L457,818L457,819L457,821L457,822L457,823L457,824L457,825L457,826L457,827L457,828L457,824" stroke-opacity="1" stroke-width="1" stroke-linecap="round" stroke-linejoin="round" style="-webkit-tap-highlight-color: rgba(0, 0, 0, 0); stroke-opacity: 1; stroke-linecap: round; stroke-linejoin: round; -webkit-user-select: text;"></path><path fill="none" stroke="#000000" d="M553,17L551,16L551,17L551,18L551,19L551,20L551,21L551,23L551,24L551,26L551,27L551,29L551,31L551,32L551,34L551,36L551,38L551,40L551,42L551,45L551,47L551,50L551,53L551,56L551,59L551,62L551,66L551,69L551,73L551,76L551,80L551,83L551,87L551,91L551,95L551,99L551,103L551,107L551,111L551,115L551,118L551,121L551,124L550,127L550,129L550,132L550,135L550,138L549,141L549,144L549,147L548,150L548,153L548,156L547,159L547,162L546,165L546,168L546,171L546,174L545,178L545,181L545,184L545,188L545,192L545,196L544,200L544,203L544,207L544,211L544,215L544,219L544,222L544,226L544,229L544,233L543,236L543,240L543,243L543,247L543,251L543,255L543,258L542,262L542,266L542,270L542,273L541,277L541,281L541,285L541,289L541,293L541,297L541,302L540,306L540,311L540,315L540,320L540,325L540,329L540,334L540,338L540,343L540,348L540,352L540,356L540,360L540,365L540,369L540,373L540,377L540,381L540,386L540,390L540,394L540,399L540,403L540,407L540,412L540,416L540,421L540,425L540,429L540,433L540,437L540,440L540,444L540,448L540,452L540,456L540,460L540,464L540,468L540,472L540,476L540,479L540,483L540,486L540,490L540,494L540,498L540,502L540,506L540,511L540,515L540,518L540,523L540,527L540,531L540,535L540,539L540,542L540,547L540,550L540,554L541,558L541,562L541,565L541,569L541,572L541,576L541,580L541,584L541,588L541,591L541,596L541,600L541,604L541,608L541,612L541,616L541,620L542,625L542,629L542,633L542,637L542,641L542,645L542,649L542,653L542,657L542,660L542,664L542,668L542,671L542,675L542,679L542,683L542,686L542,690L542,693L542,697L542,700L542,704L542,707L542,710L542,714L542,717L542,721L542,724L542,727L542,731L542,734L542,737L542,741L542,744L542,747L542,750L542,754L542,757L542,760L542,763L542,766L542,769L542,773L542,776L542,779L542,783L542,786L542,790L542,793L542,797L542,800L542,803L542,807L542,810L542,814L542,817L542,820L543,823L543,826L543,829L543,831L543,834L543,836L543,838L543,840L543,842L543,844L543,846L543,847L543,849L543,851L543,852L543,853L543,855L543,856L544,856L544,854L545,851" stroke-opacity="1" stroke-width="1" stroke-linecap="round" stroke-linejoin="round" style="-webkit-tap-highlight-color: rgba(0, 0, 0, 0); stroke-opacity: 1; stroke-linecap: round; stroke-linejoin: round; -webkit-user-select: text;"></path><path fill="none" stroke="#000000" d="M624,25L625,26L625,27L625,28L625,29L625,31L625,32L625,33L625,34L625,36L625,37L625,39L625,41L625,43L625,45L625,47L625,49L625,52L625,54L625,57L625,60L625,63L625,66L625,69L625,73L625,77L625,81L626,85L626,90L626,94L627,98L627,102L628,107L628,111L629,115L629,119L630,124L630,129L630,133L631,137L631,141L631,146L631,150L631,154L631,158L631,163L631,167L631,171L631,175L631,180L631,184L631,188L631,192L631,197L631,202L631,207L630,211L630,216L630,221L629,226L629,231L628,237L628,242L628,247L628,252L628,257L628,262L628,267L628,272L628,276L628,281L627,286L627,291L627,296L627,301L627,306L627,311L627,316L626,320L626,325L626,329L626,334L625,338L625,343L624,348L624,352L623,356L623,361L623,365L622,369L622,374L621,377L621,382L621,386L620,390L620,395L620,400L619,404L619,409L619,413L619,418L619,422L619,426L619,430L619,434L619,438L618,441L618,445L618,449L618,453L618,457L618,461L617,465L617,469L617,473L616,478L616,482L616,486L616,490L616,494L616,499L616,503L616,507L616,512L616,516L616,520L616,525L615,529L615,533L615,537L615,541L615,545L614,549L614,552L614,556L614,559L613,563L613,566L613,569L613,572L612,576L612,579L612,582L612,585L612,588L611,591L611,595L611,598L611,601L611,605L611,608L611,611L611,614L611,618L611,621L611,624L611,627L611,631L611,634L611,638L611,641L611,645L611,649L611,652L611,656L611,660L611,664L611,667L611,671L611,675L611,678L611,682L611,686L611,690L611,693L611,697L611,700L611,704L611,708L612,711L612,715L612,718L612,722L612,725L612,728L612,731L612,734L612,738L612,741L612,744L612,747L612,750L612,754L612,757L612,761L612,764L612,768L612,771L612,775L612,778L612,781L612,785L612,788L612,791L612,795L612,798L612,801L612,804L612,807L612,810L612,813L612,816L612,819L612,821L612,824L612,827L612,829L613,832L613,834L613,836L613,839L613,841L613,843L613,844L613,846L613,847L613,848L613,849L613,850L614,850L615,849L615,845" stroke-opacity="1" stroke-width="1" stroke-linecap="round" stroke-linejoin="round" style="-webkit-tap-highlight-color: rgba(0, 0, 0, 0); stroke-opacity: 1; stroke-linecap: round; stroke-linejoin: round; -webkit-user-select: text;"></path><path fill="none" stroke="#000000" d="M692,21L697,20L697,22L697,23L697,25L697,26L697,27L697,29L698,30L698,32L698,34L698,36L698,38L698,40L698,42L698,45L698,48L698,50L698,53L698,56L698,60L698,63L698,66L698,69L698,72L698,75L698,79L698,82L698,86L698,90L698,94L698,98L698,101L698,105L698,109L698,113L698,116L698,120L698,124L698,128L698,132L698,136L698,141L697,145L697,150L696,154L696,158L696,163L696,167L696,171L696,175L696,179L696,183L696,187L695,190L695,195L695,198L695,202L695,206L695,210L695,214L695,219L695,223L695,227L695,231L695,236L695,241L695,245L695,250L695,254L695,259L695,264L695,269L695,274L695,279L695,284L695,289L695,294L695,299L695,305L695,310L695,315L695,321L695,326L695,331L695,336L695,342L695,348L695,353L694,358L694,364L694,370L694,375L694,381L694,386L693,392L693,398L693,403L693,409L693,414L692,419L692,424L692,429L692,434L692,438L692,443L691,448L691,452L691,457L691,461L691,465L691,470L691,474L691,479L691,484L691,489L691,494L691,498L691,503L691,508L691,512L691,516L691,521L691,525L691,530L691,534L691,538L691,542L691,547L691,551L691,555L691,559L691,563L691,567L691,570L691,574L691,577L691,581L691,584L691,588L691,592L691,596L691,599L691,603L691,607L690,611L690,615L690,619L690,623L690,627L690,631L690,635L690,639L690,643L690,647L690,651L690,655L690,660L690,664L690,668L690,672L690,676L690,680L690,684L690,688L690,692L690,695L690,699L690,702L690,706L690,709L690,712L690,715L690,719L690,722L690,725L690,727L689,730L689,733L689,736L689,739L688,742L688,744L688,747L687,750L687,752L687,755L687,758L686,760L686,763L686,766L686,768L686,771L686,773L686,776L686,778L686,781L686,783L686,785L686,787L686,789L686,791L686,793L686,794L686,796L686,798L686,799L686,801L686,802L686,804L686,805L686,807L685,808L685,810L685,811L685,812L685,814L685,815L685,817L685,818L685,819L685,820L685,821L685,822L685,823L685,824L685,825L685,826L685,827L685,825L685,824" stroke-opacity="1" stroke-width="1" stroke-linecap="round" stroke-linejoin="round" style="-webkit-tap-highlight-color: rgba(0, 0, 0, 0); stroke-opacity: 1; stroke-linecap: round; stroke-linejoin: round; -webkit-user-select: text;"></path><path fill="none" stroke="#000000" d="M49,39L52,40L52,42L52,43L52,45L52,46L52,48L52,50L52,52L52,55L52,57L52,59L52,61L52,63L52,66L52,68L52,71L52,73L53,77L53,80L53,82L53,85L53,87L53,90L54,92L54,94L54,96L54,98L54,100L54,101L54,102L54,103L54,104L54,105L55,105L55,106L55,107L56,107L56,108L57,108L57,109L58,110L59,110L59,111L60,111L62,112L63,112L64,113L65,113L67,114L68,115L69,115L71,115L71,116L73,116L74,117L76,117L77,117L79,118L80,118L82,119L83,119L85,119L86,119L88,120L89,120L91,121L92,121L93,122L95,122L96,122L98,123L100,123L101,124L103,124L105,124L106,125L108,125L109,126L110,126L110,127L111,127L112,127L113,128L114,129L115,129L115,130L116,130L116,131L117,132L117,133L118,134L118,135L119,136L119,137L120,138L120,139L121,141L122,142L122,144L123,145L124,146L125,148L126,149L127,151L127,153L128,155L130,156L130,158L132,160L132,162L134,163L135,166L136,167L137,169L138,171L139,173L140,175L142,176L143,178L144,180L145,182L146,184L147,185L148,187L149,189L150,190L151,192L152,193L152,195L153,196L154,197L155,199L156,200L157,202L157,203L158,205L159,206L160,208L161,209L161,211L163,212L164,214L165,216L166,218L167,220L168,221L169,223L170,225L171,226L172,229L174,230L174,232L176,234L176,235L178,237L178,238L180,240L181,241L182,243L183,245L184,246L185,248L186,250L188,252L188,253L190,255L191,257L192,259L193,260L194,263L195,264L196,266L198,268L198,269L200,271L200,272L202,274L203,275L203,277L205,278L205,280L206,281L208,283L208,284L209,285L210,287L210,288L211,289L212,290L212,291L213,292L214,293L215,294L215,295L216,296L216,297L217,297L218,299L219,300L220,302L221,303L222,304L222,305L223,306L223,307L224,307L224,308L225,308L225,309L226,310" stroke-opacity="1" stroke-width="1" stroke-linecap="round" stroke-linejoin="round" style="-webkit-tap-highlight-color: rgba(0, 0, 0, 0); stroke-opacity: 1; stroke-linecap: round; stroke-linejoin: round; -webkit-user-select: text;"></path><path fill="none" stroke="#000000" d="M208,135L211,139L212,140L212,141L213,142L215,143L215,145L217,146L217,148L219,150L220,152L221,154L222,156L223,158L224,160L225,161L226,163L227,165L228,167L229,168L230,170L231,172L232,173L233,175L234,177L236,179L237,180L238,182L239,183L240,185L241,187L242,188L243,190L244,192L245,194L246,195L247,197L248,200L249,201L251,203L252,205L253,207L254,209L255,211L256,213L258,215L259,218L260,219L261,221L263,224L264,226L265,228L266,230L268,232L269,234L271,236L272,238L273,241L275,243L276,245L277,247L278,249L279,251L280,253L282,255L283,256L284,258L285,260L286,262L287,264L288,266L289,268L290,269L291,271L292,273L293,274L294,276L295,277L296,280L297,281L298,283L300,285L300,287L302,288L302,290L304,292L305,294L306,295L307,297L308,299L309,300L310,302L311,304L312,305L313,307L314,308L315,310L316,311L317,313L318,314L319,315L319,316L320,318L321,319L322,320L323,321L323,323L324,324L325,325L326,326L327,328L328,329L329,331L329,332L330,333L331,334L332,336L333,337L334,338L334,340L335,341L336,343L337,344L337,345L338,346L339,348L340,349L341,350L341,352L342,353L343,355L344,356L345,358L346,359L346,361L348,362L349,365L350,366L351,368L352,370L353,371L353,373L354,375L355,376L356,377L357,379L358,380L358,382L359,384L361,385L361,387L362,389L363,391L364,392L365,394L366,396L367,397L368,399L368,400L369,401L370,402L370,403L371,404L371,405L372,406L373,407L373,408L374,409L375,410L375,411L376,411L377,412" stroke-opacity="1" stroke-width="1" stroke-linecap="round" stroke-linejoin="round" style="-webkit-tap-highlight-color: rgba(0, 0, 0, 0); stroke-opacity: 1; stroke-linecap: round; stroke-linejoin: round; -webkit-user-select: text;"></path><path fill="none" stroke="#000000" d="M332,280L337,278L338,278L339,278L340,279L341,279L342,280L343,280L344,280L344,281L346,281L347,282L348,282L350,283L351,283L352,284L354,284L355,285L356,285L358,285L359,286L361,286L362,287L363,287L365,287L366,288L368,288L369,289L370,289L371,290L373,290L374,290L376,290L378,291L379,291L380,291L382,292L383,292L385,292L386,292L388,293L389,293L391,294L392,294L394,294L396,294L397,294L399,295L400,295L402,296L404,296L405,296L407,296L408,297L409,297L411,297L412,297L414,297L415,298L417,298L418,298L420,299L421,299L423,299L424,299L426,300L427,300L429,300L430,301L431,301L433,301L434,301L435,301L436,302L438,302L439,302L441,302L442,302L443,302L445,303L446,303L448,303L450,304L451,304L453,304L454,304L456,305L457,305L458,305L459,306L460,306L461,307L462,307L463,307L464,307L465,307L466,307L467,307L468,307L469,307L469,306L470,305L471,304L472,303L473,302L474,301L474,300L475,299L475,298L476,297L477,297L478,296L479,295L479,294L480,292L481,292L482,290L483,289L484,287L485,286L485,285L487,283L487,282L489,280L490,279L491,277L492,276L494,274L495,273L496,271L497,270L498,268L499,267L501,265L502,264L503,262L504,261L505,259L507,258L508,256L509,255L511,253L512,252L514,251L515,249L516,248L518,246L519,244L521,243L522,242L523,241L524,239L525,238L526,236L528,235L528,234L530,233L531,231L532,231L533,229L534,229L535,227L536,226L538,225L538,224L540,223L541,222L542,221L543,220L544,219L545,218L546,217L548,215L548,214L550,213L550,212L551,211L553,209L553,208L554,207L555,206L556,205L557,204L558,203L559,202L560,201L561,200L562,199L563,197L565,197L566,195L567,195L568,193L569,192L570,191L571,190L572,189L573,187L574,187L575,185L576,184L577,183L578,182L579,180L580,179L581,178L582,177L583,176L584,175L585,174L586,173L587,173L588,171L589,170L591,169L592,168L592,167L593,166L594,165L595,164L596,163L597,163L597,162L598,161L599,161L599,160L600,159L601,158L602,157L603,156L604,156L604,155L605,154L606,153L607,153L607,152L608,151L608,150" stroke-opacity="1" stroke-width="1" stroke-linecap="round" stroke-linejoin="round" style="-webkit-tap-highlight-color: rgba(0, 0, 0, 0); stroke-opacity: 1; stroke-linecap: round; stroke-linejoin: round; -webkit-user-select: text;"></path><path fill="none" stroke="#000000" d="M743,125L745,128L745,129L744,130L743,132L742,133L741,134L740,135L740,136L739,137L738,138L737,139L736,140L735,141L734,142L733,143L733,144L732,145L730,146L730,147L728,149L727,150L726,151L725,152L724,153L723,155L722,156L720,158L719,159L718,160L717,161L716,163L714,164L713,165L712,166L711,168L710,169L709,170L708,172L708,173L706,175L706,176L704,178L703,179L702,180L701,182L700,183L699,185L697,186L696,187L694,189L693,191L692,192L691,194L689,196L688,197L686,199L685,201L684,202L682,204L681,206L680,207L679,209L677,211L676,212L675,214L674,215L673,217L672,218L670,219L669,220L668,221L667,223L666,224L664,225L663,226L662,228L661,229L660,230L659,231L658,233L657,234L656,235L655,236L654,237L653,238L652,240L650,241L650,242L648,243L647,244L646,246L645,246L644,248L643,248L642,249L641,251L640,251L639,252L638,253L637,255L635,256L634,257L633,258L632,259L631,260L630,261L629,262L628,263L627,264L626,265L625,266L624,267L623,268L622,269L621,270L620,271L619,272L618,273L617,274L616,275L616,276L614,277L613,278L612,279L611,280L611,281L610,282L609,284L608,285L607,286L606,287L606,288L605,289L604,290L604,291L603,292L602,293L601,294L601,295L600,296L599,297L598,298L597,299L597,300L596,301L595,302L594,303L594,304L593,305L592,307L591,309L589,310L589,311L588,312L587,313L586,314L585,316L584,316L584,317L583,319L582,319L582,320L581,321L580,321L580,322L579,323L579,324L578,324L578,325L577,326L577,327L576,327L576,328L575,328L575,329" stroke-opacity="1" stroke-width="1" stroke-linecap="round" stroke-linejoin="round" style="-webkit-tap-highlight-color: rgba(0, 0, 0, 0); stroke-opacity: 1; stroke-linecap: round; stroke-linejoin: round; -webkit-user-select: text;"></path><path fill="none" stroke="#000000" d="M656,358L652,360L652,361L652,362L651,362L650,363L650,364L649,364L648,365L647,366L646,367L645,367L645,368L644,369L643,370L643,371L642,372L641,372L640,373L639,374L638,375L637,376L636,377L635,377L635,379L633,380L633,381L632,382L630,384L630,385L628,386L627,387L626,389L625,390L624,392L623,393L621,394L620,396L619,397L618,398L616,399L616,401L614,402L613,403L612,404L611,406L609,407L608,408L607,409L606,411L604,412L603,413L601,414L600,416L599,417L598,418L596,420L595,421L594,422L593,423L592,425L591,426L589,427L588,428L587,429L586,431L585,432L584,433L583,435L582,436L580,437L579,438L578,440L577,441L576,443L575,444L574,445L572,447L571,448L570,450L569,451L567,452L566,453L565,455L564,456L563,457L562,458L560,460L559,461L558,462L557,463L556,465L555,466L554,467L553,468L552,469L551,470L550,471L549,472L548,473L547,474L546,475L545,477L544,478L543,479L542,480L541,481L540,482L539,483L538,484L537,485L536,486L535,487L533,489L532,489L531,491L530,491L529,493L528,494L527,495L526,496L526,497L525,498L524,499L523,500L521,501L521,503L519,503L518,505L517,506L516,507L515,508L514,509L513,510L512,511L511,512L510,513L509,513L508,514L507,516L506,516L505,517L504,518L503,519L502,520L501,520L500,521L500,522L499,522L498,523L497,523L497,524L496,525L495,525L494,526L493,527L493,528L492,528L492,529L492,530L492,531L491,531L491,532L491,533L491,534L490,534L490,535L490,536L490,537L490,539L490,540L490,541L489,542L489,543L489,544L489,545L489,547L488,548L488,550L488,551L488,553L488,554L488,556L488,557L487,559L487,561L487,562L487,564L487,565L487,567L487,569L487,571L487,572L487,574L487,576L487,578L487,580L487,581L487,583L487,585L487,586L487,588L487,590L487,591L487,593L487,595L487,597L487,599L487,601L487,603L487,604L487,606L486,608L486,609L486,611L486,612L486,614L486,615L486,617L486,619L486,621L486,623L486,625L485,626L485,627L485,629L485,631L485,632L485,633L485,635L485,636L485,637L485,638L485,639L485,640L485,641L485,642L485,643L485,644L485,645L485,646L485,647L485,648L485,649L485,650L485,651L485,652L483,651" stroke-opacity="1" stroke-width="1" stroke-linecap="round" stroke-linejoin="round" style="-webkit-tap-highlight-color: rgba(0, 0, 0, 0); stroke-opacity: 1; stroke-linecap: round; stroke-linejoin: round; -webkit-user-select: text;"></path><path fill="none" stroke="#000000" d="M467,650L464,652L463,652L462,652L461,652L460,652L459,652L458,652L457,652L455,652L454,652L453,652L452,652L451,652L450,652L448,652L447,652L446,652L445,653L443,653L442,653L441,653L440,653L438,653L437,653L436,653L434,653L432,653L431,653L429,653L427,653L425,653L424,653L422,653L420,653L419,654L417,654L415,654L413,654L411,654L409,654L407,654L404,654L402,654L400,654L397,654L395,654L392,654L389,654L387,655L385,655L382,655L380,655L377,655L375,655L373,655L370,655L368,655L366,655L363,655L361,655L358,655L356,655L353,655L351,655L348,655L346,655L343,655L341,655L338,655L336,655L334,655L332,655L330,655L328,655L326,655L324,655L322,655L320,655L318,655L317,655L314,655L313,655L311,655L310,655L308,655L307,655L305,655L304,655L302,655L301,655L300,655L298,655L296,655L295,655L293,655L292,655L291,655L290,655L288,655L287,655L285,655L284,655L283,655L282,655L280,655L278,655L276,655L275,655L273,655L273,656L271,656L270,656L269,656L268,656L267,656L266,656L265,656L264,656L263,656L262,656L261,656L260,656L259,656L258,656L258,655L258,654L257,654L257,653L257,652L257,651L257,650L257,649L257,648L257,647L257,645L257,644L257,642L257,641L257,639L257,637L257,636L257,634L257,632L257,630L257,628L257,626L257,625L257,623L257,620L257,618L257,615L257,613L257,611L257,608L257,606L257,604L257,602L257,599L257,596L257,593L257,591L257,587L257,585L257,582L256,579L256,576L256,573L256,571L256,568L256,565L256,562L256,559L255,557L255,554L255,551L255,548L255,545L255,542L255,540L255,537L255,534L255,531L255,528L255,526L255,523L255,520L255,518L255,516L255,513L255,511L255,509L255,507L255,505L255,503L255,501L255,500L255,498L255,496L255,494L255,493L255,491L255,489L255,487L255,486L255,484L255,482L255,481L255,479L255,478L255,477L255,475L255,474L255,473L255,472L255,470L255,469L255,468L255,467L255,466L255,465L255,464L255,463L255,462L255,461L255,460" stroke-opacity="1" stroke-width="1" stroke-linecap="round" stroke-linejoin="round" style="-webkit-tap-highlight-color: rgba(0, 0, 0, 0); stroke-opacity: 1; stroke-linecap: round; stroke-linejoin: round; -webkit-user-select: text;"></path><path fill="none" stroke="#000000" d="M246,366L255,371L256,372L257,373L259,375L259,376L261,377L262,378L263,379L264,381L265,382L266,384L267,385L268,387L269,388L270,390L271,392L272,393L273,395L274,396L276,398L277,399L278,401L279,403L280,404L282,406L283,408L284,409L285,411L287,413L288,414L289,416L290,418L291,420L293,421L294,423L295,424L296,426L297,427L298,428L300,430L301,432L302,433L303,435L304,436L305,438L307,440L308,442L309,443L310,445L312,447L313,449L315,450L316,452L317,454L319,455L321,457L322,459L324,461L325,462L327,464L329,466L330,468L331,469L333,471L334,473L336,474L338,476L339,478L341,479L342,480L343,482L344,483L346,485L347,486L348,488L350,489L351,491L352,492L353,494L354,494L356,496L356,497L358,498L358,499L360,501L361,501L362,503L363,504L363,505L365,506L366,507L366,508L367,509L368,510L369,511L370,512L370,513L371,514L373,515L373,516L374,518L375,518L376,520L377,520L378,522L379,523L380,524L380,525L381,526L382,527L383,528L384,530L385,531L386,532L387,533L388,534L390,535L390,536L391,537L392,538L393,539L394,540L395,541L395,542L396,543L397,544L397,545L398,545L399,546L400,547L401,548L402,549L402,550L403,550L404,551L404,552L405,552L405,553L406,554L407,554L407,555L408,556L409,557L409,558L410,558L410,559L411,559L411,560L412,563" stroke-opacity="1" stroke-width="1" stroke-linecap="round" stroke-linejoin="round" style="-webkit-tap-highlight-color: rgba(0, 0, 0, 0); stroke-opacity: 1; stroke-linecap: round; stroke-linejoin: round; -webkit-user-select: text;"></path><path fill="none" stroke="#000000" d="M423,598L420,602L420,603L420,604L420,605L420,606L420,607L420,608L420,609L420,610L419,611L419,613L419,615L418,616L418,617L418,618L417,620L417,621L417,622L416,624L416,625L415,626L415,628L414,629L414,631L414,632L414,633L413,635L413,636L413,637L413,639L412,640L412,642L412,643L412,644L412,646L412,647L411,649L411,650L411,651L411,652L411,654L411,655L410,656L410,657L410,659L410,660L410,661L410,662L410,664L410,665L409,666L409,667L409,669L409,670L409,671L409,673L409,674L409,676L409,678L409,679L409,681L409,682L409,683L409,685L409,687L409,688L408,690L408,692L408,693L408,695L408,698L408,699L408,701L407,703L407,705L407,706L407,708L407,710L407,711L407,712L407,714L407,715L407,717L407,719L407,720L407,722L407,724L407,725L407,727L407,729L407,730L407,732L407,733L407,734L407,736L407,737L407,739L407,740L407,742L407,743L407,744L407,746L407,747L407,749L407,751L407,752L407,753L407,754L408,754L409,754L410,754L411,754L412,754L413,754L414,754L415,754L416,754L417,754L418,754L419,755L420,755L421,755L422,755L423,755L424,755L425,755L426,755L428,755L429,755L430,756L431,756L433,756L434,756L436,756L437,756L438,756L440,756L441,757L443,757L444,757L446,757L448,757L450,758L451,758L453,758L455,758L456,759L458,759L460,759L461,759L463,759L465,759L466,760L468,760L469,760L470,760L472,760L474,761L475,761L477,761L478,761L480,761L481,761L482,761L484,761L485,762L487,762L488,762L490,762L491,763L493,763L494,763L496,763L497,763L499,764L500,764L502,764L504,764L505,764L507,764L509,764L510,764L511,765L513,765L514,765L516,765L517,766L519,766L520,766L521,766L522,766L524,766L525,767L526,767L528,767L529,767L531,767L532,767L533,768L535,768L536,768L538,768L539,768L541,768L542,768L543,769L545,769L547,770L548,770L550,770L551,770L553,771L554,771L555,771L556,771L558,771L559,771L560,772L561,772L562,772L563,772L565,772L565,773L567,773L568,773L569,773L570,773L571,773L572,773L573,774L574,774L575,774L576,774L577,774L578,775L579,775L580,775L581,775L582,775L583,776L584,776L585,776L586,776L587,776L588,776L589,776L590,776" stroke-opacity="1" stroke-width="1" stroke-linecap="round" stroke-linejoin="round" style="-webkit-tap-highlight-color: rgba(0, 0, 0, 0); stroke-opacity: 1; stroke-linecap: round; stroke-linejoin: round; -webkit-user-select: text;"></path><path fill="none" stroke="#000000" d="M703,674L700,676L699,676L698,677L697,678L696,678L695,679L694,680L693,680L692,681L691,681L689,682L689,683L688,683L687,683L686,684L685,684L684,685L683,685L682,686L680,687L679,687L678,688L677,688L675,689L674,690L673,690L671,691L670,691L669,692L667,693L666,693L664,694L663,694L662,695L661,695L660,696L659,697L658,697L657,698L656,698L655,699L654,700L652,700L651,701L650,701L650,702L648,703L647,703L645,705L644,705L643,705L642,706L641,706L640,707L639,708L638,708L637,708L636,709L635,710L632,710L631,711L630,712L629,712L628,713L626,713L626,714L624,715L623,715L622,715L621,716L620,717L618,717L617,718L616,718L615,719L614,720L613,720L611,721L610,721L609,722L608,722L606,723L605,724L604,725L603,725L601,726L600,726L599,727L598,728L596,728L596,729L594,729L594,730L592,730L592,731L590,732L589,732L588,732L587,733L586,734L585,734L584,734L583,735L582,735L580,736L579,737L578,737L577,737L576,738L575,738L574,739L572,739L571,740L570,740L569,741L568,741L567,742L566,742L565,743L563,744L562,744L561,745L560,745L558,746L557,747L555,748L554,749L553,749L552,750L550,751L549,751L548,752L546,753L545,754L544,755L543,756L542,756L541,757L539,758L538,758L537,759L536,760L534,761L532,761L531,762L529,763L528,764L526,765L524,765L523,766L521,767L520,767L519,768L517,769L516,769L515,770L514,771L512,771L511,772L510,773L509,773L507,774L506,775L505,776L504,776L502,777L501,777L500,778L499,778L497,779L496,780L494,781L493,781L492,782L490,783L489,783L488,784L487,785L486,785L485,786L484,787L482,788L480,788L480,789L478,790L477,790L476,791L475,791L475,792L474,793L472,793L471,794L470,794L469,795L468,795L467,796L466,796L465,797L464,797L463,798L462,798L461,798L460,798" stroke-opacity="1" stroke-width="1" stroke-linecap="round" stroke-linejoin="round" style="-webkit-tap-highlight-color: rgba(0, 0, 0, 0); stroke-opacity: 1; stroke-linecap: round; stroke-linejoin: round; -webkit-user-select: text;"></path><path fill="none" stroke="#000000" d="M357,789L353,790L352,790L351,790L350,790L349,791L347,791L346,792L344,792L342,793L341,793L339,793L337,794L336,794L335,795L333,795L332,795L331,796L329,796L327,797L326,797L324,798L322,798L321,798L319,798L317,799L315,799L314,799L312,800L310,800L308,800L306,801L305,801L303,802L301,802L299,802L298,803L295,803L293,804L291,804L289,805L287,805L285,806L283,806L282,807L280,807L278,808L276,808L275,809L273,810L271,810L269,810L267,811L266,811L263,812L262,812L260,812L258,813L256,813L254,814L253,814L251,815L250,815L248,815L246,815L245,816L243,816L242,816L240,817L238,817L236,817L234,817L233,817L231,818L229,818L228,818L227,819L225,819L224,819L222,819L221,820L220,820L218,821L217,821L215,821L214,822L212,822L211,822L210,823L208,823L207,823L205,823L204,824L203,824L201,824L199,825L198,825L196,826L195,826L193,827L191,827L189,827L188,827L186,828L184,828L182,828L181,829L179,829L178,829L176,829L175,829L174,829L172,830L171,830L169,830L168,831L167,831L166,831L164,831L163,832L161,832L160,832L159,832L158,832L157,832L156,833L155,833L154,833L153,833L152,833" stroke-opacity="1" stroke-width="1" stroke-linecap="round" stroke-linejoin="round" style="-webkit-tap-highlight-color: rgba(0, 0, 0, 0); stroke-opacity: 1; stroke-linecap: round; stroke-linejoin: round; -webkit-user-select: text;"></path><path fill="none" stroke="#000000" d="M126,810L126,806L126,805L126,804L126,803L126,802L126,801L126,800L126,798L126,797L126,796L126,795L126,793L126,792L126,791L126,789L126,788L126,786L126,785L126,783L126,781L126,780L126,778L126,776L126,774L126,773L126,771L126,769L126,767L126,765L125,763L125,761L125,759L125,756L125,754L125,751L125,749L124,747L124,744L124,742L124,740L124,738L124,735L124,733L124,731L123,729L123,727L123,725L123,722L123,720L123,718L123,716L123,714L123,712L123,710L123,709L123,706L122,705L122,702L122,700L122,698L122,696L122,693L122,691L122,689L122,687L122,685L122,683L122,681L122,679L122,677L122,675L122,673L122,671L122,669L122,667L122,666L122,664L122,662L122,661L122,659L122,657L122,656L122,654L122,652L122,651L122,649L122,647L122,646L122,644L122,642L122,641L122,640L122,638L122,637L122,636L122,635L122,634L122,632L122,631L122,630L122,629L122,627L123,625L123,624L123,623L123,621L123,620L123,619L123,618L123,616L124,615L124,613L124,612L124,611L124,610L124,609L124,608L124,607L124,606L124,605L124,604L124,603L124,602L124,601L124,600L124,599L124,598L124,597L124,596L124,595L124,594L124,593L124,592L124,591L124,590L124,589L125,588" stroke-opacity="1" stroke-width="1" stroke-linecap="round" stroke-linejoin="round" style="-webkit-tap-highlight-color: rgba(0, 0, 0, 0); stroke-opacity: 1; stroke-linecap: round; stroke-linejoin: round; -webkit-user-select: text;"></path><path fill="none" stroke="#000000" d="M131,556L132,552L133,551L133,550L134,550L135,549L135,548L136,547L137,546L137,545L138,544L139,543L140,542L142,540L142,539L144,538L145,537L147,535L148,534L149,533L150,531L152,530L154,528L155,526L157,525L159,523L160,522L161,520L163,518L165,517L166,515L168,513L170,512L171,511L173,509L174,508L176,506L178,505L179,503L181,501L183,500L184,499L186,497L188,496L189,494L191,492L192,491L194,489L195,488L197,486L198,485L200,484L201,482L203,481L204,480L205,479L207,477L208,476L210,474L211,473L212,472L214,471L215,469L216,468L217,467L219,466L220,465L221,463L222,462L224,461L225,460L226,459L227,458L227,457L228,457L229,456L229,455L230,455L231,454L232,453L233,452L234,452L234,451L235,450L236,450L237,449L237,448L238,448L238,447L239,447L239,446L240,445L241,444L242,444L242,443L243,443L243,442L244,442L244,441L245,441L246,440L247,439L248,439L250,438L251,437" stroke-opacity="1" stroke-width="1" stroke-linecap="round" stroke-linejoin="round" style="-webkit-tap-highlight-color: rgba(0, 0, 0, 0); stroke-opacity: 1; stroke-linecap: round; stroke-linejoin: round; -webkit-user-select: text;"></path><path fill="none" stroke="#000000" d="M293,396L300,390L301,389L302,388L303,387L304,387L305,385L306,384L307,383L308,382L310,381L311,380L312,379L313,378L314,377L315,377L316,376L317,375L318,374L319,373L320,372L321,371L322,370L324,369L324,368L326,367L327,366L328,365L329,364L330,362L331,361L333,360L334,358L336,357L337,355L338,355L339,353L341,352L342,350L343,349L344,348L346,347L347,345L349,344L351,343L352,341L354,340L356,338L357,336L359,335L361,333L363,332L365,330L367,328L369,326L372,325L374,323L377,322L379,320L381,319L383,316L385,315L388,313L390,311L392,309L395,307L397,304L399,303L401,301L403,299L405,298L407,296L410,294L412,293L414,291L417,290L419,288L420,286L422,285L424,283L426,281L428,280L430,278L431,276L433,275L435,273L436,272L438,270L439,269L441,268L443,266L444,265L446,263L447,261L449,260L451,258L452,256L454,255L456,253L458,251L459,250L460,248L462,246L464,245L465,243L467,241L468,240L470,238L471,237L472,235L473,234L474,232L475,231L476,230L477,229L478,228L479,227L480,226L481,225L482,224L482,223L483,222L484,222L485,221L485,220L486,219L487,218L487,217L488,217L489,216L489,215L490,214L490,213L491,213L491,212L492,212L492,211L493,211" stroke-opacity="1" stroke-width="1" stroke-linecap="round" stroke-linejoin="round" style="-webkit-tap-highlight-color: rgba(0, 0, 0, 0); stroke-opacity: 1; stroke-linecap: round; stroke-linejoin: round; -webkit-user-select: text;"></path><path fill="none" stroke="#000000" d="M502,186L497,188L496,188L494,188L493,188L492,189L491,189L490,190L488,190L487,190L485,191L484,191L482,192L480,192L479,193L477,194L476,194L474,195L472,196L471,197L470,197L468,198L466,199L464,200L462,202L460,202L457,204L455,204L452,206L450,207L447,208L445,209L442,210L440,210L437,211L435,212L432,212L430,213L427,214L425,214L424,215L421,215L419,216L417,217L415,217L413,218L411,219L409,219L408,220L406,221L404,221L402,222L400,223L399,223L397,224L395,224L394,224L392,225L391,225L389,226L387,226L386,226L385,227L383,227L382,228L381,228L380,229L378,229L376,229L375,230L374,230L373,230L372,231L371,231L370,231L369,232L368,232L367,233L366,233L365,234L364,234L363,234L362,235L361,235L361,236L360,236L359,236L358,236L357,236L356,237L355,237L354,237L354,238L353,238L352,238L351,238L350,239L349,239L348,239L348,240L347,240L346,240L345,240L344,240L344,239L343,238L343,237L343,236L342,236L342,235L342,234L341,233L341,232L341,231L341,230L341,229L340,228L340,227L340,226L339,225L339,224L339,223L339,222L338,221L338,220L338,219L337,217L336,215L336,214L336,213L336,212L335,211L335,209L335,208L334,207L334,205L334,203L334,202L333,200L333,198L333,197L332,195L332,194L331,192L331,191L331,189L330,187L330,186L329,185L329,183L329,181L328,179L328,177L327,175L327,173L326,172L326,170L325,168L324,166L324,164L323,162L322,160L322,158L321,156L321,154L320,152L319,151L319,149L318,147L317,146L317,144L316,142L315,141L315,139L314,138L314,136L313,134L313,133L312,131L312,129L312,127L312,126L311,124L311,122L310,121L310,119L310,118L309,116L309,115L309,113L308,112L308,110L307,109L307,107L307,106L306,105L306,103L305,101L305,99L305,98L304,96L304,94L303,93L303,91L302,90L302,88L302,87L301,85L301,83L300,81L300,80L299,78L299,76L298,74L298,72L298,71L297,69L297,67L296,66L295,64L295,63L295,61L294,60L294,58L293,56L293,54L293,53L292,51L291,49L291,48L290,46L290,44L289,43L289,42L288,40L288,39L288,38L287,37L287,35L286,34L286,33L285,32L285,30L285,29L285,27L284,26L283,24" stroke-opacity="1" stroke-width="1" stroke-linecap="round" stroke-linejoin="round" style="-webkit-tap-highlight-color: rgba(0, 0, 0, 0); stroke-opacity: 1; stroke-linecap: round; stroke-linejoin: round; -webkit-user-select: text;"></path></svg>