<svg height="906" version="1.1" width="768" xmlns="http://www.w3.org/2000/svg" xmlns:xlink="http://www.w3.org/1999/xlink" style="overflow: hidden; position: relative; -webkit-user-select: text;"><desc style="-webkit-tap-highlight-color: rgba(0, 0, 0, 0); -webkit-user-select: text;">Created with Raphaël 2.2.0</desc><defs style="-webkit-tap-highlight-color: rgba(0, 0, 0, 0); -webkit-user-select: text;"></defs><path fill="none" stroke="#000000" d="M85,73L92,71L95,71L98,71L102,71L106,71L111,70L117,70L122,70L129,69L135,69L141,69L148,69L155,69L163,69L170,69L178,69L186,69L193,69L200,69L208,69L216,69L223,70L231,71L240,71L247,71L255,72L266,73L273,73L283,74L292,75L300,76L310,76L320,77L329,78L339,78L349,79L357,79L367,80L374,80L383,81L392,81L400,81L406,81L411,81L416,81L419,80L422,78L424,77L425,76L425,75L425,74L425,73L422,73L419,73L415,73L411,72L406,72L400,72L395,72L390,72L385,71L380,71L374,71L369,71L364,71L359,71L354,71L349,71L344,71L339,71L333,71L327,72L321,72L314,73L308,73L302,73L295,74L288,74L283,74L276,74L271,75L265,75L259,76L254,76L249,76L244,77L238,77L233,78L228,78L223,78L218,79L213,79L208,79L203,79L199,80L195,80L190,80L186,80L182,80L178,80L175,80L172,80L170,80L167,80L164,80L162,80L159,80L157,80L156,79L154,79L152,78L151,77L150,76L149,76L149,74L149,73L149,72L149,71L149,69L152,68L156,68L161,68L167,68L173,68L181,68L190,68L196,68L204,69L213,70L220,71L229,72L238,72L246,73L256,74L265,75L274,76L283,77L292,78L300,79L309,80L318,80L327,81L336,82L346,83L354,83L363,84L373,85L381,85L391,85L400,86L408,86L418,87L427,87L434,87L444,87L451,87L458,87L464,87L469,87L472,86L475,85L475,84L475,83L473,83L468,82L462,81L455,80L447,80L439,80L431,80L424,80L416,80L409,80L403,80L396,80L390,80L385,81L379,83L373,83L367,85L361,85L356,86L350,87L343,88L337,88L331,88L325,89L318,90L312,90L307,90L301,91L297,92L292,92L287,93L282,93L278,94L273,95L269,95L264,96L261,96L256,97L253,97L249,97L245,98L242,98L238,98L235,98L232,98L230,98L227,98L225,98L224,98L222,98L220,98L218,98L216,98L215,98L213,97L211,96L210,95L209,93L208,91L208,89L208,87L210,85L215,84L220,82L227,81L234,81L242,81L251,81L260,81L270,81L279,81L289,82L299,83L309,84L319,85L329,86L341,87L352,88L363,90L375,91L387,92L400,94L412,95L424,97L436,99L448,100L458,101L469,102L480,103L489,103L497,104L504,104L509,104L514,104L516,104L518,103L518,101L518,99L513,97L505,95L496,94L487,93L476,93L466,93L456,93L446,93L439,93L429,93L420,93L411,93L401,95L391,96L381,98L370,99L360,100L349,100L338,100L327,101L317,101L306,102L295,102L285,102L276,103L267,103L260,104L253,104L246,104L243,104L241,104L243,102L251,99L260,97L270,95L281,95L294,95L304,95L317,96L328,98L339,100L349,102L358,103L369,105L378,106L388,107L400,109L409,111L421,112L431,113L443,115L454,117L464,118L477,119L486,120L497,121L507,122L514,122L522,122L528,122L533,122L538,122L543,122L545,122L547,121L547,119L547,118L544,116L537,113L529,111L520,109L510,108L501,107L493,107L485,107L476,107L468,107L460,107L450,107L441,108L434,108L424,109L416,109L407,110L397,110L387,110L378,110L369,111L361,111L352,111L343,111L336,111L327,112L318,112L311,112L303,113L295,114L286,114L279,115L271,115L263,116L256,117L248,117L241,118L234,118L229,119L222,119L217,120L212,120L207,121L203,121L198,122L194,122L189,122L185,122L181,122L177,122L173,122L169,122L165,122L161,122L157,122L153,122L149,122L146,121L144,119L141,118L139,117L137,115L137,114L137,112L137,110L139,108L144,107L149,105L155,105L162,105L171,105L179,105L189,105L198,106L208,107L217,108L227,110L237,112L246,113L256,115L266,117L276,119L285,121L295,122L303,124L312,125L320,127L327,128L334,129L341,129L346,129L351,130L356,130L358,130L360,130L361,130L361,129L360,127L355,126L348,124L339,123L330,122L319,122L308,121L297,121L286,121L275,121L263,121L253,121L242,121L232,121L223,121L214,122L205,124L197,125L188,126L179,127L172,127L163,127L154,127L148,127L139,127L133,125L129,122L126,121L125,119L125,117L125,116L127,115L133,114L142,114L151,114L161,114L171,114L183,116L194,117L203,119L215,121L224,123L234,125L246,127L256,129L267,130L277,132L288,134L299,136L307,137L320,139L329,140L342,141L352,141L365,142L375,143L385,144L396,144L406,145L417,145L427,145L438,145L451,145L462,145L472,144L478,143L481,141L482,141L482,139L480,138L474,137L465,136L455,136L445,135L435,135L426,134L416,134L407,134L398,134L389,134L380,134L371,135L362,135L353,136L341,138L333,139L322,141L313,142L305,143L296,144L287,145L279,145L270,146L262,146L255,146L250,146L245,146L241,146L239,144L239,141L239,138L239,135L245,132L253,128L264,125L275,123L288,122L300,121L313,121L326,121L338,122L351,123L363,125L374,128L385,130L395,132L407,135L418,136L430,138L441,139L454,141L466,142L479,143L489,143L500,144L510,144L519,144L527,144L533,144L537,144L539,143L540,142L540,141L539,139L532,138L524,136L514,135L503,134L492,134L482,134L472,134L463,134L453,134L444,134L437,134L427,134L418,134L409,134L400,134L391,134L383,134L373,134L364,134L358,134L349,134L342,133L336,132L330,130L325,128L321,127L319,124L318,122L318,119L319,115L325,113L331,111L341,110L351,110L361,110L374,111L386,113L399,115L410,117L421,119L430,120L441,122L451,123L461,124L472,126L482,127L491,128L500,129L509,130L516,132L523,132L531,134L538,135L545,136L554,137L561,138L568,139L576,141L583,142L590,143L598,144L604,145L611,146L618,147L624,148L630,149L635,149L640,149L646,150L651,150L655,150L660,150L664,150L669,150L673,150L677,150L681,150L684,150L687,149L690,148L691,146L692,145L692,144L692,142L691,140L685,138L679,136L672,134L665,133L657,133L647,133L638,133L630,133L622,133L614,133L606,133L597,133L589,133L579,134L571,134L562,135L553,135L543,136L534,136L524,137L515,138L507,138L497,139L488,140L479,140L470,141L462,142L453,143L446,143L438,144L429,144L422,145L415,146L408,146L402,147L396,148L391,149L386,149L382,149L378,149L373,150L370,150L366,150L363,150L360,150L357,150L355,150L353,150L351,150L350,149L349,148L349,146L349,145L349,143L349,141L349,139L349,136L351,134L355,132L358,129L362,128L367,127L373,127L379,127L386,127L395,127L403,127L412,127L420,127L428,129L434,130L441,131L448,132L455,134L460,136L466,137L472,138L480,140L486,141L495,143L503,144L509,145L518,147L526,149L533,151L541,153L549,154L556,156L564,158L570,159L577,161L583,162L588,163L593,164L599,165L604,166L608,166L613,166L616,167L621,167L625,167L628,167L631,167L633,166L633,164L633,162L633,160L630,157L625,155L619,153L612,151L604,150L597,149L590,149L582,149L575,149L569,149L562,149L556,150L550,151L544,153L537,154L529,156L521,157L514,158L504,158L494,158L486,159L476,159L467,160L457,160L447,161L438,161L429,161L419,162L412,162L405,162L398,162L392,162L388,162L385,161L384,160L384,159L384,157L388,155L396,153L404,151L412,150L422,149L431,149L441,149L451,149L460,150L470,152L480,153L489,156L498,157L507,159L515,161L524,163L532,165L540,166L549,168L558,170L567,172L576,173L585,175L593,176L601,178L609,178L616,179L623,180L630,180L635,180L641,180L646,180L650,180L653,180L655,179L656,178L656,176L656,175L654,173L649,172L642,170L633,169L626,168L619,168L611,167L604,167L597,167L591,167L583,167L576,167L569,167L562,167L555,167L548,167L541,167L534,167L526,167L519,167L512,167L504,166L497,166L490,166L483,165L476,165L469,165L463,165L456,165L449,165L442,165L436,165L429,165L422,165L417,165L412,166L405,166L400,167L394,167L389,168L383,168L378,169L373,169L367,170L362,170L357,170L351,171L346,171L340,172L335,172L329,172L324,172L319,172L314,172L310,172L305,172L301,172L298,172L294,172L290,171L287,170L284,169L282,168L280,166L278,163L277,161L277,158L277,156L277,153L279,151L283,149L289,149L295,149L301,149L310,149L318,149L326,149L334,151L342,152L350,153L356,155L365,156L373,158L379,159L387,161L395,163L402,164L408,166L417,168L424,169L431,170L438,172L444,173L451,174L456,175L461,176L466,177L472,177L477,178L482,178L486,178L490,178L492,178L492,176L492,175L487,173L480,171L472,170L465,169L455,168L446,168L437,168L428,168L419,168L411,168L402,168L394,168L387,168L379,168L370,168L363,168L356,168L348,168L339,169L333,170L324,171L316,173L307,174L299,175L290,176L282,178L273,178L263,179L254,180L245,180L236,180L229,180L221,180L214,180L208,178L204,177L200,175L199,173L198,170L198,168L198,165L201,162L206,160L212,158L219,157L227,156L236,156L252,156L260,157L268,159L276,161L283,163L290,166L298,168L305,170L313,171L322,173L329,174L338,175L347,175L354,176L361,176L368,177L373,177L378,177L382,177L384,177L386,177L386,175L386,172L383,169L376,166L369,162L363,161L355,158L346,157L339,156L331,155L322,154L315,153L307,153L300,153L292,153L284,152L277,152L270,152L263,152L256,151L250,151L243,151L236,151L231,151L225,151L218,151L212,151L206,151L201,150L195,150L191,150L185,150L181,149L176,149L173,149L169,149L165,149L161,149L157,149L153,149L149,149L145,149L141,149L137,149L133,149L129,148L126,148L122,148L119,148L116,147L113,147L110,146L106,146L103,145L101,144L99,143L97,141L95,139L94,137L93,134L93,131L93,128L93,124L96,121L100,119L106,118L113,118L121,118L130,119L139,120L149,123L159,126L168,128L178,130L190,133L199,135L210,137L219,139L228,142L239,144L250,147L260,149L271,151L279,153L289,155L299,156L308,157L318,157L325,158L333,158L340,158L344,157L347,156L347,154L347,151L341,149L334,146L327,144L317,142L310,142L300,142L291,142L284,142L275,142L266,142L259,143L250,144L242,145L234,146L225,148L216,149L207,150L199,151L191,152L182,152L175,153L165,154L157,154L150,155L142,155L135,156L130,156L124,156L118,156L114,156L110,156L106,156L105,156L103,155L103,153L104,150L112,144L121,139L129,136L138,135L147,135L155,135L164,135L172,137L181,139L190,142L199,145L211,148L222,150L235,152L247,154L260,156L273,158L286,160L298,162L310,163L322,165L331,166L341,168L350,169L357,169L364,170L372,170L378,170L382,170L385,170L385,169L385,167L379,164L369,162L359,161L348,159L337,159L326,159L315,159L305,159L296,159L287,159L280,159L271,161L263,162L256,163L249,165L241,167L234,168L227,169L220,170L212,170L206,171L200,172L194,172L188,173L183,173L178,174L174,174L169,175L165,175L161,175L157,175L153,176L149,176L146,176L143,176L139,176L137,176L134,176L131,176L127,176L124,176L121,176L119,176L116,176L114,176L111,176L109,176L107,176L105,176L105,175L104,174L104,173L104,170L110,166L116,161L121,159L128,157L135,157L142,157L148,157L157,157L165,158L172,160L181,161L189,163L198,166L210,168L221,170L232,172L244,175L256,177L268,179L280,181L292,183L303,185L315,187L326,190L337,192L348,194L357,195L366,197L375,197L382,198L387,198L390,198L392,197L392,194L388,190L382,187L373,184L364,182L353,180L341,178L331,178L320,178L309,178L298,178L287,178L277,178L265,180L255,181L244,182L232,184L222,185L210,187L200,188L189,190L179,191L170,192L161,192L154,193L149,193L142,193L138,193L134,193L132,192L131,190L131,188L131,186L133,184L139,181L145,180L152,179L162,178L171,178L180,178L190,178L199,179L210,180L219,183L229,185L240,187L248,190L258,192L269,195L278,197L290,200L302,202L316,204L329,207L343,209L356,211L369,213L382,215L395,217L407,218L417,218L427,219L433,219L437,219L439,219L440,217L440,214L437,212L431,209L422,206L413,204L401,201L389,200L379,199L366,198L356,198L346,198L336,198L329,198L320,198L313,199L306,201L298,202L283,205L275,206L266,207L259,207L251,208L244,208L236,208L231,209L225,209L219,209L214,209L209,209L205,209L202,209L198,209L195,209L192,209L189,209L187,209L184,208L182,207L179,207L178,206L176,205L174,204L173,203L172,202L171,201L171,200L171,198L171,197L171,195L171,193L175,190L182,188L189,186L197,185L207,184L217,183L228,183L241,183L251,183L263,183L273,183L284,184L295,184L305,185L316,186L326,187L336,188L346,189L356,190L366,191L375,192L384,194L394,195L404,196L415,197L425,199L436,200L446,200L457,201L468,202L478,202L487,203L496,203L503,203L509,203L513,202L515,199L516,197L516,195L516,192L513,190L506,187L498,185L489,183L480,182L470,182L460,182L450,182L440,182L431,182L421,182L412,183L403,183L393,184L383,185L373,186L362,187L349,187L336,188L324,188L312,188L302,188L290,188L280,188L271,187L261,186L254,185L249,183L246,181L244,179L244,177L246,174L253,171L263,168L272,168L283,168L295,168L306,168L319,170L331,172L343,174L354,177L365,179L375,182L384,184L395,187L405,189L415,192L426,194L435,196L447,198L456,200L466,202L477,204L488,207L499,208L508,210L517,212L526,213L534,213L541,214L548,214L553,214L558,214L560,214L562,213L562,211L562,209L562,207L557,204L550,200L543,197L533,194L524,192L514,190L504,190L495,190L486,190L476,190L466,190L457,190L448,190L439,190L431,191L421,192L413,193L404,193L395,194L388,194L380,194L372,194L364,194L357,194L350,194L344,194L337,194L332,194L326,194L320,194L314,194L309,194L304,194L299,194L293,194L288,194L283,194L278,194L273,194L268,194L263,193L259,192L255,191L252,189L250,188L248,186L248,184L248,183L248,181L249,178L256,175L265,173L274,171L283,170L294,170L305,170L319,170L331,170L345,172L358,173L370,175L383,177L395,179L407,180L419,182L430,184L441,186L452,188L461,189L472,191L482,193L491,195L501,196L510,198L519,199L528,200L536,201L543,201L551,202L558,202L564,202L570,202L575,200L579,198L580,195L581,192L581,190L581,188L576,185L571,184L563,181L555,180L546,179L537,178L527,178L517,178L507,178L497,178L487,178L477,178L466,178L456,178L445,178L434,178L424,178L414,177L404,175L396,172L391,170L389,167L388,165L388,163L391,161L397,160L404,160L414,160L423,160L434,162L445,166L455,169L465,172L476,176L486,179L497,182L507,185L516,189L526,192L536,195L547,198L558,201L569,203L580,205L591,207L601,208L611,210L621,212L630,212L639,213L646,214L654,214L659,214L662,214L664,214L665,213L665,212L665,211L662,209L655,207L646,205L636,204L626,202L615,202L604,202L594,202L582,202L572,202L561,202L551,203L541,204L529,207L518,209L507,211L496,214L487,216L474,219L463,221L451,223L441,224L431,226L419,227L409,227L398,228L388,228L379,228L371,226L362,221L359,216L360,215L365,213L373,212L380,212L390,211L400,211L410,211L421,211L431,212L443,214L453,216L461,218L470,221L480,223L488,226L498,228L507,231L516,232L526,234L535,236L544,238L553,239L562,241L573,242L583,244L592,245L601,246L610,247L617,248L624,248L631,248L638,248L642,248L645,247L646,246L646,244L646,242L646,240L642,238L635,235L627,232L618,230L608,229L598,227L588,226L577,226L568,226L558,226L548,226L541,226L531,226L523,226L516,227L507,227L497,228L489,228L479,229L469,229L459,229L449,229L439,229L430,229L421,229L414,229L406,229L398,229L390,229L383,229L376,229L368,229L362,229L355,229L347,229L340,229L333,229L325,228L317,228L310,227L303,227L295,226L288,226L282,225L275,225L268,224L262,223L257,221L253,220L249,219L245,217L242,215L242,213L242,212L242,210L242,208L245,207L251,205L257,203L264,202L272,202L281,202L290,202L299,204L307,207L316,209L324,213L331,216L339,220L346,223L354,226L362,229L371,232L380,235L390,238L401,241L409,243L419,245L428,247L434,248L441,249L447,250L451,250L454,250L455,249L455,247L455,243L451,239L443,235L435,232L426,229L416,227L404,225L392,224L380,223L367,223L354,222L341,222L331,222L318,222L308,222L297,222L286,222L275,222L261,222L250,223L237,224L227,224L214,225L203,226L192,226L181,227L171,227L161,227L154,227L148,226L143,224L139,222L137,220L136,218L136,216L136,214L137,213L142,211L147,210L154,209L164,209L173,209L181,209L191,209L200,212L212,215L222,218L234,221L246,224L259,228L272,230L284,232L297,234L308,236L320,237L329,238L338,239L346,240L353,241L359,241L365,241L368,239L369,236L369,231L363,227L354,221L344,218L335,216L324,214L313,214L303,214L293,214L283,214L272,214L261,214L251,214L241,214L231,215L221,215L210,216L199,217L189,217L179,218L169,219L160,219L153,219L145,219L137,219L131,219L126,219L121,219L116,219L112,219L108,219L105,218L101,217L98,216L96,214L93,213L90,212L88,210L86,209L85,207L85,205L85,203L87,201L94,198L102,196L111,195L120,195L130,195L139,195L149,195L158,198L167,201L176,204L186,208L195,212L204,216L215,220L224,224L235,228L246,232L258,236L270,240L281,244L293,248L303,252L314,255L324,258L335,261L346,263L354,264L364,264L370,264L373,264L374,264L374,263L373,260L366,258L358,255L346,253L335,250L322,248L309,247L295,246L282,245L268,244L254,244L240,244L227,244L214,244L202,244L189,245L179,246L166,246L156,247L145,248L134,248L124,248L115,246L108,243L104,240L102,237L101,234L107,227L127,223L140,222L152,222L165,222L176,224L188,227L198,230L208,234L217,238L227,242L238,246L249,250L262,253L275,256L288,259L300,261L313,262L327,263L339,264L349,264L359,265L369,265L376,265L381,265L385,263L386,262L386,260L386,257L383,254L375,251L366,248L357,246L346,244L335,243L324,243L311,243L300,243L288,243L278,244L266,245L256,246L246,248L236,250L226,252L217,254L207,256L198,258L189,259L181,260L174,260L164,260L157,260L152,260L147,260L144,257L143,255L143,252L143,248L144,244L149,240L154,236L162,232L171,228L181,224L192,222L201,221L212,220L222,220L235,220L246,221L258,223L268,225L277,227L288,230L298,232L307,234L318,235L328,236L338,236L348,236L358,237L367,237L374,237L382,237L389,237L395,236L401,235L405,233L408,231L409,229L409,226L409,224L409,222L404,219L397,216L389,213L378,211L366,209L354,208L341,207L328,207L314,207L301,207L290,207L280,207L269,207L260,207L252,207L244,209L236,210L228,212L222,213L215,214L208,215L201,216L194,216L187,217L181,217L174,217L167,218L160,218L155,218L149,218L145,218L140,218L136,218L132,217L130,215L127,214L126,212L125,208L125,204L135,199L142,195L149,193L159,192L168,192L177,192L188,195L198,198L208,202L220,206L231,210L245,215L256,219L270,224L282,228L295,232L308,236L323,240L334,243L347,247L358,251L369,254L380,256L391,259L403,260L415,262L427,263L437,263L446,263L452,263L455,263L458,261L458,260L458,258L457,257L452,255L445,253L435,251L422,250L412,249L385,248L372,248L359,248L346,248L333,248L321,250L309,251L298,253L286,256L275,258L263,261L252,263L241,266L230,268L221,270L210,271L201,271L184,271L179,271L176,270L174,268L174,267L174,265L174,264L179,263L187,261L196,260L206,259L217,259L227,259L237,259L247,260L256,263L267,266L275,269L283,273L293,277L302,280L313,283L333,288L344,290L354,291L364,292L372,292L379,293L384,293L388,293L390,292L390,288L387,285L380,282L371,280L362,278L351,277L340,276L329,276L317,276L307,276L296,276L285,276L275,277L263,278L254,280L242,281L221,282L203,282L198,280L194,275L194,272L195,269L203,265L213,263L236,259L249,258L263,258L277,258L290,258L300,258L312,258L323,259L332,260L344,263L352,264L361,266L369,268L378,270L385,271L393,273L407,275L414,276L422,277L429,277L437,278L444,279L452,279L459,280L474,280L482,280L489,280L496,279L500,277L504,276L506,274L506,272L506,270L506,268L502,266L487,261L477,260L467,258L458,258L447,258L438,258L429,258L419,258L411,260L403,261L387,265L381,267L375,269L368,271L362,273L356,275L350,276L343,277L337,279L326,281L320,282L314,283L310,284L305,285L301,285L296,286L291,287L282,288L277,288L271,289L265,290L259,290L252,291L246,292L239,292L233,292L226,293L219,293L212,294L205,294L192,294L185,294L180,294L174,294L169,294L161,292L159,291L158,289L158,288L158,286L160,283L167,280L173,277L189,273L198,272L209,272L220,272L231,272L244,274L252,276L264,279L274,281L285,283L295,285L315,288L325,289L336,290L346,290L356,290L374,290L380,289L385,287L387,286L387,284L387,282L383,277L376,275L368,273L361,272L351,271L341,271L331,271L322,271L312,271L303,272L295,274L285,276L277,278L258,282L248,285L236,286L225,288L201,290L189,291L178,291L167,291L157,291L143,291L139,289L137,288L136,287L136,285L136,283L137,282L142,280L149,277L158,274L167,273L177,272L188,272L205,273L214,275L221,277L229,280L237,282L254,286L264,288L273,290L282,290L292,291L299,291L310,291L313,291L314,291L314,290L310,288L304,286L296,284L287,282L278,281L268,280L258,279L248,279L237,278L227,278L218,278L200,278L191,279L182,280L174,282L155,287L147,289L138,290L129,292L122,292L112,293L96,293L87,293L81,293L74,292L69,290L64,288L58,283L58,280L58,277L61,273L71,267L80,263L88,260L109,259L119,259L130,259L140,260L161,264L172,266L184,268L196,269L210,270L236,270L246,270L256,270L265,268L270,266L273,264L275,260L275,257L275,254L270,250L263,246L256,243L249,241L239,240L229,239L206,238L194,238L181,238L171,238L149,236L138,235L129,234L120,232L112,230L97,225L90,222L84,219L80,217L78,215L77,213L80,210L89,209L98,208L111,208L120,208L133,209L143,212L152,215L169,224L178,229L187,234L205,243L215,248L224,253L244,263L282,278L300,284L309,286L317,289L326,292L343,297L351,299L358,302L366,304L373,306L379,308L394,311L400,312L407,314L413,315L420,316L432,316L438,317L445,317L451,317L463,316L467,315L471,314L474,312L475,311L476,308L476,307L472,303L466,300L458,298L449,295L440,293L430,291L410,289L401,288L392,288L383,288L368,288L361,288L355,288L349,290L338,294L332,295L327,297L320,299L314,302L304,305L298,307L293,308L288,309L278,311L274,312L269,313L264,314L260,314L252,316L248,316L243,316L239,316L232,316L231,314L230,312L230,308L245,297L255,293L266,290L275,289L294,287L303,287L313,287L322,287L331,287L349,288L358,289L367,290L384,293L393,294L401,296L408,297L415,298L430,301L436,302L445,304L453,304L460,305L470,306L489,306L499,306L505,306L511,302L512,300L510,296L503,294L495,292L487,291L469,290L460,289L451,289L441,288L432,288L415,288L407,288L397,288L388,288L380,287L363,284L357,281L352,278L346,273L346,270L346,268L355,264L361,263L372,263L382,263L405,263L416,265L426,268L434,271L442,274L458,279L466,281L472,283L478,285L485,287L500,290L507,290L513,291L521,291L529,291L542,291L548,290L554,288L561,285L562,282L563,280L563,278L563,277L560,276L555,275L540,272L531,270L512,267L502,265L492,264L482,263L473,262L465,262L449,261L441,261L434,261L426,261L418,261L405,260L400,259L396,257L390,253L390,251L390,249L390,246L391,244L394,243L398,241L415,238L424,237L434,237L453,237L461,238L469,240L477,242L482,244L496,250L502,251L507,253L513,256L519,257L526,259L539,263L560,269L581,274L587,275L592,276L605,278L612,278L618,279L629,279L636,279L640,279L643,279L647,276L647,275L645,269L638,265L630,262L613,257L604,255L594,253L575,252L568,251L550,251L543,251L534,251L526,251L510,253L501,255L492,256L484,257L466,259L458,260L441,261L434,261L424,262L416,263L400,263L392,263L385,263L372,263L365,263L352,264L345,264L339,264L326,264L319,264L312,264L307,264L302,264L294,264L290,264L286,264L283,264L280,264L276,264L276,263L279,262L287,260L295,260L319,260L328,260L350,261L360,264L371,267L379,270L397,275L406,278L427,283L436,285L448,288L456,290L466,292L486,296L497,298L514,300L524,301L533,301L542,301L558,300L562,298L563,293L560,290L552,287L543,284L533,282L514,281L504,281L495,281L479,281L471,282L463,284L446,287L438,288L417,292L405,294L385,297L375,298L366,298L360,299L346,299L340,299L336,299L334,298L333,293L341,289L349,287L360,285L380,285L388,285L397,285L412,289L419,290L426,292L438,296L446,298L460,301L469,303L478,304L487,305L507,307L525,309L533,309L540,309L547,309L555,309L557,309L557,308L549,305L541,303L531,302L521,300L502,299L492,299L471,299L464,299L454,299L439,299L431,301L421,303L402,307L392,308L375,309L366,309L357,309L343,309L339,308L336,307L336,305L341,301L349,299L355,299L366,299L384,299L402,300L410,302L418,304L432,307L441,308L455,311L462,312L471,314L485,317L492,319L506,321L512,323L519,324L525,326L536,328L543,328L550,329L562,329L567,329L574,329L580,329L592,327L599,325L605,322L606,321L606,318L606,317L603,316L587,312L578,311L560,309L553,308L545,308L530,308L523,309L516,309L503,313L495,315L490,316L482,318L469,321L463,323L456,324L443,326L436,327L430,328L417,328L412,328L404,327L402,325L401,323L401,318L413,311L422,308L431,305L440,303L458,302L467,302L476,302L492,302L501,302L508,302L525,302L533,302L541,302L558,302L567,302L586,300L594,298L611,294L621,290L630,287L638,281L639,279L639,275L633,274L616,272L606,271L596,270L587,270L568,270L559,270L549,270L532,270L524,270L516,270L498,270L482,270L475,268L469,266L461,262L459,260L459,257L459,256L464,254L478,251L492,251L499,251L506,251L521,254L528,256L536,257L553,260L562,262L571,263L589,265L599,266L614,266L621,266L633,265L637,263L642,260L642,258L642,256L638,253L633,252L619,249L612,248L596,248L587,248L579,248L564,251L556,253L548,255L531,258L522,260L504,261L494,261L484,261L468,260L456,255L457,253L468,252L482,251L493,251L502,251L525,260L532,263L538,266L546,270L562,275L580,281L588,283L596,284L612,287L618,288L630,289L636,289L645,289L647,289L649,289L650,289L649,287L645,286L636,285L620,283L600,282L592,282L582,282L565,282L547,286L539,288L530,290L511,295L490,299L477,301L468,302L450,302L445,302L443,300L446,294L453,293L475,293L483,293L502,298L510,301L526,307L535,308L553,311L568,314L578,315L585,316L601,318L609,318L621,319L628,319L632,319L635,316L635,315L633,313L619,310L608,309L589,309L579,309L562,309L554,310L540,313L532,315L518,319L510,320L496,323L490,324L480,325L477,326L476,326L480,326L485,324L492,323L507,323L514,323L522,323L536,325L550,328L556,330L562,332L572,335L579,337L591,340L597,341L610,343L621,345L628,345L632,345L640,345L642,345L643,345L643,341L640,339L626,334L617,333L598,332L589,332L571,332L563,332L545,332L538,333L528,333L511,334L493,334L483,334L464,334L454,334L445,334L429,334L420,334L414,334L397,334L382,334L374,334L366,334L353,334L347,333L336,332L332,331L329,328L329,327L337,321L344,318L358,317L368,317L376,317L394,319L402,321L417,327L425,330L441,336L450,338L467,344L476,347L493,353L502,355L520,360L529,361L546,362L561,363L566,363L569,362L570,356L567,353L560,349L542,343L532,342L514,341L504,341L495,341L478,342L469,343L451,345L431,347L420,347L400,348L390,348L374,348L368,346L362,344L361,343L364,341L371,339L388,338L398,338L416,338L424,341L439,346L447,349L453,353L466,359L480,364L511,371L526,373L533,374L548,374L555,374L562,372L565,369L565,367L560,363L553,362L545,360L528,360L511,360L502,360L485,360L466,360L458,360L448,360L429,360L410,360L400,360L383,359L373,359L356,359L346,359L327,359L318,359L304,358L299,356L295,352L294,348L298,344L305,341L322,337L341,336L350,336L368,338L376,341L391,346L407,351L416,353L434,356L443,357L460,358L469,358L481,357L485,355L485,351L481,345L472,342L452,337L443,335L423,333L414,332L395,332L387,332L368,332L347,332L336,333L314,333L304,334L282,335L271,335L249,336L239,337L222,337L213,337L203,337L198,336L197,334L197,329L202,324L216,316L225,314L244,314L253,314L271,314L278,316L294,321L302,323L319,329L327,331L349,337L357,338L377,343L386,344L402,345L408,346L416,346L419,343L418,336L412,333L396,326L387,324L377,322L356,321L335,321L325,321L314,322L296,324L287,326L270,329L261,331L246,332L237,333L221,335L206,336L199,336L185,338L178,338L166,339L160,339L150,340L146,340L138,340L133,340L131,339L129,337L128,336L128,333L128,331L134,327L139,325L150,321L159,320L172,319L189,319L197,319L215,321L223,322L240,326L256,330L266,332L283,337L294,340L315,345L337,350L348,352L368,353L375,353L380,353L384,351L384,348L376,341L368,337L347,333L324,331L298,331L284,331L256,331L242,331L217,327L207,323L189,314L183,310L178,303L178,297L185,295L201,294L213,294L236,296L245,298L262,304L269,307L283,313L302,321L312,325L335,332L358,338L369,341L390,345L400,346L418,346L432,346L436,345L440,340L440,337L433,328L424,324L402,319L392,319L370,318L360,318L341,318L322,318L312,318L291,319L281,319L259,319L239,316L229,315L215,312L209,309L209,307L215,306L239,303L252,303L277,303L288,304L307,309L318,312L336,319L346,323L366,331L389,338L402,343L429,349L442,351L465,353L480,353L482,353L483,347L465,340L454,337L429,334L403,331L390,331L363,328L351,326L327,321L316,319L295,312L285,309L271,303L265,299L265,297L268,295L278,295L300,295L321,301L327,304L340,311L352,318L357,321L370,330L384,337L392,341L406,349L433,362L461,372L480,378L498,382L506,384L521,385L532,385L536,385L538,385L538,382L520,375L509,371L485,365L472,364L449,362L439,362L415,362L394,362L384,362L359,363L335,365L313,366L303,367L283,367L274,367L259,367L254,367L246,364L245,362L245,359L248,357L264,354L274,354L296,355L315,360L323,362L341,369L357,376L376,382L385,385L402,389L414,389L418,389L420,389L413,384L395,378L386,376L362,372L351,370L325,367L297,365L283,363L256,360L243,358L219,353L208,350L193,343L192,340L201,335L222,334L236,334L259,338L270,342L290,351L309,360L331,370L345,375L369,383L392,389L403,392L420,395L426,395L432,396L433,396L427,393L410,389L400,387L381,383L362,382L352,382L332,382L310,382L290,384L280,385L261,386L243,386L235,386L226,384L222,381L222,379L225,375L242,371L251,370L273,370L300,375L313,378L321,381L335,384L344,387L362,388L379,388L388,388L389,386L389,382L383,377L351,367L327,363L314,362L290,362L281,362L263,362L249,365L236,369L231,371L220,375L215,377L203,380L199,381L188,384L178,385L168,386L162,386L152,387L142,387L132,387L128,387L124,383L124,379L130,373L138,370L157,368L167,368L188,369L208,374L217,377L238,382L249,385L273,389L298,392L319,392L327,392L336,392L338,390L338,388L323,382L305,378L286,377L278,377L259,377L253,377L236,381L221,386L212,388L199,391L183,392L176,393L164,393L155,390L151,385L151,381L151,378L166,371L186,366L205,366L216,366L234,366L252,369L261,371L296,380L325,386L335,388L355,392L373,396L388,400L402,402L409,402L426,403L437,403L441,401L445,398L445,395L444,394L434,389L417,386L400,385L390,385L372,385L356,389L339,392L323,396L314,397L300,399L292,399L278,399L267,399L264,397L262,394L267,390L286,383L307,379L319,379L339,379L357,379L375,382L383,384L402,387L426,389L452,389L462,389L482,389L493,386L497,384L500,380L501,378L500,373L497,372L486,369L470,368L454,367L445,367L430,367L416,368L403,370L390,371L385,371L376,371L374,370L373,367L373,366L381,364L398,363L407,363L426,364L444,369L460,375L476,381L491,385L499,387L515,390L534,393L553,394L567,394L573,392L584,387L587,384L592,379L592,376L588,374L571,371L550,368L531,367L523,367L507,367L493,367L476,369L467,370L450,370L443,370L431,368L426,364L426,361L432,352L447,347L465,346L475,346L497,352L504,355L518,359L531,361L542,362L548,363L560,364L574,364L582,364L599,364L615,364L624,363L639,361L650,359L654,357L660,353L663,348L664,343L659,338L645,334L630,333L623,333L602,334L596,336L584,340L577,342L563,346L548,350L542,351L528,353L516,353L509,353L506,353L506,352L509,349L514,347L530,344L547,344L563,345L572,347L589,353L607,359L616,361L634,365L652,367L660,368L674,370L686,370L691,368L691,364L678,356L661,351L654,350L641,349L629,350L617,356L610,359L595,365L577,370L569,372L551,375L535,377L520,379L512,379L510,379L509,379L511,378L524,375L535,375L550,375L563,377L576,381L582,383L594,386L606,388L611,389L621,390L630,391L635,391L645,392L654,392L662,392L664,390L664,389L660,389L655,388L633,388L625,388L609,388L594,390L587,391L573,394L562,398L555,401L542,405L528,409L515,413L499,416L485,418L470,421L456,422L449,423L429,424L422,424L410,424L403,421L400,419L399,415L400,412L422,402L429,401L476,406L482,408L499,412L514,416L530,419L545,422L560,424L566,426L580,427L591,428L603,428L609,426L610,424L610,420L600,415L594,413L576,409L556,407L539,406L519,406L500,406L481,407L471,408L453,409L436,410L415,410L401,407L392,402L390,396L392,391L397,389L407,386L422,385L435,385L442,385L463,385L471,385L482,385L490,382L491,381L492,378L490,375L480,374L467,373L453,373L441,376L430,379L418,383L412,384L401,388L389,392L377,395L369,397L356,401L340,405L327,408L311,410L304,411L290,412L277,412L275,412L274,411L275,410L285,408L298,408L305,408L319,408L331,411L344,414L349,416L361,419L374,423L385,426L392,428L407,431L412,431L419,432L423,432L424,427L416,421L405,418L392,415L387,415L368,414L363,414L350,414L337,414L330,414L316,414L303,414L296,414L284,414L270,414L256,415L242,416L230,416L217,416L206,416L196,416L190,415L187,413L187,411L189,407L197,404L209,404L216,404L230,404L244,407L254,411L268,415L281,419L297,425L314,430L330,435L337,438L358,442L363,443L373,443L376,443L377,438L372,433L361,425L345,419L331,416L315,414L302,413L294,412L272,411L263,411L248,411L231,409L213,408L198,406L182,404L169,402L163,400L154,396L149,393L149,392L150,389L164,387L183,386L201,386L219,390L235,394L252,400L268,406L281,411L294,415L300,417L312,421L324,426L336,431L352,435L361,436L378,438L392,438L401,438L404,435L400,430L389,426L373,424L357,423L339,423L325,423L310,424L302,426L284,429L262,432L241,435L232,436L211,438L193,441L177,442L165,443L157,443L156,441L156,439L165,437L178,435L196,435L215,436L223,437L240,441L256,446L275,451L284,452L303,456L322,460L341,462L356,462L368,462L369,461L368,457L357,452L341,448L326,446L309,445L292,445L276,445L266,445L250,446L233,447L215,447L164,440L152,435L142,429L137,424L137,420L146,416L153,415L180,415L197,417L204,419L223,426L234,431L247,435L263,440L281,445L302,452L312,455L328,460L344,463L356,465L367,465L373,465L374,464L370,460L356,456L336,452L315,450L294,449L273,448L249,448L225,447L202,444L182,439L171,433L166,428L169,423L190,416L212,415L234,415L253,418L271,423L287,427L296,430L319,432L341,433L357,431L362,428L354,425L345,424L321,423L290,423L271,425L262,427L245,431L230,435L214,439L198,443L181,446L165,449L157,451L142,454L129,456L117,459L111,459L98,460L91,460L85,460L84,458L88,453L104,449L124,448L144,448L159,451L172,456L188,460L203,464L212,465L228,468L245,471L260,474L273,477L286,480L297,482L307,483L320,484L329,485L339,486L349,486L356,486L361,484L363,479L361,475L345,471L326,469L307,468L288,468L280,468L261,468L234,469L217,472L208,472L180,475L163,475L151,475L143,472L140,469L141,463L152,458L159,457L177,457L197,457L217,460L236,463L246,465L265,467L284,469L311,472L320,472L335,475L356,478L371,479L384,481L398,482L411,483L425,483L438,483L451,483L461,483L467,483L478,483L489,480L497,477L502,473L502,471L495,467L480,465L463,462L445,460L426,460L400,460L390,460L373,460L355,460L336,460L320,460L307,456L299,452L294,449L307,441L325,441L345,443L363,446L380,452L395,457L409,462L424,466L437,470L453,474L465,478L478,482L485,484L496,487L511,490L520,492L528,493L536,494L542,494L547,494L553,494L557,494L560,492L562,489L562,486L562,482L558,477L547,471L542,468L520,461L506,457L492,454L477,450L464,448L449,446L434,445L418,444L403,443L389,439L378,435L370,430L366,426L366,422L367,420L379,416L393,416L409,416L426,418L440,423L455,428L474,435L488,440L504,445L521,449L538,454L555,456L566,456L570,456L572,455L572,450L565,444L548,438L529,434L509,431L489,429L467,428L446,424L421,416L417,413L412,407L412,401L431,398L450,398L467,401L482,409L495,416L512,425L529,433L548,440L566,446L585,452L594,455L618,457L624,457L624,455L614,448L596,442L573,437L540,432L515,427L491,422L469,415L452,408L442,401L438,396L438,393L441,393L449,393L463,396L479,402L492,408L505,414L523,423L535,431L541,435L556,444L584,462L605,472L614,477L630,485L641,488L647,489L647,486L636,473L619,461L599,451L579,443L558,438L525,428L505,421L487,414L471,407L461,399L456,392L455,390L455,386L458,383L467,383L482,384L498,389L511,396L521,404L543,418L551,424L560,430L577,440L590,447L604,453L616,458L628,462L638,465L644,465L647,465L648,462L648,458L640,450L626,442L608,435L592,430L572,426L555,422L530,419L513,417L495,413L484,409L478,404L478,401L479,399L490,396L507,395L525,395L538,396L558,406L572,413L585,422L598,430L611,438L623,445L633,452L643,459L653,465L663,471L673,476L683,481L691,484L703,488L709,489L713,490L714,490L713,490L689,482L659,476L630,471L603,468L578,467L554,466L530,465L493,460L472,455L457,450L448,445L446,442L446,440L448,437L456,436L472,436L487,438L506,445L522,453L547,466L564,476L572,480L591,489L611,496L632,501L638,502L640,502L640,499L633,494L617,487L590,480L570,477L549,476L531,475L514,475L494,474L475,473L456,470L441,467L432,462L429,460L429,457L432,456L444,456L451,456L470,460L486,468L499,477L513,485L528,493L543,499L563,508L569,510L579,512L588,513L589,513L584,501L570,493L550,486L533,482L514,479L494,477L463,475L442,473L419,470L397,466L378,460L363,452L355,446L352,441L352,438L354,436L360,436L372,436L389,442L400,447L410,452L422,457L434,462L447,467L465,474L476,479L485,483L495,487L505,491L514,494L524,498L533,502L543,505L555,508L570,513L581,514L589,514L593,514L593,512L590,509L564,499L528,493L512,492L496,492L480,492L463,493L443,494L422,494L402,494L388,491L379,486L379,483L379,482L389,478L402,476L419,476L438,479L450,485L462,491L487,502L507,511L528,518L547,525L562,528L569,529L570,529L556,520L541,513L524,508L506,505L481,504L463,504L453,504L437,504L414,501L407,496L405,492L410,485L427,482L447,481L469,481L487,485L503,490L516,495L529,499L541,504L564,513L581,520L599,525L615,530L629,532L641,532L643,528L643,521L636,514L622,508L604,504L587,502L570,501L551,500L524,497L503,494L487,489L473,483L467,478L466,473L467,470L484,467L512,467L527,471L539,477L556,487L567,493L579,498L592,504L611,513L623,518L635,523L643,526L650,529L657,531L664,533L669,535L676,536L683,537L697,539L706,540L705,540L690,538L671,535L640,528L619,525L598,523L580,522L562,522L534,522L516,522L498,522L481,522L471,520L466,516L467,511L494,507L510,508L524,515L546,528L563,539L584,548L604,556L621,562L633,564L637,564L637,562L627,554L613,547L596,543L579,541L562,540L536,539L520,539L504,539L482,539L460,537L446,535L438,532L435,529L435,526L440,525L452,524L470,524L488,526L506,531L521,535L537,538L552,538L560,538L562,535L553,527L542,522L521,518L514,516L490,513L473,510L457,508L440,508L414,508L395,507L380,506L363,505L346,503L326,497L316,492L309,479L320,467L346,462L362,462L378,463L393,466L417,471L436,475L458,479L480,481L505,482L512,482L514,478L508,472L490,466L470,463L448,460L429,457L409,454L390,451L375,446L364,440L360,431L362,425L375,420L400,419L414,423L426,429L443,439L456,445L471,452L493,463L509,471L524,479L538,486L552,493L567,498L579,501L590,503L591,501L572,485L550,477L528,471L505,469L481,469L457,469L434,469L412,469L390,471L368,473L339,475L319,475L305,475L291,472L288,469L288,467L294,467L303,466L318,467L346,476L353,479L377,491L395,499L410,507L428,516L443,522L465,528L477,528L481,525L478,516L456,505L439,502L419,501L385,501L360,501L334,501L309,501L288,499L265,493L258,489L256,486L258,484L272,484L300,485L320,492L339,499L369,512L392,520L415,526L443,530L452,530L452,523L438,517L411,510L392,507L375,506L357,506L336,506L303,506L281,506L262,506L236,506L222,503L208,501L200,498L195,495L193,491L193,489L199,486L214,483L233,483L243,486L251,489L264,494L275,499L286,505L297,510L307,515L324,521L333,523L341,524L348,524L349,521L349,518L341,512L315,505L294,502L275,501L255,501L237,501L210,501L189,501L167,499L131,494L114,489L104,483L103,476L118,470L139,469L171,470L217,489L232,495L250,501L283,506L300,507L308,506L310,502L292,491L278,484L261,480L237,474L220,469L205,462L185,448L179,442L177,435L184,431L200,431L219,431L240,438L250,444L259,449L274,457L286,463L296,468L310,476L321,481L329,484L339,489L351,493L369,499L385,504L395,507L404,509L417,510L423,510L424,509L424,505L411,501L392,496L361,493L341,493L322,493L295,494L276,495L257,496L228,496L214,493L206,490L204,486L221,481L239,480L254,481L268,486L285,493L298,498L312,504L326,511L349,521L364,528L381,534L406,539L417,539L420,538L400,528L379,523L360,520L332,517L312,517L293,517L263,517L239,515L219,512L199,504L198,501L220,499L242,499L262,505L290,515L309,521L326,527L340,534L353,540L365,545L383,554L397,562L418,569L431,573L451,575L465,576L474,576L477,572L475,569L459,562L440,557L419,553L399,551L379,550L353,550L335,550L308,546L284,538L277,533L276,528L281,523L308,519L326,519L340,521L352,526L370,532L383,536L399,540L416,544L433,546L448,547L469,548L465,540L440,531L418,527L388,522L370,519L348,511L336,505L322,494L320,488L325,484L342,484L368,490L388,502L399,508L414,518L426,524L438,531L459,544L472,550L489,558L499,564L509,568L521,571L533,575L555,579L565,579L569,579L566,575L541,564L519,557L497,552L472,551L457,551L442,551L427,551L404,551L389,551L376,551L360,550L350,549L335,547L327,544L322,542L321,537L321,533L331,527L340,524L349,524L362,524L373,529L393,537L407,542L428,550L438,555L448,561L464,568L475,572L489,576L503,578L514,579L515,579L514,576L494,567L469,560L451,557L436,555L421,553L399,550L385,547L374,541L366,534L366,530L378,527L393,527L406,530L424,540L433,547L446,556L455,562L470,570L481,575L490,581L502,585L515,589L523,589L528,589L528,587L520,578L508,570L492,562L466,554L449,550L433,545L412,535L404,530L402,525L410,522L426,521L451,525L463,530L480,540L490,546L501,552L517,562L527,569L537,575L546,581L561,590L570,595L578,599L591,604L600,606L608,607L616,607L617,606L616,602L601,592L570,579L549,575L520,573L500,572L480,571L458,568L439,562L423,552L420,548L422,544L441,540L457,539L485,547L498,555L511,564L526,572L550,585L580,596L597,601L609,602L613,602L564,569L542,559L519,550L490,533L470,512L468,503L473,501L499,513L517,525L539,542L553,553L571,567L585,577L608,597L621,609L634,618L654,625L666,625L667,615L655,603L636,592L602,579L583,575L555,574L540,574L513,574L491,574L470,574L443,571L426,566L418,562L414,558L414,554L423,554L436,555L460,567L474,575L485,583L500,595L511,603L528,615L546,624L556,629L564,630L569,631L570,624L559,615L536,606L517,600L497,596L468,591L449,588L421,584L400,581L372,575L356,570L343,564L336,557L336,554L348,554L372,558L383,563L394,571L400,576L409,585L427,596L442,603L464,614L476,619L487,621L489,621L487,615L468,601L447,595L415,587L394,584L374,581L344,578L325,576L298,571L282,567L264,557L258,550L255,544L260,535L276,535L301,541L313,548L324,554L338,565L350,572L371,582L384,590L404,598L417,604L431,610L451,618L462,622L477,627L486,628L493,629L504,628L506,620L496,612L476,603L439,593L414,588L390,584L359,579L334,574L301,567L280,561L248,552L218,543L203,535L191,527L186,519L197,518L227,523L247,533L265,544L284,555L316,572L352,586L376,592L398,593L400,588L375,574L357,568L327,562L307,560L285,557L261,555L227,552L204,549L181,545L154,538L131,527L124,520L122,514L172,511L196,520L215,528L246,540L267,547L295,556L309,558L321,558L322,555L311,544L298,537L284,533L258,530L231,528L215,525L193,519L180,513L169,504L166,500L166,497L205,499L221,507L231,515L246,527L261,540L273,547L285,555L301,565L338,581L352,587L365,592L379,595L386,595L386,593L374,587L344,581L325,579L306,578L277,577L259,576L240,576L215,573L203,571L191,569L178,564L174,559L174,557L191,556L217,560L232,567L252,577L266,585L282,593L312,603L329,607L340,608L344,608L339,604L319,596L302,593L274,588L246,586L227,585L198,584L180,582L165,578L150,571L143,567L142,566L147,564L163,564L185,571L198,577L217,588L229,596L250,608L259,614L270,622L276,629L290,638L304,641L319,643L329,644L329,642L314,637L298,632L268,625L234,622L212,620L191,620L160,620L137,617L128,612L125,608L124,603L135,601L159,601L171,604L193,612L215,619L228,623L243,627L265,635L286,643L299,647L310,650L321,654L334,658L344,661L353,663L367,665L381,666L388,666L390,660L387,653L360,643L325,636L301,633L277,630L241,624L224,618L211,611L202,603L201,599L204,594L216,593L239,596L267,606L282,613L305,624L319,630L344,638L361,639L374,637L360,623L334,617L303,612L276,604L261,598L249,589L247,585L249,581L264,581L290,588L302,594L313,600L328,611L340,620L367,635L392,648L407,655L423,664L433,669L447,674L456,677L473,680L486,680L489,677L489,671L474,654L444,642L420,637L388,633L357,628L337,623L319,616L302,603L296,594L296,591L302,590L317,591L339,602L357,616L369,626L385,639L412,657L437,672L451,678L465,682L471,678L470,669L461,658L436,645L405,633L384,625L353,611L330,596L327,590L327,586L346,586L361,592L373,600L387,613L403,626L417,636L441,647L463,653L473,653L477,652L473,644L458,634L431,625L404,620L388,614L375,607L363,598L361,594L361,592L366,591L390,593L403,598L416,607L428,616L436,622L448,630L460,637L467,643L479,650L490,657L510,668L521,673L529,677L538,681L543,683L551,686L565,689L578,691L584,692L585,692L584,686L563,672L545,663L520,654L503,650L477,642L451,631L438,625L420,610L419,605L422,601L436,601L452,606L480,625L492,635L515,655L543,677L562,689L581,696L588,697L590,695L590,684L579,672L554,657L536,650L505,637L482,623L471,613L466,604L466,601L473,600L488,603L509,615L524,625L539,638L556,649L588,666L612,674L618,674L619,674L618,669L609,660L588,646L572,638L547,628L524,622L508,615L488,603L480,594L480,589L485,585L500,585L525,595L541,607L553,619L564,628L584,644L597,653L616,666L626,673L637,679L658,691L667,695L690,698L692,693L675,670L647,652L630,646L614,641L585,631L558,621L543,612L526,599L517,588L516,581L522,579L544,582L565,598L580,611L600,626L621,637L636,641L645,641L649,640L645,630L616,610L600,602L584,593L566,575L565,569L573,567L595,568L605,576L623,595L634,601L650,606L663,606L665,596L651,580L631,568L601,554L572,543L550,532L533,521L524,513L541,518L564,533L589,555L602,571L610,580L623,596L637,608L653,623L662,631L673,640L683,647L690,651L699,655L704,655L689,640L667,627L630,613L596,604L576,601L555,599L521,596L497,591L463,581L434,571L410,561L387,550L371,542L356,532L355,527L377,526L409,543L424,558L441,579L455,594L477,616L499,630L510,632L510,630L495,622L468,608L439,598L420,592L393,577L380,568L373,560L372,557L379,557L404,573L426,590L438,601L460,620L484,636L504,645L520,649L523,649L516,642L499,630L469,617L448,610L418,601L392,591L383,583L383,580L404,579L433,591L455,608L464,618L479,630L489,638L506,649L530,665L553,679L567,689L597,701L604,702L606,695L596,678L569,660L526,645L507,636L486,622L477,609L477,604L492,603L510,615L536,639L551,658L565,674L577,685L599,699L616,703L621,704L620,694L606,682L583,670L566,663L538,655L507,645L488,640L445,629L425,623L409,617L387,604L386,601L398,604L426,623L444,637L467,656L483,669L511,687L532,694L537,692L530,680L501,664L474,658L457,656L425,651L393,643L367,630L351,619L349,615L351,614L374,620L391,632L417,652L440,670L459,686L477,702L493,716L505,724L521,734L533,742L538,745L548,749L554,749L560,749L562,742L554,729L529,713L505,704L482,699L465,696L441,691L415,683L401,677L389,669L387,666L393,664L420,669L444,684L458,695L480,710L507,725L534,733L545,734L551,734L545,721L531,710L506,697L492,687L479,675L475,668L477,666L504,674L515,685L529,700L540,710L560,722L578,726L584,727L584,725L564,707L545,698L521,687L498,674L478,661L471,654L469,650L479,650L507,663L522,673L537,687L545,696L560,708L578,722L592,729L607,736L615,737L616,732L594,711L574,700L548,685L533,676L516,661L506,649L505,644L528,648L552,665L566,677L577,686L589,695L596,701L609,710L620,717L626,721L633,724L640,728L646,731L652,734L658,736L677,743L681,744L685,746L689,747L691,747L689,743L676,732L659,722L642,715L628,711L608,706L589,703L569,700L546,696L532,693L509,687L485,681L468,676L443,668L418,654L407,647L423,647L455,662L470,677L492,701L516,724L541,742L557,751L570,755L568,745L551,731L521,715L487,703L447,691L421,681L369,660L350,650L331,637L337,632L358,639L393,664L419,689L447,717L468,728L484,732L486,730L462,712L430,699L396,689L364,681L328,671L294,659L271,648L266,645" stroke-opacity="1" stroke-width="1" stroke-linecap="round" stroke-linejoin="round" style="-webkit-tap-highlight-color: rgba(0, 0, 0, 0); stroke-opacity: 1; stroke-linecap: round; stroke-linejoin: round; -webkit-user-select: text;"></path><path fill="none" stroke="#000000" d="M269,640L274,641L277,642L284,644L291,647L297,650L303,654L309,659L317,665L326,671L335,676L346,681L356,687L368,692L379,696L389,700L397,702L402,703L405,704L407,704L406,700L401,695L394,689L386,683L379,678L371,675L363,671L355,669L344,666L335,664L325,662L315,661L306,659L296,658L286,657L275,655L262,654L254,652L245,651L237,648L231,646L227,644L225,642L224,642L224,641L226,641L232,641L240,644L247,648L257,653L266,659L275,665L283,671L293,677L302,683L313,687L324,691L333,693L342,693L349,693L352,693L354,693L355,690L354,688L349,686L341,683L334,681L327,679L319,677L312,676L305,674L297,673L288,671L280,669L271,666L262,664L254,661L246,659L238,657L231,654L223,651L215,648L208,645L203,643L198,640L194,638L192,636L192,635L195,635L203,635L212,636L220,639L228,643L235,647L243,652L251,658L261,666L271,671L281,677L293,683L303,688L314,693L324,698L331,700L336,702L340,703L341,703L340,703L333,700L324,696L313,693L303,689L292,686L282,683L271,680L259,678L248,676L237,673L228,670L218,666L208,662L199,658L189,654L180,649L172,645L165,641L160,638L158,635L157,633L157,632L157,631L159,631L167,631L175,632L187,636L196,640L203,644L210,647L216,651L220,655L225,659L228,663L233,668L239,672L244,677L250,682L256,687L264,693L270,697L277,701L283,705L290,709L296,712L302,716L307,719L313,722L319,725L326,727L334,730L341,733L349,735L355,737L360,737L364,737L366,737L366,736L366,732L360,727L352,722L342,715L332,710L322,705L311,700L301,696L289,691L278,687L266,683L256,678L246,676L236,672L229,669L220,665L212,661L206,657L202,654L199,651L197,649L197,647L197,645L197,644L198,644L200,643L205,643L216,643L224,644L233,647L243,649L251,653L257,656L264,660L271,664L277,669L288,678L300,686L313,695L326,703L339,710L351,717L361,721L371,725L380,729L387,731L394,732L399,733L403,733L406,733L407,732L407,729L407,727L406,722L400,717L392,711L385,707L375,702L367,699L359,695L351,692L341,687L334,684L326,680L319,676L314,673L310,670L308,668L307,666L307,665L307,664L308,664L316,664L325,667L334,671L344,676L352,681L358,686L364,692L370,697L376,701L381,707L388,713L399,722L408,728L421,736L432,742L442,748L454,752L462,755L469,757L474,758L477,759L480,759L480,758L480,754L477,749L472,742L465,735L456,729L447,723L438,719L428,715L417,711L409,708L398,705L388,701L379,698L369,694L362,691L356,687L351,683L347,681L344,678L344,677L344,676L345,676L353,676L360,677L370,682L380,687L390,693L400,699L409,705L417,711L425,717L433,723L441,729L451,736L459,743L468,749L477,755L487,761L498,767L508,772L515,775L521,776L525,777L528,777L528,775L527,768L520,761L514,756L504,749L495,745L486,739L475,734L465,730L456,726L447,722L441,717L435,713L430,709L426,706L424,703L424,701L424,700L424,699L426,699L432,699L440,700L447,703L455,707L462,712L468,716L474,720L478,724L482,727L486,730L490,734L495,738L503,743L509,747L516,751L522,755L529,759L536,762L541,764L547,767L553,770L557,771L562,772L566,773L570,773L573,774L576,774L579,774L581,774L583,774L583,772L579,768L571,761L561,755L550,749L539,744L526,738L516,734L506,731L494,729L484,727L472,726L463,725L450,724L438,723L424,722L410,721L395,720L382,718L369,716L358,714L347,711L335,708L324,706L313,703L305,702L296,700L287,698L278,695L268,691L258,687L251,684L244,681L239,679L235,677L233,676L232,675L232,674L234,674L244,674L253,675L267,678L279,682L294,688L304,693L315,699L326,704L336,711L349,719L358,725L370,733L380,741L390,747L400,754L410,759L420,763L429,766L435,768L441,768L446,768L447,763L446,755L438,748L426,740L416,735L405,731L394,729L385,727L374,726L362,725L350,724L338,722L327,720L314,719L301,717L288,715L271,712L257,709L246,706L235,703L229,700L225,698L222,696L221,695L221,693L221,692L227,691L236,691L245,691L253,691L261,695L267,698L273,702L280,707L290,713L302,720L315,727L329,734L342,740L352,744L360,746L366,748L370,749L373,749L373,746L370,739L363,732L354,726L343,721L333,716L322,712L310,710L301,708L289,707L279,706L267,705L258,704L247,703L237,703L227,702L217,701L206,700L195,697L185,695L178,692L171,688L165,685L161,682L158,680L156,678L156,677L156,676L158,676L165,676L173,676L184,678L194,681L203,686L210,689L216,694L220,697L225,701L231,707L239,712L246,718L253,723L262,728L271,732L281,734L290,736L297,737L302,738L305,738L306,738L306,736L303,733L295,729L287,726L278,722L266,719L256,717L245,714L234,710L224,707L213,704L203,700L192,697L181,692L171,686L158,679L151,674L146,669L143,665L142,663L142,661L144,660L151,660L160,660L171,664L184,669L195,673L206,678L216,684L223,688L230,694L239,699L249,703L262,709L274,713L286,717L298,719L305,720L311,720L314,720L318,717L318,710L309,699L299,693L292,690L285,687L274,683L264,680L254,677L242,675L231,673L220,671L208,669L197,667L184,665L173,661L159,658L148,654L135,650L124,647L116,644L107,641L100,637L96,635L93,632L92,630L93,629L101,628L114,628L124,630L135,635L144,641L151,645L158,651L164,656L168,661L171,666L175,670L178,674L182,678L186,683L189,686L193,691L196,694L200,698L204,701L209,704L213,708L219,712L225,717L234,721L241,725L246,727L256,733L261,736L265,738L269,741L273,743L278,746L283,748L289,750L293,751L298,753L301,754L305,754L307,754L308,754L309,754L309,753L305,749L296,744L286,739L275,735L262,732L250,729L235,727L222,725L208,723L198,721L186,720L177,717L169,715L159,712L151,710L143,707L135,704L129,702L125,700L122,698L120,696L120,695L120,693L122,692L137,691L148,691L161,691L171,694L178,698L186,702L194,708L200,714L209,720L222,727L236,734L251,741L268,747L286,751L300,754L312,755L320,756L325,756L328,756L329,756L329,753L321,749L312,744L301,741L288,737L275,735L261,733L246,731L233,729L219,727L206,723L194,719L184,715L177,711L172,708L168,704L166,702L166,700L166,699L172,699L181,699L193,700L203,703L212,708L220,712L228,718L237,724L246,729L255,736L268,743L281,750L296,756L307,761L317,763L324,764L327,764L329,764L329,760L324,753L314,744L302,734L289,727L275,719L260,711L246,704L232,697L220,689L208,683L198,677L185,670L174,662L162,654L153,649L143,642L132,635L122,629L110,622L101,616L91,610L81,604L74,600L68,596L64,593L60,590L58,587L58,585L58,584L59,583L70,582L81,582L93,582L101,584L109,588L114,591L118,594L122,598L125,601L130,605L137,609L143,613L150,617L156,621L162,625L168,629L174,633L181,638L190,643L196,647L204,651L212,655L221,660L229,664L240,668L249,670L254,670L258,670L260,670L261,670L261,666L256,661L245,653L233,647L222,642L209,638L197,635L184,633L171,632L157,630L144,629L130,627L118,625L108,622L101,620L96,617L93,614L90,611L88,609L88,607L88,606L88,604L89,603L93,603L103,603L111,603L122,604L132,608L141,613L148,617L156,622L164,627L172,633L180,640L190,647L202,655L214,663L227,671L242,680L257,689L273,697L290,703L304,708L315,712L323,714L329,715L333,715L335,715L336,715L336,710L330,704L322,698L311,692L299,687L286,683L273,681L258,678L241,676L227,675L210,672L198,669L185,665L175,660L166,656L159,652L154,648L151,645L149,642L149,641L154,641L167,642L183,646L197,652L210,660L221,668L230,674L239,681L251,691L265,700L280,709L295,717L307,725L321,732L334,739L347,746L356,751L367,757L376,763L383,767L390,771L397,773L404,774L409,775L415,775L419,774L421,771L421,766L421,761L417,756L409,752L399,749L389,746L380,744L370,743L360,742L349,741L337,739L325,737L312,733L304,730L295,727L288,722L283,719L281,716L280,713L280,712L280,711L280,710L290,710L298,711L308,716L319,720L329,726L339,732L348,738L356,744L365,750L376,757L385,763L399,771L408,776L418,781L428,786L436,790L444,793L452,795L457,796L462,796L465,795L465,788L463,782L455,776L446,773L438,769L426,767L415,765L403,763L390,762L378,761L365,761L355,761L343,761L333,761L319,760L307,759L294,757L280,754L266,749L257,745L253,741L251,739L251,737L251,735L258,735L269,735L280,737L294,742L304,747L316,752L327,759L338,767L349,775L360,782L372,789L381,796L391,801L401,805L407,808L412,810L415,810L417,810L417,808L414,804L407,798L396,793L385,789L373,785L361,781L348,779L335,777L321,776L308,774L294,771L277,768L258,764L240,759L225,753L215,748L207,744L203,739L202,734L202,731L206,730L216,730L226,731L237,736L246,742L255,748L266,754L277,761L290,770L302,778L316,786L328,794L338,800L348,805L354,807L359,808L361,809L362,809L362,806L358,801L350,797L339,793L327,790L312,786L298,784L283,782L266,781L252,779L237,776L225,773L214,769L205,764L199,759L193,754L187,749L183,746L178,741L178,740L181,740L189,740L199,743L211,747L221,751L231,756L241,761L249,766L259,771L269,776L276,781L286,785L293,790L300,794L306,799L312,802L318,806L323,808L328,811L333,814L338,817L344,819L349,822L353,824L358,827L363,829L368,831L373,833L378,834L382,836L386,838L390,839L394,840L399,841L404,842L409,843L416,843L421,843L425,843L427,841L429,838L429,832L424,825L416,818L406,812L392,807L380,803L363,798L348,795L334,791L321,788L308,785L296,781L286,775L280,770L275,763L273,759L271,756L271,753L271,751L273,749L280,749L292,750L304,754L319,761L333,770L348,779L363,790L378,800L391,809L403,817L413,823L424,828L435,832L446,834L455,835L461,835L465,835L468,834L468,824L464,815L453,805L441,797L427,789L414,783L400,778L386,774L370,769L356,763L343,757L334,752L327,746L322,741L321,736L321,733L321,731L330,731L342,731L357,738L371,746L384,755L396,765L406,775L413,783L424,794L434,804L445,812L457,820L467,826L478,830L487,833L497,834L503,835L508,835L510,835L510,829L504,818L493,807L478,797L463,787L448,778L436,769L426,761L417,754L410,746L404,739L399,734L397,729L395,727L395,725L404,725L419,732L432,741L443,750L453,759L460,765L467,771L473,776L478,780L483,783L487,787L494,790L500,794L506,797L512,800L519,804L526,807L533,810L540,813L546,816L551,819L557,821L560,822L564,824L567,825L570,826L573,827L577,827L580,828L583,828L585,829L588,829L589,829L591,829L593,829L594,829L594,828L594,823L586,811L575,800L562,790L549,782L536,776L522,770L511,765L497,761L485,758L472,755L456,751L441,745L426,738L411,731L398,724L387,717L380,710L374,706L371,703L370,700L370,699L374,698L392,698L405,699L424,705L437,712L451,720L463,728L475,737L485,746L498,755L514,767L528,776L542,785L557,794L572,802L586,808L595,812L601,813L605,814L606,814L606,810L599,798L590,787L577,776L565,766L551,757L541,751L528,745L515,739L499,732L484,726L469,719L455,710L441,702L431,693L424,686L420,680L418,675L418,672L418,670L425,670L440,671L455,676L469,683L482,692L494,701L505,710L513,717L521,725L528,732L534,738L539,744L545,749L550,754L556,759L562,764L567,769L573,774L578,777L584,781L588,784L592,787L596,790L599,793L602,795L606,797L609,799L611,801L614,802L616,804L618,806L620,807L622,809L625,810L627,811L629,812L632,814L635,815L637,817L639,818L641,819L643,821L645,822L647,823L649,824L652,825L655,826L657,827L660,827L663,828L664,828L666,828L666,826L662,817L654,809L643,799L631,791L621,783L611,777L601,771L592,766L584,761L574,757L565,752L555,747L545,742L536,735L528,729L523,725L520,721L518,718L517,716L517,715L517,714L518,714L520,714L526,715L536,719L543,723L551,727L558,732L562,735L566,739L571,745L578,751L586,759L596,769L607,778L618,787L630,796L639,802L647,807L655,811L660,813L663,813L665,813L665,811L664,806L658,799L651,792L644,785L635,778L625,772L617,766L607,760L598,754L589,748L580,742L574,737L568,732L564,727L560,723L557,719L555,716L555,714L555,713L555,712L556,712L559,712L563,715L569,719L576,724L584,730L592,737L601,744L612,753L623,762L633,771L641,777L649,784L657,791L664,798L669,802L674,805L678,806L681,807L682,807L682,806L681,802L676,795L670,788L662,781L654,775L646,768L638,762L628,756L621,751L614,747L606,742L599,736L593,732L586,726L579,721L574,716L570,712L568,709L566,706L566,704L566,703L567,703L577,704L585,706L592,710L599,715L605,721L611,727L618,736L628,746L638,755L648,765L660,774L669,781L680,790L688,795L694,800L699,803L704,805L708,806L711,807L713,807L714,807L714,802L712,792L706,782L696,767L684,754L673,742L664,733L655,726L647,718L638,710L628,703L619,695L610,687L601,679L593,672L584,665L574,656L565,649L553,640L542,631L530,622L519,614L511,607L502,600L494,593L488,588L486,584L485,582L485,581L487,581L498,584L509,589L523,596L534,605L542,612L550,620L557,627L563,635L567,641L572,647L577,653L582,659L587,665L592,671L596,677L599,683L608,697L613,707L616,712L618,716L620,721L622,725L625,729L627,734L630,738L632,743L635,747L637,751L640,756L642,760L645,764L648,770L654,777L660,784L666,792L672,799L677,804L682,809L686,813L690,816L693,819L695,822L697,823L699,825L701,826L704,827L706,828L708,829L709,829L704,823L696,816L682,808L673,803L658,798L646,792L631,787L617,782L602,776L588,769L572,762L558,755L545,749L533,742L524,736L517,731L512,727L510,725L509,723L514,723L524,727L534,733L544,741L555,749L565,758L574,768L581,776L588,785L593,793L600,802L610,812L619,821L631,828L643,835L654,841L663,845L670,847L675,848L677,847L677,838L672,829L660,819L648,811L638,806L626,801L616,797L604,793L594,789L579,783L569,778L558,773L548,766L542,761L537,757L533,755L533,754L533,753L535,753L543,757L552,763L560,770L568,777L576,785L583,795L590,802L596,811L604,819L612,827L621,834L631,839L640,844L648,847L655,849L660,849" stroke-opacity="1" stroke-width="1" stroke-linecap="round" stroke-linejoin="round" style="-webkit-tap-highlight-color: rgba(0, 0, 0, 0); stroke-opacity: 1; stroke-linecap: round; stroke-linejoin: round; -webkit-user-select: text;"></path><path fill="none" stroke="#000000" d="M653,836L643,827L636,821L629,817L619,811L608,807L596,803L584,799L571,795L559,792L547,788L534,785L519,781L503,776L489,770L475,762L465,757L458,753L453,749L452,748L452,746L461,747L473,751L487,759L500,767L511,775L519,781L528,789L535,797L541,804L548,811L555,818L562,824L569,831L577,836L585,842L593,848L602,852L610,856L616,858L622,860L626,861L630,862L633,862L635,862L637,862L639,862L640,862L640,858L634,851L622,841L609,833L596,827L582,820L570,816L556,811L544,808L531,805L519,801L508,798L497,794L489,790L481,786L476,783L472,780L470,778L470,776L470,775L475,775L485,777L494,781L503,786L511,793L516,798L522,803L527,808L533,814L538,820L545,827L554,833L562,839L570,844L577,847L583,849L586,851L588,851L589,851L586,846L577,840L567,834L556,828L545,823L533,818L521,813L510,810L497,806L487,802L476,798L467,794L460,790L453,785L448,781L446,778L443,775L443,773L443,772L445,772L455,773L464,778L477,785L487,793L499,801L509,810L519,819L527,827L535,834L542,841L550,847L560,853L569,859L580,864L589,869L598,873L604,875L606,875L601,868L589,860L576,852L562,844L548,837L537,833L524,829L513,827L500,824L487,822L471,819L459,816L443,811L428,805L413,797L401,788L391,782L383,776L377,771L372,768L370,766L369,765L380,767L394,773L409,781L423,790L436,798L448,806L456,813L464,820L472,827L479,832L485,837L491,843L498,848L504,852L508,856L513,858L517,861L523,864L529,868L533,870L538,874L543,877L548,880L551,882L556,885L560,886L563,887L566,888L568,889L570,889L570,887L570,883L566,875L555,866L543,860L529,853L516,848L500,842L486,838L469,834L452,830L436,825L421,821L410,816L398,811L387,805L379,798L374,793L371,788L370,786L371,785L381,786L395,793L407,800L419,807L429,814L437,821L446,829L456,838L464,846L473,853L482,859L490,866L499,871L506,875L511,879L515,880L518,881L519,881L520,881L520,878L517,874L511,869L501,864L490,859L475,853L463,847L450,841L438,834L425,829L413,822L401,814L392,807L385,802L379,796L376,793L375,790L375,789L382,789L392,794L405,802L417,810L430,819L443,829L455,840L465,849L474,856L485,865L495,873L506,880L514,885L520,887L524,888L527,888L528,887L528,881L520,874L507,867L493,861L479,856L465,850L451,845L437,839L423,834L412,830L397,824L385,818L371,811L361,805L351,799L341,792L335,787L332,784L330,783L337,784L350,792L363,801L375,810L387,820L398,829L410,838L424,849L437,857L450,865L462,873L475,880L485,886L493,890L502,892L509,892L516,892L525,889L528,885L530,882L530,881L527,879L521,878L513,875L502,872L491,868L477,864L462,860L447,856L431,850L415,844L399,837L382,829L363,820L349,812L336,806L327,802L317,798L309,794L299,790L289,787L283,784L280,783L282,783L297,787L316,797L331,805L352,817L368,827L382,837L399,849L411,859L426,869L437,878L446,885L455,890L461,892L468,895L475,895L481,896L487,897L494,898L500,898L505,899L510,900L515,900L520,900L526,900L531,900L536,900L542,900L547,900L554,900L557,898L557,895L548,883L531,867L515,854L500,841L489,831L482,823L480,819L480,817L480,816L484,816L499,818L509,821L526,828L541,834L555,842L566,850L577,856L587,861L595,866L605,871L614,876L625,881L636,885L644,888L653,890L663,890L669,891L674,891L676,890L677,886L676,877L668,866L657,857L646,849L632,839L616,829L599,817L587,808L575,799L567,792L562,787L561,784L561,783L561,782L563,782L573,785L587,792L601,801L616,812L630,823L641,832L650,839L658,845L664,849L670,853L676,857L682,860L688,864L694,868L699,871L704,874L709,877L714,880L718,883L722,885L726,887L729,888L733,889L736,890L739,891L742,892L746,892L748,892L750,892L750,891L750,888L743,881L730,870L717,861L701,853L682,843L664,833L647,824L630,814L619,807L612,801L609,797L609,795L609,794L618,794L634,798L644,803L658,812L669,824L679,835L688,847L697,859L707,871L716,883L724,890L733,895L744,898L751,900L755,900L757,900L759,900L757,900L754,899L745,896L730,890L716,882L700,875L682,867L666,861L649,856L634,849L621,843L614,838L611,836L610,834L613,834L623,837L637,844L649,851L662,859L673,868L684,878L693,886L699,891L705,895L709,897L715,899L720,900L725,900L731,900" stroke-opacity="1" stroke-width="1" stroke-linecap="round" stroke-linejoin="round" style="-webkit-tap-highlight-color: rgba(0, 0, 0, 0); stroke-opacity: 1; stroke-linecap: round; stroke-linejoin: round; -webkit-user-select: text;"></path><path fill="none" stroke="#000000" d="M725,901L714,901L700,901L683,899L666,897L647,890L626,879L611,871L596,863L582,856L570,849L562,841L555,836L553,834L552,832L553,832L561,836L572,844L585,853L596,864L608,875L618,887L627,895L635,899L641,900" stroke-opacity="1" stroke-width="1" stroke-linecap="round" stroke-linejoin="round" style="-webkit-tap-highlight-color: rgba(0, 0, 0, 0); stroke-opacity: 1; stroke-linecap: round; stroke-linejoin: round; -webkit-user-select: text;"></path><path fill="none" stroke="#000000" d="M642,901L632,901L621,900L608,899L592,893L573,883L558,875L542,866L528,857L514,848L504,839L497,832L493,829L493,827L494,827L509,834L523,845L537,856L549,867L560,880L569,892L575,898L580,900L584,900" stroke-opacity="1" stroke-width="1" stroke-linecap="round" stroke-linejoin="round" style="-webkit-tap-highlight-color: rgba(0, 0, 0, 0); stroke-opacity: 1; stroke-linecap: round; stroke-linejoin: round; -webkit-user-select: text;"></path><path fill="none" stroke="#000000" d="M582,901L573,901L563,900L553,899L544,897L535,894L525,890L517,886L507,881L497,876L487,871L476,866L465,861L452,855L441,850L431,845L421,841L413,837L404,834L394,830L387,827L379,824L372,820L364,817L357,814L350,812L342,809L336,807L328,805L321,802L314,800L308,798L300,795L293,793L284,790L276,787L267,785L259,783L252,781L244,779L237,777L230,776L223,775L215,773L208,772L203,771L197,769L190,768L183,767L178,765L172,764L168,763L162,761L158,760L154,759L151,757L148,756L145,755L142,754L139,753L135,752L132,751L130,750L127,749L125,748L123,746L121,746L119,744L117,743L115,742L112,741L110,740L108,738L105,737L103,736L101,734L99,733L97,732L96,731L93,730L92,729L90,728L88,727L86,727L84,725L81,725L79,724L78,723L76,722L74,722L73,721L72,720L71,720L69,719L68,718L67,717L66,716L64,715L63,715L62,714L60,713L59,713L57,712L56,711L54,711L53,710L51,710L50,709L49,708L47,708L45,707L44,707L43,706L42,706L41,706L40,705L39,705L38,705L37,705L36,704L35,704L33,704L32,703L30,703L29,703L28,703L27,703L26,702L25,702L24,702L23,701L22,701L20,701L18,701L16,701L15,701L14,700L13,700L12,700L11,700L10,700L9,700L8,700L7,700L6,700L5,700L4,700L3,700L2,700" stroke-opacity="1" stroke-width="1" stroke-linecap="round" stroke-linejoin="round" style="-webkit-tap-highlight-color: rgba(0, 0, 0, 0); stroke-opacity: 1; stroke-linecap: round; stroke-linejoin: round; -webkit-user-select: text;"></path></svg>