<svg height="906" version="1.1" width="768" xmlns="http://www.w3.org/2000/svg" xmlns:xlink="http://www.w3.org/1999/xlink" style="overflow: hidden; position: relative; -webkit-user-select: text;"><desc style="-webkit-tap-highlight-color: rgba(0, 0, 0, 0); -webkit-user-select: text;">Created with Raphaël 2.2.0</desc><defs style="-webkit-tap-highlight-color: rgba(0, 0, 0, 0); -webkit-user-select: text;"></defs><path fill="none" stroke="#0f0000" d="M133,25L136,30L137,31L138,33L140,35L142,37L143,40L144,42L146,45L148,47L149,50L151,53L153,56L155,59L157,62L159,66L161,69L164,72L166,75L169,79L171,82L175,86L177,89L180,93L183,97L186,101L188,105L191,109L194,113L196,116L199,120L202,124L205,128L207,132L210,136L212,140L215,144L217,147L219,151L222,154L224,157L225,160L227,164L229,166L231,169L233,173L235,176L237,179L239,182L240,185L242,188L244,191L246,193L247,196L249,198L250,201L252,204L254,207L255,210L257,212L259,215L260,217L262,220L263,222L265,225L266,227L268,229L270,232L272,234L273,237L275,239L276,241L278,243L279,245L281,248L283,250" stroke-opacity="1" stroke-width="2" stroke-linecap="round" stroke-linejoin="round" style="-webkit-tap-highlight-color: rgba(0, 0, 0, 0); stroke-opacity: 1; stroke-linecap: round; stroke-linejoin: round; -webkit-user-select: text;"></path><path fill="none" stroke="#0f0000" d="M203,54L204,57L205,62L211,68L218,75L225,83L232,91L239,98L245,107L251,115L258,123L264,132L270,140L277,149L283,158L289,167L295,175L301,183L306,191L311,197L315,204L320,211L324,217L329,224L332,230L336,237L340,243L344,249L349,256L353,263L358,270L362,277L366,283L370,290L375,296L378,302L382,306L386,311L391,315L395,319" stroke-opacity="1" stroke-width="2" stroke-linecap="round" stroke-linejoin="round" style="-webkit-tap-highlight-color: rgba(0, 0, 0, 0); stroke-opacity: 1; stroke-linecap: round; stroke-linejoin: round; -webkit-user-select: text;"></path><path fill="none" stroke="#0f0000" d="M292,94L295,101L299,105L302,110L307,116L312,122L317,128L322,135L327,141L331,147L336,154L341,161L346,168L351,175L355,182L359,188L364,195L369,201L375,208L380,214L384,221L389,227L394,233L399,239L404,245L408,251L411,256L414,261L418,266L422,270L426,274" stroke-opacity="1" stroke-width="2" stroke-linecap="round" stroke-linejoin="round" style="-webkit-tap-highlight-color: rgba(0, 0, 0, 0); stroke-opacity: 1; stroke-linecap: round; stroke-linejoin: round; -webkit-user-select: text;"></path><path fill="none" stroke="#0f0000" d="M354,107L356,110L356,114L359,120L363,127L368,134L373,141L378,148L383,154L387,161L393,168L398,174L404,180L409,186L414,191L417,194" stroke-opacity="1" stroke-width="2" stroke-linecap="round" stroke-linejoin="round" style="-webkit-tap-highlight-color: rgba(0, 0, 0, 0); stroke-opacity: 1; stroke-linecap: round; stroke-linejoin: round; -webkit-user-select: text;"></path><path fill="none" stroke="#0f0000" d="M401,99L403,104L406,109L410,115L414,122L419,128L424,135L429,141L433,146L437,150L441,153L444,155" stroke-opacity="1" stroke-width="2" stroke-linecap="round" stroke-linejoin="round" style="-webkit-tap-highlight-color: rgba(0, 0, 0, 0); stroke-opacity: 1; stroke-linecap: round; stroke-linejoin: round; -webkit-user-select: text;"></path><path fill="none" stroke="#0f0000" d="M383,40L389,47L394,53L400,61L407,70L412,78L419,86L425,95L431,104L438,113L444,123L451,132L457,141L463,150L469,159L475,169L481,178L487,187L493,196L499,205L506,214L513,223L519,232L525,241L532,249L538,257L543,265L548,272L552,278L555,284L559,289L562,295L565,299L566,301" stroke-opacity="1" stroke-width="2" stroke-linecap="round" stroke-linejoin="round" style="-webkit-tap-highlight-color: rgba(0, 0, 0, 0); stroke-opacity: 1; stroke-linecap: round; stroke-linejoin: round; -webkit-user-select: text;"></path><path fill="none" stroke="#0f0000" d="M419,155L429,166L433,171L437,177L443,186L450,195L457,203L463,212L468,220L472,227L475,232L477,235" stroke-opacity="1" stroke-width="2" stroke-linecap="round" stroke-linejoin="round" style="-webkit-tap-highlight-color: rgba(0, 0, 0, 0); stroke-opacity: 1; stroke-linecap: round; stroke-linejoin: round; -webkit-user-select: text;"></path><path fill="none" stroke="#0f0000" d="M388,185L392,189L397,194L402,200L408,207L412,213L417,220L421,225L424,229L425,231" stroke-opacity="1" stroke-width="2" stroke-linecap="round" stroke-linejoin="round" style="-webkit-tap-highlight-color: rgba(0, 0, 0, 0); stroke-opacity: 1; stroke-linecap: round; stroke-linejoin: round; -webkit-user-select: text;"></path><path fill="none" stroke="#0f0000" d="M328,181L333,188L339,194L346,201L352,208L358,216L364,224L368,229L372,232L374,234" stroke-opacity="1" stroke-width="2" stroke-linecap="round" stroke-linejoin="round" style="-webkit-tap-highlight-color: rgba(0, 0, 0, 0); stroke-opacity: 1; stroke-linecap: round; stroke-linejoin: round; -webkit-user-select: text;"></path><path fill="none" stroke="#0f0000" d="M266,105L269,113L273,120L279,129L286,139L293,149L302,160L309,170L316,181L324,191L330,202L336,212L343,222L350,233L356,243L363,254L370,263L377,274L383,283L388,293L395,302L400,312L406,320L412,329L418,338L423,346L429,356L434,364L438,372L443,380L448,387L452,394L456,401L458,407L460,410" stroke-opacity="1" stroke-width="2" stroke-linecap="round" stroke-linejoin="round" style="-webkit-tap-highlight-color: rgba(0, 0, 0, 0); stroke-opacity: 1; stroke-linecap: round; stroke-linejoin: round; -webkit-user-select: text;"></path><path fill="none" stroke="#0f0000" d="M313,254L316,256L319,263L324,271L330,280L339,292L347,303L354,312L360,320L363,324" stroke-opacity="1" stroke-width="2" stroke-linecap="round" stroke-linejoin="round" style="-webkit-tap-highlight-color: rgba(0, 0, 0, 0); stroke-opacity: 1; stroke-linecap: round; stroke-linejoin: round; -webkit-user-select: text;"></path><path fill="none" stroke="#0f0000" d="M274,216L278,222L283,229L289,238L295,247L302,255L306,261L308,264" stroke-opacity="1" stroke-width="2" stroke-linecap="round" stroke-linejoin="round" style="-webkit-tap-highlight-color: rgba(0, 0, 0, 0); stroke-opacity: 1; stroke-linecap: round; stroke-linejoin: round; -webkit-user-select: text;"></path><path fill="none" stroke="#0f0000" d="M188,163L198,172L205,180L214,191L221,199L228,207L234,213L237,217" stroke-opacity="1" stroke-width="2" stroke-linecap="round" stroke-linejoin="round" style="-webkit-tap-highlight-color: rgba(0, 0, 0, 0); stroke-opacity: 1; stroke-linecap: round; stroke-linejoin: round; -webkit-user-select: text;"></path><path fill="none" stroke="#0f0000" d="M97,89L104,101L110,110L118,122L127,133L136,145L146,156L156,168L166,180L175,193L185,205L195,219L204,233L214,247L224,262L234,276L245,290L255,304L264,318L273,331L280,342L288,353L295,361L302,371L309,380L315,389L319,395L322,400" stroke-opacity="1" stroke-width="2" stroke-linecap="round" stroke-linejoin="round" style="-webkit-tap-highlight-color: rgba(0, 0, 0, 0); stroke-opacity: 1; stroke-linecap: round; stroke-linejoin: round; -webkit-user-select: text;"></path><path fill="none" stroke="#0f0000" d="M154,238L161,247L169,256L178,267L189,280L200,292L212,305L222,315L229,323L234,329L236,331" stroke-opacity="1" stroke-width="2" stroke-linecap="round" stroke-linejoin="round" style="-webkit-tap-highlight-color: rgba(0, 0, 0, 0); stroke-opacity: 1; stroke-linecap: round; stroke-linejoin: round; -webkit-user-select: text;"></path><path fill="none" stroke="#0f0000" d="M102,191L113,200L118,207L127,217L136,227L144,238L154,249L163,260L172,271L182,283L192,294L201,305L211,317L220,329L229,340L237,351L246,361L254,371L262,381L269,389L277,398L284,406L291,414L298,423L304,431L310,439L316,447L323,453L329,459L334,465L341,472" stroke-opacity="1" stroke-width="2" stroke-linecap="round" stroke-linejoin="round" style="-webkit-tap-highlight-color: rgba(0, 0, 0, 0); stroke-opacity: 1; stroke-linecap: round; stroke-linejoin: round; -webkit-user-select: text;"></path><path fill="none" stroke="#0f0000" d="M210,244L215,251L219,260L226,268L235,279L244,290L253,300L263,311L273,322L283,333L293,344L303,354L312,365L319,373L327,383L336,392L343,401L350,410L357,419L363,427L370,435L376,443L382,451L388,459L394,468L400,476L407,484L415,491L422,497L430,504L437,510L444,515L451,520L457,524L463,528L468,531L474,535" stroke-opacity="1" stroke-width="2" stroke-linecap="round" stroke-linejoin="round" style="-webkit-tap-highlight-color: rgba(0, 0, 0, 0); stroke-opacity: 1; stroke-linecap: round; stroke-linejoin: round; -webkit-user-select: text;"></path><path fill="none" stroke="#0f0000" d="M297,266L303,276L308,284L317,295L326,305L336,315L346,325L355,336L365,347L373,357L382,367L389,375L396,385L403,395L409,405L416,415L421,424L427,434L432,443L438,451L443,459L449,468L454,475L460,483L465,490L470,497L475,504L482,511L487,519L493,526L499,533L506,540L513,547L519,554L525,560L532,565L538,570L545,575L552,579L559,582L565,582" stroke-opacity="1" stroke-width="2" stroke-linecap="round" stroke-linejoin="round" style="-webkit-tap-highlight-color: rgba(0, 0, 0, 0); stroke-opacity: 1; stroke-linecap: round; stroke-linejoin: round; -webkit-user-select: text;"></path><path fill="none" stroke="#0f0000" d="M368,237L370,248L373,255L378,264L385,274L393,286L402,297L410,307L419,317L428,328L436,339L442,349L449,360L455,370L462,379L468,389L474,398L480,407L485,415L491,423L497,431L503,438L509,445L515,452L521,459L526,466L531,472L536,478L541,485L547,492L552,498L557,505L562,511L567,518L572,524L577,531L582,538L588,546L593,552L598,559L603,566L609,573L614,579L619,586L624,593L630,600L636,609L644,621L653,633" stroke-opacity="1" stroke-width="2" stroke-linecap="round" stroke-linejoin="round" style="-webkit-tap-highlight-color: rgba(0, 0, 0, 0); stroke-opacity: 1; stroke-linecap: round; stroke-linejoin: round; -webkit-user-select: text;"></path><path fill="none" stroke="#0f0000" d="M423,273L426,279L430,288L438,299L448,311L458,324L468,338L479,351L490,364L500,377L510,390L520,403L529,417L538,430L548,443L556,456L566,468L575,479L584,490L592,500L601,509L610,520L617,528L624,538L631,548L638,556L644,565L650,573L656,581L662,588L669,596L676,603L682,612L689,623" stroke-opacity="1" stroke-width="2" stroke-linecap="round" stroke-linejoin="round" style="-webkit-tap-highlight-color: rgba(0, 0, 0, 0); stroke-opacity: 1; stroke-linecap: round; stroke-linejoin: round; -webkit-user-select: text;"></path><path fill="none" stroke="#0f0000" d="M431,219L435,224L443,233L452,244L465,260L479,276L492,293L506,311L519,331L532,351L545,371L558,390L571,407L584,424L596,441L606,453L617,463L626,471L632,475" stroke-opacity="1" stroke-width="2" stroke-linecap="round" stroke-linejoin="round" style="-webkit-tap-highlight-color: rgba(0, 0, 0, 0); stroke-opacity: 1; stroke-linecap: round; stroke-linejoin: round; -webkit-user-select: text;"></path><path fill="none" stroke="#0f0000" d="M417,177L419,180L423,187L431,197L442,209L454,222L468,237L479,250L492,266L502,279L514,293L526,307L536,320L546,334L554,347L562,359L570,370L576,380L582,389L589,398L594,406L600,414L605,421L611,429L616,437L620,444L626,452L630,458L635,464L640,469L643,473L647,477L649,480L651,482L652,482L652,476" stroke-opacity="1" stroke-width="2" stroke-linecap="round" stroke-linejoin="round" style="-webkit-tap-highlight-color: rgba(0, 0, 0, 0); stroke-opacity: 1; stroke-linecap: round; stroke-linejoin: round; -webkit-user-select: text;"></path><path fill="none" stroke="#0f0000" d="M404,216L409,221L419,232L433,248L446,266L461,284L476,302L492,322L507,342L521,361L535,378L547,392L556,404L565,416L571,424L575,430" stroke-opacity="1" stroke-width="2" stroke-linecap="round" stroke-linejoin="round" style="-webkit-tap-highlight-color: rgba(0, 0, 0, 0); stroke-opacity: 1; stroke-linecap: round; stroke-linejoin: round; -webkit-user-select: text;"></path><path fill="none" stroke="#0f0000" d="M319,212L320,216L321,225L326,235L334,248L344,263L356,277L370,293L381,305L395,321L407,336L417,349L427,364L437,378L447,392L455,405L465,419L472,432L480,445L488,457L496,468L504,480L512,490L521,501L528,511L537,521L545,531L552,539L560,548L566,555L572,561L577,566L581,569" stroke-opacity="1" stroke-width="2" stroke-linecap="round" stroke-linejoin="round" style="-webkit-tap-highlight-color: rgba(0, 0, 0, 0); stroke-opacity: 1; stroke-linecap: round; stroke-linejoin: round; -webkit-user-select: text;"></path><path fill="none" stroke="#0f0000" d="M299,291L306,294L313,304L324,317L336,331L350,347L363,362L374,374L385,386L396,395L403,402L407,405" stroke-opacity="1" stroke-width="2" stroke-linecap="round" stroke-linejoin="round" style="-webkit-tap-highlight-color: rgba(0, 0, 0, 0); stroke-opacity: 1; stroke-linecap: round; stroke-linejoin: round; -webkit-user-select: text;"></path><path fill="none" stroke="#0f0000" d="M240,284L249,291L258,300L268,313L280,326L293,339L306,352L321,367L332,378L344,391L353,402L361,410L365,416L367,419L367,420" stroke-opacity="1" stroke-width="2" stroke-linecap="round" stroke-linejoin="round" style="-webkit-tap-highlight-color: rgba(0, 0, 0, 0); stroke-opacity: 1; stroke-linecap: round; stroke-linejoin: round; -webkit-user-select: text;"></path><path fill="none" stroke="#0f0000" d="M182,293L187,302L195,314L208,332L221,349L234,366L249,384L263,400L277,414L286,425L295,436L300,442L300,445" stroke-opacity="1" stroke-width="2" stroke-linecap="round" stroke-linejoin="round" style="-webkit-tap-highlight-color: rgba(0, 0, 0, 0); stroke-opacity: 1; stroke-linecap: round; stroke-linejoin: round; -webkit-user-select: text;"></path><path fill="none" stroke="#0f0000" d="M113,249L117,260L122,270L131,282L142,295L154,308L166,321L178,334L189,345L196,353L199,356" stroke-opacity="1" stroke-width="2" stroke-linecap="round" stroke-linejoin="round" style="-webkit-tap-highlight-color: rgba(0, 0, 0, 0); stroke-opacity: 1; stroke-linecap: round; stroke-linejoin: round; -webkit-user-select: text;"></path><path fill="none" stroke="#0f0000" d="M15,171L23,181L32,191L-725,201L-714,213L-702,225L-690,239L-679,252L-667,266L-657,279L-646,293L-636,307L-627,321L-618,335L-608,349L-599,364L-590,377L-581,392L-573,405L-564,418L-556,430L-547,442L-538,454L-529,467L-520,480L-511,493L-503,504L-496,514L-489,522L-485,527L-482,531L-479,534L-477,536L-476,537L-476,538L-478,537L-482,534L-487,531L-494,528L-500,525L-507,522L-515,519L-522,517L-529,515L-537,513L-544,511L-551,509L-559,507L-567,504L-575,502L-585,498L-595,494L-606,489L-618,484" stroke-opacity="1" stroke-width="2" stroke-linecap="round" stroke-linejoin="round" style="-webkit-tap-highlight-color: rgba(0, 0, 0, 0); stroke-opacity: 1; stroke-linecap: round; stroke-linejoin: round; -webkit-user-select: text;"></path><path fill="none" stroke="#0f0000" d="M72,202L73,207L74,216L81,229L89,243L100,259L112,276L124,291L136,307L147,324L159,341L169,357L178,372L188,387L198,403L207,418L217,433L225,447L234,461L243,474L251,486L261,498L271,510L280,522L290,533L299,544L307,553L314,563L319,569" stroke-opacity="1" stroke-width="2" stroke-linecap="round" stroke-linejoin="round" style="-webkit-tap-highlight-color: rgba(0, 0, 0, 0); stroke-opacity: 1; stroke-linecap: round; stroke-linejoin: round; -webkit-user-select: text;"></path><path fill="none" stroke="#0f0000" d="M55,231L60,242L67,252L76,267L88,284L101,300L115,317L130,334L144,348L154,358L162,365" stroke-opacity="1" stroke-width="2" stroke-linecap="round" stroke-linejoin="round" style="-webkit-tap-highlight-color: rgba(0, 0, 0, 0); stroke-opacity: 1; stroke-linecap: round; stroke-linejoin: round; -webkit-user-select: text;"></path><path fill="none" stroke="#0f0000" d="M69,127L82,144L90,154L99,166L109,179L120,193L133,208L144,221L158,238L171,252L184,267L196,281L209,296L219,309L230,324L240,338L251,352L261,366L271,380L282,393L292,407L301,420L310,433L319,445L327,456L335,468L343,478L350,487L356,496L363,504L368,510L373,515L376,516" stroke-opacity="1" stroke-width="2" stroke-linecap="round" stroke-linejoin="round" style="-webkit-tap-highlight-color: rgba(0, 0, 0, 0); stroke-opacity: 1; stroke-linecap: round; stroke-linejoin: round; -webkit-user-select: text;"></path><path fill="none" stroke="#0f0000" d="M222,372L226,378L234,387L242,398L254,411L268,427L280,442L292,457L302,470L311,482L317,491L319,497L319,499" stroke-opacity="1" stroke-width="2" stroke-linecap="round" stroke-linejoin="round" style="-webkit-tap-highlight-color: rgba(0, 0, 0, 0); stroke-opacity: 1; stroke-linecap: round; stroke-linejoin: round; -webkit-user-select: text;"></path><path fill="none" stroke="#0f0000" d="M140,383L147,389L155,398L165,409L176,421L187,434L198,446L207,456L213,463L215,467" stroke-opacity="1" stroke-width="2" stroke-linecap="round" stroke-linejoin="round" style="-webkit-tap-highlight-color: rgba(0, 0, 0, 0); stroke-opacity: 1; stroke-linecap: round; stroke-linejoin: round; -webkit-user-select: text;"></path><path fill="none" stroke="#0f0000" d="M64,319L67,323L71,332L79,343L89,357L100,371L111,384L123,396L134,409L144,419L152,425L156,426" stroke-opacity="1" stroke-width="2" stroke-linecap="round" stroke-linejoin="round" style="-webkit-tap-highlight-color: rgba(0, 0, 0, 0); stroke-opacity: 1; stroke-linecap: round; stroke-linejoin: round; -webkit-user-select: text;"></path><path fill="none" stroke="#0f0000" d="M62,259L65,267L68,276L75,287L84,298L93,310L104,322L115,335L126,348L137,361L149,373L160,386L171,399L181,412L191,424L200,436L210,448L218,460L227,471L236,482L245,494L254,505L263,516L273,527L281,538L290,549L298,559L305,568L312,577L319,586L325,594L330,600L336,605L341,609L344,611" stroke-opacity="1" stroke-width="2" stroke-linecap="round" stroke-linejoin="round" style="-webkit-tap-highlight-color: rgba(0, 0, 0, 0); stroke-opacity: 1; stroke-linecap: round; stroke-linejoin: round; -webkit-user-select: text;"></path><path fill="none" stroke="#0f0000" d="M157,417L160,422L166,433L173,445L186,462L198,477L211,492L223,507L232,519L239,528L243,533" stroke-opacity="1" stroke-width="2" stroke-linecap="round" stroke-linejoin="round" style="-webkit-tap-highlight-color: rgba(0, 0, 0, 0); stroke-opacity: 1; stroke-linecap: round; stroke-linejoin: round; -webkit-user-select: text;"></path><path fill="none" stroke="#0f0000" d="M107,417L111,421L119,428L128,439L139,451L151,463L164,474L176,485L190,497L203,509L215,522L226,534L237,546L247,558L256,569L265,581L274,592L283,603L291,614L300,624L308,635L316,645L324,655L332,665L340,675L348,686L357,696L365,707L373,717L378,725L384,733L390,741L394,747L396,749" stroke-opacity="1" stroke-width="2" stroke-linecap="round" stroke-linejoin="round" style="-webkit-tap-highlight-color: rgba(0, 0, 0, 0); stroke-opacity: 1; stroke-linecap: round; stroke-linejoin: round; -webkit-user-select: text;"></path><path fill="none" stroke="#0f0000" d="M264,521L269,533L275,544L284,559L297,576L310,592L323,609L336,624L349,638L359,647L366,651L368,651" stroke-opacity="1" stroke-width="2" stroke-linecap="round" stroke-linejoin="round" style="-webkit-tap-highlight-color: rgba(0, 0, 0, 0); stroke-opacity: 1; stroke-linecap: round; stroke-linejoin: round; -webkit-user-select: text;"></path><path fill="none" stroke="#0f0000" d="M222,427L234,441L244,453L256,468L270,483L283,497L297,510L307,520L315,528L320,531L322,531" stroke-opacity="1" stroke-width="2" stroke-linecap="round" stroke-linejoin="round" style="-webkit-tap-highlight-color: rgba(0, 0, 0, 0); stroke-opacity: 1; stroke-linecap: round; stroke-linejoin: round; -webkit-user-select: text;"></path><path fill="none" stroke="#0f0000" d="M185,318L193,327L202,336L213,348L227,363L241,379L256,394L272,410L288,426L302,442L316,458L329,475L341,490L353,505L363,519L373,535L381,550L390,565L398,579L407,592L415,605L423,617L430,626L436,635L439,640L440,641L440,636" stroke-opacity="1" stroke-width="2" stroke-linecap="round" stroke-linejoin="round" style="-webkit-tap-highlight-color: rgba(0, 0, 0, 0); stroke-opacity: 1; stroke-linecap: round; stroke-linejoin: round; -webkit-user-select: text;"></path><path fill="none" stroke="#0f0000" d="M247,335L249,337L254,342L262,351L272,362L282,373L293,385L304,397L315,409L326,421L337,433L347,444L356,455L366,465L374,475L381,484L388,493L395,502L402,511L409,519L416,528L423,537L431,546L438,555L446,564L453,572L460,581L467,590L473,597L477,601L479,601" stroke-opacity="1" stroke-width="2" stroke-linecap="round" stroke-linejoin="round" style="-webkit-tap-highlight-color: rgba(0, 0, 0, 0); stroke-opacity: 1; stroke-linecap: round; stroke-linejoin: round; -webkit-user-select: text;"></path><path fill="none" stroke="#0f0000" d="M380,400L387,412L394,421L404,436L414,450L425,464L435,476L446,486L454,494L460,500L462,504" stroke-opacity="1" stroke-width="2" stroke-linecap="round" stroke-linejoin="round" style="-webkit-tap-highlight-color: rgba(0, 0, 0, 0); stroke-opacity: 1; stroke-linecap: round; stroke-linejoin: round; -webkit-user-select: text;"></path><path fill="none" stroke="#0f0000" d="M221,216L229,227L234,235L242,247L251,259L262,270L272,282L283,294L294,306L304,319L314,331L324,344L333,356L343,369L353,381L362,394L371,405L380,417L389,428L397,439L407,451L415,463L424,475L434,486L443,498L453,510L462,521L472,533L481,543L489,554L497,562L504,570L510,577L514,583L518,587L520,589L520,588" stroke-opacity="1" stroke-width="2" stroke-linecap="round" stroke-linejoin="round" style="-webkit-tap-highlight-color: rgba(0, 0, 0, 0); stroke-opacity: 1; stroke-linecap: round; stroke-linejoin: round; -webkit-user-select: text;"></path><path fill="none" stroke="#0f0000" d="M382,321L385,325L392,335L401,348L414,366L427,382L443,399L457,414L468,426L480,439L489,448L495,454L499,456" stroke-opacity="1" stroke-width="2" stroke-linecap="round" stroke-linejoin="round" style="-webkit-tap-highlight-color: rgba(0, 0, 0, 0); stroke-opacity: 1; stroke-linecap: round; stroke-linejoin: round; -webkit-user-select: text;"></path><path fill="none" stroke="#0f0000" d="M401,271L403,276L409,284L420,297L434,312L447,328L460,343L475,358L488,373L499,384L511,395L521,405L527,411L531,414L532,414" stroke-opacity="1" stroke-width="2" stroke-linecap="round" stroke-linejoin="round" style="-webkit-tap-highlight-color: rgba(0, 0, 0, 0); stroke-opacity: 1; stroke-linecap: round; stroke-linejoin: round; -webkit-user-select: text;"></path><path fill="none" stroke="#0f0000" d="M436,241L437,244L443,252L452,265L465,281L478,296L491,310L502,323L514,335L523,344L530,350L534,351" stroke-opacity="1" stroke-width="2" stroke-linecap="round" stroke-linejoin="round" style="-webkit-tap-highlight-color: rgba(0, 0, 0, 0); stroke-opacity: 1; stroke-linecap: round; stroke-linejoin: round; -webkit-user-select: text;"></path><path fill="none" stroke="#0f0000" d="M433,129L440,138L443,147L451,158L459,169L470,181L480,193L490,205L500,217L510,229L520,242L530,253L540,266L549,277L558,289L567,300L576,311L584,322L592,332L601,342L608,350L615,359L622,367L629,375L636,381L641,385L645,388L646,388L645,378" stroke-opacity="1" stroke-width="2" stroke-linecap="round" stroke-linejoin="round" style="-webkit-tap-highlight-color: rgba(0, 0, 0, 0); stroke-opacity: 1; stroke-linecap: round; stroke-linejoin: round; -webkit-user-select: text;"></path><path fill="none" stroke="#0f0000" d="M451,71L459,80L467,89L478,103L491,121L503,137L516,152L526,163L538,174L548,183L555,190L560,194L562,194L561,186" stroke-opacity="1" stroke-width="2" stroke-linecap="round" stroke-linejoin="round" style="-webkit-tap-highlight-color: rgba(0, 0, 0, 0); stroke-opacity: 1; stroke-linecap: round; stroke-linejoin: round; -webkit-user-select: text;"></path><path fill="none" stroke="#0f0000" d="M452,30L454,32L459,40L467,51L477,64L487,78L498,92L509,106L521,120L532,134L544,147L555,161L565,174L576,186L586,199L596,212L604,224L613,237L621,248L630,258L636,267L643,275L649,283L654,289L657,295L658,295L658,293" stroke-opacity="1" stroke-width="2" stroke-linecap="round" stroke-linejoin="round" style="-webkit-tap-highlight-color: rgba(0, 0, 0, 0); stroke-opacity: 1; stroke-linecap: round; stroke-linejoin: round; -webkit-user-select: text;"></path><path fill="none" stroke="#0f0000" d="M477,129L482,135L490,145L501,157L516,174L531,191L546,208L561,225L575,241L588,254L599,266L607,276L612,281L612,282" stroke-opacity="1" stroke-width="2" stroke-linecap="round" stroke-linejoin="round" style="-webkit-tap-highlight-color: rgba(0, 0, 0, 0); stroke-opacity: 1; stroke-linecap: round; stroke-linejoin: round; -webkit-user-select: text;"></path><path fill="none" stroke="#0f0000" d="M487,232L502,253L514,268L526,285L540,301L553,317L566,332L579,346L590,357L601,370L609,381L615,389L616,392" stroke-opacity="1" stroke-width="2" stroke-linecap="round" stroke-linejoin="round" style="-webkit-tap-highlight-color: rgba(0, 0, 0, 0); stroke-opacity: 1; stroke-linecap: round; stroke-linejoin: round; -webkit-user-select: text;"></path><path fill="none" stroke="#0f0000" d="M460,356L464,368L470,382L480,401L491,419L502,437L511,452L522,466L533,478L543,490L551,500L556,508L556,512" stroke-opacity="1" stroke-width="2" stroke-linecap="round" stroke-linejoin="round" style="-webkit-tap-highlight-color: rgba(0, 0, 0, 0); stroke-opacity: 1; stroke-linecap: round; stroke-linejoin: round; -webkit-user-select: text;"></path><path fill="none" stroke="#0f0000" d="M359,346L363,351L370,359L378,369L388,382L398,395L410,409L422,422L436,436L447,449L458,463L468,476L477,488L485,500L494,512L503,523L511,534L519,545L527,556L535,567L544,577L552,587L561,596L570,605L577,613L586,621L593,629L600,638L606,645L609,650" stroke-opacity="1" stroke-width="2" stroke-linecap="round" stroke-linejoin="round" style="-webkit-tap-highlight-color: rgba(0, 0, 0, 0); stroke-opacity: 1; stroke-linecap: round; stroke-linejoin: round; -webkit-user-select: text;"></path><path fill="none" stroke="#0f0000" d="M404,501L410,508L419,519L432,536L445,553L458,569L471,583L481,594L490,604L497,611L502,614" stroke-opacity="1" stroke-width="2" stroke-linecap="round" stroke-linejoin="round" style="-webkit-tap-highlight-color: rgba(0, 0, 0, 0); stroke-opacity: 1; stroke-linecap: round; stroke-linejoin: round; -webkit-user-select: text;"></path><path fill="none" stroke="#0f0000" d="M313,439L319,451L327,461L336,472L347,485L360,501L370,514L383,530L395,543L406,556L417,570L427,582L436,595L444,606L452,618L460,629L467,640L472,649L478,659L485,668L492,677L498,686L504,694L511,703L517,711L523,720L529,727L536,733L543,740L550,747L556,754L560,761L564,767L565,771L564,771" stroke-opacity="1" stroke-width="2" stroke-linecap="round" stroke-linejoin="round" style="-webkit-tap-highlight-color: rgba(0, 0, 0, 0); stroke-opacity: 1; stroke-linecap: round; stroke-linejoin: round; -webkit-user-select: text;"></path><path fill="none" stroke="#0f0000" d="M353,582L360,589L371,600L387,614L402,632L418,650L435,669L453,687L470,704L485,721L494,734L499,744L499,747L490,742" stroke-opacity="1" stroke-width="2" stroke-linecap="round" stroke-linejoin="round" style="-webkit-tap-highlight-color: rgba(0, 0, 0, 0); stroke-opacity: 1; stroke-linecap: round; stroke-linejoin: round; -webkit-user-select: text;"></path><path fill="none" stroke="#0f0000" d="M329,610L336,617L346,628L362,644L378,661L392,678L407,694L420,709L430,721L436,729L436,732" stroke-opacity="1" stroke-width="2" stroke-linecap="round" stroke-linejoin="round" style="-webkit-tap-highlight-color: rgba(0, 0, 0, 0); stroke-opacity: 1; stroke-linecap: round; stroke-linejoin: round; -webkit-user-select: text;"></path><path fill="none" stroke="#0f0000" d="M205,545L205,553L210,562L220,574L237,589L257,605L278,621L298,640L317,659L335,676L348,686L353,689" stroke-opacity="1" stroke-width="2" stroke-linecap="round" stroke-linejoin="round" style="-webkit-tap-highlight-color: rgba(0, 0, 0, 0); stroke-opacity: 1; stroke-linecap: round; stroke-linejoin: round; -webkit-user-select: text;"></path><path fill="none" stroke="#0f0000" d="M100,420L108,434L117,446L127,458L138,470L150,481L161,492L173,503L183,514L193,527L203,538L212,550L219,560L227,572L233,581L239,592L246,602L252,612L259,622L266,632L273,641L280,651L287,660L294,669L302,679L309,686L316,694L321,699L326,704L329,707L332,709L333,709L319,690" stroke-opacity="1" stroke-width="2" stroke-linecap="round" stroke-linejoin="round" style="-webkit-tap-highlight-color: rgba(0, 0, 0, 0); stroke-opacity: 1; stroke-linecap: round; stroke-linejoin: round; -webkit-user-select: text;"></path><path fill="none" stroke="#0f0000" d="M123,510L130,519L138,528L152,543L166,559L181,577L194,593L207,609L218,624L227,637L232,645" stroke-opacity="1" stroke-width="2" stroke-linecap="round" stroke-linejoin="round" style="-webkit-tap-highlight-color: rgba(0, 0, 0, 0); stroke-opacity: 1; stroke-linecap: round; stroke-linejoin: round; -webkit-user-select: text;"></path><path fill="none" stroke="#0f0000" d="M67,514L71,518L79,527L88,538L98,550L109,562L120,575L131,588L141,601L152,614L161,626L171,639L180,651L188,663L196,675L205,686L213,696L220,707L229,718L237,729L245,740L253,750L262,760L269,769L277,778L283,785L288,791L293,797L298,801L302,802L303,798" stroke-opacity="1" stroke-width="2" stroke-linecap="round" stroke-linejoin="round" style="-webkit-tap-highlight-color: rgba(0, 0, 0, 0); stroke-opacity: 1; stroke-linecap: round; stroke-linejoin: round; -webkit-user-select: text;"></path><path fill="none" stroke="#0f0000" d="M149,559L153,567L161,579L174,599L190,618L207,639L224,660L242,680L261,697L279,712L292,722L299,725" stroke-opacity="1" stroke-width="2" stroke-linecap="round" stroke-linejoin="round" style="-webkit-tap-highlight-color: rgba(0, 0, 0, 0); stroke-opacity: 1; stroke-linecap: round; stroke-linejoin: round; -webkit-user-select: text;"></path><path fill="none" stroke="#0f0000" d="M165,506L174,511L185,522L203,538L219,556L237,576L256,595L275,614L293,632L310,650L326,666L337,677L348,686L353,687L353,682" stroke-opacity="1" stroke-width="2" stroke-linecap="round" stroke-linejoin="round" style="-webkit-tap-highlight-color: rgba(0, 0, 0, 0); stroke-opacity: 1; stroke-linecap: round; stroke-linejoin: round; -webkit-user-select: text;"></path><path fill="none" stroke="#0f0000" d="M263,520L269,529L280,543L295,560L312,579L329,597L346,616L363,634L380,650L396,664L407,672L415,676" stroke-opacity="1" stroke-width="2" stroke-linecap="round" stroke-linejoin="round" style="-webkit-tap-highlight-color: rgba(0, 0, 0, 0); stroke-opacity: 1; stroke-linecap: round; stroke-linejoin: round; -webkit-user-select: text;"></path><path fill="none" stroke="#0f0000" d="M299,465L307,480L314,491L324,503L336,515L346,528L357,539L367,550L376,561L386,570L393,578L401,587L409,596L415,604L421,612L426,621L432,629L438,637L443,645L449,653L455,661L462,669L468,677L474,685L480,692L487,699L493,706L499,712L506,719L511,724L516,730L522,738L526,747L529,754L531,759L530,761" stroke-opacity="1" stroke-width="2" stroke-linecap="round" stroke-linejoin="round" style="-webkit-tap-highlight-color: rgba(0, 0, 0, 0); stroke-opacity: 1; stroke-linecap: round; stroke-linejoin: round; -webkit-user-select: text;"></path><path fill="none" stroke="#0f0000" d="M326,648L335,669L342,681L352,697L364,716L375,732L384,745L394,759L402,771L409,783L413,793L413,800L406,802" stroke-opacity="1" stroke-width="2" stroke-linecap="round" stroke-linejoin="round" style="-webkit-tap-highlight-color: rgba(0, 0, 0, 0); stroke-opacity: 1; stroke-linecap: round; stroke-linejoin: round; -webkit-user-select: text;"></path><path fill="none" stroke="#0f0000" d="M196,634L207,645L216,655L228,667L240,678L254,689L267,700L280,710L292,720L303,730L314,740L324,749L334,757L341,764L349,772L357,779L365,787L372,794L380,801L387,808L395,815L403,823L411,831L419,839L430,848L437,852L443,852" stroke-opacity="1" stroke-width="2" stroke-linecap="round" stroke-linejoin="round" style="-webkit-tap-highlight-color: rgba(0, 0, 0, 0); stroke-opacity: 1; stroke-linecap: round; stroke-linejoin: round; -webkit-user-select: text;"></path><path fill="none" stroke="#0f0000" d="M335,594L352,613L368,632L383,652L398,671L414,689L430,705L446,720L461,735L472,747L484,759L492,768L496,772L497,771" stroke-opacity="1" stroke-width="2" stroke-linecap="round" stroke-linejoin="round" style="-webkit-tap-highlight-color: rgba(0, 0, 0, 0); stroke-opacity: 1; stroke-linecap: round; stroke-linejoin: round; -webkit-user-select: text;"></path><path fill="none" stroke="#0f0000" d="M405,565L406,565L413,573L426,589L440,605L454,623L470,640L485,657L500,674L514,689L527,702L538,712L549,722L555,725L557,725" stroke-opacity="1" stroke-width="2" stroke-linecap="round" stroke-linejoin="round" style="-webkit-tap-highlight-color: rgba(0, 0, 0, 0); stroke-opacity: 1; stroke-linecap: round; stroke-linejoin: round; -webkit-user-select: text;"></path><path fill="none" stroke="#0f0000" d="M454,521L457,524L464,535L477,551L493,570L509,588L526,606L543,623L558,639L571,653L583,664L594,673L602,678L606,678" stroke-opacity="1" stroke-width="2" stroke-linecap="round" stroke-linejoin="round" style="-webkit-tap-highlight-color: rgba(0, 0, 0, 0); stroke-opacity: 1; stroke-linecap: round; stroke-linejoin: round; -webkit-user-select: text;"></path><path fill="none" stroke="#0f0000" d="M478,409L481,414L486,422L495,435L506,449L516,463L527,476L538,488L549,499L559,509L570,519L579,529L586,538L594,547L601,556L608,564L614,571L620,578L626,585L632,592L638,599L645,607L651,614L657,622L664,630L670,638L677,645L683,652L689,658L694,664L699,670L702,675L704,679L705,681L700,681" stroke-opacity="1" stroke-width="2" stroke-linecap="round" stroke-linejoin="round" style="-webkit-tap-highlight-color: rgba(0, 0, 0, 0); stroke-opacity: 1; stroke-linecap: round; stroke-linejoin: round; -webkit-user-select: text;"></path><path fill="none" stroke="#0f0000" d="M468,507L477,516L488,530L503,549L519,570L537,592L555,613L574,634L591,655L608,672L622,689L634,704L641,717L643,726L643,731" stroke-opacity="1" stroke-width="2" stroke-linecap="round" stroke-linejoin="round" style="-webkit-tap-highlight-color: rgba(0, 0, 0, 0); stroke-opacity: 1; stroke-linecap: round; stroke-linejoin: round; -webkit-user-select: text;"></path><path fill="none" stroke="#0f0000" d="M355,418L360,428L363,437L371,450L382,464L395,480L409,494L423,508L437,522L450,537L464,552L477,567L489,580L500,592L511,604L522,616L531,627L540,637L549,648L556,656L563,665L571,674L577,683L584,691L591,700L598,708L605,716L612,725L619,734L627,742L634,751L641,760L648,768L654,776L658,782L662,788L664,793L664,797" stroke-opacity="1" stroke-width="2" stroke-linecap="round" stroke-linejoin="round" style="-webkit-tap-highlight-color: rgba(0, 0, 0, 0); stroke-opacity: 1; stroke-linecap: round; stroke-linejoin: round; -webkit-user-select: text;"></path><path fill="none" stroke="#0f0000" d="M404,607L409,614L418,626L430,644L444,662L458,680L474,697L490,713L504,729L518,744L529,756L540,769L550,779L557,788L562,795L562,798L559,798" stroke-opacity="1" stroke-width="2" stroke-linecap="round" stroke-linejoin="round" style="-webkit-tap-highlight-color: rgba(0, 0, 0, 0); stroke-opacity: 1; stroke-linecap: round; stroke-linejoin: round; -webkit-user-select: text;"></path><path fill="none" stroke="#0f0000" d="M315,616L322,623L327,632L336,643L348,655L361,667L375,679L391,692L404,702L418,713L431,724L444,736L456,748L468,759L479,770L489,780L499,790L508,798L518,807L526,815L534,823L543,831L551,839L559,847L567,854L574,861L582,867L589,875L595,884L602,893" stroke-opacity="1" stroke-width="2" stroke-linecap="round" stroke-linejoin="round" style="-webkit-tap-highlight-color: rgba(0, 0, 0, 0); stroke-opacity: 1; stroke-linecap: round; stroke-linejoin: round; -webkit-user-select: text;"></path><path fill="none" stroke="#0f0000" d="M314,645L327,659L334,665L340,672L347,680L354,688L361,696L368,704L374,712L380,719L387,727L393,734L400,741L407,748L413,755L420,762L426,769L434,775L440,781L447,787L454,793L460,798L467,803L473,808L480,813L486,818L492,824L497,828L502,833L507,838L511,842L514,847L518,852L521,855L525,859L529,862L532,865L535,867L538,870L542,873L545,876L548,878L550,880L554,883L557,885L560,888L562,890L565,892L568,894L571,895L573,896L576,897L578,898L581,898L583,899L585,900L588,900L590,900L592,900L595,900L598,900L601,900" stroke-opacity="1" stroke-width="2" stroke-linecap="round" stroke-linejoin="round" style="-webkit-tap-highlight-color: rgba(0, 0, 0, 0); stroke-opacity: 1; stroke-linecap: round; stroke-linejoin: round; -webkit-user-select: text;"></path><path fill="none" stroke="#0f0000" d="M411,555L419,560L425,563L431,567L436,571L442,576L448,580L454,585L459,589L465,594L470,599L474,604L479,609L484,614L488,619L492,624L497,629L500,633L505,638L509,643L514,648L518,653L523,658L527,662L532,667L536,672L541,676L546,681L551,686L555,690L560,695L564,700L569,705L574,709L578,713L583,718L587,722L591,727L596,732L599,735L604,740L608,743L611,747L616,752L619,756L623,760L626,764L630,768L633,772L636,776L640,780L643,784L646,788L650,791L652,794L656,798L659,801L662,805L665,808L668,812L671,815L674,818L677,821L680,825L683,829L686,832L689,836L692,840L696,843L699,846L702,849L706,853L709,856L712,860L715,863L718,867L721,871L724,874L726,878L729,882L732,886L734,889L738,893L740,895" stroke-opacity="1" stroke-width="2" stroke-linecap="round" stroke-linejoin="round" style="-webkit-tap-highlight-color: rgba(0, 0, 0, 0); stroke-opacity: 1; stroke-linecap: round; stroke-linejoin: round; -webkit-user-select: text;"></path><path fill="none" stroke="#0f0000" d="M443,401L445,403L446,409L452,417L460,425L470,436L480,447L490,458L502,470L514,482L526,494L538,505L550,518L560,531L570,545L579,560L587,573L596,586L604,599L612,611L620,624L628,636L636,649L644,661L652,673L660,684L668,695L676,705L683,714L690,724L697,734L703,743L709,752L715,759L721,767L726,774L732,782L737,789L742,795L748,801L753,804L758,806L762,806L764,801" stroke-opacity="1" stroke-width="2" stroke-linecap="round" stroke-linejoin="round" style="-webkit-tap-highlight-color: rgba(0, 0, 0, 0); stroke-opacity: 1; stroke-linecap: round; stroke-linejoin: round; -webkit-user-select: text;"></path><path fill="none" stroke="#0f0000" d="M497,370L493,367L496,371L502,378L510,387L521,398L532,409L545,422L558,435L572,451L586,466L598,481L609,497L619,511L629,526L638,542L647,557L654,570L661,579L668,589L675,597L680,604L686,609L690,612L692,614" stroke-opacity="1" stroke-width="2" stroke-linecap="round" stroke-linejoin="round" style="-webkit-tap-highlight-color: rgba(0, 0, 0, 0); stroke-opacity: 1; stroke-linecap: round; stroke-linejoin: round; -webkit-user-select: text;"></path><path fill="none" stroke="#0f0000" d="M514,345L519,351L527,359L538,369L551,381L567,395L583,409L599,423L613,436L626,447L638,456L647,462L654,465L658,467L659,467" stroke-opacity="1" stroke-width="2" stroke-linecap="round" stroke-linejoin="round" style="-webkit-tap-highlight-color: rgba(0, 0, 0, 0); stroke-opacity: 1; stroke-linecap: round; stroke-linejoin: round; -webkit-user-select: text;"></path><path fill="none" stroke="#0f0000" d="M398,220L405,232L413,242L421,253L431,264L443,276L454,288L466,300L478,312L489,326L499,339L509,353L519,366L528,378L537,391L546,403L555,415L563,426L571,438L579,449L588,460L596,472L604,482L613,492L621,502L630,512L638,523L647,533L655,543L662,551L670,560L678,569L685,577L693,584L700,592L706,599L713,605L718,611L723,616L728,622L732,626L736,630L739,631L740,631" stroke-opacity="1" stroke-width="2" stroke-linecap="round" stroke-linejoin="round" style="-webkit-tap-highlight-color: rgba(0, 0, 0, 0); stroke-opacity: 1; stroke-linecap: round; stroke-linejoin: round; -webkit-user-select: text;"></path><path fill="none" stroke="#0f0000" d="M452,155L467,168L477,178L487,190L497,202L508,215L520,227L531,241L543,254L553,267L564,280L575,292L585,304L595,316L604,329L613,341L621,353L630,364L638,374L646,385L654,396L661,405L668,415L675,425L682,435L689,444L696,453L703,463L710,472L717,481L724,490L731,499L737,507L744,514L750,522L754,528L759,535L762,541L764,547L766,553L767,557L767,562" stroke-opacity="1" stroke-width="2" stroke-linecap="round" stroke-linejoin="round" style="-webkit-tap-highlight-color: rgba(0, 0, 0, 0); stroke-opacity: 1; stroke-linecap: round; stroke-linejoin: round; -webkit-user-select: text;"></path><path fill="none" stroke="#0f0000" d="M461,91L470,95L474,99L478,105L482,110L486,115L491,120L495,126L500,132L504,137L509,143L514,149L518,154L522,160L526,165L530,171L534,176L538,181L543,187L547,192L550,196L554,200L558,204L562,208L565,212L568,215L571,218L574,222L577,225L579,229L582,232L584,236L587,240L589,243L592,247L595,251L598,255L601,259L603,263L606,267L609,271L612,274L615,278L618,282L621,286L624,290L628,293L630,297L634,301L637,304L640,307L644,311L647,315L651,318L654,322L657,325L660,329L663,332L666,336L669,339L672,343L676,346L679,350L681,354L684,357L687,360L690,364L692,367L696,371L699,375L701,378L704,382L707,386L710,390L713,394L716,397L719,401L722,405L725,409L729,413L733,417L736,420L739,424L742,427L746,431L749,435L752,438L754,440L756,442L759,443L760,444L761,444" stroke-opacity="1" stroke-width="2" stroke-linecap="round" stroke-linejoin="round" style="-webkit-tap-highlight-color: rgba(0, 0, 0, 0); stroke-opacity: 1; stroke-linecap: round; stroke-linejoin: round; -webkit-user-select: text;"></path><path fill="none" stroke="#0f0000" d="M492,12L501,24L505,30L511,37L516,43L524,50L529,55L537,62L542,67L549,74L554,80L560,86L565,93L571,100L577,107L581,113L587,120L593,127L599,135L603,140L609,147L615,155L621,162L627,169L633,176L640,184L647,192L653,200L659,208L665,216L671,224L677,232L681,238L686,244L691,250L696,255L699,260L704,263L709,268L714,273L717,276L717,277" stroke-opacity="1" stroke-width="2" stroke-linecap="round" stroke-linejoin="round" style="-webkit-tap-highlight-color: rgba(0, 0, 0, 0); stroke-opacity: 1; stroke-linecap: round; stroke-linejoin: round; -webkit-user-select: text;"></path><path fill="none" stroke="#0f0000" d="M499,133L505,141L511,147L523,157L534,166L546,176L559,186L572,197L584,208L596,218L607,227L614,232L619,236" stroke-opacity="1" stroke-width="2" stroke-linecap="round" stroke-linejoin="round" style="-webkit-tap-highlight-color: rgba(0, 0, 0, 0); stroke-opacity: 1; stroke-linecap: round; stroke-linejoin: round; -webkit-user-select: text;"></path><path fill="none" stroke="#0f0000" d="M500,42L502,44L509,49L517,56L530,66L543,77L560,90L575,103L589,116L604,129L616,140L629,151L640,160L647,168L651,172" stroke-opacity="1" stroke-width="2" stroke-linecap="round" stroke-linejoin="round" style="-webkit-tap-highlight-color: rgba(0, 0, 0, 0); stroke-opacity: 1; stroke-linecap: round; stroke-linejoin: round; -webkit-user-select: text;"></path><path fill="none" stroke="#0f0000" d="M309,10L310,12L312,16L315,20L320,25L326,31L331,37L337,44L343,50L349,57L355,62L361,69L367,74L374,81L380,86L387,93L393,99L400,105L406,111L412,118L419,125L426,131L432,138L439,145L447,152L454,160L462,167L470,175L478,182L486,190L493,198L501,206L509,214L517,224L525,232L533,241L540,250L546,259L553,267L556,273" stroke-opacity="1" stroke-width="2" stroke-linecap="round" stroke-linejoin="round" style="-webkit-tap-highlight-color: rgba(0, 0, 0, 0); stroke-opacity: 1; stroke-linecap: round; stroke-linejoin: round; -webkit-user-select: text;"></path><path fill="none" stroke="#0f0000" d="M307,33L316,45L324,55L333,65L343,76L354,87L365,99L377,112L387,125L398,137L407,148L413,156" stroke-opacity="1" stroke-width="2" stroke-linecap="round" stroke-linejoin="round" style="-webkit-tap-highlight-color: rgba(0, 0, 0, 0); stroke-opacity: 1; stroke-linecap: round; stroke-linejoin: round; -webkit-user-select: text;"></path><path fill="none" stroke="#0f0000" d="M221,29L225,37L230,44L238,52L249,62L259,74L271,86L282,100L293,113L301,125" stroke-opacity="1" stroke-width="2" stroke-linecap="round" stroke-linejoin="round" style="-webkit-tap-highlight-color: rgba(0, 0, 0, 0); stroke-opacity: 1; stroke-linecap: round; stroke-linejoin: round; -webkit-user-select: text;"></path><path fill="none" stroke="#0f0000" d="M124,21L130,30L135,36L139,43L145,51L151,59L157,66L164,73L171,81L178,88L185,96L192,103L198,110L205,117L211,123L218,130L224,138L230,145L237,153L244,161L250,168L257,176L264,183L271,191L278,198L285,205L293,212L300,220L308,229L316,236L324,244L331,252L339,260L347,268L355,276L362,284L370,293L379,301L387,310L395,318L403,326L411,334L418,343L426,351L434,358L441,366L449,375L457,383L464,390L472,398L479,405L486,412L492,419L499,425L505,431L511,437L517,443L523,449L528,455L534,461L540,467L545,473L550,479L556,485L562,491L567,497L572,502L578,508L583,514L589,519L593,525L599,532L604,538L609,545L614,551L619,557L625,563L630,569L635,575L640,581L645,587L650,592L655,598L660,604L665,610L669,616L674,621L678,627L683,633L687,639L692,645L696,652L700,658L705,665L710,672L716,679L723,687L730,695L740,705" stroke-opacity="1" stroke-width="2" stroke-linecap="round" stroke-linejoin="round" style="-webkit-tap-highlight-color: rgba(0, 0, 0, 0); stroke-opacity: 1; stroke-linecap: round; stroke-linejoin: round; -webkit-user-select: text;"></path></svg>