<svg height="906" version="1.1" width="768" xmlns="http://www.w3.org/2000/svg" xmlns:xlink="http://www.w3.org/1999/xlink" style="overflow: hidden; position: relative; -webkit-user-select: text;"><desc style="-webkit-tap-highlight-color: rgba(0, 0, 0, 0); -webkit-user-select: text;">Created with Raphaël 2.2.0</desc><defs style="-webkit-tap-highlight-color: rgba(0, 0, 0, 0); -webkit-user-select: text;"></defs><path fill="none" stroke="#0f0000" d="M319,327L325,325L329,325L334,325L341,324L348,324L356,323L364,323L373,323L381,323L388,323L395,326L402,329L408,332L414,336L419,340L424,344L429,349L433,355L437,360L440,366L443,372L446,378L448,384L450,390L451,396L452,402L453,407L453,413L453,418L452,424" stroke-opacity="1" stroke-width="2" stroke-linecap="round" stroke-linejoin="round" style="-webkit-tap-highlight-color: rgba(0, 0, 0, 0); stroke-opacity: 1; stroke-linecap: round; stroke-linejoin: round; -webkit-user-select: text;"></path><path fill="none" stroke="#0f0000" d="M368,380L375,375L381,371L387,368L396,366L404,363L411,362L419,362L426,362L435,362L442,363L450,367L456,370L463,375L468,380L474,384L478,389L482,394L486,399L489,405L492,410L493,417L495,423L496,430L496,436L496,442L496,449L496,456L493,463L489,470L486,476L480,482L474,487" stroke-opacity="1" stroke-width="2" stroke-linecap="round" stroke-linejoin="round" style="-webkit-tap-highlight-color: rgba(0, 0, 0, 0); stroke-opacity: 1; stroke-linecap: round; stroke-linejoin: round; -webkit-user-select: text;"></path><path fill="none" stroke="#0f0000" d="M368,462L368,451L370,446L375,442L381,439L389,436L397,433L404,432L412,432L421,432L429,433L436,436L442,440L447,445L453,451L457,456L460,462L462,468L464,474L465,480L465,487L465,493L465,500L465,507L463,514L459,519L455,525L451,531L445,536L440,541L434,545L427,548L420,550L413,553L406,554L397,555" stroke-opacity="1" stroke-width="2" stroke-linecap="round" stroke-linejoin="round" style="-webkit-tap-highlight-color: rgba(0, 0, 0, 0); stroke-opacity: 1; stroke-linecap: round; stroke-linejoin: round; -webkit-user-select: text;"></path><path fill="none" stroke="#0f0000" d="M403,481L404,485L404,491L404,494L404,499L404,506L402,514L400,521L398,529L396,535L393,541L391,546L387,552L384,558L380,562L375,565L370,568L365,570L361,571L354,572L347,572L341,572L334,572L325,572L318,571L310,569L304,565L297,562L290,558L285,553L279,548L274,542L271,536L270,529L270,521L271,512" stroke-opacity="1" stroke-width="2" stroke-linecap="round" stroke-linejoin="round" style="-webkit-tap-highlight-color: rgba(0, 0, 0, 0); stroke-opacity: 1; stroke-linecap: round; stroke-linejoin: round; -webkit-user-select: text;"></path><path fill="none" stroke="#0f0000" d="M367,496L374,505L374,512L374,519L373,527L370,536L367,543L363,549L358,554L352,559L346,562L341,565L335,565L329,566L322,566L315,565L309,563L302,560L296,557L289,553L283,548L277,543L271,537L266,529L261,523L258,515L254,507L252,498L251,489L250,480L250,470L250,460L251,450L256,441L265,430" stroke-opacity="1" stroke-width="2" stroke-linecap="round" stroke-linejoin="round" style="-webkit-tap-highlight-color: rgba(0, 0, 0, 0); stroke-opacity: 1; stroke-linecap: round; stroke-linejoin: round; -webkit-user-select: text;"></path><path fill="none" stroke="#0f0000" d="M366,473L351,485L344,486L337,488L329,490L322,490L314,490L307,490L300,490L293,489L286,485L280,481L273,477L266,473L260,468L254,463L249,458L245,452L242,447L239,441L238,434L237,426L237,418L237,411L240,403L244,396L248,390L253,383L258,378L265,374L273,370L281,368L292,365L303,363" stroke-opacity="1" stroke-width="2" stroke-linecap="round" stroke-linejoin="round" style="-webkit-tap-highlight-color: rgba(0, 0, 0, 0); stroke-opacity: 1; stroke-linecap: round; stroke-linejoin: round; -webkit-user-select: text;"></path><path fill="none" stroke="#0f0000" d="M371,430L365,436L361,439L355,441L348,441L340,441L331,441L323,441L315,437L309,432L302,426L297,421L293,415L289,409L286,402L285,397L283,391L282,385L282,378L282,371L282,365L285,358L287,353L290,348L295,342L301,337L307,333L314,329L322,327L330,324L339,322L348,322L356,321L366,321L375,321L384,322L394,325L402,329L410,334L418,340L426,347L431,355L436,364" stroke-opacity="1" stroke-width="2" stroke-linecap="round" stroke-linejoin="round" style="-webkit-tap-highlight-color: rgba(0, 0, 0, 0); stroke-opacity: 1; stroke-linecap: round; stroke-linejoin: round; -webkit-user-select: text;"></path><path fill="none" stroke="#0f0000" d="M367,431L361,428L353,424L348,419L343,413L341,406L339,397L338,388L338,378L338,368L338,359L341,350L344,341L348,334L353,327L360,320L366,315L373,311L379,307L386,305L394,304L402,303L409,302L418,302L426,302L434,302L442,303L449,305L457,308L463,311L470,315L476,319L481,325L486,331L490,337L494,344L497,351L500,358L502,365L503,373L504,382L504,392L504,403L500,413L494,426L485,437" stroke-opacity="1" stroke-width="2" stroke-linecap="round" stroke-linejoin="round" style="-webkit-tap-highlight-color: rgba(0, 0, 0, 0); stroke-opacity: 1; stroke-linecap: round; stroke-linejoin: round; -webkit-user-select: text;"></path><path fill="none" stroke="#0f0000" d="M413,456L397,452L383,448L370,441L363,434L357,425L355,417L355,404L357,393L362,382L369,371L375,363L383,355L390,349L398,344L407,340L415,338L425,336L434,336L443,336L453,336L461,336L470,338L479,340L487,343L494,347L502,351L509,355L514,360L519,365L524,370L528,377L532,383L535,390L537,398L538,407L539,414L539,422L539,431L539,440L537,448L533,458L527,466L521,475L513,482L503,489L492,494L480,498L467,500L453,500L437,499L423,490" stroke-opacity="1" stroke-width="2" stroke-linecap="round" stroke-linejoin="round" style="-webkit-tap-highlight-color: rgba(0, 0, 0, 0); stroke-opacity: 1; stroke-linecap: round; stroke-linejoin: round; -webkit-user-select: text;"></path><path fill="none" stroke="#0f0000" d="M404,413L409,407L416,401L426,396L436,393L450,392L463,392L475,392L486,395L495,400L504,405L511,412L517,419L523,426L528,434L531,441L534,449L537,458L538,465L540,472L540,480L540,487L540,496L540,504L537,511L534,518L530,524L525,531L520,537L514,543L506,549L497,554L489,558L480,562L472,565L463,566L453,567L443,567L435,567L426,566L418,563L410,558L402,552L396,544L391,535L389,523L389,508L390,492L396,477L405,466L417,457" stroke-opacity="1" stroke-width="2" stroke-linecap="round" stroke-linejoin="round" style="-webkit-tap-highlight-color: rgba(0, 0, 0, 0); stroke-opacity: 1; stroke-linecap: round; stroke-linejoin: round; -webkit-user-select: text;"></path><path fill="none" stroke="#0f0000" d="M464,448L474,453L482,461L489,471L495,484L500,494L506,506L510,518L511,529L512,540L512,552L510,563L506,572L500,580L494,588L487,595L479,602L470,609L461,616L452,621L443,626L433,630L423,634L414,637L404,640L395,641L385,642L375,642L366,642L357,642L348,640L339,637L332,633L325,628L318,622L312,616L307,607L303,599L300,591L298,582L297,572L297,560L300,548L309,536L320,525" stroke-opacity="1" stroke-width="2" stroke-linecap="round" stroke-linejoin="round" style="-webkit-tap-highlight-color: rgba(0, 0, 0, 0); stroke-opacity: 1; stroke-linecap: round; stroke-linejoin: round; -webkit-user-select: text;"></path><path fill="none" stroke="#0f0000" d="M401,516L405,526L409,538L412,550L414,562L415,574L415,587L414,597L411,608L405,618L397,626L389,634L380,642L371,647L361,652L351,655L343,656L334,657L324,657L315,657L307,657L297,654L288,651L278,648L269,644L260,639L251,633L244,626L237,619L231,611L227,601L224,591L222,579L221,569L221,557L221,548L224,540L230,531L237,524L249,516L266,504" stroke-opacity="1" stroke-width="2" stroke-linecap="round" stroke-linejoin="round" style="-webkit-tap-highlight-color: rgba(0, 0, 0, 0); stroke-opacity: 1; stroke-linecap: round; stroke-linejoin: round; -webkit-user-select: text;"></path><path fill="none" stroke="#0f0000" d="M346,491L353,499L358,508L363,516L366,527L368,539L368,551L367,563L363,574L357,584L350,593L341,600L331,606L320,610L310,612L300,614L288,614L276,614L265,611L254,606L244,601L235,596L227,589L219,582L212,575L206,567L200,558L195,548L191,538L187,528L186,519L184,509L184,499L184,490L189,480L197,471L206,463L218,456L230,450L246,444L263,441" stroke-opacity="1" stroke-width="2" stroke-linecap="round" stroke-linejoin="round" style="-webkit-tap-highlight-color: rgba(0, 0, 0, 0); stroke-opacity: 1; stroke-linecap: round; stroke-linejoin: round; -webkit-user-select: text;"></path><path fill="none" stroke="#0f0000" d="M356,461L359,468L361,477L362,487L362,499L360,511L355,523L348,536L339,545L331,553L321,560L311,565L300,567L290,567L278,567L266,566L255,561L245,556L235,550L227,543L218,535L210,527L202,519L195,510L188,500L183,490L179,479L176,468L175,458L175,448L175,436L176,428L180,419L185,411L191,404L198,397L206,390L215,385L225,380L235,377L247,375L261,374L275,374L293,375L309,380" stroke-opacity="1" stroke-width="2" stroke-linecap="round" stroke-linejoin="round" style="-webkit-tap-highlight-color: rgba(0, 0, 0, 0); stroke-opacity: 1; stroke-linecap: round; stroke-linejoin: round; -webkit-user-select: text;"></path><path fill="none" stroke="#0f0000" d="M341,440L342,452L341,464L339,475L334,484L328,492L320,497L312,500L303,501L291,501L280,499L270,494L259,488L250,481L242,473L234,464L227,456L222,447L218,440L213,431L210,423L207,414L205,406L204,397L204,388L204,379L204,370L207,360L212,351L217,341L223,334L229,327L236,319L243,314L251,309L259,305L267,302L276,300L285,298L294,298L303,297L312,297L322,297L331,298L340,300L349,304L358,308L367,313L375,319L383,327L391,338L397,351L401,368L401,387L399,408L392,425L384,439L370,451L356,459L340,463L324,463L306,460" stroke-opacity="1" stroke-width="2" stroke-linecap="round" stroke-linejoin="round" style="-webkit-tap-highlight-color: rgba(0, 0, 0, 0); stroke-opacity: 1; stroke-linecap: round; stroke-linejoin: round; -webkit-user-select: text;"></path><path fill="none" stroke="#0f0000" d="M261,397L261,380L261,367L261,353L266,341L274,329L282,319L291,309L300,299L307,291L316,283L325,275L334,269L344,264L354,260L365,257L376,255L386,254L396,252L407,252L418,251L429,251L439,251L451,252L460,255L470,259L479,263L487,268L494,274L501,281L508,288L514,295L519,304L523,313L527,324L529,332L531,344L531,356L531,368L531,381L525,395L517,408L507,421L491,435L473,446L453,453L435,458L412,458L387,454L366,443L350,429L336,402L333,379L333,366L334,353L345,337L358,320L375,306L393,294L412,286L427,281L444,279L458,279L474,279L489,279L504,283L517,288L529,295L540,302L551,310L559,317L567,325L574,333L580,341L586,350L590,358L594,366L597,374L600,383L602,391L604,399L606,407L607,416L608,424L609,431L609,440L609,448L607,456L604,464L599,473L593,482L584,493L573,503L562,512L549,520L535,525L521,527L502,527L481,521L463,509L444,495L428,478L417,460L413,443L413,423L422,401L437,384L454,372L471,365L495,359" stroke-opacity="1" stroke-width="2" stroke-linecap="round" stroke-linejoin="round" style="-webkit-tap-highlight-color: rgba(0, 0, 0, 0); stroke-opacity: 1; stroke-linecap: round; stroke-linejoin: round; -webkit-user-select: text;"></path><path fill="none" stroke="#0f0000" d="M544,371L551,380L559,390L566,401L573,414L580,428L587,442L592,455L596,466L601,477L604,488L606,497L608,506L609,515L609,524L609,533L609,541L608,550L605,558L603,566L599,573L595,582L589,590L584,597L578,604L572,611L566,618L559,624L552,629L544,635L536,640L528,644L520,647L511,649L501,651L492,652L481,652L471,652L462,652L452,652L443,650L434,645L426,639L419,631L417,618L417,598" stroke-opacity="1" stroke-width="2" stroke-linecap="round" stroke-linejoin="round" style="-webkit-tap-highlight-color: rgba(0, 0, 0, 0); stroke-opacity: 1; stroke-linecap: round; stroke-linejoin: round; -webkit-user-select: text;"></path><path fill="none" stroke="#0f0000" d="M492,520L501,519L511,520L521,524L531,531L539,541L545,550L550,561L553,572L554,584L554,594L554,606L553,617L550,627L546,637L541,646L536,655L529,662L522,670L514,676L506,682L497,687L487,692L477,696L467,700L458,703L449,705L439,708L430,709L421,710L412,710L403,710L394,709L385,706L376,701L367,696L358,690L351,682L344,673L338,662L335,648L335,628L346,604L358,586L375,571" stroke-opacity="1" stroke-width="2" stroke-linecap="round" stroke-linejoin="round" style="-webkit-tap-highlight-color: rgba(0, 0, 0, 0); stroke-opacity: 1; stroke-linecap: round; stroke-linejoin: round; -webkit-user-select: text;"></path><path fill="none" stroke="#0f0000" d="M440,553L446,561L451,568L458,577L465,588L470,600L473,614L474,628L474,642L474,655L471,667L466,678L460,688L450,698L440,706L429,714L419,719L408,724L396,728L384,731L371,733L360,735L350,735L339,735L327,734L317,731L307,728L297,723L288,718L279,712L271,706L263,698L256,689L250,679L246,668L244,656L244,644L246,628L254,613L270,593L288,576L308,563L331,552L354,545L376,540L393,540L407,544L417,554L424,567L429,582L431,595L431,614L431,630L424,645L417,658L407,670L394,680L380,689L365,695L351,700L339,702L325,703L312,703L300,703L288,701L276,698L266,694L255,689L244,684L234,679L224,673L214,667L206,660L199,653L193,646L188,639L185,631L182,622L180,614L179,605L179,595L179,584L182,574L190,562L200,549L213,537L227,528L243,521L260,516L277,514L295,514L312,517L329,530" stroke-opacity="1" stroke-width="2" stroke-linecap="round" stroke-linejoin="round" style="-webkit-tap-highlight-color: rgba(0, 0, 0, 0); stroke-opacity: 1; stroke-linecap: round; stroke-linejoin: round; -webkit-user-select: text;"></path><path fill="none" stroke="#0f0000" d="M347,620L343,625L334,632L325,638L316,644L305,649L293,653L282,655L272,656L259,656L247,656L235,654L224,650L210,643L199,637L188,630L178,625L169,618L160,610L153,602L147,593L141,584L136,575L131,567L128,559L126,550L124,539L124,528L124,516L125,504L131,491L137,479L146,468L155,459L166,451L178,445L191,439L204,436L219,434L233,434L251,434L267,438L281,448L295,466L305,486L311,509L312,536L312,564L312,584" stroke-opacity="1" stroke-width="2" stroke-linecap="round" stroke-linejoin="round" style="-webkit-tap-highlight-color: rgba(0, 0, 0, 0); stroke-opacity: 1; stroke-linecap: round; stroke-linejoin: round; -webkit-user-select: text;"></path><path fill="none" stroke="#0f0000" d="M226,602L216,598L205,592L195,584L187,575L180,564L173,553L166,542L159,530L153,517L148,504L144,493L139,480L137,468L135,456L135,443L135,431L135,419L138,406L143,393L149,380L154,369L160,360L167,352L174,346L183,340L193,335L204,331L215,328L227,326L239,326L252,326L265,326L279,328L294,334L307,342L320,353L334,370L342,392L348,419L348,448L345,474L334,493L318,507L300,516L281,520L260,520L236,514L218,500L207,482L203,465" stroke-opacity="1" stroke-width="2" stroke-linecap="round" stroke-linejoin="round" style="-webkit-tap-highlight-color: rgba(0, 0, 0, 0); stroke-opacity: 1; stroke-linecap: round; stroke-linejoin: round; -webkit-user-select: text;"></path><path fill="none" stroke="#0f0000" d="M199,408L200,390L202,371L206,354L211,340L218,329L227,320L237,311L247,303L257,296L267,289L277,283L288,278L298,273L308,269L319,266L330,262L341,260L353,258L363,257L374,257L385,257L397,257L408,260L419,263L429,268L439,273L449,279L459,286L468,296L475,308L481,322L485,339L486,358L485,379L477,403" stroke-opacity="1" stroke-width="2" stroke-linecap="round" stroke-linejoin="round" style="-webkit-tap-highlight-color: rgba(0, 0, 0, 0); stroke-opacity: 1; stroke-linecap: round; stroke-linejoin: round; -webkit-user-select: text;"></path><path fill="none" stroke="#0f0000" d="M362,456L335,451L311,446L287,435L270,419L259,401L253,385L249,366L249,346L251,327L262,305L271,291L280,278L292,268L304,259L317,251L330,245L343,240L354,237L366,234L378,232L390,231L401,230L413,230L423,230L433,230L443,230L451,233L460,236L468,239L476,242L483,246L490,251L498,257L505,263L512,270L518,278L524,286L530,295L536,304L540,314L545,326L548,343L548,361L548,381L540,405" stroke-opacity="1" stroke-width="2" stroke-linecap="round" stroke-linejoin="round" style="-webkit-tap-highlight-color: rgba(0, 0, 0, 0); stroke-opacity: 1; stroke-linecap: round; stroke-linejoin: round; -webkit-user-select: text;"></path><path fill="none" stroke="#0f0000" d="M371,415L363,402L358,386L358,370L363,349L373,330L386,312L401,295L416,280L431,267L446,258L462,251L478,246L493,243L506,242L520,242L533,242L546,242L559,243L571,246L582,249L592,253L601,257L610,262L618,267L625,273L631,277L637,283L643,288L647,295L652,301L656,308L660,316L663,324L666,332L669,341L671,351L673,363L674,373L674,384L674,395L674,410L673,426L667,444L656,465L642,483L623,500L599,513L574,521L546,522L519,521L494,511" stroke-opacity="1" stroke-width="2" stroke-linecap="round" stroke-linejoin="round" style="-webkit-tap-highlight-color: rgba(0, 0, 0, 0); stroke-opacity: 1; stroke-linecap: round; stroke-linejoin: round; -webkit-user-select: text;"></path><path fill="none" stroke="#0f0000" d="M462,417L477,393L494,376L511,364L527,358L546,355L565,355L583,356L599,363L614,370L626,378L637,386L646,395L653,404L661,413L667,423L672,434L677,443L681,454L684,462L686,471L688,480L689,488L689,496L689,504L689,511L689,519L689,527L687,535L684,542L682,550L679,557L675,565L670,573L664,582L658,590L651,598L645,606L636,613L626,620L613,627L601,633L586,639L569,643L549,645L523,644L500,637" stroke-opacity="1" stroke-width="2" stroke-linecap="round" stroke-linejoin="round" style="-webkit-tap-highlight-color: rgba(0, 0, 0, 0); stroke-opacity: 1; stroke-linecap: round; stroke-linejoin: round; -webkit-user-select: text;"></path><path fill="none" stroke="#0f0000" d="M470,586L473,560L489,535L507,513L518,500L532,491L548,486L568,485L587,486L603,495L617,511L626,526L633,543L638,559L640,575L641,589L641,604L640,619L635,633L631,644L626,654L621,663L615,671L607,679L599,687L591,694L583,700L575,706L567,711L559,717L551,722L543,727L533,732L524,736L515,740L506,744L496,747L485,750L474,752L462,753L449,753L432,753L416,751" stroke-opacity="1" stroke-width="2" stroke-linecap="round" stroke-linejoin="round" style="-webkit-tap-highlight-color: rgba(0, 0, 0, 0); stroke-opacity: 1; stroke-linecap: round; stroke-linejoin: round; -webkit-user-select: text;"></path><path fill="none" stroke="#0f0000" d="M481,614L492,609L505,608L515,609L525,619L533,632L539,648L542,664L543,678L543,693L540,708L534,721L527,733L520,744L511,755L502,765L492,774L484,780L473,786L463,791L451,795L438,798L426,801L414,802L402,803L390,803L378,803L367,803L356,801L346,799L336,796L326,791L317,787L307,782L298,777L290,771L283,765L276,757L272,750L270,739L270,726L276,706L289,685" stroke-opacity="1" stroke-width="2" stroke-linecap="round" stroke-linejoin="round" style="-webkit-tap-highlight-color: rgba(0, 0, 0, 0); stroke-opacity: 1; stroke-linecap: round; stroke-linejoin: round; -webkit-user-select: text;"></path><path fill="none" stroke="#0f0000" d="M374,628L380,631L387,638L393,647L398,660L401,673L401,688L401,703L398,720L392,733L383,746L374,757L363,767L353,774L343,779L331,784L320,786L310,786L299,786L286,786L275,786L264,784L254,780L244,776L234,772L226,768L217,763L210,757L202,751L195,744L188,736L181,727L176,717L171,705L167,692L164,679L163,667L163,654L173,636" stroke-opacity="1" stroke-width="2" stroke-linecap="round" stroke-linejoin="round" style="-webkit-tap-highlight-color: rgba(0, 0, 0, 0); stroke-opacity: 1; stroke-linecap: round; stroke-linejoin: round; -webkit-user-select: text;"></path><path fill="none" stroke="#0f0000" d="M271,572L278,575L287,581L297,590L305,602L311,616L314,633L315,650L315,667L312,684L304,698L294,710L281,720L267,728L252,734L238,736L224,737L209,737L193,733L180,728L168,722L156,715L145,706L135,697L126,687L119,676L112,665L107,655L102,643L98,633L96,621L96,608L96,593L96,576L101,561L107,547L116,534L129,522L149,508" stroke-opacity="1" stroke-width="2" stroke-linecap="round" stroke-linejoin="round" style="-webkit-tap-highlight-color: rgba(0, 0, 0, 0); stroke-opacity: 1; stroke-linecap: round; stroke-linejoin: round; -webkit-user-select: text;"></path><path fill="none" stroke="#0f0000" d="M256,516L264,528L270,541L274,558L274,575L273,592L264,608L249,623L232,633L212,641L193,645L171,645L150,645L129,640L111,633L96,623L84,612L74,601L67,588L61,575L57,563L55,550L54,538L53,528L53,517L54,506L57,495L61,485L66,475L74,463L83,453L93,443L104,435L116,428L130,422L145,417L161,414L180,414L200,414L221,415" stroke-opacity="1" stroke-width="2" stroke-linecap="round" stroke-linejoin="round" style="-webkit-tap-highlight-color: rgba(0, 0, 0, 0); stroke-opacity: 1; stroke-linecap: round; stroke-linejoin: round; -webkit-user-select: text;"></path><path fill="none" stroke="#0f0000" d="M271,542L266,553L258,564L245,573L231,579L212,582L193,582L171,582L147,572L127,558L110,540L98,521L88,503L80,488L75,470L72,454L71,439L71,423L71,409L73,396L79,381L85,368L93,356L99,346L108,338L117,329L128,322L139,315L149,310L161,305L172,302L184,298L197,296L210,294L222,294L235,294L247,295L259,298L270,303L282,311L293,320L302,332L310,344L317,361L322,381L323,405L321,434L312,456L297,474L278,487L254,494L232,497L204,494L180,485L161,471L148,454" stroke-opacity="1" stroke-width="2" stroke-linecap="round" stroke-linejoin="round" style="-webkit-tap-highlight-color: rgba(0, 0, 0, 0); stroke-opacity: 1; stroke-linecap: round; stroke-linejoin: round; -webkit-user-select: text;"></path><path fill="none" stroke="#0f0000" d="M145,332L148,312L154,294L162,278L174,263L187,252L201,242L215,234L229,228L243,222L256,217L269,212L281,208L294,205L307,204L319,203L331,203L342,203L354,203L364,205L375,209L384,212L393,217L402,221L411,227L420,233L428,240L436,247L444,254L452,262L459,271L465,281L470,292L473,305L475,317L475,332L475,348L468,364L457,383L444,398L430,411L412,420L387,429" stroke-opacity="1" stroke-width="2" stroke-linecap="round" stroke-linejoin="round" style="-webkit-tap-highlight-color: rgba(0, 0, 0, 0); stroke-opacity: 1; stroke-linecap: round; stroke-linejoin: round; -webkit-user-select: text;"></path><path fill="none" stroke="#0f0000" d="M232,340L229,331L225,312L225,284L231,259L243,236L258,215L275,196L292,179L309,166L327,156L347,149L366,144L385,143L404,143L422,143L440,147L457,151L473,156L489,162L504,169L519,176L533,185L545,195L556,205L567,216L577,227L585,238L592,250L597,262L601,274L604,287L606,302L606,317L606,333L605,350L600,366L592,382L583,397L569,413L555,426L539,438L521,448L504,456L484,460L459,460L429,456L401,444L375,424L351,402L331,379L316,353" stroke-opacity="1" stroke-width="2" stroke-linecap="round" stroke-linejoin="round" style="-webkit-tap-highlight-color: rgba(0, 0, 0, 0); stroke-opacity: 1; stroke-linecap: round; stroke-linejoin: round; -webkit-user-select: text;"></path><path fill="none" stroke="#0f0000" d="M305,303L309,273L320,246L345,223L375,203L407,190L435,184L462,184L487,185L510,190L531,198L548,207L565,218L579,230L592,241L604,253L615,264L626,277L635,290L642,302L647,316L652,327L655,340L658,353L660,365L661,377L662,387L662,401L662,412L662,424L660,435L657,446L652,457L647,468L640,480L631,490L622,501L612,511L601,520L588,529L574,538L558,545L539,552L514,556L493,556L467,550L443,538L422,521L405,501L392,477L386,449L386,419L396,388L410,363L430,342L457,325L487,313L519,304" stroke-opacity="1" stroke-width="2" stroke-linecap="round" stroke-linejoin="round" style="-webkit-tap-highlight-color: rgba(0, 0, 0, 0); stroke-opacity: 1; stroke-linecap: round; stroke-linejoin: round; -webkit-user-select: text;"></path><path fill="none" stroke="#0f0000" d="M627,333L638,359L646,378L652,399L658,419L664,437L669,456L674,473L679,487L681,501L682,515L682,529L681,542L678,555L673,567L666,579L658,590L649,601L638,612L628,622L617,632L606,641L594,650L580,659L567,667L554,674L540,679L525,684L510,688L497,690L483,690L469,690L453,688L439,682L426,674L415,663L406,650L400,634L398,614L404,587" stroke-opacity="1" stroke-width="2" stroke-linecap="round" stroke-linejoin="round" style="-webkit-tap-highlight-color: rgba(0, 0, 0, 0); stroke-opacity: 1; stroke-linecap: round; stroke-linejoin: round; -webkit-user-select: text;"></path><path fill="none" stroke="#0f0000" d="M509,499L516,499L525,499L540,499L558,506L576,517L589,531L598,545L605,564L609,582L611,600L611,616L611,634L611,652L606,669L599,686L591,700L582,714L573,726L563,737L552,748L540,758L528,768L515,776L501,782L488,787L476,791L463,793L450,796L436,798L423,799L409,799L395,799L377,798L361,796L344,793L329,789L313,784L300,779L287,770L278,759L273,743L273,723L282,696L295,669" stroke-opacity="1" stroke-width="2" stroke-linecap="round" stroke-linejoin="round" style="-webkit-tap-highlight-color: rgba(0, 0, 0, 0); stroke-opacity: 1; stroke-linecap: round; stroke-linejoin: round; -webkit-user-select: text;"></path><path fill="none" stroke="#0f0000" d="M345,628L373,615L397,606L417,604L437,604L457,616L472,631L484,649L492,671L494,692L494,718L490,740L482,759L474,774L464,786L452,796L440,804L427,810L415,815L402,818L389,819L375,820L362,820L349,820L336,820L324,820L312,820L299,820L286,820L273,819L261,819L249,818L238,816L227,813L215,810L203,806L191,801L178,794L166,785L156,773L147,759L143,742L143,721L151,696L164,670" stroke-opacity="1" stroke-width="2" stroke-linecap="round" stroke-linejoin="round" style="-webkit-tap-highlight-color: rgba(0, 0, 0, 0); stroke-opacity: 1; stroke-linecap: round; stroke-linejoin: round; -webkit-user-select: text;"></path><path fill="none" stroke="#0f0000" d="M244,618L254,621L265,626L275,637L283,652L288,669L290,687L290,702L290,720L284,735L276,747L266,759L254,768L242,775L231,779L218,782L205,783L192,783L179,783L166,780L155,777L144,773L135,768L125,764L115,760L106,755L98,750L91,747L82,741L76,737L69,732L64,727L59,721L55,715L51,708L47,702L43,694L40,687L37,679L34,672L32,662L30,653L29,643L29,632L29,621L29,609L31,596L38,581L48,566L64,548L83,533L104,521L128,511" stroke-opacity="1" stroke-width="2" stroke-linecap="round" stroke-linejoin="round" style="-webkit-tap-highlight-color: rgba(0, 0, 0, 0); stroke-opacity: 1; stroke-linecap: round; stroke-linejoin: round; -webkit-user-select: text;"></path><path fill="none" stroke="#0f0000" d="M185,510L200,521L214,540L226,561L235,584L243,606L247,626L247,646L245,664L237,677L225,685L212,689L199,691L181,691L166,685L152,676L138,665L125,653L114,642L103,631L94,621L85,609L77,597L70,584L63,572L58,562L54,550L51,537L51,523L51,509L51,495L53,481L57,469L64,455L71,443L81,432L90,423L99,416L110,410L123,404L138,400L154,396L171,395L189,395L208,398L229,406L249,417L266,436L280,462L289,491L293,520L293,541L288,559L258,584L231,601L218,608L207,612L192,614L175,614L157,612L139,601L125,587L113,571L102,554L93,540L86,524L80,508L76,490L74,476L74,460L74,446L74,433L76,420L81,407L86,394L91,383L97,373L104,364L111,355L121,345L131,336L142,329L152,324L164,319L176,315L190,312L204,310L218,309L231,309L245,309L259,310L274,315L288,320L301,327L313,336L325,346L335,357L344,370L352,386L358,403L360,424L360,448L359,477L351,501" stroke-opacity="1" stroke-width="2" stroke-linecap="round" stroke-linejoin="round" style="-webkit-tap-highlight-color: rgba(0, 0, 0, 0); stroke-opacity: 1; stroke-linecap: round; stroke-linejoin: round; -webkit-user-select: text;"></path><path fill="none" stroke="#0f0000" d="M180,529L167,526L153,519L139,510L126,499L115,486L103,469L92,451L84,432L79,414L75,394L74,375L74,358L77,344L83,330L90,317L98,305L108,295L119,286L130,278L142,271L154,264L166,259L178,255L192,252L205,250L218,249L232,249L244,249L257,249L270,253L283,259L295,266L305,273L315,282L325,291L333,302L340,313L346,325L352,338L357,351L360,363L363,378L365,392L365,406L365,420L365,434L361,449L353,462L344,474L331,485L316,494L297,500L276,503L249,503" stroke-opacity="1" stroke-width="2" stroke-linecap="round" stroke-linejoin="round" style="-webkit-tap-highlight-color: rgba(0, 0, 0, 0); stroke-opacity: 1; stroke-linecap: round; stroke-linejoin: round; -webkit-user-select: text;"></path><path fill="none" stroke="#0f0000" d="M120,422L113,404L110,385L110,367L115,344L125,324L138,303L151,282L165,262L182,243L200,226L220,212L239,202L256,195L275,191L293,189L312,188L329,188L347,189L363,193L379,199L392,206L405,214L417,222L427,233L436,244L444,255L451,267L456,278L461,290L465,302L467,314L468,327L468,340L468,353L466,366L463,378L458,390L451,402L443,413L434,424L421,435L409,444L393,453L373,461L352,468L329,473L304,476L277,476L246,469" stroke-opacity="1" stroke-width="2" stroke-linecap="round" stroke-linejoin="round" style="-webkit-tap-highlight-color: rgba(0, 0, 0, 0); stroke-opacity: 1; stroke-linecap: round; stroke-linejoin: round; -webkit-user-select: text;"></path><path fill="none" stroke="#0f0000" d="M154,395L146,367L145,337L146,306L151,282L159,262L176,242L198,221L222,203L246,188L268,177L289,170L307,166L328,164L350,164L370,164L390,166L408,170L426,175L442,181L458,187L474,194L489,201L502,209L515,218L527,227L537,236L547,245L556,254L565,263L572,272L578,282L584,293L589,304L594,315L597,326L600,337L601,349L601,361L601,373L601,386L596,399L591,412L583,424L573,436L562,446L549,456L534,463L517,466L494,466L463,466L430,460L395,453" stroke-opacity="1" stroke-width="2" stroke-linecap="round" stroke-linejoin="round" style="-webkit-tap-highlight-color: rgba(0, 0, 0, 0); stroke-opacity: 1; stroke-linecap: round; stroke-linejoin: round; -webkit-user-select: text;"></path><path fill="none" stroke="#0f0000" d="M246,379L228,353L222,339L220,327L220,307L224,280L234,259L250,239L269,223L288,209L308,199L329,193L352,188L372,186L394,186L415,186L436,191L459,196L479,203L499,211L517,220L534,230L551,241L565,250L578,261L590,272L601,283L610,295L618,307L624,319L629,330L633,342L637,354L640,366L642,378L643,390L643,402L643,414L640,426L636,439L629,453L622,465L612,477L600,490L586,501L567,511L546,514" stroke-opacity="1" stroke-width="2" stroke-linecap="round" stroke-linejoin="round" style="-webkit-tap-highlight-color: rgba(0, 0, 0, 0); stroke-opacity: 1; stroke-linecap: round; stroke-linejoin: round; -webkit-user-select: text;"></path><path fill="none" stroke="#0f0000" d="M420,431L417,414L417,392L427,368L442,347L460,331L479,320L499,312L516,307L536,305L554,304L572,304L588,307L602,314L616,322L628,332L638,343L648,355L657,366L664,377L672,388L677,398L681,409L685,421L688,432L690,443L692,451L693,461L694,470L694,479L694,489L694,499L693,511L690,521L687,532L683,542L678,553L670,564L662,574L651,584L639,593L624,601L608,608L589,614L567,616" stroke-opacity="1" stroke-width="2" stroke-linecap="round" stroke-linejoin="round" style="-webkit-tap-highlight-color: rgba(0, 0, 0, 0); stroke-opacity: 1; stroke-linecap: round; stroke-linejoin: round; -webkit-user-select: text;"></path><path fill="none" stroke="#0f0000" d="M475,473L487,456L509,441L530,430L548,424L569,423L589,423L607,426L622,433L636,443L647,454L658,467L667,480L675,495L681,510L686,525L690,540L693,555L694,569L694,583L694,596L694,610L690,622L685,636L679,649L672,661L664,672L656,682L647,692L639,701L630,708L620,715L608,722L597,727L584,731L572,735L559,737L545,739L533,739L519,739L507,739L494,735L481,729L469,721L458,709L447,691L441,669L441,644L447,614L460,583L478,553L494,532L511,520L528,513L548,512L568,512L589,522L604,534L616,549L626,567L632,584L637,604L640,625L641,644L641,663L641,681L639,697L635,712L629,725L622,738L614,751L605,763L596,774L585,783L574,792L562,800L550,807L538,815L525,822L513,828L500,833L488,838L476,842L463,846L451,849L438,851L425,853L412,853L398,853L384,853L367,848L352,841L336,831L319,818L308,803L302,787L302,766L310,737" stroke-opacity="1" stroke-width="2" stroke-linecap="round" stroke-linejoin="round" style="-webkit-tap-highlight-color: rgba(0, 0, 0, 0); stroke-opacity: 1; stroke-linecap: round; stroke-linejoin: round; -webkit-user-select: text;"></path><path fill="none" stroke="#0f0000" d="M366,669L401,647L415,641L427,638L443,639L460,645L477,659L488,673L496,690L500,708L501,726L501,743L498,759L493,774L486,788L478,800L469,810L460,817L448,824L436,830L425,835L412,838L400,841L387,842L375,843L364,844L353,844L342,844L332,844L322,844L312,844L303,844L294,842L285,840L276,837L266,833L257,830L247,826L238,822L229,817L220,813L210,808L202,802L192,796L181,787L173,780L163,770L156,760L151,750L149,737L149,721L163,701L183,681L206,663" stroke-opacity="1" stroke-width="2" stroke-linecap="round" stroke-linejoin="round" style="-webkit-tap-highlight-color: rgba(0, 0, 0, 0); stroke-opacity: 1; stroke-linecap: round; stroke-linejoin: round; -webkit-user-select: text;"></path><path fill="none" stroke="#0f0000" d="M307,637L321,643L332,654L341,667L349,683L353,699L354,713L354,729L350,744L343,757L334,769L324,779L312,787L300,794L290,798L277,801L265,803L252,803L239,803L226,803L215,801L203,798L191,796L179,792L168,789L157,784L147,780L137,774L128,768L119,762L110,754L102,747L94,739L87,730L80,720L74,709L69,697L64,683L61,670L59,655L59,640L59,623L61,606L66,590L74,575L88,558L103,545L122,534L145,525L168,519L188,517L207,518L222,533L230,554L238,575L244,592L246,612L246,630L246,645L242,655L234,665L225,672L215,675L204,675L193,674L181,667L170,659L160,650L152,641L143,632L135,622L129,613L122,603L115,594L109,585L104,577L100,569L96,561L93,553L91,544L90,534L89,524L89,514L89,501L91,488L94,476L98,465L105,452L113,441L123,431L136,421L149,413L165,406L181,402L196,401L215,401L234,407L254,420L269,438L282,461L290,490L295,523L295,558L293,586L281,604L263,616L241,622L221,625L197,622L175,613L156,602L143,593L130,583L120,572L112,559L105,544L101,525L98,503L97,481L96,463L96,449L96,436L99,423L104,412L110,401L116,392L122,384L130,376L137,369L146,363L154,358L162,353L171,349L181,344L190,341L200,338L208,336L217,334L227,334L236,333L246,333L256,333L266,334L277,337L287,341L297,346L307,352L319,362L329,373L338,386L346,407L350,432L350,459L346,482" stroke-opacity="1" stroke-width="2" stroke-linecap="round" stroke-linejoin="round" style="-webkit-tap-highlight-color: rgba(0, 0, 0, 0); stroke-opacity: 1; stroke-linecap: round; stroke-linejoin: round; -webkit-user-select: text;"></path><path fill="none" stroke="#0f0000" d="M232,537L212,536L183,534L156,530L134,522L115,511L100,495L88,476L78,456L71,435L66,417L62,396L61,375L61,357L61,339L65,324L70,311L76,299L83,287L90,278L97,271L106,264L116,259L127,254L139,251L151,248L164,246L177,245L191,244L205,244L219,244L232,248L246,254L258,259L271,267L281,275L292,285L301,295L307,310L313,325L317,342L320,359L321,377L321,396L317,420L310,444L298,468L285,489L267,508L245,522L219,533" stroke-opacity="1" stroke-width="2" stroke-linecap="round" stroke-linejoin="round" style="-webkit-tap-highlight-color: rgba(0, 0, 0, 0); stroke-opacity: 1; stroke-linecap: round; stroke-linejoin: round; -webkit-user-select: text;"></path><path fill="none" stroke="#0f0000" d="M132,539L107,540L86,539L64,533L48,521L37,508L29,491L23,474L21,456L21,439L21,421L25,402L30,385L36,369L43,355L52,341L62,328L73,315L84,305L94,297L104,291L116,286L127,283L140,281L153,280L165,280L178,280L191,283L205,288L218,293L230,300L242,308L252,318L262,328L271,339L280,351L287,364L293,378L299,392L302,408L304,421L305,440L305,458L305,477L299,497L290,519L280,540L266,561L249,580L228,595L202,606" stroke-opacity="1" stroke-width="2" stroke-linecap="round" stroke-linejoin="round" style="-webkit-tap-highlight-color: rgba(0, 0, 0, 0); stroke-opacity: 1; stroke-linecap: round; stroke-linejoin: round; -webkit-user-select: text;"></path><path fill="none" stroke="#0f0000" d="M45,576L35,558L24,537L18,516L14,497L13,477L13,458L13,439L13,419L15,398L18,377L24,358L32,340L41,324L54,307L65,295L78,283L91,273L105,263L119,256L133,250L147,246L160,244L175,242L188,242L202,242L215,243L228,246L240,251L253,258L265,265L277,272L287,280L297,288L306,296L314,305L324,315L329,325L335,336L340,348L343,360L346,373L347,386L347,400L347,417L343,434L336,453L324,474L309,491L288,504" stroke-opacity="1" stroke-width="2" stroke-linecap="round" stroke-linejoin="round" style="-webkit-tap-highlight-color: rgba(0, 0, 0, 0); stroke-opacity: 1; stroke-linecap: round; stroke-linejoin: round; -webkit-user-select: text;"></path><path fill="none" stroke="#0f0000" d="M141,512L119,502L107,494L98,485L86,466L77,445L72,426L71,406L71,385L75,361L83,339L93,318L105,297L117,278L131,263L146,249L162,238L177,229L194,222L210,216L226,213L242,210L256,210L271,210L285,210L299,211L312,214L324,218L336,223L349,229L361,235L373,242L385,248L395,254L406,261L416,269L426,278L435,286L442,295L450,305L456,315L462,327L465,339L468,352L468,365L468,379L465,395L458,410L448,424L437,439L421,453L403,465L382,472L356,474" stroke-opacity="1" stroke-width="2" stroke-linecap="round" stroke-linejoin="round" style="-webkit-tap-highlight-color: rgba(0, 0, 0, 0); stroke-opacity: 1; stroke-linecap: round; stroke-linejoin: round; -webkit-user-select: text;"></path><path fill="none" stroke="#0f0000" d="M250,448L228,434L207,417L194,395L187,368L187,339L190,307L197,278L205,253L216,232L232,212L251,193L270,179L289,169L305,164L323,160L340,157L356,157L372,157L389,157L404,159L420,163L435,167L451,172L467,177L482,183L497,189L511,195L524,202L537,209L549,216L560,223L570,231L580,239L588,247L597,255L605,264L613,272L621,281L628,290L635,300L640,310L645,319L650,329L653,340L656,351L658,361L659,373L659,386L657,401L652,415L645,429L632,445L616,460L598,473L575,483L548,489L514,491" stroke-opacity="1" stroke-width="2" stroke-linecap="round" stroke-linejoin="round" style="-webkit-tap-highlight-color: rgba(0, 0, 0, 0); stroke-opacity: 1; stroke-linecap: round; stroke-linejoin: round; -webkit-user-select: text;"></path><path fill="none" stroke="#0f0000" d="M331,387L329,363L329,349L333,336L345,315L362,291L381,271L402,255L424,244L446,235L467,229L485,226L504,225L521,225L536,230L551,236L566,242L581,249L594,256L607,265L618,273L630,281L640,289L649,296L657,305L665,313L671,322L677,330L683,339L687,346L691,355L695,364L698,372L700,381L702,390L704,399L706,407L708,416L709,424L709,434L709,443L709,453L709,464L706,475L702,485L696,495L688,507L678,518L665,530L648,542L630,551L610,559L591,563L569,565L541,564L515,554L489,540L465,522L444,500" stroke-opacity="1" stroke-width="2" stroke-linecap="round" stroke-linejoin="round" style="-webkit-tap-highlight-color: rgba(0, 0, 0, 0); stroke-opacity: 1; stroke-linecap: round; stroke-linejoin: round; -webkit-user-select: text;"></path><path fill="none" stroke="#0f0000" d="M417,392L421,373L429,358L446,344L467,334L488,328L507,326L526,326L545,328L562,334L579,341L594,349L609,359L623,370L635,382L647,395L657,408L664,423L671,437L676,452L680,466L683,477L684,490L684,504L684,517L682,533L677,546L671,560L664,572L656,584L646,596L633,609L620,621L604,631L588,640L571,647L553,651L535,652L517,652L498,652L479,648L457,639L438,626L420,604" stroke-opacity="1" stroke-width="2" stroke-linecap="round" stroke-linejoin="round" style="-webkit-tap-highlight-color: rgba(0, 0, 0, 0); stroke-opacity: 1; stroke-linecap: round; stroke-linejoin: round; -webkit-user-select: text;"></path><path fill="none" stroke="#0f0000" d="M369,471L370,453L374,440L385,429L401,421L419,417L436,417L453,417L469,423L483,431L497,439L510,449L523,460L534,472L544,485L553,499L560,513L566,527L570,539L572,552L574,565L574,578L574,591L572,604L567,616L561,630L555,642L546,654L537,665L526,676L514,685L501,693L487,698L471,701L458,702L442,702L425,701L410,697L394,688L378,674L365,658L354,640L346,618" stroke-opacity="1" stroke-width="2" stroke-linecap="round" stroke-linejoin="round" style="-webkit-tap-highlight-color: rgba(0, 0, 0, 0); stroke-opacity: 1; stroke-linecap: round; stroke-linejoin: round; -webkit-user-select: text;"></path><path fill="none" stroke="#0f0000" d="M345,552L350,531L355,519L363,509L375,501L391,493L410,489L430,489L448,490L464,497L478,506L491,516L503,527L513,539L521,552L529,566L536,580L541,594L545,608L547,620L548,634L548,647L548,660L545,672L540,684L533,697L524,708L516,718L505,728L494,738L482,746L470,752L457,758L443,763L431,766L416,767L402,767L387,767L370,764L356,757L342,748L329,731L319,708" stroke-opacity="1" stroke-width="2" stroke-linecap="round" stroke-linejoin="round" style="-webkit-tap-highlight-color: rgba(0, 0, 0, 0); stroke-opacity: 1; stroke-linecap: round; stroke-linejoin: round; -webkit-user-select: text;"></path><path fill="none" stroke="#0f0000" d="M326,593L332,565L344,546L360,534L375,528L389,527L407,527L422,533L435,541L447,551L457,562L465,575L472,587L478,600L483,613L487,625L491,638L493,650L494,662L495,672L495,683L495,693L492,703L489,711L484,720L479,727L474,734L469,740L463,746L455,753L448,759L441,766L434,772L427,778L419,783L411,787L402,791L393,795L383,798L373,801L363,803L354,805L344,806L334,806L324,806L312,806L302,803L291,799L279,792L269,781L263,767" stroke-opacity="1" stroke-width="2" stroke-linecap="round" stroke-linejoin="round" style="-webkit-tap-highlight-color: rgba(0, 0, 0, 0); stroke-opacity: 1; stroke-linecap: round; stroke-linejoin: round; -webkit-user-select: text;"></path><path fill="none" stroke="#0f0000" d="M326,638L334,635L344,633L353,633L361,639L368,651L373,665L377,679L378,692L378,708L378,725L375,741L370,757L364,772L356,785L347,797L336,808L323,818L309,825L293,831L277,835L260,835L242,835L224,834L206,828L188,822L171,814L156,804L144,791L135,774L134,751L140,720L153,687" stroke-opacity="1" stroke-width="2" stroke-linecap="round" stroke-linejoin="round" style="-webkit-tap-highlight-color: rgba(0, 0, 0, 0); stroke-opacity: 1; stroke-linecap: round; stroke-linejoin: round; -webkit-user-select: text;"></path><path fill="none" stroke="#0f0000" d="M272,614L281,618L291,625L299,633L307,644L312,657L317,671L318,685L319,699L319,714L317,730L312,744L305,756L298,767L290,777L280,786L269,793L259,798L247,803L235,806L222,808L210,808L198,808L186,808L174,808L163,808L153,806L143,803L135,800L126,795L118,790L110,784L103,779L96,772L88,766L82,758L76,750L71,742L67,733L63,723L60,713L58,702L57,693L56,682L56,669L58,657L64,644L73,631L86,614L103,597L125,579" stroke-opacity="1" stroke-width="2" stroke-linecap="round" stroke-linejoin="round" style="-webkit-tap-highlight-color: rgba(0, 0, 0, 0); stroke-opacity: 1; stroke-linecap: round; stroke-linejoin: round; -webkit-user-select: text;"></path><path fill="none" stroke="#0f0000" d="M241,560L249,571L258,582L266,595L273,610L277,626L278,640L278,656L278,673L274,688L267,701L258,713L248,723L238,731L227,737L216,740L203,741L190,741L177,741L162,736L149,730L137,723L125,716L114,707L103,699L94,689L84,680L75,670L67,659L60,646L55,633L53,616L53,598L55,580L66,560L80,542L97,525L117,511L137,500L158,494L176,491L196,490L214,490L228,496L241,506L252,517L262,529L269,542L273,557L275,575L275,592L274,609L269,623L262,637L252,649L240,660L227,667" stroke-opacity="1" stroke-width="2" stroke-linecap="round" stroke-linejoin="round" style="-webkit-tap-highlight-color: rgba(0, 0, 0, 0); stroke-opacity: 1; stroke-linecap: round; stroke-linejoin: round; -webkit-user-select: text;"></path><path fill="none" stroke="#0f0000" d="M159,628L150,623L145,619L141,616L135,611L129,604L122,596L114,587L106,575L101,565L95,555L89,544L86,534L82,524L81,514L80,503L80,489L81,477L85,464L91,450L98,438L107,426L116,416L127,407L138,398L150,392L162,386L174,382L188,380L203,380L217,380L231,380L247,385L261,392L274,399L286,408L296,419L304,432L310,448L314,464L315,480L315,497L314,516L306,536L295,555L279,572L257,585" stroke-opacity="1" stroke-width="2" stroke-linecap="round" stroke-linejoin="round" style="-webkit-tap-highlight-color: rgba(0, 0, 0, 0); stroke-opacity: 1; stroke-linecap: round; stroke-linejoin: round; -webkit-user-select: text;"></path><path fill="none" stroke="#0f0000" d="M129,592L113,587L96,577L84,563L74,549L67,533L60,518L55,504L52,489L49,473L47,459L46,444L46,430L46,417L46,405L47,393L51,382L55,371L60,361L65,352L70,344L77,335L84,327L90,319L97,312L104,305L112,298L120,291L128,284L137,278L148,271L159,266L170,261L182,257L194,254L205,252L217,250L227,250L239,250L251,250L263,250L275,253L287,257L298,261L309,266L320,272L330,278L341,287L350,293L359,302L368,312L375,321L382,331L387,341L393,352L397,364L401,376L402,390L402,407L401,423L395,440L384,460L369,477L349,491L323,500" stroke-opacity="1" stroke-width="2" stroke-linecap="round" stroke-linejoin="round" style="-webkit-tap-highlight-color: rgba(0, 0, 0, 0); stroke-opacity: 1; stroke-linecap: round; stroke-linejoin: round; -webkit-user-select: text;"></path><path fill="none" stroke="#0f0000" d="M222,501L204,492L191,481L181,467L174,451L173,434L173,417L176,399L185,379L196,361L209,346L224,331L240,319L259,309L278,302L296,298L315,295L334,295L353,295L370,298L387,304L403,312L417,320L429,330L439,341L448,352L455,365L459,380L460,397L460,417L453,438L438,456" stroke-opacity="1" stroke-width="2" stroke-linecap="round" stroke-linejoin="round" style="-webkit-tap-highlight-color: rgba(0, 0, 0, 0); stroke-opacity: 1; stroke-linecap: round; stroke-linejoin: round; -webkit-user-select: text;"></path><path fill="none" stroke="#0f0000" d="M254,502L246,491L242,479L241,465L241,448L243,431L249,412L257,391L266,373L276,357L287,344L300,332L314,321L329,312L344,304L360,298L376,294L392,290L406,289L420,288L435,288L448,288L461,290L473,293L484,297L495,301L505,306L515,312L525,317L534,323L542,330L550,337L558,344L565,351L572,359L578,368L584,376L591,385L596,393L601,402L606,411L610,420L614,429L617,439L619,448L621,459L623,469L623,480L623,491L623,503L623,515L621,527L616,541L609,555L599,569L584,584L567,597L546,609L523,618L498,621L470,621" stroke-opacity="1" stroke-width="2" stroke-linecap="round" stroke-linejoin="round" style="-webkit-tap-highlight-color: rgba(0, 0, 0, 0); stroke-opacity: 1; stroke-linecap: round; stroke-linejoin: round; -webkit-user-select: text;"></path><path fill="none" stroke="#0f0000" d="M336,482L339,462L345,445L358,428L374,414L393,403L413,394L431,389L450,386L469,385L487,385L505,387L521,393L536,400L551,408L565,417L578,426L590,436L600,445L609,454L617,465L623,473L628,483L633,493L638,503L642,514L644,523L647,532L648,542L650,552L650,562L651,571L651,582L651,592L651,602L650,614L647,624L643,635L638,646L630,658L623,669L615,679L606,689L597,699L588,707L578,716L567,724L556,732L544,740L532,747L521,751L510,754L497,756L485,756L470,756L453,752L434,737" stroke-opacity="1" stroke-width="2" stroke-linecap="round" stroke-linejoin="round" style="-webkit-tap-highlight-color: rgba(0, 0, 0, 0); stroke-opacity: 1; stroke-linecap: round; stroke-linejoin: round; -webkit-user-select: text;"></path><path fill="none" stroke="#0f0000" d="M338,607L334,591L334,572L336,550L348,532L359,521L372,514L385,510L399,509L413,509L427,509L439,514L449,520L459,530L467,540L475,550L481,563L485,576L487,589L488,603L488,617L488,631L482,645L472,659L461,672L444,686L426,696L405,705L381,711L360,713L334,713L313,702L297,684L285,661L280,635L278,609L278,584L280,560L292,536L308,514L328,493L353,475" stroke-opacity="1" stroke-width="2" stroke-linecap="round" stroke-linejoin="round" style="-webkit-tap-highlight-color: rgba(0, 0, 0, 0); stroke-opacity: 1; stroke-linecap: round; stroke-linejoin: round; -webkit-user-select: text;"></path><path fill="none" stroke="#0f0000" d="M427,450L443,450L458,457L469,470L479,483L488,497L496,511L502,525L506,539L509,550L511,563L511,576L511,588L511,600L508,613L504,625L498,636L492,647L485,657L476,667L465,675L453,682L441,689L429,693L416,696L403,699L389,700L375,701L361,701L346,701L331,698L316,693L301,686L287,679L274,671L262,662L250,652L240,642L232,630L225,617L220,604L216,589L213,576L211,561L211,546L211,529L217,514L228,497L244,480L265,466L288,455L311,449L331,447L351,446L366,448L378,456L389,467L400,479L410,491L419,504L427,519L433,533L436,550L436,564L436,579L433,592L428,604L421,614L413,625L404,634L396,641L386,648L375,652L364,655L353,657L341,659L330,659L317,659L305,659L293,657L280,653L267,649L254,643L242,636L232,628L223,618L215,605L210,592L207,578L207,560" stroke-opacity="1" stroke-width="2" stroke-linecap="round" stroke-linejoin="round" style="-webkit-tap-highlight-color: rgba(0, 0, 0, 0); stroke-opacity: 1; stroke-linecap: round; stroke-linejoin: round; -webkit-user-select: text;"></path><path fill="none" stroke="#0f0000" d="M289,457L293,455L300,455L312,455L327,455L343,457L358,462L371,469L383,478L392,487L399,499L404,509L407,521L409,534L410,547L410,560L409,572L404,583L398,592L390,599L380,605L370,609L357,610L344,610L331,610L316,604L302,596L290,587L279,575L272,559L271,539" stroke-opacity="1" stroke-width="2" stroke-linecap="round" stroke-linejoin="round" style="-webkit-tap-highlight-color: rgba(0, 0, 0, 0); stroke-opacity: 1; stroke-linecap: round; stroke-linejoin: round; -webkit-user-select: text;"></path><path fill="none" stroke="#0f0000" d="M312,452L317,447L327,443L339,443L350,443L363,445L376,451L386,457L395,464L403,472L409,480L412,490L415,500L416,510L416,520L415,531L412,540L407,548L400,556L394,560L386,564L377,566L366,567L353,567L342,567L332,564L323,558L314,551L306,543L300,533L295,522L294,509L295,492L303,476L318,460L334,445L352,432L366,424L381,419L392,417L404,417L413,420L420,427L427,436L433,446L438,456L441,468L441,478L441,492L439,504L434,516L428,526L420,535L412,543L402,549L391,553L380,555L368,555L355,554L342,546L331,537L322,526L316,516L314,504L316,489" stroke-opacity="1" stroke-width="2" stroke-linecap="round" stroke-linejoin="round" style="-webkit-tap-highlight-color: rgba(0, 0, 0, 0); stroke-opacity: 1; stroke-linecap: round; stroke-linejoin: round; -webkit-user-select: text;"></path><path fill="none" stroke="#0f0000" d="M387,445L393,447L402,448L412,451L422,455L434,461L443,469L449,479L454,489L456,499L456,509L456,521L453,533L447,543L438,555L429,564L419,570L408,574L398,576L386,576L375,574L363,566L353,558L346,547L340,534L338,522L338,507L341,492L350,478L364,468L378,462L389,458" stroke-opacity="1" stroke-width="2" stroke-linecap="round" stroke-linejoin="round" style="-webkit-tap-highlight-color: rgba(0, 0, 0, 0); stroke-opacity: 1; stroke-linecap: round; stroke-linejoin: round; -webkit-user-select: text;"></path><path fill="none" stroke="#0f0000" d="M434,463L441,467L446,473L451,481L456,492L460,503L462,514L463,524L463,536L461,548L455,559L449,569L439,579L428,588L416,595L402,601L386,605L373,607L358,607L344,607L331,604L320,598L308,590L298,581L290,571L282,559L278,545L278,531L278,513L285,497L296,483L310,472L324,465L340,460L355,458L369,458L383,458L395,461L404,468L412,477L418,487L421,498L421,511L421,526L415,541L407,553L396,565L383,574L366,581L346,586L324,587L303,586L284,579L268,571" stroke-opacity="1" stroke-width="2" stroke-linecap="round" stroke-linejoin="round" style="-webkit-tap-highlight-color: rgba(0, 0, 0, 0); stroke-opacity: 1; stroke-linecap: round; stroke-linejoin: round; -webkit-user-select: text;"></path><path fill="none" stroke="#0f0000" d="M316,468L324,465L334,465L343,468L352,476L361,485L367,496L371,507L374,519L375,528L375,539L375,551L374,562L368,574L361,583L352,591L342,595L333,597L322,598L310,598L296,592L283,584L270,575L257,564L246,552L236,539L230,525L227,511L227,494L229,478L237,464L248,452L259,444L269,440L281,439L293,439L305,441L317,448L326,457L334,468L341,480L345,491L348,505L348,519L346,535L339,547L329,557L315,564L298,566L278,566L255,560L236,548L222,535" stroke-opacity="1" stroke-width="2" stroke-linecap="round" stroke-linejoin="round" style="-webkit-tap-highlight-color: rgba(0, 0, 0, 0); stroke-opacity: 1; stroke-linecap: round; stroke-linejoin: round; -webkit-user-select: text;"></path><path fill="none" stroke="#0f0000" d="M253,413L263,405L278,395L298,386L317,380L338,378L357,378L375,380L392,386L405,394L415,403L423,414L428,425L430,439L430,456L428,471L421,487L411,500L399,511L385,519L369,524L355,526L340,526L324,524L311,515L300,504L292,491L285,476L281,461L280,444L280,427L283,410L290,395L301,383L313,374L328,367L344,363L358,362L373,362L389,363L402,368L414,375L426,384L435,395L443,407L448,420L451,433L451,449L450,465L443,479L434,490L419,499L399,505L378,505L356,502L337,491L322,475L313,456L309,439L309,419L316,398L327,381L344,366L367,354L390,345L409,341L429,341L447,342L464,349L480,356L494,366L505,378L514,391L520,405L524,419L526,433L526,448L526,462L524,477L519,491L510,504L498,515L484,524L468,529L450,530L432,529L416,521L403,509L394,495L390,480L390,464L394,450L404,438L416,430L429,426L442,424L456,424L471,428L483,437L493,448L502,460L508,474L511,490L512,506L511,524L504,540L494,555L478,570L464,577L447,582L429,582L412,576L397,565" stroke-opacity="1" stroke-width="2" stroke-linecap="round" stroke-linejoin="round" style="-webkit-tap-highlight-color: rgba(0, 0, 0, 0); stroke-opacity: 1; stroke-linecap: round; stroke-linejoin: round; -webkit-user-select: text;"></path><path fill="none" stroke="#0f0000" d="M448,472L451,472L457,472L465,473L474,478L483,486L492,498L497,512L499,528L499,545L497,562L490,579L481,593L468,605L453,616L436,624L418,628L398,629L378,629L360,622L343,609L334,596L327,579L324,560L324,541L331,520L341,505L351,494L361,489L370,487L381,487L392,492L401,500L407,509L411,520L413,533L413,545L413,558L410,569L403,578L395,586L384,591L373,594L361,594L348,592L336,585L327,575L319,563L316,550L316,536L317,521L323,511L331,503L341,497L353,494L365,494L376,495L387,502L396,513L403,524L407,538L408,552L408,567L405,583L396,596L383,609L365,620L348,626L327,631L306,631L283,626L265,615L251,599L241,579L235,561L234,540L237,516L246,495L258,477L270,467L283,460L299,457" stroke-opacity="1" stroke-width="2" stroke-linecap="round" stroke-linejoin="round" style="-webkit-tap-highlight-color: rgba(0, 0, 0, 0); stroke-opacity: 1; stroke-linecap: round; stroke-linejoin: round; -webkit-user-select: text;"></path><path fill="none" stroke="#0f0000" d="M359,499L357,508L356,519L352,533L346,549L339,566L326,584L312,598L298,607L282,614L265,618L247,618L229,617L213,610L197,600L182,585L171,568L165,551L162,531L162,510L165,486L175,467L188,451L206,438L225,429L242,425L261,425L279,427L295,436L308,449L319,464L327,481L331,499L332,517L331,533L325,546L316,557L302,564L286,567L268,567L251,566L234,558L221,545L210,530L202,512L198,492L197,471L199,451L208,430L219,414L231,402L246,391L264,384L283,380L302,380L322,380L341,385L357,393L371,404L382,418L390,433L393,449L394,465L393,483L386,498L374,511L360,521L344,528L326,531L309,531L292,527L277,518L264,504L256,488L251,470L250,452L250,434L258,417L273,399L288,385L303,376L320,370L339,368L358,367L378,367L396,372L414,379L431,391L443,402L453,416L461,431L466,447L468,463L468,480L465,496L455,511L443,524L424,535L406,541L386,542L367,540L349,528L339,516L334,497L334,477L342,456L355,439L371,427L387,419L405,415L423,415L439,418L453,426L465,438L473,452L480,469L482,486L482,504L482,521L472,541L460,558L446,570L432,578L415,583L397,583L382,580L371,570L366,556L366,541L370,525L380,513L389,506L400,502L413,502L427,506L438,514L448,525L454,538L457,550L457,564L457,577L451,592L441,605L429,617L416,627L400,635L383,641L365,645L346,645L328,645L311,639L295,629L282,617L272,602L266,586L263,572L263,554L270,540L279,529L288,523L297,520L307,520L316,521L322,528L326,535L327,545L327,556L324,566L316,575L307,582L296,587L285,590L271,590L254,589L238,583L221,571L206,555L193,536L184,514L183,487L188,458L204,429L226,404L254,382L289,364L332,352" stroke-opacity="1" stroke-width="2" stroke-linecap="round" stroke-linejoin="round" style="-webkit-tap-highlight-color: rgba(0, 0, 0, 0); stroke-opacity: 1; stroke-linecap: round; stroke-linejoin: round; -webkit-user-select: text;"></path></svg>