<svg height="906" version="1.1" width="768" xmlns="http://www.w3.org/2000/svg" xmlns:xlink="http://www.w3.org/1999/xlink" style="overflow: hidden; position: relative; -webkit-user-select: text;"><desc style="-webkit-tap-highlight-color: rgba(0, 0, 0, 0); -webkit-user-select: text;">Created with Raphaël 2.2.0</desc><defs style="-webkit-tap-highlight-color: rgba(0, 0, 0, 0); -webkit-user-select: text;"></defs><path fill="none" stroke="#fffe29" d="M380,297L383,298L385,298L387,298L390,298L392,297L395,296L398,295L401,295L404,294L406,294L409,293L411,293L414,293L416,293L419,293L421,293L424,293L426,293L429,293L431,293L434,293L436,294L438,295L440,295L442,296L444,298L446,298L448,300L451,300L453,302L455,302L456,304L458,305L460,307L462,308L463,310L465,311L467,313L468,315L470,316L471,318L472,320L474,322L475,324L476,326L477,327L478,329L479,331L480,333L480,334L481,336L482,339L482,341L483,342L484,344L484,346L485,348L485,350L486,352L486,353L487,356L487,357L487,359L487,361L487,363L487,365L487,366L487,368L488,370L488,372L488,374L488,376L488,378L488,380L488,383L488,385L488,387L488,389L487,391L487,392L486,394L485,396L484,397L483,399L482,401L482,402L480,404L480,405L479,406L478,407L477,409L476,410L475,411L474,412L472,414L470,415L469,416L468,417L467,418L465,419L464,420L463,421L462,422L460,423L459,423L458,424L456,425L455,425L454,426L453,426L452,427L451,427L449,428L448,428L447,429L446,429L445,429L443,429L442,429L441,429L440,429L439,429L438,429L437,429L436,429L435,429L434,429L433,429L432,429L431,429L429,429L427,429L424,428L422,425" stroke-opacity="1" stroke-width="2" stroke-linecap="round" stroke-linejoin="round" style="-webkit-tap-highlight-color: rgba(0, 0, 0, 0); stroke-opacity: 1; stroke-linecap: round; stroke-linejoin: round; -webkit-user-select: text;"></path><path fill="none" stroke="#fffe29" d="M423,374L421,367L424,365L427,363L431,362L435,361L439,361L443,361L446,361L450,361L454,363L457,365L460,367L464,370L467,373L470,377L472,380L473,384L475,387L475,390L476,394L476,398L476,401L476,405L476,409L476,414L475,419L472,425L470,431L468,436L465,440L462,444L459,448L456,450L453,453L449,456L446,458L441,459L437,460L433,461L429,462L426,462L422,462L419,462L415,462L412,462L409,462L406,462L403,461L401,460L399,459L397,458L395,457L393,456L391,454L390,453L389,452L387,450L387,448L385,447L385,446L384,445L383,443L383,441L382,441L381,440L381,439L380,438L380,436L379,436L379,434L378,434L378,433L378,431L377,430L377,429L376,427L376,424L375,418L375,409" stroke-opacity="1" stroke-width="2" stroke-linecap="round" stroke-linejoin="round" style="-webkit-tap-highlight-color: rgba(0, 0, 0, 0); stroke-opacity: 1; stroke-linecap: round; stroke-linejoin: round; -webkit-user-select: text;"></path><path fill="none" stroke="#fffe29" d="M412,366L415,368L419,368L422,371L425,373L427,377L430,381L431,385L433,390L433,395L433,402L433,408L433,415L431,421L428,426L426,431L423,435L420,439L417,442L413,446L409,449L405,452L401,454L397,456L393,458L389,459L385,460L380,460L376,461L373,461L369,461L365,461L361,461L358,461L354,461L351,460L348,459L345,457L341,456L339,453L336,452L334,450L331,447L329,445L327,442L325,440L324,438L322,435L320,433L319,430L317,427L316,425L315,423L314,421L314,419L313,417L312,414L312,412L312,409L312,405L312,398L317,383L328,370" stroke-opacity="1" stroke-width="2" stroke-linecap="round" stroke-linejoin="round" style="-webkit-tap-highlight-color: rgba(0, 0, 0, 0); stroke-opacity: 1; stroke-linecap: round; stroke-linejoin: round; -webkit-user-select: text;"></path><path fill="none" stroke="#fffe29" d="M385,370L387,377L387,381L387,385L387,389L387,393L387,398L387,403L384,407L382,410L378,414L374,417L371,419L367,421L363,422L359,424L355,424L350,425L346,425L341,425L337,425L332,425L327,424L322,422L317,420L312,418L308,415L304,412L299,408L295,404L291,401L288,398L285,395L283,390L280,386L278,382L277,378L276,373L275,368L275,363L275,359L275,355L275,351L275,347L276,342L278,337L279,334L281,330L283,327L285,323L286,320L288,317L289,314L290,311L292,308L294,306L295,304L297,302L299,300L301,298L303,295L305,293L307,291L309,289L311,287L314,285L317,282L323,276L335,268" stroke-opacity="1" stroke-width="2" stroke-linecap="round" stroke-linejoin="round" style="-webkit-tap-highlight-color: rgba(0, 0, 0, 0); stroke-opacity: 1; stroke-linecap: round; stroke-linejoin: round; -webkit-user-select: text;"></path><path fill="none" stroke="#fffe29" d="M334,406L330,407L326,407L322,406L315,403L308,400L302,396L297,393L293,389L289,385L286,380L284,375L282,370L281,365L281,359L281,352L281,346L281,340L282,334L285,328L287,323L289,318L292,313L295,308L297,304L301,300L305,295L309,292L314,287L318,284L322,281L327,278L332,275L337,273L341,271L345,269L349,268L353,267L358,266L362,265L366,264L370,264L374,263L378,263L382,263L386,263L390,263L395,263L399,265L403,266L407,268L410,269L413,271L417,273L420,274L423,277L426,279L429,281L431,283L434,286L437,289L439,291L441,294L444,297L446,300L448,303L450,306L451,309L453,312L455,317L458,322L461,330L466,345L470,363L470,375" stroke-opacity="1" stroke-width="2" stroke-linecap="round" stroke-linejoin="round" style="-webkit-tap-highlight-color: rgba(0, 0, 0, 0); stroke-opacity: 1; stroke-linecap: round; stroke-linejoin: round; -webkit-user-select: text;"></path><path fill="none" stroke="#fffe29" d="M329,370L324,365L321,360L319,355L317,349L317,343L317,336L317,329L319,322L324,312L331,302L338,293L345,285L351,279L358,274L364,269L370,266L377,262L385,260L391,259L397,257L404,256L412,256L419,255L424,255L430,255L436,255L442,255L448,255L453,257L458,260L463,263L467,266L470,269L474,272L477,276L480,279L483,283L485,286L488,291L491,296L494,301L497,306L499,311L501,316L503,320L504,325L505,330L507,336L507,340L508,346L509,351L509,357L509,363L509,368L509,374L509,380L509,387L509,393L509,400L507,408L504,416L498,426L488,437L470,444" stroke-opacity="1" stroke-width="2" stroke-linecap="round" stroke-linejoin="round" style="-webkit-tap-highlight-color: rgba(0, 0, 0, 0); stroke-opacity: 1; stroke-linecap: round; stroke-linejoin: round; -webkit-user-select: text;"></path><path fill="none" stroke="#fffe29" d="M389,329L389,323L390,316L395,310L402,304L413,300L425,297L438,296L451,296L461,297L471,301L479,307L485,312L490,318L494,324L498,331L500,339L502,346L503,354L504,361L504,369L504,378L504,388L504,397L502,407L500,417L497,424L494,432L489,439L484,446L479,453L473,460L468,466L463,471L458,475L453,478L446,481L440,482L433,484L427,486L421,487L416,488L410,490L404,490L397,491L390,492L383,492L378,492L372,492L366,492L361,492L356,490L351,489L346,487L341,484L337,481L332,477L328,474L324,470L320,467L316,463L312,459L309,455L306,451L303,447L300,443L297,439L295,435L292,430L289,423L286,415L283,402L283,383" stroke-opacity="1" stroke-width="2" stroke-linecap="round" stroke-linejoin="round" style="-webkit-tap-highlight-color: rgba(0, 0, 0, 0); stroke-opacity: 1; stroke-linecap: round; stroke-linejoin: round; -webkit-user-select: text;"></path><path fill="none" stroke="#fffe29" d="M366,358L363,363L361,370L356,376L348,381L340,383L332,383L324,383L316,380L309,375L304,368L299,361L296,353L293,347L291,341L291,337L291,331L291,324L291,317L294,310L296,303L298,297L302,290L307,282L312,277L317,271L322,266L327,262L332,259L338,256L345,253L351,250L358,248L366,246L373,244L380,243L388,242L395,241L402,240L410,239L417,239L424,239L430,239L437,240L443,242L448,244L454,247L460,250L466,254L471,258L477,262L481,266L485,270L490,275L494,279L497,284L500,289L503,294L506,300L509,305L511,312L514,319L515,324L517,331L519,339L520,347L521,355L521,362L521,370L521,378L521,386L521,394L517,404L512,414L504,425L492,434L473,438L453,439" stroke-opacity="1" stroke-width="2" stroke-linecap="round" stroke-linejoin="round" style="-webkit-tap-highlight-color: rgba(0, 0, 0, 0); stroke-opacity: 1; stroke-linecap: round; stroke-linejoin: round; -webkit-user-select: text;"></path><path fill="none" stroke="#fffe29" d="M377,380L374,374L374,366L374,355L377,345L383,335L387,329L394,323L401,319L412,314L422,311L431,310L442,309L451,309L459,309L467,312L474,315L481,320L487,325L492,331L496,337L500,344L503,349L505,356L507,364L509,373L509,380L509,391L509,400L508,409L506,420L502,431L498,442L494,453L488,462L483,471L477,478L470,485L465,490L458,495L451,500L445,504L439,508L433,511L427,513L421,515L415,517L409,519L402,519L396,520L390,520L383,520L377,520L371,520L365,520L358,519L353,517L347,515L342,512L337,510L332,507L327,502L319,495L310,485L300,472L295,454" stroke-opacity="1" stroke-width="2" stroke-linecap="round" stroke-linejoin="round" style="-webkit-tap-highlight-color: rgba(0, 0, 0, 0); stroke-opacity: 1; stroke-linecap: round; stroke-linejoin: round; -webkit-user-select: text;"></path><path fill="none" stroke="#fffe29" d="M388,336L397,343L403,350L407,357L411,367L414,377L416,388L417,400L418,410L418,423L418,434L415,445L410,455L404,464L398,473L391,481L383,488L376,495L368,500L360,504L352,507L344,508L336,509L327,510L319,510L311,510L305,510L297,509L290,507L284,503L277,499L271,495L265,490L259,483L253,476L249,470L244,464L240,457L237,451L235,443L233,436L232,429L231,422L230,417L230,410L230,403L230,396L230,388L232,381L234,374L238,366L243,357L247,351L251,345L256,339L262,334L267,329L273,324L278,319L283,316L288,313L294,310L301,307L308,305L317,302L329,301L342,301L353,301" stroke-opacity="1" stroke-width="2" stroke-linecap="round" stroke-linejoin="round" style="-webkit-tap-highlight-color: rgba(0, 0, 0, 0); stroke-opacity: 1; stroke-linecap: round; stroke-linejoin: round; -webkit-user-select: text;"></path><path fill="none" stroke="#fffe29" d="M353,362L356,373L356,380L356,390L354,399L351,407L348,414L344,420L339,425L332,429L325,431L318,434L310,435L303,435L294,435L287,435L280,435L274,433L268,430L263,426L259,422L255,417L251,411L247,404L243,395L239,385L236,377L234,368L232,360L230,352L230,344L230,334L230,325L231,315L233,305L235,297L238,288L242,279L246,272L252,263L258,256L264,250L271,244L279,239L287,234L295,229L302,226L310,222L317,220L325,218L333,217L341,216L350,215L358,215L367,215L375,217L383,220L391,223L399,227L407,233L414,238L420,243L426,248L430,254L434,261L437,268L440,276L441,285L440,296" stroke-opacity="1" stroke-width="2" stroke-linecap="round" stroke-linejoin="round" style="-webkit-tap-highlight-color: rgba(0, 0, 0, 0); stroke-opacity: 1; stroke-linecap: round; stroke-linejoin: round; -webkit-user-select: text;"></path><path fill="none" stroke="#fffe29" d="M296,400L291,396L285,393L279,388L273,381L266,373L260,363L255,351L251,339L249,327L249,314L250,298L255,282L261,268L268,256L276,245L285,235L294,226L302,219L312,212L323,207L333,203L344,200L354,198L364,196L375,196L387,196L398,196L409,197L419,201L428,205L437,211L446,217L453,225L460,234L465,244L470,254L473,265L475,276L477,288L477,298L477,311L477,322L474,333L468,344L461,353L453,363L445,371L434,378L423,383L411,387L399,388L385,388L372,388L358,385L345,378L334,370L326,359L321,349L318,334L318,315L322,298L329,282L338,270L347,259L358,251L370,244L381,240L393,238L406,237L418,237L430,237L441,239L453,243L463,246L473,250L482,255L491,261L499,266L504,271L511,277L516,282L521,288L526,294L529,299L532,305L535,310L537,316L539,322L541,327L543,332L544,337L545,342L546,347L547,352L548,357L548,363L548,368L549,373L549,379L549,384L549,390L549,395L549,400L549,405L548,411L545,418L543,424L538,431L533,440L526,449L516,459L501,468L474,477" stroke-opacity="1" stroke-width="2" stroke-linecap="round" stroke-linejoin="round" style="-webkit-tap-highlight-color: rgba(0, 0, 0, 0); stroke-opacity: 1; stroke-linecap: round; stroke-linejoin: round; -webkit-user-select: text;"></path><path fill="none" stroke="#fffe29" d="M400,337L405,325L412,315L421,308L433,302L446,300L459,300L470,302L481,309L492,318L501,329L510,342L517,357L522,374L523,392L523,411L520,430L512,451L502,469L488,486L472,502L455,516L437,526L422,532L405,535L389,535L375,531L363,522L354,510L348,494L345,478L345,463L346,447L354,434L364,423L376,414L388,409L400,406L410,406L422,406L433,411L441,418L448,427L453,438L456,450L458,462L458,474L458,484L454,494L450,502L443,509L434,515L425,521L415,525L407,527L397,529L387,529L378,529L370,529L362,528L355,524L349,521L343,515L336,507L331,490" stroke-opacity="1" stroke-width="2" stroke-linecap="round" stroke-linejoin="round" style="-webkit-tap-highlight-color: rgba(0, 0, 0, 0); stroke-opacity: 1; stroke-linecap: round; stroke-linejoin: round; -webkit-user-select: text;"></path><path fill="none" stroke="#ffbf2f" d="M392,311L389,304L393,301L397,298L404,295L411,291L418,288L424,286L431,285L437,284L444,284L452,284L459,285L465,288L471,290L477,293L482,295L487,298L492,302L497,305L501,309L505,313L509,316L512,320L516,324L519,328L522,332L525,335L527,339L529,342L531,346L533,349L535,353L537,357L538,361L539,365L540,369L541,372L542,375L542,379L543,382L543,385L543,389L543,393L543,396L543,399L543,402L543,406L543,409L543,413L542,417L540,420L539,423L538,426L537,428L536,431L534,434L533,436L531,439L529,441L527,444L526,446L523,448L521,449L518,451L515,452L510,453L503,454L491,454L479,454" stroke-opacity="1" stroke-width="2" stroke-linecap="round" stroke-linejoin="round" style="-webkit-tap-highlight-color: rgba(0, 0, 0, 0); stroke-opacity: 1; stroke-linecap: round; stroke-linejoin: round; -webkit-user-select: text;"></path><path fill="none" stroke="#ffbf2f" d="M453,355L458,350L465,346L473,344L482,343L492,342L502,342L509,345L516,349L522,356L526,363L531,370L534,378L536,387L537,396L538,405L538,414L538,424L536,434L534,443L531,453L527,461L523,470L519,477L514,486L509,494L505,499L499,505L493,511L488,515L483,519L478,521L473,524L468,525L463,526L458,526L453,526L448,526L443,526L438,526L434,526L429,526L425,526L421,524L417,522L413,520L409,518L405,516L402,513L398,511L395,507L391,502L388,496L386,490L385,480" stroke-opacity="1" stroke-width="2" stroke-linecap="round" stroke-linejoin="round" style="-webkit-tap-highlight-color: rgba(0, 0, 0, 0); stroke-opacity: 1; stroke-linecap: round; stroke-linejoin: round; -webkit-user-select: text;"></path><path fill="none" stroke="#ffbf2f" d="M412,419L416,414L421,410L428,409L433,409L437,409L442,411L446,415L449,420L453,426L457,432L460,438L462,443L464,450L465,457L467,464L467,472L467,479L467,487L465,494L463,499L459,505L455,511L453,515L450,520L446,524L443,528L440,531L436,534L433,537L429,540L425,542L422,544L417,547L414,548L409,550L404,552L400,553L396,554L391,555L387,555L383,555L378,555L374,555L370,555L365,555L361,555L357,554L353,552L349,550L346,547L343,545L339,542L335,539L332,536L329,532L325,528L321,522L316,513L313,502L312,487L312,468L322,443L334,419L346,402L357,391L369,384L379,383L385,383L391,391L395,399L397,409L399,419L400,430L400,440L400,451L399,461L396,471L392,480L388,487L383,494L378,500L373,506L368,510L361,513L356,516L350,518L344,519L339,520L332,521L326,521L319,522L313,522L306,523L299,523L293,523L286,523L281,523L274,523L270,523L265,522L260,521L256,520L251,518L248,516L244,514L241,512L238,509L234,507L232,504L229,500L226,496L224,492L222,487L220,482L218,477L217,471L215,465L214,459L213,453L212,446L212,437L212,425L220,409L236,387" stroke-opacity="1" stroke-width="2" stroke-linecap="round" stroke-linejoin="round" style="-webkit-tap-highlight-color: rgba(0, 0, 0, 0); stroke-opacity: 1; stroke-linecap: round; stroke-linejoin: round; -webkit-user-select: text;"></path><path fill="none" stroke="#ffbf2f" d="M312,336L317,339L322,344L328,349L333,356L336,363L340,371L342,379L343,388L343,397L343,408L341,418L337,428L333,437L328,445L322,451L316,457L309,462L302,465L296,468L290,469L283,470L276,471L270,471L263,471L258,471L253,470L248,468L243,466L238,463L234,460L229,458L226,456L222,453L219,451L216,448L213,445L211,442L208,439L206,436L204,434L203,431L201,428L199,424L198,421L197,418L196,414L195,410L194,406L193,402L193,397L192,393L192,389L191,385L191,380L191,375L191,370L191,361L196,348L205,337" stroke-opacity="1" stroke-width="2" stroke-linecap="round" stroke-linejoin="round" style="-webkit-tap-highlight-color: rgba(0, 0, 0, 0); stroke-opacity: 1; stroke-linecap: round; stroke-linejoin: round; -webkit-user-select: text;"></path><path fill="none" stroke="#ffbf2f" d="M297,256L304,257L309,261L312,267L315,273L319,282L321,291L324,300L325,310L326,319L326,328L326,338L324,349L321,358L316,367L312,373L306,380L301,385L295,390L288,394L283,396L276,398L271,399L264,399L258,399L252,399L247,398L242,396L235,393L230,391L225,387L221,384L217,380L213,375L210,370L207,364L205,358L202,352L200,346L199,340L198,334L197,329L197,323L197,317L197,310L197,304L198,296L201,288L204,281L209,271L215,260L234,245" stroke-opacity="1" stroke-width="2" stroke-linecap="round" stroke-linejoin="round" style="-webkit-tap-highlight-color: rgba(0, 0, 0, 0); stroke-opacity: 1; stroke-linecap: round; stroke-linejoin: round; -webkit-user-select: text;"></path><path fill="none" stroke="#ffbf2f" d="M331,198L336,202L343,206L350,212L357,220L363,230L368,241L372,251L374,263L375,273L375,288L373,304L367,318L361,332L353,344L346,354L338,362L329,368L322,372L313,375L306,376L297,376L290,376L284,373L278,369L273,364L268,359L262,354L258,349L254,344L250,339L246,334L244,329L241,324L239,319L237,315L236,310L235,305L234,300L234,295L234,290L234,285L234,280L234,273L234,268L236,261L240,251L257,233" stroke-opacity="1" stroke-width="2" stroke-linecap="round" stroke-linejoin="round" style="-webkit-tap-highlight-color: rgba(0, 0, 0, 0); stroke-opacity: 1; stroke-linecap: round; stroke-linejoin: round; -webkit-user-select: text;"></path><path fill="none" stroke="#ffbf2f" d="M328,174L340,176L348,177L359,180L370,183L382,187L392,191L402,196L411,203L418,210L425,219L430,228L434,239L436,249L438,259L438,270L438,279L438,289L437,297L435,305L432,312L429,319L425,326L420,332L415,337L409,342L404,346L397,349L390,351L384,352L377,353L370,353L363,353L356,353L348,353L341,351L335,348L329,345L324,341L319,336L315,332L312,327L308,320L306,315L304,308L302,302L301,297L300,291L299,286L299,281L298,275L298,268L298,261L299,254L301,246L304,239L311,227L334,205" stroke-opacity="1" stroke-width="2" stroke-linecap="round" stroke-linejoin="round" style="-webkit-tap-highlight-color: rgba(0, 0, 0, 0); stroke-opacity: 1; stroke-linecap: round; stroke-linejoin: round; -webkit-user-select: text;"></path><path fill="none" stroke="#ffbf2f" d="M384,185L385,177L389,177L396,177L404,178L414,182L423,186L433,191L442,196L450,203L457,211L463,220L469,229L473,239L476,249L477,259L477,269L477,281L477,292L474,302L469,313L463,322L458,332L451,340L443,347L435,354L426,359L419,363L410,366L401,367L391,367L382,367L373,367L365,365L357,361L350,357L344,352L339,346L334,339L331,332L329,325L327,319L326,311L325,304L325,298L325,290L327,283L331,276L336,269L341,262L346,257L353,252L360,247L369,243L378,239L389,236L400,233L412,231L425,230L443,229L463,229" stroke-opacity="1" stroke-width="2" stroke-linecap="round" stroke-linejoin="round" style="-webkit-tap-highlight-color: rgba(0, 0, 0, 0); stroke-opacity: 1; stroke-linecap: round; stroke-linejoin: round; -webkit-user-select: text;"></path><path fill="none" stroke="#ffbf2f" d="M491,265L494,268L497,273L501,278L505,284L509,290L514,296L517,303L520,311L522,319L523,327L523,337L523,347L522,358L518,369L513,378L507,387L499,396L492,402L483,408L473,412L463,415L454,417L445,417L436,417L428,416L420,413L412,409L406,403L400,397L394,391L390,384L387,376L385,367L383,358L383,349L383,339L383,331L385,323L388,315L393,308L399,302L407,296L415,290L424,286L433,281L442,278L451,276L461,274L472,274L482,274L492,274L500,276L508,280L515,285L522,291L528,298L535,305L541,313L546,324L551,340L552,361L549,389L538,418" stroke-opacity="1" stroke-width="2" stroke-linecap="round" stroke-linejoin="round" style="-webkit-tap-highlight-color: rgba(0, 0, 0, 0); stroke-opacity: 1; stroke-linecap: round; stroke-linejoin: round; -webkit-user-select: text;"></path><path fill="none" stroke="#ffbf2f" d="M417,396L413,380L409,366L407,348L402,331L402,315L402,299L402,281L407,266L415,252L424,241L434,232L443,226L454,222L463,220L474,220L484,220L494,222L503,226L512,231L521,237L529,244L537,251L544,258L551,266L558,274L563,284L568,293L571,303L573,314L574,323L575,334L575,344L575,356L574,368L571,378L567,389L562,399L557,408L551,417L544,425L536,433L529,441L521,447L513,452L506,456L497,460L489,462L481,464L473,465L464,465L455,465L444,463L433,460L419,454L404,446L392,438" stroke-opacity="1" stroke-width="2" stroke-linecap="round" stroke-linejoin="round" style="-webkit-tap-highlight-color: rgba(0, 0, 0, 0); stroke-opacity: 1; stroke-linecap: round; stroke-linejoin: round; -webkit-user-select: text;"></path><path fill="none" stroke="#ffbf2f" d="M380,372L384,362L388,354L395,348L404,343L413,342L422,342L431,343L440,348L448,353L455,359L463,366L469,375L475,383L479,393L483,402L486,412L489,421L490,430L491,440L492,450L492,460L492,471L491,480L488,488L485,496L482,503L478,510L473,516L469,522L464,528L459,532L454,536L448,540L443,543L437,546L431,549L425,551L418,553L412,555L405,556L398,557L392,557L385,557L379,557L373,557L367,557L361,557L356,555L351,553L346,549L341,544L337,538L333,528L333,512" stroke-opacity="1" stroke-width="2" stroke-linecap="round" stroke-linejoin="round" style="-webkit-tap-highlight-color: rgba(0, 0, 0, 0); stroke-opacity: 1; stroke-linecap: round; stroke-linejoin: round; -webkit-user-select: text;"></path><path fill="none" stroke="#ffbf2f" d="M372,427L380,421L384,421L387,425L392,430L396,437L399,444L402,452L403,461L404,471L404,480L403,492L400,502L395,511L389,519L381,527L374,533L365,539L357,544L349,547L341,548L332,548L323,548L313,546L304,543L295,538L286,532L280,526L274,518L270,511L267,502L266,491L266,479L266,470L269,460L276,453L285,446L298,438" stroke-opacity="1" stroke-width="2" stroke-linecap="round" stroke-linejoin="round" style="-webkit-tap-highlight-color: rgba(0, 0, 0, 0); stroke-opacity: 1; stroke-linecap: round; stroke-linejoin: round; -webkit-user-select: text;"></path><path fill="none" stroke="#ffbf2f" d="M319,418L327,409L334,403L340,400L346,400L349,404L352,414L353,423L354,433L355,442L355,450L355,458L352,467L348,475L344,483L338,491L331,499L325,505L318,511L311,517L304,521L297,526L289,529L281,533L275,534L268,536L260,536L253,536L246,536L238,536L232,536L224,533L218,530L211,527L205,523L200,518L194,514L189,508L184,502L180,496L176,490L173,483L170,476L167,469L164,462L163,454L161,446L160,439L159,432L159,424L159,417L159,409L159,401L159,394L159,387L161,378L164,371L168,362L172,353L178,345L185,336L196,324L217,305" stroke-opacity="1" stroke-width="2" stroke-linecap="round" stroke-linejoin="round" style="-webkit-tap-highlight-color: rgba(0, 0, 0, 0); stroke-opacity: 1; stroke-linecap: round; stroke-linejoin: round; -webkit-user-select: text;"></path><path fill="none" stroke="#ffbf2f" d="M295,267L304,268L313,270L322,277L329,287L336,299L341,312L344,327L346,344L346,362L343,380L334,397L324,412L312,426L299,437L285,445L271,450L256,451L239,451L224,448L209,440L196,431L183,420L173,408L165,394L158,380L153,364L152,351L152,334L161,313" stroke-opacity="1" stroke-width="2" stroke-linecap="round" stroke-linejoin="round" style="-webkit-tap-highlight-color: rgba(0, 0, 0, 0); stroke-opacity: 1; stroke-linecap: round; stroke-linejoin: round; -webkit-user-select: text;"></path><path fill="none" stroke="#ffbf2f" d="M234,249L242,249L255,250L265,254L279,260L291,266L304,273L315,279L326,287L335,296L342,305L348,315L352,325L354,336L354,347L354,359L348,371L342,381L335,390L329,395L322,398L314,400L307,400L300,400L293,400L285,396L277,391L270,386L262,381L255,375L248,370L242,364L236,358L230,352L225,346L221,339L217,332L213,326L211,321L208,315L207,309L205,303L204,298L203,292L202,286L202,281L201,276L200,271L200,267L200,263L200,258L200,254L200,250L200,246L202,242L203,239L205,235L209,230L217,221L225,215L234,208" stroke-opacity="1" stroke-width="2" stroke-linecap="round" stroke-linejoin="round" style="-webkit-tap-highlight-color: rgba(0, 0, 0, 0); stroke-opacity: 1; stroke-linecap: round; stroke-linejoin: round; -webkit-user-select: text;"></path><path fill="none" stroke="#ffbf2f" d="M280,195L287,196L295,197L302,201L310,206L318,213L327,221L334,229L342,239L349,252L353,263L356,278L356,293L355,310L349,326L341,340L331,351L322,358L310,362L299,362L288,361L277,353L267,342L259,330L251,317L245,302L242,285L241,268L241,250L242,234L247,220L253,207L261,195L271,186L281,178L293,171L309,164L325,160L343,158L363,158" stroke-opacity="1" stroke-width="2" stroke-linecap="round" stroke-linejoin="round" style="-webkit-tap-highlight-color: rgba(0, 0, 0, 0); stroke-opacity: 1; stroke-linecap: round; stroke-linejoin: round; -webkit-user-select: text;"></path><path fill="none" stroke="#ffbf2f" d="M416,194L419,199L422,207L427,213L431,220L436,227L440,235L443,244L444,254L445,263L445,273L445,283L443,294L438,304L432,313L426,321L421,327L414,332L407,336L400,339L394,339L387,339L382,339L375,337L369,333L364,328L359,323L354,317L349,310L346,302L343,294L341,287L339,278L339,271L338,264L338,257L338,250L338,243L338,236L339,230L341,224L344,219L347,215L350,210L353,207L357,203L361,200L365,197L370,194L376,191L381,188L388,185L395,182L401,180L407,178L414,176L421,174L428,174L435,173L442,172L450,172L458,172L465,172L474,174L481,176L488,178L495,182L502,186L508,191L513,197L518,203L524,215" stroke-opacity="1" stroke-width="2" stroke-linecap="round" stroke-linejoin="round" style="-webkit-tap-highlight-color: rgba(0, 0, 0, 0); stroke-opacity: 1; stroke-linecap: round; stroke-linejoin: round; -webkit-user-select: text;"></path><path fill="none" stroke="#ffbf2f" d="M522,269L522,278L522,285L522,293L522,302L521,311L518,321L512,330L506,340L496,349L486,357L476,363L465,367L452,370L440,371L428,371L417,371L408,366L401,358L395,349L391,338L388,327L387,315L387,299L393,284L400,272L406,263L414,255L424,249L434,246L444,244L457,244L468,246L480,251L490,258L500,265L511,275L518,283L526,292L533,302L539,312L544,322L548,333L552,343L554,352L556,362L557,371L557,378L557,386L557,393L557,400L555,405L553,411L551,415L548,420L545,424L541,428L537,431L530,435L513,437" stroke-opacity="1" stroke-width="2" stroke-linecap="round" stroke-linejoin="round" style="-webkit-tap-highlight-color: rgba(0, 0, 0, 0); stroke-opacity: 1; stroke-linecap: round; stroke-linejoin: round; -webkit-user-select: text;"></path><path fill="none" stroke="#ff992d" d="M284,286L275,285L272,282L271,280L271,277L272,275L278,273L284,272L291,271L299,271L307,271L313,275L319,279L325,285L331,290L336,297L341,302L345,309L349,315L353,321L356,327L359,333L361,339L363,345L364,352L366,358L366,364L366,370L367,375L367,381L367,387L367,392L367,397L367,402L366,406L364,411L362,416L360,420L357,425L354,429L351,434L348,437L345,441L341,444L339,447L334,449L330,452L327,453L322,456L317,458L313,459L308,461L303,462L298,463L293,463L288,464L283,464L277,464L272,464L267,464L262,463L257,462L252,460L248,457L244,453L240,448L237,441L234,435L234,424" stroke-opacity="1" stroke-width="2" stroke-linecap="round" stroke-linejoin="round" style="-webkit-tap-highlight-color: rgba(0, 0, 0, 0); stroke-opacity: 1; stroke-linecap: round; stroke-linejoin: round; -webkit-user-select: text;"></path><path fill="none" stroke="#ff992d" d="M267,346L278,344L286,344L293,346L302,350L310,355L316,361L322,368L327,375L333,382L337,389L341,398L344,406L347,414L349,423L350,431L351,441L351,450L351,459L350,468L346,477L342,486L336,494L330,501L324,508L318,514L311,519L305,523L298,526L291,529L285,531L278,531L271,531L265,531L259,531L253,528L248,524L244,519L241,512L239,507L239,494L246,479L256,465L266,452L276,441L288,433L296,430L305,429L313,429L321,432L328,437L336,443L342,448L348,453L355,460L361,466L365,472L369,479L372,485L375,491L377,497L378,502L380,508L380,512L381,517L381,522L381,527L381,531L381,536L381,540L381,543L380,547L379,550L378,554L376,557L374,560L372,563L370,567L368,570L365,572L361,574L355,575" stroke-opacity="1" stroke-width="2" stroke-linecap="round" stroke-linejoin="round" style="-webkit-tap-highlight-color: rgba(0, 0, 0, 0); stroke-opacity: 1; stroke-linecap: round; stroke-linejoin: round; -webkit-user-select: text;"></path><path fill="none" stroke="#ff992d" d="M331,493L331,489L331,483L331,477L331,470L336,461L344,451L353,441L363,432L373,425L384,419L395,416L404,414L413,413L422,413L430,414L439,419L447,424L455,431L462,439L469,447L475,456L480,465L485,475L488,486L490,498L491,508L491,521L490,533L486,544L480,553L473,562L462,570L452,575L439,579L427,581L414,581L403,579L391,570L383,558L378,543L378,526" stroke-opacity="1" stroke-width="2" stroke-linecap="round" stroke-linejoin="round" style="-webkit-tap-highlight-color: rgba(0, 0, 0, 0); stroke-opacity: 1; stroke-linecap: round; stroke-linejoin: round; -webkit-user-select: text;"></path><path fill="none" stroke="#ff992d" d="M398,466L404,455L411,448L420,443L427,442L436,442L445,444L453,448L463,453L471,458L480,463L488,469L495,475L501,481L506,487L511,494L515,500L519,507L521,513L522,519L523,524L524,529L524,534L524,539L524,544L524,548L523,552L522,555L521,558L519,561L516,565L513,568L510,571L507,574L502,577L498,579L493,582L487,584L482,586L475,587L469,587L463,587L455,586L447,584L437,579L428,574L419,567L410,558L403,545L399,531L397,512L397,490L402,464L412,442L424,424L434,412L446,403L457,399L470,399L482,399L497,403L510,410L523,419L534,431L545,445L553,459L559,474L561,488L561,502L560,512L548,519L532,526" stroke-opacity="1" stroke-width="2" stroke-linecap="round" stroke-linejoin="round" style="-webkit-tap-highlight-color: rgba(0, 0, 0, 0); stroke-opacity: 1; stroke-linecap: round; stroke-linejoin: round; -webkit-user-select: text;"></path><path fill="none" stroke="#ff992d" d="M462,493L458,485L456,477L454,466L453,456L452,444L451,431L451,419L453,406L458,394L465,381L473,370L482,360L493,351L503,344L514,338L523,334L531,332L539,332L548,332L554,332L560,335L567,339L572,344L578,348L583,353L588,359L592,364L595,370L598,375L600,382L602,388L603,394L603,400L603,406L603,413L603,420L603,427L601,434L597,441L592,448L586,456L578,462L569,467L558,471L545,473L530,473L513,473L497,470L482,460L468,445L460,431L453,414L449,398L448,380L448,362L454,344L462,326L472,311L482,300L492,293L503,290L513,290L525,290L535,293L545,298L554,304L562,312L570,320L576,330L581,340L584,352L584,361L584,370L575,376" stroke-opacity="1" stroke-width="2" stroke-linecap="round" stroke-linejoin="round" style="-webkit-tap-highlight-color: rgba(0, 0, 0, 0); stroke-opacity: 1; stroke-linecap: round; stroke-linejoin: round; -webkit-user-select: text;"></path><path fill="none" stroke="#ff992d" d="M467,387L463,382L460,375L458,364L458,351L458,334L460,320L462,306L465,292L468,281L472,270L477,260L484,251L491,242L499,233L506,225L514,219L520,214L526,210L533,206L538,204L544,203L550,203L557,203L564,203L571,204L578,207L584,211L591,216L596,222L600,228L604,235L606,243L608,251L609,260L609,269L609,278L608,288L606,296L601,306L595,315L586,326L576,335L564,343L552,349L540,353L527,356L514,358L502,358L489,356L477,351L464,343L453,334L443,324L434,312L427,298L422,282L420,265L420,247L422,231L427,218L433,209L440,201L448,195L455,192L464,191L472,191L481,191L492,195L501,201L509,208L518,216L525,224L525,229" stroke-opacity="1" stroke-width="2" stroke-linecap="round" stroke-linejoin="round" style="-webkit-tap-highlight-color: rgba(0, 0, 0, 0); stroke-opacity: 1; stroke-linecap: round; stroke-linejoin: round; -webkit-user-select: text;"></path><path fill="none" stroke="#ff992d" d="M485,234L486,229L486,227L487,226L488,226L490,228L491,234L491,244L491,253L491,264L487,275L481,285L475,295L468,302L463,307L457,310L452,311L446,311L438,311L431,310L424,306L416,301L407,295L400,290L391,284L383,278L376,273L370,268L364,262L358,256L354,250L350,243L348,236L346,229L345,222L344,215L344,207L344,199L345,191L346,183L348,176L351,169L353,164L357,159L362,154L367,150L374,147L381,143L387,142L395,141L404,141L412,142L421,146L431,150L440,157L449,166L455,178L459,190L461,205L461,224L460,242L453,256L442,266L421,275" stroke-opacity="1" stroke-width="2" stroke-linecap="round" stroke-linejoin="round" style="-webkit-tap-highlight-color: rgba(0, 0, 0, 0); stroke-opacity: 1; stroke-linecap: round; stroke-linejoin: round; -webkit-user-select: text;"></path><path fill="none" stroke="#ff992d" d="M414,176L415,158L415,147L415,138L416,134L418,131L421,131L427,132L434,139L442,147L449,157L455,168L461,182L465,196L467,208L467,221L467,234L462,245L455,255L447,263L437,269L426,273L416,274L405,274L392,274L381,273L369,268L358,263L347,258L337,251L328,244L322,237L317,231L312,223L310,215L308,207L307,199L307,190L307,182L309,174L312,166L314,161L316,156L319,152L322,148L327,145L333,143L339,142L345,142L353,142L362,145L370,150L378,157L385,165L391,174L396,186L400,198L400,213L400,230L397,245L390,259L380,270L370,279L359,285L348,288L334,288L318,288L302,283L288,276L275,266L264,256L255,244L248,233L243,219" stroke-opacity="1" stroke-width="2" stroke-linecap="round" stroke-linejoin="round" style="-webkit-tap-highlight-color: rgba(0, 0, 0, 0); stroke-opacity: 1; stroke-linecap: round; stroke-linejoin: round; -webkit-user-select: text;"></path><path fill="none" stroke="#ff992d" d="M249,134L255,133L264,133L276,133L290,133L306,136L319,142L329,149L338,156L346,165L351,174L356,185L359,195L361,205L361,215L361,227L361,237L359,247L356,255L351,263L344,270L337,275L330,278L322,281L312,283L302,283L293,283L281,283L271,283L260,280L250,276L242,270L234,265L229,259L224,252L220,245L218,237L218,230L218,221L218,212L220,205L223,199L226,195L229,191L233,189L237,187L242,187L247,186L253,186L259,186L266,188L273,193L279,197L285,203L290,210L296,218L300,228L302,239L303,252L303,265L303,277L302,288L297,298L290,307L280,313L258,315" stroke-opacity="1" stroke-width="2" stroke-linecap="round" stroke-linejoin="round" style="-webkit-tap-highlight-color: rgba(0, 0, 0, 0); stroke-opacity: 1; stroke-linecap: round; stroke-linejoin: round; -webkit-user-select: text;"></path><path fill="none" stroke="#ff992d" d="M146,248L148,241L152,232L158,225L167,219L178,216L186,215L196,215L208,216L218,220L229,226L238,232L247,239L256,247L263,255L269,264L274,273L278,282L281,291L282,300L283,309L283,318L283,327L280,335L275,344L270,350L264,356L257,362L249,367L240,371L232,373L223,376L214,377L204,377L195,377L186,376L176,372L169,368L163,363L158,356L155,349L153,341L152,333L152,324L152,317L156,311L164,304L170,300L178,297L184,296L193,296L201,296L209,298L217,301L224,305L230,310L235,316L239,323L242,331L244,339L245,349L245,359L245,369L245,379L243,388L240,397L235,405L230,413L224,420L218,427L213,432L207,436L203,439L197,442L192,443L188,445L183,446L178,446L172,446L166,446L160,446L152,446L145,442L138,437" stroke-opacity="1" stroke-width="2" stroke-linecap="round" stroke-linejoin="round" style="-webkit-tap-highlight-color: rgba(0, 0, 0, 0); stroke-opacity: 1; stroke-linecap: round; stroke-linejoin: round; -webkit-user-select: text;"></path><path fill="none" stroke="#ff992d" d="M162,373L173,370L183,368L194,366L206,366L217,368L226,374L234,380L240,387L246,394L250,402L254,411L256,420L258,429L259,439L259,448L259,456L259,465L259,473L258,480L256,488L252,495L249,502L244,509L241,514L237,519L233,523L229,526L225,528L222,531L218,532L214,533L211,534L207,536L203,536L199,537L195,537L191,537L186,537L179,536L173,532L169,525L168,515L169,501L178,487L191,476L204,468L219,463L234,460L247,459L261,459L273,461L284,467L294,475L304,484L311,492L317,502L322,513L327,523L330,533L333,544L335,552L336,561L337,568L337,575L337,582L337,586L337,591L336,593L334,594L330,594L323,594" stroke-opacity="1" stroke-width="2" stroke-linecap="round" stroke-linejoin="round" style="-webkit-tap-highlight-color: rgba(0, 0, 0, 0); stroke-opacity: 1; stroke-linecap: round; stroke-linejoin: round; -webkit-user-select: text;"></path><path fill="none" stroke="#ff6c2d" d="M296,466L288,465L288,464L288,462L292,460L300,458L309,457L319,457L330,458L339,463L347,469L353,477L359,485L364,495L367,504L369,513L371,523L373,532L374,541L374,548L374,556L374,562L374,568L374,574L371,578L367,583L362,588L357,592L351,596L347,599L341,602L335,605L329,607L324,609L319,610L314,611L309,611L304,611L300,611L295,611L292,609L289,605L286,601L284,594L283,587L282,580L281,572L281,566L281,560L283,553L288,547L297,537L316,526" stroke-opacity="1" stroke-width="2" stroke-linecap="round" stroke-linejoin="round" style="-webkit-tap-highlight-color: rgba(0, 0, 0, 0); stroke-opacity: 1; stroke-linecap: round; stroke-linejoin: round; -webkit-user-select: text;"></path><path fill="none" stroke="#ff6c2d" d="M367,511L370,512L376,512L384,513L391,514L397,516L403,519L409,523L414,528L418,533L421,539L424,545L426,551L427,558L428,565L428,572L428,579L428,586L428,592L426,598L424,604L421,609L418,613L414,617L410,620L407,622L403,624L399,625L395,625L390,625L385,625L380,625L375,625L371,623L367,621L362,618L359,615L356,611L353,607L351,601L350,595L350,588L350,581L350,572L354,560L362,548L370,536L378,526L385,518L393,511L402,506L411,502L420,502L430,502L442,502L452,506L465,511L476,519L487,528L497,540L504,555L509,573L510,592L510,609L502,622L484,632" stroke-opacity="1" stroke-width="2" stroke-linecap="round" stroke-linejoin="round" style="-webkit-tap-highlight-color: rgba(0, 0, 0, 0); stroke-opacity: 1; stroke-linecap: round; stroke-linejoin: round; -webkit-user-select: text;"></path><path fill="none" stroke="#ff6c2d" d="M387,582L383,572L379,561L377,548L377,536L377,523L377,511L379,499L383,488L391,477L398,468L407,460L417,453L426,448L437,445L447,443L457,443L469,443L478,446L488,450L497,455L507,461L515,467L523,474L531,482L538,490L544,499L549,508L553,519L555,530L557,541L558,552L558,565L558,578L553,592L547,604L538,615L527,624L514,631L501,637L488,639L475,639L460,636L450,627L441,615L434,601L431,584L430,569L430,550L434,535L442,521L453,508L466,497L479,489L493,484L505,482L519,482L533,482L548,488L559,495L570,504L579,515L586,525L593,536L597,547L601,559L602,572L602,583L601,590L592,596L572,599" stroke-opacity="1" stroke-width="2" stroke-linecap="round" stroke-linejoin="round" style="-webkit-tap-highlight-color: rgba(0, 0, 0, 0); stroke-opacity: 1; stroke-linecap: round; stroke-linejoin: round; -webkit-user-select: text;"></path><path fill="none" stroke="#ff6c2d" d="M467,540L466,530L466,516L466,503L467,486L471,472L476,460L484,448L492,439L502,429L512,422L522,417L533,413L543,410L552,409L562,409L571,409L579,410L587,413L595,417L601,421L607,426L613,431L618,436L622,441L625,445L628,450L630,455L632,460L633,465L634,471L635,476L635,481L636,487L636,492L636,498L636,504L636,509L634,515L631,520L627,525L622,529L616,533L609,536L601,538L593,539L585,539L575,539L565,538L555,534L545,527L536,519L528,507L522,495L518,482L514,468L513,453L513,434L514,417L516,401L521,387L528,373L537,362L548,353L558,348L570,344L580,344L590,344L601,346L609,351L618,358L628,368L635,378L640,388L645,400L648,412L650,421L650,432L638,442L616,451" stroke-opacity="1" stroke-width="2" stroke-linecap="round" stroke-linejoin="round" style="-webkit-tap-highlight-color: rgba(0, 0, 0, 0); stroke-opacity: 1; stroke-linecap: round; stroke-linejoin: round; -webkit-user-select: text;"></path><path fill="none" stroke="#ff6c2d" d="M499,449L493,439L488,427L487,413L486,395L486,376L487,358L491,341L495,326L500,311L507,297L515,285L521,276L530,268L538,261L546,258L555,255L564,254L572,254L581,254L589,254L598,255L606,258L616,262L624,267L630,271L636,276L643,282L648,288L652,294L656,300L659,307L661,315L662,321L663,329L663,338L663,346L662,355L660,363L657,371L651,380L645,387L638,394L630,400L620,406L609,411L597,415L585,417L573,418L560,418L549,417L538,412L526,403L515,392L505,380L497,365L490,349L486,332L483,315L483,300L483,283L484,266L490,251L499,237L508,225L515,218L522,213L530,210L539,209L549,209L561,209L573,213L585,221L595,232L604,244L610,258L614,272L616,285L616,299L609,308L584,312" stroke-opacity="1" stroke-width="2" stroke-linecap="round" stroke-linejoin="round" style="-webkit-tap-highlight-color: rgba(0, 0, 0, 0); stroke-opacity: 1; stroke-linecap: round; stroke-linejoin: round; -webkit-user-select: text;"></path><path fill="none" stroke="#ff6c2d" d="M576,180L579,164L582,152L584,145L584,142L585,142L586,145L587,155L589,167L591,178L592,191L592,205L592,220L592,236L587,251L581,264L572,276L561,286L549,294L536,299L526,302L514,302L502,302L490,300L477,293L465,287L456,278L447,269L441,261L434,251L429,241L426,231L424,220L423,211L423,201L423,191L423,182L424,173L426,166L429,158L433,152L438,146L442,141L448,136L454,132L461,129L468,127L476,125L484,124L491,123L500,123L508,123L516,125L524,130L532,136L538,144L544,152L549,162L551,174L552,186L552,200L550,213L544,229L535,243L523,256L509,266L495,271L481,273L462,273L443,270L422,261L403,249L387,234L375,217L369,200L367,177L373,152" stroke-opacity="1" stroke-width="2" stroke-linecap="round" stroke-linejoin="round" style="-webkit-tap-highlight-color: rgba(0, 0, 0, 0); stroke-opacity: 1; stroke-linecap: round; stroke-linejoin: round; -webkit-user-select: text;"></path><path fill="none" stroke="#ff6c2d" d="M425,88L428,83L431,83L438,87L446,92L456,97L468,102L482,108L494,116L504,125L511,136L518,148L522,158L524,170L524,182L523,194L518,205L511,215L503,225L492,234L481,243L470,250L458,256L448,260L436,263L426,263L414,263L404,262L393,256L383,250L371,242L361,232L353,222L346,211L339,199L336,188L333,174L332,161L331,149L331,137L332,126L337,116L343,108L350,101L359,96L369,92L379,91L392,91L403,92L415,98L426,106L434,116L441,127L446,138L448,152L448,168L448,186L439,202L426,220L412,234L398,244L381,251L361,253L338,253L318,250L301,242L288,230L278,217L271,203L267,187L264,169L261,152L261,140L261,129L266,120L276,114L287,110L300,109L313,109L326,110L340,116L351,125L360,137L368,149L375,163L379,177L382,189L384,203L384,214L384,224L384,230L384,235L381,239L377,240L368,240L353,240L336,240" stroke-opacity="1" stroke-width="2" stroke-linecap="round" stroke-linejoin="round" style="-webkit-tap-highlight-color: rgba(0, 0, 0, 0); stroke-opacity: 1; stroke-linecap: round; stroke-linejoin: round; -webkit-user-select: text;"></path><path fill="none" stroke="#ff6c2d" d="M247,121L248,115L250,108L256,104L263,102L272,102L282,106L290,113L297,123L302,135L306,147L308,159L309,172L309,185L309,197L307,209L303,220L300,229L295,238L288,246L281,252L273,258L264,262L254,264L246,266L235,266L224,266L213,265L202,261L191,257L180,252L171,247L162,241L155,235L150,228L146,221L144,212L143,201L143,191L143,180L147,171L154,162L161,155L169,150L179,147L188,145L201,145L212,146L225,152L238,159L250,169L262,181L273,194L281,209L288,227L290,246L291,266L290,286L282,307L268,325L244,343L215,362" stroke-opacity="1" stroke-width="2" stroke-linecap="round" stroke-linejoin="round" style="-webkit-tap-highlight-color: rgba(0, 0, 0, 0); stroke-opacity: 1; stroke-linecap: round; stroke-linejoin: round; -webkit-user-select: text;"></path><path fill="none" stroke="#ff6c2d" d="M79,291L81,279L85,265L96,251L110,240L127,231L144,225L157,224L172,224L187,226L200,232L212,239L222,247L231,256L238,265L245,275L251,285L256,295L259,303L261,312L261,322L261,332L261,344L259,353L255,363L250,373L244,383L237,392L227,402L220,409L211,415L202,420L194,423L182,424L170,425L157,425L145,425L133,423L122,419L113,413L106,405L101,396L98,384L98,371L98,356L105,341L113,328L122,317L131,310L143,305L156,302L169,302L183,303L198,310L211,317L224,329L235,342L245,358L251,375L253,395L253,414L246,436L232,453L209,468" stroke-opacity="1" stroke-width="2" stroke-linecap="round" stroke-linejoin="round" style="-webkit-tap-highlight-color: rgba(0, 0, 0, 0); stroke-opacity: 1; stroke-linecap: round; stroke-linejoin: round; -webkit-user-select: text;"></path><path fill="none" stroke="#ff6c2d" d="M76,414L79,402L88,388L99,376L112,366L127,360L139,358L153,358L166,358L179,362L192,369L203,377L214,385L224,395L232,406L239,417L245,429L249,440L252,453L254,466L254,478L254,490L254,502L253,514L250,526L246,537L241,548L236,558L231,566L226,574L220,580L213,586L206,591L198,595L191,598L183,600L174,601L164,601L154,601L144,601L134,601L124,596L118,590L112,581L109,570L107,556L107,541L108,525L113,511L118,501L126,492L136,485L147,480L159,478L171,478L183,478L196,485L206,494L216,506L225,521L233,537L240,555L245,573L249,592L250,611L250,629L250,646L246,659L233,669L210,682" stroke-opacity="1" stroke-width="2" stroke-linecap="round" stroke-linejoin="round" style="-webkit-tap-highlight-color: rgba(0, 0, 0, 0); stroke-opacity: 1; stroke-linecap: round; stroke-linejoin: round; -webkit-user-select: text;"></path><path fill="none" stroke="#ff6c2d" d="M120,575L121,557L126,538L139,520L150,507L166,499L181,496L198,496L214,497L230,501L246,507L261,512L277,519L291,526L304,534L317,543L328,553L338,562L347,572L354,580L361,589L368,598L374,607L379,616L383,624L386,632L388,640L391,647L392,653L394,660L395,667L395,672L395,678L395,684L395,691L395,696L395,702L394,708L391,713L388,717L384,720L378,721L364,721L343,721L313,721" stroke-opacity="1" stroke-width="2" stroke-linecap="round" stroke-linejoin="round" style="-webkit-tap-highlight-color: rgba(0, 0, 0, 0); stroke-opacity: 1; stroke-linecap: round; stroke-linejoin: round; -webkit-user-select: text;"></path><path fill="none" stroke="#ff6c2d" d="M213,645L215,633L219,614L229,593L244,573L260,559L274,550L290,544L307,540L321,539L337,539L354,539L370,543L384,549L398,558L410,567L421,577L430,589L438,601L444,615L449,629L453,641L455,655L456,668L456,681L455,693L452,703L446,713L438,720L425,726L402,730L371,734L342,735" stroke-opacity="1" stroke-width="2" stroke-linecap="round" stroke-linejoin="round" style="-webkit-tap-highlight-color: rgba(0, 0, 0, 0); stroke-opacity: 1; stroke-linecap: round; stroke-linejoin: round; -webkit-user-select: text;"></path><path fill="none" stroke="#ff6c2d" d="M293,702L285,682L283,659L287,629L297,602L311,581L329,564L348,553L370,546L391,543L414,543L438,547L458,557L477,570L494,583L508,596L520,611L528,626L534,645L536,665L536,684L532,701L522,716L507,730L492,738L475,744L456,745L437,744L421,737L404,723L394,703L386,680L383,657L383,636L388,613L398,592L413,574L431,558L451,546L471,538L487,534L503,532L521,532L537,533L552,538L565,543L576,550L585,556L594,564L601,571L607,579L611,585L614,593L617,600L619,606L620,613L621,619L621,626L621,631L618,635L604,638L577,651" stroke-opacity="1" stroke-width="2" stroke-linecap="round" stroke-linejoin="round" style="-webkit-tap-highlight-color: rgba(0, 0, 0, 0); stroke-opacity: 1; stroke-linecap: round; stroke-linejoin: round; -webkit-user-select: text;"></path><path fill="none" stroke="#ff6c2d" d="M442,642L438,628L437,610L437,590L443,565L453,544L466,525L481,507L497,492L514,479L532,470L548,465L566,463L582,463L599,465L613,470L628,477L640,487L651,498L660,509L666,519L671,529L674,540L674,550L674,561L673,571L668,580L661,589L650,595L632,599L602,599" stroke-opacity="1" stroke-width="2" stroke-linecap="round" stroke-linejoin="round" style="-webkit-tap-highlight-color: rgba(0, 0, 0, 0); stroke-opacity: 1; stroke-linecap: round; stroke-linejoin: round; -webkit-user-select: text;"></path><path fill="none" stroke="#ff6c2d" d="M487,558L485,551L485,542L485,527L489,503L496,481L506,460L519,441L533,424L547,409L562,397L576,388L591,383L604,380L619,380L634,383L647,389L659,397L669,407L678,417L684,427L689,438L691,450L691,462L691,475L688,485L679,496L668,504L654,511L638,515L623,518L609,518L592,518L579,512L567,503L556,490L548,476L542,459L538,441L537,421L537,401L543,376L554,353L568,332L582,312L596,296L609,285L623,277L635,273L648,272L660,272L672,277L684,285L694,293L703,303L711,314L716,324L720,336L723,347L724,357L724,368L724,380L722,391L718,402L710,415L700,426L689,436L674,445L655,449L622,448" stroke-opacity="1" stroke-width="2" stroke-linecap="round" stroke-linejoin="round" style="-webkit-tap-highlight-color: rgba(0, 0, 0, 0); stroke-opacity: 1; stroke-linecap: round; stroke-linejoin: round; -webkit-user-select: text;"></path><path fill="none" stroke="#ff6c2d" d="M507,341L507,325L508,306L515,281L523,259L533,239L544,221L555,206L567,194L580,183L594,176L607,173L625,173L640,175L653,181L664,191L674,203L682,216L688,232L690,249L690,267L686,284L674,301L658,316L641,328L625,335L607,339L589,339L572,336L557,327L546,315L537,298L531,280L528,260L528,241L528,224L533,208L538,193L543,181L550,171L556,163L564,157L571,153L579,150L587,147L596,145L606,144L615,143L625,143L635,143L646,146L655,150L664,155L672,162L678,169L684,178L688,187L689,195L680,210" stroke-opacity="1" stroke-width="2" stroke-linecap="round" stroke-linejoin="round" style="-webkit-tap-highlight-color: rgba(0, 0, 0, 0); stroke-opacity: 1; stroke-linecap: round; stroke-linejoin: round; -webkit-user-select: text;"></path><path fill="none" stroke="#ff6c2d" d="M468,255L460,242L452,224L448,205L447,181L448,154L452,136L458,119L467,105L476,94L485,87L495,82L507,80L520,80L533,80L548,86L560,93L572,103L583,114L593,125L601,137L608,149L612,161L615,174L615,188L615,201L611,214L605,225L595,237L582,248L566,257L548,265L528,271L507,273L486,273L465,273L440,266L419,255L399,242L381,227L366,209L354,188L346,165L341,142L339,122L340,98L348,79L356,64L366,51L377,42L390,35L402,32L417,31L431,31L447,35L463,41L478,50L493,59L507,71L520,82L531,94L543,106L551,120L558,134L562,146L564,158L564,169L557,178L538,188" stroke-opacity="1" stroke-width="2" stroke-linecap="round" stroke-linejoin="round" style="-webkit-tap-highlight-color: rgba(0, 0, 0, 0); stroke-opacity: 1; stroke-linecap: round; stroke-linejoin: round; -webkit-user-select: text;"></path><path fill="none" stroke="#ff6c2d" d="M434,230L422,228L407,227L388,222L363,215L341,204L321,189L305,172L293,153L285,133L281,115L281,95L281,76L283,62L288,52L294,43L302,37L312,33L320,32L330,32L341,34L352,39L364,47L374,56L384,65L393,76L400,88L407,99L412,110L414,123L416,137L416,150L416,162L416,174L412,184L408,195L403,204L397,212L389,221L380,227L370,233L358,238L346,241L332,244L318,245L302,245L283,245L264,244L246,240L229,235L212,227L197,217L184,204L174,189L166,171L162,154L161,136L161,118L167,102L172,91L179,83L186,79L194,77L206,77L219,78L235,84L251,93L269,105L286,118L303,132L320,147L335,164L348,181L356,199L361,215L363,232L360,246L336,257" stroke-opacity="1" stroke-width="2" stroke-linecap="round" stroke-linejoin="round" style="-webkit-tap-highlight-color: rgba(0, 0, 0, 0); stroke-opacity: 1; stroke-linecap: round; stroke-linejoin: round; -webkit-user-select: text;"></path><path fill="none" stroke="#ff6c2d" d="M142,307L132,301L120,286L110,268L104,252L101,235L100,220L100,207L103,196L109,188L118,181L129,176L142,172L156,170L171,169L185,169L199,171L213,176L226,182L238,188L249,195L257,202L266,210L272,219L277,228L281,237L283,246L284,256L284,266L284,277L283,287L278,297L273,307L264,319L254,330L243,341L229,351L215,361L196,372L181,379L164,385L147,390L131,393L117,394L102,394L88,394L74,393L62,389L52,384L45,376L41,366L40,357L40,344L46,328L59,312L73,299L86,291L102,285L116,283L133,283L149,285L164,291L178,300L192,311L205,327L215,343L222,360L226,380L228,402L228,423L227,445L220,469L210,489L198,509L186,525L174,539L162,550L148,559L132,565L113,567L84,567" stroke-opacity="1" stroke-width="2" stroke-linecap="round" stroke-linejoin="round" style="-webkit-tap-highlight-color: rgba(0, 0, 0, 0); stroke-opacity: 1; stroke-linecap: round; stroke-linejoin: round; -webkit-user-select: text;"></path><path fill="none" stroke="#ff6c2d" d="M37,480L39,473L40,465L46,455L56,444L69,435L84,429L96,426L111,426L125,426L139,432L152,439L164,448L175,458L185,469L194,481L202,492L209,504L214,515L218,527L222,539L225,550L227,561L227,570L228,580L228,589L228,598L227,607L223,616L219,625L214,633L208,641L202,648L194,655L186,661L179,665L170,667L161,669L152,669L142,669L132,666L124,660L117,651L113,640L113,628L113,610L120,593L129,582L139,574L152,569L164,565L179,565L195,566L208,574L220,584L231,596L242,609L251,624L259,640L266,658L270,676L273,694L273,708L273,721L272,729L262,734L244,738" stroke-opacity="1" stroke-width="2" stroke-linecap="round" stroke-linejoin="round" style="-webkit-tap-highlight-color: rgba(0, 0, 0, 0); stroke-opacity: 1; stroke-linecap: round; stroke-linejoin: round; -webkit-user-select: text;"></path><path fill="none" stroke="#ff6c2d" d="M190,681L191,673L193,662L199,651L207,639L219,629L231,622L246,617L259,615L274,614L289,614L303,614L317,614L331,614L344,618L356,622L368,628L378,634L387,640L395,648L402,655L408,662L412,669L416,675L419,682L421,687L423,693L424,698L425,703L425,707L425,712L425,717L425,721L425,724L423,728L421,730L417,732L410,735L402,738L392,742L380,746L371,749L361,750L351,750L341,749L332,743L324,734L317,722L314,710L312,695L312,680L313,664L319,649L328,634L339,620L350,609L361,600L373,594L385,590L397,588L411,587L424,587" stroke-opacity="1" stroke-width="2" stroke-linecap="round" stroke-linejoin="round" style="-webkit-tap-highlight-color: rgba(0, 0, 0, 0); stroke-opacity: 1; stroke-linecap: round; stroke-linejoin: round; -webkit-user-select: text;"></path><path fill="none" stroke="#7065ff" d="M507,104L513,98L519,98L527,98L538,98L548,101L557,103L568,106L576,108L584,113L593,118L601,123L607,130L614,136L620,142L625,148L629,154L633,160L636,165L638,171L640,176L643,181L644,185L645,189L646,193L647,197L647,201L647,204L647,207L647,210L647,212L647,215L647,217L645,220L644,222L643,224L641,226L639,228L637,229L635,230L633,231L631,232L629,233L627,234L624,234L621,234L618,234L615,234L612,234L609,234L605,231L602,227L599,222L597,217L596,211L596,203L598,196L601,191L604,188L609,186L615,185L622,185L630,185L638,190L646,195L654,201L662,209L670,217L678,226L684,237L690,248L695,260L700,272L703,283L706,296L708,308L710,320L710,332L711,344L711,357L711,367L711,378L711,387L710,397L708,406L707,415L705,424L704,432L702,441L700,448L698,456L696,462L693,466L686,467" stroke-opacity="1" stroke-width="2" stroke-linecap="round" stroke-linejoin="round" style="-webkit-tap-highlight-color: rgba(0, 0, 0, 0); stroke-opacity: 1; stroke-linecap: round; stroke-linejoin: round; -webkit-user-select: text;"></path><path fill="none" stroke="#7065ff" d="M601,319L607,311L614,302L626,294L641,288L655,288L673,289L686,298L696,310L706,325L713,339L719,353L725,368L730,382L733,393L736,406L738,419L739,431L739,442L739,453L739,464L739,473L737,482L735,489L732,496L728,502L724,508L721,513L717,517L712,522L708,527L703,531L699,535L694,538L689,541L685,543L681,544L676,545L671,545L665,545L660,545L652,543L643,537L631,528" stroke-opacity="1" stroke-width="2" stroke-linecap="round" stroke-linejoin="round" style="-webkit-tap-highlight-color: rgba(0, 0, 0, 0); stroke-opacity: 1; stroke-linecap: round; stroke-linejoin: round; -webkit-user-select: text;"></path><path fill="none" stroke="#7065ff" d="M641,453L646,450L655,450L662,450L668,453L674,460L679,469L682,479L684,488L686,498L686,508L687,518L687,528L687,540L686,550L682,560L678,570L673,579L666,589L659,597L650,605L640,612L630,618L620,622L612,624L605,624L596,624L589,620L584,612L579,601L575,585L572,569L571,552L571,533L571,515L574,497L578,480L584,465L590,452L597,440L604,433L609,429L616,426L622,426L627,426L632,428L637,434L641,441L645,448L647,457L651,465L654,473L656,482L659,490L660,498L662,504L662,512L662,521L662,528L662,536L662,545L662,551L662,558L660,565L659,571L657,577L655,584L652,589L650,596L647,601L644,607L641,612L638,618L634,623L630,628L627,632L622,636L618,640L613,644L608,647L603,650L597,652L591,653L584,654L577,654L567,654L558,654L548,654L537,652L527,651L516,650L506,650L496,650L487,650L479,653L471,656L464,660L458,663L453,667L448,670L443,674L440,677L437,681L435,684L433,689L431,692L430,696L429,700L429,704L429,709L428,714L428,718L428,723L428,727L429,732L431,735L432,740L435,743L438,747L441,750L445,753L449,755L454,757L462,757" stroke-opacity="1" stroke-width="2" stroke-linecap="round" stroke-linejoin="round" style="-webkit-tap-highlight-color: rgba(0, 0, 0, 0); stroke-opacity: 1; stroke-linecap: round; stroke-linejoin: round; -webkit-user-select: text;"></path><path fill="none" stroke="#7065ff" d="M519,654L514,650L507,646L500,643L491,640L481,637L469,635L457,635L446,634L435,634L425,634L417,636L409,640L401,645L394,652L387,658L381,666L376,675L371,684L367,693L363,703L360,712L357,720L355,730L354,739L353,747L352,756L352,765L352,771L352,777L354,783L355,786L355,789L355,790L348,791L337,791L323,791L305,791L287,789L269,783L252,774L238,762L226,750L217,737L212,721L208,706L207,694L207,684L207,674L207,666L211,659L215,653L222,648L229,643L237,640L244,637L253,635L261,634L268,634L276,634L283,634L290,634L296,636L301,639L305,642L310,645L313,648L316,652L318,655L321,659L323,662L325,666L327,670L328,674L329,678L329,681L329,683L329,684L322,684L311,684L297,674L282,660L268,646L252,632L236,620L220,609L204,601L188,595L174,592L161,592L151,592L145,592L141,594L138,598L137,603L137,610L137,619L137,628L139,640L141,651L145,662L149,670L154,677L160,682L166,685L172,686L182,686L194,679L208,662L219,642L225,621L225,601L221,578L210,560L194,545L175,531L154,519L134,509L115,501L99,496L86,494L74,494L63,497L56,500L50,505L45,511L40,516L37,521L35,525L34,529L34,533L33,536L33,539L33,542L32,545L32,547L31,549L30,550L29,550L29,548L29,540L30,522L37,498L45,475L52,456L58,441L64,430L69,423L75,418L81,416L88,414L96,414L103,412L110,411L116,409L120,407L125,406L127,404L128,402L128,400L128,397L128,394L128,390L128,387L127,384L126,380L124,377L122,374L119,371L115,368L112,364L108,361L104,358L99,355L93,351L86,349L79,345L70,339L63,331L58,321L57,307L57,290L59,275L65,265L71,257L77,254L83,252L90,252L98,252L105,256L112,259L115,261L116,263" stroke-opacity="1" stroke-width="2" stroke-linecap="round" stroke-linejoin="round" style="-webkit-tap-highlight-color: rgba(0, 0, 0, 0); stroke-opacity: 1; stroke-linecap: round; stroke-linejoin: round; -webkit-user-select: text;"></path><path fill="none" stroke="#7065ff" d="M85,344L79,342L69,339L58,333L49,324L40,311L35,296L32,281L31,268L31,256L31,244L32,233L36,223L42,213L47,205L53,199L59,193L66,189L73,185L80,182L86,180L93,178L100,178L107,178L114,178L122,178L130,178L137,181L144,184L151,188L157,191L164,194L169,197L175,198L179,198L182,195L186,183" stroke-opacity="1" stroke-width="2" stroke-linecap="round" stroke-linejoin="round" style="-webkit-tap-highlight-color: rgba(0, 0, 0, 0); stroke-opacity: 1; stroke-linecap: round; stroke-linejoin: round; -webkit-user-select: text;"></path><path fill="none" stroke="#7065ff" d="M82,148L74,144L69,139L69,131L71,118L85,102L97,91L111,83L126,78L138,77L151,77L164,84L174,92L184,103L193,115L200,129L208,142L216,154L224,165L231,171L239,176L247,178L255,178L261,177L264,174L266,167L266,157L266,146L264,135L260,123L256,110L254,97L254,86L254,74L256,65L261,58L266,53L274,48L283,45L292,43L302,42L312,42L321,42L330,42L339,45L348,47L356,51L365,54L373,58L381,62L388,66L395,70L401,74L407,77L412,80L417,83L422,86L427,88L432,90L438,92L444,92L450,91L457,79L462,65L462,55" stroke-opacity="1" stroke-width="2" stroke-linecap="round" stroke-linejoin="round" style="-webkit-tap-highlight-color: rgba(0, 0, 0, 0); stroke-opacity: 1; stroke-linecap: round; stroke-linejoin: round; -webkit-user-select: text;"></path><path fill="none" stroke="#7065ff" d="M359,48L367,44L371,40L375,35L381,30L387,24L393,19L401,15L410,11L419,8L429,7L438,6L448,6L458,6L468,7L478,9L487,11L496,13L504,15L511,17L518,19L524,21L530,23L537,25L544,28L551,30L558,33L564,36L571,39L577,43L583,47L589,50L594,54L600,58L605,62L609,67L614,71L618,76L623,80L627,85L631,90L635,94L638,99L643,105L646,110L649,115L652,121L655,128L656,133L657,139L658,144L659,147L660,147L660,143L660,134L660,122L655,108L647,95L633,80L616,67L596,54L574,44L550,36L527,31L508,30L489,30L473,33L459,40L450,46L442,54L436,62L432,69L428,76L424,83L418,91L411,96L404,100L397,102L387,102L376,101L363,95L352,86L340,76L327,64L313,53L298,44L282,37L267,33L255,30L244,30L232,30L221,30L210,35L200,40L190,46L182,50L175,54L169,57L164,59L159,61L155,62L151,64L148,65L145,67L142,69L140,70L138,73L135,75L133,78L130,81L128,84L126,88L124,91L122,95L120,98L119,103L119,107L118,111L118,116L118,121L118,127L118,132L119,137L121,142L124,147L128,151L133,155L140,157L149,158L161,158L177,155L192,149L207,143L222,139L234,135L248,132L261,131L274,131L285,132L296,137L305,146L312,158L317,168L322,180L324,193L324,203L324,216L322,225L318,232L312,236L304,239L290,240L271,241L249,241L225,241L203,241L185,239L171,234" stroke-opacity="1" stroke-width="2" stroke-linecap="round" stroke-linejoin="round" style="-webkit-tap-highlight-color: rgba(0, 0, 0, 0); stroke-opacity: 1; stroke-linecap: round; stroke-linejoin: round; -webkit-user-select: text;"></path><path fill="none" stroke="#7065ff" d="M174,205L176,210L176,219L178,229L181,238L186,249L193,258L202,264L212,268L223,271L234,272L244,273L253,276L261,279L268,284L274,289L278,295L283,302L286,308L288,314L290,320L292,326L293,332L293,338L293,344L293,351L293,358L291,364L287,370L283,377L278,383L272,388L266,393L258,397L250,401L240,404L227,407L211,411L192,415L167,422L145,431L127,442L114,453L103,465L96,478L93,489L92,502L92,514L97,527L104,539L109,547L114,552L120,556L127,558L134,559L142,559L151,559L164,554L178,545L194,537L210,531L225,525L238,523L250,523L260,528L268,537L275,550L280,564L282,577L282,594L277,613" stroke-opacity="1" stroke-width="2" stroke-linecap="round" stroke-linejoin="round" style="-webkit-tap-highlight-color: rgba(0, 0, 0, 0); stroke-opacity: 1; stroke-linecap: round; stroke-linejoin: round; -webkit-user-select: text;"></path><path fill="none" stroke="#7065ff" d="M225,528L226,513L229,500L235,490L242,484L249,482L257,482L268,482L278,487L288,494L298,501L307,509L316,517L324,526L331,536L338,546L344,558L349,568L354,578L357,588L360,596L362,605L364,613L366,621L368,629L370,637L372,645L373,652L376,660L378,668L382,675L386,683L392,691L398,697L404,702L411,705L416,706L421,706L425,705L428,698L431,689L432,679L432,667L431,655L426,645L420,635L412,623L407,609L404,595L404,580L404,565L408,554L415,545L422,540L431,537L440,537L451,537L462,541L472,548L481,558L488,570L494,583L500,597L505,611L511,624L516,634L521,642L528,646L536,647L546,647L557,640L567,628L575,614L580,598L581,584L581,570L577,554L571,539L566,524L565,510L565,496L571,481L584,469L601,461L615,460L632,463L646,478L657,496L664,517L667,541L669,562L669,584L663,607L652,626" stroke-opacity="1" stroke-width="2" stroke-linecap="round" stroke-linejoin="round" style="-webkit-tap-highlight-color: rgba(0, 0, 0, 0); stroke-opacity: 1; stroke-linecap: round; stroke-linejoin: round; -webkit-user-select: text;"></path><path fill="none" stroke="#7065ff" d="M559,586L561,573L564,558L571,541L578,523L585,505L593,487L601,471L609,457L616,446L625,437L633,429L643,423L652,419L661,417L670,416L677,416L684,416L690,416L694,417L699,420L701,422L704,426L706,430L706,435L706,442L705,449L700,456L691,463L674,468L652,471L627,471L600,467L579,455L560,437L546,415L536,389L531,361L531,335L531,309L538,281L549,256L561,237L575,223L586,214L596,209L607,208L620,208L632,209L645,214L656,220L667,225L677,229L684,232L689,232L691,232L694,230L695,222L695,210L694,193L688,176L673,155L654,138L629,124L604,115L580,111L562,111L546,112L536,118L529,125L524,133L520,140L518,147L516,153L514,159L513,165L512,171L511,177L509,182L507,187L505,191L502,195L500,198L497,200L494,203L490,204L485,206L481,208L475,210L470,211L464,213L458,214L453,215L448,215L441,215L435,215L428,215L421,215L413,215L405,212L396,208L387,202L379,190L373,176L372,159L378,139" stroke-opacity="1" stroke-width="2" stroke-linecap="round" stroke-linejoin="round" style="-webkit-tap-highlight-color: rgba(0, 0, 0, 0); stroke-opacity: 1; stroke-linecap: round; stroke-linejoin: round; -webkit-user-select: text;"></path><path fill="none" stroke="#7065ff" d="M409,81L416,79L420,79L425,79L434,81L446,87L458,96L470,106L479,118L487,133L492,149L494,166L494,183L489,200L475,216L457,229L437,239L419,244L396,246L370,246L348,238L330,226L318,211L309,197L302,181L300,167L300,159L299,156L299,166L299,177L299,189L296,201L294,212L292,220L290,229L288,235L286,242L285,247L283,253L283,257L283,262L282,267L282,272L282,277L282,282L282,286L282,291L282,295L282,300L282,304L282,308L282,312L282,316L281,320L280,324L278,329L275,334L270,339L263,345L254,350L243,355L227,359L209,363L187,363L159,363" stroke-opacity="1" stroke-width="2" stroke-linecap="round" stroke-linejoin="round" style="-webkit-tap-highlight-color: rgba(0, 0, 0, 0); stroke-opacity: 1; stroke-linecap: round; stroke-linejoin: round; -webkit-user-select: text;"></path><path fill="none" stroke="#7065ff" d="M158,325L171,320L193,310L217,300L243,293L264,291L285,291L305,302L320,315L332,332L342,353L348,373L350,392L350,415L346,440L340,460L333,475L324,489L312,499L299,506L284,511L271,512L256,512L240,508L229,499L224,488L224,477L226,468L235,461L247,458L256,458L267,458L277,458L287,462L295,466L304,471L312,477L321,482L329,487L337,492L344,496L352,501L358,506L365,511L371,516L377,521L382,526L387,531L392,535L396,539L400,543L404,547L409,551L414,555L419,559L424,563L431,567L438,570L446,571L455,572L468,570L486,551L504,526" stroke-opacity="1" stroke-width="2" stroke-linecap="round" stroke-linejoin="round" style="-webkit-tap-highlight-color: rgba(0, 0, 0, 0); stroke-opacity: 1; stroke-linecap: round; stroke-linejoin: round; -webkit-user-select: text;"></path><path fill="none" stroke="#7065ff" d="M422,516L409,515L397,510L384,498L378,479L377,455L380,429L388,413L399,400L412,392L428,390L445,390L463,395L484,405L502,416L519,429L535,445L548,462L556,477L560,495L560,514L558,531L549,548L535,564L517,574L496,580L475,581L450,579L431,568L420,552L416,535L416,514L424,490L436,471L453,455L471,441L489,431L503,424L519,418L531,414L544,410L556,408L568,406L579,403L587,401L597,398L605,395L611,392L617,389L621,385L625,382L628,377L631,372L634,365L637,358L642,348L648,339L655,332L664,328L676,327L687,329L698,341L703,358L703,378L691,405L664,429L619,452L563,469L511,477L463,479" stroke-opacity="1" stroke-width="2" stroke-linecap="round" stroke-linejoin="round" style="-webkit-tap-highlight-color: rgba(0, 0, 0, 0); stroke-opacity: 1; stroke-linecap: round; stroke-linejoin: round; -webkit-user-select: text;"></path><path fill="none" stroke="#7065ff" d="M414,455L405,433L399,407L394,376L394,345L396,313L405,278L418,246L436,220L453,202L468,193L481,190L497,192L511,203L524,219L535,237L543,257L548,279L550,299L551,322L551,343L546,359L535,371L518,380L498,384L470,384L446,380L424,371L404,361L382,353L359,344L337,338L320,332L303,328L290,325L276,323L266,322L255,320L247,320L239,319L233,319L227,319L221,319L216,319L210,319L205,319L200,320L195,322L190,324L184,328L178,335L171,344L164,358L159,372L156,385L156,397L156,402L162,402L181,383L204,359L231,330L259,300L282,272L300,250L318,229L336,209L354,195L372,191L393,190L414,190L436,200L455,216L470,239L478,266L478,293L468,320L445,347L417,370L385,386L349,394L314,395L287,392L268,380L252,364L241,347L234,332L232,316L235,298L257,279L287,268L316,268L342,275L365,290L383,309L397,331L407,352L415,373L419,390L423,407L425,423L427,436L429,448L431,460L433,468L435,476L437,483L439,489L441,494L443,500L444,507L445,511L445,516L445,518L438,521L426,522L407,523L383,523L356,518L333,507L316,489L306,465L302,439L303,413L311,389L322,372L334,362L351,356L366,356L384,356L397,365L409,377L417,392L421,409L421,426L420,441L414,455L404,464L394,470L382,471L370,471L361,465L352,454L347,444L343,434L342,425L342,415L342,407L346,400L352,394L359,390L368,389L375,388L382,388L388,389L394,392L400,396L405,398L409,401L414,403L417,405L421,407L425,409L429,411L433,412L436,414L440,415L444,416L448,417L451,417L455,418L459,418L463,419L467,419L470,419L474,419L478,420L482,420L486,421L491,421L497,421L504,422L516,421" stroke-opacity="1" stroke-width="2" stroke-linecap="round" stroke-linejoin="round" style="-webkit-tap-highlight-color: rgba(0, 0, 0, 0); stroke-opacity: 1; stroke-linecap: round; stroke-linejoin: round; -webkit-user-select: text;"></path><path fill="none" stroke="#7065ff" d="M566,385L574,392L585,401L596,411L606,425L614,442L620,461L625,481L629,501L630,522L630,544L625,570L613,593L599,615L583,633L563,646L537,652L506,654L469,654L429,653L394,656L368,663L347,670L332,677L322,683L318,689L316,694L316,701L319,708L325,716L332,725L341,735L349,742L358,749L366,754L373,758L382,761L389,762L396,764L404,764L411,764L419,764L426,762L433,759L438,757L444,754L449,750L453,746L458,742L462,738L467,733L472,727L478,719L484,710L492,699L499,686L508,672L519,657L531,643L545,631L559,621L574,614L586,612L599,612L611,617L621,627L628,641L630,659L630,679L624,700L613,717L599,730L579,740L555,749L528,757L502,764L477,767L446,767L416,762" stroke-opacity="1" stroke-width="2" stroke-linecap="round" stroke-linejoin="round" style="-webkit-tap-highlight-color: rgba(0, 0, 0, 0); stroke-opacity: 1; stroke-linecap: round; stroke-linejoin: round; -webkit-user-select: text;"></path><path fill="none" stroke="#7065ff" d="M340,734L312,728L285,722L261,711L242,691L226,664L215,636L210,611L207,587L204,570L200,554L195,544L189,535L181,529L174,526L163,526L150,526L137,526L125,529L115,532L106,534L100,536L94,539L90,542L86,546L83,550L80,555L77,561L74,567L72,572L71,579L69,584L69,590L68,596L68,603L68,609L68,616L68,623L68,632L69,641L72,651L76,660L82,670L89,678L99,686L110,691L122,693L132,693L140,693L146,691L148,688L148,682L143,672L129,657L111,641L92,624L73,608L52,589L33,567L23,541L20,513L19,488L18,467L18,446L20,429L30,414L50,403L73,397L93,395L119,395L142,401L161,410L172,421L178,435L178,451L174,468L158,485L144,493L125,497L105,496L87,482L75,465L66,447L59,428L54,409L52,385L53,358L63,336L77,316L95,298L115,283L137,273L160,268L181,266L205,266L228,266L251,266L272,266L293,268L311,270L328,272L343,273L357,274L370,274L381,275L391,275L399,275L405,271L411,260L417,232" stroke-opacity="1" stroke-width="2" stroke-linecap="round" stroke-linejoin="round" style="-webkit-tap-highlight-color: rgba(0, 0, 0, 0); stroke-opacity: 1; stroke-linecap: round; stroke-linejoin: round; -webkit-user-select: text;"></path><path fill="none" stroke="#7065ff" d="M149,328L130,327L109,320L97,303L91,278L91,251L96,223L108,193L121,165L138,143L157,125L176,111L196,101L214,96L233,94L252,94L272,94L292,97L311,101L331,105L351,109L372,113L391,117L410,120L427,122L441,123L455,123L468,123L479,123L487,122L495,120L501,118L508,115L516,114L523,113L532,112L542,112L551,112L560,112L570,112L578,115L586,118L594,123L600,128L606,134L613,140L619,147L624,153L629,160L633,167L637,175L640,182L643,190L646,198L648,205L649,211L650,219L651,226L652,233L652,241L653,248L653,254L653,261L653,267L653,273L654,281L654,287L654,294L654,301L654,308L654,315L654,321L654,328L654,335L653,342L652,349L651,356L649,364L647,371L646,377L644,383L642,389L640,394L639,399L637,403L636,408L634,412L633,416L632,420L630,424L629,429L628,432L626,437L623,442L620,447L618,453L615,458L612,464L609,469L606,474L603,478L600,482L597,486L593,492L590,496L586,502L581,507L575,514L559,520" stroke-opacity="1" stroke-width="2" stroke-linecap="round" stroke-linejoin="round" style="-webkit-tap-highlight-color: rgba(0, 0, 0, 0); stroke-opacity: 1; stroke-linecap: round; stroke-linejoin: round; -webkit-user-select: text;"></path></svg>