<svg height="906" version="1.1" width="768" xmlns="http://www.w3.org/2000/svg" xmlns:xlink="http://www.w3.org/1999/xlink" style="overflow: hidden; position: relative; -webkit-user-select: text;"><desc style="-webkit-tap-highlight-color: rgba(0, 0, 0, 0); -webkit-user-select: text;">Created with Raphaël 2.2.0</desc><defs style="-webkit-tap-highlight-color: rgba(0, 0, 0, 0); -webkit-user-select: text;"></defs><path fill="none" stroke="#0f0000" d="M238,76L237,81L237,83L237,85L236,87L235,89L234,92L233,95L232,98L231,101L230,103L229,105L229,108L228,110L228,113L227,116L226,119L225,121L225,124L224,126L223,129L223,131L222,133L222,136L221,139L220,141L220,144L219,147L218,150L217,152L216,155L215,157L215,160L214,162L213,164L213,166L212,169L212,171L212,172L211,174L211,176L210,177L210,178L209,179L209,180L208,180" stroke-opacity="1" stroke-width="2" stroke-linecap="round" stroke-linejoin="round" style="-webkit-tap-highlight-color: rgba(0, 0, 0, 0); stroke-opacity: 1; stroke-linecap: round; stroke-linejoin: round; -webkit-user-select: text;"></path><path fill="none" stroke="#0f0000" d="M236,159L239,159L241,159L242,160L244,162L246,164L248,166L249,168L251,170L253,172L254,174L256,176L259,178L260,179L262,181L265,184L267,186L269,188L271,191L274,193L276,195L278,198L279,200L280,202L282,203L283,205L285,206L286,207L287,208L288,208L289,208L290,208L291,210" stroke-opacity="1" stroke-width="2" stroke-linecap="round" stroke-linejoin="round" style="-webkit-tap-highlight-color: rgba(0, 0, 0, 0); stroke-opacity: 1; stroke-linecap: round; stroke-linejoin: round; -webkit-user-select: text;"></path><path fill="none" stroke="#0f0000" d="M341,152L345,154L346,155L348,156L351,158L353,160L355,162L358,164L361,167L363,169L367,172L370,175L373,178L376,181L379,183L382,187L385,190L388,194L391,196L394,200L396,203L399,205L401,208L403,210L405,213L407,216L409,218L412,221L414,224L417,227L419,229L421,232L424,234L426,236L429,238L431,239L433,242L435,243L436,245L438,246L439,247L440,248L441,249L442,249L443,249" stroke-opacity="1" stroke-width="2" stroke-linecap="round" stroke-linejoin="round" style="-webkit-tap-highlight-color: rgba(0, 0, 0, 0); stroke-opacity: 1; stroke-linecap: round; stroke-linejoin: round; -webkit-user-select: text;"></path><path fill="none" stroke="#0f0000" d="M505,192L504,194L504,197L502,201L500,205L497,210L494,215L491,220L488,225L485,231L482,238L479,244L476,251L473,257L470,263L468,270L465,275L463,280L461,284L459,288L458,290L456,293L455,295L455,296" stroke-opacity="1" stroke-width="2" stroke-linecap="round" stroke-linejoin="round" style="-webkit-tap-highlight-color: rgba(0, 0, 0, 0); stroke-opacity: 1; stroke-linecap: round; stroke-linejoin: round; -webkit-user-select: text;"></path><path fill="none" stroke="#0f0000" d="M543,272L541,276L540,278L538,281L536,286L532,290L528,296L525,302L521,307L518,312L515,319L511,325L508,332L504,337L501,342L497,349L494,353L492,358L489,363L486,367L484,371L482,375L480,378L478,381L476,383L475,385L474,385" stroke-opacity="1" stroke-width="2" stroke-linecap="round" stroke-linejoin="round" style="-webkit-tap-highlight-color: rgba(0, 0, 0, 0); stroke-opacity: 1; stroke-linecap: round; stroke-linejoin: round; -webkit-user-select: text;"></path><path fill="none" stroke="#0f0000" d="M397,414L391,411L389,410L387,409L385,407L381,403L378,400L374,397L370,394L366,391L362,388L358,385L354,381L350,378L345,374L341,370L336,367L332,363L328,360L324,356L321,353L317,349L314,346L312,343L309,340L307,338L305,335L303,333L302,332L300,331L300,330L299,329" stroke-opacity="1" stroke-width="2" stroke-linecap="round" stroke-linejoin="round" style="-webkit-tap-highlight-color: rgba(0, 0, 0, 0); stroke-opacity: 1; stroke-linecap: round; stroke-linejoin: round; -webkit-user-select: text;"></path><path fill="none" stroke="#0f0000" d="M249,310L246,312L245,315L244,317L242,320L240,324L238,327L236,331L234,334L232,337L230,341L229,344L227,348L225,353L223,356L221,360L219,363L217,367L215,370L213,374L211,377L210,380L208,383L207,385L206,387L205,388L205,389L205,390" stroke-opacity="1" stroke-width="2" stroke-linecap="round" stroke-linejoin="round" style="-webkit-tap-highlight-color: rgba(0, 0, 0, 0); stroke-opacity: 1; stroke-linecap: round; stroke-linejoin: round; -webkit-user-select: text;"></path><path fill="none" stroke="#0f0000" d="M253,383L259,385L262,386L265,387L268,390L271,392L274,395L277,398L280,402L283,404L285,407L288,410L292,413L295,416L298,419L301,421L304,425L306,427L309,430L312,433L314,435L317,437L319,439L322,440L324,441L324,443" stroke-opacity="1" stroke-width="2" stroke-linecap="round" stroke-linejoin="round" style="-webkit-tap-highlight-color: rgba(0, 0, 0, 0); stroke-opacity: 1; stroke-linecap: round; stroke-linejoin: round; -webkit-user-select: text;"></path><path fill="none" stroke="#0f0000" d="M345,523L350,525L353,525L356,525L361,525L366,524L373,522L378,519L384,516L390,513L396,509L402,506L407,503L412,500L417,497L423,494L428,491L432,488L437,485L441,481L446,478L450,475L454,472L458,469L461,466L464,464L467,462L470,459L472,458L475,456L477,455L479,454L480,453L482,453L482,452L484,452" stroke-opacity="1" stroke-width="2" stroke-linecap="round" stroke-linejoin="round" style="-webkit-tap-highlight-color: rgba(0, 0, 0, 0); stroke-opacity: 1; stroke-linecap: round; stroke-linejoin: round; -webkit-user-select: text;"></path><path fill="none" stroke="#0f0000" d="M528,431L534,434L536,436L539,438L541,440L544,443L547,447L550,451L554,454L558,458L561,462L565,465L568,469L572,473L575,477L579,481L583,485L586,488L589,490L591,494L594,497L596,499L599,502L601,505L602,507L604,509L605,511L606,513L607,515" stroke-opacity="1" stroke-width="2" stroke-linecap="round" stroke-linejoin="round" style="-webkit-tap-highlight-color: rgba(0, 0, 0, 0); stroke-opacity: 1; stroke-linecap: round; stroke-linejoin: round; -webkit-user-select: text;"></path><path fill="none" stroke="#0f0000" d="M555,556L545,567L540,570L535,575L528,581L522,587L516,592L511,596L505,601L499,606L494,611L489,615L485,619L479,624L474,628L469,632L464,637L460,640L455,644L449,648L445,650L441,654L436,657L432,661L428,664L424,667L421,670L418,672L415,674L413,676L410,678L408,680L406,682L403,684L401,685L399,686" stroke-opacity="1" stroke-width="2" stroke-linecap="round" stroke-linejoin="round" style="-webkit-tap-highlight-color: rgba(0, 0, 0, 0); stroke-opacity: 1; stroke-linecap: round; stroke-linejoin: round; -webkit-user-select: text;"></path><path fill="none" stroke="#0f0000" d="M348,670L340,667L337,666L334,664L331,661L328,658L324,655L320,652L316,649L312,645L309,642L305,638L302,634L298,631L294,627L289,623L285,620L281,616L278,613L274,609L271,605L267,601L263,598L259,594L256,590L252,587L249,583L244,579" stroke-opacity="1" stroke-width="2" stroke-linecap="round" stroke-linejoin="round" style="-webkit-tap-highlight-color: rgba(0, 0, 0, 0); stroke-opacity: 1; stroke-linecap: round; stroke-linejoin: round; -webkit-user-select: text;"></path><path fill="none" stroke="#0f0000" d="M203,541L196,543L192,545L187,549L183,553L178,558L173,562L168,566L163,570L159,574L155,577L152,581L149,585L147,588L144,591L141,593L137,595L135,597L132,599L129,600L126,602L124,604L122,606L120,609L118,611L115,612L114,614L112,616L110,617L109,618L108,620L107,621L106,623L105,623L104,624L103,626L102,628L101,629L100,630L100,631L100,632" stroke-opacity="1" stroke-width="2" stroke-linecap="round" stroke-linejoin="round" style="-webkit-tap-highlight-color: rgba(0, 0, 0, 0); stroke-opacity: 1; stroke-linecap: round; stroke-linejoin: round; -webkit-user-select: text;"></path><path fill="none" stroke="#0f0000" d="M134,637L138,645L140,649L142,652L145,656L148,660L152,663L155,666L159,669L163,672L167,676L171,679L175,683L179,687L183,691L188,694L191,698L195,701L199,705L203,709L205,713L209,717L212,720L215,724L218,728L221,730L224,734L227,737L229,740L232,742L235,745L237,747L239,750L242,752L244,755L246,757L247,759L249,762L250,764L252,765L253,767L255,768L256,769L258,770" stroke-opacity="1" stroke-width="2" stroke-linecap="round" stroke-linejoin="round" style="-webkit-tap-highlight-color: rgba(0, 0, 0, 0); stroke-opacity: 1; stroke-linecap: round; stroke-linejoin: round; -webkit-user-select: text;"></path><path fill="none" stroke="#0f0000" d="M312,788L321,786L324,786L328,786L331,786L336,786L341,786L346,787L351,788L356,789L362,790L367,790L373,791L378,792L383,792L388,793L393,793L399,794L404,795L409,796L414,796L419,797L424,797L429,798L433,798L437,799L442,800L446,801L451,801L455,802L458,802L462,803L466,804L470,805L474,806L477,806L480,807L483,808L486,808L488,808L490,809L492,809L494,810L497,810L499,810L501,810L503,810L505,810" stroke-opacity="1" stroke-width="2" stroke-linecap="round" stroke-linejoin="round" style="-webkit-tap-highlight-color: rgba(0, 0, 0, 0); stroke-opacity: 1; stroke-linecap: round; stroke-linejoin: round; -webkit-user-select: text;"></path><path fill="none" stroke="#0f0000" d="M549,754L551,747L551,743L553,738L555,733L558,728L561,721L564,714L567,707L570,701L573,694L577,687L580,680L584,674L587,667L589,661L591,655L593,650L595,644L597,638L599,633L601,628L602,623L603,618L604,614L606,609L606,605L607,601L608,599L608,597L608,595L608,594L608,593L608,592" stroke-opacity="1" stroke-width="2" stroke-linecap="round" stroke-linejoin="round" style="-webkit-tap-highlight-color: rgba(0, 0, 0, 0); stroke-opacity: 1; stroke-linecap: round; stroke-linejoin: round; -webkit-user-select: text;"></path><path fill="none" stroke="#0f0000" d="M511,646L501,651L498,651L495,651L492,651L489,650L486,648L482,646L478,644L473,642L469,640L465,637L461,635L456,632L452,630L447,628L442,625L438,622L433,619L428,616L423,614L419,610L415,607L411,604L407,602L402,599L398,597L394,594L390,592L387,589L383,587L379,584L375,582L372,579L368,577L365,575L361,573L358,571L355,569L351,567L348,565L345,563L342,561L339,559L337,558L335,555L332,554L331,552L329,551L327,550L325,548L323,547L321,546L319,545L317,544L315,543L313,541L311,540L309,539L307,538L305,536L303,535L302,534L300,532L297,531L296,529L294,528L293,526L291,525L289,524L288,522L285,521L284,519L282,518L280,516L279,515L277,514L276,512L274,511L272,510L271,509L269,507L267,506L266,504L264,503L262,502L260,500L258,499L256,498L254,496L253,495L251,494L249,492L247,491L245,489L243,487L241,486L239,484L238,483L236,481L235,480L233,478L232,477L230,475L229,474L227,473L226,472L224,470L222,468L219,466L215,464L211,461L206,458L200,453L192,448L182,443L172,436L159,426L142,414" stroke-opacity="1" stroke-width="2" stroke-linecap="round" stroke-linejoin="round" style="-webkit-tap-highlight-color: rgba(0, 0, 0, 0); stroke-opacity: 1; stroke-linecap: round; stroke-linejoin: round; -webkit-user-select: text;"></path></svg>