<svg height="906" version="1.1" width="768" xmlns="http://www.w3.org/2000/svg" xmlns:xlink="http://www.w3.org/1999/xlink" style="overflow: hidden; position: relative; -webkit-user-select: text;"><desc style="-webkit-tap-highlight-color: rgba(0, 0, 0, 0); -webkit-user-select: text;">Created with Raphaël 2.2.0</desc><defs style="-webkit-tap-highlight-color: rgba(0, 0, 0, 0); -webkit-user-select: text;"></defs><path fill="none" stroke="#0f0000" d="M366,380L372,379L374,379L377,379L380,379L383,379L387,379L391,379L395,380L400,382L404,384L408,387L412,389L415,392L418,395L420,398L421,402L423,406L424,410L424,414L424,418L424,421L424,426L423,430L420,434L416,438L412,442L408,446L403,450L397,454L392,456L387,459L380,460L375,461L368,461L362,461L356,461L351,460L346,457L340,452L336,448L331,442L327,436L324,430L321,423L320,417L319,409L319,400L319,391L319,383L323,375L327,368L333,361L339,356L346,351L353,349L359,348L366,347L373,347L382,347L389,348L397,351L404,355L410,360L416,366L421,372L426,379L429,386L432,392L434,399L435,405L435,412L435,419L434,426L431,432L426,438L421,443L414,448L407,453L399,456L391,458L383,460L377,460L370,460L362,460L355,458L349,454L343,449L338,443L334,436L330,429L328,421L327,412L326,403L326,393L327,383L331,375L337,367L344,360L353,354L360,351L368,349L377,349L385,349L394,349L403,353L412,359L419,366L426,374L431,384L434,395L436,405L436,417L436,428L434,439L428,448L421,456L412,463L402,468L390,471L380,472L368,472L357,470L347,465L338,460L330,453L325,444L322,435L320,426L320,413L321,402L325,392L332,382L341,373L350,368L360,364L369,362L381,362L392,362L403,367L413,373L422,381L430,390L436,400L439,411L441,421L441,431L441,442L436,451L428,458L418,465L407,469L393,472L380,472L366,472L353,466L344,459L337,449L333,437L331,423L331,409L331,395L337,380L345,368L355,359L365,353L377,349L391,349L406,350L419,356L431,366L441,378L448,392L451,408L452,421L452,438L446,451L437,463L426,471L412,477L399,479L382,479L368,475L355,467L344,456L334,443L329,431L327,419L327,407L329,395L336,386L346,379L358,375L370,375L384,375L396,382L405,391L411,404L414,416L414,431L414,444L409,455L402,463L395,468L385,468L375,468L367,461L360,452L355,441L353,427L353,411L361,397L369,386L378,379L389,375L398,375L408,378L415,387L419,397L421,410L421,422L418,433L410,441L401,446L392,447L380,447L371,441L363,430L360,419L359,406L361,395L367,385L372,381L380,381L390,383L397,391L403,403L405,417L405,431L401,445L392,455L380,461L368,463L356,463L347,457L341,448L340,436L341,421L348,409L361,398L375,392L389,392L404,393L414,402L419,413L421,427L421,441L414,451L405,457L393,458L378,456L366,447L356,435L351,419L351,404L355,389L365,377L375,371L388,370L402,373L413,385L419,399L421,414L421,432L413,446L401,456L385,460L372,460L356,455L346,443L341,427L341,410L347,394L359,381L374,374L389,374L403,379L414,392L420,408L421,426L420,443L410,455L397,461L384,461L368,458L354,447L346,432L343,418L344,399L352,385L365,376L379,374L397,376L410,388L419,404L421,423L421,441L408,456L389,466L369,470L347,470L327,460L315,444L311,427L313,402L326,380L345,364L367,357L385,357L402,369L414,386L418,404L418,424L416,441L404,454L387,460L368,460L348,452L332,438L324,419L323,400L326,380L337,366L351,359L368,359L388,372L402,391L410,413L412,433L410,453L395,469L371,478L344,480L320,477L305,463L300,446L305,421L322,396L347,376L374,365L395,365L416,373L426,392L429,411L429,438L419,458L402,471L385,476L361,475L341,463L325,444L317,421L317,394L327,369L342,353L360,347L383,351L401,369L414,394L420,421L420,448L409,471L390,487L365,494L341,494L321,481L308,458L306,431L312,403L329,377L351,361L376,357L400,361L421,377L438,399L447,424L448,446L441,469L422,483L397,489L368,487L343,474L322,453L312,426L312,397L320,370L339,349L363,339L390,339L415,346L434,366L444,390L446,412L438,439L418,460L387,473L355,478L326,474L304,457L290,433L288,402L293,371L310,346L334,331L361,327L388,333L410,353L425,380L432,407L432,434L422,456L398,473L363,483L327,484L298,477L278,458L269,432L269,401L284,370L310,347L341,335L373,335L401,344L424,363L440,388L446,414L442,439L424,462L394,478L359,485L331,484L310,468L297,444L296,414L301,381L319,353L345,334L373,327L401,330L426,349L443,375L452,404L452,435L444,461L423,481L395,492L364,492L336,484L313,461L300,433L300,401L306,370L324,347L347,336L374,336L400,346L421,368L436,394L442,422L442,451L427,475L399,493L361,503L323,503L294,494L274,471L266,441L268,407L286,371L316,345L352,330L390,329L423,339L450,362L467,392L472,423L469,453L449,476L419,491L383,496L350,492L322,472L302,443L295,408L298,370L316,338L341,317L371,307L403,308L431,327L453,356L466,389L468,423L459,455L434,480L397,496L355,502L319,499L289,481L268,453L261,419L265,382L286,349L317,326L354,315L392,315L425,331L449,357L462,387L463,419L456,451L432,478L399,496L361,504L329,500L305,480L291,450L290,413L298,374L320,341L349,321L382,315L415,319L443,343L463,374L472,408L472,442L461,472L435,493L402,506L366,507L333,499L306,475L289,443L286,406L290,368L308,339L335,322L368,316L401,322L429,344L450,374L462,406L464,440L458,469L435,492L400,509L358,516L322,513L294,494L278,465L276,429L284,391L307,356L340,332L375,321L410,321L439,339L461,367L475,398L478,431L472,461L450,486L417,503L380,511L346,509L316,490L294,460L284,423L286,380L306,341L337,311L372,293L408,292L440,304L464,333L478,370L482,407L480,443L462,475L432,498L395,513L356,515L321,508L294,487L276,457L272,422L277,385L300,352L334,329L373,319L414,319L452,335L482,361L502,391L510,423L508,456L487,483L452,504L410,515L370,515L334,502L307,475L292,440L292,398L302,356L327,324L359,303L395,297L431,302L463,326L487,359L503,395L508,430L505,463L486,490L454,508L415,517L375,516L339,501L310,473L293,440L291,400L298,359L321,328L351,307L384,300L417,305L446,327L466,358L477,391L477,425L465,458L437,483L400,500L361,505L327,499L301,476L287,443L287,402L300,358L329,322L364,297L403,288L440,293L472,315L497,349L511,383L515,417L511,449L491,475L459,492L421,500L383,498L348,482L320,456L300,424L293,387L294,350L312,319L339,297L373,287L406,290L435,311L456,344L469,379L472,413L468,446L446,475L411,498L371,511L333,511L303,499L281,471L273,435L274,394L293,354L324,323L359,305L396,304L429,314L457,341L477,375L487,410L487,445L475,476L446,500L407,517L363,523L323,520L290,500L266,469L256,433L257,392L274,353L304,324L339,308L375,307L408,317L436,345L455,378L466,414L467,450L459,481L436,504L405,521L369,525L333,521L302,499L278,465L267,426L267,382L279,339L306,303L341,278L381,269L421,273L455,296L480,330L495,369L497,406L489,442L463,474L426,496L385,507L348,507L315,493L289,465L273,431L270,389L276,347L299,312L328,286L361,276L396,278L429,296L458,327L481,364L496,402L501,441L498,475L479,502L447,521L407,533L366,533L328,521L298,494L278,459L275,419L281,375L305,337L340,309L378,293L418,293L454,305L484,332L504,368L513,405L512,442L496,477L465,504L428,523L389,529L353,524L323,501L300,465L288,423L288,373L305,327L333,287L367,261L436,260L465,284L485,318L496,360L498,398L492,435L470,469L433,496L387,516L341,524L302,521L273,500L255,467L252,427L260,381L288,339L327,305L370,285L411,284L447,297L475,327L495,367L505,407L505,448L492,483L464,511L426,530L386,536L348,530L315,507L291,470L278,429L278,383L292,341L319,311L353,292L390,290L426,301L457,330L481,368L496,407L500,448L495,484L471,514L434,536L390,547L346,545L306,526L276,493L260,449L260,399L276,350L307,310L344,284L385,276L424,283L459,307L487,345L505,386L514,428L513,469L497,502L466,528L429,542L386,542L344,529L306,502L277,465L261,425L258,380L267,339L293,307L328,285L370,281L413,289L450,315L480,351L499,392L507,433L505,473L485,506L455,533L417,549L376,550L334,541L300,514L276,474L267,429L267,382L284,341L310,313L343,298L380,298L417,311L448,342L471,380L483,419L484,460L474,495L446,525L408,548L367,556L330,552L300,530L278,492L269,446L270,395L289,345L320,305L358,277L401,267L443,273L478,297L505,333L522,373L526,412L519,449L494,481L455,504L407,518L358,519L315,509L281,482L259,446L250,404L252,359L272,322L301,293L338,278L377,278L415,291L449,320L475,360L492,401L500,443L500,481L485,510L457,531L419,541L377,541L337,528L303,500L279,462L270,421L271,376L290,336L323,306L366,288L411,286L453,297L489,322L515,356L529,390L530,424L518,460L485,490L440,513L395,525L353,525L318,509L293,477L281,439L281,395L298,350L328,314L363,290L403,281L443,285L479,306L508,339L526,376L533,412L531,450L510,484L475,511L431,531L383,539L339,538L303,522L279,492L269,451L272,407L291,362L323,326L362,302L404,293L445,298L479,321L505,356L520,395L526,436L526,476L509,507L478,532L438,546L395,548L352,541L314,519L283,485L259,447L251,405L256,362L283,326L322,300L367,290L411,295L449,317L478,351L497,390L504,430L503,470L485,504L457,533L422,550L385,551L351,541L322,514L301,473L293,427L294,377L312,333L339,300L373,281L412,281L452,295L488,329L516,372L533,417L538,461L531,497L503,526L460,546L408,554L353,550L302,532L266,502L246,461L244,417L257,371L290,334L334,308L383,297L427,302L465,327L492,365L505,406L506,449L497,489L468,524L425,553L375,567L331,567L297,548L272,513L259,464L260,412L279,359L311,316L348,289L388,282L427,291L463,319L492,361L510,404L515,452L507,495L478,532L438,559L392,570L346,568L303,548L270,516L247,469L240,420L244,368L268,326L302,295L341,283L383,285L421,308L454,346L480,390L496,439L498,484L486,522L457,552L416,569L371,569L326,555L286,526L256,483L239,437L238,388L249,343L278,308L317,287L362,283L409,290L449,314L481,350L502,389L509,429L505,470L480,507L438,537L387,557L339,559L297,548L266,519L245,474L242,425L251,372L279,326L318,292L363,274L410,274L455,291L497,324L531,367L553,411L560,456L553,494L524,527L481,551L429,560L374,558L322,539L279,508L251,464L244,414L252,360L281,313L319,277L364,259L410,259L450,281L482,317L504,365L517,413L517,461L502,503L464,540L415,567L362,579L314,577L276,554L247,517L232,466L233,413L255,356L294,308L343,274L397,261L450,267L496,295L530,340L551,389L558,438L553,482L525,519L483,548L432,562L380,560L335,540L302,504L282,456L279,404L289,352L315,309L348,279L385,269L423,276L458,302L488,342L510,387L523,434L523,481L510,524L478,561L434,586L383,594L333,588L289,562L253,525L229,475L222,423L228,370L252,328L288,301L331,293L379,302L423,334L459,376L485,422L498,471L497,515L478,553L402,594L358,594L317,573L283,538L261,489L259,434L270,374L301,324L343,286L392,267L443,267L490,288L528,326L554,374L567,421L567,468L548,507L509,537L454,555L392,559L333,550L284,524L250,481L232,432L232,375L246,324L278,281L321,254L373,246L424,256L470,285L505,327L528,375L536,423L534,471L511,513L476,546L429,566L379,570L333,561L295,534L268,493L254,443L254,387L268,336L296,295L333,271L378,266L425,278L470,309L509,355L540,404L560,457L564,504L553,543L520,573L472,589L419,589L367,574L320,543L284,497L264,442L261,382L274,327L307,281L351,253L402,248L451,261L493,294L524,339L542,387L547,434L539,479L508,517L457,550L397,570L339,573L293,561L257,531L237,484L234,430L246,371L280,320L327,280L382,261L438,263L487,289L525,333L550,383L562,434L561,481L540,519L501,548L448,563L392,563L343,550L302,519L274,471L261,418L262,359L283,307L315,266L356,244L402,244L448,265L486,301L515,349L531,397L532,448L519,495L486,537L441,567L392,582L348,581L310,560L283,524L267,471L265,414L273,354L299,301L336,261L379,241L425,241L470,264L510,302L542,354L565,406L574,459L568,503L539,539L492,565L434,575L375,572L320,550L275,516L244,468L230,413L230,353L247,300L276,259L314,234L360,228L405,237L447,266L482,305L507,354L519,404L519,457L501,507L466,552L420,584L370,597L327,595L292,570L266,531L251,475L251,417L268,356L301,305L344,267L394,254L445,264L492,298L533,350L563,406L581,463L581,511L561,549L519,573L461,580L393,576L327,555L271,523L232,477L212,426L211,367L226,315L259,270L305,244L356,239L404,251L448,282L480,324L498,375L498,428L482,482L441,531L389,570L336,589L289,589L250,568L222,531L210,477L216,417L244,353L289,300L342,262L400,248L457,256L575,392L589,452L589,504L567,551L523,587L461,606L396,609L336,596L287,562L249,514L227,454L225,389L242,327L277,269L326,231L382,215L436,219L483,248L521,291L547,347L558,406L558,468L536,523L496,567L439,592L377,596L320,585L271,554L235,507L215,448L213,385L227,329L256,284L294,259L340,256L390,267L440,295L486,335L523,382L546,432L550,484L537,534L501,577L447,604L385,616L326,614L276,589L238,548L215,489L215,424L232,355L267,295L311,254L360,236L409,240L453,268L492,312L521,368L539,423L543,477L531,523L497,562L445,584L385,588L330,576L283,543L251,493L237,433L239,364L263,301L297,250L342,218L392,210L439,223L481,261L512,310L531,370L538,428L534,484L507,531L460,566L398,584L332,584L276,570L231,536L200,485L186,427L188,360L213,297L252,244L304,210L361,195L417,200L470,230L513,276L547,330L570,389L578,449L568,500L534,544L484,575L426,587L368,580L310,550L259,506L222,450L205,388L207,329L232,274L274,239L331,226L395,232L454,263L504,307L541,361L561,412L561,465L541,510L494,550L429,576L358,583L296,575L249,544L218,495L207,434L213,365L246,300L295,246L352,215L412,209L467,227L514,271L550,329L572,391L577,455L564,511L528,558L474,586L411,593L351,584L297,552L254,503L227,441L219,369L230,300L261,242L308,203L362,188L414,200L461,240L499,294L528,356L540,416L533,473L494,525L430,566L349,590L266,595L197,582L147,546L123,494L125,433L152,367L201,312L259,273L319,261L374,271L419,304L454,353L477,407L489,465L487,517L460,561L413,591L353,603L297,599L247,570L210,525L191,463L193,396L221,331L263,274L320,238L385,226L445,236L497,271L537,321L564,380L576,443L571,499L540,551L488,588L422,606L356,607L300,591L254,553L223,499L211,437L215,367L243,306L283,258L335,233L392,233L445,258L493,302L531,361L558,420L572,481L569,538L541,583L496,612L439,623L379,619L322,592L269,551L229,495L207,431L207,358L227,291L267,237L322,204L381,197L438,213L485,258L522,315L547,380L556,446L550,505L518,556L464,591L399,606L334,605L276,579L230,537L202,477L195,412L210,343L244,282L290,241L344,224L397,229L445,258L487,300L519,353L537,407L538,463L521,514L479,560L419,593L352,608L291,606L240,582L202,540L180,479L179,410L196,338L232,269L285,220L344,193L404,192L458,214L503,261L537,320L560,387L569,455L561,512L530,560L484,589L430,598L374,589L322,557L278,509L252,446L247,372L263,300L299,236L347,188L511,197L553,248L584,305L603,369L605,431L589,490L542,543L473,582L391,604L312,608L250,594L202,556L170,501L161,434L172,357L207,285L258,229L315,195L374,188L429,205L476,251L517,307L548,374L567,440L567,497L543,543L497,575L433,585L363,579L299,550L246,504L207,446L191,381L194,318L220,258L264,216L319,195L378,195L434,221L485,265L528,316L560,375L575,439L571,499L542,556L495,596L438,617L380,617L324,598L276,558L240,503L223,439L224,364L249,295L291,238L346,200L407,189L467,202L519,244L561,299L591,363L605,424L605,481L581,529L533,566L463,586L385,588L310,576L246,545L201,496L176,437L173,368L190,302L227,245L281,204L344,182L412,182L477,202L533,244L576,295L602,357L609,418L597,481L558,539L498,585L428,614L359,625L301,618L254,586L218,537L198,470L198,398L222,327L262,261L317,215L381,194L446,195L506,228L560,279L605,344L636,410L650,477L646,537L613,583L553,614L472,629L381,629L293,617L221,583L168,533L143,465L143,389L170,315L214,249L270,206L327,193L380,205L426,244L466,297L499,363L521,435L529,506L518,579L475,641L412,685L340,705L277,703L225,670L184,617L160,547L159,466L175,386L215,316L266,257L331,224L401,220L465,244L522,291L567,356L599,425L610,494L602,558L565,605L508,635L435,646L356,641L285,613L228,564L188,501L171,429L175,350L200,276L239,223L285,193L337,189L389,209L440,255L487,311L528,378L555,450L560,516L540,580L491,630L423,660L350,667L283,653L226,613L181,554L155,481L155,406L176,332L218,265L280,223L351,209L420,222L485,263L542,321L585,388L610,459L613,519L596,572L548,609L479,628L400,630L324,617L261,581L213,531L181,464L169,389L176,314L203,243L244,191L295,165L350,166L404,197L453,252L496,318L530,390L551,463L551,525L527,577L475,611L408,624L337,621L272,593L212,549L164,491L135,426L130,353L149,279L199,220L266,177L344,160L424,172L493,210L548,267L587,333L607,398L607,465L435,612L359,626L300,620L256,583L229,529L220,458L230,378L269,302L325,234L392,189L463,176L525,193L575,246L611,312L634,387L640,461L628,519L587,569L444,613L363,608L292,578L234,532L196,468L178,396L179,324L200,252L238,198L287,166L344,163L404,183L461,233L509,295L548,369L572,444L572,511L547,573L492,620L423,649L348,657L274,647L213,615L166,565L138,502L134,431L146,355L184,288L241,237L311,209L385,205L454,225L513,268L554,324L575,388L577,459L562,526L525,587L473,629L414,650L356,650L302,630L253,586L211,528L179,454L164,373L167,294L193,225L234,169L290,138L356,137L420,164L477,212L524,277L577,416L579,481L563,537L516,578L440,604L347,618L258,618L185,601L129,561L93,506L80,438L87,362L120,293L171,238L234,205L303,199L370,216L487,321L532,393L563,473L575,549L565,610L529,657L474,683L405,684L332,666L265,627L213,569L177,502L164,430L169,353L203,283L259,229L327,194L404,187L542,245L592,302L625,372L640,448L638,517L608,582L553,631L484,661L410,668L339,655L276,617L190,485L170,407L169,329L182,257L219,204L270,175L331,175L395,204L455,259L510,323L552,391L572,460L566,520L524,575L452,614L365,638L278,642L205,627L154,583L125,524L120,451L132,369L166,294L216,231L274,183L338,161L403,164L463,196L515,254L590,407L607,491L607,568L582,624L536,662L476,675L336,637L273,584L218,520L180,446L166,361L175,278L210,208L261,156L324,135L447,190L494,257L528,333L548,403L548,471L516,533L446,589L354,633L263,655L186,653L131,620L98,405L177,248L244,192L321,162L402,162L478,192L546,249L646,395L668,475L666,544L629,601L567,643L488,666L401,666L317,645L250,599L204,534L181,360L200,268L241,187L299,128L366,98L488,146L537,211L579,292L611,380L625,463L612,528L565,581L489,616L398,630L306,627L226,598L164,550L123,485L112,409L124,325L163,241L302,125L388,107L467,119L534,165L586,232L624,309L645,391L645,470L558,585L472,615L383,624L305,612L242,569L201,506L188,428L198,340L235,251L376,126L460,108L538,120L601,164L651,230L681,302L691,380L682,458L640,523L567,576L473,611L290,623L223,591L171,539L139,468L131,390L144,310L181,232L233,168L375,123L445,147L510,199L567,271L611,352L633,429L631,502L594,570L530,620L452,648L373,651L244,587L203,526L184,451L187,364L216,282L266,215L331,167L406,150L551,208L609,273L654,349L679,420L680,488L656,549L597,594L436,619L356,601L286,558L227,497L184,425L170,342L180,256L217,183L274,131L342,108L410,118L472,162L609,374L617,453L594,526L535,592L453,642L286,669L219,642L172,587L148,519L147,439L166,354L210,278L276,220L353,186L434,183L512,210L632,344L668,420L681,494L672,562L627,611L472,650L382,639L230,545L182,469L162,385L164,299L192,217L238,147L302,106L374,101L440,129L497,183L544,257L585,408L564,481L320,639L172,628L130,577L113,513L115,435L140,349L184,269L323,166L407,154L494,169L575,212L644,276L725,427L726,494L701,552L643,592L477,613L392,593L313,550L247,489L199,419L172,343L164,264L177,198L212,147L325,118L385,149L439,202L482,272L511,352L520,431L470,570L410,612L341,630L211,594L157,542L119,472L104,396L105,321L177,190L239,156L310,152L378,174L438,219L484,277L512,342L502,464L453,515L387,554L315,574L188,544L144,493L118,429L111,353L119,276L151,210L193,158L245,129L302,127L404,193L445,254L474,319L482,439L449,482L396,506L333,510L271,495L165,403L135,339L127,266L140,195L174,137L225,98L283,88L342,102L441,203L474,269L489,339L480,406L382,527L318,558L258,563L205,545L143,436L141,359L157,279L195,209L247,151L393,108L472,123L542,166L599,225L653,363L645,432L605,493L540,543L464,574L387,582L263,534L219,475L192,407L184,331L194,251L287,130L361,103L441,103L572,192L612,259L633,332L633,403L608,475L460,580L366,606L280,609L214,589L130,480L124,406L138,329L175,254L233,198L385,157L464,176L536,217L594,275L634,342L644,479L606,542L543,588L464,615L385,621L251,566L205,508L179,436L175,352L191,267L286,142L356,113L434,113L508,139L629,247L672,314L695,386L695,460L655,527L585,587L502,631L354,651L294,623L201,509L172,437L162,357L173,276L276,155L352,130L432,135L505,169L566,222L629,363L629,439L604,511L551,579L473,631L302,669L226,655L122,548L101,467L99,379L116,290L160,209L289,101L363,91L434,107L502,153L612,283L643,364L651,440L634,503L515,587L427,601L333,601L244,579L110,477L84,407L103,252L154,186L226,140L400,128L477,160L541,205L588,267L615,339L604,495L558,569L490,621L354,654L296,635L248,586L195,439L199,350L228,261L281,186L440,99L524,99L599,133L658,187L699,256L716,402L686,478L623,543L536,590L437,618L141,510L111,431L107,342L154,176L210,121L278,91L424,123L493,176L553,247L600,323L627,404L613,567L566,630L506,673L363,692L293,668L181,563L149,487L141,404L184,236L238,163L315,115L401,96L484,103L558,141L674,262L707,336L716,408L658,544L587,588L405,614L321,599L178,508L132,439L113,353L115,263L145,181L264,68L339,54L414,67L540,164L584,237L610,313L613,392L548,532L481,579L404,606L325,611L248,598L127,509L94,442L85,361L143,205L207,142L289,102L461,100L532,137L589,188L627,256L646,404L632,481L599,550L544,603L400,669L262,655L209,617L169,560L146,488L163,329L261,180L334,135L413,117L487,125L601,217L636,287L659,367L645,519L596,582L526,630L451,657L374,661L225,603L166,543L125,468L102,386L115,226L153,154L212,104L281,75L433,81L502,115L560,168L606,232L655,374L655,445L570,561L491,602L404,626L239,617L171,579L118,526L72,371L81,285L115,207L162,140L220,94L344,67L409,81L529,172L577,242L613,317L635,397L630,553L589,612L530,658L374,689L289,682L214,654L154,608L79,475L67,400L101,250L149,188L213,143L286,118L361,110L503,146L567,187L621,243L661,307L691,452L674,520L564,640L492,675L344,688L282,665L228,627L180,572L142,508L121,349L141,260L185,182L310,86L379,76L447,88L563,188L608,262L640,342L640,492L598,563L458,650L381,662L232,626L166,577L109,521L64,454L36,295L54,218L93,145L150,92L222,60L380,66L452,99L512,153L559,214L594,284L620,526L586,599L535,659L474,697L344,716L278,701L162,624L118,564L91,493L84,414L124,236L172,154L236,92L306,50L382,30L521,59L661,240L695,393L685,474L647,547L591,604L450,670L375,677L233,649L172,609L122,553L85,482L65,321L113,150L164,86L225,43L351,31L413,63L521,181L563,259L620,419L628,494L618,567L514,679L439,715L364,730L238,701L138,598L101,529L76,448L69,358L114,198L165,137L232,99L391,92L471,128L609,249L660,322L701,475L686,548L637,612L569,667L489,704L338,720L272,700L152,620L107,559L70,405L84,321L122,237L254,119L334,98L413,100L549,183L602,251L666,402L675,487L641,637L595,689L534,724L465,745L321,744L250,719L132,626L89,560L61,479L54,390L101,215L151,142L215,92L353,71L420,98L480,147L575,281L606,363L622,447L591,603L542,670L405,745L335,757L268,754L152,686L110,631L82,558L67,384L84,298L118,219L163,148L286,74L414,101L472,155L560,303L587,391L599,481L561,629L443,704L365,714L283,711L204,687L74,604L31,546L14,477L29,312L68,231L125,163L268,96L342,94L479,159L536,218L618,372L638,455L638,529L540,660L375,731L297,735L228,720L120,630L84,561L60,480L71,307L112,224L169,151L329,80L412,81L558,164L615,229L659,302L683,468L597,618L521,685L438,735L290,765L227,746L173,703L93,575L61,417L64,332L86,251L189,134L262,107L343,103L504,158L575,212L633,281L693,443L690,520L451,745L288,763L217,740L156,692L106,630L72,553L52,369L101,199L149,138L210,101L356,99L507,190L573,260L626,339L677,497L637,627L578,673L500,703L335,719L258,702L190,665L81,552L45,479L30,332L49,262L93,209L224,154L302,154L458,217L589,341L638,410L680,554L662,614L614,669L472,737L402,743L336,733L227,655L186,592L149,434L153,344L179,257L287,133L360,103L513,120L580,169L637,237L708,401L716,486L704,562L599,660L429,690L336,684L247,661L111,568L73,497L71,323L108,232L237,96L389,69L460,93L577,208L622,284L657,370L680,459L668,604L631,663L517,723L444,730L366,725L227,665L176,614L121,465L124,371L211,200L277,136L436,79L516,84L590,113L702,222L737,288L761,438L760,508L711,629L660,669L598,695L524,711L295,702L227,674L168,635L83,512L61,345L71,256L100,174L191,57L247,27L374,23L438,48L559,143L607,208L663,369L664,454L592,601L528,665L455,708L385,731L207,661L169,594L152,519L180,356L285,237L355,218L424,224L535,308L583,449L575,521L536,589L406,675L338,683L272,670L157,580L121,518L118,367L159,294L296,189L377,170L536,188L601,222L686,320L704,382L689,518L651,580L597,630L465,686L330,684L271,659L224,620L181,499L184,429L250,293L306,244L372,214L499,215L582,294L601,352L591,475L555,531L446,613L385,632L274,625L228,596L192,555L171,448L215,332L256,284L352,237L400,237L444,252L514,319L536,366L555,460L554,502L473,579L378,584L292,543L264,511L247,428L253,385L297,320L359,295L392,296L423,310L475,359L493,390L504,454L475,512L446,533L378,544L346,537L301,493L289,465L290,408L321,368L341,361L358,360L392,377L404,395L414,435L414,454L404,481L391,487L355,488L334,478L303,451L295,437L293,402L325,363L344,351L377,345L393,348L411,373L414,390L414,420L408,433L396,443L364,452L329,444L312,417L312,402L330,374L360,361L373,360L385,361L404,382L409,395L409,420L407,431L391,445L382,447L358,445L350,439L342,424L341,417L345,403L358,395L366,395L382,398L388,403L395,415L395,422L393,434L388,438L373,439L368,438L361,428L361,421L362,407L368,402L374,398L384,397L395,400L397,404L399,414L399,419L395,426L390,427L377,427L369,424L367,421L366,412L367,409L373,406L378,406L386,409L389,414L392,421L392,425L392,428L390,430L382,432L380,432L379,426L379,424L380,419L382,418" stroke-opacity="1" stroke-width="2" stroke-linecap="round" stroke-linejoin="round" style="-webkit-tap-highlight-color: rgba(0, 0, 0, 0); stroke-opacity: 1; stroke-linecap: round; stroke-linejoin: round; -webkit-user-select: text;"></path></svg>