<svg height="906" version="1.1" width="768" xmlns="http://www.w3.org/2000/svg" xmlns:xlink="http://www.w3.org/1999/xlink" style="overflow: hidden; position: relative; -webkit-user-select: text;"><desc style="-webkit-tap-highlight-color: rgba(0, 0, 0, 0); -webkit-user-select: text;">Created with Raphaël 2.2.0</desc><defs style="-webkit-tap-highlight-color: rgba(0, 0, 0, 0); -webkit-user-select: text;"></defs><path fill="none" stroke="#0f0000" d="M198,52L201,56L203,59L206,63L209,67L212,71L215,76L217,80L221,84L224,89L227,93L230,98L234,103L238,109L242,115L245,120L248,125L251,130L254,135L257,139L260,143L262,146L264,149L266,151L267,153L269,154L271,156L273,158" stroke-opacity="1" stroke-width="2" stroke-linecap="round" stroke-linejoin="round" style="-webkit-tap-highlight-color: rgba(0, 0, 0, 0); stroke-opacity: 1; stroke-linecap: round; stroke-linejoin: round; -webkit-user-select: text;"></path><path fill="none" stroke="#0f0000" d="M346,156L348,152L350,149L353,146L356,142L359,139L363,135L366,131L369,127L373,123L376,119L380,115L383,111L386,108L389,104L392,101L395,98L397,95L399,93L400,91L401,91L402,90L403,90L404,89L406,89" stroke-opacity="1" stroke-width="2" stroke-linecap="round" stroke-linejoin="round" style="-webkit-tap-highlight-color: rgba(0, 0, 0, 0); stroke-opacity: 1; stroke-linecap: round; stroke-linejoin: round; -webkit-user-select: text;"></path><path fill="none" stroke="#0f0000" d="M425,94L434,100L436,102L439,104L443,107L446,110L450,114L454,118L458,122L461,126L465,130L469,134L473,139L477,144L481,148L485,152L488,157L492,162L495,166L498,171L502,174L504,178L507,182L509,185L511,188L513,190L514,191L516,193L516,194L517,195L517,196L517,197" stroke-opacity="1" stroke-width="2" stroke-linecap="round" stroke-linejoin="round" style="-webkit-tap-highlight-color: rgba(0, 0, 0, 0); stroke-opacity: 1; stroke-linecap: round; stroke-linejoin: round; -webkit-user-select: text;"></path><path fill="none" stroke="#0f0000" d="M494,232L490,239L489,244L487,248L485,253L481,259L477,266L474,272L470,279L465,286L461,294L456,302L453,308L448,316L445,324L441,331L438,339L436,344L434,350L431,356L429,359L428,363L426,366L426,367L425,369L424,370L422,372" stroke-opacity="1" stroke-width="2" stroke-linecap="round" stroke-linejoin="round" style="-webkit-tap-highlight-color: rgba(0, 0, 0, 0); stroke-opacity: 1; stroke-linecap: round; stroke-linejoin: round; -webkit-user-select: text;"></path><path fill="none" stroke="#0f0000" d="M367,400L364,396L363,394L362,391L360,388L358,384L354,379L350,374L347,370L343,365L338,360L334,355L330,350L325,345L321,340L316,334L312,329L308,324L304,318L300,314L297,310L294,305L291,301L288,298L286,295L284,293L283,292L281,290L280,290L280,289L278,288" stroke-opacity="1" stroke-width="2" stroke-linecap="round" stroke-linejoin="round" style="-webkit-tap-highlight-color: rgba(0, 0, 0, 0); stroke-opacity: 1; stroke-linecap: round; stroke-linejoin: round; -webkit-user-select: text;"></path><path fill="none" stroke="#0f0000" d="M229,303L222,306L217,308L213,310L207,314L201,318L195,322L188,326L181,330L174,334L168,338L161,342L155,346L150,351L144,355L140,358L135,361L131,363L128,364L125,365L124,365L122,365" stroke-opacity="1" stroke-width="2" stroke-linecap="round" stroke-linejoin="round" style="-webkit-tap-highlight-color: rgba(0, 0, 0, 0); stroke-opacity: 1; stroke-linecap: round; stroke-linejoin: round; -webkit-user-select: text;"></path><path fill="none" stroke="#0f0000" d="M126,326L123,318L123,315L122,312L120,309L119,303L118,298L116,291L114,283L112,276L111,270L109,263L108,257L107,250L106,244L105,237L104,232L103,225L103,221L102,217L102,213L101,211L101,209L101,207" stroke-opacity="1" stroke-width="2" stroke-linecap="round" stroke-linejoin="round" style="-webkit-tap-highlight-color: rgba(0, 0, 0, 0); stroke-opacity: 1; stroke-linecap: round; stroke-linejoin: round; -webkit-user-select: text;"></path><path fill="none" stroke="#0f0000" d="M176,195L182,199L188,201L193,204L200,208L208,212L217,217L225,221L233,226L242,231L250,237L259,242L268,249L277,254L285,260L294,266L302,272L310,278L317,283L324,289L330,294L336,300L342,305L348,309L353,312L357,316L360,319L363,321L366,324L368,326L370,327L372,329L374,330L375,331L377,332L379,335" stroke-opacity="1" stroke-width="2" stroke-linecap="round" stroke-linejoin="round" style="-webkit-tap-highlight-color: rgba(0, 0, 0, 0); stroke-opacity: 1; stroke-linecap: round; stroke-linejoin: round; -webkit-user-select: text;"></path><path fill="none" stroke="#0f0000" d="M370,393L359,402L355,407L350,411L344,417L336,423L329,430L322,436L314,442L307,449L299,456L292,462L286,467L280,473L274,478L268,483L263,488L259,492L256,496L253,499L250,501L248,503L246,504L246,505L245,505" stroke-opacity="1" stroke-width="2" stroke-linecap="round" stroke-linejoin="round" style="-webkit-tap-highlight-color: rgba(0, 0, 0, 0); stroke-opacity: 1; stroke-linecap: round; stroke-linejoin: round; -webkit-user-select: text;"></path><path fill="none" stroke="#0f0000" d="M286,509L295,511L300,512L305,514L309,517L315,521L322,524L328,528L334,532L341,536L347,540L353,543L359,547L366,551L371,554L376,557L381,560L385,564L390,566L394,568L397,570L401,572L403,574L405,575L407,577L408,577L409,578L410,578L411,578L412,578L414,578" stroke-opacity="1" stroke-width="2" stroke-linecap="round" stroke-linejoin="round" style="-webkit-tap-highlight-color: rgba(0, 0, 0, 0); stroke-opacity: 1; stroke-linecap: round; stroke-linejoin: round; -webkit-user-select: text;"></path><path fill="none" stroke="#0f0000" d="M458,529L463,523L467,519L471,514L477,508L484,501L489,495L496,487L502,480L508,473L514,465L520,458L526,450L531,444L536,437L540,431L545,424L549,418L551,413L554,408L557,404L558,400L560,397L562,394L564,391L565,388L567,385" stroke-opacity="1" stroke-width="2" stroke-linecap="round" stroke-linejoin="round" style="-webkit-tap-highlight-color: rgba(0, 0, 0, 0); stroke-opacity: 1; stroke-linecap: round; stroke-linejoin: round; -webkit-user-select: text;"></path><path fill="none" stroke="#0f0000" d="M602,329L601,322L601,320L600,318L597,316L594,313L590,310L587,307L583,304L579,300L575,297L572,293L568,289L565,285L562,282L559,278L556,274L553,270L550,266L547,262L544,258L542,255L539,251L536,248L533,245L531,242L529,239L527,237L526,236L524,234L523,232L521,231L520,230L519,229L518,228L517,228L516,228L516,229L514,232" stroke-opacity="1" stroke-width="2" stroke-linecap="round" stroke-linejoin="round" style="-webkit-tap-highlight-color: rgba(0, 0, 0, 0); stroke-opacity: 1; stroke-linecap: round; stroke-linejoin: round; -webkit-user-select: text;"></path><path fill="none" stroke="#0f0000" d="M496,260L492,266L490,270L488,276L485,282L482,288L477,297L472,305L466,314L460,323L453,332L447,342L441,351L435,360L429,369L423,377L417,385L413,391L408,398L404,405L400,411L397,415L394,420L391,424L389,428L387,431L385,434L384,437L383,439L383,441L382,443L381,447" stroke-opacity="1" stroke-width="2" stroke-linecap="round" stroke-linejoin="round" style="-webkit-tap-highlight-color: rgba(0, 0, 0, 0); stroke-opacity: 1; stroke-linecap: round; stroke-linejoin: round; -webkit-user-select: text;"></path><path fill="none" stroke="#0f0000" d="M380,468L384,473L387,476L392,480L398,484L404,487L411,492L418,496L425,500L432,505L439,510L446,515L453,520L459,525L465,530L472,535L477,540L483,545L489,550L494,554L499,559L504,563L509,566L513,570L517,572L520,575L523,577L526,578L528,579L531,580L533,580" stroke-opacity="1" stroke-width="2" stroke-linecap="round" stroke-linejoin="round" style="-webkit-tap-highlight-color: rgba(0, 0, 0, 0); stroke-opacity: 1; stroke-linecap: round; stroke-linejoin: round; -webkit-user-select: text;"></path><path fill="none" stroke="#0f0000" d="M594,595L602,592L608,592L613,591L619,589L626,588L634,586L640,585L646,583L652,582L657,582L663,581L668,580L673,580L678,579L682,579L687,579L691,579L696,578L700,578L704,578L707,577L711,577L713,577L715,576L717,576L718,576" stroke-opacity="1" stroke-width="2" stroke-linecap="round" stroke-linejoin="round" style="-webkit-tap-highlight-color: rgba(0, 0, 0, 0); stroke-opacity: 1; stroke-linecap: round; stroke-linejoin: round; -webkit-user-select: text;"></path><path fill="none" stroke="#0f0000" d="M667,631L662,635L655,639L648,645L640,651L629,660L618,668L608,676L596,685L584,695L572,704L560,713L549,722L539,731L529,740L521,747L512,754L504,761L497,768L491,772L485,777L480,781L474,785L469,789L466,791L463,793L460,795L457,796" stroke-opacity="1" stroke-width="2" stroke-linecap="round" stroke-linejoin="round" style="-webkit-tap-highlight-color: rgba(0, 0, 0, 0); stroke-opacity: 1; stroke-linecap: round; stroke-linejoin: round; -webkit-user-select: text;"></path><path fill="none" stroke="#0f0000" d="M386,804L380,801L376,799L372,796L368,793L364,789L360,784L355,779L350,774L345,768L339,763L334,757L328,752L322,747L316,742L310,736L305,730L299,725L294,720L289,715L285,710L282,706L278,701L275,696L272,692L270,689L268,685L266,683L264,680L262,679" stroke-opacity="1" stroke-width="2" stroke-linecap="round" stroke-linejoin="round" style="-webkit-tap-highlight-color: rgba(0, 0, 0, 0); stroke-opacity: 1; stroke-linecap: round; stroke-linejoin: round; -webkit-user-select: text;"></path><path fill="none" stroke="#0f0000" d="M214,686L206,689L202,691L199,694L194,698L190,702L184,707L179,712L174,717L168,721L162,726L157,730L152,734L147,738L142,742L139,746L135,750L132,752L128,755L125,758L122,761L119,764L115,767L112,771L108,774L104,777L101,780L99,782L97,784L96,785L95,785L95,784" stroke-opacity="1" stroke-width="2" stroke-linecap="round" stroke-linejoin="round" style="-webkit-tap-highlight-color: rgba(0, 0, 0, 0); stroke-opacity: 1; stroke-linecap: round; stroke-linejoin: round; -webkit-user-select: text;"></path><path fill="none" stroke="#0f0000" d="M94,723L90,718L88,714L86,711L84,707L81,702L77,697L74,691L71,686L69,681L65,675L62,670L60,666L57,661L55,657L53,653L51,650L49,647L47,644L45,641L45,638" stroke-opacity="1" stroke-width="2" stroke-linecap="round" stroke-linejoin="round" style="-webkit-tap-highlight-color: rgba(0, 0, 0, 0); stroke-opacity: 1; stroke-linecap: round; stroke-linejoin: round; -webkit-user-select: text;"></path><path fill="none" stroke="#0f0000" d="M79,565L85,562L90,562L95,561L102,559L110,558L118,556L128,555L138,553L149,553L160,552L171,551L183,551L196,551L207,551L220,551L231,551L244,551L255,551L267,552L279,553L291,554L302,555L312,556L322,557L331,558L340,558L347,558L354,559L360,560L366,562" stroke-opacity="1" stroke-width="2" stroke-linecap="round" stroke-linejoin="round" style="-webkit-tap-highlight-color: rgba(0, 0, 0, 0); stroke-opacity: 1; stroke-linecap: round; stroke-linejoin: round; -webkit-user-select: text;"></path><path fill="none" stroke="#0f0000" d="M397,609L395,616L394,621L392,627L390,635L387,645L383,655L379,666L374,677L369,689L363,700L357,713L351,724L344,737L338,750L332,763L325,775L319,787L313,798L307,809L302,820L297,830L293,839L290,846L288,853L285,858L284,862L283,865L282,868L282,871L281,872L281,874L281,875" stroke-opacity="1" stroke-width="2" stroke-linecap="round" stroke-linejoin="round" style="-webkit-tap-highlight-color: rgba(0, 0, 0, 0); stroke-opacity: 1; stroke-linecap: round; stroke-linejoin: round; -webkit-user-select: text;"></path></svg>