<svg height="906" version="1.1" width="768" xmlns="http://www.w3.org/2000/svg" xmlns:xlink="http://www.w3.org/1999/xlink" style="overflow: hidden; position: relative; -webkit-user-select: text;"><desc style="-webkit-tap-highlight-color: rgba(0, 0, 0, 0); -webkit-user-select: text;">Created with Raphaël 2.2.0</desc><defs style="-webkit-tap-highlight-color: rgba(0, 0, 0, 0); -webkit-user-select: text;"></defs><path fill="none" stroke="#0f0000" d="M222,391L214,386L214,383L214,379L216,374L218,368L222,361L226,354L230,347L236,341L243,334L250,327L257,321L265,315L273,310L279,306L288,301L297,296L305,291L313,287L322,283L330,280L340,276L348,274L358,271L367,270L377,268L386,267L395,266L404,266L413,266L420,266L429,266L436,266L444,268L451,271L457,274L463,277L469,280L474,283L480,288L485,291L490,295L495,300L500,304L504,308L509,313L512,317L516,322L519,327L522,332L525,336L528,341L531,346L533,352L536,357L538,362L540,368L542,373L544,378L546,383L547,387L549,393L550,398L552,403L553,407L554,412L555,417L556,421L557,426L557,431L558,436L558,441L558,446L558,451L558,456L558,460L558,465L558,470L557,475L557,480L556,484L554,489L553,494L551,499L549,504L547,509L545,514L542,519L539,524L536,529L533,534L530,539L526,543L523,548L519,552L515,557L511,561L506,566L502,570L498,574L493,577L488,581L483,584L478,588L473,591L468,593L463,596L457,598L451,600L445,602L438,604L432,605L424,606L417,607L407,608L399,608L390,608L380,608L370,608L360,606L351,601" stroke-opacity="1" stroke-width="2" stroke-linecap="round" stroke-linejoin="round" style="-webkit-tap-highlight-color: rgba(0, 0, 0, 0); stroke-opacity: 1; stroke-linecap: round; stroke-linejoin: round; -webkit-user-select: text;"></path><path fill="none" stroke="#0f0000" d="M238,393L237,386L237,381L237,376L238,370L242,363L247,354L252,346L258,339L264,332L271,325L277,319L283,312L290,306L297,301L304,297L313,292L321,288L330,284L338,281L347,278L356,276L365,274L375,272L385,271L395,271L404,270L414,270L424,270L434,271L444,272L453,274L463,277L472,280L482,283L489,286L499,291L507,295L515,300L523,305L530,310L537,316L544,322L550,329L555,335L560,342L564,349L567,356L571,363L574,370L576,378L579,386L581,394L582,402L584,409L585,417L586,424L587,432L587,440L587,449L587,458L587,466L587,474L586,482L584,490L582,499L579,507L576,516L573,524L569,532L566,540L562,547L558,554L554,561L550,568L545,575L540,581L535,587L529,592L523,598L517,603L510,609L504,614L497,618L490,623L482,627L475,631L468,634L461,636L454,638L448,640L441,642L434,643L426,644L418,645L410,645L402,645L395,645L387,645L379,645L370,645L363,644L356,642L348,639L341,636L334,633L327,629L320,626L314,621L308,618L302,613L296,608L290,603L285,596L280,588L278,577" stroke-opacity="1" stroke-width="2" stroke-linecap="round" stroke-linejoin="round" style="-webkit-tap-highlight-color: rgba(0, 0, 0, 0); stroke-opacity: 1; stroke-linecap: round; stroke-linejoin: round; -webkit-user-select: text;"></path><path fill="none" stroke="#0f0000" d="M274,409L276,400L276,389L278,378L280,366L284,355L288,344L294,334L300,325L306,317L313,309L320,302L329,295L337,289L346,285L355,281L366,277L376,273L387,271L397,268L406,267L417,266L427,266L438,266L448,266L459,266L469,266L478,267L487,269L497,273L505,276L514,279L522,284L530,289L537,293L545,300L551,306L558,313L563,320L569,327L574,335L578,341L583,349L587,357L591,366L594,374L597,382L600,390L603,399L605,407L607,416L608,426L609,435L610,444L610,453L610,463L610,473L610,482L608,492L606,502L603,512L600,522L596,532L592,543L587,553L582,563L577,572L571,582L564,590L558,599L550,607L543,614L536,621L530,626L523,631L516,635L510,638L504,641L497,643L491,645L485,646L479,647L472,648L467,648L461,648L455,648L449,648L443,648L437,648L431,647L425,645L419,644L413,642L407,640L401,638L395,636L389,633L383,631L377,627L372,623L367,620L362,616L357,612L352,608L348,603L343,598L339,593L335,587L331,581L327,575L324,567L320,558L318,548L317,535L317,514" stroke-opacity="1" stroke-width="2" stroke-linecap="round" stroke-linejoin="round" style="-webkit-tap-highlight-color: rgba(0, 0, 0, 0); stroke-opacity: 1; stroke-linecap: round; stroke-linejoin: round; -webkit-user-select: text;"></path><path fill="none" stroke="#0f0000" d="M314,359L314,350L314,341L317,333L322,324L327,315L334,305L341,296L349,288L357,280L366,273L377,267L387,262L398,258L409,254L419,252L430,250L439,249L450,248L460,247L471,247L481,247L491,249L500,251L511,255L521,258L530,262L539,267L548,272L556,277L565,282L572,288L580,294L587,300L594,307L600,315L606,322L612,329L618,336L623,344L628,352L633,360L637,369L640,376L643,385L645,394L648,403L650,412L651,421L652,431L652,441L652,452L652,462L651,474L649,485L646,496L643,507L639,517L635,528L631,538L626,548L621,558L616,567L611,577L604,586L598,594L590,603L582,611L574,618L565,626L556,633L546,639L537,645L528,650L518,656L509,660L499,663L491,665L482,667L473,669L466,669L456,669L448,669L441,669L433,667L425,664L418,660L411,656L403,651L397,647L390,642L384,636L377,631L372,625L366,619L362,614L358,608L353,602L350,596L347,591L344,585L342,579L340,573L339,566L337,560L336,553L336,546L336,538L336,529L336,520L341,508L349,488" stroke-opacity="1" stroke-width="2" stroke-linecap="round" stroke-linejoin="round" style="-webkit-tap-highlight-color: rgba(0, 0, 0, 0); stroke-opacity: 1; stroke-linecap: round; stroke-linejoin: round; -webkit-user-select: text;"></path><path fill="none" stroke="#0f0000" d="M373,320L375,311L380,301L387,290L394,282L403,275L413,268L423,263L434,260L445,257L457,256L467,255L481,255L493,255L505,258L517,262L528,267L538,272L548,278L557,285L565,293L572,301L579,310L585,319L590,329L595,339L599,350L602,361L606,371L608,382L609,394L610,405L610,417L610,430L610,442L609,455L606,468L601,482L597,495L592,507L586,520L580,533L574,544L567,556L559,567L553,576L545,584L537,593L529,600L521,607L513,614L504,619L496,625L487,630L478,634L469,638L461,641L452,644L443,646L434,648L425,649L416,650L407,650L399,650L390,650L382,650L373,650L366,649L358,647L351,644L344,641L337,637L330,633L324,628L318,624L312,619L307,615L302,610L297,604L293,597L288,590L285,583L282,577L280,570L278,565L276,556L274,549L273,541L273,531L272,521L272,509L278,491" stroke-opacity="1" stroke-width="2" stroke-linecap="round" stroke-linejoin="round" style="-webkit-tap-highlight-color: rgba(0, 0, 0, 0); stroke-opacity: 1; stroke-linecap: round; stroke-linejoin: round; -webkit-user-select: text;"></path><path fill="none" stroke="#0f0000" d="M374,332L378,324L385,315L394,306L404,297L415,290L426,285L436,281L447,278L457,278L467,278L478,278L488,281L498,285L508,290L516,296L525,303L533,311L540,319L547,329L553,339L559,349L565,358L569,369L573,380L577,391L579,402L581,414L582,426L582,436L582,449L582,461L582,473L578,486L574,498L570,511L563,524L556,536L548,548L540,560L532,571L523,582L514,592L503,601L493,611L482,619L470,627L460,634L449,639L438,644L428,648L417,650L406,652L397,653L387,654L376,654L367,654L358,654L348,652L340,650L331,647L322,643L314,638L306,634L298,629L292,624L285,617L279,611L273,603L268,595L263,585L259,574L255,564L252,556L250,547L248,538L247,529L247,517L250,501L263,479" stroke-opacity="1" stroke-width="2" stroke-linecap="round" stroke-linejoin="round" style="-webkit-tap-highlight-color: rgba(0, 0, 0, 0); stroke-opacity: 1; stroke-linecap: round; stroke-linejoin: round; -webkit-user-select: text;"></path><path fill="none" stroke="#0f0000" d="M354,335L360,327L369,319L380,311L393,304L407,298L422,293L438,288L451,286L465,285L478,285L490,287L502,291L513,296L523,303L532,311L539,319L547,329L553,339L560,349L565,360L569,372L572,384L575,396L578,408L579,420L579,432L579,445L579,459L577,472L574,485L568,499L561,512L554,525L545,537L536,548L527,560L516,570L505,579L493,589L482,596L470,602L460,607L447,612L436,616L424,621L412,623L400,625L389,626L378,627L367,627L356,627L345,627L334,624L324,621L314,616L305,611L296,605L287,598L279,590L271,581L264,572L258,562L252,552L247,543L243,533L239,523L237,513L235,504L234,494L234,485L234,476L234,467L235,457L239,448L243,439L249,431L254,422L261,415L268,407L275,400L283,393L294,387L309,380L326,373" stroke-opacity="1" stroke-width="2" stroke-linecap="round" stroke-linejoin="round" style="-webkit-tap-highlight-color: rgba(0, 0, 0, 0); stroke-opacity: 1; stroke-linecap: round; stroke-linejoin: round; -webkit-user-select: text;"></path><path fill="none" stroke="#0f0000" d="M414,317L421,312L432,308L444,306L459,305L474,305L489,305L502,306L514,311L525,317L536,323L548,331L557,339L565,349L572,360L577,372L582,383L586,396L588,409L589,424L590,438L590,453L589,470L587,485L581,500L575,516L569,531L561,546L552,561L541,574L530,587L517,599L503,610L489,620L474,629L460,636L445,641L433,645L419,647L406,647L393,647L380,647L368,644L355,640L341,635L331,629L318,623L307,615L296,607L286,598L278,588L270,578L264,569L259,558L253,546L249,536L246,525L243,517L242,508L242,498L242,488L242,476L244,468L249,459L255,451L262,443L270,435L278,427L287,419L296,413L305,407L315,401L328,395L339,390L353,385L368,380L387,376L408,372L428,370" stroke-opacity="1" stroke-width="2" stroke-linecap="round" stroke-linejoin="round" style="-webkit-tap-highlight-color: rgba(0, 0, 0, 0); stroke-opacity: 1; stroke-linecap: round; stroke-linejoin: round; -webkit-user-select: text;"></path><path fill="none" stroke="#0f0000" d="M464,450L453,451L442,450L431,445L419,437L410,426L403,416L399,405L397,395L397,383L399,373L405,364L413,357L422,351L432,348L442,346L454,346L465,348L477,354L488,362L499,373L509,384L517,397L524,410L531,425L535,439L538,455L539,469L539,486L538,503L533,519L527,535L519,550L511,565L500,579L488,593L475,604L462,614L448,623L433,631L419,638L404,643L389,646L375,648L360,648L344,648L329,648L312,645L300,643L287,638L273,633L261,626L250,618L240,608L232,597L225,587L219,575L214,563L210,550L207,537L205,524L204,511L203,499L203,486L204,472L209,457L215,445L222,433L228,422L236,412L245,401L255,391L266,381L277,374L287,368L298,363L310,360L322,358L334,356L344,356L357,356L368,356L380,359L392,363L404,368L415,373L426,379L436,386L446,393L457,402L465,412L473,424L481,437L486,446" stroke-opacity="1" stroke-width="2" stroke-linecap="round" stroke-linejoin="round" style="-webkit-tap-highlight-color: rgba(0, 0, 0, 0); stroke-opacity: 1; stroke-linecap: round; stroke-linejoin: round; -webkit-user-select: text;"></path><path fill="none" stroke="#0f0000" d="M515,436L519,439L522,445L524,452L526,461L526,470L526,480L526,491L525,502L522,514L517,524L512,536L506,547L499,559L491,570L482,579L473,589L463,597L453,604L441,611L431,616L419,619L407,622L395,623L382,624L370,624L358,624L346,624L335,622L324,619L313,615L302,610L292,604L282,597L272,590L262,581L254,573L246,564L239,555L232,545L226,536L221,525L215,514L211,501L207,489L203,477L201,465L199,453L198,442L198,431L198,419L198,408L200,397L204,386L209,376L215,367L222,357L229,349L237,340L246,333L256,326L266,320L277,315L288,310L300,306L312,302L324,300L337,298L350,297L364,296L377,296L390,296L403,296L416,299L427,302L439,306L450,311L460,316L470,322L479,329L487,337L496,346L503,355L512,366L519,377L525,386L530,392" stroke-opacity="1" stroke-width="2" stroke-linecap="round" stroke-linejoin="round" style="-webkit-tap-highlight-color: rgba(0, 0, 0, 0); stroke-opacity: 1; stroke-linecap: round; stroke-linejoin: round; -webkit-user-select: text;"></path><path fill="none" stroke="#0f0000" d="M450,317L454,309L458,304L464,301L472,301L482,301L493,302L504,308L513,315L521,324L528,334L535,346L541,358L547,371L551,385L554,398L557,413L558,428L558,443L558,458L558,472L557,485L553,499L547,513L541,526L534,538L526,550L516,561L506,571L494,580L481,589L467,596L452,602L437,608L422,611L409,614L395,616L380,616L366,616L353,616L340,614L329,609L317,605L306,599L295,594L283,586L273,579L262,570L253,560L244,550L236,539L229,528L223,517L217,505L212,494L207,482L203,471L200,460L197,450L195,441L193,431L192,420L192,409L192,397L192,386L195,376L198,366L203,356L207,345L213,336L219,327L225,317L232,309L239,301L247,294L255,287L264,281L273,276L283,271L293,267L304,263L315,260L327,257L338,255L350,253L362,251L374,250L387,250L404,250" stroke-opacity="1" stroke-width="2" stroke-linecap="round" stroke-linejoin="round" style="-webkit-tap-highlight-color: rgba(0, 0, 0, 0); stroke-opacity: 1; stroke-linecap: round; stroke-linejoin: round; -webkit-user-select: text;"></path><path fill="none" stroke="#0f0000" d="M453,257L458,258L467,258L476,262L486,267L499,274L510,281L521,289L531,297L540,306L548,314L555,324L561,335L567,346L572,358L575,370L578,383L579,396L580,409L580,423L580,437L579,451L576,465L571,480L565,494L560,507L553,521L545,535L537,548L528,560L518,572L507,582L496,592L483,600L470,607L457,613L445,617L432,621L419,623L406,625L394,625L381,625L369,625L357,624L345,621L333,618L322,614L311,610L300,604L290,598L279,592L268,583L259,575L250,568L242,560L234,551L227,542L219,531L213,521L207,511L201,500L196,490L192,480L188,469L185,458L183,447L182,434L182,422L182,410L182,398L184,387L187,375L192,363L198,351L203,340L210,329L216,319L223,310L231,300L239,291L247,283L256,276L266,269L277,263L288,257L300,252L312,248L325,245L339,242L353,239L367,238L382,238L399,238L415,238L435,240" stroke-opacity="1" stroke-width="2" stroke-linecap="round" stroke-linejoin="round" style="-webkit-tap-highlight-color: rgba(0, 0, 0, 0); stroke-opacity: 1; stroke-linecap: round; stroke-linejoin: round; -webkit-user-select: text;"></path><path fill="none" stroke="#0f0000" d="M454,242L458,242L465,242L473,243L482,246L494,250L505,256L517,264L526,273L535,285L542,297L548,311L553,326L556,343L558,360L558,377L558,393L555,409L550,425L544,442L536,458L526,474L516,489L504,503L492,516L478,528L464,540L448,550L433,560L417,567L401,572L385,575L370,577L356,578L340,578L326,578L310,575L295,570L281,565L266,558L253,551L240,542L229,533L219,522L210,510L203,498L197,484L191,470L187,456L183,443L180,429L178,414L178,400L177,385L177,371L178,358L181,346L187,332L194,320L201,308L210,297L219,287L229,278L241,268L254,260L266,252L278,246L289,241L301,236L313,232L324,229L336,228L348,227L358,226L370,226L383,226L394,226L406,227L417,229L430,232L439,236" stroke-opacity="1" stroke-width="2" stroke-linecap="round" stroke-linejoin="round" style="-webkit-tap-highlight-color: rgba(0, 0, 0, 0); stroke-opacity: 1; stroke-linecap: round; stroke-linejoin: round; -webkit-user-select: text;"></path><path fill="none" stroke="#0f0000" d="M417,278L421,273L429,273L437,273L446,278L458,288L467,297L477,307L485,317L492,329L498,342L502,354L505,368L507,383L508,396L509,410L509,424L509,439L507,453L504,467L499,482L493,495L486,508L478,520L469,533L458,545L447,557L434,568L421,578L406,587L392,595L377,602L363,608L348,613L336,617L323,620L311,622L298,622L287,622L275,622L264,622L254,618L243,614L234,609L225,602L217,595L208,587L201,579L193,572L186,564L179,556L173,548L167,539L161,530L156,521L152,513L148,504L144,496L142,487L139,479L137,470L135,460L134,451L133,442L133,432L133,421L135,410L138,400L141,389L145,379L149,369L154,360L159,351L164,342L169,333L175,324L181,315L187,307L195,298L205,288L218,277L239,262L259,253" stroke-opacity="1" stroke-width="2" stroke-linecap="round" stroke-linejoin="round" style="-webkit-tap-highlight-color: rgba(0, 0, 0, 0); stroke-opacity: 1; stroke-linecap: round; stroke-linejoin: round; -webkit-user-select: text;"></path><path fill="none" stroke="#0f0000" d="M390,233L402,235L416,237L432,242L448,247L463,256L476,265L487,276L495,288L502,300L509,313L513,324L516,339L518,352L518,367L518,381L517,398L514,414L509,429L503,445L497,460L490,474L482,487L474,500L465,512L455,524L446,535L436,545L425,554L414,562L402,570L390,576L378,581L365,586L353,589L339,592L326,593L312,594L298,594L285,594L271,594L258,591L244,587L230,582L218,576L208,569L199,562L191,553L183,544L176,536L171,526L166,517L161,507L158,497L154,487L152,477L150,468L149,458L148,449L147,440L147,431L147,422L147,412L149,401L152,391L154,383L157,374L160,365L164,357L169,348L175,340L182,332L191,323L201,314L212,305L225,297L240,290L259,283L278,278" stroke-opacity="1" stroke-width="2" stroke-linecap="round" stroke-linejoin="round" style="-webkit-tap-highlight-color: rgba(0, 0, 0, 0); stroke-opacity: 1; stroke-linecap: round; stroke-linejoin: round; -webkit-user-select: text;"></path><path fill="none" stroke="#0f0000" d="M354,270L365,270L374,272L385,276L398,283L409,291L420,300L430,310L438,321L446,334L453,348L458,363L462,379L464,395L464,410L464,429L462,446L457,463L450,480L441,495L431,509L421,521L409,533L396,544L382,553L368,560L353,567L339,572L324,575L311,577L297,577L283,577L270,577L257,573L245,569L234,563L225,557L215,549L205,540L196,531L189,519L183,509L178,497L174,485L170,471L166,458L164,444L161,430L159,417L157,403L156,390L156,376L156,363L159,351L163,339L169,325L175,314L182,303L189,293L196,285L204,277L212,269L222,263L232,257L243,251L254,247L265,243L276,239L286,237L297,234L308,232L318,231L329,230L340,230L351,229L362,229L372,229L382,230L392,233L401,237L409,240L417,244L424,249L431,255L437,261L443,268L448,274L454,283L459,291L463,300L467,310L471,319L474,330L476,342L477,356L477,370L477,387L475,403" stroke-opacity="1" stroke-width="2" stroke-linecap="round" stroke-linejoin="round" style="-webkit-tap-highlight-color: rgba(0, 0, 0, 0); stroke-opacity: 1; stroke-linecap: round; stroke-linejoin: round; -webkit-user-select: text;"></path><path fill="none" stroke="#0f0000" d="M423,336L426,336L431,338L434,345L438,354L440,365L441,377L441,390L441,402L441,417L437,432L432,446L425,460L417,473L407,485L396,496L385,505L373,513L362,518L350,522L339,524L328,524L315,524L304,524L293,521L282,516L271,511L260,504L249,496L239,487L230,477L222,467L214,455L208,442L203,431L200,417L198,404L195,389L195,375L194,361L194,348L194,336L194,323L196,311L200,298L204,287L210,276L216,266L224,255L232,246L240,238L250,231L260,225L271,219L282,213L294,208L306,204L317,201L329,198L341,196L353,193L366,192L378,191L388,191L401,191L412,191L423,193L434,196L445,200L455,205L464,210L472,215L481,221L488,228L495,236L501,244L507,251L513,261L518,269L523,278L527,288L530,296L533,305L536,314L537,323L538,333L539,342L539,351L539,361L539,370L539,380L537,392L533,403L527,417L521,429L512,443L499,462L484,480L460,494" stroke-opacity="1" stroke-width="2" stroke-linecap="round" stroke-linejoin="round" style="-webkit-tap-highlight-color: rgba(0, 0, 0, 0); stroke-opacity: 1; stroke-linecap: round; stroke-linejoin: round; -webkit-user-select: text;"></path><path fill="none" stroke="#0f0000" d="M434,337L437,337L440,339L443,345L445,353L445,363L445,378L444,390L441,403L436,415L430,429L423,439L414,449L404,458L395,463L385,468L375,470L365,472L352,472L340,472L327,469L312,463L300,458L288,452L276,446L267,439L257,430L249,420L243,411L237,397L233,383L231,370L229,356L229,341L229,326L229,311L229,297L232,282L237,267L241,255L247,242L253,233L260,223L267,214L275,207L283,200L291,194L300,188L310,183L319,179L329,176L337,174L347,171L357,170L368,169L379,168L389,167L400,167L410,166L419,166L429,166L438,166L446,169L455,171L463,175L471,178L479,183L486,187L493,192L499,197L506,203L513,210L519,216L524,223L529,230L535,238L538,245L543,254L546,262L549,271L551,279L553,288L555,298L558,307L559,316L560,325L561,334L561,344L561,353L561,363L561,373L561,383L559,393L556,404L553,415L547,429L541,441L533,455L521,471L507,488L487,506L460,524" stroke-opacity="1" stroke-width="2" stroke-linecap="round" stroke-linejoin="round" style="-webkit-tap-highlight-color: rgba(0, 0, 0, 0); stroke-opacity: 1; stroke-linecap: round; stroke-linejoin: round; -webkit-user-select: text;"></path><path fill="none" stroke="#0f0000" d="M484,363L488,365L492,368L494,375L495,383L495,395L492,409L485,422L477,436L467,448L457,459L446,468L435,476L424,481L412,485L400,487L389,488L376,488L365,488L353,485L342,480L332,476L322,471L311,465L301,459L290,450L280,441L272,431L265,420L259,409L254,397L251,384L249,370L246,355L245,341L245,325L245,309L246,291L250,276L255,261L261,247L268,233L277,220L286,210L296,200L307,191L319,184L332,178L345,173L357,169L370,166L384,164L398,163L412,163L425,162L439,162L453,162L467,163L481,166L493,169L505,173L516,177L527,183L537,188L547,194L556,200L565,207L574,215L582,222L589,231L595,239L601,249L606,259L610,268L614,278L617,290L619,300L621,312L623,324L623,336L623,349L623,363L623,376L623,390L620,404L616,420L610,435L604,450L596,465L587,480L574,496L560,511L543,526L521,543L492,560" stroke-opacity="1" stroke-width="2" stroke-linecap="round" stroke-linejoin="round" style="-webkit-tap-highlight-color: rgba(0, 0, 0, 0); stroke-opacity: 1; stroke-linecap: round; stroke-linejoin: round; -webkit-user-select: text;"></path><path fill="none" stroke="#0f0000" d="M268,504L261,496L255,486L249,474L246,460L244,444L244,426L244,409L244,391L245,373L249,356L255,339L262,324L269,309L276,295L284,281L292,268L300,256L308,246L317,237L325,230L335,224L345,218L356,213L366,208L377,204L387,200L398,198L409,195L419,193L431,192L441,191L452,191L463,191L473,191L484,191L494,191L503,191L511,193L519,195L527,197L535,199L542,202L549,205L556,209L562,213L568,217L574,222L579,226L585,231L591,237L596,243L602,249L607,255L613,263L618,268L623,276L628,284L632,291L636,299L640,309L643,316L645,325L647,335L649,344L650,354L650,365L650,376L650,388L650,402L647,420L642,439L635,457" stroke-opacity="1" stroke-width="2" stroke-linecap="round" stroke-linejoin="round" style="-webkit-tap-highlight-color: rgba(0, 0, 0, 0); stroke-opacity: 1; stroke-linecap: round; stroke-linejoin: round; -webkit-user-select: text;"></path><path fill="none" stroke="#0f0000" d="M549,344L558,339L563,343L570,352L576,362L581,374L586,387L590,400L592,414L594,429L594,444L594,462L594,478L589,494L582,511L573,527L564,543L553,559L542,572L529,586L513,599L497,612L480,625L464,636L449,645L433,653L416,660L399,665L382,668L366,669L351,669L334,669L319,666L305,661L292,656L279,649L267,641L256,633L244,623L233,613L224,602L214,591L205,579L197,567L188,555L181,543L175,530L170,516L167,501L165,487L164,473L164,458" stroke-opacity="1" stroke-width="2" stroke-linecap="round" stroke-linejoin="round" style="-webkit-tap-highlight-color: rgba(0, 0, 0, 0); stroke-opacity: 1; stroke-linecap: round; stroke-linejoin: round; -webkit-user-select: text;"></path><path fill="none" stroke="#0f0000" d="M207,295L215,286L225,278L238,270L254,263L273,257L292,252L312,247L332,244L352,241L372,241L390,241L406,244L421,251L434,260L446,271L456,283L465,295L472,309L477,324L480,341L481,358L481,376L481,393L481,411L477,428L472,446L465,463L458,479L448,494L438,507L426,519L414,529L402,539L388,547L375,553L361,559L347,563L335,565L320,567L307,568L293,568L280,568L268,567L256,565L245,562L234,559L225,555L215,550L207,545L200,539L193,533L187,526L181,518L176,510L171,502L166,493L161,485L156,475L152,467L148,458L144,449L139,440L136,431L133,423L131,414L129,405L128,396L127,386L127,376L127,366L127,357L127,347L130,336L133,327L137,317L141,307L144,299L148,291L153,282L158,274L164,265L171,257L178,249L186,241L196,232L208,224L223,215L246,203" stroke-opacity="1" stroke-width="2" stroke-linecap="round" stroke-linejoin="round" style="-webkit-tap-highlight-color: rgba(0, 0, 0, 0); stroke-opacity: 1; stroke-linecap: round; stroke-linejoin: round; -webkit-user-select: text;"></path><path fill="none" stroke="#0f0000" d="M332,169L340,166L352,166L367,166L385,166L404,167L422,170L439,174L454,179L469,185L482,191L493,199L503,208L512,217L520,227L527,238L533,248L538,260L543,272L547,284L550,296L553,308L555,321L557,334L558,346L559,360L560,373L560,386L560,399L559,412L557,424L553,438L549,451L544,465L538,478L532,491L524,504L515,516L506,528L497,540L487,551L477,560L466,569L455,576L443,583L434,589L423,595L412,600L402,605L391,610L381,614L372,616L363,619L353,621L344,622L334,623L324,624L314,624L304,624L294,624L285,624L274,623L263,622L254,620L245,617L236,614L228,611L220,607L212,602L206,597L199,592L192,586L186,579L181,574L176,567L171,561L166,555L161,549L156,543L152,536L147,529L142,522L138,516L134,509L130,501L127,494L123,486L120,478L118,470L116,461L113,452L112,443L110,433L110,422L109,409L109,396L112,378L122,355" stroke-opacity="1" stroke-width="2" stroke-linecap="round" stroke-linejoin="round" style="-webkit-tap-highlight-color: rgba(0, 0, 0, 0); stroke-opacity: 1; stroke-linecap: round; stroke-linejoin: round; -webkit-user-select: text;"></path><path fill="none" stroke="#0f0000" d="M168,249L172,240L178,232L188,222L200,215L212,207L224,200L237,194L250,188L261,183L274,179L287,176L299,173L312,171L324,169L336,168L347,168L361,167L373,167L385,167L398,167L409,167L421,169L431,172L442,176L453,181L463,186L473,191L482,198L491,204L499,212L506,220L513,228L520,237L526,247L531,256L536,266L539,277L543,287L545,298L547,310L548,322L548,332L548,344L548,355L548,367L547,378L544,390L541,400L538,412L533,422L529,433L524,443L519,453L512,463L506,472L498,482L490,490L482,499L473,507L465,514L455,520L446,526L436,533L427,538L417,542L408,546L400,548L391,550L383,553L376,553L368,554L361,554L354,554L348,554L341,554L335,554L329,553L322,551L316,549L310,546L305,543L300,541L295,537L290,533L285,529L280,525L276,521L271,517L267,511L262,507L258,502L254,496L251,491L248,486L244,480L242,475L239,469L236,463L234,457L232,451L230,444L229,438L227,430L226,421L226,414L225,404L225,395L225,383L227,371L231,359L239,345L249,332L260,320" stroke-opacity="1" stroke-width="2" stroke-linecap="round" stroke-linejoin="round" style="-webkit-tap-highlight-color: rgba(0, 0, 0, 0); stroke-opacity: 1; stroke-linecap: round; stroke-linejoin: round; -webkit-user-select: text;"></path><path fill="none" stroke="#0f0000" d="M290,279L298,269L305,263L315,257L326,253L340,251L355,250L371,250L387,250L401,254L414,261L426,269L436,279L446,290L454,302L461,316L465,332L469,347L470,361L470,378L470,396L467,412L461,429L453,444L443,459L432,473L420,485L408,494L395,502L383,508L371,513L360,516L348,519L339,520L330,521L321,521L312,521L305,520L297,518L290,515L283,512L276,508L268,504L261,499L255,494L249,489L244,484L238,478L232,472L227,466L223,460L218,452L214,445L210,438L206,429L203,421L200,412L198,404L196,395L195,386L195,377L194,367L194,357L194,346L194,335L194,323L196,311L198,300L200,289L203,278L207,268L212,258L217,249L222,239L227,231L234,222L240,214L246,207L254,199L261,192L270,185L278,178L288,171L297,166L306,161L315,157L325,153L335,150L346,147L356,144L366,143L378,142L389,141L400,140L411,140L423,140L434,140L446,142L458,145L470,148L481,152L493,156L504,161L515,166L526,171L538,178L548,186L557,193L567,201L577,210L584,219L591,229L597,239L602,251L607,262L611,274L613,288L615,300L616,315L617,328L617,342L617,356L617,370L616,387L611,402L605,418L594,438L579,458L558,479L528,497" stroke-opacity="1" stroke-width="2" stroke-linecap="round" stroke-linejoin="round" style="-webkit-tap-highlight-color: rgba(0, 0, 0, 0); stroke-opacity: 1; stroke-linecap: round; stroke-linejoin: round; -webkit-user-select: text;"></path><path fill="none" stroke="#0f0000" d="M373,470L370,467L366,464L363,463L360,461L355,459L347,456L339,450L329,441L320,430L312,418L307,406L301,394L297,382L295,367L293,352L293,336L293,321L293,307L294,293L297,281L301,268L305,256L311,243L317,234L325,222L334,213L344,204L355,195L366,188L376,182L388,177L400,173L414,169L427,166L441,164L456,163L471,163L485,163L499,163L512,164L524,167L536,171L547,176L558,181L567,187L577,193L584,199L592,205L599,212L605,220L610,227L615,235L618,242L622,249L626,257L629,265L632,272L635,281L639,288L642,297L644,305L646,314L648,322L649,332L650,340L650,349L650,359L650,368L650,378L650,389L648,399L646,410L643,421L639,432L635,443L630,454L625,465L620,476L614,487L608,497L601,509L594,519L587,528L580,538L572,546L564,554L555,562L547,569L538,575L528,580L519,584L508,589L497,592L486,595L475,597L463,598L451,599L439,600L428,600L415,600L404,600L392,600L382,597L371,594L361,590L352,585L343,580L334,574L325,567L317,559L309,551L301,544L293,537L286,530L280,522L274,514L268,504L263,495L259,485L255,475L251,466L247,456L244,446L242,435L241,422L240,408L240,393L240,378L243,360" stroke-opacity="1" stroke-width="2" stroke-linecap="round" stroke-linejoin="round" style="-webkit-tap-highlight-color: rgba(0, 0, 0, 0); stroke-opacity: 1; stroke-linecap: round; stroke-linejoin: round; -webkit-user-select: text;"></path><path fill="none" stroke="#0f0000" d="M159,294L152,288L153,280L161,266L171,252L185,236L199,221L213,206L229,192L245,179L261,167L276,158L290,150L305,144L320,140L334,136L348,134L363,132L378,132L392,132L407,132L421,132L435,135L449,138L462,142L476,147L489,153L502,159L515,166L527,174L539,181L550,188L562,197L572,205L581,214L589,224L596,232L604,242L611,252L616,263L622,273L626,284L630,295L634,307L637,319L639,332L640,346L641,359L642,373L642,387L642,400L642,414L642,428L640,442L638,456L635,470L632,486L628,498L623,512L618,523L612,536L607,546L599,559L592,570L583,580L574,590L564,599L553,608L542,616L530,623L517,631L504,637L490,642L479,646L465,650L452,652L438,655L424,657L408,659L392,660L377,660L363,660L348,660L332,657L317,653L303,649L289,643L278,637L266,629L256,621L246,611L237,601L228,590L220,578L212,566L203,553L195,540L188,526L181,510L176,494L172,478L168,463L164,448L161,436L158,423L155,409L153,396L151,382L150,368L149,355L149,342L149,329L150,315L152,302L156,290L159,278L164,267L171,254L178,242L187,231L197,218L209,206L223,192L240,178L258,164" stroke-opacity="1" stroke-width="2" stroke-linecap="round" stroke-linejoin="round" style="-webkit-tap-highlight-color: rgba(0, 0, 0, 0); stroke-opacity: 1; stroke-linecap: round; stroke-linejoin: round; -webkit-user-select: text;"></path><path fill="none" stroke="#0f0000" d="M132,304L127,300L129,293L137,279L150,261L162,244L174,229L187,214L200,199L215,185L229,172L245,160L259,152L276,143L291,135L307,129L324,124L340,120L356,118L373,117L391,116L408,116L425,116L442,117L459,120L475,125L492,131L507,137L522,144L537,153L551,162L565,173L577,183L588,194L599,205L609,217L618,229L627,242L635,255L642,268L648,281L654,294L658,305L662,319L665,332L667,346L669,361L670,375L670,389L670,403L670,418L668,432L664,448L660,462L655,475L649,488L641,501L633,514L623,526L613,538L601,549L589,560L575,570L561,580L547,589L531,596L516,604L500,610L484,615L468,619L452,622L436,625L419,627L403,628L388,629L372,629L356,629L341,628L327,626L310,622L296,617L283,612L269,605L256,598L243,589L232,579L221,570L210,558L201,546L191,533L183,519L174,503L167,488L160,473L154,458L149,443L144,429L141,415L137,400L135,387L133,373L132,358L131,344L130,332L130,319L130,307L132,294L136,282L139,270L143,260L147,251L150,242L154,233L159,224L166,211L174,198L177,190L179,184L180,178L184,169L188,161L199,151L212,143L229,135L251,126L270,119L287,112L306,106L324,99L341,93L358,88L374,86L387,84L403,84L418,84L434,88L449,93L463,98L478,105L491,113L504,120L517,130L529,140L541,151L554,163L566,175L577,189L589,203L599,217L608,233L616,248L624,263L630,279L635,294L640,309L643,325L645,341L647,357L648,371L648,387L648,402L648,418L646,435L643,451L639,466L633,481L626,497L618,511L609,526L600,540L589,553L578,565L565,576L551,587L537,596L522,605L507,614L492,620L477,626L462,631L447,635L431,638L416,640L400,642L385,643L368,643L352,643L336,643L321,643L306,643L290,639L276,635L261,631L248,626L236,620L225,612L214,604L205,596L195,587L186,577L178,566L170,555L163,544L156,533L151,522L146,508L142,496L138,480L135,468L131,453L128,440L125,424L123,410L122,395L121,380L121,365L121,350L122,334L131,314L147,292" stroke-opacity="1" stroke-width="2" stroke-linecap="round" stroke-linejoin="round" style="-webkit-tap-highlight-color: rgba(0, 0, 0, 0); stroke-opacity: 1; stroke-linecap: round; stroke-linejoin: round; -webkit-user-select: text;"></path><path fill="none" stroke="#0f0000" d="M149,251L151,244L151,237L154,230L163,221L174,211L186,200L199,191L212,181L224,171L237,163L249,157L261,153L273,149L286,147L300,144L314,140L331,138L346,135L363,133L380,132L395,132L414,132L431,132L447,133L465,135L481,138L497,142L512,147L528,152L542,159L557,165L570,172L583,180L594,188L604,197L614,205L623,215L631,225L638,234L645,244L650,254L656,264L661,275L666,287L669,298L673,310L676,323L678,336L679,350L679,364L679,378L679,392L679,405L677,419L673,435L669,450L663,465L657,480L650,494L641,508L632,521L622,534L612,547L601,560L589,572L576,583L562,593L548,602L535,611L521,619L507,626L493,633L479,638L465,643L453,646L440,649L427,650L415,651L404,652L391,652L379,652L366,652L353,650L341,648L329,645L316,643L304,639L291,635L279,631L266,624L256,619L245,611L235,604L226,595L217,586L208,576L199,566L191,556L182,546L175,537L166,526L159,514L153,503L148,492L142,479L138,468L134,456L130,444L127,431L126,418L125,403L125,390L125,376L125,363L128,351L133,339L142,324L152,311" stroke-opacity="1" stroke-width="2" stroke-linecap="round" stroke-linejoin="round" style="-webkit-tap-highlight-color: rgba(0, 0, 0, 0); stroke-opacity: 1; stroke-linecap: round; stroke-linejoin: round; -webkit-user-select: text;"></path><path fill="none" stroke="#0f0000" d="M203,265L207,260L208,258L212,256L217,254L223,251L231,247L239,242L249,235L258,229L268,222L279,216L290,210L302,205L314,202L328,198L342,195L358,193L373,191L388,190L404,189L420,189L437,189L455,189L471,191L487,195L502,199L516,205L530,210L543,217L554,223L565,230L574,237L583,245L591,253L598,261L605,269L611,277L616,285L621,294L625,303L628,313L630,323L632,334L633,344L634,355L634,366L634,378L634,392L634,404L634,417L633,429L631,442L628,455L625,468L621,481L616,493L611,507L605,519L599,532L592,544L583,557L575,568L566,578L556,587L545,595L533,602L520,609L507,615L496,620L484,624L471,628L458,631L444,633L429,635L414,637L398,638L382,638L364,638L348,637L332,634L317,631L302,626L288,621L273,615L260,609L247,601L235,594L225,584L214,573L204,561L193,547L182,529L174,515L168,499" stroke-opacity="1" stroke-width="2" stroke-linecap="round" stroke-linejoin="round" style="-webkit-tap-highlight-color: rgba(0, 0, 0, 0); stroke-opacity: 1; stroke-linecap: round; stroke-linejoin: round; -webkit-user-select: text;"></path><path fill="none" stroke="#0f0000" d="M116,420L111,408L108,396L106,385L106,373L106,361L106,347L109,333L112,319L114,305L117,290L120,277L124,265L129,254L136,241L143,229L152,217L162,206L174,194L186,182L201,171L216,160L232,151L249,142L266,135L283,127L301,121L319,115L337,111L355,108L372,105L390,104L405,104L424,104L441,104L458,105L475,108L490,113L505,118L519,124L533,131L546,139L559,147L571,157L583,166L594,177L605,187L615,198L625,210L633,221L641,233L648,245L655,257L660,268L665,280L669,292L672,304L675,317L678,330L680,343L681,356L682,370L682,385L682,398L682,412L680,425L677,439L672,454L667,468L660,482L653,496L644,510L635,524L625,539L614,553L602,567L590,579L577,590L563,601L548,611L532,621L517,630L503,638L488,645L473,650L459,655L444,659L431,662L418,663L405,665L391,665L376,665L361,665L347,665L332,664L318,662L304,660L289,657L276,654L261,649L250,645L238,641L227,635L217,629L206,620L196,610L186,598L177,584L168,569L159,553L154,538" stroke-opacity="1" stroke-width="2" stroke-linecap="round" stroke-linejoin="round" style="-webkit-tap-highlight-color: rgba(0, 0, 0, 0); stroke-opacity: 1; stroke-linecap: round; stroke-linejoin: round; -webkit-user-select: text;"></path><path fill="none" stroke="#0f0000" d="M138,492L136,484L132,479L128,475L125,470L122,465L119,460L117,456L115,448L112,440L109,429L107,417L105,404L105,391L104,377L104,363L104,350L105,336L108,320L111,305L115,290L119,274L124,259L129,245L135,232L143,218L152,206L161,194L171,183L182,173L194,163L207,153L220,144L235,137L251,130L268,123L286,117L302,112L320,108L338,104L356,102L375,100L394,99L413,99L431,99L448,99L466,103L483,106L500,111L516,118L531,125L547,133L561,142L576,152L589,163L602,174L613,186L624,198L634,212L643,226L650,241L656,257L661,273L665,290L668,306L670,323L672,340L673,355L673,371L673,390L673,406L671,423L667,441L663,458L657,475L649,491L638,510L626,526L613,541L600,556L585,570L570,582L553,595L535,606L517,616L501,624L483,631L466,638L448,643L430,647L412,650L392,652L373,653L354,654L336,655L317,655L300,655L282,654L264,650L246,644L229,636L210,626L197,617L186,607" stroke-opacity="1" stroke-width="2" stroke-linecap="round" stroke-linejoin="round" style="-webkit-tap-highlight-color: rgba(0, 0, 0, 0); stroke-opacity: 1; stroke-linecap: round; stroke-linejoin: round; -webkit-user-select: text;"></path><path fill="none" stroke="#0f0000" d="M188,591L181,586L178,584L176,582L172,580L169,577L164,573L157,568L150,561L143,554L137,546L130,537L125,528L119,517L114,506L109,493L105,478L101,463L98,448L96,432L94,415L93,397L92,379L92,361L92,342L95,322L98,303L103,283L108,265L115,247L122,231L132,215L143,200L154,186L166,174L178,162L192,152L205,143L220,135L234,127L249,120L265,113L281,107L297,102L313,98L330,96L347,94L365,93L383,93L401,93L418,93L435,96L451,99L467,104L483,110L498,118L513,125L527,134L540,144L553,153L566,164L577,175L589,188L599,200L607,214L615,228L622,242L628,257L635,272L640,288L644,304L647,319L650,336L652,350L653,366L654,382L654,397L654,414L651,430L647,445L642,460L637,473L630,487L623,500L615,513L607,524L598,536L588,548L577,559L565,570L552,582L538,592L524,602L511,611L497,618L482,626L468,633L453,639L439,644L425,649L411,653L397,657L383,660L368,661L354,662L339,662L324,662L310,662L295,661L280,658L264,654L251,653" stroke-opacity="1" stroke-width="2" stroke-linecap="round" stroke-linejoin="round" style="-webkit-tap-highlight-color: rgba(0, 0, 0, 0); stroke-opacity: 1; stroke-linecap: round; stroke-linejoin: round; -webkit-user-select: text;"></path><path fill="none" stroke="#0f0000" d="M198,625L191,620L188,617L185,613L180,608L174,601L167,594L159,586L152,578L144,570L136,562L129,554L122,545L115,536L108,523L102,510L97,496L92,480L88,464L84,447L81,429L81,412L80,393L80,374L80,357L83,341L86,325L90,310L95,294L101,280L107,265L115,250L123,236L133,223L144,210L156,198L169,186L184,176L202,165L217,157L234,149L251,142L267,135L284,130L301,126L318,123L336,120L353,118L372,117L391,116L409,116L426,116L443,117L459,121L475,126L491,132L507,138L522,145L536,154L549,163L561,172L574,183L585,194L596,207L605,221L614,235L622,249L629,264L635,280L641,295L646,311L649,327L652,343L653,359L654,374L654,391L654,409L652,427L647,445L642,463L635,481L624,499L613,516L601,533L589,548L575,563L560,577L543,590L525,602L507,613L492,621L475,630L460,637L443,643L426,648L409,652L391,654L374,656L356,657L339,657L322,657L306,657L288,656L261,655" stroke-opacity="1" stroke-width="2" stroke-linecap="round" stroke-linejoin="round" style="-webkit-tap-highlight-color: rgba(0, 0, 0, 0); stroke-opacity: 1; stroke-linecap: round; stroke-linejoin: round; -webkit-user-select: text;"></path><path fill="none" stroke="#0f0000" d="M149,643L142,637L136,629L132,621L128,612L125,601L121,591L117,579L111,568L105,555L100,545L95,534L90,523L85,511L81,499L76,484L71,470L68,454L65,439L63,422L63,407L63,389L63,371L66,355L70,339L75,322L81,306L88,290L95,273L103,259L113,244L125,230L139,215L151,204L164,192L178,182L193,172L209,164L226,156L244,149L262,144L280,141L299,140L318,139L338,139L358,139L378,141L397,146L416,152L434,159L454,170L471,181L488,193L504,206L518,220L532,235L544,251L555,268L564,285L572,301L579,320L584,339L589,358L591,379L591,399L591,419L590,439L586,458L581,475L576,491L570,507L561,522L552,538L541,553L531,567L519,579L505,590L490,600L475,609L458,618L441,625L424,631L405,636L386,640L365,642L344,643L324,644L305,644L285,644L267,642L248,638L230,632L214,625L199,616L185,606L172,595L159,582L146,566L134,549L124,529L116,509L113,492L110,477" stroke-opacity="1" stroke-width="2" stroke-linecap="round" stroke-linejoin="round" style="-webkit-tap-highlight-color: rgba(0, 0, 0, 0); stroke-opacity: 1; stroke-linecap: round; stroke-linejoin: round; -webkit-user-select: text;"></path><path fill="none" stroke="#0f0000" d="M135,435L133,430L133,429L132,427L130,424L127,421L124,414L119,406L115,395L111,384L108,372L105,360L103,347L102,333L102,316L103,298L108,281L113,263L120,246L127,232L136,219L146,208L157,198L170,188L183,179L197,171L211,164L225,159L241,154L259,151L276,149L294,148L312,147L329,147L347,147L365,149L383,153L400,158L417,164L432,170L448,177L463,185L477,194L490,204L503,215L514,227L524,239L534,251L542,265L549,279L555,294L560,310L562,327L565,345L565,363L565,383L565,402L560,420L555,437L548,452L541,467L533,481L523,495L511,509L498,521L485,533L471,543L456,552L441,560L426,566L410,571L394,575L378,577L364,578L349,578L334,578L320,577L306,574L292,568L280,562L268,555L256,548L245,540L234,532L227,525L219,516L212,506L205,493L198,479L192,464L191,449" stroke-opacity="1" stroke-width="2" stroke-linecap="round" stroke-linejoin="round" style="-webkit-tap-highlight-color: rgba(0, 0, 0, 0); stroke-opacity: 1; stroke-linecap: round; stroke-linejoin: round; -webkit-user-select: text;"></path><path fill="none" stroke="#0f0000" d="M225,358L226,354L226,350L226,345L226,341L227,334L228,324L232,313L237,299L244,286L252,275L261,264L271,255L283,247L294,242L306,237L319,234L334,232L349,230L364,229L380,229L395,229L410,232L424,238L437,245L451,254L464,263L476,273L486,284L495,296L502,309L508,322L511,335L513,349L514,363L514,377L514,391L511,407L506,420L500,434L493,446L485,457L477,468L467,477L456,486L445,494L432,502L419,508L405,513L390,517L378,519L364,521L350,521L336,521L324,521L312,519L300,515L289,510L277,503L266,496L256,487L246,475L237,462L228,447L223,435" stroke-opacity="1" stroke-width="2" stroke-linecap="round" stroke-linejoin="round" style="-webkit-tap-highlight-color: rgba(0, 0, 0, 0); stroke-opacity: 1; stroke-linecap: round; stroke-linejoin: round; -webkit-user-select: text;"></path><path fill="none" stroke="#0f0000" d="M300,346L307,346L314,350L324,358L333,368L341,378L348,387L355,397L360,408L363,419L366,432L366,445L365,458L359,470L353,480L345,487L336,492L325,496L314,499L305,501L294,502L284,502L274,502L266,499L258,495L251,490L243,484L237,477L232,470L227,463L222,454L217,445L213,436L210,426L207,416L205,404L205,392L205,378L205,361L208,344L214,327L224,308L234,291L244,278L257,265L270,254L285,245L300,237L317,231L334,226L351,223L368,222L385,222L402,222L418,224L434,229L448,236L461,244L474,252L486,263L497,273L507,285L515,298L521,312L526,326L530,341L532,353L533,368L533,383L533,397L531,412L527,425L520,438L511,450L502,460L492,470L480,478L468,487L455,495L442,503L429,510L416,516L402,523L389,528L378,532L366,536L354,539L344,541L334,541L324,541L314,541L306,541L297,540L289,537L279,533L270,529L260,524L250,519L240,513L231,507L223,499L215,492L207,483L200,475L192,465L184,454L178,444L172,433L167,422L163,411L160,400L158,389L156,378L155,367L154,357L154,346L154,334L154,322L154,312L154,300L156,290L158,279L161,269L164,261L168,253L173,246L179,238L186,232L194,225L204,218L213,212L224,205L237,199L250,193L264,187L279,183L293,178L309,176L324,173L341,171L355,170L371,170L389,170L406,171L422,175L439,180L456,186L474,194L492,206L508,220L524,233" stroke-opacity="1" stroke-width="2" stroke-linecap="round" stroke-linejoin="round" style="-webkit-tap-highlight-color: rgba(0, 0, 0, 0); stroke-opacity: 1; stroke-linecap: round; stroke-linejoin: round; -webkit-user-select: text;"></path><path fill="none" stroke="#0f0000" d="M558,283L562,289L567,303L573,323L577,348L580,368L580,391L580,412L577,434L571,453L562,475L551,494L539,512L527,531L515,548L501,562L485,576L468,587L450,597L431,606L412,614L392,620L373,626L353,630L333,632L314,633L295,633L277,633L259,633L242,633L227,628L212,623L199,616L186,608L173,599L161,590L151,580L141,569L132,558L125,545L118,533L111,521L105,508L100,494L95,478L90,462L86,446L84,431L82,417L82,401L82,383L84,366L90,349L98,332L107,315L118,296L130,279L142,263L155,249L166,237L180,224L196,211L212,200L228,189L245,178L260,171L278,163L296,156L316,149L335,145L354,142L373,140L392,139L411,139L428,139L445,141L462,146L479,152L495,159L511,167L526,176L540,186L553,197L566,210L577,222L587,237L596,251L604,267L612,283L618,299L624,316L628,334L632,352L635,370L636,387L636,402L636,421L636,439L633,457L629,475L623,492L617,508L610,524L602,539L593,554L583,568L572,581L561,592L549,602L536,611L521,620L507,627L492,634L476,640L460,645L444,650L429,655L413,658L397,661L379,663L361,665L344,666L328,666L310,666L295,666L280,665L266,662L253,660L241,656L229,652L217,648L207,642L195,635L184,627L175,618L164,610L155,599L147,588L138,576L130,563L123,551L115,539L108,526L102,514L96,500L90,487L86,472L81,456L79,441L78,423L78,404L78,383L81,362L86,339L95,315L110,285L125,263" stroke-opacity="1" stroke-width="2" stroke-linecap="round" stroke-linejoin="round" style="-webkit-tap-highlight-color: rgba(0, 0, 0, 0); stroke-opacity: 1; stroke-linecap: round; stroke-linejoin: round; -webkit-user-select: text;"></path><path fill="none" stroke="#0f0000" d="M248,169L258,157L268,148L282,141L303,133L325,127L345,123L367,120L387,118L406,118L423,118L440,120L457,125L472,130L487,137L502,144L516,153L529,163L542,174L555,186L567,198L579,212L589,227L599,242L608,257L616,273L623,289L630,305L634,322L638,340L641,358L643,376L643,395L643,414L643,434L640,453L635,473L628,491L620,508L610,528L599,547L585,566L570,584L552,601L534,617L516,631L499,644L481,655L465,663L447,671L429,677L409,682L390,685L373,688L358,689L342,689L327,689L310,689L294,689L276,689L263,686L250,683L237,679L226,674L215,669L204,665L194,659L183,652L174,644L166,636L158,626L151,616L144,606L137,595L130,583L124,571L118,559L111,546L105,533L100,519L96,504L92,489L89,473L87,456L86,442L85,426L84,410L84,393L84,374L84,356L86,336L96,311" stroke-opacity="1" stroke-width="2" stroke-linecap="round" stroke-linejoin="round" style="-webkit-tap-highlight-color: rgba(0, 0, 0, 0); stroke-opacity: 1; stroke-linecap: round; stroke-linejoin: round; -webkit-user-select: text;"></path><path fill="none" stroke="#0f0000" d="M205,189L215,182L228,174L246,165L268,157L292,151L316,147L337,145L361,144L385,144L410,147L431,154L452,163L473,173L494,184L514,197L533,212L550,229L565,248L578,268L588,289L596,311L602,334L606,358L607,379L607,401L604,426L598,449L589,470L579,490L567,507L553,524L536,540L519,555L500,568L479,580L457,590L435,599L413,605L394,609L373,611L352,612L333,612L314,611L295,607L277,601L260,593L244,584L229,575L215,564L203,552L192,539L183,525L174,509L166,492" stroke-opacity="1" stroke-width="2" stroke-linecap="round" stroke-linejoin="round" style="-webkit-tap-highlight-color: rgba(0, 0, 0, 0); stroke-opacity: 1; stroke-linecap: round; stroke-linejoin: round; -webkit-user-select: text;"></path><path fill="none" stroke="#0f0000" d="M229,373L227,363L227,354L227,346L230,338L234,331L240,322L247,315L259,305L273,297L289,290L306,283L323,278L341,275L358,273L376,273L395,273L412,273L429,277L445,283L461,289L477,298L492,307L505,317L517,329L527,342L536,356L543,369L548,384L551,397L553,411L553,426L553,440L553,453L549,466L541,480L533,492L524,504L514,514L502,525L489,535L477,543L464,551L451,557L441,562L429,566L417,569L404,571L392,572L378,572L366,572L353,572L342,572L330,570L319,566L308,562L297,558L287,552L277,545L266,536L256,528L246,519L237,509L229,498L221,487L214,475L207,463L200,450L194,438L189,424L184,411L180,397L177,385L174,372L173,360L173,348L173,336L174,324L177,313L181,302L186,293L191,283L197,275L203,267L209,259L216,252L223,246L231,239L239,234L247,229L256,225L265,220L277,214L291,204L301,190" stroke-opacity="1" stroke-width="2" stroke-linecap="round" stroke-linejoin="round" style="-webkit-tap-highlight-color: rgba(0, 0, 0, 0); stroke-opacity: 1; stroke-linecap: round; stroke-linejoin: round; -webkit-user-select: text;"></path><path fill="none" stroke="#0f0000" d="M340,211L346,216L353,220L365,222L380,224L397,227L413,230L426,234L441,238L453,244L465,250L476,258L485,267L494,277L502,288L510,299L517,312L524,326L530,341L535,358L538,375L540,391L542,408L542,425L541,442L538,459L532,474L524,487L514,499L504,511L493,522L480,532L465,541L449,548L432,555L417,561L401,565L385,567L370,568L351,568L334,567L318,561L301,554L282,542L264,530L248,516L239,502" stroke-opacity="1" stroke-width="2" stroke-linecap="round" stroke-linejoin="round" style="-webkit-tap-highlight-color: rgba(0, 0, 0, 0); stroke-opacity: 1; stroke-linecap: round; stroke-linejoin: round; -webkit-user-select: text;"></path><path fill="none" stroke="#0f0000" d="M358,407L364,417L364,424L364,430L362,437L355,442L347,445L338,446L328,446L318,443L309,438L300,432L292,426L283,418L276,409L269,399L264,388L260,376L259,362L259,348L259,331L262,316L267,302L274,290L283,278L294,267L308,257L323,249L339,243L355,238L373,235L392,232L407,232L425,232L440,234L453,240L467,248L480,258L492,269L501,282L509,296L515,312L520,328L523,345L524,363L524,380L523,397L516,415L501,435L473,456" stroke-opacity="1" stroke-width="2" stroke-linecap="round" stroke-linejoin="round" style="-webkit-tap-highlight-color: rgba(0, 0, 0, 0); stroke-opacity: 1; stroke-linecap: round; stroke-linejoin: round; -webkit-user-select: text;"></path><path fill="none" stroke="#0f0000" d="M359,489L353,487L345,486L336,484L324,482L311,479L296,474L284,466L272,457L260,447L250,436L240,424L232,411L225,396L219,380L215,364L211,349L209,335L209,319L209,303L210,287L214,272L219,259L226,246L234,235L244,225L254,216L265,208L277,201L289,195L302,190L314,186L327,183L341,182L354,181L368,181L383,181L397,181L411,181L424,181L437,183L450,188L462,192L474,197L487,204L496,210L505,217L514,226L523,236L531,246L538,258L544,271L550,283L554,297L558,312L559,327L560,342L560,359L560,376L558,392L553,407L547,423L540,437L532,450L523,461L514,471L504,480L495,487L483,494L474,499L463,505L451,509L440,512L428,514L415,516L401,517L386,518L370,518L356,518L341,518L327,517L312,513L300,507L288,500L277,492L266,482L255,472L245,460L236,449L227,437L219,424L211,411L204,397L197,384L191,370L185,357L180,344L176,333L174,320L173,308L172,298L172,285L174,273L178,262L183,249L190,237L197,226L206,215L216,204L228,194L240,185L255,177L276,169L293,162" stroke-opacity="1" stroke-width="2" stroke-linecap="round" stroke-linejoin="round" style="-webkit-tap-highlight-color: rgba(0, 0, 0, 0); stroke-opacity: 1; stroke-linecap: round; stroke-linejoin: round; -webkit-user-select: text;"></path><path fill="none" stroke="#0f0000" d="M344,149L348,151L356,154L366,158L381,164L397,171L412,178L427,185L441,191L454,197L466,203L476,212L485,221L493,232L500,244L506,257L511,271L516,286L519,300L521,316L521,331L521,347L521,367L521,384L516,401L511,417L504,433L497,448L488,462L478,475L466,486L452,497L437,506L422,513L407,519L392,524L375,526L357,527L338,527L319,527L300,527L281,523L264,517L249,510L234,502L222,491L210,479L199,465L190,450L182,433L176,414L171,395L168,375L166,358L163,341L162,327L162,311L162,293L166,277L175,262L185,248L198,235L213,221L229,208L246,197L265,186L285,177L301,171L319,166L338,161L359,158L381,156L403,155L424,155L445,157L465,161L485,166L503,174L522,183L536,192L550,204L562,217L574,231L584,246L595,264L602,279L608,297L612,315L616,334L618,354L619,374L619,394L618,414L614,435L609,455L604,473L598,490L590,507L578,525L561,542L536,556L509,562" stroke-opacity="1" stroke-width="2" stroke-linecap="round" stroke-linejoin="round" style="-webkit-tap-highlight-color: rgba(0, 0, 0, 0); stroke-opacity: 1; stroke-linecap: round; stroke-linejoin: round; -webkit-user-select: text;"></path><path fill="none" stroke="#0f0000" d="M482,536L482,541L482,547L480,556L472,567L460,577L448,587L434,594L421,601L408,607L395,613L382,617L371,620L359,622L350,623L339,623L327,623L316,622L303,618L291,614L277,608L263,600L250,591L237,581L223,570L209,558L194,544L181,530L169,516L158,499L148,482L139,464L133,448L128,427L125,406L122,385L120,364L119,344L118,327L118,310L118,293L121,276L125,262L131,249L136,239L143,229L150,221L158,213L168,204L179,194L191,185L205,176L218,167L232,159L246,152L261,144L277,138L292,132L308,127L324,123L340,120L356,117L370,116L386,115L402,115L418,115L435,116L449,120L464,124L478,130L492,136L505,144L519,152L531,162L543,172L555,183L566,194L577,205L587,218L597,232L606,245L616,259L624,272L632,286L638,301L644,317L650,333L654,349L658,363L661,376L663,392L664,407L664,421L664,437L664,451L664,465L662,479L657,494L652,508L647,521L640,533L634,546L628,559L619,572L611,584L601,596L592,608L582,619L572,630L562,640L551,650L541,658L532,665L523,672L513,677L503,683L492,688L481,693L470,697L459,701L447,703L435,706L422,708L409,709L396,709L382,709L368,709L353,709L339,708L326,706L312,703L297,699L284,694L271,689L256,684L242,678L227,671L213,664L200,656L188,647L176,637L164,626L151,610L138,593L124,572L109,553L92,533L77,510" stroke-opacity="1" stroke-width="2" stroke-linecap="round" stroke-linejoin="round" style="-webkit-tap-highlight-color: rgba(0, 0, 0, 0); stroke-opacity: 1; stroke-linecap: round; stroke-linejoin: round; -webkit-user-select: text;"></path><path fill="none" stroke="#0f0000" d="M63,431L70,414L72,403L75,391L78,375L83,359L88,342L95,324L101,307L108,289L118,270L129,254L142,239L157,227L174,215L191,204L210,193L231,183L252,174L275,167L299,161L325,157L351,155L378,155L405,155L432,157L460,162L485,170L509,181L531,193L552,207L571,224L587,242L601,262L613,284L622,307L628,332L632,358L634,380L634,404L634,432L630,458L622,483L612,506L601,527L589,548L575,566L560,582L542,598L523,614L504,627L485,639L467,649L451,655L434,661L414,665L394,667L374,667L353,667L332,666L312,662L295,656L278,650L262,642L247,632L232,621L219,609L207,595L194,579L185,565L176,551L168,537L161,521L156,504L152,485L150,464L150,441L149,417L149,387" stroke-opacity="1" stroke-width="2" stroke-linecap="round" stroke-linejoin="round" style="-webkit-tap-highlight-color: rgba(0, 0, 0, 0); stroke-opacity: 1; stroke-linecap: round; stroke-linejoin: round; -webkit-user-select: text;"></path><path fill="none" stroke="#0f0000" d="M253,316L258,313L264,312L271,309L281,303L295,297L313,291L331,288L349,288L366,288L383,289L398,293L413,299L426,306L439,316L450,327L460,339L470,353L477,368L484,383L489,399L492,415L493,433L493,451L492,468L486,485L477,501L467,516L455,529L441,541L427,550L412,558L397,564L380,568L363,571L350,571L336,571L324,570L313,565L302,559L292,550L283,541L275,531L268,519L263,507L259,496L256,482L254,468L254,455L254,441L254,424L258,410L263,397L270,385L278,374L287,365L298,357L310,351L323,345L339,339L353,332L360,324" stroke-opacity="1" stroke-width="2" stroke-linecap="round" stroke-linejoin="round" style="-webkit-tap-highlight-color: rgba(0, 0, 0, 0); stroke-opacity: 1; stroke-linecap: round; stroke-linejoin: round; -webkit-user-select: text;"></path><path fill="none" stroke="#0f0000" d="M362,315L372,317L378,317L390,317L402,317L414,320L425,325L436,331L445,339L454,349L461,361L467,373L470,385L473,400L474,414L474,430L472,447L468,461L460,474L452,485L442,494L430,501L416,506L401,509L385,511L370,511L352,511L336,510L321,506L307,500L294,493L281,483L271,471L261,456L254,440L250,421L248,401L247,381L247,362L250,344L257,328L266,314L276,301L287,290L299,281L312,274L327,270L340,267L354,266L370,266L388,266L404,268L419,272L434,278L448,285L462,293L473,303L484,314L493,327L500,340L506,353L511,368L514,382L516,395L517,410L517,424L516,439L513,455L508,468L504,479L498,490L491,500L484,510L475,519L464,528L453,536L436,542L407,546L370,546" stroke-opacity="1" stroke-width="2" stroke-linecap="round" stroke-linejoin="round" style="-webkit-tap-highlight-color: rgba(0, 0, 0, 0); stroke-opacity: 1; stroke-linecap: round; stroke-linejoin: round; -webkit-user-select: text;"></path><path fill="none" stroke="#0f0000" d="M179,465L174,446L166,424L159,401L153,379L149,361L149,340L152,321L162,299L174,279L188,259L207,239L228,221L250,207L271,195L293,187L314,182L335,181L357,181L380,182L404,187L426,193L447,201L467,210L485,220L502,232L518,245L531,259L545,274L556,290L566,307L575,326L580,344L584,364L587,383L588,402L588,422L587,442L582,462L575,481L564,500L553,517L541,533L527,549L511,564L493,577L473,588L452,598L429,606L407,614L384,621L361,625L342,627L321,627L300,627L280,624L261,619L244,612L227,605L210,596L193,585L177,573L165,561L152,545L142,532L133,516L125,501L119,486L115,470L112,455L111,439L111,419L113,400L118,379L123,360L128,344L133,329L138,315L143,301L149,289L157,277L166,266L177,254L189,244L203,234L217,224L234,215L251,208L268,200L287,195L306,191L325,188L345,188L366,188L386,188L406,191L425,195L443,202L464,210L480,218L497,230L512,242L526,255L538,269L549,284L558,299L566,319L572,336L576,356L579,375L581,395L582,414L582,434L581,454L577,474L570,496L561,515L549,532L531,548L506,570" stroke-opacity="1" stroke-width="2" stroke-linecap="round" stroke-linejoin="round" style="-webkit-tap-highlight-color: rgba(0, 0, 0, 0); stroke-opacity: 1; stroke-linecap: round; stroke-linejoin: round; -webkit-user-select: text;"></path><path fill="none" stroke="#0f0000" d="M479,603L477,613L474,620L466,631L455,642L443,652L429,661L414,668L399,674L382,678L365,682L349,684L335,685L320,685L306,685L293,682L280,677L265,671L253,665L241,657L229,648L218,638L207,628L195,616L185,602L175,588L165,573L156,558L148,543L140,527L133,510L126,492L120,472L116,453L112,434L109,414L107,394L107,373L107,353L107,334L110,316L115,298L121,280L129,263L138,248L151,232L164,217L179,203L196,189L214,176L232,164L251,154L271,145L293,138L315,132L338,126L359,123L381,122L404,121L426,121L447,123L468,128L487,135L506,142L525,152L543,162L559,174L574,187L588,201L600,216L610,229L621,247L630,262L638,278L646,295L652,312L657,329L661,346L664,363L667,380L667,397L667,416L667,436L664,456L661,475L655,493L649,511L640,532L632,552L622,570L610,587L598,602L587,615L572,630L560,641L546,652L531,662L515,672L499,679L484,685L469,690L453,694L435,696L417,697L398,698L377,698L356,698L336,696L317,691L300,684L283,677L267,669L251,660L235,651L219,641L202,628L186,615L172,602L158,589L146,575L134,560L123,544L115,529L105,509L98,490L91,473L86,454L82,435L78,417L74,398L71,377L72,353" stroke-opacity="1" stroke-width="2" stroke-linecap="round" stroke-linejoin="round" style="-webkit-tap-highlight-color: rgba(0, 0, 0, 0); stroke-opacity: 1; stroke-linecap: round; stroke-linejoin: round; -webkit-user-select: text;"></path><path fill="none" stroke="#0f0000" d="M98,265L101,253L105,244L108,237L113,232L124,225L137,217L157,205L178,192L198,177L218,164L239,154L260,146L283,140L307,135L331,132L353,130L377,129L402,129L425,130L450,135L472,141L494,149L515,159L534,171L553,184L572,198L589,215L605,232L619,252L631,273L642,295L650,317L657,341L662,366L664,391L665,414L665,443L662,470L656,495L647,519L637,541L626,562L613,581L598,599L580,616L560,633L538,648L517,662L495,673L473,683L451,690L428,696L404,702L379,706L354,708L333,708L311,708L290,707L270,702L249,694L230,685L213,674L195,662L178,650L163,636L147,621L134,605L121,588L110,572L100,558L91,543L82,527L75,509L69,491L65,473L62,456L59,439L59,422L59,403L59,382L60,362L64,343L70,324L76,305L84,283L92,264L101,247L110,232L122,215L134,199L144,186L155,173L166,161L177,151L188,142L201,134L214,127L228,119L242,113L257,107L273,102L289,98L306,94L323,91L341,89L360,88L379,87L398,86L417,86L436,87L453,90L471,94L489,99L505,104L521,110L537,118L551,125L565,133L577,141L588,149L599,157L607,164L616,172L624,179L632,187L639,194L646,202L652,210L658,217L663,224L667,231L671,237L674,242L677,250L678,258L679,266L681,276L684,288L689,304L695,322L699,341L701,362L703,381L703,398L702,415L699,433L691,454L683,472L674,491L664,511L656,533L648,554L642,570L635,585L629,599L622,612L613,625L604,638L592,650L578,662L562,672L546,681L531,689L515,696L500,701L485,705L469,708L455,708L438,709L420,709L403,708L384,706L365,703L344,699L323,695L299,689L276,682L255,674L234,664L216,653L198,639L183,624L168,606L154,587L141,567L130,548L119,527L109,504L100,481L92,457L86,434L82,409L80,383L79,360L79,336L83,312L88,290L96,269L107,249L121,231L138,213L157,197L177,181L198,167L221,156L245,146L271,138L297,132L324,128L351,126L379,125L407,125L435,126L462,131L487,139L511,148L533,159L553,172L574,186L592,201L608,219L623,239L635,260L645,282L653,304L660,326L665,349L670,372L673,392L674,417L674,446L674,471L671,494L666,516L660,539L652,561L641,582L629,600L615,616L601,632L586,646L570,660L553,672L535,683L518,693L504,701L487,708L471,714L454,720L437,724L419,727L402,728L383,728L366,728L348,728L330,727L311,723L292,719L272,713L253,707L236,700L220,691L203,679L188,667L173,652L159,638L148,625L137,611L126,598L117,583L108,568L101,552L94,534L89,516L85,495L81,474L79,453L78,433L78,413L78,393L78,374L78,356L81,338L85,321L91,304L96,287L103,271L112,256L122,241L133,227L145,213L160,198L174,185L188,172L205,160L222,149L240,138L259,130L279,122L299,115L318,110L339,106L361,103L381,103L402,103L423,103L443,106L463,110L482,117L501,124L520,134L535,143L552,155L567,166L581,179L593,191L605,205L616,219L626,235L636,251L645,266L653,283L660,299L667,316L673,334L677,353L681,372L684,390L686,408L686,427L687,447L687,466L687,485L685,502L681,521L676,539L669,557L662,574L653,589L644,603L634,617L624,630L613,642L603,653L592,664L580,674L567,685L555,695L540,704L527,713L514,720L502,726L488,731L473,736L458,741L442,744L429,746L414,747L399,747L380,748L361,748L343,748L325,747L308,743L291,738L274,733L257,725L241,716L222,705L206,694L189,680L173,667L158,651L144,634L131,614L119,593L109,570L100,548L93,526L86,503L81,478L76,456L74,436L71,416L71,395L71,373L71,353L73,334L78,314L86,292L93,271L103,252L114,235L125,219L137,204L150,190L163,177L178,164L191,154L208,143L223,134L239,125L255,117L271,110L288,103L305,96L322,91L338,86L355,83L372,81L390,80L407,80L424,80L441,80L459,81L477,85L494,90L511,96L527,103L544,110L560,119L577,131L593,142L608,155L622,168L636,182L651,198L663,214L674,231L684,249L691,266L699,283L706,302L713,322L718,343L721,364L724,385L726,406L726,427L726,449L726,471L724,492L719,512L714,532L709,552L702,572L693,592L684,609L673,626L662,642L650,657L637,672L625,684L611,696L594,708L579,720L562,731L548,740L532,748L516,755L500,761L484,767L467,771L451,774L434,777L419,780L402,781L385,783L368,784L350,784L331,784L313,784L296,781L278,777L262,773L245,768L228,762L211,755L195,748L179,741L164,733L150,723L137,714L125,704L113,694L102,682L92,671L84,659L75,648L67,636L60,624L54,612L47,599L42,585L37,570L34,558L31,544L30,528L28,509L28,492L28,476L27,460L27,445L27,429L27,412L28,394L30,377L33,360L37,344L43,327L51,310L62,290L71,271L83,254L96,237L109,221L123,204L138,188L153,174L169,160L186,148L204,137L223,126L242,117L262,109L283,102L303,96L322,92L344,89L365,87L387,87L408,87L429,90L450,94L472,101L492,108L511,116L530,126L548,137L564,150L580,164L595,178L609,193L622,209L634,227L645,247L655,266L663,285L671,305L677,326L682,349L685,368L687,390L687,413L687,437L686,463L682,487L675,509L667,531L657,553L645,574L631,593L615,611L598,629L580,647L560,664L539,678L519,691L499,701L479,709L458,716L435,721L411,727L386,731L362,733L341,735L318,735L297,735L276,733L252,727L231,720L211,711L193,701L176,689L161,675L147,662L135,650L122,634L112,621L101,606L91,587L83,571L75,553L69,534L64,514L60,494L57,475L55,456L54,438L54,421L54,402L54,384L54,366L54,349L57,332L61,316L65,299L71,282L76,265L84,249L93,234L105,217L118,201L131,186L147,170L163,156L181,143L200,132L221,122L243,113L266,106L290,101L315,97L338,96L366,96L391,96L416,101L441,107L467,114L492,123L516,134L540,146L563,160L585,176L605,194L624,213L640,235L656,259L669,282L680,307L689,334L696,363L700,390L702,416L702,445L701,474L695,502L685,531L672,561L656,590L634,618L607,648L567,682L497,720" stroke-opacity="1" stroke-width="2" stroke-linecap="round" stroke-linejoin="round" style="-webkit-tap-highlight-color: rgba(0, 0, 0, 0); stroke-opacity: 1; stroke-linecap: round; stroke-linejoin: round; -webkit-user-select: text;"></path></svg>