<svg height="906" version="1.1" width="768" xmlns="http://www.w3.org/2000/svg" xmlns:xlink="http://www.w3.org/1999/xlink" style="overflow: hidden; position: relative; -webkit-user-select: text;"><desc style="-webkit-tap-highlight-color: rgba(0, 0, 0, 0); -webkit-user-select: text;">Created with Raphaël 2.2.0</desc><defs style="-webkit-tap-highlight-color: rgba(0, 0, 0, 0); -webkit-user-select: text;"></defs><path fill="none" stroke="#6c7e83" d="M54,59L55,59L57,59L60,59L63,59L66,59L69,59L73,59L77,59L81,59L84,59L88,59L91,59L94,59L97,59L100,59L103,59L105,59L108,59L111,59L114,59L117,59L119,59L122,59L125,59L128,59L130,59L133,59L135,59L138,59L140,59L142,59L143,59L144,59L145,59L146,59" stroke-opacity="1" stroke-width="2" stroke-linecap="round" stroke-linejoin="round" style="-webkit-tap-highlight-color: rgba(0, 0, 0, 0); stroke-opacity: 1; stroke-linecap: round; stroke-linejoin: round; -webkit-user-select: text;"></path><path fill="none" stroke="#6c7e83" d="M182,58L186,57L188,57L191,57L193,57L196,57L199,57L201,57L204,57L207,57L210,57L212,57L215,57L217,57L220,57L222,57L225,57L228,57L232,57L235,57L238,57L242,57L245,57L249,57L252,57L255,57L258,57L261,57L263,57L266,57L268,57L271,57L273,57L274,57L276,57L277,57L278,57L279,56L280,56L281,56" stroke-opacity="1" stroke-width="2" stroke-linecap="round" stroke-linejoin="round" style="-webkit-tap-highlight-color: rgba(0, 0, 0, 0); stroke-opacity: 1; stroke-linecap: round; stroke-linejoin: round; -webkit-user-select: text;"></path><path fill="none" stroke="#6c7e83" d="M325,54L333,53L336,53L339,53L341,53L345,53L348,53L351,53L353,53L356,53L358,53L361,53L363,53L365,53L367,53L370,53L373,53L376,53L379,53L383,52L386,52L390,52L393,52L397,52L401,52L404,52L408,52L412,52L415,52L419,52L421,52L425,52L428,52L430,52L432,52L434,51L435,51" stroke-opacity="1" stroke-width="2" stroke-linecap="round" stroke-linejoin="round" style="-webkit-tap-highlight-color: rgba(0, 0, 0, 0); stroke-opacity: 1; stroke-linecap: round; stroke-linejoin: round; -webkit-user-select: text;"></path><path fill="none" stroke="#6c7e83" d="M505,54L501,53L504,53L507,53L510,53L514,53L518,53L522,53L526,53L530,53L534,53L538,54L542,54L546,54L550,54L553,54L557,54L562,54L566,54L570,54L575,54L579,54L584,54L588,54L592,54L596,54L599,54L601,54L603,54L604,54L605,54L606,54" stroke-opacity="1" stroke-width="2" stroke-linecap="round" stroke-linejoin="round" style="-webkit-tap-highlight-color: rgba(0, 0, 0, 0); stroke-opacity: 1; stroke-linecap: round; stroke-linejoin: round; -webkit-user-select: text;"></path><path fill="none" stroke="#6c7e83" d="M648,57L651,55L653,55L655,55L657,55L660,55L662,55L665,55L668,55L672,55L676,55L680,55L684,55L689,55L694,55L699,55L704,55L708,55L713,55L718,55L723,55L727,55L731,55L735,55L740,55L744,56L747,56L749,56L750,56L750,57L748,57" stroke-opacity="1" stroke-width="2" stroke-linecap="round" stroke-linejoin="round" style="-webkit-tap-highlight-color: rgba(0, 0, 0, 0); stroke-opacity: 1; stroke-linecap: round; stroke-linejoin: round; -webkit-user-select: text;"></path><path fill="none" stroke="#6c7e83" d="M103,121L113,119L116,119L119,119L122,119L127,119L132,119L137,119L142,119L147,119L152,119L158,119L163,119L169,119L173,119L178,119L183,119L188,119L192,118L196,118L200,118L203,118L207,118L210,118L214,118L217,118L221,118L224,118L228,117L232,117L236,117L240,117L244,117L249,116L252,116L256,116L261,116L264,116L269,116L273,116L277,116L281,116L285,116L289,116L293,116L297,116L301,116L304,116L307,116L311,116L314,116L318,116L321,116L323,116L325,116L327,116L329,116L332,116" stroke-opacity="1" stroke-width="2" stroke-linecap="round" stroke-linejoin="round" style="-webkit-tap-highlight-color: rgba(0, 0, 0, 0); stroke-opacity: 1; stroke-linecap: round; stroke-linejoin: round; -webkit-user-select: text;"></path><path fill="none" stroke="#6c7e83" d="M397,121L397,120L400,120L403,120L406,120L409,120L413,120L416,120L420,120L423,120L426,120L430,120L433,120L436,120L438,120L441,120L443,120L446,120L448,120L451,120L454,120L458,120L460,119L464,119L468,119L472,119L476,119L480,119L483,119L487,119L491,119L495,119L499,119L503,119L507,119L511,119L515,119L519,119L523,119L527,119L531,119L536,119L540,119L544,119L548,119L553,119L557,119L561,119L565,119L568,119L572,119L575,119L578,119L582,119L585,119L588,119L591,118L594,118L597,118L601,118L604,118L606,118L609,118L611,118L612,118L613,119L614,119L615,119L616,120" stroke-opacity="1" stroke-width="2" stroke-linecap="round" stroke-linejoin="round" style="-webkit-tap-highlight-color: rgba(0, 0, 0, 0); stroke-opacity: 1; stroke-linecap: round; stroke-linejoin: round; -webkit-user-select: text;"></path><path fill="none" stroke="#6c7e83" d="M674,124L667,121L669,121L672,121L675,121L679,121L683,122L686,122L690,122L694,122L698,122L702,123L706,123L711,123L715,124L719,124L723,124L726,124L730,124L732,124L734,124L735,124" stroke-opacity="1" stroke-width="2" stroke-linecap="round" stroke-linejoin="round" style="-webkit-tap-highlight-color: rgba(0, 0, 0, 0); stroke-opacity: 1; stroke-linecap: round; stroke-linejoin: round; -webkit-user-select: text;"></path><path fill="none" stroke="#6c7e83" d="M42,191L47,190L49,190L52,190L57,190L61,190L65,190L70,190L74,190L79,190L84,191L89,191L93,191L97,191L102,191L106,191L111,191L116,191L121,191L127,191L133,191L138,191L144,191L150,191L157,191L162,191L167,191L172,191L176,191L181,191L186,191L190,191L195,191L198,191L202,191L205,191L208,191L210,191L211,191L212,191L213,191L214,191" stroke-opacity="1" stroke-width="2" stroke-linecap="round" stroke-linejoin="round" style="-webkit-tap-highlight-color: rgba(0, 0, 0, 0); stroke-opacity: 1; stroke-linecap: round; stroke-linejoin: round; -webkit-user-select: text;"></path><path fill="none" stroke="#6c7e83" d="M252,189L254,188L257,188L261,188L265,188L270,188L274,188L278,188L283,188L288,188L293,188L298,188L302,188L308,188L314,188L319,188L324,188L329,188L335,188L340,188L345,188L350,188L354,188L359,188L364,188L368,188L373,188L377,188L381,188L385,188L388,188L392,188L395,188L399,188L402,188L404,188L407,188L408,188L409,188L410,188" stroke-opacity="1" stroke-width="2" stroke-linecap="round" stroke-linejoin="round" style="-webkit-tap-highlight-color: rgba(0, 0, 0, 0); stroke-opacity: 1; stroke-linecap: round; stroke-linejoin: round; -webkit-user-select: text;"></path><path fill="none" stroke="#6c7e83" d="M459,182L466,183L469,183L472,183L476,183L480,183L484,183L488,183L492,183L497,183L501,183L505,183L510,183L514,183L517,183L520,183L522,183L523,183L524,183L526,183" stroke-opacity="1" stroke-width="2" stroke-linecap="round" stroke-linejoin="round" style="-webkit-tap-highlight-color: rgba(0, 0, 0, 0); stroke-opacity: 1; stroke-linecap: round; stroke-linejoin: round; -webkit-user-select: text;"></path><path fill="none" stroke="#6c7e83" d="M565,182L563,182L566,182L570,182L575,182L579,182L583,182L587,182L591,182L595,182L600,182L604,182L609,182L614,183L619,183L624,183L630,183L635,183L640,183L646,183L651,183L656,183L661,183L666,183L671,183L676,183L681,183L685,183L689,183L694,183L699,184L703,184L708,184L712,185L716,185L719,185L722,185L723,186L725,186" stroke-opacity="1" stroke-width="2" stroke-linecap="round" stroke-linejoin="round" style="-webkit-tap-highlight-color: rgba(0, 0, 0, 0); stroke-opacity: 1; stroke-linecap: round; stroke-linejoin: round; -webkit-user-select: text;"></path><path fill="none" stroke="#6c7e83" d="M84,275L92,275L93,275L96,275L98,275L101,275L105,275L109,275L114,275L118,275L123,275L129,275L134,275L139,275L144,275L149,275L154,275L159,275L165,274L170,274L176,273L182,273L188,273L195,273L200,273L207,272L213,272L219,272L225,272L231,272L237,272L242,272L248,271L254,271L261,271L267,271L272,271L278,271L284,271L290,270L295,270L298,270L301,270L303,270L305,270" stroke-opacity="1" stroke-width="2" stroke-linecap="round" stroke-linejoin="round" style="-webkit-tap-highlight-color: rgba(0, 0, 0, 0); stroke-opacity: 1; stroke-linecap: round; stroke-linejoin: round; -webkit-user-select: text;"></path><path fill="none" stroke="#6c7e83" d="M336,265L341,264L344,264L347,264L351,264L355,264L360,264L364,264L369,264L373,264L378,264L383,264L387,264L392,264L397,264L402,264L406,264L411,264L416,264L421,264L426,264L431,264L436,264L441,264L445,264L448,264L452,264L455,264L458,263L460,263L463,263L465,263L468,263L470,263L473,263L475,263L478,263L480,263L482,263L483,263L484,263" stroke-opacity="1" stroke-width="2" stroke-linecap="round" stroke-linejoin="round" style="-webkit-tap-highlight-color: rgba(0, 0, 0, 0); stroke-opacity: 1; stroke-linecap: round; stroke-linejoin: round; -webkit-user-select: text;"></path><path fill="none" stroke="#6c7e83" d="M537,265L539,265L541,265L544,265L547,265L550,265L554,265L558,265L562,265L566,265L571,265L575,265L581,265L586,265L592,266L598,266L603,266L609,266L614,266L620,266L626,266L631,266L637,266L641,266L646,266L651,266L655,266L660,266L665,266L669,266L674,266L679,266L684,266L689,266L694,266L699,266L703,266L707,266L711,266L714,266L716,266L718,266L719,266L720,266" stroke-opacity="1" stroke-width="2" stroke-linecap="round" stroke-linejoin="round" style="-webkit-tap-highlight-color: rgba(0, 0, 0, 0); stroke-opacity: 1; stroke-linecap: round; stroke-linejoin: round; -webkit-user-select: text;"></path><path fill="none" stroke="#6c7e83" d="M42,349L48,348L51,348L54,348L59,348L63,348L67,348L72,348L79,348L86,347L91,346L96,346L101,345L106,345L110,345L113,345L114,345L116,345L117,345L119,345" stroke-opacity="1" stroke-width="2" stroke-linecap="round" stroke-linejoin="round" style="-webkit-tap-highlight-color: rgba(0, 0, 0, 0); stroke-opacity: 1; stroke-linecap: round; stroke-linejoin: round; -webkit-user-select: text;"></path><path fill="none" stroke="#6c7e83" d="M145,342L149,340L152,340L154,340L158,340L161,340L164,340L168,340L171,340L176,340L180,340L185,340L190,340L195,340L201,340L208,340L215,340L221,340L228,340L235,340L243,340L250,340L257,340L263,340L270,340L276,340L282,340L287,340L293,341L298,341L303,341L309,341L314,341L319,341L324,341L329,341L333,341L337,341L341,341L344,341L346,341L347,341L349,341L350,341" stroke-opacity="1" stroke-width="2" stroke-linecap="round" stroke-linejoin="round" style="-webkit-tap-highlight-color: rgba(0, 0, 0, 0); stroke-opacity: 1; stroke-linecap: round; stroke-linejoin: round; -webkit-user-select: text;"></path><path fill="none" stroke="#6c7e83" d="M400,345L405,344L408,344L411,344L416,344L422,344L427,344L433,344L440,344L446,344L451,344L455,344L458,344L460,345L462,345L463,345L465,345" stroke-opacity="1" stroke-width="2" stroke-linecap="round" stroke-linejoin="round" style="-webkit-tap-highlight-color: rgba(0, 0, 0, 0); stroke-opacity: 1; stroke-linecap: round; stroke-linejoin: round; -webkit-user-select: text;"></path><path fill="none" stroke="#6c7e83" d="M499,345L504,344L506,344L509,344L511,344L514,344L518,344L522,344L526,344L531,344L536,344L541,344L546,344L552,344L558,344L563,344L570,344L575,344L582,344L587,344L593,344L600,344L607,344L613,344L620,344L626,344L633,344L639,344L644,344L650,344L655,344L660,344L665,344L669,344L673,344L677,344L681,344L684,344L686,344L686,345" stroke-opacity="1" stroke-width="2" stroke-linecap="round" stroke-linejoin="round" style="-webkit-tap-highlight-color: rgba(0, 0, 0, 0); stroke-opacity: 1; stroke-linecap: round; stroke-linejoin: round; -webkit-user-select: text;"></path><path fill="none" stroke="#6c7e83" d="M120,439L120,436L124,436L128,436L135,436L141,436L148,436L155,436L163,436L170,436L177,436L185,436L191,436L197,436L202,436L207,436L212,436L218,436L223,436L227,436L232,436L236,436L239,436L243,436L245,436L247,436L249,436L250,436" stroke-opacity="1" stroke-width="2" stroke-linecap="round" stroke-linejoin="round" style="-webkit-tap-highlight-color: rgba(0, 0, 0, 0); stroke-opacity: 1; stroke-linecap: round; stroke-linejoin: round; -webkit-user-select: text;"></path><path fill="none" stroke="#6c7e83" d="M291,433L292,432L295,432L298,432L302,432L306,432L310,432L315,432L320,432L325,432L329,432L334,432L339,432L344,432L348,432L353,432L358,432L363,432L368,432L373,432L378,432L384,432L389,432L395,432L400,432L405,432L411,432L417,432L421,432L427,432L431,432L436,432L440,432L443,432L447,432L450,432L453,432L457,432L460,432L463,432L466,432L469,432L471,432L474,432L475,432L477,432L478,433L479,433" stroke-opacity="1" stroke-width="2" stroke-linecap="round" stroke-linejoin="round" style="-webkit-tap-highlight-color: rgba(0, 0, 0, 0); stroke-opacity: 1; stroke-linecap: round; stroke-linejoin: round; -webkit-user-select: text;"></path><path fill="none" stroke="#6c7e83" d="M546,431L545,430L549,430L553,430L558,430L562,430L568,430L574,431L580,431L587,431L594,431L601,431L609,431L616,431L623,431L631,431L638,431L644,431L650,431L654,431L657,431L659,431L660,431" stroke-opacity="1" stroke-width="2" stroke-linecap="round" stroke-linejoin="round" style="-webkit-tap-highlight-color: rgba(0, 0, 0, 0); stroke-opacity: 1; stroke-linecap: round; stroke-linejoin: round; -webkit-user-select: text;"></path><path fill="none" stroke="#6c7e83" d="M53,532L55,530L58,530L62,530L66,530L71,530L77,530L84,530L89,530L94,530L100,530L106,530L112,530L118,530L125,529L131,528L137,528L142,528L148,528L153,528L159,528L164,528L169,528L175,528L181,528L186,528L191,528L195,527L200,527L207,527L212,527L217,527L221,527L225,527L228,527L231,527L233,527L234,527L235,526L236,526L237,526" stroke-opacity="1" stroke-width="2" stroke-linecap="round" stroke-linejoin="round" style="-webkit-tap-highlight-color: rgba(0, 0, 0, 0); stroke-opacity: 1; stroke-linecap: round; stroke-linejoin: round; -webkit-user-select: text;"></path><path fill="none" stroke="#6c7e83" d="M297,525L299,525L301,525L304,525L307,525L310,525L314,525L318,525L323,525L328,525L333,525L338,525L343,525L349,525L353,525L358,525L363,525L369,525L375,525L381,525L388,525L395,525L401,525L406,525L412,525L417,525L422,525L427,525L431,525L436,525L441,525L445,525L450,525L455,525L460,525L464,525L469,525L472,525L476,525L479,525L481,525L482,525L483,525L484,525" stroke-opacity="1" stroke-width="2" stroke-linecap="round" stroke-linejoin="round" style="-webkit-tap-highlight-color: rgba(0, 0, 0, 0); stroke-opacity: 1; stroke-linecap: round; stroke-linejoin: round; -webkit-user-select: text;"></path><path fill="none" stroke="#6c7e83" d="M529,525L534,524L537,524L541,524L545,524L552,525L558,525L563,525L570,525L577,525L584,525L591,525L599,525L606,525L613,525L621,525L629,525L637,525L644,525L651,525L656,525L660,525L662,525" stroke-opacity="1" stroke-width="2" stroke-linecap="round" stroke-linejoin="round" style="-webkit-tap-highlight-color: rgba(0, 0, 0, 0); stroke-opacity: 1; stroke-linecap: round; stroke-linejoin: round; -webkit-user-select: text;"></path><path fill="none" stroke="#6c7e83" d="M145,622L147,624L149,624L153,624L157,624L162,624L167,625L173,625L178,625L184,625L191,625L196,625L202,625L207,625L213,625L219,626L223,626L228,627L233,627L238,627L243,628L247,628L252,629L257,629L261,629L266,630L270,630L275,630L279,630L284,630L289,630L293,630L297,630L300,630L302,630L304,630L305,630L307,630" stroke-opacity="1" stroke-width="2" stroke-linecap="round" stroke-linejoin="round" style="-webkit-tap-highlight-color: rgba(0, 0, 0, 0); stroke-opacity: 1; stroke-linecap: round; stroke-linejoin: round; -webkit-user-select: text;"></path><path fill="none" stroke="#6c7e83" d="M344,630L349,628L351,628L354,628L357,628L361,628L365,628L368,628L373,628L378,628L382,628L387,628L392,628L397,628L402,628L407,628L412,628L417,628L422,628L427,628L432,628L437,628L442,628L447,628L452,628L457,628L461,628L466,628L471,628L475,628L479,628L483,628L487,628L491,628L494,628L497,628L499,628L502,628L503,628L504,628L505,628" stroke-opacity="1" stroke-width="2" stroke-linecap="round" stroke-linejoin="round" style="-webkit-tap-highlight-color: rgba(0, 0, 0, 0); stroke-opacity: 1; stroke-linecap: round; stroke-linejoin: round; -webkit-user-select: text;"></path><path fill="none" stroke="#6c7e83" d="M562,623L566,623L568,623L572,623L576,623L581,623L587,623L594,624L601,624L608,625L616,625L626,625L634,626L642,627L650,627L657,627L664,627L669,627L675,627L679,627L684,627L687,627L689,627" stroke-opacity="1" stroke-width="2" stroke-linecap="round" stroke-linejoin="round" style="-webkit-tap-highlight-color: rgba(0, 0, 0, 0); stroke-opacity: 1; stroke-linecap: round; stroke-linejoin: round; -webkit-user-select: text;"></path><path fill="none" stroke="#6c7e83" d="M49,745L53,742L59,742L65,742L71,742L78,742L84,742L90,742L95,742L101,743L105,743L110,744L115,744L119,744L124,744L129,744L134,744L139,744L145,743L150,743L157,743L162,743L168,743L174,743L179,743L185,743L190,743L195,743L199,743L204,743L209,742L213,742L218,742L222,741L226,741L229,741L233,741L236,741L239,741L242,741L243,741L244,741L245,741L246,741" stroke-opacity="1" stroke-width="2" stroke-linecap="round" stroke-linejoin="round" style="-webkit-tap-highlight-color: rgba(0, 0, 0, 0); stroke-opacity: 1; stroke-linecap: round; stroke-linejoin: round; -webkit-user-select: text;"></path><path fill="none" stroke="#6c7e83" d="M284,738L286,737L290,737L294,737L298,737L303,737L308,737L314,737L319,737L324,737L328,737L332,737L337,737L341,737L346,737L350,737L354,737L359,737L363,737L367,737L371,737L375,737L378,737L382,737L385,737L388,737L391,737L394,737L396,737L398,737L399,737L400,737" stroke-opacity="1" stroke-width="2" stroke-linecap="round" stroke-linejoin="round" style="-webkit-tap-highlight-color: rgba(0, 0, 0, 0); stroke-opacity: 1; stroke-linecap: round; stroke-linejoin: round; -webkit-user-select: text;"></path><path fill="none" stroke="#6c7e83" d="M447,732L448,733L451,733L454,733L458,733L462,733L466,733L471,733L475,733L480,733L484,733L489,733L494,733L499,733L505,733L511,733L518,733L524,732L531,732L538,731L545,730L552,730L559,730L566,730L574,730L581,729L588,729L595,729L600,728L604,728L609,728L613,728L616,727L618,727L620,727L621,727L622,727" stroke-opacity="1" stroke-width="2" stroke-linecap="round" stroke-linejoin="round" style="-webkit-tap-highlight-color: rgba(0, 0, 0, 0); stroke-opacity: 1; stroke-linecap: round; stroke-linejoin: round; -webkit-user-select: text;"></path><path fill="none" stroke="#6c7e83" d="M646,729L649,729L652,729L657,729L662,729L668,729L675,729L682,730L688,730L694,730L700,730L705,730L709,730L712,730L713,731" stroke-opacity="1" stroke-width="2" stroke-linecap="round" stroke-linejoin="round" style="-webkit-tap-highlight-color: rgba(0, 0, 0, 0); stroke-opacity: 1; stroke-linecap: round; stroke-linejoin: round; -webkit-user-select: text;"></path><path fill="none" stroke="#6c7e83" d="M127,828L132,828L137,828L142,828L146,828L153,828L160,828L167,827L174,827L181,827L188,826L195,825L203,825L212,824L221,824L229,824L239,824L248,824L258,824L267,824L277,824L287,824L298,824L308,824L318,824L327,824L336,824L344,824L352,824L359,824L365,824L370,824L373,824L375,824L377,824L378,824" stroke-opacity="1" stroke-width="2" stroke-linecap="round" stroke-linejoin="round" style="-webkit-tap-highlight-color: rgba(0, 0, 0, 0); stroke-opacity: 1; stroke-linecap: round; stroke-linejoin: round; -webkit-user-select: text;"></path><path fill="none" stroke="#6c7e83" d="M432,823L433,824L436,824L440,824L444,824L450,824L455,824L460,825L466,825L472,825L479,825L485,825L491,825L497,825L504,825L510,825L517,825L523,825L528,825L535,825L541,825L547,825L553,825L560,825L565,825L572,825L577,825L582,825L588,825L592,825L596,825L599,825L602,825L604,825L605,825L606,825" stroke-opacity="1" stroke-width="2" stroke-linecap="round" stroke-linejoin="round" style="-webkit-tap-highlight-color: rgba(0, 0, 0, 0); stroke-opacity: 1; stroke-linecap: round; stroke-linejoin: round; -webkit-user-select: text;"></path><path fill="none" stroke="#6c7e83" d="M649,823L655,824L660,824L666,824L672,826L682,827L688,828L694,829L699,829L702,829L703,829L705,829" stroke-opacity="1" stroke-width="2" stroke-linecap="round" stroke-linejoin="round" style="-webkit-tap-highlight-color: rgba(0, 0, 0, 0); stroke-opacity: 1; stroke-linecap: round; stroke-linejoin: round; -webkit-user-select: text;"></path><path fill="none" stroke="#6c7e83" d="M154,58L158,61L159,62L160,63L161,64L162,66L164,67L165,68L166,70L169,73L171,75L173,77L175,80L178,83L180,85L182,88L185,92L187,95L191,100L193,104L196,108L199,113L202,117L205,122L209,126L212,131L215,136L219,141L223,146L227,152L231,158L235,163L239,170L244,176L248,182L252,188L257,194L261,200L265,205L269,211L273,217L278,221L281,226L285,231L288,235L291,240L295,243L298,247L300,250L302,253L305,256L307,258L309,260L310,262L312,264L313,266L314,267L315,268L317,270L317,271L319,272L319,273L320,274L321,275L322,276L323,277L324,277L324,278L325,278L325,279L327,280" stroke-opacity="1" stroke-width="2" stroke-linecap="round" stroke-linejoin="round" style="-webkit-tap-highlight-color: rgba(0, 0, 0, 0); stroke-opacity: 1; stroke-linecap: round; stroke-linejoin: round; -webkit-user-select: text;"></path><path fill="none" stroke="#6c7e83" d="M497,260L496,262L495,263L494,265L492,268L490,270L487,273L483,277L479,281L475,285L471,288L467,292L463,296L458,301L453,305L448,309L443,314L437,319L432,323L426,328L421,332L415,337L409,341L404,346L399,350L393,355L388,359L383,363L378,367L373,372L368,376L364,379L360,383L356,387L352,390L349,393L346,396L342,400L339,403L335,406L332,409L328,412L325,416L322,418L318,421L314,424L312,426L309,428L307,431L304,433L302,434L300,436L298,437L297,438L296,440L295,440L294,441L293,442L293,443L292,443L291,444L290,444" stroke-opacity="1" stroke-width="2" stroke-linecap="round" stroke-linejoin="round" style="-webkit-tap-highlight-color: rgba(0, 0, 0, 0); stroke-opacity: 1; stroke-linecap: round; stroke-linejoin: round; -webkit-user-select: text;"></path><path fill="none" stroke="#6c7e83" d="M559,424L560,426L560,428L560,431L560,433L560,436L562,440L562,443L564,447L565,451L567,455L568,459L570,462L572,467L574,470L576,473L578,477L580,480L582,483L583,485L585,488L587,491L589,494L590,497L592,500L594,503L596,506L597,510L599,513L601,516L603,520L605,523L607,527L609,530L610,534L612,538L614,542L616,545L617,549L618,552L620,555L622,558L623,561L625,564L626,567L628,569L629,571L630,574L631,576L633,578L634,580L635,582L636,584L637,586L638,588L639,589L640,591L640,593L641,595L642,596L643,598L644,600L644,602L645,603L646,606L647,607L648,609L649,610L650,612L650,613L651,615L652,616L652,617" stroke-opacity="1" stroke-width="2" stroke-linecap="round" stroke-linejoin="round" style="-webkit-tap-highlight-color: rgba(0, 0, 0, 0); stroke-opacity: 1; stroke-linecap: round; stroke-linejoin: round; -webkit-user-select: text;"></path><path fill="none" stroke="#6c7e83" d="M508,627L504,632L503,635L502,639L500,642L498,646L496,649L493,653L491,657L488,661L485,666L482,671L479,675L475,680L472,685L470,690L467,695L464,700L462,704L459,709L457,713L454,717L452,722L450,727L447,731L444,736L442,741L439,745L436,750L434,755L432,759L429,764L427,768L425,773L423,777L421,781L419,785L417,788L415,792L413,795L412,798L410,801L409,804L407,806L406,809L404,811L403,813L402,815L401,817L400,819L398,821L397,822L397,824L396,825L395,826L395,827L394,827L394,828L393,828L393,827L392,824" stroke-opacity="1" stroke-width="2" stroke-linecap="round" stroke-linejoin="round" style="-webkit-tap-highlight-color: rgba(0, 0, 0, 0); stroke-opacity: 1; stroke-linecap: round; stroke-linejoin: round; -webkit-user-select: text;"></path><path fill="none" stroke="#6c7e83" d="M142,827L144,825L144,823L145,820L147,818L148,815L151,812L154,809L158,805L162,802L166,798L169,794L173,791L176,787L180,783L184,778L188,774L193,770L196,766L200,762L203,758L207,754L211,751L215,746L218,743L222,739L225,735L228,732L232,728L235,725L238,722L241,719L244,716L246,713L249,710L252,707L255,704L257,701L260,699L263,696L266,693L268,690L271,687L274,684L277,681L279,678L282,676L285,674L287,671L288,670L290,668L291,666L293,665L294,663L295,662L296,661L298,659L298,658L299,657L300,656L301,655L302,654L303,653L303,652" stroke-opacity="1" stroke-width="2" stroke-linecap="round" stroke-linejoin="round" style="-webkit-tap-highlight-color: rgba(0, 0, 0, 0); stroke-opacity: 1; stroke-linecap: round; stroke-linejoin: round; -webkit-user-select: text;"></path><path fill="none" stroke="#6c7e83" d="M149,634L145,626L145,624L145,623L145,620L145,618L145,614L144,611L144,607L143,603L142,600L142,596L141,592L140,588L140,585L139,581L139,576L138,572L137,568L137,563L136,558L135,553L134,548L133,543L132,537L131,533L130,528L130,523L129,518L128,514L127,509L126,505L125,501L125,496L124,491L123,487L122,483L122,478L121,474L120,471L120,467L119,463L119,460L118,457L118,454L117,451L117,449L116,447L116,445L116,444L115,443L115,442" stroke-opacity="1" stroke-width="2" stroke-linecap="round" stroke-linejoin="round" style="-webkit-tap-highlight-color: rgba(0, 0, 0, 0); stroke-opacity: 1; stroke-linecap: round; stroke-linejoin: round; -webkit-user-select: text;"></path><path fill="none" stroke="#6c7e83" d="M146,361L149,355L151,353L154,350L157,348L160,346L165,344L170,341L175,338L181,335L188,332L193,328L200,324L206,321L212,316L220,312L227,308L234,304L241,299L248,295L256,291L263,287L271,282L278,277L285,273L293,270L300,266L308,262L316,258L323,253L329,250L336,246L342,243L347,240L352,236L356,234L361,231L364,228L368,226L371,224L374,221L378,220L381,218L384,216L387,214L389,213L392,212L394,210L396,209L398,208L400,207L401,206L403,205L404,204L405,204L407,203L408,203L409,202L410,202L411,202" stroke-opacity="1" stroke-width="2" stroke-linecap="round" stroke-linejoin="round" style="-webkit-tap-highlight-color: rgba(0, 0, 0, 0); stroke-opacity: 1; stroke-linecap: round; stroke-linejoin: round; -webkit-user-select: text;"></path><path fill="none" stroke="#6c7e83" d="M441,44L443,44L445,46L446,49L448,53L451,56L453,61L456,66L458,71L461,76L463,82L466,88L469,94L471,100L473,106L475,112L476,118L478,124L479,131L481,136L482,142L484,149L486,156L487,162L490,169L492,176L494,183L497,190L499,195L502,201L505,208L507,213L510,219L513,224L515,230L518,235L520,240L522,243L524,247L526,251L527,254L529,257L530,260L532,263L533,266L535,269L536,271L537,273L538,275L538,277L539,278L540,279L540,280L541,280L541,281" stroke-opacity="1" stroke-width="2" stroke-linecap="round" stroke-linejoin="round" style="-webkit-tap-highlight-color: rgba(0, 0, 0, 0); stroke-opacity: 1; stroke-linecap: round; stroke-linejoin: round; -webkit-user-select: text;"></path><path fill="none" stroke="#6c7e83" d="M682,113L677,113L677,116L676,119L675,123L673,127L671,131L669,135L667,139L664,144L661,148L657,153L654,157L650,161L647,166L643,170L640,175L636,180L632,186L628,191L623,197L619,203L616,209L611,214L607,220L602,225L598,231L593,236L588,241L583,247L578,253L574,258L571,262L567,267L564,271L560,277L557,281L553,285L550,290L546,294L544,297L541,301L538,304L536,308L533,311L531,315L528,319L526,322L524,325L522,328L520,330L518,333L516,336L515,338L514,341L512,343L511,344L509,346L509,348L507,349L507,351L506,352L505,353L505,354L504,354" stroke-opacity="1" stroke-width="2" stroke-linecap="round" stroke-linejoin="round" style="-webkit-tap-highlight-color: rgba(0, 0, 0, 0); stroke-opacity: 1; stroke-linecap: round; stroke-linejoin: round; -webkit-user-select: text;"></path><path fill="none" stroke="#6c7e83" d="M481,421L482,426L482,428L482,431L483,434L485,438L487,443L489,447L492,452L495,457L498,462L502,467L504,473L508,478L511,484L514,491L516,497L519,504L521,510L524,516L526,522L529,528L531,533L534,539L536,545L538,551L541,556L543,562L546,567L548,572L551,577L553,582L555,586L557,591L559,595L560,598L562,602L564,605L565,608L566,611L568,614L569,617L570,620L572,623L573,626L574,628L575,631L577,633L577,635L579,637L579,640L581,642L582,644L582,646L584,648L584,650L585,652L586,653L586,654L587,655L587,656L587,653" stroke-opacity="1" stroke-width="2" stroke-linecap="round" stroke-linejoin="round" style="-webkit-tap-highlight-color: rgba(0, 0, 0, 0); stroke-opacity: 1; stroke-linecap: round; stroke-linejoin: round; -webkit-user-select: text;"></path><path fill="none" stroke="#6c7e83" d="M667,437L662,438L659,442L656,446L652,451L650,456L646,463L643,469L639,476L635,483L632,490L628,497L624,503L621,511L617,517L613,524L609,530L606,537L601,543L597,550L594,556L591,562L588,567L585,571L582,576L579,581L577,586L574,591L570,595L568,600L565,604L562,608L559,613L556,617L553,622L550,627L547,631L544,635L541,640L538,644L536,649L533,653L531,657L528,661L526,665L523,669L521,673L519,676L516,680L514,683L513,687L511,690L509,693L508,696L507,699L505,702L504,705L503,708L502,710L501,712L499,715L499,716L497,718L497,720L496,721L495,722L495,723L494,724L494,725L494,726L493,726L493,725" stroke-opacity="1" stroke-width="2" stroke-linecap="round" stroke-linejoin="round" style="-webkit-tap-highlight-color: rgba(0, 0, 0, 0); stroke-opacity: 1; stroke-linecap: round; stroke-linejoin: round; -webkit-user-select: text;"></path><path fill="none" stroke="#6c7e83" d="M610,825L608,823L606,822L605,822L604,821L602,820L601,818L599,816L597,814L595,811L593,808L591,805L589,802L586,798L584,795L581,792L579,788L577,785L574,782L572,778L570,775L568,772L566,768L565,765L563,761L561,757L559,753L557,749L554,744L552,739L550,734L548,730L545,725L543,722L542,717L540,713L538,709L537,705L535,701L533,697L532,693L531,688L529,684L528,680L526,675L524,670L523,665L521,661L519,656L517,651L516,646L514,641L512,636L511,631L509,626L508,623L506,618L505,613L503,609L502,604L500,600L499,596L497,590L495,586L494,581L493,577L491,573L490,568L489,564L488,560L487,556L485,552L484,548L483,545L482,542L482,540L481,537L480,535L480,533L480,532L479,530L478,529L478,528L476,528" stroke-opacity="1" stroke-width="2" stroke-linecap="round" stroke-linejoin="round" style="-webkit-tap-highlight-color: rgba(0, 0, 0, 0); stroke-opacity: 1; stroke-linecap: round; stroke-linejoin: round; -webkit-user-select: text;"></path><path fill="none" stroke="#6c7e83" d="M303,522L305,517L305,515L306,512L307,509L309,506L310,502L311,499L312,495L314,491L314,488L315,484L316,480L317,476L318,472L319,467L320,462L322,457L323,453L324,448L325,443L326,438L327,433L327,429L328,424L329,420L330,415L331,411L331,406L332,402L333,397L334,393L335,388L336,384L336,379L337,374L338,369L338,365L339,360L339,355L339,350L339,345L340,341L340,337L340,333L340,328L341,324L341,320L341,316L341,312L342,309L342,305L343,302L343,298L343,295L343,292L344,288L344,285L344,282L344,280L344,277L345,275L345,273L345,271L345,270L345,268L345,267L345,266L345,265" stroke-opacity="1" stroke-width="2" stroke-linecap="round" stroke-linejoin="round" style="-webkit-tap-highlight-color: rgba(0, 0, 0, 0); stroke-opacity: 1; stroke-linecap: round; stroke-linejoin: round; -webkit-user-select: text;"></path><path fill="none" stroke="#6c7e83" d="M341,44L338,41L340,44L342,46L344,51L346,55L349,60L352,65L356,71L358,76L361,81L365,86L368,91L371,95L375,100L378,104L380,108L382,113L385,117L387,122L390,126L392,131L394,135L396,139L398,144L400,148L402,153L404,157L405,161L407,166L408,170L410,175L412,180L414,184L415,189L417,193L419,197L420,202L422,206L423,210L425,214L426,218L428,221L429,225L431,229L432,233L434,236L435,239L436,243L438,246L439,248L441,251L442,254L443,257L445,260L446,262L447,264L448,266L449,269L450,270L451,273L452,275L453,276L454,278L455,280L455,281L456,282L457,284L458,284L458,285L459,286L460,286" stroke-opacity="1" stroke-width="2" stroke-linecap="round" stroke-linejoin="round" style="-webkit-tap-highlight-color: rgba(0, 0, 0, 0); stroke-opacity: 1; stroke-linecap: round; stroke-linejoin: round; -webkit-user-select: text;"></path><path fill="none" stroke="#6c7e83" d="M668,45L668,47L668,49L667,51L666,54L664,57L662,61L660,65L658,69L655,74L651,80L648,84L645,89L642,94L639,98L636,103L633,108L629,113L626,117L623,122L619,127L617,132L615,135L612,139L609,143L606,147L604,150L601,154L599,158L596,161L594,165L592,168L590,171L588,175L585,178L583,181L581,185L579,188L577,192L575,195L572,199L571,202L569,206L567,210L565,214L563,218L561,222L560,226L558,229L556,233L554,236L553,239L551,243L549,246L547,249L546,252L544,256L543,258L541,262L540,264L539,267L538,269L536,271L536,273L535,274L534,275" stroke-opacity="1" stroke-width="2" stroke-linecap="round" stroke-linejoin="round" style="-webkit-tap-highlight-color: rgba(0, 0, 0, 0); stroke-opacity: 1; stroke-linecap: round; stroke-linejoin: round; -webkit-user-select: text;"></path><path fill="none" stroke="#6c7e83" d="M274,52L271,57L271,61L269,66L267,71L266,76L264,82L262,88L260,94L257,101L255,107L253,114L250,121L247,128L244,134L242,140L239,146L236,152L233,158L231,163L229,169L226,175L224,180L222,186L220,191L217,197L215,202L212,208L210,213L208,217L206,222L204,227L203,231L201,236L199,239L198,243L195,248L194,251L193,255L191,258L190,261L189,264L188,266L187,269L186,270L185,272L185,273L184,273" stroke-opacity="1" stroke-width="2" stroke-linecap="round" stroke-linejoin="round" style="-webkit-tap-highlight-color: rgba(0, 0, 0, 0); stroke-opacity: 1; stroke-linecap: round; stroke-linejoin: round; -webkit-user-select: text;"></path><path fill="none" stroke="#6c7e83" d="M44,56L47,59L47,62L50,66L52,71L55,76L58,81L62,87L64,92L67,99L70,104L72,110L75,117L78,123L80,129L82,135L84,141L87,147L90,153L92,159L95,165L97,170L100,177L102,183L104,189L106,195L108,201L110,207L113,213L115,219L118,224L121,231L122,237L125,243L128,250L130,255L133,261L135,267L138,273L140,279L142,285L145,291L147,296L149,302L151,307L153,311L154,317L157,322L159,327L161,333L163,338L166,344L168,349L170,354L172,360L174,365L176,370L178,375L180,380L181,384L183,388L184,392L186,396L187,399L188,403L189,406L191,410L192,413L193,416L194,418L195,421L196,423L197,426L198,428L199,430L200,432L200,434L201,436L202,438L203,439L204,440L204,441L205,441" stroke-opacity="1" stroke-width="2" stroke-linecap="round" stroke-linejoin="round" style="-webkit-tap-highlight-color: rgba(0, 0, 0, 0); stroke-opacity: 1; stroke-linecap: round; stroke-linejoin: round; -webkit-user-select: text;"></path><path fill="none" stroke="#6c7e83" d="M330,115L330,117L330,120L330,124L329,128L329,132L328,137L327,141L327,146L326,152L325,157L324,163L322,169L321,176L319,183L318,190L317,197L315,205L314,212L312,220L310,228L309,236L307,243L305,251L304,260L302,268L300,277L298,285L296,294L294,303L292,311L290,320L288,328L286,336L284,343L282,350L280,358L279,366L278,372L276,380L273,388L271,395L270,402L268,409L267,416L266,423L264,429L263,435L262,441L261,447L259,453L259,458L257,463L256,468L256,473L255,477L254,482L253,486L252,491L251,495L251,499L250,502L249,506L249,509L248,512L247,515L247,517L246,520L246,523L246,525L245,528L245,530L244,532L244,534L244,535L244,537L243,538L243,539L243,540L242,536L239,531" stroke-opacity="1" stroke-width="2" stroke-linecap="round" stroke-linejoin="round" style="-webkit-tap-highlight-color: rgba(0, 0, 0, 0); stroke-opacity: 1; stroke-linecap: round; stroke-linejoin: round; -webkit-user-select: text;"></path><path fill="none" stroke="#6c7e83" d="M44,333L45,336L45,339L45,343L47,348L50,353L53,358L56,364L59,370L63,375L67,382L69,388L73,394L76,401L80,407L83,413L86,420L89,426L93,433L95,439L98,445L101,452L104,459L108,465L111,472L114,479L117,486L119,493L122,499L125,506L128,513L130,519L133,525L135,530L138,536L141,543L143,548L145,553L147,558L149,562L151,567L153,571L155,575L157,579L158,582L160,586L161,589L163,592L164,595L165,597L166,600L167,602L168,604L169,606L170,608L171,609L171,610L172,612L172,613L173,615L174,616L174,618L175,619L175,620L176,622L176,623L177,625L178,626L178,628L178,629L179,631L180,632L180,633L181,634L181,632L182,632" stroke-opacity="1" stroke-width="2" stroke-linecap="round" stroke-linejoin="round" style="-webkit-tap-highlight-color: rgba(0, 0, 0, 0); stroke-opacity: 1; stroke-linecap: round; stroke-linejoin: round; -webkit-user-select: text;"></path><path fill="none" stroke="#6c7e83" d="M455,354L455,347L454,349L453,352L452,355L451,358L449,363L447,367L444,372L442,377L440,382L437,389L435,395L432,402L429,408L426,414L424,421L421,427L417,434L414,441L410,448L407,454L404,461L401,468L397,475L394,482L391,489L388,496L385,502L382,508L379,515L376,521L374,527L372,533L369,538L367,544L365,549L363,554L361,558L359,563L358,568L356,573L355,576L353,581L351,585L350,589L349,593L347,598L346,601L345,605L344,608L343,611L342,614L341,616L341,619L339,621L339,624L338,626L337,628L337,630L336,631L336,632L335,634L335,635L334,636L334,637L334,633L334,627" stroke-opacity="1" stroke-width="2" stroke-linecap="round" stroke-linejoin="round" style="-webkit-tap-highlight-color: rgba(0, 0, 0, 0); stroke-opacity: 1; stroke-linecap: round; stroke-linejoin: round; -webkit-user-select: text;"></path><path fill="none" stroke="#6c7e83" d="M525,173L519,169L519,170L519,171L519,172L519,173L519,174L519,175L518,177L518,179L517,180L516,183L516,185L515,188L514,191L513,194L512,197L510,201L509,204L507,209L505,214L503,218L500,223L498,228L495,233L493,238L491,242L488,247L486,252L483,258L480,263L477,269L474,275L470,281L468,287L464,293L461,299L458,306L455,312L452,318L450,324L447,331L443,338L441,344L438,350L435,358L432,365L429,371L426,377L424,383L421,390L419,395L417,401L414,407L412,413L409,418L407,423L404,428L402,434L399,439L397,444L395,449L392,455L390,460L387,465L385,470L384,474L382,479L380,484L379,488L377,491L375,495L374,499L373,502L372,505L371,508L370,510L369,512L368,515L367,517L366,519L366,520L365,522L364,524L363,525L363,527L362,528L362,529L361,530L361,531L361,532L360,533L360,534L360,532L360,525" stroke-opacity="1" stroke-width="2" stroke-linecap="round" stroke-linejoin="round" style="-webkit-tap-highlight-color: rgba(0, 0, 0, 0); stroke-opacity: 1; stroke-linecap: round; stroke-linejoin: round; -webkit-user-select: text;"></path><path fill="none" stroke="#6c7e83" d="M384,815L380,813L380,811L379,809L378,806L377,804L376,801L375,798L374,795L373,792L371,788L370,785L368,781L367,777L366,773L364,770L363,766L361,761L359,756L358,751L356,747L354,742L352,737L349,732L348,726L346,721L344,715L341,709L339,703L337,696L335,691L333,684L331,678L329,672L327,666L324,661L322,655L320,650L318,644L316,639L314,633L312,627L310,621L309,615L307,609L305,603L304,598L302,593L301,588L299,582L298,578L297,574L296,569L295,565L293,561L292,557L291,554L290,550L289,547L288,543L287,540L286,537L286,535L285,533L285,531L284,530L284,528L284,527" stroke-opacity="1" stroke-width="2" stroke-linecap="round" stroke-linejoin="round" style="-webkit-tap-highlight-color: rgba(0, 0, 0, 0); stroke-opacity: 1; stroke-linecap: round; stroke-linejoin: round; -webkit-user-select: text;"></path><path fill="none" stroke="#6c7e83" d="M506,50L512,51L512,54L513,56L513,60L514,63L514,68L515,73L515,78L516,84L516,90L517,96L518,102L519,108L519,114L520,120L521,127L521,133L521,140L522,146L523,154L523,161L524,169L524,177L525,185L525,192L526,200L527,209L527,216L528,224L528,234L528,241L529,249L530,258L530,265L531,273L531,280L532,288L533,295L533,303L533,310L534,317L535,324L535,331L536,337L536,343L537,348L537,355L538,361L538,366L538,371L539,376L540,382L540,387L541,392L541,396L541,400L542,405L543,409L543,413L544,418L544,421L545,425L546,429L546,432L547,435L548,438L548,441L549,444L549,446L550,448L550,450L551,452L551,454L552,455L553,455L555,452" stroke-opacity="1" stroke-width="2" stroke-linecap="round" stroke-linejoin="round" style="-webkit-tap-highlight-color: rgba(0, 0, 0, 0); stroke-opacity: 1; stroke-linecap: round; stroke-linejoin: round; -webkit-user-select: text;"></path><path fill="none" stroke="#6c7e83" d="M761,52L755,57L755,59L754,62L753,66L751,70L749,75L747,79L743,85L740,91L736,97L732,104L729,111L725,117L722,124L719,131L716,138L713,145L710,152L707,159L704,166L701,173L699,180L696,187L694,193L691,200L688,207L686,214L684,221L681,227L679,234L677,240L675,246L673,252L671,258L669,263L667,269L665,275L663,280L661,285L660,290L658,294L657,299L655,303L653,308L651,311L650,315L648,319L646,323L645,326L643,330L642,333L640,337L639,341L638,343L636,346L635,349L635,351L634,354L633,356L632,358L631,361L630,362L630,365L629,366L629,368L628,369L628,370L628,371" stroke-opacity="1" stroke-width="2" stroke-linecap="round" stroke-linejoin="round" style="-webkit-tap-highlight-color: rgba(0, 0, 0, 0); stroke-opacity: 1; stroke-linecap: round; stroke-linejoin: round; -webkit-user-select: text;"></path><path fill="none" stroke="#6c7e83" d="M661,452L658,447L658,446L657,445L656,443L655,440L654,438L653,435L651,432L650,428L647,425L645,420L643,415L642,411L640,406L638,401L635,396L633,391L630,385L627,379L624,372L621,366L618,359L615,352L612,344L609,337L606,330L603,322L600,315L596,307L594,299L591,292L587,285L584,277L582,270L579,263L576,257L572,250L570,243L567,236L565,230L562,224L560,219L557,213L555,207L553,202L551,197L549,192L548,187L546,183L544,178L543,174L541,170L540,166L539,163L538,160L536,157L535,154L534,151L533,149L532,146L531,144L531,142L530,140L529,139L528,137L528,136L528,134L527,133L527,132L526,131L526,130L526,129L526,128" stroke-opacity="1" stroke-width="2" stroke-linecap="round" stroke-linejoin="round" style="-webkit-tap-highlight-color: rgba(0, 0, 0, 0); stroke-opacity: 1; stroke-linecap: round; stroke-linejoin: round; -webkit-user-select: text;"></path><path fill="none" stroke="#6c7e83" d="M418,47L415,51L415,54L415,56L414,59L414,63L412,67L411,72L409,78L407,83L404,90L402,97L400,105L397,113L395,122L391,132L388,140L385,149L382,160L379,169L375,180L372,190L368,200L364,211L361,221L356,231L353,242L349,253L345,263L341,275L337,287L334,298L330,310L327,322L323,333L320,344L317,354L314,365L310,375L306,386L302,396L299,406L296,416L293,424L291,433L288,443L285,451L282,462L280,471L277,479L275,489L273,497L271,505L270,512L268,520L266,528L265,534L263,541L262,547L261,553L259,559L258,564L257,570L256,574L255,579L254,583L253,587L252,591L251,594L251,598L250,601L249,604L249,607L248,610L248,612L247,614L247,615L247,617L246,618L246,619L246,620L246,621L246,619L246,614" stroke-opacity="1" stroke-width="2" stroke-linecap="round" stroke-linejoin="round" style="-webkit-tap-highlight-color: rgba(0, 0, 0, 0); stroke-opacity: 1; stroke-linecap: round; stroke-linejoin: round; -webkit-user-select: text;"></path><path fill="none" stroke="#6c7e83" d="M220,268L217,265L217,268L217,271L217,275L218,279L219,285L221,290L222,296L223,302L225,308L227,314L228,320L230,326L232,334L233,340L235,346L237,353L239,361L240,368L242,375L244,383L246,391L248,398L249,406L251,413L253,421L255,428L256,436L258,444L260,452L262,460L263,467L265,475L267,483L268,491L271,499L272,506L274,514L276,522L277,530L279,537L281,545L283,552L284,558L286,566L288,572L290,579L291,586L293,593L294,600L295,606L297,613L298,618L299,624L300,629L301,634L302,638L304,644L305,649L306,653L307,658L308,663L309,668L310,672L311,676L312,680L313,684L314,688L315,692L316,695L317,700L318,703L319,707L319,710L320,713L321,716L322,718L323,721L323,722L324,724L324,726L325,727L325,728L326,729L326,730L327,727" stroke-opacity="1" stroke-width="2" stroke-linecap="round" stroke-linejoin="round" style="-webkit-tap-highlight-color: rgba(0, 0, 0, 0); stroke-opacity: 1; stroke-linecap: round; stroke-linejoin: round; -webkit-user-select: text;"></path><path fill="none" stroke="#6c7e83" d="M431,523L428,528L426,531L425,535L424,539L423,545L421,551L420,557L418,564L416,571L414,577L413,584L412,591L410,597L409,604L407,612L405,619L403,626L401,634L399,641L397,648L395,655L394,661L392,669L390,676L388,682L385,688L384,694L382,700L380,707L378,712L375,717L373,723L372,728L370,734L368,739L367,743L366,748L364,754L363,758L361,762L360,766L359,771L358,775L357,778L356,782L356,785L355,789L353,793L353,796L352,799L351,802L351,805L350,808L349,810L349,812L349,814L349,815L349,816L348,817L348,815" stroke-opacity="1" stroke-width="2" stroke-linecap="round" stroke-linejoin="round" style="-webkit-tap-highlight-color: rgba(0, 0, 0, 0); stroke-opacity: 1; stroke-linecap: round; stroke-linejoin: round; -webkit-user-select: text;"></path><path fill="none" stroke="#6c7e83" d="M132,829L124,828L122,826L121,824L119,822L116,819L114,817L111,814L109,812L106,809L104,806L101,803L98,800L96,798L93,795L91,792L88,788L85,785L83,782L80,779L77,776L74,773L72,770L70,767L68,765L67,763L65,761L64,759L63,758L62,756L61,755L60,754L60,753L59,753L59,752" stroke-opacity="1" stroke-width="2" stroke-linecap="round" stroke-linejoin="round" style="-webkit-tap-highlight-color: rgba(0, 0, 0, 0); stroke-opacity: 1; stroke-linecap: round; stroke-linejoin: round; -webkit-user-select: text;"></path><path fill="none" stroke="#6c7e83" d="M67,760L69,757L72,755L76,752L81,749L86,746L92,742L98,739L104,735L110,731L116,727L121,724L127,720L132,716L138,712L143,708L147,704L152,700L157,695L163,691L168,686L174,681L181,675L187,670L193,665L199,660L205,656L212,651L220,646L226,641L232,637L239,632L245,627L251,623L257,618L263,613L269,608L274,604L280,599L285,594L290,590L295,586L299,582L303,579L307,575L311,571L315,568L319,565L322,562L325,560L329,557L331,554L334,552L337,549L340,547L342,545L345,542L347,540L349,539L351,537L353,535L356,534L357,533L359,531L361,530L362,530L363,530L364,530" stroke-opacity="1" stroke-width="2" stroke-linecap="round" stroke-linejoin="round" style="-webkit-tap-highlight-color: rgba(0, 0, 0, 0); stroke-opacity: 1; stroke-linecap: round; stroke-linejoin: round; -webkit-user-select: text;"></path><path fill="none" stroke="#6c7e83" d="M361,540L358,537L358,535L356,532L354,528L352,524L349,518L347,513L344,507L341,501L338,494L335,488L332,482L329,475L326,468L322,462L319,455L316,448L312,441L308,435L305,428L301,421L297,414L293,407L289,400L285,392L281,384L277,377L273,368L269,361L266,353L262,345L258,338L255,330L251,322L248,314L244,305L241,297L237,289L234,281L230,273L227,266L224,258L220,251L217,244L215,237L212,230L208,223L206,217L203,210L201,204L198,199L196,193L194,188L192,183L190,178L188,173L186,168L185,164L183,159L182,156L181,152L179,149L178,145L177,142L176,139L175,136L174,134L174,132L173,130L172,128L171,127L171,125L171,124" stroke-opacity="1" stroke-width="2" stroke-linecap="round" stroke-linejoin="round" style="-webkit-tap-highlight-color: rgba(0, 0, 0, 0); stroke-opacity: 1; stroke-linecap: round; stroke-linejoin: round; -webkit-user-select: text;"></path><path fill="none" stroke="#6c7e83" d="M113,114L114,117L114,120L115,123L118,127L119,132L121,136L123,140L125,144L127,149L129,153L131,158L133,164L135,169L137,175L140,183L142,189L145,196L147,203L150,211L153,218L156,226L159,233L162,241L165,249L168,257L171,265L174,273L177,281L180,289L183,297L186,305L189,313L193,320L196,327L199,334L202,341L205,348L208,355L210,360L213,366L215,372L218,377L220,382L222,387L224,392L226,396L228,400L229,405L231,409L233,412L234,416L236,419L237,423L239,426L240,430L242,433L243,436L245,440L246,443L247,445L249,448L249,449L250,450L251,451L251,452L251,451" stroke-opacity="1" stroke-width="2" stroke-linecap="round" stroke-linejoin="round" style="-webkit-tap-highlight-color: rgba(0, 0, 0, 0); stroke-opacity: 1; stroke-linecap: round; stroke-linejoin: round; -webkit-user-select: text;"></path><path fill="none" stroke="#6c7e83" d="M549,259L548,261L548,264L546,267L544,270L542,274L540,279L537,284L535,289L532,294L530,299L527,304L524,309L522,314L519,319L516,324L514,330L511,336L509,342L506,348L503,353L500,360L497,366L494,372L491,378L487,384L484,391L480,398L477,404L473,411L470,418L466,423L463,429L460,435L457,441L454,446L451,452L448,457L446,463L443,468L440,474L437,479L435,484L432,489L430,495L427,500L425,505L423,510L420,515L417,520L415,525L412,530L409,535L407,540L404,545L402,550L400,555L397,561L395,566L392,571L390,576L388,580L386,585L384,589L382,593L380,598L378,602L376,606L375,610L373,613L372,617L370,620L369,622L368,625L367,627L366,629L366,630L365,632L364,632L364,633L364,630" stroke-opacity="1" stroke-width="2" stroke-linecap="round" stroke-linejoin="round" style="-webkit-tap-highlight-color: rgba(0, 0, 0, 0); stroke-opacity: 1; stroke-linecap: round; stroke-linejoin: round; -webkit-user-select: text;"></path><path fill="none" stroke="#6c7e83" d="M610,44L610,48L609,51L608,53L607,56L605,59L604,62L603,65L601,68L600,72L599,77L597,82L595,86L593,91L592,96L590,102L588,107L586,113L584,119L582,124L580,131L578,137L575,143L573,149L570,156L568,161L566,168L564,173L561,180L560,185L557,191L555,197L553,203L551,209L550,214L548,220L546,226L543,234L542,239L540,246L538,253L536,258L534,264L532,270L530,276L528,282L526,287L525,292L523,298L521,302L519,307L518,311L516,316L515,320L513,324L511,328L509,333L508,336L506,341L504,345L503,350L502,354L499,360L498,364L496,369L495,373L493,378L492,383L490,388L489,393L487,397L486,402L485,407L484,411L482,416L481,421L480,425L478,429L477,433L475,437L474,441L473,445L472,450L470,453L469,457L468,462L466,466L465,470L463,474L461,479L460,483L458,487L457,491L456,495L455,498L454,501L453,504L452,507L451,509L451,512L450,514L449,516L449,518L448,519L448,520L448,521L447,522L447,523L447,522L447,521" stroke-opacity="1" stroke-width="2" stroke-linecap="round" stroke-linejoin="round" style="-webkit-tap-highlight-color: rgba(0, 0, 0, 0); stroke-opacity: 1; stroke-linecap: round; stroke-linejoin: round; -webkit-user-select: text;"></path><path fill="none" stroke="#6c7e83" d="M465,419L467,418L470,421L474,425L477,429L480,433L482,437L485,441L488,445L492,450L495,455L499,461L502,467L507,472L510,478L514,484L518,491L522,497L527,503L531,510L535,517L539,523L543,528L547,534L550,539L554,545L557,550L560,555L563,561L566,566L569,572L572,577L574,582L577,587L579,592L582,597L584,602L587,607L589,612L592,617L594,621L596,626L599,630L601,635L604,639L605,643L608,648L610,652L612,657L615,661L617,666L619,671L621,675L623,679L625,683L627,687L629,691L630,695L632,699L634,703L636,707L638,711L640,715L642,720L644,725L645,729L647,733L650,737L651,741L653,744L655,748L657,751L659,755L660,758L662,761L663,764L665,768L666,771L668,774L669,777L671,780L672,783L674,785L675,788L677,790L678,793L679,795L680,798L682,800L682,802L684,803L684,805L685,806L686,807L687,808L688,809L688,810L689,810L690,807" stroke-opacity="1" stroke-width="2" stroke-linecap="round" stroke-linejoin="round" style="-webkit-tap-highlight-color: rgba(0, 0, 0, 0); stroke-opacity: 1; stroke-linecap: round; stroke-linejoin: round; -webkit-user-select: text;"></path><path fill="none" stroke="#6c7e83" d="M657,825L657,827L657,824L657,822L657,818L657,815L657,811L658,807L658,803L659,800L660,795L660,792L661,788L662,783L663,779L664,774L665,770L666,766L667,761L668,756L668,751L669,746L670,742L670,735L671,730L672,724L672,718L672,712L673,707L674,701L674,696L675,691L676,686L677,682L677,678L678,674L678,670L679,666L679,663L680,659L680,655L681,652L682,648L682,645L682,642L683,639L683,637L683,635L684,633L684,632L684,631L685,631" stroke-opacity="1" stroke-width="2" stroke-linecap="round" stroke-linejoin="round" style="-webkit-tap-highlight-color: rgba(0, 0, 0, 0); stroke-opacity: 1; stroke-linecap: round; stroke-linejoin: round; -webkit-user-select: text;"></path><path fill="none" stroke="#6c7e83" d="M713,727L714,727L713,726L711,724L708,722L706,721L704,719L701,717L699,715L698,713L696,711L693,709L691,708L689,705L686,704L684,702L682,700L679,698L677,696L674,695L672,693L670,691L668,689L666,687L663,685L661,683L659,681L657,678L655,676L654,675L652,673L650,671L649,669L647,667L646,665L645,663L643,661L642,659L640,656L638,654L635,651L633,648L631,645L628,642L626,638L623,635L621,631L618,627L615,623L613,620L610,616L607,612L604,608L601,605L599,602L596,598L593,596L591,592L588,589L586,586L584,584L579,578L577,575L575,573L573,570L571,568L569,566L567,563L566,561L565,558L563,556L561,554L560,551L558,549L557,547L555,544L553,541L552,539L550,536L548,533L546,530L545,528L543,525L541,522L539,520L537,517L535,514L533,511L531,508L529,505L527,501L525,499L523,496L521,493L519,490L516,487L514,484L513,482L511,479L509,477L507,474L505,472L503,470L501,467L499,465L498,463L496,461L494,459L493,457L492,455L490,453L489,451L488,449L487,447L486,445L485,443L483,442L482,440L482,439L481,438L480,437L480,436L480,435L480,433" stroke-opacity="1" stroke-width="2" stroke-linecap="round" stroke-linejoin="round" style="-webkit-tap-highlight-color: rgba(0, 0, 0, 0); stroke-opacity: 1; stroke-linecap: round; stroke-linejoin: round; -webkit-user-select: text;"></path><path fill="none" stroke="#6c7e83" d="M136,44L144,51L147,51L152,53L157,55L163,58L168,61L172,64L176,68L181,71L185,75L188,79L192,84L195,88L198,93L200,97L203,102L205,105L207,110L209,114L210,118L212,122L213,126L214,129L215,133L215,136L215,139L216,142L216,144L216,147L216,149L216,152L216,154L216,156L216,159L216,161L216,163L216,166L216,168L215,170L215,173L214,175L213,176L212,178L212,180L211,181L210,183L210,184" stroke-opacity="1" stroke-width="2" stroke-linecap="round" stroke-linejoin="round" style="-webkit-tap-highlight-color: rgba(0, 0, 0, 0); stroke-opacity: 1; stroke-linecap: round; stroke-linejoin: round; -webkit-user-select: text;"></path><path fill="none" stroke="#6c7e83" d="M327,47L330,48L334,48L338,51L341,54L346,57L349,61L353,64L356,69L359,73L362,78L364,83L366,88L368,93L370,98L372,102L373,107L374,111L375,115L375,120L376,124L376,129L377,134L377,139L377,143L377,148L377,152L377,157L377,161L377,166L375,170L375,174L373,179L372,183L370,189L369,194L368,198L366,202L364,207L362,211L361,214L359,218L357,221L356,225L354,228L352,231L351,234L349,237L346,240L345,243L343,246L341,248L339,251L338,253L336,255L335,256L334,258L334,259" stroke-opacity="1" stroke-width="2" stroke-linecap="round" stroke-linejoin="round" style="-webkit-tap-highlight-color: rgba(0, 0, 0, 0); stroke-opacity: 1; stroke-linecap: round; stroke-linejoin: round; -webkit-user-select: text;"></path><path fill="none" stroke="#6c7e83" d="M334,306L337,315L338,317L340,320L342,324L344,328L346,331L348,336L349,340L350,344L351,349L351,354L351,359L351,363L351,369L351,374L351,379L351,384L349,388L348,393L347,397L345,403L344,407L342,411L341,416L339,420L337,425L335,428L333,433L331,437L329,440L326,445L323,449L320,452L317,457L314,461L310,465L307,469L303,473L300,477L296,481L293,484L290,487L286,490L283,492L280,495L277,497L273,499L270,501L267,503L265,504L262,506L259,507L256,508L254,509L251,511L249,511L246,512L244,513L242,513L241,513L240,514L241,514" stroke-opacity="1" stroke-width="2" stroke-linecap="round" stroke-linejoin="round" style="-webkit-tap-highlight-color: rgba(0, 0, 0, 0); stroke-opacity: 1; stroke-linecap: round; stroke-linejoin: round; -webkit-user-select: text;"></path><path fill="none" stroke="#6c7e83" d="M320,518L331,518L335,518L340,518L345,518L351,519L358,519L365,519L372,520L380,520L387,520L396,521L404,523L412,524L419,525L428,528L435,531L443,534L451,538L458,542L464,545L471,549L478,552L485,556L490,560L496,564L502,568L507,572L511,576L516,580L520,585L523,589L526,593L528,596L531,601L534,605L537,609L540,613L542,617L544,620L546,624L548,627L550,630L551,632L552,635L553,636L553,637L554,637L555,637" stroke-opacity="1" stroke-width="2" stroke-linecap="round" stroke-linejoin="round" style="-webkit-tap-highlight-color: rgba(0, 0, 0, 0); stroke-opacity: 1; stroke-linecap: round; stroke-linejoin: round; -webkit-user-select: text;"></path><path fill="none" stroke="#6c7e83" d="M567,612L571,615L573,617L574,620L576,624L577,629L577,634L577,640L577,644L577,651L577,657L576,662L574,668L571,674L569,680L566,686L562,692L558,697L553,703L548,708L543,714L538,719L532,724L525,728L519,732L512,736L505,739L499,742L493,744L486,747L480,749L474,751L468,753L462,754L456,756L451,756L446,757L441,758L437,758L433,758L430,758L426,758L424,758L420,758L417,758L414,758L412,757L408,756L405,756L402,755L400,754L397,754L395,753L393,752L392,751L391,751L390,749L387,747L384,745" stroke-opacity="1" stroke-width="2" stroke-linecap="round" stroke-linejoin="round" style="-webkit-tap-highlight-color: rgba(0, 0, 0, 0); stroke-opacity: 1; stroke-linecap: round; stroke-linejoin: round; -webkit-user-select: text;"></path><path fill="none" stroke="#6c7e83" d="M142,620L139,622L139,625L139,631L139,637L140,644L141,650L142,656L144,662L145,668L147,674L149,679L152,686L155,693L158,700L161,706L165,712L169,718L173,725L178,731L183,737L188,744L195,751L202,758L208,765L215,771L222,777L228,782L234,787L240,792L246,796L251,799L257,803L261,806L266,809L271,811L277,813L282,815L288,817L293,819L299,820L305,822L311,824L315,824L321,825L327,826L331,826L337,827L342,827L346,827L351,827L355,827L358,827L361,827L364,827L369,824" stroke-opacity="1" stroke-width="2" stroke-linecap="round" stroke-linejoin="round" style="-webkit-tap-highlight-color: rgba(0, 0, 0, 0); stroke-opacity: 1; stroke-linecap: round; stroke-linejoin: round; -webkit-user-select: text;"></path><path fill="none" stroke="#6c7e83" d="M641,543L643,538L643,536L644,533L645,530L645,527L646,523L646,520L646,516L646,512L646,507L646,502L643,497L641,492L638,487L635,482L632,477L628,472L624,466L620,461L617,456L613,450L609,445L605,439L601,434L596,429L593,424L589,419L584,414L579,410L575,406L571,402L567,398L562,394L558,391L553,387L549,384L545,381L541,379L538,376L533,374L530,372L526,370L521,368L517,366L513,365L509,363L506,361L502,360L498,359L494,358L491,357L489,356L487,355L486,355L485,354L485,353L482,350" stroke-opacity="1" stroke-width="2" stroke-linecap="round" stroke-linejoin="round" style="-webkit-tap-highlight-color: rgba(0, 0, 0, 0); stroke-opacity: 1; stroke-linecap: round; stroke-linejoin: round; -webkit-user-select: text;"></path><path fill="none" stroke="#6c7e83" d="M332,263L335,263L340,263L345,263L350,263L355,263L362,263L368,263L374,265L378,265L383,267L387,269L391,271L395,273L399,276L403,279L407,282L410,285L413,288L416,291L419,294L421,298L424,301L426,305L429,309L431,313L433,316L435,321L437,324L439,329L441,333L442,337L444,341L445,345L446,350L448,354L448,358L449,361L450,365L450,368L451,371L451,375L451,378L451,381L451,384L451,387L451,390L451,393L451,396L450,399L449,401L448,404L447,406L446,409L445,411L443,413L443,415L441,417L440,419L439,420L438,422L438,423L437,425L436,426L436,427L435,427" stroke-opacity="1" stroke-width="2" stroke-linecap="round" stroke-linejoin="round" style="-webkit-tap-highlight-color: rgba(0, 0, 0, 0); stroke-opacity: 1; stroke-linecap: round; stroke-linejoin: round; -webkit-user-select: text;"></path><path fill="none" stroke="#6c7e83" d="M160,344L155,338L155,335L156,333L157,330L159,326L160,323L162,319L164,315L166,312L169,308L171,305L174,302L177,298L181,293L186,289L192,284L197,279L201,275L206,270L211,266L217,261L223,256L230,252L236,247L242,243L249,240L255,236L262,232L270,229L278,226L285,223L291,220L298,218L304,216L310,214L317,212L322,210L328,209L334,208L340,207L346,205L350,204L355,203L360,202L365,202L369,202L374,201L379,200L383,200L388,200L392,200L395,200L399,200L402,199L404,199L406,199L408,199L409,198L410,198L412,197L413,197" stroke-opacity="1" stroke-width="2" stroke-linecap="round" stroke-linejoin="round" style="-webkit-tap-highlight-color: rgba(0, 0, 0, 0); stroke-opacity: 1; stroke-linecap: round; stroke-linejoin: round; -webkit-user-select: text;"></path><path fill="none" stroke="#6c7e83" d="M501,37L509,32L514,32L519,32L525,34L532,36L537,39L545,42L551,46L558,49L564,53L570,57L575,61L581,66L585,69L589,74L593,78L597,83L600,88L604,92L606,97L609,101L612,106L615,111L617,115L619,120L621,124L623,129L624,133L626,138L627,142L628,146L629,151L630,154L631,158L631,163L632,167L632,171L632,175L632,179L632,183L632,187L630,191L629,195L628,198L626,202L624,206L622,209L620,213L618,216L616,219L613,222L611,225L608,228L605,230L602,233L599,236L596,238L593,241L589,243L585,246L582,248L578,250L575,252L570,254L567,256L564,258L560,259L558,261L555,263L552,265L549,266L547,268L545,270L543,270L543,271L543,272L543,273" stroke-opacity="1" stroke-width="2" stroke-linecap="round" stroke-linejoin="round" style="-webkit-tap-highlight-color: rgba(0, 0, 0, 0); stroke-opacity: 1; stroke-linecap: round; stroke-linejoin: round; -webkit-user-select: text;"></path><path fill="none" stroke="#6c7e83" d="M689,258L691,254L691,251L691,248L691,244L691,239L691,233L690,226L689,219L687,213L684,206L682,199L679,192L676,185L672,178L668,169L662,162L658,155L651,148L646,142L638,135L631,129L623,123L614,118L606,112L598,108L589,103L579,98L570,94L561,90L553,86L545,83L538,79L530,76L522,73L514,70L507,68L502,66L496,64L492,63L487,62L484,61L481,60L477,60L474,60L470,59L466,59L462,59L458,59L454,59L451,59L448,59L444,59L441,59L437,59L433,59L430,59L427,59L425,59L423,59L421,59L411,59" stroke-opacity="1" stroke-width="2" stroke-linecap="round" stroke-linejoin="round" style="-webkit-tap-highlight-color: rgba(0, 0, 0, 0); stroke-opacity: 1; stroke-linecap: round; stroke-linejoin: round; -webkit-user-select: text;"></path><path fill="none" stroke="#6c7e83" d="M51,49L41,49L39,51L36,54L34,57L32,62L30,66L28,71L26,77L24,82L23,88L22,93L21,99L20,105L20,112L20,117L19,124L19,130L19,136L19,143L19,149L19,156L19,162L19,168L19,174L21,182L23,188L25,195L28,201L31,208L34,214L37,220L40,226L42,233L45,238L48,243L52,249L55,254L59,260L62,264L66,269L69,274L73,278L76,282L80,286L84,290L87,294L91,297L94,301L97,304L100,307L103,310L106,313L110,315L113,318L117,320L120,323L123,325L126,327L129,329L132,331L135,332L138,334L141,335L144,336L147,336L152,334" stroke-opacity="1" stroke-width="2" stroke-linecap="round" stroke-linejoin="round" style="-webkit-tap-highlight-color: rgba(0, 0, 0, 0); stroke-opacity: 1; stroke-linecap: round; stroke-linejoin: round; -webkit-user-select: text;"></path><path fill="none" stroke="#6c7e83" d="M191,181L196,182L201,182L207,185L214,188L222,192L229,197L235,202L241,207L246,213L250,219L254,224L257,230L260,236L263,243L265,249L267,255L270,261L271,268L273,274L274,281L276,288L276,295L277,304L278,311L278,318L279,326L279,333L280,341L280,348L280,355L280,362L280,368L279,375L278,381L277,387L275,392L274,396L272,400L271,404L269,409L267,411L266,414L264,417L262,420L261,423L259,425L257,427L256,429L255,431L254,431L254,432L251,428" stroke-opacity="1" stroke-width="2" stroke-linecap="round" stroke-linejoin="round" style="-webkit-tap-highlight-color: rgba(0, 0, 0, 0); stroke-opacity: 1; stroke-linecap: round; stroke-linejoin: round; -webkit-user-select: text;"></path><path fill="none" stroke="#6c7e83" d="M104,424L107,428L108,433L110,439L113,446L116,453L119,460L122,465L125,472L128,478L132,485L136,491L140,497L144,503L149,509L154,515L160,520L165,525L171,529L176,533L182,537L189,541L195,545L203,548L210,552L218,556L225,559L232,562L238,565L244,567L249,569L255,571L261,574L266,575L272,577L277,579L283,581L288,582L293,584L298,585L303,586L308,587L313,589L318,590L323,591L328,591L333,592L337,593L342,593L346,593L351,593L356,593L360,593L364,593L368,593L371,593L374,593L377,593L380,593L382,592L385,591L387,591L389,591L392,590L394,590L396,589L398,589L400,588L403,588L405,587L408,586L411,584L414,583L418,581L421,579L425,578L428,576L431,575L434,574L436,572L439,571L442,569L445,568L448,567L451,564L453,563L455,561L458,559L460,557L463,554L465,552L467,550L469,548L471,546L473,544L475,542L477,541L478,539L480,537L481,536L482,535L483,535L483,534L484,533L484,532L484,529" stroke-opacity="1" stroke-width="2" stroke-linecap="round" stroke-linejoin="round" style="-webkit-tap-highlight-color: rgba(0, 0, 0, 0); stroke-opacity: 1; stroke-linecap: round; stroke-linejoin: round; -webkit-user-select: text;"></path><path fill="none" stroke="#6c7e83" d="M643,433L643,427L636,427L629,427L623,426L616,426L608,426L601,426L594,427L587,429L579,432L573,434L568,437L561,440L556,444L550,448L544,452L538,457L533,462L527,466L521,471L516,475L510,480L504,485L499,490L493,495L487,500L482,505L477,509L472,513L468,518L463,522L459,526L455,530L451,535L447,539L443,544L439,548L436,552L433,557L430,562L427,566L425,569L422,573L420,577L418,580L416,584L414,587L412,590L410,593L409,595L407,598L406,600L405,602L404,604L403,606L402,608L400,610L400,612L399,613L398,615L397,616L397,617L396,618L396,619L395,620L395,621L395,619L395,616" stroke-opacity="1" stroke-width="2" stroke-linecap="round" stroke-linejoin="round" style="-webkit-tap-highlight-color: rgba(0, 0, 0, 0); stroke-opacity: 1; stroke-linecap: round; stroke-linejoin: round; -webkit-user-select: text;"></path><path fill="none" stroke="#6c7e83" d="M660,598L669,603L669,606L669,610L669,614L669,618L667,623L664,627L662,632L659,637L655,641L651,646L646,651L641,656L636,661L631,666L625,670L620,675L614,680L609,685L603,689L598,693L593,697L588,701L582,705L577,709L571,712L565,715L559,718L553,721L546,723L541,725L534,727L528,729L521,730L516,732L510,733L504,734L498,735L493,736L488,737L483,737L478,737L472,738L467,738L462,738L456,739L450,739L444,739L439,739L434,739L430,739L425,739L420,738L416,737L412,735L408,734L403,731L398,729L392,725L386,722L381,718L375,714L369,710L363,705L359,702L355,699L351,695L347,692L344,688L341,685L338,682L335,679L333,676L331,673L329,671L328,668L326,665L324,662L323,660L322,657L321,654L320,652L319,649L318,647L317,645L317,643L316,642L316,640L315,639L315,637L315,635L315,634" stroke-opacity="1" stroke-width="2" stroke-linecap="round" stroke-linejoin="round" style="-webkit-tap-highlight-color: rgba(0, 0, 0, 0); stroke-opacity: 1; stroke-linecap: round; stroke-linejoin: round; -webkit-user-select: text;"></path><path fill="none" stroke="#6c7e83" d="M287,629L289,630L293,631L298,634L303,637L309,642L314,647L319,652L323,657L326,662L328,667L329,672L331,676L331,681L331,686L331,690L331,694L331,698L331,703L331,707L331,710L331,715L331,718L329,722L328,726L327,730L325,734L323,737L322,741L319,744L317,747L316,751L313,754L311,758L309,761L307,764L305,767L302,771L300,773L297,776L295,779L292,782L289,785L286,787L283,790L280,792L278,795L275,797L272,799L269,801L266,803L263,805L260,806L257,808L254,810L251,811L248,813L244,814L242,816L239,817L236,818L233,819L230,820L227,821L225,822L223,822L221,822L220,823L219,823L218,823L218,821L218,815" stroke-opacity="1" stroke-width="2" stroke-linecap="round" stroke-linejoin="round" style="-webkit-tap-highlight-color: rgba(0, 0, 0, 0); stroke-opacity: 1; stroke-linecap: round; stroke-linejoin: round; -webkit-user-select: text;"></path><path fill="none" stroke="#6c7e83" d="M226,732L228,734L232,739L236,745L241,752L246,759L251,766L257,772L263,777L269,783L275,788L280,793L287,798L292,802L298,806L304,810L309,812L314,816L320,818L326,821L331,824L337,826L344,828L349,830L356,832L362,833L369,834L376,835L383,836L390,836L397,837L404,837L412,837L419,837L426,837L432,837L438,836L444,834L450,832L455,829L461,827L468,823L473,820L479,818L484,815L488,812L493,809L497,806L502,803L505,800L509,798L511,795L514,793L517,790L521,788L523,785L526,783L529,780L531,778L534,775L536,772L539,769L542,766L545,763L548,760L550,757L553,755L554,753L556,751L558,749L560,747L561,746L563,744L564,742L565,740L567,739L567,738L568,737L569,737L570,736L570,735" stroke-opacity="1" stroke-width="2" stroke-linecap="round" stroke-linejoin="round" style="-webkit-tap-highlight-color: rgba(0, 0, 0, 0); stroke-opacity: 1; stroke-linecap: round; stroke-linejoin: round; -webkit-user-select: text;"></path><path fill="none" stroke="#6c7e83" d="M702,732L699,730L696,730L689,730L681,730L673,730L663,730L654,730L647,730L640,730L634,731L627,733L622,735L617,737L612,739L608,741L604,743L600,745L596,748L593,751L589,754L585,758L582,761L577,765L574,768L571,772L567,776L565,779L563,782L560,786L558,790L555,795L553,799L551,803L549,807L547,810L545,814L544,817L543,820L542,823L541,825L541,828L540,829L539,831L539,833L539,834L538,836L543,834" stroke-opacity="1" stroke-width="2" stroke-linecap="round" stroke-linejoin="round" style="-webkit-tap-highlight-color: rgba(0, 0, 0, 0); stroke-opacity: 1; stroke-linecap: round; stroke-linejoin: round; -webkit-user-select: text;"></path><path fill="none" stroke="#6c7e83" d="M714,831L720,829L722,827L725,822L728,817L730,812L733,807L735,802L736,796L736,791L737,785L737,778L738,772L739,765L739,758L740,751L740,744L740,737L740,729L740,722L740,715L740,708L740,700L740,692L740,684L739,677L737,669L736,660L735,652L733,644L730,636L728,628L726,621L723,613L720,606L717,599L714,592L711,585L708,578L704,572L701,566L698,561L695,556L691,552L688,548L684,544L681,540L677,537L674,535L671,532L668,529L664,527L661,524L658,522L655,520L652,518L649,516L647,514L645,512L643,511L643,510L642,508L641,506" stroke-opacity="1" stroke-width="2" stroke-linecap="round" stroke-linejoin="round" style="-webkit-tap-highlight-color: rgba(0, 0, 0, 0); stroke-opacity: 1; stroke-linecap: round; stroke-linejoin: round; -webkit-user-select: text;"></path><path fill="none" stroke="#6c7e83" d="M660,431L657,436L654,440L650,443L647,448L643,452L639,457L635,461L631,465L626,471L623,474L618,478L614,482L610,485L606,488L601,491L595,495L590,498L584,501L577,504L570,507L562,510L555,513L548,516L540,518L533,520L525,523L519,524L512,525L506,526L499,526L492,527L486,527L480,527L473,527L467,525L461,523L455,521L449,519L443,517L438,515L431,512L426,509L419,505L413,502L407,498L402,495L397,491L392,487L387,483L383,479L379,474L376,469L373,465L370,460L367,456L364,452L362,448L360,444L358,440L356,435L355,431L353,427L351,423L350,418L348,414L347,411L346,407L345,403L344,399L343,395L342,392L342,388L341,384L341,381L340,378L340,375L340,372L340,368L340,365L340,362L340,360L339,357L339,354L339,352L339,350L339,348L339,345L339,343L339,342L339,340L339,338L339,337L339,336L339,334L339,333L339,329" stroke-opacity="1" stroke-width="2" stroke-linecap="round" stroke-linejoin="round" style="-webkit-tap-highlight-color: rgba(0, 0, 0, 0); stroke-opacity: 1; stroke-linecap: round; stroke-linejoin: round; -webkit-user-select: text;"></path><path fill="none" stroke="#6c7e83" d="M319,261L323,263L324,265L325,269L328,272L331,276L334,280L338,283L342,286L346,288L349,291L353,292L357,294L361,296L365,297L368,298L373,299L377,299L380,299L385,300L389,300L393,300L399,300L404,300L412,299L418,297L424,294L429,292L435,289L439,285L443,282L446,280L448,276L451,273L452,270L454,267L455,264L457,261L458,258L460,254L461,251L462,248L463,246L464,243L465,240L465,236L466,233L467,230L467,227L468,224L468,221L468,218L468,215L468,213L468,210L468,207L468,205L468,202L468,200L468,198L467,196L466,194L465,192L464,190L463,189L463,187L462,186L461,185L460,183L459,183L459,182L459,181L459,180L459,178" stroke-opacity="1" stroke-width="2" stroke-linecap="round" stroke-linejoin="round" style="-webkit-tap-highlight-color: rgba(0, 0, 0, 0); stroke-opacity: 1; stroke-linecap: round; stroke-linejoin: round; -webkit-user-select: text;"></path><path fill="none" stroke="#6c7e83" d="M167,57L175,57L176,59L178,61L179,64L181,67L182,71L183,75L183,80L184,85L185,90L185,96L186,102L186,107L186,114L186,119L185,125L183,131L181,137L178,143L176,148L173,154L170,161L166,167L162,173L158,180L153,187L149,195L144,202L140,208L135,215L131,221L127,228L123,234L120,241L118,248L115,255L113,260L111,267L110,273L109,280L109,285L108,290L108,296L108,301L108,307L108,312L109,317L110,322L112,327L114,332L116,337L118,341L121,346L124,351L127,356L130,360L134,365L138,369L142,373L146,377L150,380L154,384L158,387L163,389L168,392L172,395L177,397L182,399L187,401L191,403L196,405L200,407L204,409L208,410L212,412L216,414L220,416L223,417L227,419L230,421L233,422L236,424L239,426L242,428L244,430L247,432L249,433L251,435L252,437L254,438L255,439L256,440L256,441L257,441L257,442L258,442L258,441" stroke-opacity="1" stroke-width="2" stroke-linecap="round" stroke-linejoin="round" style="-webkit-tap-highlight-color: rgba(0, 0, 0, 0); stroke-opacity: 1; stroke-linecap: round; stroke-linejoin: round; -webkit-user-select: text;"></path><path fill="none" stroke="#6c7e83" d="M291,438L291,434L293,433L296,431L299,429L303,427L308,425L313,423L319,421L324,421L329,420L336,419L342,419L348,419L353,419L359,419L365,419L370,419L377,419L382,419L387,419L392,420L397,420L403,421L408,421L414,421L419,421L424,421L430,421L435,419L440,418L444,416L449,414L453,412L456,410L460,408L463,405L467,403L470,400L473,397L475,394L477,391L480,387L481,383L483,379L484,376L485,372L485,367L486,362L487,358L487,353L487,348L488,344L488,339L488,335L488,331L488,327L488,323L488,319L487,315L485,311L484,307L482,303L481,299L479,295L477,291L476,287L474,284L472,280L471,276L470,272L468,268L467,265L466,261L465,258L464,254L463,250L462,246L461,243L460,239L459,236L459,232L458,229L458,226L458,223L458,220L458,217L458,214L458,211L458,208L458,205L459,202L460,200L460,197L460,195L461,193L462,192L462,190L463,190L463,189L463,188L464,188L465,188" stroke-opacity="1" stroke-width="2" stroke-linecap="round" stroke-linejoin="round" style="-webkit-tap-highlight-color: rgba(0, 0, 0, 0); stroke-opacity: 1; stroke-linecap: round; stroke-linejoin: round; -webkit-user-select: text;"></path><path fill="none" stroke="#6c7e83" d="M606,104L604,106L603,110L602,113L600,116L599,120L597,124L596,127L594,132L591,135L588,140L584,144L580,148L575,152L570,157L567,160L561,164L555,168L549,171L542,175L535,178L527,181L518,183L510,185L503,186L495,187L488,187L481,187L475,187L470,186L465,184L459,181L454,179L449,176L444,173L439,169L435,166L429,162L425,158L421,154L417,151L412,147L409,144L405,141L402,137L398,134L395,130L391,127L387,123L384,119L380,115L376,112L373,108L369,105L364,100L360,96L356,93L350,88L346,85L341,81L337,78L332,75L328,72L324,69L320,67L317,65L312,63L309,61L305,61L302,60L299,59L296,59L293,59L290,59L287,59L284,59L282,59L280,59L278,59L276,59L273,59L271,59L268,59L266,59L264,59L262,60L260,61L259,62L258,62L257,63L256,63L257,64" stroke-opacity="1" stroke-width="2" stroke-linecap="round" stroke-linejoin="round" style="-webkit-tap-highlight-color: rgba(0, 0, 0, 0); stroke-opacity: 1; stroke-linecap: round; stroke-linejoin: round; -webkit-user-select: text;"></path><path fill="none" stroke="#6c7e83" d="M424,54L419,56L417,59L415,61L414,64L413,68L412,73L411,77L410,83L409,89L409,95L409,100L409,107L409,113L409,119L409,124L410,129L412,134L414,138L417,142L420,146L424,150L427,154L431,158L435,161L439,165L443,169L448,173L453,176L457,180L462,184L466,187L471,190L476,194L481,197L486,201L490,204L495,208L499,212L503,216L507,219L511,223L514,227L516,231L519,235L521,240L524,244L526,249L528,255L531,260L532,265L533,271L534,276L535,281L536,286L536,291L536,296L536,302L536,307L534,312L532,318L530,323L527,328L525,333L521,338L518,343L515,348L512,352L508,357L504,361L501,365L497,369L492,373L488,377L482,381L477,384L470,388L464,391L457,394L451,396L443,399L438,400L431,402L425,403L418,404L412,405L405,406L400,406L394,407L389,407L383,408L378,408L373,409L368,409L363,409L358,410L353,410L349,411L344,411L340,412L335,413L331,413L327,414L323,415L320,416L317,418L314,419L311,421L309,422L306,424L304,425L302,427L300,428L299,429L298,429L297,430L296,431L295,431L295,432L296,431" stroke-opacity="1" stroke-width="2" stroke-linecap="round" stroke-linejoin="round" style="-webkit-tap-highlight-color: rgba(0, 0, 0, 0); stroke-opacity: 1; stroke-linecap: round; stroke-linejoin: round; -webkit-user-select: text;"></path><path fill="none" stroke="#6c7e83" d="M735,56L745,64L746,67L747,69L747,72L747,76L747,79L747,83L747,86L747,90L747,94L747,98L746,102L745,107L744,111L742,116L741,120L739,125L737,130L734,134L732,139L729,143L726,147L723,152L720,156L717,161L714,165L711,168L708,172L705,175L702,179L699,183L696,185L694,188L691,191L687,194L684,197L679,200L675,203L669,207L664,210L659,214L653,217L647,221L641,225L635,229L629,233L623,236L618,239L612,243L608,246L603,250L598,253L594,257L589,260L585,264L581,268L577,271L574,275L571,279L568,283L566,287L564,291L562,295L561,299L560,304L559,307L559,311L558,316L558,320L557,324L557,328L557,333L557,337L557,342L557,346L557,350L557,355L557,360L557,364L558,369L559,373L561,378L562,382L565,387L566,391L569,395L571,399L573,402L575,406L578,409L580,411L583,414L585,416L588,418L591,421L593,422L596,424L598,426L600,427L602,428L603,429L604,430L604,431L605,431L606,430L613,424" stroke-opacity="1" stroke-width="2" stroke-linecap="round" stroke-linejoin="round" style="-webkit-tap-highlight-color: rgba(0, 0, 0, 0); stroke-opacity: 1; stroke-linecap: round; stroke-linejoin: round; -webkit-user-select: text;"></path><path fill="none" stroke="#6c7e83" d="M677,336L679,338L679,341L679,344L679,348L678,353L677,357L676,362L674,367L672,372L670,377L668,382L665,387L662,392L658,398L653,403L648,409L643,413L638,418L631,423L625,426L618,430L610,433L603,437L595,440L586,443L578,446L570,448L562,450L555,452L548,454L542,455L536,457L529,458L524,460L517,461L512,462L507,464L501,466L494,468L490,471L484,473L477,477L471,480L466,484L460,489L455,493L450,498L445,503L441,507L438,512L434,516L431,521L428,526L426,531L423,537L421,542L419,547L417,553L416,558L415,563L414,567L413,572L413,576L413,581L412,585L412,589L412,594L412,598L412,602L412,606L412,610L412,614L413,618L414,623L416,627L417,631L419,635L421,639L423,643L424,647L427,651L429,655L431,659L434,663L436,667L439,671L442,675L445,679L448,683L451,687L454,691L458,694L460,698L463,701L467,704L470,706L472,710L476,712L479,715L482,717L485,720L489,722L492,724L495,726L499,728L502,730L507,732L510,734L514,736L518,738L521,739L524,741L526,742L528,742L529,742L530,742L534,737L541,731" stroke-opacity="1" stroke-width="2" stroke-linecap="round" stroke-linejoin="round" style="-webkit-tap-highlight-color: rgba(0, 0, 0, 0); stroke-opacity: 1; stroke-linecap: round; stroke-linejoin: round; -webkit-user-select: text;"></path><path fill="none" stroke="#6c7e83" d="M691,628L691,629L691,632L690,635L688,640L686,645L684,650L682,656L679,661L676,667L673,673L669,678L664,684L660,689L655,693L650,698L645,703L639,708L633,713L626,717L618,722L611,726L604,730L597,734L589,737L582,741L575,743L568,745L562,747L556,749L550,750L544,751L538,752L532,753L526,754L520,754L514,754L507,754L499,754L492,754L486,754L480,753L474,752L468,750L463,749L457,748L451,746L446,744L441,742L435,740L429,738L424,735L418,732L412,729L405,726L399,722L392,718L386,714L380,709L375,705L369,700L363,695L357,691L351,686L346,682L339,678L334,674L329,670L324,667L318,664L313,661L308,658L304,655L299,653L294,651L289,649L284,647L280,645L275,644L270,642L266,641L260,640L256,638L251,637L247,636L242,635L238,635L234,634L230,633L226,633L222,632L218,632L215,631L210,630L207,630L203,630L200,629L196,628L193,628L190,627L187,627L183,627L180,627L177,627L174,626L171,626L168,626L165,626L162,626L160,626L157,626L154,626L152,626L150,626L149,626L147,627L146,627L144,627L143,627L142,627L142,625" stroke-opacity="1" stroke-width="2" stroke-linecap="round" stroke-linejoin="round" style="-webkit-tap-highlight-color: rgba(0, 0, 0, 0); stroke-opacity: 1; stroke-linecap: round; stroke-linejoin: round; -webkit-user-select: text;"></path><path fill="none" stroke="#6c7e83" d="M136,612L137,618L137,620L139,622L142,625L145,627L149,631L153,634L157,637L161,641L164,645L167,649L169,652L171,657L173,660L174,664L175,669L176,674L177,678L178,682L178,686L178,691L179,694L179,698L179,701L179,705L179,708L178,711L177,714L176,717L175,719L173,722L171,725L170,727L169,729L167,732L166,734L164,735L163,737L161,739L160,741L158,743L157,745L155,747L154,749L152,750L151,752L150,754L149,756L147,757L146,759L145,761L144,762L143,764L142,766L140,768L139,769L138,771L137,773L137,775L136,776L135,778L135,780L134,782L133,784L133,785L132,788L132,789L132,791L132,793L132,795L132,796L132,798L132,800L132,802L132,803L132,805L132,807L132,808L132,810L133,811L134,812L135,812L137,812L140,803" stroke-opacity="1" stroke-width="2" stroke-linecap="round" stroke-linejoin="round" style="-webkit-tap-highlight-color: rgba(0, 0, 0, 0); stroke-opacity: 1; stroke-linecap: round; stroke-linejoin: round; -webkit-user-select: text;"></path><path fill="none" stroke="#6c7e83" d="M160,643L158,637L158,635L158,633L157,630L157,628L155,626L154,623L152,621L150,618L148,616L146,614L143,611L140,608L137,606L134,603L130,600L127,597L123,594L120,591L116,588L112,585L108,581L104,578L101,575L97,572L93,569L90,566L88,563L84,559L82,555L79,552L77,548L75,545L73,542L72,538L71,534L69,530L69,525L68,520L67,516L67,511L67,506L67,500L67,496L67,491L68,486L69,482L70,478L71,474L74,470L75,467L77,463L79,459L82,455L84,451L86,447L89,443L92,439L94,436L96,433L99,429L101,425L103,422L105,418L108,415L109,411L111,408L113,405L114,401L115,398L116,394L117,391L118,388L118,385L118,382L119,379L119,376L120,373L120,370L120,367L120,365L120,361L120,358L120,355L120,353L119,349L118,346L118,343L117,340L116,337L115,334L114,331L113,329L112,326L111,323L110,321L109,318L108,316L108,314L107,312L106,311L105,309L104,307L103,304L101,302L100,300L99,298L98,296L97,294L96,292L94,290L93,287L91,285L90,282L88,280L87,277L85,275L84,272L82,269L80,266L78,263L76,260L75,257L73,254L71,251L69,248L67,246L66,243L64,240L62,237L61,234L59,232L58,229L57,227L55,224L54,221L53,219L52,216L51,214L50,211L49,208L48,205L48,202L47,199L47,196L46,194L46,191L46,188L46,186L46,183L46,181L46,178L46,176L46,173L46,170L46,168L46,165L46,162L46,160L46,157L46,154L46,151L46,148L46,145L47,142L47,139L47,136L48,133L49,130L50,127L51,124L52,121L53,118L54,114L56,111L57,108L59,105L61,103L62,100L64,98L66,95L67,93L69,90L70,88L71,87L73,85L74,83L76,81L77,79L79,78L80,76L81,74L82,73L84,71L85,70L86,68L87,67L88,66L89,65L90,64L91,63L94,63" stroke-opacity="1" stroke-width="2" stroke-linecap="round" stroke-linejoin="round" style="-webkit-tap-highlight-color: rgba(0, 0, 0, 0); stroke-opacity: 1; stroke-linecap: round; stroke-linejoin: round; -webkit-user-select: text;"></path><path fill="none" stroke="#6c7e83" d="M129,455L140,449L143,449L146,449L149,448L154,448L158,448L162,448L167,448L171,448L176,448L180,448L185,448L190,449L195,450L200,452L205,454L209,456L214,459L219,462L224,465L228,467L233,470L238,473L243,476L249,479L254,482L259,485L264,489L270,493L276,496L282,499L288,503L293,506L299,508L306,511L312,514L318,517L323,519L329,521L334,523L339,525L344,527L349,528L353,530L358,530L362,532L367,533L371,533L376,533L381,533L387,534L392,534L397,534L402,534L406,534L411,534L416,534L420,534L424,534L428,533L432,532L436,530L441,528L445,526L449,525L453,523L458,520L462,518L466,515L469,512L472,510L476,506L480,503L482,500L485,496L488,493L491,489L494,486L497,482L499,478L502,474L504,470L506,467L508,462L510,459L511,455L512,451L513,447L514,443L514,439L515,435L515,431L516,428L516,424L516,420L516,416L516,413L516,409L516,405L516,401L516,398L516,395L515,392L514,389L513,386L511,383L510,380L509,378L507,375L506,372L504,370L503,368L502,366L500,364L499,362L498,361L497,360L496,358L496,357L495,356L495,355L496,355L500,355" stroke-opacity="1" stroke-width="2" stroke-linecap="round" stroke-linejoin="round" style="-webkit-tap-highlight-color: rgba(0, 0, 0, 0); stroke-opacity: 1; stroke-linecap: round; stroke-linejoin: round; -webkit-user-select: text;"></path><path fill="none" stroke="#6c7e83" d="M706,267L707,263L707,266L707,269L707,271L708,275L708,277L708,281L708,284L708,287L708,290L706,292L705,295L703,297L701,300L699,302L696,305L692,308L689,311L685,313L681,316L677,318L673,320L669,322L664,324L659,326L654,328L648,329L642,331L635,332L628,333L622,333L617,333L611,333L605,333L599,333L594,333L589,332L583,331L577,329L571,327L565,325L559,322L553,320L548,317L541,314L535,311L528,308L522,304L516,301L509,297L502,294L496,291L490,287L484,284L477,280L471,277L466,275L460,272L455,269L449,267L444,266L439,265L434,264L429,263L424,263L419,263L414,262L409,262L404,262L400,262L395,262L391,262L386,262L382,262L378,262L374,263L370,264L366,265L361,266L358,268L354,270L350,271L346,273L343,275L340,277L336,280L334,282L331,284L329,286L326,289L324,291L322,293L319,295L317,298L315,300L313,303L311,305L309,308L307,311L306,314L305,316L303,319L302,321L301,323L300,326L298,328L298,330L296,333L295,335L294,338L293,341L292,343L291,346L290,350L289,353L288,356L287,360L286,363L285,367L285,370L284,373L283,376L283,380L282,383L282,387L281,391L280,394L280,398L280,401L279,405L278,408L278,412L277,416L277,419L276,423L276,427L275,431L275,435L274,438L273,442L273,445L272,449L271,452L271,456L270,460L269,464L269,467L268,471L267,474L266,478L266,482L265,484L264,488L263,491L262,494L261,496L261,499L259,501L259,504L257,506L256,509L256,511L255,513L254,516L253,518L253,520L252,522L251,523L251,525L250,526L250,527L250,528" stroke-opacity="1" stroke-width="2" stroke-linecap="round" stroke-linejoin="round" style="-webkit-tap-highlight-color: rgba(0, 0, 0, 0); stroke-opacity: 1; stroke-linecap: round; stroke-linejoin: round; -webkit-user-select: text;"></path><path fill="none" stroke="#6c7e83" d="M242,521L243,523L244,527L245,530L246,535L247,540L248,545L249,550L249,555L249,560L249,566L248,571L246,576L243,581L241,586L238,592L234,597L232,602L228,607L225,613L221,618L217,623L213,628L210,632L205,637L201,640L197,644L193,648L189,651L185,654L181,657L176,660L173,662L169,664L165,667L161,669L158,671L154,674L150,676L147,678L142,680L139,682L135,684L130,686L127,687L123,689L119,691L116,693L112,694L108,696L105,698L101,701L98,703L95,705L91,708L88,710L86,712L83,715L80,718L78,721L76,724L74,728L72,731L71,734L69,737L68,741L67,744L66,748L65,752L64,756L64,759L63,763L62,767L62,771L62,776L62,780L62,784L62,788L62,792L63,796L64,800L65,804L67,807L68,810L70,813L71,816L73,818L74,820L76,822L78,824L80,825L82,827L84,829L87,830L90,832L93,833L96,834L98,836L102,836L105,837L109,838L113,839L117,839L121,839L125,840L130,840L135,840L140,840L145,840L149,840L154,840L159,840L164,840L169,840L174,840L178,840L183,840L188,840L193,840L197,840L201,840L206,839L210,839L215,839L219,839L225,839L236,839L251,839L273,837L296,834" stroke-opacity="1" stroke-width="2" stroke-linecap="round" stroke-linejoin="round" style="-webkit-tap-highlight-color: rgba(0, 0, 0, 0); stroke-opacity: 1; stroke-linecap: round; stroke-linejoin: round; -webkit-user-select: text;"></path></svg>