<svg height="906" version="1.1" width="768" xmlns="http://www.w3.org/2000/svg" xmlns:xlink="http://www.w3.org/1999/xlink" style="overflow: hidden; position: relative; -webkit-user-select: text;"><desc style="-webkit-tap-highlight-color: rgba(0, 0, 0, 0); -webkit-user-select: text;">Created with Raphaël 2.2.0</desc><defs style="-webkit-tap-highlight-color: rgba(0, 0, 0, 0); -webkit-user-select: text;"></defs><path fill="none" stroke="#6c7e83" d="M36,46L47,46L51,46L54,46L58,46L62,46L67,46L71,46L76,46L81,46L86,46L91,46L96,46L101,46L105,46L110,46L115,46L120,46L125,46L131,47L136,47L142,47L147,47L154,47L160,47L166,47L171,47L178,47L184,47L191,47L197,47L204,46L210,46L217,46L224,45L231,45L238,44L245,44L252,44L259,44L266,44L273,44L279,44L286,44L293,44L300,43L306,43L314,43L322,42L329,42L337,42L346,41L353,41L361,41L369,41L377,41L385,41L392,41L399,41L406,41L412,41L419,41L425,41L431,41L438,41L444,41L451,41L458,41L464,41L471,41L478,41L485,41L492,41L498,41L504,41L510,41L516,41L521,41L527,41L532,40L537,40L542,40L548,40L553,40L559,39L564,39L570,39L575,39L580,39L585,39L590,39L595,39L600,39L605,39L611,39L616,38L621,38L626,38L631,38L637,38L642,38L647,38L651,38L656,38L661,38L665,38L669,38L674,38L679,38L683,38L687,38L691,38L696,38L699,38L703,38L707,38L711,38L714,38L718,38L720,38L723,38L726,38L728,38L729,38L730,38L731,38L729,38" stroke-opacity="1" stroke-width="3" stroke-linecap="round" stroke-linejoin="round" style="-webkit-tap-highlight-color: rgba(0, 0, 0, 0); stroke-opacity: 1; stroke-linecap: round; stroke-linejoin: round; -webkit-user-select: text;"></path><path fill="none" stroke="#6c7e83" d="M56,90L56,94L59,94L62,94L66,94L70,94L76,94L81,94L88,94L93,94L101,94L107,94L113,94L118,94L125,94L132,94L138,94L144,94L151,94L158,94L166,94L173,94L181,94L191,93L198,93L208,93L217,93L227,92L237,92L247,92L257,92L268,92L278,92L290,92L301,92L314,92L324,91L338,91L350,91L361,90L375,90L385,90L399,89L409,89L421,88L431,88L441,88L451,88L459,88L469,88L478,88L485,88L494,87L502,87L510,87L519,86L526,86L535,86L543,86L550,85L558,85L566,85L574,85L582,85L589,85L596,84L604,84L611,84L618,84L624,83L630,83L637,83L642,83L648,83L653,83L658,83L662,83L667,83L671,82L675,82L679,82L683,82L687,82L691,82L695,82L699,82L703,82L706,82L710,82L713,82L716,82L718,82L719,82L720,82" stroke-opacity="1" stroke-width="3" stroke-linecap="round" stroke-linejoin="round" style="-webkit-tap-highlight-color: rgba(0, 0, 0, 0); stroke-opacity: 1; stroke-linecap: round; stroke-linejoin: round; -webkit-user-select: text;"></path><path fill="none" stroke="#6c7e83" d="M23,141L24,140L27,140L30,140L35,140L39,140L44,140L49,140L56,140L62,140L69,140L76,140L84,140L91,140L100,140L109,140L117,140L127,140L136,140L143,140L152,140L161,140L169,140L178,140L188,140L197,140L206,140L216,140L225,140L234,140L244,140L252,140L262,140L272,140L282,140L293,140L303,140L314,140L325,140L336,140L347,140L358,140L369,140L380,140L390,140L401,139L411,139L421,139L430,138L440,138L450,137L460,137L469,137L479,137L486,137L496,137L505,137L512,137L522,137L529,137L537,137L546,137L554,137L562,137L570,136L577,136L584,136L592,136L599,135L606,135L612,135L618,135L625,135L630,135L636,135L641,135L647,134L652,134L656,134L661,133L665,133L669,132L673,132L677,132L681,131L685,131L689,131L693,131L696,131L699,131L703,131L706,131L708,131L711,131L713,131L716,130L718,130L719,130L721,130L722,130L723,130L724,130" stroke-opacity="1" stroke-width="3" stroke-linecap="round" stroke-linejoin="round" style="-webkit-tap-highlight-color: rgba(0, 0, 0, 0); stroke-opacity: 1; stroke-linecap: round; stroke-linejoin: round; -webkit-user-select: text;"></path><path fill="none" stroke="#6c7e83" d="M23,201L24,202L27,202L30,202L35,202L42,202L52,202L62,202L71,202L82,202L93,202L103,202L114,202L123,202L133,202L143,202L153,202L163,202L173,202L184,202L195,202L205,202L216,202L227,202L238,202L248,202L259,202L270,202L281,202L292,202L302,202L313,203L323,203L334,203L344,203L355,203L365,203L376,203L387,203L398,203L409,203L421,203L433,203L446,203L457,203L470,203L481,203L493,203L505,203L516,203L528,203L538,203L550,203L560,203L571,203L581,203L591,204L601,204L610,204L618,204L626,204L634,204L642,204L649,204L656,204L662,204L667,204L673,204L678,204L683,204L687,204L691,204L695,204L699,204L703,204L706,203L709,203L712,203L714,203L716,202L718,202L719,202L710,203" stroke-opacity="1" stroke-width="3" stroke-linecap="round" stroke-linejoin="round" style="-webkit-tap-highlight-color: rgba(0, 0, 0, 0); stroke-opacity: 1; stroke-linecap: round; stroke-linejoin: round; -webkit-user-select: text;"></path><path fill="none" stroke="#6c7e83" d="M24,260L28,259L31,259L35,259L39,259L45,259L51,259L57,259L65,259L72,259L80,259L88,259L96,259L105,259L114,259L122,259L132,259L141,259L151,259L161,259L171,258L180,258L190,258L200,258L210,258L221,258L233,258L244,258L256,258L266,258L278,258L288,258L300,258L311,258L322,258L334,258L345,258L357,258L368,258L380,258L392,259L403,259L415,259L426,259L438,259L449,259L460,259L470,259L480,259L491,259L501,260L510,260L520,260L530,260L539,260L548,260L557,260L565,260L574,260L582,260L590,260L598,260L606,260L613,260L621,260L628,260L635,260L642,260L649,260L655,260L661,260L667,261L672,261L677,261L682,261L686,261L691,261L696,261L701,261L705,261L709,261L713,262L717,262L720,262L723,262L726,262L728,262L730,262L732,262L733,262" stroke-opacity="1" stroke-width="3" stroke-linecap="round" stroke-linejoin="round" style="-webkit-tap-highlight-color: rgba(0, 0, 0, 0); stroke-opacity: 1; stroke-linecap: round; stroke-linejoin: round; -webkit-user-select: text;"></path><path fill="none" stroke="#6c7e83" d="M23,330L27,329L30,329L34,329L38,329L44,329L51,329L58,329L65,329L73,329L80,329L88,329L96,329L105,330L113,330L121,331L130,331L139,331L149,331L159,332L169,332L180,332L191,332L202,332L214,333L225,333L237,333L249,333L260,333L271,333L282,334L293,334L303,334L315,334L326,334L337,334L348,334L358,334L369,334L380,334L391,334L402,334L413,334L424,334L436,334L447,334L458,334L470,334L480,333L490,333L501,333L511,333L521,333L531,333L541,333L550,333L560,333L569,333L578,333L587,333L596,333L604,333L612,333L621,333L628,333L636,333L643,333L649,333L655,333L660,333L665,333L670,333L675,333L679,334L683,334L688,334L691,335L696,335L699,335L703,335L706,335L709,335L711,335L714,335L717,335L719,335L721,336L723,336L725,336L727,336L727,337" stroke-opacity="1" stroke-width="3" stroke-linecap="round" stroke-linejoin="round" style="-webkit-tap-highlight-color: rgba(0, 0, 0, 0); stroke-opacity: 1; stroke-linecap: round; stroke-linejoin: round; -webkit-user-select: text;"></path><path fill="none" stroke="#6c7e83" d="M29,394L35,396L37,396L41,396L45,396L51,396L57,396L64,396L69,396L76,396L81,396L87,396L93,396L98,396L103,396L108,396L113,396L118,396L125,396L131,396L137,396L144,396L149,396L157,396L163,396L169,396L175,396L182,396L187,396L193,396L199,396L205,396L212,396L219,396L225,396L232,396L239,396L246,396L252,395L259,395L266,395L273,394L279,394L286,394L293,394L300,394L307,394L314,394L320,394L327,394L332,393L339,393L344,393L350,392L356,392L361,392L367,392L372,392L378,392L383,392L388,392L394,391L400,391L405,391L410,391L415,391L421,391L427,391L433,391L439,391L446,391L452,391L458,391L465,391L472,391L478,391L485,391L491,391L498,391L505,391L511,391L519,391L526,391L533,391L541,391L548,390L556,390L564,390L572,389L579,389L586,388L593,388L599,388L606,387L612,387L618,387L625,386L631,386L638,386L643,386L649,386L655,386L660,386L665,385L670,385L674,385L679,385L684,384L688,384L692,384L696,384L699,384L702,384L706,384L708,384L711,384L714,384L716,384L718,384L720,384L722,384L723,384L724,384L719,384" stroke-opacity="1" stroke-width="3" stroke-linecap="round" stroke-linejoin="round" style="-webkit-tap-highlight-color: rgba(0, 0, 0, 0); stroke-opacity: 1; stroke-linecap: round; stroke-linejoin: round; -webkit-user-select: text;"></path><path fill="none" stroke="#6c7e83" d="M41,467L36,468L33,468L31,468L29,468L28,468L26,468L25,468L27,468L30,468L35,468L42,468L50,468L59,468L66,469L76,469L85,469L94,470L101,471L110,471L117,472L122,472L130,473L136,474L142,474L149,474L157,474L166,474L174,474L183,474L192,474L200,474L210,474L219,474L227,474L236,474L245,474L252,474L261,474L270,474L278,474L287,474L296,474L305,473L314,473L324,473L333,472L343,472L352,472L361,472L369,472L377,472L385,471L394,470L402,469L409,469L418,469L426,468L433,468L441,468L448,467L455,467L463,467L471,466L479,465L486,465L494,465L502,464L509,463L516,463L524,463L530,462L537,462L544,462L551,461L558,461L564,461L571,461L578,460L584,460L591,459L597,459L603,458L609,458L614,457L621,457L626,457L633,457L638,457L643,456L649,456L654,456L659,455L664,455L669,455L674,455L679,455L684,455L688,454L692,454L695,454L699,453L702,453L705,453L708,453L711,453L713,452L716,452L718,452L719,452L721,452L722,452L723,452" stroke-opacity="1" stroke-width="3" stroke-linecap="round" stroke-linejoin="round" style="-webkit-tap-highlight-color: rgba(0, 0, 0, 0); stroke-opacity: 1; stroke-linecap: round; stroke-linejoin: round; -webkit-user-select: text;"></path><path fill="none" stroke="#6c7e83" d="M25,554L34,551L38,551L42,551L47,551L52,551L57,551L64,551L69,551L76,551L82,551L88,551L93,551L98,551L103,551L108,551L113,551L118,551L122,551L130,552L136,552L143,552L150,553L157,553L165,553L173,553L181,554L191,554L198,554L208,554L218,554L227,554L237,554L247,554L256,554L267,554L277,554L287,554L298,554L308,554L319,554L329,554L339,554L349,554L356,554L366,554L375,554L383,554L392,554L402,554L412,553L421,553L431,553L440,552L449,552L457,552L467,552L476,552L483,552L492,552L501,552L509,552L517,552L526,552L535,552L544,552L553,553L562,553L571,553L580,554L589,554L599,554L608,554L616,554L626,555L635,555L643,555L650,555L658,555L665,555L672,556L679,556L685,556L690,556L696,557L701,557L706,557L710,558L714,558L718,558L721,559L725,559L727,559L729,559L730,560L731,560L732,560" stroke-opacity="1" stroke-width="3" stroke-linecap="round" stroke-linejoin="round" style="-webkit-tap-highlight-color: rgba(0, 0, 0, 0); stroke-opacity: 1; stroke-linecap: round; stroke-linejoin: round; -webkit-user-select: text;"></path><path fill="none" stroke="#6c7e83" d="M30,629L22,626L25,626L29,626L34,626L40,626L47,627L53,627L60,627L67,627L74,628L81,628L88,629L95,629L103,629L110,629L117,630L123,630L130,630L137,630L142,630L148,630L155,630L161,630L168,630L174,630L181,630L188,630L195,630L202,630L210,630L217,630L225,630L232,630L242,630L249,630L258,630L266,630L273,630L281,630L289,630L296,630L303,630L310,630L318,630L325,630L331,630L339,630L346,630L353,630L360,630L367,630L374,630L381,630L388,630L395,630L402,630L409,630L417,630L424,631L432,631L440,631L448,631L456,631L464,631L472,631L480,631L488,631L497,631L504,631L512,631L520,631L528,631L536,631L544,631L552,631L559,631L567,631L575,631L582,631L590,631L597,631L604,631L611,631L616,631L622,631L628,631L634,631L639,631L643,631L648,631L653,631L657,631L662,631L666,631L670,631L674,631L678,631L682,631L686,631L689,631L693,631L696,631L699,631L701,631L703,631L706,631L708,631L710,632L711,632L712,632L713,632" stroke-opacity="1" stroke-width="3" stroke-linecap="round" stroke-linejoin="round" style="-webkit-tap-highlight-color: rgba(0, 0, 0, 0); stroke-opacity: 1; stroke-linecap: round; stroke-linejoin: round; -webkit-user-select: text;"></path><path fill="none" stroke="#6c7e83" d="M25,704L30,705L33,705L37,706L42,707L47,708L53,708L59,708L66,709L73,709L80,709L88,710L96,710L105,710L112,710L120,711L129,712L137,712L146,712L155,713L164,713L172,713L183,714L193,714L202,714L211,714L220,714L227,714L236,714L245,714L253,714L262,714L271,714L278,713L289,713L298,713L306,713L316,713L325,713L333,713L343,713L352,713L361,713L370,713L379,712L388,712L397,712L405,712L414,711L421,710L429,710L436,710L444,710L452,709L459,709L467,709L475,709L482,709L490,709L498,709L505,709L513,709L520,709L528,709L535,709L542,709L550,709L557,709L562,709L570,709L576,709L583,709L589,709L596,709L602,709L609,709L616,709L622,710L628,710L633,710L639,710L645,710L650,710L656,711L662,711L667,711L672,711L677,712L682,712L686,712L691,712L694,712L698,712L702,712L706,712L709,712L711,712L714,712L717,712L719,712L721,712L722,712L723,712" stroke-opacity="1" stroke-width="3" stroke-linecap="round" stroke-linejoin="round" style="-webkit-tap-highlight-color: rgba(0, 0, 0, 0); stroke-opacity: 1; stroke-linecap: round; stroke-linejoin: round; -webkit-user-select: text;"></path><path fill="none" stroke="#6c7e83" d="M41,792L44,790L46,790L50,790L54,791L59,791L66,792L72,793L80,793L88,793L95,794L103,794L110,795L118,795L127,796L135,796L143,797L151,797L159,798L167,798L175,798L183,798L193,799L200,799L210,799L219,799L228,799L237,799L247,799L256,799L265,799L275,799L284,799L293,799L302,799L312,798L322,798L331,798L341,797L351,797L362,796L373,796L383,796L394,796L404,795L413,795L422,795L431,795L439,795L447,795L455,795L464,795L472,795L480,795L488,795L497,795L506,795L514,795L524,795L532,795L539,795L548,795L557,795L565,795L573,795L580,795L588,795L594,795L601,795L608,795L615,795L621,795L628,796L634,796L640,796L645,796L651,796L657,797L663,797L668,798L674,798L679,798L684,799L690,799L695,800L699,800L704,800L708,801L711,801L713,801L716,801L718,801L719,801L720,801" stroke-opacity="1" stroke-width="3" stroke-linecap="round" stroke-linejoin="round" style="-webkit-tap-highlight-color: rgba(0, 0, 0, 0); stroke-opacity: 1; stroke-linecap: round; stroke-linejoin: round; -webkit-user-select: text;"></path><path fill="none" stroke="#6c7e83" d="M50,855L55,852L57,852L59,852L62,853L65,854L69,855L73,856L79,857L86,858L93,859L101,860L110,861L119,862L128,863L138,863L147,864L156,865L166,865L175,866L185,866L194,866L204,866L214,866L223,866L233,866L243,866L252,866L262,866L273,866L283,866L293,866L304,866L314,866L324,866L334,866L345,866L355,866L366,866L376,866L386,866L396,866L406,866L415,866L425,866L434,866L444,866L454,866L463,866L472,866L482,866L489,866L497,866L506,866L514,866L521,866L530,866L538,866L546,866L555,866L562,866L570,866L577,866L585,866L592,866L599,866L605,866L611,866L617,866L624,867L630,867L636,867L641,867L647,867L652,867L657,868L662,868L666,868L669,868L674,868L677,868L681,868L685,868L688,868L691,868L694,869L698,869L701,869L704,869L706,869L709,869L711,869L713,869L715,869L716,869L717,869L718,869L719,869L720,869L720,868" stroke-opacity="1" stroke-width="3" stroke-linecap="round" stroke-linejoin="round" style="-webkit-tap-highlight-color: rgba(0, 0, 0, 0); stroke-opacity: 1; stroke-linecap: round; stroke-linejoin: round; -webkit-user-select: text;"></path><path fill="none" stroke="#6c7e83" d="M40,56L46,57L47,57L49,57L51,57L52,58L54,59L55,60L57,61L58,62L59,63L60,64L61,65L62,66L63,68L64,69L66,71L67,72L67,74L68,75L69,76L69,78L70,79L70,80L71,82L71,83L71,84L72,85L72,86L72,88L73,89L73,90L73,91L74,93L74,94L74,95L75,97L75,98L75,100L76,101L76,102L76,104L77,105L77,107L77,108L78,109L78,110L79,112L79,113L79,115L79,116L79,117L80,118L80,120L81,121L81,123L81,124L81,127L82,128L82,130L83,132L83,133L84,135L85,137L86,139L86,140L87,142L88,144L89,146L90,147L91,149L92,151L93,153L95,154L96,156L97,157L98,159L99,161L100,162L101,163L103,165L104,166L105,167L106,168L107,170L108,171L110,172L111,173L112,174L113,175L115,176L116,177L118,178L119,179L121,180L122,181L123,182L125,183L126,183L128,184L130,185L131,185L133,185L135,186L137,187L138,187L140,188L142,189L144,189L146,190L147,190L149,190L151,191L153,191L155,192L157,192L159,192L161,192L164,192L166,192L169,192L171,192L174,192L176,192L178,192L181,192L183,192L186,192L188,192L190,192L192,192L194,192L196,191L198,190L200,190L202,189L204,188L206,187L208,186L210,185L211,184L213,183L215,183L217,182L218,180L220,180L222,179L224,178L225,177L227,176L228,175L229,174L231,173L232,171L234,170L235,169L237,168L239,166L240,165L242,163L243,162L244,161L245,160L246,159L247,158L248,157L249,156L250,156L251,155L252,155L252,154L252,153" stroke-opacity="1" stroke-width="3" stroke-linecap="round" stroke-linejoin="round" style="-webkit-tap-highlight-color: rgba(0, 0, 0, 0); stroke-opacity: 1; stroke-linecap: round; stroke-linejoin: round; -webkit-user-select: text;"></path><path fill="none" stroke="#6c7e83" d="M203,91L205,94L205,96L205,98L205,100L205,102L205,105L206,107L206,110L207,113L208,116L208,119L210,122L210,125L212,128L212,132L214,135L215,139L215,142L216,146L217,149L218,152L219,156L220,159L220,162L221,165L222,168L222,171L223,174L224,177L225,180L226,183L227,187L227,190L228,193L229,196L229,199L230,202L231,205L231,208L232,211L232,213L233,215L234,217L234,219L234,221L235,223L235,225L236,226L236,228L237,229L237,231L237,232L238,234L238,235L239,236L239,237L239,238L240,239L240,240L240,241L241,242L241,243L242,244L242,245L242,246L243,247L244,248" stroke-opacity="1" stroke-width="3" stroke-linecap="round" stroke-linejoin="round" style="-webkit-tap-highlight-color: rgba(0, 0, 0, 0); stroke-opacity: 1; stroke-linecap: round; stroke-linejoin: round; -webkit-user-select: text;"></path><path fill="none" stroke="#6c7e83" d="M320,105L313,102L311,102L308,102L305,102L301,102L298,102L293,102L289,102L284,102L280,102L275,103L270,103L265,104L261,105L256,105L251,107L247,107L243,109L238,110L234,112L229,114L225,116L220,118L217,120L212,122L207,124L203,127L198,129L193,132L189,134L184,138L181,140L177,143L174,146L170,149L167,152L164,155L160,158L157,161L154,164L152,168L149,171L146,175L144,178L141,181L139,184L137,187L135,190L132,193L131,196L129,200L128,202L126,205L125,208L124,211L123,213L122,215L122,217L121,219L120,220L119,222L118,224L118,225L117,226L116,228L115,229L115,231L114,233L114,234L113,235L113,236L112,238L111,240L110,241L110,242L110,243L109,244L109,245L109,246L108,247L108,248L108,249L108,250L108,251L107,251L107,252L107,253L106,253L106,254L106,255L106,256L105,256L105,257L105,258L105,259L104,259L104,260" stroke-opacity="1" stroke-width="3" stroke-linecap="round" stroke-linejoin="round" style="-webkit-tap-highlight-color: rgba(0, 0, 0, 0); stroke-opacity: 1; stroke-linecap: round; stroke-linejoin: round; -webkit-user-select: text;"></path><path fill="none" stroke="#6c7e83" d="M53,149L54,152L54,155L54,159L54,164L54,168L56,173L58,178L60,183L62,187L64,191L66,195L68,199L70,203L73,206L75,209L78,213L80,216L83,219L86,221L88,223L91,225L93,227L95,229L97,230L100,232L102,233L105,234L107,236L110,237L112,238L115,239L118,240L120,241L123,242L126,243L129,243L132,244L135,245L137,245L141,246L144,246L147,246L150,246L153,247L157,247L160,247L164,247L167,247L171,248L174,248L178,248L181,248L185,248L188,248L192,248L195,248L199,248L203,248L207,249L210,249L214,249L218,250L222,250L226,250L230,251L234,251L238,251L242,252L245,253L249,253L253,253L256,254L259,255L263,256L266,257L268,258L271,259L274,260L277,261L279,263L282,264L284,265L287,267L289,269L291,270L294,272L296,274L298,276L300,277L302,279L304,281L305,282L306,284L307,286L309,287L310,289L310,290L311,291L312,293L312,294L313,295L314,297L314,298L315,299L316,300L317,302L317,303L317,304L318,305L318,307L319,307L319,309L320,310L320,311L320,312L321,313L321,314L322,315L322,316L322,317L323,318L323,319L324,321L324,323L325,324L326,326L327,327L327,328L327,329L328,330L328,331" stroke-opacity="1" stroke-width="3" stroke-linecap="round" stroke-linejoin="round" style="-webkit-tap-highlight-color: rgba(0, 0, 0, 0); stroke-opacity: 1; stroke-linecap: round; stroke-linejoin: round; -webkit-user-select: text;"></path><path fill="none" stroke="#6c7e83" d="M329,339L331,336L332,336L334,334L337,332L340,330L343,327L346,324L349,320L352,316L355,313L358,309L361,306L364,302L368,298L371,294L375,291L379,287L382,284L385,280L388,277L391,275L394,271L396,268L398,266L400,263L402,260L404,258L406,254L408,251L411,248L414,244L416,241L419,238L421,235L423,232L426,229L428,226L431,223L433,220L435,218L437,215L439,213L441,211L443,208L444,206L446,204L448,201L450,199L452,196L454,193L456,191L458,189L460,187L462,185L463,183L465,180L468,178L470,176L471,174L473,173L475,170L476,169L477,168L479,166L480,165L482,163L483,162L484,161L485,160L486,158L487,158L488,157L489,156L489,155L490,155L491,155" stroke-opacity="1" stroke-width="3" stroke-linecap="round" stroke-linejoin="round" style="-webkit-tap-highlight-color: rgba(0, 0, 0, 0); stroke-opacity: 1; stroke-linecap: round; stroke-linejoin: round; -webkit-user-select: text;"></path><path fill="none" stroke="#6c7e83" d="M558,152L559,153L559,156L558,159L557,163L555,167L552,171L550,176L547,180L544,185L542,190L539,195L537,199L534,204L531,209L528,214L525,219L522,223L519,227L516,231L513,235L510,238L506,241L503,243L499,246L496,248L492,250L488,252L484,254L480,256L476,257L472,258L467,258L463,259L459,260L454,260L448,260L443,260L438,260L432,260L426,260L420,260L415,260L410,260L404,259L399,257L394,256L389,253L385,251L380,248L375,245L370,242L366,238L361,235L357,231L353,227L350,224L347,219L344,216L341,212L339,208L336,204L334,201L332,197L330,195L329,191L327,189L325,186L324,184L322,182L321,180L320,178L319,176L319,174L317,172L317,170L316,168L315,167L314,165L314,163L313,162L312,161L312,159L311,158L310,157L310,156L309,154L309,153L308,152L308,151L307,151L307,150L306,150" stroke-opacity="1" stroke-width="3" stroke-linecap="round" stroke-linejoin="round" style="-webkit-tap-highlight-color: rgba(0, 0, 0, 0); stroke-opacity: 1; stroke-linecap: round; stroke-linejoin: round; -webkit-user-select: text;"></path><path fill="none" stroke="#6c7e83" d="M282,143L282,144L282,146L282,149L282,153L282,157L283,161L284,166L285,170L286,175L288,179L289,184L290,188L292,193L294,197L296,201L298,205L300,209L302,212L304,215L307,218L309,220L311,223L314,226L316,228L319,230L321,232L324,233L327,234L329,236L331,237L334,238L336,239L339,240L342,241L344,241L347,241L349,242L352,242L354,242L357,242L360,242L362,242L365,242L368,241L371,240L374,238L378,236L381,234L385,232L388,230L391,228L394,226L397,224L400,221L402,219L404,216L407,213L409,211L410,208L412,206L414,203L417,200L419,195L421,192L423,188L426,185L428,181L430,177L432,173L434,170L436,166L438,162L440,158L442,155L444,151L446,147L448,144L450,140L452,136L454,133L455,130L458,127L460,124L462,121L464,118L466,116L468,113L470,111L472,109L474,107L475,105L477,104L480,102L482,101L483,100L486,98L488,97L490,96L492,95L495,94L497,93L499,93L502,93L504,92L507,92L509,92L511,92L514,92L516,92L519,92L521,92L524,92L527,92L530,92L532,93L535,93L537,94L540,95L543,97L545,98L548,100L550,101L553,102L555,104L558,106L560,107L562,109L564,111L566,112L568,114L570,116L572,118L573,120L575,123L576,125L577,127L579,130L579,132L581,135L582,137L582,140L583,143L584,146L584,149L585,151L585,154L586,157L586,160L587,163L587,166L587,168L587,170L587,173L587,176L587,178L587,180L587,183L587,185L586,187L585,190L584,192L584,195L583,197L582,199L581,200L580,203L579,204L579,207L578,209L577,210L576,212L575,214L574,217L573,218L571,220L570,223L569,225L567,227L566,229L565,231L563,234L562,236L561,238L560,239L558,241L557,243L556,244L555,246L554,247L553,248L552,249L551,251" stroke-opacity="1" stroke-width="3" stroke-linecap="round" stroke-linejoin="round" style="-webkit-tap-highlight-color: rgba(0, 0, 0, 0); stroke-opacity: 1; stroke-linecap: round; stroke-linejoin: round; -webkit-user-select: text;"></path><path fill="none" stroke="#6c7e83" d="M657,136L653,137L650,138L647,139L643,141L638,143L633,146L628,148L622,151L615,153L609,156L602,160L596,163L589,167L582,171L575,175L568,178L562,182L555,186L549,190L543,193L538,197L533,200L527,202L522,205L517,208L513,210L508,212L504,215L499,217L494,220L490,222L486,225L482,227L477,229L473,232L469,234L465,236L462,238L458,240L454,242L451,244L448,246L446,247L443,248L441,249L438,251L436,252L434,253L432,254L431,256L430,256L429,257L428,257L428,258L427,258" stroke-opacity="1" stroke-width="3" stroke-linecap="round" stroke-linejoin="round" style="-webkit-tap-highlight-color: rgba(0, 0, 0, 0); stroke-opacity: 1; stroke-linecap: round; stroke-linejoin: round; -webkit-user-select: text;"></path><path fill="none" stroke="#6c7e83" d="M421,142L422,146L422,149L422,153L422,157L424,162L426,167L428,172L430,177L433,182L435,187L437,191L439,195L442,200L444,204L446,208L448,212L451,216L453,219L455,222L458,225L460,228L462,231L464,233L467,235L469,237L472,238L474,241L477,242L480,243L482,245L485,246L488,248L491,248L494,250L497,251L499,251L502,252L505,252L508,253L511,253L513,253L516,253L519,253L522,253L526,253L529,253L532,253L536,253L538,253L541,253L544,253L547,253L550,253L553,252L556,251L558,251L561,249L564,248L566,247L569,246L572,245L575,243L577,242L580,240L583,238L585,237L588,235L590,234L592,232L594,230L597,228L599,225L601,222L604,219L606,217L608,213L610,210L612,207L614,204L616,202L617,199L618,196L620,194L621,191L622,188L623,185L624,182L625,178L626,175L628,171L628,167L630,163L630,158L631,155L632,151L633,148L633,144L633,141L634,138L634,135L635,133L635,130L635,128L635,126L635,124L636,122L636,119L636,117L636,115L636,113L636,112L636,110L636,108L636,106L636,105L637,103L637,102L637,100L637,99L637,98L637,97L637,95L637,94L638,94" stroke-opacity="1" stroke-width="3" stroke-linecap="round" stroke-linejoin="round" style="-webkit-tap-highlight-color: rgba(0, 0, 0, 0); stroke-opacity: 1; stroke-linecap: round; stroke-linejoin: round; -webkit-user-select: text;"></path><path fill="none" stroke="#6c7e83" d="M725,39L722,35L720,35L716,35L711,34L706,34L699,33L692,32L686,32L679,31L674,31L668,31L663,31L657,31L652,31L648,32L643,34L638,36L632,39L627,42L621,44L616,48L612,51L607,54L603,58L598,62L594,66L589,71L584,75L580,79L576,85L572,89L567,94L564,99L560,104L557,108L553,112L550,117L547,121L543,124L540,129L537,132L533,135L530,139L526,143L522,147L518,151L514,154L510,157L506,161L502,163L498,166L494,168L491,170L487,173L483,175L478,176L474,178L470,180L465,181L460,182L456,183L451,183L447,184L442,184L438,184L433,184L429,184L424,184L420,184L416,183L412,182L408,180L404,178L401,176L397,174L393,172L390,170L387,167L384,165L381,162L378,159L375,156L373,154L371,151L370,148L368,145L366,142L365,139L363,136L362,133L361,130L359,127L358,124L357,121L356,118L356,115L355,111L354,108L353,105L353,102L352,99L352,96L351,93L351,91L350,88L350,86L349,83L349,82L349,80L348,78L348,76L348,75L347,73L347,71L347,68L346,66L346,64L346,62L346,61L346,59L345,57L345,56L345,55L345,54" stroke-opacity="1" stroke-width="3" stroke-linecap="round" stroke-linejoin="round" style="-webkit-tap-highlight-color: rgba(0, 0, 0, 0); stroke-opacity: 1; stroke-linecap: round; stroke-linejoin: round; -webkit-user-select: text;"></path><path fill="none" stroke="#6c7e83" d="M376,37L382,35L385,35L389,37L393,39L397,42L402,44L407,47L411,50L416,53L421,57L427,61L432,63L438,68L443,71L449,75L455,79L459,82L465,86L470,90L475,93L480,96L486,100L490,103L496,107L501,111L506,115L510,118L515,122L520,126L524,129L528,132L533,136L536,138L540,141L544,144L547,146L550,149L554,152L557,154L560,157L563,160L566,162L569,165L572,167L575,169L577,171L580,173L582,175L585,177L587,179L589,181L592,183L594,185L596,187L597,189L599,191L601,192L604,195L606,196L608,198L609,200L611,201L613,202L614,203L616,205L617,206L618,207L619,208L620,209L621,209L622,209" stroke-opacity="1" stroke-width="3" stroke-linecap="round" stroke-linejoin="round" style="-webkit-tap-highlight-color: rgba(0, 0, 0, 0); stroke-opacity: 1; stroke-linecap: round; stroke-linejoin: round; -webkit-user-select: text;"></path><path fill="none" stroke="#6c7e83" d="M526,51L519,51L516,51L512,51L508,51L503,51L499,51L494,51L491,52L487,54L483,55L480,56L476,59L471,61L468,64L465,66L461,70L459,73L456,77L453,81L450,85L448,89L445,93L443,97L441,102L438,106L436,110L435,114L433,118L431,122L430,127L429,131L428,135L427,139L426,144L426,148L425,152L425,156L425,161L425,165L425,168L425,173L425,176L425,180L425,185L425,188L425,192L425,197L426,200L426,204L427,208L428,212L429,216L431,219L432,223L434,227L435,230L436,234L438,237L439,240L441,243L443,247L444,250L446,253L448,256L450,259L451,262L453,265L455,267L457,270L459,273L460,275L463,278L464,280L466,283L468,285L470,287L472,290L474,291L476,294L478,296L480,297L482,299L484,301L486,303L487,305L490,307L491,309L493,310L495,312L497,314L499,315L502,317L504,319L506,320L508,322L510,323L512,325L514,326L516,327L517,328L519,330L520,331L522,332L523,333L525,334L526,335L527,335L528,336L529,336L531,336" stroke-opacity="1" stroke-width="3" stroke-linecap="round" stroke-linejoin="round" style="-webkit-tap-highlight-color: rgba(0, 0, 0, 0); stroke-opacity: 1; stroke-linecap: round; stroke-linejoin: round; -webkit-user-select: text;"></path><path fill="none" stroke="#6c7e83" d="M553,254L551,261L552,263L554,265L556,268L559,271L562,274L565,277L567,280L570,284L572,287L575,291L576,295L578,299L579,302L580,307L581,310L581,314L582,318L582,321L582,325L582,328L582,332L582,335L581,339L579,342L578,345L576,349L574,352L572,355L569,358L566,361L563,364L560,366L556,368L553,371L548,373L545,375L541,376L536,377L532,379L528,379L524,380L520,380L516,380L512,380L509,380L505,380L502,380L498,379L494,377L491,375L487,373L484,370L480,368L477,366L473,363L469,360L465,356L462,353L458,350L453,346L450,343L446,340L442,336L438,333L436,330L432,327L429,324L425,321L422,318L419,314L415,311L411,307L407,303L403,300L399,296L395,292L390,289L386,286L382,283L378,280L373,278L369,276L366,274L362,273L358,271L354,270L351,269L346,268L342,268L338,268L334,268L330,268L325,268L321,268L317,268L313,268L310,268L306,268L303,269L300,270L297,271L293,273L290,274L287,275L284,276L280,278L278,280L275,282L272,284L269,285L266,287L263,289L261,291L258,293L256,295L254,297L252,299L250,301L249,303L247,305L246,307L244,309L243,310L242,312L241,314L240,315L239,317L238,318L237,319L237,321L236,322L235,323L234,324L234,325L233,326L232,326L232,327L232,326" stroke-opacity="1" stroke-width="3" stroke-linecap="round" stroke-linejoin="round" style="-webkit-tap-highlight-color: rgba(0, 0, 0, 0); stroke-opacity: 1; stroke-linecap: round; stroke-linejoin: round; -webkit-user-select: text;"></path><path fill="none" stroke="#6c7e83" d="M156,293L160,297L163,299L168,302L172,304L177,307L182,309L187,312L193,315L198,318L203,321L208,324L213,326L218,330L223,333L228,336L232,340L237,343L242,346L246,350L251,353L255,357L260,360L264,364L270,367L275,370L280,374L285,378L290,381L295,384L301,388L305,392L310,394L316,398L321,401L326,404L330,408L335,411L340,414L345,417L349,420L354,423L358,426L362,429L366,432L370,435L373,437L377,439L380,441L383,443L387,445L390,448L392,450L395,451L398,453L401,455L404,457L406,458L409,460L411,461L413,462L414,464L416,465L418,466L419,467L421,468L422,469L424,471L425,472L426,472" stroke-opacity="1" stroke-width="3" stroke-linecap="round" stroke-linejoin="round" style="-webkit-tap-highlight-color: rgba(0, 0, 0, 0); stroke-opacity: 1; stroke-linecap: round; stroke-linejoin: round; -webkit-user-select: text;"></path><path fill="none" stroke="#6c7e83" d="M434,394L430,400L428,403L425,406L422,409L419,412L416,416L413,418L410,421L407,424L403,427L400,429L395,432L391,435L387,438L383,440L378,442L373,444L368,446L363,448L358,450L353,451L348,453L342,455L338,455L333,456L329,457L324,457L320,457L317,458L313,458L310,458L306,458L302,458L299,458L295,458L292,458L288,457L285,456L281,455L278,454L274,452L271,450L268,448L264,446L261,444L258,442L255,440L252,438L249,435L246,432L244,429L241,426L238,423L235,420L233,417L231,414L229,411L227,408L225,404L224,401L222,397L220,394L218,391L216,387L215,385L213,382L212,379L210,377L209,374L208,372L207,370L206,368L206,367L205,365L205,364L204,364L204,363L204,362L203,362L203,361L203,360L202,359L202,358L201,357L200,356L200,355L200,353L199,352L198,350L198,349L198,348L197,347L197,346L196,345L196,344L195,343L195,342L195,341" stroke-opacity="1" stroke-width="3" stroke-linecap="round" stroke-linejoin="round" style="-webkit-tap-highlight-color: rgba(0, 0, 0, 0); stroke-opacity: 1; stroke-linecap: round; stroke-linejoin: round; -webkit-user-select: text;"></path><path fill="none" stroke="#6c7e83" d="M244,249L246,248L248,251L249,254L251,257L253,260L254,264L255,269L256,274L256,279L256,285L256,290L256,296L256,301L256,306L256,310L256,315L255,319L253,324L251,328L249,332L247,336L245,340L242,343L239,347L235,350L232,355L227,358L224,362L220,365L216,369L212,372L208,375L204,378L200,380L196,382L192,384L188,386L184,388L181,389L177,391L173,392L169,394L166,394L163,396L159,397L156,398L152,399L148,399L144,401L140,402L136,403L131,404L127,405L122,406L118,408L115,409L111,411L108,412L104,413L101,415L99,416L96,418L94,419L92,421L90,422L87,424L85,426L83,428L81,430L79,432L78,434L76,437L75,440L74,443L72,445L71,448L71,451L70,454L69,457L68,460L67,464L67,467L66,470L66,474L66,477L66,480L66,483L66,485L66,488L66,491L66,494L66,497L66,500L66,502L67,505L67,507L68,510L69,513L70,515L71,518L73,520L74,523L76,524L77,527L79,528L80,530L81,532L83,534L84,535L85,537L86,539L88,540L88,541L90,542L91,544L91,545L92,546L93,547L94,548L95,548L95,547" stroke-opacity="1" stroke-width="3" stroke-linecap="round" stroke-linejoin="round" style="-webkit-tap-highlight-color: rgba(0, 0, 0, 0); stroke-opacity: 1; stroke-linecap: round; stroke-linejoin: round; -webkit-user-select: text;"></path><path fill="none" stroke="#6c7e83" d="M48,474L50,475L54,475L57,475L62,473L67,471L73,469L79,466L85,464L91,461L97,459L105,457L113,455L120,452L127,450L135,448L141,446L147,444L154,442L160,440L166,438L173,436L179,434L185,432L192,429L198,427L205,425L211,423L218,421L224,420L230,418L235,417L241,415L245,414L250,413L254,412L258,411L261,410L264,409L267,409L269,408L270,408L271,407L272,407" stroke-opacity="1" stroke-width="3" stroke-linecap="round" stroke-linejoin="round" style="-webkit-tap-highlight-color: rgba(0, 0, 0, 0); stroke-opacity: 1; stroke-linecap: round; stroke-linejoin: round; -webkit-user-select: text;"></path><path fill="none" stroke="#6c7e83" d="M312,406L317,400L317,398L317,395L315,393L314,389L311,385L308,381L305,377L302,372L298,366L294,361L289,356L285,352L280,347L275,342L269,338L263,333L257,329L251,326L244,322L237,319L229,316L222,314L215,311L207,310L200,309L192,309L182,309L174,309L165,309L157,310L149,313L141,316L135,319L128,322L124,325L120,329L115,333L112,338L109,342L107,347L104,352L102,357L100,362L98,365L97,370L96,373L95,377L94,382L94,386L94,391L94,395L94,399L94,404L94,409L94,413L94,418L95,422L96,426L98,429L99,433L101,437L102,440L104,444L106,447L108,451L110,454L112,457L114,460L116,463L118,466L120,468L121,471L122,473L124,474L125,476L125,477L126,477L126,478L126,477" stroke-opacity="1" stroke-width="3" stroke-linecap="round" stroke-linejoin="round" style="-webkit-tap-highlight-color: rgba(0, 0, 0, 0); stroke-opacity: 1; stroke-linecap: round; stroke-linejoin: round; -webkit-user-select: text;"></path><path fill="none" stroke="#6c7e83" d="M69,327L69,330L69,333L69,338L69,343L71,349L74,355L76,360L80,367L84,372L87,377L91,382L95,388L99,393L103,398L108,403L113,407L118,411L123,416L128,419L133,423L138,426L144,428L149,431L155,434L160,436L166,439L172,441L178,443L184,444L190,446L195,447L201,448L207,449L212,450L218,451L224,452L230,453L236,454L242,455L247,456L253,457L258,459L263,461L269,462L275,464L280,466L285,468L290,470L294,472L299,474L302,476L306,479L310,481L313,483L317,485L319,488L322,490L325,492L327,494L329,496L331,499L333,500L334,502L336,504L337,506L338,508L339,509L341,511L341,513L342,514L343,516L344,517L344,519L345,520L346,522L346,523L347,525L347,527L348,528L348,530L349,531L349,533L349,534L350,536L350,537L350,539L350,540L351,542L351,543L351,544L351,545L351,547L351,549L352,550L352,551L352,552L352,553L352,554L353,552" stroke-opacity="1" stroke-width="3" stroke-linecap="round" stroke-linejoin="round" style="-webkit-tap-highlight-color: rgba(0, 0, 0, 0); stroke-opacity: 1; stroke-linecap: round; stroke-linejoin: round; -webkit-user-select: text;"></path><path fill="none" stroke="#6c7e83" d="M400,556L400,551L400,550L401,549L401,547L402,547L402,545L403,544L404,542L405,540L407,538L408,536L409,533L411,530L412,527L414,524L417,520L419,516L421,513L423,509L425,506L427,502L429,499L431,495L434,491L436,488L437,484L439,481L441,478L443,474L445,472L446,468L448,465L450,462L451,459L453,455L454,452L455,449L457,446L458,443L459,440L460,437L461,434L462,431L463,428L464,426L465,424L466,421L468,420L468,418L470,416L470,414L471,413L472,411L473,409L473,408L474,407L474,406L475,405L479,405" stroke-opacity="1" stroke-width="3" stroke-linecap="round" stroke-linejoin="round" style="-webkit-tap-highlight-color: rgba(0, 0, 0, 0); stroke-opacity: 1; stroke-linecap: round; stroke-linejoin: round; -webkit-user-select: text;"></path><path fill="none" stroke="#6c7e83" d="M569,390L572,392L572,396L570,400L569,405L568,410L567,415L565,421L563,426L561,433L558,439L555,445L553,451L550,456L547,462L544,467L541,472L538,476L535,481L531,486L527,490L522,495L518,499L514,502L510,506L505,508L500,511L495,513L490,515L486,517L481,518L477,518L472,519L467,520L462,520L457,520L453,520L448,520L443,520L440,520L436,518L433,517L429,516L426,513L423,512L419,510L417,507L414,505L411,502L408,500L406,497L404,494L402,491L400,487L397,483L395,478L393,475L391,471L389,467L388,462L387,458L385,454L385,450L384,445L383,440L383,436L382,431L382,426L381,422L381,418L381,413L381,409L381,406L380,402L380,398L380,394L380,391L380,387L380,384L380,381L380,377L380,375L380,371L380,368L380,365L380,362L380,360L380,357L380,354L380,352L380,350L380,348L380,345L380,344L380,343L380,342L380,341L380,340" stroke-opacity="1" stroke-width="3" stroke-linecap="round" stroke-linejoin="round" style="-webkit-tap-highlight-color: rgba(0, 0, 0, 0); stroke-opacity: 1; stroke-linecap: round; stroke-linejoin: round; -webkit-user-select: text;"></path><path fill="none" stroke="#6c7e83" d="M325,328L327,332L327,336L328,340L329,344L330,350L332,356L334,362L336,367L339,375L342,380L345,386L349,392L352,397L356,403L360,408L364,413L368,417L373,421L378,425L382,428L387,431L392,434L396,436L401,438L405,440L409,441L414,442L418,442L421,443L425,443L428,443L431,443L435,443L438,441L441,440L443,438L446,436L449,434L451,432L454,430L457,428L459,426L461,424L463,422L465,420L467,417L469,415L471,412L472,410L475,407L476,404L478,401L480,398L482,395L483,392L485,389L487,386L488,383L490,379L492,376L494,372L495,369L497,365L498,362L499,358L501,355L502,351L503,347L504,343L506,340L507,337L508,333L510,330L511,327L513,324L514,321L516,318L517,315L519,313L521,310L522,307L524,304L526,302L528,299L529,297L531,295L533,293L535,291L537,289L539,287L541,285L543,282L545,281L548,279L550,277L551,276L553,274L555,273L557,272L559,270L560,270L562,269L563,268L565,267L566,266L567,266L567,265" stroke-opacity="1" stroke-width="3" stroke-linecap="round" stroke-linejoin="round" style="-webkit-tap-highlight-color: rgba(0, 0, 0, 0); stroke-opacity: 1; stroke-linecap: round; stroke-linejoin: round; -webkit-user-select: text;"></path><path fill="none" stroke="#6c7e83" d="M432,264L437,268L439,270L443,273L446,277L450,280L454,285L458,290L461,294L466,299L470,303L474,309L478,314L482,318L485,322L490,328L494,333L498,338L502,343L507,348L510,352L514,357L518,361L521,366L525,370L528,375L531,379L534,384L537,389L540,393L543,396L546,401L549,404L551,408L554,412L557,416L560,419L562,422L565,426L567,431L570,434L573,438L575,442L578,446L580,449L583,452L586,456L588,459L591,463L593,466L595,469L597,473L599,476L601,479L603,483L605,486L607,490L610,493L612,496L614,499L616,503L618,506L621,508L623,511L625,514L626,516L628,519L630,521L632,524L633,526L635,528L636,531L638,533L639,535L640,537L642,538L643,540L644,541L645,543L645,545L647,546L647,547L648,548L649,550L650,550L650,552L651,552L652,552" stroke-opacity="1" stroke-width="3" stroke-linecap="round" stroke-linejoin="round" style="-webkit-tap-highlight-color: rgba(0, 0, 0, 0); stroke-opacity: 1; stroke-linecap: round; stroke-linejoin: round; -webkit-user-select: text;"></path><path fill="none" stroke="#6c7e83" d="M713,382L714,385L714,388L714,391L713,394L711,397L710,401L708,404L706,408L703,413L701,417L698,421L695,426L692,430L688,435L684,440L679,445L674,450L669,455L664,460L660,463L655,468L649,472L644,476L638,479L633,483L626,486L621,490L615,492L609,494L604,496L598,498L593,499L587,500L581,501L575,501L569,502L562,503L555,504L548,505L542,506L536,507L529,508L523,509L516,510L508,511L502,513L494,513L487,515L480,516L472,518L464,519L456,521L449,523L442,525L436,526L431,528L426,530L421,531L416,533L411,535L407,537L404,539L400,541L396,543L393,546L390,548L387,550L384,552L381,555L378,557L376,559L373,562L371,564L369,566L368,568L366,570L364,573L363,575L361,578L360,581L359,583L358,586L357,588L356,591L356,593L355,596L355,598L354,600L354,602L353,603L353,605L353,607L352,608L352,610L352,612L352,613L351,615L351,616L351,617L351,619L351,620L351,621L351,623L351,625L351,626" stroke-opacity="1" stroke-width="3" stroke-linecap="round" stroke-linejoin="round" style="-webkit-tap-highlight-color: rgba(0, 0, 0, 0); stroke-opacity: 1; stroke-linecap: round; stroke-linejoin: round; -webkit-user-select: text;"></path><path fill="none" stroke="#6c7e83" d="M485,468L484,472L484,474L484,477L484,481L484,486L484,491L484,496L484,501L484,506L484,511L484,517L484,522L484,527L484,532L484,537L484,542L484,547L484,551L483,556L483,561L483,565L483,569L482,574L482,578L482,582L482,586L482,589L482,593L482,597L482,601L482,604L482,608L482,611L482,615L482,619L482,623L482,626L482,630L482,633L482,637L482,640L482,644L482,647L482,650L482,653L482,655L482,658L482,660L482,662L482,664L482,666L482,669L482,671L482,673L482,674L482,676L483,678L483,679L483,681L483,682L483,684L483,685L483,686L483,688L484,689L484,690L484,691L484,688" stroke-opacity="1" stroke-width="3" stroke-linecap="round" stroke-linejoin="round" style="-webkit-tap-highlight-color: rgba(0, 0, 0, 0); stroke-opacity: 1; stroke-linecap: round; stroke-linejoin: round; -webkit-user-select: text;"></path><path fill="none" stroke="#6c7e83" d="M596,549L594,551L594,554L593,558L591,563L587,569L584,574L581,579L578,584L575,589L572,594L569,599L565,604L562,608L558,613L555,618L552,622L548,626L545,630L541,635L538,639L534,642L531,646L527,650L524,654L521,657L518,660L515,663L513,666L510,668L507,670L504,672L502,674L499,676L497,677L494,678L492,680L489,681L487,682L484,683L480,684L477,686L474,686L471,687L467,688L464,689L460,690L457,690L453,691L449,691L445,691L440,692L436,692L432,692L427,692L423,692L419,692L414,692L410,692L406,691L402,690L397,688L392,687L388,686L384,684L380,681L375,679L370,676L365,674L361,671L356,668L351,665L347,661L343,659L339,656L334,652L330,649L326,645L321,641L317,637L313,634L310,630L306,626L302,623L299,619L296,615L293,611L291,608L288,604L286,601L284,598L282,596L280,593L279,591L278,588L276,586L275,584L274,582L273,580L271,578L270,576L269,575L268,573L268,571L267,570L266,568L265,567L265,565L264,563L263,562L263,561" stroke-opacity="1" stroke-width="3" stroke-linecap="round" stroke-linejoin="round" style="-webkit-tap-highlight-color: rgba(0, 0, 0, 0); stroke-opacity: 1; stroke-linecap: round; stroke-linejoin: round; -webkit-user-select: text;"></path><path fill="none" stroke="#6c7e83" d="M407,545L407,552L407,555L407,559L404,564L403,569L400,574L399,579L397,584L394,589L391,594L388,598L385,602L383,605L378,609L375,611L372,614L368,616L364,619L361,621L357,623L353,625L349,627L345,629L340,631L336,633L332,635L327,637L323,639L319,641L314,643L310,644L305,646L301,648L296,649L292,651L286,652L283,654L278,655L274,656L271,657L267,658L263,659L259,660L256,661L252,662L248,663L244,664L241,666L237,666L233,668L229,669L226,671L222,672L219,674L215,675L212,677L208,678L205,681L202,682L199,684L195,686L193,688L190,691L187,693L183,695L180,698L177,701L175,703L173,706L171,708L169,711L167,713L166,716L164,718L163,721L161,724L159,727L158,729L157,732L156,735L154,737L153,739L152,742L152,744L151,747L150,749L149,752L149,754L148,756L147,758L147,760L146,762L146,764L145,766L145,768L145,769L144,771L144,772L144,774L143,775L143,777L143,778L143,779L143,780L143,781L143,783L143,784L143,785L143,786L143,787L143,788L143,789L143,790L143,788" stroke-opacity="1" stroke-width="3" stroke-linecap="round" stroke-linejoin="round" style="-webkit-tap-highlight-color: rgba(0, 0, 0, 0); stroke-opacity: 1; stroke-linecap: round; stroke-linejoin: round; -webkit-user-select: text;"></path><path fill="none" stroke="#6c7e83" d="M51,708L54,711L58,713L62,716L67,719L72,723L78,727L85,730L92,734L99,738L106,741L113,744L119,747L126,749L133,752L140,755L145,757L152,760L157,762L164,765L169,767L174,770L180,772L185,775L191,777L197,781L202,783L209,785L215,788L222,791L228,794L235,797L242,800L248,803L255,807L261,810L268,813L274,816L280,819L286,823L292,826L298,829L303,832L309,834L314,837L319,840L324,842L329,845L333,847L338,849L343,851L348,853L353,856L358,858L363,859L368,861L372,863L376,864L379,866L381,867L383,867L384,868L385,868L385,866L387,863" stroke-opacity="1" stroke-width="3" stroke-linecap="round" stroke-linejoin="round" style="-webkit-tap-highlight-color: rgba(0, 0, 0, 0); stroke-opacity: 1; stroke-linecap: round; stroke-linejoin: round; -webkit-user-select: text;"></path><path fill="none" stroke="#6c7e83" d="M531,734L521,726L517,725L512,722L507,721L499,719L492,717L485,716L478,715L471,714L464,713L457,713L448,713L441,713L431,713L423,713L414,713L406,713L397,715L389,716L380,718L371,720L363,723L355,725L347,727L340,729L333,732L326,734L318,738L312,741L305,745L299,749L293,753L288,756L284,761L280,764L276,768L273,773L269,776L266,780L263,784L259,787L257,790L254,793L251,798L249,801L246,804L244,807L241,811L239,815L237,818L234,822L232,825L230,829L229,832L227,835L226,838L224,841L223,844L222,846L220,848L220,850L219,851L218,853L217,854L217,855L216,856L216,857L215,858L215,859L215,857" stroke-opacity="1" stroke-width="3" stroke-linecap="round" stroke-linejoin="round" style="-webkit-tap-highlight-color: rgba(0, 0, 0, 0); stroke-opacity: 1; stroke-linecap: round; stroke-linejoin: round; -webkit-user-select: text;"></path><path fill="none" stroke="#6c7e83" d="M475,712L472,711L469,711L465,711L460,711L453,711L446,712L439,713L430,716L421,720L411,725L402,730L395,734L387,737L381,742L375,746L368,750L362,756L357,761L351,766L347,772L342,777L338,783L333,788L329,793L325,797L322,801L317,805L314,809L310,813L306,817L302,820L297,824L293,827L288,830L283,833L280,835L276,837L272,839L268,841L264,844L261,845L257,846L254,848L251,849L248,850L244,851L241,851L237,852L234,853L230,853L227,853L223,853L219,853L216,853L212,853L209,853L205,852L202,851L199,850L196,849L193,847L190,845L188,843L185,840L182,838L180,835L177,832L174,829L171,826L169,823L166,819L164,815L161,812L159,807L156,802L154,796L152,790L149,784L147,778L146,773L144,768L143,763L142,759L142,754L141,750L141,745L141,741L141,737L141,733L141,729L141,724L141,719L143,714L144,710L146,706L148,702L149,698L152,695L154,691L157,687L159,684L161,680L164,676L166,674L167,671L169,668L170,666L171,664L171,662L172,660L173,659L173,657L174,655L174,653L175,651L176,649L176,648L177,646L177,644L178,643L178,641L179,640L179,639L180,639L180,638L183,636" stroke-opacity="1" stroke-width="3" stroke-linecap="round" stroke-linejoin="round" style="-webkit-tap-highlight-color: rgba(0, 0, 0, 0); stroke-opacity: 1; stroke-linecap: round; stroke-linejoin: round; -webkit-user-select: text;"></path><path fill="none" stroke="#6c7e83" d="M242,539L242,543L242,547L242,551L243,557L244,564L245,571L246,578L248,584L249,591L250,598L251,603L251,609L252,615L252,622L253,627L253,632L253,637L254,642L254,647L254,652L255,656L255,660L256,664L256,668L256,672L256,676L256,679L257,683L257,686L257,689L258,693L258,696L258,699L258,702L258,705L259,707L259,709L259,711L259,713L259,715L259,716L259,717L260,717L260,713L262,709" stroke-opacity="1" stroke-width="3" stroke-linecap="round" stroke-linejoin="round" style="-webkit-tap-highlight-color: rgba(0, 0, 0, 0); stroke-opacity: 1; stroke-linecap: round; stroke-linejoin: round; -webkit-user-select: text;"></path><path fill="none" stroke="#6c7e83" d="M340,627L339,630L339,632L339,635L339,639L338,643L336,649L333,654L330,660L327,666L323,672L320,676L317,681L314,686L311,691L307,695L304,700L301,703L298,707L295,710L292,713L288,716L285,718L282,720L279,722L276,723L273,725L269,726L266,727L262,727L259,728L255,728L252,729L249,729L245,729L241,729L237,729L233,729L229,728L225,727L221,725L217,724L212,722L208,719L204,717L200,714L196,710L192,707L189,703L186,699L182,695L179,691L176,687L174,683L171,679L169,676L168,672L166,668L165,664L164,660L163,657L162,653L161,649L161,646L160,643L159,639L159,635L158,631L157,627L157,623L157,620L156,616L156,612L155,609L155,605L155,602L155,598L155,595L155,591L155,588L154,585L154,582L154,580L154,577L154,575L154,573L154,571L154,569L154,567L154,565L154,564L154,562L154,561L154,560L154,559L154,556" stroke-opacity="1" stroke-width="3" stroke-linecap="round" stroke-linejoin="round" style="-webkit-tap-highlight-color: rgba(0, 0, 0, 0); stroke-opacity: 1; stroke-linecap: round; stroke-linejoin: round; -webkit-user-select: text;"></path><path fill="none" stroke="#6c7e83" d="M70,481L74,481L77,481L81,481L86,483L91,485L96,488L100,491L104,494L108,498L112,502L116,505L120,508L124,512L127,516L131,520L135,525L139,529L144,535L148,540L152,545L156,550L160,556L164,561L168,567L171,572L175,576L178,581L182,585L186,589L189,593L193,597L197,601L201,604L205,607L210,610L215,613L220,615L224,617L228,618L232,620L237,621L241,622L245,623L249,623L253,624L257,624L261,624L265,624L268,624L273,624L277,624L281,624L285,624L289,623L293,621L297,619L301,616L305,613L308,610L312,607L315,603L317,601L320,598L323,594L325,591L327,587L329,584L330,581L332,578L333,575L334,571L334,569L334,565L335,562L335,559L335,556L335,553L335,550L335,547L335,544L335,541L335,539L335,536L335,533L334,531L334,528L333,526L332,524L331,522L331,520L329,518L329,516L327,514L326,512L325,509L324,507L323,505L322,503L321,501L319,499L319,496L317,495L316,493L315,491L314,489L313,488L312,486L312,485L310,483L310,482L309,480L309,479L308,478L308,477L308,476" stroke-opacity="1" stroke-width="3" stroke-linecap="round" stroke-linejoin="round" style="-webkit-tap-highlight-color: rgba(0, 0, 0, 0); stroke-opacity: 1; stroke-linecap: round; stroke-linejoin: round; -webkit-user-select: text;"></path><path fill="none" stroke="#6c7e83" d="M283,482L287,479L289,479L290,477L292,475L294,473L296,471L298,469L300,468L302,466L305,464L308,462L311,460L314,457L318,454L322,451L326,448L330,445L334,441L339,438L342,434L346,431L351,427L355,423L359,419L363,415L367,411L371,407L375,403L379,399L383,395L387,392L390,388L394,384L397,381L400,377L402,375L405,372L407,369L409,367L412,364L414,361L416,359L418,357L420,355L421,353L424,351L425,350L426,348L428,347L429,346L430,345L431,344L432,343L433,343L434,342L435,342" stroke-opacity="1" stroke-width="3" stroke-linecap="round" stroke-linejoin="round" style="-webkit-tap-highlight-color: rgba(0, 0, 0, 0); stroke-opacity: 1; stroke-linecap: round; stroke-linejoin: round; -webkit-user-select: text;"></path><path fill="none" stroke="#6c7e83" d="M423,342L426,343L426,345L427,348L429,352L430,355L432,360L434,365L437,370L439,375L442,382L445,387L448,392L451,397L454,402L457,406L460,411L463,414L466,418L470,421L472,424L475,427L478,429L482,432L485,435L488,437L492,439L495,441L499,443L502,445L506,446L509,448L513,449L516,450L519,450L523,451L526,452L529,452L532,452L535,453L538,453L541,453L544,453L547,453L550,453L553,453L556,453L559,453L562,453L565,453L568,452L572,451L575,450L578,450L581,449L584,448L588,447L591,445L594,444L597,443L600,440L603,439L605,437L608,435L611,433L613,431L616,428L618,426L621,424L623,422L625,420L626,418L628,416L630,413L631,411L633,409L634,406L636,404L637,401L639,399L640,396L641,393L643,390L644,387L645,384L647,381L648,378L650,375L651,372L652,369L653,365L655,363L655,360L657,357L657,354L658,350L659,347L660,344L661,341L662,337L662,334L663,330L664,327L664,324L665,321L666,318L666,315L667,312L667,310L667,308L668,305L668,303L669,301L669,299L669,297L670,295L670,293L671,291L671,289L671,287L672,285L672,284L672,282L672,280L672,279L673,277L673,275L674,274L674,273L674,272" stroke-opacity="1" stroke-width="3" stroke-linecap="round" stroke-linejoin="round" style="-webkit-tap-highlight-color: rgba(0, 0, 0, 0); stroke-opacity: 1; stroke-linecap: round; stroke-linejoin: round; -webkit-user-select: text;"></path><path fill="none" stroke="#6c7e83" d="M707,203L707,199L704,199L701,199L697,199L693,199L688,200L684,201L678,203L674,205L669,207L664,210L660,213L655,217L652,220L648,224L645,228L642,233L639,238L637,243L635,248L633,252L632,257L631,262L630,267L630,272L630,277L630,282L630,287L630,292L630,298L630,303L630,309L632,314L633,320L634,324L636,330L638,335L640,340L641,345L643,350L645,355L647,360L650,365L652,369L655,373L657,378L659,382L661,387L664,392L665,396L667,401L669,406L671,410L672,415L674,419L675,423L677,428L678,432L679,437L680,441L680,446L681,451L681,456L682,460L682,465L682,469L682,474L682,478L682,482L681,486L680,489L679,493L678,496L677,499L675,502L674,505L673,508L671,511L669,513L668,516L666,518L664,521L662,523L660,525L657,528L655,530L652,533L650,535L647,537L644,539L641,541L638,543L635,545L632,546L629,548L626,550L623,551L620,552L616,554L613,555L610,556L606,557L603,558L599,559L596,559L593,560L590,560L587,561L583,561L580,561L577,561L574,561L571,561L567,561L565,561L562,561L559,561L556,561L553,561L550,559L548,559L545,558L544,557L542,557L541,556L540,555L539,554L538,554L538,553L538,552" stroke-opacity="1" stroke-width="3" stroke-linecap="round" stroke-linejoin="round" style="-webkit-tap-highlight-color: rgba(0, 0, 0, 0); stroke-opacity: 1; stroke-linecap: round; stroke-linejoin: round; -webkit-user-select: text;"></path><path fill="none" stroke="#6c7e83" d="M494,548L494,546L496,547L498,548L500,550L503,552L505,555L508,557L511,560L514,564L517,568L521,571L524,575L528,579L532,583L536,587L539,591L543,596L547,600L551,604L555,608L559,612L563,615L567,619L572,623L576,627L579,630L583,633L587,637L589,640L593,643L596,646L599,649L602,652L605,654L607,657L610,660L612,662L614,664L616,666L618,668L620,670L622,672L624,674L626,676L628,678L629,680L631,682L633,683L634,685L636,686L637,688L638,689L640,691L641,692L642,693L643,695L645,696L646,698L647,699L648,700L649,701L650,702L651,703L651,704L652,705L653,705L654,705" stroke-opacity="1" stroke-width="3" stroke-linecap="round" stroke-linejoin="round" style="-webkit-tap-highlight-color: rgba(0, 0, 0, 0); stroke-opacity: 1; stroke-linecap: round; stroke-linejoin: round; -webkit-user-select: text;"></path><path fill="none" stroke="#6c7e83" d="M721,567L719,559L717,558L713,557L708,556L702,555L695,554L688,554L681,554L675,554L667,554L661,554L655,555L649,557L644,560L639,564L635,567L630,571L626,575L622,579L619,584L616,588L612,593L609,599L606,604L603,610L601,615L598,620L596,626L594,631L592,636L590,641L589,647L587,651L587,657L586,661L585,666L585,671L584,675L584,679L584,684L584,688L583,691L583,695L583,698L583,701L583,704L583,707L583,710L583,712L583,715L583,718L583,721L583,724L583,727L583,730L583,733L583,736L584,739L584,742L584,745L585,748L585,750L586,753L586,756L587,759L587,761L588,763L588,766L589,768L589,770L589,772L590,774L590,776L591,778L591,779L592,780L592,781L592,782L592,783L592,784L593,785L594,785L595,780" stroke-opacity="1" stroke-width="3" stroke-linecap="round" stroke-linejoin="round" style="-webkit-tap-highlight-color: rgba(0, 0, 0, 0); stroke-opacity: 1; stroke-linecap: round; stroke-linejoin: round; -webkit-user-select: text;"></path><path fill="none" stroke="#6c7e83" d="M672,623L674,624L674,627L674,632L675,639L675,645L676,652L676,659L676,665L676,672L676,680L676,687L676,694L674,702L673,708L672,715L669,722L667,728L665,734L662,739L659,745L656,750L652,755L649,759L645,764L640,768L635,771L630,775L625,778L620,781L616,784L611,787L607,789L604,790L599,792L596,794L592,795L588,796L584,798L580,799L576,800L572,801L568,802L564,802L560,803L556,804L552,804L548,805L543,805L539,805L534,805L530,805L526,805L521,805L516,803L512,802L507,801L503,799L498,797L494,795L490,794L486,792L482,789L478,787L474,785L470,783L467,781L463,779L459,777L455,775L451,773L446,771L441,768L437,766L432,764L428,762L422,760L417,758L412,756L406,754L400,752L395,750L389,748L383,746L377,744L371,743L365,742L360,740L356,739L351,738L346,737L341,736L337,736L333,735L329,734L325,734L321,734L317,733L314,733L310,733L306,733L303,733L299,733L296,733L293,733L289,733L285,733L282,733L279,733L276,733L272,733L269,733L266,733L262,734L259,734L256,734L254,735L251,736L249,737L246,738L244,739L242,740L240,741L238,742L236,743L234,744L232,745L231,746L229,747L227,749L226,750L225,751L223,752L222,754L220,756L218,757L217,759L215,760L213,761L211,763L209,765L208,767L206,768L204,770L203,772L202,773L201,774L200,776L198,778L197,780L196,781L195,783L193,785L192,786L191,788L190,789L189,790L188,792L188,793L187,794L186,795L185,796L185,797L184,797L184,798L183,798L183,795L181,791" stroke-opacity="1" stroke-width="3" stroke-linecap="round" stroke-linejoin="round" style="-webkit-tap-highlight-color: rgba(0, 0, 0, 0); stroke-opacity: 1; stroke-linecap: round; stroke-linejoin: round; -webkit-user-select: text;"></path><path fill="none" stroke="#6c7e83" d="M152,754L161,762L166,765L172,769L179,773L188,778L197,782L206,785L216,789L225,793L234,796L243,799L251,802L259,805L266,808L273,810L279,813L286,816L293,819L300,822L306,825L312,828L318,831L325,834L331,837L338,840L344,844L350,846L356,849L361,852L367,854L373,857L378,859L382,861L386,863L390,865L394,866L397,868L401,870L404,872L407,873L409,874L411,875L413,876L414,877L416,878L417,878L418,879L419,879L420,879L420,876" stroke-opacity="1" stroke-width="3" stroke-linecap="round" stroke-linejoin="round" style="-webkit-tap-highlight-color: rgba(0, 0, 0, 0); stroke-opacity: 1; stroke-linecap: round; stroke-linejoin: round; -webkit-user-select: text;"></path><path fill="none" stroke="#6c7e83" d="M417,859L421,861L423,861L426,863L429,864L432,866L435,867L438,868L441,869L445,870L448,871L451,872L455,873L458,873L462,874L466,875L470,875L474,876L479,876L483,877L488,877L493,878L498,878L504,878L509,878L515,878L521,878L527,878L533,878L538,876L544,875L549,873L553,871L558,869L563,866L567,864L572,861L576,858L579,856L583,853L586,851L589,849L591,846L593,844L594,841L596,839L598,836L599,834L601,832L603,830L604,827L605,825L606,822L608,819L609,817L610,813L611,810L612,807L613,805L613,802L614,798L615,795L615,792L616,788L616,785L616,782L616,779L616,776L616,773L616,769L616,766L615,762L614,759L613,756L613,753L612,750L611,747L610,744L609,741L608,738L607,735L606,732L604,729L603,727L601,724L599,721L598,719L596,716L594,713L592,710L590,708L588,705L586,702L583,700L581,697L578,695L575,692L573,690L570,688L568,686L565,683L563,681L560,680L558,678L556,676L554,675L552,673L550,671L548,670L547,668L545,666L543,665L542,664L540,662L539,661L537,659L536,658L534,656L532,655L531,653L528,652L527,650L525,649L522,647L520,646L518,645L516,644L514,642L512,642L511,640L509,639L508,638L506,637L505,637L504,636L504,635" stroke-opacity="1" stroke-width="3" stroke-linecap="round" stroke-linejoin="round" style="-webkit-tap-highlight-color: rgba(0, 0, 0, 0); stroke-opacity: 1; stroke-linecap: round; stroke-linejoin: round; -webkit-user-select: text;"></path><path fill="none" stroke="#6c7e83" d="M510,543L509,543L509,545L509,548L509,551L509,554L509,557L509,560L509,564L509,567L509,571L509,575L509,579L509,584L509,588L508,593L506,597L504,601L503,605L500,610L498,613L495,617L492,621L490,624L486,628L482,631L479,635L475,638L472,640L469,642L465,644L462,646L458,647L454,649L451,649L446,650L442,650L437,650L433,650L428,650L423,650L417,649L412,648L407,646L403,644L399,643L395,641L391,639L387,637L385,634L382,632L379,629L377,627L375,624L373,621L371,618L368,616L366,613L364,610L362,607L360,605L358,602L357,599L356,596L354,594L352,591L351,588L350,586L349,584L348,581L346,578L346,576L344,573L344,571L343,569L342,567L341,564L340,562L340,560L339,558L339,556L338,554L338,552L337,552L337,551L337,550L337,549L338,547" stroke-opacity="1" stroke-width="3" stroke-linecap="round" stroke-linejoin="round" style="-webkit-tap-highlight-color: rgba(0, 0, 0, 0); stroke-opacity: 1; stroke-linecap: round; stroke-linejoin: round; -webkit-user-select: text;"></path><path fill="none" stroke="#6c7e83" d="M355,552L349,548L348,547L346,544L344,542L342,539L340,536L338,533L336,530L334,526L331,523L329,521L327,518L324,516L322,513L319,511L315,509L312,507L310,506L307,504L305,503L302,501L299,501L296,499L293,498L289,496L285,495L280,494L276,493L271,492L266,491L260,490L255,489L251,489L246,488L241,488L236,487L232,487L228,487L224,487L220,487L216,487L212,487L209,487L205,488L202,489L198,491L195,493L191,494L187,496L183,499L180,501L177,504L174,507L170,510L167,513L164,515L161,518L159,521L156,524L154,527L152,530L149,535L147,539L144,544L142,548L141,552L139,557L137,561L136,565L134,570L133,574L132,578L131,581L130,585L130,588L130,591L130,595L130,598L130,601L130,604L130,607L130,610L130,613L130,616L130,619L130,623L130,625L130,628L130,632L130,635L130,638L130,641L130,644L130,647L129,649L129,653L129,656L129,659L128,663L128,666L127,669L127,673L127,676L126,680L125,683L124,686L123,690L122,694L121,697L120,701L118,705L117,708L116,712L114,716L113,720L111,723L110,726L108,729L105,733L103,736L101,739L99,742L97,745L95,748L92,751L90,754L88,756L86,758L84,760L81,763L79,765L77,766L75,768L74,770L72,772L71,773L70,774L69,776L68,777L67,777L67,778L66,778L65,779L65,780L64,780L64,778" stroke-opacity="1" stroke-width="3" stroke-linecap="round" stroke-linejoin="round" style="-webkit-tap-highlight-color: rgba(0, 0, 0, 0); stroke-opacity: 1; stroke-linecap: round; stroke-linejoin: round; -webkit-user-select: text;"></path><path fill="none" stroke="#6c7e83" d="M69,698L65,699L65,702L66,705L67,710L69,715L72,720L74,725L78,732L81,737L84,742L87,747L90,752L93,756L96,761L98,765L101,768L104,772L107,776L110,780L113,784L116,788L119,791L122,795L125,798L127,802L130,805L131,807L133,810L135,813L136,815L138,818L139,820L142,823L143,826L145,828L147,831L148,833L150,836L152,838L153,840L154,842L156,845L158,847L159,849L161,851L162,853L163,854L164,856L165,856L166,857L167,858L167,859L168,859L168,860L168,859L168,853" stroke-opacity="1" stroke-width="3" stroke-linecap="round" stroke-linejoin="round" style="-webkit-tap-highlight-color: rgba(0, 0, 0, 0); stroke-opacity: 1; stroke-linecap: round; stroke-linejoin: round; -webkit-user-select: text;"></path><path fill="none" stroke="#6c7e83" d="M148,836L152,842L155,842L159,843L162,843L166,844L170,844L174,844L178,842L182,839L186,836L189,834L193,830L198,825L200,820L204,815L207,810L209,806L211,800L214,795L216,789L217,784L219,779L220,774L221,768L221,763L222,758L222,753L223,748L223,743L224,738L224,733L224,727L224,722L224,717L224,711L224,706L224,701L223,696L222,691L220,686L219,682L217,678L216,674L214,670L212,665L210,662L208,658L206,655L204,652L201,648L199,646L196,643L194,640L191,637L188,635L186,632L182,630L179,627L176,624L172,621L168,618L164,615L160,612L155,609L152,606L147,603L144,600L139,597L136,594L132,592L128,589L125,587L121,585L118,582L114,580L111,578L108,576L105,575L102,573L99,571L97,570L94,569L92,567L90,566L88,565L86,564L84,563L82,562L81,561L80,560L79,559L78,559L78,558L78,557" stroke-opacity="1" stroke-width="3" stroke-linecap="round" stroke-linejoin="round" style="-webkit-tap-highlight-color: rgba(0, 0, 0, 0); stroke-opacity: 1; stroke-linecap: round; stroke-linejoin: round; -webkit-user-select: text;"></path><path fill="none" stroke="#6c7e83" d="M79,556L77,557L77,555L77,552L77,549L77,545L79,540L81,536L84,533L87,528L90,525L93,521L96,518L100,516L103,513L107,511L112,509L117,507L121,505L127,503L133,501L139,500L145,499L152,498L158,497L164,497L170,497L175,497L181,497L187,497L193,497L198,499L203,500L208,501L214,503L219,504L224,505L228,506L234,508L238,509L243,511L247,512L252,513L256,515L261,516L266,517L271,518L276,519L280,519L286,520L290,520L295,520L300,520L305,520L310,520L314,519L318,518L322,517L326,515L329,514L333,512L336,511L339,509L342,507L346,505L349,503L352,501L355,498L358,496L361,493L363,489L366,485L369,481L372,477L374,472L377,468L379,465L381,461L383,457L385,452L387,448L388,444L390,439L392,435L393,431L394,426L395,422L396,418L397,413L397,409L397,405L398,401L398,397L398,393L398,389L398,386L398,382L398,379L398,375L398,372L398,369L398,366L398,363L397,361L397,358L397,355L396,353L395,350L395,348L395,346L395,344L394,343L394,341L394,340L393,339L393,338L393,337L393,336L393,335L392,335" stroke-opacity="1" stroke-width="3" stroke-linecap="round" stroke-linejoin="round" style="-webkit-tap-highlight-color: rgba(0, 0, 0, 0); stroke-opacity: 1; stroke-linecap: round; stroke-linejoin: round; -webkit-user-select: text;"></path><path fill="none" stroke="#6c7e83" d="M400,339L398,335L397,333L396,332L395,330L394,328L392,326L391,324L389,321L387,319L385,317L383,314L381,311L378,309L375,305L372,302L368,298L365,294L361,291L358,287L354,283L351,280L347,276L344,272L340,268L336,263L333,259L329,255L325,250L321,246L317,241L313,237L310,233L306,229L303,224L299,220L296,216L293,212L290,208L286,204L283,200L281,197L278,193L275,190L273,187L270,184L268,180L265,178L263,175L260,172L258,169L256,166L254,164L253,162L251,159L249,158L248,156L247,154L246,153L245,152L245,151L244,150L244,149L244,148L243,148L243,147L243,146L243,145L243,144" stroke-opacity="1" stroke-width="3" stroke-linecap="round" stroke-linejoin="round" style="-webkit-tap-highlight-color: rgba(0, 0, 0, 0); stroke-opacity: 1; stroke-linecap: round; stroke-linejoin: round; -webkit-user-select: text;"></path><path fill="none" stroke="#6c7e83" d="M331,37L329,39L329,43L329,46L329,50L329,55L328,59L327,65L326,70L324,76L323,81L321,87L319,93L317,98L314,103L312,108L309,114L305,119L301,124L297,130L293,135L288,139L283,144L278,148L272,153L268,156L262,160L257,163L252,166L247,168L243,170L238,172L233,173L229,174L224,175L220,176L215,177L211,177L207,177L203,177L200,177L197,177L193,175L190,174L187,172L184,170L181,168L177,166L174,163L171,161L169,158L166,155L163,152L161,149L158,145L156,142L154,138L152,135L150,131L149,128L147,124L146,121L145,117L144,114L143,110L143,107L142,103L141,100L141,97L140,93L140,90L139,86L139,83L139,80L139,77L139,74L139,71L139,69L138,66L138,63L138,61L138,58L138,56L138,55L138,53L138,52L138,51L137,51" stroke-opacity="1" stroke-width="3" stroke-linecap="round" stroke-linejoin="round" style="-webkit-tap-highlight-color: rgba(0, 0, 0, 0); stroke-opacity: 1; stroke-linecap: round; stroke-linejoin: round; -webkit-user-select: text;"></path><path fill="none" stroke="#6c7e83" d="M125,46L130,46L135,46L142,45L149,45L156,44L164,43L169,43L176,43L182,43L188,43L193,44L199,45L205,47L211,49L217,52L222,54L228,56L235,59L240,62L246,65L251,68L256,72L261,76L265,81L269,86L273,91L277,96L281,102L285,107L288,112L291,117L295,124L298,130L301,136L303,142L306,148L308,154L310,161L311,166L312,173L313,180L314,186L314,192L315,199L315,205L315,211L315,217L315,222L315,229L315,235L315,241L314,246L312,252L311,258L310,264L308,269L306,275L305,280L303,286L302,291L300,296L299,302L297,307L296,312L295,316L293,321L293,326L292,331L291,336L290,341L289,345L289,350L288,355L288,360L288,365L288,369L288,374L288,378L288,383L288,387L288,392L288,396L288,401L288,404L289,409L290,412L291,416L293,419L294,422L295,425L296,428L298,431L299,433L301,435L302,438L303,440L305,442L307,444L308,446L310,448L312,450L313,452L315,454L317,455L319,457L321,459L322,460L324,462L325,463L327,464L327,465L328,465L329,466L329,467" stroke-opacity="1" stroke-width="3" stroke-linecap="round" stroke-linejoin="round" style="-webkit-tap-highlight-color: rgba(0, 0, 0, 0); stroke-opacity: 1; stroke-linecap: round; stroke-linejoin: round; -webkit-user-select: text;"></path><path fill="none" stroke="#6c7e83" d="M363,475L361,474L361,472L359,470L357,467L355,465L353,462L349,458L346,454L341,449L336,445L331,440L325,435L318,428L310,423L302,416L294,411L285,404L277,398L269,392L261,385L253,379L246,373L239,367L232,361L227,356L220,349L214,344L208,338L203,333L197,327L191,322L185,316L179,311L174,306L169,301L164,296L160,292L155,288L151,284L147,281L144,277L140,274L137,271L135,269L132,266L130,264L128,263L127,261L125,260L125,259L124,258" stroke-opacity="1" stroke-width="3" stroke-linecap="round" stroke-linejoin="round" style="-webkit-tap-highlight-color: rgba(0, 0, 0, 0); stroke-opacity: 1; stroke-linecap: round; stroke-linejoin: round; -webkit-user-select: text;"></path><path fill="none" stroke="#6c7e83" d="M133,233L135,229L132,230L130,232L127,234L125,236L122,238L120,241L116,245L113,249L110,253L106,258L103,262L100,267L97,272L94,277L92,284L90,290L88,297L87,304L86,310L86,317L86,324L86,330L86,337L86,343L86,349L86,355L88,362L89,368L91,374L94,380L96,386L98,392L102,399L105,405L108,411L111,416L114,421L117,426L121,432L124,437L127,443L130,448L135,453L138,457L142,463L145,467L149,471L153,476L157,480L161,484L165,488L169,492L173,495L176,498L181,501L184,504L188,506L191,508L195,511L198,513L202,515L205,517L208,519L211,521L214,523L217,525L220,526L223,528L225,530L228,532L230,534L232,535L235,537L237,539L239,540L240,541L242,542L243,543L244,544L245,545L244,545" stroke-opacity="1" stroke-width="3" stroke-linecap="round" stroke-linejoin="round" style="-webkit-tap-highlight-color: rgba(0, 0, 0, 0); stroke-opacity: 1; stroke-linecap: round; stroke-linejoin: round; -webkit-user-select: text;"></path><path fill="none" stroke="#6c7e83" d="M238,543L243,541L245,541L248,541L250,540L253,540L256,539L259,537L261,537L265,536L268,535L272,534L275,533L278,532L283,530L287,529L292,528L297,526L302,525L307,523L312,522L318,520L324,518L329,517L335,515L341,513L347,512L353,510L358,508L363,506L369,504L375,503L380,501L385,499L391,497L396,495L402,493L408,491L413,489L419,487L424,484L430,482L435,480L439,479L444,477L448,475L452,473L456,472L460,471L463,469L467,468L470,467L473,466L476,465L479,464L481,463L482,462L484,462L485,462L486,461L488,460L490,459" stroke-opacity="1" stroke-width="3" stroke-linecap="round" stroke-linejoin="round" style="-webkit-tap-highlight-color: rgba(0, 0, 0, 0); stroke-opacity: 1; stroke-linecap: round; stroke-linejoin: round; -webkit-user-select: text;"></path><path fill="none" stroke="#6c7e83" d="M494,455L506,455L507,455L509,455L510,455L511,455L512,453L514,451L515,449L516,446L519,443L520,440L522,438L524,434L526,430L527,426L528,422L530,417L530,413L531,409L531,405L531,401L531,397L531,393L531,389L531,384L531,379L529,374L528,370L526,365L524,360L522,355L519,350L517,345L514,340L511,335L507,330L504,325L500,320L497,316L493,311L489,307L484,303L479,298L475,294L470,290L465,287L460,283L454,280L448,277L442,273L437,271L431,268L426,265L420,263L415,262L410,260L406,259L401,257L397,256L393,255L389,254L386,253L383,252L381,252L379,251L378,251L378,250L378,249L377,248" stroke-opacity="1" stroke-width="3" stroke-linecap="round" stroke-linejoin="round" style="-webkit-tap-highlight-color: rgba(0, 0, 0, 0); stroke-opacity: 1; stroke-linecap: round; stroke-linejoin: round; -webkit-user-select: text;"></path><path fill="none" stroke="#6c7e83" d="M366,233L366,237L366,241L366,246L366,252L366,258L366,264L368,270L369,277L371,286L373,294L375,301L378,310L382,318L385,325L390,333L395,340L400,347L406,355L412,361L417,367L424,372L430,377L437,382L445,386L452,389L460,392L466,393L473,394L480,395L485,396L492,396L498,396L504,396L509,394L514,392L518,390L522,387L526,384L530,381L534,378L538,375L542,371L545,367L548,363L550,360L553,355L556,351L559,347L561,343L563,338L565,333L567,328L569,323L570,318L572,314L573,308L575,302L576,297L578,291L579,285L581,280L582,275L584,270L585,265L587,260L589,256L591,251L592,246L594,241L597,237L599,233L601,228L604,224L607,219L610,214L613,211L615,207L617,204L620,201L622,198L625,195L627,192L630,189L632,186L635,184L638,181L640,179L643,176L645,174L647,172L650,170L652,168L655,166L657,165L659,163L661,162L662,161L664,159L666,158L668,156L669,155L671,154L672,153L673,153L674,152L674,151L674,149" stroke-opacity="1" stroke-width="3" stroke-linecap="round" stroke-linejoin="round" style="-webkit-tap-highlight-color: rgba(0, 0, 0, 0); stroke-opacity: 1; stroke-linecap: round; stroke-linejoin: round; -webkit-user-select: text;"></path><path fill="none" stroke="#6c7e83" d="M672,136L676,136L676,138L676,141L676,145L676,149L676,154L676,158L676,163L676,168L677,173L677,179L677,185L678,191L679,197L679,203L680,209L680,215L681,222L682,229L682,236L683,243L684,249L684,256L685,263L685,269L686,276L686,283L687,290L688,296L688,302L689,309L690,315L691,321L692,328L693,334L694,340L694,345L695,350L696,356L696,361L697,366L698,371L699,375L699,379L699,382L700,386L700,389L701,391L701,392L701,393L702,393" stroke-opacity="1" stroke-width="3" stroke-linecap="round" stroke-linejoin="round" style="-webkit-tap-highlight-color: rgba(0, 0, 0, 0); stroke-opacity: 1; stroke-linecap: round; stroke-linejoin: round; -webkit-user-select: text;"></path><path fill="none" stroke="#6c7e83" d="M729,354L729,346L729,343L729,339L727,335L725,331L722,326L719,322L716,317L713,313L708,309L703,304L699,302L692,299L686,297L680,295L674,294L668,294L661,294L655,294L647,294L639,297L633,300L626,304L620,308L614,313L609,318L604,324L600,330L596,336L592,343L589,349L585,356L583,363L580,370L579,376L577,383L576,390L574,396L573,403L572,409L572,416L572,421L572,426L572,431L572,437L572,442L572,447L572,451L572,456L572,460L573,465L574,469L575,472L577,476L578,479L579,483L580,486L582,489L583,492L585,495L587,498L588,501L590,503L592,506L593,508L595,510L597,512L599,514L601,516L603,518L604,520L606,522L609,524L611,526L613,527L615,529L617,530L619,532L621,533L623,534L625,535L626,536L628,537L630,538L631,539L633,540L635,540L637,541L638,542L640,542L641,543L643,544L644,545L645,545L646,546L647,547L648,547L649,547L650,547L652,546" stroke-opacity="1" stroke-width="3" stroke-linecap="round" stroke-linejoin="round" style="-webkit-tap-highlight-color: rgba(0, 0, 0, 0); stroke-opacity: 1; stroke-linecap: round; stroke-linejoin: round; -webkit-user-select: text;"></path><path fill="none" stroke="#6c7e83" d="M696,430L699,433L699,437L700,441L702,447L704,452L706,458L707,465L708,471L708,477L708,483L708,489L708,496L708,501L708,508L708,514L708,520L706,526L704,532L701,538L698,544L694,550L690,555L686,560L681,565L677,570L673,574L669,578L664,581L660,584L656,588L651,591L647,594L642,597L636,600L631,603L626,606L622,608L617,612L612,615L607,618L602,623L597,626L592,629L587,632L582,636L577,640L573,643L569,647L565,651L561,655L558,659L554,663L551,667L548,671L545,676L543,680L541,683L540,688L538,692L537,695L536,700L535,704L534,708L534,712L533,715L533,720L533,723L533,727L533,731L533,735L533,739L533,743L533,747L534,750L534,753L535,756L535,759L536,762L536,764L537,767L537,770L538,773L538,776L539,778L540,780L541,783L542,784L542,786L543,788L544,790L545,791L545,792L546,793L546,794L547,795L548,795L548,794L550,790" stroke-opacity="1" stroke-width="3" stroke-linecap="round" stroke-linejoin="round" style="-webkit-tap-highlight-color: rgba(0, 0, 0, 0); stroke-opacity: 1; stroke-linecap: round; stroke-linejoin: round; -webkit-user-select: text;"></path><path fill="none" stroke="#6c7e83" d="M495,651L501,655L506,660L513,667L519,674L526,682L533,688L540,696L546,703L553,710L558,715L564,721L569,726L574,732L579,736L584,741L589,745L593,749L597,753L601,757L605,761L609,765L613,769L618,774L622,778L627,783L631,788L635,791L639,796L643,801L646,806L650,810L654,815L657,820L660,824L662,828L665,831L667,835L669,838L671,841L673,844L675,846L677,849L679,851L680,854L682,856L683,858L684,859L685,860L686,860L686,861L686,860L686,855" stroke-opacity="1" stroke-width="3" stroke-linecap="round" stroke-linejoin="round" style="-webkit-tap-highlight-color: rgba(0, 0, 0, 0); stroke-opacity: 1; stroke-linecap: round; stroke-linejoin: round; -webkit-user-select: text;"></path><path fill="none" stroke="#6c7e83" d="M714,704L718,710L718,715L718,720L718,727L718,734L718,741L717,748L717,756L716,762L716,769L714,776L713,782L711,788L709,795L707,800L703,807L701,811L698,816L694,820L691,824L688,828L684,832L681,835L677,837L674,839L669,841L665,844L661,846L657,847L652,848L646,849L640,850L635,850L628,851L622,851L616,851L610,851L604,850L597,848L591,845L584,841L578,837L572,833L565,828L560,823L555,819L550,814L546,809L542,804L538,800L534,796L530,793L526,789L523,785L519,782L516,779L512,776L508,773L504,770L500,768L497,766L492,764L488,763L485,761L481,761L477,760L473,760L470,760L466,760L463,760L459,760L455,760L451,760L447,760L443,760L440,760L437,761L434,762L431,764L428,765L425,766L423,768L420,770L418,772L416,774L413,777L411,779L409,782L407,785L405,787L404,790L402,793L400,795L399,798L398,800L397,802L396,805L395,807L394,809L392,812L391,814L390,816L389,818L388,820L387,823L386,825L385,827L383,829L382,832L381,834L379,836L378,837L377,839L375,840L374,841L373,843L372,844L370,846L369,847L368,848L366,849L365,851L363,851L361,853L360,854L358,855L357,856L356,857L354,858L352,859L351,860L349,861L347,861L345,862L344,863L342,864L340,865L338,866L336,866L334,867L332,868L331,868L329,869L327,870L325,870L323,871L321,872L319,872L317,873L314,873L312,873L310,873L307,874L305,874L303,874L301,874L298,874L296,874L293,874L290,874L288,874L285,874L283,874L280,874L277,874L274,874L271,874L268,874L266,874L263,874L259,874L256,874L254,874L251,874L247,873L244,873L241,873L237,873L234,873L230,872L227,872L224,872L220,871L217,871L213,871L209,871L205,871L202,870L199,870L195,870L192,870L189,870L186,870L182,870L179,870L176,870L174,870L171,870L168,870L165,869L162,869L159,869L156,869L154,869L151,869L149,868L146,868L144,868L141,868L138,868L136,868L133,868L130,868L127,868L125,868L122,867L120,867L118,867L115,867L112,866L109,866L106,866L104,866L101,866L99,866L97,866L95,866L93,865L91,865L88,865L86,865L84,865L82,864L80,864L79,864L77,864L75,864L74,864L72,864L71,864L70,864L69,863L67,863L65,863L64,863L63,862L62,862L62,861L61,861L60,860L56,858L52,858" stroke-opacity="1" stroke-width="3" stroke-linecap="round" stroke-linejoin="round" style="-webkit-tap-highlight-color: rgba(0, 0, 0, 0); stroke-opacity: 1; stroke-linecap: round; stroke-linejoin: round; -webkit-user-select: text;"></path></svg>