<svg height="906" version="1.1" width="768" xmlns="http://www.w3.org/2000/svg" xmlns:xlink="http://www.w3.org/1999/xlink" style="overflow: hidden; position: relative; -webkit-user-select: text;"><desc style="-webkit-tap-highlight-color: rgba(0, 0, 0, 0); -webkit-user-select: text;">Created with Raphaël 2.2.0</desc><defs style="-webkit-tap-highlight-color: rgba(0, 0, 0, 0); -webkit-user-select: text;"></defs><path fill="none" stroke="#6c7e83" d="M56,73L63,75L65,75L69,75L72,75L77,75L81,75L86,75L91,75L96,75L101,75L105,75L110,75L115,75L120,74L125,74L131,74L136,74L142,74L148,74L154,74L159,74L165,73L171,73L177,73L182,73L189,72L195,72L200,72L206,72L212,72L219,72L224,72L230,72L236,72L242,72L248,71L254,71L260,71L266,71L273,71L279,71L285,71L291,71L298,71L304,71L310,71L316,71L323,71L328,71L335,71L341,71L348,71L355,71L361,70L368,70L375,70L381,70L388,70L395,69L401,69L407,69L414,68L421,68L427,68L433,68L439,68L445,68L452,68L458,67L465,67L471,67L477,67L484,66L490,66L497,66L502,66L509,66L514,66L520,66L526,66L531,66L536,66L541,66L545,66L550,66L555,66L560,66L565,66L570,66L575,66L580,65L585,65L590,65L595,65L599,65L604,65L609,65L613,65L617,64L621,64L625,64L628,64L632,63L636,63L640,63L643,63L646,62L650,62L654,62L657,62L661,62L664,62L668,62L672,62L675,62L679,62L682,62L685,62L689,62L692,62L695,62L698,62L701,62L703,62L706,62L708,62L710,62L711,61L713,61L714,61L713,62" stroke-opacity="1" stroke-width="2" stroke-linecap="round" stroke-linejoin="round" style="-webkit-tap-highlight-color: rgba(0, 0, 0, 0); stroke-opacity: 1; stroke-linecap: round; stroke-linejoin: round; -webkit-user-select: text;"></path><path fill="none" stroke="#6c7e83" d="M37,124L42,121L45,121L49,121L53,121L58,121L64,121L70,121L77,121L84,121L91,121L99,122L107,122L115,122L122,123L130,123L138,123L146,123L153,123L160,123L168,123L175,123L182,123L190,123L197,124L205,124L212,124L220,124L228,124L237,124L244,125L253,125L261,125L271,125L278,125L287,125L296,125L305,125L313,125L322,125L331,125L339,125L348,125L357,125L366,125L375,125L384,125L393,125L402,125L411,125L420,125L429,125L438,125L447,125L456,124L463,124L473,124L482,123L490,123L498,123L506,123L514,123L522,123L530,123L537,123L545,123L552,123L559,123L566,123L573,123L580,123L587,123L593,123L600,123L605,123L612,123L618,123L625,123L630,123L635,123L641,123L646,123L651,123L656,123L661,123L665,123L669,123L673,123L677,123L680,122L684,122L687,122L690,122L692,122L694,122L695,122L691,123" stroke-opacity="1" stroke-width="2" stroke-linecap="round" stroke-linejoin="round" style="-webkit-tap-highlight-color: rgba(0, 0, 0, 0); stroke-opacity: 1; stroke-linecap: round; stroke-linejoin: round; -webkit-user-select: text;"></path><path fill="none" stroke="#6c7e83" d="M45,178L46,181L48,181L51,181L54,181L59,181L63,182L68,182L74,182L80,182L87,182L94,182L101,182L109,182L117,182L125,182L132,182L140,182L148,182L157,182L165,182L173,182L183,182L192,182L202,182L212,182L222,182L233,182L243,182L254,182L265,182L276,182L286,182L297,182L307,182L317,182L328,182L338,182L348,182L358,182L368,182L378,182L388,182L399,182L409,182L419,182L429,182L439,182L450,182L460,182L470,182L481,183L491,183L501,183L511,184L520,184L530,184L538,184L547,184L555,184L563,184L572,184L579,184L587,184L595,184L602,184L610,184L617,185L624,185L631,185L638,185L643,186L649,186L655,186L660,187L665,187L669,187L674,187L679,187L682,187L686,187L689,187L691,187L693,187L693,188L688,191" stroke-opacity="1" stroke-width="2" stroke-linecap="round" stroke-linejoin="round" style="-webkit-tap-highlight-color: rgba(0, 0, 0, 0); stroke-opacity: 1; stroke-linecap: round; stroke-linejoin: round; -webkit-user-select: text;"></path><path fill="none" stroke="#6c7e83" d="M49,249L49,248L52,248L54,248L58,248L62,248L67,248L73,248L80,248L87,248L94,248L102,248L111,248L120,248L130,248L141,248L152,248L162,248L173,248L183,248L194,248L205,248L216,248L227,248L237,248L248,248L259,248L271,248L283,248L296,248L307,248L319,248L330,248L343,248L353,248L365,248L376,248L388,248L400,248L413,248L426,248L438,249L448,249L460,249L471,250L482,250L494,251L506,251L517,251L528,252L538,252L548,253L558,253L567,253L576,254L584,254L592,255L600,255L608,255L616,255L623,255L629,255L636,255L643,255L648,255L655,255L660,255L665,255L670,256L674,256L678,256L680,256L682,256L683,257L683,258" stroke-opacity="1" stroke-width="2" stroke-linecap="round" stroke-linejoin="round" style="-webkit-tap-highlight-color: rgba(0, 0, 0, 0); stroke-opacity: 1; stroke-linecap: round; stroke-linejoin: round; -webkit-user-select: text;"></path><path fill="none" stroke="#6c7e83" d="M52,338L54,336L57,336L60,336L64,336L68,336L73,336L78,336L83,336L90,336L96,336L103,336L110,336L118,336L125,336L133,336L142,336L149,336L158,336L167,336L174,336L184,336L193,337L202,337L211,338L221,338L231,338L241,338L251,339L262,339L273,339L284,339L295,340L306,340L317,340L328,340L339,340L350,340L361,340L372,340L383,340L393,340L404,340L414,340L425,340L435,340L445,340L455,340L464,340L474,340L484,340L493,340L501,340L511,340L520,340L529,340L538,340L546,340L553,340L562,340L570,340L578,339L586,339L593,339L600,339L607,339L613,339L619,339L625,339L631,339L637,339L643,339L648,339L653,339L658,339L663,339L668,339L673,339L677,339L681,339L684,339L688,339L691,339L694,339L696,339L699,339L701,339L703,339L704,339L705,339L706,339L702,339" stroke-opacity="1" stroke-width="2" stroke-linecap="round" stroke-linejoin="round" style="-webkit-tap-highlight-color: rgba(0, 0, 0, 0); stroke-opacity: 1; stroke-linecap: round; stroke-linejoin: round; -webkit-user-select: text;"></path><path fill="none" stroke="#6c7e83" d="M41,409L42,409L45,409L48,410L52,411L56,412L60,413L65,414L70,415L76,415L83,416L91,416L98,416L106,416L114,416L122,416L130,416L140,416L148,416L157,416L166,416L175,416L184,416L194,416L204,416L213,416L223,416L234,416L244,416L255,416L266,416L276,416L286,416L296,416L306,416L315,416L325,416L334,416L344,416L353,415L363,415L372,415L381,414L390,414L399,414L408,414L417,414L426,414L434,414L443,414L451,414L459,413L468,413L476,413L484,413L493,413L501,413L509,413L517,413L525,413L533,413L541,413L549,413L557,413L565,413L572,413L579,413L587,413L594,413L600,413L606,413L613,413L619,413L626,413L631,413L638,413L644,413L650,413L655,413L660,413L665,413L669,413L674,413L678,413L682,413L686,413L690,413L694,413L697,413L699,413L701,413L703,413L704,413" stroke-opacity="1" stroke-width="2" stroke-linecap="round" stroke-linejoin="round" style="-webkit-tap-highlight-color: rgba(0, 0, 0, 0); stroke-opacity: 1; stroke-linecap: round; stroke-linejoin: round; -webkit-user-select: text;"></path><path fill="none" stroke="#6c7e83" d="M44,494L47,495L50,495L53,495L57,495L60,496L65,496L69,497L75,497L80,498L87,498L93,499L100,499L107,499L113,499L120,499L127,499L135,500L142,500L148,500L154,501L161,501L167,501L173,502L179,502L186,502L192,503L198,503L205,503L212,503L218,503L225,503L231,503L238,503L244,503L249,504L255,504L261,504L266,504L272,505L278,505L285,505L290,505L297,505L304,505L311,505L317,505L325,505L332,505L340,505L347,505L355,505L363,505L371,505L381,505L390,505L400,505L409,505L419,505L428,505L436,505L446,505L454,505L463,505L470,505L479,505L487,505L497,505L506,505L515,505L524,505L533,505L541,505L550,505L558,505L566,505L575,505L583,505L591,505L599,505L606,505L613,505L621,505L628,505L635,505L642,505L648,505L654,505L660,505L665,505L671,505L677,505L682,505L686,505L691,505L695,505L699,505L702,505L704,505L706,505L708,505L709,505L710,504L710,502L708,502" stroke-opacity="1" stroke-width="2" stroke-linecap="round" stroke-linejoin="round" style="-webkit-tap-highlight-color: rgba(0, 0, 0, 0); stroke-opacity: 1; stroke-linecap: round; stroke-linejoin: round; -webkit-user-select: text;"></path><path fill="none" stroke="#6c7e83" d="M41,598L47,596L49,596L51,596L54,596L57,596L62,596L67,596L72,596L77,595L83,595L90,595L95,595L102,594L107,594L113,594L120,594L125,594L132,594L139,594L146,594L152,594L159,594L166,594L173,594L180,594L187,594L195,594L202,594L210,594L218,594L226,594L234,594L242,594L251,594L259,594L267,594L275,594L283,594L292,594L301,594L308,594L317,594L325,594L333,594L341,594L350,594L358,594L367,594L375,594L383,594L392,594L400,594L408,594L417,594L424,594L433,594L441,594L449,594L458,595L467,595L475,595L485,596L494,596L503,596L513,596L523,596L533,596L543,596L552,596L561,596L570,596L578,596L586,596L594,596L602,596L609,596L616,596L623,596L630,596L637,596L643,596L650,596L655,596L661,596L666,596L671,596L676,596L680,596L684,596L688,596L691,596L693,596L694,596L696,596" stroke-opacity="1" stroke-width="2" stroke-linecap="round" stroke-linejoin="round" style="-webkit-tap-highlight-color: rgba(0, 0, 0, 0); stroke-opacity: 1; stroke-linecap: round; stroke-linejoin: round; -webkit-user-select: text;"></path><path fill="none" stroke="#6c7e83" d="M43,701L48,701L50,701L53,701L56,701L59,701L63,701L67,701L72,701L78,701L85,701L91,701L98,701L105,702L113,702L120,702L128,703L136,703L144,703L152,703L160,703L168,703L176,703L186,703L194,703L203,703L212,703L221,703L230,703L239,703L249,703L258,703L268,703L278,702L288,702L299,701L310,701L320,701L331,700L341,700L352,699L362,699L373,699L383,698L393,698L403,698L414,697L424,697L434,696L445,696L455,695L465,695L475,695L485,694L494,694L504,693L513,693L522,693L530,693L538,693L546,693L554,693L562,693L570,693L577,693L584,693L592,692L599,692L605,692L612,692L618,692L625,692L630,692L636,692L642,692L647,692L653,692L658,692L664,692L668,692L673,692L678,692L683,692L687,692L691,692L696,692L700,692L703,692L707,692L709,692L712,692L714,692L715,692L716,692L716,691" stroke-opacity="1" stroke-width="2" stroke-linecap="round" stroke-linejoin="round" style="-webkit-tap-highlight-color: rgba(0, 0, 0, 0); stroke-opacity: 1; stroke-linecap: round; stroke-linejoin: round; -webkit-user-select: text;"></path><path fill="none" stroke="#6c7e83" d="M36,779L37,783L40,783L42,783L46,784L50,785L54,785L60,786L66,786L73,786L82,786L91,786L100,786L110,786L119,786L130,786L140,786L150,786L161,786L171,786L182,786L193,786L204,786L215,786L225,786L235,786L245,786L256,786L266,785L276,785L287,785L297,785L307,784L317,784L327,784L336,783L346,783L354,783L363,783L372,782L380,782L390,782L398,781L407,781L416,781L424,780L433,780L440,780L450,779L457,779L465,778L473,778L481,778L489,778L497,778L504,777L511,777L518,777L524,776L531,776L538,776L544,775L550,775L556,774L562,774L569,774L576,774L583,773L590,773L596,773L602,773L609,773L614,773L620,773L626,773L631,773L637,773L642,772L646,772L651,772L655,772L660,772L664,772L669,772L673,772L677,772L681,772L684,772L687,772L691,772L694,772L696,772L699,772L701,772L703,772L706,772L708,772L709,771L711,771L711,770L711,767" stroke-opacity="1" stroke-width="2" stroke-linecap="round" stroke-linejoin="round" style="-webkit-tap-highlight-color: rgba(0, 0, 0, 0); stroke-opacity: 1; stroke-linecap: round; stroke-linejoin: round; -webkit-user-select: text;"></path><path fill="none" stroke="#6c7e83" d="M31,857L40,861L42,861L46,861L50,861L55,861L62,862L68,862L76,862L85,862L94,862L103,862L114,862L124,862L134,862L143,862L152,862L161,862L170,862L178,862L186,862L196,862L205,862L214,862L223,862L232,862L242,862L251,862L260,862L269,862L277,862L285,862L295,862L302,862L310,862L319,862L327,862L334,862L342,862L351,862L358,862L368,862L377,862L385,862L394,862L403,862L412,862L421,862L431,862L439,862L447,862L457,862L464,862L473,862L482,862L490,862L498,862L507,862L515,862L523,862L532,862L540,862L548,862L556,862L565,862L573,862L581,862L588,862L595,862L602,862L609,862L615,862L622,862L628,862L635,862L640,862L646,862L651,862L657,862L662,862L666,862L670,862L674,862L678,862L681,862L685,862L689,862L692,862L695,862L698,862L701,862L704,862L707,862L709,862L711,862L713,862L715,862L716,862L717,862L718,862L718,861L718,856" stroke-opacity="1" stroke-width="2" stroke-linecap="round" stroke-linejoin="round" style="-webkit-tap-highlight-color: rgba(0, 0, 0, 0); stroke-opacity: 1; stroke-linecap: round; stroke-linejoin: round; -webkit-user-select: text;"></path><path fill="none" stroke="#6c7e83" d="M159,73L162,77L162,79L164,81L166,83L167,86L169,88L171,91L172,95L175,98L176,102L179,107L181,112L184,117L187,122L190,127L193,134L195,138L198,144L201,149L204,155L207,161L210,168L212,174L215,180L218,186L221,192L225,199L227,205L230,212L234,219L237,225L240,231L243,238L246,244L249,251L252,257L255,263L258,268L261,274L263,279L266,284L268,289L271,293L273,297L275,301L277,305L279,308L281,311L283,314L284,316L285,319L287,321L288,323L290,325L290,326L292,327L293,328L293,329L294,330L294,331L295,331L295,332" stroke-opacity="1" stroke-width="2" stroke-linecap="round" stroke-linejoin="round" style="-webkit-tap-highlight-color: rgba(0, 0, 0, 0); stroke-opacity: 1; stroke-linecap: round; stroke-linejoin: round; -webkit-user-select: text;"></path><path fill="none" stroke="#6c7e83" d="M343,349L348,343L350,342L352,340L355,338L357,336L360,333L363,330L366,326L370,322L373,318L377,314L380,309L384,305L387,300L392,295L396,290L400,285L403,279L407,275L410,269L414,264L418,258L422,253L426,247L431,242L435,236L438,231L443,225L447,219L451,214L455,209L458,203L462,199L465,194L469,190L472,185L475,181L478,177L481,173L483,170L485,167L487,164L490,161L492,158L493,156L495,153L497,151L498,149L500,147L502,145L503,144L504,142L506,140L507,139L508,138L509,137L509,136L510,136L511,135L512,136" stroke-opacity="1" stroke-width="2" stroke-linecap="round" stroke-linejoin="round" style="-webkit-tap-highlight-color: rgba(0, 0, 0, 0); stroke-opacity: 1; stroke-linecap: round; stroke-linejoin: round; -webkit-user-select: text;"></path><path fill="none" stroke="#6c7e83" d="M613,187L617,192L617,194L617,196L617,200L617,203L616,207L616,211L615,215L614,219L613,223L612,227L611,231L609,236L608,241L606,246L605,251L604,257L602,263L600,268L598,274L596,280L594,286L592,292L590,299L588,305L586,311L583,318L580,324L577,331L575,338L572,345L569,351L566,358L565,364L562,370L560,376L558,382L555,388L553,394L551,399L549,404L547,410L545,415L543,420L541,425L539,430L537,435L536,439L534,443L533,448L531,452L530,456L529,460L528,463L527,466L526,469L525,472L524,474L523,477L522,479L521,481L521,483L520,485L520,487L519,488L519,489L519,490L519,491L519,494" stroke-opacity="1" stroke-width="2" stroke-linecap="round" stroke-linejoin="round" style="-webkit-tap-highlight-color: rgba(0, 0, 0, 0); stroke-opacity: 1; stroke-linecap: round; stroke-linejoin: round; -webkit-user-select: text;"></path><path fill="none" stroke="#6c7e83" d="M447,607L442,605L440,603L437,600L435,596L431,591L428,587L424,582L421,577L418,572L415,567L412,562L409,558L407,553L404,548L402,543L400,538L398,533L395,528L393,523L390,518L387,513L385,508L382,503L379,498L376,493L374,488L371,483L369,478L367,473L365,469L363,464L361,459L359,454L357,449L355,444L353,438L351,433L349,427L347,422L345,417L344,413L341,407L339,403L338,398L336,393L334,389L333,385L331,381L329,377L328,374L327,371L325,368L324,365L323,363L322,361L322,359L321,357L320,355L320,353L319,352L319,351L319,350L318,349L318,348" stroke-opacity="1" stroke-width="2" stroke-linecap="round" stroke-linejoin="round" style="-webkit-tap-highlight-color: rgba(0, 0, 0, 0); stroke-opacity: 1; stroke-linecap: round; stroke-linejoin: round; -webkit-user-select: text;"></path><path fill="none" stroke="#6c7e83" d="M410,128L411,122L411,125L411,127L411,131L411,135L411,139L411,144L411,149L411,156L411,161L411,168L411,174L411,181L411,187L411,195L410,202L410,209L410,217L410,224L409,232L409,240L408,248L408,256L407,265L406,273L405,280L404,288L404,295L403,302L402,309L402,316L401,322L401,329L400,335L400,340L400,346L400,351L400,357L400,362L399,366L399,371L399,375L399,379L399,384L399,388L399,392L399,395L398,398L398,401L398,404L398,407L398,409L398,411L398,413L398,415L398,416L398,417L398,418L398,419L398,420" stroke-opacity="1" stroke-width="2" stroke-linecap="round" stroke-linejoin="round" style="-webkit-tap-highlight-color: rgba(0, 0, 0, 0); stroke-opacity: 1; stroke-linecap: round; stroke-linejoin: round; -webkit-user-select: text;"></path><path fill="none" stroke="#6c7e83" d="M302,504L299,511L299,513L298,515L298,517L297,520L295,523L294,526L292,530L290,534L288,539L285,543L283,548L281,553L279,557L276,562L274,567L272,571L270,576L268,581L266,586L263,591L260,596L258,602L255,607L252,613L250,618L247,623L244,629L242,634L239,640L237,645L234,650L232,655L229,659L227,664L225,668L224,672L222,676L220,679L218,683L217,686L215,690L214,692L212,695L211,697L210,699L209,701L208,703L207,705L206,707L205,709L204,710L203,711L203,712L203,714L202,714L202,715L201,715L201,712L200,712" stroke-opacity="1" stroke-width="2" stroke-linecap="round" stroke-linejoin="round" style="-webkit-tap-highlight-color: rgba(0, 0, 0, 0); stroke-opacity: 1; stroke-linecap: round; stroke-linejoin: round; -webkit-user-select: text;"></path><path fill="none" stroke="#6c7e83" d="M72,593L74,597L74,601L79,608L81,612L85,617L88,623L91,627L95,632L98,638L102,644L105,650L109,657L112,663L116,669L120,676L123,683L127,690L131,698L135,706L139,714L143,722L146,730L150,738L154,745L157,753L161,761L164,768L167,775L170,781L173,787L176,792L179,798L182,803L184,808L187,813L188,817L191,821L193,824L195,828L196,831L198,833L199,836L200,838L202,840L203,842L204,844L205,846L206,848L208,849L208,851L209,853L210,854L211,856L212,857L212,858L213,859L213,860L214,860L214,858L216,855" stroke-opacity="1" stroke-width="2" stroke-linecap="round" stroke-linejoin="round" style="-webkit-tap-highlight-color: rgba(0, 0, 0, 0); stroke-opacity: 1; stroke-linecap: round; stroke-linejoin: round; -webkit-user-select: text;"></path><path fill="none" stroke="#6c7e83" d="M283,864L285,863L285,861L285,859L285,856L286,853L287,851L288,847L289,844L290,840L292,836L293,832L294,828L296,822L297,817L299,811L300,805L302,799L303,793L305,787L306,781L307,775L309,769L310,763L312,757L313,751L314,746L316,740L317,735L318,730L320,726L321,720L322,716L324,710L325,706L326,702L327,697L328,693L329,688L330,684L331,680L332,676L333,672L334,669L335,665L336,661L336,657L337,654L338,651L339,649L339,646L340,643L340,640L341,638L341,635L341,633L342,631L342,629L343,627L343,625L344,623L344,621L344,620L345,618L345,617L346,616L346,615L346,614L347,614L347,613L348,613L349,613L353,616" stroke-opacity="1" stroke-width="2" stroke-linecap="round" stroke-linejoin="round" style="-webkit-tap-highlight-color: rgba(0, 0, 0, 0); stroke-opacity: 1; stroke-linecap: round; stroke-linejoin: round; -webkit-user-select: text;"></path><path fill="none" stroke="#6c7e83" d="M561,776L560,771L560,769L560,768L560,765L559,762L558,759L558,756L556,753L555,749L555,745L553,741L552,737L551,732L550,728L548,724L547,720L546,715L545,711L543,706L542,702L541,697L540,693L538,688L536,682L535,678L533,672L532,667L531,662L529,657L528,652L526,647L525,641L523,635L522,630L520,624L518,618L516,613L515,607L513,601L512,595L510,589L508,583L506,577L504,571L503,564L501,558L499,552L497,545L495,539L493,533L491,526L490,520L488,514L487,508L485,503L483,498L482,494L481,489L480,484L478,479L477,475L476,471L475,467L474,462L473,459L472,455L472,452L471,449L470,445L470,443L469,440L469,438L468,435L468,433L467,432L467,430L467,428L466,427L466,426L466,425L465,424L465,423L465,422L465,421" stroke-opacity="1" stroke-width="2" stroke-linecap="round" stroke-linejoin="round" style="-webkit-tap-highlight-color: rgba(0, 0, 0, 0); stroke-opacity: 1; stroke-linecap: round; stroke-linejoin: round; -webkit-user-select: text;"></path><path fill="none" stroke="#6c7e83" d="M266,347L258,343L256,344L254,346L250,348L247,351L244,354L239,357L235,360L231,363L226,367L222,370L217,374L212,377L207,381L202,385L197,389L192,392L187,396L182,399L177,403L172,406L167,410L163,413L158,417L154,420L149,423L144,426L139,429L135,432L130,435L125,439L121,442L117,445L113,448L108,450L104,453L101,455L97,457L93,460L90,462L87,464L84,466L80,468L77,470L74,472L72,474L69,476L67,477L65,479L63,480L61,482L59,483L57,484L54,485L53,486L51,487L50,488L49,489L47,489L47,490L46,491L45,491L45,492L45,491" stroke-opacity="1" stroke-width="2" stroke-linecap="round" stroke-linejoin="round" style="-webkit-tap-highlight-color: rgba(0, 0, 0, 0); stroke-opacity: 1; stroke-linecap: round; stroke-linejoin: round; -webkit-user-select: text;"></path><path fill="none" stroke="#6c7e83" d="M144,348L137,338L137,337L137,335L136,333L135,331L134,328L132,325L131,321L129,318L127,313L125,308L123,303L121,298L119,292L117,287L115,281L113,275L111,270L109,264L107,259L105,253L103,248L101,242L99,237L98,231L96,226L94,221L93,216L91,211L89,206L88,202L86,197L85,192L84,188L83,183L81,179L81,175L79,172L78,168L77,165L76,161L76,158L75,155L74,152L73,149L72,146L71,144L71,141L70,139L69,137L69,134L68,132L68,130L67,128L67,126L67,124L66,123L66,122L66,121L66,120L68,120" stroke-opacity="1" stroke-width="2" stroke-linecap="round" stroke-linejoin="round" style="-webkit-tap-highlight-color: rgba(0, 0, 0, 0); stroke-opacity: 1; stroke-linecap: round; stroke-linejoin: round; -webkit-user-select: text;"></path><path fill="none" stroke="#6c7e83" d="M285,51L288,55L290,57L291,60L293,63L295,67L297,70L299,74L301,78L302,82L304,86L306,90L308,95L310,99L312,103L314,108L316,112L318,117L320,121L322,126L324,131L325,135L327,139L329,143L331,147L332,151L334,156L335,160L337,164L339,168L340,172L341,175L342,179L344,183L345,186L346,190L348,194L349,197L351,201L352,205L353,208L354,212L355,214L356,217L358,220L358,223L359,225L361,228L361,230L362,232L363,234L364,236L364,238L365,239L366,241L366,242L367,243L367,244L368,245L368,246L370,246" stroke-opacity="1" stroke-width="2" stroke-linecap="round" stroke-linejoin="round" style="-webkit-tap-highlight-color: rgba(0, 0, 0, 0); stroke-opacity: 1; stroke-linecap: round; stroke-linejoin: round; -webkit-user-select: text;"></path><path fill="none" stroke="#6c7e83" d="M652,63L650,66L650,67L650,69L649,71L647,73L646,76L645,79L643,82L640,85L638,88L636,92L634,95L631,100L629,104L626,108L624,112L621,116L618,120L616,124L613,129L610,134L607,138L604,143L601,148L598,153L595,158L592,162L589,167L585,173L582,177L578,183L575,188L572,193L568,199L564,205L561,211L558,216L554,222L551,228L547,234L544,238L541,243L538,248L535,254L532,259L529,264L526,269L522,273L519,278L516,283L513,287L511,292L508,296L506,299L504,303L502,307L500,310L498,313L496,316L494,320L493,323L491,326L490,328L488,331L487,334L485,337L483,340L482,342L481,344L479,347L478,349L477,350L476,352L475,354L475,355L475,356" stroke-opacity="1" stroke-width="2" stroke-linecap="round" stroke-linejoin="round" style="-webkit-tap-highlight-color: rgba(0, 0, 0, 0); stroke-opacity: 1; stroke-linecap: round; stroke-linejoin: round; -webkit-user-select: text;"></path><path fill="none" stroke="#6c7e83" d="M627,336L628,340L628,342L628,345L628,348L628,352L628,355L628,358L628,361L628,364L628,367L628,371L628,375L628,379L628,383L628,387L628,391L628,395L628,400L628,405L628,409L628,414L628,419L628,424L628,428L628,433L628,438L628,443L628,447L628,451L628,456L628,460L628,465L628,468L628,472L628,477L628,481L628,485L628,489L628,493L628,497L628,501L628,505L628,509L628,513L628,517L628,521L628,525L628,529L628,533L628,537L628,540L628,544L628,547L628,551L628,554L628,557L628,560L628,564L628,567L628,569L628,572L628,574L628,577L628,579L628,581L628,583L628,584L628,585L630,585" stroke-opacity="1" stroke-width="2" stroke-linecap="round" stroke-linejoin="round" style="-webkit-tap-highlight-color: rgba(0, 0, 0, 0); stroke-opacity: 1; stroke-linecap: round; stroke-linejoin: round; -webkit-user-select: text;"></path><path fill="none" stroke="#6c7e83" d="M628,862L623,856L623,855L623,853L622,851L621,849L621,846L620,843L619,840L618,836L618,833L617,830L616,827L615,823L614,819L613,814L612,810L611,805L610,799L609,794L607,788L606,783L605,777L603,771L602,764L600,759L599,753L597,747L596,741L594,736L594,730L592,726L592,720L591,715L590,710L589,706L588,701L587,696L586,691L585,686L584,680L583,675L582,669L581,664L579,659L579,653L577,648L576,642L575,637L574,631L573,626L572,620L571,615L570,610L569,606L568,601L567,596L566,591L565,587L565,583L564,579L563,574L562,570L561,566L561,562L560,558L559,554L558,551L558,547L557,544L557,541L556,538L555,535L555,532L555,530L554,528L554,526L553,525L553,523L553,522L553,521L552,520L552,519L552,518" stroke-opacity="1" stroke-width="2" stroke-linecap="round" stroke-linejoin="round" style="-webkit-tap-highlight-color: rgba(0, 0, 0, 0); stroke-opacity: 1; stroke-linecap: round; stroke-linejoin: round; -webkit-user-select: text;"></path><path fill="none" stroke="#6c7e83" d="M451,516L450,518L450,522L450,525L450,529L450,533L450,537L449,542L449,546L448,550L447,554L447,559L446,563L446,567L445,571L445,575L444,580L443,584L443,590L442,596L442,602L441,608L440,613L439,619L438,625L438,630L437,636L436,641L435,646L434,651L434,656L433,661L432,666L431,671L431,676L430,681L429,686L428,690L428,695L427,699L426,703L426,708L425,712L425,716L424,720L424,724L423,727L423,731L422,734L421,738L421,742L421,745L420,748L420,751L419,754L419,757L419,759L418,762L418,764L417,766L417,768L417,770L417,772L417,773L417,774L416,775L416,776" stroke-opacity="1" stroke-width="2" stroke-linecap="round" stroke-linejoin="round" style="-webkit-tap-highlight-color: rgba(0, 0, 0, 0); stroke-opacity: 1; stroke-linecap: round; stroke-linejoin: round; -webkit-user-select: text;"></path><path fill="none" stroke="#6c7e83" d="M373,863L369,862L368,861L367,860L366,858L364,856L363,854L362,852L361,850L360,847L359,845L358,843L357,841L356,838L355,836L354,834L353,831L351,828L350,825L349,822L348,819L347,817L346,814L345,810L344,807L343,805L342,802L341,799L340,796L339,793L338,790L337,787L336,784L335,781L334,778L333,776L332,772L331,769L330,766L329,762L327,759L326,755L325,751L324,748L322,744L321,741L320,737L319,734L318,730L317,727L317,724L315,720L314,717L313,713L312,709L311,706L310,702L308,699L307,695L306,691L305,688L304,684L302,680L301,676L300,671L298,667L297,663L295,658L294,654L293,649L292,645L290,640L289,636L288,632L287,629L286,625L285,623L285,620L284,618L283,615L283,613L282,611L281,610L281,608L280,606L280,605L280,604L279,603L278,603" stroke-opacity="1" stroke-width="2" stroke-linecap="round" stroke-linejoin="round" style="-webkit-tap-highlight-color: rgba(0, 0, 0, 0); stroke-opacity: 1; stroke-linecap: round; stroke-linejoin: round; -webkit-user-select: text;"></path><path fill="none" stroke="#6c7e83" d="M218,508L214,506L214,508L212,511L210,514L208,518L205,523L203,528L200,533L197,537L195,543L192,547L190,552L187,557L184,562L181,568L178,573L175,579L171,585L168,591L165,596L162,602L159,607L156,613L153,618L150,624L147,629L144,634L142,639L139,644L136,649L134,654L131,658L128,662L126,667L123,671L120,676L118,681L115,686L113,690L110,695L108,699L105,704L103,708L101,712L99,715L97,719L96,722L93,726L92,729L90,733L88,736L87,739L85,742L84,745L82,748L81,751L79,754L78,756L77,758L76,761L75,762L74,764L73,766L72,768L71,769L71,771L70,773L69,774L69,776L68,778L67,779L67,780L66,781L65,782L65,783L64,784L64,785L64,786L63,786L63,787L63,784" stroke-opacity="1" stroke-width="2" stroke-linecap="round" stroke-linejoin="round" style="-webkit-tap-highlight-color: rgba(0, 0, 0, 0); stroke-opacity: 1; stroke-linecap: round; stroke-linejoin: round; -webkit-user-select: text;"></path><path fill="none" stroke="#6c7e83" d="M215,256L217,250L217,247L218,245L220,241L221,238L222,234L224,230L225,226L227,223L228,219L230,215L232,212L234,208L236,205L238,202L240,198L242,195L244,191L246,187L248,184L251,180L253,177L255,173L257,170L259,167L261,163L263,160L265,157L267,154L268,151L271,148L273,145L275,141L277,138L279,135L281,132L283,129L285,126L286,123L288,120L290,117L292,114L293,111L295,109L296,106L298,103L300,101L301,98L302,96L304,94L305,91L307,89L308,88L309,85L310,84L311,82L312,80L313,79L314,78L314,77L315,77L315,78" stroke-opacity="1" stroke-width="2" stroke-linecap="round" stroke-linejoin="round" style="-webkit-tap-highlight-color: rgba(0, 0, 0, 0); stroke-opacity: 1; stroke-linecap: round; stroke-linejoin: round; -webkit-user-select: text;"></path><path fill="none" stroke="#6c7e83" d="M392,62L385,62L387,62L389,62L392,62L394,62L397,62L400,63L402,63L405,63L408,64L411,65L414,66L417,67L420,68L423,69L425,71L428,72L430,73L433,75L435,77L438,79L440,80L443,83L445,85L447,87L449,89L451,91L452,93L454,95L456,98L458,100L459,103L460,105L462,108L463,111L465,114L466,117L468,120L470,123L471,127L472,130L473,133L474,136L475,140L476,143L476,146L477,149L477,153L478,156L478,159L479,163L479,166L479,169L479,172L479,175L479,178L479,181L479,184L479,187L479,190L478,192L477,195L477,198L476,200L475,203L474,206L473,208L472,210L470,212L469,215L468,217L466,219L465,220L464,222L463,224L462,225L460,227L459,229L458,230L456,232L455,234L453,235L452,236L451,238L450,240L448,241L446,243L445,244L443,246L441,247L440,248L438,250L436,252L434,253L433,255L431,256L429,258L427,259L425,260L424,262L422,263L420,264L418,265L417,266L415,267L413,268L412,268L411,269L409,270L408,270L407,270L406,271L404,271L403,272L402,272L401,273L400,273L399,273L398,273L397,274L396,274L395,275L394,275L393,275L392,275L391,275L390,276L388,276L387,276L386,276L385,276L384,276L383,276L381,276L380,276L378,276L377,276L375,276L374,276L373,276L371,276L370,276L368,276L367,276L365,276L363,276L362,276L361,276L359,276L357,276L355,276L353,276L351,275L349,275L347,274L345,273L343,273L341,272L338,270L336,270L334,269L332,268L330,266L328,265L326,264L324,263L322,262L320,261L318,260L317,259L315,258L314,258L312,257L311,256L310,255L309,254L308,254L307,253L306,252" stroke-opacity="1" stroke-width="2" stroke-linecap="round" stroke-linejoin="round" style="-webkit-tap-highlight-color: rgba(0, 0, 0, 0); stroke-opacity: 1; stroke-linecap: round; stroke-linejoin: round; -webkit-user-select: text;"></path><path fill="none" stroke="#6c7e83" d="M262,239L266,233L268,231L272,229L277,226L281,224L286,223L292,221L298,219L304,217L310,216L317,215L323,214L328,214L334,214L341,214L347,214L353,214L359,214L365,215L371,217L377,218L382,220L388,223L393,225L399,227L405,231L409,233L414,236L419,239L424,243L429,246L433,249L437,252L441,256L445,259L448,263L452,266L455,270L458,273L460,277L463,280L466,285L468,288L470,292L472,296L474,300L475,304L477,309L479,313L480,317L482,321L483,325L484,329L485,333L486,337L486,341L487,344L487,348L487,351L488,355L488,359L489,363L489,367L489,370L490,374L490,377L490,381L490,385L491,389L492,392L492,396L493,400L494,403L494,407L496,410L497,413L498,417L499,420L501,423L502,426L504,429L505,432L507,435L509,438L511,441L512,444L514,447L516,450L519,452L521,455L523,458L526,461L528,464L530,467L533,469L536,471L538,473L541,476L544,477L547,479L550,481L553,483L557,484L561,485L565,486L568,488L572,489L576,490L580,491L584,491L588,491L592,492L596,492L600,492L604,492L608,492L612,492L616,492L620,492L624,491L628,490L631,489L635,487L639,486L642,484L645,483L649,481L652,479L655,477L657,475L660,473L663,471L666,469L668,466L670,464L672,462L674,460L676,457L677,455L679,453L680,451L682,449L683,447L684,445L685,443L686,441L686,439L688,437L689,435L689,433L690,431L691,429L691,428L692,426L693,425L693,424L694,423L694,422L694,421L695,420L695,419L696,418L696,417" stroke-opacity="1" stroke-width="2" stroke-linecap="round" stroke-linejoin="round" style="-webkit-tap-highlight-color: rgba(0, 0, 0, 0); stroke-opacity: 1; stroke-linecap: round; stroke-linejoin: round; -webkit-user-select: text;"></path><path fill="none" stroke="#6c7e83" d="M711,339L704,336L702,336L700,336L698,336L696,336L693,337L690,338L688,338L685,340L682,341L679,343L676,344L673,346L670,348L667,350L664,353L661,355L657,358L655,360L651,364L648,366L645,370L643,372L639,376L636,379L633,383L630,386L627,390L624,394L622,397L620,401L618,404L616,408L613,411L612,415L610,418L608,422L607,426L606,429L604,433L603,437L602,441L601,445L599,449L599,452L598,456L597,459L597,462L596,466L596,469L596,472L595,475L595,478L595,482L595,485L595,489L595,492L595,496L595,499L595,503L595,506L595,509L595,512L595,516L595,518L595,522L595,525L595,528L595,530L596,533L596,535L597,538L598,540L599,543L600,545L601,547L601,550L602,552L603,554L604,556L605,558L606,560L607,562L608,564L609,566L610,568L611,569L612,571L613,573L614,574L616,576L616,577L618,579L618,580L620,581L621,582L622,584L623,585L624,586L626,587L627,588L628,589L629,591L630,592L632,593L633,594L635,595L636,596L638,597L639,597L641,598L642,599L644,600L645,601L647,601L648,602L650,603L652,603L653,604L655,605L656,606L658,606L659,606L660,607L662,608L663,608L665,608L666,609L667,609L669,610L670,610L671,610L672,610L674,610L675,610L677,610L678,610L679,610L681,610L682,610L683,610L684,610L686,610L687,610L688,610L689,609L691,608L692,608L693,607L694,606L695,606L696,606L696,605L697,605L697,604L697,603L697,602" stroke-opacity="1" stroke-width="2" stroke-linecap="round" stroke-linejoin="round" style="-webkit-tap-highlight-color: rgba(0, 0, 0, 0); stroke-opacity: 1; stroke-linecap: round; stroke-linejoin: round; -webkit-user-select: text;"></path><path fill="none" stroke="#6c7e83" d="M696,601L694,596L694,595L693,592L691,590L689,587L686,584L683,581L679,578L676,574L672,571L669,569L665,567L661,565L657,563L652,561L649,559L645,557L639,555L634,553L629,551L624,550L620,548L615,547L610,545L606,544L601,543L596,542L592,541L587,540L582,539L577,538L572,537L568,537L563,536L558,535L553,534L548,533L544,533L539,531L534,530L530,530L525,529L521,528L516,526L511,525L507,523L503,522L499,520L495,519L491,517L487,516L483,513L479,512L475,510L472,508L468,506L465,504L462,502L459,500L456,497L453,495L451,493L448,490L446,487L443,484L441,482L439,479L437,475L435,472L433,468L431,465L429,462L428,458L426,455L425,451L424,448L423,445L422,441L421,438L421,435L420,431L419,428L419,426L419,422L419,419L418,416L418,413L418,410L418,406L418,403L418,400L418,396L418,393L418,390L419,387L419,384L420,381L421,378L421,375L422,372L423,370L424,367L424,365L426,362L426,360L427,357L429,355L429,352L430,350L431,347L432,345L433,343L434,340L435,338L436,335L436,333L437,330L438,328L438,326L439,323L440,321L441,319L441,317L442,315L442,313L443,311L443,309L444,307L444,305L445,303L445,301L446,299L446,297L446,294L447,292L447,290L447,289L447,287L447,285L448,283L448,282L448,280L448,278L448,277L448,275L448,273L448,272L448,270L448,269L448,268L448,266L448,265L448,264L448,263L448,262L448,260L448,259L448,258L447,257L447,256L447,255" stroke-opacity="1" stroke-width="2" stroke-linecap="round" stroke-linejoin="round" style="-webkit-tap-highlight-color: rgba(0, 0, 0, 0); stroke-opacity: 1; stroke-linecap: round; stroke-linejoin: round; -webkit-user-select: text;"></path><path fill="none" stroke="#6c7e83" d="M439,165L443,160L446,160L448,160L452,160L455,160L458,160L462,161L465,162L468,164L471,166L475,167L477,169L481,171L484,174L487,177L490,180L492,183L495,186L498,189L500,192L503,195L505,199L507,202L510,207L511,210L513,214L515,218L517,221L519,225L520,230L521,234L523,238L524,243L525,247L526,251L526,256L527,260L527,264L528,268L528,271L528,275L528,280L528,284L528,288L528,292L528,297L528,301L528,306L527,310L526,314L524,318L523,323L521,327L520,331L518,336L516,339L514,343L512,347L510,351L507,355L505,358L503,362L500,365L497,369L494,372L492,375L488,378L485,381L482,384L479,387L476,389L472,392L469,394L466,396L463,398L460,400L457,401L453,403L450,404L447,406L443,407L440,408L437,409L434,411L430,412L427,413L424,413L421,414L419,415L416,416L413,416L410,416L407,417L405,417L402,417L400,417L398,417L395,417L393,417L390,417L388,417L385,417L383,416L380,416L378,415L376,414L373,413L371,411L369,410L367,409L364,407L362,405L360,403L358,401L356,400L353,398L351,396L349,394L348,392L346,391L344,389L342,387L340,384L338,382L336,380L335,378L333,376L332,373L331,371L329,369L328,367L327,365L326,362L325,360L324,359L324,357L322,355L322,353L321,351L321,350L320,348L320,347L319,346L319,345L319,344L318,343L318,342L318,341L318,340L318,338" stroke-opacity="1" stroke-width="2" stroke-linecap="round" stroke-linejoin="round" style="-webkit-tap-highlight-color: rgba(0, 0, 0, 0); stroke-opacity: 1; stroke-linecap: round; stroke-linejoin: round; -webkit-user-select: text;"></path><path fill="none" stroke="#6c7e83" d="M366,344L359,337L359,335L359,333L358,331L358,329L357,327L356,324L354,322L352,319L351,317L349,315L347,313L345,311L342,309L340,307L338,306L335,304L332,303L329,301L326,300L322,299L319,297L315,297L311,296L307,295L302,294L298,294L294,294L289,294L285,294L281,294L277,294L273,294L269,294L266,296L263,297L259,299L256,300L253,302L250,304L247,307L243,310L239,313L236,316L233,319L230,322L227,325L225,328L223,331L221,335L219,338L217,342L216,345L215,348L213,352L212,355L211,359L210,362L210,366L209,369L209,373L209,376L209,379L208,383L208,386L208,389L208,392L208,395L208,398L208,400L208,403L208,405L208,408L208,411L209,413L209,416L210,418L210,421L211,423L212,426L212,428L213,430L214,433L215,435L215,438L216,441L217,443L218,446L219,449L220,451L220,454L221,456L222,459L223,462L224,465L225,467L225,470L226,473L227,475L228,478L229,481L229,483L230,486L231,489L232,491L232,494L233,497L234,500L234,503L234,506L235,508L235,511L235,513L235,516L235,518L235,521L235,524L235,527L235,530L235,532L235,535L235,537L235,540L234,542L233,545L232,547L232,549L231,551L230,553L229,555L228,557L228,559L227,561L226,564L225,566L224,568L223,570L222,573L220,575L219,577L218,579L217,582L215,584L214,586L212,588L211,590L209,592L208,594L206,596L205,598L203,600L202,601L200,603L199,604L197,606L195,607L193,608L192,610L190,611L188,612L187,613L186,614L184,615L183,615L181,616L180,616L179,617L177,617L176,618L175,618L174,618L172,619L171,619L170,619L169,619L167,619L166,619L164,619L163,619L162,619L161,619L159,619L158,619L157,619L156,619L154,619L153,619L152,619L151,619L150,618L149,618L147,618L147,617L145,616L144,616L143,615L142,615L140,614L139,613L138,613L137,611L135,610L134,609L133,608L132,608L130,606L129,605L128,604L127,603L126,603L126,602L126,601L126,599L126,597" stroke-opacity="1" stroke-width="2" stroke-linecap="round" stroke-linejoin="round" style="-webkit-tap-highlight-color: rgba(0, 0, 0, 0); stroke-opacity: 1; stroke-linecap: round; stroke-linejoin: round; -webkit-user-select: text;"></path><path fill="none" stroke="#6c7e83" d="M47,489L47,491L47,494L49,496L51,499L53,503L56,506L58,510L61,513L64,518L66,520L69,524L72,528L75,532L79,536L82,540L85,545L89,549L92,552L96,557L99,561L103,564L106,568L109,572L112,575L114,578L117,580L120,583L122,585L124,588L126,590L128,592L130,594L132,596L134,598L135,600L137,602L138,604L140,606L142,608L143,609L144,611L146,613L147,615L149,617L151,619L152,621L154,623L156,625L157,626L159,628L160,630L162,631L164,633L166,634L167,636L169,637L171,639L174,640L176,642L178,644L181,645L183,647L186,649L189,650L191,652L194,653L196,654L199,655L201,656L204,657L207,658L210,659L212,660L215,661L218,662L221,663L224,664L227,665L230,666L233,666L236,667L239,668L243,668L246,669L250,669L254,670L257,670L261,671L265,671L268,671L272,671L276,671L279,671L282,671L285,671L289,671L292,671L295,669L298,668L301,666L304,665L307,663L310,662L312,660L315,659L318,657L320,656L322,655L325,653L327,652L329,651L331,649L333,647L334,646L336,644L338,642L339,640L341,639L342,637L344,635L345,633L346,631L347,629L349,627L350,625L351,623L352,620L353,618L353,616L354,614L354,612L355,610L356,607L356,605L356,603L357,601L357,598L357,596L358,593L358,591L358,589L358,586L358,584L358,582L358,579L358,577L358,574L358,572L358,569L358,567L358,564L358,562L358,559L358,557L358,555L358,553L357,550L357,549L357,547L357,545L356,543L356,542L356,540L356,538L356,536L355,535L355,533L355,531L354,530L354,528L354,527L353,525L353,524L353,523L352,521L352,520L351,518L351,517L351,516L350,514L350,513L350,512L350,511" stroke-opacity="1" stroke-width="2" stroke-linecap="round" stroke-linejoin="round" style="-webkit-tap-highlight-color: rgba(0, 0, 0, 0); stroke-opacity: 1; stroke-linecap: round; stroke-linejoin: round; -webkit-user-select: text;"></path><path fill="none" stroke="#6c7e83" d="M451,557L452,553L452,552L452,549L452,547L452,544L452,542L452,538L451,535L450,532L448,528L447,524L445,521L443,517L441,513L438,510L436,506L434,503L431,500L429,497L426,494L423,491L419,487L416,484L413,482L409,479L405,476L401,473L397,470L392,467L387,465L382,462L376,459L371,457L365,453L360,450L353,448L348,445L341,443L336,441L330,439L324,438L318,437L312,435L307,435L301,434L296,434L290,433L285,433L280,433L275,433L270,432L265,432L259,431L254,431L249,430L244,430L239,429L235,428L230,427L226,426L222,426L218,424L215,423L211,423L207,421L204,420L200,418L197,417L194,416L191,414L187,413L184,411L181,409L178,408L175,406L172,404L169,402L166,400L164,398L161,396L158,394L155,392L152,391L150,389L147,387L145,384L142,382L140,380L138,378L136,376L133,373L131,371L129,368L127,365L125,363L123,360L121,358L120,355L118,352L117,349L116,347L115,344L114,341L113,338L113,335L112,332L111,329L110,326L110,322L109,319L108,316L108,314L108,311L108,308L107,306L107,303L107,300L107,297L107,294L107,292L107,290L107,288L107,286L107,284L107,282L107,281L107,279L107,277L107,275L107,273L107,272L107,270L107,269L107,267L107,266L107,264L108,263L108,262L108,261L108,260L108,259L109,258" stroke-opacity="1" stroke-width="2" stroke-linecap="round" stroke-linejoin="round" style="-webkit-tap-highlight-color: rgba(0, 0, 0, 0); stroke-opacity: 1; stroke-linecap: round; stroke-linejoin: round; -webkit-user-select: text;"></path><path fill="none" stroke="#6c7e83" d="M162,118L162,117L162,119L162,122L162,126L162,129L162,133L161,137L161,141L161,145L161,149L160,153L159,158L159,162L159,167L158,171L157,176L157,183L156,188L155,193L154,200L153,205L152,210L152,216L151,221L150,228L150,233L149,238L149,243L148,248L147,253L147,257L146,262L145,265L144,270L144,274L143,277L142,281L142,285L142,289L141,292L140,295L140,298L139,302L139,304L138,307L138,310L138,312L138,315L137,318L137,321L137,324L137,326L137,329L137,331L137,335L137,338L137,341L137,343L137,347L137,350L137,353L138,356L138,360L139,363L139,367L141,370L142,374L142,377L144,381L145,385L146,389L147,393L149,397L150,401L152,406L153,409L154,413L156,418L158,421L159,425L161,429L163,433L165,436L167,440L169,443L171,447L173,450L175,452L176,455L178,458L181,461L183,464L185,467L187,469L190,472L192,475L194,477L197,480L199,482L202,484L204,486L206,488L209,490L211,492L213,494L216,496L219,497L221,499L224,500L226,502L228,503L231,504L233,506L236,506L238,508L240,508L242,509L245,510L247,511L249,512L251,512L254,513L256,513L258,513L260,514L262,514L264,515L266,515L268,516L270,516L272,516L274,516L276,516L278,516L280,516L282,516L284,516L285,516L288,516L289,516L291,516L293,516L294,516L296,515L298,515L299,514L301,513L302,513L304,512L306,511L307,511L309,510L310,509L312,508L313,507L314,507L315,506L316,506L316,505L316,504L315,502" stroke-opacity="1" stroke-width="2" stroke-linecap="round" stroke-linejoin="round" style="-webkit-tap-highlight-color: rgba(0, 0, 0, 0); stroke-opacity: 1; stroke-linecap: round; stroke-linejoin: round; -webkit-user-select: text;"></path><path fill="none" stroke="#6c7e83" d="M351,513L347,516L345,516L341,517L338,518L334,520L330,521L326,522L321,523L315,524L311,525L306,525L301,525L295,526L290,526L284,526L278,526L272,526L267,526L261,525L256,523L250,522L244,520L239,518L233,516L228,514L222,512L217,510L212,508L206,505L202,503L197,500L192,496L188,494L184,490L180,487L176,484L172,480L169,477L165,473L161,469L158,465L154,461L152,457L149,452L146,448L144,443L142,440L140,435L139,431L137,426L135,423L134,418L133,415L132,411L131,407L130,403L129,399L129,395L128,392L128,387L128,383L128,379L128,375L128,370L128,365L128,360L129,354L131,349L132,344L134,339L135,334L137,330L139,325L141,321L142,317L144,313L147,309L149,305L150,301L152,297L154,294L156,290L158,287L160,283L162,280L164,277L166,273L168,270L171,265L173,263L176,259L178,255L181,251L183,247L186,243L188,239L191,236L193,232L196,228L198,224L200,221L203,217L205,212L208,209L210,205L212,201L214,197L216,194L218,190L220,186L221,182L223,179L224,175L225,172L226,168L227,165L228,162L229,159L229,156L230,153L231,150L231,147L232,144L232,141L233,139L233,136L234,133L234,131L234,128L234,125L234,123L234,120L234,118L234,116L234,114L234,111L234,109L234,107L234,105L234,103L234,102L234,100L234,99L234,98L233,96L232,95L232,93L232,92L232,90L231,89L231,88L230,87L230,86L230,85L229,84L229,83L228,83" stroke-opacity="1" stroke-width="2" stroke-linecap="round" stroke-linejoin="round" style="-webkit-tap-highlight-color: rgba(0, 0, 0, 0); stroke-opacity: 1; stroke-linecap: round; stroke-linejoin: round; -webkit-user-select: text;"></path><path fill="none" stroke="#6c7e83" d="M204,70L207,65L209,63L211,61L213,59L216,57L219,56L222,54L225,52L229,50L232,48L237,46L242,44L247,42L251,41L256,40L263,39L268,38L274,38L279,38L285,38L290,38L295,38L300,38L305,39L309,42L313,44L316,46L319,49L322,51L325,54L328,57L330,60L332,62L334,65L336,68L339,71L340,74L342,78L344,81L345,85L346,88L348,91L349,95L351,100L352,104L353,108L354,112L355,117L356,122L356,127L357,132L357,136L358,141L358,146L358,151L358,156L358,161L358,165L357,170L356,175L354,180L353,185L351,190L349,195L347,199L345,203L343,207L340,211L338,214L336,218L334,221L331,224L329,228L326,231L324,234L321,236L319,239L316,241L313,243L310,246L307,248L303,250L300,252L296,254L293,256L288,258L284,260L280,262L276,263L272,264L268,265L265,266L261,267L258,267L255,268L252,268L250,268L247,268L244,268L242,268L239,268L237,268L234,268L232,268L229,268L227,268L225,268L223,267L221,266L219,265L217,265L216,264L214,263L212,262L211,261L209,260L208,259L206,258L205,258L203,257L202,256L200,255L199,254L198,253L196,252L195,251L193,250L192,248L191,248L190,247L189,246L189,245L189,243L189,241L189,239" stroke-opacity="1" stroke-width="2" stroke-linecap="round" stroke-linejoin="round" style="-webkit-tap-highlight-color: rgba(0, 0, 0, 0); stroke-opacity: 1; stroke-linecap: round; stroke-linejoin: round; -webkit-user-select: text;"></path><path fill="none" stroke="#6c7e83" d="M166,119L169,122L171,122L173,123L176,125L180,127L183,128L186,130L190,132L194,134L198,136L201,139L205,141L209,144L212,148L215,151L218,155L221,159L224,162L227,166L229,170L232,174L234,178L235,183L237,187L238,191L239,195L240,199L240,202L241,206L241,210L241,214L241,218L241,221L241,225L241,230L241,234L240,238L239,242L238,247L236,251L234,256L232,260L231,264L229,269L227,273L225,277L223,281L222,285L220,289L217,293L215,297L214,300L212,304L210,307L208,311L205,315L203,319L201,322L199,326L197,330L195,334L193,339L191,343L189,348L187,353L185,358L183,363L182,367L181,372L179,377L178,382L178,387L177,392L177,396L177,401L176,405L176,409L176,413L176,416L176,420L176,424L176,428L176,431L176,435L177,438L178,442L179,445L180,449L181,452L183,456L184,459L186,462L187,465L189,469L191,472L193,475L195,478L197,482L199,484L201,488L203,490L205,493L208,496L210,498L212,501L214,503L216,505L219,507L221,509L224,511L227,514L230,516L233,518L236,520L239,522L242,523L245,525L248,526L251,528L254,529L256,530L259,530L262,531L265,532L268,532L271,533L273,533L276,533L279,534L283,534L286,534L290,534L293,534L297,534L300,534L304,534L308,534L312,534L315,534L319,533L322,533L326,531L329,530L333,529L336,528L340,526L343,524L346,523L349,521L352,520L355,518L358,517L360,515L363,513L366,511L368,509L370,507L373,505L376,502L378,500L381,497L383,495L385,492L388,489L391,486L393,483L395,481L398,478L400,475L403,473L405,470L407,468L409,465L411,463L413,460L415,458L417,455L419,453L420,451L422,449L424,446L425,444L427,442L429,440L430,438L432,436L434,434L435,432L437,430L438,428L440,427L442,425L443,424L445,423L447,421L448,420L450,419L451,418L452,417L453,417L454,416L455,416L456,416L456,415L456,413" stroke-opacity="1" stroke-width="2" stroke-linecap="round" stroke-linejoin="round" style="-webkit-tap-highlight-color: rgba(0, 0, 0, 0); stroke-opacity: 1; stroke-linecap: round; stroke-linejoin: round; -webkit-user-select: text;"></path><path fill="none" stroke="#6c7e83" d="M398,409L403,413L404,414L404,415L405,416L406,418L407,420L408,422L409,425L411,428L412,431L414,433L416,436L417,440L419,443L421,447L424,450L426,453L429,457L433,461L436,465L439,468L442,472L445,474L448,477L452,479L455,482L459,484L462,485L465,486L468,488L471,489L474,489L477,490L480,490L482,491L485,491L488,491L491,491L494,491L497,491L500,491L503,491L507,491L510,490L513,489L516,488L520,487L524,486L527,484L530,483L533,481L537,479L540,478L543,476L546,474L549,472L553,470L556,467L559,465L562,462L565,460L568,457L572,453L575,450L578,447L582,444L585,440L588,436L591,432L594,427L597,422L601,417L604,412L607,407L609,402L612,398L615,393L617,388L619,383L622,378L624,373L626,368L628,364L630,359L631,354L633,349L634,345L635,340L636,334L637,328L638,324L639,319L639,314L640,309L641,304L641,300L642,296L642,291L643,287L643,282L643,277L643,273L643,269L643,265L643,261L643,257L643,253L643,250L642,247L641,244L640,241L639,238L638,236L637,234L636,231L635,229L634,227L633,224L632,222L631,219L630,217L629,215L628,213L627,211L626,209L626,207L624,205L623,203L623,202L622,200L621,199L621,197L620,196L620,195L619,194L618,193L618,192L619,192" stroke-opacity="1" stroke-width="2" stroke-linecap="round" stroke-linejoin="round" style="-webkit-tap-highlight-color: rgba(0, 0, 0, 0); stroke-opacity: 1; stroke-linecap: round; stroke-linejoin: round; -webkit-user-select: text;"></path><path fill="none" stroke="#6c7e83" d="M652,199L655,193L655,192L657,190L659,189L660,187L662,185L663,184L664,181L666,179L667,177L669,174L670,171L672,168L674,165L675,162L677,158L679,155L680,151L682,148L683,144L684,141L685,137L686,133L687,130L688,126L689,122L690,119L690,115L691,110L691,107L691,102L691,98L691,93L690,88L689,83L686,79L684,75L681,71L679,68L676,65L673,62L669,59L666,57L662,55L658,53L654,51L649,50L644,49L639,48L634,47L628,47L623,47L616,47L610,47L605,47L599,47L594,49L589,50L584,52L579,55L574,58L568,61L562,65L558,69L553,73L548,78L545,83L541,88L538,93L534,98L532,103L529,109L527,114L526,119L524,125L522,131L521,137L520,142L519,148L518,154L517,160L516,164L515,169L514,175L513,180L512,185L511,189L511,194L510,199L509,203L509,208L508,213L507,217L507,222L506,226L506,231L505,236L504,240L504,244L504,248L503,252L503,256L502,260L502,264L501,268L501,272L500,276L499,280L498,284L497,288L497,292L495,296L494,300L493,304L492,308L491,312L490,316L488,319L487,322L485,325L484,328L482,331L481,334L479,337L478,340L476,342L475,344L473,347L472,349L470,350L469,353L467,354L466,356L464,358L463,359L461,360L460,362L459,363L458,364L457,365L456,365L456,366L455,366L455,367L455,365L456,361" stroke-opacity="1" stroke-width="2" stroke-linecap="round" stroke-linejoin="round" style="-webkit-tap-highlight-color: rgba(0, 0, 0, 0); stroke-opacity: 1; stroke-linecap: round; stroke-linejoin: round; -webkit-user-select: text;"></path><path fill="none" stroke="#6c7e83" d="M407,129L410,124L412,124L415,126L418,128L421,130L424,133L428,136L432,139L436,142L439,145L443,149L446,153L450,157L453,161L455,166L458,170L460,175L463,180L464,185L466,191L467,195L468,202L469,207L469,212L470,217L470,222L470,228L470,234L470,239L470,245L468,250L467,256L466,261L465,266L464,271L462,277L461,283L459,288L458,293L456,297L454,302L452,307L451,312L448,317L446,322L444,326L442,331L440,335L438,338L436,342L434,346L431,350L429,353L426,356L424,360L422,363L419,367L417,370L415,372L413,375L410,377L408,380L406,383L404,385L402,388L400,390L397,392L395,395L393,397L391,399L388,401L386,403L384,405L382,406L380,408L379,409L377,411L375,412L374,413L373,415L372,415L371,416L370,416L370,417L369,417L369,418L368,418L368,419L369,419L369,420L370,420L370,417L371,413" stroke-opacity="1" stroke-width="2" stroke-linecap="round" stroke-linejoin="round" style="-webkit-tap-highlight-color: rgba(0, 0, 0, 0); stroke-opacity: 1; stroke-linecap: round; stroke-linejoin: round; -webkit-user-select: text;"></path><path fill="none" stroke="#6c7e83" d="M339,400L342,404L344,404L347,404L350,404L354,404L358,404L362,405L367,406L371,407L376,409L382,411L387,412L392,414L397,417L402,419L407,422L411,425L417,428L421,431L426,435L430,438L434,442L438,446L442,450L446,454L449,457L452,462L455,466L458,471L461,475L464,480L466,484L469,489L471,495L472,500L474,504L476,509L477,514L479,518L480,523L481,527L482,531L483,535L484,540L484,545L485,550L485,554L485,559L485,564L485,569L485,573L485,578L485,583L485,587L485,592L484,597L483,601L482,606L481,610L480,615L479,619L478,623L476,628L475,632L474,637L472,641L470,646L469,650L468,654L466,659L465,663L463,666L462,670L461,674L460,678L459,681L457,685L456,688L455,692L453,695L452,699L450,703L448,706L447,709L446,712L444,716L443,719L441,722L439,726L438,729L436,732L435,734L434,737L432,740L431,743L429,746L427,749L425,752L423,754L421,757L419,759L417,762L415,764L412,766L410,768L408,770L406,771L404,773L402,774L400,776L398,777L396,778L394,780L392,781L390,783L388,784L386,785L384,787L383,788L380,790L378,791L377,793L375,795L373,796L371,798L370,799L368,801L366,803L365,805L363,806L362,808L361,810L359,811L358,813L357,815L356,817L355,818L354,820L353,822L352,824L351,825L350,827L350,829L349,830L349,832L348,834L347,836L347,837L347,839L346,841L346,842L346,844L346,846L346,847L346,848L346,849L346,851L346,852L346,853L346,854L346,855L346,856L346,857L346,858L346,859L346,860L346,861L346,862L346,861L346,858L346,856" stroke-opacity="1" stroke-width="2" stroke-linecap="round" stroke-linejoin="round" style="-webkit-tap-highlight-color: rgba(0, 0, 0, 0); stroke-opacity: 1; stroke-linecap: round; stroke-linejoin: round; -webkit-user-select: text;"></path><path fill="none" stroke="#6c7e83" d="M340,846L342,855L344,855L345,855L347,855L349,855L350,855L352,855L354,855L356,855L358,855L360,855L362,854L364,853L367,852L369,851L371,849L373,847L376,845L379,843L381,840L383,838L386,835L388,832L390,829L392,826L393,823L395,819L396,815L397,810L398,806L400,801L400,795L401,790L402,785L402,780L402,774L402,767L402,760L401,754L400,747L397,741L395,734L392,728L389,722L386,715L383,709L380,704L377,699L374,693L371,688L368,683L364,678L361,674L358,669L355,664L351,659L349,655L345,651L342,647L339,644L335,640L332,637L328,634L324,631L321,628L317,625L313,623L309,620L305,618L301,616L298,614L294,612L290,610L287,610L283,608L279,607L276,607L273,606L269,605L266,605L263,604L259,604L256,603L253,603L250,603L246,603L244,603L241,603L239,603L236,603L233,603L230,603L228,603L225,603L223,603L221,603L219,603L217,603L215,603L212,603L210,603L209,603L207,603L205,603L203,604L201,604L199,604L198,605L196,605L194,605L193,605L191,605L190,606L188,606L187,606L186,606L185,606L184,606L183,606L182,606L181,606L181,605" stroke-opacity="1" stroke-width="2" stroke-linecap="round" stroke-linejoin="round" style="-webkit-tap-highlight-color: rgba(0, 0, 0, 0); stroke-opacity: 1; stroke-linecap: round; stroke-linejoin: round; -webkit-user-select: text;"></path><path fill="none" stroke="#6c7e83" d="M148,591L154,591L157,591L160,591L164,591L169,591L174,591L181,592L186,593L192,594L198,595L203,596L209,598L215,599L220,601L226,602L232,604L238,606L243,609L250,613L255,616L261,620L266,625L271,630L276,635L282,640L287,645L292,652L297,658L302,664L308,672L312,678L317,686L322,692L326,700L330,706L334,713L338,720L342,725L346,732L350,737L353,742L358,748L361,753L366,758L369,762L373,766L377,770L380,773L384,776L387,779L391,781L394,783L397,785L401,787L404,789L407,790L411,792L414,793L418,795L421,796L426,797L430,798L434,799L438,800L443,801L447,801L451,802L456,802L460,802L465,802L469,802L472,802L476,802L480,802L485,802L489,802L493,801L497,799L501,798L504,796L508,795L511,793L515,791L519,789L522,786L526,783L529,780L532,777L536,773L538,771L541,767L544,762L547,758L550,753L553,747L555,742L558,736L560,731L562,727L564,722L565,717L567,711L568,706L569,701L570,696L571,690L572,685L573,680L573,675L574,669L575,664L575,659L576,653L576,648L576,642L576,636L576,631L576,625L576,620L576,614L576,608L575,603L574,598L572,593L571,587L570,582L568,577L567,573L565,569L564,565L562,561L561,557L560,552L558,549L557,545L555,542L554,538L553,535L551,531L550,528L549,525L548,522L546,520L545,518L544,516L543,513L543,512L542,510L542,509L541,508L541,507L541,506L541,505L541,504" stroke-opacity="1" stroke-width="2" stroke-linecap="round" stroke-linejoin="round" style="-webkit-tap-highlight-color: rgba(0, 0, 0, 0); stroke-opacity: 1; stroke-linecap: round; stroke-linejoin: round; -webkit-user-select: text;"></path><path fill="none" stroke="#6c7e83" d="M546,517L548,513L548,511L548,509L548,506L548,502L548,499L548,495L548,491L548,488L548,484L548,479L548,474L548,470L548,465L546,461L545,457L543,452L541,447L540,443L537,438L535,433L532,429L529,425L526,421L523,417L519,413L516,410L512,407L508,405L504,402L499,401L495,399L490,399L485,398L480,398L475,398L469,398L464,399L460,399L455,401L451,402L446,404L442,406L438,409L434,411L431,415L427,418L424,421L421,425L418,428L415,433L412,437L409,442L407,446L404,450L402,454L401,458L400,462L398,467L397,472L396,476L396,481L395,485L395,490L395,495L395,500L395,505L395,510L395,515L395,520L395,525L395,530L396,535L397,539L398,543L400,547L401,552L403,556L405,559L407,564L409,568L411,572L413,575L416,579L418,583L420,586L422,588L424,591L426,593L428,596L430,598L431,599L432,601L433,602L434,603L435,603L435,604L436,604L436,605L436,603" stroke-opacity="1" stroke-width="2" stroke-linecap="round" stroke-linejoin="round" style="-webkit-tap-highlight-color: rgba(0, 0, 0, 0); stroke-opacity: 1; stroke-linecap: round; stroke-linejoin: round; -webkit-user-select: text;"></path><path fill="none" stroke="#6c7e83" d="M432,586L434,590L434,592L435,595L437,598L439,602L442,606L444,610L447,613L451,616L454,619L458,623L462,625L467,627L472,630L477,632L482,634L488,636L495,639L502,642L508,644L515,647L523,650L530,652L538,655L545,657L553,660L560,662L567,664L575,666L582,669L590,671L598,674L606,676L613,678L618,681L624,683L630,686L635,688L640,691L645,693L649,697L652,700L656,703L659,708L662,711L665,715L667,719L670,723L672,727L674,730L675,734L677,738L678,742L679,746L680,751L681,755L681,759L682,764L682,768L682,771L683,776L683,779L683,783L683,788L683,791L683,795L683,799L683,803L682,807L681,811L680,814L679,817L677,821L675,824L673,827L671,829L669,832L667,835L665,837L662,840L660,842L658,844L655,846L653,848L650,850L647,851L645,853L642,854L639,856L636,857L633,858L630,859L628,860L625,861L622,862L619,863L617,863L614,864L612,864L609,865L607,866L604,866L602,866L600,867L597,867L595,867L592,867L589,868L587,868L584,868L582,868L579,868L576,868L573,868L570,868L567,868L565,868L562,868L559,868L555,867L553,866L549,866L545,865L542,863L539,862L535,861L532,859L528,858L525,856L522,855L519,853L516,851L513,850L511,848L508,846L505,844L503,842L500,840L498,838L496,836L494,834L492,832L490,830L488,828L486,826L484,824L482,822L481,819L479,817L477,816L476,813L475,812L473,810L472,808L471,806L470,805L468,803L468,802L467,800L466,799L465,798L464,796L464,795L463,794L463,793L463,792L463,791L464,790L465,788L467,786" stroke-opacity="1" stroke-width="2" stroke-linecap="round" stroke-linejoin="round" style="-webkit-tap-highlight-color: rgba(0, 0, 0, 0); stroke-opacity: 1; stroke-linecap: round; stroke-linejoin: round; -webkit-user-select: text;"></path><path fill="none" stroke="#6c7e83" d="M465,781L466,784L468,784L471,784L473,784L477,783L480,783L484,783L488,783L492,782L495,781L499,781L502,780L505,779L508,778L511,776L514,775L517,774L521,773L524,771L528,769L531,768L535,766L538,765L543,763L546,761L550,760L554,758L558,757L561,755L565,754L569,752L572,751L577,749L580,747L584,746L588,744L592,742L596,741L599,739L603,737L607,735L611,734L615,732L618,729L622,728L626,727L629,725L633,723L636,722L639,720L642,719L645,717L647,716L650,714L652,713L655,712L657,710L660,709L662,708L664,707L666,706L668,705L670,704L672,703L673,702L674,701L675,701L676,700L677,700L678,700L678,699L678,698L678,697" stroke-opacity="1" stroke-width="2" stroke-linecap="round" stroke-linejoin="round" style="-webkit-tap-highlight-color: rgba(0, 0, 0, 0); stroke-opacity: 1; stroke-linecap: round; stroke-linejoin: round; -webkit-user-select: text;"></path><path fill="none" stroke="#6c7e83" d="M681,698L683,694L683,692L683,690L683,688L683,686L683,684L683,682L683,680L683,677L683,674L683,671L683,668L682,664L682,660L680,655L679,650L677,644L674,637L671,630L667,623L663,616L659,609L654,602L648,594L643,588L638,582L633,576L628,571L623,566L618,562L613,558L608,554L603,551L598,548L592,545L587,543L581,541L575,540L569,538L563,536L558,535L552,534L547,533L542,533L536,532L531,531L527,531L522,531L518,531L514,531L509,531L505,531L501,531L497,531L492,532L488,532L484,533L480,534L476,535L472,537L468,538L465,540L461,541L457,543L452,545L448,548L444,550L439,553L435,557L430,559L426,563L422,566L418,569L414,573L409,576L405,580L402,583L398,586L395,590L391,593L387,597L384,601L381,604L378,607L375,610L372,614L370,617L366,621L363,625L361,629L358,632L355,636L352,640L350,644L347,649L344,654L341,659L339,664L336,669L333,674L331,679L328,684L325,689L323,695L320,700L318,705L316,710L314,715L312,720L310,725L307,730L305,734L303,739L301,744L299,749L297,753L295,758L293,761L292,765L290,769L289,772L287,776L285,779L284,783L282,786L280,789L279,792L278,795L276,799L274,802L273,805L271,808L270,810L268,813L267,815L266,817L265,820L263,822L262,824L261,826L259,829L258,831L257,833L256,834L254,836L254,838L253,839L251,841L251,842L250,844L249,845L248,846L247,848L246,849L246,850L245,851L244,852L244,853L243,854L243,855L242,856L242,857L241,858L240,859L240,860L240,859L240,857L240,856" stroke-opacity="1" stroke-width="2" stroke-linecap="round" stroke-linejoin="round" style="-webkit-tap-highlight-color: rgba(0, 0, 0, 0); stroke-opacity: 1; stroke-linecap: round; stroke-linejoin: round; -webkit-user-select: text;"></path><path fill="none" stroke="#6c7e83" d="M254,845L250,849L250,851L250,852L249,853L247,855L246,856L244,856L243,857L242,858L240,858L239,858L237,859L236,859L234,860L233,860L231,860L229,861L227,861L225,861L223,861L221,861L218,861L215,861L212,861L209,861L205,861L201,861L197,859L192,858L186,856L178,853L171,849L163,846L155,842L149,839L142,836L137,832L131,828L125,824L120,819L113,813L107,808L101,803L95,797L90,792L86,788L81,784L78,780L75,776L72,771L70,766L67,761L65,756L63,751L61,746L59,742L57,736L55,732L54,727L53,720L52,715L52,709L51,703L50,697L50,691L50,686L50,680L50,674L50,669L50,662L50,657L50,651L51,645L52,640L53,635L54,631L55,627L56,624L57,621L59,618L59,615L61,613L62,610L63,607L64,605L66,602L67,600L68,598L69,597L70,595L71,593L71,592L72,591L72,590L73,589L73,588L74,588L73,588" stroke-opacity="1" stroke-width="2" stroke-linecap="round" stroke-linejoin="round" style="-webkit-tap-highlight-color: rgba(0, 0, 0, 0); stroke-opacity: 1; stroke-linecap: round; stroke-linejoin: round; -webkit-user-select: text;"></path><path fill="none" stroke="#6c7e83" d="M77,596L80,595L80,593L79,592L79,590L77,588L76,586L75,583L73,581L72,579L70,576L69,573L67,570L66,568L64,565L62,562L60,558L59,555L57,552L56,550L54,547L53,543L52,540L50,537L49,533L47,530L46,526L45,523L44,518L43,514L43,510L42,505L42,500L42,496L42,491L42,486L42,481L42,476L42,471L42,467L43,462L45,457L47,452L50,447L52,442L55,437L58,432L62,426L65,421L69,415L74,409L79,403L84,398L89,392L95,387L100,382L106,377L112,372L119,368L127,363L134,359L141,355L148,352L155,349L162,346L169,344L177,342L183,341L191,340L198,339L206,339L214,339L223,339L229,339L236,339L242,340L247,342L252,343L256,345L261,347L264,349L268,352L271,355L274,358L277,362L279,365L281,369L283,372L284,375L285,378L286,381L286,385L287,389L287,392L287,396L287,399L287,403L287,407L287,411L287,415L287,419L287,423L286,428L285,433L283,438L282,444L280,449L279,454L277,459L275,464L273,469L271,474L269,479L267,485L265,490L262,495L260,501L257,506L254,511L251,518L248,523L246,529L243,535L240,542L238,548L235,554L232,560L229,565L227,570L225,576L222,580L220,585L218,590L216,595L215,599L212,605L211,609L209,614L207,619L206,624L204,629L203,633L201,638L200,642L199,647L198,652L197,656L197,661L196,665L196,669L196,674L196,678L196,681L196,685L196,688L196,691L196,693L196,695L198,698L198,700L200,702L201,703L203,705L204,707L206,709L208,711L210,712L211,714L213,716L215,717L217,720L219,721L221,723L224,725L226,727L228,729L231,731L233,732L236,734L238,735L241,736L244,737L246,739L249,740L252,741L256,742L259,742L262,743L265,744L269,744L272,745L276,745L280,746L283,746L287,746L290,746L295,746L299,746L302,746L307,746L311,746L314,744L319,743L322,741L325,739L328,737L331,735L333,733L336,731L338,729L340,727L341,726L343,725L344,724L346,723L347,722L349,721L350,720L351,719L352,718L353,718L354,717L356,716L357,716L358,715L359,715L360,714L361,714L361,713L362,713L363,713L363,712L364,712L364,711L364,710L364,708" stroke-opacity="1" stroke-width="2" stroke-linecap="round" stroke-linejoin="round" style="-webkit-tap-highlight-color: rgba(0, 0, 0, 0); stroke-opacity: 1; stroke-linecap: round; stroke-linejoin: round; -webkit-user-select: text;"></path><path fill="none" stroke="#6c7e83" d="M352,716L354,716L354,715L354,714L354,712L354,710L354,708L354,706L354,703L354,701L354,698L353,695L353,692L353,688L352,685L351,682L351,678L350,675L349,671L348,667L347,664L346,659L346,655L345,652L344,648L344,645L343,641L343,637L342,634L341,630L341,627L340,624L339,621L339,618L338,614L338,611L337,608L336,605L336,602L335,599L335,596L334,593L334,591L333,587L332,584L331,581L330,578L330,575L329,572L328,569L327,566L327,563L326,561L325,558L324,555L324,553L323,550L322,548L322,546L321,544L320,541L320,539L319,537L319,534L318,532L317,530L317,527L316,525L315,523L314,520L314,518L313,516L312,513L311,510L310,508L310,505L309,502L308,499L307,496L307,494L306,491L305,488L305,485L304,482L303,479L302,475L301,472L300,469L300,466L299,462L298,459L298,456L297,453L296,450L295,446L294,443L293,440L293,438L292,435L291,431L290,428L289,426L288,423L288,420L287,418L286,415L285,413L285,410L284,408L283,405L282,403L281,400L281,398L280,395L279,393L279,391L278,389L277,387L277,385L276,383L276,381L275,379L274,377L274,375L273,373L273,371L272,370L272,368L271,366L271,365L270,363L270,362L269,360L269,359L268,357L268,356L268,354L267,353L267,351L267,350L266,348L266,347L266,346L265,345L265,344L265,343L264,342L264,341L263,340L263,339L263,338L263,337L263,336L262,336L262,335L262,334L262,333L262,332L262,331L262,330L262,329L262,328L262,327L262,326L262,325L262,324L262,322L262,320L262,318L262,316L263,314L263,312L265,309L266,307L268,304L269,302L271,299L273,297L274,294L276,292L278,290L280,287L282,285L284,284L286,282L289,280L291,278L293,277L295,275L297,274L299,273L301,272L303,271L305,270L308,269L310,268L312,268L314,267L317,266L319,265L322,265L324,264L327,264L329,263L331,263L333,262L335,262L337,261L339,260L341,260L343,260L345,259L347,259L349,258L350,258L352,258L354,257L356,256L358,256L360,256L361,255L364,254L366,254L368,253L370,253L373,252L375,251L378,250L380,249L382,248L384,247L387,246L389,245L391,243L393,242L395,241L397,240L399,238L400,236L402,235L404,233L406,231L407,229L409,226L410,224L412,222L412,220L414,217L415,215L416,212L417,210L417,208L418,205L419,203L420,201L420,198L421,196L421,193L421,190L422,187L422,185L422,182L422,179L422,177L422,174L422,171L422,168L422,166L421,163L420,161L419,158L418,156L417,153L416,151L415,149L414,146L413,144L412,141L411,139L409,136L409,134L407,132L406,131L405,129L404,127L403,126L402,124L401,122L400,120L400,119L399,117L398,115L397,113L396,111L395,110L395,108L394,107L393,105L392,104L392,103L391,102L390,100L390,99L389,98L389,96L388,95L388,94L387,93L387,91L387,90L387,89L387,88L386,86L386,85L386,84L386,83L386,82L385,81L385,80L385,79L385,78L385,77L385,76L385,75L385,74L385,73L385,72L385,71L385,70L385,69L385,68L385,67L385,66L386,65" stroke-opacity="1" stroke-width="2" stroke-linecap="round" stroke-linejoin="round" style="-webkit-tap-highlight-color: rgba(0, 0, 0, 0); stroke-opacity: 1; stroke-linecap: round; stroke-linejoin: round; -webkit-user-select: text;"></path></svg>