<svg height="906" version="1.1" width="768" xmlns="http://www.w3.org/2000/svg" xmlns:xlink="http://www.w3.org/1999/xlink" style="overflow: hidden; position: relative; -webkit-user-select: text;"><desc style="-webkit-tap-highlight-color: rgba(0, 0, 0, 0); -webkit-user-select: text;">Created with Raphaël 2.2.0</desc><defs style="-webkit-tap-highlight-color: rgba(0, 0, 0, 0); -webkit-user-select: text;"></defs><path fill="none" stroke="#6c7e83" d="M87,127L98,124L100,124L102,124L105,124L108,124L112,124L116,124L121,124L128,124L135,124L142,124L149,124L156,124L162,124L167,124L171,124L174,124L175,124L176,124" stroke-opacity="1" stroke-width="2" stroke-linecap="round" stroke-linejoin="round" style="-webkit-tap-highlight-color: rgba(0, 0, 0, 0); stroke-opacity: 1; stroke-linecap: round; stroke-linejoin: round; -webkit-user-select: text;"></path><path fill="none" stroke="#6c7e83" d="M264,125L270,124L273,124L276,124L281,124L286,124L291,124L296,124L302,124L309,124L316,124L323,124L330,124L337,124L344,124L351,124L356,124L361,124L365,124L366,124L367,124L368,124" stroke-opacity="1" stroke-width="2" stroke-linecap="round" stroke-linejoin="round" style="-webkit-tap-highlight-color: rgba(0, 0, 0, 0); stroke-opacity: 1; stroke-linecap: round; stroke-linejoin: round; -webkit-user-select: text;"></path><path fill="none" stroke="#6c7e83" d="M451,123L451,120L453,120L455,120L458,120L462,120L465,120L470,120L475,120L482,120L489,120L495,120L502,120L509,120L514,120L519,120L523,120L526,120L528,120L529,120L530,120L530,121" stroke-opacity="1" stroke-width="2" stroke-linecap="round" stroke-linejoin="round" style="-webkit-tap-highlight-color: rgba(0, 0, 0, 0); stroke-opacity: 1; stroke-linecap: round; stroke-linejoin: round; -webkit-user-select: text;"></path><path fill="none" stroke="#6c7e83" d="M607,124L608,124L611,124L613,124L617,124L621,124L626,124L632,124L638,124L645,124L651,124L658,124L664,124L669,124L674,124L677,124L678,124L679,124" stroke-opacity="1" stroke-width="2" stroke-linecap="round" stroke-linejoin="round" style="-webkit-tap-highlight-color: rgba(0, 0, 0, 0); stroke-opacity: 1; stroke-linecap: round; stroke-linejoin: round; -webkit-user-select: text;"></path><path fill="none" stroke="#6c7e83" d="M162,224L172,224L174,224L178,224L184,224L190,224L197,224L205,224L214,224L221,224L228,224L234,224L238,224L241,224L242,224L243,224" stroke-opacity="1" stroke-width="2" stroke-linecap="round" stroke-linejoin="round" style="-webkit-tap-highlight-color: rgba(0, 0, 0, 0); stroke-opacity: 1; stroke-linecap: round; stroke-linejoin: round; -webkit-user-select: text;"></path><path fill="none" stroke="#6c7e83" d="M312,224L309,222L312,222L316,222L321,222L326,222L333,222L342,222L351,221L360,221L370,221L380,221L388,221L396,221L402,221L407,221L411,221L413,221L414,221L415,221L416,221L419,221" stroke-opacity="1" stroke-width="2" stroke-linecap="round" stroke-linejoin="round" style="-webkit-tap-highlight-color: rgba(0, 0, 0, 0); stroke-opacity: 1; stroke-linecap: round; stroke-linejoin: round; -webkit-user-select: text;"></path><path fill="none" stroke="#6c7e83" d="M485,214L486,213L489,213L492,213L496,213L501,213L507,213L512,213L520,213L527,213L534,213L542,213L549,213L555,213L560,213L564,213L566,213L567,213L568,213" stroke-opacity="1" stroke-width="2" stroke-linecap="round" stroke-linejoin="round" style="-webkit-tap-highlight-color: rgba(0, 0, 0, 0); stroke-opacity: 1; stroke-linecap: round; stroke-linejoin: round; -webkit-user-select: text;"></path><path fill="none" stroke="#6c7e83" d="M620,207L621,205L624,205L628,205L633,205L638,205L645,205L652,205L659,205L666,205L673,205L678,205L684,205L688,205L691,205L693,205L693,206L693,207" stroke-opacity="1" stroke-width="2" stroke-linecap="round" stroke-linejoin="round" style="-webkit-tap-highlight-color: rgba(0, 0, 0, 0); stroke-opacity: 1; stroke-linecap: round; stroke-linejoin: round; -webkit-user-select: text;"></path><path fill="none" stroke="#6c7e83" d="M46,283L48,287L53,287L69,287L79,287L89,287L101,287L112,287L123,287L132,287L139,287L145,287L149,287L152,287L153,287L154,287" stroke-opacity="1" stroke-width="2" stroke-linecap="round" stroke-linejoin="round" style="-webkit-tap-highlight-color: rgba(0, 0, 0, 0); stroke-opacity: 1; stroke-linecap: round; stroke-linejoin: round; -webkit-user-select: text;"></path><path fill="none" stroke="#6c7e83" d="M211,295L210,293L214,293L219,293L223,293L228,293L235,293L241,293L248,293L256,293L266,293L276,293L287,293L298,293L305,293L313,293L317,293L321,293L323,293L324,293L327,293" stroke-opacity="1" stroke-width="2" stroke-linecap="round" stroke-linejoin="round" style="-webkit-tap-highlight-color: rgba(0, 0, 0, 0); stroke-opacity: 1; stroke-linecap: round; stroke-linejoin: round; -webkit-user-select: text;"></path><path fill="none" stroke="#6c7e83" d="M414,292L419,293L422,293L426,293L431,293L435,293L442,293L448,293L456,293L466,293L475,293L482,293L491,293L497,293L502,293L506,293L507,293L508,293L509,293" stroke-opacity="1" stroke-width="2" stroke-linecap="round" stroke-linejoin="round" style="-webkit-tap-highlight-color: rgba(0, 0, 0, 0); stroke-opacity: 1; stroke-linecap: round; stroke-linejoin: round; -webkit-user-select: text;"></path><path fill="none" stroke="#6c7e83" d="M579,287L579,288L582,288L585,288L589,288L595,288L602,289L611,289L621,290L631,290L642,291L653,291L664,292L672,292L679,292L685,292L689,292L692,292L694,292" stroke-opacity="1" stroke-width="2" stroke-linecap="round" stroke-linejoin="round" style="-webkit-tap-highlight-color: rgba(0, 0, 0, 0); stroke-opacity: 1; stroke-linecap: round; stroke-linejoin: round; -webkit-user-select: text;"></path><path fill="none" stroke="#6c7e83" d="M448,387L441,388L445,388L449,388L455,388L462,388L471,388L481,388L491,388L502,388L513,388L523,388L533,388L540,388L547,388L551,388L555,387L557,387L558,387L559,387" stroke-opacity="1" stroke-width="2" stroke-linecap="round" stroke-linejoin="round" style="-webkit-tap-highlight-color: rgba(0, 0, 0, 0); stroke-opacity: 1; stroke-linecap: round; stroke-linejoin: round; -webkit-user-select: text;"></path><path fill="none" stroke="#6c7e83" d="M629,386L630,385L633,385L637,385L641,385L648,385L655,385L664,385L672,385L680,385L688,385L694,384L699,384L703,384L705,384L706,383" stroke-opacity="1" stroke-width="2" stroke-linecap="round" stroke-linejoin="round" style="-webkit-tap-highlight-color: rgba(0, 0, 0, 0); stroke-opacity: 1; stroke-linecap: round; stroke-linejoin: round; -webkit-user-select: text;"></path><path fill="none" stroke="#6c7e83" d="M226,392L232,392L236,392L241,392L248,392L257,392L266,392L277,392L288,392L298,392L309,392L318,392L325,393L330,393L334,393L336,393L337,393L338,393L338,394" stroke-opacity="1" stroke-width="2" stroke-linecap="round" stroke-linejoin="round" style="-webkit-tap-highlight-color: rgba(0, 0, 0, 0); stroke-opacity: 1; stroke-linecap: round; stroke-linejoin: round; -webkit-user-select: text;"></path><path fill="none" stroke="#6c7e83" d="M86,395L87,396L93,396L101,396L111,395L122,395L133,394L142,394L149,394L154,394L157,394L159,394" stroke-opacity="1" stroke-width="2" stroke-linecap="round" stroke-linejoin="round" style="-webkit-tap-highlight-color: rgba(0, 0, 0, 0); stroke-opacity: 1; stroke-linecap: round; stroke-linejoin: round; -webkit-user-select: text;"></path><path fill="none" stroke="#6c7e83" d="M74,477L79,478L83,478L88,478L95,478L104,478L115,479L130,479L144,480L158,480L169,480L179,480L186,480L191,480L194,480L195,480L195,481" stroke-opacity="1" stroke-width="2" stroke-linecap="round" stroke-linejoin="round" style="-webkit-tap-highlight-color: rgba(0, 0, 0, 0); stroke-opacity: 1; stroke-linecap: round; stroke-linejoin: round; -webkit-user-select: text;"></path><path fill="none" stroke="#6c7e83" d="M261,484L268,484L272,484L277,484L284,484L293,484L302,484L315,484L326,484L340,484L353,484L363,484L373,484L380,484L383,484L386,484L388,484L391,484" stroke-opacity="1" stroke-width="2" stroke-linecap="round" stroke-linejoin="round" style="-webkit-tap-highlight-color: rgba(0, 0, 0, 0); stroke-opacity: 1; stroke-linecap: round; stroke-linejoin: round; -webkit-user-select: text;"></path><path fill="none" stroke="#6c7e83" d="M439,469L448,469L454,469L460,469L469,469L478,469L488,469L499,469L510,469L521,469L532,469L542,469L549,469L554,469L558,469L561,469L562,469L565,469" stroke-opacity="1" stroke-width="2" stroke-linecap="round" stroke-linejoin="round" style="-webkit-tap-highlight-color: rgba(0, 0, 0, 0); stroke-opacity: 1; stroke-linecap: round; stroke-linejoin: round; -webkit-user-select: text;"></path><path fill="none" stroke="#6c7e83" d="M642,474L640,474L645,474L652,474L660,474L667,474L674,474L682,474L687,474L691,474L695,474L697,474L698,474L699,474L699,475L699,476" stroke-opacity="1" stroke-width="2" stroke-linecap="round" stroke-linejoin="round" style="-webkit-tap-highlight-color: rgba(0, 0, 0, 0); stroke-opacity: 1; stroke-linecap: round; stroke-linejoin: round; -webkit-user-select: text;"></path><path fill="none" stroke="#6c7e83" d="M156,575L171,575L177,575L187,575L196,576L207,576L217,577L228,578L239,578L247,578L253,578L259,578L263,578L265,578L266,579L267,579L270,579" stroke-opacity="1" stroke-width="2" stroke-linecap="round" stroke-linejoin="round" style="-webkit-tap-highlight-color: rgba(0, 0, 0, 0); stroke-opacity: 1; stroke-linecap: round; stroke-linejoin: round; -webkit-user-select: text;"></path><path fill="none" stroke="#6c7e83" d="M340,567L346,567L351,567L356,567L362,567L372,567L381,567L392,567L405,567L415,566L426,565L433,565L439,565L444,564L446,564L448,564L449,564L452,563" stroke-opacity="1" stroke-width="2" stroke-linecap="round" stroke-linejoin="round" style="-webkit-tap-highlight-color: rgba(0, 0, 0, 0); stroke-opacity: 1; stroke-linecap: round; stroke-linejoin: round; -webkit-user-select: text;"></path><path fill="none" stroke="#6c7e83" d="M533,565L534,564L537,564L542,564L550,564L559,565L568,565L579,566L591,566L602,566L613,566L622,566L629,566L635,566L640,566L643,566L645,566L646,566L646,567" stroke-opacity="1" stroke-width="2" stroke-linecap="round" stroke-linejoin="round" style="-webkit-tap-highlight-color: rgba(0, 0, 0, 0); stroke-opacity: 1; stroke-linecap: round; stroke-linejoin: round; -webkit-user-select: text;"></path><path fill="none" stroke="#6c7e83" d="M82,675L84,674L86,674L89,674L93,674L101,674L110,675L122,675L136,675L146,676L157,676L164,676L170,676L174,676L176,676L177,676L178,676" stroke-opacity="1" stroke-width="2" stroke-linecap="round" stroke-linejoin="round" style="-webkit-tap-highlight-color: rgba(0, 0, 0, 0); stroke-opacity: 1; stroke-linecap: round; stroke-linejoin: round; -webkit-user-select: text;"></path><path fill="none" stroke="#6c7e83" d="M237,673L239,672L243,672L248,672L254,672L263,672L272,672L282,672L295,672L304,671L317,669L325,668L332,668L338,667L344,667L347,667L350,667L351,667L352,667L353,666L355,666L361,664" stroke-opacity="1" stroke-width="2" stroke-linecap="round" stroke-linejoin="round" style="-webkit-tap-highlight-color: rgba(0, 0, 0, 0); stroke-opacity: 1; stroke-linecap: round; stroke-linejoin: round; -webkit-user-select: text;"></path><path fill="none" stroke="#6c7e83" d="M419,663L422,664L426,664L430,664L434,664L441,666L448,666L455,667L463,667L473,667L482,667L492,667L501,667L507,666L512,666L516,666L518,666L519,666L520,666L521,666L525,666" stroke-opacity="1" stroke-width="2" stroke-linecap="round" stroke-linejoin="round" style="-webkit-tap-highlight-color: rgba(0, 0, 0, 0); stroke-opacity: 1; stroke-linecap: round; stroke-linejoin: round; -webkit-user-select: text;"></path><path fill="none" stroke="#6c7e83" d="M590,665L591,667L594,667L598,667L603,667L609,667L616,667L625,667L637,667L649,667L662,667L672,666L682,665L689,665L694,665L699,665L702,665L703,665" stroke-opacity="1" stroke-width="2" stroke-linecap="round" stroke-linejoin="round" style="-webkit-tap-highlight-color: rgba(0, 0, 0, 0); stroke-opacity: 1; stroke-linecap: round; stroke-linejoin: round; -webkit-user-select: text;"></path><path fill="none" stroke="#6c7e83" d="M115,767L120,770L124,770L132,770L140,770L149,771L162,772L172,773L185,773L194,774L202,775L208,775L212,776L215,776L216,776L217,776L219,776L222,774" stroke-opacity="1" stroke-width="2" stroke-linecap="round" stroke-linejoin="round" style="-webkit-tap-highlight-color: rgba(0, 0, 0, 0); stroke-opacity: 1; stroke-linecap: round; stroke-linejoin: round; -webkit-user-select: text;"></path><path fill="none" stroke="#6c7e83" d="M299,771L290,770L288,769L287,768L288,768L290,768L294,768L298,768L304,768L311,768L320,768L329,768L341,768L353,768L365,767L377,766L387,766L397,766L404,765L409,765L413,765L415,765L417,765L419,765L421,765" stroke-opacity="1" stroke-width="2" stroke-linecap="round" stroke-linejoin="round" style="-webkit-tap-highlight-color: rgba(0, 0, 0, 0); stroke-opacity: 1; stroke-linecap: round; stroke-linejoin: round; -webkit-user-select: text;"></path><path fill="none" stroke="#6c7e83" d="M490,771L488,771L491,771L494,771L499,771L506,771L513,771L522,771L532,771L541,771L551,771L558,771L563,771L567,771L570,771L571,771L572,771L572,770L573,770L579,769" stroke-opacity="1" stroke-width="2" stroke-linecap="round" stroke-linejoin="round" style="-webkit-tap-highlight-color: rgba(0, 0, 0, 0); stroke-opacity: 1; stroke-linecap: round; stroke-linejoin: round; -webkit-user-select: text;"></path><path fill="none" stroke="#6c7e83" d="M625,778L628,780L633,780L637,780L644,780L651,780L659,780L666,780L675,780L684,780L690,780L696,780L700,780L703,780L704,780" stroke-opacity="1" stroke-width="2" stroke-linecap="round" stroke-linejoin="round" style="-webkit-tap-highlight-color: rgba(0, 0, 0, 0); stroke-opacity: 1; stroke-linecap: round; stroke-linejoin: round; -webkit-user-select: text;"></path><path fill="none" stroke="#6c7e83" d="M205,858L210,857L215,857L222,857L232,857L242,857L253,858L264,858L273,858L278,858L283,858L286,859L287,859L288,859L289,859L293,859" stroke-opacity="1" stroke-width="2" stroke-linecap="round" stroke-linejoin="round" style="-webkit-tap-highlight-color: rgba(0, 0, 0, 0); stroke-opacity: 1; stroke-linecap: round; stroke-linejoin: round; -webkit-user-select: text;"></path><path fill="none" stroke="#6c7e83" d="M403,861L406,860L410,860L414,860L421,860L429,860L436,860L447,860L456,860L465,860L472,860L478,860L482,860L485,860L486,860L487,859L492,858" stroke-opacity="1" stroke-width="2" stroke-linecap="round" stroke-linejoin="round" style="-webkit-tap-highlight-color: rgba(0, 0, 0, 0); stroke-opacity: 1; stroke-linecap: round; stroke-linejoin: round; -webkit-user-select: text;"></path><path fill="none" stroke="#6c7e83" d="M563,860L568,861L572,861L579,861L587,862L597,863L610,865L624,866L639,866L653,866L664,866L673,866L679,866L683,866L685,866L686,866" stroke-opacity="1" stroke-width="2" stroke-linecap="round" stroke-linejoin="round" style="-webkit-tap-highlight-color: rgba(0, 0, 0, 0); stroke-opacity: 1; stroke-linecap: round; stroke-linejoin: round; -webkit-user-select: text;"></path><path fill="none" stroke="#6c7e83" d="M65,44L80,41L88,41L96,40L109,39L119,38L130,37L140,37L147,36L151,35L154,35L156,35L157,35" stroke-opacity="1" stroke-width="2" stroke-linecap="round" stroke-linejoin="round" style="-webkit-tap-highlight-color: rgba(0, 0, 0, 0); stroke-opacity: 1; stroke-linecap: round; stroke-linejoin: round; -webkit-user-select: text;"></path><path fill="none" stroke="#6c7e83" d="M279,34L280,34L285,34L293,34L302,34L312,34L324,34L335,34L346,34L353,34L360,34L364,34L367,34L368,34" stroke-opacity="1" stroke-width="2" stroke-linecap="round" stroke-linejoin="round" style="-webkit-tap-highlight-color: rgba(0, 0, 0, 0); stroke-opacity: 1; stroke-linecap: round; stroke-linejoin: round; -webkit-user-select: text;"></path><path fill="none" stroke="#6c7e83" d="M486,39L499,39L506,39L515,39L528,39L538,39L553,39L562,39L570,39L576,39L580,39L583,39L584,40" stroke-opacity="1" stroke-width="2" stroke-linecap="round" stroke-linejoin="round" style="-webkit-tap-highlight-color: rgba(0, 0, 0, 0); stroke-opacity: 1; stroke-linecap: round; stroke-linejoin: round; -webkit-user-select: text;"></path><path fill="none" stroke="#6c7e83" d="M655,47L667,49L674,49L683,49L690,49L697,49L702,49L705,50L706,51L706,52" stroke-opacity="1" stroke-width="2" stroke-linecap="round" stroke-linejoin="round" style="-webkit-tap-highlight-color: rgba(0, 0, 0, 0); stroke-opacity: 1; stroke-linecap: round; stroke-linejoin: round; -webkit-user-select: text;"></path><path fill="none" stroke="#6c7e83" d="M144,29L149,35L151,37L153,39L155,40L157,43L158,45L160,47L162,50L164,53L166,56L169,59L171,61L173,64L176,68L178,71L180,74L182,78L184,81L187,85L189,88L192,92L194,96L197,99L199,103L202,106L205,110L208,114L210,118L213,122L216,125L220,129L222,133L225,136L228,140L230,144L234,148L237,152L239,155L242,158L244,163L247,167L249,170L252,175L254,178L256,182L259,185L261,188L263,192L265,194L267,197L269,200L271,202L273,204L274,206L276,207L277,209L278,210L280,212L281,214L282,214L283,215L284,216L285,217L286,217L286,218L287,218L287,219L288,219L289,219L290,219" stroke-opacity="1" stroke-width="2" stroke-linecap="round" stroke-linejoin="round" style="-webkit-tap-highlight-color: rgba(0, 0, 0, 0); stroke-opacity: 1; stroke-linecap: round; stroke-linejoin: round; -webkit-user-select: text;"></path><path fill="none" stroke="#6c7e83" d="M448,122L455,124L458,126L460,129L462,132L465,136L467,140L469,144L470,148L472,152L472,156L473,160L474,164L474,168L475,173L475,177L475,180L475,184L475,188L475,192L475,196L475,199L475,203L475,206L475,209L474,212L472,215L471,219L469,221L468,224L466,227L464,230L462,233L460,236L457,239L455,242L452,245L449,248L446,251L442,253L439,256L436,258L433,261L429,263L426,265L423,267L419,269L416,270L412,272L409,274L406,275L402,277L399,278L396,279L392,280L389,281L385,282L382,283L379,284L375,285L372,285L369,285L366,286L363,286L361,287L358,287L356,287L354,287L351,287L349,287L346,287L344,287L341,287L339,287L336,287L334,287L332,287L330,287L329,287" stroke-opacity="1" stroke-width="2" stroke-linecap="round" stroke-linejoin="round" style="-webkit-tap-highlight-color: rgba(0, 0, 0, 0); stroke-opacity: 1; stroke-linecap: round; stroke-linejoin: round; -webkit-user-select: text;"></path><path fill="none" stroke="#6c7e83" d="M256,218L251,217L248,217L244,217L241,217L237,218L232,220L229,222L225,224L222,227L219,230L217,234L215,237L213,241L211,245L210,249L208,253L207,258L206,262L205,267L203,272L203,277L202,282L202,286L201,291L201,295L201,299L201,304L201,308L201,312L202,316L203,320L205,325L206,329L208,333L210,338L212,342L214,346L216,351L217,355L219,360L220,364L222,368L222,372L223,376L224,380L225,384L225,388L225,392L226,396L226,400L226,404L226,408L226,412L226,416L226,419L226,422L226,425L226,428L226,430L225,433L224,435L223,437L222,439L221,440L220,442L219,444L218,445L217,447L216,448L215,449L215,450L213,451L212,452L212,453L211,454L210,455L209,457L208,457L207,458L206,459L205,460L204,461L203,462L202,463L200,464L200,465L198,465L198,466L197,467L196,467L195,468L194,469L193,469L193,470L192,470" stroke-opacity="1" stroke-width="2" stroke-linecap="round" stroke-linejoin="round" style="-webkit-tap-highlight-color: rgba(0, 0, 0, 0); stroke-opacity: 1; stroke-linecap: round; stroke-linejoin: round; -webkit-user-select: text;"></path><path fill="none" stroke="#6c7e83" d="M341,399L340,394L340,392L340,390L339,388L338,386L337,384L336,382L335,380L334,377L332,375L331,373L329,370L328,367L327,365L325,362L324,359L322,356L320,353L319,350L317,346L315,343L313,340L312,337L310,334L307,331L305,327L303,324L301,321L299,318L297,315L295,311L293,309L291,305L289,302L287,299L285,296L283,293L281,290L279,287L277,284L275,281L273,278L271,275L269,272L268,269L266,267L264,264L262,261L261,259L259,257L258,255L256,252L254,250L253,248L252,246L251,244L249,242L248,241L247,239L246,238L244,236L244,235L243,234L242,232L241,231L240,231L240,230L239,229L239,228L238,227L238,226" stroke-opacity="1" stroke-width="2" stroke-linecap="round" stroke-linejoin="round" style="-webkit-tap-highlight-color: rgba(0, 0, 0, 0); stroke-opacity: 1; stroke-linecap: round; stroke-linejoin: round; -webkit-user-select: text;"></path><path fill="none" stroke="#6c7e83" d="M244,223L247,222L249,222L251,222L254,223L258,224L261,224L265,224L269,224L273,225L277,225L282,225L286,225L290,225L295,225L299,225L303,224L307,223L312,222L316,221L319,219L323,218L326,216L329,214L331,213L334,211L337,209L340,207L343,206L345,204L348,202L350,200L352,198L354,196L356,194L357,192L359,190L361,187L362,185L364,183L365,181L366,179L368,176L369,174L370,172L370,170L371,168L372,166L372,163L373,161L373,159L373,157L373,155L373,153L373,151L373,149L373,147L373,145L373,143L373,141L373,139L373,138L373,136L373,135L373,134L373,133L373,132L373,131L372,129L371,129L370,127L369,126L369,125L368,124L368,123L367,122" stroke-opacity="1" stroke-width="2" stroke-linecap="round" stroke-linejoin="round" style="-webkit-tap-highlight-color: rgba(0, 0, 0, 0); stroke-opacity: 1; stroke-linecap: round; stroke-linejoin: round; -webkit-user-select: text;"></path><path fill="none" stroke="#6c7e83" d="M271,58L273,54L276,54L280,54L285,54L292,54L298,54L302,54L308,55L313,56L319,58L324,60L328,61L333,63L337,66L342,68L347,71L352,75L357,78L362,82L367,85L371,89L376,93L380,97L385,101L388,105L392,109L395,113L397,116L399,120L401,124L404,128L406,132L407,135L409,139L411,142L412,146L414,149L415,152L417,156L417,159L419,163L419,166L420,170L421,173L421,177L422,180L423,184L423,187L424,191L424,195L424,198L424,201L425,204L425,208L425,212L425,215L425,219L425,222L425,225L425,229L424,232L424,236L423,239L421,242L421,246L419,249L418,253L417,256L415,259L414,263L412,266L410,270L408,274L407,277L404,281L403,285L401,288L399,292L397,295L395,299L393,302L391,306L389,309L387,313L386,317L384,321L383,324L381,328L380,332L379,336L378,341L376,345L375,349L374,353L373,358L373,362L372,367L371,371L370,375L370,380L370,384L370,388L370,392L370,396L370,400L370,404L370,408L370,412L370,416L370,419L370,423L370,427L371,430L373,433L373,437L375,440L375,443L377,446L378,450L379,452L380,455L382,458L383,460L384,463L385,465L386,467L387,469L389,471L390,473L391,474L392,476L393,477L394,479L395,480L396,482L397,482L397,483L397,484L398,484L399,484L400,484" stroke-opacity="1" stroke-width="2" stroke-linecap="round" stroke-linejoin="round" style="-webkit-tap-highlight-color: rgba(0, 0, 0, 0); stroke-opacity: 1; stroke-linecap: round; stroke-linejoin: round; -webkit-user-select: text;"></path><path fill="none" stroke="#6c7e83" d="M565,392L558,389L555,389L553,389L550,389L546,387L543,386L539,384L534,382L530,379L525,377L520,375L515,373L509,370L504,368L498,366L492,364L486,361L480,359L475,357L470,355L465,353L460,350L455,348L451,346L446,344L442,342L438,341L435,338L431,337L428,335L425,333L422,331L419,330L417,328L414,326L412,325L409,323L407,322L404,320L401,319L399,317L396,316L393,314L390,313L387,311L383,309L380,308L378,307L375,304L372,303L370,301L367,299L364,298L361,296L359,295L357,293L355,292L353,290L351,289L349,287L348,286L346,285L344,284L343,283L341,282L339,281L338,280L336,279L335,278L334,278L333,277L332,277L331,277L331,278" stroke-opacity="1" stroke-width="2" stroke-linecap="round" stroke-linejoin="round" style="-webkit-tap-highlight-color: rgba(0, 0, 0, 0); stroke-opacity: 1; stroke-linecap: round; stroke-linejoin: round; -webkit-user-select: text;"></path><path fill="none" stroke="#6c7e83" d="M327,281L341,280L342,280L344,280L346,281L348,281L350,282L352,282L354,283L357,283L359,284L362,284L366,285L369,285L373,285L378,286L382,286L387,286L392,286L397,286L402,286L407,286L412,286L417,286L422,286L427,286L432,286L437,286L442,287L448,287L454,288L459,289L465,291L472,292L477,294L484,296L490,298L497,301L503,304L509,307L515,310L520,312L526,316L531,319L536,321L540,325L545,328L549,331L553,335L556,338L560,341L563,343L566,346L569,349L572,351L575,354L577,356L580,359L582,361L584,364L587,366L589,368L591,371L593,373L594,375L596,378L598,380L599,382L601,384L602,387L603,389L604,390L605,392L606,394L607,396L608,397L609,398L609,399L610,399L610,400L611,400" stroke-opacity="1" stroke-width="2" stroke-linecap="round" stroke-linejoin="round" style="-webkit-tap-highlight-color: rgba(0, 0, 0, 0); stroke-opacity: 1; stroke-linecap: round; stroke-linejoin: round; -webkit-user-select: text;"></path><path fill="none" stroke="#6c7e83" d="M643,389L641,394L641,396L641,399L641,403L641,406L641,410L641,414L640,418L640,422L638,426L636,430L634,434L632,438L630,441L627,445L625,449L622,452L618,456L615,460L611,464L607,467L603,471L598,474L592,478L587,482L582,484L577,487L572,489L567,491L562,492L558,494L554,495L550,496L546,497L543,498L540,499L536,501L533,502L530,504L527,505L524,506L521,508L518,509L514,510L511,511L508,513L504,514L501,516L498,517L494,518L491,520L487,522L483,524L479,526L475,528L472,530L470,533L467,535L465,536L463,538L461,540L459,542L458,543L457,545L456,546L455,547L455,549L454,550L453,551L453,552L452,553L452,554L451,555L451,556L451,557L450,558L450,559L450,560L449,561L449,562L449,563L449,564" stroke-opacity="1" stroke-width="2" stroke-linecap="round" stroke-linejoin="round" style="-webkit-tap-highlight-color: rgba(0, 0, 0, 0); stroke-opacity: 1; stroke-linecap: round; stroke-linejoin: round; -webkit-user-select: text;"></path><path fill="none" stroke="#6c7e83" d="M559,475L558,482L557,484L556,487L555,491L554,494L553,497L553,500L553,503L552,507L551,511L550,515L548,519L547,523L545,528L544,532L543,537L541,542L539,546L538,550L537,554L536,559L534,564L533,568L531,572L530,577L528,581L527,586L526,591L525,596L524,600L522,605L521,609L521,614L520,618L519,622L518,626L518,630L517,633L516,637L516,640L516,644L515,647L515,651L514,654L514,656L514,658L513,660L513,662L513,663L512,664L512,665L512,666" stroke-opacity="1" stroke-width="2" stroke-linecap="round" stroke-linejoin="round" style="-webkit-tap-highlight-color: rgba(0, 0, 0, 0); stroke-opacity: 1; stroke-linecap: round; stroke-linejoin: round; -webkit-user-select: text;"></path><path fill="none" stroke="#6c7e83" d="M343,577L345,580L346,582L348,585L349,588L351,591L353,594L354,597L356,601L357,603L359,606L361,609L363,612L366,614L368,616L370,618L373,620L375,622L377,624L380,626L382,628L385,630L387,632L390,634L394,636L397,639L400,641L404,643L407,646L411,648L414,650L419,652L422,654L426,656L429,657L433,659L436,660L439,662L443,663L446,664L449,665L453,666L457,667L460,668L464,668L468,669L472,669L476,669L480,670L485,670L489,670L492,670L496,670L501,670L505,670L509,670L514,670L519,669L523,668L526,667L531,666L534,664L538,663L542,662L546,660L550,659L553,657L557,655L560,653L564,651L567,649L572,647L575,644L579,642L582,640L585,637L588,635L591,633L594,630L596,628L599,626L601,623L603,621L604,619L607,616L609,613L611,611L613,608L614,606L616,604L617,603L618,601L620,598L621,596L623,594L624,593L626,591L627,589L628,587L628,586L629,584L630,582L631,581L631,580L632,579L633,579L633,578L635,578" stroke-opacity="1" stroke-width="2" stroke-linecap="round" stroke-linejoin="round" style="-webkit-tap-highlight-color: rgba(0, 0, 0, 0); stroke-opacity: 1; stroke-linecap: round; stroke-linejoin: round; -webkit-user-select: text;"></path><path fill="none" stroke="#6c7e83" d="M699,482L699,484L699,486L699,488L699,491L699,494L698,496L697,499L696,501L696,503L694,506L693,509L691,512L690,515L688,518L686,521L683,525L680,528L677,531L673,535L669,538L664,541L660,544L655,547L651,550L647,551L643,553L638,554L634,556L630,557L626,557L621,558L616,559L611,559L607,560L601,561L596,561L591,562L585,562L580,563L575,563L569,564L564,564L559,564L554,565L549,566L545,567L541,568L536,569L531,571L526,573L521,576L516,578L511,581L507,583L502,586L497,588L493,591L489,593L485,596L481,598L477,600L474,602L470,605L467,607L464,609L460,612L458,614L455,616L452,618L450,621L447,623L445,626L443,629L441,631L439,634L437,636L436,639L434,641L433,644L431,646L430,648L429,650L429,652L428,654L427,655L426,657L426,659L425,660L424,661L424,663L424,664L424,665L423,666L423,667L422,668L422,669L422,670L422,671L421,671L421,672L421,673L421,674" stroke-opacity="1" stroke-width="2" stroke-linecap="round" stroke-linejoin="round" style="-webkit-tap-highlight-color: rgba(0, 0, 0, 0); stroke-opacity: 1; stroke-linecap: round; stroke-linejoin: round; -webkit-user-select: text;"></path><path fill="none" stroke="#6c7e83" d="M601,674L597,677L596,679L594,681L592,684L589,688L586,691L583,695L580,698L576,701L573,704L570,706L567,709L565,711L563,714L560,716L558,719L556,721L554,724L551,726L548,729L545,731L543,734L540,736L538,738L535,740L532,742L530,744L527,746L525,748L523,749L521,751L519,753L516,755L515,757L513,759L511,760L509,761L507,763L505,765L504,766L502,768L501,769L499,771L498,771L497,772L496,773L495,774L494,774L494,775L494,773" stroke-opacity="1" stroke-width="2" stroke-linecap="round" stroke-linejoin="round" style="-webkit-tap-highlight-color: rgba(0, 0, 0, 0); stroke-opacity: 1; stroke-linecap: round; stroke-linejoin: round; -webkit-user-select: text;"></path><path fill="none" stroke="#6c7e83" d="M414,673L417,678L417,681L417,684L419,688L420,693L422,697L424,700L426,705L428,708L430,711L432,715L434,718L437,722L439,726L442,729L445,733L448,737L451,740L454,743L458,746L461,749L464,751L467,754L470,756L473,757L476,759L479,760L482,761L484,763L487,764L490,765L492,766L495,767L498,768L502,769L504,770L508,771L511,771L514,771L516,772L520,772L523,772L526,772L530,772L533,772L536,772L539,772L542,772L544,772L547,771L549,770L552,769L554,768L556,766L558,765L560,763L562,761L564,759L566,757L568,756L570,754L572,752L574,750L575,749L577,747L579,745L580,743L582,742L583,739L584,738L586,736L587,734L589,732L590,731L591,729L592,727L593,726L594,724L595,722L596,720L596,719L597,717L598,715L599,713L599,711L600,710L601,708L601,706L601,705L602,703L602,702L603,701L603,700L604,698L604,697L604,696L604,695L604,694L604,693L604,692L604,691L604,690L604,689L604,688L604,687L604,686L604,685L604,684L604,683L604,682L606,682" stroke-opacity="1" stroke-width="2" stroke-linecap="round" stroke-linejoin="round" style="-webkit-tap-highlight-color: rgba(0, 0, 0, 0); stroke-opacity: 1; stroke-linecap: round; stroke-linejoin: round; -webkit-user-select: text;"></path><path fill="none" stroke="#6c7e83" d="M712,664L710,666L709,670L707,675L704,679L701,683L699,688L695,694L691,699L686,704L681,709L675,714L670,718L664,722L659,726L652,730L645,733L638,736L629,738L621,740L612,742L605,743L597,743L590,744L583,744L575,744L568,744L561,743L555,742L548,741L541,739L533,738L525,736L516,734L509,732L500,730L492,728L484,726L476,724L468,722L460,720L452,717L445,715L438,714L431,712L424,711L418,710L412,708L406,708L400,707L394,706L389,705L383,705L378,705L372,705L367,705L362,705L358,705L354,705L350,705L346,705L343,705L340,706L337,708L334,708L331,710L329,710L326,712L324,713L321,714L319,715L316,717L314,719L312,720L310,722L308,723L306,725L305,726L303,728L302,729L300,731L299,732L298,733L297,734L296,736L295,737L294,738L293,739L293,740L292,742L292,743L291,744L291,745L290,746L290,747L290,748L289,749L289,751L288,752L288,753L288,754L288,755L287,756L287,757L287,758L287,759L287,760L287,761L287,762L287,763L287,764L289,764" stroke-opacity="1" stroke-width="2" stroke-linecap="round" stroke-linejoin="round" style="-webkit-tap-highlight-color: rgba(0, 0, 0, 0); stroke-opacity: 1; stroke-linecap: round; stroke-linejoin: round; -webkit-user-select: text;"></path><path fill="none" stroke="#6c7e83" d="M417,774L413,773L413,771L412,768L409,765L407,761L404,758L402,755L399,751L396,748L392,745L389,742L386,738L383,734L380,730L376,726L373,722L370,717L366,713L363,709L359,705L356,700L352,696L349,692L345,688L341,684L338,681L334,676L330,672L327,668L323,664L319,660L316,657L313,653L310,649L307,645L305,642L302,639L300,635L298,632L295,629L293,626L291,623L289,620L287,617L285,614L283,611L282,609L280,607L279,606L278,604L277,602L276,601L275,599L273,598L273,596L271,595L271,593L270,593L269,592L268,591L268,590" stroke-opacity="1" stroke-width="2" stroke-linecap="round" stroke-linejoin="round" style="-webkit-tap-highlight-color: rgba(0, 0, 0, 0); stroke-opacity: 1; stroke-linecap: round; stroke-linejoin: round; -webkit-user-select: text;"></path><path fill="none" stroke="#6c7e83" d="M279,589L276,586L276,584L275,582L274,580L274,577L273,574L273,571L273,569L273,566L273,562L273,559L273,555L274,552L275,548L276,544L278,541L280,537L282,534L284,531L286,528L289,524L292,521L294,518L297,515L300,512L303,508L306,505L310,502L313,500L317,497L320,495L324,493L327,491L331,489L334,488L339,487L343,486L346,484L351,484L354,483L358,483L362,483L366,483L370,483L373,483L377,483L380,483L383,483L387,483L390,484L392,485L395,486L397,488L400,489L402,490L405,492L407,493L409,495L410,496L412,498L413,499L415,500L417,501L418,503L419,504L420,506L421,507L422,509L424,510L424,512L425,513L426,515L427,516L428,518L429,520L430,522L431,524L431,525L432,527L433,529L434,530L434,532L435,534L436,535L436,537L437,539L437,540L438,542L438,543L439,545L439,546L440,547L440,548L441,549L441,550L442,550L444,547" stroke-opacity="1" stroke-width="2" stroke-linecap="round" stroke-linejoin="round" style="-webkit-tap-highlight-color: rgba(0, 0, 0, 0); stroke-opacity: 1; stroke-linecap: round; stroke-linejoin: round; -webkit-user-select: text;"></path><path fill="none" stroke="#6c7e83" d="M438,465L442,467L444,470L446,473L447,477L449,481L450,486L451,491L452,496L453,501L453,506L454,511L454,517L455,522L455,527L455,531L455,536L455,540L454,544L453,548L451,552L450,556L448,559L446,563L443,567L441,570L438,573L436,576L434,579L431,583L428,586L426,588L423,591L420,594L417,596L415,598L412,601L409,603L407,606L404,608L401,610L398,612L395,613L392,615L389,617L387,618L384,620L382,621L380,622L378,624L375,625L374,626L372,627L370,629L368,630L366,632L365,633L363,635L362,636L361,637L360,639L359,640L358,642L358,643L357,644L356,645L356,647L356,648L355,649L354,650L354,652L353,653L353,654L353,655L353,656L352,657L352,658L352,659L351,660L351,661L351,662L351,664L350,665L350,666L350,667L350,668L350,669L349,669L349,670L349,671" stroke-opacity="1" stroke-width="2" stroke-linecap="round" stroke-linejoin="round" style="-webkit-tap-highlight-color: rgba(0, 0, 0, 0); stroke-opacity: 1; stroke-linecap: round; stroke-linejoin: round; -webkit-user-select: text;"></path><path fill="none" stroke="#6c7e83" d="M351,668L347,672L347,675L346,678L345,681L344,685L342,689L341,693L339,697L338,701L337,704L336,708L334,711L334,714L332,718L331,722L331,725L330,729L329,734L327,738L326,742L325,746L324,750L323,754L322,758L320,762L319,766L318,769L317,772L316,775L315,778L314,781L313,784L312,788L312,790L310,793L310,796L309,799L308,802L307,805L307,807L306,810L306,813L305,815L304,818L304,820L303,822L302,824L302,827L301,829L301,831L300,832L300,834L300,836L299,838L299,839L298,841L298,843L298,844L297,846L297,847L297,848L296,849L296,851L295,853L295,854L295,855L295,856L295,857L294,857L294,856" stroke-opacity="1" stroke-width="2" stroke-linecap="round" stroke-linejoin="round" style="-webkit-tap-highlight-color: rgba(0, 0, 0, 0); stroke-opacity: 1; stroke-linecap: round; stroke-linejoin: round; -webkit-user-select: text;"></path><path fill="none" stroke="#6c7e83" d="M293,848L289,853L287,853L285,853L283,853L280,853L276,853L273,853L269,852L266,852L262,851L259,849L256,848L253,846L250,845L247,843L244,841L241,839L238,836L235,834L232,832L230,829L228,827L226,824L224,821L222,817L221,814L220,810L218,807L217,805L216,802L215,799L214,796L213,793L212,790L211,787L211,784L210,781L210,777L209,773L209,769L208,766L208,762L208,759L208,756L208,752L208,748L208,744L208,741L208,737L208,734L209,731L209,728L210,726L211,723L212,720L213,717L215,714L217,711L218,708L219,705L220,703L222,702L223,700L225,698L226,696L227,695L229,693L230,691L232,690L233,688L234,687L236,686L237,685L238,684L239,683L240,683L240,682L241,682L242,682" stroke-opacity="1" stroke-width="2" stroke-linecap="round" stroke-linejoin="round" style="-webkit-tap-highlight-color: rgba(0, 0, 0, 0); stroke-opacity: 1; stroke-linecap: round; stroke-linejoin: round; -webkit-user-select: text;"></path><path fill="none" stroke="#6c7e83" d="M348,676L348,672L348,670L348,668L348,666L348,663L348,660L348,657L348,654L347,651L346,648L346,644L345,641L344,637L342,633L341,630L339,626L337,623L335,619L333,615L331,612L329,609L327,606L325,603L323,600L320,598L318,595L315,593L312,590L309,588L305,586L302,584L299,582L296,580L293,579L290,579L287,578L283,577L280,577L276,576L273,576L269,576L265,576L261,576L257,576L253,576L249,576L245,576L240,576L236,576L232,578L228,579L224,580L220,582L217,584L213,585L210,587L208,589L205,591L202,593L200,596L197,598L195,601L193,603L191,606L189,608L187,611L185,613L183,616L182,619L180,622L179,625L177,628L176,631L175,634L174,637L172,640L171,644L169,647L168,651L167,654L166,658L165,662L164,665L164,669L163,672L162,676L161,679L160,683L159,686L159,689L158,693L157,695L157,698L156,701L155,704L154,706L154,709L153,711L152,713L152,715L151,717L150,720L150,722L149,724L148,726L147,728L147,730L146,732L145,734L144,735L143,737L142,738L141,740L140,742L139,743L138,744L137,745L136,747L135,748L135,749L133,751L132,752L132,754L130,755L130,756L129,757L127,758L127,759L126,760L125,761L124,762L123,764L122,766L121,766L121,767L120,768L119,769L119,770L118,770L118,768" stroke-opacity="1" stroke-width="2" stroke-linecap="round" stroke-linejoin="round" style="-webkit-tap-highlight-color: rgba(0, 0, 0, 0); stroke-opacity: 1; stroke-linecap: round; stroke-linejoin: round; -webkit-user-select: text;"></path><path fill="none" stroke="#6c7e83" d="M89,676L92,680L94,682L96,684L99,686L102,688L105,691L108,693L112,696L116,699L119,702L122,705L125,708L128,710L132,712L135,715L139,718L143,721L147,724L149,727L152,729L156,732L159,735L163,738L166,740L169,742L172,744L175,746L177,749L180,750L183,752L186,754L188,756L191,759L193,761L195,762L198,764L199,766L201,767L203,768L205,770L206,771L208,772L209,773L210,774L211,775L212,776L213,777L215,778L215,779L217,779L217,780L218,781L219,781L220,781L220,782L221,782L221,777" stroke-opacity="1" stroke-width="2" stroke-linecap="round" stroke-linejoin="round" style="-webkit-tap-highlight-color: rgba(0, 0, 0, 0); stroke-opacity: 1; stroke-linecap: round; stroke-linejoin: round; -webkit-user-select: text;"></path><path fill="none" stroke="#6c7e83" d="M224,773L220,775L218,772L216,769L214,765L212,762L210,758L208,755L205,751L203,748L202,744L200,741L198,737L196,734L194,730L193,727L191,725L190,722L189,718L188,715L187,711L187,708L186,704L186,701L186,698L185,695L185,691L185,687L185,683L185,680L185,676L185,673L185,670L186,666L186,663L188,659L189,655L191,651L193,647L195,643L196,640L198,636L200,633L203,630L205,626L208,623L211,620L214,617L216,614L219,611L221,609L224,607L227,605L229,603L231,601L234,599L237,598L239,596L241,595L243,594L246,593L248,591L249,591L251,589L254,588L256,588L258,587L260,586L262,586L264,586L266,585L268,585L269,584L271,584L272,584L273,584" stroke-opacity="1" stroke-width="2" stroke-linecap="round" stroke-linejoin="round" style="-webkit-tap-highlight-color: rgba(0, 0, 0, 0); stroke-opacity: 1; stroke-linecap: round; stroke-linejoin: round; -webkit-user-select: text;"></path><path fill="none" stroke="#6c7e83" d="M285,585L286,582L287,581L288,579L289,578L290,577L292,575L293,574L294,572L295,571L297,569L298,567L298,565L299,563L300,561L300,559L301,557L301,555L302,553L302,551L302,550L303,548L303,546L303,544L303,542L303,539L303,537L303,534L302,532L301,529L300,527L300,524L299,522L298,519L296,516L295,513L294,511L293,508L291,505L289,502L288,500L286,497L285,494L283,491L281,489L280,486L278,484L277,482L275,479L273,477L271,474L269,472L267,470L265,467L263,465L260,462L258,460L255,457L253,455L251,452L248,449L246,447L244,445L242,442L240,440L239,438L237,435L234,433L233,431L231,429L229,427L228,424L227,422L225,419L224,417L222,414L221,411L220,408L218,405L217,402L216,399L215,396L214,392L213,389L212,386L212,383L211,379L210,376L209,372L208,369L208,366L208,363L207,360L206,357L206,354L206,351L205,349L205,346L205,343L205,341L205,338L205,336L205,334L205,332L205,330L205,328L205,326L205,324L205,322L205,320L205,318L206,316L206,314L207,312L207,311L208,309L208,307L208,306L209,305L209,303L210,302L210,300L210,299L210,297L210,296L211,295L211,294L211,293L211,292L212,292" stroke-opacity="1" stroke-width="2" stroke-linecap="round" stroke-linejoin="round" style="-webkit-tap-highlight-color: rgba(0, 0, 0, 0); stroke-opacity: 1; stroke-linecap: round; stroke-linejoin: round; -webkit-user-select: text;"></path><path fill="none" stroke="#6c7e83" d="M213,291L219,292L221,292L224,294L227,296L232,298L236,300L239,302L244,304L249,307L252,308L257,310L261,312L266,314L269,316L273,317L277,319L281,321L285,323L289,324L293,326L298,328L302,331L307,333L312,336L317,338L322,341L327,343L332,346L337,348L342,351L347,353L352,355L357,358L362,360L366,362L371,365L375,366L379,368L383,370L386,372L390,373L393,375L396,376L400,377L402,379L405,380L408,382L411,383L414,384L417,385L419,387L421,387L424,389L426,389L428,390L430,392L431,392L433,393L434,394L435,394L436,394L437,394L438,394" stroke-opacity="1" stroke-width="2" stroke-linecap="round" stroke-linejoin="round" style="-webkit-tap-highlight-color: rgba(0, 0, 0, 0); stroke-opacity: 1; stroke-linecap: round; stroke-linejoin: round; -webkit-user-select: text;"></path><path fill="none" stroke="#6c7e83" d="M507,304L504,302L501,302L497,302L492,302L488,303L483,304L478,304L472,305L466,307L460,308L454,309L448,310L443,312L436,314L430,316L424,318L418,320L412,323L406,325L400,327L394,330L388,332L383,335L378,338L372,341L367,343L362,346L357,349L352,353L347,356L341,360L336,365L332,368L327,372L323,376L319,380L316,384L312,388L310,391L307,394L305,398L302,401L300,404L298,407L296,410L295,413L293,416L292,418L291,421L290,424L289,428L288,431L286,434L285,437L284,440L283,443L283,445L282,448L281,450L280,452L280,455L280,457L279,460L279,462L278,465L278,467L277,470L277,472L276,474L276,476L275,477L275,479L274,480L274,482L274,483L273,484L273,485L273,486" stroke-opacity="1" stroke-width="2" stroke-linecap="round" stroke-linejoin="round" style="-webkit-tap-highlight-color: rgba(0, 0, 0, 0); stroke-opacity: 1; stroke-linecap: round; stroke-linejoin: round; -webkit-user-select: text;"></path><path fill="none" stroke="#6c7e83" d="M399,493L403,492L404,491L404,489L405,486L405,484L406,482L406,479L406,476L406,473L406,469L406,466L406,462L406,458L406,455L404,451L403,446L402,443L401,439L400,435L398,431L397,427L395,423L392,419L390,415L387,411L385,408L383,404L380,400L377,397L375,394L373,390L370,387L368,384L365,381L363,377L361,375L358,371L356,368L353,365L351,362L348,358L345,354L342,351L340,348L337,344L335,341L333,337L330,333L328,330L326,326L324,323L322,319L321,316L319,313L319,309L318,307L317,303L317,300L316,297L315,293L315,290L314,287L314,285L314,282L314,279L314,276L314,273L314,270L314,267L314,265L315,262L316,259L317,257L319,254L320,252L322,250L323,248L325,246L327,243L328,242L329,240L331,239L332,237L334,236L336,235L337,234L339,232L341,231L343,230L344,229L346,228L347,227L349,226L350,226L352,225L353,224L355,224L356,223L358,223L359,222L361,222L362,222L364,221L366,221L367,221L369,221L370,221L372,220L374,220L375,220L377,219L378,219L380,219L381,219L383,219L384,219L386,219L387,219L389,218L391,218L392,218L395,218L397,218L398,218L400,218L402,218L403,218L404,218L406,218L407,218L408,218L409,218L410,218L410,219L410,220" stroke-opacity="1" stroke-width="2" stroke-linecap="round" stroke-linejoin="round" style="-webkit-tap-highlight-color: rgba(0, 0, 0, 0); stroke-opacity: 1; stroke-linecap: round; stroke-linejoin: round; -webkit-user-select: text;"></path><path fill="none" stroke="#6c7e83" d="M409,227L412,225L412,224L413,223L414,222L416,221L417,220L419,219L420,218L421,217L423,215L425,214L427,212L429,211L431,209L434,207L436,206L438,204L441,202L443,201L446,199L449,197L452,195L455,194L459,192L463,189L468,187L472,185L477,182L482,180L487,177L493,175L499,172L504,169L509,166L514,164L518,161L523,158L528,156L532,154L536,151L541,149L545,146L550,144L554,142L558,140L562,138L567,136L571,134L575,132L579,129L583,128L587,126L591,124L594,122L596,121L598,120L600,119L601,119L601,118L602,118" stroke-opacity="1" stroke-width="2" stroke-linecap="round" stroke-linejoin="round" style="-webkit-tap-highlight-color: rgba(0, 0, 0, 0); stroke-opacity: 1; stroke-linecap: round; stroke-linejoin: round; -webkit-user-select: text;"></path><path fill="none" stroke="#6c7e83" d="M680,139L678,129L678,128L677,126L676,124L674,121L672,118L668,115L662,111L657,108L650,104L644,100L638,96L631,93L625,90L618,86L611,83L604,80L597,78L592,76L585,74L579,73L573,71L567,70L561,70L556,69L550,69L545,69L540,69L534,69L529,69L524,69L519,69L515,70L509,72L504,73L499,75L494,77L490,79L486,80L482,83L478,84L475,86L472,88L470,90L468,92L466,93L464,95L462,97L460,99L458,101L457,102L455,104L454,106L453,107L452,109L451,111L451,112L450,113L449,115L448,115L448,117L447,117L447,118L447,119" stroke-opacity="1" stroke-width="2" stroke-linecap="round" stroke-linejoin="round" style="-webkit-tap-highlight-color: rgba(0, 0, 0, 0); stroke-opacity: 1; stroke-linecap: round; stroke-linejoin: round; -webkit-user-select: text;"></path><path fill="none" stroke="#6c7e83" d="M440,111L443,114L443,116L444,119L445,122L446,125L448,128L451,131L453,134L456,136L459,139L462,141L465,144L469,146L473,148L477,149L482,151L486,153L491,155L497,156L502,158L508,159L514,160L519,161L525,162L531,162L536,163L542,163L548,163L553,163L559,163L565,164L572,164L578,164L585,164L590,165L596,165L602,166L608,166L614,167L618,168L625,168L630,170L635,171L640,172L645,173L650,175L654,176L658,178L662,179L665,181L668,183L671,184L673,186L676,187L678,189L680,191L682,193L684,195L686,197L688,199L690,201L691,203L693,205L694,207L695,210L696,212L697,214L697,216L698,218L699,221L699,223L699,225L699,228L699,230L699,233L699,236L699,238L699,241L699,243L699,245L698,248L697,250L696,253L695,255L694,257L693,260L692,261L691,263L690,265L689,267L687,268L686,270L685,272L683,273L682,275L680,277L678,278L676,280L674,281L672,283L670,285L668,286L665,288L663,289L661,291L658,292L656,293L653,294L651,295L648,296L646,297L643,298L641,299L638,299L635,300L633,301L630,301L627,302L624,302L621,302L619,303L616,303L614,304L611,304L609,304L606,304L604,304L601,304L598,304L595,304L592,304L589,304L587,304L583,304L580,304L576,303L573,302L569,302L565,301L562,300L558,300L554,299L550,299L547,298L544,297L541,297L538,296L535,296L531,295L528,294L526,294L522,294L520,293L517,293L515,292L513,292L511,291L508,291L507,290L504,290L503,289L501,289L500,288L499,288L497,288" stroke-opacity="1" stroke-width="2" stroke-linecap="round" stroke-linejoin="round" style="-webkit-tap-highlight-color: rgba(0, 0, 0, 0); stroke-opacity: 1; stroke-linecap: round; stroke-linejoin: round; -webkit-user-select: text;"></path><path fill="none" stroke="#6c7e83" d="M498,284L504,287L508,289L512,291L517,294L524,297L530,300L536,303L543,306L549,310L555,313L562,317L569,320L577,324L584,327L592,331L599,335L606,338L613,342L620,345L627,349L633,352L640,355L645,358L650,360L655,363L660,366L664,368L667,370L671,372L675,374L678,376L681,377L684,379L686,381L689,382L691,383L693,384L694,385L696,386L696,387L697,387L698,387" stroke-opacity="1" stroke-width="2" stroke-linecap="round" stroke-linejoin="round" style="-webkit-tap-highlight-color: rgba(0, 0, 0, 0); stroke-opacity: 1; stroke-linecap: round; stroke-linejoin: round; -webkit-user-select: text;"></path><path fill="none" stroke="#6c7e83" d="M677,285L679,285L681,287L682,289L684,292L686,295L688,299L690,302L692,306L694,309L695,314L697,317L698,321L699,326L700,331L701,335L701,340L702,344L702,349L702,353L702,358L702,362L702,366L701,370L701,374L699,378L698,382L697,387L695,391L694,395L692,399L690,403L688,407L686,411L684,414L682,418L680,421L678,425L676,428L673,431L671,435L669,438L667,442L664,446L661,450L658,453L655,457L652,461L648,465L645,468L641,472L637,476L633,479L628,483L624,487L619,490L615,494L611,497L607,500L604,503L600,506L596,508L593,511L589,514L585,517L582,519L579,522L576,525L573,527L571,529L568,531L566,533L563,534L561,536L559,537L556,539L554,541L551,543L549,545L546,546L544,548L541,550L540,551L538,552L537,553L536,554L538,552" stroke-opacity="1" stroke-width="2" stroke-linecap="round" stroke-linejoin="round" style="-webkit-tap-highlight-color: rgba(0, 0, 0, 0); stroke-opacity: 1; stroke-linecap: round; stroke-linejoin: round; -webkit-user-select: text;"></path><path fill="none" stroke="#6c7e83" d="M647,562L646,557L646,556L646,553L646,550L646,547L646,542L646,538L645,533L643,528L641,524L638,519L635,514L632,509L628,504L625,499L621,495L618,491L614,486L610,482L605,477L600,473L595,469L589,465L584,460L578,457L572,453L566,450L560,447L555,445L549,442L543,439L538,437L531,434L525,432L519,430L513,428L507,426L502,425L496,423L491,421L485,419L480,417L475,415L471,413L466,410L463,408L459,406L455,403L453,400L450,397L447,394L445,392L442,389L440,386L438,383L436,380L434,377L432,374L430,371L429,368L427,365L426,363L424,360L424,357L423,354L422,351L422,348L421,345L421,342L420,339L419,336L419,333L418,330L418,327L417,324L417,321L417,318L417,315L417,312L417,310L417,307L417,305L417,303L417,301L416,298L416,297L416,294L416,292L416,291L416,289L416,288L416,287L416,286L416,285" stroke-opacity="1" stroke-width="2" stroke-linecap="round" stroke-linejoin="round" style="-webkit-tap-highlight-color: rgba(0, 0, 0, 0); stroke-opacity: 1; stroke-linecap: round; stroke-linejoin: round; -webkit-user-select: text;"></path><path fill="none" stroke="#6c7e83" d="M412,294L414,292L417,292L419,291L423,290L427,287L432,285L437,282L444,279L450,275L455,272L460,269L465,265L470,262L475,258L481,254L486,251L492,246L498,242L505,237L511,232L519,228L526,223L533,219L539,214L545,210L552,206L558,201L564,197L571,192L577,187L584,183L590,179L596,175L601,172L606,168L611,165L616,162L621,158L626,155L630,152L634,149L638,146L641,144L645,141L648,139L651,137L653,136L656,134L658,132L660,132L661,131L662,130L663,129L664,129" stroke-opacity="1" stroke-width="2" stroke-linecap="round" stroke-linejoin="round" style="-webkit-tap-highlight-color: rgba(0, 0, 0, 0); stroke-opacity: 1; stroke-linecap: round; stroke-linejoin: round; -webkit-user-select: text;"></path><path fill="none" stroke="#6c7e83" d="M667,137L673,131L673,129L673,127L673,125L673,122L673,119L673,116L673,113L673,110L673,106L672,102L670,99L668,95L665,91L662,88L658,84L655,80L651,77L647,73L644,71L640,68L637,65L633,63L630,60L627,58L623,55L619,53L615,50L612,48L608,46L604,43L600,40L596,38L591,35L586,33L581,31L575,28L569,26L562,24L556,22L550,21L545,20L540,19L536,18L531,18L527,18L523,18L519,18L516,18L512,18L509,18L505,18L502,18L500,19L497,20L494,22L492,23L491,25L489,26L487,27L485,29L484,30L482,31L481,32L480,33L479,34L478,34L477,34L477,35L478,35L478,36" stroke-opacity="1" stroke-width="2" stroke-linecap="round" stroke-linejoin="round" style="-webkit-tap-highlight-color: rgba(0, 0, 0, 0); stroke-opacity: 1; stroke-linecap: round; stroke-linejoin: round; -webkit-user-select: text;"></path><path fill="none" stroke="#6c7e83" d="M582,29L581,32L581,34L581,38L581,42L580,45L579,48L577,52L575,56L573,60L570,64L566,68L562,72L557,76L551,80L546,84L540,87L534,90L528,93L521,95L515,97L509,99L502,100L496,100L489,101L483,101L476,101L470,101L463,101L457,101L450,101L443,100L436,99L430,98L424,97L417,95L411,94L405,93L400,91L394,90L388,89L383,88L377,86L372,85L366,85L361,83L355,83L349,81L344,81L339,80L333,80L327,79L322,79L316,79L311,78L305,78L299,78L294,78L287,78L282,78L275,78L268,78L262,78L256,78L249,78L244,78L238,78L232,78L227,78L222,79L217,80L213,81L210,82L206,83L204,84L201,85L199,87L197,88L194,90L192,92L191,93L188,95L186,97L184,99L182,101L181,102L179,104L177,105L176,107L175,108L174,109L172,110L171,111L171,112L169,113L169,114L168,115L167,115L167,116L167,117" stroke-opacity="1" stroke-width="2" stroke-linecap="round" stroke-linejoin="round" style="-webkit-tap-highlight-color: rgba(0, 0, 0, 0); stroke-opacity: 1; stroke-linecap: round; stroke-linejoin: round; -webkit-user-select: text;"></path><path fill="none" stroke="#6c7e83" d="M154,40L157,43L159,45L161,48L163,51L166,54L169,57L171,60L175,63L178,67L181,71L185,74L188,78L192,81L195,85L199,88L203,91L206,94L210,97L214,100L217,103L221,107L224,109L227,112L231,115L234,117L237,120L240,122L243,125L246,128L249,131L251,133L254,135L256,137L258,139L260,140L261,142L263,143L264,144L265,144L266,145L266,146" stroke-opacity="1" stroke-width="2" stroke-linecap="round" stroke-linejoin="round" style="-webkit-tap-highlight-color: rgba(0, 0, 0, 0); stroke-opacity: 1; stroke-linecap: round; stroke-linejoin: round; -webkit-user-select: text;"></path><path fill="none" stroke="#6c7e83" d="M280,136L279,134L279,136L279,139L279,141L279,143L279,146L279,149L280,151L280,155L280,158L280,161L280,165L280,169L279,173L278,177L277,181L276,186L274,190L272,195L270,199L268,203L265,208L263,212L260,217L257,221L254,225L251,230L248,234L244,238L241,243L237,246L234,249L231,252L227,256L224,258L220,260L217,263L214,265L210,267L207,269L204,270L201,272L198,273L195,275L191,276L188,277L185,278L181,278L179,279L176,280L173,280L171,280L168,281L165,281L162,282L159,282L157,282L154,282L152,282L150,282L148,282L146,282L145,282L144,282L143,282L143,281L143,280" stroke-opacity="1" stroke-width="2" stroke-linecap="round" stroke-linejoin="round" style="-webkit-tap-highlight-color: rgba(0, 0, 0, 0); stroke-opacity: 1; stroke-linecap: round; stroke-linejoin: round; -webkit-user-select: text;"></path><path fill="none" stroke="#6c7e83" d="M178,115L188,117L192,118L197,121L202,124L206,128L210,132L214,136L217,140L220,144L222,149L225,153L227,157L228,161L230,166L232,171L233,176L234,180L235,185L236,191L236,196L237,202L237,207L237,214L237,219L237,225L236,231L234,236L233,241L231,247L229,252L227,257L225,263L222,268L220,272L217,277L215,282L212,286L210,290L207,294L204,298L202,301L199,305L197,308L194,311L192,314L189,317L187,319L184,322L181,325L179,327L176,330L174,332L172,335L170,337L168,340L166,343L164,345L162,348L161,350L159,352L158,355L157,357L156,359L156,361L155,364L154,366L154,369L154,371L154,374L154,377L154,380L154,383L154,386L154,389L154,392L154,395L154,399L154,402L154,405L156,409L157,412L158,415L159,418L161,421L163,425L165,428L166,431L169,435L171,438L173,441L174,444L176,447L178,450L181,453L183,456L186,459L188,462L191,465L193,468L195,471L197,473L199,475L200,477L202,479L203,480L203,481L204,482L205,482" stroke-opacity="1" stroke-width="2" stroke-linecap="round" stroke-linejoin="round" style="-webkit-tap-highlight-color: rgba(0, 0, 0, 0); stroke-opacity: 1; stroke-linecap: round; stroke-linejoin: round; -webkit-user-select: text;"></path><path fill="none" stroke="#6c7e83" d="M228,389L226,388L226,392L227,397L228,404L230,412L232,419L234,426L237,433L239,441L242,448L244,454L246,462L249,468L251,474L252,480L254,487L256,493L257,499L259,505L260,511L262,517L263,522L266,527L267,533L268,537L270,542L272,547L273,552L274,556L276,560L276,564L278,568L278,571L279,574L280,577L280,579L281,581L281,583L282,584L282,585L283,586L283,587L283,588L283,587L283,583" stroke-opacity="1" stroke-width="2" stroke-linecap="round" stroke-linejoin="round" style="-webkit-tap-highlight-color: rgba(0, 0, 0, 0); stroke-opacity: 1; stroke-linecap: round; stroke-linejoin: round; -webkit-user-select: text;"></path><path fill="none" stroke="#6c7e83" d="M177,653L172,662L170,662L167,661L164,659L161,657L158,654L155,652L152,649L150,646L147,642L144,638L142,634L139,630L136,626L134,623L131,618L129,614L127,610L125,607L122,602L120,598L117,593L114,589L112,585L109,581L107,578L105,574L103,571L101,568L99,564L97,560L96,557L94,552L93,549L91,545L90,540L88,536L87,532L86,527L85,523L84,519L83,516L82,512L81,508L81,504L80,501L79,498L79,494L79,491L79,489L78,486L78,484L78,482L78,480L77,479L77,478L76,478" stroke-opacity="1" stroke-width="2" stroke-linecap="round" stroke-linejoin="round" style="-webkit-tap-highlight-color: rgba(0, 0, 0, 0); stroke-opacity: 1; stroke-linecap: round; stroke-linejoin: round; -webkit-user-select: text;"></path><path fill="none" stroke="#6c7e83" d="M76,482L79,477L79,475L81,472L83,469L86,466L91,461L97,457L103,453L110,449L117,446L125,443L133,440L142,438L150,436L158,435L165,433L172,433L179,433L186,433L193,433L199,433L206,433L212,433L218,434L224,435L229,435L234,437L239,438L244,438L249,440L254,440L258,441L262,441L266,442L271,442L275,443L279,443L282,443L286,443L290,443L293,443L297,443L300,441L303,440L306,439L309,438L311,436L313,435L315,433L317,432L319,431L321,429L322,428L324,426L325,425L326,424L327,423L327,422L328,421L329,420L329,418L329,417L330,416L330,415L331,413L331,412L331,410L331,409L331,408L331,406L331,405L331,403L331,402L331,401L331,400L331,399" stroke-opacity="1" stroke-width="2" stroke-linecap="round" stroke-linejoin="round" style="-webkit-tap-highlight-color: rgba(0, 0, 0, 0); stroke-opacity: 1; stroke-linecap: round; stroke-linejoin: round; -webkit-user-select: text;"></path><path fill="none" stroke="#6c7e83" d="M339,416L337,411L337,409L337,408L336,406L336,404L336,402L336,401L335,398L334,396L334,393L333,390L333,387L332,383L331,379L330,376L329,372L328,368L327,364L326,359L324,355L322,350L321,345L320,341L318,335L317,330L315,325L314,320L312,314L310,309L309,304L307,299L305,294L303,288L301,282L300,276L298,270L295,264L294,259L292,253L290,247L288,241L286,235L285,229L283,223L281,217L279,212L278,206L276,200L275,195L273,189L272,185L271,180L269,175L268,170L267,166L266,161L266,158L265,154L264,151L263,148L263,145L262,143L262,140L261,138L261,135L261,134L261,132L261,130L261,129L261,128L261,127L262,127" stroke-opacity="1" stroke-width="2" stroke-linecap="round" stroke-linejoin="round" style="-webkit-tap-highlight-color: rgba(0, 0, 0, 0); stroke-opacity: 1; stroke-linecap: round; stroke-linejoin: round; -webkit-user-select: text;"></path><path fill="none" stroke="#6c7e83" d="M292,49L286,43L284,43L282,44L279,46L277,47L275,49L273,51L271,53L270,55L268,58L266,64L264,68L263,72L262,76L262,81L261,85L261,89L261,94L261,98L261,102L262,106L263,110L265,113L266,117L268,120L270,124L272,127L274,130L276,134L278,136L281,139L283,142L285,146L288,149L290,151L293,154L295,157L298,160L300,163L303,166L305,169L308,172L312,175L315,178L317,181L321,184L324,186L327,189L331,191L334,194L338,196L341,198L344,200L348,202L351,204L354,205L357,207L361,208L363,209L366,210L369,211L371,212L373,213L374,213L375,214L376,214L376,215L377,215" stroke-opacity="1" stroke-width="2" stroke-linecap="round" stroke-linejoin="round" style="-webkit-tap-highlight-color: rgba(0, 0, 0, 0); stroke-opacity: 1; stroke-linecap: round; stroke-linejoin: round; -webkit-user-select: text;"></path><path fill="none" stroke="#6c7e83" d="M370,226L375,217L375,218L376,218L378,219L379,219L380,220L381,220L383,221L384,221L385,221L387,221L388,221L390,221L392,221L393,221L395,221L397,221L400,221L402,221L404,221L407,221L409,221L412,221L414,220L417,219L419,219L422,217L425,216L427,215L430,214L432,212L435,210L437,208L440,206L443,204L446,202L449,199L452,197L455,194L458,192L460,189L463,186L466,184L469,181L472,178L475,175L479,172L482,169L485,166L487,163L490,160L494,157L497,154L499,151L503,148L506,145L509,142L512,140L516,137L520,134L523,132L526,129L529,127L532,125L536,123L539,122L543,120L546,119L550,118L555,117L559,116L563,116L567,115L572,115L576,114L581,114L585,114L590,114L594,114L599,114L603,114L607,114L611,115L615,115L619,116L623,117L627,118L630,119L634,121L638,123L641,124L644,127L647,129L650,131L653,133L656,135L659,137L661,140L663,142L665,144L667,147L668,149L670,152L671,154L673,157L674,159L675,162L677,164L678,166L679,169L680,171L681,173L682,176L682,178L683,181L684,183L684,186L685,189L686,191L686,194L686,197L687,199L688,202L688,204L689,206L689,207L689,209L690,209L690,210L691,210" stroke-opacity="1" stroke-width="2" stroke-linecap="round" stroke-linejoin="round" style="-webkit-tap-highlight-color: rgba(0, 0, 0, 0); stroke-opacity: 1; stroke-linecap: round; stroke-linejoin: round; -webkit-user-select: text;"></path><path fill="none" stroke="#6c7e83" d="M718,50L716,51L716,55L714,59L712,64L710,69L707,74L703,80L701,85L697,91L694,97L691,103L687,109L684,115L680,121L677,127L673,133L669,139L665,145L661,151L657,157L653,162L650,168L646,174L643,180L639,186L636,192L632,197L628,202L625,208L622,212L619,217L616,222L613,226L611,231L608,236L606,240L604,244L601,247L599,251L597,255L595,259L594,262L592,265L590,268L589,270L587,273L586,275L584,277L584,280L582,281L582,283L581,285L580,286L579,287L579,289L578,290L578,291L577,292L577,293" stroke-opacity="1" stroke-width="2" stroke-linecap="round" stroke-linejoin="round" style="-webkit-tap-highlight-color: rgba(0, 0, 0, 0); stroke-opacity: 1; stroke-linecap: round; stroke-linejoin: round; -webkit-user-select: text;"></path><path fill="none" stroke="#6c7e83" d="M686,292L684,287L684,286L684,284L683,282L682,280L679,278L677,276L674,274L671,272L667,270L663,268L659,266L654,264L649,263L643,261L639,260L634,260L629,260L624,260L619,260L613,260L608,260L603,263L597,265L593,267L588,270L582,272L577,275L572,278L567,281L562,284L558,287L553,292L548,296L543,300L539,304L535,309L532,314L528,318L525,323L521,327L519,332L516,337L513,342L510,346L507,351L505,355L502,360L500,365L497,369L495,372L493,376L492,379L490,383L489,386L487,389L485,393L484,396L482,399L481,402L480,405L478,409L477,411L475,414L474,417L472,421L471,423L470,426L469,429L468,432L466,435L465,438L464,440L463,443L463,445L462,447L460,450L460,452L458,454L458,457L457,459L456,460L455,462L454,464L454,465L453,467L453,468L453,469" stroke-opacity="1" stroke-width="2" stroke-linecap="round" stroke-linejoin="round" style="-webkit-tap-highlight-color: rgba(0, 0, 0, 0); stroke-opacity: 1; stroke-linecap: round; stroke-linejoin: round; -webkit-user-select: text;"></path><path fill="none" stroke="#6c7e83" d="M456,461L458,456L458,454L459,451L461,448L464,444L467,440L470,437L474,433L478,428L482,424L487,419L492,415L497,410L503,405L508,401L512,397L517,394L523,391L528,388L533,385L538,383L543,382L548,380L553,379L557,378L562,377L566,377L570,377L575,377L580,377L586,377L590,378L596,379L601,381L604,383L609,385L613,387L617,389L621,392L625,394L628,396L632,399L635,401L638,404L640,407L643,410L645,413L646,416L648,418L649,421L651,424L652,426L654,429L655,431L657,434L658,436L660,438L661,441L662,443L663,445L664,447L666,449L667,450L668,452L669,454L671,455L672,457L674,459L675,461L676,462L678,464L679,466L681,467L682,469L684,470L685,472L686,473L688,474L690,475L691,477L693,478L694,479L695,479L696,480L697,481L697,482L698,482L699,483" stroke-opacity="1" stroke-width="2" stroke-linecap="round" stroke-linejoin="round" style="-webkit-tap-highlight-color: rgba(0, 0, 0, 0); stroke-opacity: 1; stroke-linecap: round; stroke-linejoin: round; -webkit-user-select: text;"></path><path fill="none" stroke="#6c7e83" d="M707,465L706,469L706,472L706,474L704,477L703,480L702,484L700,488L699,492L697,496L696,499L694,503L692,507L690,511L688,515L686,518L684,522L681,527L678,530L675,534L672,538L669,542L667,546L664,550L662,554L659,559L656,563L652,567L650,572L647,576L644,580L641,584L638,588L636,592L633,596L630,600L628,603L626,607L624,611L622,615L620,618L618,622L616,625L615,628L613,631L611,634L610,637L608,640L607,643L606,645L604,648L603,650L602,652L601,654L600,657L599,658L598,660L597,661L597,662L596,663L596,664L596,661" stroke-opacity="1" stroke-width="2" stroke-linecap="round" stroke-linejoin="round" style="-webkit-tap-highlight-color: rgba(0, 0, 0, 0); stroke-opacity: 1; stroke-linecap: round; stroke-linejoin: round; -webkit-user-select: text;"></path><path fill="none" stroke="#6c7e83" d="M699,780L700,778L700,776L700,773L701,771L701,767L701,763L701,759L701,755L701,751L701,748L701,744L701,741L701,737L700,734L699,730L699,726L698,721L696,716L695,711L693,706L690,701L688,696L685,691L682,686L679,682L676,678L672,674L668,670L664,666L659,663L653,659L648,657L643,654L638,652L632,649L626,648L621,646L615,645L610,644L605,643L599,642L594,642L589,641L583,641L578,641L572,641L567,641L562,641L558,641L553,641L549,642L545,643L541,645L536,647L532,649L528,652L525,654L521,657L518,659L515,662L512,665L509,668L507,671L504,674L502,677L499,680L497,683L495,687L493,690L491,693L490,697L488,700L487,703L486,706L485,710L484,712L483,715L482,718L481,721L480,724L480,727L479,729L479,732L478,734L477,736L477,738L477,740L476,742L476,744L476,746L476,749L476,751L476,753L475,755L475,757L475,760L475,762L475,764L475,766L475,768L475,770L475,772L475,773L475,774L475,775L475,776L476,776L478,772L484,768" stroke-opacity="1" stroke-width="2" stroke-linecap="round" stroke-linejoin="round" style="-webkit-tap-highlight-color: rgba(0, 0, 0, 0); stroke-opacity: 1; stroke-linecap: round; stroke-linejoin: round; -webkit-user-select: text;"></path><path fill="none" stroke="#6c7e83" d="M517,654L504,659L498,663L494,667L492,671L489,675L488,679L487,683L487,687L487,692L487,698L487,703L487,709L487,716L487,722L487,729L487,734L487,739L488,744L490,750L491,754L493,759L495,762L497,766L500,770L503,773L507,777L510,781L514,783L518,786L522,790L526,792L530,794L534,796L538,798L542,800L545,802L549,804L553,805L557,807L561,808L565,809L569,810L572,810L576,810L580,811L584,812L589,812L593,812L598,813L602,814L607,814L612,815L616,815L622,816L628,817L633,818L637,819L642,821L647,823L651,824L655,827L658,829L662,831L664,834L667,836L669,838L670,840L672,843L673,845L674,847L675,849L677,851L677,853L678,855L678,857L679,858L679,859L679,861L679,862L679,863L680,863L680,862L681,858" stroke-opacity="1" stroke-width="2" stroke-linecap="round" stroke-linejoin="round" style="-webkit-tap-highlight-color: rgba(0, 0, 0, 0); stroke-opacity: 1; stroke-linecap: round; stroke-linejoin: round; -webkit-user-select: text;"></path><path fill="none" stroke="#6c7e83" d="M678,852L672,851L669,851L667,851L663,851L659,851L653,851L648,849L642,849L636,847L630,846L624,845L618,843L611,842L604,840L597,839L591,836L584,834L577,832L570,830L563,828L556,826L549,823L543,820L536,818L528,815L521,812L514,810L507,807L499,805L493,802L488,800L482,798L477,796L472,794L468,792L464,790L460,789L456,787L452,785L448,783L444,782L440,780L436,779L432,777L428,776L424,775L421,773L417,772L414,771L412,770L409,768L408,768L406,768L405,767L404,767L404,766L403,766" stroke-opacity="1" stroke-width="2" stroke-linecap="round" stroke-linejoin="round" style="-webkit-tap-highlight-color: rgba(0, 0, 0, 0); stroke-opacity: 1; stroke-linecap: round; stroke-linejoin: round; -webkit-user-select: text;"></path><path fill="none" stroke="#6c7e83" d="M376,768L378,771L378,775L378,779L379,784L380,789L382,794L384,799L387,803L389,807L392,812L394,816L397,819L400,823L403,827L406,830L409,834L413,837L417,840L421,844L426,847L430,850L434,853L438,856L443,858L448,861L453,863L457,865L461,866L466,868L470,869L475,870L480,870L485,871L490,871L495,872L501,872L507,872L512,872L518,872L524,872L530,870L536,869L542,867L548,865L554,863L560,860L565,857L570,853L574,850L578,847L583,843L587,839L591,836L594,832L597,829L601,825L604,821L607,817L610,813L612,810L615,807L617,803L620,800L623,796L626,792L629,788L633,784L636,780L639,776L642,772L644,769L647,764L649,760L651,756L654,752L656,748L659,743L661,738L664,733L667,728L669,723L672,719L674,715L676,710L678,707L679,704L681,700L682,698L684,695L685,693L686,691L687,689L688,688L688,686L689,685L689,684L690,684" stroke-opacity="1" stroke-width="2" stroke-linecap="round" stroke-linejoin="round" style="-webkit-tap-highlight-color: rgba(0, 0, 0, 0); stroke-opacity: 1; stroke-linecap: round; stroke-linejoin: round; -webkit-user-select: text;"></path><path fill="none" stroke="#6c7e83" d="M705,683L707,680L707,678L707,676L707,674L707,672L707,669L708,667L708,664L708,661L709,657L709,654L709,651L709,647L709,643L709,640L709,635L708,631L706,626L703,622L700,618L697,614L693,610L688,606L683,601L677,597L671,593L662,588L655,584L648,581L639,576L632,572L623,568L615,566L606,562L597,560L589,558L580,556L571,554L561,553L553,553L543,553L534,553L526,553L518,553L509,554L502,556L494,558L489,560L482,562L477,565L473,568L468,571L463,574L459,576L454,579L450,581L445,584L441,587L436,590L432,593L427,596L422,599L418,603L413,606L408,610L404,613L399,617L394,620L390,623L386,626L383,628L378,632L375,634L371,637L367,640L363,642L360,644L356,646L353,649L349,650L344,653L340,655L336,657L333,659L329,661L326,662L323,664L319,666L316,667L313,669L310,670L307,671L304,672L301,673L299,674L296,674L294,674L291,675L289,675L286,676L284,676L282,676L279,676L277,676L275,676L273,676L271,676L268,676L266,676L264,676L262,676L260,676L258,676L256,676L254,676L252,676L251,676L249,675L247,675L246,674L244,673L243,672L242,672L241,671L240,671L239,670L238,670L238,669L239,667" stroke-opacity="1" stroke-width="2" stroke-linecap="round" stroke-linejoin="round" style="-webkit-tap-highlight-color: rgba(0, 0, 0, 0); stroke-opacity: 1; stroke-linecap: round; stroke-linejoin: round; -webkit-user-select: text;"></path><path fill="none" stroke="#6c7e83" d="M249,672L243,671L242,670L241,668L239,665L238,661L236,657L234,653L232,649L230,644L228,639L226,634L223,629L221,624L219,619L216,614L214,608L212,603L209,597L206,591L203,586L200,579L197,574L193,568L190,562L186,555L183,549L178,543L175,537L172,531L169,525L165,520L162,514L159,508L156,502L152,496L149,490L145,484L142,478L138,472L135,467L131,460L128,455L125,448L122,443L119,438L115,432L113,427L110,423L108,419L106,416L104,412L102,410L101,407L100,406L99,404L98,403L98,402L97,401" stroke-opacity="1" stroke-width="2" stroke-linecap="round" stroke-linejoin="round" style="-webkit-tap-highlight-color: rgba(0, 0, 0, 0); stroke-opacity: 1; stroke-linecap: round; stroke-linejoin: round; -webkit-user-select: text;"></path><path fill="none" stroke="#6c7e83" d="M99,399L102,400L104,400L106,400L108,400L110,400L112,400L115,400L117,400L119,400L122,400L124,400L127,399L130,399L134,397L137,396L140,394L144,393L147,392L150,389L153,388L157,385L160,383L164,380L167,377L171,373L174,369L176,365L179,361L181,357L183,353L185,349L187,345L188,341L189,338L190,334L191,330L192,326L192,321L193,317L193,312L193,308L193,303L193,299L193,294L193,290L193,286L193,282L193,279L191,275L190,271L188,268L187,265L186,262L184,258L183,256L181,253L179,250L178,248L176,245L175,243L173,241L171,239L170,238L169,236L167,235L166,234L166,232L165,231L164,230L164,229" stroke-opacity="1" stroke-width="2" stroke-linecap="round" stroke-linejoin="round" style="-webkit-tap-highlight-color: rgba(0, 0, 0, 0); stroke-opacity: 1; stroke-linecap: round; stroke-linejoin: round; -webkit-user-select: text;"></path><path fill="none" stroke="#6c7e83" d="M177,222L174,227L174,229L173,233L171,236L170,239L168,242L165,245L163,248L159,252L156,255L152,258L148,262L144,265L139,269L134,272L129,275L124,278L119,281L114,283L110,284L106,285L103,286L100,286L97,286L94,286L91,286L88,286L86,285L83,284L81,282L78,281L76,279L74,277L71,275L69,273L68,270L66,268L65,265L64,262L62,259L61,256L60,253L59,250L59,246L58,242L58,238L58,234L58,229L58,223L58,218L59,212L61,207L64,201L66,197L69,192L71,188L74,185L77,180L80,177L83,173L86,170L89,166L92,163L95,160L97,156L100,153L103,149L105,146L108,141L111,137L114,132L116,128L118,124L120,120L122,117L124,112L126,108L127,104L129,100L131,96L132,92L133,89L134,85L135,82L136,79L137,76L137,74L138,71L139,68L139,66L140,63L140,61L141,59L141,57L142,55L142,53L142,51L142,49L142,47L142,46L143,44L143,43L143,42L143,43" stroke-opacity="1" stroke-width="2" stroke-linecap="round" stroke-linejoin="round" style="-webkit-tap-highlight-color: rgba(0, 0, 0, 0); stroke-opacity: 1; stroke-linecap: round; stroke-linejoin: round; -webkit-user-select: text;"></path><path fill="none" stroke="#6c7e83" d="M150,42L154,38L157,38L160,38L164,39L168,41L173,43L177,46L182,48L187,51L193,54L198,57L203,59L209,62L214,64L220,66L225,68L231,71L237,73L242,75L247,77L251,79L256,80L261,82L265,83L269,85L273,86L278,88L283,89L288,91L292,92L297,94L302,96L307,98L312,100L317,102L322,105L327,107L331,110L336,112L341,114L346,116L350,118L354,119L357,121L360,122L362,123L364,124L366,124L367,125L368,125" stroke-opacity="1" stroke-width="2" stroke-linecap="round" stroke-linejoin="round" style="-webkit-tap-highlight-color: rgba(0, 0, 0, 0); stroke-opacity: 1; stroke-linecap: round; stroke-linejoin: round; -webkit-user-select: text;"></path><path fill="none" stroke="#6c7e83" d="M366,128L370,127L372,127L374,127L376,127L378,126L379,125L381,124L382,122L384,121L385,120L386,118L388,117L390,115L391,113L393,112L395,109L396,107L397,105L399,102L400,99L401,96L402,93L402,90L402,88L402,84L402,81L402,78L402,76L402,73L400,70L399,67L397,65L396,62L394,59L391,57L389,54L387,51L384,49L381,46L378,44L375,41L371,38L368,36L363,33L360,31L356,29L352,27L348,25L344,24L339,22L335,21L331,20L327,20L323,20L319,19L316,19L312,18L309,18L306,18L302,18L300,18L296,18L294,19L290,20L287,21L284,22L280,24L278,25L275,26L273,26L272,27L271,27L270,27" stroke-opacity="1" stroke-width="2" stroke-linecap="round" stroke-linejoin="round" style="-webkit-tap-highlight-color: rgba(0, 0, 0, 0); stroke-opacity: 1; stroke-linecap: round; stroke-linejoin: round; -webkit-user-select: text;"></path><path fill="none" stroke="#6c7e83" d="M252,38L254,35L259,35L263,35L270,35L276,34L283,33L289,32L295,32L301,32L308,32L314,32L322,32L329,32L336,32L344,34L350,35L356,37L364,40L370,43L378,46L384,49L390,54L396,57L401,61L407,65L412,69L416,73L420,78L424,82L428,86L431,90L434,94L437,98L440,103L442,107L443,111L446,115L447,119L448,123L450,127L451,132L453,135L454,139L455,143L456,147L458,152L458,156L460,160L460,164L461,168L462,173L463,177L464,182L465,186L465,190L466,195L467,199L467,204L468,209L468,213L468,218L469,222L470,227L470,231L470,236L471,241L471,246L471,251L471,256L471,261L471,266L471,271L471,275L471,280L471,285L471,289L471,294L470,298L470,302L469,306L468,311L468,315L467,319L466,323L465,326L464,331L463,335L463,338L462,342L461,345L460,349L459,352L458,355L458,358L457,361L456,364L456,367L455,369L455,372L455,375L455,377L455,379L455,382L455,384L455,387L455,389L455,392L455,394L455,397L455,399L455,402L456,404L457,406L458,409L458,411L459,413L460,416L461,418L463,421L464,423L465,426L466,428L468,431L470,434L471,437L473,439L475,442L477,444L479,447L482,449L484,452L486,455L488,457L491,460L494,462L497,464L499,466L502,468L505,471L508,473L511,474L514,477L518,478L521,479L525,481L529,482L533,483L538,484L542,484L546,485L550,486L555,486L560,486L563,487L567,487L570,487L573,487L575,487L576,487L577,487L578,487L579,487" stroke-opacity="1" stroke-width="2" stroke-linecap="round" stroke-linejoin="round" style="-webkit-tap-highlight-color: rgba(0, 0, 0, 0); stroke-opacity: 1; stroke-linecap: round; stroke-linejoin: round; -webkit-user-select: text;"></path><path fill="none" stroke="#6c7e83" d="M580,491L585,487L586,485L587,483L588,481L589,479L590,476L591,473L593,469L594,466L596,462L597,457L599,452L601,448L602,444L604,439L606,434L608,428L610,423L612,417L615,411L617,404L619,397L622,392L625,385L627,378L630,372L632,367L634,360L636,354L638,348L641,343L643,337L645,331L647,325L648,319L650,314L652,309L654,303L656,298L658,292L660,287L662,283L663,277L665,273L667,269L668,264L670,260L672,256L673,251L674,248L676,244L677,241L677,238L678,236L679,234L679,231L680,230L680,228L681,226L681,225L682,224L682,223L682,221L683,220L683,219L684,219L684,218" stroke-opacity="1" stroke-width="2" stroke-linecap="round" stroke-linejoin="round" style="-webkit-tap-highlight-color: rgba(0, 0, 0, 0); stroke-opacity: 1; stroke-linecap: round; stroke-linejoin: round; -webkit-user-select: text;"></path><path fill="none" stroke="#6c7e83" d="M689,229L689,223L689,221L689,219L689,216L688,213L687,210L686,207L684,204L682,200L678,196L676,193L672,190L669,186L664,183L661,180L656,177L652,174L647,170L643,168L637,165L631,162L625,160L619,158L613,156L606,154L600,153L593,151L586,151L579,150L572,150L566,150L559,150L553,150L548,150L543,152L539,153L534,156L530,158L526,160L522,162L519,164L516,167L514,169L511,172L509,175L507,177L506,180L504,183L502,185L501,187L500,190L499,192L497,195L497,197L496,199L495,201L494,203L494,205L493,207L492,209L492,210L492,212L491,213L491,214L491,215L491,216L490,217L490,218" stroke-opacity="1" stroke-width="2" stroke-linecap="round" stroke-linejoin="round" style="-webkit-tap-highlight-color: rgba(0, 0, 0, 0); stroke-opacity: 1; stroke-linecap: round; stroke-linejoin: round; -webkit-user-select: text;"></path><path fill="none" stroke="#6c7e83" d="M508,200L507,202L507,204L507,207L507,211L507,215L507,219L506,223L505,227L504,231L504,236L504,240L504,244L504,249L504,253L504,258L504,263L505,267L506,271L507,277L509,281L510,287L511,292L511,298L512,304L513,309L513,314L514,320L514,325L514,332L514,337L514,342L514,348L512,355L511,360L509,366L507,372L505,378L504,383L501,388L498,393L495,398L492,402L490,407L486,411L483,416L480,420L477,424L474,428L471,431L468,433L465,436L463,439L460,442L457,444L454,446L452,448L449,450L446,452L443,454L440,456L437,458L434,460L431,462L427,465L424,467L420,469L417,471L413,472L410,474L407,476L403,478L400,479L397,482L393,483L390,484L387,486L384,488L381,489L378,491L375,492L372,494L369,495L367,497L364,499L361,500L359,501L357,503L355,504L353,505L351,506L349,508L347,509L345,511L343,512L341,513L339,515L337,516L336,518L334,520L332,521L331,523L329,525L328,526L327,528L325,530L324,532L322,533L321,535L319,538L318,540L317,542L315,545L313,547L312,550L310,553L308,557L307,560L305,563L304,567L303,570L302,574L300,578L299,582L298,586L297,590L296,594L295,599L294,604L293,609L293,614L292,619L292,624L291,629L291,635L291,640L291,646L291,652L291,657L291,662L291,667L291,674L291,679L292,685L293,691L294,696L295,702L296,707L298,712L300,717L302,722L303,726L305,730L306,734L308,738L310,742L312,746L314,749L317,753L319,757L322,761L325,765L328,769L330,772L333,776L336,779L338,782L341,785L344,789L346,792L349,795L352,797L354,800L357,803L359,806L362,809L364,811L367,814L370,816L372,818L374,820L377,822L379,824L382,826L384,828L386,829L388,831L391,833L393,834L395,836L398,838L400,840L403,841L405,843L407,844L409,846L410,847L412,849L414,850L415,851L417,852L419,853L420,853L421,854L422,855L423,856L424,856L425,857L426,857L426,858L427,858L428,858L428,859L429,859L430,860L431,860L431,861L432,861L432,858L432,856" stroke-opacity="1" stroke-width="2" stroke-linecap="round" stroke-linejoin="round" style="-webkit-tap-highlight-color: rgba(0, 0, 0, 0); stroke-opacity: 1; stroke-linecap: round; stroke-linejoin: round; -webkit-user-select: text;"></path><path fill="none" stroke="#6c7e83" d="M441,856L431,860L429,860L427,860L425,860L423,861L421,861L418,861L416,862L414,862L411,863L408,863L405,863L402,863L398,863L395,863L390,863L386,863L382,863L377,863L372,863L367,863L362,863L356,863L349,863L343,863L337,863L331,863L326,863L320,863L314,863L310,863L305,863L300,863L295,863L290,863L285,863L280,863L275,862L270,862L265,861L260,861L255,861L250,861L244,861L239,861L233,861L228,861L223,861L217,861L212,861L207,861L203,860L198,860L193,860L188,860L183,859L179,859L175,859L171,859L168,859L164,859L161,859L157,859L155,859L152,859L149,859L147,859L145,859L143,859L141,859L139,859L137,859L135,859L133,859L132,859L130,859L129,859L128,859L127,859L126,859" stroke-opacity="1" stroke-width="2" stroke-linecap="round" stroke-linejoin="round" style="-webkit-tap-highlight-color: rgba(0, 0, 0, 0); stroke-opacity: 1; stroke-linecap: round; stroke-linejoin: round; -webkit-user-select: text;"></path><path fill="none" stroke="#6c7e83" d="M115,854L123,850L126,850L130,850L133,850L137,850L140,849L143,849L145,848L147,847L149,846L152,844L154,843L156,841L159,839L161,837L164,835L166,832L169,830L171,828L174,825L176,823L178,821L180,818L182,815L183,813L185,810L187,807L189,803L190,799L191,795L193,791L193,788L194,784L194,781L195,777L195,774L195,770L196,766L196,763L196,759L196,755L196,751L196,748L196,745L195,742L195,739L194,735L193,732L192,729L191,727L190,725L189,722L188,720L187,717L186,715L185,713L184,710L183,708L181,706L180,704L179,703L177,700L176,699L175,697L174,695L173,694L172,693L171,691L169,691L169,689L167,688L166,687L165,686L164,685L163,684L163,683L162,683L162,682L162,681" stroke-opacity="1" stroke-width="2" stroke-linecap="round" stroke-linejoin="round" style="-webkit-tap-highlight-color: rgba(0, 0, 0, 0); stroke-opacity: 1; stroke-linecap: round; stroke-linejoin: round; -webkit-user-select: text;"></path><path fill="none" stroke="#6c7e83" d="M160,679L158,677L157,677L155,676L154,674L152,671L151,668L149,665L148,662L147,659L146,656L145,652L144,649L144,646L143,642L142,638L142,634L141,630L141,626L141,621L141,617L141,612L141,606L142,601L144,596L147,589L151,583L155,576L159,571L162,567L166,561L170,556L175,551L180,546L185,541L191,537L196,533L201,528L205,525L210,521L215,518L220,515L225,512L229,510L234,507L238,505L242,503L246,501L249,498L253,496L256,494L259,492L261,491L264,489L266,487L269,485L271,484L273,482L276,480L278,478L280,477L282,475L284,473L286,471L288,469L290,467L293,465L295,463L298,460L300,458L302,455L305,453L307,450L310,448L312,445L314,442L317,439L319,436L321,433L323,430L325,426L327,423L328,420L329,417L331,413L331,411L333,407L334,404L334,401L335,398L336,395L337,392L337,389L338,387L339,383L339,380L339,377L340,374L340,370L340,367L340,364L340,361L340,358L340,355L340,352L340,349L340,346L340,343L340,341L340,338L339,335L339,333L338,330L337,328L336,325L335,323L334,321L334,318L333,316L332,314L331,311L330,309L329,308L329,306L328,304L327,302L326,300L325,298L324,296L323,294L322,292L322,291L321,289L320,288L320,287L319,286L319,285L319,284L319,283L318,283L318,282L317,282" stroke-opacity="1" stroke-width="2" stroke-linecap="round" stroke-linejoin="round" style="-webkit-tap-highlight-color: rgba(0, 0, 0, 0); stroke-opacity: 1; stroke-linecap: round; stroke-linejoin: round; -webkit-user-select: text;"></path><path fill="none" stroke="#6c7e83" d="M313,280L310,279L310,277L309,275L308,273L307,270L305,267L304,265L302,262L300,259L298,256L295,253L293,250L289,247L286,244L282,241L278,238L274,235L269,232L263,229L257,225L251,222L245,218L238,214L230,211L222,207L215,203L206,199L199,195L191,189L184,185L177,180L170,176L164,172L157,168L151,164L146,161L141,157L136,154L131,151L127,148L122,145L118,142L114,139L110,137L106,135L103,133L100,131L97,129L95,128L93,127L92,126L91,126L90,125L89,125L88,124" stroke-opacity="1" stroke-width="2" stroke-linecap="round" stroke-linejoin="round" style="-webkit-tap-highlight-color: rgba(0, 0, 0, 0); stroke-opacity: 1; stroke-linecap: round; stroke-linejoin: round; -webkit-user-select: text;"></path><path fill="none" stroke="#6c7e83" d="M61,118L57,112L56,111L56,110L55,109L54,107L53,107L53,105L52,104L51,102L51,100L50,98L50,95L49,93L49,90L49,88L49,85L49,82L49,79L49,76L50,73L51,70L52,67L54,63L56,61L59,57L61,54L64,51L67,49L70,46L73,44L76,42L80,41L85,39L89,37L93,35L98,34L102,33L105,32L108,32L110,31L111,31L112,31L113,31" stroke-opacity="1" stroke-width="2" stroke-linecap="round" stroke-linejoin="round" style="-webkit-tap-highlight-color: rgba(0, 0, 0, 0); stroke-opacity: 1; stroke-linecap: round; stroke-linejoin: round; -webkit-user-select: text;"></path><path fill="none" stroke="#6c7e83" d="M105,46L113,42L115,42L117,41L119,40L121,39L124,37L127,36L132,35L137,34L142,34L147,34L153,34L159,34L164,34L170,34L176,34L182,36L188,38L194,39L200,42L208,44L213,46L220,49L225,52L231,55L237,58L242,61L247,64L252,68L256,72L260,76L263,80L267,84L271,88L275,93L279,97L283,102L287,106L291,111L295,115L299,120L303,124L307,129L311,133L314,137L318,141L322,145L327,149L331,154L335,158L339,162L344,166L349,169L353,173L357,176L361,179L366,182L370,185L374,187L379,190L383,192L387,195L392,197L396,199L401,201L405,203L409,204L414,206L418,207L422,208L427,209L431,210L436,211L440,212L445,212L450,212L454,212L458,212L463,212L467,212L472,212L476,212L480,212L485,210L489,209L494,207L499,205L503,204L507,202L511,200L515,198L519,196L522,193L526,191L529,188L532,185L536,183L538,180L542,177L545,173L548,170L552,167L555,164L558,160L561,157L564,154L566,151L569,147L572,144L575,141L578,138L581,134L583,132L586,128L589,125L592,122L594,119L596,116L599,113L601,110L603,107L604,105L606,102L608,99L610,96L611,93L613,90L615,88L616,85L618,82L620,79L621,77L623,74L624,71L626,69L627,66L628,64L630,62L631,60L632,58L633,56L634,55L635,53L635,51L637,50L638,49L638,48L639,46L640,45L641,44L642,44L643,43L643,42L644,42L645,41" stroke-opacity="1" stroke-width="2" stroke-linecap="round" stroke-linejoin="round" style="-webkit-tap-highlight-color: rgba(0, 0, 0, 0); stroke-opacity: 1; stroke-linecap: round; stroke-linejoin: round; -webkit-user-select: text;"></path><path fill="none" stroke="#6c7e83" d="M658,44L657,47L657,50L657,53L657,56L656,59L655,63L654,67L653,71L652,76L650,80L649,85L648,89L646,95L645,101L643,105L642,110L640,115L639,120L638,125L637,129L635,134L635,139L634,144L633,148L632,151L631,155L631,159L630,162L629,166L629,169L628,172L628,175L628,178L627,181L626,184L626,186L626,189L625,190L625,192L625,194L624,195L624,196L624,197" stroke-opacity="1" stroke-width="2" stroke-linecap="round" stroke-linejoin="round" style="-webkit-tap-highlight-color: rgba(0, 0, 0, 0); stroke-opacity: 1; stroke-linecap: round; stroke-linejoin: round; -webkit-user-select: text;"></path><path fill="none" stroke="#6c7e83" d="M611,188L614,192L617,193L619,195L623,199L626,202L629,206L632,210L635,214L638,219L641,223L644,228L646,233L648,238L650,243L652,248L653,253L655,258L655,264L657,270L657,275L658,281L658,287L659,292L659,298L659,304L659,309L659,314L659,319L659,324L659,328L658,333L657,338L656,342L655,347L653,350L652,354L651,358L650,360L649,363L647,366L646,369L645,372L643,375L641,377L640,379L638,382L636,384L635,387L633,389L632,390L630,392L629,394L628,395L627,396L627,397L626,398L626,399L627,399" stroke-opacity="1" stroke-width="2" stroke-linecap="round" stroke-linejoin="round" style="-webkit-tap-highlight-color: rgba(0, 0, 0, 0); stroke-opacity: 1; stroke-linecap: round; stroke-linejoin: round; -webkit-user-select: text;"></path><path fill="none" stroke="#6c7e83" d="M636,405L630,406L628,406L627,406L625,405L623,404L621,403L619,403L617,402L614,402L611,402L606,402L602,402L598,402L594,403L590,404L587,405L584,407L581,409L578,411L575,412L572,414L570,416L567,418L565,421L564,423L562,425L560,428L558,431L557,433L555,436L553,439L552,442L551,445L550,449L549,452L548,456L546,461L545,465L544,470L543,475L543,480L543,485L542,490L542,494L542,499L541,504L541,509L541,514L541,519L541,524L541,529L541,534L541,540L541,545L542,550L543,555L544,561L545,565L546,570L548,574L550,578L551,582L553,586L555,589L557,593L560,597L562,601L565,606L568,610L571,615L574,619L577,624L580,628L583,632L586,636L588,639L591,643L593,646L595,649L596,653L599,656L600,659L601,662L603,665L604,668L605,671L606,673L607,676L607,678L608,680L609,681L609,683L609,684L610,685L610,686L610,684L612,684L613,685" stroke-opacity="1" stroke-width="2" stroke-linecap="round" stroke-linejoin="round" style="-webkit-tap-highlight-color: rgba(0, 0, 0, 0); stroke-opacity: 1; stroke-linecap: round; stroke-linejoin: round; -webkit-user-select: text;"></path><path fill="none" stroke="#6c7e83" d="M624,678L623,682L623,685L623,689L623,693L624,698L624,703L625,708L625,713L626,717L626,722L626,726L627,730L627,734L628,738L628,742L628,746L628,751L628,755L629,760L629,764L630,768L630,771L630,775L630,778L630,782L630,785L631,788L631,791L631,794L631,797L631,799L632,802L632,804L632,806L632,808L632,810L632,811L633,813L633,815L633,816L633,817L634,815L635,815" stroke-opacity="1" stroke-width="2" stroke-linecap="round" stroke-linejoin="round" style="-webkit-tap-highlight-color: rgba(0, 0, 0, 0); stroke-opacity: 1; stroke-linecap: round; stroke-linejoin: round; -webkit-user-select: text;"></path><path fill="none" stroke="#6c7e83" d="M606,808L617,809L620,809L623,809L628,809L631,808L635,808L638,808L641,808L645,808L648,809L652,810L655,812L658,814L661,816L664,818L666,820L667,822L669,824L670,826L671,828L672,830L674,832L674,835L676,837L677,839L677,841L678,842L679,844L679,846L680,848L681,849L681,851L682,853L682,855L683,856L683,858L684,860L684,862L684,864L685,866L685,868L685,869L685,870L685,871L685,872L685,873L685,874L685,870" stroke-opacity="1" stroke-width="2" stroke-linecap="round" stroke-linejoin="round" style="-webkit-tap-highlight-color: rgba(0, 0, 0, 0); stroke-opacity: 1; stroke-linecap: round; stroke-linejoin: round; -webkit-user-select: text;"></path><path fill="none" stroke="#6c7e83" d="M688,857L684,861L682,863L678,865L674,868L670,870L666,873L661,875L655,877L649,878L643,880L637,882L630,883L624,884L619,885L613,885L606,886L600,886L594,887L587,887L581,887L574,887L568,887L561,887L555,887L549,887L543,887L538,886L532,885L526,883L521,881L517,879L512,877L508,874L505,872L502,870L498,867L495,865L492,862L490,859L487,856L484,853L481,850L478,847L475,843L473,840L470,837L468,834L466,831L464,828L462,824L460,821L458,818L455,814L453,811L452,807L450,804L448,801L446,798L444,795L442,793L441,790L439,788L437,786L436,784L434,782L432,780L431,778L429,777L427,776L425,774L423,773L421,771L419,771L417,769L415,768L413,768L411,767L409,766L406,766L404,765L401,765L398,764L395,764L392,763L389,762L386,762L383,761L381,761L378,761L375,760L373,760L370,760L367,760L363,760L361,760L358,760L355,760L352,760L349,760L345,760L341,760L338,760L334,760L331,760L327,760L324,760L320,760L317,760L314,760L310,760L308,760L305,760L303,761L301,761L299,761L297,762L295,762L293,762L291,762L290,763L288,763L287,763L285,763L284,764L283,764L281,764L280,764L279,764L278,764L277,764L276,764L272,764" stroke-opacity="1" stroke-width="2" stroke-linecap="round" stroke-linejoin="round" style="-webkit-tap-highlight-color: rgba(0, 0, 0, 0); stroke-opacity: 1; stroke-linecap: round; stroke-linejoin: round; -webkit-user-select: text;"></path></svg>