<svg height="906" version="1.1" width="768" xmlns="http://www.w3.org/2000/svg" xmlns:xlink="http://www.w3.org/1999/xlink" style="overflow: hidden; position: relative; -webkit-user-select: text;"><desc style="-webkit-tap-highlight-color: rgba(0, 0, 0, 0); -webkit-user-select: text;">Created with Raphaël 2.2.0</desc><defs style="-webkit-tap-highlight-color: rgba(0, 0, 0, 0); -webkit-user-select: text;"></defs><path fill="none" stroke="#6c7e83" d="M306,363L316,360L319,360L322,360L326,360L329,359L334,357L339,356L344,355L348,353L353,352L358,350L363,349L368,348L373,346L378,344L382,343L387,342L392,340L398,339L402,338L407,336L412,335L417,333L422,332L426,331L431,330L434,329L438,327L443,326L447,324L451,323L454,322L457,321L460,320L464,319L467,318L470,318L473,317L477,316L479,315L481,315L483,314L485,314L487,313L489,313L491,312L493,312L495,311L497,311L499,311L502,310L504,310L506,309L507,309L509,309L510,308L512,308L513,307L514,307L516,307L517,306L518,306L519,306L521,305L522,305L523,305L524,304L525,304L526,304L527,304L528,304L530,304L531,304L532,304L533,304L534,303L535,303L536,303L537,303L538,303L539,303L539,304L539,305L539,306L539,307L539,308L539,309L538,309L536,309L534,309L531,309L528,309L525,309L521,309L518,309L515,309L512,309L509,309L506,309L502,308L498,307L494,307L491,307L487,307L484,306L480,305L476,305L472,304L468,304L465,304L461,304L458,304L455,304L452,303L449,303L445,303L442,303L439,303L436,303L434,303L430,303L427,302L424,302L421,302L418,302L415,302L412,302L409,302L407,302L404,302L401,302L398,302L395,302L391,302L387,302L384,302L381,302L377,302L373,302L370,302L367,302L363,302L361,302L358,301L356,301L353,300L351,299L348,299L346,299L343,299L340,298L337,298L335,298L333,297L330,297L328,297L325,297L322,297L319,297L316,297L313,296L310,296L308,296L305,296L303,296L301,295L299,295L296,294L294,294L292,294L290,293L287,292L285,292L283,291L281,291L279,290L277,290L275,289L273,289L271,289L268,288L266,288L263,287L261,287L259,287L257,287L255,287L253,287L251,287L250,287L249,287L248,287L247,287L246,287L246,288L246,290L246,292L246,294L246,295L246,297L246,298L246,299L248,300L249,300L252,300L255,300L260,300L265,300L270,299L274,297L279,296L284,294L289,293L293,292L298,292L302,291L306,290L311,290L315,290L321,290L326,289L331,289L338,288L344,288L351,287L357,287L364,286L372,286L378,285L385,285L392,285L399,284L406,284L412,284L419,283L426,282L433,282L440,281L447,280L454,279L460,278L467,277L473,277L478,276L483,275L488,275L492,274L497,273L500,273L504,273L507,273L510,273L512,273L514,273L516,273L518,273L520,273L521,273L523,273L523,274L524,275L524,277L524,279L524,281L523,282L521,284L520,285L519,286L518,287L516,287L514,287L511,287L507,287L502,287L496,287L490,286L482,286L475,286L466,285L457,285L447,285L438,285L428,285L419,285L409,285L399,285L388,285L378,285L368,284L359,283L350,282L341,281L332,280L323,279L314,277L307,277L297,276L288,276L281,276L274,275L267,275L260,275L255,275L249,275L244,275L238,275L233,275L228,275L223,275L219,275L215,275L213,275L211,275L209,275L208,275L207,276L206,277L206,279L205,281L204,284L204,287L203,291L203,294L203,296L203,298L203,299L203,300L206,300L212,300L219,300L228,300L238,300L248,299L261,297L273,295L285,292L298,291L312,289L326,287L341,285L356,282L373,280L387,277L402,274L415,272L429,269L442,266L455,264L467,262L477,259L488,257L498,255L507,253L515,251L523,250L529,248L534,248L538,248L541,248L542,248L543,248L543,250L543,251L543,253L543,255L542,257L541,260L540,263L538,265L537,267L535,269L533,271L530,272L528,273L524,273L520,274L516,274L510,275L504,275L499,275L492,275L486,275L480,275L473,275L468,275L461,276L455,276L448,276L441,276L435,277L428,277L420,277L412,277L403,278L395,278L387,279L378,279L370,280L362,280L354,280L347,280L339,280L332,280L325,280L319,280L312,279L307,279L300,278L295,277L288,277L283,277L277,277L271,277L266,276L261,276L256,275L251,275L247,275L243,275L239,275L235,275L232,275L229,275L225,275L223,274L220,274L219,273L217,272L217,270L217,268L217,264L217,260L217,255L218,249L220,244L222,239L223,234L225,231L226,228L227,226L228,226L229,226L230,226L232,226L234,226L238,227L242,229L246,232L251,234L257,237L261,239L264,241L266,244L268,248L268,251L268,256L268,261L268,268L268,274L267,281L266,287L265,294L265,298L264,302L264,305L264,307L263,308L262,308L261,309L258,309L255,309L250,308L244,307L237,304L231,302L224,300L217,299L211,297L206,296L202,294L199,292L197,289L196,285L195,280L193,275L191,269L188,264L184,260L181,256L177,252L174,250L171,248L168,247L166,247L164,247L161,247L159,247L157,250L153,253L149,257L144,261L140,265L136,268L132,270L130,273L128,274L127,275L127,277L127,278L127,280L127,283L128,287L130,292L132,298L133,304L135,309L137,313L139,316L141,319L144,321L148,321L153,321L161,321L170,317L179,313L186,311L192,309L196,307L200,306L202,306L203,306L203,305L203,304L201,302L198,299L193,294L189,290L185,283L181,277L179,273L176,268L174,265L171,261L169,259L167,256L166,254L165,252L165,249L166,246L170,241L175,235L182,228L188,221L194,215L199,210L204,205L208,202L211,199L215,195L217,193L219,192L221,191L222,190L223,190L224,190L225,191L226,192L228,195L231,199L234,203L238,207L243,212L247,217L250,222L254,226L257,230L260,233L262,236L263,238L265,241L265,243L265,245L265,247L265,249L260,253L252,258L240,265L227,271L216,275L204,279L195,281L187,283L182,284L178,285L182,283L190,279L198,273L207,268L213,263L220,259L225,256L229,255L232,254L234,254L236,254L237,257L239,262L242,268L246,275L250,282L254,290L258,297L262,305L266,311L270,318L273,322L275,326L277,330L278,333L278,335L278,337L278,338L275,341L269,344L260,348L250,353L239,358L230,362L220,367L212,372L206,376L201,379L198,380L195,381L193,381L192,381L191,378L190,372L188,367L186,360L183,354L180,350L178,347L176,343L174,341L174,338L174,334L179,330L188,324L197,319L207,315L215,312L222,311L228,311L233,311L236,314L238,319L239,326L241,333L242,341L244,348L247,353L249,358L251,362L252,365L253,367L253,368L253,369L251,370L244,370L235,371L222,372L208,374L195,376L183,379L174,381L167,382L163,383L160,384L161,384L170,384L179,383L193,382L205,382L217,384L227,388L235,392L242,394L247,396L251,397L254,398L256,398L256,394L254,389L254,379L254,366L257,350L263,336L270,322L276,312L280,305L284,300L285,299L287,298L288,300L289,305L291,311L295,318L301,323L308,328L316,333L323,336L329,339L333,342L336,344L337,346L338,348L338,350L334,353L325,359L313,365L301,372L289,380L280,386L273,393L270,397L268,401L268,402L268,404L268,401L268,395L268,386L268,374L267,365L267,357L267,350L268,347L270,345L272,345L276,345L280,348L287,352L296,356L306,360L316,363L326,367L333,370L339,372L345,375L348,376L350,378L351,379L349,380L342,382L335,384L327,387L319,389L314,392L311,393L309,395L309,396L309,397L310,397L313,397L317,397L324,398L329,399L335,399L341,401L345,402L348,403L350,404L351,406L351,408L351,411L349,414L347,418L345,421L344,424L343,427L343,429L343,430L343,431L344,431L348,431L356,426L366,420L373,416L380,412L385,409L387,407L390,405L390,404L389,404L384,403L375,403L365,402L351,402L339,402L329,401L320,399L315,396L311,391L310,387L310,379L310,372L313,363L319,356L324,350L328,346L334,343L341,343L349,343L356,343L365,348L373,353L381,358L387,363L392,369L395,373L397,377L397,382L397,385L394,390L387,394L376,398L364,402L351,405L337,408L323,410L310,411L300,411L293,411L288,411L283,413L280,414L279,417L278,420L278,424L278,428L278,432L281,435L286,437L295,438L307,438L323,438L339,438L353,438L362,438L368,438L371,440L373,443L373,446L373,449L373,452L373,454L373,455L374,455L379,455L388,450L401,442L413,431L424,421L431,411L434,404L435,399L435,393L431,389L421,386L407,383L390,381L375,380L356,380L340,380L325,384L314,388L309,389L306,390L305,390L306,387L314,377L324,366L333,355L342,344L350,336L358,329L364,325L369,321L374,319L377,317L379,316L380,316L378,316L373,316L366,316L358,314L349,311L339,308L330,305L319,302L309,299L297,297L287,295L278,293L272,290L268,287L267,282L267,275L269,265L273,256L278,246L282,238L285,232L286,228L288,225L288,224L289,224L290,224L291,224L295,227L302,231L311,236L320,241L328,247L334,252L337,256L340,263L340,270L339,279L333,288L324,299L317,306L311,310L308,312L307,312L307,310L308,300L312,290L317,277L322,265L327,253L330,242L331,236L331,231L331,229L329,228L319,228L305,228L293,228L283,226L276,221L270,215L265,209L262,200L259,191L258,183L256,174L256,166L255,157L255,149L255,141L255,136L255,130L255,127L255,125L255,124L255,125L255,127L256,129L259,132L265,136L272,141L280,148L288,153L296,159L303,163L311,168L319,170L326,173L331,175L337,178L340,180L342,183L342,185L342,190L340,196L334,204L327,212L320,221L312,229L307,236L302,241L298,244L295,247L292,248L290,248L288,248L287,248L285,243L285,238L285,230L288,221L293,210L302,198L310,186L320,173L329,162L336,154L345,146L351,141L356,139L359,137L362,137L365,137L367,137L370,137L373,140L378,143L383,147L389,151L395,156L401,161L406,165L411,169L417,173L421,176L425,180L428,182L430,185L431,187L432,189L432,191L432,192L432,194L430,196L424,200L415,205L402,212L388,220L373,228L359,235L348,241L340,246L335,248L332,251L330,252L329,253L329,254L329,256L329,258L329,263L330,270L332,277L334,286L337,294L339,301L342,307L344,309L349,310L357,310L371,306L385,299L401,292L414,286L423,281L430,277L434,275L435,273L436,271L433,270L426,270L417,270L405,268L393,267L380,265L370,262L360,257L353,251L349,245L347,237L347,228L347,217L349,207L353,197L356,190L358,186L359,184L361,183L363,183L365,183L369,184L376,187L385,190L395,194L405,197L412,200L417,203L422,207L424,210L424,216L424,223L420,233L412,246L404,258L396,270L388,281L383,290L379,296L376,301L374,304L374,305L377,303L385,299L396,296L408,293L420,291L432,289L443,287L453,285L461,283L466,281L470,279L472,277L472,276L472,275L463,274L449,272L435,270L421,266L410,261L401,256L393,250L388,245L384,238L382,233L381,227L381,220L385,212L395,202L406,192L417,184L424,178L430,175L434,175L437,175L440,176L442,183L445,192L448,203L454,214L460,225L465,234L471,241L476,246L482,250L488,251L494,252L502,252L507,248L509,243L509,238L509,231L498,226L480,222L460,220L441,220L428,220L420,219L416,217L416,214L421,207L433,196L450,183L463,173L478,164L491,158L501,154L507,151L512,151L514,151L516,151L517,153L518,159L519,165L522,172L526,179L530,187L535,194L539,201L542,206L543,211L544,216L544,222L538,230L524,239L505,249L485,258L465,266L450,272L435,277L426,280L419,282L415,282L413,282L412,283L412,284L413,285L414,287L416,290L417,295L419,302L419,311L419,321L419,332L417,343L414,353L412,361L412,367L412,371L412,375L412,377L412,378L415,378L419,378L426,378L435,378L447,376L459,374L472,371L483,368L491,366L497,363L501,361L503,359L503,356L503,353L497,348L491,341L486,332L483,321L482,311L482,301L481,294L479,291L474,288L460,289L443,294L422,304L403,314L385,326L374,336L368,342L366,347L366,349L368,351L375,351L381,352L384,354L387,356L387,361L383,368L373,373L364,375L355,375L346,374L340,366L336,354L332,338L329,322L325,306L319,292L312,280L304,270L296,262L288,254L281,247L275,239L270,231L266,222L263,214L260,207L258,202L256,198L255,195L254,195L255,196L260,201L267,208L277,217L287,226L298,235L305,241L314,248L319,253L323,257L326,260L327,264L327,267L326,270L319,273L309,277L296,280L280,285L263,289L249,293L237,297L229,299L224,302L221,303L220,304L224,304L231,304L240,304L248,305L255,309L260,314L262,323L263,333L263,343L263,354L263,361L264,367L266,370L268,373L271,374L273,374L277,371L282,363L289,351L296,337L304,322L310,307L314,297L316,289L316,283L316,279L316,277L314,276L312,276L314,276L323,276L333,276L344,276L352,277L357,280L360,286L360,295L356,306L347,318L338,330L329,341L324,349L322,357L321,362L321,367L323,371L328,374L334,376L341,377L348,378L353,378L358,378L363,374L367,368L370,362L370,353L370,345L366,335L360,326L354,318L350,310L349,301L349,289L354,276L363,265L372,255L380,248L386,243L390,241L392,240L393,240L393,241L393,246L392,254L390,264L387,276L384,290L380,303L377,316L375,326L375,334L375,341L378,345L387,347L400,347L415,347L431,347L446,347L458,346L468,345L475,345L480,345L485,345L487,346L489,348L490,350L490,353L487,358L475,364L459,371L434,378L412,384L394,387L376,389L364,389L356,389L351,388L349,382L349,372L353,358L363,344L374,331L385,319L392,312L400,308L405,305L411,304L416,304L420,304L424,310L429,316L434,324L441,331L449,338L458,345L466,351L474,357L480,361L486,367L491,371L495,375L499,378L502,381L504,384L506,386L507,388L507,389L507,391L507,392L501,395L491,399L480,403L468,408L455,412L443,416L435,419L427,421L422,422L417,423L413,423L410,423L409,420L407,415L407,409L407,401L407,393L407,385L407,376L409,367L412,359L415,352L417,347L418,345L419,345L418,347L415,351L412,356L409,361L409,365L409,369L412,373L421,375L434,375L453,375L468,375L481,375L489,375L494,375L496,376L497,379L496,385L490,393L485,401L478,409L473,414L467,420L463,422L458,423L453,423L449,423L443,418L437,413L431,407L424,404L419,402L414,402L409,402L406,404L403,409L402,413L401,418L401,423L403,426L408,428L417,430L429,430L444,430L460,430L477,430L493,430L507,430L516,428L522,428L526,427L529,426L530,424L530,422L530,420L529,416L526,409L523,399L521,391L519,378L519,365L520,352L523,340L525,331L525,326L525,323L525,321L524,321L516,321L502,325L485,331L467,339L450,347L435,354L426,359L422,361L421,361L432,352L454,335L475,319L494,306L509,296L521,288L528,282L532,278L535,276L536,275L537,275L537,277L537,280L537,286L537,291L541,299L546,307L552,315L557,322L561,329L563,336L564,342L564,348L564,353L561,357L555,361L543,364L528,367L511,368L496,369L480,369L466,368L455,365L449,361L445,356L443,351L443,343L448,333L458,321L470,308L485,292L497,278L507,268L513,259L519,252L524,247L528,245L531,244L534,244L538,244L542,246L548,251L554,256L560,260L563,263L565,266L567,270L567,273L561,278L546,284L524,290L500,294L482,297L467,297L458,297L454,294L453,288L455,278L461,270L470,258L478,247L486,236L494,226L503,218L511,213L519,210L526,208L533,207L540,207L548,207L555,204L563,200L569,195L577,189L582,183L589,175L594,169L599,161L603,156L606,151L609,148L610,145L611,144L609,145L606,147L599,149L589,151L576,153L561,153L546,153L531,152L519,148L508,144L500,140L492,137L487,134L484,132L481,130L480,130L479,130L479,132L478,137L477,146L474,158L472,170L469,184L465,197L463,209L460,217L460,223L459,226L459,227L460,227L464,224L472,217L484,207L497,198L510,188L519,180L526,173L531,168L533,165L535,163L535,161L535,160L535,158L534,154L533,148L533,139L534,127L538,117L543,107L547,100L549,96L551,93L552,90L553,90L553,92L553,93L553,95L554,97L557,99L561,102L567,105L574,109L581,113L586,116L589,119L593,121L595,123L596,125L596,127L596,129L594,132L587,136L575,144L560,151L543,161L527,170L514,177L507,182L503,184L502,185L501,185L501,183L501,180L501,177L501,175L501,174L502,174L505,174L511,175L521,178L532,181L545,185L560,187L575,188L587,188L595,189L600,189L604,190L605,191L605,193L604,197L598,204L590,212L578,221L565,231L552,241L538,250L527,258L521,263L517,265L516,266L515,266L514,265L513,262L511,257L508,253L504,250L502,247L500,243L500,241L500,238L502,236L508,233L517,230L527,227L535,225L545,223L554,222L560,222L567,222L572,225L577,230L580,237L583,245L586,253L590,263L594,273L599,282L604,290L607,297L610,302L611,306L612,310L613,313L613,314L613,316L609,317L598,320L580,324L560,328L540,333L521,337L511,339L506,340L504,340L504,338L509,330L519,318L528,305L536,294L540,286L543,280L545,277L545,276L546,275L547,275L548,277L551,280L556,285L562,289L568,294L575,299L582,304L586,306L590,308L593,309L596,310L597,310L598,311L599,311L600,311L601,309L605,302L611,294L616,284L621,274L623,265L625,256L626,248L628,241L628,236L630,231L631,226L632,222L633,219L634,216L635,214L637,213L638,213L641,213L644,213L650,213L656,212L660,212L665,212L668,212L670,212L671,214L671,217L671,221L671,228L671,235L671,241L671,248L671,252L670,256L669,259L667,260L664,262L657,263L646,265L632,265L618,266L609,266L603,265L598,261L596,257L596,251L596,244L596,236L597,228L600,221L601,217L603,214L604,213L606,213L607,213L610,217L615,222L621,230L627,239L633,248L638,257L641,264L643,270L645,277L646,280L647,282L647,284L647,285L647,286L645,290" stroke-opacity="1" stroke-width="5" stroke-linecap="round" stroke-linejoin="round" style="-webkit-tap-highlight-color: rgba(0, 0, 0, 0); stroke-opacity: 1; stroke-linecap: round; stroke-linejoin: round; -webkit-user-select: text;"></path><path fill="none" stroke="#6c7e83" d="M224,240L219,236L217,236L215,231L212,225L210,216L207,207L205,201L203,198L202,196L199,196L193,197L182,200L171,203L161,204L152,205L145,205L140,206L135,207L132,207L132,208L132,209L132,210L132,213L133,217L136,223L139,230L142,236L144,241L147,246L151,251L154,253L160,253L168,253L177,251L186,246L193,243L197,241L200,239L201,238L202,237L202,236L202,234L198,229L195,223L191,216L187,209L183,201L180,194L178,187L177,181L175,177L174,174L171,172L169,171L166,170L161,170L156,170L150,170L143,170L137,170L132,170L127,170L124,170L122,170L120,170L119,170L118,173L118,179L118,186L117,195L115,204L113,212L110,220L107,225L105,229L103,230L103,231L105,231L110,229L118,227L127,225L136,223L142,221L149,220L154,218L158,217L161,216L161,215L161,214L161,213L160,211L157,209L153,208L150,207L148,207L145,207L142,209L137,215L131,222L121,232L110,242L98,251L86,259L77,264L71,266L68,267L67,268L69,270L71,273L74,279L77,287L80,296L82,305L84,311L85,315L87,319L88,320L91,320L97,320L106,316L116,313L122,309L127,307L130,305L132,302L133,300L134,297L134,293L134,289L134,285L133,282L131,281L127,281L120,281L110,284L100,291L91,299L86,304L84,309L84,311L84,314L84,315L88,316L94,318L98,321L101,325L103,331L104,336L105,341L106,346L108,350L110,352L115,354L121,354L130,354L141,354L149,350L158,346L164,342L169,338L172,335L174,332L174,329L174,327L172,325L166,322L159,320L148,316L136,313L121,308L104,303L88,297L75,290L68,281L62,272L59,263L57,257L56,252L55,248L55,247L54,254L52,263L50,272L48,285L47,294L47,304L47,311L47,316L47,321L47,323L48,323L52,321L63,316L76,312L89,308L101,305L108,304L113,304L114,304L115,304L114,305L112,305L111,305L119,299L143,291" stroke-opacity="1" stroke-width="5" stroke-linecap="round" stroke-linejoin="round" style="-webkit-tap-highlight-color: rgba(0, 0, 0, 0); stroke-opacity: 1; stroke-linecap: round; stroke-linejoin: round; -webkit-user-select: text;"></path><path fill="none" stroke="#6c7e83" d="M570,320L582,313L589,310L596,308L606,306L614,304L621,304L627,304L630,305L633,308L636,312L638,317L641,323L644,329L647,333L651,338L653,341L654,343L654,346L651,350L640,354L624,358L608,362L592,363L577,365L566,365L557,365L552,364L549,361L549,357L550,350L557,341L566,330L574,322L580,317L584,313L588,310L591,308L593,308L596,308L600,309L606,311L613,316L621,322L628,329L636,336L643,343L647,348L648,352L648,355L647,358L637,362L619,368L599,373L579,377L560,381L547,383L536,384L527,384L521,383L517,378L514,370L511,360L509,352L506,343L504,337L501,331L499,327L499,324L499,321L499,319L501,317L507,316L515,315L521,315L528,315L535,318L540,324L546,331L551,339L555,345L559,352L562,360L563,366L563,372L563,378L563,384L561,390L554,397L543,404L530,412L516,417L506,419L497,420L492,420L487,420L484,418L482,414L480,411L479,407L479,404L479,401L479,398L481,394L487,391L496,387L506,382L515,378L523,375L529,373L536,371L541,370L546,368L551,368L555,368L560,368L564,370L569,375L573,379L578,385L584,391L589,396L593,399L598,403L601,404L603,406L604,407L604,408L603,408L602,408L602,405L607,395L621,379L635,364L643,352L648,342L650,334L651,328L651,323L651,318L648,314L645,309L642,305L637,302L630,300L620,299L606,299L592,299L578,299L568,299L562,299L558,297L556,292L556,283L559,272L565,260L572,246L581,233L590,219L600,206L610,195L618,188L626,184L631,181L635,180L638,180L640,180L642,185L644,192L647,203L650,214L655,225L659,236L663,246L665,253L667,258L667,262L667,267L662,271L649,276L631,280L610,283L589,284L575,284L566,284L562,284L561,284L563,280L577,275L592,270L609,266L625,265L639,264L651,264L659,265L664,268L667,273L669,280L669,288L671,296L672,303L675,309L677,315L678,320L678,325L678,329L678,332L678,334L678,335L674,335L670,335L664,333L657,328L653,322L652,316L652,309L655,302L663,296L669,291L679,285L687,280L694,276L702,272L708,269L713,267L717,267L720,267L723,267L725,268L729,272L733,275L737,279L740,282L743,284L745,287L746,288L746,290L746,292L746,293L746,295L741,299L732,303L718,309L704,314L693,316L685,319L681,319L678,319L676,319L675,315L674,309L672,302L669,296L666,292L662,287L656,284L648,281L638,280L627,280L620,280L616,279L614,279L614,277L621,274L635,268L650,259L665,250L678,241L689,233L696,226L703,222L707,219L709,218L711,218L712,218L712,219L713,224L714,231L717,240L721,250L724,258L727,266L729,273L730,279L730,284L730,290L727,295L717,301L700,307L679,311L658,315L639,317L626,319L619,321L616,321L617,321L628,316L643,311L655,309L666,309L676,309L684,309L691,314L696,320L699,325L700,329L700,333L699,338L693,343L681,347L664,351L647,353L632,355L621,355L615,355L612,355L611,355L613,355L617,357L621,360L627,364L635,369L640,374L649,381L656,388L662,394L668,399L672,403L676,406L679,409L681,410L682,410L682,411" stroke-opacity="1" stroke-width="5" stroke-linecap="round" stroke-linejoin="round" style="-webkit-tap-highlight-color: rgba(0, 0, 0, 0); stroke-opacity: 1; stroke-linecap: round; stroke-linejoin: round; -webkit-user-select: text;"></path><path fill="none" stroke="#6c7e83" d="M514,387L512,389L512,393L512,399L511,409L510,418L506,429L502,438L497,443L494,447L492,449L488,450L484,450L477,447L468,442L458,438L447,434L435,432L423,432L412,432L404,433L398,434L395,435L394,435L394,436L394,437L394,438L396,441L399,445L399,450L400,457L400,465L399,472L396,477L395,480L393,482L392,482L390,482L390,479L390,472L390,462L390,448L390,436L390,426L390,417L387,411L383,406L376,403L366,401L355,400L341,399L329,399L317,399L308,400L301,401L297,401L293,402L292,402L293,402L294,402L295,402L296,402L296,404L296,410" stroke-opacity="1" stroke-width="5" stroke-linecap="round" stroke-linejoin="round" style="-webkit-tap-highlight-color: rgba(0, 0, 0, 0); stroke-opacity: 1; stroke-linecap: round; stroke-linejoin: round; -webkit-user-select: text;"></path><path fill="none" stroke="#6c7e83" d="M384,213L387,206L389,198L395,186L403,173L409,158L415,144L420,133L424,122L427,117L430,115L432,115L434,115L438,117L443,122L451,129L457,137L461,144L464,149L465,155L465,161L461,168L450,175L436,181L421,186L409,190L400,192L392,192L388,192L384,190L384,182L384,169L388,154L393,140L396,129L399,119L401,112L402,106L402,103L402,101L400,100L392,100L378,100L364,100L351,100L340,99L333,97L328,95L324,94L323,94L322,94L322,99L325,106L328,114L331,126L332,137L332,150L332,163L326,177L320,185L315,192L312,196L311,198L310,199L311,197L314,194L319,190L327,186L337,181L351,175L363,171L375,168L384,167L394,167L402,167L407,168L410,168L412,169L413,170L414,170L414,168L412,163L409,155L406,144L402,135L400,128L399,122L399,118L399,115L402,114L406,113L411,113L418,113L424,113L429,115L435,120L439,127L441,136L441,146L441,158L440,170L438,180L438,187L438,196L438,203L438,210L441,215L444,219L447,223L448,226L449,229L449,232L449,235L443,238L431,241L417,242" stroke-opacity="1" stroke-width="5" stroke-linecap="round" stroke-linejoin="round" style="-webkit-tap-highlight-color: rgba(0, 0, 0, 0); stroke-opacity: 1; stroke-linecap: round; stroke-linejoin: round; -webkit-user-select: text;"></path><path fill="none" stroke="#6c7e83" d="M290,242L288,234L284,229L281,221L276,211L272,198L270,185L270,171L271,160L273,151L276,146L276,144L276,143L275,143L264,146L248,151L232,157L217,165L205,171L198,178L194,183L192,187L192,191L192,197L192,202L196,210L200,219L205,227L212,235L219,240L227,243L239,245L254,246L269,246L283,246L291,246L296,245L299,243L299,240L299,236L294,230L288,223L282,214L275,204L268,193L263,183L261,172L261,163L261,151L267,138L274,125L279,115L283,108L286,104L288,102L289,102L290,102L291,105L295,112L302,121L312,132L323,143L333,152L339,161L343,168L345,175L346,184L345,192L336,202L324,212L303,224L283,235L263,245L248,253L236,261L231,266L229,268L229,270L233,271L242,271L255,273L272,275L289,278L307,283L324,289L338,294L349,299L358,303L365,306L370,308L373,309L374,309L375,309L375,305L372,295L368,283L363,267L358,253L355,241L353,230L353,220L353,214L353,208L356,204L361,200L365,197L368,196L372,196L377,197L381,204L386,214L392,226L398,236L405,247L412,257L419,265L425,271L429,276L430,280L431,285L431,292L424,299L412,309L395,320L377,330L364,337L356,342L353,344L352,345L352,346L362,344L376,339L392,333L410,327L428,320L443,314L455,310L464,305L470,301L476,295L480,290L480,283L480,275L476,266L471,258L468,249L468,239L468,231L470,225L472,222L475,221L478,221L481,221L487,224L494,229L507,238L519,246L529,255L537,263L543,270L547,276L549,280L551,283L551,286L552,287L552,288" stroke-opacity="1" stroke-width="5" stroke-linecap="round" stroke-linejoin="round" style="-webkit-tap-highlight-color: rgba(0, 0, 0, 0); stroke-opacity: 1; stroke-linecap: round; stroke-linejoin: round; -webkit-user-select: text;"></path></svg>