<svg height="906" version="1.1" width="768" xmlns="http://www.w3.org/2000/svg" xmlns:xlink="http://www.w3.org/1999/xlink" style="overflow: hidden; position: relative; -webkit-user-select: text;"><desc style="-webkit-tap-highlight-color: rgba(0, 0, 0, 0); -webkit-user-select: text;">Created with Raphaël 2.2.0</desc><defs style="-webkit-tap-highlight-color: rgba(0, 0, 0, 0); -webkit-user-select: text;"></defs><path fill="none" stroke="#6c7e83" d="M129,95L136,97L140,97L144,97L150,97L157,96L164,95L171,95L178,95L186,95L194,95L201,95L209,95L217,95L225,94L232,94L241,94L249,93L258,93L268,93L277,93L288,92L299,91L312,90L322,90L334,89L346,88L357,88L370,87L383,86L396,85L409,84L421,83L434,82L446,81L458,81L469,81L481,80L492,80L503,80L514,80L524,80L533,80L543,80L552,80L561,79L570,79L578,79L587,78L594,78L602,78L610,77L617,77L625,76L632,76L640,76L647,76L652,76L658,75L664,75L669,75L674,75L679,74L684,74L689,73L693,73L696,72L700,72L703,72L706,72L709,72L712,72L713,71L715,71L716,71" stroke-opacity="1" stroke-width="3" stroke-linecap="round" stroke-linejoin="round" style="-webkit-tap-highlight-color: rgba(0, 0, 0, 0); stroke-opacity: 1; stroke-linecap: round; stroke-linejoin: round; -webkit-user-select: text;"></path><path fill="none" stroke="#6c7e83" d="M85,162L86,164L88,164L92,164L96,164L102,164L109,164L116,164L123,164L131,164L140,164L148,164L158,164L167,164L176,164L187,164L198,164L212,164L225,163L239,163L252,162L265,162L278,161L291,161L303,161L316,161L328,161L340,160L353,160L365,160L378,160L390,159L403,159L416,159L429,159L441,159L454,159L467,159L479,159L490,159L501,158L511,158L522,158L532,158L542,157L553,157L563,156L573,156L583,156L594,155L603,155L613,154L622,154L631,153L640,153L648,153L656,152L663,152L670,151L677,151L683,151L689,151L694,151L699,151L703,151L708,151L712,151L715,151L718,150L720,150L721,150L722,150" stroke-opacity="1" stroke-width="3" stroke-linecap="round" stroke-linejoin="round" style="-webkit-tap-highlight-color: rgba(0, 0, 0, 0); stroke-opacity: 1; stroke-linecap: round; stroke-linejoin: round; -webkit-user-select: text;"></path><path fill="none" stroke="#6c7e83" d="M73,226L76,227L78,227L81,227L86,227L91,227L97,227L104,227L113,227L122,227L132,227L142,227L151,227L162,227L173,227L186,227L199,227L213,227L227,227L242,227L257,227L272,227L286,227L300,227L314,227L327,226L340,226L352,226L364,226L377,225L387,225L401,225L411,224L423,224L434,224L446,223L457,223L468,223L480,223L494,223L506,223L516,223L528,223L539,223L550,223L562,223L572,223L583,222L593,222L603,221L612,221L621,221L631,221L640,220L648,220L655,219L663,219L670,219L677,218L684,218L691,218L698,218L704,218L710,218L716,218L721,218L726,218L730,218L733,218L735,218L737,218" stroke-opacity="1" stroke-width="3" stroke-linecap="round" stroke-linejoin="round" style="-webkit-tap-highlight-color: rgba(0, 0, 0, 0); stroke-opacity: 1; stroke-linecap: round; stroke-linejoin: round; -webkit-user-select: text;"></path><path fill="none" stroke="#6c7e83" d="M56,317L59,317L61,317L64,317L67,317L71,317L78,317L85,317L93,317L104,317L114,317L126,317L139,317L150,317L162,317L174,317L187,317L199,317L211,317L224,317L237,316L250,316L263,316L277,315L290,314L305,314L319,314L333,314L346,314L361,314L375,314L389,314L403,314L417,314L430,314L443,314L456,314L470,313L483,313L497,313L510,313L521,313L533,313L545,313L556,313L567,313L577,313L588,313L597,313L607,313L616,313L625,312L634,312L643,312L651,311L659,311L667,311L674,310L682,309L689,309L696,309L703,308L709,308L715,308L720,308L726,308L730,308L733,308L736,308L737,308" stroke-opacity="1" stroke-width="3" stroke-linecap="round" stroke-linejoin="round" style="-webkit-tap-highlight-color: rgba(0, 0, 0, 0); stroke-opacity: 1; stroke-linecap: round; stroke-linejoin: round; -webkit-user-select: text;"></path><path fill="none" stroke="#6c7e83" d="M51,409L53,410L56,410L61,410L67,410L74,410L82,410L91,410L102,410L115,410L128,410L141,410L152,410L164,410L175,410L187,410L198,410L208,410L218,410L228,410L237,410L247,409L258,409L268,409L279,409L290,409L300,409L311,409L322,409L334,409L345,409L356,409L368,409L379,409L390,409L402,409L414,409L426,409L437,409L448,409L458,408L468,408L478,408L486,408L496,408L504,407L512,407L522,407L531,406L540,406L549,406L558,405L566,405L576,405L585,405L593,405L603,405L611,405L618,405L626,405L634,405L641,405L648,405L655,405L662,405L669,405L677,405L684,405L690,405L695,405L701,405L707,405L712,405L716,405L720,405L724,405L727,405L730,405L732,405L733,405L733,407" stroke-opacity="1" stroke-width="3" stroke-linecap="round" stroke-linejoin="round" style="-webkit-tap-highlight-color: rgba(0, 0, 0, 0); stroke-opacity: 1; stroke-linecap: round; stroke-linejoin: round; -webkit-user-select: text;"></path><path fill="none" stroke="#6c7e83" d="M67,510L59,505L62,505L66,506L72,506L79,506L87,506L95,506L105,506L115,506L125,506L136,506L147,506L159,506L170,506L184,506L197,506L211,506L225,505L238,505L251,505L263,504L276,504L289,504L302,504L314,504L326,504L338,504L349,504L360,504L371,504L381,504L392,504L402,504L412,504L422,504L431,504L442,504L452,504L461,504L471,503L481,503L490,503L499,502L506,502L514,501L524,501L532,501L540,500L549,499L556,499L564,499L571,499L579,499L587,498L594,498L601,498L606,498L613,498L620,497L626,497L633,497L640,496L645,496L652,496L657,496L663,496L669,495L674,495L680,495L685,495L690,495L695,495L699,494L703,494L706,494L709,494L712,494L714,494L716,494L717,494" stroke-opacity="1" stroke-width="3" stroke-linecap="round" stroke-linejoin="round" style="-webkit-tap-highlight-color: rgba(0, 0, 0, 0); stroke-opacity: 1; stroke-linecap: round; stroke-linejoin: round; -webkit-user-select: text;"></path><path fill="none" stroke="#6c7e83" d="M59,586L61,586L63,586L67,586L71,586L78,586L85,586L95,586L106,586L120,586L133,586L146,586L159,586L169,587L183,587L193,588L203,588L214,588L225,588L235,588L246,588L257,588L269,588L280,588L294,589L304,589L318,589L330,589L342,589L353,589L367,589L378,589L391,589L402,589L414,589L425,589L436,589L448,589L459,589L471,589L482,589L492,589L503,589L514,589L524,589L535,589L545,589L555,589L565,589L574,589L583,589L591,589L599,589L607,589L614,589L621,589L628,589L635,589L642,589L647,589L653,589L659,588L663,588L668,588L672,588L676,588L680,588L684,588L687,588L691,587L694,587L697,587L699,587L702,587L704,587L706,587L707,587L708,587L709,587L710,587L710,588" stroke-opacity="1" stroke-width="3" stroke-linecap="round" stroke-linejoin="round" style="-webkit-tap-highlight-color: rgba(0, 0, 0, 0); stroke-opacity: 1; stroke-linecap: round; stroke-linejoin: round; -webkit-user-select: text;"></path><path fill="none" stroke="#6c7e83" d="M62,676L67,677L71,677L77,677L86,677L94,677L104,677L114,677L125,676L137,676L147,675L158,674L168,674L179,674L192,673L204,672L216,671L229,669L242,668L256,667L273,666L288,665L304,664L320,663L336,663L352,662L368,662L384,662L399,662L413,662L428,662L442,661L456,661L470,661L482,661L496,661L509,660L522,660L535,659L547,659L558,659L568,658L579,658L589,658L600,658L610,658L619,658L628,658L637,658L644,658L652,658L660,658L667,658L672,658L678,658L684,658L689,658L693,658L697,658L699,658L701,658L703,658L703,659" stroke-opacity="1" stroke-width="3" stroke-linecap="round" stroke-linejoin="round" style="-webkit-tap-highlight-color: rgba(0, 0, 0, 0); stroke-opacity: 1; stroke-linecap: round; stroke-linejoin: round; -webkit-user-select: text;"></path><path fill="none" stroke="#6c7e83" d="M59,765L62,764L66,764L71,764L78,764L87,764L94,764L105,764L115,764L125,764L136,764L147,764L159,764L170,764L181,764L193,764L204,764L217,764L227,764L241,765L251,765L266,765L280,766L295,766L310,767L324,767L338,768L351,769L364,771L378,771L391,772L405,772L419,773L433,773L446,774L460,774L473,775L486,775L499,776L511,776L523,776L534,776L545,776L556,776L567,777L577,777L586,777L596,777L604,777L612,777L621,777L629,777L637,777L645,777L653,777L661,778L668,778L675,778L682,778L689,778L694,778L699,778L703,778L706,778L708,778L710,778" stroke-opacity="1" stroke-width="3" stroke-linecap="round" stroke-linejoin="round" style="-webkit-tap-highlight-color: rgba(0, 0, 0, 0); stroke-opacity: 1; stroke-linecap: round; stroke-linejoin: round; -webkit-user-select: text;"></path><path fill="none" stroke="#6c7e83" d="M126,100L130,102L131,102L132,102L133,103L134,104L135,105L137,105L138,107L140,108L142,110L143,111L145,113L147,115L149,117L151,118L154,120L156,122L159,124L161,127L164,129L167,132L170,134L173,136L175,139L178,142L181,145L184,147L187,150L190,153L193,155L196,158L199,161L202,163L205,166L208,168L212,171L215,174L218,176L221,179L224,181L227,184L229,186L232,188L235,190L238,193L241,195L244,197L246,199L249,201L251,203L254,204L256,206L259,208L261,209L263,210L264,212L266,213L268,214L269,215L271,216L272,217L273,217L275,218L276,218L277,219L278,219L279,219L280,220L281,221L282,221L283,221" stroke-opacity="1" stroke-width="3" stroke-linecap="round" stroke-linejoin="round" style="-webkit-tap-highlight-color: rgba(0, 0, 0, 0); stroke-opacity: 1; stroke-linecap: round; stroke-linejoin: round; -webkit-user-select: text;"></path><path fill="none" stroke="#6c7e83" d="M373,171L365,170L363,170L361,170L359,170L356,170L352,170L347,170L341,170L335,170L329,170L322,171L316,172L310,173L305,175L300,177L295,178L290,180L285,183L281,185L278,187L273,190L269,192L266,194L261,197L258,199L254,202L251,204L249,207L246,210L244,213L242,216L240,219L239,221L237,224L236,226L234,229L233,231L232,234L231,237L230,239L229,242L228,245L228,247L227,250L227,252L227,255L226,258L226,260L226,263L226,265L226,268L226,270L226,272L226,274L226,276L226,277L226,280L226,281L226,283L226,285L226,286L226,287L226,289L226,290L226,291L226,292L226,294L226,295L226,297L226,298L226,299L226,300L226,301L226,302L226,303L226,304L226,305L226,306L227,307L227,308L227,309L228,309" stroke-opacity="1" stroke-width="3" stroke-linecap="round" stroke-linejoin="round" style="-webkit-tap-highlight-color: rgba(0, 0, 0, 0); stroke-opacity: 1; stroke-linecap: round; stroke-linejoin: round; -webkit-user-select: text;"></path><path fill="none" stroke="#6c7e83" d="M208,311L210,307L213,307L216,306L219,304L222,303L226,302L229,301L233,300L237,299L241,299L245,299L249,299L252,299L256,299L259,299L263,299L267,299L271,299L276,300L279,301L283,303L287,304L290,306L294,308L298,310L301,312L304,314L307,316L310,318L312,320L315,322L317,324L320,326L322,328L325,331L328,333L330,336L332,338L335,341L337,343L340,346L342,349L344,351L346,353L348,356L350,358L352,361L354,363L356,366L358,368L359,371L361,373L363,375L365,378L367,380L369,383L371,386L373,388L375,391L378,394L380,397L381,399L384,402L386,405L388,407L390,410L392,413L395,416L397,418L399,421L402,423L404,426L407,429L409,432L411,434L414,437L416,440L419,442L421,445L424,447L426,450L429,452L432,455L434,457L437,459L440,461L443,463L445,465L448,467L450,469L453,471L455,473L458,474L460,476L463,478L465,479L468,480L470,482L472,483L474,484L476,485L479,486L481,486L483,487L485,488L487,489L489,489L490,489L492,490L494,490L496,491L498,491L500,491L502,492L504,492L506,493L507,493L509,493L511,493L513,493L514,494L516,494L518,494L520,494L521,494L523,494L524,494L526,494L528,494L529,494L530,494L531,494L531,496" stroke-opacity="1" stroke-width="3" stroke-linecap="round" stroke-linejoin="round" style="-webkit-tap-highlight-color: rgba(0, 0, 0, 0); stroke-opacity: 1; stroke-linecap: round; stroke-linejoin: round; -webkit-user-select: text;"></path><path fill="none" stroke="#6c7e83" d="M548,503L548,500L548,498L548,495L548,493L548,490L548,487L548,484L548,481L548,478L548,475L548,472L548,468L548,465L547,461L547,457L546,453L546,449L545,445L545,440L545,436L544,431L544,426L543,421L543,414L542,409L542,404L542,398L541,392L541,385L541,380L540,375L540,368L539,363L539,358L539,352L538,346L538,341L538,336L538,330L537,325L537,320L537,315L537,311L537,306L537,301L537,297L536,292L536,288L536,285L536,280L536,277L536,274L536,271L536,268L536,265L536,263L536,261L536,259L536,257L536,255L536,253L536,251L536,249L536,247L536,245L536,243L536,242L536,241L536,239L536,238L536,237L536,236L536,235L536,234" stroke-opacity="1" stroke-width="3" stroke-linecap="round" stroke-linejoin="round" style="-webkit-tap-highlight-color: rgba(0, 0, 0, 0); stroke-opacity: 1; stroke-linecap: round; stroke-linejoin: round; -webkit-user-select: text;"></path><path fill="none" stroke="#6c7e83" d="M571,226L574,225L575,226L577,229L578,231L579,233L581,236L582,238L584,241L584,244L585,247L586,251L587,254L587,258L588,262L589,265L589,269L589,272L589,276L589,280L589,285L589,289L589,293L587,297L586,302L584,306L583,309L581,314L579,317L577,321L575,325L572,328L570,331L567,335L565,338L562,341L559,344L556,347L554,350L551,353L548,355L545,357L542,360L539,362L536,364L533,366L531,368L528,370L524,372L521,374L519,375L516,377L513,378L511,379L508,381L505,382L502,383L500,384L497,386L494,387L492,387L490,388L487,389L484,390L482,391L479,391L477,392L474,392L471,393L469,393L466,394L464,394L462,394L459,395L457,395L454,395L452,396L450,396L448,396L445,396L443,396L441,397L438,397L436,397L434,397L432,397L429,397L427,398L425,398L423,398L421,398L418,398L416,398L414,398L411,398L409,398L407,398L404,398L402,398L400,398L397,399L394,399L392,399L389,399L386,399L384,399L381,399L379,399L376,399L373,399L370,399L367,399L364,399L361,399L358,399L356,399L353,399L351,399L348,399L346,399L343,399L340,399L337,399L334,399L332,399L329,399L327,399L324,399L322,399L320,399L317,399L315,399L313,399L311,399L309,399L307,399L305,399L303,399L301,399L299,399L297,399L295,399L293,399L291,399L289,399L286,399L284,399L282,399L280,399L278,399L275,399L273,399L271,399L268,399L266,399L264,399L261,399L259,399L256,399L254,399L251,399L249,399L246,399L244,399L242,399L239,399L236,399L234,399L231,399L229,399L226,399L224,399L222,399L219,399L216,399L214,399L211,399L208,398L206,398L203,398L201,398L199,398L197,398L195,398L193,398L191,398L188,398L186,398L184,398L183,398L181,398L179,398L178,398L178,399" stroke-opacity="1" stroke-width="3" stroke-linecap="round" stroke-linejoin="round" style="-webkit-tap-highlight-color: rgba(0, 0, 0, 0); stroke-opacity: 1; stroke-linecap: round; stroke-linejoin: round; -webkit-user-select: text;"></path><path fill="none" stroke="#6c7e83" d="M144,403L147,401L150,401L154,401L159,401L165,401L171,400L177,399L183,398L190,398L196,398L203,398L210,398L217,398L223,398L229,398L236,399L242,401L248,403L253,405L258,407L263,410L268,412L272,415L276,418L281,421L285,424L290,427L294,431L299,435L303,439L307,443L311,447L314,451L318,456L321,460L324,464L327,469L330,472L333,477L336,481L339,484L342,489L346,493L350,497L353,501L357,505L361,508L365,512L369,515L373,518L378,521L382,525L386,527L390,530L394,532L398,534L402,537L407,539L411,541L414,543L419,545L422,547L426,548L430,550L434,551L438,552L442,553L446,554L449,555L453,556L458,557L462,558L466,559L470,559L475,559L479,560L483,560L488,561L493,561L497,561L502,561L506,561L511,561L515,561L519,561L523,559L527,558L531,557L535,555L538,554L541,552L545,550L548,547L551,545L554,543L557,541L560,538L562,536L565,533L568,530L570,528L573,525L575,522L577,519L579,516L581,513L583,511L584,508L586,505L588,503L589,500L590,497L592,494L593,492L594,490L595,487L596,484L598,482L599,479L600,476L601,473L601,470L602,468L603,465L604,462L604,460L604,457L605,453L605,450L606,448L606,445L606,442L606,439L606,436L606,433L606,431L606,428L606,425L606,422L606,419L606,416L606,413L606,410L606,407L606,404L606,401L605,398L605,395L604,392L604,390L604,387L603,385L602,382L602,379L601,377L601,375L600,372L599,370L599,367L599,365L598,363L597,361L596,359L596,357L596,355L595,353L594,351L594,350L593,348L593,346L592,345L592,343L591,342L590,341L589,339L589,338L589,337L588,336L587,334L587,333L586,332L586,331L585,330L585,328L584,328L584,327L584,326L584,325" stroke-opacity="1" stroke-width="3" stroke-linecap="round" stroke-linejoin="round" style="-webkit-tap-highlight-color: rgba(0, 0, 0, 0); stroke-opacity: 1; stroke-linecap: round; stroke-linejoin: round; -webkit-user-select: text;"></path><path fill="none" stroke="#6c7e83" d="M570,325L567,322L565,322L562,321L560,319L558,317L555,315L552,313L549,310L546,307L543,305L540,302L537,299L533,296L530,293L527,290L523,287L519,283L516,280L512,276L508,273L504,270L500,266L496,262L492,259L489,255L485,252L482,248L478,245L475,242L471,238L467,236L464,232L460,229L456,226L453,222L449,219L445,215L442,212L439,209L436,207L433,204L430,201L426,198L424,195L421,193L419,191L417,189L414,187L412,185L411,183L409,181L407,180L406,178L404,177L402,175L401,174L400,173L399,172L397,170L396,170L395,168L394,168L393,167L392,166L391,165L391,164L392,164" stroke-opacity="1" stroke-width="3" stroke-linecap="round" stroke-linejoin="round" style="-webkit-tap-highlight-color: rgba(0, 0, 0, 0); stroke-opacity: 1; stroke-linecap: round; stroke-linejoin: round; -webkit-user-select: text;"></path><path fill="none" stroke="#6c7e83" d="M357,165L352,159L352,157L352,156L352,154L353,151L353,149L355,146L357,143L358,140L361,138L364,135L366,132L370,130L373,128L376,125L380,123L383,121L388,118L392,116L395,115L399,114L403,113L407,112L412,111L417,111L421,111L425,111L430,111L434,111L438,111L443,111L447,111L451,111L455,112L459,114L463,115L467,116L471,118L474,119L478,121L482,122L485,124L487,126L490,128L493,129L495,132L498,133L500,135L502,137L504,139L506,140L508,142L510,144L511,146L513,147L515,149L516,151L518,152L519,154L521,156L522,158L524,160L525,162L526,164L528,166L529,168L530,170L531,172L532,174L533,176L534,178L536,181L536,183L537,185L538,187L539,190L540,192L541,194L542,196L543,199L543,201L544,203L545,205L546,208L547,210L547,212L548,214L548,216L549,218L550,219L550,221L550,222L551,224L551,225L552,226L552,227L553,228L553,229" stroke-opacity="1" stroke-width="3" stroke-linecap="round" stroke-linejoin="round" style="-webkit-tap-highlight-color: rgba(0, 0, 0, 0); stroke-opacity: 1; stroke-linecap: round; stroke-linejoin: round; -webkit-user-select: text;"></path><path fill="none" stroke="#6c7e83" d="M391,249L383,243L383,241L383,238L383,235L384,232L386,229L387,225L391,221L394,217L397,213L400,210L404,207L408,204L412,200L416,198L420,195L424,192L429,189L433,187L438,184L443,182L448,180L454,177L459,175L464,173L470,171L475,170L480,168L485,167L490,166L495,164L501,163L507,161L512,160L517,159L522,158L527,157L533,156L537,155L543,153L548,153L553,152L559,151L564,150L569,149L574,148L580,147L584,146L589,145L594,144L599,143L604,142L608,141L612,140L616,139L620,137L624,136L628,134L631,133L634,132L638,130L640,129L643,128L646,126L648,125L650,124L652,122L655,121L656,119L658,118L660,117L662,115L663,115L664,113L666,112L667,111L668,110L669,109L670,107L671,107L672,105L672,104L673,103L674,102L674,101L674,100L675,99L675,98L676,97L676,96L677,95L677,94L677,93L678,92L678,91L679,90L679,89" stroke-opacity="1" stroke-width="3" stroke-linecap="round" stroke-linejoin="round" style="-webkit-tap-highlight-color: rgba(0, 0, 0, 0); stroke-opacity: 1; stroke-linecap: round; stroke-linejoin: round; -webkit-user-select: text;"></path><path fill="none" stroke="#6c7e83" d="M582,77L584,80L585,83L586,86L587,89L588,93L589,96L591,100L593,105L594,109L596,114L599,118L601,123L603,127L605,132L606,137L609,142L611,148L613,153L615,158L616,164L618,169L620,174L622,179L624,184L626,189L628,194L630,199L631,203L633,208L635,213L637,218L639,222L640,227L643,231L644,235L645,239L647,243L649,247L650,251L652,255L653,258L655,262L656,266L658,269L659,273L660,276L662,279L663,282L664,285L665,288L666,291L667,293L668,295L669,297L669,299L670,300L671,302L671,303L672,304L672,306L673,307L673,308L674,309L674,310L675,310" stroke-opacity="1" stroke-width="3" stroke-linecap="round" stroke-linejoin="round" style="-webkit-tap-highlight-color: rgba(0, 0, 0, 0); stroke-opacity: 1; stroke-linecap: round; stroke-linejoin: round; -webkit-user-select: text;"></path><path fill="none" stroke="#6c7e83" d="M715,309L712,305L711,302L710,299L708,296L706,292L704,287L702,282L699,277L696,272L693,266L689,261L686,257L681,252L677,247L673,243L668,238L663,235L659,232L653,228L648,226L643,223L636,221L630,219L624,217L617,216L610,215L603,214L596,214L589,213L582,213L575,213L569,213L562,213L556,214L549,217L543,219L536,222L530,225L524,229L517,233L510,237L504,241L498,246L493,250L488,255L483,259L479,264L475,269L470,274L467,279L463,283L460,288L457,293L455,298L452,303L450,307L448,312L445,317L443,321L442,325L440,329L439,333L438,337L437,341L436,344L436,347L435,350L434,354L434,357L434,360L434,363L433,367L433,370L433,372L433,375L432,377L432,380L432,382L432,384L432,387L432,389L432,390L431,392L431,394L431,395L431,396L431,397L431,399L431,400L431,401L431,402L431,403L431,404L431,405" stroke-opacity="1" stroke-width="3" stroke-linecap="round" stroke-linejoin="round" style="-webkit-tap-highlight-color: rgba(0, 0, 0, 0); stroke-opacity: 1; stroke-linecap: round; stroke-linejoin: round; -webkit-user-select: text;"></path><path fill="none" stroke="#6c7e83" d="M484,266L490,274L490,277L490,281L490,285L490,290L490,294L490,298L490,302L490,307L490,311L490,315L490,319L490,322L490,326L490,330L490,334L490,338L490,342L490,346L490,350L490,355L490,360L490,364L490,368L490,372L489,377L487,381L485,386L482,390L481,393L478,398L476,401L473,405L470,409L467,413L464,416L461,420L458,423L454,427L450,431L446,434L442,438L438,441L434,444L430,447L426,449L423,451L419,454L415,456L412,457L409,460L406,461L403,463L400,465L397,467L394,469L392,472L389,474L387,476L385,479L383,481L382,484L380,486L378,489L377,491L375,494L374,496L373,499L372,501L371,504L371,507L370,510L369,513L369,516L368,518L368,521L368,524L368,527L368,529L368,532L368,535L368,538L368,541L369,545L370,548L371,551L373,554L374,557L376,560L378,563L380,565L381,568L383,570L384,572L386,574L387,576L390,577L392,579L393,581L395,583L397,584L399,586L401,587L403,588L404,589L405,590L407,591L408,592L409,592L409,593L410,593L411,594" stroke-opacity="1" stroke-width="3" stroke-linecap="round" stroke-linejoin="round" style="-webkit-tap-highlight-color: rgba(0, 0, 0, 0); stroke-opacity: 1; stroke-linecap: round; stroke-linejoin: round; -webkit-user-select: text;"></path><path fill="none" stroke="#6c7e83" d="M437,596L441,594L443,593L446,591L449,588L453,585L457,582L460,578L464,575L467,571L470,568L473,565L476,561L480,557L483,554L487,550L490,547L493,544L497,540L500,537L503,533L507,530L510,525L513,522L516,518L519,514L523,510L526,505L530,501L534,496L538,491L543,486L547,482L552,477L555,473L559,469L564,463L567,459L571,454L574,450L577,446L580,443L584,439L587,435L589,432L591,429L594,426L596,423L598,421L599,419L601,417L602,415L604,414L605,413L606,411L607,410" stroke-opacity="1" stroke-width="3" stroke-linecap="round" stroke-linejoin="round" style="-webkit-tap-highlight-color: rgba(0, 0, 0, 0); stroke-opacity: 1; stroke-linecap: round; stroke-linejoin: round; -webkit-user-select: text;"></path><path fill="none" stroke="#6c7e83" d="M624,413L628,413L630,413L633,415L635,416L638,418L640,421L642,423L644,426L647,428L649,432L650,436L652,440L654,443L655,448L656,452L657,456L657,460L658,465L658,469L659,473L659,478L659,482L659,486L659,491L659,495L658,499L656,503L655,507L653,511L652,514L650,518L647,522L646,525L644,528L641,533L639,536L636,540L633,543L631,546L627,550L625,552L622,555L619,558L616,560L613,562L609,564L605,567L601,568L598,569L594,571L590,572L585,573L581,573L577,574L572,574L569,575L565,575L561,575L558,575L554,575L551,575L548,575L545,574L542,573L540,572L537,571L535,571L532,569L530,568L527,567L524,566L521,564L519,563L516,562L514,560L511,558L509,557L507,555L504,553L502,551L500,549L498,546L496,544L494,541L492,539L490,536L489,534L487,531L485,529L484,527L482,524L481,522L479,519L477,516L476,513L475,511L473,508L471,505L470,502L468,499L467,496L465,494L464,491L462,488L461,485L459,482L458,479L455,476L453,472L452,469L450,465L448,462L446,458L444,455L443,451L441,448L439,444L438,441L436,438L435,435L434,432L433,430L431,427L431,425L430,423L429,422L428,420L428,419L427,417L426,416L426,415L426,414" stroke-opacity="1" stroke-width="3" stroke-linecap="round" stroke-linejoin="round" style="-webkit-tap-highlight-color: rgba(0, 0, 0, 0); stroke-opacity: 1; stroke-linecap: round; stroke-linejoin: round; -webkit-user-select: text;"></path><path fill="none" stroke="#6c7e83" d="M512,411L512,413L512,415L512,418L512,420L512,423L512,426L512,429L512,433L512,437L512,441L511,445L510,449L508,453L506,457L503,461L500,465L497,469L493,473L489,477L485,481L480,484L476,487L472,490L468,493L463,495L458,497L451,499L444,501L437,503L429,505L422,506L415,506L407,507L400,508L393,508L386,508L379,508L372,508L364,508L356,508L349,508L341,508L334,508L327,508L321,508L314,509L308,509L302,510L295,511L290,513L285,515L280,516L276,518L271,520L267,522L262,524L259,526L255,528L251,530L247,533L244,535L240,537L237,540L234,542L231,545L228,548L225,551L223,554L220,557L217,560L215,563L212,567L210,570L208,574L206,577L205,580L203,583L202,586L201,588L200,591L200,594L199,597L198,600L198,602L197,605L196,607L196,610L195,612L195,614L195,616L194,619L194,621L194,623L193,625L193,627L193,630L193,632L193,634L193,635L193,637L193,639L193,640L193,642L193,644L193,645L193,647L193,648L193,650L193,651L193,652L193,654L193,655L193,657L193,659L193,660L193,661L193,662L193,663L193,660" stroke-opacity="1" stroke-width="3" stroke-linecap="round" stroke-linejoin="round" style="-webkit-tap-highlight-color: rgba(0, 0, 0, 0); stroke-opacity: 1; stroke-linecap: round; stroke-linejoin: round; -webkit-user-select: text;"></path><path fill="none" stroke="#6c7e83" d="M120,518L121,522L121,523L122,525L123,527L124,528L125,529L126,530L127,531L127,532L128,533L129,534L130,535L131,536L132,537L133,540L134,542L136,544L138,547L140,550L142,554L144,557L147,561L150,565L153,569L155,572L158,576L161,580L164,584L167,588L169,592L172,596L175,599L177,602L179,606L182,609L184,612L187,615L189,618L192,622L195,625L197,628L199,631L202,634L204,637L206,640L208,642L210,645L212,647L214,650L216,652L218,654L220,656L221,658L223,661L225,663L226,666L228,668L229,671L231,674L233,676L235,679L237,682L239,685L241,688L242,691L245,693L247,696L249,700L251,703L254,706L256,709L258,712L260,715L262,719L265,722L267,725L269,727L271,730L273,733L275,735L277,738L279,740L280,742L282,744L284,746L286,748L288,750L289,752L291,754L293,756L294,758L295,759L297,761L298,762L298,763L299,764L300,764L301,765L302,766L300,759" stroke-opacity="1" stroke-width="3" stroke-linecap="round" stroke-linejoin="round" style="-webkit-tap-highlight-color: rgba(0, 0, 0, 0); stroke-opacity: 1; stroke-linecap: round; stroke-linejoin: round; -webkit-user-select: text;"></path><path fill="none" stroke="#6c7e83" d="M334,748L332,754L332,756L331,758L329,760L327,762L324,764L322,766L319,767L317,768L313,770L310,771L306,772L302,773L298,773L295,773L291,774L287,774L284,774L280,774L277,774L273,774L270,774L266,774L263,773L259,772L255,770L251,768L246,766L242,764L237,761L232,759L228,756L224,752L220,749L216,746L212,742L209,737L206,732L203,727L201,722L199,717L197,711L195,706L193,701L193,696L192,690L191,686L191,681L191,677L191,673L191,668L191,664L191,658L191,653L191,649L193,643L195,639L196,635L198,630L200,627L202,623L205,620L207,616L209,613L212,610L214,608L216,606L218,604L220,602L223,601L225,599L227,597L229,596L232,594L233,593L235,593L236,592L237,591L238,591L239,591L239,593" stroke-opacity="1" stroke-width="3" stroke-linecap="round" stroke-linejoin="round" style="-webkit-tap-highlight-color: rgba(0, 0, 0, 0); stroke-opacity: 1; stroke-linecap: round; stroke-linejoin: round; -webkit-user-select: text;"></path><path fill="none" stroke="#6c7e83" d="M168,743L161,735L159,733L157,731L154,729L153,726L151,722L149,717L147,712L145,707L144,702L144,697L144,691L144,685L144,678L144,672L144,666L146,661L148,655L150,650L152,645L155,640L158,633L162,628L165,624L168,619L171,615L174,611L178,607L182,602L186,598L190,594L195,589L198,584L203,579L205,574L209,569L212,564L215,560L217,555L220,550L222,545L224,540L226,535L228,530L230,525L232,520L233,516L234,511L236,506L237,501L238,497L238,492L239,488L239,483L239,479L239,474L239,470L239,466L239,462L239,458L239,454L238,451L237,447L236,444L234,440L233,436L232,433L230,429L228,426L227,423L225,419L223,416L221,413L219,410L217,407L214,404L212,401L210,398L208,394L205,392L203,389L200,387L198,384L195,382L192,379L190,378L187,375L184,373L182,372L179,370L177,368L174,366L172,364L169,362L167,361L164,359L162,358L160,355L158,354L156,352L154,350L152,349L151,347L149,345L148,344L147,343L145,341L144,340L143,338L142,337L141,336L139,334L139,333L138,331L137,331L137,330L136,329L136,328" stroke-opacity="1" stroke-width="3" stroke-linecap="round" stroke-linejoin="round" style="-webkit-tap-highlight-color: rgba(0, 0, 0, 0); stroke-opacity: 1; stroke-linecap: round; stroke-linejoin: round; -webkit-user-select: text;"></path><path fill="none" stroke="#6c7e83" d="M93,317L95,319L95,321L95,324L96,326L97,329L98,332L100,335L101,337L103,340L104,343L106,346L108,349L109,352L111,355L113,358L116,361L118,365L120,367L123,371L126,375L129,379L132,383L135,388L137,392L140,396L143,400L146,404L149,409L151,413L154,418L157,422L159,426L161,431L164,434L166,438L168,442L170,446L172,449L174,452L176,456L177,459L179,462L181,465L183,469L184,471L186,474L187,477L189,479L190,481L191,483L193,485L194,488L195,489L196,491L197,494L198,495L199,497L200,499L201,500L202,502L203,503L204,505L205,506L205,507L206,508L207,509L208,510" stroke-opacity="1" stroke-width="3" stroke-linecap="round" stroke-linejoin="round" style="-webkit-tap-highlight-color: rgba(0, 0, 0, 0); stroke-opacity: 1; stroke-linecap: round; stroke-linejoin: round; -webkit-user-select: text;"></path><path fill="none" stroke="#6c7e83" d="M143,508L139,505L139,502L139,499L139,496L139,492L139,487L139,482L139,477L139,472L139,467L139,461L139,455L142,450L144,444L146,439L148,435L151,430L154,426L158,421L161,417L166,413L170,409L174,406L179,403L183,401L188,398L193,396L199,394L205,392L211,391L217,390L223,389L229,389L236,389L243,389L249,389L256,389L262,389L268,389L273,391L278,393L283,395L288,397L293,399L298,402L302,404L306,407L310,410L314,413L317,416L320,419L323,422L325,425L328,428L330,431L332,434L334,437L336,440L338,443L340,446L342,449L344,452L345,455L346,457L348,460L349,462L350,465L351,468L353,470L353,473L355,475L356,477L356,479L357,482L358,484L358,486L359,488L360,489L361,491L362,493L362,495L363,497L363,498L364,500L364,501L365,502L366,503L365,503" stroke-opacity="1" stroke-width="3" stroke-linecap="round" stroke-linejoin="round" style="-webkit-tap-highlight-color: rgba(0, 0, 0, 0); stroke-opacity: 1; stroke-linecap: round; stroke-linejoin: round; -webkit-user-select: text;"></path><path fill="none" stroke="#6c7e83" d="M273,475L276,478L276,481L278,484L279,487L281,491L283,494L285,498L287,501L289,504L291,507L293,510L296,513L298,516L301,519L303,522L306,524L309,527L312,529L315,531L318,533L322,535L326,537L330,540L334,541L338,544L343,546L347,548L352,550L357,552L361,554L366,557L371,559L376,561L379,563L384,566L387,569L391,571L394,573L397,576L400,579L402,581L405,584L407,586L409,588L411,591L413,593L414,596L416,598L418,600L419,602L421,604L422,607L424,609L424,611L426,614L426,617L427,620L428,623L429,626L429,630L429,633L430,636L430,640L430,644L430,647L430,651L430,654L430,657L430,661L430,664L430,667L430,669L430,672L430,675L429,678L429,680L428,683L427,685L426,688L425,691L424,693L423,695L422,698L421,701L419,703L418,706L416,709L414,712L413,714L411,717L409,720L408,722L406,725L404,728L402,730L400,733L398,735L396,737L394,740L392,742L390,744L387,747L385,749L383,751L380,753L378,755L377,757L375,759L373,760L371,761L370,763L368,764L366,766L365,767L363,768L362,768L361,769L360,770L359,771L358,771L358,770" stroke-opacity="1" stroke-width="3" stroke-linecap="round" stroke-linejoin="round" style="-webkit-tap-highlight-color: rgba(0, 0, 0, 0); stroke-opacity: 1; stroke-linecap: round; stroke-linejoin: round; -webkit-user-select: text;"></path><path fill="none" stroke="#6c7e83" d="M304,671L308,673L310,674L314,676L318,679L323,683L327,686L332,689L338,693L344,697L349,700L353,704L358,708L362,711L366,714L370,717L375,720L379,722L383,725L387,728L392,731L396,734L400,736L404,739L407,741L412,744L415,746L419,749L422,751L425,753L429,755L431,757L434,759L437,760L439,762L442,764L444,765L446,767L448,768L450,770L452,771L454,772L455,773L457,774L458,774L459,775L460,776L461,776" stroke-opacity="1" stroke-width="3" stroke-linecap="round" stroke-linejoin="round" style="-webkit-tap-highlight-color: rgba(0, 0, 0, 0); stroke-opacity: 1; stroke-linecap: round; stroke-linejoin: round; -webkit-user-select: text;"></path><path fill="none" stroke="#6c7e83" d="M578,676L572,671L568,670L563,669L558,667L551,667L544,666L536,666L529,666L522,666L514,666L507,667L501,669L494,672L488,674L482,677L477,679L471,682L466,684L463,686L459,688L455,691L452,694L448,696L445,700L442,702L439,705L437,708L434,711L431,714L429,717L427,720L425,723L424,726L422,728L420,731L419,734L417,737L416,739L415,742L414,744L413,746L412,747L412,749L411,751L411,753L410,754L409,756L409,757L408,758L408,759L407,761L407,762L407,763L407,764L406,765L406,766L406,767L407,767" stroke-opacity="1" stroke-width="3" stroke-linecap="round" stroke-linejoin="round" style="-webkit-tap-highlight-color: rgba(0, 0, 0, 0); stroke-opacity: 1; stroke-linecap: round; stroke-linejoin: round; -webkit-user-select: text;"></path><path fill="none" stroke="#6c7e83" d="M481,771L480,769L482,767L485,764L488,760L491,757L494,754L497,752L501,749L505,748L509,746L512,745L516,744L519,744L524,743L529,742L534,740L538,739L542,738L547,736L551,734L555,733L559,731L563,729L567,727L570,725L574,723L577,720L580,717L584,714L586,712L589,708L592,705L594,702L596,698L598,694L599,690L600,686L601,682L602,677L602,673L602,669L602,665L602,661L601,657L599,653L597,649L595,647L592,643L590,640L587,637L584,634L581,631L577,628L573,625L569,623L564,620L560,618L555,615L551,613L546,611L542,610L537,608L532,606L528,605L523,604L518,604L512,603L507,602L501,601L495,600L490,599L484,597L478,596L472,595L466,593L461,591L455,589L450,587L444,585L439,583L434,580L429,578L425,575L421,572L417,569L413,566L410,563L407,560L404,557L402,553L400,550L397,547L396,543L395,540L393,537L392,534L391,530L390,528L389,525L389,523L388,520L387,518L387,517L387,515L387,513L387,512L386,511L386,510L386,509L386,508" stroke-opacity="1" stroke-width="3" stroke-linecap="round" stroke-linejoin="round" style="-webkit-tap-highlight-color: rgba(0, 0, 0, 0); stroke-opacity: 1; stroke-linecap: round; stroke-linejoin: round; -webkit-user-select: text;"></path><path fill="none" stroke="#6c7e83" d="M380,485L377,480L377,479L377,477L377,475L377,472L377,470L377,467L377,465L376,462L376,458L375,455L375,451L375,447L374,443L374,438L373,433L373,428L373,423L372,419L371,414L371,409L370,404L370,399L369,395L369,390L368,385L368,380L367,375L366,370L366,366L365,361L365,356L364,352L363,347L363,342L363,337L362,332L362,327L361,323L361,318L361,314L360,310L360,307L359,302L359,299L359,296L358,292L358,290L358,286L358,283L358,280L358,278L357,275L357,273L357,270L357,268L357,266L356,263L356,261L356,259L356,257L356,255L356,253L356,251L356,249L356,247L356,245L356,243L356,242L356,240L356,239L356,237L356,236L356,235L355,234" stroke-opacity="1" stroke-width="3" stroke-linecap="round" stroke-linejoin="round" style="-webkit-tap-highlight-color: rgba(0, 0, 0, 0); stroke-opacity: 1; stroke-linecap: round; stroke-linejoin: round; -webkit-user-select: text;"></path><path fill="none" stroke="#6c7e83" d="M429,222L426,225L426,228L426,231L426,234L425,238L424,242L424,246L423,250L421,254L419,258L418,263L416,266L414,270L412,274L409,279L406,282L404,286L401,290L398,294L394,297L390,300L386,304L383,307L379,310L375,313L372,315L368,319L363,321L360,323L356,325L352,327L348,329L344,331L340,332L336,334L331,335L327,337L323,338L318,339L313,340L309,341L305,341L300,342L295,342L291,342L286,342L283,342L278,342L275,342L271,342L267,342L263,342L260,342L256,342L253,342L249,341L245,341L242,339L239,339L235,338L232,337L229,336L226,336L224,335L221,334L219,333L216,332L214,332L212,331L210,331L209,330L208,329L206,328L205,328L203,327L201,326L200,326" stroke-opacity="1" stroke-width="3" stroke-linecap="round" stroke-linejoin="round" style="-webkit-tap-highlight-color: rgba(0, 0, 0, 0); stroke-opacity: 1; stroke-linecap: round; stroke-linejoin: round; -webkit-user-select: text;"></path><path fill="none" stroke="#6c7e83" d="M118,332L114,326L114,324L114,323L114,322L114,321L116,319L118,318L120,316L123,315L127,314L131,313L135,311L139,310L144,309L148,309L152,308L157,307L161,307L166,306L170,306L174,306L177,306L181,306L185,306L188,306L192,306L196,306L200,306L204,306L208,306L212,305L215,305L220,304L223,304L227,303L231,302L234,302L239,300L243,299L246,297L250,296L254,294L257,293L261,291L265,289L268,287L272,285L275,283L278,280L281,278L283,276L286,274L289,271L291,269L294,266L296,263L298,261L300,258L301,256L303,253L305,250L306,247L307,244L309,241L311,238L312,235L313,232L314,229L315,226L317,222L317,219L318,216L318,213L319,210L319,207L319,205L319,202L319,200L319,198L319,196L318,194L317,192L316,190L315,187L314,185L313,183L312,181L311,179L310,177L309,175L308,173L307,170L307,168L306,165L305,163L304,161L304,158L303,156L302,154L302,152L301,150L301,148L300,146L300,144L300,142L299,140L299,139L299,137L299,135L299,134L299,132L299,131L299,129L299,128L299,126L299,124L299,123L299,121L299,119L299,118L299,117L299,115L299,114L300,112L300,111L300,110L301,108L302,107L302,106L303,105L304,104L305,103L305,102L307,101L307,100L308,100L309,98L310,98L311,97L311,96L312,96L313,96L318,96" stroke-opacity="1" stroke-width="3" stroke-linecap="round" stroke-linejoin="round" style="-webkit-tap-highlight-color: rgba(0, 0, 0, 0); stroke-opacity: 1; stroke-linecap: round; stroke-linejoin: round; -webkit-user-select: text;"></path><path fill="none" stroke="#6c7e83" d="M374,86L370,88L368,88L365,90L361,92L356,94L349,97L343,100L338,102L331,106L325,109L318,113L311,117L304,121L297,126L288,131L282,135L274,139L267,144L260,147L253,151L246,155L239,158L232,162L227,165L221,168L215,170L210,173L205,176L198,179L193,182L188,184L183,187L178,189L174,190L169,193L165,195L161,197L156,199L152,201L148,203L144,205L141,207L137,209L134,210L131,212L128,214L125,216L123,217L121,218L119,219L117,221L115,222L113,223L112,224L110,225L108,226L107,226L106,227L105,228L102,228" stroke-opacity="1" stroke-width="3" stroke-linecap="round" stroke-linejoin="round" style="-webkit-tap-highlight-color: rgba(0, 0, 0, 0); stroke-opacity: 1; stroke-linecap: round; stroke-linejoin: round; -webkit-user-select: text;"></path><path fill="none" stroke="#6c7e83" d="M88,183L99,175L103,173L107,172L113,170L118,168L124,167L130,166L137,165L143,165L149,164L157,164L163,164L169,164L174,164L181,164L186,165L191,166L195,168L199,170L203,172L207,174L210,177L213,180L216,183L219,186L222,190L224,193L226,197L228,200L230,204L232,208L234,212L236,216L238,220L240,224L241,227L243,231L244,235L246,239L246,243L247,246L248,249L249,253L249,256L249,260L250,263L250,265L250,268L250,271L250,274L250,276L250,279L250,282L250,285L250,287L250,290L250,292L250,294L250,297L250,299L250,302L249,304L249,307L248,310L247,313L246,316L245,319L244,322L242,324L241,327L240,330L239,333L237,336L235,339L234,342L232,345L230,348L229,351L227,354L225,357L223,360L222,363L220,365L218,368L217,370L215,372L213,375L211,377L208,379L206,381L204,384L202,386L199,388L197,391L194,393L191,395L188,397L186,399L183,401L180,403L177,405L174,407L171,409L169,411L166,413L163,415L160,416L157,418L155,419L153,420L151,421L149,422L148,422L147,423" stroke-opacity="1" stroke-width="3" stroke-linecap="round" stroke-linejoin="round" style="-webkit-tap-highlight-color: rgba(0, 0, 0, 0); stroke-opacity: 1; stroke-linecap: round; stroke-linejoin: round; -webkit-user-select: text;"></path><path fill="none" stroke="#6c7e83" d="M115,412L120,410L123,410L127,410L131,410L135,410L139,410L144,410L148,411L154,411L159,413L165,415L170,417L175,419L180,422L185,425L189,428L193,431L197,434L200,438L203,441L206,445L209,449L212,452L214,456L217,461L219,465L222,469L223,473L225,477L227,482L229,486L230,489L231,493L232,497L234,501L234,505L235,508L236,512L237,516L238,519L239,523L240,527L241,530L242,535L243,538L244,542L245,546L246,550L247,554L248,557L249,561L250,564L251,568L252,571L254,574L255,578L257,581L259,585L260,588L262,591L264,595L266,598L268,601L270,604L272,607L275,610L277,613L280,616L282,619L285,622L288,624L291,627L294,630L297,632L300,634L303,636L306,638L308,640L311,641L314,642L317,643L319,644L322,645L324,647L327,647L329,647L331,648L333,649L336,649L338,649L340,650L343,650L345,650L347,650L350,650L352,650L354,650L356,650L358,650L361,650L363,650L365,650L367,650L368,650L370,650L372,650L373,650L375,650L377,650L378,650L379,650L380,650L381,650L380,650L378,650" stroke-opacity="1" stroke-width="3" stroke-linecap="round" stroke-linejoin="round" style="-webkit-tap-highlight-color: rgba(0, 0, 0, 0); stroke-opacity: 1; stroke-linecap: round; stroke-linejoin: round; -webkit-user-select: text;"></path><path fill="none" stroke="#6c7e83" d="M390,654L396,651L398,650L402,649L405,647L409,645L414,643L420,640L426,638L432,636L438,634L444,632L449,630L455,628L460,626L466,624L471,622L476,620L480,618L484,616L488,614L493,613L497,610L501,609L505,607L509,605L513,603L516,601L520,600L524,598L527,596L530,595L533,593L536,592L539,591L541,589L544,588L547,586L550,585L553,584L556,582L559,580L562,579L565,576L568,574L571,572L575,570L578,568L582,566L585,563L589,560L592,558L596,555L600,552L604,549L608,546L612,543L616,540L618,537L623,534L627,531L631,528L634,526L638,523L642,520L645,518L648,516L651,513L653,511L655,509L657,508L659,506L660,506L661,505L662,505L662,504L661,504" stroke-opacity="1" stroke-width="3" stroke-linecap="round" stroke-linejoin="round" style="-webkit-tap-highlight-color: rgba(0, 0, 0, 0); stroke-opacity: 1; stroke-linecap: round; stroke-linejoin: round; -webkit-user-select: text;"></path><path fill="none" stroke="#6c7e83" d="M625,494L629,495L632,495L635,497L639,499L642,501L647,504L650,507L653,509L657,512L660,515L663,519L666,522L668,525L671,528L673,532L675,535L677,539L679,542L682,546L684,550L685,553L686,557L688,560L689,564L690,568L691,571L692,574L693,578L693,581L694,584L694,587L694,590L694,593L694,596L694,598L694,601L694,603L694,606L694,608L694,611L694,614L694,617L694,620L694,622L693,625L692,628L691,631L690,633L689,636L688,639L687,642L686,645L684,648L683,651L682,654L681,657L679,659L677,662L676,665L674,668L673,670L672,673L670,676L668,678L667,681L665,683L663,686L661,689L659,691L657,694L655,696L654,698L652,700L650,703L648,705L646,708L644,710L641,713L639,716L636,719L634,722L631,724L628,727L626,729L623,732L621,734L619,736L617,738L615,740L613,742L611,744L609,745L606,747L605,749L603,750L601,751L599,753L597,754L596,756L594,757L592,759L591,760L589,761L588,762L586,764L585,765L583,766L582,767L581,768L579,769L578,770L577,771L576,772L575,773L574,773L573,774L573,773L575,773" stroke-opacity="1" stroke-width="3" stroke-linecap="round" stroke-linejoin="round" style="-webkit-tap-highlight-color: rgba(0, 0, 0, 0); stroke-opacity: 1; stroke-linecap: round; stroke-linejoin: round; -webkit-user-select: text;"></path><path fill="none" stroke="#6c7e83" d="M668,768L666,766L666,764L665,761L664,759L664,757L663,754L662,751L662,748L660,744L658,740L657,737L655,732L653,729L650,725L647,721L644,717L640,712L634,708L628,703L622,699L618,696L612,693L606,691L601,690L595,689L588,688L582,688L575,687L568,687L562,687L554,687L545,687L538,687L529,687L520,688L512,690L504,692L496,694L489,696L482,698L476,701L470,703L465,706L460,709L455,711L451,714L446,717L441,720L437,722L432,725L428,728L424,731L420,734L416,737L413,739L409,742L406,745L403,748L399,751L396,753L392,756L389,758L386,761L383,763L380,766L376,768L373,770L370,772L367,774L363,776L360,778L356,781L352,783L349,785L344,787L340,790L336,791L332,793L328,795L324,797L319,798L315,800L311,801L307,802L303,803L299,804L295,805L292,805L288,806L285,807L282,807L278,807L275,808L272,808L268,809L264,809L260,809L256,809L253,809L249,809L244,809L240,809L236,809L232,809L227,809L223,809L219,809L214,808L209,807L204,806L199,805L194,804L188,803L183,802L179,800L175,799L171,798L167,796L164,795L160,793L157,792L153,791L150,789L147,788L144,786L142,785L139,784L137,783L135,782L132,781L131,780L129,779L127,778L126,777L125,777L123,776L122,775L121,774L120,773L119,773L119,772L118,770" stroke-opacity="1" stroke-width="3" stroke-linecap="round" stroke-linejoin="round" style="-webkit-tap-highlight-color: rgba(0, 0, 0, 0); stroke-opacity: 1; stroke-linecap: round; stroke-linejoin: round; -webkit-user-select: text;"></path><path fill="none" stroke="#6c7e83" d="M78,771L73,766L73,764L73,761L73,757L73,753L74,747L76,742L79,735L83,728L87,721L91,714L95,708L98,702L101,697L105,691L108,686L111,681L114,675L118,669L121,664L124,659L127,654L129,650L132,645L134,642L137,637L139,634L141,630L143,627L145,623L147,620L149,616L151,613L153,610L154,607L157,604L159,601L160,598L162,596L164,593L165,591L167,588L169,586L171,584L172,582L173,581L174,579L176,577L176,576L177,576L178,575L178,574L178,575" stroke-opacity="1" stroke-width="3" stroke-linecap="round" stroke-linejoin="round" style="-webkit-tap-highlight-color: rgba(0, 0, 0, 0); stroke-opacity: 1; stroke-linecap: round; stroke-linejoin: round; -webkit-user-select: text;"></path><path fill="none" stroke="#6c7e83" d="M185,595L190,593L192,593L194,593L197,592L199,591L202,589L205,587L208,585L211,583L214,581L217,578L220,575L224,571L226,567L228,564L231,559L232,555L234,551L236,547L237,542L238,538L239,533L239,528L239,524L239,519L239,515L239,511L239,506L239,501L239,496L238,492L237,488L236,483L234,479L232,475L231,471L229,467L226,464L224,460L221,457L217,453L215,451L212,448L208,445L205,443L202,441L198,439L194,437L191,435L186,434L182,432L178,431L174,429L171,427L166,426L163,424L159,423L155,423L152,422L148,421L144,420L141,419L137,419L134,419L130,419L127,419L124,419L121,419L118,419L115,419L112,419L109,419L107,419L105,419L103,419L102,419L101,419L101,418L101,417L98,415" stroke-opacity="1" stroke-width="3" stroke-linecap="round" stroke-linejoin="round" style="-webkit-tap-highlight-color: rgba(0, 0, 0, 0); stroke-opacity: 1; stroke-linecap: round; stroke-linejoin: round; -webkit-user-select: text;"></path><path fill="none" stroke="#6c7e83" d="M80,409L71,405L71,402L71,399L70,394L70,390L69,385L69,380L69,375L69,370L69,365L69,358L70,353L71,347L74,341L76,336L80,329L82,324L86,319L89,315L93,311L98,307L102,303L107,300L112,297L117,295L122,292L127,290L132,288L137,287L141,285L146,284L151,283L157,282L161,281L166,280L171,279L175,279L179,278L184,277L188,277L193,276L198,276L202,276L207,276L212,276L217,275L222,275L227,275L232,275L237,275L242,275L246,275L251,275L256,275L261,275L266,275L271,275L276,275L281,275L286,275L292,275L298,275L302,274L308,273L313,271L319,270L324,268L328,267L332,265L336,263L340,260L343,258L346,256L349,254L352,251L354,249L356,247L358,245L360,242L361,240L363,238L364,236L366,234L367,232L368,230L368,228L369,226L370,223L370,221L370,218L371,216L371,214L371,211L371,209L371,207L371,205L371,203L371,201L371,199L371,197L371,195L371,193L371,191L371,190L371,188L371,186L371,185L370,183L370,182L370,180L370,179L369,178L369,177L369,175L368,174L368,173L368,172L367,172L366,172" stroke-opacity="1" stroke-width="3" stroke-linecap="round" stroke-linejoin="round" style="-webkit-tap-highlight-color: rgba(0, 0, 0, 0); stroke-opacity: 1; stroke-linecap: round; stroke-linejoin: round; -webkit-user-select: text;"></path><path fill="none" stroke="#6c7e83" d="M366,172L372,168L374,167L377,165L380,163L383,162L388,159L392,157L397,155L401,153L406,151L411,148L415,146L420,143L425,141L431,139L436,136L441,134L446,132L451,129L457,127L462,125L466,123L471,121L475,118L480,116L485,114L489,111L493,109L497,107L500,105L504,102L508,100L511,98L514,96L517,94L519,93L522,91L525,89L527,88L529,87L531,86L532,85L533,85L535,84L536,84L537,83" stroke-opacity="1" stroke-width="3" stroke-linecap="round" stroke-linejoin="round" style="-webkit-tap-highlight-color: rgba(0, 0, 0, 0); stroke-opacity: 1; stroke-linecap: round; stroke-linejoin: round; -webkit-user-select: text;"></path><path fill="none" stroke="#6c7e83" d="M461,89L466,84L471,83L476,82L482,82L488,81L495,81L502,81L509,81L516,81L523,81L530,81L536,81L543,83L551,85L558,87L565,89L572,92L579,95L585,97L591,100L596,103L602,106L607,109L611,112L616,115L620,118L623,122L627,125L630,128L633,132L636,135L638,138L641,141L643,145L645,148L647,151L649,154L651,158L653,161L655,164L656,167L657,170L659,173L660,176L662,179L663,182L664,185L665,188L666,191L667,193L667,196L668,199L669,202L669,204L670,207L670,209L671,211L671,213L672,215L672,217L672,219L673,220L673,221L673,222L673,223L674,223L674,224" stroke-opacity="1" stroke-width="3" stroke-linecap="round" stroke-linejoin="round" style="-webkit-tap-highlight-color: rgba(0, 0, 0, 0); stroke-opacity: 1; stroke-linecap: round; stroke-linejoin: round; -webkit-user-select: text;"></path><path fill="none" stroke="#6c7e83" d="M708,231L706,226L703,225L701,224L698,223L694,222L690,221L686,221L681,221L674,221L668,221L661,222L655,224L648,228L642,231L637,234L632,238L628,241L624,245L621,248L618,253L616,256L614,260L612,264L611,268L610,272L609,277L608,281L607,286L606,292L606,297L606,302L606,307L606,312L606,317L606,321L606,326L606,330L606,334L606,338L607,342L609,346L610,350L611,353L613,357L614,360L616,363L617,366L619,369L621,372L623,374L625,377L626,379L628,381L630,383L632,385L634,387L637,388L639,390L641,391L643,392L645,394L647,395L649,396L651,397L653,399L655,400L657,401L659,402L660,403L662,404L663,404L664,405L664,407" stroke-opacity="1" stroke-width="3" stroke-linecap="round" stroke-linejoin="round" style="-webkit-tap-highlight-color: rgba(0, 0, 0, 0); stroke-opacity: 1; stroke-linecap: round; stroke-linejoin: round; -webkit-user-select: text;"></path><path fill="none" stroke="#6c7e83" d="M657,290L657,294L657,297L658,301L660,306L663,310L666,314L669,318L673,322L677,326L681,329L686,333L690,337L694,341L698,344L702,348L706,352L709,356L712,360L715,364L717,369L718,372L720,377L721,382L723,387L724,392L725,396L725,401L725,407L726,413L726,418L726,423L726,429L726,435L725,440L724,445L722,451L720,456L717,461L714,466L711,471L708,476L704,480L700,485L696,489L692,493L688,497L682,501L678,504L673,507L669,511L664,514L660,517L656,520L652,524L648,527L645,530L642,533L638,536L635,540L633,543L629,547L626,550L624,553L622,557L620,561L618,564L617,569L616,572L615,576L614,580L613,584L613,587L613,591L613,593L613,596L613,599L613,601L613,603L613,606L615,608L616,609L617,611L618,613L620,615L622,617L624,619L626,621L629,623L631,625L634,627L637,630L639,632L642,634L645,636L648,639L651,641L655,644L658,646L662,648L665,650L668,652L672,654L674,656L677,657L679,658L681,659L682,659" stroke-opacity="1" stroke-width="3" stroke-linecap="round" stroke-linejoin="round" style="-webkit-tap-highlight-color: rgba(0, 0, 0, 0); stroke-opacity: 1; stroke-linecap: round; stroke-linejoin: round; -webkit-user-select: text;"></path><path fill="none" stroke="#6c7e83" d="M712,576L708,577L705,580L702,584L699,588L695,593L691,598L687,603L682,608L679,612L675,617L671,621L667,626L663,631L659,635L655,640L651,645L647,651L643,656L639,661L635,666L630,672L626,677L622,682L618,688L614,693L610,698L606,703L602,709L599,713L596,717L592,722L589,726L586,730L583,734L580,739L577,742L574,746L571,749L569,752L567,755L565,758L562,761L561,764L559,766L557,768L555,771L553,773L552,774L550,776L549,778L548,780L546,781L545,782L545,783L544,784L543,785L543,783" stroke-opacity="1" stroke-width="3" stroke-linecap="round" stroke-linejoin="round" style="-webkit-tap-highlight-color: rgba(0, 0, 0, 0); stroke-opacity: 1; stroke-linecap: round; stroke-linejoin: round; -webkit-user-select: text;"></path><path fill="none" stroke="#6c7e83" d="M628,790L623,786L622,784L621,782L620,779L618,776L616,772L615,768L613,765L611,761L608,758L605,754L601,750L598,746L593,742L587,738L581,735L573,732L562,729L552,727L542,725L531,725L521,725L513,725L506,725L500,726L494,728L490,730L485,733L481,735L477,738L473,740L469,742L466,744L463,747L459,750L456,753L453,756L451,759L448,762L446,765L443,768L441,771L439,774L437,777L435,780L434,783L432,785L430,788L429,790L427,792L425,794L424,796L422,798L421,800L420,802L419,803L419,804L418,805L417,806L417,807L416,807" stroke-opacity="1" stroke-width="3" stroke-linecap="round" stroke-linejoin="round" style="-webkit-tap-highlight-color: rgba(0, 0, 0, 0); stroke-opacity: 1; stroke-linecap: round; stroke-linejoin: round; -webkit-user-select: text;"></path><path fill="none" stroke="#6c7e83" d="M342,761L342,764L343,766L345,771L347,775L350,779L353,784L355,788L358,792L361,796L365,800L370,805L375,810L379,814L385,818L390,822L396,826L402,830L407,834L413,837L419,840L425,843L430,846L436,848L442,850L448,852L454,854L460,855L466,856L473,857L481,857L489,858L498,858L507,858L516,858L528,858L536,856L546,854L555,851L562,849L569,846L576,842L583,838L589,833L596,828L602,824L607,819L612,815L617,810L621,807L626,802L629,798L633,793L636,788L639,783L642,778L643,775L645,769L646,765L647,760L649,756L650,751L651,745L652,739L654,734L655,730L657,725L658,720L659,715L660,711L661,707L662,703L662,699L663,694L663,690L664,686L664,681L664,677L664,673L664,669L664,664L664,659L664,655L664,650L665,645L665,640L666,635L666,630L666,626L666,621L666,617L667,612L667,608L667,603L668,598L668,594L668,590L668,585L669,581L669,577L669,572L670,568L671,563L672,558L673,553L674,549L675,544L676,540L677,535L679,531L680,527L682,523L683,520L685,517L686,514L688,512L690,509L692,507L694,504L696,502L698,500L700,498L701,497L703,496L703,495L704,495L705,495L706,495" stroke-opacity="1" stroke-width="3" stroke-linecap="round" stroke-linejoin="round" style="-webkit-tap-highlight-color: rgba(0, 0, 0, 0); stroke-opacity: 1; stroke-linecap: round; stroke-linejoin: round; -webkit-user-select: text;"></path></svg>