<svg height="906" version="1.1" width="768" xmlns="http://www.w3.org/2000/svg" xmlns:xlink="http://www.w3.org/1999/xlink" style="overflow: hidden; position: relative; -webkit-user-select: text;"><desc style="-webkit-tap-highlight-color: rgba(0, 0, 0, 0); -webkit-user-select: text;">Created with Raphaël 2.2.0</desc><defs style="-webkit-tap-highlight-color: rgba(0, 0, 0, 0); -webkit-user-select: text;"></defs><path fill="none" stroke="#6c7e83" d="M394,276L397,275L398,275L400,274L401,274L402,273L404,273L406,272L407,271L409,271L411,270L412,270L414,269L415,268L417,268L419,267L420,266L422,266L424,265L426,264L428,264L430,263L431,263L433,262L434,261L436,260L438,260L440,259L442,258L444,257L447,256L449,256L452,255L454,254L457,253L459,252L462,251L464,251L466,250L468,249L470,248L472,247L474,247L476,246L477,246L479,245L481,244L482,243L484,243L486,242L487,241L489,241L490,240L491,240L493,239L494,239L496,239L498,238L500,238L502,238L504,237L506,237L508,236L509,236L511,235L513,235L515,234L517,234L519,232L522,231L525,231L528,230L530,230L533,229L535,229L537,229L539,229L541,229L542,228L544,228L545,227L547,227L548,226L550,226L551,226L553,226L554,226L555,226L557,226L558,226L559,226L560,226L561,226L562,226L563,226L564,226L565,226L566,226L567,227L567,228L567,229L568,230L568,231L568,232L568,234L568,235L568,236L568,237L568,238L568,240L568,242L567,243L566,244L565,246L563,247L562,248L560,248L557,249L555,249L552,250L549,250L546,251L543,251L540,251L537,251L534,251L531,251L527,251L524,251L520,251L516,251L513,251L510,251L507,250L503,249L500,248L497,248L494,247L491,246L488,245L485,244L481,243L477,242L474,241L470,239L466,238L462,236L458,235L453,234L448,232L445,231L441,229L437,228L433,226L429,223L424,221L420,219L416,216L412,214L409,212L404,209L400,206L396,204L392,201L387,197L383,194L379,190L375,187L370,183L365,180L361,176L355,172L350,167L345,163L340,160L336,156L331,153L327,151L323,148L318,145L314,142L310,141L306,139L302,137L297,136L292,135L287,135L283,135L278,135L272,135L266,135L261,137L256,140L252,143L248,146L244,149L241,151L237,154L235,157L233,160L232,163L231,166L230,169L230,172L230,175L230,178L230,181L231,185L232,187L234,190L238,192L241,194L245,195L249,195L254,195L259,195L264,192L269,189L273,185L277,181L282,175L286,169L291,163L296,156L301,149L307,141L312,136L319,129L324,123L330,117L336,111L342,106L348,102L354,98L358,95L364,92L368,90L373,90L376,90L380,90L383,90L385,92L387,95L390,99L392,103L395,107L397,112L398,118L400,124L401,128L402,133L402,139L403,144L403,150L403,156L402,161L399,166L395,170L391,174L387,177L382,178L376,179L370,180L364,180L358,180L350,179L342,176L334,173L326,169L316,165L308,162L298,159L288,156L278,153L268,149L258,146L251,144L242,140L234,138L227,135L220,132L214,130L209,128L203,125L198,122L193,119L188,116L184,113L179,111L175,108L171,106L168,104L164,102L160,100L156,98L153,96L149,94L147,92L143,91L140,89L136,88L133,88L129,87L126,87L123,87L120,87L118,87L115,87L112,87L109,88L107,90L105,93L103,95L101,98L99,101L98,104L97,107L96,111L96,115L96,120L95,124L95,129L95,134L95,139L95,144L95,150L95,155L95,162L95,168L95,175L95,182L95,189L95,195L95,202L96,208L98,214L101,220L103,226L108,231L112,236L118,240L122,242L128,244L136,245L145,245L153,245L163,241L172,236L183,228L194,219L205,210L216,200L227,189L239,177L251,165L263,153L276,141L290,130L303,119L317,109L329,101L342,94L353,88L363,84L374,82L381,81L389,81L395,82L401,87L406,93L410,101L413,109L416,120L419,129L422,140L426,151L429,162L431,173L432,185L433,197L433,207L433,219L432,230L428,239L422,248L415,256L407,263L397,269L387,274L377,278L368,280L361,282L353,282L348,282L343,282L340,281L338,278L337,274L337,268L339,261L344,253L350,244L356,235L363,226L371,214L380,204L389,194L399,184L409,173L420,163L431,153L441,142L450,133L460,123L469,113L478,105L486,98L497,89L505,83L514,76L522,70L529,65L535,61L541,57L547,54L553,52L558,51L562,51L567,51L571,51L575,51L578,52L582,56L585,60L589,65L592,71L595,78L599,84L603,91L606,98L610,106L613,114L616,122L618,130L619,139L620,149L620,157L620,166L620,174L617,182L614,190L608,197L601,203L594,209L584,212L575,216L566,218L556,219L545,220L536,220L524,220L514,218L503,214L493,210L484,205L476,199L468,192L460,185L453,178L444,170L435,161L424,152L413,144L402,135L389,127L377,120L363,114L351,108L338,103L327,98L312,93L302,90L290,85L280,82L269,79L259,77L250,75L239,73L230,72L220,72L211,72L202,72L193,73L184,77L177,81L168,86L162,91L156,96L152,102L149,106L146,111L144,117L142,122L141,126L140,131L140,136L140,143L140,149L141,154L142,160L145,166L148,171L152,178L156,183L161,187L167,192L172,195L178,199L183,200L189,201L195,201L200,201L206,199L212,195L220,188L227,181L234,174L243,166L253,158L262,151L271,146L277,143L283,142L289,142L294,142L298,148L301,155L302,164L303,175L304,189L304,201L304,214L304,228L304,241L304,254L304,266L304,278L305,290L307,300L310,309L314,317L319,323L324,328L331,332L338,335L347,337L357,338L370,338L382,336L393,331L403,326L411,319L417,311L421,305L425,297L426,287L427,277L427,267L427,254L426,241L425,228L424,214L423,201L423,187L423,173L424,159L427,145L429,131L432,118L435,105L438,94L441,84L443,76L446,68L450,62L453,56L458,51L461,48L466,45L470,44L476,42L481,42L485,42L490,43L495,46L499,51L504,57L507,63L510,71L511,78L512,85L513,92L513,101L513,110L511,118L506,127L500,136L493,144L485,152L475,161L465,170L453,178L442,187L431,195L419,205L409,214L400,223L392,231L387,239L383,246L381,253L380,258L380,263L381,266L385,268L394,268L406,268L421,262L435,255L451,246L466,236L481,225L495,214L509,203L524,193L537,183L550,173L561,165L572,156L582,148L591,141L600,134L609,127L618,120L625,115L632,110L638,106L644,102L649,98L655,95L660,93L664,91L668,90L672,89L676,88L681,88L685,88L689,88L692,88L695,88L697,91L699,93L701,96L703,100L704,104L706,108L707,114L708,118L709,124L709,129L710,134L710,139L710,144L710,148L709,153L706,157L702,161L696,165L687,168L676,170L662,171L646,172L626,172L608,172L589,172L571,170L553,168L537,166L521,164L508,163L493,162L479,162L465,162L453,162L442,166L433,170L425,176L418,184L413,192L409,202L407,212L405,224L404,236L403,246L403,259L403,269L403,280L403,290L406,298L409,305L415,311L424,315L435,316L453,316L475,311L498,303L521,292L546,277L570,261L593,244L615,226L635,209L652,195L667,182L676,173L685,166L691,160L696,156L700,153L703,151L705,151L706,151L707,151L708,153L709,157L711,162L713,168L716,176L718,185L719,193L720,203L720,214L720,225L720,238L720,249L718,261L716,272L713,282L711,291L708,299L704,307L701,313L697,317L691,322L684,325L675,327L663,329L650,329L637,329L621,328L607,324L593,318L580,312L566,304L552,297L538,290L524,282L509,275L494,268L479,261L464,256L449,252L437,248L422,246L408,244L394,244L384,244L371,244L361,247L353,251L346,257L338,264L332,271L325,280L319,288L312,297L305,304L298,312L288,319L278,324L267,328L258,330L248,330L238,330L230,326L223,319L218,309L213,297L208,283L203,273L197,258L192,244L185,229L179,214L174,201L168,189L162,177L157,168L152,158L147,149L143,142L139,135L135,129L131,126L128,123L126,121L123,121L121,121L119,121L117,123L112,127L106,133L100,139L93,148L86,156L79,166L74,174L70,183L67,191L64,199L63,206L63,211L63,217L63,222L64,226L67,231L71,236L75,243L79,248L83,255L88,263L93,271L97,279L102,287L106,296L110,302L115,309L120,315L125,321L130,326L134,329L139,333L145,335L151,336L158,336L165,336L172,335L181,330L189,323L197,314L206,303L213,292L222,280L229,268L239,255L248,242L257,231L266,222L274,217L280,213L285,211L290,211L295,211L298,214L302,221L305,228L307,236L310,246L312,258L313,270L313,283L313,296L310,308L305,320L299,331L292,341L284,348L275,355L268,359L259,362L254,363L247,363L240,362L235,358L232,351L231,342L231,333L232,321L237,312L244,304L252,298L261,294L272,292L282,292L295,292L305,295L316,301L326,308L336,317L345,326L354,336L363,345L371,355L378,366L385,376L393,387L400,398L407,406L415,414L423,420L430,423L438,425L447,425L457,423L464,418L472,410L482,399L492,387L504,373L516,356L528,340L540,324L553,309L566,294L579,281L591,271L603,261L615,252L626,244L638,237L646,232L656,227L665,223L672,219L681,217L689,214L695,213L702,212L709,212L714,212L719,212L723,212L727,215L730,219L734,223L737,228L740,235L742,241L743,248L745,257L745,265L745,274L746,283L746,293L746,303L746,313L746,323L746,333L745,343L744,353L742,365L740,375L736,385L731,395L725,404L717,412L707,418L696,421L681,422L662,422L643,418L621,409L599,397L577,384L556,370L535,355L514,339L492,323L474,307L458,291L443,276L430,261L418,248L408,236L397,225L386,216L378,209L370,204L363,200L358,198L353,197L349,197L346,197L342,197L338,202L334,207L330,214L326,221L323,229L320,237L317,246L315,256L313,267L312,277L311,289L311,299L311,310L311,320L311,330L311,339L311,348L313,356L315,364L319,371L323,377L329,380L339,383L353,384L373,384L395,383L419,381L443,379L465,378L485,378L501,379L512,384L522,391L530,399L536,409L539,420L541,431L541,444L541,454L541,465L541,473L539,479L538,482L536,484L532,484L523,484L509,479L493,472L476,464L456,453L437,443L418,431L400,421L383,410L366,399L354,390L342,381L331,373L322,367L312,361L303,357L293,353L284,351L274,350L264,350L254,350L243,352L234,356L226,361L218,366L210,373L204,379L198,387L193,394L188,402L182,411L176,422L169,434L162,446L155,459L148,472L142,486L135,500L129,512L125,522L120,532L118,540L116,546L115,552L115,557L115,562L115,566L116,569L119,571L125,572L135,572L150,571L166,566L183,559L201,552L221,542L237,535L254,527L270,519L286,511L301,505L315,499L327,495L339,491L350,487L359,486L370,485L377,485L384,485L390,485L395,489L400,492L403,496L407,500L409,504L411,509L413,514L414,519L414,524L414,529L414,536L414,542L413,548L410,554L405,560L398,567L390,572L380,577L370,581L359,584L347,586L337,586L324,586L314,586L304,581L295,573L288,562L282,547L278,530L275,511L273,489L271,462L269,435L269,409L269,386L269,361L269,336L269,313L269,294L269,278L269,264L268,253L266,244L263,238L259,234L255,233L249,233L241,233L230,237L216,245L203,254L189,266L176,279L165,291L154,303L144,313L134,322L126,329L118,336L110,341L103,346L98,351L93,355L89,360L88,364L87,368L87,373L87,378L91,384L98,392L105,399L115,409L124,418L135,427L145,437L155,447L164,457L173,466L180,473L188,479L195,482L200,484L209,484L219,482L229,476L240,465L249,454L258,440L266,426L275,411L285,396L297,379L306,366L317,353L327,342L334,333L340,328L344,325L345,324L341,324L335,326L321,327L305,328L285,328L266,328L247,326L229,320L210,309L198,297L185,280L176,262L167,242L159,220L149,199L139,181L128,165L119,152L109,141L100,130L93,123L87,117L84,113L81,110L80,109L81,109L84,109L91,109L108,104L131,95L154,85L176,77L196,70L210,66L219,64L224,64L227,64L227,65L227,68L227,72L225,79L223,90L221,105L218,124L217,141L215,161L214,181L214,202L214,223L214,244L214,264L214,285L214,305L214,323L217,339L219,353L222,366L226,377L229,388L234,397L239,406L245,413L250,420L256,426L262,431L270,435L278,438L287,438L299,438L310,435L324,428L336,418L348,408L360,396L373,381L386,366L398,351L410,336L421,324L432,314L441,308L447,304L451,303L453,303L455,303L455,308L455,317L455,329L447,345L434,363L418,379L398,395L373,409L348,421L321,429L295,436L272,441L254,445L237,450L225,457L215,465L209,473L205,482L204,492L204,501L204,510L208,518L214,525L221,530L229,533L242,534L262,533L288,522L316,507L346,490L374,472L399,453L421,434L440,416L458,399L473,385L485,374L497,363L508,353L516,345L526,337L536,331L544,326L552,323L560,321L566,320L572,320L578,320L584,321L588,325L593,331L597,337L603,345L609,355L614,365L621,377L629,389L638,401L647,414L656,426L665,438L673,449L682,460L688,469L693,478L696,485L697,491L697,497L693,503L673,512L645,520L609,527L570,535L530,543L493,551L463,556L444,558L434,558L429,553L429,542L436,524L449,501L464,477L478,452L491,426L502,402L511,380L518,362L523,344L528,328L531,317L534,308L536,303L538,300L541,300L543,300L547,304L554,311L563,320L574,330L587,341L604,355L619,367L635,380L647,390L660,401L669,408L676,415L682,420L685,424L687,427L688,430L688,433L687,437L682,443L674,450L664,460L654,468L642,475L628,482L614,487L598,491L580,494L562,494L545,493L530,488L516,480L504,470L494,459L485,447L478,433L471,421L464,407L459,397L452,384L446,375L439,366L433,357L426,350L419,343L411,337L404,333L396,330L387,328L379,328L369,328L360,328L352,332L344,336L338,342L334,348L329,354L326,364L322,373L318,384L314,396L310,411L306,425L304,438L303,450L303,463L303,474L306,484L312,492L319,499L329,504L343,507L361,508L382,507L407,501L431,491L455,481L478,469L497,455L513,442L522,431L528,420L530,408L530,396L521,384L509,374L490,363L469,356L447,350L429,345L413,338L403,328L401,316L405,294L420,273L438,250L455,231L468,217L477,207L482,202L485,200L487,200L487,203L487,207L489,214L494,222L502,233L510,245L520,259L533,276L546,292L560,310L573,326L588,342L602,357L616,372L629,387L640,399L651,412L662,423L669,432L675,441L679,449L680,457L680,465L679,474L672,485L661,496L646,507L627,519L609,528L593,535L577,540L565,542L553,544L543,544L534,542L526,535L520,527L514,515L509,501L505,486L501,471L497,455L495,439L493,427L490,416L486,409L479,406L465,406L440,411L414,422L385,436L359,450L336,465L320,477L309,486L303,493L301,497L301,499L301,500L302,500L307,500L312,500L316,500L319,500L320,500L321,501L322,504L322,508L322,512L323,518L323,523L324,530L326,537L327,546L328,554L329,564L329,574L330,583L331,591L332,598L333,606L335,613L337,619L339,625L343,629L346,633L350,637L353,640L357,642L362,644L367,646L373,647L378,649L385,649L391,649L398,649L405,649L412,649L419,646L426,643L431,639L437,635L442,631L446,627L451,623L455,618L459,613L463,607L468,601L472,596L476,590L479,586L480,581L482,577L482,573L483,570L483,566L483,563L482,559L478,555L475,552L470,548L465,545L457,543L448,542L438,542L425,542L412,545L397,550L383,556L369,563L357,570L346,576L337,582L332,585L329,587L328,588L330,585L342,576L356,566L375,554L392,542L411,530L430,519L447,508L462,500L477,491L491,482L505,475L517,468L529,461L538,455L548,450L559,444L567,439L575,436L582,433L587,431L591,430L594,429L596,429L599,429L600,429L601,429L603,431L604,434L607,438L610,443L613,448L617,455L622,463L628,472L634,480L640,489L645,498L650,507L657,516L663,525L669,534L674,542L680,549L686,557L690,564L694,571L696,579L697,585L699,592L699,598L699,604L699,610L699,615L699,620L698,625L695,630L691,635L686,640L680,645L674,649L668,652L660,655L652,658L643,661L634,663L624,664L615,665L606,665L599,665L593,665L587,664L581,662L577,660L573,658L570,656L566,654L562,652L559,650L554,650L550,650L545,650L541,650L536,653L531,658L526,663L521,668L517,673L513,678L510,684L507,689L503,695L500,700L498,705L496,708L494,712L493,717L492,720L491,724L490,727L489,731L489,734L488,738L487,742L487,746L487,750L486,754L485,759L485,763L484,768L483,772L482,776L481,780L480,783L478,788L475,792L473,796L470,800L467,804L463,807L458,812L452,815L446,819L438,823L431,827L422,830L414,833L405,835L395,838L386,841L375,843L365,846L357,847L347,848L338,849L331,849L324,849L319,849L314,848L312,845L311,841L311,836L312,828L317,818L322,808L329,795L335,782L341,769L346,756L351,744L354,732L358,720L361,710L363,702L365,696L367,690L370,686L373,682L378,680L385,677L393,676L403,675L412,675L424,675L434,677L443,682L451,688L458,695L465,702L471,710L477,717L484,724L490,729L497,735L505,740L510,745L516,749L522,754L529,758L533,761L538,764L543,767L547,770L551,773L555,775L558,777L562,778L565,781L568,782L571,784L575,785L578,787L582,788L585,789L588,790L590,791L593,792L596,792L599,792L604,791L610,786L617,781L624,773L634,763L641,755L649,747L656,740L662,734L667,729L671,725L674,720L677,716L679,713L680,710L680,708L680,705L679,702L674,697L669,692L662,685L657,678L652,669L647,659L644,648L641,637L639,625L636,615L632,605L628,597L624,591L621,587L616,585L611,584L604,584L596,584L584,588L571,594L557,601L543,609L526,618L511,627L496,635L483,642L473,648L465,652L460,656L458,658L457,660L457,661L457,663L458,664L462,666L467,671L474,678L481,684L488,692L494,700L501,708L506,714L511,720L514,724L516,725L519,726L521,726L523,725L526,715L528,705L530,692L531,677L532,658L534,639L536,619L539,601L542,583L544,569L544,559L544,552L544,548L539,547L526,547L509,550L491,556L468,563L446,571L425,578L404,586L383,595L363,603L347,610L333,616L323,621L314,626L309,630L305,634L302,638L301,642L300,647L300,651L300,657L300,664L299,672L298,682L297,692L296,700L296,707L296,712L296,718L296,722L296,726L297,729L299,732L302,733L305,734L308,735L313,735L320,735L327,734L334,731L343,726L351,720L359,713L367,705L377,695L385,685L395,674L404,661L413,648L424,631L435,615L446,599L455,585L463,571L467,562L468,556L468,553L462,552L443,553L418,560L391,572L359,590L324,611L286,635L250,658L217,680L193,698L176,711L166,718L160,720L157,721L156,721L156,720L156,715L156,710L156,703L155,696L154,688L153,681L152,672L150,664L149,655L147,646L146,637L144,629L144,620L144,612L144,605L144,598L144,591L148,585L152,579L158,575L163,572L169,570L176,570L184,570L192,571L199,574L208,580L216,587L224,595L231,602L237,610L244,618L251,626L257,633L264,640L272,646L278,650L285,653L295,654L309,652L327,640L347,619L368,593L388,563L405,534L416,512L421,499L422,489L422,483L416,478L406,475L393,474L354,475L327,481L300,485L272,491L246,495L224,497L202,498L183,498L169,493L160,483L156,469L161,423L169,400L178,380L188,362L196,348L202,336L206,329L208,326L209,326L210,327L211,334L216,343L225,353L234,365L246,377L260,394L275,409L288,423L298,435L307,447L314,456L319,465L322,471L323,476L323,480L323,484L319,487L309,491L297,494L280,498L263,500L247,501L232,503L217,503L202,503L188,503L178,503L168,503L158,501L150,499L143,498L137,496L131,494L126,493L122,492L117,491L113,490L108,489L105,488L99,487L97,487L95,487L93,487L92,488L91,490L89,492L87,496L84,501L81,508L77,517L74,526L71,537L68,548L65,559L63,571L62,581L61,593L61,603L61,613L61,623L61,631L61,640L61,647L61,652L63,656L67,659L74,660L88,660L110,654L130,644L152,633L172,622L191,612L207,603L223,595L237,588L248,585L267,583L277,585L285,591L293,602L300,614L304,628L307,644L309,656L310,669L311,677L312,684L312,690L312,693L310,699L299,704L284,710L261,717L237,725L212,735L187,747L166,758L152,764L141,767L134,767L130,764L130,751L133,725L144,697L159,667L175,636L192,608L207,583L217,564L225,550L230,538L240,524L245,520L250,519L256,518L264,518L273,520L283,526L296,535L308,545L321,555L332,567L344,578L354,588L363,598L373,608L380,615L385,624L390,632L395,640L397,647L400,652L401,657L402,661L402,668L402,671L398,674L394,676L387,678L380,681L369,684L349,688L339,689L329,690L319,690L310,690L303,690L295,690L288,690L283,690L277,690L271,690L264,690L251,691L244,693L238,697L232,701L227,706L225,710L222,714L222,718L221,722L221,728L221,734L221,741L221,748L222,756L222,764L222,778L222,785L223,792L224,797L225,801L227,804L231,806L237,807L246,807L256,805L270,798L282,789L307,768L321,757L332,747L342,738L351,731L359,727L366,723L373,722L379,722L383,723L388,728L394,737L405,755L410,766L417,787L420,795L421,800L422,805L422,807L422,810L414,811L401,812L382,812L362,812L340,812L319,810L294,802L287,794L285,783L285,766L290,749L302,727L313,706L324,687L333,671L342,656L351,642L358,631L371,619L378,617L386,617L397,617L408,619L424,624L440,628L457,631L475,631L493,631L512,631L531,630L544,629L567,629L575,629L581,629L586,629L589,630L592,631L594,633L594,634L595,635L595,636L596,638L596,640L596,642L596,644L597,647L597,652L597,658L597,664L595,669L592,675L578,686L568,693L556,699L543,705L530,710L515,715L500,721L488,725L475,728L454,733L447,733L442,733L438,733L436,731L436,726L436,718L436,708L436,695L440,669L442,654L444,640L446,627L447,614L448,601L449,588L452,563L454,550L458,537L461,526L465,517L471,511L479,506L499,503L512,503L528,503L542,504L560,506L592,507L608,507L619,507L630,508L636,509L644,516L645,521L646,527L646,536L646,547L646,560L643,574L640,590L636,604L630,628L628,638L626,646L623,652L620,658L616,662L611,666L589,668L575,668L558,667L541,662L525,656L495,640L484,631L477,619L475,603L475,585L484,564L495,547L509,533L521,522L535,514L558,511L569,513L581,523L590,535L597,550L602,567L606,584L607,603L606,639L593,666L580,678L562,690L543,700L522,708L501,716L484,722L459,733L453,738L451,742L451,745L451,748L456,752L478,766L492,773L507,779L519,786L533,792L545,797L557,802L578,810L588,813L596,816L604,819L611,821L617,823L622,824L628,826L638,828L642,829L645,830L649,831L652,832L656,833L659,833L664,834L667,835L669,836L670,836L672,836L674,837L674,838L675,838L676,838L677,839L678,839L679,839" stroke-opacity="1" stroke-width="5" stroke-linecap="round" stroke-linejoin="round" style="-webkit-tap-highlight-color: rgba(0, 0, 0, 0); stroke-opacity: 1; stroke-linecap: round; stroke-linejoin: round; -webkit-user-select: text;"></path></svg>