<svg height="906" version="1.1" width="768" xmlns="http://www.w3.org/2000/svg" xmlns:xlink="http://www.w3.org/1999/xlink" style="overflow: hidden; position: relative; -webkit-user-select: text;"><desc style="-webkit-tap-highlight-color: rgba(0, 0, 0, 0); -webkit-user-select: text;">Created with Raphaël 2.2.0</desc><defs style="-webkit-tap-highlight-color: rgba(0, 0, 0, 0); -webkit-user-select: text;"></defs><path fill="none" stroke="#6c7e83" d="M112,141L115,144L118,144L122,144L130,144L138,143L145,143L155,142L164,142L173,142L183,142L193,142L201,142L211,142L220,142L228,142L237,142L246,143L254,143L264,144L273,144L283,144L293,144L303,144L313,144L323,144L332,144L342,145L351,145L360,145L368,146L377,146L386,146L395,146L404,146L414,146L424,146L433,146L443,146L453,146L462,146L472,146L482,145L492,145L503,144L513,144L523,143L533,143L544,142L554,141L564,141L574,141L583,141L591,141L599,140L606,140L611,140L616,139L621,139L624,139L626,139L627,139L628,139L618,140" stroke-opacity="1" stroke-width="5" stroke-linecap="round" stroke-linejoin="round" style="-webkit-tap-highlight-color: rgba(0, 0, 0, 0); stroke-opacity: 1; stroke-linecap: round; stroke-linejoin: round; -webkit-user-select: text;"></path><path fill="none" stroke="#6c7e83" d="M98,261L104,263L109,263L116,263L123,263L133,263L142,263L153,263L164,262L175,262L186,262L197,262L210,262L223,262L235,261L248,260L260,260L272,259L285,258L298,257L311,256L324,256L337,256L349,256L360,256L373,256L383,256L395,256L406,256L417,256L428,256L438,256L448,256L459,255L470,254L480,253L490,253L499,252L509,252L519,251L527,251L535,251L543,251L550,251L558,251L564,251L570,251L576,250L582,250L587,250L591,249L595,249L599,249L602,249L605,249L608,249L611,248L613,248L614,248L615,248" stroke-opacity="1" stroke-width="5" stroke-linecap="round" stroke-linejoin="round" style="-webkit-tap-highlight-color: rgba(0, 0, 0, 0); stroke-opacity: 1; stroke-linecap: round; stroke-linejoin: round; -webkit-user-select: text;"></path><path fill="none" stroke="#6c7e83" d="M120,385L124,387L127,387L132,387L139,388L146,388L154,388L162,388L171,389L181,389L191,389L201,389L215,389L226,389L238,389L248,389L259,388L269,387L280,387L291,387L302,387L313,387L324,387L335,387L347,387L358,387L372,387L384,387L397,387L410,387L422,387L433,387L447,387L458,387L469,387L480,387L490,387L501,387L510,387L518,387L526,387L534,388L541,388L548,388L555,388L560,388L566,388L572,388L578,388L583,388L589,388L594,388L599,388L604,388L609,388L613,387L617,387L620,387L623,387L626,387L628,387L629,387L630,387L629,389" stroke-opacity="1" stroke-width="5" stroke-linecap="round" stroke-linejoin="round" style="-webkit-tap-highlight-color: rgba(0, 0, 0, 0); stroke-opacity: 1; stroke-linecap: round; stroke-linejoin: round; -webkit-user-select: text;"></path><path fill="none" stroke="#6c7e83" d="M114,525L115,527L118,527L122,527L128,527L136,527L145,526L155,526L165,526L174,526L183,525L193,525L202,525L210,524L218,524L226,524L234,523L242,523L250,523L259,523L268,523L278,522L290,521L302,520L315,519L327,518L340,517L353,517L368,517L383,517L397,516L411,516L424,516L437,516L451,516L462,516L474,516L485,516L498,516L509,516L520,516L531,516L541,516L550,516L560,516L567,516L576,516L584,516L591,516L597,516L604,516L609,516L615,516L620,516L625,516L630,516L634,516L638,516L640,516L642,516L643,516L644,516L644,515L642,515" stroke-opacity="1" stroke-width="5" stroke-linecap="round" stroke-linejoin="round" style="-webkit-tap-highlight-color: rgba(0, 0, 0, 0); stroke-opacity: 1; stroke-linecap: round; stroke-linejoin: round; -webkit-user-select: text;"></path><path fill="none" stroke="#6c7e83" d="M105,685L107,680L110,680L115,680L120,681L128,681L138,682L149,682L164,682L177,682L192,682L206,681L220,679L234,678L249,676L263,674L277,672L290,671L302,670L314,670L325,670L336,670L350,670L361,670L373,670L384,670L397,670L408,670L421,670L434,670L446,670L457,670L471,670L484,670L497,670L510,670L523,670L535,670L548,670L560,670L572,671L582,671L594,671L605,672L615,672L625,673L633,673L640,674L646,674L651,674L655,674L658,675L660,675L661,675L662,675L663,675L664,675L664,674" stroke-opacity="1" stroke-width="5" stroke-linecap="round" stroke-linejoin="round" style="-webkit-tap-highlight-color: rgba(0, 0, 0, 0); stroke-opacity: 1; stroke-linecap: round; stroke-linejoin: round; -webkit-user-select: text;"></path><path fill="none" stroke="#6c7e83" d="M176,686L179,685L183,684L186,681L191,678L196,675L201,671L207,666L212,662L217,658L222,653L226,649L231,644L235,641L240,636L244,632L249,627L254,622L259,617L265,612L271,607L276,603L281,598L286,593L292,588L297,584L302,579L307,574L312,570L316,567L320,563L324,559L328,556L331,553L334,550L337,547L339,545L341,544L343,542L345,541L347,539L349,537L351,536L353,535L355,534L356,533L357,532L358,531L359,530L360,530L361,529L362,529L363,529L364,529" stroke-opacity="1" stroke-width="5" stroke-linecap="round" stroke-linejoin="round" style="-webkit-tap-highlight-color: rgba(0, 0, 0, 0); stroke-opacity: 1; stroke-linecap: round; stroke-linejoin: round; -webkit-user-select: text;"></path><path fill="none" stroke="#6c7e83" d="M261,685L264,683L268,680L272,677L277,673L283,669L288,665L293,661L298,657L303,653L307,650L312,647L316,643L320,639L326,634L329,630L334,626L338,623L342,619L346,615L351,612L356,608L360,604L364,600L368,596L373,591L378,587L383,583L387,578L392,574L396,571L400,567L404,563L407,560L411,557L414,554L417,551L420,548L423,546L425,544L428,541L430,540L432,537L434,536L436,535L437,533L438,533L439,532L440,531L441,531L442,531" stroke-opacity="1" stroke-width="5" stroke-linecap="round" stroke-linejoin="round" style="-webkit-tap-highlight-color: rgba(0, 0, 0, 0); stroke-opacity: 1; stroke-linecap: round; stroke-linejoin: round; -webkit-user-select: text;"></path><path fill="none" stroke="#6c7e83" d="M395,668L397,668L399,668L401,668L404,666L407,664L411,661L415,659L419,656L424,653L428,650L432,647L435,642L438,637L441,632L443,628L444,624L446,619L448,614L449,610L450,605L451,601L452,597L452,593L453,590L453,586L453,582L453,578L453,574L453,570L453,566L451,562L450,558L449,554L447,550L445,547L443,543L441,540L439,536L437,533L434,530L431,527L429,524L426,521L423,519L420,517L417,514L415,512L412,510L409,508L406,506L403,505L400,503L397,502L393,501L390,500L386,499L383,498L379,497L375,496L372,495L368,494L364,494L361,493L358,493L355,492L352,492L349,492L347,492L344,492L341,492L339,492L336,492L333,492L331,492L328,492L325,492L323,492L320,492L318,492L316,493L313,494L311,494L309,495L307,496L305,497L303,498L301,499L299,499L298,500L296,501L294,502L292,503L290,504L288,506L286,507L284,508L283,509L281,510L280,511L278,512L278,513L277,513L276,513L276,514L275,514L275,515" stroke-opacity="1" stroke-width="5" stroke-linecap="round" stroke-linejoin="round" style="-webkit-tap-highlight-color: rgba(0, 0, 0, 0); stroke-opacity: 1; stroke-linecap: round; stroke-linejoin: round; -webkit-user-select: text;"></path><path fill="none" stroke="#6c7e83" d="M469,673L467,671L469,671L471,669L474,666L477,663L480,660L483,656L486,651L489,647L492,642L494,637L496,633L498,628L501,623L503,618L505,613L507,609L508,605L509,601L509,596L510,591L510,586L511,582L511,576L511,571L511,566L511,562L511,557L511,552L511,547L509,541L508,536L506,530L504,525L502,520L499,514L495,509L492,504L489,499L485,494L481,490L477,486L472,483L468,479L464,476L459,473L454,470L449,467L444,464L439,462L434,459L429,457L424,455L418,453L413,452L408,450L402,449L398,448L393,447L388,447L383,446L378,445L374,445L369,445L366,445L361,445L358,445L353,445L350,445L346,445L342,445L339,445L335,445L332,446L329,448L325,448L321,450L318,451L314,453L311,454L307,456L305,458L301,460L299,461L296,463L294,465L291,467L289,469L287,471L285,473L283,475L280,477L279,478L277,479L275,481L273,482L272,484L270,485L269,487L267,488L266,489L265,491L263,492L262,494L261,495L260,496L259,497L258,498L257,499L256,500L256,501L255,501L254,502L254,503L253,503L253,504L252,505L251,505L251,506L250,506L250,507L249,508L248,508L248,509L247,510L246,511L246,512L245,512L245,513" stroke-opacity="1" stroke-width="5" stroke-linecap="round" stroke-linejoin="round" style="-webkit-tap-highlight-color: rgba(0, 0, 0, 0); stroke-opacity: 1; stroke-linecap: round; stroke-linejoin: round; -webkit-user-select: text;"></path><path fill="none" stroke="#6c7e83" d="M241,518L249,512L251,512L254,512L258,511L262,511L266,511L271,511L275,511L279,511L283,511L287,512L291,513L295,515L298,517L302,519L306,521L310,524L314,526L319,529L325,533L330,536L335,540L340,544L344,548L349,552L353,555L358,559L363,563L367,566L372,569L377,572L382,574L387,576L392,579L397,580L402,581L407,583L412,584L417,585L421,586L426,586L431,587L436,587L440,587L445,587L449,587L453,587L458,587L462,585L466,584L470,582L475,579L478,577L482,575L485,572L489,569L492,567L494,564L497,560L499,557L500,554L501,551L502,547L504,544L504,541L506,537L507,533L508,530L509,527L510,524L511,521L512,518L513,515L514,511L514,508L515,504L516,501L516,498L516,495L517,491L518,488L518,484L519,480L519,476L520,472L521,468L521,464L522,460L523,455L524,450L526,445L527,441L528,437L529,433L530,430L531,426L533,422L534,418L535,415L536,411L538,409L539,406L540,403L541,400L543,396L544,394L546,391L548,387L549,384L550,382L552,378L553,375L555,372L557,369L558,365L560,362L562,359L563,355L565,351L567,348L569,344L570,341L572,337L573,334L575,331L577,328L578,325L580,321L582,318L584,314L586,311L587,307L589,303L592,299L594,296L596,292L599,288L601,284L604,280L607,277L609,274L611,271L613,268L616,266L618,264L620,262L623,260L625,258L626,257L628,256L629,255L630,255L630,254L630,253" stroke-opacity="1" stroke-width="5" stroke-linecap="round" stroke-linejoin="round" style="-webkit-tap-highlight-color: rgba(0, 0, 0, 0); stroke-opacity: 1; stroke-linecap: round; stroke-linejoin: round; -webkit-user-select: text;"></path><path fill="none" stroke="#6c7e83" d="M646,373L643,377L642,379L638,382L635,385L631,389L627,392L623,394L620,397L616,400L612,403L608,406L604,409L599,411L595,413L591,416L587,417L583,418L579,420L575,421L571,423L567,424L565,425L561,426L558,428L555,429L553,430L550,432L547,433L544,435L541,437L539,438L536,440L533,443L531,445L529,447L526,449L524,451L522,453L519,456L517,458L515,461L513,463L511,466L509,468L507,471L505,473L502,476L500,478L497,481L494,483L492,486L489,488L486,491L483,493L480,495L477,497L474,499L470,500L468,502L464,503L461,504L458,506L454,506L451,507L448,508L444,508L441,509L438,509L435,510L431,510L428,510L424,510L420,510L416,510L412,510L408,510L404,510L400,509L395,508L391,507L387,506L383,504L378,502L374,501L369,499L366,497L361,494L358,493L354,491L349,488L346,485L342,482L338,480L335,477L332,475L329,472L325,470L322,467L319,464L316,461L312,458L310,455L306,452L302,449L300,446L297,443L294,440L291,437L289,434L286,431L284,428L283,426L281,423L280,421L279,419L278,417L277,415L277,413L276,412L276,410L275,409L274,407L273,406L273,404L273,403L272,402L272,401L271,400L271,399L271,398L270,397L270,396L269,395L269,394L268,393L268,392L268,391L268,390L267,389" stroke-opacity="1" stroke-width="5" stroke-linecap="round" stroke-linejoin="round" style="-webkit-tap-highlight-color: rgba(0, 0, 0, 0); stroke-opacity: 1; stroke-linecap: round; stroke-linejoin: round; -webkit-user-select: text;"></path><path fill="none" stroke="#6c7e83" d="M275,383L271,383L268,383L265,383L262,382L258,381L254,379L249,377L244,375L239,372L234,370L229,367L223,364L218,361L212,358L208,355L203,352L197,349L192,346L187,343L182,341L178,338L174,336L170,333L167,331L163,329L160,326L157,324L154,322L151,320L148,317L145,315L142,313L139,311L137,309L135,307L132,305L130,304L127,302L125,300L123,298L121,297L118,295L116,293L114,291L112,290L110,288L109,287L107,286L106,285L105,284L104,283L103,283L103,282L105,284" stroke-opacity="1" stroke-width="5" stroke-linecap="round" stroke-linejoin="round" style="-webkit-tap-highlight-color: rgba(0, 0, 0, 0); stroke-opacity: 1; stroke-linecap: round; stroke-linejoin: round; -webkit-user-select: text;"></path><path fill="none" stroke="#6c7e83" d="M142,263L145,264L148,266L151,268L155,271L159,273L164,275L168,279L173,282L177,285L182,289L186,293L191,296L196,300L201,304L206,309L211,312L216,316L221,320L227,324L232,327L237,331L243,334L248,338L253,341L258,345L263,348L268,351L273,354L277,357L281,360L285,362L288,365L292,367L295,370L298,372L301,374L303,375L306,377L308,379L310,381L312,382L314,383L316,384L318,385L319,386L320,387L321,388L322,388L323,389L324,389L325,390" stroke-opacity="1" stroke-width="5" stroke-linecap="round" stroke-linejoin="round" style="-webkit-tap-highlight-color: rgba(0, 0, 0, 0); stroke-opacity: 1; stroke-linecap: round; stroke-linejoin: round; -webkit-user-select: text;"></path><path fill="none" stroke="#6c7e83" d="M336,380L332,382L330,382L328,382L325,380L321,377L317,375L312,372L306,368L300,365L293,362L286,360L279,358L271,355L262,353L254,352L245,351L235,351L227,351L218,351L210,351L202,352L195,354L188,357L182,361L176,365L172,369L168,373L164,377L161,382L158,386L155,391L152,396L150,400L148,405L147,411L145,416L144,421L143,427L142,433L142,440L142,445L142,451L142,457L142,463L142,468L142,472L142,477L142,482L142,486L144,490L145,494L146,498L147,501L148,505L149,508L151,511L152,515L154,518L156,521L157,524L159,528L161,531L162,534L164,537L167,541L169,545L171,549L174,552L176,556L179,559L182,563L184,566L187,569L190,572L192,575L195,578L198,581L200,584L204,588L206,591L209,593L212,597L215,600L218,603L221,606L224,610L227,613L230,616L234,619L237,622L241,626L244,629L248,632L251,635L255,638L259,641L263,644L267,647L271,649L275,652L278,654L281,657L285,659L289,661L292,662L295,664L299,666L301,667L304,669L306,669L307,671L309,671L310,672L311,673L312,673L313,674L314,674L315,674L314,671" stroke-opacity="1" stroke-width="5" stroke-linecap="round" stroke-linejoin="round" style="-webkit-tap-highlight-color: rgba(0, 0, 0, 0); stroke-opacity: 1; stroke-linecap: round; stroke-linejoin: round; -webkit-user-select: text;"></path><path fill="none" stroke="#6c7e83" d="M270,678L260,681L257,681L254,681L249,681L244,681L239,681L234,679L228,677L222,674L215,671L208,667L201,663L194,659L187,654L181,649L174,644L168,639L162,632L157,626L152,620L146,614L140,606L136,600L131,593L126,586L122,580L118,572L114,564L110,555L107,548L104,540L101,533L99,525L98,518L97,510L96,502L95,494L95,486L95,479L95,471L95,463L95,456L95,449L95,443L96,435L98,428L99,422L101,416L103,409L105,403L107,396L110,390L113,384L116,379L119,374L122,370L126,364L130,360L134,355L138,351L142,348L147,344L152,341L157,338L161,334L167,332L172,329L178,327L184,324L191,322L196,320L201,319L207,317L212,316L218,315L223,314L228,314L232,314L237,313L242,313L246,313L251,313L255,313L260,313L264,314L268,315L272,316L276,317L280,319L283,320L287,321L291,323L295,325L298,327L302,329L305,331L308,333L311,336L314,338L317,339L319,341L322,343L324,345L327,348L329,350L331,351L333,353L334,355L336,357L338,359L339,360L341,362L342,364L344,365L345,367L346,368L347,369L348,370L349,372L350,372L351,374L351,375L352,375L353,376L354,377L355,378L356,379L356,380L357,381L358,382L359,383L360,384L359,384" stroke-opacity="1" stroke-width="5" stroke-linecap="round" stroke-linejoin="round" style="-webkit-tap-highlight-color: rgba(0, 0, 0, 0); stroke-opacity: 1; stroke-linecap: round; stroke-linejoin: round; -webkit-user-select: text;"></path><path fill="none" stroke="#6c7e83" d="M318,379L321,382L321,384L322,387L323,389L324,392L325,395L326,398L326,401L326,404L326,406L326,409L326,412L326,416L325,419L323,422L322,425L320,428L318,431L315,434L313,437L310,440L307,443L303,446L299,449L295,452L291,455L287,457L282,459L278,460L274,462L270,464L266,465L261,467L257,468L253,469L248,470L244,471L238,472L233,474L228,475L223,477L218,478L213,479L208,482L203,484L198,486L194,488L190,490L185,493L181,495L178,497L174,500L171,502L168,504L164,506L161,508L159,511L156,513L153,516L150,519L148,522L146,525L144,528L142,532L139,535L138,539L136,543L134,547L132,551L131,554L130,558L128,562L127,566L126,569L126,573L125,577L125,581L124,585L124,589L124,593L123,597L123,602L123,606L123,609L123,612L123,615L123,618L123,622L123,625L123,628L123,631L123,634L123,637L123,641L123,644L123,647L123,649L123,652L123,654L124,657L124,659L125,660L125,663L125,664L125,666L126,668L126,670L127,671L127,672L127,674L128,674L129,676L130,676L130,674" stroke-opacity="1" stroke-width="5" stroke-linecap="round" stroke-linejoin="round" style="-webkit-tap-highlight-color: rgba(0, 0, 0, 0); stroke-opacity: 1; stroke-linecap: round; stroke-linejoin: round; -webkit-user-select: text;"></path><path fill="none" stroke="#6c7e83" d="M223,686L228,684L231,681L234,678L238,675L242,671L245,667L249,662L251,657L253,653L254,649L255,645L255,641L255,637L255,632L255,627L255,621L255,616L255,611L254,606L253,601L251,597L250,593L248,588L246,584L244,579L241,575L239,571L236,567L234,562L232,558L229,554L227,551L225,547L223,544L221,540L219,537L217,534L215,531L213,528L211,525L210,522L208,519L207,516L206,513L205,509L204,506L204,502L204,499L204,495L204,491L204,488L204,484L204,481L204,477L205,473L207,469L209,465L211,462L213,459L215,457L217,455L219,453L221,451L223,450L225,448L227,447L229,445L231,443L233,441L235,440L237,438L238,435L239,434L241,432L242,430L242,428L244,426L244,424L245,422L246,421L246,419L246,417L247,416L247,414L247,413L248,412L248,411L248,409L248,407L248,406L248,405L248,404L248,403L248,402L248,401L247,399L246,398L246,397L245,396L244,396L244,395L243,394L242,394L242,393L241,393L241,392" stroke-opacity="1" stroke-width="5" stroke-linecap="round" stroke-linejoin="round" style="-webkit-tap-highlight-color: rgba(0, 0, 0, 0); stroke-opacity: 1; stroke-linecap: round; stroke-linejoin: round; -webkit-user-select: text;"></path><path fill="none" stroke="#6c7e83" d="M239,401L242,397L244,397L246,396L250,394L255,391L260,387L265,384L271,380L277,377L283,374L289,370L296,367L302,363L309,359L316,355L323,350L329,346L336,342L343,337L349,333L356,329L362,325L369,321L376,317L382,314L388,310L394,307L400,304L406,301L411,298L417,294L422,292L427,290L433,287L438,284L443,282L448,279L452,277L457,274L460,272L464,270L468,268L471,266L475,265L477,263L480,262L483,260L485,260L486,259L487,258" stroke-opacity="1" stroke-width="5" stroke-linecap="round" stroke-linejoin="round" style="-webkit-tap-highlight-color: rgba(0, 0, 0, 0); stroke-opacity: 1; stroke-linecap: round; stroke-linejoin: round; -webkit-user-select: text;"></path><path fill="none" stroke="#6c7e83" d="M290,401L291,402L293,402L295,402L298,402L301,401L306,399L311,397L318,394L324,392L331,389L337,385L344,382L351,378L358,375L365,371L372,367L379,363L386,360L393,356L401,353L408,349L415,345L421,343L428,339L435,336L441,333L448,330L454,326L460,324L467,321L473,318L479,314L485,311L490,309L495,306L500,304L505,301L510,298L515,296L519,293L523,292L526,290L531,287L534,285L538,283L541,281L544,280L547,278L550,276L553,275L556,273L559,272L562,270L565,269L567,268L570,266L572,265L574,264L576,263L578,263L580,262L582,261L584,260L585,260L587,259L588,259L589,258L591,258L592,258L593,258L593,259L593,260L592,261L592,262L592,263L591,265L590,268L589,270L587,274L585,279L583,283L580,287L578,292L575,297L571,302L567,307L564,311L560,316L557,320L553,324L549,327L545,331L540,336L536,339L530,343L524,346L518,350L513,353L507,356L502,359L494,362L489,364L482,366L476,367L469,368L463,369L456,369L449,370L442,370L436,370L429,370L422,370L415,369L408,366L402,365L396,362L390,360L384,357L378,355L373,352L368,349L364,346L361,342L357,339L353,335L351,332L348,329L346,326L344,322L342,319L341,315L339,312L337,309L336,306L334,303L333,301L332,298L331,296L330,293L329,290L328,288L327,285L327,283L326,281L325,279L325,277L324,276L324,274L324,273L324,271L324,270L324,268L323,267L323,266L323,265L323,264L323,263L322,263" stroke-opacity="1" stroke-width="5" stroke-linecap="round" stroke-linejoin="round" style="-webkit-tap-highlight-color: rgba(0, 0, 0, 0); stroke-opacity: 1; stroke-linecap: round; stroke-linejoin: round; -webkit-user-select: text;"></path><path fill="none" stroke="#6c7e83" d="M366,250L366,253L366,255L367,257L368,259L370,262L372,265L374,267L376,270L378,273L381,277L384,280L387,283L390,287L392,290L396,293L399,295L402,298L405,301L409,303L412,305L416,307L420,308L425,310L430,311L434,312L439,312L444,313L448,314L453,314L458,314L461,314L466,314L470,314L475,314L479,314L483,314L487,313L491,311L495,310L499,309L503,307L507,305L511,303L514,301L517,299L521,297L524,294L526,292L528,290L530,287L532,285L534,283L536,280L537,278L538,276L540,274L541,272L542,270L543,268L544,266L545,264L545,262L546,260L547,258L547,257L548,255L548,253L548,252L549,251L549,249L550,248L550,247" stroke-opacity="1" stroke-width="5" stroke-linecap="round" stroke-linejoin="round" style="-webkit-tap-highlight-color: rgba(0, 0, 0, 0); stroke-opacity: 1; stroke-linecap: round; stroke-linejoin: round; -webkit-user-select: text;"></path><path fill="none" stroke="#6c7e83" d="M361,261L356,254L356,252L356,250L356,248L357,247L358,245L360,243L361,241L363,239L366,237L368,235L372,233L376,231L380,229L385,226L390,225L395,223L401,221L405,221L411,220L416,219L421,219L426,219L431,219L437,219L443,219L448,219L454,219L460,220L466,220L472,221L478,222L485,223L490,224L497,224L503,225L509,226L515,226L522,226L528,226L535,226L541,226L547,226L553,224L559,223L565,221L570,219L575,217L580,215L585,212L589,210L593,207L596,205L600,202L604,199L606,196L609,193L612,190L614,187L616,184L618,181L619,178L621,174L622,171L624,167L626,163L627,160L628,157L629,154L630,151L630,149L631,147L631,145L632,144L632,142L633,141L633,140L633,139L634,138L634,137L634,136L634,135L635,134L635,132L635,131L635,129L635,128L635,127L635,125L635,124L636,123L636,122L636,120L636,119L636,117L636,115L636,114L636,112L636,110L636,107L636,105L636,104L636,102L636,99L636,98L636,95L636,93L636,91L636,89L636,87L636,85L636,83L636,80L636,78L636,76L636,74L636,72L636,71L636,68L636,67L636,65L636,63L636,62L636,60L635,59L635,57L635,56L635,55L635,53L635,52L635,51L635,50L635,49L635,48L635,47L635,46L635,45L635,44L635,43L635,42L635,41L635,40L635,39L635,38L635,37L634,37" stroke-opacity="1" stroke-width="5" stroke-linecap="round" stroke-linejoin="round" style="-webkit-tap-highlight-color: rgba(0, 0, 0, 0); stroke-opacity: 1; stroke-linecap: round; stroke-linejoin: round; -webkit-user-select: text;"></path><path fill="none" stroke="#6c7e83" d="M694,46L694,50L694,52L694,55L694,58L694,61L694,65L694,69L694,74L694,78L694,83L693,87L693,91L692,95L691,99L690,103L688,107L686,111L685,114L683,117L680,120L678,123L676,125L673,128L670,130L667,132L664,134L661,136L658,137L654,139L650,140L647,141L643,142L638,144L634,144L630,146L625,146L621,147L616,148L611,149L606,149L599,149L593,150L585,151L577,151L570,152L562,153L554,153L545,154L538,155L531,156L522,156L515,157L506,158L497,158L489,160L481,161L472,162L466,163L458,165L450,167L443,169L437,171L431,173L425,175L420,178L415,180L410,182L406,184L401,186L397,188L393,190L390,192L386,195L383,197L379,200L375,202L372,204L369,207L366,209L363,212L360,214L358,216L355,217L353,219L350,222L348,224L346,226L344,229L341,232L340,234L338,237L336,239L334,241L333,243L332,246L331,247L329,249L329,251L328,252L327,253L326,255L325,256L325,258L324,259L324,260L323,261L323,262L323,263L325,263" stroke-opacity="1" stroke-width="5" stroke-linecap="round" stroke-linejoin="round" style="-webkit-tap-highlight-color: rgba(0, 0, 0, 0); stroke-opacity: 1; stroke-linecap: round; stroke-linejoin: round; -webkit-user-select: text;"></path><path fill="none" stroke="#6c7e83" d="M446,256L443,255L441,255L439,253L436,251L434,249L430,246L427,243L423,240L419,236L414,233L410,229L405,225L400,221L396,217L391,214L386,210L381,206L376,202L371,199L366,194L361,191L356,187L352,183L347,180L342,177L338,174L334,171L330,169L326,166L322,164L319,162L317,160L314,158L312,156L310,154L308,152L306,151L305,149L304,149L303,148L302,147L303,147" stroke-opacity="1" stroke-width="5" stroke-linecap="round" stroke-linejoin="round" style="-webkit-tap-highlight-color: rgba(0, 0, 0, 0); stroke-opacity: 1; stroke-linecap: round; stroke-linejoin: round; -webkit-user-select: text;"></path><path fill="none" stroke="#6c7e83" d="M357,144L361,146L364,146L367,149L371,151L376,154L380,157L385,161L391,165L396,168L400,172L406,176L410,179L415,183L419,187L424,190L429,194L433,197L437,201L441,204L446,208L450,211L454,214L458,217L462,220L465,223L468,225L472,228L475,231L478,233L481,235L484,237L487,239L489,241L492,242L494,244L497,246L499,247L501,248L503,249L504,250L505,250L506,251L507,251" stroke-opacity="1" stroke-width="5" stroke-linecap="round" stroke-linejoin="round" style="-webkit-tap-highlight-color: rgba(0, 0, 0, 0); stroke-opacity: 1; stroke-linecap: round; stroke-linejoin: round; -webkit-user-select: text;"></path><path fill="none" stroke="#6c7e83" d="M471,129L470,132L470,134L470,137L470,140L469,143L468,146L466,149L464,152L463,155L460,158L458,162L454,166L451,169L448,172L444,175L440,178L436,180L432,183L427,186L423,189L418,191L413,194L409,195L404,197L399,199L394,200L389,202L383,204L379,204L373,205L368,206L363,206L357,207L351,207L346,207L339,207L332,207L326,207L319,208L312,208L305,209L298,209L292,210L285,211L279,212L274,213L268,214L263,215L258,216L254,217L249,218L245,219L241,220L237,221L233,222L229,224L226,225L222,226L219,227L216,229L212,231L209,232L206,234L203,235L201,236L199,238L196,239L194,240L193,241L191,242L189,243L187,244L186,246L184,246L183,247L182,248L181,249L180,250L180,251" stroke-opacity="1" stroke-width="5" stroke-linecap="round" stroke-linejoin="round" style="-webkit-tap-highlight-color: rgba(0, 0, 0, 0); stroke-opacity: 1; stroke-linecap: round; stroke-linejoin: round; -webkit-user-select: text;"></path><path fill="none" stroke="#6c7e83" d="M399,141L395,143L394,144L392,146L390,147L387,149L385,151L382,153L379,156L375,158L372,159L368,161L363,163L359,164L353,165L348,167L342,168L336,169L330,171L324,172L317,173L311,175L304,176L297,178L290,179L284,181L278,183L271,184L263,185L257,187L251,189L243,191L236,193L230,195L223,197L217,199L211,201L206,203L202,206L198,208L193,211L190,213L186,215L183,217L180,219L178,222L175,224L173,226L171,229L169,232L167,235L165,237L164,240L162,243L161,245L159,247L158,250L157,252L156,254L155,257L154,260L154,262L153,265L152,267L152,269L151,270L151,272L150,273L149,274L149,275L149,274L149,273L150,271L152,270L153,269L155,269L158,268L161,268L164,268L168,268L172,268L176,267L181,267L187,266L193,266L198,265L205,264L210,263L217,262L222,260L228,258L234,255L240,253L245,250L250,247L254,244L258,241L262,238L264,235L267,231L270,228L272,224L275,221L277,217L278,213L280,209L281,205L283,202L283,197L284,194L285,190L285,187L285,183L285,180L285,175L285,171L285,167L285,163L285,159L284,156L283,151L282,147L281,143L279,139L278,135L276,132L273,128L271,124L269,120L267,117L265,112L263,109L261,106L259,102L257,99L255,96L254,93L253,90L251,87L250,83L249,80L249,77L248,74L247,71L246,68L246,66L246,63L245,60L245,57L245,55L245,53L245,51L245,48L245,46L245,43L245,40L245,38L245,35L245,33L246,30L246,28L246,26L247,24L247,22L248,20L248,19L248,18" stroke-opacity="1" stroke-width="5" stroke-linecap="round" stroke-linejoin="round" style="-webkit-tap-highlight-color: rgba(0, 0, 0, 0); stroke-opacity: 1; stroke-linecap: round; stroke-linejoin: round; -webkit-user-select: text;"></path><path fill="none" stroke="#6c7e83" d="M311,8L312,12L312,14L313,17L314,21L315,24L317,28L319,32L320,36L321,40L322,44L322,49L322,53L322,56L322,60L322,64L322,67L322,71L322,74L322,78L322,81L321,84L320,87L319,90L318,93L317,96L316,99L314,102L313,105L312,107L310,110L309,112L307,115L305,117L304,118L302,120L300,122L298,124L296,126L293,127L291,129L289,131L287,133L285,134L283,136L280,137L278,139L276,141L273,143L270,145L267,147L264,149L261,151L259,153L256,156L253,158L249,161L246,164L243,166L240,169L236,172L232,175L229,179L226,183L222,186L219,190L216,193L213,196L210,199L208,202L206,205L203,209L202,211L200,214L198,217L196,219L195,222L194,225L192,227L191,230L190,232L189,235L188,237L188,239L187,241L187,243L186,245L186,247L186,248L185,250L185,251L184,253L184,255L184,256L183,257L183,258L183,259L183,260L183,261L183,262" stroke-opacity="1" stroke-width="5" stroke-linecap="round" stroke-linejoin="round" style="-webkit-tap-highlight-color: rgba(0, 0, 0, 0); stroke-opacity: 1; stroke-linecap: round; stroke-linejoin: round; -webkit-user-select: text;"></path><path fill="none" stroke="#6c7e83" d="M382,363L385,369L387,372L390,375L394,380L398,386L402,391L407,397L411,403L415,409L420,415L425,421L430,428L435,434L439,440L443,446L448,452L452,458L456,464L460,469L463,474L467,480L470,485L474,491L477,496L481,501L484,506L487,511L490,517L493,523L497,529L500,534L504,540L508,546L511,552L515,557L519,563L522,569L525,574L528,579L531,583L534,587L537,591L539,595L541,598L543,601L545,605L548,608L550,611L552,615L554,618L557,621L559,625L561,628L564,631L566,635L568,638L570,641L572,644L575,647L577,650L578,652L580,655L582,657L584,659L585,661L587,663L588,665L589,667L591,668L592,669L592,664" stroke-opacity="1" stroke-width="5" stroke-linecap="round" stroke-linejoin="round" style="-webkit-tap-highlight-color: rgba(0, 0, 0, 0); stroke-opacity: 1; stroke-linecap: round; stroke-linejoin: round; -webkit-user-select: text;"></path><path fill="none" stroke="#6c7e83" d="M412,331L416,336L419,340L423,343L426,347L430,352L434,357L437,362L441,367L445,372L449,378L453,384L457,390L461,396L466,402L470,409L475,415L480,421L484,427L489,433L493,440L497,445L501,451L505,457L509,463L512,469L516,474L520,480L524,486L528,493L532,499L536,504L540,511L543,516L547,522L551,528L554,533L558,538L561,543L564,548L567,553L570,557L572,562L575,566L577,569L579,574L582,577L584,581L587,584L589,588L591,591L592,595L594,598L596,601L598,604L600,606L601,608L603,611L604,613L606,615L607,617L608,619L609,621L611,623L612,625L613,627L614,629L616,631L617,632L618,635L620,637L621,639L623,641L624,643L626,645L627,647L628,648L630,650L630,651L632,653L633,654L633,655L635,656L635,657L636,658L637,659L638,659L638,660L639,661L640,662L640,663L640,664L639,665L637,666L635,668L631,669L628,671L623,672L618,673L611,674L605,674L599,675L592,675L586,675L577,674L570,672L562,669L554,665L547,661L541,659L535,655L529,651L524,646L517,639L513,632L508,626L504,620L501,613L497,608L494,601L492,594L490,586L489,580L487,573L486,567L486,559L485,552L485,545L485,537L485,530L485,523L485,517L486,511L486,505L487,500L489,495L490,490L491,485L492,481L494,476L496,472L497,469L499,465L500,462L502,459L504,455L506,452L507,449L509,446L511,443L513,441L515,438L516,436L519,434L520,432L522,429L524,428L526,426L528,424L530,422L532,421L534,419L536,418L538,416L541,415L543,414L545,413L547,411L550,410L552,409L555,408L557,407L560,406L562,406L564,405L566,404L569,404L571,403L573,402L575,402L577,402L578,401L580,401L581,401L582,401L583,401L584,401" stroke-opacity="1" stroke-width="5" stroke-linecap="round" stroke-linejoin="round" style="-webkit-tap-highlight-color: rgba(0, 0, 0, 0); stroke-opacity: 1; stroke-linecap: round; stroke-linejoin: round; -webkit-user-select: text;"></path><path fill="none" stroke="#6c7e83" d="M647,401L645,403L643,403L640,403L637,405L632,407L627,409L621,412L616,415L610,417L604,421L598,424L593,428L587,432L582,436L577,440L573,444L569,448L565,452L560,458L558,462L554,467L551,472L548,477L546,483L544,489L542,494L540,500L539,505L537,511L536,516L536,521L535,526L535,531L535,536L535,542L535,547L535,552L535,557L535,562L536,568L537,573L538,578L540,582L541,587L543,591L545,596L548,601L550,606L552,611L554,615L557,620L562,626L568,634L575,641L581,647L588,652L596,656L604,659L611,664L618,668L625,672L630,674L635,677L638,678L641,680L643,681L644,681" stroke-opacity="1" stroke-width="5" stroke-linecap="round" stroke-linejoin="round" style="-webkit-tap-highlight-color: rgba(0, 0, 0, 0); stroke-opacity: 1; stroke-linecap: round; stroke-linejoin: round; -webkit-user-select: text;"></path><path fill="none" stroke="#6c7e83" d="M633,674L629,673L626,673L621,673L616,672L610,671L604,670L597,669L591,667L583,665L575,663L567,661L558,659L549,659L540,659L530,659L520,659L511,659L502,659L492,659L484,659L475,659L468,659L458,659L450,659L442,660L434,661L425,662L417,664L408,666L400,668L392,671L385,674L377,677L369,680L361,684L354,688L347,692L341,695L334,700L328,705L322,709L316,713L311,717L306,721L302,725L298,728L293,731L290,734L285,737L283,739L279,742L276,744L272,746L269,749L266,751L263,753L259,755L256,758L253,760L249,762L246,764L242,766L239,768L235,770L231,771L227,773L223,775L219,776L215,778L211,779L207,781L203,782L199,783L195,785L191,786L188,787L184,788L181,789L177,790L174,790L171,791L168,792L165,793L162,793L159,794L156,794L153,795L151,795L148,795L145,796L143,796L140,796L138,796L136,796L135,797L134,797L133,797L133,798" stroke-opacity="1" stroke-width="5" stroke-linecap="round" stroke-linejoin="round" style="-webkit-tap-highlight-color: rgba(0, 0, 0, 0); stroke-opacity: 1; stroke-linecap: round; stroke-linejoin: round; -webkit-user-select: text;"></path><path fill="none" stroke="#6c7e83" d="M130,753L128,745L130,742L133,740L137,737L141,734L145,731L149,728L154,725L158,722L161,721L166,719L170,717L174,716L178,715L183,713L187,712L191,710L195,709L200,708L204,707L209,706L213,705L218,704L223,703L229,702L234,701L238,701L243,700L247,700L251,700L255,700L259,699L263,699L266,698L270,698L273,697L276,696L279,695L282,694L285,693L288,692L291,691L294,690L297,689L300,688L303,687L305,686L308,685L311,684L314,683L317,682L320,681L323,680L326,679L328,678L331,678L334,677L337,677L340,677L344,677L347,677L351,677L354,677L358,677L362,677L366,677L370,677L374,677L378,677L382,677L386,678L390,679L394,681L398,681L402,683L405,684L409,685L412,686L415,688L419,689L421,691L425,692L429,694L432,695L435,697L438,698L441,700L445,702L448,704L452,705L456,707L460,709L463,710L467,712L471,713L475,715L478,716L482,717L486,719L490,720L493,721L497,722L501,724L504,725L508,726L511,727L515,728L519,729L522,730L526,732L529,733L532,734L535,735L538,736L541,737L544,738L547,739L550,741L553,742L556,743L559,744L561,744L564,745L566,746L569,747L570,748L572,749L573,749L575,749L576,750L577,750L578,750L579,750L580,750L581,750L583,749L584,747L585,746L587,745L588,743L590,741L592,739L594,736L596,734L598,731L601,729L603,727L605,725L607,722L609,721L611,719L612,716L615,714L617,711L619,709L621,707L623,705L625,703L627,701L628,700L630,698L632,696L633,694L635,693L636,691L638,688L640,686L641,684L643,678L657,659L674,641" stroke-opacity="1" stroke-width="5" stroke-linecap="round" stroke-linejoin="round" style="-webkit-tap-highlight-color: rgba(0, 0, 0, 0); stroke-opacity: 1; stroke-linecap: round; stroke-linejoin: round; -webkit-user-select: text;"></path></svg>