<svg height="906" version="1.1" width="768" xmlns="http://www.w3.org/2000/svg" xmlns:xlink="http://www.w3.org/1999/xlink" style="overflow: hidden; position: relative; -webkit-user-select: text;"><desc style="-webkit-tap-highlight-color: rgba(0, 0, 0, 0); -webkit-user-select: text;">Created with Raphaël 2.2.0</desc><defs style="-webkit-tap-highlight-color: rgba(0, 0, 0, 0); -webkit-user-select: text;"></defs><path fill="none" stroke="#6c7e83" d="M35,65L38,65L40,65L42,65L44,65L46,65L49,65L52,65L55,65L58,65L61,65L63,65L66,65L69,65L71,65L74,65L78,65L81,65L86,65L90,65L94,65L98,65L102,65L105,65L110,65L113,65L117,65L120,65L124,65L127,65L131,65L135,65L138,65L142,65L146,65L150,65L154,65L158,65L162,65L166,65L170,65L174,65L178,65L182,65L186,65L190,65L194,65L198,65L201,65L205,65L209,65L212,65L217,65L220,65L225,65L228,65L233,65L237,65L241,65L245,65L249,65L253,65L257,65L261,65L265,65L269,65L273,65L277,65L282,65L286,65L291,65L296,65L301,65L306,65L312,65L317,65L323,65L329,65L336,65L342,65L348,65L353,65L361,64L368,64L374,64L380,64L387,64L394,64L400,64L405,64L412,64L417,64L423,64L429,64L434,63L439,63L445,63L450,63L455,63L460,63L465,63L470,62L475,62L479,62L484,62L489,62L494,62L499,62L504,62L509,62L514,62L519,62L524,62L529,62L535,62L540,62L545,62L550,61L556,61L561,61L565,61L570,61L575,61L579,61L584,61L588,61L592,61L597,60L601,60L606,60L611,60L615,60L619,60L624,60L628,59L633,59L638,59L643,59L647,59L652,59L656,58L661,58L665,58L669,58L674,58L678,58L682,58L686,58L691,58L695,58L699,58L703,58L707,58L711,58L714,58L718,58L720,58L723,58L725,58L726,58L728,58L729,58L729,60" stroke-opacity="1" stroke-width="2" stroke-linecap="round" stroke-linejoin="round" style="-webkit-tap-highlight-color: rgba(0, 0, 0, 0); stroke-opacity: 1; stroke-linecap: round; stroke-linejoin: round; -webkit-user-select: text;"></path><path fill="none" stroke="#6c7e83" d="M40,100L42,100L45,100L48,100L52,100L57,100L62,100L67,100L73,100L80,100L85,100L91,100L97,100L102,100L108,101L113,101L119,101L125,101L130,102L135,102L141,102L146,102L152,102L157,102L161,102L167,102L172,102L177,102L183,102L188,102L194,102L200,102L207,102L213,102L220,102L227,102L234,102L241,102L248,102L255,102L261,102L268,102L275,102L282,102L288,102L295,102L302,102L308,102L315,102L322,102L329,102L336,102L343,102L350,102L357,102L363,102L370,102L377,102L384,102L390,102L397,102L405,102L412,102L420,102L427,102L435,102L443,103L452,103L459,103L468,104L476,104L484,104L494,104L501,104L509,104L517,104L524,104L532,105L539,105L546,105L553,105L560,105L565,106L572,106L577,107L584,107L589,107L594,108L600,108L606,108L612,109L618,109L625,109L632,109L639,109L645,109L652,109L659,110L665,110L671,110L677,110L683,110L688,110L694,110L698,110L703,110L706,110L710,110L713,110L716,110L718,110L720,110L723,110L724,110L726,110L727,110L728,110L730,110L731,110L731,111" stroke-opacity="1" stroke-width="2" stroke-linecap="round" stroke-linejoin="round" style="-webkit-tap-highlight-color: rgba(0, 0, 0, 0); stroke-opacity: 1; stroke-linecap: round; stroke-linejoin: round; -webkit-user-select: text;"></path><path fill="none" stroke="#6c7e83" d="M42,152L41,151L42,151L45,151L47,151L50,151L54,151L59,151L64,151L69,151L74,151L79,151L86,151L91,151L98,151L104,151L110,151L117,151L124,151L131,152L138,152L146,153L153,153L161,153L169,154L176,154L184,154L192,154L200,154L208,154L217,154L225,154L233,154L242,154L250,154L258,154L266,154L273,154L281,154L289,154L296,154L304,154L311,154L318,154L325,154L332,154L339,154L346,154L352,154L358,154L365,154L372,154L379,154L386,154L392,154L399,154L405,154L412,154L418,154L424,154L430,154L436,154L443,154L449,154L455,154L462,154L468,154L473,154L480,154L486,154L492,154L498,154L505,154L511,154L517,154L524,154L531,154L537,154L543,154L549,154L555,154L561,154L566,154L572,154L577,154L582,154L587,155L591,155L596,155L601,155L605,155L611,155L615,155L621,155L626,155L631,155L636,155L641,155L646,155L652,155L656,155L662,155L667,155L672,155L677,155L682,155L686,155L691,155L695,155L699,155L703,155L706,155L709,155L712,155L714,155L716,155L718,155L720,155L722,155L723,155L724,155L724,156" stroke-opacity="1" stroke-width="2" stroke-linecap="round" stroke-linejoin="round" style="-webkit-tap-highlight-color: rgba(0, 0, 0, 0); stroke-opacity: 1; stroke-linecap: round; stroke-linejoin: round; -webkit-user-select: text;"></path><path fill="none" stroke="#6c7e83" d="M42,202L40,200L41,200L43,200L46,200L50,200L54,200L59,200L66,200L72,200L79,200L86,200L93,200L100,200L106,200L113,200L120,200L126,200L132,200L140,200L147,200L154,200L162,200L170,200L178,200L185,200L193,200L201,200L208,200L216,200L223,200L230,201L237,201L244,201L251,201L258,202L265,202L272,202L279,202L286,202L293,202L300,202L307,202L315,202L322,202L330,202L337,202L345,202L353,202L360,203L368,203L375,203L383,204L390,204L398,204L405,204L413,204L421,204L429,204L437,204L445,204L453,204L461,204L468,204L476,204L483,204L491,204L497,204L504,204L511,204L518,204L524,204L530,204L536,204L541,204L548,204L553,204L560,204L565,204L571,204L577,204L583,204L588,203L594,203L599,203L605,203L610,203L616,203L621,203L627,203L632,203L638,203L643,203L649,203L654,203L659,203L664,203L669,203L674,203L679,203L684,203L689,203L693,203L696,203L700,203L703,203L706,203L709,203L711,203L714,203L716,203L718,203L720,203L721,203L722,203L723,203L724,203" stroke-opacity="1" stroke-width="2" stroke-linecap="round" stroke-linejoin="round" style="-webkit-tap-highlight-color: rgba(0, 0, 0, 0); stroke-opacity: 1; stroke-linecap: round; stroke-linejoin: round; -webkit-user-select: text;"></path><path fill="none" stroke="#6c7e83" d="M33,258L38,256L40,256L43,256L46,256L50,256L54,256L59,256L64,256L69,256L74,256L79,256L85,256L91,256L97,256L104,256L111,256L118,256L125,256L132,256L139,256L145,256L152,256L157,256L163,256L169,256L175,256L181,256L186,256L192,256L198,256L205,256L211,256L219,256L226,256L234,256L242,256L250,256L258,256L267,256L276,256L285,256L294,256L302,256L311,256L320,256L328,256L337,256L345,256L353,256L361,256L369,256L377,256L384,256L391,256L397,256L404,256L410,256L417,256L422,257L429,257L435,257L441,257L447,257L453,257L458,257L464,257L470,257L476,257L482,257L488,257L494,257L499,257L505,257L510,257L516,257L521,257L526,256L531,256L536,256L541,256L546,255L550,255L555,255L560,255L566,254L571,254L577,254L582,254L587,254L592,253L597,253L603,253L608,252L613,251L618,251L623,251L628,251L633,250L638,250L643,250L649,250L653,250L658,250L663,250L667,250L671,250L675,250L679,250L683,250L686,250L690,250L693,250L696,250L699,250L702,250L704,250L707,250L709,250L711,250L712,250L713,250L714,250L708,252" stroke-opacity="1" stroke-width="2" stroke-linecap="round" stroke-linejoin="round" style="-webkit-tap-highlight-color: rgba(0, 0, 0, 0); stroke-opacity: 1; stroke-linecap: round; stroke-linejoin: round; -webkit-user-select: text;"></path><path fill="none" stroke="#6c7e83" d="M39,304L41,304L43,304L45,304L48,304L52,304L57,305L62,305L68,305L75,306L83,306L91,306L98,306L107,306L115,306L125,306L134,306L143,306L151,306L159,306L169,306L178,306L187,306L196,306L205,306L215,306L224,306L234,306L244,306L254,306L263,306L272,306L280,306L288,306L296,306L304,306L311,306L319,306L326,306L333,306L341,306L349,306L356,306L364,306L373,305L380,305L389,305L397,305L405,304L413,304L421,304L428,304L435,304L442,304L448,304L455,304L460,304L467,304L472,304L478,304L484,304L491,304L496,304L502,304L508,304L514,304L520,304L527,304L533,304L538,304L545,304L552,304L558,304L565,304L571,304L578,304L584,304L590,304L597,304L602,304L609,304L614,304L620,304L626,304L631,304L636,304L641,304L646,304L651,304L655,304L660,304L664,304L668,304L672,304L676,304L680,304L684,304L688,304L692,304L696,304L699,304L703,304L706,304L708,304L710,304L711,304L713,304L714,304" stroke-opacity="1" stroke-width="2" stroke-linecap="round" stroke-linejoin="round" style="-webkit-tap-highlight-color: rgba(0, 0, 0, 0); stroke-opacity: 1; stroke-linecap: round; stroke-linejoin: round; -webkit-user-select: text;"></path><path fill="none" stroke="#6c7e83" d="M23,353L25,354L29,354L33,354L38,354L45,354L52,354L60,354L69,354L78,354L86,354L93,355L102,355L110,355L118,356L125,356L134,356L142,356L150,356L160,356L169,356L178,356L187,356L196,356L206,356L216,356L226,356L237,356L247,356L258,356L268,356L278,356L288,356L299,356L310,356L321,356L332,356L344,356L355,356L366,356L377,356L387,356L397,356L406,356L413,356L421,356L429,356L436,356L443,356L449,356L456,355L463,355L471,355L478,354L485,353L493,353L501,353L508,353L516,353L524,353L531,352L539,352L546,352L553,352L560,352L566,352L573,352L580,352L586,352L592,352L597,352L602,352L607,352L612,352L616,352L621,352L626,352L630,352L635,352L639,352L643,351L648,351L652,351L657,351L661,350L665,350L669,350L674,350L677,350L682,350L685,350L689,350L692,350L696,350L699,350L702,350L705,350L708,350L711,350L714,350L716,350L719,350L721,350L723,350L724,350L725,350L726,350" stroke-opacity="1" stroke-width="2" stroke-linecap="round" stroke-linejoin="round" style="-webkit-tap-highlight-color: rgba(0, 0, 0, 0); stroke-opacity: 1; stroke-linecap: round; stroke-linejoin: round; -webkit-user-select: text;"></path><path fill="none" stroke="#6c7e83" d="M22,413L25,413L28,413L32,413L36,413L40,413L45,413L51,413L57,413L64,413L71,413L79,413L86,413L93,413L101,413L109,413L116,413L124,413L132,413L141,413L149,413L157,413L165,413L173,413L181,413L190,413L198,413L208,413L217,413L225,413L233,413L243,413L251,413L260,413L269,413L278,413L287,413L296,413L305,413L314,413L324,413L333,414L342,414L351,414L360,414L369,414L377,414L385,414L393,414L401,414L408,414L416,414L424,414L431,414L438,414L446,414L453,414L460,414L466,414L473,414L480,414L487,414L494,414L500,414L507,414L514,414L521,414L528,413L536,413L542,413L548,413L554,413L561,413L566,413L573,413L579,412L585,412L591,412L597,412L604,412L609,412L614,411L620,411L626,411L630,411L636,411L642,411L647,411L652,411L657,411L662,410L667,410L672,410L676,409L680,409L684,409L689,409L692,409L696,408L700,408L703,408L707,408L710,408L713,408L716,408L718,408L720,408L723,407L725,407L727,407L729,407L730,407L731,407L732,407" stroke-opacity="1" stroke-width="2" stroke-linecap="round" stroke-linejoin="round" style="-webkit-tap-highlight-color: rgba(0, 0, 0, 0); stroke-opacity: 1; stroke-linecap: round; stroke-linejoin: round; -webkit-user-select: text;"></path><path fill="none" stroke="#6c7e83" d="M28,475L30,473L32,473L35,473L38,473L42,474L45,474L50,474L57,475L62,475L68,475L75,476L82,476L89,476L94,476L102,476L109,477L115,477L121,477L128,477L135,477L142,477L149,477L156,477L163,477L170,477L177,477L184,477L191,477L198,477L205,477L213,477L221,477L229,477L237,477L245,477L253,477L263,477L271,477L279,477L289,478L298,478L307,478L317,478L325,478L334,478L343,478L350,478L358,478L368,478L375,478L383,478L392,478L400,478L408,478L417,478L425,478L433,478L442,478L451,478L458,478L466,478L476,478L483,478L493,478L502,478L509,478L518,478L528,478L535,478L543,478L550,478L558,478L566,478L574,478L581,478L588,478L594,478L601,477L608,477L614,477L621,477L627,477L632,477L638,477L643,477L647,477L651,477L655,477L660,476L663,476L667,476L671,476L674,476L678,476L682,476L686,476L690,476L694,476L697,476L701,476L703,476L707,475L710,475L713,475L716,475L718,475L720,475L723,475L725,475L726,475" stroke-opacity="1" stroke-width="2" stroke-linecap="round" stroke-linejoin="round" style="-webkit-tap-highlight-color: rgba(0, 0, 0, 0); stroke-opacity: 1; stroke-linecap: round; stroke-linejoin: round; -webkit-user-select: text;"></path><path fill="none" stroke="#6c7e83" d="M29,530L31,528L33,528L36,528L39,528L42,528L46,529L51,529L57,529L63,529L70,530L77,530L85,530L92,530L99,530L106,530L113,530L120,530L127,530L135,530L142,531L149,531L158,531L167,531L174,532L185,532L194,532L204,532L214,532L224,532L234,532L244,532L254,532L265,532L275,532L284,532L293,532L302,532L311,532L320,532L328,532L336,532L345,532L353,532L360,532L369,532L377,532L385,532L394,532L402,532L409,532L419,532L426,532L435,532L443,532L451,532L458,532L466,532L473,532L481,532L488,532L496,532L503,532L510,532L517,532L524,532L531,532L537,532L543,532L550,532L557,532L563,531L570,531L577,530L584,530L589,530L596,530L603,530L610,530L616,529L623,529L630,529L636,529L642,529L647,529L652,529L657,529L662,529L667,529L671,529L675,529L680,529L684,529L687,529L691,529L694,529L698,529L701,529L704,529L707,529L710,529L713,529L716,529L718,529L720,529L721,529L722,528L722,527" stroke-opacity="1" stroke-width="2" stroke-linecap="round" stroke-linejoin="round" style="-webkit-tap-highlight-color: rgba(0, 0, 0, 0); stroke-opacity: 1; stroke-linecap: round; stroke-linejoin: round; -webkit-user-select: text;"></path><path fill="none" stroke="#6c7e83" d="M37,582L46,586L47,586L50,586L52,587L55,588L59,588L63,589L67,590L72,590L79,591L86,591L93,591L101,591L110,591L118,591L127,591L135,591L143,591L150,591L157,591L165,591L172,590L181,590L190,589L198,588L208,588L217,588L226,587L235,587L245,587L254,587L263,587L273,587L280,587L290,587L298,587L306,587L314,587L324,587L331,587L341,587L349,587L357,587L366,587L375,587L384,587L394,587L403,587L411,587L420,586L427,586L435,586L442,586L450,586L457,586L464,586L471,586L478,586L485,586L492,586L500,586L507,586L514,586L521,586L529,586L536,586L543,586L550,586L557,586L564,586L570,586L577,586L584,586L589,586L596,586L603,586L609,586L615,586L622,586L628,586L635,586L640,586L646,586L652,586L657,586L663,586L668,586L672,586L677,586L681,586L686,586L690,586L694,586L698,586L701,586L705,586L708,586L712,586L715,586L718,586L720,586L722,586L724,586L725,586" stroke-opacity="1" stroke-width="2" stroke-linecap="round" stroke-linejoin="round" style="-webkit-tap-highlight-color: rgba(0, 0, 0, 0); stroke-opacity: 1; stroke-linecap: round; stroke-linejoin: round; -webkit-user-select: text;"></path><path fill="none" stroke="#6c7e83" d="M35,656L38,654L41,654L44,654L48,654L54,655L60,655L65,656L73,656L80,656L88,656L95,656L103,656L111,656L119,656L128,656L137,656L144,656L154,656L163,656L171,656L180,656L190,656L199,656L208,656L219,656L229,655L239,655L250,654L261,654L271,654L282,654L292,654L302,654L312,654L322,654L330,653L339,653L349,653L357,653L366,653L375,653L385,652L394,652L404,652L413,652L423,651L432,651L441,650L451,650L460,650L467,649L475,649L484,649L492,649L499,649L507,649L515,649L523,649L530,649L538,649L545,649L553,649L561,649L569,649L577,649L584,649L592,649L600,649L608,649L615,649L622,649L629,649L635,649L642,649L647,649L653,649L659,649L664,649L669,648L674,648L678,647L683,647L687,647L692,646L696,646L700,645L704,645L707,645L711,645L713,645L716,644L718,644L720,644L721,644L722,643" stroke-opacity="1" stroke-width="2" stroke-linecap="round" stroke-linejoin="round" style="-webkit-tap-highlight-color: rgba(0, 0, 0, 0); stroke-opacity: 1; stroke-linecap: round; stroke-linejoin: round; -webkit-user-select: text;"></path><path fill="none" stroke="#6c7e83" d="M33,705L35,707L37,707L41,707L46,707L52,708L59,708L67,709L74,709L81,710L88,710L94,710L101,711L108,711L115,711L120,711L127,712L135,712L142,712L150,712L160,712L168,712L176,712L186,712L194,712L202,712L212,712L222,712L230,712L239,712L247,712L255,712L264,712L273,712L280,712L290,712L300,712L310,712L321,712L331,712L341,711L351,711L358,711L367,710L375,710L383,710L392,710L400,710L407,710L415,709L423,709L431,709L438,709L446,709L453,709L460,709L468,709L476,709L483,709L490,709L497,709L504,709L511,709L518,709L524,709L531,709L537,709L544,708L550,708L557,708L562,708L570,708L576,708L583,708L589,708L596,708L602,708L608,708L613,708L619,708L625,708L630,708L636,708L641,708L646,708L652,708L657,708L662,708L667,708L671,708L676,708L681,708L685,708L689,708L694,708L697,708L701,708L704,708L707,708L709,708L712,708L713,708L715,708" stroke-opacity="1" stroke-width="2" stroke-linecap="round" stroke-linejoin="round" style="-webkit-tap-highlight-color: rgba(0, 0, 0, 0); stroke-opacity: 1; stroke-linecap: round; stroke-linejoin: round; -webkit-user-select: text;"></path><path fill="none" stroke="#6c7e83" d="M29,779L33,781L35,781L39,781L42,782L47,783L54,784L60,785L67,785L74,786L83,786L90,787L98,787L105,787L113,787L120,788L128,788L136,788L144,788L152,788L162,788L169,788L177,788L187,788L194,788L203,788L212,788L219,788L227,788L235,788L243,788L251,788L259,788L267,788L275,788L283,788L290,788L298,788L306,788L314,788L322,788L329,788L336,788L344,788L352,788L360,788L369,788L377,788L385,788L392,788L400,788L408,788L416,788L424,788L431,788L439,788L447,788L455,788L463,788L472,788L480,789L487,789L497,790L504,790L511,790L519,791L527,791L535,792L543,792L550,793L559,793L567,793L576,793L584,793L592,794L600,794L608,794L616,795L624,795L632,795L640,795L647,796L654,796L661,796L667,796L674,796L680,796L685,796L691,796L696,796L701,796L706,797L711,797L716,797L719,797L723,797L726,797L730,797L732,797L734,797L735,797L736,797L735,797" stroke-opacity="1" stroke-width="2" stroke-linecap="round" stroke-linejoin="round" style="-webkit-tap-highlight-color: rgba(0, 0, 0, 0); stroke-opacity: 1; stroke-linecap: round; stroke-linejoin: round; -webkit-user-select: text;"></path><path fill="none" stroke="#6c7e83" d="M28,835L33,834L37,834L40,834L44,834L50,835L56,836L63,837L69,839L76,840L84,841L91,842L98,843L108,844L115,844L123,844L133,844L142,844L151,844L161,844L170,844L180,844L189,844L197,844L207,844L216,844L223,844L233,844L243,844L251,844L261,844L271,844L280,844L289,844L299,844L309,845L318,845L328,845L337,846L347,846L356,846L366,846L377,846L387,846L397,846L406,846L416,847L425,847L435,848L444,848L454,849L463,849L471,849L481,850L490,851L499,851L509,852L518,852L528,853L537,854L547,855L557,856L567,856L576,856L585,857L592,858L600,858L609,859L616,859L623,860L631,861L639,861L646,861L654,862L661,862L667,863L674,863L680,863L685,864L691,864L696,864L701,865L705,865L709,865L713,866L718,866L722,866L725,866L729,866L732,866L735,867L737,867L740,867L742,867L744,867L745,867L746,867L747,867L748,867L748,864" stroke-opacity="1" stroke-width="2" stroke-linecap="round" stroke-linejoin="round" style="-webkit-tap-highlight-color: rgba(0, 0, 0, 0); stroke-opacity: 1; stroke-linecap: round; stroke-linejoin: round; -webkit-user-select: text;"></path><path fill="none" stroke="#6c7e83" d="M339,419L338,416L338,415L337,412L337,410L336,407L335,404L334,401L333,399L331,396L330,392L329,389L327,386L326,382L325,379L324,377L323,374L322,371L321,369L320,366L319,363L319,361L318,358L317,355L316,353L315,349L314,346L312,343L311,340L310,337L309,333L307,330L307,327L305,324L305,320L304,317L303,314L302,312L301,309L300,307L300,305L299,302L298,300L298,298L297,296L297,294L296,292L295,290L295,287L294,285L294,284L293,282L293,280L293,278L293,277L293,275L292,274L292,272L292,271L291,270L291,269" stroke-opacity="1" stroke-width="2" stroke-linecap="round" stroke-linejoin="round" style="-webkit-tap-highlight-color: rgba(0, 0, 0, 0); stroke-opacity: 1; stroke-linecap: round; stroke-linejoin: round; -webkit-user-select: text;"></path><path fill="none" stroke="#6c7e83" d="M361,255L363,256L363,258L363,260L363,263L363,265L363,268L363,271L363,274L363,277L362,280L361,284L360,287L359,291L358,294L356,297L355,301L353,304L352,308L350,311L349,314L347,317L345,320L344,322L342,325L340,327L338,329L336,331L333,333L331,336L328,338L325,340L322,341L319,343L317,344L314,345L311,346L308,347L305,347L302,348L300,348L297,348L295,348L292,348L289,348L286,348L284,348L281,348L278,348L276,348L273,348L270,347L268,345L265,345L263,343L260,342L258,341L255,339L253,337L250,336L248,334L245,332L242,330L240,327L237,325L235,323L232,321L231,319L229,316L227,314L225,312L223,310L222,309L220,307L219,305L217,303L216,301L215,299L213,297L212,296L211,294L210,292L209,290L208,289L207,287L205,286L205,284L204,282L203,281L202,279L202,277L201,276L200,275L200,274L200,273L199,271L199,270L198,269L198,268L198,267L197,267" stroke-opacity="1" stroke-width="2" stroke-linecap="round" stroke-linejoin="round" style="-webkit-tap-highlight-color: rgba(0, 0, 0, 0); stroke-opacity: 1; stroke-linecap: round; stroke-linejoin: round; -webkit-user-select: text;"></path><path fill="none" stroke="#6c7e83" d="M232,252L237,252L239,252L240,253L242,254L244,256L246,258L249,260L250,263L252,265L254,268L255,270L256,274L258,277L259,280L260,284L261,287L261,291L262,294L262,298L262,301L262,305L262,309L262,313L262,317L262,321L261,325L261,329L260,333L259,337L258,341L257,345L256,348L256,352L255,356L254,360L253,365L252,369L251,372L251,376L250,379L250,383L249,387L249,390L249,394L249,398L249,401L249,404L249,407L249,410L250,413L251,416L252,418L254,421L255,423L256,425L258,427L260,428L261,430L263,432L264,433L266,435L268,437L270,438L272,440L274,441L276,443L278,444L280,445L282,446L284,447L286,448L288,449L291,450L293,451L296,452L298,452L301,453L303,453L305,454L308,454L310,455L313,455L316,455L319,455L322,455L325,455L328,455L330,455L333,455L336,455L338,455L341,454L343,453L345,452L347,451L349,450L351,448L352,447L354,445L355,445L356,443L358,442L359,441L360,440L361,439L362,438L363,437L364,435L365,434L366,433L367,432L368,431L369,429L370,428L371,427L372,426L372,425L373,425L373,424L373,423" stroke-opacity="1" stroke-width="2" stroke-linecap="round" stroke-linejoin="round" style="-webkit-tap-highlight-color: rgba(0, 0, 0, 0); stroke-opacity: 1; stroke-linecap: round; stroke-linejoin: round; -webkit-user-select: text;"></path><path fill="none" stroke="#6c7e83" d="M407,423L405,423L405,424L404,426L402,428L400,430L398,433L395,435L393,438L391,440L388,443L386,445L384,448L383,450L380,452L378,455L375,457L373,460L371,462L369,465L366,467L364,469L362,472L360,474L358,477L356,480L353,483L351,486L349,489L347,491L345,494L343,496L341,499L339,502L337,504L336,506L334,508L332,511L331,512L329,514L328,516L327,517L326,519L324,520L323,522L322,523L321,524L320,525L319,526L319,528L318,528L317,529L317,530L316,530L316,528" stroke-opacity="1" stroke-width="2" stroke-linecap="round" stroke-linejoin="round" style="-webkit-tap-highlight-color: rgba(0, 0, 0, 0); stroke-opacity: 1; stroke-linecap: round; stroke-linejoin: round; -webkit-user-select: text;"></path><path fill="none" stroke="#6c7e83" d="M310,428L319,425L323,423L328,422L332,421L336,420L340,420L345,420L350,420L354,420L360,420L366,421L370,423L375,425L380,428L384,431L387,434L391,438L395,442L398,446L400,450L403,455L405,458L407,462L408,466L410,470L411,474L412,478L412,481L413,484L413,487L414,490L414,493L414,496L414,499L414,501L414,503L413,506L412,507L412,509L411,511L410,513L409,515L408,516L407,518L406,519L404,521L403,522L402,523L402,525L401,526L400,527L399,528L399,529L398,530L396,530" stroke-opacity="1" stroke-width="2" stroke-linecap="round" stroke-linejoin="round" style="-webkit-tap-highlight-color: rgba(0, 0, 0, 0); stroke-opacity: 1; stroke-linecap: round; stroke-linejoin: round; -webkit-user-select: text;"></path><path fill="none" stroke="#6c7e83" d="M378,532L373,533L373,530L372,527L372,524L372,521L372,519L372,516L372,513L375,509L379,505L383,501L387,498L390,496L394,493L398,492L403,491L407,490L412,489L418,489L422,489L427,489L432,489L436,489L441,489L445,489L449,491L453,492L457,494L461,495L465,496L468,497L472,498L475,499L479,499L483,500L486,501L490,501L494,501L497,501L501,502L505,502L509,502L512,502L516,502L520,502L523,501L526,500L530,499L534,498L538,496L541,494L545,492L548,490L551,488L554,486L556,484L559,482L561,479L563,477L565,474L567,472L568,469L570,465L571,462L573,459L574,455L575,451L576,448L577,444L577,440L578,436L578,432L578,429L578,425L578,421L578,418L578,414L577,411L575,407L574,404L572,401L570,398L567,396L565,393L563,391L561,389L559,387L557,384L555,382L552,380L550,379L548,377L546,375L544,374L543,373L541,372L539,370L538,369L536,368L534,367L533,365L531,365L530,364L528,363L528,362L527,362" stroke-opacity="1" stroke-width="2" stroke-linecap="round" stroke-linejoin="round" style="-webkit-tap-highlight-color: rgba(0, 0, 0, 0); stroke-opacity: 1; stroke-linecap: round; stroke-linejoin: round; -webkit-user-select: text;"></path><path fill="none" stroke="#6c7e83" d="M468,351L467,350L470,350L474,353L478,355L483,359L488,362L492,366L497,370L502,373L506,376L510,380L514,384L518,387L521,391L525,395L529,398L533,401L537,405L541,409L545,412L549,415L553,418L557,421L561,424L564,427L568,430L571,433L575,436L577,438L581,441L584,444L587,447L590,449L592,452L595,454L598,456L600,458L602,460L604,462L606,464L607,466L609,467L611,469L612,470L613,471L614,472L616,473L616,474L617,475L618,476L619,476L620,476L623,476" stroke-opacity="1" stroke-width="2" stroke-linecap="round" stroke-linejoin="round" style="-webkit-tap-highlight-color: rgba(0, 0, 0, 0); stroke-opacity: 1; stroke-linecap: round; stroke-linejoin: round; -webkit-user-select: text;"></path><path fill="none" stroke="#6c7e83" d="M626,352L616,345L611,344L607,343L602,343L596,343L590,343L583,345L577,347L572,350L567,353L562,356L558,360L554,363L549,367L545,371L541,375L537,381L534,385L531,390L528,394L526,399L524,404L521,408L519,412L518,416L516,420L515,423L514,427L513,431L512,435L511,438L511,442L511,445L511,448L511,451L511,454L511,457L511,460L511,463L511,467L511,469L511,472L511,474L511,477L511,479L512,482L512,484L514,486L514,489L515,491L516,492L517,494L518,496L519,497L520,499L521,501L522,503L524,504L525,506L526,508L527,509L528,511L530,512L531,514L533,516L534,517L536,518L537,520L538,521L540,522L541,523L542,525L543,525L545,527L546,528L548,529L549,530L551,532L553,533L557,534" stroke-opacity="1" stroke-width="2" stroke-linecap="round" stroke-linejoin="round" style="-webkit-tap-highlight-color: rgba(0, 0, 0, 0); stroke-opacity: 1; stroke-linecap: round; stroke-linejoin: round; -webkit-user-select: text;"></path><path fill="none" stroke="#6c7e83" d="M637,471L630,467L623,467L616,465L609,465L599,465L589,465L580,466L572,468L565,471L558,474L553,477L547,481L543,484L538,488L535,491L531,495L527,499L523,503L519,506L514,509L511,512L508,515L504,517L502,520L498,522L495,525L492,528L490,531L487,534L484,537L481,540L479,543L476,546L473,549L471,552L468,554L466,557L464,561L461,564L459,567L456,570L453,574L450,577L447,580L444,584L441,587L438,590L434,593L431,596L428,600L425,603L421,606L418,610L415,613L411,615L407,618L404,621L400,624L396,626L392,629L388,631L385,632L380,635L377,636L373,637L370,638L367,639L363,640L360,640L356,641L353,642L349,642L345,642L341,643L336,643L333,643L329,643L325,643L322,643L318,643L314,643L311,643L307,642L304,640L300,639L297,637L294,635L290,634L288,632L285,630L282,628L280,627L277,625L275,623L272,620L270,618L268,616L266,614L263,612L262,609L260,607L259,605L257,603L256,601L255,598L254,597L254,595L253,593" stroke-opacity="1" stroke-width="2" stroke-linecap="round" stroke-linejoin="round" style="-webkit-tap-highlight-color: rgba(0, 0, 0, 0); stroke-opacity: 1; stroke-linecap: round; stroke-linejoin: round; -webkit-user-select: text;"></path><path fill="none" stroke="#6c7e83" d="M244,570L251,572L256,573L262,576L269,579L276,582L285,586L295,590L305,594L315,598L325,602L335,606L345,610L354,615L363,619L370,622L378,626L386,630L394,633L401,637L407,640L412,642L418,645L423,647L429,649L434,651L438,653L443,655L447,657L451,659L455,660L459,662L463,664L468,666L472,667L476,669L480,671L485,673L489,675L493,676L497,678L501,680L505,682L509,684L512,686L516,687L519,689L522,691L526,692L529,693L532,695L536,695L538,697L541,698L544,699L547,700L550,702L552,703L555,704L557,705L559,706L561,706L562,707L565,707L566,707" stroke-opacity="1" stroke-width="2" stroke-linecap="round" stroke-linejoin="round" style="-webkit-tap-highlight-color: rgba(0, 0, 0, 0); stroke-opacity: 1; stroke-linecap: round; stroke-linejoin: round; -webkit-user-select: text;"></path><path fill="none" stroke="#6c7e83" d="M403,709L392,709L390,709L388,709L386,709L384,708L382,705L380,701L378,696L375,688L374,683L373,678L373,672L372,667L372,663L372,659L372,654L373,650L375,646L378,642L380,637L383,634L385,630L388,626L391,622L395,618L398,613L402,608L404,604L408,601L411,596L415,593L419,589L423,586L427,582L431,578L436,575L439,572L443,570L446,568L451,565L455,563L458,561L462,559L466,557L470,555L473,554L476,552L480,551L483,550L486,549L490,548L492,547L495,546L498,545L500,545L503,544L504,543L506,542L507,542L508,542" stroke-opacity="1" stroke-width="2" stroke-linecap="round" stroke-linejoin="round" style="-webkit-tap-highlight-color: rgba(0, 0, 0, 0); stroke-opacity: 1; stroke-linecap: round; stroke-linejoin: round; -webkit-user-select: text;"></path><path fill="none" stroke="#6c7e83" d="M530,532L533,536L533,540L533,544L533,548L532,554L531,560L530,567L529,574L528,580L526,588L523,595L519,602L515,608L511,614L507,620L502,625L497,630L492,634L488,637L483,640L478,643L474,645L469,647L465,648L460,648L456,649L452,649L449,649L445,649L442,648L438,647L434,644L431,642L427,639L423,636L420,633L416,630L414,627L410,625L407,621L404,617L402,613L399,609L397,606L395,603L392,599L390,596L389,593L387,589L385,586L384,583L382,579L380,576L379,572L377,569L376,565L374,562L373,558L371,554L369,551L367,548L366,545L364,542L362,540L361,537L359,534L358,531L356,528L354,525L352,522L350,519L348,516L346,514L344,511L341,508L339,506L336,503L334,501L331,498L328,496L325,494L322,492L319,490L316,488L312,486L310,485L307,483L304,482L300,482L298,481L294,480L291,479L288,479L285,479L282,479L278,479L276,479L273,479L270,479L267,479L265,479L262,479L259,480L257,481L254,482L253,482L251,483L249,484L247,485L243,486" stroke-opacity="1" stroke-width="2" stroke-linecap="round" stroke-linejoin="round" style="-webkit-tap-highlight-color: rgba(0, 0, 0, 0); stroke-opacity: 1; stroke-linecap: round; stroke-linejoin: round; -webkit-user-select: text;"></path><path fill="none" stroke="#6c7e83" d="M212,467L213,471L216,474L219,478L224,483L229,489L236,495L243,502L249,508L256,514L263,520L270,525L276,530L283,536L289,541L295,547L300,552L305,557L310,561L315,566L320,570L324,574L329,578L333,582L337,586L341,589L345,593L349,596L352,599L355,602L358,605L362,608L365,610L368,613L370,616L374,619L377,622L380,625L382,627L385,630L388,633L391,635L393,638L396,641L399,644L401,647L404,649L406,652L408,654L410,656L412,657L413,658L414,659L415,659L416,660L417,660L418,657" stroke-opacity="1" stroke-width="2" stroke-linecap="round" stroke-linejoin="round" style="-webkit-tap-highlight-color: rgba(0, 0, 0, 0); stroke-opacity: 1; stroke-linecap: round; stroke-linejoin: round; -webkit-user-select: text;"></path><path fill="none" stroke="#6c7e83" d="M449,473L450,477L450,481L447,489L444,496L441,504L438,512L436,520L433,528L430,534L426,541L423,547L419,554L415,559L411,565L407,571L402,576L398,581L392,585L386,590L380,594L374,598L368,603L361,606L356,608L348,610L342,612L335,614L328,615L321,617L314,618L308,619L302,620L297,621L291,623L285,624L280,625L275,626L270,627L265,629L261,630L256,630L252,631L248,632L244,632L241,633L237,633L233,634L230,634L227,634L224,634L221,634L217,634L214,634L211,634L208,634L205,634L202,634L198,634L195,634L192,634L189,633L186,633L183,633L180,632L177,632L174,632L171,632L167,632L164,632L159,632L156,632L152,632L148,632L144,632L141,632L137,632L134,632L131,632L127,632L125,632L122,632L120,632L117,631L114,631L112,631L109,631L106,631L103,631L101,631L98,631L96,631L93,631L91,630L88,630L86,630L84,630L82,629L79,627" stroke-opacity="1" stroke-width="2" stroke-linecap="round" stroke-linejoin="round" style="-webkit-tap-highlight-color: rgba(0, 0, 0, 0); stroke-opacity: 1; stroke-linecap: round; stroke-linejoin: round; -webkit-user-select: text;"></path><path fill="none" stroke="#6c7e83" d="M59,580L67,579L72,579L79,579L88,580L95,582L103,585L110,589L118,593L124,598L130,603L136,608L141,613L146,617L149,621L153,625L156,629L159,633L161,637L163,641L165,645L166,649L168,653L169,657L170,660L170,664L171,667L171,670L171,673L172,676L172,678L172,681L172,683L172,685L172,687L172,689L172,691L172,693L171,695L171,696L170,698L169,700L168,701L167,703L166,704L165,706L164,708L163,709L162,710L161,712L160,713L159,714L159,715L157,715L151,714" stroke-opacity="1" stroke-width="2" stroke-linecap="round" stroke-linejoin="round" style="-webkit-tap-highlight-color: rgba(0, 0, 0, 0); stroke-opacity: 1; stroke-linecap: round; stroke-linejoin: round; -webkit-user-select: text;"></path><path fill="none" stroke="#6c7e83" d="M117,701L110,702L110,698L109,693L107,686L106,680L105,671L105,662L105,656L106,650L107,644L109,640L112,635L115,631L118,627L122,624L127,620L132,617L138,614L143,611L149,608L154,606L159,604L165,602L171,599L178,597L184,595L190,593L196,591L203,588L208,586L215,584L220,581L226,579L232,577L239,575L245,572L251,569L256,567L261,564L266,561L271,558L276,556L280,553L283,550L288,547L291,544L295,541L298,539L300,536L303,533L305,530L307,528L310,525L312,522L314,519L315,517L317,514L319,511L320,509L321,507L322,504L323,502L324,499L325,497L326,495L326,492L327,490L327,487L328,485L329,483L329,480L329,478L329,476L329,473L329,471L329,469L329,466L329,463L329,461L329,458L329,456L329,454L329,452L329,450L329,447L329,445L329,443L329,440L328,438L327,435L327,432L325,430L324,427L323,424L322,422L321,419L320,416L318,414L317,411L315,409L314,406L312,404L310,401L309,399L307,396L306,394L305,392L303,390L302,389L300,387L298,385L297,383L295,382L294,380L293,379L291,377L289,375L287,374L285,372L283,371L282,370L280,369L279,367L278,367L277,366L271,366" stroke-opacity="1" stroke-width="2" stroke-linecap="round" stroke-linejoin="round" style="-webkit-tap-highlight-color: rgba(0, 0, 0, 0); stroke-opacity: 1; stroke-linecap: round; stroke-linejoin: round; -webkit-user-select: text;"></path><path fill="none" stroke="#6c7e83" d="M228,359L230,362L232,366L234,371L235,377L237,384L239,390L241,397L242,404L244,412L246,419L248,425L250,431L253,439L254,445L256,451L259,457L261,463L263,469L265,475L267,481L268,487L270,494L272,499L274,505L275,510L277,516L278,520L280,525L281,529L283,533L284,537L286,540L287,543L288,546L290,549L290,552L291,555L292,557L293,560L294,563L295,565L295,568L296,569L296,571L297,573L298,574L298,575L298,577L299,579L299,580L300,582L300,585L301,587L301,588L302,590" stroke-opacity="1" stroke-width="2" stroke-linecap="round" stroke-linejoin="round" style="-webkit-tap-highlight-color: rgba(0, 0, 0, 0); stroke-opacity: 1; stroke-linecap: round; stroke-linejoin: round; -webkit-user-select: text;"></path><path fill="none" stroke="#6c7e83" d="M284,584L278,587L273,587L267,587L259,587L253,585L246,581L239,577L233,572L227,567L222,560L217,554L213,547L210,541L206,534L204,527L202,521L200,515L198,509L196,503L195,498L194,493L193,487L193,482L193,476L193,471L193,466L193,462L194,458L195,455L197,452L198,450L200,446L203,443L206,439L209,435L212,433L215,429L218,426L221,421L225,418L229,414L233,410L237,406L241,403L245,400L249,397L254,394L258,392L263,389L267,387L272,385L276,383L280,382L285,380L289,379L293,377L298,376L302,375L306,373L312,372L316,371L321,370L325,369L330,368L334,367L339,367L344,367L348,366L352,366L356,366L359,366L362,366L364,366L366,366L368,366L369,366L373,366" stroke-opacity="1" stroke-width="2" stroke-linecap="round" stroke-linejoin="round" style="-webkit-tap-highlight-color: rgba(0, 0, 0, 0); stroke-opacity: 1; stroke-linecap: round; stroke-linejoin: round; -webkit-user-select: text;"></path><path fill="none" stroke="#6c7e83" d="M408,351L414,349L414,353L414,357L415,362L416,368L417,374L419,380L420,386L421,393L421,400L421,407L421,415L420,423L417,429L414,436L410,443L405,448L400,454L394,458L388,462L383,465L377,468L371,471L364,473L359,475L353,476L347,477L340,477L334,477L329,477L322,477L316,475L310,473L303,469L297,466L291,462L285,458L280,453L275,448L270,443L266,438L262,433L259,428L256,423L252,417L249,412L247,406L244,401L242,396L240,392L238,388L237,384L235,379L234,375L232,371L231,367L229,363L228,359L227,355L226,351L225,347L223,343L222,339L221,335L220,331L218,327L217,323L216,319L215,315L213,311L212,307L210,303L209,299L208,295L207,292L205,288L203,285L202,282L200,280L198,277L196,274L194,271L192,268L190,265L188,263L185,260L183,258L181,257L178,255L176,254L174,253L172,252L171,251L169,251" stroke-opacity="1" stroke-width="2" stroke-linecap="round" stroke-linejoin="round" style="-webkit-tap-highlight-color: rgba(0, 0, 0, 0); stroke-opacity: 1; stroke-linecap: round; stroke-linejoin: round; -webkit-user-select: text;"></path><path fill="none" stroke="#6c7e83" d="M114,253L120,258L122,262L125,267L129,273L133,278L136,284L139,290L142,295L145,302L147,308L150,314L153,319L157,324L159,329L163,334L166,340L169,345L172,350L175,355L177,360L180,365L182,370L185,375L187,379L189,384L192,389L194,393L196,396L198,400L200,404L202,407L203,410L205,413L206,416L207,418L207,421L208,422L208,423L205,423L198,421L193,419L184,418" stroke-opacity="1" stroke-width="2" stroke-linecap="round" stroke-linejoin="round" style="-webkit-tap-highlight-color: rgba(0, 0, 0, 0); stroke-opacity: 1; stroke-linecap: round; stroke-linejoin: round; -webkit-user-select: text;"></path><path fill="none" stroke="#6c7e83" d="M144,408L138,408L134,407L130,406L127,404L124,402L121,399L118,396L116,392L113,387L111,381L109,375L108,368L108,363L107,357L107,352L107,345L107,340L107,334L110,327L112,322L115,317L119,311L122,307L126,302L131,298L136,294L142,291L147,288L152,285L158,282L163,280L169,279L174,278L179,277L185,276L191,276L196,276L202,276L208,276L214,276L220,276L226,276L231,277L237,279L243,281L249,284L254,287L260,290L266,293L272,296L278,299L284,302L289,305L295,308L300,311L305,315L310,318L315,322L319,325L324,328L329,332L333,335L337,338L341,341L346,343L350,345L354,347L358,349L362,350L366,352L370,353L373,355L377,355L381,357L385,358L388,358L392,359L397,359L401,360L405,360L409,360L413,360L418,360L422,360L427,360L431,359L436,358L441,356L446,355L451,353L455,350L460,348L465,346L469,343L473,340L477,337L480,334L484,331L487,327L490,324L493,320L496,317L499,314L501,311L504,308L506,305L508,302L510,299L511,297L513,294L514,291L516,288L517,286L518,283L519,280L520,277L521,275L522,272L523,269L523,266L524,265" stroke-opacity="1" stroke-width="2" stroke-linecap="round" stroke-linejoin="round" style="-webkit-tap-highlight-color: rgba(0, 0, 0, 0); stroke-opacity: 1; stroke-linecap: round; stroke-linejoin: round; -webkit-user-select: text;"></path><path fill="none" stroke="#6c7e83" d="M490,196L492,199L492,202L493,207L494,213L495,219L497,225L498,232L499,238L500,244L501,251L502,257L503,264L504,270L504,276L505,283L506,290L507,296L507,302L508,309L509,314L509,320L509,326L510,332L510,338L511,343L511,349L511,355L511,361L512,366L512,370L513,375L513,380L514,384L514,389L514,393L515,396L515,400L516,403L516,406L516,409L517,410L517,411L518,411L519,411" stroke-opacity="1" stroke-width="2" stroke-linecap="round" stroke-linejoin="round" style="-webkit-tap-highlight-color: rgba(0, 0, 0, 0); stroke-opacity: 1; stroke-linecap: round; stroke-linejoin: round; -webkit-user-select: text;"></path><path fill="none" stroke="#6c7e83" d="M573,268L575,270L575,274L576,278L576,283L576,290L576,295L576,300L576,306L575,311L573,316L571,321L570,326L568,331L566,336L565,341L562,345L559,350L556,355L553,360L550,364L547,368L544,372L541,377L538,381L534,386L531,389L527,394L524,397L520,401L516,404L512,407L509,410L505,413L502,415L498,418L494,421L490,423L487,425L483,426L479,428L476,430L472,432L469,433L466,434L464,435L461,435L458,436L456,436L453,437L451,437L447,437L443,437L440,437L437,437L434,437L430,437L427,437L424,437L420,436L417,435L414,435L411,433L408,432L404,431L402,429L399,427L396,426L393,423L390,422L387,420L385,418L383,416L382,414L380,412L378,411L377,409L376,407" stroke-opacity="1" stroke-width="2" stroke-linecap="round" stroke-linejoin="round" style="-webkit-tap-highlight-color: rgba(0, 0, 0, 0); stroke-opacity: 1; stroke-linecap: round; stroke-linejoin: round; -webkit-user-select: text;"></path><path fill="none" stroke="#6c7e83" d="M339,373L340,373L343,376L346,379L351,382L355,386L359,389L363,392L368,395L372,398L375,399L380,401L384,403L389,404L393,404L398,404L404,404L409,404L416,404L421,403L427,401L432,399L438,395L444,392L449,388L454,384L458,381L462,377L465,373L468,369L470,365L472,361L474,357L475,353L477,348L477,343L478,339L479,334L480,329L480,324L481,319L482,314L482,309L483,304L484,299L485,294L486,288L487,282L487,278L489,273L490,268L491,263L492,259L494,254L495,249L497,244L499,238L500,234L502,230L504,226L506,221L507,217L510,214L511,211L514,207L516,204L519,202L521,200L524,197L527,196L529,194L532,193L535,192L537,191L539,191L541,190L543,190L548,190" stroke-opacity="1" stroke-width="2" stroke-linecap="round" stroke-linejoin="round" style="-webkit-tap-highlight-color: rgba(0, 0, 0, 0); stroke-opacity: 1; stroke-linecap: round; stroke-linejoin: round; -webkit-user-select: text;"></path><path fill="none" stroke="#6c7e83" d="M484,155L488,161L491,166L496,173L502,181L507,189L512,196L517,204L523,211L528,219L533,226L538,234L543,241L548,248L553,255L558,262L562,268L567,274L572,280L576,286L580,292L584,297L588,302L591,307L594,311L597,314L600,318L602,321L605,324L607,327L609,330L611,333L613,336L615,338L617,341L618,341" stroke-opacity="1" stroke-width="2" stroke-linecap="round" stroke-linejoin="round" style="-webkit-tap-highlight-color: rgba(0, 0, 0, 0); stroke-opacity: 1; stroke-linecap: round; stroke-linejoin: round; -webkit-user-select: text;"></path><path fill="none" stroke="#6c7e83" d="M652,330L653,324L653,320L653,316L653,310L653,303L653,297L653,290L652,283L650,277L648,271L645,264L641,258L637,252L632,246L626,239L620,232L613,226L606,220L599,214L593,210L586,205L579,202L573,198L567,195L561,193L555,191L549,190L543,190L537,189L531,189L524,189L518,189L511,189L505,190L500,192L494,194L490,196L485,198L480,201L476,203L472,207L468,210L465,213L462,217L458,220L455,224L452,228L449,232L447,236L444,240L442,244L440,248L438,252L437,256L435,260L434,264L432,268L431,271L430,275L429,279L427,283L426,287L426,291L424,294L424,298L423,301L422,304L421,308L420,311L419,314L419,317L418,320L417,323L417,325L417,328L416,329L415,331L411,331" stroke-opacity="1" stroke-width="2" stroke-linecap="round" stroke-linejoin="round" style="-webkit-tap-highlight-color: rgba(0, 0, 0, 0); stroke-opacity: 1; stroke-linecap: round; stroke-linejoin: round; -webkit-user-select: text;"></path><path fill="none" stroke="#6c7e83" d="M344,245L349,247L353,251L358,255L364,259L371,263L378,267L384,271L390,275L395,281L401,286L405,292L409,297L412,303L417,309L420,314L424,318L428,323L432,326L436,330L440,334L444,337L447,340L451,342L455,344L459,346L463,347L467,348L472,350L476,350L481,351L485,351L490,352L494,352L499,352L503,352L507,352L510,352L514,352L518,351L521,350L524,349L528,348L531,346L534,345L537,342L540,340L542,337L545,334L548,331L550,327L552,324L554,320L556,316L559,312L561,308L562,304L564,300L565,296L567,291L568,286L569,282L570,277L571,272L572,268L572,263L572,258L573,253L573,249L573,244L574,240L574,236L574,231L574,227L574,223L575,219L575,215L575,211L576,207L577,204L577,201L578,197L579,193L580,190L581,186L582,182L583,178L584,174L585,170L586,166L587,163L589,159L590,156L591,152L592,149L594,146L596,143L598,140L599,137L601,134L603,132L605,129L607,127L609,124L612,122L614,119L616,117L618,116L621,115L623,113L625,112L628,111L645,108" stroke-opacity="1" stroke-width="2" stroke-linecap="round" stroke-linejoin="round" style="-webkit-tap-highlight-color: rgba(0, 0, 0, 0); stroke-opacity: 1; stroke-linecap: round; stroke-linejoin: round; -webkit-user-select: text;"></path><path fill="none" stroke="#6c7e83" d="M699,100L698,105L696,108L694,112L691,116L689,120L686,124L684,127L682,132L679,136L677,141L674,148L671,154L668,160L665,167L662,173L660,180L657,186L654,193L651,200L648,207L646,213L643,219L640,226L638,233L635,239L633,245L629,251L626,258L623,264L621,269L618,276L616,282L614,288L612,294L610,299L609,304L608,309L608,312L608,314L608,317" stroke-opacity="1" stroke-width="2" stroke-linecap="round" stroke-linejoin="round" style="-webkit-tap-highlight-color: rgba(0, 0, 0, 0); stroke-opacity: 1; stroke-linecap: round; stroke-linejoin: round; -webkit-user-select: text;"></path><path fill="none" stroke="#6c7e83" d="M655,321L660,317L663,314L666,310L668,305L670,299L672,293L672,286L673,279L673,271L673,263L673,255L673,249L672,242L669,235L667,229L663,223L660,217L657,212L652,206L648,201L644,196L639,191L635,187L630,183L626,180L621,176L617,173L612,170L606,168L600,166L594,163L587,162L580,161L573,160L566,159L559,159L553,159L546,159L541,159L536,161L531,162L526,165L520,167L516,170L511,173L507,175L502,179L497,183L493,187L490,191L486,195L482,200L479,204L476,208L472,213L470,218L467,222L465,227L463,232L460,237L458,241L456,245L455,249L453,253L451,257L448,260L446,265L445,269L443,273L441,277L439,282L437,285L436,289L434,292L433,296L432,299L430,303L429,307L427,311L426,315L425,318L424,322L423,325L422,328L421,332L420,336L419,339L418,343L417,347L415,352L413,357" stroke-opacity="1" stroke-width="2" stroke-linecap="round" stroke-linejoin="round" style="-webkit-tap-highlight-color: rgba(0, 0, 0, 0); stroke-opacity: 1; stroke-linecap: round; stroke-linejoin: round; -webkit-user-select: text;"></path><path fill="none" stroke="#6c7e83" d="M410,375L412,376L415,376L419,373L423,370L427,366L432,362L436,358L438,355L441,350L443,346L444,342L446,338L446,333L446,328L446,323L446,318L446,312L445,307L443,302L441,297L438,292L435,287L432,282L429,277L426,272L422,267L419,263L415,258L412,254L408,249L405,245L402,240L400,236L397,231L395,227L392,222L390,218L389,214L387,209L386,204L385,200L385,195L385,190L384,185L384,180L384,176L384,171L384,166L384,162L384,158L384,154L385,149L386,145L387,141L389,137L391,134L393,130L395,127L397,123L400,120L402,117L405,115L408,112L411,109L414,106L417,104L421,101L424,99L427,96L430,94L433,92L435,90L437,88L439,85L441,83L443,81L444,79L446,77L446,76L447,75L448,74L449,74" stroke-opacity="1" stroke-width="2" stroke-linecap="round" stroke-linejoin="round" style="-webkit-tap-highlight-color: rgba(0, 0, 0, 0); stroke-opacity: 1; stroke-linecap: round; stroke-linejoin: round; -webkit-user-select: text;"></path><path fill="none" stroke="#6c7e83" d="M425,61L428,64L429,66L430,69L433,73L435,78L437,82L440,86L443,91L446,96L450,102L454,107L458,113L461,118L465,124L469,129L473,135L476,139L479,144L482,149L486,154L489,159L492,164L494,169L497,173L500,178L503,182L506,186L508,190L510,194L512,197L514,201L516,204L517,206L518,207L520,207" stroke-opacity="1" stroke-width="2" stroke-linecap="round" stroke-linejoin="round" style="-webkit-tap-highlight-color: rgba(0, 0, 0, 0); stroke-opacity: 1; stroke-linecap: round; stroke-linejoin: round; -webkit-user-select: text;"></path><path fill="none" stroke="#6c7e83" d="M570,135L569,130L568,125L565,121L561,117L556,112L550,109L543,105L536,102L529,100L521,98L514,97L507,96L499,96L492,96L486,96L480,96L475,97L470,99L464,102L458,106L454,109L449,113L445,117L440,120L436,124L433,129L429,132L425,136L422,140L419,144L416,147L413,151L410,156L407,159L404,163L401,167L399,170L397,174L395,178L392,181L390,185L389,188L387,192L386,195L385,199L383,203L383,207L382,211L381,215L380,218L380,222L379,225L378,229L378,232L378,235L377,238L377,241L376,244L376,247L376,249L376,252L375,254L375,256L375,257L375,259L375,260" stroke-opacity="1" stroke-width="2" stroke-linecap="round" stroke-linejoin="round" style="-webkit-tap-highlight-color: rgba(0, 0, 0, 0); stroke-opacity: 1; stroke-linecap: round; stroke-linejoin: round; -webkit-user-select: text;"></path><path fill="none" stroke="#6c7e83" d="M414,265L413,265L413,262L413,257L412,251L411,246L409,240L407,234L404,229L402,224L399,219L396,215L392,210L389,206L385,202L382,198L378,194L374,190L370,187L366,184L363,181L359,178L356,176L351,173L348,171L344,169L341,166L337,165L333,163L329,161L326,159L322,158L319,157L315,156L311,154L307,154L303,153L300,153L296,152L293,152L289,152L285,152L283,152L280,152L277,152L275,152L272,152L270,152L267,153L265,153L262,154L259,155L257,156L254,157L252,158L250,159L248,160L246,161L244,162L242,164L239,165L237,166L235,168L234,168L232,170L230,171L228,173L226,174L225,176L222,177L221,179L219,180L217,182L215,184L212,186L210,187L208,190L206,191L204,193L202,195L200,196L198,198L195,200L193,202L191,203L189,204L187,206L185,208L182,209L180,211L178,213L176,214L173,216L171,217L169,219L166,220L164,222L161,223L159,225L156,226L153,227L151,229L148,230L145,231L143,232L140,233L138,234L135,234L133,235L130,235L128,236L125,236L124,236L121,236L119,237L118,237L115,237L113,237L112,237L110,237L108,237L107,237L105,237L103,237L102,237L100,237L99,237L97,237L96,237L94,236L93,236L91,235L90,234L88,233L86,232L85,231L84,230L82,228L81,226L79,224L78,217" stroke-opacity="1" stroke-width="2" stroke-linecap="round" stroke-linejoin="round" style="-webkit-tap-highlight-color: rgba(0, 0, 0, 0); stroke-opacity: 1; stroke-linecap: round; stroke-linejoin: round; -webkit-user-select: text;"></path><path fill="none" stroke="#6c7e83" d="M64,139L69,140L73,142L78,146L84,151L89,156L95,161L101,166L107,171L114,177L120,183L127,188L134,194L140,199L147,204L153,210L160,216L166,221L172,226L178,232L184,237L190,243L195,248L200,252L203,256L208,259L210,262L213,264L216,267L218,268L220,269L220,270L220,273" stroke-opacity="1" stroke-width="2" stroke-linecap="round" stroke-linejoin="round" style="-webkit-tap-highlight-color: rgba(0, 0, 0, 0); stroke-opacity: 1; stroke-linecap: round; stroke-linejoin: round; -webkit-user-select: text;"></path><path fill="none" stroke="#6c7e83" d="M133,260L129,252L128,247L127,243L126,237L125,231L125,224L125,216L126,208L127,200L130,193L133,185L137,178L142,171L147,165L152,158L158,153L164,147L170,142L176,137L183,132L189,128L196,124L203,121L210,119L216,117L222,115L228,113L234,112L239,112L244,112L248,112L252,112L255,112L257,112L259,112L261,112L262,112L263,112L269,112L279,112" stroke-opacity="1" stroke-width="2" stroke-linecap="round" stroke-linejoin="round" style="-webkit-tap-highlight-color: rgba(0, 0, 0, 0); stroke-opacity: 1; stroke-linecap: round; stroke-linejoin: round; -webkit-user-select: text;"></path><path fill="none" stroke="#6c7e83" d="M330,95L332,95L334,95L336,95L338,97L339,100L339,103L340,108L340,113L341,118L341,124L341,132L341,139L340,147L337,156L334,164L329,174L324,183L319,191L312,198L306,205L300,212L293,217L286,221L278,224L270,228L263,230L256,231L249,231L242,231L236,231L229,228L224,224L218,219L213,214L208,209L202,204L197,198L191,192L186,186L181,179L176,173L173,166L169,160L167,155L164,149L162,144L161,138L159,132L157,127L155,121L154,116L152,111L149,106L148,102L145,98L143,93L140,90L138,87L135,84L132,81L130,79L127,77L125,76L122,74L119,72L116,71L114,70L111,68L108,67L106,66L105,66" stroke-opacity="1" stroke-width="2" stroke-linecap="round" stroke-linejoin="round" style="-webkit-tap-highlight-color: rgba(0, 0, 0, 0); stroke-opacity: 1; stroke-linecap: round; stroke-linejoin: round; -webkit-user-select: text;"></path><path fill="none" stroke="#6c7e83" d="M74,67L74,70L76,74L79,80L83,88L86,96L91,107L94,117L98,127L102,138L105,148L109,159L113,170L117,181L120,192L124,203L128,214L132,224L136,235L141,245L145,255L150,264L154,273L159,282L162,289L166,297L170,305L173,312L176,319L179,326L182,332L184,338L187,343L190,350L192,355L195,361L198,366L200,371L202,376L205,381L207,385L209,389L212,393L214,397L216,401L217,404L219,408L221,412L222,416L224,419L225,423L227,426L228,430L229,433L231,437L232,440L234,443L235,443" stroke-opacity="1" stroke-width="2" stroke-linecap="round" stroke-linejoin="round" style="-webkit-tap-highlight-color: rgba(0, 0, 0, 0); stroke-opacity: 1; stroke-linecap: round; stroke-linejoin: round; -webkit-user-select: text;"></path><path fill="none" stroke="#6c7e83" d="M279,362L276,354L275,350L271,346L266,343L261,339L255,335L249,331L242,328L234,326L227,325L217,325L208,325L199,326L188,330L180,334L173,338L167,343L161,348L157,354L153,362L149,369L147,377L144,386L143,394L141,402L140,411L139,418L139,426L139,434L139,441L140,449L141,457L144,465L146,472L148,479L151,486L154,493L158,500L161,506L165,512L169,518L173,522L176,527L180,532L183,537L186,540L189,542L191,542" stroke-opacity="1" stroke-width="2" stroke-linecap="round" stroke-linejoin="round" style="-webkit-tap-highlight-color: rgba(0, 0, 0, 0); stroke-opacity: 1; stroke-linecap: round; stroke-linejoin: round; -webkit-user-select: text;"></path><path fill="none" stroke="#6c7e83" d="M290,407L287,399L280,403L271,410L260,420L250,429L241,438L233,445L224,452L213,461L203,469L192,477L183,483L174,491L166,497L159,504L153,510L147,517L142,522L137,528L134,533L130,536L128,539L126,540L125,540L124,538" stroke-opacity="1" stroke-width="2" stroke-linecap="round" stroke-linejoin="round" style="-webkit-tap-highlight-color: rgba(0, 0, 0, 0); stroke-opacity: 1; stroke-linecap: round; stroke-linejoin: round; -webkit-user-select: text;"></path><path fill="none" stroke="#6c7e83" d="M88,431L98,431L106,431L117,435L130,440L143,446L153,451L163,457L172,464L180,470L188,477L195,483L201,491L206,499L210,506L215,514L218,522L221,530L224,537L225,544L227,550L228,557L229,564L230,571L231,578L231,585L231,592L231,598L231,605L230,612L229,618L228,624L226,630L224,635L222,640L220,645L217,650L215,655L212,660L209,664L206,669L203,673L200,677L198,681L195,684L192,688L188,691L185,694L182,697L179,700L176,703L174,705L171,708L169,710L166,712L164,715L162,717L161,718L159,718L158,718L157,715" stroke-opacity="1" stroke-width="2" stroke-linecap="round" stroke-linejoin="round" style="-webkit-tap-highlight-color: rgba(0, 0, 0, 0); stroke-opacity: 1; stroke-linecap: round; stroke-linejoin: round; -webkit-user-select: text;"></path><path fill="none" stroke="#6c7e83" d="M130,709L120,705L115,700L114,699L114,696L114,693L114,689L114,684L118,678L122,672L125,668L130,664L134,660L140,656L147,653L155,649L161,648L168,647L175,646L183,646L190,646L198,647L204,649L211,652L218,655L225,659L231,663L237,667L242,671L248,676L253,681L258,686L262,691L266,695L271,700L274,705L278,709L282,714L286,719L290,724L295,729L299,733L303,737L307,742L311,746L316,750L320,754L324,758L329,761L333,764L336,767L340,770L344,772L347,774L351,776L355,778L358,780L362,781L366,782L370,783L374,785L378,786L383,786L387,787L392,788L398,788L403,788L409,788L415,788L420,787L425,786L430,785L436,784L441,783L448,780L457,775L468,766L477,756" stroke-opacity="1" stroke-width="2" stroke-linecap="round" stroke-linejoin="round" style="-webkit-tap-highlight-color: rgba(0, 0, 0, 0); stroke-opacity: 1; stroke-linecap: round; stroke-linejoin: round; -webkit-user-select: text;"></path><path fill="none" stroke="#6c7e83" d="M492,654L492,656L492,660L490,666L487,673L484,681L481,688L478,697L475,705L472,716L468,725L465,732L461,740L458,747L455,754L453,761L451,769L449,775L448,782L446,788L445,795L444,801L442,807L441,811L440,815L439,819L438,823L438,827L437,830L436,833L436,836L436,838L435,840L435,841L435,842L435,840" stroke-opacity="1" stroke-width="2" stroke-linecap="round" stroke-linejoin="round" style="-webkit-tap-highlight-color: rgba(0, 0, 0, 0); stroke-opacity: 1; stroke-linecap: round; stroke-linejoin: round; -webkit-user-select: text;"></path><path fill="none" stroke="#6c7e83" d="M519,795L523,790L523,787L522,781L519,774L516,768L514,761L510,754L507,748L503,742L498,737L493,732L487,727L481,723L475,720L468,718L463,717L456,716L448,716L441,716L433,716L426,716L418,718L411,721L404,724L397,727L390,730L385,734L380,738L375,741L371,746L367,750L363,755L359,759L356,764L352,770L349,774L346,778L342,783L339,787L336,791L334,795L331,799L328,802L325,806L322,809L319,812L316,816L313,819L310,822L307,824L304,827L301,829L298,831L294,834L290,836L286,838L282,840L278,842L274,843L270,844L266,844L263,845L260,845L256,845L253,845L248,845L244,845L239,844L235,842L232,841L228,839L225,838L223,836L222,835L222,834L221,832" stroke-opacity="1" stroke-width="2" stroke-linecap="round" stroke-linejoin="round" style="-webkit-tap-highlight-color: rgba(0, 0, 0, 0); stroke-opacity: 1; stroke-linecap: round; stroke-linejoin: round; -webkit-user-select: text;"></path><path fill="none" stroke="#6c7e83" d="M176,756L183,759L191,763L200,768L210,773L220,779L230,785L241,790L251,797L262,802L272,808L282,814L292,819L302,824L312,829L321,833L328,837L336,841L343,844L349,847L353,849L357,851L360,852L363,853L364,853L365,853L366,853L367,847" stroke-opacity="1" stroke-width="2" stroke-linecap="round" stroke-linejoin="round" style="-webkit-tap-highlight-color: rgba(0, 0, 0, 0); stroke-opacity: 1; stroke-linecap: round; stroke-linejoin: round; -webkit-user-select: text;"></path><path fill="none" stroke="#6c7e83" d="M346,844L341,844L339,844L337,844L336,844L334,843L332,842L330,839L327,836L324,832L321,827L317,822L313,816L310,810L307,804L306,796L305,789L305,781L305,773L305,766L305,759L306,752L308,747L310,742L312,737L314,732L318,727L322,721L327,716L331,711L336,706L339,702L343,698L347,694L351,690L355,687L359,684L363,681L366,679L370,677L374,675L378,673L381,672L385,671L389,669L392,668L395,668L398,667L400,666L402,666L403,666L405,665L407,665" stroke-opacity="1" stroke-width="2" stroke-linecap="round" stroke-linejoin="round" style="-webkit-tap-highlight-color: rgba(0, 0, 0, 0); stroke-opacity: 1; stroke-linecap: round; stroke-linejoin: round; -webkit-user-select: text;"></path><path fill="none" stroke="#6c7e83" d="M407,840L400,842L398,842L396,842L393,841L391,840L388,838L385,836L383,834L380,832L378,829L375,827L373,823L371,819L370,816L368,811L367,807L366,802L365,796L365,790L365,785L365,778L365,772L365,764L367,759L368,753L370,748L372,743L374,738L377,733L380,728L383,723L387,718L390,714L394,710L398,706L403,703L407,699L412,695L417,692L422,689L427,686L431,683L435,681L439,678L443,676L446,674L450,671L454,668L457,665L460,662L463,659L466,655L469,652L471,648L473,644L475,640L477,636L480,632L482,627L483,623L485,619L486,615L487,611L487,607L489,603L489,599L490,594L490,591L490,586L491,582L491,578L491,574L491,570L491,566L491,562L491,558L491,554L491,551L490,547L490,544L489,541L488,537L487,535L487,532L486,530L485,527L485,524L483,522L482,519L481,517L480,514L478,512L477,509L475,507L473,504L472,502L470,500L469,498L467,495L465,493L464,491L463,489L461,486L459,484L458,483L456,481L455,479L455,478" stroke-opacity="1" stroke-width="2" stroke-linecap="round" stroke-linejoin="round" style="-webkit-tap-highlight-color: rgba(0, 0, 0, 0); stroke-opacity: 1; stroke-linecap: round; stroke-linejoin: round; -webkit-user-select: text;"></path><path fill="none" stroke="#6c7e83" d="M436,420L441,420L445,422L450,427L456,432L463,440L470,447L476,454L482,462L489,470L495,479L501,487L507,496L513,505L519,513L525,522L531,530L536,538L541,546L545,552L549,560L553,567L558,573L562,579L566,584L570,590L573,594L577,598L580,602L582,606L584,608L586,610L587,612L588,613" stroke-opacity="1" stroke-width="2" stroke-linecap="round" stroke-linejoin="round" style="-webkit-tap-highlight-color: rgba(0, 0, 0, 0); stroke-opacity: 1; stroke-linecap: round; stroke-linejoin: round; -webkit-user-select: text;"></path><path fill="none" stroke="#6c7e83" d="M601,633L599,637L598,640L595,642L592,644L587,647L582,648L577,649L572,650L567,650L562,650L558,650L553,649L548,647L544,644L540,641L536,638L532,634L529,630L526,626L523,622L520,618L518,613L516,607L515,601L514,596L512,589L511,583L511,576L510,570L510,564L510,557L510,551L510,545L510,540L510,535L511,530L512,525L513,521L515,516L517,511L519,506L521,502L523,498L524,494L526,490L528,486L531,482L533,479L535,475L537,472L538,469L541,465L543,462L545,460L547,457L549,454L551,451L553,449L555,446L556,444L558,443L560,441L561,439L562,437L564,435L565,434L566,433L567,431L568,431L568,430" stroke-opacity="1" stroke-width="2" stroke-linecap="round" stroke-linejoin="round" style="-webkit-tap-highlight-color: rgba(0, 0, 0, 0); stroke-opacity: 1; stroke-linecap: round; stroke-linejoin: round; -webkit-user-select: text;"></path><path fill="none" stroke="#6c7e83" d="M514,401L521,403L526,403L532,404L540,405L548,408L556,410L564,413L571,416L578,419L585,423L592,427L598,431L604,435L610,440L616,445L621,450L626,456L631,462L636,469L640,475L644,482L647,489L649,495L651,502L652,508L652,515L652,521L652,527L652,534L651,540L648,545L646,551L643,556L640,561L636,566L633,570L628,574L623,579L620,583L614,588L609,592L604,596L598,599L593,602L587,606L582,609L576,612L571,615L566,618L561,622L557,625L553,629L550,632L546,636L543,640L541,644L538,648L536,653L534,657L533,662L531,666L530,671L529,676L528,681L528,686L528,691L528,695L528,700L528,703L529,707L530,710L532,714L534,717L536,721L538,724L539,727L541,729L543,732L545,735L548,737L550,740L552,742L554,745L557,747L559,749L562,751L564,752L567,754L570,756L573,758L576,759L579,761L582,763L584,764L587,765L589,766L592,767L594,768L597,768L600,769L602,770L605,771L609,771L611,772L614,773L618,773L621,774L624,774L627,775L630,776L634,776L637,776L640,777L643,777L646,778L649,778L652,778L655,778L657,778L659,778L662,778L667,778" stroke-opacity="1" stroke-width="2" stroke-linecap="round" stroke-linejoin="round" style="-webkit-tap-highlight-color: rgba(0, 0, 0, 0); stroke-opacity: 1; stroke-linecap: round; stroke-linejoin: round; -webkit-user-select: text;"></path><path fill="none" stroke="#6c7e83" d="M706,801L702,798L701,796L699,792L697,788L696,783L694,778L691,773L688,768L685,763L682,759L679,754L677,749L674,744L672,739L669,734L668,731L666,727L664,722L662,718L661,714L660,710L659,706L657,702L656,698L655,693L654,689L652,685L651,681L650,676L649,672L647,667L646,662L645,657L643,653L642,648L640,644L638,640L637,635L635,631L634,627L633,623L632,618L630,613L628,608L626,604L624,601L623,598L622,597" stroke-opacity="1" stroke-width="2" stroke-linecap="round" stroke-linejoin="round" style="-webkit-tap-highlight-color: rgba(0, 0, 0, 0); stroke-opacity: 1; stroke-linecap: round; stroke-linejoin: round; -webkit-user-select: text;"></path><path fill="none" stroke="#6c7e83" d="M676,581L679,590L680,595L681,600L682,606L684,612L684,617L684,624L684,630L684,636L682,642L679,647L677,653L674,658L672,664L668,670L664,676L660,682L655,688L651,693L647,699L642,704L638,709L633,714L628,718L623,722L617,727L613,729L608,733L602,735L597,738L593,740L588,743L583,745L579,746L575,747L570,748L567,748L562,749L558,749L553,749L549,749L545,749L541,749L536,748L531,747L525,746L521,744L516,743L512,741L507,739L502,738L497,736L494,734L489,732L485,730L480,728L475,726L470,724L465,721L461,719L456,716L451,713L446,711L440,708L434,706L429,704L424,702L418,701L414,700L408,699L403,698L397,698L392,697L387,697L383,697L377,697L372,697L368,697L363,697L360,698L356,698L352,699L349,700L346,701L342,702L339,704L336,705L333,707L330,709L327,711L324,714L321,716L318,719L315,721L312,724L310,726L307,729L305,732L303,735L301,738L299,742L297,745L295,748L294,751L292,754L291,757L290,759L289,762L288,765L288,768L287,771L286,773L285,776L285,778L285,779L285,780L285,781L285,780L283,777" stroke-opacity="1" stroke-width="2" stroke-linecap="round" stroke-linejoin="round" style="-webkit-tap-highlight-color: rgba(0, 0, 0, 0); stroke-opacity: 1; stroke-linecap: round; stroke-linejoin: round; -webkit-user-select: text;"></path><path fill="none" stroke="#6c7e83" d="M237,703L242,704L245,707L249,712L254,717L260,723L267,730L273,738L279,745L285,753L292,760L298,768L302,774L307,781L312,787L317,793L322,799L327,805L332,811L337,816L342,822L347,827L352,831L356,835L360,839L363,842L367,845L370,848L373,851L376,853L378,855L380,856L382,856L383,856" stroke-opacity="1" stroke-width="2" stroke-linecap="round" stroke-linejoin="round" style="-webkit-tap-highlight-color: rgba(0, 0, 0, 0); stroke-opacity: 1; stroke-linecap: round; stroke-linejoin: round; -webkit-user-select: text;"></path><path fill="none" stroke="#6c7e83" d="M323,848L317,848L314,848L312,848L311,847L310,846L308,844L307,841L306,837L306,832L306,825L306,820L306,815L306,810L306,805L306,800L307,795L309,791L311,788L313,785L316,783L319,781L322,779L326,776L330,774L334,772L339,769L344,768L349,766L356,764L362,763L368,762L374,761L379,761L385,761L390,761L395,761L401,761L405,761L410,762L415,764L419,766L424,768L428,771L432,774L436,777L440,781L443,784L447,787L450,791L453,795L456,798L458,802L460,805L462,809L464,812L465,815L467,818L468,821L469,823L470,824L471,826L471,827L472,827L471,829" stroke-opacity="1" stroke-width="2" stroke-linecap="round" stroke-linejoin="round" style="-webkit-tap-highlight-color: rgba(0, 0, 0, 0); stroke-opacity: 1; stroke-linecap: round; stroke-linejoin: round; -webkit-user-select: text;"></path><path fill="none" stroke="#6c7e83" d="M416,853L419,852L422,850L427,845L432,841L437,837L441,834L446,830L451,827L455,823L460,819L465,815L468,812L472,808L475,805L478,802L481,799L484,797L487,794L489,791L492,789L494,787L497,785L499,783L502,781L504,779L507,777L509,776L511,773L514,771L517,768L520,766L524,762L528,759L532,756L536,751L540,748L543,744L546,742L549,739L552,736L554,734L555,733L557,732L558,731L559,730L560,729" stroke-opacity="1" stroke-width="2" stroke-linecap="round" stroke-linejoin="round" style="-webkit-tap-highlight-color: rgba(0, 0, 0, 0); stroke-opacity: 1; stroke-linecap: round; stroke-linejoin: round; -webkit-user-select: text;"></path><path fill="none" stroke="#6c7e83" d="M484,669L492,667L499,667L507,667L516,668L525,670L536,673L544,676L552,679L560,682L566,686L572,689L577,693L582,696L587,701L591,704L595,708L599,712L603,717L606,721L609,725L612,730L616,735L618,739L621,743L623,747L625,751L626,755L628,759L629,763L630,767L630,771L631,774L631,777L632,780L632,783L632,786L632,789L632,792L632,795L632,797L632,800L632,803L632,806L631,808L630,811L629,814L628,816L628,819L626,821L625,823L624,826L623,829L621,831L620,833L618,835L617,837L616,839L615,841L613,843L612,845L611,847L609,849L608,850L607,851L606,853L605,854L604,855L603,856L603,854" stroke-opacity="1" stroke-width="2" stroke-linecap="round" stroke-linejoin="round" style="-webkit-tap-highlight-color: rgba(0, 0, 0, 0); stroke-opacity: 1; stroke-linecap: round; stroke-linejoin: round; -webkit-user-select: text;"></path><path fill="none" stroke="#6c7e83" d="M537,862L540,860L542,858L545,856L549,853L552,850L555,847L558,844L562,840L565,837L569,833L573,829L577,824L582,820L586,816L590,812L594,808L597,805L601,801L604,798L607,794L611,790L614,786L618,783L620,780L623,777L626,774L629,771L632,768L635,765L637,762L640,759L643,757L645,754L648,751L651,749L654,746L657,743L659,740L662,738L664,735L666,733L668,731L670,729L672,728L672,727L674,726L674,725L675,725" stroke-opacity="1" stroke-width="2" stroke-linecap="round" stroke-linejoin="round" style="-webkit-tap-highlight-color: rgba(0, 0, 0, 0); stroke-opacity: 1; stroke-linecap: round; stroke-linejoin: round; -webkit-user-select: text;"></path><path fill="none" stroke="#6c7e83" d="M655,740L659,736L661,736L663,735L665,735L668,734L671,734L673,734L676,733L678,733L681,733L684,733L686,733L689,734L691,736L694,738L696,740L699,743L701,746L703,748L705,751L707,754L708,757L709,760L710,763L711,766L711,770L711,773L711,776L711,779L711,782L711,785L711,788L711,792L710,795L709,799L708,802L706,806L705,809L703,812L702,815L700,818L699,821L696,824L695,826L693,829L690,832L688,834L685,836L683,839L681,841L679,843L677,845L674,847L672,849L670,851L668,853L666,854L663,856L660,858L658,859L655,861L652,862L650,863L647,864L645,865L643,866L641,867L639,867L637,868L635,868L633,868L631,868L629,868L627,868L625,868L623,866L621,864L619,863L618,861L616,858L615,856L614,854L613,852L612,849L611,846L609,844L609,841L608,839L607,837L606,834L606,833L606,831L605,829L605,828L604,826L604,824L604,822L604,821L604,819L604,817L604,815L604,813L604,811L604,809L604,807L604,805L604,804L604,802L604,799L604,797L604,794L604,791L604,789L604,786L604,783L604,781L604,778L604,776L604,773L604,771L604,768L604,766L604,763L604,761L604,759L604,756L604,754L604,752L604,749L604,747L604,745L604,742L604,740L604,737L604,735L604,732L604,730L604,728L604,725L604,723L604,720L604,718L604,715L604,713L604,710L604,708L604,705L604,703L604,701L604,698L604,696L604,694L604,692L604,690L604,688L604,686L604,684L604,683L604,681L604,679L604,678L604,676L604,675L604,674L604,673L604,671L604,670L604,669L604,667L604,666L604,664L604,662L604,661L604,659L604,658L604,657L604,656L604,655L604,654" stroke-opacity="1" stroke-width="2" stroke-linecap="round" stroke-linejoin="round" style="-webkit-tap-highlight-color: rgba(0, 0, 0, 0); stroke-opacity: 1; stroke-linecap: round; stroke-linejoin: round; -webkit-user-select: text;"></path><path fill="none" stroke="#6c7e83" d="M649,441L651,444L651,447L651,450L651,455L651,459L652,463L652,468L652,472L652,477L652,482L652,487L652,493L652,499L652,504L652,510L652,516L652,521L652,526L653,532L653,537L653,543L653,548L653,554L654,559L654,564L655,570L655,575L655,580L655,585L655,589L655,594L655,598L655,603L655,607L655,612L655,616L656,620L656,624L656,627L656,631L657,635L657,637L657,640L657,643L657,645L657,646L657,647L658,647" stroke-opacity="1" stroke-width="2" stroke-linecap="round" stroke-linejoin="round" style="-webkit-tap-highlight-color: rgba(0, 0, 0, 0); stroke-opacity: 1; stroke-linecap: round; stroke-linejoin: round; -webkit-user-select: text;"></path><path fill="none" stroke="#6c7e83" d="M590,375L593,377L596,377L600,379L604,382L609,384L613,388L617,392L622,396L627,400L631,404L635,408L639,412L643,417L646,421L650,426L654,431L657,435L660,440L663,445L666,450L668,455L670,459L672,464L674,468L675,472L676,477L677,482L678,486L679,490L679,494L679,499L680,503L680,506L680,510L680,514L680,518L680,521L680,524L680,528L679,531L679,534L678,537L677,540L675,544L674,547L673,550L672,553L670,556L669,559L667,562L666,565L664,568L662,571L661,574L659,576L657,579L655,581L654,584L652,586L649,589L647,592L645,595L643,598L640,600L638,603L635,606L633,608L630,610L627,613L625,615L622,618L619,620L617,622L614,624L612,627L609,629L607,631L605,633L603,635L601,637L598,639L596,641L594,642L592,644L589,646L588,647L586,649L585,649L584,650L583,650" stroke-opacity="1" stroke-width="2" stroke-linecap="round" stroke-linejoin="round" style="-webkit-tap-highlight-color: rgba(0, 0, 0, 0); stroke-opacity: 1; stroke-linecap: round; stroke-linejoin: round; -webkit-user-select: text;"></path><path fill="none" stroke="#6c7e83" d="M518,650L514,646L514,644L513,641L512,637L512,633L512,629L512,623L512,618L512,613L512,608L513,603L516,598L518,594L521,590L524,585L526,581L530,577L533,573L536,569L539,564L542,560L545,557L548,553L551,550L555,546L558,543L561,539L565,535L568,532L572,528L576,524L580,521L584,517L588,513L592,509L596,506L599,502L603,498L606,494L609,491L611,486L614,483L617,479L620,475L622,472L624,468L627,465L628,461L630,458L633,454L634,451L636,448L637,445L639,441L640,438L642,434L643,431L644,427L645,424L646,420L646,416L647,412L647,409L648,405L648,401L648,397L648,394L648,390L648,387L648,383L648,379L648,376L648,373L647,370L647,367L647,365L646,362L645,359L645,356L644,353L643,351L642,348L641,346L640,343L639,341L638,338L637,336L635,334L634,331L633,329L631,327L630,325L628,323L627,321L626,319L624,317L623,316L621,315L620,314L619,312L618,311L617,310L616,309L615,308L613,307L612,306L611,305L610,304L609,303L607,302L606,301L605,299L604,299L603,298L601,297L600,296L599,295L598,294L597,294L596,293L595,292L594,292L593,291L592,290L590,289L589,288L587,288L586,287L585,286L584,286L583,285L582,285L581,284L580,284L579,283L579,282L575,282" stroke-opacity="1" stroke-width="2" stroke-linecap="round" stroke-linejoin="round" style="-webkit-tap-highlight-color: rgba(0, 0, 0, 0); stroke-opacity: 1; stroke-linecap: round; stroke-linejoin: round; -webkit-user-select: text;"></path><path fill="none" stroke="#6c7e83" d="M594,163L591,161L590,163L589,166L587,169L585,174L584,179L582,184L579,190L577,195L574,202L571,209L569,214L567,220L564,226L562,233L560,238L557,246L554,252L552,258L548,265L546,271L543,277L541,283L538,289L536,295L534,301L532,307L530,312L528,317L526,322L524,326L523,331L521,335L519,339L518,343L516,347L516,350L514,354L514,356L514,358L514,359L514,360" stroke-opacity="1" stroke-width="2" stroke-linecap="round" stroke-linejoin="round" style="-webkit-tap-highlight-color: rgba(0, 0, 0, 0); stroke-opacity: 1; stroke-linecap: round; stroke-linejoin: round; -webkit-user-select: text;"></path><path fill="none" stroke="#6c7e83" d="M556,360L559,356L559,354L560,351L562,348L563,344L565,339L566,335L567,330L569,326L569,321L570,317L570,312L570,307L570,302L570,297L570,292L569,287L567,282L565,278L563,273L561,269L558,265L556,262L554,258L551,254L548,250L546,247L543,244L540,240L537,237L533,235L530,231L526,229L523,226L520,224L517,221L514,219L511,217L509,215L506,214L503,212L500,211L497,209L494,208L491,207L488,206L485,205L482,204L479,203L476,203L473,202L470,202L468,201L465,201L463,201L461,201L459,201L457,200L455,200L453,200L451,200L450,200L448,200L447,199L446,199L444,199L443,199L439,199" stroke-opacity="1" stroke-width="2" stroke-linecap="round" stroke-linejoin="round" style="-webkit-tap-highlight-color: rgba(0, 0, 0, 0); stroke-opacity: 1; stroke-linecap: round; stroke-linejoin: round; -webkit-user-select: text;"></path><path fill="none" stroke="#6c7e83" d="M434,156L430,158L429,160L427,163L426,165L424,168L423,171L422,174L421,178L421,181L421,185L420,190L420,194L420,198L420,203L420,208L419,212L419,217L418,222L417,226L417,231L415,235L414,239L412,243L411,247L409,251L407,255L405,260L402,263L400,267L397,271L394,275L390,278L387,281L383,284L379,287L374,289L369,291L364,292L359,294L353,294L346,294L340,294L334,294L327,294L322,292L316,290L311,287L307,284L302,281L298,277L295,273L291,270L288,265L285,261L282,257L280,253L278,249L277,246L276,241L275,238L274,234L273,230L273,226L272,221L272,218L271,214L271,210L271,206L271,202L271,198L271,194L271,190L271,186L271,183L271,179L272,176L272,173L273,170L274,167L275,163L276,161L277,158L278,155L279,152L280,149L281,146L282,144L283,141L283,139L284,136L285,133L285,131L285,129L286,126L286,124L286,122L286,119L286,117L286,114L286,112L286,109L286,107L286,105L286,103L286,101L285,99L285,97L284,95L283,93L283,91L282,90L282,88L281,86L280,85L279,83L278,82L278,81L276,80L276,78L275,78L274,77L273,76L272,76L272,75L271,75" stroke-opacity="1" stroke-width="2" stroke-linecap="round" stroke-linejoin="round" style="-webkit-tap-highlight-color: rgba(0, 0, 0, 0); stroke-opacity: 1; stroke-linecap: round; stroke-linejoin: round; -webkit-user-select: text;"></path><path fill="none" stroke="#6c7e83" d="M199,64L204,65L208,65L212,67L218,70L223,73L228,76L233,80L238,84L243,88L249,93L254,98L260,102L266,107L272,112L278,117L283,122L289,127L295,132L301,137L307,141L312,146L318,151L324,156L329,160L334,165L339,169L344,174L349,178L354,183L358,187L363,191L368,195L372,198L376,201L380,204L383,207L386,209L388,212L391,214L392,215L394,216L395,216" stroke-opacity="1" stroke-width="2" stroke-linecap="round" stroke-linejoin="round" style="-webkit-tap-highlight-color: rgba(0, 0, 0, 0); stroke-opacity: 1; stroke-linecap: round; stroke-linejoin: round; -webkit-user-select: text;"></path><path fill="none" stroke="#6c7e83" d="M409,62L404,61L399,61L393,61L388,61L382,61L375,62L367,63L361,64L352,66L346,67L340,69L334,72L329,75L325,77L320,80L316,84L312,88L308,92L304,97L300,102L297,108L293,113L290,119L287,125L284,132L282,137L280,143L279,148L278,153L278,159L278,164L278,171L278,177L278,183L278,189L279,195L281,200L284,206L286,211L289,217L292,221L295,226L298,230L301,234L304,238L307,241L310,245L312,248L315,251L318,253L321,256L323,258L325,259L327,260L328,261L329,262L330,263L331,263" stroke-opacity="1" stroke-width="2" stroke-linecap="round" stroke-linejoin="round" style="-webkit-tap-highlight-color: rgba(0, 0, 0, 0); stroke-opacity: 1; stroke-linecap: round; stroke-linejoin: round; -webkit-user-select: text;"></path><path fill="none" stroke="#6c7e83" d="M274,72L283,72L289,72L295,75L301,78L308,83L316,88L322,93L328,98L332,103L337,108L341,114L344,119L348,125L351,131L353,136L356,143L358,149L360,156L361,162L362,168L362,174L363,180L363,185L363,190L363,195L363,199L361,203L359,207L357,211L355,214L353,218L349,222L347,226L344,229L340,232L336,235L332,238L328,241L324,243L319,245L314,247L309,249L303,250L297,252L291,253L285,253L280,253L273,254L266,254L259,254L251,254L244,254L236,254L229,254L220,253L212,252L203,251L195,251L186,249L179,248L171,247L163,247L156,246L148,246L141,246L133,246L127,246L120,247L115,248L110,251L105,253L100,256L96,260L92,263L88,268L84,272L80,276L76,281L72,287L69,291L67,296L64,302L62,307L61,312L60,317L59,323L59,328L59,335L59,341L59,347L59,352L60,358L62,362L64,367L67,372L69,377L72,381L75,386L78,391L81,395L85,400L89,404L93,409L96,412L100,416L104,420L108,423L112,427L115,430L119,433L122,437L126,440L129,443L132,445L135,448L138,450L140,452L142,454L143,455L144,455" stroke-opacity="1" stroke-width="2" stroke-linecap="round" stroke-linejoin="round" style="-webkit-tap-highlight-color: rgba(0, 0, 0, 0); stroke-opacity: 1; stroke-linecap: round; stroke-linejoin: round; -webkit-user-select: text;"></path><path fill="none" stroke="#6c7e83" d="M47,348L50,352L52,356L56,361L59,367L64,374L67,382L71,389L75,396L79,404L83,411L87,418L91,424L95,430L98,436L102,442L105,448L109,453L112,458L115,463L118,469L121,474L123,478L126,482L129,486L131,490L133,494L136,497L138,501L140,504L143,507L145,510L147,513L149,516L150,518L151,519L152,521L154,522L154,523L155,524L156,524" stroke-opacity="1" stroke-width="2" stroke-linecap="round" stroke-linejoin="round" style="-webkit-tap-highlight-color: rgba(0, 0, 0, 0); stroke-opacity: 1; stroke-linecap: round; stroke-linejoin: round; -webkit-user-select: text;"></path><path fill="none" stroke="#6c7e83" d="M119,535L108,537L104,537L101,535L96,533L91,528L87,523L83,517L79,511L76,505L74,500L72,494L71,489L69,484L69,478L68,472L67,465L66,458L66,452L66,445L66,439L66,432L66,426L67,420L70,413L74,407L76,402L80,398L83,394L86,390L90,386L94,383L98,380L102,377L106,375L109,373L113,371L118,370L121,368L125,366L129,365L132,364L135,363L139,362L141,362L143,362L145,362L146,362L147,362L148,362" stroke-opacity="1" stroke-width="2" stroke-linecap="round" stroke-linejoin="round" style="-webkit-tap-highlight-color: rgba(0, 0, 0, 0); stroke-opacity: 1; stroke-linecap: round; stroke-linejoin: round; -webkit-user-select: text;"></path><path fill="none" stroke="#6c7e83" d="M153,344L160,343L164,345L167,348L171,353L176,358L180,364L183,370L187,376L190,383L192,390L193,396L194,404L195,411L195,418L195,426L195,433L195,441L193,448L191,455L188,463L186,469L183,476L179,482L176,488L171,494L168,499L164,503L161,507L157,511L153,516L149,519L145,522L142,525L138,527L134,530L130,532L127,535L123,537L120,539L118,541L114,544L111,546L108,549L105,552L103,554L100,557L98,559L95,562L93,565L91,568L88,570L86,573L85,576L83,579L81,581L79,585L78,588L77,591L76,596L75,600L74,603L73,607L73,611L73,615L72,618L72,622L72,625L72,629L72,632L72,636L72,640L72,643L73,647L74,650L76,654L78,657L79,660L81,664L84,667L86,670L88,673L91,676L93,678L96,681L98,683L101,686L104,688L107,690L110,692L113,694L115,695L118,697L120,699L122,700L124,701L127,703L129,704L131,705L133,706L136,707L138,708L140,710L142,711L144,712L145,712L146,713L147,713" stroke-opacity="1" stroke-width="2" stroke-linecap="round" stroke-linejoin="round" style="-webkit-tap-highlight-color: rgba(0, 0, 0, 0); stroke-opacity: 1; stroke-linecap: round; stroke-linejoin: round; -webkit-user-select: text;"></path><path fill="none" stroke="#6c7e83" d="M112,637L109,631L113,631L120,634L129,638L138,643L147,648L156,653L164,657L172,660L182,665L191,669L199,673L207,677L215,682L222,686L229,691L236,695L243,700L250,704L256,708L262,712L268,715L275,718L281,722L288,725L295,729L300,732L305,734L311,737L315,740L320,742L324,744L328,746L331,748L335,749L338,751L341,753L344,754L347,756L349,757L351,758L353,759L355,759L356,760L357,761L358,761L358,760L358,755" stroke-opacity="1" stroke-width="2" stroke-linecap="round" stroke-linejoin="round" style="-webkit-tap-highlight-color: rgba(0, 0, 0, 0); stroke-opacity: 1; stroke-linecap: round; stroke-linejoin: round; -webkit-user-select: text;"></path><path fill="none" stroke="#6c7e83" d="M382,659L370,653L363,650L355,647L345,646L335,646L325,646L316,646L308,646L300,648L292,651L285,654L278,658L272,661L267,665L263,667L260,670L257,673L254,676L252,679L249,683L246,688L244,692L242,697L240,703L238,708L236,714L234,720L233,725L232,730L231,735L230,739L230,743L230,747L230,751L230,754L230,758L230,761L230,765L231,768L232,772L234,776L235,779L236,782L238,785L239,789L241,792L243,795L245,799L246,802L249,805L250,808L252,811L254,814L255,816L257,818L259,820L260,822L262,824L263,826L264,827L266,829L267,831L268,832L270,834L271,835L273,836L274,837L275,838L276,839L277,839L278,840L278,841L279,841L283,837L288,829" stroke-opacity="1" stroke-width="2" stroke-linecap="round" stroke-linejoin="round" style="-webkit-tap-highlight-color: rgba(0, 0, 0, 0); stroke-opacity: 1; stroke-linecap: round; stroke-linejoin: round; -webkit-user-select: text;"></path><path fill="none" stroke="#6c7e83" d="M381,729L380,732L377,737L372,745L366,753L362,759L357,766L352,772L347,778L343,782L337,786L333,789L327,793L322,795L317,798L311,800L307,802L302,804L297,805L293,807L289,808L285,808L280,809L277,809L273,809L268,809L263,808L257,806L250,802L244,800L237,796L229,793L223,789L217,785L211,781L205,777L201,773L196,769L192,766L188,761L184,757L179,753L176,749L171,745L167,741L164,737L160,733L156,729L152,726L148,722L144,718L140,715L136,711L131,708L127,705L123,703L120,702L116,700L112,699L108,698L105,696L101,695L98,694L95,693L91,693L88,693L85,692L81,692L78,692L75,692L73,692L71,692L69,692L68,692L67,692L67,691" stroke-opacity="1" stroke-width="2" stroke-linecap="round" stroke-linejoin="round" style="-webkit-tap-highlight-color: rgba(0, 0, 0, 0); stroke-opacity: 1; stroke-linecap: round; stroke-linejoin: round; -webkit-user-select: text;"></path><path fill="none" stroke="#6c7e83" d="M53,818L59,820L62,819L68,817L75,814L83,809L91,805L100,800L109,795L118,790L126,785L133,782L141,778L149,775L157,770L165,765L173,759L179,755L185,751L192,747L198,744L203,742L209,739L216,736L221,734L226,732L231,729L236,727L241,724L246,721L251,718L255,715L260,713L263,711L267,709L272,706L275,704L279,702L283,700L285,698L288,697L290,697L291,697L292,697L293,697" stroke-opacity="1" stroke-width="2" stroke-linecap="round" stroke-linejoin="round" style="-webkit-tap-highlight-color: rgba(0, 0, 0, 0); stroke-opacity: 1; stroke-linecap: round; stroke-linejoin: round; -webkit-user-select: text;"></path><path fill="none" stroke="#6c7e83" d="M318,674L322,680L322,685L322,690L320,696L319,703L317,710L315,717L313,725L310,732L307,740L304,747L300,754L296,761L293,767L288,773L284,778L279,784L274,789L268,794L262,799L256,803L248,807L240,810L232,813L223,816L215,818L206,819L200,820L193,820L186,820L180,820L175,819L169,816L164,814L158,811L153,809L148,806L143,802L137,798L132,793L127,788L122,781L118,773L113,766L110,760L108,754L105,748L104,742L103,735L102,728L102,723L102,718L102,715L101,711L101,709L101,706L101,704L101,702L101,700L101,698L101,697L101,695L101,694L101,693" stroke-opacity="1" stroke-width="2" stroke-linecap="round" stroke-linejoin="round" style="-webkit-tap-highlight-color: rgba(0, 0, 0, 0); stroke-opacity: 1; stroke-linecap: round; stroke-linejoin: round; -webkit-user-select: text;"></path><path fill="none" stroke="#6c7e83" d="M104,661L112,657L118,657L127,657L138,657L147,657L158,661L166,663L173,666L179,670L184,674L188,679L192,683L196,689L200,695L203,701L205,706L209,713L211,718L213,724L215,730L215,734L216,739L217,744L217,749L217,754L217,759L217,763L215,768L212,773L210,777L208,782L205,786L202,790L199,793L196,796L193,799L191,801L187,803L184,805L181,807L178,808L174,809L171,810L167,810L163,810L159,810L155,810L152,810L147,810L144,810L139,810L135,810L131,810L127,809L122,808L118,807L113,806L108,805L105,805L101,804L98,804L94,803L92,803L89,803L86,803L84,803L81,803L79,803L77,803L74,803L72,803L71,803L69,804L67,805L65,805L64,806L62,807L60,807L59,809L57,810L56,811L54,812L53,814L52,815L50,817L49,818L48,819L47,821L47,822L47,824L46,826L45,828L45,830L44,831L44,833L44,834L44,836L43,838L43,839L43,841L43,842L43,844L43,845L43,846L43,847L43,848L43,849L43,850L42,848L42,841" stroke-opacity="1" stroke-width="2" stroke-linecap="round" stroke-linejoin="round" style="-webkit-tap-highlight-color: rgba(0, 0, 0, 0); stroke-opacity: 1; stroke-linecap: round; stroke-linejoin: round; -webkit-user-select: text;"></path></svg>