<svg height="906" version="1.1" width="768" xmlns="http://www.w3.org/2000/svg" xmlns:xlink="http://www.w3.org/1999/xlink" style="overflow: hidden; position: relative; -webkit-user-select: text;"><desc style="-webkit-tap-highlight-color: rgba(0, 0, 0, 0); -webkit-user-select: text;">Created with Raphaël 2.2.0</desc><defs style="-webkit-tap-highlight-color: rgba(0, 0, 0, 0); -webkit-user-select: text;"></defs><path fill="none" stroke="#6c7e83" d="M55,71L55,73L57,73L60,73L64,73L69,73L76,73L83,73L90,73L98,73L106,73L115,73L123,73L131,73L139,73L147,73L155,73L164,73L171,73L180,73L189,72L198,72L206,72L214,72L223,72L232,72L239,72L248,72L256,72L264,72L273,72L282,72L291,72L300,72L310,71L319,71L329,71L338,70L346,70L356,70L365,70L373,69L381,69L391,69L398,69L407,68L415,68L423,68L431,68L439,68L446,67L454,67L462,67L470,66L478,66L486,66L494,66L502,65L510,65L518,64L525,64L533,64L540,64L548,64L555,64L562,64L569,64L576,64L583,64L590,64L597,63L604,63L610,63L616,63L622,63L628,62L634,62L640,62L646,62L651,62L657,62L662,62L667,62L672,62L677,62L682,62L686,62L691,62L696,62L700,62L704,62L708,62L711,62L715,62L718,62L721,62L723,61L725,61L727,61L728,61" stroke-opacity="1" stroke-width="2" stroke-linecap="round" stroke-linejoin="round" style="-webkit-tap-highlight-color: rgba(0, 0, 0, 0); stroke-opacity: 1; stroke-linecap: round; stroke-linejoin: round; -webkit-user-select: text;"></path><path fill="none" stroke="#6c7e83" d="M51,142L55,139L57,139L61,139L65,139L70,139L76,139L84,139L93,139L101,139L110,139L120,139L130,139L139,139L148,139L157,139L165,139L175,139L184,139L193,139L202,139L211,139L220,139L229,139L239,139L249,139L259,139L268,139L278,139L287,139L296,139L305,139L314,139L323,139L331,139L341,139L349,139L358,139L367,139L376,139L386,139L396,138L406,138L417,138L427,137L437,137L447,137L457,137L468,137L477,137L487,137L497,137L507,137L516,136L526,136L535,136L544,136L553,136L562,136L570,136L579,136L588,136L597,136L604,136L613,136L621,136L628,137L636,137L643,137L650,137L657,137L664,137L670,137L677,137L682,137L688,137L693,137L698,137L703,138L707,138L711,138L715,139L718,139L720,139L721,139L721,140" stroke-opacity="1" stroke-width="2" stroke-linecap="round" stroke-linejoin="round" style="-webkit-tap-highlight-color: rgba(0, 0, 0, 0); stroke-opacity: 1; stroke-linecap: round; stroke-linejoin: round; -webkit-user-select: text;"></path><path fill="none" stroke="#6c7e83" d="M47,229L54,226L58,226L64,226L70,226L77,226L85,226L95,226L104,226L113,226L123,226L133,227L143,227L153,228L164,228L174,229L185,229L195,229L207,230L218,231L230,231L241,232L252,232L263,233L274,234L285,234L296,235L306,236L317,236L327,236L338,236L349,236L359,236L370,236L380,236L391,236L401,236L412,236L423,236L433,236L444,236L455,236L466,236L477,236L488,236L499,236L509,236L520,236L531,236L541,236L550,236L559,236L568,236L577,235L584,235L593,234L601,234L609,234L616,233L623,233L630,232L636,232L642,232L647,231L653,231L658,231L663,231L668,231L673,231L678,231L682,231L686,231L690,231L693,231L696,231L698,231L700,231L701,231L702,231L703,231L702,231" stroke-opacity="1" stroke-width="2" stroke-linecap="round" stroke-linejoin="round" style="-webkit-tap-highlight-color: rgba(0, 0, 0, 0); stroke-opacity: 1; stroke-linecap: round; stroke-linejoin: round; -webkit-user-select: text;"></path><path fill="none" stroke="#6c7e83" d="M46,332L51,329L55,329L59,329L64,329L69,329L76,329L81,330L87,331L94,331L101,332L109,332L118,333L126,333L135,334L144,334L154,335L164,335L174,335L186,336L197,336L208,336L220,336L232,336L245,337L257,337L267,338L279,338L291,338L302,338L314,338L326,339L338,339L349,340L360,340L371,341L382,341L392,341L403,342L413,342L423,342L434,342L443,342L453,342L462,342L471,342L480,342L489,342L498,342L507,342L516,342L524,342L532,342L540,342L548,342L556,342L564,342L572,342L579,341L586,341L593,341L600,341L606,341L613,341L619,341L625,340L630,340L636,340L642,340L647,340L652,340L657,340L662,340L666,340L670,339L674,339L679,339L682,339L685,338L688,338L690,338L692,338L693,338L694,338L694,337L694,333" stroke-opacity="1" stroke-width="2" stroke-linecap="round" stroke-linejoin="round" style="-webkit-tap-highlight-color: rgba(0, 0, 0, 0); stroke-opacity: 1; stroke-linecap: round; stroke-linejoin: round; -webkit-user-select: text;"></path><path fill="none" stroke="#6c7e83" d="M58,434L60,432L63,432L66,432L70,433L76,434L81,435L88,435L95,436L102,437L110,437L119,438L128,438L135,439L143,440L152,440L161,441L170,441L179,442L189,442L199,443L209,443L218,443L227,444L237,444L247,445L257,445L266,445L276,446L286,446L295,446L305,446L315,446L326,446L336,446L346,446L355,446L365,446L374,446L383,446L392,446L401,446L411,446L421,446L430,446L439,446L448,446L456,446L465,446L472,446L480,446L488,446L495,445L502,445L509,445L516,445L523,445L529,445L536,444L542,444L548,444L553,444L559,444L565,443L570,443L576,443L581,443L587,443L592,442L597,442L602,441L607,441L612,440L617,440L622,440L627,440L632,440L637,440L642,440L646,439L651,439L655,439L659,439L662,439L666,439L670,439L674,439L677,439L681,439L684,439L688,439L692,439L695,439L698,439L701,439L703,439L704,439L706,439L707,438L707,433" stroke-opacity="1" stroke-width="2" stroke-linecap="round" stroke-linejoin="round" style="-webkit-tap-highlight-color: rgba(0, 0, 0, 0); stroke-opacity: 1; stroke-linecap: round; stroke-linejoin: round; -webkit-user-select: text;"></path><path fill="none" stroke="#6c7e83" d="M58,528L60,528L62,528L64,529L66,529L70,530L74,530L81,530L87,531L95,531L103,532L111,532L121,533L131,533L140,533L149,534L158,534L167,535L176,535L185,536L195,536L205,537L215,537L225,538L235,539L246,540L257,540L268,540L279,540L290,540L301,540L312,540L323,540L334,540L344,540L354,540L364,540L373,540L383,540L392,540L401,540L410,540L419,540L428,540L438,540L447,540L456,540L466,540L475,540L484,540L493,540L502,540L511,540L521,540L528,540L538,540L545,540L553,540L561,540L569,540L577,541L584,541L592,541L600,542L607,542L615,542L622,542L629,542L636,542L642,542L647,542L653,542L658,542L663,542L667,542L671,542L675,542L679,542L682,542L686,542L689,542L693,542L695,542L696,542L698,542L699,541" stroke-opacity="1" stroke-width="2" stroke-linecap="round" stroke-linejoin="round" style="-webkit-tap-highlight-color: rgba(0, 0, 0, 0); stroke-opacity: 1; stroke-linecap: round; stroke-linejoin: round; -webkit-user-select: text;"></path><path fill="none" stroke="#6c7e83" d="M54,635L63,635L67,636L70,637L74,638L79,639L84,640L91,640L98,641L105,641L113,641L122,641L132,641L142,641L151,641L160,641L170,641L180,641L190,641L200,641L211,641L221,641L232,641L242,641L254,641L264,641L276,641L288,641L300,641L312,641L324,641L335,641L346,641L356,641L367,641L377,641L388,641L399,641L410,641L421,641L432,642L443,642L454,642L465,642L476,642L487,642L498,643L509,643L519,643L530,643L541,643L550,643L560,643L570,643L578,643L587,643L596,643L604,643L613,643L621,643L629,643L637,643L644,643L651,643L657,643L663,643L668,643L673,643L678,643L683,643L687,643L691,643L694,643L697,643L699,643L698,642" stroke-opacity="1" stroke-width="2" stroke-linecap="round" stroke-linejoin="round" style="-webkit-tap-highlight-color: rgba(0, 0, 0, 0); stroke-opacity: 1; stroke-linecap: round; stroke-linejoin: round; -webkit-user-select: text;"></path><path fill="none" stroke="#6c7e83" d="M53,749L59,750L64,750L70,751L76,751L83,753L90,754L97,756L105,756L113,757L122,758L131,759L140,759L149,760L159,760L169,761L178,761L188,761L198,761L208,761L217,761L227,761L237,761L248,761L259,761L270,761L281,761L293,761L305,761L318,761L329,761L342,761L353,761L366,761L377,761L389,761L400,761L412,761L423,761L434,761L445,762L456,762L466,762L476,762L487,762L497,763L507,763L516,764L526,764L536,764L545,764L555,764L565,764L574,764L584,764L592,764L601,765L609,765L618,765L626,765L633,765L641,765L648,765L655,765L662,765L667,765L673,765L678,765L683,766L687,766L691,766L694,766L695,766L696,766L696,764L691,760" stroke-opacity="1" stroke-width="2" stroke-linecap="round" stroke-linejoin="round" style="-webkit-tap-highlight-color: rgba(0, 0, 0, 0); stroke-opacity: 1; stroke-linecap: round; stroke-linejoin: round; -webkit-user-select: text;"></path><path fill="none" stroke="#6c7e83" d="M40,841L43,839L48,839L54,839L62,839L68,839L77,841L86,843L93,844L103,846L112,847L122,848L132,849L142,850L153,851L163,852L174,853L187,853L199,854L212,854L225,854L237,854L250,854L262,854L275,854L288,854L301,854L314,854L328,854L341,854L354,854L367,854L380,854L393,854L406,854L419,855L431,855L443,855L455,856L465,856L477,856L487,857L497,857L507,858L517,858L526,858L536,858L547,859L557,859L568,860L578,860L588,861L598,861L607,862L617,862L626,863L636,863L645,864L652,864L661,865L668,865L676,865L683,865L689,865L695,865L701,865L705,865L710,865L713,865L716,865L719,865L720,865L721,865L722,864L722,859" stroke-opacity="1" stroke-width="2" stroke-linecap="round" stroke-linejoin="round" style="-webkit-tap-highlight-color: rgba(0, 0, 0, 0); stroke-opacity: 1; stroke-linecap: round; stroke-linejoin: round; -webkit-user-select: text;"></path><path fill="none" stroke="#6c7e83" d="M130,78L134,83L136,87L137,90L140,93L143,97L145,101L148,105L151,109L154,113L157,117L161,122L164,127L167,132L170,136L173,141L176,145L179,150L182,154L185,159L187,164L190,169L193,174L195,179L198,184L201,189L204,194L207,200L210,204L214,210L217,216L221,221L225,227L228,233L231,238L234,244L238,248L241,254L244,260L247,264L250,269L253,273L256,277L259,282L261,285L263,289L265,292L267,296L269,299L271,302L273,304L275,307L277,310L278,312L280,314L281,316L283,319L284,320L286,322L287,323L288,325L289,326L290,328L291,329L292,330L293,331L294,332L295,333L295,334L295,335L296,336L298,336" stroke-opacity="1" stroke-width="2" stroke-linecap="round" stroke-linejoin="round" style="-webkit-tap-highlight-color: rgba(0, 0, 0, 0); stroke-opacity: 1; stroke-linecap: round; stroke-linejoin: round; -webkit-user-select: text;"></path><path fill="none" stroke="#6c7e83" d="M441,241L441,243L441,246L441,248L441,250L440,252L439,255L438,258L437,260L436,264L434,267L433,270L431,274L429,277L427,282L426,286L424,290L421,295L420,299L418,303L416,308L414,312L412,316L410,320L407,325L405,330L402,335L400,341L397,346L395,352L392,359L389,365L386,371L383,377L380,384L377,390L374,396L371,403L368,410L365,416L362,421L359,427L356,433L354,438L351,444L349,449L346,454L344,459L343,463L341,467L339,471L337,475L336,479L334,482L332,486L331,489L329,493L328,496L327,499L326,502L324,504L324,507L322,509L322,511L321,513L320,516L319,517L319,519L318,520L318,521L317,522L317,523L317,524L318,523L322,523" stroke-opacity="1" stroke-width="2" stroke-linecap="round" stroke-linejoin="round" style="-webkit-tap-highlight-color: rgba(0, 0, 0, 0); stroke-opacity: 1; stroke-linecap: round; stroke-linejoin: round; -webkit-user-select: text;"></path><path fill="none" stroke="#6c7e83" d="M537,445L538,445L538,448L540,452L542,457L545,463L547,468L550,474L552,479L555,484L557,489L559,495L561,500L563,505L565,510L567,515L568,520L570,524L572,530L574,535L575,540L577,545L579,550L581,556L583,562L585,567L587,573L589,578L591,583L593,588L595,593L597,597L599,601L600,605L602,609L603,612L604,615L606,618L607,621L608,623L609,625L610,627L611,630L612,632L613,634L614,635L615,637L616,638L616,640L616,641L617,642L618,643L618,644L618,645L619,646L619,647L620,647L620,648L621,648L621,646" stroke-opacity="1" stroke-width="2" stroke-linecap="round" stroke-linejoin="round" style="-webkit-tap-highlight-color: rgba(0, 0, 0, 0); stroke-opacity: 1; stroke-linecap: round; stroke-linejoin: round; -webkit-user-select: text;"></path><path fill="none" stroke="#6c7e83" d="M249,629L244,639L243,643L241,648L238,653L235,657L234,661L232,664L229,668L227,672L226,676L225,679L223,683L221,686L219,690L217,694L216,698L214,701L212,706L210,710L208,715L206,719L204,723L202,728L200,732L198,737L196,741L194,745L192,750L191,754L189,758L187,762L186,766L184,770L182,773L181,777L179,780L178,783L177,786L176,788L174,791L173,794L172,797L171,800L169,802L169,805L168,807L167,810L166,812L165,815L164,817L164,819L163,821L163,823L162,824L162,825L162,826L161,827L161,828L162,828" stroke-opacity="1" stroke-width="2" stroke-linecap="round" stroke-linejoin="round" style="-webkit-tap-highlight-color: rgba(0, 0, 0, 0); stroke-opacity: 1; stroke-linecap: round; stroke-linejoin: round; -webkit-user-select: text;"></path><path fill="none" stroke="#6c7e83" d="M399,863L397,856L397,854L397,852L397,849L396,846L395,843L395,839L394,836L393,832L392,828L392,824L391,819L390,815L389,811L389,807L388,802L387,798L386,793L385,788L384,784L383,779L383,775L381,770L380,766L379,761L378,756L377,752L375,747L374,742L373,738L371,733L370,729L368,724L367,719L366,715L364,710L362,705L361,701L360,697L358,693L358,689L356,685L355,681L354,676L353,672L352,668L351,664L350,659L349,655L348,651L347,647L346,643L345,639L344,635L343,632L341,627L340,624L339,620L338,617L337,613L336,609L335,605L334,601L333,597L332,594L331,590L329,586L329,583L327,579L327,576L326,572L324,569L324,566L323,563L322,559L322,556L321,553L320,550L319,547L319,544L318,540L317,537L316,534L315,531L314,528L314,525L313,522L312,519L311,516L310,513L310,510L309,507L309,504L308,501L307,499L307,496L306,494L306,491L305,489L305,486L304,484L304,482L303,479L303,477L302,475L302,473L302,472L301,470L301,468L301,467L300,465L300,464L300,463L300,462L299,460L299,459L299,458L299,457" stroke-opacity="1" stroke-width="2" stroke-linecap="round" stroke-linejoin="round" style="-webkit-tap-highlight-color: rgba(0, 0, 0, 0); stroke-opacity: 1; stroke-linecap: round; stroke-linejoin: round; -webkit-user-select: text;"></path><path fill="none" stroke="#6c7e83" d="M528,357L524,355L524,354L524,353L526,350L527,347L529,343L531,340L533,336L535,332L537,328L539,324L541,321L543,317L545,312L548,309L550,305L552,300L554,296L556,291L558,287L561,282L563,277L566,273L568,267L570,262L573,257L575,252L577,246L579,241L582,236L584,231L586,226L588,221L590,215L592,210L594,205L596,200L599,196L601,191L603,187L605,182L607,178L609,173L611,169L613,166L615,161L617,157L619,153L621,149L622,146L624,142L626,139L627,136L628,132L630,129L631,127L632,124L633,121L635,118L636,116L637,113L638,111L639,109L640,107L641,105L642,102L643,100L644,99L645,97L645,95L646,93L647,92L648,90L649,88L650,87L650,85L651,84L652,83L652,81L653,80L654,79L654,78L655,78L655,77L655,76L656,76" stroke-opacity="1" stroke-width="2" stroke-linecap="round" stroke-linejoin="round" style="-webkit-tap-highlight-color: rgba(0, 0, 0, 0); stroke-opacity: 1; stroke-linecap: round; stroke-linejoin: round; -webkit-user-select: text;"></path><path fill="none" stroke="#6c7e83" d="M410,63L411,64L411,66L411,69L411,73L411,77L412,80L412,85L412,90L413,95L413,101L413,107L414,113L414,119L414,126L415,132L415,138L416,144L416,150L417,156L417,163L417,168L417,174L417,180L417,186L417,191L417,197L417,202L417,207L417,213L417,219L417,225L417,231L417,237L417,242L417,248L417,253L417,259L417,264L417,270L417,275L417,280L417,285L417,290L417,295L417,300L417,304L417,309L417,313L417,317L417,321L417,325L417,328L417,331L417,334L417,337L417,340L417,342L417,345L417,347L417,348L417,350L417,352L417,353L417,355L417,356L418,357L418,358L419,358" stroke-opacity="1" stroke-width="2" stroke-linecap="round" stroke-linejoin="round" style="-webkit-tap-highlight-color: rgba(0, 0, 0, 0); stroke-opacity: 1; stroke-linecap: round; stroke-linejoin: round; -webkit-user-select: text;"></path><path fill="none" stroke="#6c7e83" d="M132,548L130,544L130,546L130,548L130,551L130,554L129,557L128,559L127,562L127,566L126,569L125,572L125,575L124,578L123,581L122,584L121,587L120,591L119,595L118,598L117,603L115,606L115,610L113,615L112,618L111,622L110,626L109,630L108,633L107,637L105,641L104,645L103,649L102,653L101,657L100,660L99,664L98,668L97,671L96,676L94,679L93,683L92,688L91,692L89,695L88,700L87,703L86,707L85,711L84,715L82,718L81,721L80,725L79,727L78,730L77,732L77,734L76,735L76,737L75,738L75,739L74,740L74,738" stroke-opacity="1" stroke-width="2" stroke-linecap="round" stroke-linejoin="round" style="-webkit-tap-highlight-color: rgba(0, 0, 0, 0); stroke-opacity: 1; stroke-linecap: round; stroke-linejoin: round; -webkit-user-select: text;"></path><path fill="none" stroke="#6c7e83" d="M206,446L198,443L198,442L196,441L195,439L193,438L192,435L191,433L188,431L187,428L185,425L183,422L181,419L179,416L177,413L175,410L174,407L172,404L170,401L169,399L167,396L166,394L164,392L163,390L162,387L161,386L160,384L159,382L158,380L157,378L156,377L154,375L154,373L153,371L152,370L151,368L150,367L149,365L149,363L148,362L147,360L147,358L146,357L145,355L144,354L144,353L143,351L143,350L142,349L142,348L141,347L141,346L140,345L140,344L139,344L139,343" stroke-opacity="1" stroke-width="2" stroke-linecap="round" stroke-linejoin="round" style="-webkit-tap-highlight-color: rgba(0, 0, 0, 0); stroke-opacity: 1; stroke-linecap: round; stroke-linejoin: round; -webkit-user-select: text;"></path><path fill="none" stroke="#6c7e83" d="M426,849L429,850L429,849L430,848L430,847L431,846L431,845L432,843L433,842L434,840L434,838L435,836L436,834L438,832L439,829L441,827L442,824L443,822L444,819L446,816L447,813L448,811L449,808L450,805L451,803L453,800L454,797L455,795L456,792L458,789L459,787L460,784L462,782L463,779L465,777L466,774L467,772L469,769L470,766L472,763L474,759L475,756L477,752L479,749L481,745L483,741L485,737L487,733L489,729L491,726L492,722L494,718L497,714L498,710L500,707L502,703L503,700L504,698L506,695L507,692L508,690L509,687L510,685L511,683L512,681L514,679L514,678L515,676L516,674L517,673L517,672L518,671L519,669L519,668L520,666L521,665L521,664L522,662L523,661L524,659L524,657L525,656L526,654L526,653L527,651L527,649L528,648L528,647L529,645L530,643L531,642L531,640L532,638L533,637L533,635L534,633L535,632L536,631L536,630L537,628L537,627L538,626L538,625L538,624L539,623L539,622L540,621L540,620L541,620L541,619L541,618L542,617L542,616L543,616L543,615L543,614L543,613L544,613L544,612L545,611L545,610L545,609L546,608L546,607L547,606L547,605L548,603L549,601L549,600L550,599L550,598L551,596L551,595L552,593L553,592L553,591L553,589L554,588L555,587L555,585L556,584L557,582L557,581L558,580L558,579L559,577L559,576L560,574L560,573L560,572L561,571L562,570L562,569L562,567L563,566L564,565L564,564L565,562L566,560L566,559L567,558L567,557L568,556L568,555L569,554L570,553L570,552L570,551L570,550" stroke-opacity="1" stroke-width="2" stroke-linecap="round" stroke-linejoin="round" style="-webkit-tap-highlight-color: rgba(0, 0, 0, 0); stroke-opacity: 1; stroke-linecap: round; stroke-linejoin: round; -webkit-user-select: text;"></path><path fill="none" stroke="#6c7e83" d="M419,66L422,66L424,66L427,66L429,67L433,68L436,68L440,69L444,70L450,71L454,71L459,72L463,73L468,75L472,76L477,77L481,79L485,81L489,83L493,85L497,88L500,90L503,92L506,94L509,97L511,99L513,102L515,104L517,107L520,109L521,112L524,115L525,118L527,121L529,124L531,127L533,130L534,134L536,137L537,140L538,144L539,147L540,151L541,154L541,158L542,161L543,165L544,168L544,172L545,176L545,180L545,183L545,187L545,191L545,195L545,198L545,202L545,206L544,210L543,215L542,219L541,224L539,228L538,232L536,236L535,240L533,244L531,248L530,251L528,255L526,258L525,261L523,265L521,268L519,271L517,274L515,277L513,281L511,284L509,287L506,290L504,293L501,297L499,299L497,302L494,304L492,307L490,309L488,311L486,314L483,316L481,317L478,319L476,321L473,322L471,324L468,325L466,326L464,327L462,328L460,329L458,330L455,331L453,332L451,333L449,333L447,334L445,334L443,335L441,336L439,336L437,336L436,337L434,337L433,338L431,338L430,338L429,338L428,338L427,339L426,339L425,339L424,339L424,340" stroke-opacity="1" stroke-width="2" stroke-linecap="round" stroke-linejoin="round" style="-webkit-tap-highlight-color: rgba(0, 0, 0, 0); stroke-opacity: 1; stroke-linecap: round; stroke-linejoin: round; -webkit-user-select: text;"></path><path fill="none" stroke="#6c7e83" d="M319,324L319,329L319,331L321,335L323,339L326,343L329,348L332,353L336,358L340,362L344,366L349,370L353,374L358,378L364,382L369,385L375,389L380,393L386,396L392,399L398,403L404,406L411,411L417,414L423,418L428,422L433,425L437,429L442,433L446,437L449,441L452,445L455,449L458,453L460,458L463,462L465,467L467,471L468,475L470,479L472,483L473,487L474,491L475,495L475,500L476,504L476,508L477,513L477,518L477,523L477,527L477,532L477,537L477,541L476,547L475,552L473,557L472,562L470,568L468,574L465,579L463,584L461,589L459,594L457,599L455,603L452,608L449,613L447,617L444,621L441,625L438,630L436,633L433,637L430,641L427,644L424,647L421,649L418,652L414,654L412,656L408,658L405,660L402,661L399,663L395,664L392,665L389,666L385,667L383,667L380,668L377,669L373,669L370,669L368,670L365,670L362,670L359,670L356,670L353,670L350,670L347,670L344,670L342,670L339,670L337,670L334,670L332,669L329,669L327,668L324,667L322,666L320,666L317,665L315,664L313,663L311,662L309,661L307,660L305,659L303,658L301,657L299,656L297,654L295,653L293,652L292,651L290,650L288,649L287,648L285,647L283,646L281,645L280,644L278,643L276,642L275,642L273,641L272,641L271,640L269,640L268,639L266,638L265,638L264,637L263,637L262,637L261,637L260,637L259,637L258,637L258,636L258,635L258,634L258,632" stroke-opacity="1" stroke-width="2" stroke-linecap="round" stroke-linejoin="round" style="-webkit-tap-highlight-color: rgba(0, 0, 0, 0); stroke-opacity: 1; stroke-linecap: round; stroke-linejoin: round; -webkit-user-select: text;"></path><path fill="none" stroke="#6c7e83" d="M249,633L255,628L255,626L255,625L255,623L255,621L256,619L256,617L256,614L256,611L256,608L256,605L256,601L256,598L256,595L256,591L255,588L254,584L254,580L252,576L251,572L249,568L246,564L244,559L242,555L239,552L235,548L232,544L229,540L225,537L221,534L217,530L212,527L208,524L203,521L199,519L194,516L190,515L186,513L182,511L178,510L174,509L170,508L166,508L162,508L158,508L154,508L149,508L145,508L140,508L136,508L132,510L128,511L124,513L121,514L118,516L115,518L113,519L110,521L108,523L106,525L104,527L102,529L99,532L98,535L96,537L94,540L93,544L91,547L89,550L88,553L86,557L86,559L84,562L84,565L83,568L82,571L81,574L81,577L81,580L80,582L80,584L80,586L80,588L80,590L80,592L80,594L80,596L80,598L80,600L80,602L80,604L80,606L80,608L80,610L80,611L80,613L80,614L80,615L80,617L80,619L81,620L81,622L81,623L82,625L82,626L82,627L83,628L83,630L84,631L84,632" stroke-opacity="1" stroke-width="2" stroke-linecap="round" stroke-linejoin="round" style="-webkit-tap-highlight-color: rgba(0, 0, 0, 0); stroke-opacity: 1; stroke-linecap: round; stroke-linejoin: round; -webkit-user-select: text;"></path><path fill="none" stroke="#6c7e83" d="M73,633L80,632L82,632L84,632L85,632L86,632L87,633L88,634L89,635L91,637L92,638L93,640L94,641L96,642L96,644L98,646L99,648L100,649L101,651L102,653L103,654L104,657L105,658L106,660L108,662L108,664L110,666L110,668L112,670L113,673L114,675L115,678L117,681L118,685L119,688L120,691L121,695L122,699L123,703L124,707L125,710L126,714L127,718L128,722L130,726L131,731L132,735L134,739L135,744L137,748L139,751L142,756L144,759L146,763L149,766L152,770L155,773L158,776L162,779L166,782L169,785L172,787L176,789L179,791L183,793L186,795L189,796L192,797L195,798L198,799L200,800L204,800L207,801L210,801L213,802L216,802L219,802L222,802L224,802L227,802L230,802L233,802L235,802L238,802L241,802L244,802L247,802L250,802L252,802L255,802L257,802L259,801L261,801L263,800L266,800L268,799L270,798L272,797L274,796L276,795L278,793L280,792L282,790L284,789L286,787L288,785L289,783L291,782L292,780L293,778L295,776L296,774L297,772L298,770L300,768L300,765L302,763L302,760L303,757L304,754L305,751L306,748L306,745L307,742L307,739L308,736L308,732L309,729L309,725L309,722L309,719L309,715L309,712L309,709L309,705L309,702L309,698L308,695L307,691L307,688L305,685L304,681L303,678L302,674L300,671L298,668L297,665L295,661L294,659L293,656L291,653L290,649L288,647L286,643L285,640L283,637L281,634L280,631L278,627L277,624L276,621L275,618L274,614L273,611L271,608L271,605L270,601L269,597L268,594L268,591L267,587L267,584L266,581L266,577L266,574L266,570L266,567L266,564L266,560L266,557L266,554L266,550L266,547L266,543L266,540L266,537L266,533L267,530L267,527L268,524L269,521L270,518L271,515L271,513L273,510L273,507L274,505L276,502L277,499L278,497L279,494L280,492L282,489L283,487L285,485L286,483L287,481L289,479L290,478L292,476L294,474L296,472L298,471L300,469L302,467L303,466L305,465L307,463L309,462L311,461L312,460L314,458L315,457L317,457L318,456L319,456L320,455L320,454" stroke-opacity="1" stroke-width="2" stroke-linecap="round" stroke-linejoin="round" style="-webkit-tap-highlight-color: rgba(0, 0, 0, 0); stroke-opacity: 1; stroke-linecap: round; stroke-linejoin: round; -webkit-user-select: text;"></path><path fill="none" stroke="#6c7e83" d="M101,420L96,416L93,413L90,410L88,407" stroke-opacity="1" stroke-width="2" stroke-linecap="round" stroke-linejoin="round" style="-webkit-tap-highlight-color: rgba(0, 0, 0, 0); stroke-opacity: 1; stroke-linecap: round; stroke-linejoin: round; -webkit-user-select: text;"></path><path fill="none" stroke="#6c7e83" d="M69,395L73,392L75,390L78,387L81,384L84,380L87,377L91,374L95,371L100,368L106,365L113,362L120,359L127,356L132,355L139,353L146,352L153,351L160,350L168,350L175,350L182,350L188,350L195,350L201,350L207,350L212,350L218,351L224,353L229,354L234,355L239,357L244,358L248,360L252,362L256,364L260,365L264,367L267,370L271,372L274,374L277,376L280,378L283,381L286,384L289,386L292,389L295,392L298,395L300,398L303,401L306,404L308,407L310,411L313,414L315,417L317,421L319,424L321,427L322,430L324,433L326,436L328,439L329,442L330,444L331,447L332,449L334,451L334,453L335,455L336,456L336,457L337,458L337,459" stroke-opacity="1" stroke-width="2" stroke-linecap="round" stroke-linejoin="round" style="-webkit-tap-highlight-color: rgba(0, 0, 0, 0); stroke-opacity: 1; stroke-linecap: round; stroke-linejoin: round; -webkit-user-select: text;"></path><path fill="none" stroke="#6c7e83" d="M346,451L345,455L344,459L342,462L339,466L336,469L331,473L327,476L322,479L316,481L310,484L303,487L297,490L290,493L283,496L278,497L271,499L266,500L260,501L255,501L249,501L244,502L238,502L232,502L225,502L219,502L212,502L206,502L200,501L194,499L188,498L180,496L174,493L168,491L162,489L156,486L151,483L145,479L140,477L135,473L131,469L127,465L123,462L119,458L116,454L113,451L111,448L109,444L108,440L106,436L105,433L104,430L103,426L102,423L101,420L101,417L100,414L100,411L99,408L99,405L99,401L99,399L99,396L99,393L99,390L100,387L101,384L102,381L104,378L105,376L108,372L110,370L112,367L114,363L118,359L120,355L123,352L126,348L129,344L132,341L135,336L138,332L141,328L144,324L147,320L150,316L153,312L156,308L159,304L161,300L165,296L168,292L171,287L174,283L176,279L179,275L181,270L184,266L186,262L189,257L191,253L193,248L195,244L197,239L198,234L200,229L202,225L203,221L205,216L206,211L207,207L208,202L209,198L210,194L211,190L211,185L212,181L212,177L213,173L213,169L214,165L214,161L214,156L215,152L215,148L215,144L215,140L215,136L215,132L215,127L215,124L214,121L213,117L212,114L211,111L210,108L209,105L208,102L206,100L205,97L203,94L202,92L200,89L199,87L197,85L196,83L194,81L193,79L191,78L189,76L187,74L185,73L183,71L181,70L179,69L177,68L175,66L172,65L170,64L167,63L164,63L162,62L159,61L156,61L153,60L150,60L147,59L144,59L142,58L139,58L137,58L134,58L131,58L128,58L125,58L122,58L120,59L117,59L115,61L113,62L110,63L108,64L106,66L105,67L103,68L102,69L101,69L100,70" stroke-opacity="1" stroke-width="2" stroke-linecap="round" stroke-linejoin="round" style="-webkit-tap-highlight-color: rgba(0, 0, 0, 0); stroke-opacity: 1; stroke-linecap: round; stroke-linejoin: round; -webkit-user-select: text;"></path><path fill="none" stroke="#6c7e83" d="M89,54L87,61L87,66L87,71L87,77L87,83L87,90L87,97L87,105L87,111L87,119L87,127L89,135L91,143L93,151L96,159L99,166L103,174L106,182L110,190L113,197L118,204L122,211L126,218L130,224L135,231L139,237L144,243L149,248L154,254L158,260L163,265L168,270L173,274L178,279L184,283L189,288L195,292L200,296L205,299L210,303L215,307L221,311L225,314L231,316L236,319L241,321L246,324L251,326L256,327L261,329L265,330L270,331L274,332L278,333L283,333L286,333L290,334L294,334L298,334L301,334L305,334L308,334L312,334L314,334L321,334L324,334L327,334L330,334L334,334L337,333L341,333L344,332L347,331L351,331L354,330L358,329L361,328L365,327L368,326L371,325L375,324L378,323L381,322L384,321L387,319L390,319L392,317L395,316L397,315L399,314L401,313L402,312L404,311L405,311L407,310L408,309L408,307" stroke-opacity="1" stroke-width="2" stroke-linecap="round" stroke-linejoin="round" style="-webkit-tap-highlight-color: rgba(0, 0, 0, 0); stroke-opacity: 1; stroke-linecap: round; stroke-linejoin: round; -webkit-user-select: text;"></path><path fill="none" stroke="#6c7e83" d="M484,70L472,65L468,64L463,62L459,61L454,59L449,57L444,56L439,55L434,54L428,54L421,54L414,54L408,54L402,56L396,58L390,61L384,65L379,69L375,74L371,79L367,85L363,90L360,97L357,103L354,109L352,115L350,121L348,128L347,135L345,142L344,149L344,156L343,163L342,169L342,176L342,183L342,189L342,195L342,202L342,208L343,214L345,220L346,226L349,232L351,238L353,243L356,248L358,253L361,258L364,263L366,267L370,271L373,275L376,278L380,282L383,285L387,288L392,291L396,294L401,297L406,299L412,302L417,304L423,307L429,309L434,311L441,314L447,316L454,317L460,319L466,321L472,322L479,324L485,325L490,326L496,328L501,329L507,330L511,332L517,333L522,335L527,337L532,339L537,341L541,343L546,345L551,347L556,350L560,352L565,355L570,358L574,360L578,363L583,366L587,369L590,372L593,375L597,378L600,381L603,385L606,388L609,392L612,395L615,399L618,402L621,406L623,410L626,413L629,417L631,421L634,424L636,428L639,432L641,436L643,440L645,444L647,448L649,452L651,457L653,461L654,465L656,470L657,474L658,479L659,483L660,488L661,493L662,498L663,502L663,507L664,511L664,516L664,520L665,524L665,528L665,532L665,536L665,540L665,543L665,547L665,550L664,554L663,557L663,561L662,564L661,568L660,571L659,574L658,577L657,580L657,583L655,585L654,588L653,590L651,593L650,596L648,599L647,602L645,605L643,607L641,610L640,613L638,616L635,618L633,621L631,623L629,626L627,628L625,630L623,631L621,633L618,635L616,636L614,638L612,640L611,641L609,643L607,644L606,645L605,646L604,646L604,647L604,648L604,647L604,644" stroke-opacity="1" stroke-width="2" stroke-linecap="round" stroke-linejoin="round" style="-webkit-tap-highlight-color: rgba(0, 0, 0, 0); stroke-opacity: 1; stroke-linecap: round; stroke-linejoin: round; -webkit-user-select: text;"></path><path fill="none" stroke="#6c7e83" d="M600,342L598,344L598,346L596,348L595,351L593,354L591,358L589,361L587,365L586,368L584,372L582,375L580,379L579,382L577,386L575,390L573,394L571,398L569,401L567,405L565,409L562,413L560,416L558,420L556,423L554,427L552,431L550,435L548,438L546,442L544,445L542,448L541,451L539,454L537,457L535,461L533,464L532,467L530,471L528,474L527,478L525,481L524,484L522,488L520,491L519,494L517,498L515,501L514,503L512,507L511,510L509,513L507,516L506,519L504,522L503,525L502,528L501,531L499,534L499,537L497,540L497,543L495,547L494,550L493,553L492,556L492,559L491,562L490,564L490,567L489,569L489,572L488,575L488,578L487,580L487,583L487,586L487,588L487,591L487,594L487,596L487,599L487,602L487,605L487,608L487,610L487,613L487,616L487,620L487,623L487,626L487,630L487,633L487,637L487,641L487,645L488,649L489,653L490,657L491,662L492,666L493,670L494,674L496,678L497,682L498,686L499,689L501,693L502,696L504,699L505,703L507,705L509,709L510,711L512,714L514,717L516,720L517,722L519,725L521,727L523,729L525,732L527,734L529,737L532,739L534,742L537,744L539,746L541,748L544,750L546,752L548,754L551,755L553,757L555,758L558,760L560,761L563,762L565,764L568,765L571,766L574,768L577,769L579,770L583,771L586,772L589,773L592,774L596,775L599,776L603,777L606,778L610,778L613,779L617,780L621,781L624,781L628,781L631,782L635,782L638,783L641,783L644,783L647,783L650,783L653,783L656,783L658,783L661,783L664,783L667,783L669,783L671,783L674,783L676,783L678,782L680,781L682,781L684,780L686,779L687,778L688,778L689,778L690,777L691,777L691,776L692,776L692,774L692,773L692,768" stroke-opacity="1" stroke-width="2" stroke-linecap="round" stroke-linejoin="round" style="-webkit-tap-highlight-color: rgba(0, 0, 0, 0); stroke-opacity: 1; stroke-linecap: round; stroke-linejoin: round; -webkit-user-select: text;"></path><path fill="none" stroke="#6c7e83" d="M684,769L683,768L683,766L683,762L681,759L679,753L676,749L673,744L670,739L667,734L664,729L661,724L658,718L655,712L652,704L650,697L647,690L645,683L643,675L641,668L640,660L638,653L636,645L635,639L633,632L632,625L631,618L630,612L628,605L627,599L625,592L623,586L620,580L617,574L614,569L611,564L607,560L604,556L600,553L596,550L592,547L588,545L584,543L580,542L576,541L571,541L567,540L562,540L557,540L552,540L546,541L541,542L536,544L531,547L526,550L521,553L516,556L512,560L507,565L503,570L499,576L495,581L491,586L487,593L484,599L481,605L478,611L475,618L473,623L470,629L469,635L467,640L466,646L465,651L464,656L463,660L463,665L462,670L462,675L461,680L461,684L460,689L460,693L460,698L459,702L459,706L459,711L458,715L458,720L458,724L457,729L456,733L455,737L455,742L454,746L453,749L453,753L451,757L451,761L449,765L448,768L447,772L446,776L444,779L442,783L441,786L439,789L438,793L436,796L434,799L433,802L431,805L429,809L427,812L426,815L424,817L422,820L420,822L419,824L417,827L414,829L412,832L410,834L407,836L405,838L403,839L401,841L398,842L396,844L393,845L390,846L388,848L385,849L383,849L380,850L378,851L375,851L373,852L370,853L368,853L365,854L363,854L361,855L358,855L356,855L353,855L351,855L348,855L345,855L343,855L340,855L338,855L335,855L332,855L330,855L327,855L325,855L323,855L320,855L318,855L316,855L314,855L312,855L309,855L307,855L305,855L303,855L301,854L298,854L296,854L295,854L293,853L290,853L288,853L286,853L284,853L282,853L280,852L278,852L276,852L274,852L273,852L271,852L268,852L267,852L265,851L263,851L262,851L261,851L259,851L258,851L257,851L257,850L256,850L250,850" stroke-opacity="1" stroke-width="2" stroke-linecap="round" stroke-linejoin="round" style="-webkit-tap-highlight-color: rgba(0, 0, 0, 0); stroke-opacity: 1; stroke-linecap: round; stroke-linejoin: round; -webkit-user-select: text;"></path><path fill="none" stroke="#6c7e83" d="M173,848L180,849L183,849L186,849L189,849L193,849L197,849L202,849L207,849L212,849L216,849L221,849L225,849L229,849L234,849L239,849L243,848L248,847L254,846L260,844L267,843L273,841L279,839L285,837L291,834L298,831L304,828L310,824L314,822L319,818L324,815L329,810L333,805L337,800L341,795L345,790L349,785L352,779L355,774L358,769L361,763L363,757L366,751L368,746L370,739L372,733L373,726L375,720L376,712L377,705L378,698L379,691L380,684L380,676L381,669L381,661L381,653L381,645L381,638L381,631L380,625L378,618L375,612L373,606L371,601L369,596L366,591L364,586L361,582L358,578L356,574L353,570L350,566L347,563L345,559L342,556L339,553L336,550L333,547L330,545L327,543L324,541L321,539L318,537L315,536L313,535L310,533L307,533L305,532L302,531L300,530L297,530L295,530L293,530L292,529L290,529L290,528L289,528" stroke-opacity="1" stroke-width="2" stroke-linecap="round" stroke-linejoin="round" style="-webkit-tap-highlight-color: rgba(0, 0, 0, 0); stroke-opacity: 1; stroke-linecap: round; stroke-linejoin: round; -webkit-user-select: text;"></path><path fill="none" stroke="#6c7e83" d="M301,543L297,539L295,539L293,539L291,537L288,535L285,533L283,531L280,528L278,526L275,523L273,520L271,516L268,512L266,508L264,503L263,499L261,494L260,488L259,482L258,477L258,470L257,464L257,457L257,450L257,443L258,434L259,427L261,419L263,411L265,403L267,395L270,387L273,379L276,372L280,364L284,355L288,347L293,338L298,330L302,324L307,316L311,309L316,303L321,296L327,290L331,283L336,277L341,271L346,265L352,260L358,255L364,250L370,246L377,241L384,237L391,233L398,230L405,227L412,226L418,225L425,225L431,225L440,225L447,225L454,227L461,230L468,233L474,237L480,241L485,244L490,248L495,253L499,256L503,261L507,265L510,269L514,273L517,277L520,282L523,286L526,291L529,295L532,299L536,304L539,309L543,314L547,319L551,324L555,328L560,333L564,336L569,340L573,344L578,347L583,350L588,353L593,355L597,357L601,359L606,360L610,362L615,362L619,363L623,363L628,363L632,363L636,363L640,363L643,363L647,363L650,363L652,362L655,360L657,359L660,358L662,356L664,354L666,352L668,350L669,348L671,345L673,343L675,340L676,337L677,335L679,332L679,329L680,326L681,324L682,321L682,317L683,314L683,311L683,307L683,304L683,300L683,297L683,293L683,290L683,286L683,282L683,278L682,274L681,270L679,267L678,263L677,260L675,257L674,253L672,250L670,248L668,245L665,242L663,240L661,238L659,236L657,235L655,233L652,232L650,230L648,229L646,228L644,226L642,226L640,224L638,224L636,222L634,221L632,221L630,220L628,219L627,218L625,217L623,216L621,215L620,214L618,214L616,213L615,212L613,212L612,212L611,211L610,211L609,210L608,209L608,208L608,207L609,206" stroke-opacity="1" stroke-width="2" stroke-linecap="round" stroke-linejoin="round" style="-webkit-tap-highlight-color: rgba(0, 0, 0, 0); stroke-opacity: 1; stroke-linecap: round; stroke-linejoin: round; -webkit-user-select: text;"></path><path fill="none" stroke="#6c7e83" d="M650,156L655,151L656,151L658,151L661,151L664,149L667,148L670,146L673,144L675,142L678,140L679,138L681,136L683,133L684,130L686,127L687,124L689,122L690,118L691,115L691,112L692,109L692,105L693,102L693,98L693,95L693,91L693,88L693,84L693,80L692,76L690,72L689,69L686,65L684,62L682,59L679,56L676,52L673,49L670,47L667,44L663,42L660,40L656,39L652,37L649,36L645,35L641,34L637,33L633,33L629,33L624,33L619,33L615,33L610,33L605,33L601,33L596,34L592,35L588,37L584,39L580,41L576,44L572,46L568,50L565,53L561,57L558,60L554,64L550,68L547,72L543,76L540,81L536,85L533,89L530,94L528,98L525,103L523,107L521,112L519,116L517,121L516,126L514,131L513,135L511,141L509,146L508,151L507,156L506,161L504,166L503,170L502,175L502,180L501,185L500,189L499,192L499,197L499,201L498,205L498,209L498,213L498,217L498,221L498,226L498,230L498,234L498,238L498,242L498,246L498,251L498,255L498,258L498,263L499,267L499,271L499,275L500,279L501,282L502,287L502,290L504,294L504,297L505,301L506,304L507,307L507,309L508,312L509,315L510,317L510,319L511,321L511,323L512,325L512,326L513,328L513,329L514,331L514,332L514,333L515,334L515,336L515,337L516,338L516,339L516,340L517,340L518,338" stroke-opacity="1" stroke-width="2" stroke-linecap="round" stroke-linejoin="round" style="-webkit-tap-highlight-color: rgba(0, 0, 0, 0); stroke-opacity: 1; stroke-linecap: round; stroke-linejoin: round; -webkit-user-select: text;"></path><path fill="none" stroke="#6c7e83" d="M513,356L514,360L514,362L514,364L515,367L516,369L517,372L518,375L519,378L521,381L521,385L522,389L524,392L525,396L526,399L526,403L528,407L528,411L529,414L530,418L531,423L532,426L532,431L533,435L533,439L533,444L533,448L533,452L533,457L533,462L533,467L533,471L533,476L533,480L533,485L533,490L533,494L533,499L533,504L532,508L531,514L530,518L528,524L527,529L526,534L525,540L523,545L521,550L520,554L518,559L516,563L514,568L511,572L509,577L506,581L504,585L501,589L498,593L494,597L491,601L488,603L485,606L482,608L478,610L475,612L472,614L469,615L465,617L463,619L460,620L457,621L454,622L452,623L450,624L447,625L444,626L442,627L439,627L436,628L434,629L431,629L428,630L426,630L423,630L420,631L417,631L414,631L411,631L408,631L404,631L402,631L399,631L396,631L393,631L390,631L386,630L383,630L379,629L376,628L373,627L369,626L366,625L363,625L359,623L356,623L353,622L350,621L347,620L344,620L341,619L337,618L335,618L332,617L329,617L327,617L324,616L321,616L319,616L316,616L314,616L311,616L308,616L306,616L303,616L301,616L298,616L296,617L293,617L291,618L288,619L286,620L283,620L281,622L279,623L276,624L274,626L272,627L270,629L268,630L266,632L263,633L261,635L259,636L257,638L255,640L253,642L251,644L249,647L247,649L246,651L244,654L242,656L241,657L239,659L238,661L237,664L235,666L234,668L232,670L231,672L229,674L228,677L227,679L225,681L224,683L223,686L221,688L220,691L219,694L217,697L216,700L215,703L213,706L212,709L211,712L209,715L208,718L206,722L205,725L203,729L202,733L200,737L199,740L197,744L195,748L194,752L193,755L192,759L191,762L189,765L188,768L187,772L185,776L184,779L183,783L181,787L180,791L179,795L178,800L177,804L176,807L175,811L174,815L173,818L173,821L172,825L171,828L170,832L169,835L169,838L168,841L167,844L166,846L166,849L165,850L164,851L164,853L163,854L163,855L162,856L161,856L159,855" stroke-opacity="1" stroke-width="2" stroke-linecap="round" stroke-linejoin="round" style="-webkit-tap-highlight-color: rgba(0, 0, 0, 0); stroke-opacity: 1; stroke-linecap: round; stroke-linejoin: round; -webkit-user-select: text;"></path></svg>