<svg height="618" version="1.1" width="1024" xmlns="http://www.w3.org/2000/svg" xmlns:xlink="http://www.w3.org/1999/xlink" style="overflow: hidden; position: relative; -webkit-user-select: text;"><desc style="-webkit-tap-highlight-color: rgba(0, 0, 0, 0); -webkit-user-select: text;">Created with Raphaël 2.2.0</desc><defs style="-webkit-tap-highlight-color: rgba(0, 0, 0, 0); -webkit-user-select: text;"></defs><path fill="none" stroke="#000000" d="M171,162L176,163L181,163L186,165L192,168L200,171L207,174L215,178L223,183L231,188L238,193L246,198L255,204L263,208L273,213L284,218L297,224L309,230L322,237L335,243L348,250L361,257L373,264L387,271L400,279L414,286L429,293L443,301L458,309L473,318L488,326L503,335L519,343L533,351L548,359L562,367L576,374L590,382L603,389L616,396L627,402L638,408L648,413L656,418L663,422L670,426L675,429L679,432L683,434L686,437L689,439L691,440L693,442L694,442L696,443L696,444L697,444L698,444L700,444L701,444" stroke-opacity="1" stroke-width="10" stroke-linecap="round" stroke-linejoin="round" style="-webkit-tap-highlight-color: rgba(0, 0, 0, 0); stroke-opacity: 1; stroke-linecap: round; stroke-linejoin: round; -webkit-user-select: text;"></path><path fill="none" stroke="#000000" d="M154,381L154,376L155,372L158,367L161,361L166,352L171,343L177,334L183,325L189,315L197,304L206,293L215,281L227,269L238,257L251,246L264,236L278,226L293,218L309,211L325,204L341,198L358,193L376,189L394,185L413,182L431,180L447,180L465,180L482,180L498,180L514,183L530,186L545,191L560,196L574,201L589,208L603,214L618,221L631,229L645,238L658,245L672,255L684,264L697,274L709,284L721,295L733,306L743,318L753,330L762,342L771,355L779,368L787,381L794,394L801,406L808,418L814,430L820,442L825,453L830,464L833,475L836,485L839,495L841,502L842,510L844,516L845,521L846,524L847,527L847,529L847,530L847,531L847,532L848,532L849,530" stroke-opacity="1" stroke-width="10" stroke-linecap="round" stroke-linejoin="round" style="-webkit-tap-highlight-color: rgba(0, 0, 0, 0); stroke-opacity: 1; stroke-linecap: round; stroke-linejoin: round; -webkit-user-select: text;"></path><path fill="none" stroke="#000000" d="M846,114L840,108L838,106L837,106L837,109L841,115L844,121L849,127L853,134L858,141L864,150L869,158L875,167L881,177L886,187L891,198L896,209L900,222L903,235L905,250L905,266L905,282L905,301L904,318L901,337L896,354L891,371L885,387L878,402L869,417L859,431L847,445L835,458L823,471L809,483L794,493L779,500L764,507L747,512L730,517L713,520L696,523L678,524L660,524L643,524L626,524L609,520L592,514L577,507L564,498L552,487L541,474L531,459L522,444L514,427L506,410L499,393L493,377L487,361L482,345L477,329L472,313L468,297L463,281L458,266L453,250L448,234L441,219L434,205L427,192L419,179L410,166L400,154L390,142L379,131L367,121L356,113L343,104L329,97L315,91L302,86L289,81L277,78L263,75L250,74L237,74L225,74L214,74L203,74L192,77L181,81L172,86L163,92L154,99L147,106L140,114L132,121L126,130L121,138L116,146L112,155L108,164L105,175L102,186L100,199L98,212L98,225L98,239L98,252L98,264L100,272L102,281L104,287L106,293L108,298L109,302L110,305L111,308L112,310L112,311L113,313L113,314L113,315L114,315" stroke-opacity="1" stroke-width="10" stroke-linecap="round" stroke-linejoin="round" style="-webkit-tap-highlight-color: rgba(0, 0, 0, 0); stroke-opacity: 1; stroke-linecap: round; stroke-linejoin: round; -webkit-user-select: text;"></path><path fill="none" stroke="#000000" d="M280,554L280,552L281,549L283,546L285,542L288,537L293,531L298,523L304,514L311,505L319,493L327,481L336,468L346,454L358,437L368,422L379,405L391,389L402,373L414,357L425,341L436,325L446,308L457,292L468,274L480,257L493,238L506,220L519,202L533,185L545,168L555,155L566,141L574,129L581,120L585,114L589,109L592,105L594,103L594,101L595,101L596,100L597,100L597,99L598,99L600,98" stroke-opacity="1" stroke-width="10" stroke-linecap="round" stroke-linejoin="round" style="-webkit-tap-highlight-color: rgba(0, 0, 0, 0); stroke-opacity: 1; stroke-linecap: round; stroke-linejoin: round; -webkit-user-select: text;"></path><path fill="none" stroke="#000000" d="M409,48L407,62L407,67L407,73L408,81L410,89L412,98L414,109L417,119L419,130L422,141L426,153L431,165L436,176L442,187L449,200L456,212L464,225L473,238L482,249L492,259L502,269L512,277L524,285L535,293L546,299L558,306L570,312L580,316L593,321L605,324L618,327L629,330L641,332L653,333L665,334L675,335L688,335L700,335L712,335L724,334L735,332L746,330L756,327L766,323L776,320L785,315L794,310L803,305L810,299L818,293L826,287L834,279L842,270L850,259L857,248L864,237L870,227L875,218L879,211L881,206L883,202L884,200L885,199L886,198L886,197L884,195" stroke-opacity="1" stroke-width="10" stroke-linecap="round" stroke-linejoin="round" style="-webkit-tap-highlight-color: rgba(0, 0, 0, 0); stroke-opacity: 1; stroke-linecap: round; stroke-linejoin: round; -webkit-user-select: text;"></path><path fill="none" stroke="#000000" d="M806,69L816,78L820,84L824,92L827,101L831,111L832,120L833,130L834,141L834,154L832,167L827,181L822,191L816,203L808,215L798,226L786,238L772,248L758,257L742,266L727,273L711,279L694,284L677,289L660,292L644,293L629,294L612,295L594,295L577,295L559,293L542,291L525,289L509,286L493,284L477,283L462,281L446,281L431,281L415,281L400,281L385,281L371,284L357,287L341,291L329,294L315,300L302,306L290,312L278,319L266,326L255,333L243,341L232,350L222,360L212,370L203,381L194,391L187,402L180,414L175,424L171,436L167,447L165,456L164,465L164,474L164,484L164,494L164,503L164,512L164,518L166,524L167,529L169,533L170,537L171,539L171,541L172,543L172,544L172,546L172,547L172,548L172,549L171,549L171,546" stroke-opacity="1" stroke-width="10" stroke-linecap="round" stroke-linejoin="round" style="-webkit-tap-highlight-color: rgba(0, 0, 0, 0); stroke-opacity: 1; stroke-linecap: round; stroke-linejoin: round; -webkit-user-select: text;"></path><path fill="none" stroke="#000000" d="M398,568L416,567L414,566L411,564L408,561L404,557L399,551L394,546L387,538L380,531L372,523L363,515L353,504L343,494L332,482L321,470L310,458L298,445L286,432L273,416L261,401L248,387L235,371L223,356L211,340L198,325L186,309L174,294L164,281L152,268L141,255L131,242L121,230L113,218L106,209L101,201L96,196L93,192L91,189L89,187L88,186L87,185L87,184" stroke-opacity="1" stroke-width="10" stroke-linecap="round" stroke-linejoin="round" style="-webkit-tap-highlight-color: rgba(0, 0, 0, 0); stroke-opacity: 1; stroke-linecap: round; stroke-linejoin: round; -webkit-user-select: text;"></path><path fill="none" stroke="#000000" d="M78,456L77,456L77,453L76,447L74,440L73,431L71,420L71,406L71,393L71,377L71,357L74,338L77,319L82,300L88,282L95,264L103,247L111,231L121,216L132,203L142,190L154,179L165,169L178,160L190,153L204,147L218,142L232,138L244,135L259,133L273,133L287,132L301,132L315,132L330,133L344,135L360,139L372,143L387,148L400,153L413,160L426,165L438,172L450,180L462,188L472,196L481,204L491,212L500,221L509,231L517,240L524,249L531,259L538,268L544,278L550,288L556,298L562,309L567,319L573,329L577,339L582,349L587,359L592,369L596,380L601,391L606,403L610,414L614,426L618,438L621,449L624,459L626,468L628,474L629,481L630,485L631,488L632,490L632,492L633,493L633,494L633,495L633,493" stroke-opacity="1" stroke-width="10" stroke-linecap="round" stroke-linejoin="round" style="-webkit-tap-highlight-color: rgba(0, 0, 0, 0); stroke-opacity: 1; stroke-linecap: round; stroke-linejoin: round; -webkit-user-select: text;"></path><path fill="none" stroke="#000000" d="M319,308L322,310L326,312L332,315L338,320L346,326L353,332L359,340L366,348L372,357L379,365L385,374L393,383L401,394L410,404L418,415L427,425L436,435L445,446L455,455L465,465L475,474L487,484L498,493L511,501L523,509L536,516L548,523L559,528L571,533L583,538L596,541L608,544L621,547L633,549L645,549L655,549L667,549L677,549L689,549L699,546L709,544L719,540L728,537L738,534L747,530L756,526L764,520L772,514L780,507L787,500L793,492L799,483L804,473L808,463L811,453L813,444L815,434L815,424L816,414L816,403L816,391L816,380L814,369L811,359L807,350L802,342L796,334L790,325L783,318L776,311L769,305L761,299L754,295L745,289L737,284L730,279L722,274L715,269L707,264L699,259L692,255L683,250L677,246L669,242L662,238L655,233L648,228L641,223L634,218L628,213L621,208L616,204L610,199L605,194L600,189L594,184L589,179L585,173L580,167L576,162L572,156L569,150L565,144L563,138L560,131L557,124L554,117L552,111L549,104L548,97L547,90L546,82L545,75L545,68L545,62L545,55L545,48L545,42L546,37L547,32L548,28L549,25L549,23L550,21L550,20L550,19L551,19L551,18L552,18L552,17L552,16" stroke-opacity="1" stroke-width="10" stroke-linecap="round" stroke-linejoin="round" style="-webkit-tap-highlight-color: rgba(0, 0, 0, 0); stroke-opacity: 1; stroke-linecap: round; stroke-linejoin: round; -webkit-user-select: text;"></path><path fill="none" stroke="#000000" d="M446,129L440,128L442,128L446,128L452,128L459,126L467,124L476,122L486,120L498,118L510,116L522,114L536,111L550,109L564,107L581,105L598,103L617,101L637,98L657,96L679,94L702,92L726,90L750,88L773,86L796,84L816,82L834,80L847,79L858,77L866,77L872,76L877,75L880,75L881,75L882,74L883,74L883,73L884,73L885,73L881,73" stroke-opacity="1" stroke-width="10" stroke-linecap="round" stroke-linejoin="round" style="-webkit-tap-highlight-color: rgba(0, 0, 0, 0); stroke-opacity: 1; stroke-linecap: round; stroke-linejoin: round; -webkit-user-select: text;"></path><path fill="none" stroke="#000000" d="M586,55L590,53L595,51L602,49L612,46L623,43L633,41L644,38L655,35L667,32L679,29L692,27L706,25L719,24L733,24L747,24L760,24L772,24L784,26L796,28L808,31L819,34L830,37L840,41L849,46L858,51L866,57L873,63L879,69L884,75L890,82L894,89L898,97L902,105L905,113L908,121L909,129L911,137L912,145L913,153L914,160L915,168L915,176L915,184L915,192L915,201L915,209L914,217L912,225L910,233L907,241L903,250L900,257L896,265L891,274L886,282L880,290L874,298L867,306L861,313L855,319L849,325L843,330L837,335L829,341L820,346L811,351L801,356L790,361L779,365L767,368L758,369L748,371L739,371L732,372L726,372L720,372L716,372L713,372L711,372L710,372L709,372L709,373L709,374L710,374L713,374L724,374" stroke-opacity="1" stroke-width="10" stroke-linecap="round" stroke-linejoin="round" style="-webkit-tap-highlight-color: rgba(0, 0, 0, 0); stroke-opacity: 1; stroke-linecap: round; stroke-linejoin: round; -webkit-user-select: text;"></path><path fill="none" stroke="#000000" d="M672,415L667,406L669,403L674,399L682,395L689,391L698,388L707,386L717,384L727,382L736,381L746,381L755,381L764,381L772,381L779,383L786,387L793,391L799,396L805,400L810,405L815,411L820,417L824,423L827,430L830,436L833,442L836,448L839,454L842,461L844,467L847,473L850,480L854,486L857,493L861,499L865,505L869,510L873,515L877,520L881,524L884,528L888,532L892,535L895,539L899,541L902,544L905,546L908,548L911,549L914,551L916,552L919,553L921,554L923,554L926,555L929,555L931,556L934,556L936,556L938,556L940,556L942,556L944,556L946,556L948,556L950,556L951,556L954,556L956,556L958,555L961,554L963,554L964,553L966,553L967,552L968,551L969,551L970,551L968,549" stroke-opacity="1" stroke-width="10" stroke-linecap="round" stroke-linejoin="round" style="-webkit-tap-highlight-color: rgba(0, 0, 0, 0); stroke-opacity: 1; stroke-linecap: round; stroke-linejoin: round; -webkit-user-select: text;"></path><path fill="none" stroke="#000000" d="M929,509L933,508L933,505L933,502L933,498L933,494L933,489L933,482L933,475L933,467L933,456L933,446L933,435L934,424L934,413L934,401L935,390L935,378L935,367L935,357L935,346L935,335L935,323L935,312L935,300L935,288L935,276L935,262L935,250L935,236L936,221L937,207L938,193L939,180L941,167L941,157L942,147L942,140L942,134L942,130L942,127L942,126L942,125L942,124L942,123L942,122L941,122L940,122" stroke-opacity="1" stroke-width="10" stroke-linecap="round" stroke-linejoin="round" style="-webkit-tap-highlight-color: rgba(0, 0, 0, 0); stroke-opacity: 1; stroke-linecap: round; stroke-linejoin: round; -webkit-user-select: text;"></path><path fill="none" stroke="#000000" d="M910,38L912,40L912,42L912,45L912,49L912,55L912,61L912,69L911,77L910,87L908,96L906,108L903,118L900,129L897,139L893,149L890,160L885,170L879,181L873,190L866,200L858,209L850,217L842,225L834,231L825,236L818,240L808,244L798,246L787,248L776,249L767,250L756,250L745,250L733,250L722,248L711,246L699,243L688,240L677,237L665,233L653,229L642,224L631,219L621,213L611,208L600,202L589,194L579,189L567,181L556,174L547,167L535,159L524,151L512,142L500,134L488,125L475,116L462,108L448,99L435,90L421,82L407,74L393,65L380,58L367,50L355,42L346,36L336,31L330,27L324,24L320,21L317,19L315,18L313,16L312,16L311,16L311,15L311,13" stroke-opacity="1" stroke-width="10" stroke-linecap="round" stroke-linejoin="round" style="-webkit-tap-highlight-color: rgba(0, 0, 0, 0); stroke-opacity: 1; stroke-linecap: round; stroke-linejoin: round; -webkit-user-select: text;"></path><path fill="none" stroke="#000000" d="M276,11L268,11L264,11L259,10L253,9L246,7L237,5L229,3L221,1L212,-1L203,-3L193,-4L183,-5L172,-5L160,-5L149,-4L139,-2L128,2L118,6L109,13L98,22L90,33L83,46L78,60L74,75L72,89L71,105L71,123L72,136L78,150L84,162L91,173L100,184L108,191L116,199L126,205L135,209L145,213L156,216L165,218L177,219L188,219L201,219L213,219L226,217L239,214L251,211L264,208L278,204L293,201L308,197L322,193L336,191L350,189L363,187L376,187L389,187L401,188L413,191L424,196L435,201L445,208L453,215L462,223L469,233L476,243L482,254L487,266L490,278L493,290L495,302L496,312L496,324L496,336L496,346L494,358L490,368L486,379L481,390L475,400L467,412L460,422L451,433L443,442L435,450L424,461L414,470L403,480L392,489L380,498L369,505L357,513L344,519L332,526L319,531L308,535L297,539L285,543L273,546L261,548L251,549L239,549L228,549L216,549L204,549L193,548L181,546L171,544L162,542L153,539L143,535L134,531L125,526L119,522L112,517L105,512L100,507L95,501L91,495L86,490L83,484L79,479L76,474L74,469L72,464L70,460L69,456L67,454L67,452L66,451L66,450L66,449L68,449" stroke-opacity="1" stroke-width="10" stroke-linecap="round" stroke-linejoin="round" style="-webkit-tap-highlight-color: rgba(0, 0, 0, 0); stroke-opacity: 1; stroke-linecap: round; stroke-linejoin: round; -webkit-user-select: text;"></path><path fill="none" stroke="#000000" d="M70,408L82,410L90,411L101,414L113,417L126,421L138,425L151,428L164,433L178,438L193,444L209,449L225,453L242,459L259,464L276,470L294,475L313,481L332,486L350,493L368,499L387,504L405,510L424,516L442,522L459,527L475,532L491,537L506,542L520,546L531,550L541,553L548,556L555,558L559,559L563,561L566,561L567,562L568,563L569,563L570,563L568,563L565,562L563,560L562,556" stroke-opacity="1" stroke-width="10" stroke-linecap="round" stroke-linejoin="round" style="-webkit-tap-highlight-color: rgba(0, 0, 0, 0); stroke-opacity: 1; stroke-linecap: round; stroke-linejoin: round; -webkit-user-select: text;"></path><path fill="none" stroke="#000000" d="M608,572L616,580L621,580L626,580L633,580L640,580L648,580L656,580L665,580L674,578L683,577L692,574L702,571L712,568L721,563L731,558L740,553L749,547L757,540L764,534L770,526L775,516L779,507L781,496L783,488L784,478L784,467L784,456L782,444L778,434L773,425L767,415L759,407L750,400L741,394L731,388L720,383L710,379L698,376L686,374L673,372L660,371L647,370L634,370L621,370L608,370L596,370L583,371L570,374L557,377L542,382L528,387L515,393L502,399L489,405L476,411L463,417L450,421L439,425L427,430L416,434L405,439L395,444L385,449L375,454L365,459L354,464L345,470L336,476L327,482L319,488L313,493L307,497L303,500L300,502L297,504L295,505L294,505L293,505L293,506L293,505L292,503L292,497" stroke-opacity="1" stroke-width="10" stroke-linecap="round" stroke-linejoin="round" style="-webkit-tap-highlight-color: rgba(0, 0, 0, 0); stroke-opacity: 1; stroke-linecap: round; stroke-linejoin: round; -webkit-user-select: text;"></path><path fill="none" stroke="#000000" d="M380,546L373,549L368,549L362,551L356,553L349,555L341,556L334,558L325,559L317,561L307,563L298,564L288,565L277,566L267,566L256,566L244,565L234,562L224,558L213,552L203,546L193,537L185,529L178,519L171,507L165,494L161,479L158,464L157,447L156,429L156,410L158,391L163,374L169,357L178,341L188,325L202,309L214,298L228,287L242,277L257,270L272,265L288,262L302,261L316,260L330,260L343,262L355,267L367,273L379,281L390,289L400,298L408,308L415,316L421,326L428,336L434,346L439,357L444,368L449,378L453,390L458,401L463,413L468,423L473,434L477,445L482,455L488,465L493,475L499,485L505,494L512,502L519,511L526,519L534,527L542,535L551,542L559,549L568,556L577,563L587,569L596,575L606,580L618,585L629,588L641,591L653,594L665,596L677,597L690,598L703,599L716,599L729,599L742,599L755,599L769,597L784,592L799,586L813,579L829,570L843,560L856,549L869,537L881,522L891,508L903,489L911,473L918,456L925,437L930,417L934,397L936,376L937,357L937,338L936,320L932,303L927,286L920,270L913,255L905,240L895,227L886,215L876,203L866,193L856,183L846,174L835,165L825,157L816,151L806,145L796,140L787,136L778,133L769,131L759,128L750,127L740,127L731,126L721,126L712,126L702,128L693,131L683,135L674,140L665,145L656,152L647,160L638,168L630,177L623,186L615,197L608,209L601,221L596,235L591,248L587,262L584,277L582,291L580,306L579,320L579,333L579,342L579,349L579,355L579,360L579,363L580,365L581,366L582,367L583,367L584,365L587,364" stroke-opacity="1" stroke-width="10" stroke-linecap="round" stroke-linejoin="round" style="-webkit-tap-highlight-color: rgba(0, 0, 0, 0); stroke-opacity: 1; stroke-linecap: round; stroke-linejoin: round; -webkit-user-select: text;"></path></svg>