<svg height="618" version="1.1" width="1024" xmlns="http://www.w3.org/2000/svg" xmlns:xlink="http://www.w3.org/1999/xlink" style="overflow: hidden; position: relative; -webkit-user-select: text;"><desc style="-webkit-tap-highlight-color: rgba(0, 0, 0, 0); -webkit-user-select: text;">Created with Raphaël 2.2.0</desc><defs style="-webkit-tap-highlight-color: rgba(0, 0, 0, 0); -webkit-user-select: text;"></defs><path fill="none" stroke="#000000" d="M110,590L113,584L114,580L116,576L119,571L122,564L125,558L128,551L131,544L134,538L137,531L142,522L147,513L152,503L157,493L162,484L167,475L173,465L179,456L184,447L190,437L195,428L201,417L206,408L211,398L217,387L222,376L227,365L233,354L237,345L242,334L247,324L252,314L257,303L262,293L266,284L271,274L275,265L280,255L285,246L289,237L294,227L299,217L305,207L310,197L316,187L321,177L327,168L332,158L337,148L342,139L347,129L352,120L357,111L361,103L365,96L368,89L372,82L375,76L378,70L381,65L384,59L387,55L389,50L391,47L393,43L395,41L397,38L398,35L400,33L401,31L402,29L403,27L404,26L404,25L405,24L406,24L407,24" stroke-opacity="1" stroke-width="10" stroke-linecap="round" stroke-linejoin="round" style="-webkit-tap-highlight-color: rgba(0, 0, 0, 0); stroke-opacity: 1; stroke-linecap: round; stroke-linejoin: round; -webkit-user-select: text;"></path><path fill="none" stroke="#000000" d="M288,553L290,561L290,563L289,565L288,567L288,568L288,567L289,566L290,563L292,560L294,556L296,550L299,543L302,537L305,530L309,522L312,515L317,506L321,497L326,488L331,479L336,469L341,459L347,449L353,438L358,428L364,418L369,407L375,396L380,385L385,374L392,361L397,351L404,339L410,327L417,314L423,302L429,290L436,277L442,265L448,252L454,239L460,225L467,213L473,200L479,188L485,175L490,165L497,153L502,142L508,131L514,121L519,111L524,101L528,92L532,84L536,77L539,69L543,63L546,58L548,52L551,47L553,43L554,41L555,38L556,37L557,36L558,36L558,39" stroke-opacity="1" stroke-width="10" stroke-linecap="round" stroke-linejoin="round" style="-webkit-tap-highlight-color: rgba(0, 0, 0, 0); stroke-opacity: 1; stroke-linecap: round; stroke-linejoin: round; -webkit-user-select: text;"></path><path fill="none" stroke="#000000" d="M464,577L464,575L464,573L466,570L468,565L471,560L475,554L479,544L484,536L489,526L494,516L499,506L505,495L510,484L516,473L522,462L527,451L533,441L538,430L544,418L550,407L555,396L562,383L567,373L574,360L580,351L587,338L593,326L600,314L606,302L613,291L619,278L626,267L632,254L638,242L645,230L650,219L655,208L661,196L666,186L672,176L677,167L681,157L686,148L690,140L694,132L699,123L703,116L707,109L711,101L715,94L718,87L722,80L725,72L729,66L731,61L734,55L736,50L737,46L739,43L740,40L741,38L742,36L742,35L743,34L743,33L744,32L745,31L745,30" stroke-opacity="1" stroke-width="10" stroke-linecap="round" stroke-linejoin="round" style="-webkit-tap-highlight-color: rgba(0, 0, 0, 0); stroke-opacity: 1; stroke-linecap: round; stroke-linejoin: round; -webkit-user-select: text;"></path><path fill="none" stroke="#000000" d="M629,575L633,572L635,569L638,566L640,561L644,557L647,552L650,546L655,539L658,533L662,525L667,516L672,508L677,500L681,490L686,481L690,473L695,463L700,453L705,443L711,433L716,422L721,411L727,400L733,388L738,377L743,365L749,354L754,343L759,332L764,322L769,311L774,301L779,290L784,279L789,269L794,259L799,249L804,239L809,229L814,219L819,210L824,201L829,191L834,182L839,172L844,163L848,154L852,145L857,137L861,128L864,121L867,113L871,106L873,99L876,92L878,87L881,82L883,77L885,72L887,69L888,65L890,63L892,60L893,58L894,57L895,56L896,55" stroke-opacity="1" stroke-width="10" stroke-linecap="round" stroke-linejoin="round" style="-webkit-tap-highlight-color: rgba(0, 0, 0, 0); stroke-opacity: 1; stroke-linecap: round; stroke-linejoin: round; -webkit-user-select: text;"></path><path fill="none" stroke="#000000" d="M803,588L808,590L808,586L810,582L814,575L818,570L823,563L827,557L832,549L837,541L842,533L848,524L853,515L858,507L863,498L867,489L871,480L876,471L880,462L884,453L888,444L892,434L897,424L901,415L905,406L909,397L913,388L917,380L921,371L925,363L929,356L933,349L936,342L939,335L943,329L946,322L949,316L953,310L956,305L959,300L961,295L964,289L966,284L969,279L971,276L973,272L975,268L977,264L978,261L980,258L981,255L983,253L983,251L984,249L985,248L985,247L985,246L985,245L983,243" stroke-opacity="1" stroke-width="10" stroke-linecap="round" stroke-linejoin="round" style="-webkit-tap-highlight-color: rgba(0, 0, 0, 0); stroke-opacity: 1; stroke-linecap: round; stroke-linejoin: round; -webkit-user-select: text;"></path><path fill="none" stroke="#000000" d="M47,460L47,446L47,442L49,437L51,431L54,425L57,418L59,413L62,406L65,400L67,392L70,384L73,374L76,364L79,353L82,342L85,331L88,320L91,309L94,299L96,291L99,282L103,274L106,265L110,256L113,247L117,238L121,229L125,220L129,211L133,203L137,194L142,185L146,174L152,165L157,152L161,141L166,130L171,119L175,109L179,99L183,91L187,82L190,74L193,67L196,62L198,58L200,55L201,52L202,50L203,48L204,47L205,46L205,45L206,44L206,43L207,42L208,41L208,40" stroke-opacity="1" stroke-width="10" stroke-linecap="round" stroke-linejoin="round" style="-webkit-tap-highlight-color: rgba(0, 0, 0, 0); stroke-opacity: 1; stroke-linecap: round; stroke-linejoin: round; -webkit-user-select: text;"></path><path fill="none" stroke="#000000" d="M63,230L66,236L67,240L69,244L72,248L76,253L79,257L84,263L87,267L91,271L96,276L101,279L106,282L111,284L118,287L123,289L130,290L136,292L142,293L149,294L155,294L161,295L167,295L173,295L179,295L186,295L191,295L198,295L204,294L210,292L217,291L223,289L231,286L236,284L244,281L250,278L257,274L265,271L272,267L280,261L288,255L297,249L305,243L312,238L320,232L328,226L335,220L343,215L350,209L358,204L366,199L373,194L380,189L388,185L396,182L403,178L410,175L417,172L424,170L429,168L435,166L441,165L446,164L451,163L456,162L461,162L465,161L469,161L473,161L476,161L479,161L482,161L485,162L487,162L490,163L492,164L494,165L496,166L497,167L499,168L500,169L502,170L503,170L504,172L505,172L506,173L507,174L508,174L509,174L509,175L510,175" stroke-opacity="1" stroke-width="10" stroke-linecap="round" stroke-linejoin="round" style="-webkit-tap-highlight-color: rgba(0, 0, 0, 0); stroke-opacity: 1; stroke-linecap: round; stroke-linejoin: round; -webkit-user-select: text;"></path><path fill="none" stroke="#000000" d="M458,110L461,111L464,111L468,111L472,113L476,114L480,116L485,119L488,121L492,124L495,127L498,129L502,133L506,135L511,139L516,143L520,146L525,149L530,153L534,157L539,161L545,165L550,169L555,174L560,178L565,182L571,186L577,190L582,194L588,199L594,203L600,207L606,211L611,216L617,220L622,224L627,228L633,233L638,237L643,241L648,245L654,250L659,255L665,260L671,264L676,269L682,273L686,278L691,282L696,286L700,290L704,293L708,297L713,301L717,304L721,308L725,310L728,313L731,315L734,317L737,319L739,320L741,322L743,323L745,325L747,326L748,327L750,328L751,330L752,330L754,331L754,332L755,332L756,332L757,332L759,332L762,332" stroke-opacity="1" stroke-width="10" stroke-linecap="round" stroke-linejoin="round" style="-webkit-tap-highlight-color: rgba(0, 0, 0, 0); stroke-opacity: 1; stroke-linecap: round; stroke-linejoin: round; -webkit-user-select: text;"></path><path fill="none" stroke="#000000" d="M813,270L814,262L814,260L814,258L814,255L813,252L813,249L812,245L810,239L809,234L807,228L804,221L802,216L798,211L795,205L791,199L786,194L781,189L775,184L769,179L762,175L755,171L747,168L740,165L732,162L723,160L714,158L705,157L696,156L686,156L676,156L665,156L653,156L643,158L632,161L622,165L612,168L602,172L592,177L582,181L572,186L562,191L554,195L545,200L538,206L530,211L523,216L517,220L510,225L504,230L497,236L491,242L485,249L478,255L472,262L466,269L460,276L454,284L448,291L442,298L436,306L432,313L427,319L422,325L418,331L414,336L411,340L407,345L404,351L400,357L397,361L394,366L391,371L388,376L385,381L382,386L379,390L376,395L374,399L371,403L369,407L367,410L365,414L363,417L361,420L359,423L358,426L356,428L355,430L353,432L353,434L352,436L351,437L350,438L350,439L349,440L349,441L349,442L348,442L348,443L347,444L346,444" stroke-opacity="1" stroke-width="10" stroke-linecap="round" stroke-linejoin="round" style="-webkit-tap-highlight-color: rgba(0, 0, 0, 0); stroke-opacity: 1; stroke-linecap: round; stroke-linejoin: round; -webkit-user-select: text;"></path><path fill="none" stroke="#000000" d="M324,476L327,469L329,466L333,462L336,458L340,454L344,450L348,446L353,442L359,437L365,433L372,429L380,425L389,421L397,417L407,414L415,412L424,410L434,408L443,408L452,407L461,407L470,407L478,407L486,408L494,410L502,413L509,415L517,419L525,422L534,427L543,431L551,435L559,440L567,444L576,449L583,452L593,456L602,459L612,463L622,465L633,468L644,470L656,473L668,476L680,478L692,480L705,482L717,483L728,483L739,483L751,483L763,483L775,481L787,477L799,472L813,466L823,461L835,455L846,447L855,438L864,428L871,420L878,413L885,405L892,398L898,391L905,384L909,378L914,372L918,366L922,361L926,357L929,351L933,346L936,340L939,335L942,329L944,323L947,317L950,310L953,304L955,298L958,292L960,287L963,281L965,276L968,270L970,264L971,260L973,256L974,251L976,246L977,241L979,235L980,231L981,227L982,223L983,221L984,218L985,216L986,215L986,214L987,213L988,213L988,212" stroke-opacity="1" stroke-width="10" stroke-linecap="round" stroke-linejoin="round" style="-webkit-tap-highlight-color: rgba(0, 0, 0, 0); stroke-opacity: 1; stroke-linecap: round; stroke-linejoin: round; -webkit-user-select: text;"></path><path fill="none" stroke="#000000" d="M885,82L883,82L883,85L884,89L885,93L886,97L888,102L889,107L891,113L892,118L894,123L895,129L897,135L899,140L900,146L902,152L903,158L905,165L907,172L909,179L911,186L912,192L915,200L917,206L919,212L922,218L925,225L927,231L929,237L932,244L934,249L937,255L939,260L941,265L943,269L945,274L946,279L949,283L950,287L952,291L954,295L956,299L957,303L959,307L961,310L962,314L963,318L965,322L967,325L968,329L969,332L970,336L971,339L972,342L973,345L974,348L976,351L977,354L978,357L979,360L980,363L981,365L982,367L983,370L984,371L985,374L985,375L986,377L986,378L987,379L987,380L988,380" stroke-opacity="1" stroke-width="10" stroke-linecap="round" stroke-linejoin="round" style="-webkit-tap-highlight-color: rgba(0, 0, 0, 0); stroke-opacity: 1; stroke-linecap: round; stroke-linejoin: round; -webkit-user-select: text;"></path><path fill="none" stroke="#000000" d="M978,410L975,416L975,419L975,422L975,425L974,429L973,433L972,437L970,440L967,445L964,450L960,455L956,460L951,465L945,469L939,473L932,477L926,482L919,485L912,489L905,491L897,494L889,496L882,498L875,499L867,500L859,501L850,502L841,502L832,502L825,502L817,502L808,502L800,502L791,500L782,497L773,494L762,491L753,487L744,482L735,476L725,470L716,464L707,456L699,449L692,441L686,432L679,422L673,411L667,401L662,392L657,386L653,376L650,367L646,356L642,345L639,335L637,326L634,317L632,307L629,295L627,284L624,272L621,261L619,250L616,240L614,229L612,218L609,206L606,196L603,187L601,179L598,170L595,162L592,152L590,143L587,134L584,127L582,121L580,114L578,108L577,102L575,96L573,91L571,85L570,81L567,77L566,72L564,68L563,64L561,60L560,57L559,54L558,51L558,49L557,47L557,45L557,43L556,42L556,41" stroke-opacity="1" stroke-width="10" stroke-linecap="round" stroke-linejoin="round" style="-webkit-tap-highlight-color: rgba(0, 0, 0, 0); stroke-opacity: 1; stroke-linecap: round; stroke-linejoin: round; -webkit-user-select: text;"></path><path fill="none" stroke="#000000" d="M613,33L606,28L604,28L601,27L599,26L595,24L591,24L587,22L582,22L577,22L570,22L563,22L557,22L549,24L541,27L532,32L524,36L516,42L509,48L502,53L494,60L488,67L481,75L475,83L470,92L466,101L462,110L458,120L455,130L451,140L449,150L447,160L446,169L444,179L443,189L442,199L441,210L441,221L440,232L440,242L440,253L440,263L440,273L439,284L439,294L439,304L438,314L438,323L437,333L436,342L436,351L435,361L434,370L434,379L433,388L431,396L431,404L429,411L428,418L426,425L424,432L421,438L419,445L416,450L413,456L410,461L407,466L403,471L400,476L396,480L392,484L388,488L384,491L380,494L376,497L372,500L367,502L363,504L358,506L354,507L349,509L345,510L340,511L336,512L332,512L329,512L324,512L321,512L317,512L313,512L309,511L306,510L302,510L299,508L295,507L291,505L288,504L284,502L280,500L277,498L273,495L270,494L267,492L264,490L261,488L258,486L255,484L253,482L250,481L248,478L245,477L243,475L240,473L237,471L235,468L233,466L231,464L229,461L227,459L225,456L223,454L221,451L220,449L218,447L216,444L215,442L214,440L212,438L211,436L210,434L209,432L208,430L207,429L207,427L206,427L206,426" stroke-opacity="1" stroke-width="10" stroke-linecap="round" stroke-linejoin="round" style="-webkit-tap-highlight-color: rgba(0, 0, 0, 0); stroke-opacity: 1; stroke-linecap: round; stroke-linejoin: round; -webkit-user-select: text;"></path><path fill="none" stroke="#000000" d="M216,400L218,396L219,394L221,391L223,387L225,383L228,379L230,375L233,370L235,365L237,359L240,354L242,348L244,342L247,335L249,328L252,320L255,312L258,304L261,296L263,289L265,281L267,273L269,265L272,257L274,250L276,242L278,234L281,226L283,218L285,210L288,203L290,195L292,187L295,179L297,171L300,163L302,155L304,147L307,140L309,132L310,126L312,119L313,113L315,107L316,102L317,97L318,92L319,87L319,82L320,77L321,73L322,69L322,65L323,62L324,58L324,54L324,51L325,48L326,45L326,43L327,41L327,38L328,36L328,34L329,33L329,32L329,31L330,30L330,29L331,29" stroke-opacity="1" stroke-width="10" stroke-linecap="round" stroke-linejoin="round" style="-webkit-tap-highlight-color: rgba(0, 0, 0, 0); stroke-opacity: 1; stroke-linecap: round; stroke-linejoin: round; -webkit-user-select: text;"></path><path fill="none" stroke="#000000" d="M183,83L191,75L196,71L203,67L212,62L221,56L230,50L239,45L246,41L254,38L262,36L270,33L278,32L286,31L294,31L302,30L312,29L320,29L328,29L337,29L346,31L354,33L363,37L371,41L380,45L387,50L395,56L403,61L410,67L418,73L425,80L431,87L438,94L444,101L450,108L455,116L461,123L466,131L472,139L476,147L481,155L485,162L490,170L493,176L497,184L501,190L505,198L509,205L512,212L516,219L519,226L523,234L526,241L528,248L531,255L534,262L536,268L539,275L541,281L543,289L545,295L546,301L548,308L549,315L551,320L552,326L553,331L554,336L555,341L555,345L556,350L558,354L558,359L559,363L560,366L560,370L560,373L561,376L562,379L562,381L562,383L563,385L563,386L563,387" stroke-opacity="1" stroke-width="10" stroke-linecap="round" stroke-linejoin="round" style="-webkit-tap-highlight-color: rgba(0, 0, 0, 0); stroke-opacity: 1; stroke-linecap: round; stroke-linejoin: round; -webkit-user-select: text;"></path><path fill="none" stroke="#000000" d="M541,466L536,472L533,475L531,478L528,480L525,482L521,485L516,487L510,490L505,492L498,494L491,497L484,499L477,501L470,503L462,504L455,505L446,505L437,506L429,506L421,506L413,506L405,506L398,505L391,502L384,499L378,495L373,491L368,487L363,481L359,476L355,470L351,464L347,459L344,452L340,445L336,437L333,430L330,422L327,415L324,407L321,398L318,390L316,381L314,371L312,362L310,354L308,346L306,337L304,328L302,319L300,310L298,300L296,291L294,282L293,273L291,263L289,254L287,244L285,235L283,227L280,218L278,211L275,203L272,196L268,188L265,181L261,174L258,168L254,162L250,155L246,150L242,144L237,138L234,133L229,128L226,124L222,120L218,116L214,112L210,109L205,106L201,103L198,101L193,99L189,97L186,96L182,94L178,93L174,92L171,90L168,89L164,89L161,88L158,88L155,87L152,87L149,87L146,87L143,87L140,87L137,87L134,87L131,87L128,87L125,87L122,87L120,88L117,89L114,90L112,91L109,92L108,92L106,93L105,93L104,94L104,98" stroke-opacity="1" stroke-width="10" stroke-linecap="round" stroke-linejoin="round" style="-webkit-tap-highlight-color: rgba(0, 0, 0, 0); stroke-opacity: 1; stroke-linecap: round; stroke-linejoin: round; -webkit-user-select: text;"></path><path fill="none" stroke="#000000" d="M91,201L99,197L104,196L111,193L119,190L129,186L139,184L150,180L161,177L174,173L189,169L203,164L218,160L233,154L248,149L263,144L277,140L292,135L307,130L321,125L334,121L346,116L360,113L373,109L385,104L398,100L411,97L422,93L434,90L445,87L455,85L466,82L475,80L485,78L494,76L503,74L512,72L521,70L528,67L536,66L543,65L549,63L555,62L562,60L568,60L574,58L580,57L586,56L592,55L598,54L603,53L609,52L615,50L621,49L626,48L631,47L636,46L642,45L648,45L652,44L659,43L665,42L670,41L676,40L682,39L687,38L692,38L697,37L702,36L707,36L711,35L715,34L718,33L721,33L723,33L725,32L726,32L727,32" stroke-opacity="1" stroke-width="10" stroke-linecap="round" stroke-linejoin="round" style="-webkit-tap-highlight-color: rgba(0, 0, 0, 0); stroke-opacity: 1; stroke-linecap: round; stroke-linejoin: round; -webkit-user-select: text;"></path><path fill="none" stroke="#000000" d="M651,19L655,19L660,19L665,19L669,19L676,20L683,20L691,20L698,20L705,21L712,21L719,22L725,23L732,24L738,27L743,29L749,32L753,36L757,40L761,44L764,48L769,53L774,58L778,63L781,67L785,71L789,75L792,80L796,84L799,89L802,94L805,99L808,106L811,112L815,118L818,124L820,130L823,136L825,143L827,150L829,157L832,165L833,170L835,177L837,183L840,189L841,196L843,203L845,211L846,217L847,225L848,232L849,239L849,247L850,254L850,262L851,269L851,276L851,283L851,291L851,299L850,306L849,315L848,321L846,330L844,337L842,344L841,351L839,357L837,363L835,369L832,374L830,380L828,385L825,391L823,397L820,404L817,410L814,416L810,422L807,428L803,434L798,439L794,445L790,451L785,456L781,461L776,466L772,470L769,474L764,478L760,482L756,485L752,488L748,491L744,495L740,498L736,500L732,502L728,505L725,507L721,509L717,511L713,513L710,515L707,516L704,517L701,519L699,519L696,520L695,521L694,521L693,521" stroke-opacity="1" stroke-width="10" stroke-linecap="round" stroke-linejoin="round" style="-webkit-tap-highlight-color: rgba(0, 0, 0, 0); stroke-opacity: 1; stroke-linecap: round; stroke-linejoin: round; -webkit-user-select: text;"></path><path fill="none" stroke="#000000" d="M675,548L666,549L664,549L660,549L656,549L651,549L645,549L639,547L632,546L626,544L618,542L612,539L605,535L597,530L592,525L585,519L579,514L575,508L571,501L568,493L566,484L564,474L563,463L563,452L563,442L563,432L563,422L565,412L568,403L572,393L576,384L581,376L587,369L593,362L599,356L606,350L613,344L621,338L629,332L638,327L646,321L655,316L665,311L674,307L682,304L690,301L699,298L707,296L715,294L724,293L732,291L740,290L748,289L756,287L764,285L772,283L780,281L788,280L796,278L803,276L811,274L818,272L825,269L832,267L839,265L846,263L852,260L859,257L864,255L871,252L877,250L883,247L888,245L894,242L900,239L905,237L911,234L916,231L921,228L926,225L931,223L936,219L941,215L945,211L949,207L953,203L957,199L961,194L964,190L967,185L971,180L974,174L977,168L981,161L983,155L986,148L988,141L990,135L991,128L993,121L993,114L994,107L994,101L994,96L994,90L994,84L993,79L991,75L988,70L985,65L983,61L979,58L976,54L971,51L967,48L963,45L958,42L953,40L948,37L943,35L938,33L934,32L929,31L925,30L921,30L917,29L914,29L911,29L909,29L907,29L906,29L905,29" stroke-opacity="1" stroke-width="10" stroke-linecap="round" stroke-linejoin="round" style="-webkit-tap-highlight-color: rgba(0, 0, 0, 0); stroke-opacity: 1; stroke-linecap: round; stroke-linejoin: round; -webkit-user-select: text;"></path><path fill="none" stroke="#000000" d="M861,45L860,46L860,49L862,53L864,57L866,62L868,67L870,73L872,80L874,86L877,94L878,101L881,109L883,118L885,126L887,136L889,145L892,157L894,167L897,178L899,187L902,198L904,207L907,218L909,228L912,238L914,247L917,255L919,263L922,270L926,277L930,286L934,296L938,307L942,319L944,330L946,342L947,351L949,360L951,369L952,377L954,383L956,390L957,396L959,401L961,407L964,413L966,419L968,425L971,431L973,438L976,444L978,450L980,456L982,462L984,467L986,472L988,477L989,481L990,484L991,487L992,489L993,491L993,493L994,495L994,497L995,498L995,501" stroke-opacity="1" stroke-width="10" stroke-linecap="round" stroke-linejoin="round" style="-webkit-tap-highlight-color: rgba(0, 0, 0, 0); stroke-opacity: 1; stroke-linecap: round; stroke-linejoin: round; -webkit-user-select: text;"></path><path fill="none" stroke="#000000" d="M976,518L973,522L973,525L971,529L969,532L968,535L966,538L963,540L961,542L958,545L954,548L950,551L946,554L941,557L935,559L928,561L921,564L914,566L905,568L897,570L888,572L878,573L869,574L860,575L852,575L842,575L834,575L826,575L817,573L808,571L798,568L788,564L779,561L769,556L759,552L750,548L740,543L730,537L721,532L711,527L702,521L693,514L684,507L674,500L665,492L655,485L647,477L639,469L630,461L623,453L614,445L606,437L598,430L589,422L581,415L572,407L564,400L555,393L547,386L538,379L530,372L521,365L512,358L503,351L494,344L485,337L475,330L466,324L458,319L449,313L441,309L433,304L424,299L416,294L409,290L401,286L393,282L386,278L380,274L373,271L367,268L362,265L356,262L351,259L345,257L340,255L335,253L331,251L327,250L322,248L317,247L314,245L310,244L306,243L303,242L300,241L297,240L294,240L292,240L289,239L287,238L285,238L284,238L283,238L282,238L283,240" stroke-opacity="1" stroke-width="10" stroke-linecap="round" stroke-linejoin="round" style="-webkit-tap-highlight-color: rgba(0, 0, 0, 0); stroke-opacity: 1; stroke-linecap: round; stroke-linejoin: round; -webkit-user-select: text;"></path><path fill="none" stroke="#000000" d="M300,211L306,207L310,205L315,204L321,203L328,202L336,201L344,201L353,201L361,201L369,203L377,205L385,208L396,211L405,215L415,218L424,223L432,229L439,235L446,241L452,247L458,255L463,262L467,269L470,277L474,287L476,295L479,306L481,315L482,325L483,335L483,344L483,353L483,362L483,371L482,380L480,388L477,396L473,405L469,413L464,421L459,429L453,436L447,444L440,451L434,457L426,464L418,470L410,475L402,480L392,485L383,489L374,492L366,495L358,497L351,498L343,498L335,499L327,499L318,499L310,499L302,499L294,498L286,496L278,494L270,491L262,488L254,484L244,480L236,475L228,470L220,465L213,459L205,453L198,446L191,438L184,430L178,422L174,415L169,407L164,399L159,391L155,382L151,375L147,368L144,362L140,356L136,350L132,344L128,338L125,333L120,328L117,324L112,319L108,315L104,312L99,308L95,305L91,302L87,300L84,298L80,296L76,294L73,293L69,292L67,291L64,290L62,290L60,289L58,289L57,288" stroke-opacity="1" stroke-width="10" stroke-linecap="round" stroke-linejoin="round" style="-webkit-tap-highlight-color: rgba(0, 0, 0, 0); stroke-opacity: 1; stroke-linecap: round; stroke-linejoin: round; -webkit-user-select: text;"></path></svg>