<svg height="618" version="1.1" width="1024" xmlns="http://www.w3.org/2000/svg" xmlns:xlink="http://www.w3.org/1999/xlink" style="overflow: hidden; position: relative; -webkit-user-select: text;"><desc style="-webkit-tap-highlight-color: rgba(0, 0, 0, 0); -webkit-user-select: text;">Created with Raphaël 2.2.0</desc><defs style="-webkit-tap-highlight-color: rgba(0, 0, 0, 0); -webkit-user-select: text;"></defs><path fill="none" stroke="#000000" d="M266,499L266,495L266,494L266,493L266,491L267,489L268,486L270,483L273,478L277,472L282,463L288,454L296,441L305,428L317,411L328,393L341,373L354,352L368,329L382,305L395,281L409,257L421,233L432,212L441,193L448,179L453,168L457,160L460,155L462,152L463,151L463,150" stroke-opacity="1" stroke-width="10" stroke-linecap="round" stroke-linejoin="round" style="-webkit-tap-highlight-color: rgba(0, 0, 0, 0); stroke-opacity: 1; stroke-linecap: round; stroke-linejoin: round; -webkit-user-select: text;"></path><path fill="none" stroke="#000000" d="M315,166L312,175L312,178L312,184L312,192L312,201L312,211L314,222L316,233L319,245L322,257L328,271L334,284L341,297L350,310L360,323L370,335L383,347L395,358L410,369L426,378L443,387L461,394L481,400L502,404L524,406L548,407L570,407L590,407L608,404L621,401L629,400L634,398L637,398L638,397L638,396L637,396L636,396L636,395" stroke-opacity="1" stroke-width="10" stroke-linecap="round" stroke-linejoin="round" style="-webkit-tap-highlight-color: rgba(0, 0, 0, 0); stroke-opacity: 1; stroke-linecap: round; stroke-linejoin: round; -webkit-user-select: text;"></path><path fill="none" stroke="#000000" d="M762,313L755,318L753,321L750,325L747,330L742,336L735,343L727,349L718,357L707,362L695,368L682,372L668,374L655,376L641,376L628,376L615,374L602,370L588,365L575,359L562,351L550,343L537,334L526,325L515,314L504,303L494,291L485,279L476,266L467,254L458,241L451,229L443,216L435,202L427,189L420,176L412,164L405,153L397,142L390,134L381,126L372,120L363,114L353,109L342,106L332,103L322,101L312,101L302,100L292,100L283,100L273,102L264,104L256,108L247,111L238,116L231,121L223,128L216,135L210,143L203,151L199,160L194,169L191,179L189,188L187,196L185,203L184,207L183,211L183,213L183,214L184,214" stroke-opacity="1" stroke-width="10" stroke-linecap="round" stroke-linejoin="round" style="-webkit-tap-highlight-color: rgba(0, 0, 0, 0); stroke-opacity: 1; stroke-linecap: round; stroke-linejoin: round; -webkit-user-select: text;"></path><path fill="none" stroke="#000000" d="M195,227L205,230L212,232L222,234L234,237L246,240L262,243L277,247L294,250L312,253L332,256L351,259L372,262L393,266L419,269L442,273L465,276L490,280L516,284L541,289L566,293L590,298L615,302L638,306L658,309L678,313L698,316L716,320L732,323L745,325L754,327L762,328L767,329L770,330L771,330L770,330L769,330L768,329L767,328L767,325" stroke-opacity="1" stroke-width="10" stroke-linecap="round" stroke-linejoin="round" style="-webkit-tap-highlight-color: rgba(0, 0, 0, 0); stroke-opacity: 1; stroke-linecap: round; stroke-linejoin: round; -webkit-user-select: text;"></path><path fill="none" stroke="#000000" d="M711,208L718,210L722,213L727,217L733,222L739,230L745,237L751,245L757,253L762,261L767,269L771,278L775,287L777,295L780,304L781,314L782,323L783,332L783,342L783,352L783,362L781,374L779,384L775,393L773,401L769,410L766,417L762,425L757,434L752,441L746,448L739,455L733,461L725,468L720,473L714,478L710,481L706,483L704,485L702,486L701,487L700,487L699,487L699,486" stroke-opacity="1" stroke-width="10" stroke-linecap="round" stroke-linejoin="round" style="-webkit-tap-highlight-color: rgba(0, 0, 0, 0); stroke-opacity: 1; stroke-linecap: round; stroke-linejoin: round; -webkit-user-select: text;"></path><path fill="none" stroke="#000000" d="M766,492L761,493L755,493L750,493L744,493L738,493L732,493L724,493L716,492L706,488L696,484L687,478L678,471L670,463L663,453L659,441L656,429L655,415L655,403L655,389L656,377L661,363L667,349L674,335L682,322L692,309L701,298L711,289L721,280L732,272L743,265L755,259L765,254L777,249L788,245L799,242L810,240L820,237L831,234L839,232L847,229L856,226L863,223L871,220L878,216L887,211L894,206L902,201L909,195L915,188L920,181L925,174L928,167L931,159L933,151L934,144L934,135L934,128L934,119L932,111L929,104L925,96L921,89L915,80L911,74L905,66L900,60L893,55L887,49L881,44L874,39L868,35L862,31L857,29L854,27L850,26L848,25L847,24L846,24L847,24L848,24L850,24" stroke-opacity="1" stroke-width="10" stroke-linecap="round" stroke-linejoin="round" style="-webkit-tap-highlight-color: rgba(0, 0, 0, 0); stroke-opacity: 1; stroke-linecap: round; stroke-linejoin: round; -webkit-user-select: text;"></path><path fill="none" stroke="#000000" d="M978,41L971,44L969,45L966,47L961,52L953,58L942,65L930,75L916,84L898,96L882,106L864,117L845,130L825,144L804,159L783,174L759,191L735,209L712,228L688,247L663,267L638,287L615,308L592,329L571,346L552,361L536,373L525,381L516,388L509,391L506,394L503,395L502,395L503,395L504,394L507,394" stroke-opacity="1" stroke-width="10" stroke-linecap="round" stroke-linejoin="round" style="-webkit-tap-highlight-color: rgba(0, 0, 0, 0); stroke-opacity: 1; stroke-linecap: round; stroke-linejoin: round; -webkit-user-select: text;"></path><path fill="none" stroke="#000000" d="M438,405L434,396L434,390L434,382L437,370L444,355L455,337L466,320L480,303L495,286L513,270L533,254L552,240L572,228L592,218L613,211L635,205L653,201L672,200L691,200L709,200L726,205L742,211L757,218L771,228L783,238L794,249L803,262L811,274L819,288L825,301L830,315L835,326L838,337L840,345L842,351L843,356L844,359L844,361L844,362L844,361L846,358" stroke-opacity="1" stroke-width="10" stroke-linecap="round" stroke-linejoin="round" style="-webkit-tap-highlight-color: rgba(0, 0, 0, 0); stroke-opacity: 1; stroke-linecap: round; stroke-linejoin: round; -webkit-user-select: text;"></path><path fill="none" stroke="#000000" d="M827,187L828,191L830,195L835,200L841,208L848,216L855,224L863,233L869,242L875,252L879,263L883,273L886,284L888,295L889,306L890,320L891,333L891,348L891,362L887,378L883,393L877,409L871,425L863,439L855,454L846,468L835,482L824,493L810,503L796,512L781,519L767,525L752,529L738,533L726,535L712,537L699,537L686,537L674,535L661,532L648,527L635,520L626,514L615,505L606,496L599,485L592,476L586,466L581,455L577,443L573,431L571,418L570,405L570,393L570,380L570,368L570,355L570,342L570,328L571,314L572,301L573,288L573,275L573,262L573,248L573,235L573,222L572,208L570,195L567,182L564,170L560,159L555,149L550,140L544,132L537,125L530,117L523,110L516,103L510,98L504,94L500,91L497,89L494,87L492,85L492,84L491,84L491,83" stroke-opacity="1" stroke-width="10" stroke-linecap="round" stroke-linejoin="round" style="-webkit-tap-highlight-color: rgba(0, 0, 0, 0); stroke-opacity: 1; stroke-linecap: round; stroke-linejoin: round; -webkit-user-select: text;"></path><path fill="none" stroke="#000000" d="M347,156L351,156L357,156L366,152L376,148L389,142L402,136L417,130L431,123L448,116L464,110L482,103L500,96L519,89L538,83L557,76L575,69L594,62L611,55L627,48L640,42L649,38L655,36L659,33L661,33L662,32L663,31L662,31" stroke-opacity="1" stroke-width="10" stroke-linecap="round" stroke-linejoin="round" style="-webkit-tap-highlight-color: rgba(0, 0, 0, 0); stroke-opacity: 1; stroke-linecap: round; stroke-linejoin: round; -webkit-user-select: text;"></path><path fill="none" stroke="#000000" d="M512,16L504,22L498,29L493,38L487,48L481,60L476,71L472,84L469,97L468,111L467,124L467,138L468,151L470,164L475,179L480,192L487,205L494,216L502,227L511,238L521,247L533,257L545,266L558,274L571,281L584,286L598,291L609,294L620,297L627,299L633,301L637,301L639,302L640,302L639,302" stroke-opacity="1" stroke-width="10" stroke-linecap="round" stroke-linejoin="round" style="-webkit-tap-highlight-color: rgba(0, 0, 0, 0); stroke-opacity: 1; stroke-linecap: round; stroke-linejoin: round; -webkit-user-select: text;"></path><path fill="none" stroke="#000000" d="M673,296L676,291L679,287L684,282L691,275L698,268L705,259L712,251L719,242L726,233L732,223L737,212L740,201L743,188L745,174L745,160L745,147L744,134L738,121L732,109L723,98L714,88L704,80L694,73L682,67L669,61L657,57L644,53L631,50L617,48L603,47L588,47L573,47L556,47L541,50L525,54L510,58L496,64L482,70L468,75L455,82L441,88L426,96L413,105L400,115L386,124L372,134L358,143L344,151L330,160L316,167L302,174L288,181L275,186L263,189L251,191L239,193L229,194L217,194L205,194L195,193L184,190L174,186L163,182L152,177L142,171L133,165L125,158L118,150L111,142L104,133L98,125L92,116L87,106L83,95L79,85L76,78L74,72L71,67L69,63L68,60L67,58L66,56L65,55" stroke-opacity="1" stroke-width="10" stroke-linecap="round" stroke-linejoin="round" style="-webkit-tap-highlight-color: rgba(0, 0, 0, 0); stroke-opacity: 1; stroke-linecap: round; stroke-linejoin: round; -webkit-user-select: text;"></path><path fill="none" stroke="#000000" d="M108,23L108,31L108,37L108,45L109,58L110,71L113,85L115,103L117,120L119,138L120,157L121,176L122,195L123,214L123,233L123,253L124,273L124,292L125,307L126,322L126,335L127,346L127,355L127,363L127,369L127,373L127,376L127,377L127,374" stroke-opacity="1" stroke-width="10" stroke-linecap="round" stroke-linejoin="round" style="-webkit-tap-highlight-color: rgba(0, 0, 0, 0); stroke-opacity: 1; stroke-linecap: round; stroke-linejoin: round; -webkit-user-select: text;"></path><path fill="none" stroke="#000000" d="M43,297L44,294L47,290L54,284L64,275L76,267L89,260L103,255L115,252L128,250L142,250L156,250L170,251L187,254L204,257L220,262L237,267L253,274L268,281L284,290L300,299L317,311L332,323L346,335L358,347L370,360L383,374L394,388L404,401L414,415L422,428L430,441L437,455L443,468L447,480L451,492L455,502L458,511L460,517L461,522L462,526L463,528L463,529L464,529L465,528L465,527" stroke-opacity="1" stroke-width="10" stroke-linecap="round" stroke-linejoin="round" style="-webkit-tap-highlight-color: rgba(0, 0, 0, 0); stroke-opacity: 1; stroke-linecap: round; stroke-linejoin: round; -webkit-user-select: text;"></path><path fill="none" stroke="#000000" d="M515,318L519,318L519,322L522,329L526,339L531,349L536,359L541,371L545,382L550,393L553,405L555,417L556,429L556,439L556,450L556,462L553,474L548,488L541,500L533,511L525,521L515,530L504,539L494,547L482,554L471,558L459,562L447,565L436,566L425,566L413,566L400,566L387,564L373,559L359,554L347,548L335,540L324,531L315,520L305,508L297,496L289,483L282,470L276,456L271,441L267,425L263,408L261,391L260,378L259,364L259,349L259,334L260,319L261,305L263,291L264,278L266,264L267,250L267,236L267,224L267,212L267,203L266,192L264,182L262,172L260,163L256,153L253,144L249,136L245,128L241,121L237,114L232,108L228,103L223,98L218,92L213,87L208,82L205,79L200,75L198,72L195,70L193,68L192,67L191,67L191,66L193,66" stroke-opacity="1" stroke-width="10" stroke-linecap="round" stroke-linejoin="round" style="-webkit-tap-highlight-color: rgba(0, 0, 0, 0); stroke-opacity: 1; stroke-linecap: round; stroke-linejoin: round; -webkit-user-select: text;"></path><path fill="none" stroke="#000000" d="M425,100L414,109L406,116L396,126L385,138L371,155L358,171L344,188L331,204L317,221L302,239L286,258L268,278L248,298L228,320L208,342L191,364L174,386L160,405L149,421L141,431L136,437L133,440L131,441L131,442L132,440" stroke-opacity="1" stroke-width="10" stroke-linecap="round" stroke-linejoin="round" style="-webkit-tap-highlight-color: rgba(0, 0, 0, 0); stroke-opacity: 1; stroke-linecap: round; stroke-linejoin: round; -webkit-user-select: text;"></path><path fill="none" stroke="#000000" d="M110,266L107,279L107,289L107,301L107,316L107,330L111,346L116,360L122,373L129,387L136,401L144,416L152,431L161,444L172,455L183,466L196,477L211,486L226,493L243,498L261,500L279,500L299,500L321,500L342,496L362,490L384,483L402,474L417,466L432,459L442,453L450,448L455,444L458,442L460,441L461,439L461,438L460,437" stroke-opacity="1" stroke-width="10" stroke-linecap="round" stroke-linejoin="round" style="-webkit-tap-highlight-color: rgba(0, 0, 0, 0); stroke-opacity: 1; stroke-linecap: round; stroke-linejoin: round; -webkit-user-select: text;"></path><path fill="none" stroke="#000000" d="M208,552L220,553L228,553L238,554L249,554L263,554L278,554L296,551L313,547L330,541L347,534L365,522L382,511L398,497L413,482L427,466L439,449L448,431L455,415L461,397L466,379L469,360L470,342L470,324L470,308L468,292L463,277L458,263L452,250L445,237L436,225L427,214L418,204L409,194L400,186L392,179L383,171L373,164L364,157L354,150L344,143L334,137L326,131L317,126L308,121L300,115L291,110L283,104L276,99L270,94L263,89L257,84L252,78L247,72L244,66L241,61L239,55L237,50L237,43L236,39L236,34L236,31L236,28L236,26L236,24L236,23L236,22L237,22" stroke-opacity="1" stroke-width="10" stroke-linecap="round" stroke-linejoin="round" style="-webkit-tap-highlight-color: rgba(0, 0, 0, 0); stroke-opacity: 1; stroke-linecap: round; stroke-linejoin: round; -webkit-user-select: text;"></path><path fill="none" stroke="#000000" d="M147,118L150,116L155,116L162,116L174,115L186,112L204,109L222,107L241,105L261,102L283,100L311,97L336,94L363,90L390,85L419,81L449,77L479,72L509,67L540,63L568,58L595,53L622,49L644,44L662,40L677,37L689,34L697,33L702,32L705,31L706,31L704,30" stroke-opacity="1" stroke-width="10" stroke-linecap="round" stroke-linejoin="round" style="-webkit-tap-highlight-color: rgba(0, 0, 0, 0); stroke-opacity: 1; stroke-linecap: round; stroke-linejoin: round; -webkit-user-select: text;"></path><path fill="none" stroke="#000000" d="M572,33L567,40L567,46L565,54L565,63L565,73L565,86L567,97L570,109L575,121L581,135L587,148L594,160L601,171L610,182L620,192L630,201L641,208L654,216L666,221L680,226L694,230L710,233L725,234L741,235L759,235L776,234L792,231L808,226L823,221L836,214L846,209L855,203L862,197L866,193L870,190L871,188L872,187L873,186L873,185L871,182" stroke-opacity="1" stroke-width="10" stroke-linecap="round" stroke-linejoin="round" style="-webkit-tap-highlight-color: rgba(0, 0, 0, 0); stroke-opacity: 1; stroke-linecap: round; stroke-linejoin: round; -webkit-user-select: text;"></path><path fill="none" stroke="#000000" d="M635,108L650,100L662,93L676,86L691,80L707,76L723,74L740,72L755,72L773,72L789,75L804,79L818,85L833,92L846,101L857,110L867,121L875,131L883,143L889,155L895,167L899,179L902,192L904,206L905,221L905,235L904,251L899,265L892,280L883,294L873,308L863,322L853,334L842,345L831,355L820,365L808,374L795,382L784,389L772,396L761,404L752,410L742,418L734,425L726,433L720,440L716,447L712,454L709,462L707,470L706,478L705,484L705,491L705,498L705,505L705,512L705,519L705,525L706,531L708,536L710,541L712,544L714,549L716,553L719,557L723,561L725,564L728,567L731,569L733,571L734,573L735,573L736,573L740,571" stroke-opacity="1" stroke-width="10" stroke-linecap="round" stroke-linejoin="round" style="-webkit-tap-highlight-color: rgba(0, 0, 0, 0); stroke-opacity: 1; stroke-linecap: round; stroke-linejoin: round; -webkit-user-select: text;"></path><path fill="none" stroke="#000000" d="M946,561L942,557L941,555L939,553L938,550L936,547L933,543L929,538L925,532L917,525L910,519L902,510L892,500L883,489L873,478L862,467L852,455L842,443L832,430L822,417L811,404L801,391L790,377L779,364L768,350L757,337L746,324L735,311L723,298L712,284L701,273L691,263L684,256L678,250L672,245L669,242L666,239L665,238L664,237L664,236" stroke-opacity="1" stroke-width="10" stroke-linecap="round" stroke-linejoin="round" style="-webkit-tap-highlight-color: rgba(0, 0, 0, 0); stroke-opacity: 1; stroke-linecap: round; stroke-linejoin: round; -webkit-user-select: text;"></path><path fill="none" stroke="#000000" d="M663,361L670,369L677,371L685,372L696,372L709,372L722,372L736,372L750,371L763,369L777,366L793,363L807,359L822,354L836,349L850,341L863,332L876,322L886,310L896,298L904,284L910,269L915,255L917,243L919,229L919,216L919,202L917,189L913,176L909,164L904,154L898,144L892,135L886,126L878,118L871,110L862,103L854,96L844,89L835,82L824,75L813,70L802,65L791,60L779,56L768,53L757,50L747,48L738,47L729,46L720,46L712,46L706,46L701,46L696,47L694,48L692,48L691,48" stroke-opacity="1" stroke-width="10" stroke-linecap="round" stroke-linejoin="round" style="-webkit-tap-highlight-color: rgba(0, 0, 0, 0); stroke-opacity: 1; stroke-linecap: round; stroke-linejoin: round; -webkit-user-select: text;"></path><path fill="none" stroke="#000000" d="M622,61L627,60L633,60L643,59L655,59L668,59L683,60L698,64L713,69L729,75L745,82L762,90L781,101L798,112L815,124L831,137L846,151L860,167L873,184L884,201L895,218L904,236L912,252L920,271L926,289L932,308L935,327L937,346L938,364L938,383L936,401L930,419L922,435L913,451L902,465L889,478L875,489L860,499L846,507L832,513L817,519L801,524L783,528L764,530L746,532L731,533L715,533L698,533L682,532L665,528L648,523L632,517L616,511L601,506L587,501L575,498L562,494L549,490L536,487L524,484L511,481L498,479L485,477L473,474L460,472L447,471L436,469L426,468L416,468L406,468L397,468L388,469L379,471L371,474L363,478L355,481L348,485L341,490L334,495L329,499L326,502L323,504L321,506L319,507L319,508L318,508L317,508L317,505" stroke-opacity="1" stroke-width="10" stroke-linecap="round" stroke-linejoin="round" style="-webkit-tap-highlight-color: rgba(0, 0, 0, 0); stroke-opacity: 1; stroke-linecap: round; stroke-linejoin: round; -webkit-user-select: text;"></path><path fill="none" stroke="#000000" d="M488,548L480,551L475,551L470,551L465,551L458,551L449,551L438,551L425,550L410,550L394,550L374,549L354,549L333,549L314,548L294,546L274,544L255,541L235,540L216,539L197,538L178,537L160,535L142,534L126,533L112,532L98,532L88,532L78,532L71,531L66,531L62,531L61,530L60,530L60,529L60,528L61,528" stroke-opacity="1" stroke-width="10" stroke-linecap="round" stroke-linejoin="round" style="-webkit-tap-highlight-color: rgba(0, 0, 0, 0); stroke-opacity: 1; stroke-linecap: round; stroke-linejoin: round; -webkit-user-select: text;"></path><path fill="none" stroke="#000000" d="M84,573L92,572L99,572L107,571L116,569L127,567L138,564L148,561L159,558L169,554L180,549L189,542L198,535L208,525L215,516L221,506L226,494L229,482L231,470L232,460L232,449L231,438L227,427L222,416L217,405L211,396L205,388L199,380L192,373L185,366L178,360L171,356L164,352L155,349L147,347L139,345L130,343L121,342L112,341L103,341L96,341L88,341L80,341L73,341L66,341L61,342L57,343L54,344L52,345L51,345L50,345L50,346" stroke-opacity="1" stroke-width="10" stroke-linecap="round" stroke-linejoin="round" style="-webkit-tap-highlight-color: rgba(0, 0, 0, 0); stroke-opacity: 1; stroke-linecap: round; stroke-linejoin: round; -webkit-user-select: text;"></path><path fill="none" stroke="#000000" d="M34,426L39,431L45,435L54,439L65,443L76,447L89,449L103,451L117,451L131,452L145,452L159,452L175,449L188,444L203,437L216,430L229,421L240,411L249,400L257,389L263,378L266,366L268,356L268,346L267,335L262,326L255,318L247,311L239,304L229,298L218,293L208,287L198,283L188,278L177,273L167,267L157,262L147,256L137,251L127,245L118,240L110,235L103,231L96,227L90,222L84,217L77,212L71,205L67,199L63,191L59,181L57,171L57,160L57,147L57,136L60,126L64,118L70,110L76,102L82,94L89,87L97,81L104,77L113,72L120,68L129,65L136,60L143,57L149,54L154,51L158,49L161,48L163,46L165,46L166,45L166,44L167,44L168,43L169,43L171,43" stroke-opacity="1" stroke-width="10" stroke-linecap="round" stroke-linejoin="round" style="-webkit-tap-highlight-color: rgba(0, 0, 0, 0); stroke-opacity: 1; stroke-linecap: round; stroke-linejoin: round; -webkit-user-select: text;"></path><path fill="none" stroke="#000000" d="M365,496L370,493L370,485L370,473L369,462L367,449L365,435L363,421L360,403L358,386L355,367L353,349L351,329L350,309L348,288L346,267L345,247L343,226L341,206L339,187L337,168L335,150L333,134L331,121L329,108L327,98L325,89L323,83L322,77L320,74L319,71L318,70L317,70L316,70L315,70" stroke-opacity="1" stroke-width="10" stroke-linecap="round" stroke-linejoin="round" style="-webkit-tap-highlight-color: rgba(0, 0, 0, 0); stroke-opacity: 1; stroke-linecap: round; stroke-linejoin: round; -webkit-user-select: text;"></path><path fill="none" stroke="#000000" d="M234,36L237,50L239,57L243,64L248,73L253,83L259,92L265,101L273,110L281,118L290,127L301,136L312,143L324,150L336,156L347,160L360,164L373,166L387,167L402,167L417,167L432,167L446,165L463,162L475,160L490,158L505,157L520,157L534,157L548,157L560,157L572,160L584,164L594,169L605,174L617,181L627,189L637,197L646,206L655,217L663,229L671,241L679,254L685,267L691,281L696,294L700,308L703,323L705,337L706,352L706,366L706,381L706,395L706,408L706,421L704,430L703,437L701,443L700,447L699,450L699,451L698,451L698,450" stroke-opacity="1" stroke-width="10" stroke-linecap="round" stroke-linejoin="round" style="-webkit-tap-highlight-color: rgba(0, 0, 0, 0); stroke-opacity: 1; stroke-linecap: round; stroke-linejoin: round; -webkit-user-select: text;"></path><path fill="none" stroke="#000000" d="M832,466L829,476L828,483L826,490L822,500L818,508L813,517L807,525L799,533L789,542L778,550L767,557L754,563L743,567L730,571L718,574L706,576L694,578L683,580L672,580L660,580L648,580L638,576L628,571L618,566L610,560L601,553L594,545L587,537L582,527L577,518L572,508L569,497L565,486L561,473L558,460L555,447L553,434L550,422L547,411L545,400L542,388L540,377L537,365L534,354L531,343L528,332L524,323L521,313L516,304L511,296L506,288L500,280L493,273L486,266L479,259L471,253L464,250L456,246L448,243L439,241L431,239L422,238L414,238L405,237L396,237L387,237L377,239L367,242L359,245L349,249L342,253L334,257L327,261L320,266L313,270L306,274L299,279L292,284L285,289L279,295L273,301L267,306L260,313L254,320L248,328L242,335L237,343L232,350L227,359L222,367L217,376L213,385L208,393L205,400L201,409L198,417L195,424L191,432L188,438L184,444L181,451L178,457L175,464L171,471L168,477L165,483L162,488L159,493L157,498L154,503L152,508L149,512L147,515L145,519L144,522L142,525L140,528L139,530L137,532L136,534L135,535L134,536L133,536L132,536L132,534" stroke-opacity="1" stroke-width="10" stroke-linecap="round" stroke-linejoin="round" style="-webkit-tap-highlight-color: rgba(0, 0, 0, 0); stroke-opacity: 1; stroke-linecap: round; stroke-linejoin: round; -webkit-user-select: text;"></path></svg>