<svg height="618" version="1.1" width="1024" xmlns="http://www.w3.org/2000/svg" xmlns:xlink="http://www.w3.org/1999/xlink" style="overflow: hidden; position: relative; -webkit-user-select: text;"><desc style="-webkit-tap-highlight-color: rgba(0, 0, 0, 0); -webkit-user-select: text;">Created with Raphaël 2.2.0</desc><defs style="-webkit-tap-highlight-color: rgba(0, 0, 0, 0); -webkit-user-select: text;"></defs><path fill="none" stroke="#000000" d="M297,546L296,547L296,546L296,545L296,544L297,543L297,541L298,540L299,538L300,537L301,534L302,532L303,530L305,527L307,524L309,522L311,519L312,516L315,514L316,511L318,509L320,506L322,504L324,501L326,498L328,495L330,493L332,490L334,487L337,484L339,480L342,476L345,472L348,468L351,465L354,461L357,457L360,454L363,449L366,445L369,442L372,437L375,433L379,429L383,425L387,420L391,415L395,410L399,405L403,400L407,395L412,390L415,385L418,380L422,376L425,371L429,366L432,361L435,357L438,352L441,347L444,343L447,338L450,334L453,329L456,325L459,320L463,316L465,312L469,308L472,303L475,299L478,295L481,291L484,287L487,283L490,279L493,275L496,271L499,267L502,263L505,259L508,254L511,250L514,246L517,242L520,239L524,235L526,230L529,226L532,223L536,219L538,216L541,211L544,208L547,204L550,200L553,196L555,193L558,189L561,186L564,182L567,179L570,174L573,171L576,167L579,163L582,159L585,155L588,151L591,148L593,145L596,141L599,137L601,134L604,131L606,127L609,123L611,120L614,116L616,113L619,110L622,107L624,104L627,101L629,98L632,94L635,92L638,89L640,86L643,83L645,80L648,78L650,75L652,72L655,70L656,68L658,66L660,64L661,63L663,60L665,59L666,57L667,55L668,54L670,52L671,50L672,49L673,48L674,47L675,46L676,45L677,44L677,43L679,42L679,41L680,40L681,39L682,38L683,38L684,37L684,36L685,36L686,36L687,35L688,34" stroke-opacity="1" stroke-width="10" stroke-linecap="round" stroke-linejoin="round" style="-webkit-tap-highlight-color: rgba(0, 0, 0, 0); stroke-opacity: 1; stroke-linecap: round; stroke-linejoin: round; -webkit-user-select: text;"></path><path fill="none" stroke="#000000" d="M632,26L639,21L642,21L645,21L648,21L651,21L654,21L657,21L660,21L663,21L667,21L669,22L672,23L676,24L679,26L682,28L686,30L689,32L693,34L697,36L701,39L705,42L708,45L712,48L715,52L718,56L722,61L725,65L729,70L733,76L736,80L739,86L742,92L745,98L748,104L751,109L753,115L755,121L757,128L759,134L760,140L761,148L762,155L762,161L763,169L763,176L763,183L763,190L763,197L763,204L763,211L763,217L762,223L761,230L759,236L758,242L757,247L755,253L754,259L752,264L750,270L749,276L747,281L745,287L744,293L742,299L740,305L737,312L735,318L733,324L730,330L728,336L725,343L721,349L718,355L715,361L712,367L708,373L704,379L700,385L696,391L692,396L688,402L684,407L679,412L675,417L671,422L666,427L662,432L657,436L652,441L647,445L642,450L636,455L630,460L624,465L618,470L611,474L605,479L599,483L592,488L586,491L580,495L573,499L567,503L561,506L555,509L548,512L543,515L537,517L532,519L527,521L523,523L518,524L514,526L509,527L505,529L501,529L496,530L491,532L486,532L482,533L477,534L472,535L467,536L462,537L458,538L453,538L449,539L444,539L440,539L436,540L431,540L427,540L423,540L419,540L415,540L411,540L407,540L402,540L398,540L394,540L390,540L386,540L382,540L378,539L375,539L371,538L368,537L365,537L361,535L358,534L354,532L351,531L348,530L345,529L342,527L339,526L335,524L332,522L328,520L324,518L321,517L317,515L313,513L309,510L306,509L302,507L297,504L293,501L289,499L284,496L280,494L276,491L272,488L268,485L263,481L259,478L256,476L252,472L249,469L245,465L241,461L237,457L233,453L229,449L225,444L220,439L216,434L211,429L208,425L203,420L200,416L195,412L191,406L187,401L183,397L179,393L176,389L173,385L169,381L166,377L163,373L160,368L157,364L154,360L151,356L149,352L146,348L144,344L141,339L139,336L137,332L135,327L132,323L130,318L128,315L126,311L124,306L122,303L120,299L118,296L116,292L114,289L113,287L111,284L110,283L110,281L109,279L108,278L108,276L108,275L107,274L107,273L107,272" stroke-opacity="1" stroke-width="10" stroke-linecap="round" stroke-linejoin="round" style="-webkit-tap-highlight-color: rgba(0, 0, 0, 0); stroke-opacity: 1; stroke-linecap: round; stroke-linejoin: round; -webkit-user-select: text;"></path><path fill="none" stroke="#000000" d="M73,228L71,222L71,219L71,216L71,212L73,208L74,203L76,198L79,194L81,189L84,182L88,177L92,170L96,165L101,158L106,153L113,146L119,140L125,133L131,128L138,123L145,118L152,114L160,108L168,103L176,98L185,93L194,89L203,85L213,82L222,79L231,77L240,75L250,73L259,71L269,70L279,70L289,69L299,68L308,68L317,68L327,68L335,68L344,70L352,71L361,72L368,75L376,77L384,80L392,83L399,86L407,89L413,92L419,96L425,100L431,104L438,109L443,113L449,117L455,122L460,127L466,132L471,137L477,142L482,147L488,153L493,158L499,164L504,169L509,175L514,181L519,186L524,192L528,198L533,204L537,210L541,216L545,222L549,228L552,234L556,240L559,246L562,252L566,258L569,264L572,269L575,275L578,281L581,288L584,294L588,300L591,307L595,314L598,320L601,326L604,332L607,339L611,345L614,351L618,357L621,364L624,369L627,374L631,381L635,386L638,392L642,397L645,402L649,407L652,412L656,416L660,421L664,426L668,430L673,434L677,438L681,442L685,446L689,449L694,453L698,456L702,459L706,462L710,464L714,467L719,470L723,472L727,474L731,476L736,478L740,479L745,481L750,482L754,483L758,484L762,485L766,486L771,487L775,488L780,488L784,488L788,488L793,488L798,488L802,488L806,488L810,488L814,488L818,487L822,486L825,485L829,484L832,482L836,481L839,479L842,478L846,476L849,474L853,472L857,470L860,468L863,466L866,464L869,461L872,459L875,456L878,454L881,452L884,449L887,447L890,444L892,442L894,440L897,438L899,435L901,433L903,430L905,427L908,424L910,421L912,418L914,414L916,410L918,406L920,403L922,398L925,393L927,388L929,383L930,379L932,375L933,369L935,364L936,359L937,354L939,349L939,344L940,339L941,333L941,327L942,323L942,317L942,312L942,307L942,302L942,296L942,291L942,287L942,282L942,278L941,274L940,269L939,265L938,261L937,257L936,253L934,250L933,246L932,242L930,238L929,234L927,230L926,226L925,223L923,220L922,216L920,213L918,210L916,207L915,204L913,201L911,199L908,196L906,193L904,191L902,189L900,186L898,184L896,182L894,179L892,178L890,176L888,174L886,172L884,171L882,169L880,167L878,166L876,165L874,164L872,163L870,162L868,161L866,160L864,159L862,158L861,157L859,157L857,156L855,155L854,155L852,154L851,154L850,153L849,152L847,152L846,152L845,152L844,151" stroke-opacity="1" stroke-width="10" stroke-linecap="round" stroke-linejoin="round" style="-webkit-tap-highlight-color: rgba(0, 0, 0, 0); stroke-opacity: 1; stroke-linecap: round; stroke-linejoin: round; -webkit-user-select: text;"></path><path fill="none" stroke="#000000" d="M831,165L827,168L826,168L825,169L823,172L820,174L818,177L815,180L813,184L810,187L807,191L803,195L800,199L796,203L792,208L788,212L784,216L779,221L775,226L770,231L765,237L760,242L755,247L750,253L745,259L739,265L734,271L728,277L722,283L716,289L711,294L705,300L699,306L694,312L688,318L682,324L676,330L670,336L664,342L658,348L653,354L648,359L642,364L637,369L632,375L627,380L622,385L617,390L613,393L609,398L604,402L600,405L596,409L592,413L589,416L585,420L581,422L577,425L573,429L570,432L566,435L562,438L559,441L555,444L552,447L548,450L545,453L542,456L539,458L536,461L533,463L530,466L528,468L525,470L523,473L520,475L518,477L516,479L515,481L513,482L511,484L510,485L509,486L508,488L507,488L507,489L506,490L505,490L505,491L504,491L504,492L503,492L503,493L502,493L501,493L500,493L500,494L500,493L500,492L501,491L501,490L502,490L503,489L504,488L504,487L506,486L507,485L509,483L510,482L512,481L514,479L516,477L519,475L521,472L524,470L527,467L531,463L534,460L538,456L543,452L547,447L552,442L556,437L562,431L567,425L572,419L577,413L582,406L588,400L594,392L599,386L604,379L610,371L615,364L621,356L626,348L631,340L635,333L639,325L643,318L648,310L651,303L655,295L658,288L661,280L663,273L666,266L668,259L669,252L671,245L672,238L673,231L674,223L674,216L674,209L674,203L674,196L674,190L674,184L673,179L671,173L669,167L667,162L664,156L661,151L658,146L655,141L652,136L648,131L644,126L640,122L635,118L631,114L626,110L621,106L616,104L611,101L606,98L601,95L595,92L589,90L583,87L577,85L571,83L565,81L559,79L553,77L547,76L541,75L536,75L530,74L525,73L519,73L513,72L507,72L501,72L496,72L490,72L485,72L479,72L473,73L468,75L462,76L457,77L451,78L445,80L440,81L435,82L430,83L425,84L421,85L416,87L412,87L408,88L404,89L401,91L397,92L394,92L391,93L388,94L386,94L384,95L383,95L381,96L380,96L379,96L379,97L378,97L377,97L376,97L375,97L376,97L377,97L378,97L379,96L380,96L381,96L382,96L383,96L384,95L385,95L387,95L388,95L390,95L392,95L393,95L395,95L397,95L399,95L402,95L404,95L407,95L409,95L413,95L416,95L419,95L422,95L425,95L429,96L433,97L436,98L440,99L444,100L448,102L452,104L455,105L460,107L465,110L469,112L474,115L478,118L483,122L487,126L493,130L497,134L502,138L507,143L512,148L516,153L521,159L525,165L528,171L532,177L536,183L539,189L542,196L544,203L546,210L549,217L550,224L553,232L554,240L555,247L557,255L559,263L560,269L561,279L562,286L563,293L564,302L565,309L565,318L566,326L567,333L568,341L569,349L570,356L571,363L573,370L575,376L577,384L579,391L582,397L585,404L589,410L593,416L597,422L601,428L605,433L609,437L614,442L618,446L623,449L628,453L633,456L638,459L644,461L649,464L655,466L660,468L667,469L672,470L679,471L684,472L689,472L695,472L701,472L706,472L711,472L718,472L724,472L730,471L736,469L742,467L748,465L753,463L758,461L763,458L767,456L771,453L776,450L780,447L784,444L788,440L792,436L796,431L800,427L803,422L806,418L808,413L811,408L813,404L815,399L817,394L818,389L820,383L820,378L821,374L823,368L823,363L823,358L824,353L824,348L824,343L824,338L824,333L824,328L824,323L822,318L820,313L819,309L817,303L815,299L813,296L811,291L808,287L806,284L803,280L799,276L795,272L791,268L787,264L784,261L780,259L777,256L774,255L771,252L769,251L765,249L762,247L758,246L754,245L750,243L746,242L742,241L737,240L733,238L728,238L724,237L720,236L716,235L712,234L708,233L703,233L699,232L696,232L691,231L688,231L684,231L679,231L674,231L670,231L665,231L661,231L657,231L652,232L648,233L645,233L641,234L638,235L634,236L631,237L628,238L625,239L622,240L619,241L616,242L613,243L610,245L607,246L603,247L600,249L596,251L593,252L590,254L587,255L584,257L580,258L577,259L575,261L572,262L570,264L567,265L565,266L563,267L561,268L559,269L557,270L555,271L552,272L550,273L548,274L546,276L544,276L542,277L541,279L539,279L537,280L536,281L534,282L532,283L531,284L529,285L528,286L527,286L525,287L524,288L523,289L521,289L520,290L519,291L518,291L517,292L516,292L515,293L514,294L513,295L512,295L511,296" stroke-opacity="1" stroke-width="10" stroke-linecap="round" stroke-linejoin="round" style="-webkit-tap-highlight-color: rgba(0, 0, 0, 0); stroke-opacity: 1; stroke-linecap: round; stroke-linejoin: round; -webkit-user-select: text;"></path><path fill="none" stroke="#000000" d="M487,314L482,317L480,317L477,319L475,320L472,323L469,325L465,327L461,330L458,332L453,335L449,337L445,340L441,343L436,346L431,348L426,350L421,353L416,356L410,359L405,362L399,366L393,370L388,373L383,376L377,380L371,383L366,386L360,390L355,393L349,397L343,400L336,404L330,408L324,412L317,415L311,420L305,423L299,427L293,430L288,434L282,437L276,440L271,444L264,447L259,450L254,454L248,457L244,460L238,464L233,466L229,470L225,472L220,475L217,477L213,479L209,481L206,483L203,484L200,486L197,488L194,489L191,490L188,492L185,493L182,495L178,496L176,498L173,499L170,500L166,502L164,503L161,505L157,506L155,508L152,509L149,511L147,512L144,514L142,515L139,517L137,519L135,520L132,522L131,523L130,524L128,525L127,526L127,527L126,527L125,527L125,528L124,528L124,527" stroke-opacity="1" stroke-width="10" stroke-linecap="round" stroke-linejoin="round" style="-webkit-tap-highlight-color: rgba(0, 0, 0, 0); stroke-opacity: 1; stroke-linecap: round; stroke-linejoin: round; -webkit-user-select: text;"></path><path fill="none" stroke="#000000" d="M107,515L103,516L101,516L98,516L96,516L93,515L91,515L89,514L87,512L84,511L82,510L80,507L78,505L76,503L74,501L72,499L71,497L69,494L67,492L66,489L65,486L64,483L64,480L63,476L62,471L62,466L62,461L62,456L62,450L62,444L62,437L62,430L62,423L62,415L64,407L66,400L68,392L70,384L72,376L74,369L77,363L79,357L82,350L85,344L88,338L92,332L96,326L100,321L104,315L109,310L114,306L119,301L124,297L130,293L136,289L142,285L149,281L156,278L163,274L170,270L177,267L184,264L191,262L198,259L205,257L213,256L220,254L227,253L234,252L241,251L247,250L254,250L260,250L266,250L273,250L279,250L285,250L291,250L298,252L304,253L310,254L316,256L322,257L327,259L333,261L338,264L343,266L349,268L353,270L358,273L363,276L367,279L372,281L376,284L380,287L384,291L388,293L392,296L395,299L399,302L402,305L405,308L409,311L412,314L414,318L417,320L419,323L422,327L425,330L427,333L430,336L432,340L434,343L436,346L439,349L441,353L443,356L445,360L446,363L448,366L450,370L452,374L454,377L456,381L458,384L459,388L461,392L463,395L465,398L466,402L468,405L469,408L470,411L472,415L473,417L474,420L475,422L476,424L477,427L478,429L480,431L480,433L481,436L482,438L483,440L484,442L485,443L485,444L485,445L486,446L486,447L486,448L487,449L488,449L491,447" stroke-opacity="1" stroke-width="10" stroke-linecap="round" stroke-linejoin="round" style="-webkit-tap-highlight-color: rgba(0, 0, 0, 0); stroke-opacity: 1; stroke-linecap: round; stroke-linejoin: round; -webkit-user-select: text;"></path><path fill="none" stroke="#000000" d="M491,486L490,493L490,495L491,499L492,502L494,505L496,509L497,512L499,516L502,519L505,523L508,527L511,530L515,534L519,537L523,540L527,544L531,547L536,550L540,552L545,555L549,557L554,560L560,563L566,565L571,567L577,570L583,572L589,573L594,575L600,576L606,578L611,579L618,580L623,581L630,582L636,583L643,583L650,584L657,584L665,584L672,584L679,584L686,584L692,584L699,584L705,583L711,583L716,581L721,580L725,578L729,577L733,575L737,574L741,572L745,570L749,568L752,566L755,564L759,562L762,560L764,557L767,555L770,552L772,550L775,547L777,544L779,541L781,539L783,536L785,533L787,530L789,527L791,524L793,521L795,518L797,515L798,511L800,507L801,504L803,500L804,496L805,491L806,487L806,482L807,477L807,471L807,466L807,461L807,455L807,449L807,443L806,437L804,432L802,427L800,422L797,417L794,412L791,407L788,403L784,398L780,395L776,391L770,386L766,383L762,379L757,376L752,373L747,370L742,368L736,365L731,363L725,361L719,359L713,357L707,355L700,353L694,352L686,350L679,349L672,348L664,347L656,347L649,347L641,346L634,346L626,346L618,346L611,346L603,346L595,346L587,346L580,347L572,348L565,349L558,350L549,351L542,353L534,354L526,356L518,357L511,359L503,360L496,361L489,363L482,364L475,365L468,366L461,366L455,367L448,367L441,367L435,367L428,367L422,367L415,367L409,367L402,367L396,367L389,366L383,365L378,364L371,363L366,361L360,360L353,357L345,354L338,350L331,347L324,344L319,341L312,337L308,334L303,331L298,327L293,324L288,320L283,315L278,311L274,306L269,302L265,297L260,292L256,287L251,281L248,276L244,272L242,267L238,262L236,257L233,252L230,247L228,242L226,237L224,232L222,227L220,223L218,220L216,216L215,212L212,208L211,205L209,201L207,198L205,195L204,191L202,189L200,186L199,183L197,180L195,177L194,174L192,171L190,168L188,165L186,162L185,160L183,158L181,156L179,154L178,152L176,150L174,148L173,147L171,145L170,144L169,143L168,141L167,140L166,139L165,138L164,138" stroke-opacity="1" stroke-width="10" stroke-linecap="round" stroke-linejoin="round" style="-webkit-tap-highlight-color: rgba(0, 0, 0, 0); stroke-opacity: 1; stroke-linecap: round; stroke-linejoin: round; -webkit-user-select: text;"></path><path fill="none" stroke="#000000" d="M89,112L85,114L88,114L92,114L96,114L100,114L104,114L109,114L115,114L122,114L129,114L136,115L146,116L154,116L163,117L172,117L181,118L190,119L200,120L208,121L217,122L227,123L235,123L244,124L254,125L263,126L273,128L284,129L295,131L307,132L317,133L329,134L339,135L350,136L361,137L371,138L382,139L392,140L402,142L413,143L422,144L432,146L440,147L446,148L453,149L458,150L463,151L466,152L468,152L470,152L471,152L471,153L472,153L473,153L472,153" stroke-opacity="1" stroke-width="10" stroke-linecap="round" stroke-linejoin="round" style="-webkit-tap-highlight-color: rgba(0, 0, 0, 0); stroke-opacity: 1; stroke-linecap: round; stroke-linejoin: round; -webkit-user-select: text;"></path><path fill="none" stroke="#000000" d="M370,96L373,93L375,93L378,93L383,93L387,92L391,92L396,91L401,91L406,91L411,91L417,91L422,91L428,92L434,93L439,95L445,97L451,99L457,102L462,106L467,109L471,112L475,116L479,121L482,126L486,131L488,136L490,141L492,147L493,151L494,157L494,162L495,167L495,172L495,177L495,183L495,189L494,194L492,199L489,205L485,211L481,216L477,221L473,227L468,233L462,238L456,243L450,248L443,254L436,259L430,264L423,268L416,272L409,275L403,278L397,280L391,281L385,283L378,284L372,285L366,285L359,286L353,286L346,286L340,286L334,286L328,286L322,286L315,286L309,286L303,286L296,286L290,286L283,285L277,285L270,284L263,284L258,284L251,284L244,284L239,284L232,284L227,284L221,284L215,284L210,284L204,284L199,284L194,284L189,284L184,285L179,286L175,287L171,289L166,290L162,291L158,292L154,293L152,294L149,295L147,295L145,296L144,296L143,296L142,297" stroke-opacity="1" stroke-width="10" stroke-linecap="round" stroke-linejoin="round" style="-webkit-tap-highlight-color: rgba(0, 0, 0, 0); stroke-opacity: 1; stroke-linecap: round; stroke-linejoin: round; -webkit-user-select: text;"></path><path fill="none" stroke="#000000" d="M114,281L110,284L112,284L114,284L116,283L119,282L121,280L124,279L126,278L129,276L132,274L134,271L137,269L140,267L142,264L145,262L147,259L149,257L152,255L154,252L157,249L159,247L161,244L164,241L166,238L168,236L170,233L173,231L175,228L178,225L180,223L183,221L185,218L188,215L190,212L193,210L195,207L198,204L201,202L204,199L207,196L209,194L212,191L215,188L217,185L220,182L224,179L227,177L230,174L233,171L237,169L241,167L244,165L249,162L253,160L258,158L262,156L267,154L273,152L278,151L284,150L290,149L295,148L301,148L307,147L312,146L317,146L323,146L329,146L335,146L340,146L346,146L352,146L358,146L363,147L368,148L373,150L378,152L383,153L388,155L393,158L397,160L402,163L407,166L411,169L415,172L419,176L423,179L426,183L429,186L433,191L436,195L439,200L441,205L444,210L446,216L448,221L450,227L452,233L453,238L453,243L454,250L454,256L454,262L454,268L454,274L454,280L453,285L451,290L449,295L446,300L444,304L441,308L438,313L435,317L431,321L427,325L423,330L419,333L414,337L409,340L404,344L400,347L394,350L388,354L383,357L377,360L371,363L366,365L360,368L354,370L349,371L344,373L339,374L334,375L329,376L324,377L319,377L315,378L310,378L305,378L300,378L294,378L289,378L284,378L279,378L275,378L270,378L266,378L261,377L257,377L254,376L250,376L246,375L244,374L242,374L240,374L239,373L238,373L237,373L237,372L237,371L237,369" stroke-opacity="1" stroke-width="10" stroke-linecap="round" stroke-linejoin="round" style="-webkit-tap-highlight-color: rgba(0, 0, 0, 0); stroke-opacity: 1; stroke-linecap: round; stroke-linejoin: round; -webkit-user-select: text;"></path><path fill="none" stroke="#000000" d="M217,383L223,385L225,387L227,389L230,391L233,393L236,396L239,398L242,400L246,403L250,406L254,410L258,413L261,416L265,420L269,423L273,426L276,430L280,432L284,436L288,440L291,444L295,447L300,451L304,455L308,459L312,463L316,466L320,470L324,474L328,478L332,483L336,487L341,491L344,495L348,499L352,502L356,506L360,510L364,514L368,518L371,521L375,525L378,528L381,531L384,533L386,536L388,538L390,539L390,541L391,541L392,542L392,543L393,544L393,543" stroke-opacity="1" stroke-width="10" stroke-linecap="round" stroke-linejoin="round" style="-webkit-tap-highlight-color: rgba(0, 0, 0, 0); stroke-opacity: 1; stroke-linecap: round; stroke-linejoin: round; -webkit-user-select: text;"></path><path fill="none" stroke="#000000" d="M407,571L411,570L413,570L416,570L419,570L422,570L426,570L429,570L432,570L435,570L438,570L440,569L443,569L446,568L448,567L452,566L455,566L459,564L463,563L466,561L470,559L473,557L477,555L480,553L485,550L488,548L492,546L495,543L499,540L503,537L507,534L510,531L514,528L517,524L520,521L524,517L527,512L530,508L534,503L538,498L541,492L544,487L548,482L550,476L553,471L556,466L559,460L562,455L565,449L567,443L569,437L571,431L573,424L575,418L576,411L577,405L579,398L580,391L581,385L582,378L583,372L584,366L584,360L586,354L587,347L588,341L589,335L590,329L591,324L592,318L594,312L594,306L595,301L596,295L597,290L598,285L599,279L601,274L602,269L604,265L605,260L606,256L608,251L610,246L611,242L614,237L616,232L618,227L620,223L622,218L625,213L627,209L630,204L632,200L635,195L638,191L641,186L644,182L647,178L650,174L653,170L656,167L660,162L663,159L667,155L669,153L673,150L676,148L680,145L683,143L687,141L691,140L694,138L698,137L702,135L706,134L709,133L713,132L717,132L721,131L725,131L728,130L732,130L735,130L737,130L740,130L742,130L743,130L745,130L746,130L747,130" stroke-opacity="1" stroke-width="10" stroke-linecap="round" stroke-linejoin="round" style="-webkit-tap-highlight-color: rgba(0, 0, 0, 0); stroke-opacity: 1; stroke-linecap: round; stroke-linejoin: round; -webkit-user-select: text;"></path><path fill="none" stroke="#000000" d="M792,123L796,120L798,120L802,119L805,118L808,117L812,116L815,115L818,114L822,113L825,112L828,111L832,111L835,110L837,109L840,109L843,108L846,107L849,107L852,106L855,106L858,105L861,105L864,105L866,105L870,105L873,105L876,105L880,105L883,106L888,107L891,109L895,111L900,114L904,116L908,118L912,122L916,125L920,128L923,133L927,136L930,140L933,145L935,150L938,156L940,161L942,167L944,173L945,179L946,185L946,190L947,197L947,203L947,209L947,216L946,223L944,229L942,236L939,242L936,247L933,253L929,258L926,263L922,267L919,272L915,276L911,280L907,284L903,288L899,292L895,296L891,299L888,303L883,308L879,313L875,318L870,323L866,327L862,332L859,337L855,342L852,347L848,353L844,358L842,364L839,369L836,375L834,381L831,387L829,393L827,398L826,404L824,409L823,413L822,418L822,423L821,427L821,432L821,436L820,441L820,445L820,449L820,454L820,458L820,463L821,467L821,471L823,475L824,478L826,482L827,485L830,488L831,491L833,494L835,497L837,499L839,501L841,503L843,505L845,507L847,509L849,511L852,513L854,515L857,516L859,518L861,520L864,522L867,523L871,524L874,526L878,527L881,529L885,530L888,531L891,532L894,533L897,534L900,534L902,535L903,536L905,537L906,537L907,537L907,534" stroke-opacity="1" stroke-width="10" stroke-linecap="round" stroke-linejoin="round" style="-webkit-tap-highlight-color: rgba(0, 0, 0, 0); stroke-opacity: 1; stroke-linecap: round; stroke-linejoin: round; -webkit-user-select: text;"></path><path fill="none" stroke="#000000" d="M959,538L956,533L956,532L956,530L956,528L955,526L954,523L953,519L951,516L949,512L946,507L944,501L941,495L939,490L937,485L934,480L932,475L930,470L928,465L926,459L924,453L921,447L919,442L917,437L915,432L913,426L911,420L909,415L906,408L904,401L901,395L898,388L896,382L894,376L891,369L888,363L886,357L883,350L881,345L879,339L876,333L874,327L871,320L869,314L866,308L863,301L860,295L857,288L855,282L852,275L849,269L846,262L843,255L841,249L838,242L835,236L833,230L830,223L827,216L825,209L822,203L819,196L816,190L814,184L812,179L809,173L807,168L804,163L802,158L800,153L798,148L796,143L793,138L791,133L789,130L787,125L785,121L782,117L781,113L779,109L776,105L774,101L773,97L771,94L770,91L769,89L768,87L767,84L767,83L767,82L766,81L766,80L766,79" stroke-opacity="1" stroke-width="10" stroke-linecap="round" stroke-linejoin="round" style="-webkit-tap-highlight-color: rgba(0, 0, 0, 0); stroke-opacity: 1; stroke-linecap: round; stroke-linejoin: round; -webkit-user-select: text;"></path><path fill="none" stroke="#000000" d="M778,38L780,33L784,33L787,31L792,29L797,27L801,26L806,25L810,24L815,23L819,23L823,23L827,23L831,23L835,23L840,23L843,25L847,27L852,29L856,32L859,34L863,38L867,41L871,44L874,48L878,51L881,55L885,59L888,63L891,68L895,72L897,77L900,81L902,86L904,91L906,97L908,101L908,107L910,112L910,118L910,123L911,128L911,134L911,140L911,145L911,151L911,157L911,163L910,169L909,175L908,182L905,187L903,193L901,199L898,205L895,211L891,218L887,224L883,231L879,238L875,243L871,249L866,255L861,260L857,265L852,270L846,275L841,280L835,284L829,289L823,292L818,296L812,298L807,301L801,303L796,306L790,308L784,310L777,312L771,313L765,315L759,317L754,319L751,320L747,321L745,322L743,323L742,323L743,322" stroke-opacity="1" stroke-width="10" stroke-linecap="round" stroke-linejoin="round" style="-webkit-tap-highlight-color: rgba(0, 0, 0, 0); stroke-opacity: 1; stroke-linecap: round; stroke-linejoin: round; -webkit-user-select: text;"></path><path fill="none" stroke="#000000" d="M723,342L718,343L715,343L712,343L708,343L702,343L697,344L691,346L684,348L679,351L672,354L667,358L662,363L657,368L653,374L649,380L646,387L643,394L642,401L640,409L639,416L639,423L639,430L639,437L639,444L639,450L641,456L643,462L646,469L649,476L652,481L655,486L660,492L664,497L669,502L674,506L679,510L685,514L692,518L699,522L706,525L714,529L723,531L731,534L740,536L749,537L757,539L767,540L776,541L783,541L793,541L800,541L808,541L815,541L822,540L828,539L835,537L841,535L847,534L852,531L857,529L862,527L867,524L873,522L878,519L883,517L887,515L891,512L895,509L899,507L903,505L906,502L910,499L913,496L917,493L921,490L925,488L929,484L933,481L937,477L940,473L944,470L947,467L950,463L954,459L957,455L960,451L963,446L966,442L968,437L971,432L973,427L975,421L976,415L978,410L978,404L979,398L980,392L980,385L980,378L980,371L980,364L980,357L980,351L980,344L978,337L976,330L973,322L971,315L968,308L964,301L959,293L953,285L947,277L940,269L933,261L926,254L918,247L910,240L903,234L895,228L888,223L880,218L872,213L864,209L856,206L847,204L837,201L827,198L819,196L810,194L800,191L790,189L780,187L769,185L760,183L750,182L740,180L730,178L721,176L713,174L704,173L696,171L687,169L679,167L671,166L664,164L656,162L650,160L644,158L637,156L631,154L625,151L619,149L613,146L608,143L601,140L597,137L592,133L588,131L583,127L579,124L575,121L572,117L568,114L564,110L560,106L557,103L553,99L550,96L547,92L545,89L542,86L540,82L538,80L536,78L535,77L534,76L533,75L533,74L533,73L533,72" stroke-opacity="1" stroke-width="10" stroke-linecap="round" stroke-linejoin="round" style="-webkit-tap-highlight-color: rgba(0, 0, 0, 0); stroke-opacity: 1; stroke-linecap: round; stroke-linejoin: round; -webkit-user-select: text;"></path><path fill="none" stroke="#000000" d="M530,10L525,13L524,15L522,16L519,19L516,21L512,25L507,29L501,34L495,39L487,46L479,53L471,60L462,67L453,75L442,84L433,93L424,100L416,109L408,116L400,124L392,132L384,140L376,148L368,155L361,162L353,169L344,177L336,184L329,191L322,198L315,205L310,210L305,215L299,220L295,224L290,228L285,233L281,236L277,240L273,243L270,246L267,249L263,252L261,255L258,257L255,260L253,262L250,264L249,266L247,268L246,269L244,269L244,270L243,270L243,269" stroke-opacity="1" stroke-width="10" stroke-linecap="round" stroke-linejoin="round" style="-webkit-tap-highlight-color: rgba(0, 0, 0, 0); stroke-opacity: 1; stroke-linecap: round; stroke-linejoin: round; -webkit-user-select: text;"></path><path fill="none" stroke="#000000" d="M217,320L211,326L209,326L206,326L203,325L199,323L195,321L190,318L185,316L179,312L174,308L169,303L163,299L159,296L154,292L149,288L144,283L139,278L133,272L128,267L122,261L118,254L113,247L108,240L103,233L98,226L94,219L89,212L85,205L81,199L78,191L75,184L72,177L70,169L68,163L67,156L65,150L64,144L63,139L62,133L62,128L62,122L62,116L62,111L62,105L62,99L62,94L62,89L62,83L62,78L62,73L63,69L64,65L65,63L66,60L66,58L67,56L67,54L68,53L68,52L69,51L69,50L70,50" stroke-opacity="1" stroke-width="10" stroke-linecap="round" stroke-linejoin="round" style="-webkit-tap-highlight-color: rgba(0, 0, 0, 0); stroke-opacity: 1; stroke-linecap: round; stroke-linejoin: round; -webkit-user-select: text;"></path><path fill="none" stroke="#000000" d="M79,33L82,29L85,28L89,25L95,23L101,21L106,19L112,18L118,18L125,17L130,17L136,17L143,17L149,17L155,17L161,18L169,20L175,22L182,24L189,28L197,31L204,35L211,39L217,44L224,49L231,55L237,60L243,66L249,72L254,79L260,85L264,92L268,99L273,108L277,116L279,124L282,133L284,139L285,145L288,153L289,160L290,167L290,174L291,181L291,187L291,194L291,200L291,206L291,213L289,219L288,225L286,230L284,236L283,242L280,247L278,252L276,258L273,264L270,270L266,276L262,281L258,287L254,293L250,297L245,302L241,307L237,312L232,316L228,320L223,324L219,327L215,331L210,336L205,340L200,345L195,349L190,354L186,358L182,362L177,367L172,371L168,376L164,380L161,384L157,388L154,393L152,396L149,400L147,404L145,408L143,412L142,416L140,420L139,425L138,430L137,436L137,442L136,448L136,455L136,462L136,468L136,474L136,480L136,486L138,491L140,496L142,501L144,506L147,510L149,514L151,517L154,521L156,525L159,528L161,532L165,535L168,539L171,542L175,544L179,547L183,550L187,553L191,556L196,558L201,561L206,563L211,566L216,568L221,571L227,573L233,575L239,576L244,577L250,578L256,579L262,580L267,580L273,581L278,581L284,581L290,581L296,581L302,581L307,580L313,579L319,577L326,575L333,572L338,569L344,565L351,561L357,557L363,553L369,548L375,544L380,539L386,534L391,529L396,523L400,518L404,512L408,508L411,503L414,498L417,493L419,490L421,486L422,483L423,481L424,480L424,479L425,478L425,477L426,477" stroke-opacity="1" stroke-width="10" stroke-linecap="round" stroke-linejoin="round" style="-webkit-tap-highlight-color: rgba(0, 0, 0, 0); stroke-opacity: 1; stroke-linecap: round; stroke-linejoin: round; -webkit-user-select: text;"></path><path fill="none" stroke="#000000" d="M450,449L447,449L449,448L451,448L453,447L455,446L456,444L458,443L460,441L463,439L466,436L469,432L473,428L477,425L481,420L486,415L490,411L495,405L500,400L506,395L511,389L517,383L523,377L529,371L535,365L541,359L547,353L553,346L560,339L566,333L572,326L579,319L585,312L592,305L598,298L605,291L611,285L618,279L623,273L630,267L635,262L638,257L642,254L645,251L646,250L647,248L648,247L649,247L649,248L650,248" stroke-opacity="1" stroke-width="10" stroke-linecap="round" stroke-linejoin="round" style="-webkit-tap-highlight-color: rgba(0, 0, 0, 0); stroke-opacity: 1; stroke-linecap: round; stroke-linejoin: round; -webkit-user-select: text;"></path><path fill="none" stroke="#000000" d="M673,223L678,220L682,220L686,219L693,218L700,218L707,218L715,218L723,219L728,221L735,224L742,228L748,231L754,236L759,241L764,246L769,252L774,259L779,266L784,273L789,281L793,289L798,298L801,307L805,317L808,327L810,338L812,347L813,357L814,366L815,376L815,386L815,395L814,405L811,416L808,427L805,437L800,447L796,457L791,466L785,474L779,483L773,490L767,495L761,501L753,506L745,511L737,516L729,521L722,524L714,529L707,532L701,535L697,537L693,539L690,540L689,540L687,540L687,537" stroke-opacity="1" stroke-width="10" stroke-linecap="round" stroke-linejoin="round" style="-webkit-tap-highlight-color: rgba(0, 0, 0, 0); stroke-opacity: 1; stroke-linecap: round; stroke-linejoin: round; -webkit-user-select: text;"></path><path fill="none" stroke="#000000" d="M658,545L651,548L648,548L643,548L636,548L628,548L620,549L612,550L603,550L594,550L585,550L576,550L568,550L560,550L552,550L545,550L538,549L531,547L524,546L517,544L510,541L504,538L498,535L493,532L487,529L482,525L477,521L473,517L468,512L463,507L458,502L453,496L449,490L446,484L443,478L440,473L437,466L434,460L431,455L429,449L426,442L424,437L421,430L418,423L416,417L413,411L411,405L408,398L404,393L401,387L398,381L394,376L390,371L386,366L382,363L378,359L373,356L369,353L365,349L360,347L356,344L351,341L345,338L340,336L334,335L329,333L323,332L318,331L312,330L306,330L300,329L294,329L289,328L283,328L276,328L271,328L265,328L259,328L253,329L247,330L241,332L235,334L229,336L224,338L218,341L212,344L208,347L203,350L198,354L193,358L189,361L184,366L179,370L175,374L170,379L166,383L162,387L159,392L154,396L151,400L148,405L145,409L142,413L140,416L137,420L135,423L133,427L131,431L129,434L127,439L125,442L123,447L121,451L120,455L118,459L116,464L115,467L113,471L111,476L109,479L107,483L105,487L103,491L101,495L99,499L98,502L96,505L94,508L92,511L90,514L88,517L87,519L85,522L83,525L81,527L79,530L78,532L77,533L76,535L75,537L74,538L74,539L73,540L72,540L72,541L71,541" stroke-opacity="1" stroke-width="10" stroke-linecap="round" stroke-linejoin="round" style="-webkit-tap-highlight-color: rgba(0, 0, 0, 0); stroke-opacity: 1; stroke-linecap: round; stroke-linejoin: round; -webkit-user-select: text;"></path><path fill="none" stroke="#000000" d="M55,554L49,551L49,549L49,546L49,543L49,540L49,537L49,531L49,523L50,516L51,507L53,498L54,488L57,477L57,468L59,459L60,449L61,440L62,431L62,421L63,411L64,402L66,392L67,383L69,373L70,364L71,354L73,345L74,335L76,326L77,317L79,309L80,301L81,294L81,288L82,282L82,277L83,273L84,269L84,267L84,264L84,263L84,262L85,261L85,260L86,259L87,259" stroke-opacity="1" stroke-width="10" stroke-linecap="round" stroke-linejoin="round" style="-webkit-tap-highlight-color: rgba(0, 0, 0, 0); stroke-opacity: 1; stroke-linecap: round; stroke-linejoin: round; -webkit-user-select: text;"></path><path fill="none" stroke="#000000" d="M77,238L80,230L83,226L86,223L90,219L94,216L99,214L104,211L109,209L114,208L120,207L125,206L132,206L138,206L144,206L152,208L159,211L166,214L173,218L179,221L186,226L193,231L199,236L205,242L212,247L217,254L223,261L228,268L232,275L237,283L240,290L244,297L246,304L249,311L251,318L254,327L257,335L259,342L262,349L264,357L266,364L267,371L269,378L270,385L271,393L272,401L272,409L273,417L273,424L273,432L273,439L273,446L273,454L273,461L273,468L273,475L273,482L271,488L270,493L269,498L268,502L266,506L265,509L263,512L262,515L261,518L259,520L258,523L256,525L256,527L255,529L254,529L254,530L254,529L252,529" stroke-opacity="1" stroke-width="10" stroke-linecap="round" stroke-linejoin="round" style="-webkit-tap-highlight-color: rgba(0, 0, 0, 0); stroke-opacity: 1; stroke-linecap: round; stroke-linejoin: round; -webkit-user-select: text;"></path><path fill="none" stroke="#000000" d="M249,541L244,548L242,548L238,549L234,549L230,550L226,551L222,551L217,551L212,551L206,551L201,551L194,549L188,546L181,543L174,539L168,535L161,531L155,526L149,520L142,513L137,505L132,496L128,487L124,477L121,466L118,454L115,440L115,425L115,411L115,397L115,383L117,369L121,354L125,340L129,328L133,315L138,304L143,293L149,283L156,274L162,265L169,257L176,249L185,242L193,235L201,230L209,225L215,221L223,217L231,213L238,211L246,208L254,206L261,204L269,201L277,199L285,197L292,194L300,191L307,188L314,184L320,181L327,178L332,174L338,170L344,165L348,161L353,155L357,150L360,145L363,140L365,135L366,130L368,124L368,120L368,115L368,110L368,106L368,101L367,97L366,93L364,89L362,86L360,83L357,79L354,76L351,73L349,70L346,67L343,65L339,62L336,59L332,56L329,54L325,52L322,50L318,48L315,47L310,45L306,44L302,43L297,41L293,41L288,39L284,38L280,38L276,37L271,36L267,36L262,36L257,35L253,35L248,35L243,34L237,34L232,34L227,34L222,34L216,34L211,34L205,34L201,34L196,35L191,36L187,36L183,37L179,37L177,38L175,38L174,38L173,38L172,38" stroke-opacity="1" stroke-width="10" stroke-linecap="round" stroke-linejoin="round" style="-webkit-tap-highlight-color: rgba(0, 0, 0, 0); stroke-opacity: 1; stroke-linecap: round; stroke-linejoin: round; -webkit-user-select: text;"></path><path fill="none" stroke="#000000" d="M131,30L129,34L131,36L135,39L138,43L142,48L147,52L152,57L157,62L163,67L169,73L176,80L183,85L191,92L198,97L206,103L214,109L222,114L230,120L238,125L246,131L255,135L264,140L273,146L282,151L290,156L298,162L306,167L313,171L319,176L326,182L333,187L339,192L346,198L351,203L357,208L363,212L368,217L374,221L379,226L385,230L390,233L394,238L398,240L402,244L406,247L409,249L412,252L414,254L416,255L417,256L418,257L419,258L420,258L421,258L424,255" stroke-opacity="1" stroke-width="10" stroke-linecap="round" stroke-linejoin="round" style="-webkit-tap-highlight-color: rgba(0, 0, 0, 0); stroke-opacity: 1; stroke-linecap: round; stroke-linejoin: round; -webkit-user-select: text;"></path><path fill="none" stroke="#000000" d="M440,252L442,247L445,247L448,247L451,245L455,244L459,242L464,240L468,238L473,235L477,233L481,230L485,228L489,225L493,222L496,219L499,216L502,213L504,210L507,206L509,201L511,196L513,190L515,183L516,177L517,169L519,160L519,154L520,147L520,141L521,134L521,129L521,123L521,117L519,112L518,107L515,102L513,97L510,92L507,87L504,82L501,78L497,74L492,69L487,65L483,61L479,58L474,55L469,51L465,48L460,45L454,43L449,40L444,38L438,36L433,34L428,33L422,31L416,31L410,30L404,30L397,29L392,29L387,28L383,28L380,28L378,28L377,28L377,27L376,27" stroke-opacity="1" stroke-width="10" stroke-linecap="round" stroke-linejoin="round" style="-webkit-tap-highlight-color: rgba(0, 0, 0, 0); stroke-opacity: 1; stroke-linecap: round; stroke-linejoin: round; -webkit-user-select: text;"></path><path fill="none" stroke="#000000" d="M332,29L333,33L334,37L336,41L340,46L344,53L348,60L353,66L358,73L364,81L370,87L377,93L384,99L392,104L401,109L410,113L419,116L430,119L438,121L448,122L457,123L466,123L475,123L482,123L490,122L498,121L505,119L512,117L519,115L525,113L531,110L536,107L542,104L547,101L551,99L557,96L562,92L567,89L572,85L578,81L582,78L588,74L594,70L599,65L604,61L608,58L613,54L617,51L622,48L627,45L631,42L636,39L642,37L647,34L653,32L659,31L665,29L671,28L677,27L683,26L689,26L695,26L702,26L708,26L715,26L722,26L729,27L736,28L742,30L749,32L755,34L762,36L768,39L774,42L780,45L785,49L791,53L796,57L802,61L807,66L812,71L817,75L821,81L825,85L829,90L832,94L835,99L838,104L841,110L844,116L846,121L848,128L850,134L852,141L853,148L855,156L856,164L857,172L858,179L858,187L859,195L859,203L859,212L859,220L859,228L858,236L856,244L854,251L852,259L849,266L846,274L843,281L840,287L837,293L834,298L831,303L828,307L825,311L823,315L820,319L817,322L814,325L811,328L808,331L804,334L802,337L798,340L796,342L793,345L790,347L788,348L785,350L784,352L782,353L781,354L780,355L779,356L778,357L781,355" stroke-opacity="1" stroke-width="10" stroke-linecap="round" stroke-linejoin="round" style="-webkit-tap-highlight-color: rgba(0, 0, 0, 0); stroke-opacity: 1; stroke-linecap: round; stroke-linejoin: round; -webkit-user-select: text;"></path><path fill="none" stroke="#000000" d="M765,398L764,396L765,396L767,396L769,394L771,393L775,390L780,387L785,383L791,378L797,374L803,369L809,364L817,357L824,351L832,345L840,338L847,331L855,324L863,317L871,309L879,302L887,294L895,287L904,279L913,272L921,265L929,259L938,252L946,246L954,239L961,233L966,227L972,222L977,218L981,213L985,209L988,206L992,203L995,200L998,198L1000,196L1002,194L1003,193L1004,193L1004,192L1005,192L1004,191" stroke-opacity="1" stroke-width="10" stroke-linecap="round" stroke-linejoin="round" style="-webkit-tap-highlight-color: rgba(0, 0, 0, 0); stroke-opacity: 1; stroke-linecap: round; stroke-linejoin: round; -webkit-user-select: text;"></path><path fill="none" stroke="#000000" d="M903,50L906,47L909,47L913,46L917,46L922,46L927,46L932,46L937,48L942,50L946,53L951,57L956,61L960,66L965,71L969,77L973,82L976,87L981,93L984,99L988,105L991,112L994,119L997,126L1000,133L1002,140L1004,148L1006,155L1007,162L1008,169L1009,178L1010,186L1010,194L1010,204L1010,213L1010,221L1009,230L1007,240L1004,248L1002,256L999,264L996,271L993,279L989,286L985,294L980,301L974,309L969,317L963,323L957,330L951,335L946,342L938,348L932,354L925,359L919,365L913,370L909,373L904,376L901,379L898,381L895,383L894,383L893,384L892,384L892,383" stroke-opacity="1" stroke-width="10" stroke-linecap="round" stroke-linejoin="round" style="-webkit-tap-highlight-color: rgba(0, 0, 0, 0); stroke-opacity: 1; stroke-linecap: round; stroke-linejoin: round; -webkit-user-select: text;"></path><path fill="none" stroke="#000000" d="M699,436L699,430L703,427L708,422L715,419L721,415L728,412L734,409L741,407L747,406L753,405L758,405L764,405L770,405L776,405L781,407L786,409L790,412L794,414L798,416L803,418L806,421L810,423L814,426L818,430L822,433L825,437L829,441L832,445L835,450L837,454L840,459L842,464L844,470L847,476L850,481L852,487L854,493L857,498L859,503L861,508L863,514L865,518L867,523L869,527L871,531L874,535L876,538L878,541L880,544L883,547L885,550L888,552L891,555L893,557L897,560L901,562L904,565L908,567L912,569L916,572L920,573L924,575L928,577L932,578L935,579L939,580L942,580L945,580L949,580L951,580L954,580L957,580L960,580L962,580L965,578L967,578L970,576L972,575L974,573L976,571L978,570L979,568L981,566L983,563L984,561L985,559L986,557L988,555L989,553L990,551L991,548L992,546L993,543L994,541L995,539L996,536L997,534L998,532L998,529L999,526L1000,524L1000,521L1000,519L1000,517L1000,515L1000,512L1000,510L1000,508L1000,506L1000,504L1000,502L1000,501L1000,500L1000,498L1000,497L999,496L999,495L998,495L997,495L997,493" stroke-opacity="1" stroke-width="10" stroke-linecap="round" stroke-linejoin="round" style="-webkit-tap-highlight-color: rgba(0, 0, 0, 0); stroke-opacity: 1; stroke-linecap: round; stroke-linejoin: round; -webkit-user-select: text;"></path><path fill="none" stroke="#000000" d="M993,471L986,471L983,471L978,471L971,471L963,472L955,473L946,475L936,477L927,479L917,481L906,483L895,485L884,487L873,488L861,490L849,493L837,495L824,498L810,501L797,504L783,506L770,508L757,510L743,512L730,514L716,515L703,517L691,518L678,520L666,522L654,524L645,525L638,527L631,527L626,528L621,529L618,529L615,529L613,529L612,529L611,529L610,529L609,529" stroke-opacity="1" stroke-width="10" stroke-linecap="round" stroke-linejoin="round" style="-webkit-tap-highlight-color: rgba(0, 0, 0, 0); stroke-opacity: 1; stroke-linecap: round; stroke-linejoin: round; -webkit-user-select: text;"></path><path fill="none" stroke="#000000" d="M614,570L610,571L607,571L605,571L604,571L601,571L599,571L595,570L592,569L587,567L582,565L577,563L572,560L568,556L563,553L558,549L554,544L549,540L544,535L540,530L536,524L532,518L529,511L526,504L524,497L521,490L519,483L517,476L516,468L514,461L513,452L512,444L511,435L511,427L511,417L511,409L512,400L515,389L518,381L521,371L524,364L528,356L531,348L536,339L541,331L545,324L550,317L555,310L560,305L565,299L571,294L576,290L582,286L587,283L591,280L595,278L599,276L601,275L603,274L604,273L605,272L606,272L606,271L607,271L610,271" stroke-opacity="1" stroke-width="10" stroke-linecap="round" stroke-linejoin="round" style="-webkit-tap-highlight-color: rgba(0, 0, 0, 0); stroke-opacity: 1; stroke-linecap: round; stroke-linejoin: round; -webkit-user-select: text;"></path><path fill="none" stroke="#000000" d="M543,456L545,443L545,436L549,426L554,416L560,407L566,399L572,392L578,385L586,378L593,372L601,367L609,362L616,358L623,354L633,350L641,345L650,341L659,336L668,330L677,325L685,320L693,314L701,308L708,303L715,296L721,290L727,284L732,277L736,269L740,262L743,253L746,244L748,234L750,224L750,215L750,207L750,197L750,189L748,181L745,174L742,167L737,160L733,155L728,150L722,145L716,142L710,138L703,135L696,133L690,132L683,131L675,130L668,130L660,130L652,130L644,130L635,131L628,133L620,134L613,136L605,138L598,140L590,142L583,144L577,146L570,148L564,149L558,150L553,151L548,151L543,152L538,152L533,152L528,152L524,152L521,151L516,150L512,148L508,145L505,143L500,140L497,137L493,134L489,131L486,128L482,125L480,121L477,118L473,114L470,110L468,106L465,102L463,97L460,92L459,88L457,83L455,78L453,73L452,67L450,62L448,57L448,52L446,48L446,43L445,39L445,36L445,31L445,28L445,24L445,21L445,19L445,16L445,14L445,12L445,11L445,9L445,8L445,7" stroke-opacity="1" stroke-width="10" stroke-linecap="round" stroke-linejoin="round" style="-webkit-tap-highlight-color: rgba(0, 0, 0, 0); stroke-opacity: 1; stroke-linecap: round; stroke-linejoin: round; -webkit-user-select: text;"></path><path fill="none" stroke="#000000" d="M439,20L435,22L434,26L433,31L430,38L428,45L425,52L422,60L419,68L416,79L413,90L409,102L406,115L402,129L399,145L395,161L392,177L387,193L383,209L377,225L373,241L368,257L363,273L358,289L353,304L349,319L346,332L344,344L342,352L341,359L340,364L339,368L339,370L338,371L338,372" stroke-opacity="1" stroke-width="10" stroke-linecap="round" stroke-linejoin="round" style="-webkit-tap-highlight-color: rgba(0, 0, 0, 0); stroke-opacity: 1; stroke-linecap: round; stroke-linejoin: round; -webkit-user-select: text;"></path><path fill="none" stroke="#000000" d="M341,377L340,382L343,384L347,387L352,390L357,393L364,396L370,398L377,400L384,401L391,401L398,402L407,402L414,402L422,401L431,398L440,394L448,391L457,385L465,380L474,373L482,366L489,359L495,350L501,342L506,334L510,325L514,316L516,309L519,301L521,292L521,285L522,278L522,271L522,264L521,259L519,252L517,247L514,240L510,235L507,230L504,225L501,221L497,216L494,211L490,207L486,203L482,199L478,196L474,193L470,191L466,189L462,186L458,185L455,184L451,183L449,182L447,182L446,182L445,181" stroke-opacity="1" stroke-width="10" stroke-linecap="round" stroke-linejoin="round" style="-webkit-tap-highlight-color: rgba(0, 0, 0, 0); stroke-opacity: 1; stroke-linecap: round; stroke-linejoin: round; -webkit-user-select: text;"></path><path fill="none" stroke="#000000" d="M429,181L431,182L432,185L434,190L437,196L438,202L441,211L441,219L442,228L443,238L443,247L443,258L443,269L443,281L443,293L441,306L438,318L434,330L431,342L426,354L423,367L419,379L416,392L412,406L408,421L404,433L402,444L399,456L398,468L397,480L397,492L397,501L397,511L398,519L401,526L404,532L409,537L413,542L418,547L423,553L428,558L434,563L439,568L444,571L450,575L456,578L462,580L468,583L474,585L481,585L488,586L495,586L502,586L509,586L517,586L524,585L532,583L539,580L546,578L553,574L560,570L568,565L574,560L581,553L588,547L594,541L599,535L604,528L609,522L613,515L616,507L619,500L621,492L622,484L623,476L623,468L623,460L623,452L623,445L623,437L623,429L621,420L620,413L618,405L617,398L616,391L614,384L612,376L611,369L609,361L607,353L605,346L603,338L601,331L600,323L598,315L596,306L595,298L594,292L593,284L592,278L592,271L591,264L591,256L591,249L591,242L591,235L591,228L592,221L592,215L594,208L596,200L598,193L601,186L603,181L606,173L609,167L612,160L616,152L620,145L624,138L628,132L631,128L635,122L640,117L644,112L649,107L654,103L659,99L664,96L668,93L673,91L678,89L682,87L686,85L691,84L696,82L700,81L704,80L709,79L713,79L718,78L722,77L726,77L730,77L733,77L736,77L739,77L741,77L744,77L747,77L749,77L750,78L752,78L753,79L754,79L755,79L755,80L755,81" stroke-opacity="1" stroke-width="10" stroke-linecap="round" stroke-linejoin="round" style="-webkit-tap-highlight-color: rgba(0, 0, 0, 0); stroke-opacity: 1; stroke-linecap: round; stroke-linejoin: round; -webkit-user-select: text;"></path></svg>