<svg height="494" version="1.1" width="320" xmlns="http://www.w3.org/2000/svg" xmlns:xlink="http://www.w3.org/1999/xlink" style="overflow: hidden; position: relative; -webkit-user-select: text;"><desc style="-webkit-tap-highlight-color: rgba(0, 0, 0, 0); -webkit-user-select: text;">Created with Raphaël 2.2.0</desc><defs style="-webkit-tap-highlight-color: rgba(0, 0, 0, 0); -webkit-user-select: text;"></defs><path fill="none" stroke="#000000" d="M78,149L78,149" stroke-opacity="1" stroke-width="5" stroke-linecap="round" stroke-linejoin="round" style="-webkit-tap-highlight-color: rgba(0, 0, 0, 0); stroke-opacity: 1; stroke-linecap: round; stroke-linejoin: round; -webkit-user-select: text;"></path><path fill="none" stroke="#000000" d="M71,161L74,160L76,159L78,157L81,154L85,150L90,147L95,143L100,138L105,135L110,131L115,127L120,123L125,119L130,115L134,111L139,107L143,103L147,100L151,97L155,95L157,93L159,92L160,91L161,91L161,90L162,90" stroke-opacity="1" stroke-width="5" stroke-linecap="round" stroke-linejoin="round" style="-webkit-tap-highlight-color: rgba(0, 0, 0, 0); stroke-opacity: 1; stroke-linecap: round; stroke-linejoin: round; -webkit-user-select: text;"></path><path fill="none" stroke="#000000" d="M114,69L111,74L111,78L109,82L107,87L105,91L103,96L103,100L102,105L102,111L102,118L103,125L106,131L109,138L113,144L117,152L121,157L126,163L131,167L136,171L141,174L145,177L149,178L152,180L154,180L155,181L155,182" stroke-opacity="1" stroke-width="5" stroke-linecap="round" stroke-linejoin="round" style="-webkit-tap-highlight-color: rgba(0, 0, 0, 0); stroke-opacity: 1; stroke-linecap: round; stroke-linejoin: round; -webkit-user-select: text;"></path><path fill="none" stroke="#000000" d="M53,135L57,140L60,142L63,145L66,147L69,149L73,151L76,153L79,154L83,156L87,157L90,158L93,159L96,160L100,160L103,161L106,161L110,162L113,162L116,162L120,162L123,162L127,162L130,162L134,161L137,159L140,158L144,156L148,153L152,151L156,148L160,146L164,144L168,142L171,139L175,137L178,135L182,133L186,131L190,129L193,128L197,126L200,125L205,124L208,123L211,122L214,122L217,122L220,121L223,121L226,121L229,121L232,121L236,121L239,122L242,123L245,124L248,125L251,126L253,128L255,129L257,130L258,130L259,131L259,132" stroke-opacity="1" stroke-width="5" stroke-linecap="round" stroke-linejoin="round" style="-webkit-tap-highlight-color: rgba(0, 0, 0, 0); stroke-opacity: 1; stroke-linecap: round; stroke-linejoin: round; -webkit-user-select: text;"></path><path fill="none" stroke="#000000" d="M203,218L216,197L218,193L220,187L224,180L228,170L234,157L239,143L245,130L250,121L254,112L257,106L259,102L260,100L260,99L261,99" stroke-opacity="1" stroke-width="5" stroke-linecap="round" stroke-linejoin="round" style="-webkit-tap-highlight-color: rgba(0, 0, 0, 0); stroke-opacity: 1; stroke-linecap: round; stroke-linejoin: round; -webkit-user-select: text;"></path><path fill="none" stroke="#000000" d="M274,208L275,203L275,198L275,192L275,185L274,178L272,173L270,167L267,162L264,157L261,152L258,148L254,145L250,142L246,139L243,137L239,136L235,135L232,134L228,133L224,132L220,132L217,132L213,132L209,132L205,132L200,132L196,132L191,132L187,132L183,132L179,132L174,133L170,134L166,135L161,136L156,136L152,137L148,137L144,138L140,138L137,138L133,138L129,138L125,138L121,138L117,138L113,138L109,137L105,136L101,135L97,134L94,132L89,129L85,126L81,122L77,119L74,115L70,111L67,108L64,105L62,103L60,101L58,99L56,97L54,95L53,94L52,93L51,93L51,92" stroke-opacity="1" stroke-width="5" stroke-linecap="round" stroke-linejoin="round" style="-webkit-tap-highlight-color: rgba(0, 0, 0, 0); stroke-opacity: 1; stroke-linecap: round; stroke-linejoin: round; -webkit-user-select: text;"></path><path fill="none" stroke="#000000" d="M51,49L49,55L50,61L52,70L56,84L60,98L65,114L70,130L76,146L82,162L87,178L92,193L98,207L102,217L106,227L108,232L109,235L109,237L110,237" stroke-opacity="1" stroke-width="5" stroke-linecap="round" stroke-linejoin="round" style="-webkit-tap-highlight-color: rgba(0, 0, 0, 0); stroke-opacity: 1; stroke-linecap: round; stroke-linejoin: round; -webkit-user-select: text;"></path><path fill="none" stroke="#000000" d="M15,197L15,194L15,190L16,185L18,179L21,173L25,165L30,157L36,148L42,141L50,133L58,126L67,118L77,111L85,107L95,103L103,102L112,100L120,100L128,100L136,100L142,100L149,100L155,100L160,101L165,103L169,104L171,105L172,106L173,106" stroke-opacity="1" stroke-width="5" stroke-linecap="round" stroke-linejoin="round" style="-webkit-tap-highlight-color: rgba(0, 0, 0, 0); stroke-opacity: 1; stroke-linecap: round; stroke-linejoin: round; -webkit-user-select: text;"></path><path fill="none" stroke="#000000" d="M84,34L78,37L80,46L83,57L86,66L90,76L94,86L99,93L104,99L110,103L118,107L126,110L133,112L141,114L148,117L156,120L164,124L171,129L178,133L185,139L191,145L196,152L202,158L206,163L211,169L215,177L219,185L221,192L222,200L223,207L223,214L223,220L223,225L223,229L223,232L223,233L223,232" stroke-opacity="1" stroke-width="5" stroke-linecap="round" stroke-linejoin="round" style="-webkit-tap-highlight-color: rgba(0, 0, 0, 0); stroke-opacity: 1; stroke-linecap: round; stroke-linejoin: round; -webkit-user-select: text;"></path><path fill="none" stroke="#000000" d="M127,226L133,219L139,210L149,196L160,180L171,163L183,144L196,124L211,101L221,83L230,70L237,61L242,55L244,52L246,49L246,48" stroke-opacity="1" stroke-width="5" stroke-linecap="round" stroke-linejoin="round" style="-webkit-tap-highlight-color: rgba(0, 0, 0, 0); stroke-opacity: 1; stroke-linecap: round; stroke-linejoin: round; -webkit-user-select: text;"></path><path fill="none" stroke="#000000" d="M127,51L129,50L134,49L142,46L152,43L164,42L180,42L195,42L212,49L225,56L238,63L252,72L265,85L275,98L283,109L289,122L292,130L294,136L295,140L295,142" stroke-opacity="1" stroke-width="5" stroke-linecap="round" stroke-linejoin="round" style="-webkit-tap-highlight-color: rgba(0, 0, 0, 0); stroke-opacity: 1; stroke-linecap: round; stroke-linejoin: round; -webkit-user-select: text;"></path><path fill="none" stroke="#000000" d="M272,17L276,11L279,11L281,14L284,19L286,24L288,30L289,36L290,45L291,52L291,58L291,64L290,70L286,75L279,80L270,83L261,86L251,89L241,91L231,92L221,93L212,93L203,93L194,92L188,90L181,87L175,83L169,80L162,76L155,73L150,72L144,70L138,69L130,69L121,69L112,74L103,83L94,92L85,102L78,113L74,123L71,130L70,136L69,141L69,143L69,144L69,146" stroke-opacity="1" stroke-width="5" stroke-linecap="round" stroke-linejoin="round" style="-webkit-tap-highlight-color: rgba(0, 0, 0, 0); stroke-opacity: 1; stroke-linecap: round; stroke-linejoin: round; -webkit-user-select: text;"></path><path fill="none" stroke="#000000" d="M8,109L12,114L14,121L20,132L30,150L42,167L58,190L71,208L84,227L96,242L104,250L109,254L113,256L114,257" stroke-opacity="1" stroke-width="5" stroke-linecap="round" stroke-linejoin="round" style="-webkit-tap-highlight-color: rgba(0, 0, 0, 0); stroke-opacity: 1; stroke-linecap: round; stroke-linejoin: round; -webkit-user-select: text;"></path><path fill="none" stroke="#000000" d="M38,223L41,221L48,216L60,206L76,193L95,179L114,166L133,154L149,143L160,135L167,131L170,128L172,128" stroke-opacity="1" stroke-width="5" stroke-linecap="round" stroke-linejoin="round" style="-webkit-tap-highlight-color: rgba(0, 0, 0, 0); stroke-opacity: 1; stroke-linecap: round; stroke-linejoin: round; -webkit-user-select: text;"></path><path fill="none" stroke="#000000" d="M43,132L45,134L48,142L54,156L62,170L71,187L81,200L93,213L107,222L123,229L142,232L160,233L185,233L208,227L227,218L240,210L250,203L255,199L258,196L259,193L259,191" stroke-opacity="1" stroke-width="5" stroke-linecap="round" stroke-linejoin="round" style="-webkit-tap-highlight-color: rgba(0, 0, 0, 0); stroke-opacity: 1; stroke-linecap: round; stroke-linejoin: round; -webkit-user-select: text;"></path><path fill="none" stroke="#000000" d="M187,253L185,240L185,222L185,200L185,173L185,149L185,132L185,116L185,106L184,102L184,99L183,98L183,96" stroke-opacity="1" stroke-width="5" stroke-linecap="round" stroke-linejoin="round" style="-webkit-tap-highlight-color: rgba(0, 0, 0, 0); stroke-opacity: 1; stroke-linecap: round; stroke-linejoin: round; -webkit-user-select: text;"></path><path fill="none" stroke="#000000" d="M84,97L88,102L92,109L98,117L106,128L116,141L129,156L139,165L150,175L162,183L175,189L189,192L205,194L223,194L245,191L262,181L275,169L284,159L289,152L291,148L293,145L293,144" stroke-opacity="1" stroke-width="5" stroke-linecap="round" stroke-linejoin="round" style="-webkit-tap-highlight-color: rgba(0, 0, 0, 0); stroke-opacity: 1; stroke-linecap: round; stroke-linejoin: round; -webkit-user-select: text;"></path><path fill="none" stroke="#000000" d="M183,31L182,40L177,58L169,81L157,108L145,135L135,163L130,182L127,195L126,203L125,209" stroke-opacity="1" stroke-width="5" stroke-linecap="round" stroke-linejoin="round" style="-webkit-tap-highlight-color: rgba(0, 0, 0, 0); stroke-opacity: 1; stroke-linecap: round; stroke-linejoin: round; -webkit-user-select: text;"></path></svg>