<svg height="494" version="1.1" width="320" xmlns="http://www.w3.org/2000/svg" xmlns:xlink="http://www.w3.org/1999/xlink" style="overflow: hidden; position: relative; -webkit-user-select: text;"><desc style="-webkit-tap-highlight-color: rgba(0, 0, 0, 0); -webkit-user-select: text;">Created with Raphaël 2.2.0</desc><defs style="-webkit-tap-highlight-color: rgba(0, 0, 0, 0); -webkit-user-select: text;"></defs><path fill="none" stroke="#000000" d="M66,186L72,178L75,178L77,178L80,178L82,179L85,180L88,182L90,184L92,185L94,187L96,188L99,190L101,191L103,192L106,193L108,194L110,195L113,195L117,196L120,196L124,196L127,196L129,196L132,196L134,196L135,196L137,196L139,196L140,196L141,196L142,196L143,196L145,196L147,195L147,194L149,194L150,193L152,192L153,190L154,189L155,188L156,186L157,185L157,184L158,183L158,182L159,181L159,180L159,179L159,178L159,176L159,175L159,174L159,173L159,171L159,170L158,169L157,168L156,168L155,167L154,167L153,166L152,166L151,166L150,166L149,166L148,166L147,166L146,165L145,165L144,165L143,165L142,164L141,164L140,164L139,163L138,163L137,163L136,162L135,162L135,161L134,161L134,160L133,160L133,159L132,159L132,158L131,157L130,156L130,155L129,154L129,153L129,152L129,151L129,150L129,149L129,148L129,147L129,146L129,145L129,143L129,142L129,141L129,140" stroke-opacity="1" stroke-width="5" stroke-linecap="round" stroke-linejoin="round" style="-webkit-tap-highlight-color: rgba(0, 0, 0, 0); stroke-opacity: 1; stroke-linecap: round; stroke-linejoin: round; -webkit-user-select: text;"></path><path fill="none" stroke="#000000" d="M83,129L87,130L92,130L101,130L113,132L129,134L142,134L157,135L169,136L176,136L181,137L184,137L185,138L185,139L186,139" stroke-opacity="1" stroke-width="5" stroke-linecap="round" stroke-linejoin="round" style="-webkit-tap-highlight-color: rgba(0, 0, 0, 0); stroke-opacity: 1; stroke-linecap: round; stroke-linejoin: round; -webkit-user-select: text;"></path><path fill="none" stroke="#000000" d="M187,83L182,81L178,81L174,81L168,81L159,84L151,88L142,93L134,98L127,104L122,112L118,120L116,127L115,133L115,142L115,153L116,161L120,168L123,176L126,181L128,185L128,187L129,188" stroke-opacity="1" stroke-width="5" stroke-linecap="round" stroke-linejoin="round" style="-webkit-tap-highlight-color: rgba(0, 0, 0, 0); stroke-opacity: 1; stroke-linecap: round; stroke-linejoin: round; -webkit-user-select: text;"></path><path fill="none" stroke="#000000" d="M102,171L111,160L117,156L124,155L131,154L139,154L147,154L153,154L160,155L168,156L174,157L179,158L185,158L190,158L195,157L200,154L206,151L210,146L215,141L220,134L224,125L227,115L228,106L228,98L228,91L226,85L223,80L220,76L216,73L212,71L208,70L203,70L198,70L193,70L187,72L181,76L174,82L166,87L158,92L152,95L145,98L139,100L132,101L126,102L120,103L114,103L108,103L103,103L99,102L96,100L93,97L90,93L87,87L85,83L84,78L83,73L83,69L83,64L83,59L83,54L84,51L85,49L86,47L87,46L89,46" stroke-opacity="1" stroke-width="5" stroke-linecap="round" stroke-linejoin="round" style="-webkit-tap-highlight-color: rgba(0, 0, 0, 0); stroke-opacity: 1; stroke-linecap: round; stroke-linejoin: round; -webkit-user-select: text;"></path><path fill="none" stroke="#000000" d="M176,50L167,54L157,58L143,63L123,69L106,76L89,85L75,91L62,98L54,102L48,104L43,106L41,107L41,108L40,108" stroke-opacity="1" stroke-width="5" stroke-linecap="round" stroke-linejoin="round" style="-webkit-tap-highlight-color: rgba(0, 0, 0, 0); stroke-opacity: 1; stroke-linecap: round; stroke-linejoin: round; -webkit-user-select: text;"></path><path fill="none" stroke="#000000" d="M37,70L42,66L49,65L56,63L66,63L78,63L91,63L104,64L117,68L129,75L139,87L146,99L152,113L155,124L156,134L157,145L157,152L157,157L157,161L157,162L157,163L157,162" stroke-opacity="1" stroke-width="5" stroke-linecap="round" stroke-linejoin="round" style="-webkit-tap-highlight-color: rgba(0, 0, 0, 0); stroke-opacity: 1; stroke-linecap: round; stroke-linejoin: round; -webkit-user-select: text;"></path><path fill="none" stroke="#000000" d="M95,170L90,165L90,160L90,154L90,146L93,136L97,128L102,120L107,115L113,111L119,107L126,105L132,103L140,101L147,99L154,97L162,95L168,91L174,88L177,84L181,81L184,76L186,73L188,69L189,65L190,61L191,57L191,53L191,48L191,44L190,40L188,37L185,34L184,32L182,29L180,26L179,23L178,21L178,19L178,17L179,16" stroke-opacity="1" stroke-width="5" stroke-linecap="round" stroke-linejoin="round" style="-webkit-tap-highlight-color: rgba(0, 0, 0, 0); stroke-opacity: 1; stroke-linecap: round; stroke-linejoin: round; -webkit-user-select: text;"></path><path fill="none" stroke="#000000" d="M132,34L136,37L141,37L148,40L158,42L175,44L192,45L210,46L226,46L241,44L252,42L259,40L262,39L263,38L264,38" stroke-opacity="1" stroke-width="5" stroke-linecap="round" stroke-linejoin="round" style="-webkit-tap-highlight-color: rgba(0, 0, 0, 0); stroke-opacity: 1; stroke-linecap: round; stroke-linejoin: round; -webkit-user-select: text;"></path><path fill="none" stroke="#000000" d="M206,16L209,20L215,21L223,25L232,30L243,37L252,49L259,62L262,78L262,93L261,109L254,121L246,131L238,137L231,144L226,148L222,152L220,154L219,154" stroke-opacity="1" stroke-width="5" stroke-linecap="round" stroke-linejoin="round" style="-webkit-tap-highlight-color: rgba(0, 0, 0, 0); stroke-opacity: 1; stroke-linecap: round; stroke-linejoin: round; -webkit-user-select: text;"></path><path fill="none" stroke="#000000" d="M192,206L184,200L184,196L184,191L184,184L184,177L187,170L191,164L197,157L204,151L212,146L218,142L226,139L232,136L239,134L246,133L251,131L256,129L261,127L265,125L269,122L274,119L280,116L284,112L288,108L290,105L293,101L294,98L295,95L296,91L296,86L296,80L296,74L296,69L296,64L295,61L294,58L292,55L289,53L287,52L284,51L281,50L276,50L273,50L269,50L265,50L262,50L259,50L256,50L253,50L250,50L247,51L245,53L241,55L238,58L234,60L231,64L227,67L224,71L221,74L218,78L216,82L214,85L212,88L210,91L209,94L208,96L207,98L205,99L204,101L203,102L200,104L199,105L196,106L194,107L191,109L188,109L186,109L184,109L182,109L181,109" stroke-opacity="1" stroke-width="5" stroke-linecap="round" stroke-linejoin="round" style="-webkit-tap-highlight-color: rgba(0, 0, 0, 0); stroke-opacity: 1; stroke-linecap: round; stroke-linejoin: round; -webkit-user-select: text;"></path><path fill="none" stroke="#000000" d="M176,128L180,129L186,132L197,140L211,152L222,159L233,166L241,170L246,174L249,176L251,177L251,178" stroke-opacity="1" stroke-width="5" stroke-linecap="round" stroke-linejoin="round" style="-webkit-tap-highlight-color: rgba(0, 0, 0, 0); stroke-opacity: 1; stroke-linecap: round; stroke-linejoin: round; -webkit-user-select: text;"></path><path fill="none" stroke="#000000" d="M202,124L202,121L207,121L214,121L223,122L233,126L245,132L251,139L255,151L256,164L256,179L255,191L250,200L244,208L237,214L231,219L225,222L221,224L218,225L216,226" stroke-opacity="1" stroke-width="5" stroke-linecap="round" stroke-linejoin="round" style="-webkit-tap-highlight-color: rgba(0, 0, 0, 0); stroke-opacity: 1; stroke-linecap: round; stroke-linejoin: round; -webkit-user-select: text;"></path><path fill="none" stroke="#000000" d="M284,125L290,122L291,123L291,126L291,129L291,131L291,133L291,135L288,136L281,138L271,142L260,148L251,153L243,158L237,162L233,166L229,170L227,175L227,179L227,183L227,188L227,193L227,198L228,203L229,208L229,212L229,216L227,219L223,222L217,225L213,227L207,228L202,229L196,230L190,231L185,231L179,231L173,231L167,231L162,231L156,228L153,226L150,222L148,219L147,215L146,211L146,209L145,207L145,206L145,205" stroke-opacity="1" stroke-width="5" stroke-linecap="round" stroke-linejoin="round" style="-webkit-tap-highlight-color: rgba(0, 0, 0, 0); stroke-opacity: 1; stroke-linecap: round; stroke-linejoin: round; -webkit-user-select: text;"></path><path fill="none" stroke="#000000" d="M55,232L80,231L102,228L125,225L144,224L162,223L175,222L185,221L192,220L196,219L197,218L198,218" stroke-opacity="1" stroke-width="5" stroke-linecap="round" stroke-linejoin="round" style="-webkit-tap-highlight-color: rgba(0, 0, 0, 0); stroke-opacity: 1; stroke-linecap: round; stroke-linejoin: round; -webkit-user-select: text;"></path><path fill="none" stroke="#000000" d="M110,253L113,246L116,245L122,243L129,239L135,232L139,223L141,216L141,208L141,197L133,185L123,174L112,163L101,154L93,149L85,147L76,145L74,145L72,145L71,145" stroke-opacity="1" stroke-width="5" stroke-linecap="round" stroke-linejoin="round" style="-webkit-tap-highlight-color: rgba(0, 0, 0, 0); stroke-opacity: 1; stroke-linecap: round; stroke-linejoin: round; -webkit-user-select: text;"></path><path fill="none" stroke="#000000" d="M19,192L26,193L36,191L56,183L79,174L103,164L125,154L139,146L149,141L155,137L158,136L159,136" stroke-opacity="1" stroke-width="5" stroke-linecap="round" stroke-linejoin="round" style="-webkit-tap-highlight-color: rgba(0, 0, 0, 0); stroke-opacity: 1; stroke-linecap: round; stroke-linejoin: round; -webkit-user-select: text;"></path><path fill="none" stroke="#000000" d="M73,220L66,203L60,191L54,178L49,165L45,156L42,149L40,145L39,142L38,140L38,139" stroke-opacity="1" stroke-width="5" stroke-linecap="round" stroke-linejoin="round" style="-webkit-tap-highlight-color: rgba(0, 0, 0, 0); stroke-opacity: 1; stroke-linecap: round; stroke-linejoin: round; -webkit-user-select: text;"></path><path fill="none" stroke="#000000" d="M15,194L16,190L16,184L16,177L19,164L28,150L42,138L61,129L80,120L99,115L114,113L129,113L139,116L147,121L151,125L153,127L154,129" stroke-opacity="1" stroke-width="5" stroke-linecap="round" stroke-linejoin="round" style="-webkit-tap-highlight-color: rgba(0, 0, 0, 0); stroke-opacity: 1; stroke-linecap: round; stroke-linejoin: round; -webkit-user-select: text;"></path><path fill="none" stroke="#000000" d="M59,211L57,207L61,203L66,198L71,191L75,183L76,177L77,171L77,164L77,158L75,154L72,150L68,147L63,144L59,141L55,138L52,136L48,134L43,132L40,129L36,126L32,121L30,117L27,112L26,107L25,102L25,98L25,92L25,85L26,79L29,72L35,65L39,60L44,55L49,51L59,43L63,41L66,40L69,39L74,39" stroke-opacity="1" stroke-width="5" stroke-linecap="round" stroke-linejoin="round" style="-webkit-tap-highlight-color: rgba(0, 0, 0, 0); stroke-opacity: 1; stroke-linecap: round; stroke-linejoin: round; -webkit-user-select: text;"></path><path fill="none" stroke="#000000" d="M36,38L41,40L46,44L56,51L67,59L79,68L93,81L100,90L105,96L106,99L106,100" stroke-opacity="1" stroke-width="5" stroke-linecap="round" stroke-linejoin="round" style="-webkit-tap-highlight-color: rgba(0, 0, 0, 0); stroke-opacity: 1; stroke-linecap: round; stroke-linejoin: round; -webkit-user-select: text;"></path><path fill="none" stroke="#000000" d="M153,21L142,14L140,13L136,13L128,13L119,14L110,18L102,23L95,28L91,33L87,39L85,48L85,60L85,75L85,91L87,103L89,117L89,126L89,131L89,134L89,136L89,137" stroke-opacity="1" stroke-width="5" stroke-linecap="round" stroke-linejoin="round" style="-webkit-tap-highlight-color: rgba(0, 0, 0, 0); stroke-opacity: 1; stroke-linecap: round; stroke-linejoin: round; -webkit-user-select: text;"></path><path fill="none" stroke="#000000" d="M24,55L26,57L30,57L38,57L52,56L68,53L86,50L105,48L123,47L140,44L152,44L161,42L168,41L172,40L174,40L174,39" stroke-opacity="1" stroke-width="5" stroke-linecap="round" stroke-linejoin="round" style="-webkit-tap-highlight-color: rgba(0, 0, 0, 0); stroke-opacity: 1; stroke-linecap: round; stroke-linejoin: round; -webkit-user-select: text;"></path><path fill="none" stroke="#000000" d="M194,36L188,32L184,30L180,27L173,23L168,19L160,16L140,14L132,14L126,19L118,26L114,32L112,41L111,49L110,56L110,64L110,71L113,80L117,85L120,89L123,93L127,95L133,98L139,100L145,102L152,104L157,105L164,106L170,106L177,106L184,106L191,106L198,107L206,108L212,111L218,113L223,116L229,121L234,125L238,131L241,136L244,143L246,149L247,155L247,162L247,168L247,177L247,186L244,193L239,199L234,205L228,209L220,213L212,216L206,217L201,218L197,219L195,219L194,219" stroke-opacity="1" stroke-width="5" stroke-linecap="round" stroke-linejoin="round" style="-webkit-tap-highlight-color: rgba(0, 0, 0, 0); stroke-opacity: 1; stroke-linecap: round; stroke-linejoin: round; -webkit-user-select: text;"></path><path fill="none" stroke="#000000" d="M153,223L158,217L169,210L182,202L197,192L212,183L223,175L233,169L240,165L245,162L248,160L249,159L250,158" stroke-opacity="1" stroke-width="5" stroke-linecap="round" stroke-linejoin="round" style="-webkit-tap-highlight-color: rgba(0, 0, 0, 0); stroke-opacity: 1; stroke-linecap: round; stroke-linejoin: round; -webkit-user-select: text;"></path><path fill="none" stroke="#000000" d="M223,124L229,127L234,129L244,133L252,137L260,144L266,151L269,158L271,164L272,175L272,185L271,194L268,200L263,207L258,215L238,231L230,234L223,235L218,235L215,235L213,235L212,235" stroke-opacity="1" stroke-width="5" stroke-linecap="round" stroke-linejoin="round" style="-webkit-tap-highlight-color: rgba(0, 0, 0, 0); stroke-opacity: 1; stroke-linecap: round; stroke-linejoin: round; -webkit-user-select: text;"></path><path fill="none" stroke="#000000" d="M303,155L302,159L302,163L302,168L302,174L302,180L302,189L301,196L298,204L293,212L287,220L278,226L270,232L263,235L254,237L244,237L235,237L228,235L219,231L202,220L193,214L187,209L181,205L173,199L167,195L162,190L155,184L151,180L146,175L140,171L135,168L131,166L127,164L122,164L117,164L113,164L109,164L103,166L97,170L92,175L87,180L81,184L78,187L75,190L73,193L72,194L71,195L71,196L70,197L70,199L69,199L69,202" stroke-opacity="1" stroke-width="5" stroke-linecap="round" stroke-linejoin="round" style="-webkit-tap-highlight-color: rgba(0, 0, 0, 0); stroke-opacity: 1; stroke-linecap: round; stroke-linejoin: round; -webkit-user-select: text;"></path><path fill="none" stroke="#000000" d="M28,234L41,233L57,232L79,229L98,228L115,228L128,228L136,229L141,229L144,230L145,231L145,233" stroke-opacity="1" stroke-width="5" stroke-linecap="round" stroke-linejoin="round" style="-webkit-tap-highlight-color: rgba(0, 0, 0, 0); stroke-opacity: 1; stroke-linecap: round; stroke-linejoin: round; -webkit-user-select: text;"></path><path fill="none" stroke="#000000" d="M107,245L91,237L82,233L74,229L66,223L62,218L58,213L58,207L58,199L60,189L66,181L69,176L73,173L75,170L77,169L78,169L79,169" stroke-opacity="1" stroke-width="5" stroke-linecap="round" stroke-linejoin="round" style="-webkit-tap-highlight-color: rgba(0, 0, 0, 0); stroke-opacity: 1; stroke-linecap: round; stroke-linejoin: round; -webkit-user-select: text;"></path><path fill="none" stroke="#000000" d="M92,175L97,179L99,186L100,192L100,197L100,202L100,208L96,212L91,216L84,218L79,219L73,220L66,221L61,221L56,221L51,221L45,221L39,221L35,222L31,224L27,226L24,229L22,231L21,233L20,235L19,236L19,237L19,238L18,238" stroke-opacity="1" stroke-width="5" stroke-linecap="round" stroke-linejoin="round" style="-webkit-tap-highlight-color: rgba(0, 0, 0, 0); stroke-opacity: 1; stroke-linecap: round; stroke-linejoin: round; -webkit-user-select: text;"></path><path fill="none" stroke="#000000" d="M44,238L46,237L50,232L53,226L56,220L57,215L58,210L58,206L58,202L57,198L54,194L49,189L45,183L41,176L37,170L33,165L30,159L28,155L25,150L24,146L24,142L23,138L23,135L23,130L27,123L33,116L39,110L57,100L63,99L66,98L69,98L70,98L72,98L73,98L75,98" stroke-opacity="1" stroke-width="5" stroke-linecap="round" stroke-linejoin="round" style="-webkit-tap-highlight-color: rgba(0, 0, 0, 0); stroke-opacity: 1; stroke-linecap: round; stroke-linejoin: round; -webkit-user-select: text;"></path><path fill="none" stroke="#000000" d="M32,80L36,84L42,89L52,95L64,102L81,112L98,121L112,130L121,137L126,142L129,145L130,146L129,147" stroke-opacity="1" stroke-width="5" stroke-linecap="round" stroke-linejoin="round" style="-webkit-tap-highlight-color: rgba(0, 0, 0, 0); stroke-opacity: 1; stroke-linecap: round; stroke-linejoin: round; -webkit-user-select: text;"></path><path fill="none" stroke="#000000" d="M68,159L63,155L59,149L53,142L46,134L41,125L37,115L36,106L36,94L39,79L49,64L59,49L69,38L77,31L83,26L88,23L91,22L92,22L93,22" stroke-opacity="1" stroke-width="5" stroke-linecap="round" stroke-linejoin="round" style="-webkit-tap-highlight-color: rgba(0, 0, 0, 0); stroke-opacity: 1; stroke-linecap: round; stroke-linejoin: round; -webkit-user-select: text;"></path><path fill="none" stroke="#000000" d="M98,71L97,68L97,65L96,62L93,55L88,48L83,43L78,38L73,36L68,34L64,32L58,32L52,31L45,31L30,30L25,29L21,28L18,27L16,25L14,23L13,20L12,17L11,14L11,12L10,10" stroke-opacity="1" stroke-width="5" stroke-linecap="round" stroke-linejoin="round" style="-webkit-tap-highlight-color: rgba(0, 0, 0, 0); stroke-opacity: 1; stroke-linecap: round; stroke-linejoin: round; -webkit-user-select: text;"></path><path fill="none" stroke="#000000" d="M120,106L127,102L153,89L171,77L189,67L202,60L214,52L221,48L227,44L230,42L232,41L233,40L235,40" stroke-opacity="1" stroke-width="5" stroke-linecap="round" stroke-linejoin="round" style="-webkit-tap-highlight-color: rgba(0, 0, 0, 0); stroke-opacity: 1; stroke-linecap: round; stroke-linejoin: round; -webkit-user-select: text;"></path><path fill="none" stroke="#000000" d="M114,52L116,42L121,39L128,36L138,34L149,31L162,30L175,30L186,30L193,32L200,36L206,40L210,44L214,48L217,52L220,55L225,57L229,59L233,59L238,60L244,60L251,60L257,60L263,60L270,60L276,57L281,53L285,49L287,46L289,43L291,41L292,40L293,40" stroke-opacity="1" stroke-width="5" stroke-linecap="round" stroke-linejoin="round" style="-webkit-tap-highlight-color: rgba(0, 0, 0, 0); stroke-opacity: 1; stroke-linecap: round; stroke-linejoin: round; -webkit-user-select: text;"></path><path fill="none" stroke="#000000" d="M234,4L238,8L243,15L249,22L258,30L268,37L277,46L286,54L292,59L296,63L299,66L300,68L300,69L300,70L300,69" stroke-opacity="1" stroke-width="5" stroke-linecap="round" stroke-linejoin="round" style="-webkit-tap-highlight-color: rgba(0, 0, 0, 0); stroke-opacity: 1; stroke-linecap: round; stroke-linejoin: round; -webkit-user-select: text;"></path><path fill="none" stroke="#000000" d="M310,1L306,2L299,6L289,14L275,24L261,37L247,56L235,72L223,109L221,122L221,129L220,133L220,137L220,138L220,139" stroke-opacity="1" stroke-width="5" stroke-linecap="round" stroke-linejoin="round" style="-webkit-tap-highlight-color: rgba(0, 0, 0, 0); stroke-opacity: 1; stroke-linecap: round; stroke-linejoin: round; -webkit-user-select: text;"></path><path fill="none" stroke="#000000" d="M216,21L231,20L242,20L253,20L267,23L277,26L287,30L294,35L298,41L301,48L302,55L302,61L302,69L302,78L301,87L296,94L292,98L287,103L282,109L277,115L273,121L270,127L268,132L267,138L266,144L266,151L267,157L270,162L274,167L279,171L283,174L285,175L286,176L287,176" stroke-opacity="1" stroke-width="5" stroke-linecap="round" stroke-linejoin="round" style="-webkit-tap-highlight-color: rgba(0, 0, 0, 0); stroke-opacity: 1; stroke-linecap: round; stroke-linejoin: round; -webkit-user-select: text;"></path><path fill="none" stroke="#000000" d="M311,130L303,126L296,118L286,107L272,92L258,78L244,67L233,59L224,55L219,52L216,50" stroke-opacity="1" stroke-width="5" stroke-linecap="round" stroke-linejoin="round" style="-webkit-tap-highlight-color: rgba(0, 0, 0, 0); stroke-opacity: 1; stroke-linecap: round; stroke-linejoin: round; -webkit-user-select: text;"></path><path fill="none" stroke="#000000" d="M283,48L285,52L286,57L289,61L290,66L291,72L291,80L291,86L286,91L276,95L262,98L247,100L231,103L216,106L203,110L195,113L191,114L188,114L188,115" stroke-opacity="1" stroke-width="5" stroke-linecap="round" stroke-linejoin="round" style="-webkit-tap-highlight-color: rgba(0, 0, 0, 0); stroke-opacity: 1; stroke-linecap: round; stroke-linejoin: round; -webkit-user-select: text;"></path><path fill="none" stroke="#000000" d="M222,62L226,62L234,62L243,62L252,66L262,71L271,80L280,90L284,98L287,106L289,118L289,126L289,134L288,144L283,150L275,156L263,161L251,168L238,175L231,181L223,189L217,196L213,201L211,209L209,216L208,221L208,227L208,232L208,236L210,239L212,242L213,243L213,244L214,244" stroke-opacity="1" stroke-width="5" stroke-linecap="round" stroke-linejoin="round" style="-webkit-tap-highlight-color: rgba(0, 0, 0, 0); stroke-opacity: 1; stroke-linecap: round; stroke-linejoin: round; -webkit-user-select: text;"></path><path fill="none" stroke="#000000" d="M295,237L292,240L286,235L273,223L260,210L246,198L232,185L222,175L214,167L209,162L207,159" stroke-opacity="1" stroke-width="5" stroke-linecap="round" stroke-linejoin="round" style="-webkit-tap-highlight-color: rgba(0, 0, 0, 0); stroke-opacity: 1; stroke-linecap: round; stroke-linejoin: round; -webkit-user-select: text;"></path><path fill="none" stroke="#000000" d="M289,127L294,142L295,152L295,162L295,178L291,192L286,205L279,216L269,224L257,229L242,232L226,232L211,232L196,229L182,225L172,221L166,218L164,217L163,216" stroke-opacity="1" stroke-width="5" stroke-linecap="round" stroke-linejoin="round" style="-webkit-tap-highlight-color: rgba(0, 0, 0, 0); stroke-opacity: 1; stroke-linecap: round; stroke-linejoin: round; -webkit-user-select: text;"></path><path fill="none" stroke="#000000" d="M145,242L138,235L138,228L138,219L139,209L145,199L151,192L158,185L164,180L170,175L175,171L178,167L180,162L181,157L181,152L181,145L180,139L178,133L175,126L172,119L169,112L165,105L161,99L159,95L157,91L157,89" stroke-opacity="1" stroke-width="5" stroke-linecap="round" stroke-linejoin="round" style="-webkit-tap-highlight-color: rgba(0, 0, 0, 0); stroke-opacity: 1; stroke-linecap: round; stroke-linejoin: round; -webkit-user-select: text;"></path><path fill="none" stroke="#000000" d="M244,145L231,130L217,119L204,107L193,99L183,89L172,78L159,65L149,53L142,43L137,36L135,32L134,31L134,30L141,30" stroke-opacity="1" stroke-width="5" stroke-linecap="round" stroke-linejoin="round" style="-webkit-tap-highlight-color: rgba(0, 0, 0, 0); stroke-opacity: 1; stroke-linecap: round; stroke-linejoin: round; -webkit-user-select: text;"></path><path fill="none" stroke="#000000" d="M134,62L136,55L142,49L152,40L164,32L176,27L187,25L199,25L211,25L220,27L229,32L235,43L241,54L243,62L246,68L248,71" stroke-opacity="1" stroke-width="5" stroke-linecap="round" stroke-linejoin="round" style="-webkit-tap-highlight-color: rgba(0, 0, 0, 0); stroke-opacity: 1; stroke-linecap: round; stroke-linejoin: round; -webkit-user-select: text;"></path></svg>