<svg height="874" version="1.1" width="768" xmlns="http://www.w3.org/2000/svg" xmlns:xlink="http://www.w3.org/1999/xlink" style="overflow: hidden; position: relative; -webkit-user-select: text;"><desc style="-webkit-tap-highlight-color: rgba(0, 0, 0, 0); -webkit-user-select: text;">Created with Raphaël 2.2.0</desc><defs style="-webkit-tap-highlight-color: rgba(0, 0, 0, 0); -webkit-user-select: text;"></defs><path fill="none" stroke="#000000" d="M356,221L356,223L356,226L356,230L356,237L356,242L356,247L356,251L357,254L357,255L358,255" stroke-opacity="1" stroke-width="5" stroke-linecap="round" stroke-linejoin="round" style="-webkit-tap-highlight-color: rgba(0, 0, 0, 0); stroke-opacity: 1; stroke-linecap: round; stroke-linejoin: round; -webkit-user-select: text;"></path><path fill="none" stroke="#000000" d="M312,215L320,211L327,211L334,211L346,214L356,219L363,223L370,230L374,238L376,246L377,255L377,264L374,273L370,279L367,284L365,287L363,289" stroke-opacity="1" stroke-width="5" stroke-linecap="round" stroke-linejoin="round" style="-webkit-tap-highlight-color: rgba(0, 0, 0, 0); stroke-opacity: 1; stroke-linecap: round; stroke-linejoin: round; -webkit-user-select: text;"></path><path fill="none" stroke="#000000" d="M312,332L307,330L304,326L300,320L298,312L297,305L297,298L297,291L301,286L307,282L318,278L329,274L341,270L352,267L362,263L373,259L383,255L393,250L402,242L408,234L412,227L414,218L415,212L416,209L416,206L416,205" stroke-opacity="1" stroke-width="5" stroke-linecap="round" stroke-linejoin="round" style="-webkit-tap-highlight-color: rgba(0, 0, 0, 0); stroke-opacity: 1; stroke-linecap: round; stroke-linejoin: round; -webkit-user-select: text;"></path><path fill="none" stroke="#000000" d="M417,190L424,195L429,199L436,207L443,215L451,223L456,229L460,233L462,236L464,238L465,238L466,238" stroke-opacity="1" stroke-width="5" stroke-linecap="round" stroke-linejoin="round" style="-webkit-tap-highlight-color: rgba(0, 0, 0, 0); stroke-opacity: 1; stroke-linecap: round; stroke-linejoin: round; -webkit-user-select: text;"></path><path fill="none" stroke="#000000" d="M465,172L470,173L473,174L477,176L481,180L485,188L487,195L489,203L490,213L490,222L490,233L486,244L481,253L474,261L469,267L465,271L461,273L458,275L455,275L452,275" stroke-opacity="1" stroke-width="5" stroke-linecap="round" stroke-linejoin="round" style="-webkit-tap-highlight-color: rgba(0, 0, 0, 0); stroke-opacity: 1; stroke-linecap: round; stroke-linejoin: round; -webkit-user-select: text;"></path><path fill="none" stroke="#000000" d="M386,216L389,213L395,213L405,213L420,212L434,212L448,213L459,218L469,223L477,228L482,234L486,242L488,249L490,257L490,266L491,273L492,281L494,290L495,297L499,303L502,308L507,313L511,318L517,322L523,324L528,325L532,326L535,326L537,326" stroke-opacity="1" stroke-width="5" stroke-linecap="round" stroke-linejoin="round" style="-webkit-tap-highlight-color: rgba(0, 0, 0, 0); stroke-opacity: 1; stroke-linecap: round; stroke-linejoin: round; -webkit-user-select: text;"></path><path fill="none" stroke="#000000" d="M543,221L541,225L530,237L518,250L504,265L493,276L481,289L470,299L464,304L460,308L458,310L457,311" stroke-opacity="1" stroke-width="5" stroke-linecap="round" stroke-linejoin="round" style="-webkit-tap-highlight-color: rgba(0, 0, 0, 0); stroke-opacity: 1; stroke-linecap: round; stroke-linejoin: round; -webkit-user-select: text;"></path><path fill="none" stroke="#000000" d="M398,277L407,274L411,274L418,273L427,273L436,273L448,274L458,277L467,282L478,291L485,299L491,310L495,320L497,330L498,340L498,349L498,357L497,363L496,367L494,371L492,373L492,374L491,374L491,373" stroke-opacity="1" stroke-width="5" stroke-linecap="round" stroke-linejoin="round" style="-webkit-tap-highlight-color: rgba(0, 0, 0, 0); stroke-opacity: 1; stroke-linecap: round; stroke-linejoin: round; -webkit-user-select: text;"></path><path fill="none" stroke="#000000" d="M388,298L387,303L387,308L387,317L387,327L389,338L394,348L400,355L407,362L415,368L424,372L431,374L436,376L443,376L449,376L456,374L462,369L466,364L471,359L476,355L480,349L485,343L489,336L494,326L501,317L507,309L511,303L517,296L525,291L531,288L538,286L547,285L556,285L565,289L569,295L573,303L576,311L577,318L577,322L577,325L577,327L577,328" stroke-opacity="1" stroke-width="5" stroke-linecap="round" stroke-linejoin="round" style="-webkit-tap-highlight-color: rgba(0, 0, 0, 0); stroke-opacity: 1; stroke-linecap: round; stroke-linejoin: round; -webkit-user-select: text;"></path><path fill="none" stroke="#000000" d="M390,313L392,311L400,319L409,329L420,340L430,352L438,361L445,369L451,375L455,379L457,381L459,383L460,383" stroke-opacity="1" stroke-width="5" stroke-linecap="round" stroke-linejoin="round" style="-webkit-tap-highlight-color: rgba(0, 0, 0, 0); stroke-opacity: 1; stroke-linecap: round; stroke-linejoin: round; -webkit-user-select: text;"></path><path fill="none" stroke="#000000" d="M488,327L483,328L485,331L489,338L492,349L494,361L495,375L495,389L491,403L486,413L477,420L467,426L458,430L449,432L443,433L439,434L436,434L434,434" stroke-opacity="1" stroke-width="5" stroke-linecap="round" stroke-linejoin="round" style="-webkit-tap-highlight-color: rgba(0, 0, 0, 0); stroke-opacity: 1; stroke-linecap: round; stroke-linejoin: round; -webkit-user-select: text;"></path><path fill="none" stroke="#000000" d="M437,293L439,288L444,291L451,298L455,307L459,318L460,327L460,340L460,350L453,362L443,371L435,377L424,381L412,384L401,385L391,386L380,386L370,386L360,386L347,386L334,387L323,391L312,396L304,401L297,408L292,414L289,422L287,430L287,439L287,451L288,459L288,464L290,468L290,471L291,473L292,474" stroke-opacity="1" stroke-width="5" stroke-linecap="round" stroke-linejoin="round" style="-webkit-tap-highlight-color: rgba(0, 0, 0, 0); stroke-opacity: 1; stroke-linecap: round; stroke-linejoin: round; -webkit-user-select: text;"></path><path fill="none" stroke="#000000" d="M274,357L277,359L283,366L293,376L304,387L318,402L328,413L336,426L343,434L347,439L349,443L351,444L351,445" stroke-opacity="1" stroke-width="5" stroke-linecap="round" stroke-linejoin="round" style="-webkit-tap-highlight-color: rgba(0, 0, 0, 0); stroke-opacity: 1; stroke-linecap: round; stroke-linejoin: round; -webkit-user-select: text;"></path><path fill="none" stroke="#000000" d="M260,430L270,431L278,432L290,436L303,440L319,444L331,444L346,444L357,437L368,425L378,408L383,392L385,384L387,381L387,379L387,378" stroke-opacity="1" stroke-width="5" stroke-linecap="round" stroke-linejoin="round" style="-webkit-tap-highlight-color: rgba(0, 0, 0, 0); stroke-opacity: 1; stroke-linecap: round; stroke-linejoin: round; -webkit-user-select: text;"></path><path fill="none" stroke="#000000" d="M293,319L300,320L308,320L324,323L338,328L352,334L363,342L373,351L379,359L383,369L385,376L386,385L386,396L385,407L382,417L379,427L375,436L372,444L369,454L368,461L368,470L368,478L368,486L370,493L374,501L378,508L382,515L385,522L390,529L392,533L394,535L395,537L396,538" stroke-opacity="1" stroke-width="5" stroke-linecap="round" stroke-linejoin="round" style="-webkit-tap-highlight-color: rgba(0, 0, 0, 0); stroke-opacity: 1; stroke-linecap: round; stroke-linejoin: round; -webkit-user-select: text;"></path><path fill="none" stroke="#000000" d="M272,444L285,445L299,445L318,445L338,446L358,448L378,449L394,449L408,449L417,449L423,449L426,448L427,447L425,445" stroke-opacity="1" stroke-width="5" stroke-linecap="round" stroke-linejoin="round" style="-webkit-tap-highlight-color: rgba(0, 0, 0, 0); stroke-opacity: 1; stroke-linecap: round; stroke-linejoin: round; -webkit-user-select: text;"></path><path fill="none" stroke="#000000" d="M371,365L356,383L356,389L356,395L361,400L368,406L377,412L384,418L392,427L398,435L403,446L407,457L410,468L411,481L412,493L412,505L409,516L404,527L398,537L392,544L387,549L383,553L380,556L378,557L378,558L377,558" stroke-opacity="1" stroke-width="5" stroke-linecap="round" stroke-linejoin="round" style="-webkit-tap-highlight-color: rgba(0, 0, 0, 0); stroke-opacity: 1; stroke-linecap: round; stroke-linejoin: round; -webkit-user-select: text;"></path><path fill="none" stroke="#000000" d="M281,460L281,471L281,479L281,487L284,495L290,503L296,509L302,514L311,519L320,523L328,524L336,525L346,525L354,525L364,520L374,515L383,508L392,501L401,494L409,488L419,481L429,476L436,471L443,468L450,467L456,467L462,467L468,468L475,472L480,476L485,481L488,485L491,491L493,495L494,498L495,501L495,502" stroke-opacity="1" stroke-width="5" stroke-linecap="round" stroke-linejoin="round" style="-webkit-tap-highlight-color: rgba(0, 0, 0, 0); stroke-opacity: 1; stroke-linecap: round; stroke-linejoin: round; -webkit-user-select: text;"></path><path fill="none" stroke="#000000" d="M399,394L404,401L408,408L414,416L422,427L428,437L434,451L439,461L445,473L451,483L455,489L458,493L460,497L462,499L462,500L463,500" stroke-opacity="1" stroke-width="5" stroke-linecap="round" stroke-linejoin="round" style="-webkit-tap-highlight-color: rgba(0, 0, 0, 0); stroke-opacity: 1; stroke-linecap: round; stroke-linejoin: round; -webkit-user-select: text;"></path><path fill="none" stroke="#000000" d="M355,465L363,467L370,471L378,475L385,478L397,482L405,484L415,486L425,487L433,488L440,488L449,487L457,481L464,472L472,461L480,449L485,440L487,433L490,429L491,425L492,422L492,420L492,417" stroke-opacity="1" stroke-width="5" stroke-linecap="round" stroke-linejoin="round" style="-webkit-tap-highlight-color: rgba(0, 0, 0, 0); stroke-opacity: 1; stroke-linecap: round; stroke-linejoin: round; -webkit-user-select: text;"></path><path fill="none" stroke="#000000" d="M413,395L417,393L425,393L435,393L448,393L460,394L474,398L485,402L494,406L504,412L511,418L519,425L526,432L532,440L536,449L538,456L541,464L543,473L543,481L544,488L544,497L544,503L543,510L540,519L536,528L533,535L529,544L526,552L524,560L522,566L521,575L521,581L521,588L521,595L521,601L521,607L521,610L522,612L522,614L523,614L524,614" stroke-opacity="1" stroke-width="5" stroke-linecap="round" stroke-linejoin="round" style="-webkit-tap-highlight-color: rgba(0, 0, 0, 0); stroke-opacity: 1; stroke-linecap: round; stroke-linejoin: round; -webkit-user-select: text;"></path><path fill="none" stroke="#000000" d="M395,526L402,527L409,527L421,529L435,532L454,534L473,537L493,540L514,542L534,544L552,546L566,547L577,547L585,548L590,548L593,549L594,549" stroke-opacity="1" stroke-width="5" stroke-linecap="round" stroke-linejoin="round" style="-webkit-tap-highlight-color: rgba(0, 0, 0, 0); stroke-opacity: 1; stroke-linecap: round; stroke-linejoin: round; -webkit-user-select: text;"></path><path fill="none" stroke="#000000" d="M431,565L436,566L442,567L451,568L460,570L473,570L484,570L495,568L508,562L519,553L529,541L538,527L546,511L553,495L557,483L560,471L562,463L562,456L562,449L562,445L562,441L562,439L561,438" stroke-opacity="1" stroke-width="5" stroke-linecap="round" stroke-linejoin="round" style="-webkit-tap-highlight-color: rgba(0, 0, 0, 0); stroke-opacity: 1; stroke-linecap: round; stroke-linejoin: round; -webkit-user-select: text;"></path><path fill="none" stroke="#000000" d="M431,460L436,468L442,475L451,482L459,489L468,495L479,500L489,505L501,507L510,508L520,508L531,508L539,504L546,498L554,491L561,484L567,477L573,470L579,463L587,455L593,447L601,441L609,435L615,431L624,427L633,423L641,421L649,420L658,420L664,420L669,420L672,422L675,424L676,425L677,427L677,428L677,429" stroke-opacity="1" stroke-width="5" stroke-linecap="round" stroke-linejoin="round" style="-webkit-tap-highlight-color: rgba(0, 0, 0, 0); stroke-opacity: 1; stroke-linecap: round; stroke-linejoin: round; -webkit-user-select: text;"></path><path fill="none" stroke="#000000" d="M529,354L536,360L541,368L548,377L557,389L565,402L574,415L584,430L592,444L599,457L606,466L611,476L614,481L616,485L617,487L618,488" stroke-opacity="1" stroke-width="5" stroke-linecap="round" stroke-linejoin="round" style="-webkit-tap-highlight-color: rgba(0, 0, 0, 0); stroke-opacity: 1; stroke-linecap: round; stroke-linejoin: round; -webkit-user-select: text;"></path><path fill="none" stroke="#000000" d="M630,321L628,335L625,350L621,364L615,377L607,390L598,403L587,414L574,425L562,432L550,436L538,438L525,439L513,439L502,436L493,433L487,430L482,428L479,426L477,425L477,424L477,423L477,422" stroke-opacity="1" stroke-width="5" stroke-linecap="round" stroke-linejoin="round" style="-webkit-tap-highlight-color: rgba(0, 0, 0, 0); stroke-opacity: 1; stroke-linecap: round; stroke-linejoin: round; -webkit-user-select: text;"></path><path fill="none" stroke="#000000" d="M432,362L446,364L454,370L461,376L470,380L479,383L487,386L497,386L507,386L516,386L527,383L535,381L546,378L557,375L567,374L580,374L590,374L601,375L611,379L619,383L627,389L634,396L640,403L644,411L647,421L650,429L652,438L653,448L653,458L653,467L653,478L650,487L646,496L642,503L638,507L635,510L632,511L628,511" stroke-opacity="1" stroke-width="5" stroke-linecap="round" stroke-linejoin="round" style="-webkit-tap-highlight-color: rgba(0, 0, 0, 0); stroke-opacity: 1; stroke-linecap: round; stroke-linejoin: round; -webkit-user-select: text;"></path><path fill="none" stroke="#000000" d="M516,412L516,414L520,424L526,437L532,451L538,464L544,478L551,490L558,503L562,512L566,521L568,527L570,532L571,535L572,536L574,537" stroke-opacity="1" stroke-width="5" stroke-linecap="round" stroke-linejoin="round" style="-webkit-tap-highlight-color: rgba(0, 0, 0, 0); stroke-opacity: 1; stroke-linecap: round; stroke-linejoin: round; -webkit-user-select: text;"></path><path fill="none" stroke="#000000" d="M621,461L619,465L614,470L606,478L596,485L583,494L569,504L550,515L533,526L517,538L501,550L489,560L478,568L471,574L467,578L464,580L463,582L463,583L462,583L461,583L460,583L459,583L458,583L457,584" stroke-opacity="1" stroke-width="5" stroke-linecap="round" stroke-linejoin="round" style="-webkit-tap-highlight-color: rgba(0, 0, 0, 0); stroke-opacity: 1; stroke-linecap: round; stroke-linejoin: round; -webkit-user-select: text;"></path><path fill="none" stroke="#000000" d="M441,511L438,518L434,528L431,539L427,552L425,564L424,575L424,585L424,596L425,607L429,617L433,626L436,634L441,641L449,648L457,655L464,660L474,664L482,666L490,668L501,668L510,668L521,666L531,663L538,660L548,658L557,657L564,657L574,657L582,657L588,660L592,662L595,665L597,667L598,668L599,668" stroke-opacity="1" stroke-width="5" stroke-linecap="round" stroke-linejoin="round" style="-webkit-tap-highlight-color: rgba(0, 0, 0, 0); stroke-opacity: 1; stroke-linecap: round; stroke-linejoin: round; -webkit-user-select: text;"></path><path fill="none" stroke="#000000" d="M438,577L447,585L454,592L464,605L475,618L486,632L497,646L508,660L516,671L522,680L526,686L529,690L531,692L533,693" stroke-opacity="1" stroke-width="5" stroke-linecap="round" stroke-linejoin="round" style="-webkit-tap-highlight-color: rgba(0, 0, 0, 0); stroke-opacity: 1; stroke-linecap: round; stroke-linejoin: round; -webkit-user-select: text;"></path><path fill="none" stroke="#000000" d="M516,575L516,584L516,592L516,603L516,613L514,626L511,638L506,650L498,662L491,670L480,679L469,684L458,688L446,690L436,691L429,691L423,691L418,691L415,691L414,691L413,691L412,691" stroke-opacity="1" stroke-width="5" stroke-linecap="round" stroke-linejoin="round" style="-webkit-tap-highlight-color: rgba(0, 0, 0, 0); stroke-opacity: 1; stroke-linecap: round; stroke-linejoin: round; -webkit-user-select: text;"></path><path fill="none" stroke="#000000" d="M410,566L409,574L409,580L408,586L406,592L404,600L399,609L394,618L387,627L380,635L372,640L364,643L356,645L345,646L336,646L324,644L313,641L303,637L293,632L283,627L274,624L263,621L255,619L244,619L233,619L221,619L210,621L202,625L194,630L188,635L183,640L180,645L178,649L176,653L176,656L176,657L176,658" stroke-opacity="1" stroke-width="5" stroke-linecap="round" stroke-linejoin="round" style="-webkit-tap-highlight-color: rgba(0, 0, 0, 0); stroke-opacity: 1; stroke-linecap: round; stroke-linejoin: round; -webkit-user-select: text;"></path><path fill="none" stroke="#000000" d="M242,524L244,524L246,530L248,541L252,556L256,573L261,590L266,608L271,626L276,644L279,660L281,671L282,679L283,684L284,687" stroke-opacity="1" stroke-width="5" stroke-linecap="round" stroke-linejoin="round" style="-webkit-tap-highlight-color: rgba(0, 0, 0, 0); stroke-opacity: 1; stroke-linecap: round; stroke-linejoin: round; -webkit-user-select: text;"></path><path fill="none" stroke="#000000" d="M205,597L215,595L227,595L243,593L263,590L284,588L306,584L326,580L342,576L353,573L359,571L363,570L365,570" stroke-opacity="1" stroke-width="5" stroke-linecap="round" stroke-linejoin="round" style="-webkit-tap-highlight-color: rgba(0, 0, 0, 0); stroke-opacity: 1; stroke-linecap: round; stroke-linejoin: round; -webkit-user-select: text;"></path><path fill="none" stroke="#000000" d="M227,539L232,536L244,535L256,533L274,533L291,533L305,536L319,541L330,549L339,558L348,567L355,578L359,588L363,600L366,612L367,623L368,636L368,646L369,657L369,667L370,676L372,684L374,691L376,697L379,703L382,708L385,712L387,716L390,719L392,720L393,721L392,718" stroke-opacity="1" stroke-width="5" stroke-linecap="round" stroke-linejoin="round" style="-webkit-tap-highlight-color: rgba(0, 0, 0, 0); stroke-opacity: 1; stroke-linecap: round; stroke-linejoin: round; -webkit-user-select: text;"></path><path fill="none" stroke="#000000" d="M222,649L232,645L245,642L262,634L283,623L305,612L328,599L350,587L369,575L383,566L395,560L403,556L407,554L409,553L410,552L410,551" stroke-opacity="1" stroke-width="5" stroke-linecap="round" stroke-linejoin="round" style="-webkit-tap-highlight-color: rgba(0, 0, 0, 0); stroke-opacity: 1; stroke-linecap: round; stroke-linejoin: round; -webkit-user-select: text;"></path><path fill="none" stroke="#000000" d="M346,526L355,529L360,533L369,539L380,549L388,559L397,571L404,583L408,593L411,606L412,619L412,637L411,650L407,663L401,673L395,682L392,686L390,689L388,689L387,689" stroke-opacity="1" stroke-width="5" stroke-linecap="round" stroke-linejoin="round" style="-webkit-tap-highlight-color: rgba(0, 0, 0, 0); stroke-opacity: 1; stroke-linecap: round; stroke-linejoin: round; -webkit-user-select: text;"></path><path fill="none" stroke="#000000" d="M263,622L265,630L269,635L275,640L282,648L290,655L298,662L307,668L316,675L328,682L337,688L348,692L356,694L367,695L378,695L387,693L398,688L407,682L416,675L425,668L433,660L440,651L448,640L454,630L460,621L466,613L473,605L482,598L490,592L502,588L510,585L522,582L531,581L542,580L554,580L564,581L573,585L582,589L589,594L594,600L597,604L599,608L601,611L601,613L601,614L600,614" stroke-opacity="1" stroke-width="5" stroke-linecap="round" stroke-linejoin="round" style="-webkit-tap-highlight-color: rgba(0, 0, 0, 0); stroke-opacity: 1; stroke-linecap: round; stroke-linejoin: round; -webkit-user-select: text;"></path><path fill="none" stroke="#000000" d="M380,591L385,601L391,609L402,621L412,633L424,646L435,660L446,673L457,687L466,699L476,709L482,717L487,722L490,726L492,729L494,730L495,730" stroke-opacity="1" stroke-width="5" stroke-linecap="round" stroke-linejoin="round" style="-webkit-tap-highlight-color: rgba(0, 0, 0, 0); stroke-opacity: 1; stroke-linecap: round; stroke-linejoin: round; -webkit-user-select: text;"></path><path fill="none" stroke="#000000" d="M534,639L533,646L533,654L532,665L529,678L524,693L519,706L514,718L505,731L495,742L484,752L472,760L462,765L449,768L439,769L429,770L422,770L418,770L414,770L413,769L412,768L412,766" stroke-opacity="1" stroke-width="5" stroke-linecap="round" stroke-linejoin="round" style="-webkit-tap-highlight-color: rgba(0, 0, 0, 0); stroke-opacity: 1; stroke-linecap: round; stroke-linejoin: round; -webkit-user-select: text;"></path><path fill="none" stroke="#000000" d="M532,679L536,685L538,692L541,699L542,709L544,718L545,731L546,741L546,751L545,763L542,772L537,781L530,789L522,795L514,800L504,804L494,806L485,808L475,808L465,808L454,808L443,804L434,799L421,793L412,787L402,780L390,772L382,765L372,755L364,748L356,738L347,730L339,722L332,715L325,707L317,701L309,695L301,690L291,685L282,681L271,678L260,677L247,677L235,678L225,682L215,688L206,695L200,699L196,704L194,706L193,708" stroke-opacity="1" stroke-width="5" stroke-linecap="round" stroke-linejoin="round" style="-webkit-tap-highlight-color: rgba(0, 0, 0, 0); stroke-opacity: 1; stroke-linecap: round; stroke-linejoin: round; -webkit-user-select: text;"></path><path fill="none" stroke="#000000" d="M142,740L155,738L165,737L176,736L193,735L210,733L227,730L245,727L262,724L278,722L294,720L305,718L316,716L324,715L328,713L331,711" stroke-opacity="1" stroke-width="5" stroke-linecap="round" stroke-linejoin="round" style="-webkit-tap-highlight-color: rgba(0, 0, 0, 0); stroke-opacity: 1; stroke-linecap: round; stroke-linejoin: round; -webkit-user-select: text;"></path><path fill="none" stroke="#000000" d="M218,781L212,776L210,770L208,760L207,746L206,726L205,705L205,683L205,663L205,645L206,629L208,619L211,611L212,606L214,602L215,602" stroke-opacity="1" stroke-width="5" stroke-linecap="round" stroke-linejoin="round" style="-webkit-tap-highlight-color: rgba(0, 0, 0, 0); stroke-opacity: 1; stroke-linecap: round; stroke-linejoin: round; -webkit-user-select: text;"></path><path fill="none" stroke="#000000" d="M91,693L95,684L101,673L114,656L128,641L146,622L164,606L183,595L200,587L219,582L237,578L252,575L268,575L280,577L293,583L300,590L307,599L313,609L318,619L324,633L327,644L329,657L331,670L332,685L333,701L333,716L333,734L332,746L330,760L327,772L325,784L324,794L324,804L324,811L325,816L327,819L329,821L331,822L333,823L334,823" stroke-opacity="1" stroke-width="5" stroke-linecap="round" stroke-linejoin="round" style="-webkit-tap-highlight-color: rgba(0, 0, 0, 0); stroke-opacity: 1; stroke-linecap: round; stroke-linejoin: round; -webkit-user-select: text;"></path><path fill="none" stroke="#000000" d="M393,804L390,804L385,804L377,804L365,802L353,799L336,795L319,789L304,783L289,779L279,776L271,775L264,773L260,772L257,771L256,769" stroke-opacity="1" stroke-width="5" stroke-linecap="round" stroke-linejoin="round" style="-webkit-tap-highlight-color: rgba(0, 0, 0, 0); stroke-opacity: 1; stroke-linecap: round; stroke-linejoin: round; -webkit-user-select: text;"></path><path fill="none" stroke="#000000" d="M249,816L249,813L251,807L258,799L269,786L281,775L298,762L312,753L329,744L347,738L364,735L378,734L391,734L400,734L406,734L410,734L413,736L414,737L414,738" stroke-opacity="1" stroke-width="5" stroke-linecap="round" stroke-linejoin="round" style="-webkit-tap-highlight-color: rgba(0, 0, 0, 0); stroke-opacity: 1; stroke-linecap: round; stroke-linejoin: round; -webkit-user-select: text;"></path><path fill="none" stroke="#000000" d="M294,801L301,801L307,801L320,801L329,801L344,799L354,796L366,791L377,783L385,776L394,767L401,758L405,747L408,735L409,726L409,715L408,704L404,696L398,688L390,678L383,669L371,659L361,650L351,644L338,637L326,631L312,625L301,621L286,616L275,612L263,607L254,601L248,596L242,589L237,580L235,573L233,567L232,562L231,557L231,554L231,552L231,553" stroke-opacity="1" stroke-width="5" stroke-linecap="round" stroke-linejoin="round" style="-webkit-tap-highlight-color: rgba(0, 0, 0, 0); stroke-opacity: 1; stroke-linecap: round; stroke-linejoin: round; -webkit-user-select: text;"></path><path fill="none" stroke="#000000" d="M203,677L206,672L209,663L217,651L226,637L239,617L251,598L263,579L276,563L284,549L293,538L298,532L300,528L301,526L302,526" stroke-opacity="1" stroke-width="5" stroke-linecap="round" stroke-linejoin="round" style="-webkit-tap-highlight-color: rgba(0, 0, 0, 0); stroke-opacity: 1; stroke-linecap: round; stroke-linejoin: round; -webkit-user-select: text;"></path><path fill="none" stroke="#000000" d="M331,587L323,590L314,591L306,592L295,593L283,593L268,591L255,586L241,578L228,568L216,557L207,544L202,533L198,522L196,515L195,509L194,505L194,503L194,501" stroke-opacity="1" stroke-width="5" stroke-linecap="round" stroke-linejoin="round" style="-webkit-tap-highlight-color: rgba(0, 0, 0, 0); stroke-opacity: 1; stroke-linecap: round; stroke-linejoin: round; -webkit-user-select: text;"></path><path fill="none" stroke="#000000" d="M300,459L297,464L295,473L291,483L288,495L285,505L282,513L276,524L269,533L261,541L252,549L242,554L231,557L221,558L210,559L200,559L190,557L183,554L176,549L171,545L166,542L161,538L158,534L154,530L151,524L147,519L144,512L140,506L136,500L132,494L128,490L124,486L120,481L116,478L113,475L110,473L108,471L106,470" stroke-opacity="1" stroke-width="5" stroke-linecap="round" stroke-linejoin="round" style="-webkit-tap-highlight-color: rgba(0, 0, 0, 0); stroke-opacity: 1; stroke-linecap: round; stroke-linejoin: round; -webkit-user-select: text;"></path><path fill="none" stroke="#000000" d="M72,561L74,558L79,551L90,540L101,527L116,511L129,497L143,483L154,472L165,461L172,453L177,447L180,444L181,442L182,442" stroke-opacity="1" stroke-width="5" stroke-linecap="round" stroke-linejoin="round" style="-webkit-tap-highlight-color: rgba(0, 0, 0, 0); stroke-opacity: 1; stroke-linecap: round; stroke-linejoin: round; -webkit-user-select: text;"></path><path fill="none" stroke="#000000" d="M107,434L113,436L120,437L130,442L143,448L153,454L166,461L177,468L188,476L197,481L203,486L210,490L215,493L218,495L221,496L222,497L222,498L222,499" stroke-opacity="1" stroke-width="5" stroke-linecap="round" stroke-linejoin="round" style="-webkit-tap-highlight-color: rgba(0, 0, 0, 0); stroke-opacity: 1; stroke-linecap: round; stroke-linejoin: round; -webkit-user-select: text;"></path><path fill="none" stroke="#000000" d="M160,549L154,542L151,538L148,529L146,518L144,505L144,495L144,483L145,471L149,462L156,453L166,444L174,438L183,432L193,429L200,425L211,422L220,419L228,417L237,416L246,415L252,414L259,413L266,413L272,411L278,410L283,407L288,403L293,398L296,394L298,392L299,390L300,388L297,388" stroke-opacity="1" stroke-width="5" stroke-linecap="round" stroke-linejoin="round" style="-webkit-tap-highlight-color: rgba(0, 0, 0, 0); stroke-opacity: 1; stroke-linecap: round; stroke-linejoin: round; -webkit-user-select: text;"></path><path fill="none" stroke="#000000" d="M230,333L231,340L231,347L233,357L237,369L242,385L246,400L250,417L252,431L254,445L256,454L256,461L257,466L257,470L257,472L257,473" stroke-opacity="1" stroke-width="5" stroke-linecap="round" stroke-linejoin="round" style="-webkit-tap-highlight-color: rgba(0, 0, 0, 0); stroke-opacity: 1; stroke-linecap: round; stroke-linejoin: round; -webkit-user-select: text;"></path><path fill="none" stroke="#000000" d="M308,381L305,391L302,399L295,410L287,421L280,430L269,439L260,444L251,449L240,451L230,451L218,451L206,450L196,446L186,441L180,439L176,437L173,436L171,435" stroke-opacity="1" stroke-width="5" stroke-linecap="round" stroke-linejoin="round" style="-webkit-tap-highlight-color: rgba(0, 0, 0, 0); stroke-opacity: 1; stroke-linecap: round; stroke-linejoin: round; -webkit-user-select: text;"></path><path fill="none" stroke="#000000" d="M201,488L193,483L193,479L195,470L198,461L203,451L208,443L215,436L220,430L227,425L233,420L240,416L246,413L251,410L258,408L265,404L272,400L278,395L284,390L291,384L297,378L301,371L304,363L305,357L306,347L306,338L306,330L305,320L301,312L297,304L292,297L286,291L282,286L278,282L274,279L270,277L267,276L265,276L264,276" stroke-opacity="1" stroke-width="5" stroke-linecap="round" stroke-linejoin="round" style="-webkit-tap-highlight-color: rgba(0, 0, 0, 0); stroke-opacity: 1; stroke-linecap: round; stroke-linejoin: round; -webkit-user-select: text;"></path><path fill="none" stroke="#000000" d="M210,313L219,313L227,313L239,313L254,315L271,317L288,320L304,323L320,326L333,329L346,331L355,333L361,334L365,335L368,336L368,337" stroke-opacity="1" stroke-width="5" stroke-linecap="round" stroke-linejoin="round" style="-webkit-tap-highlight-color: rgba(0, 0, 0, 0); stroke-opacity: 1; stroke-linecap: round; stroke-linejoin: round; -webkit-user-select: text;"></path><path fill="none" stroke="#000000" d="M339,238L334,238L337,246L340,257L343,270L344,282L345,295L345,308L341,324L334,338L326,351L314,362L302,371L287,378L273,383L261,386L251,388L242,389L237,390L232,390L230,390L229,390L228,390" stroke-opacity="1" stroke-width="5" stroke-linecap="round" stroke-linejoin="round" style="-webkit-tap-highlight-color: rgba(0, 0, 0, 0); stroke-opacity: 1; stroke-linecap: round; stroke-linejoin: round; -webkit-user-select: text;"></path><path fill="none" stroke="#000000" d="M122,412L119,405L120,396L123,385L131,371L140,359L150,348L162,339L172,333L184,329L196,327L209,327L222,327L232,327L244,328L252,331L261,336L268,343L273,351L277,357L281,366L284,374L287,381L291,388L295,396L299,402L303,408L308,413L313,417L319,422L325,426L330,429L337,432L344,432L349,433L353,433L356,433L358,433L358,432" stroke-opacity="1" stroke-width="5" stroke-linecap="round" stroke-linejoin="round" style="-webkit-tap-highlight-color: rgba(0, 0, 0, 0); stroke-opacity: 1; stroke-linecap: round; stroke-linejoin: round; -webkit-user-select: text;"></path><path fill="none" stroke="#000000" d="M360,326L353,334L349,343L340,357L331,371L318,388L304,406L288,426L273,444L260,460L251,472L244,481L239,486L236,488L235,490" stroke-opacity="1" stroke-width="5" stroke-linecap="round" stroke-linejoin="round" style="-webkit-tap-highlight-color: rgba(0, 0, 0, 0); stroke-opacity: 1; stroke-linecap: round; stroke-linejoin: round; -webkit-user-select: text;"></path><path fill="none" stroke="#000000" d="M257,480L249,480L244,479L238,477L231,473L223,467L214,460L206,451L197,440L190,425L185,408L183,389L183,376L183,362L185,351L187,343L189,337L191,333L192,331L193,330L194,330L194,332" stroke-opacity="1" stroke-width="5" stroke-linecap="round" stroke-linejoin="round" style="-webkit-tap-highlight-color: rgba(0, 0, 0, 0); stroke-opacity: 1; stroke-linecap: round; stroke-linejoin: round; -webkit-user-select: text;"></path><path fill="none" stroke="#000000" d="M215,390L220,388L224,388L228,386L234,382L242,377L249,369L256,362L263,353L269,342L273,333L276,324L276,314L276,306L276,296L272,289L266,282L260,276L254,272L246,267L237,263L231,260L223,257L213,253L206,250L199,245L191,239L184,234L178,228L174,222L171,213L168,206L166,198L164,189L162,182L161,175L161,170L160,166L159,164L159,162L159,166" stroke-opacity="1" stroke-width="5" stroke-linecap="round" stroke-linejoin="round" style="-webkit-tap-highlight-color: rgba(0, 0, 0, 0); stroke-opacity: 1; stroke-linecap: round; stroke-linejoin: round; -webkit-user-select: text;"></path><path fill="none" stroke="#000000" d="M134,302L144,300L152,295L166,286L181,276L200,262L219,250L235,238L249,228L261,218L270,211L276,207L279,204L281,202L281,201L281,200" stroke-opacity="1" stroke-width="5" stroke-linecap="round" stroke-linejoin="round" style="-webkit-tap-highlight-color: rgba(0, 0, 0, 0); stroke-opacity: 1; stroke-linecap: round; stroke-linejoin: round; -webkit-user-select: text;"></path><path fill="none" stroke="#000000" d="M175,192L187,187L197,187L210,186L223,186L239,188L251,194L260,200L269,211L274,221L278,233L280,246L280,259L280,272L279,283L276,293L272,301L268,307L265,311L263,312L261,313L259,313" stroke-opacity="1" stroke-width="5" stroke-linecap="round" stroke-linejoin="round" style="-webkit-tap-highlight-color: rgba(0, 0, 0, 0); stroke-opacity: 1; stroke-linecap: round; stroke-linejoin: round; -webkit-user-select: text;"></path><path fill="none" stroke="#000000" d="M118,287L129,287L138,289L149,291L163,294L176,296L191,297L201,298L215,298L227,296L239,290L249,282L258,272L267,262L274,254L280,244L288,233L296,223L304,210L311,199L319,187L328,176L336,167L346,158L354,153L364,148L373,146L380,144L385,144L389,144L392,144L393,144L394,145L394,148" stroke-opacity="1" stroke-width="5" stroke-linecap="round" stroke-linejoin="round" style="-webkit-tap-highlight-color: rgba(0, 0, 0, 0); stroke-opacity: 1; stroke-linecap: round; stroke-linejoin: round; -webkit-user-select: text;"></path><path fill="none" stroke="#000000" d="M320,264L314,259L309,254L301,245L291,235L282,225L273,213L263,203L254,191L247,183L240,175L235,170L232,165L229,163L229,162" stroke-opacity="1" stroke-width="5" stroke-linecap="round" stroke-linejoin="round" style="-webkit-tap-highlight-color: rgba(0, 0, 0, 0); stroke-opacity: 1; stroke-linecap: round; stroke-linejoin: round; -webkit-user-select: text;"></path><path fill="none" stroke="#000000" d="M169,189L171,184L175,177L185,170L200,160L217,154L235,149L250,148L266,148L278,149L290,154L300,162L307,169L315,178L322,188L325,196L328,206L329,214L329,220L329,224L329,227L329,228L329,229" stroke-opacity="1" stroke-width="5" stroke-linecap="round" stroke-linejoin="round" style="-webkit-tap-highlight-color: rgba(0, 0, 0, 0); stroke-opacity: 1; stroke-linecap: round; stroke-linejoin: round; -webkit-user-select: text;"></path><path fill="none" stroke="#000000" d="M191,194L202,198L208,199L217,202L225,205L237,208L247,211L257,212L270,214L279,214L290,214L299,214L307,211L314,207L321,201L325,195L329,187L332,180L335,172L337,165L339,157L341,149L342,141L343,132L344,125L344,114L345,105L346,96L348,87L351,77L356,68L362,60L368,54L374,49L378,47L382,46L385,45L387,45L390,45L394,45" stroke-opacity="1" stroke-width="5" stroke-linecap="round" stroke-linejoin="round" style="-webkit-tap-highlight-color: rgba(0, 0, 0, 0); stroke-opacity: 1; stroke-linecap: round; stroke-linejoin: round; -webkit-user-select: text;"></path><path fill="none" stroke="#000000" d="M273,128L279,128L285,128L306,134L321,139L332,144L346,150L356,155L366,160L373,163L378,165L381,167L383,168L384,168L384,169L384,170" stroke-opacity="1" stroke-width="5" stroke-linecap="round" stroke-linejoin="round" style="-webkit-tap-highlight-color: rgba(0, 0, 0, 0); stroke-opacity: 1; stroke-linecap: round; stroke-linejoin: round; -webkit-user-select: text;"></path><path fill="none" stroke="#000000" d="M280,201L278,197L278,191L278,184L278,176L280,165L286,156L295,148L306,140L319,132L333,126L349,120L365,117L380,116L396,116L409,116L422,118L433,122L439,126L444,129L447,131L448,133L448,134L448,135" stroke-opacity="1" stroke-width="5" stroke-linecap="round" stroke-linejoin="round" style="-webkit-tap-highlight-color: rgba(0, 0, 0, 0); stroke-opacity: 1; stroke-linecap: round; stroke-linejoin: round; -webkit-user-select: text;"></path><path fill="none" stroke="#000000" d="M353,88L367,92L377,93L387,96L398,100L408,105L415,111L421,118L425,125L428,133L430,142L430,148L430,157L430,166L429,173L426,181L422,191L418,200L415,208L412,217L409,225L407,233L405,241L403,249L402,257L402,264L402,272L402,280L404,287L407,293L412,299L418,304L426,308L433,311L438,313L443,315L447,315L450,316L451,316" stroke-opacity="1" stroke-width="5" stroke-linecap="round" stroke-linejoin="round" style="-webkit-tap-highlight-color: rgba(0, 0, 0, 0); stroke-opacity: 1; stroke-linecap: round; stroke-linejoin: round; -webkit-user-select: text;"></path><path fill="none" stroke="#000000" d="M517,241L511,239L507,238L499,235L489,231L475,226L462,221L447,214L431,207L415,201L401,197L389,194L380,190L373,188L368,187L366,185L365,185" stroke-opacity="1" stroke-width="5" stroke-linecap="round" stroke-linejoin="round" style="-webkit-tap-highlight-color: rgba(0, 0, 0, 0); stroke-opacity: 1; stroke-linecap: round; stroke-linejoin: round; -webkit-user-select: text;"></path><path fill="none" stroke="#000000" d="M332,212L334,207L335,202L342,196L353,185L365,174L379,164L396,151L412,139L427,126L437,116L446,109L452,103L455,100L458,98L458,97L455,97" stroke-opacity="1" stroke-width="5" stroke-linecap="round" stroke-linejoin="round" style="-webkit-tap-highlight-color: rgba(0, 0, 0, 0); stroke-opacity: 1; stroke-linecap: round; stroke-linejoin: round; -webkit-user-select: text;"></path><path fill="none" stroke="#000000" d="M362,116L367,113L377,109L388,107L403,105L418,105L433,107L443,112L453,118L459,125L463,134L465,142L466,151L466,162L466,172L465,184L462,195L460,206L460,215L460,223L460,230L460,237L463,243L466,248L469,252L472,254L475,256L477,257L478,257" stroke-opacity="1" stroke-width="5" stroke-linecap="round" stroke-linejoin="round" style="-webkit-tap-highlight-color: rgba(0, 0, 0, 0); stroke-opacity: 1; stroke-linecap: round; stroke-linejoin: round; -webkit-user-select: text;"></path><path fill="none" stroke="#000000" d="M353,169L364,165L375,165L388,163L408,160L427,156L448,152L468,146L486,140L504,133L516,128L527,124L533,122L536,121L538,121" stroke-opacity="1" stroke-width="5" stroke-linecap="round" stroke-linejoin="round" style="-webkit-tap-highlight-color: rgba(0, 0, 0, 0); stroke-opacity: 1; stroke-linecap: round; stroke-linejoin: round; -webkit-user-select: text;"></path><path fill="none" stroke="#000000" d="M521,187L522,182L525,178L527,171L530,162L531,153L532,142L532,129L532,116L530,104L526,94L521,85L516,77L509,71L500,65L491,60L482,56L474,53L469,51L465,51L460,51L455,51" stroke-opacity="1" stroke-width="5" stroke-linecap="round" stroke-linejoin="round" style="-webkit-tap-highlight-color: rgba(0, 0, 0, 0); stroke-opacity: 1; stroke-linecap: round; stroke-linejoin: round; -webkit-user-select: text;"></path><path fill="none" stroke="#000000" d="M405,48L411,55L414,61L417,68L422,77L427,86L430,93L435,101L439,110L446,118L452,124L460,130L468,135L477,138L486,141L496,143L507,143L516,143L528,141L538,137L548,133L558,129L565,127L574,125L584,123L591,123L601,123L609,123L615,123L621,124L628,128L633,132L637,136L640,140L642,144L643,148L644,152L644,156L644,160" stroke-opacity="1" stroke-width="5" stroke-linecap="round" stroke-linejoin="round" style="-webkit-tap-highlight-color: rgba(0, 0, 0, 0); stroke-opacity: 1; stroke-linecap: round; stroke-linejoin: round; -webkit-user-select: text;"></path><path fill="none" stroke="#000000" d="M543,62L545,73L545,80L550,91L555,101L560,115L565,125L570,140L575,150L580,161L584,168L587,174L589,180L591,184L592,188L592,190L592,191" stroke-opacity="1" stroke-width="5" stroke-linecap="round" stroke-linejoin="round" style="-webkit-tap-highlight-color: rgba(0, 0, 0, 0); stroke-opacity: 1; stroke-linecap: round; stroke-linejoin: round; -webkit-user-select: text;"></path><path fill="none" stroke="#000000" d="M438,191L438,185L441,177L449,167L460,157L475,149L490,143L507,141L521,140L536,140L551,140L564,144L576,149L586,155L594,161L599,167L603,170L605,173L606,176L607,177L607,178L604,178L593,178" stroke-opacity="1" stroke-width="5" stroke-linecap="round" stroke-linejoin="round" style="-webkit-tap-highlight-color: rgba(0, 0, 0, 0); stroke-opacity: 1; stroke-linecap: round; stroke-linejoin: round; -webkit-user-select: text;"></path><path fill="none" stroke="#000000" d="M449,133L455,146L456,155L460,166L464,176L469,186L476,196L483,204L491,212L500,218L509,223L518,226L530,228L540,228L553,228L563,228L574,227L585,226L594,226L603,226L611,227L618,230L624,234L628,238L632,242L635,248L637,254L639,262L640,268L640,275L641,282L641,289L641,296L641,301L641,306L641,311L641,313L641,315L640,316L640,317L637,317" stroke-opacity="1" stroke-width="5" stroke-linecap="round" stroke-linejoin="round" style="-webkit-tap-highlight-color: rgba(0, 0, 0, 0); stroke-opacity: 1; stroke-linecap: round; stroke-linejoin: round; -webkit-user-select: text;"></path><path fill="none" stroke="#000000" d="M511,361L516,355L527,348L539,340L558,328L576,315L593,303L611,291L627,280L640,270L651,261L658,255L662,252L664,250L665,249L666,248L663,248" stroke-opacity="1" stroke-width="5" stroke-linecap="round" stroke-linejoin="round" style="-webkit-tap-highlight-color: rgba(0, 0, 0, 0); stroke-opacity: 1; stroke-linecap: round; stroke-linejoin: round; -webkit-user-select: text;"></path><path fill="none" stroke="#000000" d="M527,238L537,236L545,236L557,236L568,239L579,244L589,250L597,258L606,269L611,278L614,289L616,299L616,311L616,324L616,333L616,344L614,351L613,356L611,359L611,361L610,362L609,363" stroke-opacity="1" stroke-width="5" stroke-linecap="round" stroke-linejoin="round" style="-webkit-tap-highlight-color: rgba(0, 0, 0, 0); stroke-opacity: 1; stroke-linecap: round; stroke-linejoin: round; -webkit-user-select: text;"></path><path fill="none" stroke="#000000" d="M520,394L526,396L532,397L539,400L547,404L557,407L565,410L576,413L587,415L596,417L609,417L618,417L630,416L640,412L650,405L660,395L666,386L672,375L676,363L679,352L679,342L679,332L679,321L674,311L669,303L662,294L655,286L647,279L638,272L629,266L620,259L610,254L600,249L592,244L581,238L571,233L562,228L554,221L547,213L542,205L538,198L535,190L533,185L531,181L530,178L529,177L528,176L528,177" stroke-opacity="1" stroke-width="5" stroke-linecap="round" stroke-linejoin="round" style="-webkit-tap-highlight-color: rgba(0, 0, 0, 0); stroke-opacity: 1; stroke-linecap: round; stroke-linejoin: round; -webkit-user-select: text;"></path><path fill="none" stroke="#000000" d="M494,240L500,243L508,246L519,249L534,250L555,250L574,250L593,250L613,250L630,250L643,250L652,250L659,249L662,249L664,249L664,248L663,247" stroke-opacity="1" stroke-width="5" stroke-linecap="round" stroke-linejoin="round" style="-webkit-tap-highlight-color: rgba(0, 0, 0, 0); stroke-opacity: 1; stroke-linecap: round; stroke-linejoin: round; -webkit-user-select: text;"></path><path fill="none" stroke="#000000" d="M526,188L540,188L550,191L561,195L573,203L582,214L588,224L591,238L592,251L592,268L589,283L582,298L574,311L568,322L564,328L560,333L558,336L556,338L555,338L554,337" stroke-opacity="1" stroke-width="5" stroke-linecap="round" stroke-linejoin="round" style="-webkit-tap-highlight-color: rgba(0, 0, 0, 0); stroke-opacity: 1; stroke-linecap: round; stroke-linejoin: round; -webkit-user-select: text;"></path><path fill="none" stroke="#000000" d="M490,224L495,233L499,242L505,250L511,259L516,269L524,277L533,285L541,291L551,296L561,300L572,302L585,302L598,302L613,302L629,300L642,298L655,298L664,298L673,299L681,302L687,306L693,312L696,320L699,327L701,336L702,345L703,354L703,363L703,372L703,381L701,388L698,396L696,400L694,403L693,405L692,406L691,406L686,405" stroke-opacity="1" stroke-width="5" stroke-linecap="round" stroke-linejoin="round" style="-webkit-tap-highlight-color: rgba(0, 0, 0, 0); stroke-opacity: 1; stroke-linecap: round; stroke-linejoin: round; -webkit-user-select: text;"></path><path fill="none" stroke="#000000" d="M545,352L548,354L553,355L562,359L572,365L585,372L596,380L609,387L621,396L633,403L641,408L647,413L651,416L655,418L657,420L659,422L660,422" stroke-opacity="1" stroke-width="5" stroke-linecap="round" stroke-linejoin="round" style="-webkit-tap-highlight-color: rgba(0, 0, 0, 0); stroke-opacity: 1; stroke-linecap: round; stroke-linejoin: round; -webkit-user-select: text;"></path><path fill="none" stroke="#000000" d="M678,349L671,349L663,351L650,357L635,367L620,378L606,389L594,402L585,415L577,430L573,446L572,459L571,475L571,488L573,500L577,509L580,516L583,521L585,525L587,528L588,530L589,531L589,532" stroke-opacity="1" stroke-width="5" stroke-linecap="round" stroke-linejoin="round" style="-webkit-tap-highlight-color: rgba(0, 0, 0, 0); stroke-opacity: 1; stroke-linecap: round; stroke-linejoin: round; -webkit-user-select: text;"></path><path fill="none" stroke="#000000" d="M497,456L499,466L501,472L506,480L512,487L520,494L530,500L540,505L551,507L561,508L575,508L587,508L597,508L608,508L617,508L624,510L631,512L636,515L641,520L644,525L647,530L650,536L652,543L654,550L655,558L656,565L656,574L656,582L656,590L653,597L650,606L647,614L643,621L638,629L635,634L632,637L630,640L628,641L626,642" stroke-opacity="1" stroke-width="5" stroke-linecap="round" stroke-linejoin="round" style="-webkit-tap-highlight-color: rgba(0, 0, 0, 0); stroke-opacity: 1; stroke-linecap: round; stroke-linejoin: round; -webkit-user-select: text;"></path><path fill="none" stroke="#000000" d="M496,639L497,638L504,637L516,632L533,625L550,619L567,613L587,607L606,600L625,593L643,585L660,577L670,571L678,566L684,563L687,561L689,560" stroke-opacity="1" stroke-width="5" stroke-linecap="round" stroke-linejoin="round" style="-webkit-tap-highlight-color: rgba(0, 0, 0, 0); stroke-opacity: 1; stroke-linecap: round; stroke-linejoin: round; -webkit-user-select: text;"></path><path fill="none" stroke="#000000" d="M572,541L568,546L568,552L568,559L568,568L568,582L568,591L568,605L570,616L575,626L582,636L588,645L594,653L601,660L607,664L611,667L615,669L617,670L619,670L619,671L620,671L620,669" stroke-opacity="1" stroke-width="5" stroke-linecap="round" stroke-linejoin="round" style="-webkit-tap-highlight-color: rgba(0, 0, 0, 0); stroke-opacity: 1; stroke-linecap: round; stroke-linejoin: round; -webkit-user-select: text;"></path><path fill="none" stroke="#000000" d="M531,545L534,544L540,544L550,543L563,541L577,541L591,541L603,544L613,550L621,557L629,565L634,575L638,585L639,593L639,603L639,612L639,622L635,632L631,641L626,650L622,658L618,663L613,670L607,678L602,685L599,692L595,699L593,707L591,714L590,721L590,729L590,737L590,743L591,750L593,756L595,762L596,765L597,768L599,770L601,771L603,771L605,771" stroke-opacity="1" stroke-width="5" stroke-linecap="round" stroke-linejoin="round" style="-webkit-tap-highlight-color: rgba(0, 0, 0, 0); stroke-opacity: 1; stroke-linecap: round; stroke-linejoin: round; -webkit-user-select: text;"></path><path fill="none" stroke="#000000" d="M655,748L660,746L662,746L663,746L659,745L652,743L641,740L629,736L615,730L601,725L588,720L573,715L562,710L550,706L541,702L533,699L526,696L521,695L519,693L516,692L515,692L512,690" stroke-opacity="1" stroke-width="5" stroke-linecap="round" stroke-linejoin="round" style="-webkit-tap-highlight-color: rgba(0, 0, 0, 0); stroke-opacity: 1; stroke-linecap: round; stroke-linejoin: round; -webkit-user-select: text;"></path><path fill="none" stroke="#000000" d="M472,724L475,728L479,732L485,736L494,742L503,746L513,751L523,756L533,761L541,763L554,765L563,765L577,765L588,761L599,755L610,746L619,736L626,725L632,715L636,705L638,698L639,693L640,690L640,686L640,685L640,684" stroke-opacity="1" stroke-width="5" stroke-linecap="round" stroke-linejoin="round" style="-webkit-tap-highlight-color: rgba(0, 0, 0, 0); stroke-opacity: 1; stroke-linecap: round; stroke-linejoin: round; -webkit-user-select: text;"></path><path fill="none" stroke="#000000" d="M610,642L616,642L621,643L628,646L636,652L643,659L648,667L653,676L657,685L660,694L661,705L661,717L661,729L657,741L652,753L646,764L640,774L630,784L623,791L613,798L602,804L592,807L580,810L570,811L557,811L546,811L536,808L525,803L516,797L507,787L498,778L492,770L485,760L477,752L469,743L462,735L455,728L447,721L441,715L433,709L425,704L417,699L409,697L400,695L391,694L382,694L372,694L364,695L359,697L356,699L354,702" stroke-opacity="1" stroke-width="5" stroke-linecap="round" stroke-linejoin="round" style="-webkit-tap-highlight-color: rgba(0, 0, 0, 0); stroke-opacity: 1; stroke-linecap: round; stroke-linejoin: round; -webkit-user-select: text;"></path><path fill="none" stroke="#000000" d="M324,785L342,780L354,773L370,765L386,756L406,745L424,734L440,722L458,710L475,699L486,690L497,682L504,677L509,674L511,673L510,674" stroke-opacity="1" stroke-width="5" stroke-linecap="round" stroke-linejoin="round" style="-webkit-tap-highlight-color: rgba(0, 0, 0, 0); stroke-opacity: 1; stroke-linecap: round; stroke-linejoin: round; -webkit-user-select: text;"></path><path fill="none" stroke="#000000" d="M480,659L481,665L481,671L481,678L481,688L481,699L481,713L481,726L481,741L481,757L480,770L479,783L477,794L476,802L475,809L474,814L474,817L473,818L473,819L473,816" stroke-opacity="1" stroke-width="5" stroke-linecap="round" stroke-linejoin="round" style="-webkit-tap-highlight-color: rgba(0, 0, 0, 0); stroke-opacity: 1; stroke-linecap: round; stroke-linejoin: round; -webkit-user-select: text;"></path><path fill="none" stroke="#000000" d="M553,741L550,749L547,756L543,766L538,777L534,789L527,801L519,812L511,821L499,829L489,834L476,837L463,838L450,838L437,838L425,837L414,832L404,826L393,818L386,810L379,801L371,791L366,781L361,771L358,759L356,750L355,742L355,733L355,726L355,719L355,714L355,711L355,709L355,708" stroke-opacity="1" stroke-width="5" stroke-linecap="round" stroke-linejoin="round" style="-webkit-tap-highlight-color: rgba(0, 0, 0, 0); stroke-opacity: 1; stroke-linecap: round; stroke-linejoin: round; -webkit-user-select: text;"></path><path fill="none" stroke="#000000" d="M413,712L414,719L414,726L414,736L412,746L410,760L406,772L401,785L395,795L388,803L381,809L374,812L366,814L359,815L349,815L339,815L330,814L319,810L309,805L299,800L288,794L279,788L270,782L262,777L256,771L249,763L243,754L237,744L232,733L229,723L226,715L223,707L220,700L215,695L210,690L205,685L200,681L195,677L190,674L185,671L181,669L177,668L174,667L173,667L172,667" stroke-opacity="1" stroke-width="5" stroke-linecap="round" stroke-linejoin="round" style="-webkit-tap-highlight-color: rgba(0, 0, 0, 0); stroke-opacity: 1; stroke-linecap: round; stroke-linejoin: round; -webkit-user-select: text;"></path><path fill="none" stroke="#000000" d="M141,789L151,776L162,765L176,748L191,730L205,713L220,697L232,680L245,665L253,654L261,646L266,640L270,636L272,634" stroke-opacity="1" stroke-width="5" stroke-linecap="round" stroke-linejoin="round" style="-webkit-tap-highlight-color: rgba(0, 0, 0, 0); stroke-opacity: 1; stroke-linecap: round; stroke-linejoin: round; -webkit-user-select: text;"></path><path fill="none" stroke="#000000" d="M289,656L289,661L289,668L288,677L286,689L282,704L277,717L269,728L260,736L251,742L239,746L228,749L215,750L204,750L192,750L180,748L170,743L159,735L151,729L144,722L138,718L134,714L132,712L130,711L130,710" stroke-opacity="1" stroke-width="5" stroke-linecap="round" stroke-linejoin="round" style="-webkit-tap-highlight-color: rgba(0, 0, 0, 0); stroke-opacity: 1; stroke-linecap: round; stroke-linejoin: round; -webkit-user-select: text;"></path><path fill="none" stroke="#000000" d="M105,809L115,808L122,808L130,808L142,807L152,806L166,805L177,803L190,800L200,795L212,785L221,774L228,760L233,747L237,733L240,722L240,712L240,700L239,689L234,677L228,666L221,656L214,647L206,640L200,632L192,624L184,616L177,606L171,597L163,588L155,578L149,568L142,556L137,546L132,535L129,524L128,514L127,503L127,494L127,488L127,486L127,483L128,483L129,485" stroke-opacity="1" stroke-width="5" stroke-linecap="round" stroke-linejoin="round" style="-webkit-tap-highlight-color: rgba(0, 0, 0, 0); stroke-opacity: 1; stroke-linecap: round; stroke-linejoin: round; -webkit-user-select: text;"></path><path fill="none" stroke="#000000" d="M65,656L73,649L80,642L90,630L101,617L117,600L131,584L146,567L161,549L174,534L186,519L194,508L200,500L204,494L207,491L208,490" stroke-opacity="1" stroke-width="5" stroke-linecap="round" stroke-linejoin="round" style="-webkit-tap-highlight-color: rgba(0, 0, 0, 0); stroke-opacity: 1; stroke-linecap: round; stroke-linejoin: round; -webkit-user-select: text;"></path><path fill="none" stroke="#000000" d="M253,452L253,457L253,467L253,480L251,499L247,514L241,531L234,545L225,559L214,571L202,580L187,587L175,590L160,592L146,593L130,593L120,589L108,582L99,575L92,567L84,558L78,546L74,536L70,525L67,518L65,515L63,512L62,511L61,511" stroke-opacity="1" stroke-width="5" stroke-linecap="round" stroke-linejoin="round" style="-webkit-tap-highlight-color: rgba(0, 0, 0, 0); stroke-opacity: 1; stroke-linecap: round; stroke-linejoin: round; -webkit-user-select: text;"></path><path fill="none" stroke="#000000" d="M29,605L32,606L38,606L45,607L55,607L67,607L79,606L91,602L103,597L116,590L125,582L134,571L142,560L147,547L149,535L151,521L151,507L151,493L149,482L144,471L135,460L128,451L121,441L113,430L107,418L102,408L97,394L94,381L94,362L94,343L98,324L105,308L111,298L117,289L121,285L123,283L125,281L126,281L127,281L129,281L132,285" stroke-opacity="1" stroke-width="5" stroke-linecap="round" stroke-linejoin="round" style="-webkit-tap-highlight-color: rgba(0, 0, 0, 0); stroke-opacity: 1; stroke-linecap: round; stroke-linejoin: round; -webkit-user-select: text;"></path><path fill="none" stroke="#000000" d="M42,449L45,444L52,437L63,427L74,415L89,398L103,381L118,364L134,348L149,332L162,316L171,306L178,298L183,294L186,291L187,291" stroke-opacity="1" stroke-width="5" stroke-linecap="round" stroke-linejoin="round" style="-webkit-tap-highlight-color: rgba(0, 0, 0, 0); stroke-opacity: 1; stroke-linecap: round; stroke-linejoin: round; -webkit-user-select: text;"></path><path fill="none" stroke="#000000" d="M37,323L52,319L64,316L79,314L94,314L111,314L125,321L137,330L147,342L154,354L159,367L164,381L166,395L166,408L166,420L165,431L161,439L159,446L157,451L156,455" stroke-opacity="1" stroke-width="5" stroke-linecap="round" stroke-linejoin="round" style="-webkit-tap-highlight-color: rgba(0, 0, 0, 0); stroke-opacity: 1; stroke-linecap: round; stroke-linejoin: round; -webkit-user-select: text;"></path><path fill="none" stroke="#000000" d="M243,378L235,384L226,391L212,400L197,408L179,416L160,422L142,427L125,428L110,429L97,429L86,424L77,417L72,411L69,402L67,391L66,379L66,366L66,353L67,340L70,328L72,317L75,308L79,299L84,292L89,284L93,278L99,270L105,262L110,254L115,246L119,238L122,230L123,222L124,215L124,207L124,199L122,191L118,183L115,179L113,176L111,174L110,173L109,173L108,173L108,174" stroke-opacity="1" stroke-width="5" stroke-linecap="round" stroke-linejoin="round" style="-webkit-tap-highlight-color: rgba(0, 0, 0, 0); stroke-opacity: 1; stroke-linecap: round; stroke-linejoin: round; -webkit-user-select: text;"></path><path fill="none" stroke="#000000" d="M1,289L20,282L-731,275L-708,262L-689,251L-668,239L-647,226L-626,213L-608,201L-594,191L-581,183L-573,177L-567,174L-565,172L-563,172L-562,172" stroke-opacity="1" stroke-width="5" stroke-linecap="round" stroke-linejoin="round" style="-webkit-tap-highlight-color: rgba(0, 0, 0, 0); stroke-opacity: 1; stroke-linecap: round; stroke-linejoin: round; -webkit-user-select: text;"></path></svg>