<svg height="874" version="1.1" width="768" xmlns="http://www.w3.org/2000/svg" xmlns:xlink="http://www.w3.org/1999/xlink" style="overflow: hidden; position: relative; -webkit-user-select: text;"><desc style="-webkit-tap-highlight-color: rgba(0, 0, 0, 0); -webkit-user-select: text;">Created with Raphaël 2.2.0</desc><defs style="-webkit-tap-highlight-color: rgba(0, 0, 0, 0); -webkit-user-select: text;"></defs><path fill="none" stroke="#000000" d="M126,83L127,86L128,87L129,87L130,87L131,87L132,87L133,87L135,88L136,88L137,88L138,88L139,88L140,88L142,88L144,88L146,89L147,89L149,89L150,89L152,89L154,89L156,89L157,89L159,89L161,89L163,89L164,89L166,89L168,89L170,89L172,89L174,89L177,89L179,89L181,89L183,89L186,89L188,89L189,89L191,89L193,89L195,89L198,89L200,89L202,89L203,89L205,89L207,89L209,89L211,89L213,89L215,89L217,89L218,89L220,89L222,89L225,89L227,89L229,89L231,89L233,89L234,89L236,89L238,89L239,89L241,89L242,89L243,89L244,89L245,89L246,89L247,89L248,89L249,89L250,89L251,89L252,89L253,89L254,89" stroke-opacity="1" stroke-width="10" stroke-linecap="round" stroke-linejoin="round" style="-webkit-tap-highlight-color: rgba(0, 0, 0, 0); stroke-opacity: 1; stroke-linecap: round; stroke-linejoin: round; -webkit-user-select: text;"></path><path fill="none" stroke="#000000" d="M311,95L312,95L313,95L314,95L315,95L316,95L317,95L318,95L319,95L321,95L322,95L324,95L325,95L327,95L328,95L329,95L331,95L332,95L334,95L336,95L337,95L339,95L340,95L341,95L343,95L344,95L345,95L347,95L349,95L350,95L352,95L353,95L355,95L356,95L358,95L360,95L361,95L363,95L364,95L366,95L368,95L369,95L370,95L372,95L374,95L376,95L378,95L380,95L381,95L383,95L385,95L387,95L389,95L390,95L392,95L394,95L395,95L397,95L399,95L401,95L402,95L404,95L406,95L408,95L410,95L412,95L414,95L416,95L418,95L420,95L422,95L424,95L426,95L428,95L429,95L431,95L432,95L434,95L435,95L436,95L437,95L440,95" stroke-opacity="1" stroke-width="10" stroke-linecap="round" stroke-linejoin="round" style="-webkit-tap-highlight-color: rgba(0, 0, 0, 0); stroke-opacity: 1; stroke-linecap: round; stroke-linejoin: round; -webkit-user-select: text;"></path><path fill="none" stroke="#000000" d="M504,86L508,88L510,88L511,88L513,88L515,88L516,88L519,88L521,88L524,88L526,88L528,88L530,88L532,88L534,88L537,88L539,88L541,89L543,89L545,89L548,89L550,89L553,89L555,89L558,89L560,89L562,89L565,89L567,89L570,89L573,89L576,89L579,89L582,89L585,89L588,89L591,89L594,89L596,89L599,89L602,89L604,89L606,89L609,89L611,89L613,89L615,89L617,89L620,89L622,89L624,89L626,89L628,89L630,89L633,89L635,89L637,89L639,89L641,89L643,89L645,89L647,89L648,89L650,89L652,89L653,89L654,89L655,89L656,89L657,89" stroke-opacity="1" stroke-width="10" stroke-linecap="round" stroke-linejoin="round" style="-webkit-tap-highlight-color: rgba(0, 0, 0, 0); stroke-opacity: 1; stroke-linecap: round; stroke-linejoin: round; -webkit-user-select: text;"></path><path fill="none" stroke="#000000" d="M175,168L182,167L183,167L184,167L186,167L187,167L189,167L191,167L193,167L197,167L199,167L202,167L204,167L206,167L209,167L211,167L213,167L216,167L219,167L221,167L224,167L226,167L229,166L232,166L234,166L237,166L240,166L243,166L246,166L249,166L252,166L255,166L258,166L261,166L263,166L266,166L268,166L271,166L273,166L276,166L278,166L281,166L284,165L286,165L289,165L291,165L293,165L296,165L298,165L300,164L302,164L305,163L307,163L309,163L311,163L313,162L314,162L316,162L318,162L319,162L321,162L322,162L323,162L324,161L325,161L326,161L327,161L329,162" stroke-opacity="1" stroke-width="10" stroke-linecap="round" stroke-linejoin="round" style="-webkit-tap-highlight-color: rgba(0, 0, 0, 0); stroke-opacity: 1; stroke-linecap: round; stroke-linejoin: round; -webkit-user-select: text;"></path><path fill="none" stroke="#000000" d="M430,154L435,156L437,156L438,156L441,157L443,157L445,158L447,158L449,159L451,159L452,159L454,159L456,159L458,159L460,159L463,159L465,159L467,159L470,159L472,159L474,159L476,159L479,159L481,160L483,160L486,160L488,160L491,160L493,160L496,161L498,161L501,161L504,162L507,162L509,162L511,163L514,163L516,163L519,164L521,164L524,164L526,164L529,164L531,164L534,164L537,165L539,165L542,165L544,165L547,165L550,165L552,165L555,165L558,165L560,166L563,166L565,166L568,166L570,166L572,166L575,166L577,167L579,167L581,167L582,167L584,167L586,167L587,167L588,167L589,167L590,167L591,167" stroke-opacity="1" stroke-width="10" stroke-linecap="round" stroke-linejoin="round" style="-webkit-tap-highlight-color: rgba(0, 0, 0, 0); stroke-opacity: 1; stroke-linecap: round; stroke-linejoin: round; -webkit-user-select: text;"></path><path fill="none" stroke="#000000" d="M323,243L325,244L327,244L330,244L334,244L337,244L342,244L346,244L351,244L356,244L361,244L366,244L371,244L376,244L380,244L385,244L389,244L394,244L398,244L402,244L406,244L410,244L414,244L418,244L422,244L426,244L430,244L434,244L437,244L440,244L443,244L447,244L451,244L454,244L457,244L460,244L464,245L467,245L470,245L474,245L477,245L480,245L482,245L483,245L485,245L486,245L486,248" stroke-opacity="1" stroke-width="10" stroke-linecap="round" stroke-linejoin="round" style="-webkit-tap-highlight-color: rgba(0, 0, 0, 0); stroke-opacity: 1; stroke-linecap: round; stroke-linejoin: round; -webkit-user-select: text;"></path><path fill="none" stroke="#000000" d="M572,244L576,244L577,244L579,244L581,244L583,244L584,244L587,244L589,244L592,244L594,244L596,244L599,244L602,244L605,244L608,244L611,244L614,244L617,244L620,244L623,244L626,244L628,244L631,244L634,244L637,244L640,244L642,244L645,244L647,244L650,244L652,244L655,244L658,244L661,244L664,244L666,244L669,244L671,244L674,244L677,244L679,244L682,244L684,244L687,244L689,244L691,244L694,244L696,244L697,244L699,244L701,244L702,244L703,244L705,244L706,244L707,244L708,244L709,244L709,243" stroke-opacity="1" stroke-width="10" stroke-linecap="round" stroke-linejoin="round" style="-webkit-tap-highlight-color: rgba(0, 0, 0, 0); stroke-opacity: 1; stroke-linecap: round; stroke-linejoin: round; -webkit-user-select: text;"></path><path fill="none" stroke="#000000" d="M88,262L92,260L94,260L96,260L98,260L100,259L103,259L105,259L108,258L110,258L113,258L115,258L118,257L120,257L122,257L124,257L127,257L129,257L132,257L135,257L137,257L140,257L143,257L146,257L149,257L152,257L154,256L157,256L159,256L161,255L164,255L166,255L168,255L171,254L173,254L175,254L177,254L179,253L182,253L184,253L186,253L188,253L190,253L192,253L195,253L197,253L199,253L201,253L203,253L205,253L207,253L208,253L210,253L211,253L212,253L214,253L215,253L216,253L217,253L217,252" stroke-opacity="1" stroke-width="10" stroke-linecap="round" stroke-linejoin="round" style="-webkit-tap-highlight-color: rgba(0, 0, 0, 0); stroke-opacity: 1; stroke-linecap: round; stroke-linejoin: round; -webkit-user-select: text;"></path><path fill="none" stroke="#000000" d="M80,362L85,360L87,360L88,360L91,360L93,360L95,360L97,359L99,359L102,359L104,359L107,359L110,359L112,359L115,359L117,359L120,359L122,359L125,359L127,359L130,359L135,359L137,359L140,359L142,359L145,359L148,359L150,358L153,358L156,358L158,358L161,358L164,358L166,358L169,357L172,357L174,357L177,357L180,357L182,356L185,356L188,356L190,355L192,355L195,355L197,355L199,354L202,354L204,354L206,354L208,354L211,354L212,354L214,354L216,353L217,353L219,353L220,353L221,353L222,353" stroke-opacity="1" stroke-width="10" stroke-linecap="round" stroke-linejoin="round" style="-webkit-tap-highlight-color: rgba(0, 0, 0, 0); stroke-opacity: 1; stroke-linecap: round; stroke-linejoin: round; -webkit-user-select: text;"></path><path fill="none" stroke="#000000" d="M298,350L302,348L305,348L307,348L310,348L313,348L316,348L319,348L322,348L325,348L328,348L331,348L334,348L338,348L342,349L346,349L350,349L353,350L357,350L361,351L365,351L369,352L373,352L376,352L380,352L383,353L386,353L389,353L392,354L396,354L399,354L402,354L405,354L409,354L412,354L415,354L419,354L422,354L425,354L429,354L431,354L434,354L437,354L442,354L444,354L446,354L447,354L448,354L449,354" stroke-opacity="1" stroke-width="10" stroke-linecap="round" stroke-linejoin="round" style="-webkit-tap-highlight-color: rgba(0, 0, 0, 0); stroke-opacity: 1; stroke-linecap: round; stroke-linejoin: round; -webkit-user-select: text;"></path><path fill="none" stroke="#000000" d="M509,345L516,342L519,342L522,342L525,342L528,342L531,342L533,342L536,342L538,342L541,342L544,342L548,342L551,342L555,342L559,342L562,342L566,342L570,342L574,342L578,342L582,342L586,342L589,342L592,342L594,342L596,342L599,342L601,342L602,342L603,342L604,342L605,342" stroke-opacity="1" stroke-width="10" stroke-linecap="round" stroke-linejoin="round" style="-webkit-tap-highlight-color: rgba(0, 0, 0, 0); stroke-opacity: 1; stroke-linecap: round; stroke-linejoin: round; -webkit-user-select: text;"></path><path fill="none" stroke="#000000" d="M417,423L422,420L424,420L428,420L431,420L435,419L438,418L443,417L446,417L450,416L454,415L458,415L463,415L467,414L471,414L475,414L479,414L483,413L487,413L490,413L494,413L497,413L501,413L505,413L509,412L513,412L517,412L521,411L525,411L529,411L533,410L538,410L541,410L545,410L550,409L553,409L558,408L561,408L565,408L568,408L572,407L575,407L579,407L582,406L586,406L589,406L592,405L596,405L599,405L601,405L605,405L608,405L611,405L614,405L617,405L619,405L621,405L623,405L626,405L627,405L628,405L630,405L631,405" stroke-opacity="1" stroke-width="10" stroke-linecap="round" stroke-linejoin="round" style="-webkit-tap-highlight-color: rgba(0, 0, 0, 0); stroke-opacity: 1; stroke-linecap: round; stroke-linejoin: round; -webkit-user-select: text;"></path><path fill="none" stroke="#000000" d="M476,486L483,486L485,486L486,486L487,486L489,486L491,486L493,486L495,486L498,486L500,486L504,486L507,486L511,486L515,486L519,486L523,486L527,486L532,485L536,485L540,485L544,485L548,485L552,485L556,485L560,485L564,484L567,484L571,484L575,484L579,484L582,484L586,484L590,484L594,484L597,484L601,484L604,484L608,484L611,484L615,484L618,484L622,484L626,484L629,484L633,484L636,484L640,484L643,484L647,484L650,484L653,484L656,484L659,484L662,484L665,484L667,484L669,484L672,484L673,484L675,483L676,483" stroke-opacity="1" stroke-width="10" stroke-linecap="round" stroke-linejoin="round" style="-webkit-tap-highlight-color: rgba(0, 0, 0, 0); stroke-opacity: 1; stroke-linecap: round; stroke-linejoin: round; -webkit-user-select: text;"></path><path fill="none" stroke="#000000" d="M171,431L175,430L176,430L178,430L180,430L182,430L184,430L186,430L188,430L191,430L193,430L196,430L199,430L202,430L205,430L208,430L211,430L214,430L218,430L221,430L225,430L228,430L232,430L235,431L238,431L242,431L244,432L248,432L251,432L254,433L257,433L259,433L262,434L265,434L267,434L270,434L272,434L275,435L277,435L279,435L282,435L284,435L286,435L288,435L290,435L292,435L293,435L294,435L295,435L294,435" stroke-opacity="1" stroke-width="10" stroke-linecap="round" stroke-linejoin="round" style="-webkit-tap-highlight-color: rgba(0, 0, 0, 0); stroke-opacity: 1; stroke-linecap: round; stroke-linejoin: round; -webkit-user-select: text;"></path><path fill="none" stroke="#000000" d="M69,510L73,510L75,510L78,510L80,510L82,510L84,510L85,510L87,510L90,510L93,510L95,510L98,510L101,510L103,510L106,510L108,510L111,510L113,510L116,510L119,510L122,510L125,510L128,510L131,511L134,511L137,511L139,511L142,512L145,512L148,512L150,512L153,513L156,513L159,513L161,514L165,514L168,514L170,514L173,514L175,514L178,514L181,515L183,515L186,515L188,515L191,515L194,515L197,515L200,515L203,515L205,515L208,515L210,515L212,515L215,515L217,515L220,515L222,515L225,515L227,515L229,515L231,515L233,515L234,515L236,515L237,515L238,515" stroke-opacity="1" stroke-width="10" stroke-linecap="round" stroke-linejoin="round" style="-webkit-tap-highlight-color: rgba(0, 0, 0, 0); stroke-opacity: 1; stroke-linecap: round; stroke-linejoin: round; -webkit-user-select: text;"></path><path fill="none" stroke="#000000" d="M293,500L299,499L300,499L302,499L303,499L305,499L307,499L309,499L311,499L314,499L316,499L319,499L322,499L328,499L331,499L334,499L338,499L341,499L344,499L347,499L351,499L354,499L357,499L360,499L363,499L366,498L369,498L371,498L374,498L377,498L380,498L382,498L384,498L386,498L388,498L390,498L391,498L393,498L394,498L395,498L396,498L397,497L397,496" stroke-opacity="1" stroke-width="10" stroke-linecap="round" stroke-linejoin="round" style="-webkit-tap-highlight-color: rgba(0, 0, 0, 0); stroke-opacity: 1; stroke-linecap: round; stroke-linejoin: round; -webkit-user-select: text;"></path><path fill="none" stroke="#000000" d="M73,593L74,592L76,592L79,592L81,592L84,592L86,592L89,592L93,592L96,592L99,591L102,591L105,590L109,590L113,590L117,589L121,589L125,589L130,588L134,588L138,588L142,588L145,588L149,588L153,588L157,588L160,588L164,588L167,588L170,588L173,588L176,588L179,588L183,588L186,588L189,588L192,588L195,588L198,588L200,588L203,588L206,588L209,588L212,588L215,588L217,588L220,588L222,588L225,588L227,588L229,588L230,588L232,588L233,588L234,588L235,588L236,587L239,584L245,581" stroke-opacity="1" stroke-width="10" stroke-linecap="round" stroke-linejoin="round" style="-webkit-tap-highlight-color: rgba(0, 0, 0, 0); stroke-opacity: 1; stroke-linecap: round; stroke-linejoin: round; -webkit-user-select: text;"></path><path fill="none" stroke="#000000" d="M314,567L321,567L324,567L326,567L329,567L331,567L334,567L337,567L340,567L343,567L346,567L349,567L352,567L355,567L358,567L361,567L364,567L367,567L370,567L373,567L376,567L379,567L382,567L385,567L388,567L391,567L394,568L397,568L400,568L402,568L405,568L407,568L410,568L412,568L414,568L415,568L416,568L417,568L418,568L419,568" stroke-opacity="1" stroke-width="10" stroke-linecap="round" stroke-linejoin="round" style="-webkit-tap-highlight-color: rgba(0, 0, 0, 0); stroke-opacity: 1; stroke-linecap: round; stroke-linejoin: round; -webkit-user-select: text;"></path><path fill="none" stroke="#000000" d="M487,586L493,584L499,584L502,584L506,584L509,584L512,584L516,584L520,584L524,584L527,584L531,584L535,584L539,584L543,584L546,584L550,584L554,584L558,584L561,584L565,584L569,584L573,584L578,584L582,583L586,583L590,583L594,583L597,583L601,583L605,583L609,583L612,583L616,583L619,583L623,583L627,583L631,583L635,583L639,583L643,583L646,583L650,583L653,583L656,583L659,583L662,583L664,583L666,583L668,583L669,583L671,583L672,583L672,582L672,581L671,581" stroke-opacity="1" stroke-width="10" stroke-linecap="round" stroke-linejoin="round" style="-webkit-tap-highlight-color: rgba(0, 0, 0, 0); stroke-opacity: 1; stroke-linecap: round; stroke-linejoin: round; -webkit-user-select: text;"></path><path fill="none" stroke="#000000" d="M173,673L177,672L179,672L183,672L187,672L192,672L197,671L202,671L207,670L212,670L218,669L222,668L228,668L233,667L238,667L244,666L249,666L254,666L259,666L265,666L270,666L275,666L279,666L284,666L289,666L294,665L299,665L308,665L312,665L315,664L318,664L319,664L321,664L322,664" stroke-opacity="1" stroke-width="10" stroke-linecap="round" stroke-linejoin="round" style="-webkit-tap-highlight-color: rgba(0, 0, 0, 0); stroke-opacity: 1; stroke-linecap: round; stroke-linejoin: round; -webkit-user-select: text;"></path><path fill="none" stroke="#000000" d="M237,753L245,751L248,751L251,751L255,751L259,751L262,751L266,751L269,751L273,751L277,752L281,752L285,753L290,753L294,753L298,753L302,753L306,753L310,753L314,753L319,753L323,753L327,753L331,753L334,753L338,753L341,753L344,753L348,753L351,753L354,753L357,753L360,753L363,753L366,753L368,753L371,753L373,753L376,753L378,753L380,754L381,754L383,754L384,754L385,754L387,754L389,754L392,754" stroke-opacity="1" stroke-width="10" stroke-linecap="round" stroke-linejoin="round" style="-webkit-tap-highlight-color: rgba(0, 0, 0, 0); stroke-opacity: 1; stroke-linecap: round; stroke-linejoin: round; -webkit-user-select: text;"></path><path fill="none" stroke="#000000" d="M430,679L439,678L443,678L448,678L453,678L458,678L464,678L469,678L475,678L480,678L485,678L490,678L494,678L498,678L501,677L504,676L505,675L506,675L507,675L508,675" stroke-opacity="1" stroke-width="10" stroke-linecap="round" stroke-linejoin="round" style="-webkit-tap-highlight-color: rgba(0, 0, 0, 0); stroke-opacity: 1; stroke-linecap: round; stroke-linejoin: round; -webkit-user-select: text;"></path><path fill="none" stroke="#000000" d="M479,766L485,767L488,767L492,767L496,767L501,767L506,767L510,768L514,768L519,769L522,769L527,769L531,769L534,769L537,769L540,769L543,769L545,769L548,769L551,769L554,769L557,769L560,769L562,769L565,769L568,769L571,769L574,769L577,769L581,769L584,769L587,769L591,769L594,770L596,770L599,770L603,770L606,770L609,770L612,770L614,770L616,770L618,770L621,770L622,770L623,770L625,770L626,769L626,767L627,765" stroke-opacity="1" stroke-width="10" stroke-linecap="round" stroke-linejoin="round" style="-webkit-tap-highlight-color: rgba(0, 0, 0, 0); stroke-opacity: 1; stroke-linecap: round; stroke-linejoin: round; -webkit-user-select: text;"></path><path fill="none" stroke="#000000" d="M584,658L588,658L591,658L594,658L599,658L603,658L608,659L612,660L617,660L621,661L627,661L632,661L636,662L640,663L644,663L648,664L651,665L655,665L657,665L660,665L663,665L664,665L666,665L667,665" stroke-opacity="1" stroke-width="10" stroke-linecap="round" stroke-linejoin="round" style="-webkit-tap-highlight-color: rgba(0, 0, 0, 0); stroke-opacity: 1; stroke-linecap: round; stroke-linejoin: round; -webkit-user-select: text;"></path><path fill="none" stroke="#000000" d="M53,758L62,753L66,753L70,752L75,750L80,749L86,748L91,746L98,744L105,742L112,740L118,738L124,736L130,734L136,733L142,731L146,730L151,729L155,728L159,727L166,726L169,726L172,726L175,726L177,726L179,725L180,725L181,724L181,723" stroke-opacity="1" stroke-width="10" stroke-linecap="round" stroke-linejoin="round" style="-webkit-tap-highlight-color: rgba(0, 0, 0, 0); stroke-opacity: 1; stroke-linecap: round; stroke-linejoin: round; -webkit-user-select: text;"></path><path fill="none" stroke="#000000" d="M176,592L173,597L173,599L173,600L173,602L173,605L173,607L173,609L173,612L173,615L173,618L173,621L173,624L172,627L172,631L171,634L171,638L171,641L170,645L170,650L170,654L170,659L170,664L170,668L170,673L170,678L170,682L170,686L170,690L170,693L170,697L170,700L170,704L170,707L170,710L170,713L170,716L170,719L170,721L170,724L170,726L170,729L170,732L170,735L170,738L170,741L170,743L170,746L170,748L170,753L170,756L170,758L170,761L170,763L170,766L170,768L170,770L170,771L170,772L170,773" stroke-opacity="1" stroke-width="10" stroke-linecap="round" stroke-linejoin="round" style="-webkit-tap-highlight-color: rgba(0, 0, 0, 0); stroke-opacity: 1; stroke-linecap: round; stroke-linejoin: round; -webkit-user-select: text;"></path><path fill="none" stroke="#000000" d="M245,779L248,773L248,771L249,769L249,767L250,763L251,759L252,755L253,751L253,748L254,744L254,741L255,737L256,734L256,731L257,728L257,725L258,722L258,719L258,716L258,713L259,710L259,707L259,704L259,700L259,697L259,694L260,691L260,688L260,685L260,681L260,678L260,675L261,671L261,668L261,665L261,662L261,659L261,656L261,653L261,649L261,646L261,643L261,640L261,637L261,634L261,632L261,630L261,628L261,626L262,624L262,623L262,622L263,620" stroke-opacity="1" stroke-width="10" stroke-linecap="round" stroke-linejoin="round" style="-webkit-tap-highlight-color: rgba(0, 0, 0, 0); stroke-opacity: 1; stroke-linecap: round; stroke-linejoin: round; -webkit-user-select: text;"></path><path fill="none" stroke="#000000" d="M320,566L323,569L323,573L323,577L324,581L324,585L324,589L325,593L325,596L325,599L325,602L325,605L325,607L325,610L325,612L325,615L325,618L325,622L325,626L325,630L325,634L325,638L325,641L325,645L325,649L325,653L325,656L325,660L325,663L325,666L325,669L325,671L325,674L325,677L324,679L324,681L324,683L324,685L324,687L324,690L324,692L323,694L323,697L323,699L323,701L323,703L323,705L322,707L322,709L322,710" stroke-opacity="1" stroke-width="10" stroke-linecap="round" stroke-linejoin="round" style="-webkit-tap-highlight-color: rgba(0, 0, 0, 0); stroke-opacity: 1; stroke-linecap: round; stroke-linejoin: round; -webkit-user-select: text;"></path><path fill="none" stroke="#000000" d="M424,741L423,736L423,733L423,730L423,726L423,723L423,720L424,716L424,713L424,709L424,706L424,702L424,699L424,696L424,693L424,690L424,687L424,684L424,680L424,677L424,674L424,671L424,669L424,666L424,663L424,660L424,656L424,653L424,649L424,646L424,642L424,638L424,634L424,630L424,626L424,622L424,618L424,614L424,609L424,605L424,600L424,595L424,592L424,588L424,584L424,580L424,576L424,573L424,570L424,567L424,564L424,562L424,559L424,556L424,554L424,551L424,549L424,546L424,543L424,540L424,537L424,534L424,532L424,529L424,526L424,523L424,520L424,517L424,515L424,512L424,509L424,506L424,503L424,500L424,498L424,495L424,493L424,490L424,488L424,486L424,483L424,481L424,478L424,476L424,473L424,471L424,469L424,468L424,466L424,464L424,462L424,460L424,459L424,456L424,455L424,453L424,451L424,450L424,448L424,447L424,446L424,444L424,442L424,439" stroke-opacity="1" stroke-width="10" stroke-linecap="round" stroke-linejoin="round" style="-webkit-tap-highlight-color: rgba(0, 0, 0, 0); stroke-opacity: 1; stroke-linecap: round; stroke-linejoin: round; -webkit-user-select: text;"></path><path fill="none" stroke="#000000" d="M480,428L477,431L477,434L477,438L477,444L477,449L477,454L478,460L478,466L479,471L479,476L479,482L479,488L479,495L479,500L479,506L479,512L479,519L479,525L479,532L479,537L479,544L479,549L479,556L479,561L479,568L480,574L480,580L480,586L481,592L481,598L482,603L482,609L482,614L482,619L482,624L482,629L482,633L482,637L482,641L482,645L482,649L482,653L482,657L482,661L482,665L481,668L481,672L481,676L480,680L480,683L480,687L480,691L479,695L479,698L479,701L479,705L478,708L478,711L478,714L478,716L478,718L478,720L478,722L478,724L478,726L478,729L478,731L478,733L478,735L478,737L478,739L478,741L478,743L478,745L478,747L478,749L478,751L478,753L478,755L478,758L478,760L478,763L478,765L478,767L478,769L478,770L478,772L478,774L478,776L478,778L478,780L478,783L478,785L478,787L478,790L478,792L478,794L478,796L478,797L478,799L478,800L480,800" stroke-opacity="1" stroke-width="10" stroke-linecap="round" stroke-linejoin="round" style="-webkit-tap-highlight-color: rgba(0, 0, 0, 0); stroke-opacity: 1; stroke-linecap: round; stroke-linejoin: round; -webkit-user-select: text;"></path><path fill="none" stroke="#000000" d="M572,801L575,799L578,797L580,795L581,792L583,787L584,783L585,779L586,775L587,772L587,769L588,765L588,761L589,757L589,753L589,750L589,747L589,744L589,740L589,737L589,733L589,730L589,726L589,723L589,720L589,717L589,714L589,711L589,708L589,705L589,702L589,699L589,697L589,694L589,691L589,688L589,685L589,682L589,679L589,676L589,673L589,670L589,667L589,663L589,660L589,656L590,653L590,649L590,646L590,643L590,640L590,637L590,634L590,630L590,626L590,623L590,620L590,617L591,613L591,610L591,607L591,603L591,600L591,596L591,593L592,590L592,587L592,583L592,580L592,577L592,574L593,571L593,568L593,566L593,564L594,562L594,560L594,558L594,556L594,552L596,544" stroke-opacity="1" stroke-width="10" stroke-linecap="round" stroke-linejoin="round" style="-webkit-tap-highlight-color: rgba(0, 0, 0, 0); stroke-opacity: 1; stroke-linecap: round; stroke-linejoin: round; -webkit-user-select: text;"></path><path fill="none" stroke="#000000" d="M633,400L631,398L631,401L631,404L631,407L631,410L631,413L630,417L630,421L630,424L630,428L630,431L628,439L628,443L627,447L627,451L626,456L626,461L625,466L624,471L623,476L623,481L622,486L621,492L620,497L620,503L619,507L618,512L618,518L617,523L616,529L616,534L616,539L615,544L614,549L614,555L613,559L613,564L613,569L612,573L612,578L612,582L611,585L611,588L611,591L611,594L611,598L611,602L611,605L611,609L611,612L611,616L611,619L611,622L611,626L611,629L611,631L611,632L610,633" stroke-opacity="1" stroke-width="10" stroke-linecap="round" stroke-linejoin="round" style="-webkit-tap-highlight-color: rgba(0, 0, 0, 0); stroke-opacity: 1; stroke-linecap: round; stroke-linejoin: round; -webkit-user-select: text;"></path><path fill="none" stroke="#000000" d="M520,480L518,476L518,475L518,472L518,468L518,465L518,462L518,458L518,453L519,448L519,443L519,439L520,434L520,430L520,425L520,422L520,417L520,413L520,409L520,405L520,401L520,397L520,393L520,388L520,384L520,380L520,375L520,370L520,366L520,362L520,357L520,352L520,348L520,344L520,340L520,336L520,332L520,328L520,323L520,319L520,315L520,310L520,306L520,301L520,296L520,292L520,288L520,284L520,280L520,276L520,273L520,269L520,266L520,263L520,259L520,256L520,253L520,250L520,247L520,245L520,242L520,240L520,238L520,237L521,235L521,233L521,231L521,229L522,228L522,226L522,225L522,223L522,221" stroke-opacity="1" stroke-width="10" stroke-linecap="round" stroke-linejoin="round" style="-webkit-tap-highlight-color: rgba(0, 0, 0, 0); stroke-opacity: 1; stroke-linecap: round; stroke-linejoin: round; -webkit-user-select: text;"></path><path fill="none" stroke="#000000" d="M584,172L586,177L586,179L586,183L586,186L586,190L586,194L586,198L585,202L584,206L582,209L582,213L580,217L579,221L579,225L578,230L577,235L576,241L575,247L575,253L574,260L573,267L572,273L571,279L570,286L569,292L568,298L567,304L566,310L566,316L565,322L565,328L564,335L564,340L563,347L563,353L563,359L563,365L562,371L562,376L562,382L562,388L562,393L561,399L561,404L561,409L561,415L561,420L561,424L561,428L561,433L561,437L561,442L561,447L561,451L561,455L561,458L561,461L561,463L561,465L561,466L560,466L556,467L544,469" stroke-opacity="1" stroke-width="10" stroke-linecap="round" stroke-linejoin="round" style="-webkit-tap-highlight-color: rgba(0, 0, 0, 0); stroke-opacity: 1; stroke-linecap: round; stroke-linejoin: round; -webkit-user-select: text;"></path><path fill="none" stroke="#000000" d="M300,502L300,497L300,495L300,493L300,490L300,488L301,484L302,481L302,477L303,473L303,470L304,467L304,463L305,459L305,456L305,451L305,447L306,442L306,438L307,434L307,429L307,425L307,420L308,415L308,410L309,405L309,400L309,394L309,389L309,383L310,377L310,372L310,366L310,361L310,356L310,350L310,345L310,340L310,335L310,330L310,324L310,319L310,315L310,310L310,306L310,302L310,298L310,294L310,290L310,286L310,283L309,280L309,276L309,274L309,271L309,268L309,266L309,263L309,260L309,258L309,256L309,254L309,252L309,250L309,248L309,247L309,246L309,245L307,245L304,245" stroke-opacity="1" stroke-width="10" stroke-linecap="round" stroke-linejoin="round" style="-webkit-tap-highlight-color: rgba(0, 0, 0, 0); stroke-opacity: 1; stroke-linecap: round; stroke-linejoin: round; -webkit-user-select: text;"></path><path fill="none" stroke="#000000" d="M236,198L232,194L232,196L232,199L232,201L232,205L232,208L232,213L232,218L232,223L232,229L232,235L232,242L232,248L232,255L232,262L232,269L232,274L232,282L232,289L232,296L232,304L232,311L232,319L232,327L233,335L233,344L233,351L233,359L233,367L233,374L234,381L234,387L234,394L234,400L234,405L234,412L234,417L234,423L234,428L234,433L234,438L234,443L234,448L234,452L235,457L235,461L235,465L236,469L236,472L236,475L236,478L236,481L236,483L236,486L236,488L237,490L237,492L237,495L237,497L237,499L237,502L237,504L237,506L238,507L238,509L238,510L238,512L238,513L239,514L239,515L239,516" stroke-opacity="1" stroke-width="10" stroke-linecap="round" stroke-linejoin="round" style="-webkit-tap-highlight-color: rgba(0, 0, 0, 0); stroke-opacity: 1; stroke-linecap: round; stroke-linejoin: round; -webkit-user-select: text;"></path><path fill="none" stroke="#000000" d="M67,585L70,581L70,578L71,574L72,571L74,566L75,563L76,559L77,556L79,552L80,549L81,544L82,540L83,535L84,531L86,527L86,522L88,517L89,513L90,509L91,504L92,499L93,493L94,489L95,484L96,480L97,475L98,470L98,465L99,460L100,456L100,451L101,446L102,440L103,435L103,430L105,425L106,418L107,413L108,408L109,402L109,397L110,392L111,387L112,382L113,377L114,373L115,369L115,365L116,362L117,359L118,357L118,356L119,355L119,354" stroke-opacity="1" stroke-width="10" stroke-linecap="round" stroke-linejoin="round" style="-webkit-tap-highlight-color: rgba(0, 0, 0, 0); stroke-opacity: 1; stroke-linecap: round; stroke-linejoin: round; -webkit-user-select: text;"></path><path fill="none" stroke="#000000" d="M164,350L164,359L164,362L164,365L165,370L166,375L166,381L168,386L169,392L169,397L169,403L170,410L170,415L171,420L171,425L171,430L171,435L172,440L172,446L172,451L172,456L172,461L172,466L172,471L173,476L173,481L173,485L174,490L174,495L174,500L174,504L174,508L174,512L174,515L174,519L174,522L174,526L174,529L174,532L174,535L174,538L174,541L174,544L174,547L174,549L174,552L174,554L173,555" stroke-opacity="1" stroke-width="10" stroke-linecap="round" stroke-linejoin="round" style="-webkit-tap-highlight-color: rgba(0, 0, 0, 0); stroke-opacity: 1; stroke-linecap: round; stroke-linejoin: round; -webkit-user-select: text;"></path><path fill="none" stroke="#000000" d="M89,392L96,380L96,377L98,373L99,368L101,364L103,359L104,355L105,351L106,347L108,342L108,338L110,334L110,329L112,324L113,320L114,315L115,309L117,303L118,298L119,293L120,289L122,284L123,279L124,274L125,270L126,266L127,262L127,258L128,254L129,250L130,246L131,242L131,238L132,235L132,231L132,228L133,225L133,221L133,218L133,214L134,211L134,207L134,204L134,200L134,196L135,193L135,190L135,187L135,184L136,182L136,180L137,179L137,177L137,176" stroke-opacity="1" stroke-width="10" stroke-linecap="round" stroke-linejoin="round" style="-webkit-tap-highlight-color: rgba(0, 0, 0, 0); stroke-opacity: 1; stroke-linecap: round; stroke-linejoin: round; -webkit-user-select: text;"></path><path fill="none" stroke="#000000" d="M207,81L205,85L205,87L205,91L205,95L205,99L205,104L205,111L204,116L203,123L203,129L202,135L201,141L200,148L200,155L200,163L199,170L199,177L199,185L199,192L199,199L199,206L198,213L198,220L198,225L198,233L198,238L198,245L198,251L198,258L198,263L198,270L198,275L198,281L198,286L198,291L198,297L198,301L198,306L198,310L198,313L198,315L196,315" stroke-opacity="1" stroke-width="10" stroke-linecap="round" stroke-linejoin="round" style="-webkit-tap-highlight-color: rgba(0, 0, 0, 0); stroke-opacity: 1; stroke-linecap: round; stroke-linejoin: round; -webkit-user-select: text;"></path><path fill="none" stroke="#000000" d="M322,77L324,82L324,84L324,88L324,92L324,96L324,101L322,105L322,110L321,115L321,120L320,125L320,130L319,135L319,141L319,147L319,153L319,159L318,165L317,172L317,178L317,185L317,191L316,203L316,210L316,216L315,223L315,230L315,237L315,244L315,251L315,257L315,264L315,271L314,276L314,282L314,289L314,295L314,300L314,306L314,311L314,316L314,320L314,323" stroke-opacity="1" stroke-width="10" stroke-linecap="round" stroke-linejoin="round" style="-webkit-tap-highlight-color: rgba(0, 0, 0, 0); stroke-opacity: 1; stroke-linecap: round; stroke-linejoin: round; -webkit-user-select: text;"></path><path fill="none" stroke="#000000" d="M429,97L428,104L428,108L428,113L428,118L428,125L428,131L428,137L428,142L428,148L428,153L428,157L428,161L428,165L428,169L428,174L428,179L428,184L427,191L427,197L427,203L426,209L426,216L425,222L425,228L424,234L423,240L422,247L421,253L421,259L420,265L419,272L419,277L419,284L419,290L419,296L419,301L419,307L419,313L419,318L419,324L419,330L419,335L419,340L419,345L419,350L419,354L419,359L419,364L419,369L419,374L419,378L419,381L419,384L420,386L420,388L420,390L421,393" stroke-opacity="1" stroke-width="10" stroke-linecap="round" stroke-linejoin="round" style="-webkit-tap-highlight-color: rgba(0, 0, 0, 0); stroke-opacity: 1; stroke-linecap: round; stroke-linejoin: round; -webkit-user-select: text;"></path><path fill="none" stroke="#000000" d="M465,408L465,405L465,403L465,400L465,397L465,393L465,390L465,387L465,383L465,379L465,374L465,368L465,363L465,359L465,354L465,349L465,345L465,340L464,335L464,330L464,325L464,320L464,315L464,310L464,305L464,300L464,295L464,290L464,285L464,280L464,275L464,270L464,265L464,259L464,252L465,246L465,241L465,235L466,230L466,225L467,220L467,216L467,211L467,205L467,200L467,195L467,190L467,185L468,180L468,175L468,170L469,165L469,159L469,153L470,148L470,143L470,139L470,135L470,131L470,127L470,124L470,121L470,118L470,116L470,114L470,111" stroke-opacity="1" stroke-width="10" stroke-linecap="round" stroke-linejoin="round" style="-webkit-tap-highlight-color: rgba(0, 0, 0, 0); stroke-opacity: 1; stroke-linecap: round; stroke-linejoin: round; -webkit-user-select: text;"></path><path fill="none" stroke="#000000" d="M513,89L512,92L512,95L512,99L513,105L513,110L514,116L514,122L515,128L515,133L515,139L515,145L515,151L515,156L515,162L515,169L515,175L515,181L515,188L515,194L515,201L515,208L515,216L515,224L515,232L515,239L515,247L515,254L515,261L515,268L515,275L515,281L515,288L515,295L515,300L515,306L515,312L515,319L515,325L515,330L515,337L515,344L515,351L515,357L515,364L516,371L516,378L516,384L517,393L518,399L520,406" stroke-opacity="1" stroke-width="10" stroke-linecap="round" stroke-linejoin="round" style="-webkit-tap-highlight-color: rgba(0, 0, 0, 0); stroke-opacity: 1; stroke-linecap: round; stroke-linejoin: round; -webkit-user-select: text;"></path><path fill="none" stroke="#000000" d="M669,99L669,103L669,106L669,110L669,115L670,122L670,127L671,133L671,139L671,145L671,152L671,157L671,164L671,170L671,177L671,182L671,189L671,195L671,202L671,208L671,214L671,221L671,228L671,234L671,242L671,249L671,256L671,264L671,271L671,278L671,285L671,292L671,299L671,304L671,311L671,318L671,323L671,328L671,334L671,340L671,347L671,354L671,362L671,369L671,376L671,382L671,388L671,396L671,400L671,405L671,410L671,415L671,421L671,426L671,430L672,435L672,439L672,443L672,445" stroke-opacity="1" stroke-width="10" stroke-linecap="round" stroke-linejoin="round" style="-webkit-tap-highlight-color: rgba(0, 0, 0, 0); stroke-opacity: 1; stroke-linecap: round; stroke-linejoin: round; -webkit-user-select: text;"></path><path fill="none" stroke="#000000" d="M606,335L607,331L607,328L607,325L607,322L607,318L607,315L607,311L607,307L607,303L607,299L607,295L607,291L607,286L607,282L607,277L607,273L607,267L607,262L606,257L606,252L606,247L606,240L605,235L605,230L605,224L604,218L604,212L604,206L604,201L604,194L603,188L603,183L603,177L602,171L602,166L602,160L601,155L601,150L601,145L601,139L601,135L601,130L600,125L600,121L600,116L599,113L599,109L599,105L599,102L599,99L599,97L598,94L598,93L598,92L597,91" stroke-opacity="1" stroke-width="10" stroke-linecap="round" stroke-linejoin="round" style="-webkit-tap-highlight-color: rgba(0, 0, 0, 0); stroke-opacity: 1; stroke-linecap: round; stroke-linejoin: round; -webkit-user-select: text;"></path><path fill="none" stroke="#000000" d="M650,471L652,475L652,477L652,481L652,486L652,493L652,500L653,507L653,512L654,518L654,524L654,529L654,534L654,540L654,545L654,552L654,557L654,563L654,570L654,577L654,584L654,590L654,597L654,603L655,609L655,614L655,620L655,627L656,634L656,639L657,645L657,651L658,657L658,663L658,668L658,675L658,681L658,686L658,691L658,696L658,699L658,703L658,707L658,711L657,716L656,721L655,725L655,729L655,733L655,735" stroke-opacity="1" stroke-width="10" stroke-linecap="round" stroke-linejoin="round" style="-webkit-tap-highlight-color: rgba(0, 0, 0, 0); stroke-opacity: 1; stroke-linecap: round; stroke-linejoin: round; -webkit-user-select: text;"></path><path fill="none" stroke="#000000" d="M498,676L499,673L499,669L499,664L499,659L500,654L502,648L503,642L504,633L506,624L506,617L507,609L507,602L507,597L508,590L508,582L509,575L509,567L509,560L509,553L509,546L509,540L509,533L509,524L508,518L507,511L507,503L506,496L505,489L504,482L504,475L504,469L503,464L503,460L503,456L503,454L503,451L503,449L500,445" stroke-opacity="1" stroke-width="10" stroke-linecap="round" stroke-linejoin="round" style="-webkit-tap-highlight-color: rgba(0, 0, 0, 0); stroke-opacity: 1; stroke-linecap: round; stroke-linejoin: round; -webkit-user-select: text;"></path><path fill="none" stroke="#000000" d="M210,612L217,611L221,611L227,611L234,610L241,609L248,609L255,609L262,609L270,609L277,608L285,608L293,607L300,607L308,607L316,607L323,607L330,607L337,607L344,607L351,608L357,608L363,609L368,609L375,610L380,611L387,611L393,612L399,612L405,614L410,614L415,615L419,616L422,616L424,616L424,617" stroke-opacity="1" stroke-width="10" stroke-linecap="round" stroke-linejoin="round" style="-webkit-tap-highlight-color: rgba(0, 0, 0, 0); stroke-opacity: 1; stroke-linecap: round; stroke-linejoin: round; -webkit-user-select: text;"></path><path fill="none" stroke="#000000" d="M360,543L361,550L361,554L362,560L363,566L364,572L365,579L365,584L366,590L366,595L367,602L367,607L367,612L368,619L368,625L369,639L370,645L370,651L372,658L373,665L373,671L375,678L375,685L376,692L377,697L377,704L378,710L378,715L378,721L379,728L379,735L380,741L380,748L380,753L381,758L381,762L381,766L381,769L381,771L381,772L378,770L375,769" stroke-opacity="1" stroke-width="10" stroke-linecap="round" stroke-linejoin="round" style="-webkit-tap-highlight-color: rgba(0, 0, 0, 0); stroke-opacity: 1; stroke-linecap: round; stroke-linejoin: round; -webkit-user-select: text;"></path><path fill="none" stroke="#000000" d="M348,786L340,780L337,780L335,780L333,779L330,778L328,778L325,777L322,777L319,777L315,776L311,775L306,774L302,773L296,772L291,772L286,772L280,772L275,771L268,771L262,770L257,769L253,768L248,768L244,767L239,767L235,766L232,766L228,765L224,765L220,765L216,765L212,765L208,765L204,764L200,764L196,763L192,763L188,762L184,761L180,760L176,760L171,759L168,758L164,758L160,757L157,757L153,756L150,756L146,755L143,754L139,754L135,754L132,753L129,753L126,753L124,753L123,753L122,753L120,753L118,753L113,753" stroke-opacity="1" stroke-width="10" stroke-linecap="round" stroke-linejoin="round" style="-webkit-tap-highlight-color: rgba(0, 0, 0, 0); stroke-opacity: 1; stroke-linecap: round; stroke-linejoin: round; -webkit-user-select: text;"></path><path fill="none" stroke="#000000" d="M74,788L71,782L71,779L70,775L69,771L68,765L68,760L67,754L67,749L66,743L66,736L65,730L65,724L65,718L64,712L64,706L63,700L62,694L62,687L60,679L59,673L57,666L56,659L54,653L52,646L51,640L50,634L48,627L47,620L45,612L44,606L42,599L41,592L40,585L39,579L38,573L37,566L37,559L36,553L35,546L35,540L35,534L34,527L34,521L34,515L34,510L34,505L34,500L34,496L34,493L35,490L35,488L35,486" stroke-opacity="1" stroke-width="10" stroke-linecap="round" stroke-linejoin="round" style="-webkit-tap-highlight-color: rgba(0, 0, 0, 0); stroke-opacity: 1; stroke-linecap: round; stroke-linejoin: round; -webkit-user-select: text;"></path><path fill="none" stroke="#000000" d="M21,529L25,527L28,527L33,527L37,527L43,527L50,527L58,527L66,527L74,527L82,527L91,526L100,525L108,525L116,524L125,524L135,524L144,524L154,524L164,524L173,524L182,524L192,524L200,524L209,524L218,524L225,524L232,524L239,524L246,524L252,524L258,524L263,525L268,525L273,526L279,526L284,526L290,526L295,526L300,527L305,527L310,527L315,527L320,527L324,527L329,527L333,527L337,527L341,527L346,527L350,527L354,527L359,527L364,527L369,527L374,528L380,528L385,529L390,529L395,529L401,530L406,530L412,531L418,531L424,532L429,532L435,532L441,532L447,532L454,532L459,533L465,533L471,534L477,534L483,534L489,534L495,535L502,535L508,535L514,535L521,535L527,535L533,536L538,536L544,536L551,536L558,536L562,536L568,536L576,536L582,536L587,536L594,536L601,536L607,536L612,536L618,536L625,536L631,536L636,536L642,536L647,537L652,537L657,537L662,537L666,537L671,538L675,538L680,539L684,539L689,540L693,541L697,541L701,541L704,541" stroke-opacity="1" stroke-width="10" stroke-linecap="round" stroke-linejoin="round" style="-webkit-tap-highlight-color: rgba(0, 0, 0, 0); stroke-opacity: 1; stroke-linecap: round; stroke-linejoin: round; -webkit-user-select: text;"></path><path fill="none" stroke="#000000" d="M182,329L195,324L200,324L205,323L212,321L218,319L224,318L230,316L236,315L242,314L247,313L252,312L257,312L262,312L268,312L273,312L279,312L286,312L292,312L299,312L305,312L312,312L319,312L326,312L333,312L339,312L346,312L353,312L360,312L367,312L375,312L382,313L390,313L397,313L404,314L412,315L420,315L428,317L435,318L444,319L452,320L460,321L468,323L476,324L484,325L493,326L501,327L509,328L516,329L526,330L533,330L540,331L548,331L555,332L562,333L569,334L577,335L584,335L591,336L599,337L605,337L612,337L618,338L625,339L630,339L637,339L642,339L648,339L654,339L659,339L664,339L669,339L674,339L679,339L684,339L690,339L695,340L700,340L706,341L711,342" stroke-opacity="1" stroke-width="10" stroke-linecap="round" stroke-linejoin="round" style="-webkit-tap-highlight-color: rgba(0, 0, 0, 0); stroke-opacity: 1; stroke-linecap: round; stroke-linejoin: round; -webkit-user-select: text;"></path></svg>