<svg height="874" version="1.1" width="768" xmlns="http://www.w3.org/2000/svg" xmlns:xlink="http://www.w3.org/1999/xlink" style="overflow: hidden; position: relative; -webkit-user-select: text;"><desc style="-webkit-tap-highlight-color: rgba(0, 0, 0, 0); -webkit-user-select: text;">Created with Raphaël 2.2.0</desc><defs style="-webkit-tap-highlight-color: rgba(0, 0, 0, 0); -webkit-user-select: text;"></defs><path fill="none" stroke="#000000" d="M111,357L114,350L115,349L116,348L117,346L118,344L120,342L122,340L123,339L124,337L125,335L127,333L129,331L131,329L133,328L135,325L137,323L139,321L142,319L143,317L145,316L147,314L148,312L150,311L152,309L153,308L155,306L158,304L161,303L164,301L166,299L169,297L171,295L174,292L177,290L179,288L182,286L186,284L189,282L193,280L195,278L198,276L200,275L203,273L207,270L211,268L215,266L219,264L223,262L227,260L232,258L236,257L241,255L245,253L249,252L252,250L256,248L261,247L265,246L270,245L274,243L278,242L281,240L285,239L289,237L293,236L297,235L300,234L304,233L307,233L310,232L313,232L316,231L319,231L322,230L324,230L327,230L329,229L331,229L333,229L335,229L337,229L339,229L341,229L344,229L347,228L350,228L352,228L353,228L356,228L357,228L359,228L361,228L362,228L363,228L365,228L366,228L368,227L370,227L371,227L373,227L374,227L376,227L377,227L378,227L380,227L381,227L382,227L383,227L384,227L385,226L386,226L387,226L390,225" stroke-opacity="1" stroke-width="5" stroke-linecap="round" stroke-linejoin="round" style="-webkit-tap-highlight-color: rgba(0, 0, 0, 0); stroke-opacity: 1; stroke-linecap: round; stroke-linejoin: round; -webkit-user-select: text;"></path><path fill="none" stroke="#000000" d="M208,343L209,338L209,337L209,336L209,335L209,334L210,332L210,330L212,328L213,327L215,325L217,323L219,321L221,319L223,316L225,314L226,312L227,311L229,310L230,309L231,308" stroke-opacity="1" stroke-width="5" stroke-linecap="round" stroke-linejoin="round" style="-webkit-tap-highlight-color: rgba(0, 0, 0, 0); stroke-opacity: 1; stroke-linecap: round; stroke-linejoin: round; -webkit-user-select: text;"></path><path fill="none" stroke="#000000" d="M256,310L260,306L261,306L262,305L263,304L265,303L266,302L267,301L268,301L270,300L271,299L272,298L273,298L275,297L276,296L278,295L279,294L281,293L282,293L284,291L285,291L287,290L288,289L289,289L290,289L291,288L293,287L294,286L295,286L297,285L298,284L299,283L300,282L301,281L302,281L304,279L305,278L306,277L307,276L308,274L310,273L311,272L312,271L313,270L314,269L315,268L316,267L317,265L319,264L319,263L321,261L322,260L322,258L323,257L324,256L324,255L324,253L325,252L325,251L326,250L326,249L327,248L327,247L328,245L328,244L329,242L329,241L330,240L330,238L331,237L331,236L331,235L332,233L332,231L333,230L333,229L333,228L334,228L334,227L334,225L335,223L336,221L336,220L337,218L337,217L338,216L339,214L340,213L341,211L341,210L342,208L344,207L345,206L346,204L348,203L349,202L351,201L352,199L353,198L355,196L356,195L357,194L358,192L360,191L361,190L363,189L364,187L366,187L368,185L369,184L371,183L373,182L374,181L376,180L378,179L379,179L381,178L382,177L384,177L385,177L386,177L388,176L389,176L390,175L392,175L392,174L393,174L394,174L395,174" stroke-opacity="1" stroke-width="5" stroke-linecap="round" stroke-linejoin="round" style="-webkit-tap-highlight-color: rgba(0, 0, 0, 0); stroke-opacity: 1; stroke-linecap: round; stroke-linejoin: round; -webkit-user-select: text;"></path><path fill="none" stroke="#000000" d="M428,174L434,180L434,181L434,182L435,184L436,186L436,187L437,189L437,190L438,192L438,193L439,194L439,196L440,197L440,199L440,200L440,201L441,201L441,202L441,203L441,204L441,205L441,206L441,207L441,208L441,210L441,211L441,213L441,215L441,217L441,219L441,221L440,223L439,225L439,227L438,228L437,230L436,231L436,233L434,235L433,237L432,239L430,241L429,242L428,244L426,245L425,247L423,248L421,249L419,250L418,251L416,252L414,253L413,254L411,255L409,256L407,257L405,258L403,259L400,260L397,261L395,262L392,264L390,264L387,265L385,266L383,267L380,267L378,267L375,268L372,268L369,269L366,269L363,269L361,269L358,269L356,269L355,269L353,269L351,269L348,269L346,269L343,269L341,269L339,269L336,269L335,269L333,268L331,268L329,267L328,267L326,266L324,265L322,265L320,264L318,264L316,263L314,262L312,262L310,262L308,261L306,260L304,260L301,260L299,259L297,259L294,259L292,259L289,259L287,258L284,258L282,258L280,258L278,258L275,258L273,258L271,258L268,258L265,258L263,258L260,258L258,258L256,258L253,258L251,259L249,259L246,259L244,260L241,261L239,262L236,263L234,264L232,265L230,266L228,267L226,268L224,269L222,271L220,272L217,273L215,274L213,275L211,276L209,278L207,279L205,281L203,283L201,285L199,287L197,289L195,291L192,293L191,296L188,298L187,300L186,301L184,303L183,304L182,305L181,306L180,307L179,309L178,311L176,313L176,314L174,316L174,318L172,320L171,322L171,324L169,326L169,328L168,330L167,332L166,334L166,335L165,337L165,339L164,340L164,342L164,345L164,347L164,349L164,351L164,353L164,354L164,356L164,358L164,359L164,361L164,362L164,364L164,365L165,367L165,369L166,370L167,372L168,373L169,374L169,376L170,376L171,377L172,379L173,380L174,381L175,382L176,383L177,384L178,385L180,386L181,387L182,388L183,388L185,388L186,389L188,390L189,390L191,391L193,391L195,391L196,392L198,392L199,392L200,392L202,393L204,393L206,393L208,393L210,394L212,394L214,394L216,394L217,394L219,394L220,394L222,394L223,394L224,394L225,394L227,394L228,394L229,394L231,394L232,394L234,394L235,394L236,394L238,394L239,393L241,393L243,393L244,393L246,392L247,391L248,391L249,391L250,390L251,389L252,389L253,389L254,388L256,388L256,387L258,386L259,386L260,385L262,384L264,383L266,383L268,381L270,380L273,378L275,376L277,374L280,372" stroke-opacity="1" stroke-width="5" stroke-linecap="round" stroke-linejoin="round" style="-webkit-tap-highlight-color: rgba(0, 0, 0, 0); stroke-opacity: 1; stroke-linecap: round; stroke-linejoin: round; -webkit-user-select: text;"></path><path fill="none" stroke="#000000" d="M194,365L199,362L200,362L201,362L202,362L203,362L205,361L206,361L207,360L209,359L210,359L212,358L214,357L216,356L218,355L220,354L222,353L223,352L225,352L226,351L227,349L229,349L230,347L232,347L234,346L236,345L239,344L241,342L243,341L245,340L248,339L250,338L252,337L254,335L256,335L259,333L261,332L263,331L266,330L268,329L271,328L273,326L276,325L278,324L280,323L282,321L284,320L287,318L289,317L292,316L295,314L297,313L300,312L302,311L305,310L307,308L309,307L312,306L314,305L317,304L319,303L321,302L324,301L326,300L329,299L331,298L333,296L334,295L336,294L339,293L341,292L342,291L344,290L346,289L347,288L349,287L350,286L351,286L352,286L353,285L354,285L354,284L355,284L355,283L355,282L355,281L355,280L355,279L356,279L356,278" stroke-opacity="1" stroke-width="5" stroke-linecap="round" stroke-linejoin="round" style="-webkit-tap-highlight-color: rgba(0, 0, 0, 0); stroke-opacity: 1; stroke-linecap: round; stroke-linejoin: round; -webkit-user-select: text;"></path><path fill="none" stroke="#000000" d="M353,258L356,263L356,264L357,266L357,267L358,269L359,271L359,273L360,274L361,275L362,276L363,278L364,280L365,281L366,284L368,286L369,288L370,290L371,292L372,295L373,297L375,298L376,300L377,301L378,302L378,303L379,304L380,305L380,307L381,308L382,309L383,311L383,312L384,314L385,316L386,317L386,319L387,320L388,323L389,324L390,325L391,326L392,327L392,329L393,330L394,331L395,332L395,333L396,334L397,335L398,336L399,337L399,338L400,339L401,340L401,341L402,342L403,342L403,343L404,344L404,345L405,345L406,345L407,347" stroke-opacity="1" stroke-width="5" stroke-linecap="round" stroke-linejoin="round" style="-webkit-tap-highlight-color: rgba(0, 0, 0, 0); stroke-opacity: 1; stroke-linecap: round; stroke-linejoin: round; -webkit-user-select: text;"></path><path fill="none" stroke="#000000" d="M456,279L452,281L451,281L450,281L448,281L447,281L446,281L444,281L443,281L442,281L441,281L439,281L438,281L436,281L435,281L434,281L432,282L430,282L428,283L426,284L424,284L422,285L420,286L419,286L417,286L415,287L414,288L412,289L409,289L407,291L406,291L404,292L402,293L400,294L397,296L395,297L394,298L392,300L390,301L389,302L387,303L386,304L385,305L384,306L383,307L382,308L381,310L380,311L379,312L378,313L377,314L376,315L375,317L375,318L374,318L373,320L372,322L371,322L370,323L370,324L369,325L368,326L368,327L367,328L366,328L366,329L365,330L364,331L364,332L363,333L363,334L363,335L362,335L362,336L361,337L361,338L360,339L360,340L359,341L359,342L358,343L358,344L358,345L357,346L357,347L356,348L356,349L356,350L355,352L355,353L354,354L353,356L353,357L353,358L352,359L351,360L351,362L350,363L350,364L349,366L349,368L349,369L348,371L347,373L346,374L346,376L345,378L344,379L344,381L343,382L342,383L342,385L341,386L340,388L339,389L339,391L338,393L337,395L336,397L335,398L334,400L333,402L332,403L331,404L330,405L329,407L328,408L327,410L326,410L324,412L323,414L322,415L320,417L319,418L317,420L315,422L313,423L312,425L310,427L308,428L307,429L305,430L304,431L303,432L302,433L300,433L299,434L298,434L297,435L295,436L294,437L293,438L292,439L291,439L290,439L289,440L288,441L287,441L285,442L284,443L283,444L281,445L280,446L278,447L277,447L276,447L275,448L273,449L272,449L271,450L269,451L268,451L266,452L265,452L264,453L263,453L262,454L261,454L260,454L259,455L258,455L257,455L256,455L255,455L254,455L253,455L252,455L251,455L250,456L249,456L248,456L247,456L246,456L245,456L244,456L243,456L242,456L241,456L240,456L239,456L238,456L237,456L236,456L235,456L234,456L234,455L233,455L232,454L231,453L230,453L229,451L228,451L227,450L226,448L226,447L225,446L224,444" stroke-opacity="1" stroke-width="5" stroke-linecap="round" stroke-linejoin="round" style="-webkit-tap-highlight-color: rgba(0, 0, 0, 0); stroke-opacity: 1; stroke-linecap: round; stroke-linejoin: round; -webkit-user-select: text;"></path><path fill="none" stroke="#000000" d="M174,438L180,433L182,433L184,433L186,432L188,431L191,430L193,429L194,428L196,427L198,425L200,425L201,423L203,421L205,420L208,419L210,417L212,417L215,416L217,415L219,415L221,413L222,413L224,412L226,411L227,410L229,410L230,409L232,408L234,407L236,406L238,405L240,404L242,402L244,401L246,400L249,398L250,397L252,396L254,395L256,394L259,393L261,391L263,390L265,389L268,388L270,386L272,386L274,384L276,383L278,382L280,381L282,380L284,379L286,378L288,376L290,375L292,374L294,374L295,372L297,371L299,370L300,369L302,368L304,367L305,366L307,365L308,364L310,363L311,362L313,362L314,360L316,359L318,359L319,358L321,358L322,357L323,357L324,356L325,356L326,356L327,355L328,355L329,355L330,355L331,355L332,355L332,356L333,356L334,357L334,358L335,359L336,360L336,361L337,362L338,363L339,364L340,365L340,366L341,368L342,369L342,371L343,372L344,374L345,375L345,376L346,377L347,379L347,380L348,381L349,382L349,383L349,384L350,385L351,386L351,387L352,388L352,389L353,391L353,392L354,393L355,394L356,396L357,397L358,398L358,399L359,400L360,400L361,401L362,402L363,403L363,404L365,405L366,405L367,406L368,407L369,408L371,408L372,408L373,409L375,409L376,410L378,410L380,410L381,410L383,410L384,410L386,410L388,410L390,411L392,411L393,411L395,411L397,411L399,411L400,411L402,411L403,411L404,411L405,411L407,411L407,410L408,410L409,410L410,409L411,409L412,408L413,408L414,407L416,407L417,406L418,405L419,405L420,404L421,403L422,403L423,402L424,401L425,401L426,400L426,399L427,397L428,396L428,394L429,391L430,387L430,382" stroke-opacity="1" stroke-width="5" stroke-linecap="round" stroke-linejoin="round" style="-webkit-tap-highlight-color: rgba(0, 0, 0, 0); stroke-opacity: 1; stroke-linecap: round; stroke-linejoin: round; -webkit-user-select: text;"></path><path fill="none" stroke="#000000" d="M360,376L364,373L366,373L367,372L369,372L370,371L372,370L373,369L375,369L376,368L378,367L379,366L380,365L381,365L382,364L383,363L385,363L386,362L387,361L388,360L390,359L392,359L393,358L395,357L396,356L397,355L399,355L400,354L402,353L404,352L405,351L407,349L409,349L410,347L412,347L413,345L415,345L416,344L417,342L419,342L420,341L422,340L424,339L425,338L426,337L428,336L430,335L431,334L433,333L435,332L436,331L437,331L438,330L440,329L441,328L442,327L443,326L445,325L446,324L448,323L449,322L450,322L451,320L453,320L454,319L455,318L457,318L458,317L459,316L460,315L461,314L462,313L463,313L464,312L465,312L466,311" stroke-opacity="1" stroke-width="5" stroke-linecap="round" stroke-linejoin="round" style="-webkit-tap-highlight-color: rgba(0, 0, 0, 0); stroke-opacity: 1; stroke-linecap: round; stroke-linejoin: round; -webkit-user-select: text;"></path><path fill="none" stroke="#000000" d="M404,273L407,280L407,281L407,283L408,284L409,286L409,288L411,290L412,292L412,294L413,296L414,298L415,301L416,302L418,304L419,307L420,309L422,312L423,314L424,317L426,319L427,321L428,324L429,326L430,328L431,330L432,331L433,333L434,335L435,337L436,340L437,341L438,343L438,345L439,347L440,349L441,350L442,352L443,354L443,355L444,357L445,358L446,360L447,361L447,363L448,364L449,366L450,367L451,369L451,370L452,371L452,372L453,373L453,374L453,375L454,375L454,376L454,377L454,378L454,379L454,380L454,381L454,382L454,383L454,384L454,386L454,387L454,388L454,391L454,393L454,394L453,397L452,399L451,401L449,404L448,406L446,408L444,410L443,413L441,415L439,417L437,419L435,421L433,423L431,425L429,426L428,427L426,429L424,430L423,432L421,432L419,433L417,434L416,435L414,436L412,437L411,438L409,439L407,439L406,440L404,441L402,441L400,442L399,442L397,442L395,442L394,442L392,442L391,442L389,442L388,442L387,442L385,442L383,442L382,442L381,442L380,442L379,442L378,442L377,442L375,442L374,442L373,441L372,440L371,439L370,439L368,439L368,437L366,437L365,436L364,436L363,434L362,434L361,434L361,433L359,432L358,431L357,429L356,428L355,427L353,426L352,424L351,423L350,422L349,421L348,420L346,418L345,417L344,416L343,415L341,413L340,412L339,410L338,409L337,408L336,407L335,405L334,404L333,403L333,402L331,401L331,399L330,397L329,395L328,393L327,391L325,388L324,387L324,386L322,384L322,383L321,382L319,380L318,378L317,376L315,373L314,371L313,368L312,366L310,364L310,362L309,361L308,360L307,359L306,357L306,355L305,354L304,352L303,350L303,349L302,347L301,345L300,344L300,342L299,341L298,339L298,337L297,336L296,334L295,332L295,331L294,330L293,328L292,326L292,325L291,323L290,323L290,321L289,320L288,319L288,318L287,317L287,315L286,314L286,313L286,311L286,308" stroke-opacity="1" stroke-width="5" stroke-linecap="round" stroke-linejoin="round" style="-webkit-tap-highlight-color: rgba(0, 0, 0, 0); stroke-opacity: 1; stroke-linecap: round; stroke-linejoin: round; -webkit-user-select: text;"></path><path fill="none" stroke="#000000" d="M321,267L321,273L321,275L321,277L321,280L321,282L320,286L320,289L319,292L319,296L318,299L318,302L318,305L317,309L317,312L317,316L317,319L317,323L317,326L317,330L317,332L317,336L317,340L317,343L317,346L317,348L317,351L317,354L317,357L317,360L317,363L317,366L316,369L316,373L316,376L316,379L316,382L316,385L316,388L316,391L316,393L316,396L316,398L316,402L316,404L316,407L315,409L315,412L314,414L314,417L314,418L314,420L314,422L314,423L314,424L314,425L314,426L314,427L315,427L317,427L319,427L321,427L324,427L326,427L328,427L330,427L332,427L334,427L337,427L339,427L341,427L344,426L346,426L349,425L351,425L353,425L355,424L357,423L358,423L361,422L363,422L365,422L367,421L369,420L371,420L373,419L375,418L377,417L379,417L381,416L383,415L385,415L387,414L389,414L391,414L392,413L395,413L397,413L398,413L400,413L402,413L404,413L405,413L407,413L408,413L410,413L412,413L413,413L414,413L416,413L417,413L419,414L420,415L421,415L423,415L424,416L425,417L426,418L427,419L429,420L430,422L431,423L432,425L433,427L433,429L434,430L434,432L435,433L436,435L436,437L436,439L437,441L437,442L437,444L437,446L437,448L437,450L437,451L437,454L437,456L437,458L437,459L437,461L436,463L436,464L434,466L434,467L432,468L431,470L430,471L428,473L426,475L424,477L422,479L420,481L418,482L416,484L414,485L412,486L409,488L407,488L405,489L402,490L399,491L396,492L394,492L392,493L390,493L387,493L386,493L384,493L383,493L381,493L380,493L378,493L377,493L375,493L374,493L373,492L371,491L370,491L369,490L368,489L367,489L366,488L365,487L364,486L363,485L362,483L361,481L361,480L361,479L361,478L361,477L361,476L361,474L361,473L361,472L361,471L361,469L361,468L361,467L361,466L361,465L361,464L361,463L362,462L362,461L363,460L364,459L365,459L366,457L367,456L368,455L369,455L370,454L371,453L373,453L375,452L379,451L383,449L388,448" stroke-opacity="1" stroke-width="5" stroke-linecap="round" stroke-linejoin="round" style="-webkit-tap-highlight-color: rgba(0, 0, 0, 0); stroke-opacity: 1; stroke-linecap: round; stroke-linejoin: round; -webkit-user-select: text;"></path><path fill="none" stroke="#000000" d="M395,467L402,459L404,459L406,459L408,459L410,458L412,457L415,456L417,455L420,454L423,453L426,451L429,450L431,448L434,447L436,445L439,443L441,442L444,440L447,439L449,438L452,436L454,435L455,434L458,433L459,432L461,431L463,430L465,428L467,427L469,425L472,423L474,422L477,420L479,419L482,417L485,415L487,414L490,413L494,411L497,410L500,409L503,408L507,406L509,405L511,403L514,402L516,400L517,400L519,399L520,398L521,398L521,397L521,396L522,396L522,395L522,393L522,392L522,391L522,389L522,388L522,386L522,385L522,383L521,382L521,381L520,380L519,378L517,376L516,374L514,371L513,369L511,366L510,364L509,363L507,361L505,359L503,357L501,355L499,353L497,351L494,349L493,347L492,345L490,343L489,340L488,338L487,335L486,333L486,331L486,328L486,325L486,322L488,318L490,315L492,313L495,311L498,310L501,309L504,308L506,308L508,307L510,306L512,306L514,306L516,305L518,304L520,303L522,301L524,301L526,298L527,297L529,296L531,293L533,291L534,289L536,288L537,286L538,284L539,282L540,279L541,277L542,274L543,271L543,268L544,265L544,262L544,260L544,258L544,256L543,254L542,252L541,250L539,248L537,247L536,245L533,243L530,241L527,240L524,238L519,238L515,237L510,237L505,237L499,237L494,237L490,237L484,239L479,241L475,243L471,245L468,248L465,250L462,253L459,256L456,259L453,263L451,267L448,270L446,274L444,276L443,279L442,283L442,286L441,290L441,294L441,298L441,302L442,306L443,310L445,313L447,317L448,320L451,324L452,328L454,331L455,333L457,336L458,340L460,342L461,345L462,348L464,352L465,354L467,356L468,359L470,360L472,362L473,363L475,364L477,364L478,364L480,364L482,364L484,364L486,364L488,363L490,362L492,361L495,360L497,359L500,358L502,357L505,355L508,354L510,352L512,352L515,350L517,348L519,347L522,345L524,345L526,344L528,343L530,342L532,342L534,342L536,342L537,342L539,342L541,343L542,344L543,345L545,347L546,349L548,351L549,352L550,354L551,357L552,358L553,360L555,362L555,364L557,366L558,369L558,370L559,372L560,374L560,375L561,377L562,379L562,380L562,382L563,383L563,386L563,388L563,390L563,393L563,395L563,398L563,400L562,403L560,405L559,408L557,410L554,413L552,415L549,418L547,420L544,422L541,425L538,427L535,430L532,431L528,432L526,433L523,434L520,434L518,435L516,435L514,435L512,435L510,436L509,436L507,436L505,436L503,436L501,436L499,436L498,436L496,436L494,436L492,435L491,435L489,434L487,434L485,434L483,434L481,433L478,433L475,432L473,432L470,431L468,431L465,431L463,430L460,430L457,429L453,429L450,429L446,429L443,429L439,429L436,429L433,429L430,429L427,429L424,429L421,429L418,429L415,429L412,430L409,430L407,431L403,432L400,433L396,434L393,435L390,436L387,437L385,438L382,439L379,441L377,442L374,443L371,444L368,447L364,449L361,450L358,453L355,455L352,457L349,459L345,461L342,464L339,466L337,468L335,470L332,471L330,473L328,476L325,477L322,480L319,482L315,484L312,486L307,489L303,492L299,495L293,499L288,504L284,507L280,512L275,515L270,518L264,521L259,523L253,525L247,527" stroke-opacity="1" stroke-width="5" stroke-linecap="round" stroke-linejoin="round" style="-webkit-tap-highlight-color: rgba(0, 0, 0, 0); stroke-opacity: 1; stroke-linecap: round; stroke-linejoin: round; -webkit-user-select: text;"></path><path fill="none" stroke="#000000" d="M193,530L196,534L196,536L197,537L197,538L198,539L199,541L200,542L201,545L203,546L203,549L205,551L206,552L207,554L208,556L210,557L212,558L213,560L215,561L217,563L218,564L220,566L220,567L222,568L223,570L224,571L225,572L226,574L227,575L228,577L229,579L230,580L231,582L232,583L233,585L234,586L235,588L236,589L237,590L238,591L239,592L240,593L241,595L242,595L242,597L243,597L244,598L244,599L245,600L246,601L247,602L247,603L248,604L249,605L250,606L251,606L251,607L252,607L253,608L255,608L256,608" stroke-opacity="1" stroke-width="5" stroke-linecap="round" stroke-linejoin="round" style="-webkit-tap-highlight-color: rgba(0, 0, 0, 0); stroke-opacity: 1; stroke-linecap: round; stroke-linejoin: round; -webkit-user-select: text;"></path><path fill="none" stroke="#000000" d="M154,446L161,460L165,462L169,464L173,465L177,467L182,468L186,468L190,470L193,470L197,471L201,471L206,471L210,472L215,472L220,473L223,473L227,473L232,473L236,473L241,473L245,473L249,473L253,473L257,473L261,473L265,472L268,471L272,471L275,471L278,471L281,471L285,471L288,471L291,471L295,471L298,471L301,471L304,471L307,471L310,471L312,471L315,472L318,472L321,473L324,475L327,476L330,477L333,478L336,480L338,481L341,483L343,485L346,486L348,488L350,490L352,492L353,495L355,497L356,500L357,502L358,504L358,506L358,508L359,510L359,512L359,514L359,517L359,519L359,521L359,524L359,527L358,529L358,532L356,535L355,537L353,539L352,542L349,544L346,548L344,550L341,553L338,555L335,557L332,559L329,560L327,561L324,562L321,563L318,564L315,564L313,565L311,565L308,565L307,565L305,565L302,565L300,565L298,565L295,564L293,563L290,562L289,561L287,560L285,559L284,558L282,556L280,555L278,553L276,550L274,548L272,546L269,542L267,540L265,538L263,536L262,533L261,531L260,528L259,526L258,522L257,520L256,517L255,514L254,511L254,508L253,504L253,499L252,496L252,493L252,489L252,486L252,483L252,479L252,476L252,473L252,470L252,468L252,465L253,462L254,459L254,456L256,453L256,451L258,447L259,445L260,442L261,439L263,437L264,433L266,430L268,427L270,424L271,420L273,417L276,413L278,410L280,407L282,404L284,401L286,398L289,395L291,391L294,388L296,385L299,381L301,379L303,376L305,373L308,369L311,365L313,363L315,359L318,357L321,353L323,350L325,347L326,345L328,342L329,340L331,337L332,335L333,332L334,330L335,328L336,326L337,323L338,320L339,318L340,316L341,313L342,311L342,308L343,306L344,304L344,301L345,299L345,296L346,294L346,291L347,289L347,286L348,284L348,281L348,279L348,276L348,274L348,271L348,268L348,265L348,263L348,260L348,258L347,255L346,254L346,251L345,250L344,247L343,245L341,242L340,240L339,237L337,235L335,233L334,231L332,229L330,227L329,226L327,224L325,223L323,222L321,221L319,219L317,218L315,217L313,216L310,214L309,213L307,212L305,211L303,210L301,209L299,208L297,206L294,205L292,204L290,203L288,202L285,200L283,199L282,198L280,196L278,195L276,193L274,191L272,189L270,187L268,185L266,182L264,180L262,179L261,177L259,174L258,172L257,170L256,167L256,165L256,161L256,157L256,154L255,151L255,147L254,143L254,138L254,132" stroke-opacity="1" stroke-width="5" stroke-linecap="round" stroke-linejoin="round" style="-webkit-tap-highlight-color: rgba(0, 0, 0, 0); stroke-opacity: 1; stroke-linecap: round; stroke-linejoin: round; -webkit-user-select: text;"></path><path fill="none" stroke="#000000" d="M246,112L250,118L251,120L253,122L254,124L256,126L259,128L261,130L262,133L264,135L266,137L269,139L271,141L274,142L276,144L278,145L280,147L283,148L285,149L287,151L290,152L292,153L294,155L296,156L298,158L300,160L302,161L303,163L305,165L306,167L307,169L308,171L309,173L310,174L310,176L311,177L311,179L311,182L311,184L311,186L311,188L311,189L311,191L310,193L309,194L308,196L307,197L305,198L303,199L302,200L300,201L298,201L295,202L292,202L289,202L286,202L283,202L279,202L276,202L273,202L270,202L267,202L263,202L260,203L256,203L253,204L249,204L245,204L241,205L237,205L234,206L230,208L227,209L225,211L222,212L220,213L217,215L215,217L212,219L211,221L209,223L207,225L206,228L204,230L203,233L202,235L200,239L199,242L198,245L198,248L197,251L197,254L196,257L196,261L196,265L196,269L196,272L197,275L198,278L200,280L203,283L205,286L208,288L212,290L216,293L220,295L225,296L231,296L239,296" stroke-opacity="1" stroke-width="5" stroke-linecap="round" stroke-linejoin="round" style="-webkit-tap-highlight-color: rgba(0, 0, 0, 0); stroke-opacity: 1; stroke-linecap: round; stroke-linejoin: round; -webkit-user-select: text;"></path><path fill="none" stroke="#000000" d="M161,242L170,238L173,238L176,236L180,234L185,233L190,231L195,230L199,228L205,226L212,224L217,223L222,221L227,218L232,216L237,214L242,212L246,210L250,209L254,206L259,205L264,202L270,201L275,199L280,196L286,194L292,191L298,189L304,186L310,184L316,182L322,180L328,177L334,175L341,173L347,171L353,170L358,167L363,165L369,162L374,161L379,158L383,157L387,154L391,153L395,152L400,150L403,149L406,148L409,146L412,146L415,145L417,144L419,143L421,143L423,143L425,143L426,142" stroke-opacity="1" stroke-width="5" stroke-linecap="round" stroke-linejoin="round" style="-webkit-tap-highlight-color: rgba(0, 0, 0, 0); stroke-opacity: 1; stroke-linecap: round; stroke-linejoin: round; -webkit-user-select: text;"></path><path fill="none" stroke="#000000" d="M484,110L481,104L478,104L476,104L472,103L469,102L465,101L461,100L455,100L449,100L442,100L436,100L430,101L424,101L419,103L415,104L412,106L408,107L405,109L403,110L400,112L398,114L396,116L395,118L392,121L391,123L389,126L387,128L386,131L385,135L383,138L382,142L381,146L380,150L378,153L377,157L376,160L376,164L375,167L375,171L375,174L375,178L375,182L375,185L375,188L375,192L375,195L375,199L376,202L378,206L380,208L381,211L383,215L384,218L386,221L388,223L390,226L392,228L394,230L396,232L398,235L401,237L403,239L406,241L408,243L411,245L413,247L415,247L418,248L421,250L423,251L426,251L428,252L431,252L432,252L434,253L436,253L438,254L441,254L443,255L444,255L446,255L448,255L451,255L453,255L454,255L456,255L458,255L460,255L461,255L463,255L465,254L467,254L468,253L470,252L472,252L474,251L475,251L477,250L479,249L480,249L482,248L483,247L484,246L485,246L486,245L487,244L488,243L489,242L490,241L491,240L492,240L493,238L494,238L495,236L496,235L497,234L498,234L499,233L499,232L500,231L501,230L502,229L503,228L504,227L505,226L506,225L507,224L507,223L508,222L509,221L510,220L511,219L511,217L512,216L513,215L514,213L515,212L516,211L516,210L517,208L519,208L519,207L520,206L521,205L522,204L523,203L524,202L525,201L526,199L527,199L528,198L530,196L531,195L532,194L533,193L534,192L536,191L537,190L538,189L539,188L541,187L541,186L543,185L544,184L545,184L547,183L548,182L550,182L551,182L553,181L554,181L555,180L557,179L558,179L559,179L560,179L562,179L563,179L564,179L565,179L567,179L568,179L570,179L571,179L572,179L573,179L575,179L576,179L577,179L579,179L580,179L581,179L582,179L583,179L584,179L585,180L586,180L587,181L588,182L589,183L589,184L590,184L591,185L591,187L592,188L593,189L593,190L594,191L594,193L595,194L595,196L596,200L596,205L597,211" stroke-opacity="1" stroke-width="5" stroke-linecap="round" stroke-linejoin="round" style="-webkit-tap-highlight-color: rgba(0, 0, 0, 0); stroke-opacity: 1; stroke-linecap: round; stroke-linejoin: round; -webkit-user-select: text;"></path><path fill="none" stroke="#000000" d="M645,168L640,172L638,172L635,172L633,172L630,172L627,173L625,174L623,174L621,174L619,175L617,176L615,176L612,177L610,177L607,178L604,179L601,179L598,180L594,181L590,182L587,183L582,184L578,184L575,185L571,186L567,187L563,188L559,188L555,189L551,190L547,191L543,191L538,192L534,193L530,194L526,194L521,196L517,196L513,198L509,199L505,199L501,200L496,201L492,201L488,202L485,203L481,204L477,204L473,205L470,206L466,206L463,207L460,208L457,208L454,209L451,209L447,210L444,211L441,211L439,212L437,212L436,212L435,212L434,211" stroke-opacity="1" stroke-width="5" stroke-linecap="round" stroke-linejoin="round" style="-webkit-tap-highlight-color: rgba(0, 0, 0, 0); stroke-opacity: 1; stroke-linecap: round; stroke-linejoin: round; -webkit-user-select: text;"></path><path fill="none" stroke="#000000" d="M417,159L423,162L425,164L426,166L429,168L431,170L433,172L436,174L438,177L441,179L444,181L446,184L449,186L453,187L455,189L459,191L462,192L465,193L468,194L471,195L475,196L478,197L482,198L485,199L489,199L492,200L496,201L499,202L503,202L506,203L509,204L513,204L516,206L519,206L522,208L526,209L528,210L532,212L534,213L537,215L540,216L542,218L544,220L547,221L549,223L551,225L553,226L555,228L556,229L558,231L559,234L561,235L562,238L564,241L565,244L566,247L567,250L568,252L569,254L570,256L571,259L572,262L572,264L572,267L573,270L573,272L573,275L573,277L573,280L573,282L573,285L573,287L573,290L573,293L573,296L573,298L573,301L572,304L572,306L571,309L570,311L569,314L568,316L567,319L565,322L565,324L563,326L562,328L560,330L559,331L558,333L556,335L554,337L552,339L550,341L549,343L547,346L545,349L543,351L541,354L538,358L536,361L533,366" stroke-opacity="1" stroke-width="5" stroke-linecap="round" stroke-linejoin="round" style="-webkit-tap-highlight-color: rgba(0, 0, 0, 0); stroke-opacity: 1; stroke-linecap: round; stroke-linejoin: round; -webkit-user-select: text;"></path><path fill="none" stroke="#000000" d="M634,218L630,220L629,220L627,220L625,221L623,221L621,221L618,222L615,222L612,223L609,223L606,223L604,224L601,224L598,225L595,225L592,225L589,226L585,226L582,227L578,228L574,229L570,230L566,231L562,233L557,235L552,237L548,239L545,241L541,243L538,245L534,247L531,250L529,252L526,255L524,257L521,261L519,264L518,267L516,270L515,273L513,276L512,280L511,282L509,286L509,290L508,293L507,296L506,300L505,303L505,306L504,309L504,312L504,315L504,318L504,321L504,324L504,327L504,329L504,331L504,333L504,336L504,338L504,340L504,343L505,345L506,348L506,350L507,352L507,355L508,357L509,359L510,361L511,363L511,366L512,368L513,370L514,372L514,374L515,376L516,378L517,380L518,381L519,383L520,385L521,386L521,388L522,389L523,391L524,392L524,394L525,396L525,397L526,398L526,399L527,401L527,403L528,405L528,406L528,408L529,409L529,410L530,412L530,414L531,415L531,417L531,419L531,421L531,423L532,425L532,427L532,430L532,432L532,434L532,437L532,439L532,441L532,443L532,446L532,448L532,451L531,453L531,455L531,456L530,458L529,459L529,461L528,462L528,464L527,466L527,467L526,468L525,470L524,472L524,473L522,474L521,476L521,478L519,480L518,481L517,483L516,484L514,486L513,488L511,489L509,491L507,493L506,494L503,496L501,499L499,500L497,502L494,504L492,506L490,507L488,509L486,510L484,512L482,513L480,515L477,515L472,517L465,519L456,524" stroke-opacity="1" stroke-width="5" stroke-linecap="round" stroke-linejoin="round" style="-webkit-tap-highlight-color: rgba(0, 0, 0, 0); stroke-opacity: 1; stroke-linecap: round; stroke-linejoin: round; -webkit-user-select: text;"></path><path fill="none" stroke="#000000" d="M395,534L400,529L402,528L406,526L410,524L414,521L419,518L425,515L430,513L435,510L440,507L446,504L452,501L457,498L462,495L467,492L472,490L476,487L481,485L485,483L490,480L494,478L499,475L504,472L510,468L514,466L519,463L524,461L529,457L533,455L538,452L544,449L550,446L555,442L561,439L566,436L570,433L575,430L579,429L583,426L586,424L589,422L592,420L595,418L596,417L598,416L599,415L601,415L601,414L602,414" stroke-opacity="1" stroke-width="5" stroke-linecap="round" stroke-linejoin="round" style="-webkit-tap-highlight-color: rgba(0, 0, 0, 0); stroke-opacity: 1; stroke-linecap: round; stroke-linejoin: round; -webkit-user-select: text;"></path><path fill="none" stroke="#000000" d="M624,377L622,384L622,385L622,387L622,389L622,393L621,396L621,399L620,402L619,405L618,409L617,413L616,415L615,419L613,422L611,426L609,430L607,433L605,437L602,441L600,444L598,447L595,451L593,454L590,458L587,461L585,464L582,466L579,468L576,471L572,473L569,476L566,478L562,480L558,482L555,483L550,485L546,487L542,488L538,490L534,490L531,492L528,493L524,493L520,494L517,495L514,495L510,495L507,495L503,495L500,495L496,495L492,495L489,495L485,495L482,494L479,493L476,492L473,490L470,490L468,488L465,487L463,485L460,483L458,482L456,480L454,478L452,477L451,475L449,473L447,471L446,469L444,467L443,465L442,463L441,461L440,459L439,456L438,454L438,452L437,450L437,448L436,445L436,444L436,441L435,439L435,437L435,434L435,431L435,429L435,426L435,424L435,422L435,419L435,417L436,414L436,412L437,409L438,406L438,404L439,402L440,399L441,397L442,395L443,393L444,391L446,389L447,388L448,386L450,384L452,383L454,381L456,379L458,378L460,376L461,375L463,374L465,373L468,371L474,369L481,365" stroke-opacity="1" stroke-width="5" stroke-linecap="round" stroke-linejoin="round" style="-webkit-tap-highlight-color: rgba(0, 0, 0, 0); stroke-opacity: 1; stroke-linecap: round; stroke-linejoin: round; -webkit-user-select: text;"></path><path fill="none" stroke="#000000" d="M609,308L610,312L610,314L610,318L610,321L610,324L609,327L608,329L606,332L605,334L604,336L601,338L600,340L598,342L596,343L594,345L592,347L590,349L588,350L585,351L582,352L579,354L577,356L574,357L571,359L568,360L565,360L562,362L558,363L555,364L552,366L548,366L545,367L542,369L539,369L537,370L534,371L531,372L528,374L526,376L523,378L521,380L519,381L516,383L515,384L513,386L511,388L510,391L509,393L508,397L507,400L506,402L505,405L504,407L504,410L504,412L504,414L504,417L504,419L504,422L504,424L504,427L505,429L505,432L507,434L508,436L510,439L511,441L513,443L514,445L516,447L519,449L521,451L523,453L525,454L527,456L529,457L532,458L534,459L537,460L539,461L541,462L544,463L547,465L549,466L552,467L555,468L557,470L559,472L561,473L563,475L565,476L567,478L569,479L571,481L572,483L574,484L576,486L577,487L579,489L580,490L582,492L583,493L584,495L585,497L587,499L587,500L588,503L589,504L589,506L590,507L590,509L591,511L591,512L591,515L591,516L591,518L591,520L591,522L591,524L591,526L591,529L591,531L591,533L590,534L589,536L589,538L587,540L586,541L585,544L583,545L582,546L580,549L579,551L577,552L575,554L574,555L572,557L570,558L569,559L567,561L566,562L565,563L563,564L561,564L560,565L558,566L556,566L554,567L553,568L550,568L549,569L547,569L545,570L543,570L541,570L539,570L536,570L534,570L532,570L530,570L527,570L524,570L522,570L519,570L515,570L507,567" stroke-opacity="1" stroke-width="5" stroke-linecap="round" stroke-linejoin="round" style="-webkit-tap-highlight-color: rgba(0, 0, 0, 0); stroke-opacity: 1; stroke-linecap: round; stroke-linejoin: round; -webkit-user-select: text;"></path><path fill="none" stroke="#000000" d="M314,584L319,580L322,578L324,576L327,574L331,572L335,568L339,566L345,561L350,557L356,553L361,549L367,544L372,540L378,535L383,530L389,526L395,521L400,517L405,513L411,509L416,505L420,502L425,498L430,494L435,491L439,488L442,486L447,482L450,479L453,477L456,474L459,473L461,471L463,469L464,468L465,467L466,466" stroke-opacity="1" stroke-width="5" stroke-linecap="round" stroke-linejoin="round" style="-webkit-tap-highlight-color: rgba(0, 0, 0, 0); stroke-opacity: 1; stroke-linecap: round; stroke-linejoin: round; -webkit-user-select: text;"></path><path fill="none" stroke="#000000" d="M399,425L390,430L389,430L387,432L385,434L383,437L382,439L380,442L378,445L377,448L375,451L373,455L372,459L371,462L369,466L368,471L367,475L366,479L365,483L364,487L363,491L363,495L363,498L363,502L363,505L363,509L363,512L363,515L363,519L363,522L363,527L363,531L363,535L365,539L366,542L367,546L368,549L369,553L370,557L372,560L374,563L375,566L377,569L379,572L380,574L382,576L383,578L385,580L387,583L389,585L390,587L392,588L394,590L396,592L398,593L400,595L402,596L404,598L406,600L407,601L409,602L411,604L412,605L414,606L416,607L418,608L419,609L421,610L423,611L425,612L426,612L429,613L430,613L432,614L434,614L435,615L437,615L438,616L441,617L442,617L444,617L446,618L448,618L450,619L451,619L453,619L455,619L456,620L458,620L460,620L462,620L463,621L465,621L466,621L468,621L470,621L472,621L473,621L475,621L477,621L480,621L481,621L483,621L485,621L486,621L488,621L490,621L491,621L493,620L496,619L501,619L506,617L513,615" stroke-opacity="1" stroke-width="5" stroke-linecap="round" stroke-linejoin="round" style="-webkit-tap-highlight-color: rgba(0, 0, 0, 0); stroke-opacity: 1; stroke-linecap: round; stroke-linejoin: round; -webkit-user-select: text;"></path><path fill="none" stroke="#000000" d="M626,503L627,499L627,501L627,503L627,506L627,509L627,512L627,516L627,519L626,522L624,526L623,530L621,533L618,536L616,539L613,542L610,544L607,547L604,549L601,551L597,554L594,556L590,558L585,560L581,562L577,563L572,564L568,566L563,566L559,567L554,568L550,568L545,568L541,569L536,569L532,569L527,569L523,569L518,569L514,569L509,569L505,569L501,569L497,568L493,567L489,566L485,565L480,563L475,563L470,561L466,560L461,559L456,558L451,557L446,557L441,556L436,555L431,554L426,554L421,553L417,552L412,552L407,552L402,551L397,551L392,551L388,551L384,551L379,551L374,551L369,551L364,551L360,553L355,554L350,556L345,558L341,559L336,561L332,563L328,565L324,567L320,569L317,571L313,573L310,575L307,577L304,579L302,581L299,583L296,585L294,587L292,589L290,591L288,593L285,595L283,597L282,600L280,602L279,604L278,606L277,608L276,610L275,612L274,614L273,616L272,618L271,620L271,622L270,623L269,625L268,626L268,629L267,630L267,632L266,634L266,636L266,637L265,639L265,640L265,641L264,643L264,644L264,646L263,647L263,648L263,650L262,651L262,653L261,654L261,656L261,657L260,658L260,659L259,660L257,660" stroke-opacity="1" stroke-width="5" stroke-linecap="round" stroke-linejoin="round" style="-webkit-tap-highlight-color: rgba(0, 0, 0, 0); stroke-opacity: 1; stroke-linecap: round; stroke-linejoin: round; -webkit-user-select: text;"></path><path fill="none" stroke="#000000" d="M206,662L210,661L212,660L215,658L217,657L220,656L222,654L225,652L228,650L231,648L234,646L238,643L243,641L246,638L250,635L254,631L259,628L263,624L268,621L272,618L276,614L280,611L285,607L290,604L294,601L299,597L302,595L307,592L310,589L315,586L319,583L324,579L328,576L331,573L336,570L340,567L344,563L348,561L352,558L355,555L358,553L361,550L363,549L365,547L367,546L368,545L369,544L370,544L371,543L372,542L373,541" stroke-opacity="1" stroke-width="5" stroke-linecap="round" stroke-linejoin="round" style="-webkit-tap-highlight-color: rgba(0, 0, 0, 0); stroke-opacity: 1; stroke-linecap: round; stroke-linejoin: round; -webkit-user-select: text;"></path><path fill="none" stroke="#000000" d="M209,575L216,570L218,568L221,566L223,564L226,563L229,561L233,559L237,557L241,556L245,554L249,553L252,552L256,551L261,550L264,549L268,549L271,549L275,548L278,548L280,547L283,547L286,547L289,547L292,547L295,547L298,547L301,547L305,547L307,548L310,549L312,550L315,551L317,552L319,553L322,554L324,556L326,557L328,558L329,560L331,561L333,563L334,565L336,566L337,568L339,570L341,572L342,574L344,576L345,578L346,580L347,582L348,584L349,585L350,587L350,589L351,590L351,592L352,594L353,595L353,597L353,600L354,602L354,604L355,606L355,608L356,610L356,612L356,614L356,617L356,619L356,621L356,624L356,626L356,628L356,630L356,633L356,635L356,637L356,639L356,641L356,643L356,645L355,646L355,648L354,650L354,651L353,652L353,653" stroke-opacity="1" stroke-width="5" stroke-linecap="round" stroke-linejoin="round" style="-webkit-tap-highlight-color: rgba(0, 0, 0, 0); stroke-opacity: 1; stroke-linecap: round; stroke-linejoin: round; -webkit-user-select: text;"></path><path fill="none" stroke="#000000" d="M445,519L449,520L451,522L453,525L454,529L455,532L457,536L458,540L459,544L460,548L460,552L460,556L461,559L462,563L462,566L463,570L463,574L463,578L463,583L463,587L463,591L463,595L461,599L460,603L458,607L455,611L453,615L450,619L447,622L443,626L441,630L437,634L434,637L431,639L427,642L424,644L420,646L417,648L413,650L410,652L406,653L402,655L398,656L394,658L390,659L386,660L382,661L378,661L375,661L371,661L367,661L364,661L361,660L358,658L356,657L353,655L351,653L349,651L346,648L344,646L342,644L340,641L338,639L336,637L334,634L332,631L330,629L329,626L327,623L325,620L324,618L322,615L321,612L319,609L318,606L317,602L315,599L314,595L313,591L311,588L310,584L309,580L307,576L306,573L305,569L304,566L302,563L301,561L300,558L298,555L297,552L295,549L294,546L293,544L292,541L290,539L288,537L287,535L285,533L283,531L282,529L280,527L278,526L276,524L273,522L271,521L268,519L266,518L264,517L261,515L259,514L257,513L254,512L252,511L249,510L247,509L245,508L242,508L239,508L236,507L233,507L231,507L227,507L225,507L221,507L218,507L215,507L212,507L209,507L206,507L203,508L200,509L197,510L195,511L192,512L190,513L188,515L186,517L183,519L181,521L179,523L177,525L176,528L174,531L172,535L171,538L169,544L167,552L165,561L163,573" stroke-opacity="1" stroke-width="5" stroke-linecap="round" stroke-linejoin="round" style="-webkit-tap-highlight-color: rgba(0, 0, 0, 0); stroke-opacity: 1; stroke-linecap: round; stroke-linejoin: round; -webkit-user-select: text;"></path><path fill="none" stroke="#000000" d="M149,626L152,621L158,616L161,612L165,609L169,605L174,600L179,595L184,591L190,586L195,581L200,575L207,570L213,563L219,558L225,552L232,545L238,540L244,534L250,529L256,522L261,517L267,512L273,506L278,502L283,497L287,493L291,490L295,486L300,482L302,480L305,477L307,475L309,473L311,472L312,471L313,471" stroke-opacity="1" stroke-width="5" stroke-linecap="round" stroke-linejoin="round" style="-webkit-tap-highlight-color: rgba(0, 0, 0, 0); stroke-opacity: 1; stroke-linecap: round; stroke-linejoin: round; -webkit-user-select: text;"></path><path fill="none" stroke="#000000" d="M161,499L165,499L167,499L169,499L171,499L173,500L175,501L178,503L180,505L183,507L185,510L187,512L189,514L191,517L193,520L195,522L197,525L198,527L200,530L201,533L202,536L203,539L205,542L206,545L207,548L208,551L209,554L210,557L211,561L211,564L212,567L212,571L213,574L214,577L214,580L215,583L215,586L215,590L215,593L215,596L215,599L215,602L215,605L215,609L215,612L215,615L215,618L215,621L215,624L215,627L215,630L215,633L215,636L215,639L215,641L215,644L214,647L213,649L213,652L212,654L212,657L211,661L210,663L209,666L208,668L208,670L207,672L206,674L205,675L205,677L204,678L204,680L203,680L202,680" stroke-opacity="1" stroke-width="5" stroke-linecap="round" stroke-linejoin="round" style="-webkit-tap-highlight-color: rgba(0, 0, 0, 0); stroke-opacity: 1; stroke-linecap: round; stroke-linejoin: round; -webkit-user-select: text;"></path><path fill="none" stroke="#000000" d="M150,684L153,680L153,678L154,677L156,675L159,673L161,671L165,669L169,667L172,666L176,664L181,663L186,661L191,661L195,659L200,658L205,657L209,657L213,656L217,656L220,656L224,656L227,656L230,656L233,656L236,656L239,656L243,658L246,659L249,661L253,662L256,663L260,665L263,666L266,668L269,669L272,670L275,670L277,671L279,673L281,674L283,675L285,677L287,679L289,681L291,682L293,684L295,686L298,688L300,690L302,691L303,693L305,695L307,697L309,698L311,700L313,701L314,703L317,704L319,706L321,707L323,709L325,711L327,712L329,714L331,716L333,717L335,719L338,720L341,721L343,723L346,724L349,725L352,726L354,727L357,728L359,729L362,729L366,729L369,730L372,730L375,730L378,730L381,730L383,730L385,730L387,730L389,730L391,730L392,729L395,728L397,727L399,726L400,726L402,725L404,724L405,723L407,722L409,721L410,720L411,719L412,718L414,717L416,716L417,714L419,713L421,712L423,710L425,708L427,707L429,705L431,703L433,700L435,697L437,695L439,692L441,687L442,682L444,675L447,665" stroke-opacity="1" stroke-width="5" stroke-linecap="round" stroke-linejoin="round" style="-webkit-tap-highlight-color: rgba(0, 0, 0, 0); stroke-opacity: 1; stroke-linecap: round; stroke-linejoin: round; -webkit-user-select: text;"></path><path fill="none" stroke="#000000" d="M496,639L493,646L493,648L493,652L492,656L491,660L490,664L487,668L484,672L481,675L478,679L474,683L471,687L468,690L465,692L462,695L458,697L455,699L451,701L447,702L443,704L438,706L435,707L431,707L427,708L423,708L420,709L417,709L412,709L410,708L408,707L406,705L404,704L402,702L400,700L398,698L396,695L395,693L393,691L392,688L391,685L390,682L389,678L388,675L387,673L387,670L386,668L386,666L386,664L386,661L386,658L386,656L386,653L387,651L388,648L390,646L392,643L393,641L395,639L397,636L400,634L402,632L405,630L407,628L410,626L413,624L416,623L419,622L421,621L424,620L427,619L431,619L433,619L436,618L439,618L442,618L445,617L447,617L450,617L453,617L455,617L458,617L460,617L463,617L465,616L468,616L470,616L473,615L476,614L478,614L481,613L483,612L485,612L487,611L488,610L490,609L492,608L493,607L495,606L497,605L499,603L501,602L503,600L505,599L507,597L509,596L511,595L513,593L514,592L516,590L518,589L520,587L521,585L523,583L524,581L526,578L527,576L528,573L530,570L531,567L532,565L533,562L533,559L534,556L535,553L535,550L536,547L536,544L536,542L536,540L536,538L536,536L536,533L536,531L536,529L536,527L536,525L536,523L536,521L536,519L535,517L534,515L533,514L532,512L531,510L530,507L529,506L528,504L526,502L525,499L523,497L520,493" stroke-opacity="1" stroke-width="5" stroke-linecap="round" stroke-linejoin="round" style="-webkit-tap-highlight-color: rgba(0, 0, 0, 0); stroke-opacity: 1; stroke-linecap: round; stroke-linejoin: round; -webkit-user-select: text;"></path><path fill="none" stroke="#000000" d="M599,406L592,408L589,409L587,410L585,412L582,415L579,417L575,421L573,424L570,427L568,430L565,434L563,437L560,442L558,447L557,452L555,458L553,463L552,469L550,475L549,481L548,486L547,490L546,497L545,501L545,506L545,510L545,515L545,520L545,524L545,528L545,532L545,537L545,540L545,544L545,549L547,552L548,556L549,560L551,563L553,567L554,569L556,573L558,575L559,579L561,582L562,584L563,587L564,589L565,591L566,592L567,594L567,595L568,597L569,599L570,600" stroke-opacity="1" stroke-width="5" stroke-linecap="round" stroke-linejoin="round" style="-webkit-tap-highlight-color: rgba(0, 0, 0, 0); stroke-opacity: 1; stroke-linecap: round; stroke-linejoin: round; -webkit-user-select: text;"></path><path fill="none" stroke="#000000" d="M572,456L572,461L574,464L576,468L579,471L582,476L586,479L589,483L592,487L595,490L597,494L600,498L603,503L605,505L607,508L609,511L611,513L613,516L614,519L616,522L617,524L619,527L621,530L622,532L624,535L626,537L628,539L630,541L631,542L633,544L634,545L634,546L635,546L635,547L636,548" stroke-opacity="1" stroke-width="5" stroke-linecap="round" stroke-linejoin="round" style="-webkit-tap-highlight-color: rgba(0, 0, 0, 0); stroke-opacity: 1; stroke-linecap: round; stroke-linejoin: round; -webkit-user-select: text;"></path><path fill="none" stroke="#000000" d="M677,495L673,493L672,493L669,493L667,493L664,493L662,493L658,493L655,493L651,493L647,493L643,493L639,493L635,494L630,495L626,497L621,498L617,500L613,502L608,504L603,507L598,509L594,512L589,514L584,517L579,520L575,524L570,527L566,531L562,535L558,538L555,541L552,545L548,549L546,553L543,556L541,560L538,563L536,566L533,571L531,574L529,577L527,580L526,584L524,587L522,590L521,593L520,596L518,599L517,602L516,605L515,607L514,609L513,612L512,614L511,616L509,617L509,619L507,621L506,622L505,624L504,626L502,628L501,629L499,631L498,633L497,635L495,637L494,639L493,640L492,641L490,642L490,643L488,644L487,646L485,647L483,648L481,650L479,651L477,653L474,654L472,656L470,657L468,658L465,660L463,661L462,661L460,662L458,663L456,664L454,664L451,665L449,665L447,665L445,666L442,666L440,666L438,666L436,666L433,666L431,666L428,666L426,666L423,666L420,666L417,666L415,665L413,665L411,664L409,663L407,662L404,661L402,659L400,658L399,657L397,656L395,654L393,653L392,651L390,650L389,648L387,647L386,646L385,645L384,643L383,642L382,641L381,639L380,637L379,635L378,633L377,630L376,628L375,625L375,623L374,620L374,618L374,615L373,613L373,610L373,608L373,606L373,603L373,600L373,598L373,596L373,593L373,591L374,588L374,586L375,584L376,581L377,580L379,577L380,575L382,573L383,571L385,568L387,566L389,565L391,563L393,561L395,560L397,558L399,556L401,554L404,551" stroke-opacity="1" stroke-width="5" stroke-linecap="round" stroke-linejoin="round" style="-webkit-tap-highlight-color: rgba(0, 0, 0, 0); stroke-opacity: 1; stroke-linecap: round; stroke-linejoin: round; -webkit-user-select: text;"></path><path fill="none" stroke="#000000" d="M450,489L447,495L447,499L446,503L445,507L443,512L442,517L441,522L439,527L437,532L435,537L433,543L431,548L428,555L426,560L423,566L420,572L418,578L415,583L413,588L411,593L408,598L406,604L403,609L401,614L398,619L397,622L395,626L392,631L391,634L390,636L389,639L389,640L388,640" stroke-opacity="1" stroke-width="5" stroke-linecap="round" stroke-linejoin="round" style="-webkit-tap-highlight-color: rgba(0, 0, 0, 0); stroke-opacity: 1; stroke-linecap: round; stroke-linejoin: round; -webkit-user-select: text;"></path><path fill="none" stroke="#000000" d="M324,631L329,627L331,625L334,622L338,619L343,615L347,613L351,610L355,607L360,605L364,602L369,600L374,598L378,597L383,595L387,595L391,594L395,593L399,593L402,592L406,592L408,592L411,592L414,592L417,592L420,592L423,592L426,592L429,592L433,592L436,592L439,593L443,593L446,594L449,595L452,596L455,597L458,597L460,599L463,600L465,601L467,602L470,604L472,605L474,607L476,609L478,611L480,612L482,614L484,616L486,617L487,619L488,621L490,622L490,623L492,625L492,626L493,627L494,629L495,629L496,631L497,632L498,633L499,634L499,636L501,637L502,638L502,639L503,640L504,641L505,642L506,643L507,644L507,646L508,646L509,647L510,648L511,650L512,651L513,652L513,653L514,654L514,655L515,656L516,656L516,657L517,658L518,659L519,660L520,661L521,661L521,662L522,663L524,664L524,665L526,666L527,667L528,668L529,670L531,671L533,673L534,674L535,675L536,676L536,677L536,678" stroke-opacity="1" stroke-width="5" stroke-linecap="round" stroke-linejoin="round" style="-webkit-tap-highlight-color: rgba(0, 0, 0, 0); stroke-opacity: 1; stroke-linecap: round; stroke-linejoin: round; -webkit-user-select: text;"></path><path fill="none" stroke="#000000" d="M561,661L559,664L558,664L557,664L556,664L555,664L554,664L553,663L552,663L550,662L549,661L548,660L547,659L546,658L545,657L544,656L543,655L542,654L541,653L541,652L540,651L539,650L538,649L538,648L537,647L537,646L536,645L536,644L535,643L534,642L533,641L532,639L531,639L530,637L529,636L528,634L528,633L527,631L526,630L526,629L525,627L525,626L524,624L524,623L523,621L523,620L522,619L522,617L521,616L521,614L521,613L521,611L521,609L521,608L521,606L521,604L520,602L520,600L520,598L520,597L520,595L520,593L520,591L520,590L520,588L520,586L520,584L520,583L520,580L520,578L520,575L520,573L520,571L520,569L521,567L521,565L521,563L522,561L522,559L523,556L524,554L524,552L525,550L526,548L527,546L528,544L529,542L530,541L531,539L532,537L533,534L535,532L536,530L537,528L538,525L539,523L540,521L541,519L542,517L543,515L545,513L546,512L547,510L548,508L550,506L551,504L553,502L554,500L555,498L556,497L558,495L559,493L560,492L562,490L562,489L564,488L565,486L567,485L568,484L569,482L570,481L572,480L573,478L575,476L576,475L577,473L578,472L579,470L581,469L582,468L583,466L584,465L585,464L586,463L587,461L588,460L589,459L589,458L590,456L591,455L592,454L593,452L593,450L594,449L595,447L595,445L596,443L596,441L597,439L598,438L599,436L599,434L600,432L600,430L601,428L601,426L602,425L602,422L603,420L604,418L604,416L604,414L605,412L605,410L606,408L606,407L606,405L607,403L607,402L607,400L607,398L607,397L607,395L607,393L607,391L607,390L607,388L607,386L607,385L607,384L607,382L607,381L607,379L607,377L607,376L607,374L606,372L606,370L606,369L605,366L604,364L604,363L603,361L602,359L601,358L600,357L599,355L598,353L597,352L596,350L595,348L594,347L594,345L592,343L591,342L590,340L589,338L587,337L585,335L584,334L582,332L581,331L579,330L577,329L576,328L574,327L572,325L571,324L569,323L567,322L566,321L565,320L563,320L562,319L560,318L559,318L558,317L556,316L555,316L553,315L552,315L550,315L549,315L548,314L547,314" stroke-opacity="1" stroke-width="5" stroke-linecap="round" stroke-linejoin="round" style="-webkit-tap-highlight-color: rgba(0, 0, 0, 0); stroke-opacity: 1; stroke-linecap: round; stroke-linejoin: round; -webkit-user-select: text;"></path><path fill="none" stroke="#000000" d="M465,352L477,345L481,343L485,341L489,338L493,336L498,334L503,331L508,328L512,326L517,323L522,321L527,318L532,316L536,313L541,310L546,308L550,306L554,303L558,302L563,299L567,297L571,295L575,293L579,291L582,290L585,288L588,287L591,285L593,284L594,283L596,282L598,281L599,281L600,280L601,280L603,279" stroke-opacity="1" stroke-width="5" stroke-linecap="round" stroke-linejoin="round" style="-webkit-tap-highlight-color: rgba(0, 0, 0, 0); stroke-opacity: 1; stroke-linecap: round; stroke-linejoin: round; -webkit-user-select: text;"></path><path fill="none" stroke="#000000" d="M509,255L521,250L524,250L526,250L530,250L533,250L536,250L538,250L541,250L543,250L546,250L548,251L551,252L554,253L556,255L559,256L562,257L564,259L567,261L570,263L572,265L574,267L576,269L578,270L580,272L582,274L583,276L584,278L586,280L587,282L588,284L589,286L590,288L592,290L592,292L593,294L594,296L595,299L596,301L597,304L598,306L599,308L600,311L601,314L601,317L602,319L603,322L604,325L604,327L605,330L605,332L606,335L606,338L607,340L607,343L608,346L609,348L609,351L609,353L610,356L611,358L611,360L612,362L613,364L613,367L614,369L615,371L616,373L617,375L618,377L618,379L620,381L621,382L621,383L623,385L623,386L625,388L626,389L627,390L628,391L628,393L629,393L630,395L631,396L633,397L633,398L635,399L635,400L637,401L638,402L639,403L640,403L641,404L642,404L642,405L643,405L644,405L645,405L646,406L647,406L648,406L650,406L652,406L653,406L654,406L655,406L656,406L657,406L658,406L659,406L660,406L661,406L662,406L663,406L664,406L665,406L666,406L667,406L668,406L669,405L669,404" stroke-opacity="1" stroke-width="5" stroke-linecap="round" stroke-linejoin="round" style="-webkit-tap-highlight-color: rgba(0, 0, 0, 0); stroke-opacity: 1; stroke-linecap: round; stroke-linejoin: round; -webkit-user-select: text;"></path><path fill="none" stroke="#000000" d="M671,362L667,362L664,362L660,362L657,362L654,361L651,361L648,359L645,358L641,357L637,355L632,353L628,351L623,349L618,347L613,344L607,342L600,339L594,337L587,334L580,332L572,330L565,327L558,325L551,322L545,319L539,316L533,313L528,310L523,308L518,305L513,302L509,300L504,297L499,294L495,292L490,289L486,286L481,284L477,282L472,280L469,279L465,277L463,276L461,276L460,275L458,275" stroke-opacity="1" stroke-width="5" stroke-linecap="round" stroke-linejoin="round" style="-webkit-tap-highlight-color: rgba(0, 0, 0, 0); stroke-opacity: 1; stroke-linecap: round; stroke-linejoin: round; -webkit-user-select: text;"></path><path fill="none" stroke="#000000" d="M426,278L433,278L435,278L438,278L442,279L446,279L450,280L455,280L459,280L463,280L468,280L472,280L476,280L481,279L485,277L488,275L492,272L496,269L499,267L503,263L505,261L508,258L511,255L513,252L515,250L517,247L519,245L520,243L521,240L523,238L524,235L525,233L526,230L527,226L528,223L528,219L529,216L530,212L530,208L531,204L531,200L531,197L532,193L533,189L533,186L534,182L535,179L536,175L536,171L537,168L538,165L540,161L541,157L543,153L544,150L546,146L548,143L551,138L553,134L556,130L559,126L561,123L563,119L566,116L568,114L571,111L573,108L575,106L577,105L579,104L580,103L581,102L582,102L583,102L585,101" stroke-opacity="1" stroke-width="5" stroke-linecap="round" stroke-linejoin="round" style="-webkit-tap-highlight-color: rgba(0, 0, 0, 0); stroke-opacity: 1; stroke-linecap: round; stroke-linejoin: round; -webkit-user-select: text;"></path><path fill="none" stroke="#000000" d="M630,107L623,108L621,108L618,108L615,108L612,108L608,108L603,108L598,108L593,109L587,109L582,109L575,110L568,110L562,111L555,112L548,114L542,114L536,115L530,116L523,116L516,117L509,118L502,120L494,121L487,123L481,125L474,126L468,128L462,129L458,130L453,131L451,131L449,132L448,132L448,131" stroke-opacity="1" stroke-width="5" stroke-linecap="round" stroke-linejoin="round" style="-webkit-tap-highlight-color: rgba(0, 0, 0, 0); stroke-opacity: 1; stroke-linecap: round; stroke-linejoin: round; -webkit-user-select: text;"></path><path fill="none" stroke="#000000" d="M548,62L544,65L541,65L537,67L533,70L529,72L526,74L522,77L519,80L516,82L513,84L511,87L509,90L507,93L504,99L502,103L501,106L499,110L498,113L497,117L495,121L494,125L492,129L491,133L490,138L490,142L489,146L488,150L487,155L487,159L487,164L487,168L487,172L487,176L487,180L487,184L487,187L487,191L488,194L488,197L489,200L490,202L490,205L490,207L491,208L491,209L492,209L494,209" stroke-opacity="1" stroke-width="5" stroke-linecap="round" stroke-linejoin="round" style="-webkit-tap-highlight-color: rgba(0, 0, 0, 0); stroke-opacity: 1; stroke-linecap: round; stroke-linejoin: round; -webkit-user-select: text;"></path><path fill="none" stroke="#000000" d="M600,70L597,74L596,77L595,80L594,83L592,87L590,92L588,96L585,101L582,105L579,109L575,112L572,114L567,117L564,119L560,121L556,123L552,124L548,126L543,128L539,129L535,130L530,131L525,133L521,134L516,135L511,135L506,136L501,136L495,137L490,137L483,138L478,138L472,138L467,138L461,138L456,138L451,138L446,138L442,138L437,138L433,137L428,136L424,135L419,134L414,133L409,131L404,131L398,130L392,129L386,129L381,128L375,128L370,128L364,128L359,128L354,128L349,128L345,128L340,129L336,129L331,131L328,132L324,133L320,134L317,135L314,137L310,138L307,140L304,142L301,144L298,146L295,148L292,151L289,153L286,156L283,158L280,161L277,164L274,167L272,170L269,172L267,175L266,179L263,182L262,185L260,189L258,192L256,195L255,199L254,202L252,205L251,208L250,211L249,215L248,218L247,221L247,224L246,227L246,230L246,233L246,237L246,240L246,243L246,246L246,249L246,252L246,255L246,257L246,260L246,263L247,266L248,269L249,272L250,274L251,276L252,279L254,281L255,283L256,286L257,288L259,290L260,291L262,293L263,296L264,297L266,299L267,301L268,302L270,304L271,306L272,307L273,308L274,309L275,311L276,311L276,312L277,313L278,313" stroke-opacity="1" stroke-width="5" stroke-linecap="round" stroke-linejoin="round" style="-webkit-tap-highlight-color: rgba(0, 0, 0, 0); stroke-opacity: 1; stroke-linecap: round; stroke-linejoin: round; -webkit-user-select: text;"></path><path fill="none" stroke="#000000" d="M334,260L328,259L326,259L324,259L322,258L320,257L318,256L315,254L312,252L308,250L304,249L300,247L296,245L292,244L288,242L283,240L279,238L275,236L271,234L267,232L263,229L255,225L251,222L247,220L243,217L239,215L234,212L230,211L226,208L222,206L218,203L215,201L210,199L207,196L203,194L199,193L195,191L191,189L187,187L183,185L178,182L174,180L171,179L168,177L165,174L162,173L160,172L159,171L158,171L157,171" stroke-opacity="1" stroke-width="5" stroke-linecap="round" stroke-linejoin="round" style="-webkit-tap-highlight-color: rgba(0, 0, 0, 0); stroke-opacity: 1; stroke-linecap: round; stroke-linejoin: round; -webkit-user-select: text;"></path><path fill="none" stroke="#000000" d="M88,226L98,226L101,226L103,226L107,227L110,229L113,230L117,230L121,231L125,232L128,233L132,233L137,234L141,234L145,234L149,234L153,234L157,234L161,234L165,234L169,234L173,234L176,233L180,232L184,231L187,230L191,228L194,226L197,224L200,222L202,220L204,218L206,216L208,213L210,211L212,209L214,207L216,205L218,203L220,200L222,198L223,196L225,194L226,192L227,189L228,187L229,185L230,182L231,179L232,177L233,174L234,172L235,170L236,167L237,165L238,162L239,159L239,156L240,153L241,150L242,147L243,144L244,141L244,138L246,135L247,131L249,128L250,125L253,119L254,116L256,114L257,111L259,108L261,106L262,103L263,101L264,99L266,97L267,96L268,94L270,92L271,91L273,89L275,88L276,87L278,86L280,84L282,83L284,82L286,80L288,79L290,78L292,77L293,75L295,74L297,73L298,72L300,72L302,70L304,70L306,70L307,68L309,68L310,68L312,67L313,67L314,67L315,67L316,67L317,66L318,66" stroke-opacity="1" stroke-width="5" stroke-linecap="round" stroke-linejoin="round" style="-webkit-tap-highlight-color: rgba(0, 0, 0, 0); stroke-opacity: 1; stroke-linecap: round; stroke-linejoin: round; -webkit-user-select: text;"></path><path fill="none" stroke="#000000" d="M153,133L154,132L157,132L161,132L164,131L168,130L172,129L177,128L181,127L186,126L191,124L195,123L200,123L205,122L210,121L216,121L222,120L227,118L233,118L238,117L244,116L249,115L255,114L261,113L267,111L274,110L281,109L287,108L293,107L300,106L306,104L312,103L318,102L324,101L329,101L334,100L339,99L343,98L348,98L351,97L355,97L358,97L361,96L363,96L365,96L367,96L368,96L369,95L370,94L370,93" stroke-opacity="1" stroke-width="5" stroke-linecap="round" stroke-linejoin="round" style="-webkit-tap-highlight-color: rgba(0, 0, 0, 0); stroke-opacity: 1; stroke-linecap: round; stroke-linejoin: round; -webkit-user-select: text;"></path><path fill="none" stroke="#000000" d="M280,82L284,81L288,81L290,81L295,81L299,81L303,81L307,81L310,82L313,82L316,83L319,85L321,86L323,88L325,90L328,92L330,94L333,97L336,101L339,104L342,107L344,110L347,114L349,117L352,120L354,123L356,127L358,129L359,133L361,135L363,139L364,142L365,145L366,149L367,153L368,156L368,160L368,163L369,167L369,170L369,174L369,178L369,181L369,185L369,188L369,191L369,194L369,198L369,201L369,204L368,207L368,210L366,213L365,216L364,219L363,222L361,225L360,228L358,231L357,234L355,237L353,240L352,242L350,245L349,248L347,250L345,253L343,256L341,258L339,261L336,263L334,266L332,268L329,271L327,274L324,276L321,278L319,281L316,283L313,285L311,287L308,289L306,291L303,293L301,295L298,297L296,299L293,301L291,303L289,305L287,307L285,309L283,311L281,312L277,316L275,318L273,320L272,322L271,324L269,326L268,328L266,330L265,332L264,335L263,336L262,339L261,341L260,343L259,345L258,347L257,349L257,351L256,353L256,355L255,357L254,360L254,362L254,364L253,366L253,369L253,371L253,373L252,375L252,377L252,379L252,381L252,383L252,385L252,387L252,389L253,391L254,394L254,396L255,399L256,401L258,404L259,405L260,408L261,410L263,412L264,413L266,415L268,417L270,419L272,421L273,423L275,425L277,426L278,428L280,430L281,431L282,432L283,432L284,433L285,433" stroke-opacity="1" stroke-width="5" stroke-linecap="round" stroke-linejoin="round" style="-webkit-tap-highlight-color: rgba(0, 0, 0, 0); stroke-opacity: 1; stroke-linecap: round; stroke-linejoin: round; -webkit-user-select: text;"></path><path fill="none" stroke="#000000" d="M341,427L335,427L333,427L330,427L327,425L324,425L321,424L318,423L315,423L311,422L308,422L304,422L300,421L295,421L291,421L286,420L280,420L275,419L269,417L263,416L258,414L252,413L246,411L241,410L229,406L223,405L217,403L212,401L206,400L203,398L198,397L194,396L190,395L186,394L182,393L179,392L177,391L174,391L173,390L171,389L170,389L169,389L169,388" stroke-opacity="1" stroke-width="5" stroke-linecap="round" stroke-linejoin="round" style="-webkit-tap-highlight-color: rgba(0, 0, 0, 0); stroke-opacity: 1; stroke-linecap: round; stroke-linejoin: round; -webkit-user-select: text;"></path><path fill="none" stroke="#000000" d="M172,336L177,336L180,336L182,336L185,337L188,340L191,342L194,344L197,347L199,350L202,354L204,358L205,362L208,366L209,369L210,373L212,377L213,381L214,386L215,391L215,396L216,401L216,406L216,411L216,415L216,420L216,425L216,430L216,434L215,439L214,443L212,447L211,450L209,454L207,457L205,461L203,464L201,468L199,471L197,473L194,476L192,479L189,482L187,485L184,487L181,490L178,493L176,496L173,499L170,502L168,504L166,506L164,508L161,510L160,512L158,513L157,515L155,516L154,517L153,517L152,517L151,517L147,520" stroke-opacity="1" stroke-width="5" stroke-linecap="round" stroke-linejoin="round" style="-webkit-tap-highlight-color: rgba(0, 0, 0, 0); stroke-opacity: 1; stroke-linecap: round; stroke-linejoin: round; -webkit-user-select: text;"></path><path fill="none" stroke="#000000" d="M69,509L71,504L73,502L75,500L78,498L82,497L86,495L91,493L96,490L101,488L105,487L109,486L114,485L118,484L121,483L125,483L128,483L132,483L135,483L139,483L142,483L145,483L148,483L151,483L154,483L157,484L161,486L164,487L168,489L171,490L174,492L178,494L181,496L184,498L187,500L190,503L192,505L195,506L196,508L198,509L200,511L202,512L203,514L205,516L207,518L208,521L210,523L212,526L214,528L215,531L217,533L218,535L220,537L221,539L222,541L223,544L225,546L226,549L227,552L229,555L230,557L231,560L232,562L234,564L235,567L237,569L238,572L239,575L241,577L243,580L244,583L246,585L247,587L249,590L250,592L251,594L252,596L253,598L254,600L255,602L256,605L258,607L260,609L261,611L263,612L265,614L267,615L268,617L270,618L272,619L273,620L276,622L277,623L279,624L280,625L282,626L283,627L285,628L287,629L288,629L293,631L295,632L298,633L300,633L302,634L305,634L307,635L309,635L311,635L314,635L317,636L320,636L324,636L327,636L329,636L332,636L335,636L338,636L341,636L344,636L346,635L349,634L351,633L353,632L354,631L356,630L358,629L360,627L362,626L363,624L366,623L368,622L371,620L373,619L376,617L378,615L380,613L383,610L384,608L386,605L388,602L390,599L391,596L393,594L395,591L397,589L399,586L401,584L402,582L404,580L405,578L406,577L407,575L408,575L409,574" stroke-opacity="1" stroke-width="5" stroke-linecap="round" stroke-linejoin="round" style="-webkit-tap-highlight-color: rgba(0, 0, 0, 0); stroke-opacity: 1; stroke-linecap: round; stroke-linejoin: round; -webkit-user-select: text;"></path><path fill="none" stroke="#000000" d="M411,490L407,493L407,496L405,498L402,502L399,506L395,509L391,513L386,517L381,522L375,526L370,531L365,536L360,541L355,546L349,552L344,558L338,563L332,569L326,575L319,581L314,586L308,591L302,596L297,601L291,606L286,611L282,615L277,620L272,624L267,629L262,634L259,637L254,641L250,645L246,648L242,652L238,656L234,659L231,662L228,665L226,667L223,670L221,672L219,673L217,675L216,675L216,676L215,676L213,676" stroke-opacity="1" stroke-width="5" stroke-linecap="round" stroke-linejoin="round" style="-webkit-tap-highlight-color: rgba(0, 0, 0, 0); stroke-opacity: 1; stroke-linecap: round; stroke-linejoin: round; -webkit-user-select: text;"></path><path fill="none" stroke="#000000" d="M137,665L142,662L145,661L148,661L152,661L155,661L160,661L164,661L168,661L172,661L176,663L179,664L183,666L187,668L191,669L193,671L196,672L199,674L202,676L204,678L206,679L208,680L209,682L211,683L213,685L215,686L218,688L220,690L222,691L224,692L226,694L227,696L229,697L232,699L234,700L236,702L239,703L242,704L245,706L248,707L251,708L254,709L257,710L261,710L265,711L269,711L273,711L278,711L282,711L285,711L289,710L293,708L297,707L300,705L303,703L306,701L310,699L312,697L315,696L318,695L321,693L323,691L325,690L327,688L329,686L330,684L331,682L333,679L334,677L336,675L337,672L339,670L340,668L341,666L343,663L344,661L346,658L347,655L348,653L349,650L349,648L350,645L351,643L351,640L352,638L352,636L353,634L353,631L353,628L353,626L353,624L353,622L353,621L353,619L353,617L353,616L352,613L351,612L350,609L349,607L349,606L348,604L347,603L346,602L346,601L344,600L343,599L342,598L341,597L340,596L339,595L337,594L336,593L334,592L333,591L332,590L330,590L329,589L327,588L325,588L323,588L321,587L319,587L318,586L316,586L314,586L312,586L311,586L309,585L307,585L306,585L304,585L302,585L300,585L298,585L296,585L295,585L293,585L290,585L289,585L287,586L285,586L283,587L282,588L280,588L279,589L277,589L276,590L273,591L272,592L270,593L268,594L266,595L264,596L262,598L260,599L259,601L257,602L256,604L254,606L253,608L252,609L251,611L251,614L248,618" stroke-opacity="1" stroke-width="5" stroke-linecap="round" stroke-linejoin="round" style="-webkit-tap-highlight-color: rgba(0, 0, 0, 0); stroke-opacity: 1; stroke-linecap: round; stroke-linejoin: round; -webkit-user-select: text;"></path><path fill="none" stroke="#000000" d="M179,752L181,748L183,746L186,743L189,739L193,733L196,729L199,724L203,718L208,712L212,707L217,701L222,696L232,684L237,678L242,672L247,667L252,661L256,655L261,650L264,645L267,640L271,635L273,630L276,625L278,622L280,617L282,614L284,610L286,606L288,603L290,600L292,599L293,597L293,596L294,596L294,595" stroke-opacity="1" stroke-width="5" stroke-linecap="round" stroke-linejoin="round" style="-webkit-tap-highlight-color: rgba(0, 0, 0, 0); stroke-opacity: 1; stroke-linecap: round; stroke-linejoin: round; -webkit-user-select: text;"></path><path fill="none" stroke="#000000" d="M128,635L127,635L131,633L136,630L140,629L145,626L151,626L157,625L164,625L171,625L177,625L186,625L193,625L199,626L206,627L212,629L218,631L222,633L227,634L230,636L233,637L236,639L239,640L241,641L243,643L245,645L248,647L250,650L252,653L254,656L256,659L258,662L260,665L262,668L264,670L266,673L268,675L269,678L271,681L272,684L273,686L275,689L276,692L277,694L278,696L278,698L279,700L280,703L281,705L281,708L282,711L283,714L283,716L284,720L285,723L286,726L287,728L288,731L288,733L289,736L289,738L290,739L290,740L290,741" stroke-opacity="1" stroke-width="5" stroke-linecap="round" stroke-linejoin="round" style="-webkit-tap-highlight-color: rgba(0, 0, 0, 0); stroke-opacity: 1; stroke-linecap: round; stroke-linejoin: round; -webkit-user-select: text;"></path><path fill="none" stroke="#000000" d="M218,765L225,755L229,749L233,743L238,738L241,733L246,727L250,722L254,717L258,714L262,710L267,706L273,702L278,697L285,694L290,691L295,688L301,686L306,684L312,682L317,681L323,680L328,679L333,679L338,679L343,679L347,679L351,679L355,679L360,679L364,679L368,680L372,682L375,683L378,684L381,686L384,687L386,689L389,691L391,693L393,695L395,697L397,699L400,702L402,704L404,707L407,709L409,711L410,713L412,715L414,717L416,719L418,721L420,724L422,726L424,727L426,730L428,732L430,734L432,736L434,738L436,740L438,742L441,743L443,745L445,746L447,748L449,749L451,750L453,751L457,753L459,753L460,754L462,755L463,755L465,756L466,757L468,757L469,758L470,758" stroke-opacity="1" stroke-width="5" stroke-linecap="round" stroke-linejoin="round" style="-webkit-tap-highlight-color: rgba(0, 0, 0, 0); stroke-opacity: 1; stroke-linecap: round; stroke-linejoin: round; -webkit-user-select: text;"></path><path fill="none" stroke="#000000" d="M399,770L407,764L411,762L417,758L423,755L429,751L436,748L443,746L452,741L460,736L468,732L476,727L483,723L491,719L499,714L507,709L515,704L524,699L531,695L538,691L545,686L553,681L560,677L567,673L573,669L579,665L584,663L589,660L593,656L597,654L601,652L604,650L607,648L609,647L611,646L613,646L613,645L614,645L614,644" stroke-opacity="1" stroke-width="5" stroke-linecap="round" stroke-linejoin="round" style="-webkit-tap-highlight-color: rgba(0, 0, 0, 0); stroke-opacity: 1; stroke-linecap: round; stroke-linejoin: round; -webkit-user-select: text;"></path><path fill="none" stroke="#000000" d="M630,618L632,624L632,628L632,632L633,637L633,643L633,648L633,655L633,661L633,667L633,673L632,681L629,688L627,693L624,700L616,712L611,717L606,722L600,728L594,733L588,738L581,743L575,746L569,748L564,750L558,753L553,754L548,754L543,755L538,755L534,755L529,755L525,755L521,753L518,751L515,749L512,746L509,744L506,741L503,738L500,734L498,731L495,727L494,724L492,720L491,716L490,712L490,709L490,706L490,702L490,699L490,696L490,694L490,691L491,688L492,686L495,683L498,679L501,676L504,673L507,670L511,668L514,665L518,663L522,659L526,656L529,654L533,651L536,649L539,647L543,646L546,643L549,642L553,640L556,638L559,636L562,633L565,631L568,629L570,626L573,624L575,622L578,620L580,619L583,617L585,614L587,612L589,611L591,609L592,607L594,605L595,602L596,600L597,598L599,596L600,594L601,592L601,590L602,588L603,586L604,584L604,583L604,580L605,578L605,577L606,575L606,572L606,571L606,569L607,568L607,567L608,566L609,566" stroke-opacity="1" stroke-width="5" stroke-linecap="round" stroke-linejoin="round" style="-webkit-tap-highlight-color: rgba(0, 0, 0, 0); stroke-opacity: 1; stroke-linecap: round; stroke-linejoin: round; -webkit-user-select: text;"></path><path fill="none" stroke="#000000" d="M576,534L581,537L583,537L587,539L590,541L594,544L598,548L602,551L607,555L611,558L614,560L618,563L621,565L624,567L628,569L631,572L634,574L638,576L640,579L643,581L646,583L649,585L651,587L654,589L656,590L657,591L658,592L659,592L660,592L659,592" stroke-opacity="1" stroke-width="5" stroke-linecap="round" stroke-linejoin="round" style="-webkit-tap-highlight-color: rgba(0, 0, 0, 0); stroke-opacity: 1; stroke-linecap: round; stroke-linejoin: round; -webkit-user-select: text;"></path><path fill="none" stroke="#000000" d="M649,521L652,525L654,528L655,531L657,534L659,538L660,541L660,544L660,547L661,551L661,554L661,558L661,561L660,565L659,568L657,572L655,575L652,579L650,582L647,585L644,588L641,591L638,594L635,597L631,599L627,602L623,605L621,608L617,610L613,612L609,615L606,617L601,618L598,620L594,622L591,623L587,625L583,626L579,628L575,630L570,631L567,633L563,634L559,636L555,637L552,639L548,640L545,641L541,642L538,643L535,645L532,646L529,647L526,648L524,649L521,650L519,651L518,651L517,652L516,653L515,653L513,653L509,654" stroke-opacity="1" stroke-width="5" stroke-linecap="round" stroke-linejoin="round" style="-webkit-tap-highlight-color: rgba(0, 0, 0, 0); stroke-opacity: 1; stroke-linecap: round; stroke-linejoin: round; -webkit-user-select: text;"></path><path fill="none" stroke="#000000" d="M436,647L443,638L444,634L448,630L451,626L454,622L458,618L462,614L465,610L468,605L472,600L475,596L478,592L482,588L485,584L487,580L490,577L492,573L494,570L497,567L499,563L502,561L504,556L507,553L509,549L511,546L513,542L514,539L515,537L516,534L517,531L517,529L518,526L518,523L518,521L518,519L518,516L518,513L518,511L517,508L516,506L516,503L514,502L514,501L512,500L511,499L510,498L509,496L507,495L505,494L504,494L502,493L501,493L499,493L497,493L495,493L493,494L492,495L491,496L490,498L489,499L488,500L488,501L487,502L487,503L487,504L487,505L487,507L487,508L487,510L487,511L488,512L489,514L490,515L492,516L494,517L496,519L498,520L500,521L503,522L505,523L507,524L509,525L511,526L514,527L516,527L518,528L521,529L523,530L526,531L528,532L531,532L534,532L537,533L539,533L542,533L544,533L546,533L548,533L550,533L553,533L555,533L558,533L560,533L563,533L565,533L568,533L571,533L574,534L577,534L580,534L583,535L586,535L589,536L592,537L594,537L596,538L599,539L601,540L604,541L606,543L607,544L609,546L611,547L613,549L616,551L617,552L619,554L621,556L624,559L626,561L628,563L630,566L633,569L635,572L636,575L638,578L639,581L640,584L641,586L643,588L643,591L644,594L645,597L645,600L646,603L646,606L647,609L647,612L647,615L647,618L647,621L647,624L647,627L647,630L647,633L646,636L645,638L644,640L642,642L640,645L638,647L636,650L633,653L631,655L628,658L626,661L623,663L621,665L618,668L615,669L612,671L609,673L606,674L603,676L600,677L596,679L594,680L591,680L587,681L584,681L582,682L578,682L576,682L573,682L571,682L568,682L566,682L564,682L562,682L560,682L558,682L556,682L554,680L552,679L549,676L546,672L541,668" stroke-opacity="1" stroke-width="5" stroke-linecap="round" stroke-linejoin="round" style="-webkit-tap-highlight-color: rgba(0, 0, 0, 0); stroke-opacity: 1; stroke-linecap: round; stroke-linejoin: round; -webkit-user-select: text;"></path><path fill="none" stroke="#000000" d="M536,650L539,646L540,644L542,641L545,638L547,634L550,630L553,626L556,622L558,619L564,609L567,604L570,600L572,595L576,591L578,588L581,584L584,580L586,577L589,574L591,571L592,568L594,565L596,562L599,559L601,555L604,551L606,547L608,544L611,540L613,537L615,533L618,529L620,526L623,522L625,520L628,516L631,513L634,510L636,507L639,505L641,502L643,499L644,497L646,494L647,492L649,490L651,488L653,487L655,486L656,484L657,483L658,481" stroke-opacity="1" stroke-width="5" stroke-linecap="round" stroke-linejoin="round" style="-webkit-tap-highlight-color: rgba(0, 0, 0, 0); stroke-opacity: 1; stroke-linecap: round; stroke-linejoin: round; -webkit-user-select: text;"></path><path fill="none" stroke="#000000" d="M654,511L657,509L658,507L660,505L663,501L665,498L667,494L669,491L670,488L671,485L672,482L672,479L673,476L673,473L673,470L673,467L673,465L673,463L672,460L671,458L669,456L668,454L667,451L666,449L664,447L663,445L662,443L660,441L658,439L656,437L654,435L652,433L650,431L647,429L645,427L642,426L639,425L635,424L632,423L628,422L625,422L621,421L618,421L615,420L611,420L608,420L605,420L601,420L598,420L595,420L592,420L589,420L586,420L583,421L580,421L577,422L574,423L571,424L568,425L565,427L562,428L559,430L556,432L554,433L551,434L549,435L547,437L545,438L543,440L541,442L539,443L538,444L536,447L533,449L531,450L529,453L528,455L526,457L524,459L522,461L520,464L519,466L517,468L516,469L515,471L514,473L513,475L512,476L511,478L511,479L510,480L510,481L509,482L509,483L509,485L507,488L504,493" stroke-opacity="1" stroke-width="5" stroke-linecap="round" stroke-linejoin="round" style="-webkit-tap-highlight-color: rgba(0, 0, 0, 0); stroke-opacity: 1; stroke-linecap: round; stroke-linejoin: round; -webkit-user-select: text;"></path><path fill="none" stroke="#000000" d="M571,501L564,495L561,494L557,493L553,491L549,490L545,488L542,486L538,484L533,481L529,478L524,476L520,473L517,471L514,469L510,467L506,464L502,463L498,460L494,458L491,456L486,454L482,452L477,451L473,449L469,448L465,446L462,444L458,443L456,442L454,441L453,441L452,440L451,440L452,439L453,439L455,439L456,438L458,438L460,437L462,437L463,437L465,436L468,435L470,434L473,433L476,432L479,430L482,428L485,426L487,424L490,421L493,418L495,415L498,412L499,409L501,406L503,403L504,400L505,397L505,394L506,391L506,388L506,385L506,383L506,380L506,377L504,374L503,371L502,369L500,366L498,364L496,362L494,359L492,358L489,357L487,355L484,354L481,353L478,352L475,352L473,351L470,351L468,350L465,350L463,350L460,350L457,350L454,350L451,350L447,350L443,350L440,351L437,351L434,352L431,352L428,353L425,353L422,354L419,354L417,355L414,356L411,356L409,357L407,357L404,357L402,357L400,357L398,357L396,357L393,357L391,357L389,357L387,356L386,355L384,355L382,354L380,353L379,352L377,351L375,349L374,348L373,346L371,345L370,343L369,342L368,340L367,337L366,336L366,334L365,332L364,330L364,328L363,325L363,323L362,320L362,318L362,315L362,313L362,310L362,308L362,306L362,303L362,301L362,299L362,297L363,295L364,292L366,290L368,288L369,286L371,284L373,282L375,281L377,279L379,278L381,276L384,275L386,274L389,273L392,272L395,271L397,270L400,269L404,269L406,268L409,267L412,267L414,267L416,267L419,267L420,267L422,267L424,267L425,267L427,267L428,267L429,267L431,267L432,267L434,267L436,267L437,270" stroke-opacity="1" stroke-width="5" stroke-linecap="round" stroke-linejoin="round" style="-webkit-tap-highlight-color: rgba(0, 0, 0, 0); stroke-opacity: 1; stroke-linecap: round; stroke-linejoin: round; -webkit-user-select: text;"></path><path fill="none" stroke="#000000" d="M429,318L427,322L428,319L430,316L433,313L436,309L439,306L443,302L446,297L451,292L455,288L459,284L464,280L468,276L472,272L477,269L481,265L485,262L490,258L494,255L499,252L504,248L509,245L514,242L520,238L526,235L531,232L537,228L542,226L549,223L555,219L561,216L566,213L573,209L579,206L584,204L589,201L594,198L599,196L604,194L608,191L611,190L613,188L616,187L617,187L618,186L618,185L619,185" stroke-opacity="1" stroke-width="5" stroke-linecap="round" stroke-linejoin="round" style="-webkit-tap-highlight-color: rgba(0, 0, 0, 0); stroke-opacity: 1; stroke-linecap: round; stroke-linejoin: round; -webkit-user-select: text;"></path><path fill="none" stroke="#000000" d="M554,197L556,196L559,196L563,196L567,196L571,196L576,196L581,196L586,196L590,196L595,198L599,199L603,201L607,202L611,204L613,206L620,211L623,213L626,216L628,219L630,221L632,224L634,227L636,230L638,233L639,236L640,239L641,242L642,245L643,249L643,252L644,255L645,258L645,262L645,265L645,269L645,272L645,275L645,279L645,281L645,284L645,287L644,290L643,293L642,296L641,298L640,301L639,303L638,305L637,307L635,309L635,311L633,312L633,313L632,314L630,314L628,314" stroke-opacity="1" stroke-width="5" stroke-linecap="round" stroke-linejoin="round" style="-webkit-tap-highlight-color: rgba(0, 0, 0, 0); stroke-opacity: 1; stroke-linecap: round; stroke-linejoin: round; -webkit-user-select: text;"></path><path fill="none" stroke="#000000" d="M675,230L670,230L667,231L662,233L657,236L652,238L648,241L644,242L639,244L635,246L631,247L627,248L623,250L619,251L615,253L612,254L609,255L606,257L603,258L600,259L596,261L593,262L589,264L585,267L581,268L577,270L573,272L569,273L566,275L563,276L562,276L561,276L560,277L560,278L560,279L560,281L560,283L561,285L562,288L563,291L565,293L566,296L567,299L570,302L572,304L574,307L576,310L579,312L582,315L584,317L587,319L590,321L593,323L596,324L603,327L607,328L610,329L613,330L616,332L619,333L621,335L624,337L626,340L628,342L630,345L631,348L633,352L633,354L633,357L634,361L634,364L634,369L634,373L633,377L631,381L629,385L626,388L623,392L620,395L616,398L611,400L606,402L603,404L598,405L594,406L590,407L587,407L583,407L579,407L575,407L572,407L567,407L563,405L558,404L553,402L548,400L543,398L538,396L533,394L527,392L521,391L515,388L509,387L503,385L497,383L490,383L483,381L476,381L469,381L462,381L454,381L446,381L439,381L431,381L424,381L417,383L411,385L403,388L396,391L388,394L381,398L374,402L367,405L360,409L353,413L346,417L339,422L332,426L325,430L319,434L312,439L307,443L301,447L295,452L290,456L284,460L280,464L274,468L269,472L264,475L260,478L255,481L251,484L246,487L243,489L239,492L235,494L232,496L229,499L226,501L222,503L219,505L216,507L213,509L211,511L208,512L206,514L204,516L202,517L200,518L198,519L193,522" stroke-opacity="1" stroke-width="5" stroke-linecap="round" stroke-linejoin="round" style="-webkit-tap-highlight-color: rgba(0, 0, 0, 0); stroke-opacity: 1; stroke-linecap: round; stroke-linejoin: round; -webkit-user-select: text;"></path><path fill="none" stroke="#000000" d="M132,577L133,577L135,575L137,572L140,570L142,568L145,565L149,561L152,557L156,554L160,550L164,546L168,543L171,539L176,536L179,533L183,530L186,527L189,524L192,522L195,519L198,517L200,514L203,512L206,510L208,507L210,505L212,504L214,503L215,502L216,502L217,502L218,502L219,502L221,503L223,505L225,507L227,510L229,512L231,515L232,517L233,519L234,522L234,524L235,526L235,528L235,531L235,533L235,535L235,538L233,540L232,542L230,544L227,546L225,548L222,550L218,552L214,554L209,556L205,558L200,559L196,560L191,561L186,563L181,564L176,565L171,566L166,568L161,568L156,570L151,572L146,573L141,575L135,577L130,580L124,582L119,585L115,588L111,590L108,593L105,595L103,598L101,602L100,605L98,608L98,612L97,616L97,620L96,624L96,628L96,632L96,636L96,640L97,644L98,649L99,653L101,658L103,663L104,667L105,672L107,676L108,680L110,685L111,688L113,692L113,695L115,699L115,702L116,704L117,707L118,709L119,712L119,714L120,717L120,719L120,720L120,721L120,722L120,723L120,724L120,725L121,725L122,725L123,724L126,722L130,719L134,716L138,712L142,709L147,704L151,700L155,696L159,692L164,687L169,682L173,678L176,673L181,669L185,665L189,661L193,657L197,654L200,651L203,648L206,644L209,642L212,639L215,637L217,635L219,633L221,631L222,629L224,627L225,626L226,625L227,624L227,623L228,622L228,620L228,619L228,616" stroke-opacity="1" stroke-width="5" stroke-linecap="round" stroke-linejoin="round" style="-webkit-tap-highlight-color: rgba(0, 0, 0, 0); stroke-opacity: 1; stroke-linecap: round; stroke-linejoin: round; -webkit-user-select: text;"></path><path fill="none" stroke="#000000" d="M238,621L239,625L239,629L239,633L239,639L239,645L238,651L236,658L234,663L232,668L229,672L227,676L224,679L221,682L218,684L214,685L211,687L208,688L205,689L203,690L200,690L197,690L194,691L191,691L188,691L185,691L182,691L179,691L177,691L174,690L171,689L169,687L166,685L163,683L160,682L158,680L156,678L154,675L152,673L151,671L149,669L147,666L146,663L144,660L143,656L142,653L141,651L140,648L140,645L139,642L139,635L139,631L139,628L139,625L139,622L139,618L139,614L139,611L140,607L140,604L141,600L142,597L143,594L144,590L145,587L147,583L148,579L149,575L151,571L153,567L155,563L157,558L160,554L162,551L164,547L166,544L168,540L170,537L172,534L173,531L175,529L176,526L177,523L179,520L180,517L181,514L183,510L184,507L186,503L187,499L188,495L189,491L190,488L191,484L191,481L192,477L192,473L192,470L192,466L192,464L192,460L192,457L192,454L192,451L192,449L192,447L192,446L192,444L192,443L192,441L192,439" stroke-opacity="1" stroke-width="5" stroke-linecap="round" stroke-linejoin="round" style="-webkit-tap-highlight-color: rgba(0, 0, 0, 0); stroke-opacity: 1; stroke-linecap: round; stroke-linejoin: round; -webkit-user-select: text;"></path><path fill="none" stroke="#000000" d="M95,434L97,432L101,432L107,430L113,427L120,425L125,422L132,420L138,419L144,417L149,416L155,415L160,414L165,413L171,412L176,411L181,410L187,409L191,408L196,408L200,406L204,405L208,404L211,403L214,401L217,400L218,400L220,399L221,399L221,400L220,402L219,404L217,407L215,410L213,414L210,417L206,421L202,425L197,428L192,431L186,432L181,434L176,435L171,436L165,437L161,437L157,437L153,437L150,437L147,437L145,435L142,433L141,430L139,428L138,426L137,424L136,421L135,418L135,415L134,413L134,409L134,406L134,403L134,400L134,397L134,393L134,390L134,387L134,384L134,381L134,377L134,374L134,370L135,367L137,363L138,360L140,356L142,353L143,349L145,346L147,342L148,339L150,335L152,332L153,328L154,325L156,321L157,318L157,315L158,312L158,309L158,307L158,304L158,302L158,300L158,298L157,295L156,293L155,291L153,288L152,285L151,283L149,281L147,278L145,276L143,274L140,273L138,272L135,272L133,271L130,270L127,270L125,270L122,270L120,270L117,272L115,274L113,276L110,279L108,281L107,285L105,288L104,290L103,293L103,295L103,296L103,297L103,298L104,298L106,298L108,298L111,298L114,298L117,297L121,295L125,291L131,287L137,283L142,279L149,274L157,268L164,262L172,256L180,251L189,245L197,240L206,234L214,229L221,225L227,220L232,217L236,214L239,212L242,210L243,209L244,208L244,207L244,206" stroke-opacity="1" stroke-width="5" stroke-linecap="round" stroke-linejoin="round" style="-webkit-tap-highlight-color: rgba(0, 0, 0, 0); stroke-opacity: 1; stroke-linecap: round; stroke-linejoin: round; -webkit-user-select: text;"></path><path fill="none" stroke="#000000" d="M132,171L122,167L121,167L120,167L122,168L127,172L132,176L137,180L143,186L149,191L154,197L160,203L165,208L170,213L175,218L181,223L186,228L191,233L195,237L200,242L204,245L208,249L210,252L213,254L215,256L216,257L217,257L216,256L209,251" stroke-opacity="1" stroke-width="5" stroke-linecap="round" stroke-linejoin="round" style="-webkit-tap-highlight-color: rgba(0, 0, 0, 0); stroke-opacity: 1; stroke-linecap: round; stroke-linejoin: round; -webkit-user-select: text;"></path><path fill="none" stroke="#000000" d="M75,241L82,238L87,238L92,235L97,233L103,229L110,226L115,222L120,218L124,214L128,210L132,206L136,202L139,198L143,194L145,191L148,187L150,183L153,179L155,176L157,172L159,169L161,165L163,161L165,157L167,154L169,151L170,148L172,145L175,139L177,136L179,133L181,131L184,127L186,124L189,121L192,118L195,116L198,113L200,111L203,109L205,107L208,105L210,103L213,101L215,100L218,99L220,98L223,97L226,96L229,96L232,95L234,94L237,94L239,94L241,94L242,94L244,94L246,94L248,94L250,94L253,94L256,95" stroke-opacity="1" stroke-width="5" stroke-linecap="round" stroke-linejoin="round" style="-webkit-tap-highlight-color: rgba(0, 0, 0, 0); stroke-opacity: 1; stroke-linecap: round; stroke-linejoin: round; -webkit-user-select: text;"></path></svg>