<svg height="618" version="1.1" width="1024" xmlns="http://www.w3.org/2000/svg" xmlns:xlink="http://www.w3.org/1999/xlink" style="overflow: hidden; position: relative; -webkit-user-select: text;"><desc style="-webkit-tap-highlight-color: rgba(0, 0, 0, 0); -webkit-user-select: text;">Created with Raphaël 2.2.0</desc><defs style="-webkit-tap-highlight-color: rgba(0, 0, 0, 0); -webkit-user-select: text;"></defs><path fill="none" stroke="#000000" d="M208,28L207,31L207,32L207,33L207,34L207,36L207,37L207,38L207,40L207,41L207,43L208,44L208,45L208,47L208,49L208,51L208,53L208,55L209,57L209,60L209,62L209,64L210,67L210,69L210,72L210,75L210,77L210,80L210,84L210,87L210,90L210,93L210,96L211,99L211,101L211,105L211,108L211,111L211,114L211,117L212,120L212,123L212,126L212,128L212,131L212,134L212,137L213,140L213,143L213,145L214,147L214,149L214,151L214,153L215,155L215,157L215,159L215,161L215,163L216,165L216,167L216,169L217,171L217,173L217,175L217,177L218,179L218,182L219,184L219,187L220,189L220,191L220,194L220,196L220,198L220,199L221,201L221,203L222,204L222,206L222,207L222,208L223,209L223,211L223,212L223,213L224,215L224,216L224,218L225,219L225,221L225,223L226,225L226,226L226,228L227,229L227,231L227,233L228,235L229,237L229,238L230,240L231,242L231,244L232,246L233,247L234,249L234,251L235,252L236,254L237,256L237,257L239,259L240,261L241,264L242,267L244,270L248,274" stroke-opacity="1" stroke-width="2" stroke-linecap="round" stroke-linejoin="round" style="-webkit-tap-highlight-color: rgba(0, 0, 0, 0); stroke-opacity: 1; stroke-linecap: round; stroke-linejoin: round; -webkit-user-select: text;"></path><path fill="none" stroke="#000000" d="M147,72L154,74L156,74L158,74L159,74L161,74L163,74L165,74L167,74L169,74L172,73L175,73L178,72L181,72L183,72L186,71L190,71L193,71L197,71L200,71L204,71L208,71L212,71L215,71L220,71L223,71L227,71L231,72L235,73L238,75L242,76L246,77L249,79L253,81L256,83L260,85L263,88L267,90L271,93L274,95L277,98L280,101L283,104L286,106L288,109L291,111L293,114L295,117L297,119L298,122L299,124L300,127L301,129L302,132L303,134L304,137L305,139L305,142L305,145L306,148L306,150L306,153L306,156L306,159L306,161L306,164L306,167L306,169L306,172L306,174L305,176L305,179L304,181L302,183L302,185L301,187L300,189L299,191L298,193L296,194L295,196L294,198L293,200L291,201L290,203L288,205L286,206L284,208L283,209L280,211L278,212L276,213L274,214L271,215L269,216L266,217L263,218L260,218L257,218L254,219L251,219L249,220L246,220L244,220L242,220L240,220L239,220L237,220L235,220L233,220L231,220L229,220L228,220L226,220L225,220L222,220L221,220L219,220L217,219L214,219L212,218L210,218L208,218L206,217L204,216L202,216L200,216L197,215L195,214L192,214L189,213L186,213L183,213L180,213L177,213L171,213L163,213L152,215L142,219L136,223L130,227" stroke-opacity="1" stroke-width="2" stroke-linecap="round" stroke-linejoin="round" style="-webkit-tap-highlight-color: rgba(0, 0, 0, 0); stroke-opacity: 1; stroke-linecap: round; stroke-linejoin: round; -webkit-user-select: text;"></path><path fill="none" stroke="#000000" d="M155,44L155,50L156,59L158,64L160,69L163,75L166,82L168,87L171,94L175,99L179,105L183,110L188,116L192,121L197,125L201,130L206,134L211,138L217,142L223,146L229,150L235,154L241,158L247,162L254,165L260,169L267,172L275,174L282,177L289,179L296,181L304,183L312,184L321,186L329,187L339,189L348,190L357,191L366,194L374,196L381,198L389,201L396,204L403,208L409,212L416,216L422,221L428,225L434,230L441,235L446,239L452,244L457,249L462,254L466,259L470,265L473,271L476,276L478,281L480,287L482,293L483,300L484,306L484,313L484,319L484,325L484,331L484,337L482,344L480,351L477,357L474,363L470,370L466,376L460,383L454,390L446,396L439,402L430,408L421,412L411,416L402,419L393,421L384,423L376,424L368,425L361,425L354,425L348,425L341,423L335,421L328,418L323,415L317,412L311,408L307,405L302,402L297,398L292,394L288,391L284,386L280,382L277,378L273,374L271,369L268,364L266,360L264,355L262,351L261,346L259,341L259,337L258,332L257,327L257,322L257,318L257,313L257,308L257,304L257,299L257,295L258,291L259,287L261,283L263,278L266,272L271,265L279,258L287,249" stroke-opacity="1" stroke-width="2" stroke-linecap="round" stroke-linejoin="round" style="-webkit-tap-highlight-color: rgba(0, 0, 0, 0); stroke-opacity: 1; stroke-linecap: round; stroke-linejoin: round; -webkit-user-select: text;"></path><path fill="none" stroke="#000000" d="M478,63L477,67L475,70L473,75L470,79L467,83L462,89L457,94L452,100L446,106L440,112L433,120L427,127L421,135L416,142L410,150L404,158L397,167L390,175L383,184L375,192L368,200L361,209L353,218L346,226L338,235L330,243L324,251L317,258L311,265L304,272L298,279L292,286L286,293L281,299L276,305L271,311L267,316L263,321L259,325L256,330L254,332L251,334L249,335L246,335" stroke-opacity="1" stroke-width="2" stroke-linecap="round" stroke-linejoin="round" style="-webkit-tap-highlight-color: rgba(0, 0, 0, 0); stroke-opacity: 1; stroke-linecap: round; stroke-linejoin: round; -webkit-user-select: text;"></path><path fill="none" stroke="#000000" d="M172,287L174,291L176,294L179,298L182,302L186,306L191,312L195,316L200,321L205,326L211,330L217,335L223,339L229,343L235,347L242,350L249,354L256,357L263,359L270,361L276,362L284,363L291,364L298,364L307,364L315,364L323,362L331,360L338,357L344,354L350,350L356,347L361,342L366,337L371,332L376,326L382,320L387,314L391,308L395,301L399,295L402,289L405,282L407,276L409,271L411,265L412,259L413,253L414,248L414,242L414,236L414,231L414,225L414,220L414,215L412,210L411,205L409,200L407,195L405,191L403,186L401,181L399,177L397,172L395,168L392,163L391,160L388,155L386,150L384,147L382,143L380,140L378,136L376,133L374,129L371,126L366,122" stroke-opacity="1" stroke-width="2" stroke-linecap="round" stroke-linejoin="round" style="-webkit-tap-highlight-color: rgba(0, 0, 0, 0); stroke-opacity: 1; stroke-linecap: round; stroke-linejoin: round; -webkit-user-select: text;"></path><path fill="none" stroke="#000000" d="M336,309L319,292L315,288L309,283L304,278L299,272L295,265L291,258L288,251L286,244L284,238L284,231L283,224L283,217L283,210L283,204L284,197L285,191L288,186L290,181L293,176L297,170L300,166L302,163L306,159L310,156L313,153L316,150L319,148L324,146L329,144L335,142L342,140L348,138L354,137L359,136L366,135L371,135L378,135L383,135L389,135L394,135L398,137L403,138L407,140L412,143L416,145L419,148L423,151L426,154L429,156L433,160L436,163L440,166L443,169L446,173L450,176L453,180L457,183L460,187L463,190L466,194L470,198L473,201L476,206L480,209L483,213L487,217L490,221L494,224L497,227L501,230L505,233L509,236L513,239L517,242L521,245L525,247L529,250L533,252L538,254L543,256L546,258L550,259L555,261L560,262L565,263L569,264L574,265L578,265L583,265L588,266L592,266L597,266L601,266L605,266L609,266L612,265L616,264L619,263L622,261L625,259L628,257L631,256L634,253L637,251L640,249L643,246L646,243L649,239L652,236L654,233L656,229L658,225L660,220L662,216L664,211L666,206L668,201L669,196L671,191L673,186L675,181L677,176L678,171L680,165L682,160L684,155L685,149L687,144L689,139L691,134L693,128L694,123L696,118L698,112L700,106L703,100L706,94L710,87L714,81L721,74L728,67L735,61L743,55L753,49L765,42L781,36" stroke-opacity="1" stroke-width="2" stroke-linecap="round" stroke-linejoin="round" style="-webkit-tap-highlight-color: rgba(0, 0, 0, 0); stroke-opacity: 1; stroke-linecap: round; stroke-linejoin: round; -webkit-user-select: text;"></path><path fill="none" stroke="#000000" d="M875,110L866,113L860,113L852,113L842,115L832,116L820,118L808,120L795,122L783,124L771,125L759,126L745,128L731,129L717,130L702,131L686,132L672,133L657,133L643,134L630,135L617,135L604,135L591,136L578,137L564,137L548,138L529,138L506,138L472,139" stroke-opacity="1" stroke-width="2" stroke-linecap="round" stroke-linejoin="round" style="-webkit-tap-highlight-color: rgba(0, 0, 0, 0); stroke-opacity: 1; stroke-linecap: round; stroke-linejoin: round; -webkit-user-select: text;"></path><path fill="none" stroke="#000000" d="M223,44L238,43L246,42L255,42L265,41L276,41L291,40L304,40L318,40L332,40L346,40L361,40L378,42L395,44L412,46L430,50L448,53L464,58L480,63L497,68L513,73L528,80L543,87L557,94L570,102L583,110L596,118L608,127L619,135L629,144L639,152L648,162L655,170L662,179L669,188L676,198L682,207L686,217L690,226L694,235L696,243L699,251L701,259L704,267L706,275L707,283L709,291L711,299L712,308L713,316L714,325L715,334L716,345L716,354L716,365L717,375L717,386" stroke-opacity="1" stroke-width="2" stroke-linecap="round" stroke-linejoin="round" style="-webkit-tap-highlight-color: rgba(0, 0, 0, 0); stroke-opacity: 1; stroke-linecap: round; stroke-linejoin: round; -webkit-user-select: text;"></path><path fill="none" stroke="#000000" d="M624,437L615,434L609,433L601,430L594,427L586,424L579,420L572,416L565,412L558,407L551,401L544,395L538,388L532,381L526,374L521,366L516,358L512,350L508,342L505,334L503,325L501,316L500,307L500,298L500,288L500,279L502,268L506,257L511,247L516,236L523,226L529,216L536,206L544,197L552,189L560,181L568,174L576,168L585,162L595,157L606,152L616,149L625,148L635,146L645,146L655,146L667,146L678,149L688,152L697,157L706,162L713,167L721,174L728,180L735,187L741,195L747,203L751,211L754,219L756,227L758,236L758,245L758,253L758,262L757,271L754,279L750,288L745,296L739,304L732,311L724,318L716,325L707,330L696,336L686,340L674,344L662,347L651,349L639,351L626,352L613,352L600,352L587,352L573,352L559,352L546,351L533,349L521,348L509,346L497,345L484,344L471,342L458,341L445,340L431,339L419,338L407,338L396,337L383,337L372,337L361,337L350,340L339,342L329,345L319,349L310,353L302,357L295,361L287,366L279,372L273,378L266,385L260,392L254,399L249,407L245,416L240,426L236,436L232,447L229,459L227,471L227,484L227,497" stroke-opacity="1" stroke-width="2" stroke-linecap="round" stroke-linejoin="round" style="-webkit-tap-highlight-color: rgba(0, 0, 0, 0); stroke-opacity: 1; stroke-linecap: round; stroke-linejoin: round; -webkit-user-select: text;"></path><path fill="none" stroke="#000000" d="M251,551L249,546L248,543L246,538L244,532L241,525L237,517L233,506L229,496L225,484L220,470L214,456L208,442L201,426L194,411L187,395L179,378L172,362L165,345L158,327L151,305L145,284L139,263L133,246" stroke-opacity="1" stroke-width="2" stroke-linecap="round" stroke-linejoin="round" style="-webkit-tap-highlight-color: rgba(0, 0, 0, 0); stroke-opacity: 1; stroke-linecap: round; stroke-linejoin: round; -webkit-user-select: text;"></path><path fill="none" stroke="#000000" d="M90,218L92,237L96,251L101,266L106,282L113,298L120,315L129,331L139,346L149,361L161,374L174,388L191,401L206,412L222,422L237,430L253,438L269,445L285,450L302,454L319,456L334,458L352,458L368,458L383,455L399,450L414,443L430,436L446,427L463,415L481,402L502,386L524,369L545,350L564,330L585,309" stroke-opacity="1" stroke-width="2" stroke-linecap="round" stroke-linejoin="round" style="-webkit-tap-highlight-color: rgba(0, 0, 0, 0); stroke-opacity: 1; stroke-linecap: round; stroke-linejoin: round; -webkit-user-select: text;"></path><path fill="none" stroke="#000000" d="M674,135L665,133L658,133L648,134L633,138L617,143L600,149L582,155L562,163L543,172L524,183L508,195L494,209L485,221L477,235L472,249L470,262L469,276L469,291L469,305L473,322L476,337L479,353L482,368L483,382L484,397L484,412L484,427L484,441L479,456L474,468L467,481L459,493L450,504L440,513L428,521L412,529L395,536L378,540L362,542L348,542L333,542L317,540L305,534L292,527L280,519L270,510L260,499L252,488L246,476L241,465L237,452L234,439L233,427L232,414L232,401L234,389L240,375L248,363L257,351L268,341L281,331L297,323L313,316L329,310L346,308L361,306L379,306L396,308L413,313L430,321L446,331L459,344L470,359L477,376L477,397" stroke-opacity="1" stroke-width="2" stroke-linecap="round" stroke-linejoin="round" style="-webkit-tap-highlight-color: rgba(0, 0, 0, 0); stroke-opacity: 1; stroke-linecap: round; stroke-linejoin: round; -webkit-user-select: text;"></path><path fill="none" stroke="#000000" d="M167,417L171,410L179,410L191,409L206,409L225,409L244,409L263,410L286,411L314,413L341,415L370,418L401,420L434,423L468,426L505,428L544,431L582,433L621,435L660,437L702,439L748,440L791,440" stroke-opacity="1" stroke-width="2" stroke-linecap="round" stroke-linejoin="round" style="-webkit-tap-highlight-color: rgba(0, 0, 0, 0); stroke-opacity: 1; stroke-linecap: round; stroke-linejoin: round; -webkit-user-select: text;"></path><path fill="none" stroke="#000000" d="M660,509L661,515L666,515L676,515L690,515L708,515L726,513L744,508L761,502L778,495L794,487L812,476L828,465L840,454L852,441L860,427L867,411L872,394L876,376L876,357L876,338L871,319L861,297L848,277L833,259L816,240L796,225L772,210L747,198L721,188L694,180L665,175L636,174L609,174L581,176L553,184L527,195L504,210L482,227L462,246L446,266L431,289L419,314L409,340L404,366L403,388L403,412L410,436" stroke-opacity="1" stroke-width="2" stroke-linecap="round" stroke-linejoin="round" style="-webkit-tap-highlight-color: rgba(0, 0, 0, 0); stroke-opacity: 1; stroke-linecap: round; stroke-linejoin: round; -webkit-user-select: text;"></path><path fill="none" stroke="#000000" d="M259,316L271,316L284,318L300,324L314,332L327,343L338,357L347,373L354,391L362,408L371,428L382,446L394,463L408,480L424,495L441,510L459,523L479,535L500,543L525,547L552,547L581,546L612,539L642,529L670,515L696,497L719,478L737,457L750,437L757,414L761,389L762,367L758,340L747,316L731,294L711,274L687,257L659,243L629,233L600,226L570,225L543,225L518,233L497,244L478,259L464,276L453,294L445,315L441,335L441,356L441,376L446,396L455,416L466,432L479,445L493,454L514,462L534,465L558,465L584,463L607,454L627,442L643,427L655,410L665,391L673,371L681,349L687,326L694,302L704,277L720,252L740,227L761,204L785,181L818,162L851,147L878,139L900,137L922,137" stroke-opacity="1" stroke-width="2" stroke-linecap="round" stroke-linejoin="round" style="-webkit-tap-highlight-color: rgba(0, 0, 0, 0); stroke-opacity: 1; stroke-linecap: round; stroke-linejoin: round; -webkit-user-select: text;"></path><path fill="none" stroke="#000000" d="M900,239L899,249L896,257L888,270L877,284L861,298L842,312L821,325L796,337L764,349L727,361L683,374L629,388L569,403L505,419L434,435L364,452" stroke-opacity="1" stroke-width="2" stroke-linecap="round" stroke-linejoin="round" style="-webkit-tap-highlight-color: rgba(0, 0, 0, 0); stroke-opacity: 1; stroke-linecap: round; stroke-linejoin: round; -webkit-user-select: text;"></path><path fill="none" stroke="#000000" d="M437,366L447,370L458,376L469,386L481,399L494,415L508,431L524,445L542,460L563,473L588,483L616,489L645,493L674,493L706,490L737,481L762,468L783,452L799,434L812,415L820,395L823,377L824,356L824,333L819,308L813,285L798,262" stroke-opacity="1" stroke-width="2" stroke-linecap="round" stroke-linejoin="round" style="-webkit-tap-highlight-color: rgba(0, 0, 0, 0); stroke-opacity: 1; stroke-linecap: round; stroke-linejoin: round; -webkit-user-select: text;"></path><path fill="none" stroke="#000000" d="M677,144L689,148L706,159L723,175L735,195L742,218L745,242L745,265L744,293L733,318L718,342L700,361L682,375L661,384L638,391L614,393L584,394L547,394L509,394L469,394L429,399L389,408L350,423L317,440L293,459L276,479L265,500L260,518L260,538L262,558L273,578L288,595L305,606L322,611L344,612L368,612L399,611L431,602L461,583L487,561L511,539L530,514L544,486L550,459L550,432L543,406L527,379L508,352L485,325L459,298L433,271L406,242L385,208L370,173L364,138" stroke-opacity="1" stroke-width="2" stroke-linecap="round" stroke-linejoin="round" style="-webkit-tap-highlight-color: rgba(0, 0, 0, 0); stroke-opacity: 1; stroke-linecap: round; stroke-linejoin: round; -webkit-user-select: text;"></path><path fill="none" stroke="#000000" d="M535,171L523,181L499,194L463,211L417,233L363,258L307,285L248,314L191,345" stroke-opacity="1" stroke-width="2" stroke-linecap="round" stroke-linejoin="round" style="-webkit-tap-highlight-color: rgba(0, 0, 0, 0); stroke-opacity: 1; stroke-linecap: round; stroke-linejoin: round; -webkit-user-select: text;"></path><path fill="none" stroke="#000000" d="M163,221L181,234L199,247L220,265L246,285L274,308L304,330L335,354L366,380L399,407L434,432L468,455L502,475L539,490L574,500L609,505L644,505L676,500L705,487L730,469L747,447L761,422L769,395L771,367L771,338L764,308L752,277L735,249L718,221L698,196L674,175L649,157L622,140L594,128L565,119L537,114L512,112" stroke-opacity="1" stroke-width="2" stroke-linecap="round" stroke-linejoin="round" style="-webkit-tap-highlight-color: rgba(0, 0, 0, 0); stroke-opacity: 1; stroke-linecap: round; stroke-linejoin: round; -webkit-user-select: text;"></path><path fill="none" stroke="#000000" d="M294,94L302,94L317,97L334,102L357,109L381,115L407,122L430,132L448,145L461,163L470,183L475,206L477,227L477,252L477,277L479,302L483,327L491,347L502,366L516,381L533,393L553,402L572,406L599,406L625,400L648,388L670,371L690,349L707,324L719,298L726,270L728,242L727,215L715,189L695,165L667,147L634,133L598,126L557,125L516,126L479,135L442,147L408,165L375,185L340,208L306,234L273,260L244,285L220,308L203,330L191,350L183,364L178,379L175,391L174,400L174,409L175,415L177,419L181,420" stroke-opacity="1" stroke-width="2" stroke-linecap="round" stroke-linejoin="round" style="-webkit-tap-highlight-color: rgba(0, 0, 0, 0); stroke-opacity: 1; stroke-linecap: round; stroke-linejoin: round; -webkit-user-select: text;"></path><path fill="none" stroke="#000000" d="M85,226L97,233L113,239L138,250L168,260L203,271L242,284L284,296L331,309L380,323L431,334L480,344" stroke-opacity="1" stroke-width="2" stroke-linecap="round" stroke-linejoin="round" style="-webkit-tap-highlight-color: rgba(0, 0, 0, 0); stroke-opacity: 1; stroke-linecap: round; stroke-linejoin: round; -webkit-user-select: text;"></path><path fill="none" stroke="#000000" d="M400,421L377,417L350,415L322,410L295,402L268,391L241,376L216,358L195,335L177,310L163,286L154,261L150,236L151,210L161,185L178,162L202,143L234,124L268,109L304,99L338,95L368,95L397,97L425,102L443,108" stroke-opacity="1" stroke-width="2" stroke-linecap="round" stroke-linejoin="round" style="-webkit-tap-highlight-color: rgba(0, 0, 0, 0); stroke-opacity: 1; stroke-linecap: round; stroke-linejoin: round; -webkit-user-select: text;"></path><path fill="none" stroke="#000000" d="M471,70L473,72L473,80L477,95L480,114L483,133L484,155L484,177L475,201L460,223L439,240L417,254L394,263L373,267L351,267L325,264L301,256L276,247L251,238L225,233L202,232L174,235L149,245L128,259L112,275L99,295L90,319L82,344L78,370L76,398L76,425L80,451L89,476L101,499L115,518L132,534L149,546L166,554L186,557L211,556L238,546L270,524L306,497L334,472" stroke-opacity="1" stroke-width="2" stroke-linecap="round" stroke-linejoin="round" style="-webkit-tap-highlight-color: rgba(0, 0, 0, 0); stroke-opacity: 1; stroke-linecap: round; stroke-linejoin: round; -webkit-user-select: text;"></path><path fill="none" stroke="#000000" d="M96,524L94,521L111,509L140,492L176,470L223,446L275,416L335,384L397,349L459,315L516,289" stroke-opacity="1" stroke-width="2" stroke-linecap="round" stroke-linejoin="round" style="-webkit-tap-highlight-color: rgba(0, 0, 0, 0); stroke-opacity: 1; stroke-linecap: round; stroke-linejoin: round; -webkit-user-select: text;"></path><path fill="none" stroke="#000000" d="M631,213L637,216L638,221L638,232L634,248L624,269L613,291L598,316L580,340L558,364L531,387L501,408L464,427L425,440L388,448L351,449L316,447L286,434L258,416L232,394L210,366L192,337L177,306" stroke-opacity="1" stroke-width="2" stroke-linecap="round" stroke-linejoin="round" style="-webkit-tap-highlight-color: rgba(0, 0, 0, 0); stroke-opacity: 1; stroke-linecap: round; stroke-linejoin: round; -webkit-user-select: text;"></path><path fill="none" stroke="#000000" d="M154,158L152,172L149,188L144,209L141,235L140,257L140,283L147,305L157,326L171,344L189,358L212,367L237,372L266,372L295,364L323,349L347,328L366,303L380,275L390,246L400,216L409,186L420,158L435,133L454,109L475,90L500,76L528,68L555,65L580,65L607,74L636,86L661,105L683,128L702,154L717,182L727,210L733,240L733,270L730,299L720,325L703,350L680,373L650,393L614,413L575,427L533,437L492,442L453,442L419,437L388,422L361,403L343,381L334,357L332,332L332,306L345,280L376,253L431,229" stroke-opacity="1" stroke-width="2" stroke-linecap="round" stroke-linejoin="round" style="-webkit-tap-highlight-color: rgba(0, 0, 0, 0); stroke-opacity: 1; stroke-linecap: round; stroke-linejoin: round; -webkit-user-select: text;"></path><path fill="none" stroke="#000000" d="M569,191L563,196L563,204L567,217L579,238L594,260L613,285L637,312L663,341L692,372L725,403L757,432L786,460L815,483L837,498" stroke-opacity="1" stroke-width="2" stroke-linecap="round" stroke-linejoin="round" style="-webkit-tap-highlight-color: rgba(0, 0, 0, 0); stroke-opacity: 1; stroke-linecap: round; stroke-linejoin: round; -webkit-user-select: text;"></path><path fill="none" stroke="#000000" d="M523,482L517,478L511,468L507,454L507,436L507,415L516,386L531,356L552,323L577,292L604,268L634,250L665,237L699,230L737,228L775,229L813,239L851,253L883,272L909,291" stroke-opacity="1" stroke-width="2" stroke-linecap="round" stroke-linejoin="round" style="-webkit-tap-highlight-color: rgba(0, 0, 0, 0); stroke-opacity: 1; stroke-linecap: round; stroke-linejoin: round; -webkit-user-select: text;"></path><path fill="none" stroke="#000000" d="M922,283L925,288L927,302L930,320L931,344L927,373L914,399L895,425L870,449L837,472L800,490L759,503L718,510L676,510L632,504L592,489L557,470L533,447L514,420L504,389L499,358L499,325L503,293L513,263L526,234L541,208L558,184L577,162L597,142L618,124L635,107L649,90L657,75L662,57L663,38L660,20L652,4L640,-8L622,-19L600,-25L570,-25L531,-22L481,-6L419,19L357,54L299,97L243,144" stroke-opacity="1" stroke-width="2" stroke-linecap="round" stroke-linejoin="round" style="-webkit-tap-highlight-color: rgba(0, 0, 0, 0); stroke-opacity: 1; stroke-linecap: round; stroke-linejoin: round; -webkit-user-select: text;"></path><path fill="none" stroke="#000000" d="M200,322L222,330L246,339L262,345L279,349L310,356L349,364L396,367L461,365L549,349" stroke-opacity="1" stroke-width="2" stroke-linecap="round" stroke-linejoin="round" style="-webkit-tap-highlight-color: rgba(0, 0, 0, 0); stroke-opacity: 1; stroke-linecap: round; stroke-linejoin: round; -webkit-user-select: text;"></path><path fill="none" stroke="#000000" d="M385,199L383,213L381,229L378,256L375,283L375,312L375,341L381,369L392,395L407,418L426,439L449,458L478,473L511,483L551,488L591,488L634,481L680,463L723,439L762,411L794,380L818,351L830,325L836,300L838,279" stroke-opacity="1" stroke-width="2" stroke-linecap="round" stroke-linejoin="round" style="-webkit-tap-highlight-color: rgba(0, 0, 0, 0); stroke-opacity: 1; stroke-linecap: round; stroke-linejoin: round; -webkit-user-select: text;"></path><path fill="none" stroke="#000000" d="M795,146L796,155L796,166L800,181L805,200L808,223L808,246L807,272L798,295L784,316L766,336L742,355L716,370L687,381L660,386L638,386L615,382L597,371L583,356L574,337L567,317L562,293L558,268L554,243L550,218L545,195L537,172L526,150L512,131L497,114L479,102L458,94L438,92L411,92L387,101L364,114L344,131L327,152L314,175L304,201L297,230L295,258L295,286L299,313L308,337L321,361L336,382L353,403L373,421L395,435L419,445L444,452L470,455L507,452L557,434L609,411L652,386" stroke-opacity="1" stroke-width="2" stroke-linecap="round" stroke-linejoin="round" style="-webkit-tap-highlight-color: rgba(0, 0, 0, 0); stroke-opacity: 1; stroke-linecap: round; stroke-linejoin: round; -webkit-user-select: text;"></path><path fill="none" stroke="#000000" d="M714,133L705,142L691,155L672,174L649,197L622,227L590,262L552,298L510,337L465,378L419,416L377,453L332,485" stroke-opacity="1" stroke-width="2" stroke-linecap="round" stroke-linejoin="round" style="-webkit-tap-highlight-color: rgba(0, 0, 0, 0); stroke-opacity: 1; stroke-linecap: round; stroke-linejoin: round; -webkit-user-select: text;"></path><path fill="none" stroke="#000000" d="M218,360L220,366L222,376L229,392L242,414L257,435L276,457L299,478L326,498L355,518L386,536L423,548L460,556L501,558L548,551L602,531L650,507L691,477" stroke-opacity="1" stroke-width="2" stroke-linecap="round" stroke-linejoin="round" style="-webkit-tap-highlight-color: rgba(0, 0, 0, 0); stroke-opacity: 1; stroke-linecap: round; stroke-linejoin: round; -webkit-user-select: text;"></path><path fill="none" stroke="#000000" d="M770,242L774,246L776,257L780,275L784,301L784,329L784,359L776,389L763,418L745,445L724,471L701,492L676,510L648,524L615,536L579,544L541,549L505,551L473,551L445,544L421,532L401,517L381,499L363,479L349,460L337,439L328,417L322,394L318,370L317,348L317,321L319,296L326,274L334,252L344,231L358,210L375,191L395,175L417,160L441,148L466,137L496,128L529,121L562,118L594,118L630,122L665,133L699,150L733,172L759,201L776,235L788,273" stroke-opacity="1" stroke-width="2" stroke-linecap="round" stroke-linejoin="round" style="-webkit-tap-highlight-color: rgba(0, 0, 0, 0); stroke-opacity: 1; stroke-linecap: round; stroke-linejoin: round; -webkit-user-select: text;"></path><path fill="none" stroke="#000000" d="M851,109L852,110L842,120L820,140L791,167L747,199L690,238L616,283L529,332L441,384" stroke-opacity="1" stroke-width="2" stroke-linecap="round" stroke-linejoin="round" style="-webkit-tap-highlight-color: rgba(0, 0, 0, 0); stroke-opacity: 1; stroke-linecap: round; stroke-linejoin: round; -webkit-user-select: text;"></path><path fill="none" stroke="#000000" d="M440,128L443,128L451,136L466,152L484,171L503,193L524,217L545,242L565,267L586,291L610,313L635,334L660,351L687,364L716,372L744,375L771,375L797,371L824,359L849,341L868,319L882,295L892,269L895,248L890,221" stroke-opacity="1" stroke-width="2" stroke-linecap="round" stroke-linejoin="round" style="-webkit-tap-highlight-color: rgba(0, 0, 0, 0); stroke-opacity: 1; stroke-linecap: round; stroke-linejoin: round; -webkit-user-select: text;"></path><path fill="none" stroke="#000000" d="M703,26L711,26L719,28L730,34L749,47L766,63L781,83L794,105L806,128L815,152L822,179L826,206L826,234L824,259L815,283L803,303L788,320L772,332L754,342L733,348L710,352L689,354L667,357L647,362L628,369L613,378L600,392L592,408L587,425L587,443L588,461L594,478L602,495L612,514L622,527L634,541L648,553L663,562L679,569L698,573L719,574L745,573L769,568L793,557L815,544L835,530L851,514L864,495L873,473L880,449L883,425L884,399L883,372L877,345L869,318L855,292L836,269L808,247L765,231" stroke-opacity="1" stroke-width="2" stroke-linecap="round" stroke-linejoin="round" style="-webkit-tap-highlight-color: rgba(0, 0, 0, 0); stroke-opacity: 1; stroke-linecap: round; stroke-linejoin: round; -webkit-user-select: text;"></path></svg>