<svg height="906" version="1.1" width="768" xmlns="http://www.w3.org/2000/svg" xmlns:xlink="http://www.w3.org/1999/xlink" style="overflow: hidden; position: relative; -webkit-user-select: text;"><desc style="-webkit-tap-highlight-color: rgba(0, 0, 0, 0); -webkit-user-select: text;">Created with Raphaël 2.2.0</desc><defs style="-webkit-tap-highlight-color: rgba(0, 0, 0, 0); -webkit-user-select: text;"></defs><path fill="none" stroke="#000000" d="M269,618L276,611L284,604L293,596L303,587L314,577L325,566L337,554L351,539L366,524L380,508L396,489L413,471L430,453L446,434L463,415L480,395L497,376L514,357L530,341L545,324L560,308L573,293L585,278L595,265" stroke-opacity="1" stroke-width="4" stroke-linecap="round" stroke-linejoin="round" style="-webkit-tap-highlight-color: rgba(0, 0, 0, 0); stroke-opacity: 1; stroke-linecap: round; stroke-linejoin: round; -webkit-user-select: text;"></path><path fill="none" stroke="#000000" d="M366,246L358,263L352,280L347,300L341,323L339,344L338,367L338,389L341,414L346,439L354,463L364,485L377,506L391,524L404,541L419,553L435,564L450,570L466,575L483,576L499,576L516,575L534,570L552,564L572,554L589,544L605,533L621,519L636,504L650,487L662,469L672,451L679,435L686,412" stroke-opacity="1" stroke-width="4" stroke-linecap="round" stroke-linejoin="round" style="-webkit-tap-highlight-color: rgba(0, 0, 0, 0); stroke-opacity: 1; stroke-linecap: round; stroke-linejoin: round; -webkit-user-select: text;"></path><path fill="none" stroke="#000000" d="M549,195L553,205L555,217L558,232L560,249L563,267L564,285L564,304L564,324L563,344L560,363L554,383L548,400L538,419L528,437L516,454L503,468L489,481L474,492L458,503L443,512L424,522L407,531L393,539L376,548L360,556L344,565L329,576L315,585L301,595L288,605L274,614L262,625L251,635L241,647L231,657L222,668L214,679L208,689L202,699L198,710L193,720L190,731L188,742" stroke-opacity="1" stroke-width="4" stroke-linecap="round" stroke-linejoin="round" style="-webkit-tap-highlight-color: rgba(0, 0, 0, 0); stroke-opacity: 1; stroke-linecap: round; stroke-linejoin: round; -webkit-user-select: text;"></path><path fill="none" stroke="#000000" d="M237,800L245,793L247,786L251,780L254,772L258,762L261,752L263,739L264,724L265,705L265,684L265,662L265,640L263,613L261,585L259,556L255,527L252,496L248,464L243,433L238,401L233,368L227,338L221,307L215,276L210,246L204,220L198,192" stroke-opacity="1" stroke-width="4" stroke-linecap="round" stroke-linejoin="round" style="-webkit-tap-highlight-color: rgba(0, 0, 0, 0); stroke-opacity: 1; stroke-linecap: round; stroke-linejoin: round; -webkit-user-select: text;"></path><path fill="none" stroke="#000000" d="M139,177L139,184L139,192L139,202L139,214L139,228L139,243L139,260L143,276L149,293L157,309L166,326L176,341L188,355L202,367L216,377L231,385L247,392L264,396L282,398L300,398L319,398L339,396L362,389L383,382L404,373L425,362L444,350L463,337L481,323L497,308L512,291L525,275L535,256" stroke-opacity="1" stroke-width="4" stroke-linecap="round" stroke-linejoin="round" style="-webkit-tap-highlight-color: rgba(0, 0, 0, 0); stroke-opacity: 1; stroke-linecap: round; stroke-linejoin: round; -webkit-user-select: text;"></path><path fill="none" stroke="#000000" d="M555,145L550,140L545,135L540,130L532,125L523,120L514,116L502,112L490,109L477,107L463,106L448,106L435,107L419,112L405,119L391,127L378,138L365,149L353,162L343,176L333,191L325,207L317,224L311,242L305,259L301,276L296,293L291,308L287,324L283,338L278,352L274,365L268,378L263,388L258,399L251,409L245,418L238,427L232,435L225,443L217,450L209,456L201,462L193,468L185,473L177,479L169,484L161,487L154,492L147,495L139,498L133,501L127,504L122,506L115,507L108,508L101,508L91,508" stroke-opacity="1" stroke-width="4" stroke-linecap="round" stroke-linejoin="round" style="-webkit-tap-highlight-color: rgba(0, 0, 0, 0); stroke-opacity: 1; stroke-linecap: round; stroke-linejoin: round; -webkit-user-select: text;"></path><path fill="none" stroke="#000000" d="M95,498L102,493L111,486L123,479L136,470L152,461L170,450L188,439L207,428L228,415L251,402L274,389L297,374L321,360L346,346L371,332L396,318L421,304L446,290L470,276L494,262L516,250L538,238L560,227L579,217L594,210L609,200L621,192" stroke-opacity="1" stroke-width="4" stroke-linecap="round" stroke-linejoin="round" style="-webkit-tap-highlight-color: rgba(0, 0, 0, 0); stroke-opacity: 1; stroke-linecap: round; stroke-linejoin: round; -webkit-user-select: text;"></path><path fill="none" stroke="#000000" d="M550,143L540,138L533,137L525,136L515,136L503,136L493,139L481,146L471,155L460,166L449,177L438,189L428,203L419,218L411,235L404,253L398,271L395,288L392,306L391,324L391,344L391,363L395,383L400,402L407,420L416,441L425,458L435,475L448,491L463,507L480,524L497,540L514,556L530,572" stroke-opacity="1" stroke-width="4" stroke-linecap="round" stroke-linejoin="round" style="-webkit-tap-highlight-color: rgba(0, 0, 0, 0); stroke-opacity: 1; stroke-linecap: round; stroke-linejoin: round; -webkit-user-select: text;"></path><path fill="none" stroke="#000000" d="M500,711L495,704L495,701L499,695L505,688L512,681L521,672L531,662L541,651L553,640L564,627L576,613L587,595L596,580L605,563L613,546L618,528L623,509L625,490L625,471L625,453L623,436L617,418L610,402L601,387L591,373L579,361L567,351L553,342L538,335L522,328L506,322L489,317L472,312L454,308L436,304L418,300L400,296L383,292L366,288L348,285L332,281L316,277L301,272L286,266L273,261L261,254L252,249L243,243L234,235L227,227L220,219L215,209L212,201L208,191L205,181L204,173L203,163L203,154L203,145L204,135" stroke-opacity="1" stroke-width="4" stroke-linecap="round" stroke-linejoin="round" style="-webkit-tap-highlight-color: rgba(0, 0, 0, 0); stroke-opacity: 1; stroke-linecap: round; stroke-linejoin: round; -webkit-user-select: text;"></path><path fill="none" stroke="#000000" d="M273,92L278,98L285,108L295,125L307,145L321,167L338,192L354,219L371,250L391,282L415,318L438,356L462,391L486,426L507,463L531,497L555,530L578,563L603,591" stroke-opacity="1" stroke-width="4" stroke-linecap="round" stroke-linejoin="round" style="-webkit-tap-highlight-color: rgba(0, 0, 0, 0); stroke-opacity: 1; stroke-linecap: round; stroke-linejoin: round; -webkit-user-select: text;"></path><path fill="none" stroke="#000000" d="M577,694L565,689L560,686L558,684L556,682L556,681L562,680L571,680L582,677L594,673L608,666L620,657L633,647L646,634L658,621L670,603L680,586L688,567L696,548L701,531L705,511L707,490L707,468L707,446L701,421L692,398L681,375L666,353L648,333L627,314L604,294L579,276L551,260L521,246L492,233L463,220" stroke-opacity="1" stroke-width="4" stroke-linecap="round" stroke-linejoin="round" style="-webkit-tap-highlight-color: rgba(0, 0, 0, 0); stroke-opacity: 1; stroke-linecap: round; stroke-linejoin: round; -webkit-user-select: text;"></path><path fill="none" stroke="#000000" d="M457,115L467,114L479,113L491,113L505,113L520,115L536,118L548,121L563,126L577,132L591,140L604,149L616,161L626,173L635,186L642,200L648,215L652,231L655,249L656,264L656,281L656,298L652,314L646,329L638,344L627,358L615,370L602,383L585,396L569,407L551,419L533,430L514,441L496,452L477,464L459,475L441,487L424,500L408,512L393,525L379,538L366,551L353,565L342,577L331,590L322,604L314,616L308,629L302,643L298,655L295,667L294,680L294,692L294,703L295,715L298,725L304,737L310,747L319,759L328,769L339,778L352,787L365,796L380,804L397,812L417,818L438,823" stroke-opacity="1" stroke-width="4" stroke-linecap="round" stroke-linejoin="round" style="-webkit-tap-highlight-color: rgba(0, 0, 0, 0); stroke-opacity: 1; stroke-linecap: round; stroke-linejoin: round; -webkit-user-select: text;"></path><path fill="none" stroke="#000000" d="M613,805L605,791L592,781L574,772L553,762L530,752L504,742L473,729L441,717L408,703L374,689L341,676L308,663L274,652L240,641L209,629L180,619L151,610L122,599" stroke-opacity="1" stroke-width="4" stroke-linecap="round" stroke-linejoin="round" style="-webkit-tap-highlight-color: rgba(0, 0, 0, 0); stroke-opacity: 1; stroke-linecap: round; stroke-linejoin: round; -webkit-user-select: text;"></path><path fill="none" stroke="#000000" d="M102,712L119,721L132,729L147,737L163,745L181,752L200,757L221,761L241,762L262,762L283,762L303,757L325,750L344,741L361,730L379,717L395,701L411,685L425,667L438,649L449,630L458,610L465,589L471,567L475,547L477,524L477,500L476,471L469,446L460,420L446,393L429,366L407,341L379,316L346,291L310,263" stroke-opacity="1" stroke-width="4" stroke-linecap="round" stroke-linejoin="round" style="-webkit-tap-highlight-color: rgba(0, 0, 0, 0); stroke-opacity: 1; stroke-linecap: round; stroke-linejoin: round; -webkit-user-select: text;"></path><path fill="none" stroke="#000000" d="M156,344L163,340L171,337L180,333L190,331L200,330L212,330L224,332L237,339L250,346L262,356L273,368L285,381L297,397L307,411L315,428L322,445L328,463L337,484L346,504L355,524L363,545L369,562L375,582L383,602L392,620L403,638L414,655L424,668L437,680L451,691L466,700L482,707L497,711L513,714L528,714L546,714L562,711L578,706L594,699L609,691L623,682L637,670L650,658L662,645L672,630L681,614L690,598L696,581L701,564L704,547L705,529L705,512L704,495L700,479L693,463L681,445L667,430L650,416L631,403L612,392L592,383L570,378L550,375L528,374L506,374L485,376L463,385L443,394L424,405L407,417L389,431L371,446L354,462L335,477L315,493L295,507L276,520L256,533L234,545L212,553L188,560L162,564L137,566L108,566" stroke-opacity="1" stroke-width="4" stroke-linecap="round" stroke-linejoin="round" style="-webkit-tap-highlight-color: rgba(0, 0, 0, 0); stroke-opacity: 1; stroke-linecap: round; stroke-linejoin: round; -webkit-user-select: text;"></path><path fill="none" stroke="#000000" d="M127,509L153,511L169,516L192,524L215,533L240,544L267,556L295,569L324,582L355,596L385,609L414,623L442,635L469,647L495,659L521,671L546,682L569,691L589,699L605,704" stroke-opacity="1" stroke-width="4" stroke-linecap="round" stroke-linejoin="round" style="-webkit-tap-highlight-color: rgba(0, 0, 0, 0); stroke-opacity: 1; stroke-linecap: round; stroke-linejoin: round; -webkit-user-select: text;"></path><path fill="none" stroke="#000000" d="M386,823L383,810L378,797L371,783L365,766L359,748L354,728L352,703L352,679L353,652L360,629L369,606L381,583L395,562L412,545L431,530L452,516L474,502L497,492L521,485L544,478L567,474L587,472L609,470L630,470L652,472L672,477" stroke-opacity="1" stroke-width="4" stroke-linecap="round" stroke-linejoin="round" style="-webkit-tap-highlight-color: rgba(0, 0, 0, 0); stroke-opacity: 1; stroke-linecap: round; stroke-linejoin: round; -webkit-user-select: text;"></path><path fill="none" stroke="#000000" d="M699,626L694,631L686,637L677,642L664,646L650,649L632,649L613,648L590,639L568,629L547,617L528,604L509,587L492,568L475,550L460,531L448,511L439,490L432,469L426,447L422,429L421,408L421,388L423,369L427,351L433,335L439,320L448,305L456,291L466,277L476,264L487,253L497,243L509,235L521,227L532,220L544,214L556,208L566,203L577,199L589,194L600,190L610,185L620,181L630,176L639,170L647,165L655,159L662,154L669,149L675,143L682,137L688,131L693,125L698,119L702,113L706,106L708,100L708,93L708,83L706,71" stroke-opacity="1" stroke-width="4" stroke-linecap="round" stroke-linejoin="round" style="-webkit-tap-highlight-color: rgba(0, 0, 0, 0); stroke-opacity: 1; stroke-linecap: round; stroke-linejoin: round; -webkit-user-select: text;"></path><path fill="none" stroke="#000000" d="M363,62L375,72L393,86L413,103L434,120L457,141L482,162L508,182L534,203L559,223L584,244L608,265L633,286L657,307L681,330L702,354L725,378L743,401L759,426" stroke-opacity="1" stroke-width="4" stroke-linecap="round" stroke-linejoin="round" style="-webkit-tap-highlight-color: rgba(0, 0, 0, 0); stroke-opacity: 1; stroke-linecap: round; stroke-linejoin: round; -webkit-user-select: text;"></path><path fill="none" stroke="#000000" d="M699,246L698,232L697,217L692,198L684,176L674,156L661,137L646,120L629,106L612,96L596,89L576,86L554,85L529,86L507,92L485,102L463,115L442,131L420,149L399,167L380,186L361,207L343,230L327,254L313,279L302,305L295,333L290,362L289,390L289,420L293,453L305,485L323,517L344,549L368,580L393,609" stroke-opacity="1" stroke-width="4" stroke-linecap="round" stroke-linejoin="round" style="-webkit-tap-highlight-color: rgba(0, 0, 0, 0); stroke-opacity: 1; stroke-linecap: round; stroke-linejoin: round; -webkit-user-select: text;"></path><path fill="none" stroke="#000000" d="M485,704L489,695L490,688L492,679L495,667L498,655L500,642L503,625L504,607L504,588L504,568L501,548L494,526L486,504L476,482L464,463L452,446L440,433L427,422L412,412L396,404L378,397L359,392L340,390L323,388L305,388L286,387L266,387L247,387L227,387L207,384L190,381L172,378L156,373L139,366L122,359L106,349L92,341L80,331L69,321L58,309L50,296L43,283L38,269L34,255L31,243L29,228L28,213L28,190" stroke-opacity="1" stroke-width="4" stroke-linecap="round" stroke-linejoin="round" style="-webkit-tap-highlight-color: rgba(0, 0, 0, 0); stroke-opacity: 1; stroke-linecap: round; stroke-linejoin: round; -webkit-user-select: text;"></path><path fill="none" stroke="#000000" d="M105,53L114,56L119,64L127,77L136,93L148,115L159,139L173,166L187,193L200,224L211,256L226,288L241,322L255,360L275,397L295,436L315,476L339,511L360,545L378,574L397,597" stroke-opacity="1" stroke-width="4" stroke-linecap="round" stroke-linejoin="round" style="-webkit-tap-highlight-color: rgba(0, 0, 0, 0); stroke-opacity: 1; stroke-linecap: round; stroke-linejoin: round; -webkit-user-select: text;"></path><path fill="none" stroke="#000000" d="M168,626L161,620L152,611L142,598L131,579L121,560L113,539L107,516L103,492L101,466L99,441L98,417L98,388L105,363L113,341L123,322L137,305L151,289L167,275L185,263L203,254L220,248L239,243L259,239L278,236L299,234L319,233L339,233L359,233L380,233L399,234L417,236L436,238L455,241L473,246L491,252L509,258L526,264L543,272L559,280L572,288" stroke-opacity="1" stroke-width="4" stroke-linecap="round" stroke-linejoin="round" style="-webkit-tap-highlight-color: rgba(0, 0, 0, 0); stroke-opacity: 1; stroke-linecap: round; stroke-linejoin: round; -webkit-user-select: text;"></path><path fill="none" stroke="#000000" d="M367,97L356,93L348,93L339,96L326,102L313,110L300,120L288,132L274,149L261,164L247,182L235,201L225,222L215,244L209,266L204,284L200,305L199,326L199,346L199,364L203,382L210,398L218,414L227,429L236,442L246,454L255,465L266,477L276,488L285,500L293,512L299,525L305,541L309,556L311,572L312,589L312,603L312,621L308,636L302,652L295,666L286,680L277,693L267,705L256,717L246,727L234,737L222,745L210,752L198,759L185,767L173,773L160,780L148,786L136,793L124,800L111,807L98,814L84,820L72,823" stroke-opacity="1" stroke-width="4" stroke-linecap="round" stroke-linejoin="round" style="-webkit-tap-highlight-color: rgba(0, 0, 0, 0); stroke-opacity: 1; stroke-linecap: round; stroke-linejoin: round; -webkit-user-select: text;"></path><path fill="none" stroke="#000000" d="M61,831L66,820L74,806L84,784L92,764L99,742L108,717L117,690L126,662L135,633L145,603L156,571L167,541L178,511L191,479L203,450L214,423L225,396L236,372L245,351L251,335L258,321L262,310L264,300" stroke-opacity="1" stroke-width="4" stroke-linecap="round" stroke-linejoin="round" style="-webkit-tap-highlight-color: rgba(0, 0, 0, 0); stroke-opacity: 1; stroke-linecap: round; stroke-linejoin: round; -webkit-user-select: text;"></path><path fill="none" stroke="#000000" d="M111,347L107,360L101,375L96,393L90,412L84,434L80,453L77,475L77,497L77,519L81,543L89,566L101,589L117,610L134,629L152,648L172,664L194,677L218,689L242,696L266,701L292,704L314,705L343,705L368,702L392,696L416,688L439,678L462,666L483,652L502,638L520,622L536,604L550,584L563,564L572,543" stroke-opacity="1" stroke-width="4" stroke-linecap="round" stroke-linejoin="round" style="-webkit-tap-highlight-color: rgba(0, 0, 0, 0); stroke-opacity: 1; stroke-linecap: round; stroke-linejoin: round; -webkit-user-select: text;"></path><path fill="none" stroke="#000000" d="M390,286L395,287L401,287L408,289L419,291L432,294L448,298L463,302L479,308L494,316L510,326L527,339L543,353L558,368L572,385L586,404L596,424L601,441L605,462L606,481L606,499L601,517L591,538L579,557L567,575L554,594L543,614L531,635L521,656L511,676L504,692L499,709L494,724L491,740L490,754L489,767L489,779L492,789L496,798L500,804L507,812L514,818L524,824L538,830L552,835L568,839L587,841L609,843L638,844" stroke-opacity="1" stroke-width="4" stroke-linecap="round" stroke-linejoin="round" style="-webkit-tap-highlight-color: rgba(0, 0, 0, 0); stroke-opacity: 1; stroke-linecap: round; stroke-linejoin: round; -webkit-user-select: text;"></path><path fill="none" stroke="#000000" d="M721,735L709,731L691,727L665,723L636,717L604,710L567,701L527,691L484,679L439,668L392,656L347,645L304,635L260,626L217,618" stroke-opacity="1" stroke-width="4" stroke-linecap="round" stroke-linejoin="round" style="-webkit-tap-highlight-color: rgba(0, 0, 0, 0); stroke-opacity: 1; stroke-linecap: round; stroke-linejoin: round; -webkit-user-select: text;"></path><path fill="none" stroke="#000000" d="M316,813L332,811L371,805L394,798L415,790L437,778L457,764L476,750L494,733L511,714L528,694L543,672L557,651L569,630L579,606L588,583L594,560L599,537L602,514L603,491L603,467L601,441L594,417L584,393L570,370L553,349L532,328L507,308L477,288L441,271" stroke-opacity="1" stroke-width="4" stroke-linecap="round" stroke-linejoin="round" style="-webkit-tap-highlight-color: rgba(0, 0, 0, 0); stroke-opacity: 1; stroke-linecap: round; stroke-linejoin: round; -webkit-user-select: text;"></path><path fill="none" stroke="#000000" d="M161,183L169,168L175,159L181,150L189,141L198,131L209,123L221,114L236,107L251,101L268,95L286,90L306,86L327,84L347,83L368,82L390,82L412,83L434,87L457,92L477,99L498,108L518,121L536,135L553,151L568,167L580,184L589,202L595,219L598,239L599,260L599,280L594,298L586,319L574,337L560,353L542,368L522,380L502,390L480,399L457,406L433,411L409,413L387,415L363,417L339,418L317,420L295,423L275,426L257,430L242,435L228,441L215,447L202,454L189,462L178,472L167,482L157,494L149,507L141,525L135,548L133,570L133,599L142,628L155,661L178,694L210,727L246,758" stroke-opacity="1" stroke-width="4" stroke-linecap="round" stroke-linejoin="round" style="-webkit-tap-highlight-color: rgba(0, 0, 0, 0); stroke-opacity: 1; stroke-linecap: round; stroke-linejoin: round; -webkit-user-select: text;"></path><path fill="none" stroke="#000000" d="M431,647L424,635L397,603L378,583L353,560L323,533L290,503L254,470L217,436L181,403L148,370L115,341L82,312L55,280" stroke-opacity="1" stroke-width="4" stroke-linecap="round" stroke-linejoin="round" style="-webkit-tap-highlight-color: rgba(0, 0, 0, 0); stroke-opacity: 1; stroke-linecap: round; stroke-linejoin: round; -webkit-user-select: text;"></path><path fill="none" stroke="#000000" d="M79,452L84,463L91,474L101,485L113,495L127,504L144,509L161,512L179,512L198,511L217,506L237,497L256,485L273,472L290,456L305,440L318,421L329,400L339,377L346,355L351,332L353,307L353,281L351,254L342,227L328,199L308,169L281,139" stroke-opacity="1" stroke-width="4" stroke-linecap="round" stroke-linejoin="round" style="-webkit-tap-highlight-color: rgba(0, 0, 0, 0); stroke-opacity: 1; stroke-linecap: round; stroke-linejoin: round; -webkit-user-select: text;"></path><path fill="none" stroke="#000000" d="M161,534L159,520L155,510L148,493L142,475L133,451L127,429L123,403L121,375L120,348L120,322L125,295L134,268L144,243L158,221L173,201L191,182L210,165L231,150L253,138L275,126L296,116L317,108L336,104L358,103L380,103L400,104L418,108L439,115L458,125L476,135L493,146L510,156L526,167L542,178L556,188L570,197L584,204L598,210L609,215L621,219L630,221L640,222L650,222L661,222L674,222L686,221L698,217L709,212L722,206L733,198L744,188L754,175L759,156L760,132" stroke-opacity="1" stroke-width="4" stroke-linecap="round" stroke-linejoin="round" style="-webkit-tap-highlight-color: rgba(0, 0, 0, 0); stroke-opacity: 1; stroke-linecap: round; stroke-linejoin: round; -webkit-user-select: text;"></path></svg>