<svg height="906" version="1.1" width="768" xmlns="http://www.w3.org/2000/svg" xmlns:xlink="http://www.w3.org/1999/xlink" style="overflow: hidden; position: relative; -webkit-user-select: text;"><desc style="-webkit-tap-highlight-color: rgba(0, 0, 0, 0); -webkit-user-select: text;">Created with Raphaël 2.2.0</desc><defs style="-webkit-tap-highlight-color: rgba(0, 0, 0, 0); -webkit-user-select: text;"></defs><path fill="none" stroke="#000000" d="M205,610L219,601L226,594L234,588L244,579L254,570L267,560L281,549L298,536L314,524L331,511L348,497L365,482L382,469L399,456L414,443L426,433L438,424L446,417L452,412L456,409L457,408" stroke-opacity="1" stroke-width="4" stroke-linecap="round" stroke-linejoin="round" style="-webkit-tap-highlight-color: rgba(0, 0, 0, 0); stroke-opacity: 1; stroke-linecap: round; stroke-linejoin: round; -webkit-user-select: text;"></path><path fill="none" stroke="#000000" d="M422,655L414,654L409,654L402,654L393,652L383,647L371,640L359,631L347,620L333,604L321,587L309,567L298,546L289,524L282,501L278,477L276,456L276,435L276,414L278,395L284,378L291,365L297,356L305,349L310,344L314,341L317,340L319,339" stroke-opacity="1" stroke-width="4" stroke-linecap="round" stroke-linejoin="round" style="-webkit-tap-highlight-color: rgba(0, 0, 0, 0); stroke-opacity: 1; stroke-linecap: round; stroke-linejoin: round; -webkit-user-select: text;"></path><path fill="none" stroke="#000000" d="M158,458L167,448L171,443L177,436L184,429L193,422L203,414L215,407L226,402L239,398L251,395L265,393L279,393L293,393L309,395L324,400L337,406L351,412L363,419L376,426L389,434L402,440L412,446L425,451L436,456L447,459L458,461L467,463L477,464L488,464L498,464L509,464L521,464L531,461L542,458L553,455L564,451L574,446L584,439L593,433L602,425L610,418L617,411L623,404L628,399L633,395L636,391L639,390L641,388" stroke-opacity="1" stroke-width="4" stroke-linecap="round" stroke-linejoin="round" style="-webkit-tap-highlight-color: rgba(0, 0, 0, 0); stroke-opacity: 1; stroke-linecap: round; stroke-linejoin: round; -webkit-user-select: text;"></path><path fill="none" stroke="#000000" d="M512,125L509,128L509,134L509,142L511,153L514,164L516,176L518,190L521,208L523,226L526,247L530,273L534,297L538,321L541,347L545,372L548,395L551,416L553,437L554,456L555,468L555,477L555,485L555,489L555,490L555,486" stroke-opacity="1" stroke-width="4" stroke-linecap="round" stroke-linejoin="round" style="-webkit-tap-highlight-color: rgba(0, 0, 0, 0); stroke-opacity: 1; stroke-linecap: round; stroke-linejoin: round; -webkit-user-select: text;"></path><path fill="none" stroke="#000000" d="M597,248L598,255L598,262L596,271L592,283L587,295L581,309L575,323L568,337L561,352L553,367L542,382L528,398L517,410L502,424L487,437L470,450L453,461L434,472L419,479L401,487L385,493L372,499L363,504L355,508L350,511L346,514L343,516L341,518L339,520" stroke-opacity="1" stroke-width="4" stroke-linecap="round" stroke-linejoin="round" style="-webkit-tap-highlight-color: rgba(0, 0, 0, 0); stroke-opacity: 1; stroke-linecap: round; stroke-linejoin: round; -webkit-user-select: text;"></path><path fill="none" stroke="#000000" d="M338,589L344,587L352,587L361,584L372,580L385,575L397,567L409,558L420,548L431,536L441,524L451,511L460,498L467,484L472,470L475,455L478,441L479,427L480,413L480,399L479,386L476,374L471,362L467,351L462,341L455,332L448,323L442,315L435,306L427,298L419,289L412,280L404,272L397,262L391,254L386,244L381,234L378,225L375,217L373,209L371,200L370,192L369,184L369,176L369,167L369,160L369,152L370,144L373,138L375,133L378,129L381,125L383,123L384,121L384,124" stroke-opacity="1" stroke-width="4" stroke-linecap="round" stroke-linejoin="round" style="-webkit-tap-highlight-color: rgba(0, 0, 0, 0); stroke-opacity: 1; stroke-linecap: round; stroke-linejoin: round; -webkit-user-select: text;"></path><path fill="none" stroke="#000000" d="M178,135L186,136L193,136L201,137L213,137L227,139L247,142L269,146L296,150L322,153L351,157L380,161L408,165L436,169L463,171L488,174L507,176L526,179L540,180L551,181L558,182L564,182L567,182L569,182" stroke-opacity="1" stroke-width="4" stroke-linecap="round" stroke-linejoin="round" style="-webkit-tap-highlight-color: rgba(0, 0, 0, 0); stroke-opacity: 1; stroke-linecap: round; stroke-linejoin: round; -webkit-user-select: text;"></path><path fill="none" stroke="#000000" d="M442,40L448,46L453,48L459,52L466,55L475,60L483,66L492,73L500,80L509,91L516,102L523,116L528,132L533,148L536,165L538,183L538,201L538,220L533,237L526,254L516,269L503,285L490,299L474,311L457,322L439,332L420,341L403,348L386,354L370,360L355,365L344,368L333,372L324,374L315,377L308,377" stroke-opacity="1" stroke-width="4" stroke-linecap="round" stroke-linejoin="round" style="-webkit-tap-highlight-color: rgba(0, 0, 0, 0); stroke-opacity: 1; stroke-linecap: round; stroke-linejoin: round; -webkit-user-select: text;"></path><path fill="none" stroke="#000000" d="M156,196L169,188L177,183L188,178L200,172L213,166L226,161L239,158L255,154L271,152L285,151L303,149L317,149L333,149L348,149L364,152L377,156L391,161L404,166L416,173L426,179L436,186L446,193L454,200L461,208L468,217L475,226L481,237L487,249L492,259L497,270L500,282L504,293L508,305L512,318L516,330L519,342L521,354L522,365L523,377L524,389L526,402L528,415L529,429L531,443L533,457L536,471L539,485L543,498L548,512L553,523L559,536L565,546L571,556L579,565L586,573L593,579L600,584L607,589L614,592L622,595L631,597L641,599L651,600L662,601L675,601L687,601L699,601L708,599L714,597L719,596L722,594L723,593L722,592" stroke-opacity="1" stroke-width="4" stroke-linecap="round" stroke-linejoin="round" style="-webkit-tap-highlight-color: rgba(0, 0, 0, 0); stroke-opacity: 1; stroke-linecap: round; stroke-linejoin: round; -webkit-user-select: text;"></path><path fill="none" stroke="#000000" d="M718,265L717,272L713,281L709,290L702,306L694,322L684,343L672,364L661,386L649,409L636,436L623,463L610,489L596,514L583,540L570,566L557,589L544,611L531,631L519,649L509,665L498,680L487,694L477,704" stroke-opacity="1" stroke-width="4" stroke-linecap="round" stroke-linejoin="round" style="-webkit-tap-highlight-color: rgba(0, 0, 0, 0); stroke-opacity: 1; stroke-linecap: round; stroke-linejoin: round; -webkit-user-select: text;"></path><path fill="none" stroke="#000000" d="M479,826L484,822L490,817L497,810L505,803L513,795L520,786L528,772L535,758L541,744L547,728L551,713L555,696L558,681L561,665L563,649L565,635L565,620L565,604L565,586L565,569L562,552L558,536L552,519L545,503L538,486L527,468L516,453L505,439L493,425L483,414L473,404L467,400L458,398" stroke-opacity="1" stroke-width="4" stroke-linecap="round" stroke-linejoin="round" style="-webkit-tap-highlight-color: rgba(0, 0, 0, 0); stroke-opacity: 1; stroke-linecap: round; stroke-linejoin: round; -webkit-user-select: text;"></path><path fill="none" stroke="#000000" d="M260,689L268,682L272,675L276,666L280,656L284,645L288,633L291,617L295,601L300,585L306,570L312,555L318,541L324,528L332,516L341,506L351,496L361,488L372,481L381,476L391,472L401,468L410,464L420,461L429,459L439,457L449,456L460,455L471,455L482,454L493,454L503,454L514,454L524,454L535,453L545,453L556,452L565,450L575,447L585,443L594,440L604,436L613,431L621,425L629,419L637,412L646,405L654,398L662,390L669,381L676,372L682,362L688,352L692,342L695,331L698,320L699,311L701,300L701,289L701,279L701,268L700,259L698,250L695,242L689,232L678,221" stroke-opacity="1" stroke-width="4" stroke-linecap="round" stroke-linejoin="round" style="-webkit-tap-highlight-color: rgba(0, 0, 0, 0); stroke-opacity: 1; stroke-linecap: round; stroke-linejoin: round; -webkit-user-select: text;"></path><path fill="none" stroke="#000000" d="M490,123L495,124L503,127L510,132L520,141L532,152L543,165L559,181L572,198L586,214L599,231L611,249L621,267L631,285L641,302L651,319L664,338L678,357L691,376L704,394L716,411L722,423L727,432L728,438" stroke-opacity="1" stroke-width="4" stroke-linecap="round" stroke-linejoin="round" style="-webkit-tap-highlight-color: rgba(0, 0, 0, 0); stroke-opacity: 1; stroke-linecap: round; stroke-linejoin: round; -webkit-user-select: text;"></path><path fill="none" stroke="#000000" d="M660,234L662,242L662,248L662,256L661,267L660,279L658,292L656,308L653,325L650,344L647,363L643,385L637,410L630,434L622,458L613,480L602,501L590,521L575,539L559,556L543,572L527,587L513,602L494,615L472,627L450,636L433,643L416,649L401,654L389,657L379,660L370,663L366,665L363,666L361,668L359,671L356,672" stroke-opacity="1" stroke-width="4" stroke-linecap="round" stroke-linejoin="round" style="-webkit-tap-highlight-color: rgba(0, 0, 0, 0); stroke-opacity: 1; stroke-linecap: round; stroke-linejoin: round; -webkit-user-select: text;"></path><path fill="none" stroke="#000000" d="M418,726L431,722L446,720L454,717L462,714L472,708L484,701L497,693L509,682L519,668L526,654L532,639L536,622L538,605L539,590L539,575L537,558L533,545L526,532L520,520L513,509L504,498L495,487L486,476L475,466L466,458L458,451L446,442L436,435L424,427L413,422L401,417L387,412L372,407L357,401L340,395L324,388L308,381L293,373L277,364L259,352L245,342L232,331L220,319L210,305L203,293L196,279L191,265L188,254L185,241L182,229L180,217L180,208L180,198L180,190L180,185L181,183" stroke-opacity="1" stroke-width="4" stroke-linecap="round" stroke-linejoin="round" style="-webkit-tap-highlight-color: rgba(0, 0, 0, 0); stroke-opacity: 1; stroke-linecap: round; stroke-linejoin: round; -webkit-user-select: text;"></path><path fill="none" stroke="#000000" d="M177,123L186,127L195,132L205,138L217,146L230,155L246,168L264,181L283,195L304,212L326,229L348,247L370,266L394,283L417,300L439,315L458,329L474,340L485,349L493,354L498,358L501,361L501,362" stroke-opacity="1" stroke-width="4" stroke-linecap="round" stroke-linejoin="round" style="-webkit-tap-highlight-color: rgba(0, 0, 0, 0); stroke-opacity: 1; stroke-linecap: round; stroke-linejoin: round; -webkit-user-select: text;"></path><path fill="none" stroke="#000000" d="M372,123L353,125L341,126L327,130L311,136L294,145L274,156L256,167L237,181L220,196L204,215L189,235L177,259L166,283L159,310L155,342L154,373L156,401L163,430L173,459L186,485L201,509L217,531L232,548L248,562L261,572L275,582L282,587L287,590L288,592L288,593L284,595" stroke-opacity="1" stroke-width="4" stroke-linecap="round" stroke-linejoin="round" style="-webkit-tap-highlight-color: rgba(0, 0, 0, 0); stroke-opacity: 1; stroke-linecap: round; stroke-linejoin: round; -webkit-user-select: text;"></path><path fill="none" stroke="#000000" d="M67,590L79,589L83,586L87,581L91,575L95,568L100,559L107,550L116,540L127,531L139,521L153,512L169,500L182,491L199,478L212,468L226,458L241,447L255,437L270,426L285,417L299,407L312,399L325,390L337,382L348,374L357,367L366,358L373,351L379,342L384,333L388,326L392,316L395,308L399,298L402,288L404,280L406,270L408,258L411,248L415,237L421,227L426,217L432,208L439,199L446,191L454,182L462,175L470,168L478,162L486,157L494,153L502,149L511,146L520,143L531,140L540,138L550,137L562,137L572,137L582,137L592,137L602,137L612,137L622,138L633,142L644,147L654,153L664,159L674,165L682,171L688,175L691,177L691,178L690,178L681,179" stroke-opacity="1" stroke-width="4" stroke-linecap="round" stroke-linejoin="round" style="-webkit-tap-highlight-color: rgba(0, 0, 0, 0); stroke-opacity: 1; stroke-linecap: round; stroke-linejoin: round; -webkit-user-select: text;"></path><path fill="none" stroke="#000000" d="M149,182L170,194L184,203L202,215L218,228L237,242L258,257L280,274L305,292L331,310L358,329L383,348L409,367L434,385L458,402L478,416L495,427L505,434L511,437L511,438" stroke-opacity="1" stroke-width="4" stroke-linecap="round" stroke-linejoin="round" style="-webkit-tap-highlight-color: rgba(0, 0, 0, 0); stroke-opacity: 1; stroke-linecap: round; stroke-linejoin: round; -webkit-user-select: text;"></path><path fill="none" stroke="#000000" d="M261,99L271,104L282,111L295,119L307,127L319,137L333,148L349,163L363,177L376,192L388,208L398,224L405,239L410,257L412,276L413,295L413,316L413,337L412,358L405,382L396,401L385,421L371,441L357,461L341,480L325,499L309,516L293,533L276,548L260,562L246,573L234,584L222,592L213,596L201,600L190,604" stroke-opacity="1" stroke-width="4" stroke-linecap="round" stroke-linejoin="round" style="-webkit-tap-highlight-color: rgba(0, 0, 0, 0); stroke-opacity: 1; stroke-linecap: round; stroke-linejoin: round; -webkit-user-select: text;"></path><path fill="none" stroke="#000000" d="M94,414L106,408L119,401L127,397L135,394L145,390L156,387L170,385L184,385L199,385L216,387L231,390L246,394L259,399L272,406L284,412L295,419L305,428L314,439L322,450L329,462L334,473L339,485L342,498L344,510L344,523L344,536L343,549L339,562L335,575L329,591L324,604L317,618L310,632L302,646L295,659L287,672L279,685L271,697L265,708L258,720L254,730L250,742L247,752L245,762L245,772L245,783L245,795L249,806L254,815L261,823L267,830L273,835L278,839L282,841L285,842L287,842" stroke-opacity="1" stroke-width="4" stroke-linecap="round" stroke-linejoin="round" style="-webkit-tap-highlight-color: rgba(0, 0, 0, 0); stroke-opacity: 1; stroke-linecap: round; stroke-linejoin: round; -webkit-user-select: text;"></path><path fill="none" stroke="#000000" d="M328,844L334,840L336,836L336,832L335,825L327,813L318,799L305,780L288,762L271,742L251,719L232,692L211,664L188,638L168,611L151,584L134,560L118,540L105,523L96,511L88,502L84,497L79,495" stroke-opacity="1" stroke-width="4" stroke-linecap="round" stroke-linejoin="round" style="-webkit-tap-highlight-color: rgba(0, 0, 0, 0); stroke-opacity: 1; stroke-linecap: round; stroke-linejoin: round; -webkit-user-select: text;"></path><path fill="none" stroke="#000000" d="M151,827L154,824L154,820L154,814L154,806L151,793L148,780L146,766L146,751L146,736L146,721L149,704L156,688L165,673L176,659L188,646L202,634L217,623L232,612L249,600L265,593L282,585L300,579L317,573L333,568L345,564L353,561L359,559L361,558" stroke-opacity="1" stroke-width="4" stroke-linecap="round" stroke-linejoin="round" style="-webkit-tap-highlight-color: rgba(0, 0, 0, 0); stroke-opacity: 1; stroke-linecap: round; stroke-linejoin: round; -webkit-user-select: text;"></path><path fill="none" stroke="#000000" d="M43,623L45,632L45,639L45,647L46,657L49,670L57,684L68,696L83,707L101,719L118,730L136,740L155,748L176,754L195,759L215,762L235,763L254,763L273,763L291,760L308,755L324,748L339,741L351,733L363,723L374,713L384,702L393,691L400,679L405,669L409,656L413,643L414,631L415,618L415,605L415,592L414,578L409,563L404,550L398,537L392,525L385,512L377,499L370,486L363,474L354,462L346,450L338,437L330,424L323,410L317,396L312,381L309,368L305,356L302,342L300,329L300,317L300,304L300,293L300,281L304,268L308,257L314,246L319,237L327,227L334,219L344,211L353,204L362,199L369,195L373,192L376,190L376,189L375,189L374,189" stroke-opacity="1" stroke-width="4" stroke-linecap="round" stroke-linejoin="round" style="-webkit-tap-highlight-color: rgba(0, 0, 0, 0); stroke-opacity: 1; stroke-linecap: round; stroke-linejoin: round; -webkit-user-select: text;"></path><path fill="none" stroke="#000000" d="M537,204L550,203L560,203L569,203L575,202L578,201L579,201L574,205L564,211L550,219L534,227L514,238L494,249L471,261L446,274L421,288L395,301L368,315L342,331L314,346L288,362L262,376L240,389L220,401L203,412L188,420L174,428L159,436L145,444" stroke-opacity="1" stroke-width="4" stroke-linecap="round" stroke-linejoin="round" style="-webkit-tap-highlight-color: rgba(0, 0, 0, 0); stroke-opacity: 1; stroke-linecap: round; stroke-linejoin: round; -webkit-user-select: text;"></path><path fill="none" stroke="#000000" d="M210,589L221,582L227,577L231,570L236,561L241,552L246,541L251,529L257,515L262,502L267,487L271,473L273,460L274,445L274,430L274,415L274,398L271,382L265,366L259,352L252,339L245,327L235,313L225,300L215,288L204,277L194,267L183,259L175,253L167,249L158,246" stroke-opacity="1" stroke-width="4" stroke-linecap="round" stroke-linejoin="round" style="-webkit-tap-highlight-color: rgba(0, 0, 0, 0); stroke-opacity: 1; stroke-linecap: round; stroke-linejoin: round; -webkit-user-select: text;"></path><path fill="none" stroke="#000000" d="M95,221L97,227L97,234L98,243L100,255L103,268L108,283L114,297L120,312L126,330L135,350L143,365L154,379L165,392L177,402L189,410L202,416L212,420L225,423L238,423L250,423L264,418L276,412L288,404L299,394L310,384L319,373L327,361L336,348L344,334L351,320L358,305L364,290L370,274L375,259L379,243L384,229L388,215L392,201L397,188L402,176L407,164L412,154L417,144L423,135L429,127L436,119L443,112L451,105L458,99L466,94L475,90L482,86L490,83L498,80L506,79L515,77L524,76L533,76L541,75L548,75L553,74L557,74L558,74" stroke-opacity="1" stroke-width="4" stroke-linecap="round" stroke-linejoin="round" style="-webkit-tap-highlight-color: rgba(0, 0, 0, 0); stroke-opacity: 1; stroke-linecap: round; stroke-linejoin: round; -webkit-user-select: text;"></path><path fill="none" stroke="#000000" d="M387,82L402,94L409,101L418,113L431,129L444,148L461,169L482,193L502,220L523,250L548,281L573,310L597,339L620,369L645,396L667,423L686,447L701,469L712,483L719,493L723,500L724,504" stroke-opacity="1" stroke-width="4" stroke-linecap="round" stroke-linejoin="round" style="-webkit-tap-highlight-color: rgba(0, 0, 0, 0); stroke-opacity: 1; stroke-linecap: round; stroke-linejoin: round; -webkit-user-select: text;"></path><path fill="none" stroke="#000000" d="M669,205L663,204L657,208L646,216L635,226L623,239L609,255L596,272L582,292L570,313L558,337L548,363L541,388L536,414L532,442L531,471L533,499L541,526L552,553L567,577L584,597L601,614L618,628L630,638L640,644L647,649L652,651L653,652L652,652" stroke-opacity="1" stroke-width="4" stroke-linecap="round" stroke-linejoin="round" style="-webkit-tap-highlight-color: rgba(0, 0, 0, 0); stroke-opacity: 1; stroke-linecap: round; stroke-linejoin: round; -webkit-user-select: text;"></path><path fill="none" stroke="#000000" d="M647,611L652,611L659,611L665,611L671,610L678,607L685,601L691,594L698,586L704,576L709,565L714,553L717,540L720,527L721,513L722,499L722,482L720,467L713,451L704,435L694,419L682,405L669,392L656,382L641,374L626,369L611,366L597,366L583,366L567,369L554,376L542,386L531,398L521,412L512,427L504,444L497,462L491,480L487,499L484,518L482,538L481,556L481,575L481,592L485,608L489,625L493,640L496,655L499,667L502,680L504,693L506,705L507,717L508,727L508,737L508,747L505,758L501,767L496,776L489,785L482,793L474,800L466,807L458,815L450,823" stroke-opacity="1" stroke-width="4" stroke-linecap="round" stroke-linejoin="round" style="-webkit-tap-highlight-color: rgba(0, 0, 0, 0); stroke-opacity: 1; stroke-linecap: round; stroke-linejoin: round; -webkit-user-select: text;"></path><path fill="none" stroke="#000000" d="M386,764L406,762L433,761L461,758L488,754L516,751L544,747L571,744L598,741L623,739L644,737L664,735L681,733L692,731L700,730L704,730L706,730L707,730" stroke-opacity="1" stroke-width="4" stroke-linecap="round" stroke-linejoin="round" style="-webkit-tap-highlight-color: rgba(0, 0, 0, 0); stroke-opacity: 1; stroke-linecap: round; stroke-linejoin: round; -webkit-user-select: text;"></path><path fill="none" stroke="#000000" d="M507,853L523,848L531,842L543,834L553,825L565,814L576,801L587,787L596,772L605,757L612,741L618,724L622,706L624,686L624,666L623,646L618,626L611,601L602,578L591,556L579,536L564,516L551,498L537,481L526,470L513,459L500,449" stroke-opacity="1" stroke-width="4" stroke-linecap="round" stroke-linejoin="round" style="-webkit-tap-highlight-color: rgba(0, 0, 0, 0); stroke-opacity: 1; stroke-linecap: round; stroke-linejoin: round; -webkit-user-select: text;"></path><path fill="none" stroke="#000000" d="M499,375L511,377L524,381L541,387L559,395L580,405L600,415L618,427L636,440L653,455L668,471L681,487L693,505L700,521L705,540L707,560L707,579L707,596L703,614L696,630L686,645L672,661L659,675L646,688L633,699L619,711L603,720L586,728L568,735L550,741L533,745L516,747L501,748L482,748L468,748L451,746L437,743L423,739L410,736L396,731L384,727L371,723L359,719L347,716L336,714L324,712L314,711L304,710L294,710L283,710L274,710L264,710L255,710L246,711L237,713L227,715L217,718L206,720L192,725L180,728" stroke-opacity="1" stroke-width="4" stroke-linecap="round" stroke-linejoin="round" style="-webkit-tap-highlight-color: rgba(0, 0, 0, 0); stroke-opacity: 1; stroke-linecap: round; stroke-linejoin: round; -webkit-user-select: text;"></path><path fill="none" stroke="#000000" d="M201,809L213,799L228,785L241,769L254,752L266,733L279,711L294,686L309,662L324,639L340,616L356,591L372,567L386,545L400,524L413,503L424,484L435,467L442,452L446,439L450,427L452,414" stroke-opacity="1" stroke-width="4" stroke-linecap="round" stroke-linejoin="round" style="-webkit-tap-highlight-color: rgba(0, 0, 0, 0); stroke-opacity: 1; stroke-linecap: round; stroke-linejoin: round; -webkit-user-select: text;"></path><path fill="none" stroke="#000000" d="M294,366L288,378L277,410L271,433L266,458L266,485L266,512L273,539L283,566L297,592L315,615L334,637L353,657L374,672L395,682L417,689L437,691L458,691L477,691L495,686L511,679L526,672L539,665L551,656L561,649L569,641L578,629" stroke-opacity="1" stroke-width="4" stroke-linecap="round" stroke-linejoin="round" style="-webkit-tap-highlight-color: rgba(0, 0, 0, 0); stroke-opacity: 1; stroke-linecap: round; stroke-linejoin: round; -webkit-user-select: text;"></path><path fill="none" stroke="#000000" d="M543,510L528,527L521,537L511,549L500,561L488,574L475,585L459,596L439,606L423,613L406,619L389,624L371,627L353,628L335,628L318,628L305,626L291,623L280,620L269,617L259,614L250,612L241,611L234,610L225,609L216,609L209,609L200,609L192,609L184,611L176,614L167,616L159,619L149,622L140,625L132,628L125,633L116,637L108,642L101,648L93,653L86,660L78,670L72,680" stroke-opacity="1" stroke-width="4" stroke-linecap="round" stroke-linejoin="round" style="-webkit-tap-highlight-color: rgba(0, 0, 0, 0); stroke-opacity: 1; stroke-linecap: round; stroke-linejoin: round; -webkit-user-select: text;"></path><path fill="none" stroke="#000000" d="M132,763L138,750L144,735L148,717L150,696L151,673L151,650L151,621L150,592L148,562L145,533L143,504L142,473L142,445L140,418L140,392L140,370L140,349L140,330L140,316L142,302L142,294L142,289L142,286" stroke-opacity="1" stroke-width="4" stroke-linecap="round" stroke-linejoin="round" style="-webkit-tap-highlight-color: rgba(0, 0, 0, 0); stroke-opacity: 1; stroke-linecap: round; stroke-linejoin: round; -webkit-user-select: text;"></path><path fill="none" stroke="#000000" d="M66,354L67,363L68,374L71,384L75,396L80,411L87,425L95,440L108,456L123,470L141,484L162,497L186,509L211,517L238,524L266,528L295,529L325,529L355,529L384,524L411,517L438,506L464,491L487,475L507,456L522,438L536,420L547,403L555,391L561,380L567,369L571,358" stroke-opacity="1" stroke-width="4" stroke-linecap="round" stroke-linejoin="round" style="-webkit-tap-highlight-color: rgba(0, 0, 0, 0); stroke-opacity: 1; stroke-linecap: round; stroke-linejoin: round; -webkit-user-select: text;"></path><path fill="none" stroke="#000000" d="M329,212L335,203L340,203L349,203L361,203L372,205L387,211L402,220L422,232L440,245L455,259L470,273L483,289L493,305L502,324L507,341L510,359L511,376L511,394L507,410L499,427L488,444L475,460L461,475L448,489L435,504L424,519L413,536L405,550L399,566L395,581L393,594L392,607L391,618L391,631L391,643L393,655L397,665L401,675L407,684L414,692L422,700L432,707L443,712L453,717L464,720L475,723L484,724L493,725L501,725L509,726L519,727L528,728L538,728L555,727" stroke-opacity="1" stroke-width="4" stroke-linecap="round" stroke-linejoin="round" style="-webkit-tap-highlight-color: rgba(0, 0, 0, 0); stroke-opacity: 1; stroke-linecap: round; stroke-linejoin: round; -webkit-user-select: text;"></path><path fill="none" stroke="#000000" d="M611,672L613,667L613,663L609,658L600,648L589,637L574,623L558,609L539,592L519,573L495,553L468,531L440,509L413,486L387,461L361,439L336,419L314,400L295,384L278,372L264,362L250,353" stroke-opacity="1" stroke-width="4" stroke-linecap="round" stroke-linejoin="round" style="-webkit-tap-highlight-color: rgba(0, 0, 0, 0); stroke-opacity: 1; stroke-linecap: round; stroke-linejoin: round; -webkit-user-select: text;"></path><path fill="none" stroke="#000000" d="M338,653L386,655L403,651L420,645L438,637L456,626L472,613L488,598L502,582L515,565L526,548L534,533L543,512L549,492L553,473L555,451L556,428L556,401L555,374L548,347L535,319L519,288L504,258" stroke-opacity="1" stroke-width="4" stroke-linecap="round" stroke-linejoin="round" style="-webkit-tap-highlight-color: rgba(0, 0, 0, 0); stroke-opacity: 1; stroke-linecap: round; stroke-linejoin: round; -webkit-user-select: text;"></path><path fill="none" stroke="#000000" d="M437,159L451,159L460,159L473,161L487,164L503,169L520,174L540,183L560,191L578,200L595,212L610,227L624,244L638,261L649,280L659,299L664,315L669,334L669,352L669,370L667,385L661,400L652,414L641,426L629,438L616,448L602,456L586,461L568,465L548,468L528,468L508,468L489,468L472,467L454,466L437,463L420,458L404,452L390,447L377,442L363,437L349,433L336,429L324,425L311,421L298,419L285,416L273,414L262,413L251,412L240,412L229,412L218,414L209,415L197,418L187,421L177,425L167,429L156,434L143,440L128,447L116,454" stroke-opacity="1" stroke-width="4" stroke-linecap="round" stroke-linejoin="round" style="-webkit-tap-highlight-color: rgba(0, 0, 0, 0); stroke-opacity: 1; stroke-linecap: round; stroke-linejoin: round; -webkit-user-select: text;"></path><path fill="none" stroke="#000000" d="M143,569L147,553L150,539L152,523L155,504L158,482L161,456L163,434L166,404L169,375L172,348L175,322L179,295L184,269L189,245L192,225L195,203L198,181L201,163L203,149L204,138L204,128L203,120L200,113" stroke-opacity="1" stroke-width="4" stroke-linecap="round" stroke-linejoin="round" style="-webkit-tap-highlight-color: rgba(0, 0, 0, 0); stroke-opacity: 1; stroke-linecap: round; stroke-linejoin: round; -webkit-user-select: text;"></path><path fill="none" stroke="#000000" d="M93,144L93,158L94,169L98,183L104,199L113,219L123,239L138,256L155,271L173,284L190,296L208,305L223,312L242,317L261,319L283,319L305,318L327,311L347,303L367,295L387,286L405,275L423,263L439,251L455,240L469,232L484,222L500,208" stroke-opacity="1" stroke-width="4" stroke-linecap="round" stroke-linejoin="round" style="-webkit-tap-highlight-color: rgba(0, 0, 0, 0); stroke-opacity: 1; stroke-linecap: round; stroke-linejoin: round; -webkit-user-select: text;"></path><path fill="none" stroke="#000000" d="M664,251L671,243L672,238L674,233L677,225L679,215L682,204L685,192L687,179L688,165L688,151L686,138L681,123L673,111L664,101L653,91L642,82L630,75L616,70L602,65L587,62L570,61L552,60L533,60L514,60L495,61L476,64L457,69L439,76L422,84L407,94L392,106L379,118L366,131L356,145L346,161L338,176L331,192L325,208L319,225L314,242L308,258L303,274L299,290L295,305L291,319L286,334L282,349L278,361L273,373L268,385L261,395L254,404L244,414L233,421L221,428L207,434L196,437L181,438L163,438" stroke-opacity="1" stroke-width="4" stroke-linecap="round" stroke-linejoin="round" style="-webkit-tap-highlight-color: rgba(0, 0, 0, 0); stroke-opacity: 1; stroke-linecap: round; stroke-linejoin: round; -webkit-user-select: text;"></path><path fill="none" stroke="#000000" d="M86,152L106,158L120,167L136,180L151,195L165,213L180,233L198,256L218,280L242,306L263,334L286,363L311,392L334,419L355,446L373,469L388,487L396,502L400,517L402,528" stroke-opacity="1" stroke-width="4" stroke-linecap="round" stroke-linejoin="round" style="-webkit-tap-highlight-color: rgba(0, 0, 0, 0); stroke-opacity: 1; stroke-linecap: round; stroke-linejoin: round; -webkit-user-select: text;"></path><path fill="none" stroke="#000000" d="M143,446L157,434L170,421L184,404L200,384L216,363L232,343L250,322L269,299L290,276L309,254L329,234L346,215L362,197L376,181L385,169L392,161L396,154L401,142" stroke-opacity="1" stroke-width="4" stroke-linecap="round" stroke-linejoin="round" style="-webkit-tap-highlight-color: rgba(0, 0, 0, 0); stroke-opacity: 1; stroke-linecap: round; stroke-linejoin: round; -webkit-user-select: text;"></path><path fill="none" stroke="#000000" d="M568,299L573,301L577,301L580,301L581,300L581,296L581,285L579,273L575,260L570,246L564,234L557,220L550,208L540,195L529,183L517,172L504,163L489,154L472,145L455,138L436,133L418,129L399,125L381,123L363,123L346,123L329,123L312,126L297,131L284,137L271,144L259,152L248,161L237,173L226,185L217,198L210,211L203,225L197,238L190,251L184,263L178,276L174,285L168,294L161,303L154,311L146,319L139,326L131,332L125,336L118,339L110,342L102,344L94,346L86,346L76,347L67,347L56,347" stroke-opacity="1" stroke-width="4" stroke-linecap="round" stroke-linejoin="round" style="-webkit-tap-highlight-color: rgba(0, 0, 0, 0); stroke-opacity: 1; stroke-linecap: round; stroke-linejoin: round; -webkit-user-select: text;"></path><path fill="none" stroke="#000000" d="M76,96L84,107L96,123L108,142L120,162L130,183L142,208L155,237L170,268L186,300L203,333L219,367L236,400L252,434L267,467L282,497L295,526L306,553L313,575L317,594L320,611" stroke-opacity="1" stroke-width="4" stroke-linecap="round" stroke-linejoin="round" style="-webkit-tap-highlight-color: rgba(0, 0, 0, 0); stroke-opacity: 1; stroke-linecap: round; stroke-linejoin: round; -webkit-user-select: text;"></path><path fill="none" stroke="#000000" d="M48,257L51,246L55,234L62,218L70,201L79,181L90,162L102,145L117,129L132,115L149,102L167,90L185,80L202,73L222,68L244,65L266,64L290,64L317,66L340,69L361,73L385,77L403,81L422,86L437,91L448,93L454,96L458,96" stroke-opacity="1" stroke-width="4" stroke-linecap="round" stroke-linejoin="round" style="-webkit-tap-highlight-color: rgba(0, 0, 0, 0); stroke-opacity: 1; stroke-linecap: round; stroke-linejoin: round; -webkit-user-select: text;"></path><path fill="none" stroke="#000000" d="M79,55L92,52L102,50L115,47L127,45L140,43L154,43L168,43L183,44L198,49L212,55L227,64L240,75L253,87L264,101L276,119L285,133L293,150L300,166L305,182L309,198L312,213L316,229L317,242L320,256L322,270L324,283L327,296L329,308L334,319L338,331L344,344L350,356L356,366L366,376L377,385L389,393L401,401L414,409L429,414L444,418L460,421L476,424L491,424L506,424L521,424L538,422L553,418L567,413L582,407L595,399L609,390L621,380L632,370L642,358L650,347L658,334L664,321L670,307L674,291L677,274L677,256L675,232L666,203L657,167" stroke-opacity="1" stroke-width="4" stroke-linecap="round" stroke-linejoin="round" style="-webkit-tap-highlight-color: rgba(0, 0, 0, 0); stroke-opacity: 1; stroke-linecap: round; stroke-linejoin: round; -webkit-user-select: text;"></path></svg>