<svg height="906" version="1.1" width="768" xmlns="http://www.w3.org/2000/svg" xmlns:xlink="http://www.w3.org/1999/xlink" style="overflow: hidden; position: relative; -webkit-user-select: text;"><desc style="-webkit-tap-highlight-color: rgba(0, 0, 0, 0); -webkit-user-select: text;">Created with Raphaël 2.2.0</desc><defs style="-webkit-tap-highlight-color: rgba(0, 0, 0, 0); -webkit-user-select: text;"></defs><path fill="none" stroke="#000000" d="M227,554L235,546L239,543L245,539L251,535L258,530L268,524L276,518L285,511L296,503L305,497L315,489L326,480L335,473L347,465L356,460L364,453L373,447L378,443L383,440L386,438L388,436L390,436L390,435" stroke-opacity="1" stroke-width="4" stroke-linecap="round" stroke-linejoin="round" style="-webkit-tap-highlight-color: rgba(0, 0, 0, 0); stroke-opacity: 1; stroke-linecap: round; stroke-linejoin: round; -webkit-user-select: text;"></path><path fill="none" stroke="#000000" d="M438,597L431,594L425,593L417,589L409,584L401,578L392,572L383,564L371,553L361,542L353,531L345,521L339,511L334,500L329,490L326,478L323,469L321,459L319,449L318,441L317,431L317,422L317,413L317,404L317,394L317,386L319,378L321,370L323,365L324,360L326,356L327,352L328,351L328,350" stroke-opacity="1" stroke-width="4" stroke-linecap="round" stroke-linejoin="round" style="-webkit-tap-highlight-color: rgba(0, 0, 0, 0); stroke-opacity: 1; stroke-linecap: round; stroke-linejoin: round; -webkit-user-select: text;"></path><path fill="none" stroke="#000000" d="M148,424L151,418L154,414L159,409L166,401L171,395L177,389L184,381L192,375L198,371L206,366L216,362L223,359L232,356L241,354L249,352L257,351L266,351L273,351L280,351L287,351L295,352L301,354L307,357L313,360L319,364L325,368L330,372L334,375L339,380L343,385L347,390L350,395L353,400L354,405L356,410L357,415L358,421L358,430L359,438L359,446L359,457L359,466L359,477L359,487L359,497L359,509L359,519L358,531L357,540L356,549L354,558L353,567L353,577L353,587L353,596L353,606L355,615L357,622L360,629L364,636L368,641L372,645L376,648L379,651L383,652L387,654L392,655L398,656L403,657L408,657L414,658L420,658L425,658L429,658L433,658L435,658L436,657L436,656L436,655" stroke-opacity="1" stroke-width="4" stroke-linecap="round" stroke-linejoin="round" style="-webkit-tap-highlight-color: rgba(0, 0, 0, 0); stroke-opacity: 1; stroke-linecap: round; stroke-linejoin: round; -webkit-user-select: text;"></path><path fill="none" stroke="#000000" d="M437,718L436,706L436,698L436,686L436,675L436,660L436,646L436,631L436,614L436,598L436,579L436,561L436,543L437,525L437,507L437,486L437,465L437,446L437,430L437,415L437,402L436,394L436,389L436,386L436,385" stroke-opacity="1" stroke-width="4" stroke-linecap="round" stroke-linejoin="round" style="-webkit-tap-highlight-color: rgba(0, 0, 0, 0); stroke-opacity: 1; stroke-linecap: round; stroke-linejoin: round; -webkit-user-select: text;"></path><path fill="none" stroke="#000000" d="M516,581L509,579L505,578L499,575L495,572L489,568L483,562L476,556L470,550L465,545L460,538L454,531L448,523L444,516L439,508L436,501L434,492L431,482L428,472L424,461L422,450L419,439L418,427L417,415L417,402L417,390L417,378L417,368L419,357L423,347L427,338L431,329L435,319L439,311L445,302L451,293L457,284L462,276L467,267L472,260L477,254L482,249L485,245L487,243L489,242L490,241L490,240L490,241" stroke-opacity="1" stroke-width="4" stroke-linecap="round" stroke-linejoin="round" style="-webkit-tap-highlight-color: rgba(0, 0, 0, 0); stroke-opacity: 1; stroke-linecap: round; stroke-linejoin: round; -webkit-user-select: text;"></path><path fill="none" stroke="#000000" d="M299,209L302,207L305,207L310,207L316,207L323,207L329,206L339,206L348,206L358,206L367,206L376,206L385,206L396,208L404,210L415,213L424,216L432,219L443,223L453,229L463,234L472,241L481,247L487,252L494,259L501,266L508,276L514,285L519,295L522,303L525,314L528,325L532,342L536,361L539,379L540,392L540,407L540,420L540,434L538,448L534,463L529,477L521,489L514,500L506,512L496,524L487,535L478,544L467,553L456,561L442,568L431,573L416,579L404,584L389,588L375,590L362,592L347,594L334,594L319,594L305,594L288,592L277,591L263,590L253,589L239,589L229,589L217,589L207,592L198,596L187,599L178,604L170,609L162,614L156,618L149,622L144,625L138,628L133,631L130,634L127,636L125,638L123,640L122,641L121,642L120,642L120,643" stroke-opacity="1" stroke-width="4" stroke-linecap="round" stroke-linejoin="round" style="-webkit-tap-highlight-color: rgba(0, 0, 0, 0); stroke-opacity: 1; stroke-linecap: round; stroke-linejoin: round; -webkit-user-select: text;"></path><path fill="none" stroke="#000000" d="M201,716L202,711L202,705L202,697L203,685L205,674L207,661L209,647L212,631L215,615L218,597L221,579L225,561L228,543L231,524L235,505L239,486L244,468L247,450L251,434L253,420L255,407L257,396L259,387L260,382L261,378L262,375L263,374" stroke-opacity="1" stroke-width="4" stroke-linecap="round" stroke-linejoin="round" style="-webkit-tap-highlight-color: rgba(0, 0, 0, 0); stroke-opacity: 1; stroke-linecap: round; stroke-linejoin: round; -webkit-user-select: text;"></path><path fill="none" stroke="#000000" d="M88,413L84,418L84,421L84,424L84,429L86,436L91,442L96,448L103,456L111,463L119,469L128,475L138,481L147,485L156,489L166,492L176,494L189,496L201,498L213,499L224,499L237,499L248,499L259,497L272,494L284,490L298,485L308,480L319,473L329,468L338,461L349,453L357,446L366,440L375,432L383,424L390,417L397,409L404,401L410,393L416,384L422,375L428,366L434,357L438,348L442,339L446,329L450,320L453,312L456,303L458,295L459,290L460,285L460,282L460,280L460,279" stroke-opacity="1" stroke-width="4" stroke-linecap="round" stroke-linejoin="round" style="-webkit-tap-highlight-color: rgba(0, 0, 0, 0); stroke-opacity: 1; stroke-linecap: round; stroke-linejoin: round; -webkit-user-select: text;"></path><path fill="none" stroke="#000000" d="M140,557L151,549L154,545L160,539L165,531L170,524L174,514L178,504L182,493L186,482L189,471L193,459L195,447L198,436L201,423L204,412L207,400L211,389L215,378L220,368L224,359L229,351L234,343L240,335L247,328L254,320L261,314L270,307L278,301L287,295L296,290L303,286L312,282L322,279L330,276L339,273L348,271L357,268L366,266L374,266L381,265L389,264L397,264L404,264L410,264L417,264L424,265L429,267L434,270L439,273L444,276L448,279L452,282L456,285L459,288L463,292L466,296L469,300L472,305L476,309L479,314L482,318L485,323L487,327L489,331L490,335L492,339L494,343L494,347L496,351L497,355L497,358L497,361L497,363L497,364L497,369" stroke-opacity="1" stroke-width="4" stroke-linecap="round" stroke-linejoin="round" style="-webkit-tap-highlight-color: rgba(0, 0, 0, 0); stroke-opacity: 1; stroke-linecap: round; stroke-linejoin: round; -webkit-user-select: text;"></path><path fill="none" stroke="#000000" d="M492,643L487,639L485,632L480,623L476,612L472,601L469,588L465,575L461,559L457,545L452,530L446,514L441,497L436,480L428,460L420,443L414,426L408,409L401,390L395,373L388,357L383,341L377,327L370,312L365,299L361,289L356,278L353,271L350,266L348,262L347,260L346,257L341,252" stroke-opacity="1" stroke-width="4" stroke-linecap="round" stroke-linejoin="round" style="-webkit-tap-highlight-color: rgba(0, 0, 0, 0); stroke-opacity: 1; stroke-linecap: round; stroke-linejoin: round; -webkit-user-select: text;"></path><path fill="none" stroke="#000000" d="M199,412L202,407L204,402L207,395L212,388L218,379L224,371L230,364L237,358L246,351L254,344L264,339L275,334L286,329L297,325L309,322L321,318L332,315L346,313L358,311L371,310L384,309L397,308L410,308L424,308L436,308L449,308L461,310L473,313L485,316L496,320L508,324L519,330L531,336L541,342L551,349L560,355L566,360L572,365L577,369L581,373L584,375L587,378L588,379L588,380L586,379" stroke-opacity="1" stroke-width="4" stroke-linecap="round" stroke-linejoin="round" style="-webkit-tap-highlight-color: rgba(0, 0, 0, 0); stroke-opacity: 1; stroke-linecap: round; stroke-linejoin: round; -webkit-user-select: text;"></path><path fill="none" stroke="#000000" d="M587,622L582,625L577,626L571,626L565,626L556,626L548,622L539,617L527,609L516,601L506,592L497,582L491,573L485,563L480,553L476,545L473,535L471,527L469,518L469,511L469,503L469,494L469,486L471,477L473,468L477,457L480,448L485,439L488,429L492,421L498,412L504,404L511,395L517,387L523,380L531,372L539,365L546,358L555,350L562,343L570,336L577,330L584,323L591,316L597,310L604,303L611,296L615,290L620,284L625,277L630,270L635,263L639,257L642,251L645,244L647,239L649,232L651,225L652,220L653,213L655,207L655,202L655,196L655,191L655,186L655,182L655,178L655,174L655,170L653,166L651,163L650,161L649,159L647,157L646,154" stroke-opacity="1" stroke-width="4" stroke-linecap="round" stroke-linejoin="round" style="-webkit-tap-highlight-color: rgba(0, 0, 0, 0); stroke-opacity: 1; stroke-linecap: round; stroke-linejoin: round; -webkit-user-select: text;"></path><path fill="none" stroke="#000000" d="M708,548L699,544L695,540L689,533L679,523L668,511L656,499L643,487L627,473L611,461L596,448L581,436L562,421L544,408L528,396L515,386L498,372L480,361L464,349L450,341L434,330L419,319L400,307L382,294L364,281L347,268L330,258L317,248L305,240L296,235L290,232L286,230L284,229L283,229L282,229L280,229" stroke-opacity="1" stroke-width="4" stroke-linecap="round" stroke-linejoin="round" style="-webkit-tap-highlight-color: rgba(0, 0, 0, 0); stroke-opacity: 1; stroke-linecap: round; stroke-linejoin: round; -webkit-user-select: text;"></path><path fill="none" stroke="#000000" d="M169,609L175,611L181,611L191,612L202,614L215,615L226,615L241,615L254,615L269,612L283,608L298,603L312,597L326,590L337,582L351,572L362,562L374,551L385,541L395,527L405,514L414,499L424,484L433,468L441,452L448,436L455,419L462,402L466,385L470,368L474,351L477,335L479,319L480,304L480,288L480,268L476,250L470,233L463,216L455,200L446,186L438,172L432,163L425,156L421,152L419,149L418,149L417,149L416,150" stroke-opacity="1" stroke-width="4" stroke-linecap="round" stroke-linejoin="round" style="-webkit-tap-highlight-color: rgba(0, 0, 0, 0); stroke-opacity: 1; stroke-linecap: round; stroke-linejoin: round; -webkit-user-select: text;"></path><path fill="none" stroke="#000000" d="M385,832L393,825L400,818L408,809L417,797L424,784L430,772L434,760L438,747L441,731L444,716L446,701L447,684L448,669L448,654L448,636L446,623L442,606L438,590L432,574L426,559L419,545L411,531L403,517L393,503L384,490L374,476L363,464L352,450L339,437L327,424L314,408L301,394L288,378L278,366L266,349L256,336L248,320L240,306L234,291L229,276L226,262L222,247L221,236L220,222L220,209L220,196L222,183L225,171L228,159L233,148L240,136L247,125L255,114L263,104L272,95L281,86L290,79L300,73L310,66L322,59L332,54L344,50L356,46L367,42L378,40L390,37L402,35L413,33L425,32L434,31L445,31L455,31L465,31L476,33L486,36L494,39L502,42L510,46L515,49L521,52L525,54L528,56L529,57L530,57L528,55" stroke-opacity="1" stroke-width="4" stroke-linecap="round" stroke-linejoin="round" style="-webkit-tap-highlight-color: rgba(0, 0, 0, 0); stroke-opacity: 1; stroke-linecap: round; stroke-linejoin: round; -webkit-user-select: text;"></path><path fill="none" stroke="#000000" d="M255,8L259,12L263,14L268,17L274,20L281,24L291,28L301,33L313,41L326,50L339,59L354,69L370,79L388,92L405,103L423,115L441,128L461,142L482,158L503,173L523,187L542,200L559,212L572,220L584,228L593,233L600,237L606,239L611,242L614,242L616,243L617,243" stroke-opacity="1" stroke-width="4" stroke-linecap="round" stroke-linejoin="round" style="-webkit-tap-highlight-color: rgba(0, 0, 0, 0); stroke-opacity: 1; stroke-linecap: round; stroke-linejoin: round; -webkit-user-select: text;"></path><path fill="none" stroke="#000000" d="M191,466L186,462L186,455L194,436L199,424L205,412L212,398L220,385L229,370L239,356L253,341L268,328L284,315L301,305L319,293L337,283L356,273L377,264L397,256L417,249L437,242L455,237L476,233L494,229L511,227L528,225L545,223L559,222L573,221L585,221L595,220L602,220L608,220L612,219L613,219L614,218L613,218L610,218" stroke-opacity="1" stroke-width="4" stroke-linecap="round" stroke-linejoin="round" style="-webkit-tap-highlight-color: rgba(0, 0, 0, 0); stroke-opacity: 1; stroke-linecap: round; stroke-linejoin: round; -webkit-user-select: text;"></path><path fill="none" stroke="#000000" d="M458,774L461,764L463,757L466,749L470,737L474,726L479,712L484,699L488,684L492,669L495,654L499,639L502,624L504,608L506,594L507,578L507,563L507,549L507,532L504,516L500,499L496,485L492,471L486,457L480,445L473,432L466,421L458,410L451,400L444,392L436,384L429,376L420,369L412,363L404,356L396,351L389,345L383,341L373,335L367,331L358,326L350,321L343,317L336,312L327,308L319,304L311,298L301,293L290,287L280,281L267,273L258,268L247,261L237,254L228,248L219,242L211,235L202,228L193,221L186,213L178,206L172,198L165,189L159,181L154,173L150,164L147,155L142,145L138,136L135,127L132,117L130,108L129,99L129,92L128,85L128,80L128,75L128,71L128,68L129,67L130,66L130,65L128,65" stroke-opacity="1" stroke-width="4" stroke-linecap="round" stroke-linejoin="round" style="-webkit-tap-highlight-color: rgba(0, 0, 0, 0); stroke-opacity: 1; stroke-linecap: round; stroke-linejoin: round; -webkit-user-select: text;"></path><path fill="none" stroke="#000000" d="M35,172L42,174L47,176L55,180L67,187L79,197L91,207L104,217L120,231L134,244L149,255L164,267L181,280L199,291L217,303L234,314L253,327L272,339L291,351L311,362L330,373L349,383L365,390L380,398L395,404L406,409L414,413L420,415L424,417L426,417L422,417L415,417" stroke-opacity="1" stroke-width="4" stroke-linecap="round" stroke-linejoin="round" style="-webkit-tap-highlight-color: rgba(0, 0, 0, 0); stroke-opacity: 1; stroke-linecap: round; stroke-linejoin: round; -webkit-user-select: text;"></path><path fill="none" stroke="#000000" d="M97,708L102,701L106,697L113,689L120,680L127,671L136,660L145,649L153,638L161,626L169,612L177,598L183,583L190,568L196,553L202,536L206,520L210,502L214,483L216,463L217,444L217,423L217,402L217,382L214,362L210,341L205,322L199,302L191,281L183,261L175,246L166,232L158,219L152,210L143,198L136,191L131,185L128,181L126,180L125,179L124,179L124,181" stroke-opacity="1" stroke-width="4" stroke-linecap="round" stroke-linejoin="round" style="-webkit-tap-highlight-color: rgba(0, 0, 0, 0); stroke-opacity: 1; stroke-linecap: round; stroke-linejoin: round; -webkit-user-select: text;"></path><path fill="none" stroke="#000000" d="M54,456L58,451L63,446L69,441L77,434L86,429L94,423L105,419L117,416L129,415L142,414L155,414L167,414L179,417L192,422L204,428L216,435L227,443L237,452L248,461L258,471L268,483L281,499L291,513L300,525L307,537L314,546L322,560L329,572L337,586L345,598L353,611L362,622L370,634L380,645L389,656L399,667L409,676L418,683L429,690L439,696L449,701L460,706L471,709L482,712L492,714L504,715L514,716L526,716L538,716L548,716L561,716L572,712L583,709L593,704L603,699L612,693L622,686L633,677L640,669L647,660L655,651L661,641L667,630L673,619L677,608L681,596L684,584L686,573L689,562L690,553L691,543L691,534L691,525L691,516L691,507L691,499L688,488L684,479L681,473L679,468L677,465L676,464L676,463L675,463L675,466L675,467" stroke-opacity="1" stroke-width="4" stroke-linecap="round" stroke-linejoin="round" style="-webkit-tap-highlight-color: rgba(0, 0, 0, 0); stroke-opacity: 1; stroke-linecap: round; stroke-linejoin: round; -webkit-user-select: text;"></path><path fill="none" stroke="#000000" d="M562,337L569,340L572,344L577,350L582,358L586,366L590,378L595,392L601,407L607,424L613,442L620,460L628,482L637,502L643,518L650,536L657,553L663,570L669,585L674,599L678,611L682,622L686,633L689,644L693,654L696,665L698,671L699,677L701,683L701,687L702,690L702,691L702,692L702,690" stroke-opacity="1" stroke-width="4" stroke-linecap="round" stroke-linejoin="round" style="-webkit-tap-highlight-color: rgba(0, 0, 0, 0); stroke-opacity: 1; stroke-linecap: round; stroke-linejoin: round; -webkit-user-select: text;"></path><path fill="none" stroke="#000000" d="M751,515L750,521L749,525L747,531L745,539L740,549L736,560L732,572L727,586L721,600L713,617L703,638L694,657L683,677L672,695L661,711L648,727L634,743L619,757L601,771L582,782L561,792L538,801L515,807L492,811L472,814L448,816L426,817L410,817L396,817L386,817L380,816L376,815L374,813L373,813L373,812L374,812L377,811" stroke-opacity="1" stroke-width="4" stroke-linecap="round" stroke-linejoin="round" style="-webkit-tap-highlight-color: rgba(0, 0, 0, 0); stroke-opacity: 1; stroke-linecap: round; stroke-linejoin: round; -webkit-user-select: text;"></path><path fill="none" stroke="#000000" d="M600,859L606,852L607,847L607,839L608,830L608,818L608,808L607,795L606,782L603,769L600,757L596,744L592,731L587,717L579,705L571,692L562,680L553,669L542,659L531,650L521,645L510,638L499,633L490,631L480,628L473,627L467,627L460,627L454,627L447,628L440,631L434,633L425,635L414,639L403,643L390,646L378,649L365,652L353,657L340,662L329,667L315,673L305,678L292,685L281,693L268,700L255,708L242,717L227,725L213,733L200,740L186,746L176,750L164,753L156,755L149,756L142,756L135,756L128,756L123,756L119,754L115,751L110,747L107,744L104,741L101,738L99,735L97,732L96,729L95,726L94,724L93,722L93,720L93,717L93,715L93,713L93,712L90,706" stroke-opacity="1" stroke-width="4" stroke-linecap="round" stroke-linejoin="round" style="-webkit-tap-highlight-color: rgba(0, 0, 0, 0); stroke-opacity: 1; stroke-linecap: round; stroke-linejoin: round; -webkit-user-select: text;"></path><path fill="none" stroke="#000000" d="M237,852L239,844L239,836L239,823L239,804L239,784L238,762L237,739L235,714L234,684L232,657L230,628L229,600L227,571L225,545L224,522L222,499L221,478L219,460L218,448L217,439L216,434L215,431L215,430L214,430L213,431" stroke-opacity="1" stroke-width="4" stroke-linecap="round" stroke-linejoin="round" style="-webkit-tap-highlight-color: rgba(0, 0, 0, 0); stroke-opacity: 1; stroke-linecap: round; stroke-linejoin: round; -webkit-user-select: text;"></path><path fill="none" stroke="#000000" d="M58,729L64,731L69,733L79,737L90,742L100,745L113,749L125,752L139,754L152,754L166,754L178,754L191,754L204,750L221,745L237,738L253,730L268,722L283,711L298,701L313,686L328,673L342,658L356,643L369,626L381,608L390,593L399,577L406,561L410,550L414,538L415,531L416,526L417,524L417,522L417,524" stroke-opacity="1" stroke-width="4" stroke-linecap="round" stroke-linejoin="round" style="-webkit-tap-highlight-color: rgba(0, 0, 0, 0); stroke-opacity: 1; stroke-linecap: round; stroke-linejoin: round; -webkit-user-select: text;"></path><path fill="none" stroke="#000000" d="M265,849L269,849L273,849L278,847L287,842L296,835L304,827L313,815L321,805L328,792L332,781L337,766L340,754L343,740L344,727L344,713L344,701L343,688L341,677L338,665L334,655L331,645L327,635L322,626L317,616L311,607L304,598L294,587L284,578L276,571L266,564L259,556L251,550L243,544L235,537L227,530L220,524L212,517L206,510L199,502L191,494L183,485L176,475L169,466L161,455L156,446L148,433L141,421L134,409L128,397L125,386L121,373L116,357L113,344L110,332L108,319L108,309L108,297L108,286L111,276L115,266L119,255L122,244L127,235L132,227L136,220L139,214L142,210L144,207L146,205L147,204L147,203L144,203" stroke-opacity="1" stroke-width="4" stroke-linecap="round" stroke-linejoin="round" style="-webkit-tap-highlight-color: rgba(0, 0, 0, 0); stroke-opacity: 1; stroke-linecap: round; stroke-linejoin: round; -webkit-user-select: text;"></path><path fill="none" stroke="#000000" d="M34,342L40,339L47,337L56,334L66,328L80,321L93,314L110,305L127,296L147,285L167,275L187,263L207,253L229,241L252,231L276,220L301,209L324,198L345,186L365,174L383,162L402,152L414,143L427,135L435,130L440,127L443,125L445,124L445,123L443,123" stroke-opacity="1" stroke-width="4" stroke-linecap="round" stroke-linejoin="round" style="-webkit-tap-highlight-color: rgba(0, 0, 0, 0); stroke-opacity: 1; stroke-linecap: round; stroke-linejoin: round; -webkit-user-select: text;"></path><path fill="none" stroke="#000000" d="M205,84L207,91L212,101L217,112L223,125L230,140L238,154L246,169L253,182L262,196L274,212L286,228L300,244L314,260L331,276L348,288L365,299L383,309L402,317L419,323L438,329L459,332L480,334L500,334L519,334L538,334L558,332L576,329L589,326L602,323L610,320L615,319L618,317L620,316L620,315L618,315" stroke-opacity="1" stroke-width="4" stroke-linecap="round" stroke-linejoin="round" style="-webkit-tap-highlight-color: rgba(0, 0, 0, 0); stroke-opacity: 1; stroke-linecap: round; stroke-linejoin: round; -webkit-user-select: text;"></path><path fill="none" stroke="#000000" d="M126,198L135,200L141,200L148,200L160,200L171,195L183,188L193,180L203,170L213,159L223,147L233,135L246,123L259,112L273,103L287,96L300,88L315,82L329,77L345,74L358,71L373,69L388,67L403,66L419,66L433,66L448,68L461,71L475,74L487,77L502,82L515,88L528,96L538,103L548,110L557,118L565,127L574,138L580,147L586,156L590,163L593,172L596,181L599,191L602,202L604,210L606,220L608,229L609,239L610,249L611,256L611,264L611,273L612,280L612,286L613,295L614,303L616,311L617,317L619,326L620,332L622,337L623,342L625,348L627,354L630,358L632,363L634,367L637,370L640,375L644,380L649,386L652,390L657,395L661,399L665,402L668,405L672,407L676,410L679,413L683,415L686,417L689,417L691,418L692,418" stroke-opacity="1" stroke-width="4" stroke-linecap="round" stroke-linejoin="round" style="-webkit-tap-highlight-color: rgba(0, 0, 0, 0); stroke-opacity: 1; stroke-linecap: round; stroke-linejoin: round; -webkit-user-select: text;"></path><path fill="none" stroke="#000000" d="M708,169L695,187L690,192L683,200L677,207L670,216L661,228L654,239L646,251L638,263L628,275L619,288L610,300L601,312L592,326L582,339L572,353L563,366L554,378L545,389L538,400L531,409L525,417L521,424L517,429L515,433L513,436L512,438L511,441L509,445" stroke-opacity="1" stroke-width="4" stroke-linecap="round" stroke-linejoin="round" style="-webkit-tap-highlight-color: rgba(0, 0, 0, 0); stroke-opacity: 1; stroke-linecap: round; stroke-linejoin: round; -webkit-user-select: text;"></path><path fill="none" stroke="#000000" d="M510,601L522,600L529,597L536,594L545,589L554,582L563,574L571,565L581,554L589,543L596,532L602,519L609,505L615,490L620,475L623,460L625,446L627,431L627,414L627,395L625,378L621,362L616,348L610,333L604,319L595,305L586,291L576,278L565,266L555,255L545,246L537,239L530,234L524,231L520,229L517,228L515,227L514,227L514,228L514,231L518,237" stroke-opacity="1" stroke-width="4" stroke-linecap="round" stroke-linejoin="round" style="-webkit-tap-highlight-color: rgba(0, 0, 0, 0); stroke-opacity: 1; stroke-linecap: round; stroke-linejoin: round; -webkit-user-select: text;"></path><path fill="none" stroke="#000000" d="M348,541L363,532L369,524L375,515L382,503L389,490L397,476L404,462L413,448L423,435L434,423L446,413L459,404L472,398L486,393L501,389L516,386L531,383L545,380L558,377L572,374L584,370L596,366L608,362L619,358L630,354L642,349L652,343L662,338L671,332L679,325L688,318L695,310L702,302L708,293L714,284L719,275L722,267L725,259L727,250L729,242L730,235L730,228L730,222L730,215L730,209L729,203L728,198L726,192L724,187L722,182L720,177L716,172L713,168L709,164L706,161L703,159L701,156L697,154L694,153L690,152L688,152L685,151L683,151L682,151L681,151L680,151L679,151" stroke-opacity="1" stroke-width="4" stroke-linecap="round" stroke-linejoin="round" style="-webkit-tap-highlight-color: rgba(0, 0, 0, 0); stroke-opacity: 1; stroke-linecap: round; stroke-linejoin: round; -webkit-user-select: text;"></path></svg>