<svg height="650" version="1.1" width="1024" xmlns="http://www.w3.org/2000/svg" xmlns:xlink="http://www.w3.org/1999/xlink" style="overflow: hidden; position: relative; -webkit-user-select: text;"><desc style="-webkit-tap-highlight-color: rgba(0, 0, 0, 0); -webkit-user-select: text;">Created with Raphaël 2.2.0</desc><defs style="-webkit-tap-highlight-color: rgba(0, 0, 0, 0); -webkit-user-select: text;"></defs><path fill="none" stroke="#000000" d="M415,166L417,169L419,172L421,176L424,180L427,185L430,191L434,198L438,205L442,212L447,221L452,229L456,236L462,245L467,253L473,260L478,268L484,277L490,285L495,293L501,302L505,309L510,316L514,322L517,328L519,332L522,335L523,337L524,339L524,340L525,340L525,338L526,337L526,335L526,332L526,328L526,324L526,319L526,312L526,303L527,296L527,289L527,280L528,272L529,264L529,255L530,246L531,238L531,230L531,222L532,217L532,212L533,207L533,204L533,202L533,200L533,199L532,200L530,202L527,206L521,210L515,217L509,224L502,231L496,238L490,246L484,254L477,263L471,273L464,282L458,290L452,298L447,305L443,311L440,315L438,319L436,322L434,324L433,325L432,325L431,325L429,325L427,325L425,323L421,321L417,318L412,315L406,311L399,308L392,304L386,300L378,297L371,293L364,290L359,288L352,286L346,284L342,282L338,281L335,280L333,280L332,279L331,279L330,278L330,277L330,276L332,275L333,273L335,271L339,268L345,263L352,257L361,249L371,240L381,232L393,223L405,213L417,203L430,192L444,182L456,172L466,163L474,157L480,152L484,148L488,144L490,142L492,141L493,140L494,140L495,140L496,140L497,140L498,141L500,143L503,145L507,148L510,151L514,155L518,158L522,162L526,166L530,171L534,175L538,180L541,185L545,189L549,195L552,200L555,205L557,210L559,215L561,220L562,226L563,231L564,237L565,243L566,249L566,254L566,259L566,265L566,271L566,277L566,282L564,288L563,293L560,299L558,304L555,309L552,313L549,316L546,320L543,324L540,327L536,330L533,333L529,336L526,338L522,340L518,341L514,343L510,345L507,347L503,349L499,351L495,353L492,354L488,355L485,356L482,358L479,358L476,359L472,360L469,361L466,362L463,363L461,364L458,365L456,366L453,367L450,367L447,369L445,370L442,370L440,372L437,372L435,374L432,375L430,376L428,377L426,378L424,380L422,381L420,382L418,384L416,385L414,387L412,388L411,389L410,390L409,392L407,393L406,394L405,395L404,396L403,398L402,399L400,401L400,402L398,403L398,404L397,406L396,407L395,408L394,409L393,411L393,412L392,413L391,415L391,416L391,417L390,418L389,419L389,420L388,421L388,422L387,422L387,423L386,423" stroke-opacity="1" stroke-width="5" stroke-linecap="round" stroke-linejoin="round" style="-webkit-tap-highlight-color: rgba(0, 0, 0, 0); stroke-opacity: 1; stroke-linecap: round; stroke-linejoin: round; -webkit-user-select: text;"></path></svg>