<svg height="650" version="1.1" width="1024" xmlns="http://www.w3.org/2000/svg" xmlns:xlink="http://www.w3.org/1999/xlink" style="overflow: hidden; position: relative; -webkit-user-select: text;"><desc style="-webkit-tap-highlight-color: rgba(0, 0, 0, 0); -webkit-user-select: text;">Created with Raphaël 2.2.0</desc><defs style="-webkit-tap-highlight-color: rgba(0, 0, 0, 0); -webkit-user-select: text;"></defs><path fill="none" stroke="#000000" d="M346,294L353,288L356,287L361,284L369,279L378,272L391,263L408,250L425,237L443,224L461,211L478,199L491,189L504,180L512,172L517,168L520,165L522,163L523,163L522,163L522,166L522,170L522,175L522,182L522,192L524,204L527,217L530,234L533,251L535,268L538,284L540,296L542,306L543,313L544,318L544,321L544,324L542,324L539,322L534,319L525,313L517,308L509,301L501,294L493,287L485,278L475,268L466,259L458,250L449,242L441,235L433,229L425,223L419,220L415,217L411,216L408,214L405,214L403,213L402,212L401,212L401,211L401,210L404,209L410,206L422,200L436,192L453,185L473,175L493,166L512,156L532,147L547,139L561,132L573,127L582,123L587,120L591,117L593,117L594,116L594,117L594,119L594,122L595,127L597,134L600,146L604,158L608,174L612,189L616,205L620,223L624,239L629,257L634,275L638,290L642,303L645,314L647,321L649,328L650,333L650,338L650,340L650,342L650,343L647,345L643,346L636,348L625,353L613,357L597,362L583,366L567,372L551,380L536,388L521,395L508,403L495,410L487,415L478,419L471,423L466,426L463,427L460,428L459,428L457,428L456,428L454,426L452,424L449,420L445,415L440,409L434,401L427,393L418,383L410,373L401,363L391,351L382,339L371,326L361,313L350,299L338,287L328,274L318,262L308,249L300,238L293,231L286,222L281,216L277,212L274,208L272,205L271,203L270,202L271,202L273,202L276,204L280,207L286,210L292,215L300,221L308,228L317,234L326,240L336,246L346,253L355,259L364,265L376,272L384,278L395,284L405,290L415,294L426,299L436,303L447,307L456,309L466,310L475,311L484,311L495,312L505,312L515,312L527,311L535,308L545,306L554,303L563,300L572,297L580,294L589,291L599,288L609,285L619,280L630,276L641,272L651,269L659,267L668,265L676,264L685,263L692,263L699,263L706,263L713,263L719,263L727,263L735,264L742,265L748,267L755,269L761,270L766,272L770,274L775,275L778,276L780,277L783,278L784,278L785,279L786,279L787,280L788,282" stroke-opacity="1" stroke-width="5" stroke-linecap="round" stroke-linejoin="round" style="-webkit-tap-highlight-color: rgba(0, 0, 0, 0); stroke-opacity: 1; stroke-linecap: round; stroke-linejoin: round; -webkit-user-select: text;"></path></svg>