<svg height="650" version="1.1" width="1024" xmlns="http://www.w3.org/2000/svg" xmlns:xlink="http://www.w3.org/1999/xlink" style="overflow: hidden; position: relative; -webkit-user-select: text;"><desc style="-webkit-tap-highlight-color: rgba(0, 0, 0, 0); -webkit-user-select: text;">Created with Raphaël 2.2.0</desc><defs style="-webkit-tap-highlight-color: rgba(0, 0, 0, 0); -webkit-user-select: text;"></defs><path fill="none" stroke="#000000" d="M102,221L102,217L106,212L111,205L118,196L126,185L135,172L145,159L155,146L165,133L173,121L179,112L184,106L186,103L188,101L189,100L190,101L191,102L194,106L196,111L200,118L203,126L209,135L214,144L220,153L226,164L231,174L236,183L239,190L242,196L244,201L245,204L245,206L245,207L241,207L236,205L230,201L223,197L215,193L207,188L200,184L192,180L185,175L177,170L171,166L164,161L157,156L151,151L145,146L140,141L136,137L132,134L129,131L126,128L123,126L120,123L117,121L115,119L113,119L112,118L111,117L110,117L109,117L108,117L106,117L104,119L101,123L96,128L91,133L85,138L79,144L73,150L68,155L62,160L58,165L54,168L51,171L49,173L47,175L46,176L46,178L47,179L50,182L54,185L58,189L63,194L68,199L74,205L80,211L87,217L94,224L101,230L108,236L116,242L123,248L130,254L136,258L142,262L146,265L149,267L151,268L152,269L153,270L153,269L153,268L153,266L153,263L153,260L153,256L153,251L153,246L153,240L153,234L153,226L153,219L153,210L153,201L153,192L154,184L154,176L155,168L155,161L155,153L155,144L155,136L155,129L155,121L155,114L155,107L155,100L155,93L155,87L155,82L155,76L155,72L155,68L155,65L155,63L155,61L156,60L157,60L158,60L160,59L162,59L164,59L166,58L169,58L171,57L174,57L177,56L179,56L182,56L184,56L186,56L188,56L190,56L192,56L194,56L196,56L199,57L201,58L203,59L206,60L208,61L211,62L213,63L216,65L218,66L221,68L224,69L226,71L228,72L230,74L233,75L235,77L237,78L239,80L241,82L243,84L245,85L246,88L248,89L250,91L251,94L253,96L254,98L255,100L257,102L258,104L259,106L260,109L261,111L262,114L263,117L264,120L266,123L267,127L267,129L269,132L269,135L270,138L271,141L272,144L273,147L273,150L274,153L274,156L275,158L275,161L275,163L276,166L276,169L276,172L276,175L276,178L276,180L276,184L276,187L276,190L276,193L276,197L276,200L276,203L276,206L276,209L276,212L277,214L277,217L277,220L278,222L278,225L279,227L279,229L279,231L280,233L281,234L281,236L281,238L282,239L283,241L284,242L284,243L284,244L285,244L286,243" stroke-opacity="1" stroke-width="5" stroke-linecap="round" stroke-linejoin="round" style="-webkit-tap-highlight-color: rgba(0, 0, 0, 0); stroke-opacity: 1; stroke-linecap: round; stroke-linejoin: round; -webkit-user-select: text;"></path><path fill="none" stroke="#000000" d="M317,124L314,130L314,131L314,132L314,134L314,136L314,138L314,140L314,144L314,147L315,151L315,154L316,157L317,160L318,163L318,166L319,170L320,173L322,177L323,180L325,183L326,187L328,190L330,194L332,197L334,201L336,204L339,208L342,211L345,215L349,218L352,222L356,226L359,229L363,232L366,235L369,238L372,241L375,243L378,245L379,246L381,248L381,249L382,249L382,248L382,246L383,245L383,243L384,240L386,237L388,233L390,228L393,221L397,215L400,209L404,203L408,196L411,190L415,183L419,176L422,170L425,165L428,159L430,156L432,151L434,147L436,144L437,140L438,137L439,136L439,134L439,133L439,132L439,131L437,131L435,129L433,128L430,126L426,124L423,122L419,120L415,117L412,115L408,113L405,111L400,108L397,105L393,102L390,100L386,98L383,95L380,93L378,91L376,90L374,88L372,88L371,88L371,87L370,87L370,88L370,90L370,93L369,97L369,100L369,105L369,109L368,113L367,117L366,122L366,126L365,129L364,133L363,136L363,140L362,143L362,145L362,147L362,148L362,149L362,150L363,151L364,152L366,153L368,154L371,156L373,158L376,159L379,161L383,163L387,166L392,169L398,173L403,176L409,180L413,183L419,186L423,189L428,192L431,194L434,197L438,199L440,201L443,202L446,204L448,205L450,206L451,207L452,207L453,207L454,207L455,206L456,204L457,202L458,200L460,196L463,192L466,187L470,181L474,175L479,169L483,163L486,158L491,153L495,147L498,142L502,138L505,133L509,129L512,125L515,121L517,118L519,115L520,112L522,110L522,109L522,108L522,107L522,106L522,105L521,104L519,103L517,102L514,100L511,98L508,96L505,94L502,92L498,90L495,88L490,85L486,83L482,80L477,78L471,74L466,71L460,67L455,63L449,60L444,57L439,54L434,50L428,47L422,44L417,41L412,38L408,35L405,33L401,31L398,29L395,27L393,26L391,25L390,25L389,25L388,25L388,26L388,27L388,29L388,31L388,34L389,37L389,42L390,46L391,51L392,57L393,63L394,70L395,76L396,83L398,90L399,98L400,104L401,110L403,117L404,123L405,129L407,136L408,143L409,149L411,156L412,163L414,170L415,177L417,183L418,190L420,197L422,203L423,209L425,215L427,221L429,226L430,231L431,236L432,240L434,243L434,247L435,250L436,253L437,256L437,259L437,261L438,263L438,264L438,265L439,265L439,266L439,267L441,267" stroke-opacity="1" stroke-width="5" stroke-linecap="round" stroke-linejoin="round" style="-webkit-tap-highlight-color: rgba(0, 0, 0, 0); stroke-opacity: 1; stroke-linecap: round; stroke-linejoin: round; -webkit-user-select: text;"></path><path fill="none" stroke="#000000" d="M535,151L537,154L539,155L540,157L543,159L545,161L548,164L551,167L554,170L558,173L561,177L565,180L569,184L573,187L576,190L580,194L584,197L587,201L590,204L594,207L597,210L601,213L604,216L607,219L610,221L613,224L615,227L618,230L620,232L621,234L623,234L624,235L624,236L625,236L625,235L625,234L625,231L625,230L625,227L625,224L625,220L625,215L626,208L627,201L628,194L629,187L629,180L630,172L631,165L632,158L634,151L634,144L635,138L636,133L637,128L637,124L637,119L637,115L637,113L637,112L637,111L636,111L635,112L633,114L631,116L629,119L626,125L621,131L616,137L611,144L606,150L601,155L597,161L592,167L588,173L585,179L582,184L578,191L574,197L571,203L569,207L567,211L565,215L563,219L562,221L561,222L560,223L559,223L559,221L559,217L559,209L559,201L561,192L562,184L565,175L567,165L569,156L572,146L573,139L574,131L575,124L575,118L576,113L577,109L577,106L578,103L578,102L578,101L579,100L580,100L581,100L583,100L584,100L585,102L588,104L590,106L594,110L597,112L600,116L604,119L607,122L610,125L613,128L615,130L618,132L620,134L622,135L623,136L624,137L626,139L627,139L628,141L629,142L631,143L632,145L634,146L636,148L637,149L638,151L640,153L642,154L643,156L645,158L647,160L649,162L651,164L654,167L657,169L659,172L662,175L665,178L667,180L670,183L672,185L675,187L678,190L680,192L683,195L686,197L688,199L690,201L692,202L693,204L694,205L695,206L696,206L696,207L696,208L696,209L695,210L694,212L693,214L691,216L689,219L686,223L682,228L678,234L674,238L670,244L665,249L660,255L656,260L651,265L648,270L644,275L641,280L638,284L635,287L632,290L630,294L627,296L626,298L624,299L624,300L622,300L621,300L620,300L619,300L618,299L617,297L615,296L613,294L610,291L607,287L604,283L602,279L600,274L598,270L596,266L595,263L593,258L592,254L590,249L590,245L589,241L589,236L588,232L588,228L587,224L587,219L587,215L586,211L586,207L586,203L586,199L586,195L586,191L586,187L586,183L587,179L588,173L590,168L591,162L593,157L595,151L597,146L599,142L602,137L604,134L606,130L608,126L611,122L614,118L616,114L619,111L621,107L624,104L626,101L630,98L633,94L636,90L638,88L641,85L643,83L646,80L648,78L650,76L652,74L654,72L656,69L658,67L660,65L661,62L663,61L665,59L666,57L667,56L668,55L669,54L670,54L670,53L670,52L671,52L672,52" stroke-opacity="1" stroke-width="5" stroke-linecap="round" stroke-linejoin="round" style="-webkit-tap-highlight-color: rgba(0, 0, 0, 0); stroke-opacity: 1; stroke-linecap: round; stroke-linejoin: round; -webkit-user-select: text;"></path><path fill="none" stroke="#000000" d="M698,105L698,100L699,100L702,98L704,97L708,95L711,93L715,91L719,89L723,88L727,87L731,87L736,86L740,86L745,86L749,86L753,86L757,86L761,86L764,87L768,88L771,90L775,93L777,95L781,97L784,100L787,102L789,104L792,107L794,109L796,112L798,114L800,117L801,121L804,124L805,128L807,131L809,136L811,141L814,146L816,151L818,155L820,159L822,163L824,168L826,173L828,178L831,183L834,188L836,193L840,198L842,202L844,206L847,210L849,214L852,218L854,222L856,226L857,229L859,231L860,233L860,234L860,235L860,236L859,236L858,237L856,238L854,241L851,243L848,246L845,249L842,252L838,255L835,258L832,261L829,264L826,267L823,270L821,273L818,276L815,278L813,281L811,282L809,284L808,285L806,286L805,286L804,286L803,286L802,285L800,283L797,279L794,273L790,269L786,264L782,260L779,255L775,250L772,246L769,241L765,237L762,233L759,229L756,226L754,222L752,220L750,217L749,216L748,215L748,214L748,213L748,212L748,211L748,209L751,207L755,204L761,200L767,196L774,191L783,185L792,179L801,173L810,167L818,161L828,156L836,150L845,144L852,139L859,135L865,131L869,128L874,124L877,122L879,119L881,117L882,115L882,113L882,111L882,109L882,107L881,105L879,102L876,100L873,96L870,93L867,90L865,87L862,84L859,81L857,78L854,76L852,74L851,72L850,71L849,71L848,71L847,71L846,71L845,71L844,71L842,73L839,76L835,79L831,84L826,89L820,95L814,100L808,104L802,109L796,114L790,118L784,122L780,126L776,130L772,133L767,136L765,139L762,140L761,142L760,143L760,144L760,145L760,146L761,148L763,149L765,150L767,151L770,153L772,154L775,156L779,158L783,159L788,161L792,162L797,163L801,165L805,166L809,168L814,169L818,170L823,172L828,174L833,175L839,177L845,178L850,180L856,181L862,183L868,183L874,185L879,186L885,187L890,189L896,190L901,192L905,193L909,194L914,195L918,197L920,198L923,198L925,199L926,199L928,200L929,200L929,201L929,203" stroke-opacity="1" stroke-width="5" stroke-linecap="round" stroke-linejoin="round" style="-webkit-tap-highlight-color: rgba(0, 0, 0, 0); stroke-opacity: 1; stroke-linecap: round; stroke-linejoin: round; -webkit-user-select: text;"></path><path fill="none" stroke="#000000" d="M930,259L928,259L928,262L928,265L928,271L926,277L925,283L923,290L920,297L918,305L915,313L911,321L908,331L905,340L901,351L897,361L894,371L890,381L886,391L884,400L881,410L879,417L877,426L874,433L873,439L872,444L870,449L869,452L867,456L867,458L866,459L865,460L864,460L863,460L862,460L860,460L858,458L856,456L852,454L847,452L842,450L836,447L831,444L826,441L820,438L815,435L809,431L804,428L799,425L793,423L788,420L783,418L778,416L774,414L770,412L766,410L764,409L762,407L761,406L761,405L763,405L766,405L772,404L780,402L792,400L803,399L815,397L825,395L838,393L849,392L860,389L871,387L882,385L891,384L900,382L908,380L915,379L920,378L925,378L928,378L929,378L930,378L930,379L930,380L930,381L930,383L930,386L930,389L930,393L931,398L931,404L931,411L932,417L932,425L933,433L933,440L933,446L933,453L933,460L933,466L934,471L934,476L934,481L934,484L935,486L935,488L935,489L934,486L932,481L928,474L924,468L919,461L915,454L911,447L908,440L904,433L900,426L895,420L891,413L886,406L882,400L877,393L873,387L868,380L863,374L859,368L854,362L850,357L847,352L843,348L840,344L838,341L836,338L834,336L833,334L833,333L832,332L832,331L833,331L834,331L836,331L839,331L842,331L846,331L850,331L856,331L862,331L869,331L875,331L883,331L889,331L895,331L901,331L906,331L911,331L916,331L922,332L926,332L931,332L934,332L937,332L939,332L941,332L942,332L943,332L944,332L944,333L945,333L945,334L945,335L945,336L945,337L945,338L945,339L944,340L944,341L943,343L943,345L942,348L942,351L941,354L940,358L938,362L937,366L935,370L933,375L932,380L930,385L928,389L925,394L923,399L921,404L918,409L916,414L913,418L911,423L908,427L906,432L903,436L899,440L895,445L891,448L887,452L882,456L878,460L874,463L870,466L865,469L861,471L857,473L853,474L850,476L846,478L842,479L838,481L835,483L831,484L827,486L823,488L819,489L815,491L810,493L806,494L802,496L799,497L796,499L792,501L789,502L787,504L784,506L782,508L779,510L777,512L775,513L772,515L771,517L769,519L767,520L766,522L765,523L763,525L762,526L761,528L760,529L759,530L758,531L758,532L757,533L756,533" stroke-opacity="1" stroke-width="5" stroke-linecap="round" stroke-linejoin="round" style="-webkit-tap-highlight-color: rgba(0, 0, 0, 0); stroke-opacity: 1; stroke-linecap: round; stroke-linejoin: round; -webkit-user-select: text;"></path><path fill="none" stroke="#000000" d="M770,480L765,482L762,482L759,482L755,482L750,482L745,483L740,485L734,487L730,489L725,491L721,494L716,497L711,500L705,503L699,506L693,510L688,513L682,516L676,519L671,522L666,524L661,528L656,530L651,534L647,537L644,539L641,542L638,544L636,546L634,547L632,548L631,550L629,550L628,551L627,552L626,552L624,552L623,553L622,553L621,553L619,553L618,553L617,553L615,553L613,552L611,550L607,548L603,545L598,540L594,537L590,533L585,528L580,524L575,520L570,515L566,511L562,506L558,502L553,497L548,493L544,489L541,485L537,482L534,479L532,477L529,474L528,473L527,471L527,470L527,469L527,467L527,465L529,463L533,459L537,455L542,450L547,446L553,441L559,436L566,431L573,424L580,418L587,412L594,406L601,399L607,394L611,390L614,387L618,384L620,382L622,381L623,381L624,381L625,381L626,381L626,383L627,385L629,387L630,391L633,396L636,402L638,409L641,416L643,424L646,433L648,442L651,451L654,460L657,469L660,477L664,487L667,494L670,502L673,510L676,517L678,522L681,528L683,533L685,538L687,541L688,544L689,545L689,547L688,546L687,545L685,544L680,540L675,536L670,533L665,530L661,526L656,523L652,520L646,516L641,511L635,506L629,502L624,498L618,494L612,490L606,485L600,480L593,475L587,470L580,464L574,459L569,454L565,450L560,446L556,442L552,439L549,436L547,433L545,431L544,430L543,428L543,427L543,426L543,425L545,423L548,423L552,421L558,418L565,415L575,411L584,406L595,401L606,396L617,391L631,384L643,378L656,372L665,368L673,364L678,361L682,360L684,358L685,358L686,357L686,358L686,359L686,360L686,361L686,362L686,363L686,364L686,365L686,367L686,369L686,371L685,375L684,379L682,384L680,389L678,396L675,404L670,413L667,421L662,431L658,439L653,447L649,456L645,465L642,472L638,482L634,491L630,500L626,509L622,516L619,525L614,534L611,541L607,548L604,554L602,559L599,565L597,569L595,573L594,575L592,577L592,579L591,580L590,581L590,582L590,581" stroke-opacity="1" stroke-width="5" stroke-linecap="round" stroke-linejoin="round" style="-webkit-tap-highlight-color: rgba(0, 0, 0, 0); stroke-opacity: 1; stroke-linecap: round; stroke-linejoin: round; -webkit-user-select: text;"></path><path fill="none" stroke="#000000" d="M558,570L555,572L553,572L550,572L546,572L542,571L536,571L531,570L524,569L517,568L510,567L500,566L492,564L483,563L474,561L466,559L457,558L448,557L439,555L431,554L422,552L416,551L409,550L403,548L398,547L394,546L391,545L388,545L386,544L386,543L385,543L385,542L385,541L385,540L385,539L385,537L385,533L385,528L385,521L386,515L388,506L389,500L391,492L392,484L394,477L395,470L396,463L396,457L397,451L397,446L397,441L398,437L398,433L398,431L398,429L398,428L399,428L400,429L401,431L402,432L403,435L405,438L408,442L412,448L415,454L420,462L424,469L428,477L432,484L435,491L439,499L443,508L448,516L451,523L455,530L458,536L460,541L462,545L464,550L466,553L467,557L468,559L468,561L468,562L469,563L469,564L468,564L466,564L464,564L462,564L459,564L455,564L447,564L441,565L433,566L424,567L416,567L408,568L398,568L388,569L379,569L371,569L364,569L358,569L350,569L344,569L340,569L335,569L332,569L330,569L328,569L327,569L327,568L327,567L327,565L326,562L326,554L325,549L323,540L321,533L319,525L316,516L314,507L312,499L310,489L307,480L305,471L302,461L300,452L298,446L296,439L294,433L293,429L291,425L290,423L289,420L289,419L288,418L288,417L288,416L288,415L289,414L291,414L297,411L304,407L313,402L323,397L333,393L344,389L355,384L366,379L376,375L386,371L395,367L403,363L409,360L415,357L419,355L422,353L424,352L425,351L426,350L426,351L426,353L426,354L427,356L427,358L428,361L429,364L430,367L432,372L433,377L434,382L436,388L437,393L439,398L440,404L440,408L442,413L442,418L443,422L443,427L443,431L443,436L443,440L443,444L443,448L442,452L439,457L436,462L433,467L429,471L425,474L422,478L418,481L414,485L410,488L405,491L400,493L396,495L392,496L387,498L381,499L376,500L371,501L366,501L360,502L354,502L347,503L342,503L336,503L330,503L324,503L317,503L312,503L306,504L301,504L294,504L288,504L283,505L278,505L273,506L269,506L265,506L262,507L259,508L257,509L256,510L255,511L254,511L253,511L253,512L252,512" stroke-opacity="1" stroke-width="5" stroke-linecap="round" stroke-linejoin="round" style="-webkit-tap-highlight-color: rgba(0, 0, 0, 0); stroke-opacity: 1; stroke-linecap: round; stroke-linejoin: round; -webkit-user-select: text;"></path><path fill="none" stroke="#000000" d="M230,457L227,455L225,455L223,455L219,455L216,455L212,455L208,456L203,457L199,458L196,459L191,460L187,462L183,464L179,465L176,467L172,470L168,473L164,476L160,479L157,483L153,487L150,491L147,495L144,499L141,503L138,508L135,512L133,517L131,520L129,524L128,528L126,532L125,535L123,537L123,539L122,540L121,540L120,540L119,540L118,540L116,538L114,535L111,531L107,526L104,521L101,514L98,508L95,503L91,497L88,492L85,487L82,482L79,478L77,475L74,472L72,469L70,466L68,464L67,462L66,462L66,461L66,460L67,459L69,458L73,456L79,454L87,451L95,448L105,445L114,441L122,438L130,435L135,432L139,431L143,429L144,429L145,429L146,429L146,431L147,433L149,437L151,441L154,448L157,455L160,462L162,469L165,476L168,483L170,489L172,494L173,499L174,503L174,506L175,509L175,511L175,512L175,513L175,514L175,515L175,516L170,514L164,511L157,508L150,506L144,503L138,501L131,499L124,497L117,495L109,493L102,491L96,489L89,487L83,486L77,485L72,484L69,484L67,484L65,483L65,482L65,481L65,479L66,476L73,465L81,453L89,439L98,424L106,408L114,394L119,383L123,375L125,371L126,369L127,367L128,367L128,368L128,369L129,370L132,373L137,378L144,385L152,392L160,399L168,406L174,411L178,415L182,418L184,420L186,421L187,421L187,422" stroke-opacity="1" stroke-width="5" stroke-linecap="round" stroke-linejoin="round" style="-webkit-tap-highlight-color: rgba(0, 0, 0, 0); stroke-opacity: 1; stroke-linecap: round; stroke-linejoin: round; -webkit-user-select: text;"></path></svg>