<svg height="650" version="1.1" width="1024" xmlns="http://www.w3.org/2000/svg" xmlns:xlink="http://www.w3.org/1999/xlink" style="overflow: hidden; position: relative; -webkit-user-select: text;"><desc style="-webkit-tap-highlight-color: rgba(0, 0, 0, 0); -webkit-user-select: text;">Created with Raphaël 2.2.0</desc><defs style="-webkit-tap-highlight-color: rgba(0, 0, 0, 0); -webkit-user-select: text;"></defs><path fill="none" stroke="#000000" d="M136,156L138,155L140,155L142,153L147,151L153,146L161,140L169,134L178,128L189,120L198,114L206,109L212,105L217,102L221,100L223,98L225,97L226,97L226,98L226,100L226,104L227,110L227,119L227,129L227,139L228,150L228,159L229,169L229,178L229,186L229,195L229,202L229,207L229,212L230,214L230,216L227,215L222,210L214,204L206,196L198,188L190,181L181,173L174,165L167,158L161,152L156,146L153,143L150,140L148,138L147,137L146,136L145,136L145,135L147,135L148,135L152,135L159,134L166,133L176,132L189,130L199,129L212,128L224,127L236,124L246,122L255,120L263,118L269,117L273,116L277,115L278,114L279,114L280,114L280,115L280,116L280,117L280,119L280,122L280,125L280,130L280,136L282,146L283,154L285,163L287,173L288,181L290,189L291,197L292,203L293,208L293,212L294,215L294,218L294,219L294,220L294,221L294,222L293,223L291,224L290,225L288,226L285,227L283,229L281,231L278,232L275,234L272,236L268,238L264,239L260,240L256,242L253,243L249,244L244,245L240,246L236,246L232,247L228,248L225,249L221,250L217,250L213,251L210,252L206,253L203,254L200,255L196,256L192,258L188,259L185,260L181,262L177,264L174,266L170,268L167,270L164,273L160,275L158,277L155,280L154,282L152,285L151,287L150,288L149,290L148,292L148,295L147,297L147,299L147,302L146,304L146,306L145,307L145,309L145,310L144,311" stroke-opacity="1" stroke-width="5" stroke-linecap="round" stroke-linejoin="round" style="-webkit-tap-highlight-color: rgba(0, 0, 0, 0); stroke-opacity: 1; stroke-linecap: round; stroke-linejoin: round; -webkit-user-select: text;"></path><path fill="none" stroke="#000000" d="M209,311L202,312L203,311L205,310L208,308L211,307L215,304L219,303L222,302L226,300L229,299L233,299L237,298L240,298L244,298L248,298L251,298L254,299L257,300L260,302L263,304L266,305L268,307L271,309L274,311L276,314L279,316L282,319L285,321L288,324L290,327L293,331L296,333L299,336L302,340L304,343L307,347L309,350L311,353L313,355L315,358L316,360L317,362L319,363L319,364L320,365L321,366L322,366L322,367L322,365L323,362L324,356L325,351L327,344L329,336L332,327L334,321L335,315L337,310L339,304L340,300L341,296L342,293L342,290L343,288L343,287L344,286L342,286L339,288L336,289L331,293L322,298L310,306L298,313L286,321L275,331L266,338L257,345L251,349L247,352L244,354L241,355L240,356L240,357L240,358L242,359L243,360L245,362L248,366L252,372L256,381L261,389L265,395L269,403L273,409L276,414L279,419L282,423L285,427L287,430L288,433L290,434L291,435L292,435L293,435L294,435L295,435L296,433L298,431L301,428L307,423L315,416L324,408L334,399L345,390L356,379L366,370L375,363L383,355L391,348L396,344L400,340L402,338L404,337L405,336L404,336L402,336L399,336L395,336L390,337L383,339L371,343L357,350L342,356L327,364L312,371L298,378L284,385L273,389L261,393L252,396L244,399L237,401L232,404L228,405L225,406L223,407L222,408L222,409" stroke-opacity="1" stroke-width="5" stroke-linecap="round" stroke-linejoin="round" style="-webkit-tap-highlight-color: rgba(0, 0, 0, 0); stroke-opacity: 1; stroke-linecap: round; stroke-linejoin: round; -webkit-user-select: text;"></path><path fill="none" stroke="#000000" d="M195,433L195,435L196,438L199,442L204,447L210,456L215,464L220,472L224,480L229,487L232,493L236,497L239,501L242,506L244,509L246,512L247,515L248,516L248,518L249,518L250,518L251,518L253,518L254,518L256,518L260,518L266,518L273,518L281,519L290,520L298,522L307,524L317,526L326,528L337,530L347,533L356,535L365,537L373,538L379,540L383,540L387,541L390,541L392,541L392,540L391,538L388,535L384,530L379,525L373,520L367,516L362,510L356,505L351,500L344,494L339,489L334,484L330,480L326,477L323,474L320,472L318,471L316,471L315,471L314,471L313,471L312,472L311,474L308,477L304,481L298,487L290,494L280,504L271,515L261,525L255,533L249,542L243,550L237,557L232,563L229,568L226,571L224,573L222,574L220,574L219,574L218,574L217,574L216,574L215,572L213,570L211,568L209,566L207,563L205,561L203,558L200,555L198,554L197,552L195,551L194,550L193,549L192,548L192,547L192,546L192,545L192,544L193,542L198,535L205,523L212,511L221,500L230,489L236,480L242,474L246,469L249,466L251,464L252,464L253,464L254,464L255,464L256,464L258,466L259,468L262,472L266,477L274,488L281,499L290,512L298,523L304,533L310,543L317,552L321,558L324,565L327,569L328,571L328,572L329,573L328,573L327,573L326,574L324,574L323,574L322,575L319,576L317,577L314,579L310,581L306,584L302,587L298,590L291,593L286,596L281,600L277,603L272,607L267,610L263,612L260,614L257,616L255,618L253,619L251,620L250,621L249,622L248,622L247,623L246,623L245,624L244,624L243,625L242,625L241,625L239,626L238,626L237,626L235,626L234,627L232,627L231,627L229,627L228,627L227,627L225,627L223,627L221,627L220,627L217,627L216,627L214,626L212,626L210,625L208,625L207,625L205,624L203,622L202,622L200,620L198,619L197,618L195,616L193,615L191,613L188,611L186,609L183,608L181,605L179,603L176,600L172,596L169,593L166,590L163,587L161,584L157,580L155,577L153,574L151,571L149,568L147,564L145,560L143,557L142,553L139,549L137,545L135,542L133,538L131,535L128,531L126,528L123,525L121,522L119,520L117,518L114,517L112,516L110,514L108,513L106,513L104,512L103,512L101,511L100,511L99,510L98,510L98,509" stroke-opacity="1" stroke-width="5" stroke-linecap="round" stroke-linejoin="round" style="-webkit-tap-highlight-color: rgba(0, 0, 0, 0); stroke-opacity: 1; stroke-linecap: round; stroke-linejoin: round; -webkit-user-select: text;"></path><path fill="none" stroke="#000000" d="M162,489L158,486L158,484L157,481L154,477L152,472L149,467L145,464L142,460L138,457L134,455L130,452L126,450L121,449L117,448L111,447L106,446L102,445L97,445L92,445L86,445L81,445L76,445L71,445L66,447L62,449L58,450L54,452L52,452L50,453L49,453L48,453L48,452L48,450L48,448L48,445L48,442L48,436L48,429L48,420L48,407L49,394L52,377L54,365L57,352L60,343L62,336L63,331L64,328L65,326L66,326L67,326L68,327L70,328L73,329L77,331L83,333L90,335L98,337L106,338L114,340L120,341L127,343L131,345L135,346L138,347L140,348L141,350L142,352L142,353L142,354L142,356L141,359L138,363L134,372L130,381L127,392L122,403L119,414L115,426L111,440L108,452L105,464L103,470L102,475L101,478L100,480L99,480L98,480L98,479L97,477L96,475L95,473L93,470L88,465L82,458L76,451L71,446L66,441L60,436L55,431L50,427L45,423L41,420L37,418L33,415L30,413L28,412L25,411L23,409L20,407L18,406L17,405L16,404L15,404L15,403L15,402L16,402L18,402L21,402L25,402L34,401L44,400L58,398L71,396L89,394L106,392L120,391L134,389L144,389L152,388L159,388L163,387L165,387L166,387L167,387" stroke-opacity="1" stroke-width="5" stroke-linecap="round" stroke-linejoin="round" style="-webkit-tap-highlight-color: rgba(0, 0, 0, 0); stroke-opacity: 1; stroke-linecap: round; stroke-linejoin: round; -webkit-user-select: text;"></path><path fill="none" stroke="#000000" d="M418,276L421,273L426,273L431,271L438,268L450,264L463,258L477,251L490,244L502,238L512,234L522,230L529,227L534,224L538,223L540,221L541,221L541,222L541,223L541,225L540,228L539,233L536,244L533,256L531,270L528,284L524,297L521,309L519,321L516,330L516,337L515,341L514,345L514,347L514,348L513,348L512,348L511,347L510,344L509,341L506,337L501,330L495,322L489,313L483,304L477,296L471,288L466,281L460,272L455,263L449,254L443,246L440,241L436,236L434,233L432,230L430,228L429,227L429,226L429,225L431,225L434,225L437,225L444,223L454,219L465,215L477,211L490,207L503,203L516,199L530,193L540,189L551,185L559,182L565,180L570,178L575,177L577,177L579,177L579,178L579,179L579,180L579,182L579,184L579,186L580,189L581,194L583,200L585,207L587,215L589,223L591,230L593,236L594,242L596,248L597,253L599,257L599,260L600,263L601,264L601,265L601,266L599,266L598,266L596,267L595,267L593,267L592,268L589,269L587,270L584,272L580,275L576,278L572,281L567,285L563,288L559,292L555,297L552,301L549,306L547,310L545,315L543,320L541,326L539,331L538,336L537,342L537,348L536,355L536,360L536,365L536,371L536,377L536,383L536,388L536,394L536,399L536,406L536,411L536,416L536,421L536,426L536,433L536,437L536,442L535,445L533,450L533,453L532,457L531,460L530,462L529,464L528,466L528,467L527,467L527,466" stroke-opacity="1" stroke-width="5" stroke-linecap="round" stroke-linejoin="round" style="-webkit-tap-highlight-color: rgba(0, 0, 0, 0); stroke-opacity: 1; stroke-linecap: round; stroke-linejoin: round; -webkit-user-select: text;"></path><path fill="none" stroke="#000000" d="M582,340L576,343L576,345L575,349L574,354L572,360L571,365L570,372L570,379L569,387L569,394L569,401L569,407L570,412L571,417L573,422L576,428L579,435L581,440L584,446L587,453L590,460L592,466L594,471L597,477L599,482L600,487L601,491L602,493L603,495L603,496L603,494L604,493L604,491L605,489L606,487L609,482L614,474L619,468L626,460L634,452L641,446L649,440L658,433L666,428L672,423L678,420L682,417L686,415L689,413L690,412L691,411L689,411L687,410L685,410L682,408L678,406L674,403L669,400L665,397L660,394L655,391L650,388L647,385L644,382L641,379L638,376L636,374L635,372L633,372L633,371L632,371L631,371L631,372L630,373L630,375L628,377L627,379L623,384L619,389L613,397L606,406L599,416L592,426L586,435L580,443L575,450L571,456L568,462L566,465L564,468L563,469L563,470L562,471L562,472L563,472L565,472L567,472L570,474L576,479L583,486L589,491L595,497L601,502L607,508L611,513L615,517L619,521L623,524L626,527L629,529L631,530L633,531L634,531L635,531L635,530L636,528L637,525L641,520L648,513L656,505L664,497L672,491L680,486L686,481L689,478L691,477L693,475L693,474L691,474L690,473L689,473L687,472L685,472L681,469L676,466L671,462L665,457L659,452L652,448L647,444L641,439L635,434L629,428L624,423L618,418L613,413L609,408L604,403L600,400L596,397L593,395L591,393L589,392L589,391L588,390L588,389" stroke-opacity="1" stroke-width="5" stroke-linecap="round" stroke-linejoin="round" style="-webkit-tap-highlight-color: rgba(0, 0, 0, 0); stroke-opacity: 1; stroke-linecap: round; stroke-linejoin: round; -webkit-user-select: text;"></path><path fill="none" stroke="#000000" d="M614,346L616,343L619,342L623,340L628,337L635,333L642,326L648,321L654,315L660,311L665,308L669,305L673,302L677,299L680,297L683,294L686,292L689,290L692,288L696,285L701,281L706,277L711,272L716,269L720,266L725,263L729,261L733,259L735,257L737,256L738,256L738,255L739,255L739,256L739,257L739,258L739,260L739,261L739,263L739,265L740,268L742,273L745,280L749,287L752,295L757,304L760,311L763,319L766,326L768,331L769,336L771,339L772,342L773,344L774,345L774,346L773,346L771,346L770,346L769,346L766,347L764,348L762,349L759,351L755,354L752,356L749,359L746,362L742,364L739,367L736,368L733,370L730,370L728,370L725,370L723,370L722,370L721,369L720,367L719,364L718,362L716,358L714,354L712,350L709,345L703,332L696,317L691,309L686,303L682,297L678,292L675,289L672,287L670,284L668,282L666,280L665,278L663,276L662,274L660,272L659,271L658,269L658,268L658,267L658,266L660,265L664,263L669,261L674,258L681,255L689,251L699,247L710,243L720,239L732,236L743,232L754,229L765,224L773,221L779,220L784,219L788,218L790,218L791,218L791,219L790,221L789,222L788,225L788,227L787,230L786,234L786,240L786,248L786,258L786,265L786,275L786,282L786,287L786,292L786,295L786,298L785,300L785,302L784,302L783,302L782,302L780,302L778,302L776,302L773,302L769,302L763,302L756,303L750,304L741,305L732,307L724,308L717,309L708,311L701,312L696,313L691,314L688,315L685,316L684,317L684,318L684,319L684,320L684,321L684,323L684,324L684,327L684,330L684,333L684,337L685,342L686,348L687,354L689,360L690,366L692,372L694,380L696,385L699,391L703,396L707,401L712,407L717,413L722,418L728,423L733,428L738,433L743,437L748,442L752,446L757,450L762,455L766,461L769,464L771,469L774,472L776,476L779,479L780,481L781,484L782,485L783,486L784,487L785,487" stroke-opacity="1" stroke-width="5" stroke-linecap="round" stroke-linejoin="round" style="-webkit-tap-highlight-color: rgba(0, 0, 0, 0); stroke-opacity: 1; stroke-linecap: round; stroke-linejoin: round; -webkit-user-select: text;"></path><path fill="none" stroke="#000000" d="M773,399L776,402L781,406L787,411L793,415L798,420L804,424L810,430L815,435L820,440L825,446L830,452L835,458L839,464L843,470L846,477L849,484L852,491L854,498L855,505L856,513L857,520L857,528L857,536L857,542L857,547L856,550L856,552L856,554L856,555L856,554L856,553L857,552L858,550L860,547L869,537L875,529L883,520L891,510L898,502L903,495L909,488L914,483L918,477L921,474L923,471L925,469L925,468L926,467L926,466L924,466L922,466L920,466L917,466L915,466L911,466L908,465L902,463L895,461L888,458L882,456L876,454L870,452L864,450L858,447L854,445L849,444L846,443L842,441L840,440L837,440L836,440L835,440L834,440L833,441L832,443L831,445L830,449L827,455L824,462L819,472L813,481L806,491L800,499L795,507L791,513L788,517L785,520L784,523L783,524L783,525L783,526L785,526L787,527L791,530L796,535L803,542L811,548L819,554L827,561L834,568L842,574L847,578L853,584L859,588L864,593L867,596L870,598L872,599L874,601L875,601L876,601L877,601L878,600L880,598L889,590L898,582L910,572L922,564L932,556L942,550L949,546L956,541L960,538L963,535L965,533L965,531L965,530L965,529L965,528L964,527L962,525L958,521L955,518L950,512L945,506L939,500L934,494L928,486L922,479L916,471L910,463L905,454L900,445L895,438L890,429L884,422L880,416L876,411L872,406L869,403L867,400L865,398L864,397L864,396" stroke-opacity="1" stroke-width="5" stroke-linecap="round" stroke-linejoin="round" style="-webkit-tap-highlight-color: rgba(0, 0, 0, 0); stroke-opacity: 1; stroke-linecap: round; stroke-linejoin: round; -webkit-user-select: text;"></path><path fill="none" stroke="#000000" d="M938,370L933,372L930,369L926,365L921,359L916,353L910,348L905,343L900,338L894,334L889,328L884,324L880,320L876,316L872,312L869,310L866,308L865,307L864,306L864,305L864,304L864,303L864,302L865,300L868,298L875,292L882,287L891,280L899,273L906,267L915,261L921,257L927,253L931,249L935,246L938,243L941,241L944,239L945,238L946,238L947,237L948,237L949,237L949,238L949,240L949,241L950,244L950,248L951,253L953,258L955,264L956,270L958,276L959,280L959,285L960,287L960,290L961,292L961,293L961,294L959,294L957,294L955,294L953,294L950,294L947,294L944,292L941,291L937,289L934,287L931,286L928,284L926,282L922,280L918,277L913,274L907,270L902,268L896,265L888,263L883,261L877,259L872,257L867,254L863,253L859,251L857,250L855,248L854,248L854,247L854,246L854,244L855,243L858,241L861,238L867,231L872,226L876,219L881,212L885,206L888,200L891,193L894,188L896,183L898,179L900,176L901,173L902,172L903,171L904,171L905,171L905,173L905,175L906,177L906,179L906,182L907,186L909,194L912,205L915,215L918,226L920,235L924,247L927,257L929,265L932,276L934,284L936,289L937,294L938,299L939,303L939,306L939,307L939,309L939,310L939,311L937,311L935,311L932,312L930,312L928,313L926,313L924,313L922,313L919,313L917,313L914,313L911,313L909,313L906,313L904,312L902,311L899,310L896,309L893,307L891,306L887,304L883,303L879,300L874,298L869,295L864,293L859,290L854,287L850,285L847,282L843,278L840,274L836,270L833,266L831,261L829,258L827,252L826,247L825,243L824,238L823,233L822,226L821,220L820,215L819,209L818,202L818,196L817,190L816,185L814,179L813,175L812,170L810,165L808,160L807,156L805,152L802,147L800,144L798,140L795,137L793,134L790,132L787,129L784,127L781,124L779,122L776,120L774,119L773,117L771,117L771,116L770,115" stroke-opacity="1" stroke-width="5" stroke-linecap="round" stroke-linejoin="round" style="-webkit-tap-highlight-color: rgba(0, 0, 0, 0); stroke-opacity: 1; stroke-linecap: round; stroke-linejoin: round; -webkit-user-select: text;"></path><path fill="none" stroke="#000000" d="M854,129L852,125L852,123L851,119L849,115L847,112L845,108L842,105L838,102L835,99L830,96L826,93L821,90L816,87L810,85L805,83L801,81L796,80L790,78L785,77L781,76L776,76L772,75L767,75L762,75L757,75L753,75L748,75L744,76L738,78L733,79L727,81L722,83L715,86L709,90L702,93L697,97L691,100L686,102L681,105L677,106L674,109L670,111L667,113L665,115L662,117L660,119L657,121L655,122L654,124L652,124L651,124L650,124L650,122L650,120L650,117L649,115L648,110L646,106L644,101L643,96L641,91L639,87L638,83L636,80L635,77L633,75L633,73L633,71L633,70L633,69L633,68L637,64L643,60L652,54L660,49L669,45L677,41L685,37L692,34L698,33L703,31L708,30L711,29L714,29L716,28L718,27L719,27L720,27L720,28L720,30L719,33L718,37L717,44L715,52L713,65L711,77L710,90L708,102L706,114L704,126L701,138L699,149L698,158L696,167L695,174L694,179L694,183L693,185L691,187L690,187L689,187L687,187L684,187L682,186L679,185L675,183L671,181L666,179L660,176L653,172L645,168L638,165L628,161L621,158L613,154L605,151L598,148L593,145L587,142L583,140L579,138L576,136L573,135L572,134L571,132L570,131L570,130L572,130L575,129L579,128L591,121L603,114L618,108L635,101L653,93L670,85L690,76L706,68L721,60L735,54L745,50L752,46L756,45L759,44L760,44L761,43L761,44L761,45L761,46L761,47L761,48L761,49L761,51L761,53L760,55L759,62L757,73L755,82L753,96L752,106L750,119L749,129L748,143L747,154L745,166L744,178L743,186L742,195L741,201L740,206L740,210L740,212L740,214" stroke-opacity="1" stroke-width="5" stroke-linecap="round" stroke-linejoin="round" style="-webkit-tap-highlight-color: rgba(0, 0, 0, 0); stroke-opacity: 1; stroke-linecap: round; stroke-linejoin: round; -webkit-user-select: text;"></path></svg>