<svg height="650" version="1.1" width="1024" xmlns="http://www.w3.org/2000/svg" xmlns:xlink="http://www.w3.org/1999/xlink" style="overflow: hidden; position: relative; -webkit-user-select: text;"><desc style="-webkit-tap-highlight-color: rgba(0, 0, 0, 0); -webkit-user-select: text;">Created with Raphaël 2.2.0</desc><defs style="-webkit-tap-highlight-color: rgba(0, 0, 0, 0); -webkit-user-select: text;"></defs><path fill="none" stroke="#000000" d="M192,172L200,166L203,165L207,161L214,156L221,148L228,141L237,134L245,127L253,119L261,112L268,107L272,104L276,102L278,100L280,99L281,98L281,99L281,100L281,102L281,104L281,106L281,110L281,117L281,124L281,131L281,141L282,150L282,157L283,166L284,175L285,183L286,191L288,198L289,203L290,207L291,210L292,211L292,212L291,212L288,209L284,205L280,200L275,194L268,187L261,180L254,173L246,165L239,158L233,151L228,146L224,142L221,139L218,136L216,134L214,132L213,131L212,131L213,131L215,131L217,131L222,131L227,130L234,130L242,130L250,130L258,130L267,130L275,130L283,130L291,130L298,130L303,130L309,130L312,130L315,130L317,130L318,130L318,131L317,132L315,134L313,136L311,141L307,146L303,153L299,159L294,168L289,175L285,182L280,191L277,198L274,206L271,212L268,217L266,223L265,227L263,230L262,233L261,234L260,236L259,236L258,236L256,236L255,236L254,236L251,236L249,236L246,236L244,236L240,236L237,236L232,236L229,236L225,236L220,235L215,234L210,233L206,231L202,230L198,228L193,226L189,224L185,222L182,220L179,218L176,216L174,214L172,213L170,211L169,209L166,207L165,205L163,202L161,200L160,197L159,194L157,192L156,189L154,187L154,185L152,183L151,181L150,179L149,177L149,175L147,173L146,171L145,169L144,167L142,165L142,163L140,162L139,160L138,159L137,158L135,156L134,155L132,153L131,152L130,151L128,150L127,148L125,147L124,146L122,145L121,144L119,143L118,142L116,141L115,141L114,140L113,140L111,139L110,139" stroke-opacity="1" stroke-width="5" stroke-linecap="round" stroke-linejoin="round" style="-webkit-tap-highlight-color: rgba(0, 0, 0, 0); stroke-opacity: 1; stroke-linecap: round; stroke-linejoin: round; -webkit-user-select: text;"></path><path fill="none" stroke="#000000" d="M116,190L110,186L109,186L108,186L106,186L104,186L102,186L100,186L98,186L96,186L94,187L91,188L89,190L86,191L84,193L81,196L79,198L77,201L76,203L74,206L73,208L72,211L71,213L71,216L70,219L70,222L69,225L69,229L69,232L69,235L69,238L69,242L69,246L69,249L69,253L69,258L70,262L70,266L71,270L71,275L71,280L72,284L72,288L73,291L73,295L73,298L73,301L73,303L73,305L73,307L73,308L73,309L73,310L73,311L72,311L71,311L70,311L69,311L67,310L64,309L61,308L57,306L53,303L50,301L46,299L43,297L41,295L38,293L36,292L34,290L32,289L30,288L30,287L29,287L29,286L29,285L30,284L32,284L35,282L39,280L44,277L51,274L58,270L65,268L73,265L81,263L88,260L93,258L98,256L103,255L106,253L109,253L110,253L111,252L112,252L113,252L113,253L113,254L114,255L114,258L115,260L116,263L118,268L120,275L122,282L125,290L127,298L129,306L131,312L133,319L135,325L137,331L138,335L139,338L140,341L141,343L141,344L142,345L141,345L140,345L137,345L135,345L132,345L129,345L125,345L120,345L114,345L108,345L102,346L93,348L85,348L77,350L71,351L63,352L57,353L52,353L47,354L43,354L40,354L37,354L36,354L35,354L34,353L34,352L34,351L34,349L34,347L34,345L35,340L35,335L36,327L37,318L39,308L40,296L41,287L43,273L44,263L45,253L46,245L47,239L47,234L48,230L49,226L49,223L50,221L50,220L50,219L51,219L52,219L53,219L54,219L55,219L57,219L59,219L62,220L65,221L69,223L74,225L81,228L89,230L96,233L104,236L112,239L119,242L126,246L134,249L141,253L147,256L154,259L159,261L165,264L171,266L175,268L178,270L182,272L184,273L186,274L187,274L187,275L188,275" stroke-opacity="1" stroke-width="5" stroke-linecap="round" stroke-linejoin="round" style="-webkit-tap-highlight-color: rgba(0, 0, 0, 0); stroke-opacity: 1; stroke-linecap: round; stroke-linejoin: round; -webkit-user-select: text;"></path><path fill="none" stroke="#000000" d="M166,296L170,299L172,301L174,302L178,304L181,307L186,309L190,311L194,313L198,315L202,317L206,319L210,321L214,323L217,325L221,327L224,329L226,331L228,332L229,333L230,333L231,333L231,334L232,334L233,334L233,333L234,332L235,330L237,327L238,324L241,320L244,316L247,312L250,307L252,302L255,298L257,294L259,290L261,287L263,285L265,284L266,282L267,281L267,280L268,280L269,280L270,280L271,280L272,281L273,282L276,284L278,285L281,288L285,290L290,293L294,297L299,299L302,303L306,306L310,309L313,311L316,313L318,315L320,317L321,319L322,320L322,321L323,323L323,324L323,326L323,327L321,328L319,331L317,334L315,337L312,341L309,346L306,351L303,358L300,364L297,369L294,375L291,381L289,386L287,390L285,394L283,398L282,401L281,403L280,404L279,405L278,405L277,405L276,405L276,404L275,401L273,400L273,398L272,396L270,393L268,388L265,382L263,377L260,371L257,366L254,360L252,353L249,347L247,342L244,335L242,328L239,323L236,316L234,311L232,306L230,301L228,296L227,292L226,288L225,285L225,284L224,282L225,281L227,281L229,280L231,278L234,277L237,275L240,273L244,272L247,270L250,269L254,268L258,266L262,265L266,264L270,263L274,261L278,260L281,260L285,259L289,259L293,258L296,258L299,258L302,258L305,258L308,258L311,258L315,259L317,260L320,262L323,263L325,264L328,265L329,266L331,268L333,269L334,271L336,273L337,275L339,277L340,278L341,280L343,282L344,283L345,285L346,287L347,288L348,290L349,292L350,294L351,295L351,297L352,299L353,301L353,303L353,305L354,307L354,309L355,311L355,314L356,316L356,319L356,321L356,324L356,326L356,329L356,332L356,335L356,338L357,340L357,343L357,346L357,349L357,352L357,356L357,359L357,362L357,365L357,367L357,370L357,372L357,374L357,376L357,378L357,381L357,383L358,385L358,387L358,389L359,390L359,391L360,392L360,393L360,394L361,394L361,395" stroke-opacity="1" stroke-width="5" stroke-linecap="round" stroke-linejoin="round" style="-webkit-tap-highlight-color: rgba(0, 0, 0, 0); stroke-opacity: 1; stroke-linecap: round; stroke-linejoin: round; -webkit-user-select: text;"></path><path fill="none" stroke="#000000" d="M395,319L394,324L394,325L394,327L394,330L394,332L394,335L394,337L394,340L394,343L394,346L394,349L394,353L394,356L394,359L394,362L394,365L394,367L395,371L395,374L396,377L397,380L398,383L400,386L401,389L402,392L404,394L406,397L408,400L409,403L412,406L414,409L416,412L418,414L420,417L422,419L424,422L426,424L429,426L430,428L432,430L434,431L435,433L436,434L438,435L439,437L441,438L442,439L443,440L445,440L446,441L447,441L448,442L449,442L450,443L451,443L451,442L451,440L451,439L451,438L451,437L451,436L451,435L451,434L451,433L451,431L451,430L451,427L451,424L451,420L451,416L452,412L452,409L453,404L453,400L453,396L454,393L454,390L455,387L455,383L455,380L455,377L456,373L456,370L457,367L457,364L458,361L458,358L458,354L459,351L460,347L460,344L460,340L461,337L462,333L463,330L463,325L464,321L465,317L466,314L467,310L468,307L468,304L469,302L470,299L470,298L470,297L470,296L469,298L468,301L467,303L465,306L464,309L461,313L458,318L452,326L446,335L439,344L431,357L422,369L414,381L407,390L400,399L396,406L392,411L390,415L387,418L386,421L385,422L385,423L384,425L383,426L383,427L382,428L381,429L380,429L379,429L378,429L377,429L376,427L375,426L375,425L374,423L373,423L372,422L370,422L368,421L366,421L363,421L361,421L359,421L356,421L354,421L351,421L348,421L345,421L341,421L338,421L335,421L332,421L329,421L326,421L324,421L321,422L318,422L316,422L314,422L312,422L311,422L311,423L311,424L311,425L312,426L312,427L313,429L315,431L317,435L319,440L322,445L326,452L329,459L332,465L335,470L338,474L341,479L344,483L347,486L349,489L351,491L352,492L353,493L354,493L355,493L356,493L356,492L358,491L359,489L361,486L363,484L367,481L371,476L376,472L381,466L387,457L394,449L402,440L410,428L417,420L424,411L430,402L435,395L440,389L444,383L448,378L450,375L453,371L455,368L457,366L458,365L460,364L461,364L463,364L465,365L466,367L468,369L470,372L473,376L475,381L478,386L481,391L483,396L486,401L488,406L490,411L492,416L493,419L494,423L496,426L497,428L497,429L497,430L497,431L497,432L497,433L496,434L495,434L494,434L493,435L492,435L490,435L488,435L486,435L483,436L480,436L475,437L471,437L466,438L460,438L453,438L447,439L440,439L433,439L425,439L418,439L410,439L403,440L395,440L387,440L382,440L375,441L370,441L365,441L361,441L358,441L356,442L355,442L354,442L353,442" stroke-opacity="1" stroke-width="5" stroke-linecap="round" stroke-linejoin="round" style="-webkit-tap-highlight-color: rgba(0, 0, 0, 0); stroke-opacity: 1; stroke-linecap: round; stroke-linejoin: round; -webkit-user-select: text;"></path><path fill="none" stroke="#000000" d="M297,455L291,455L289,455L286,455L284,455L282,455L279,455L276,455L272,455L268,455L263,455L259,455L255,455L251,455L246,455L242,455L237,456L234,456L230,456L227,456L225,456L222,456L221,456L220,456L220,457L220,458L220,459L221,460L222,461L224,463L226,466L229,470L233,477L238,484L242,491L247,497L251,504L256,510L260,516L264,522L269,528L273,533L276,538L279,542L282,545L284,548L285,550L286,550L287,551L288,551L288,550L289,548L290,546L291,544L292,540L294,537L295,532L297,527L299,522L300,515L302,507L302,501L303,497L303,494L304,491L304,489L302,489L300,489L298,489L296,489L293,489L289,488L285,488L280,487L273,486L266,485L259,484L251,484L243,484L236,484L230,484L225,484L220,484L215,484L212,484L209,484L206,484L205,484L204,484L203,485L203,486L203,488L203,489L203,490L203,492L203,493L203,495L204,497L204,501L205,505L206,511L207,516L208,521L210,526L212,532L214,538L216,543L219,548L222,552L225,557L228,560L231,564L234,567L237,569L241,571L244,573L248,575L251,576L254,578L258,579L261,580L264,581L268,581L271,582L274,582L276,582L279,582L281,582L283,582L285,582L288,582L290,582L292,582L294,582L295,582L297,582L298,582L299,581L300,581L302,581L302,580L303,580L305,580L305,579L306,579L307,579L308,578L310,578L311,577L312,576L313,576L314,576L315,575L316,575L317,574L318,574L319,573L320,572L322,572L322,571L323,571L324,570L325,569L326,569L327,568L328,568L329,567L331,566L332,565L333,564L334,564L335,564L336,563L337,562L339,562L340,561L341,561L343,560L344,559L346,559L347,559L349,558L350,558L351,557L352,557L353,557L355,557L356,556L357,556L358,556L360,556L361,556L363,556L365,556L366,556L368,556L369,556L370,556L371,556L373,556L374,556L375,556" stroke-opacity="1" stroke-width="5" stroke-linecap="round" stroke-linejoin="round" style="-webkit-tap-highlight-color: rgba(0, 0, 0, 0); stroke-opacity: 1; stroke-linecap: round; stroke-linejoin: round; -webkit-user-select: text;"></path><path fill="none" stroke="#000000" d="M377,526L382,523L384,523L388,523L394,523L399,523L404,523L410,523L415,523L420,523L424,523L428,523L431,524L434,525L437,527L440,528L443,530L446,532L449,534L453,536L455,539L459,542L463,545L466,547L470,550L474,553L477,556L481,559L483,562L486,565L489,568L492,571L494,573L497,575L499,576L502,578L503,579L504,579L504,580L505,580L506,580L506,579L506,578L506,577L506,575L506,573L506,570L505,565L504,558L504,550L503,543L502,537L502,531L502,525L501,520L500,515L499,510L498,506L497,501L497,499L496,496L496,494L495,491L494,490L494,489L493,489L492,489L491,491L490,492L489,494L487,496L486,499L482,505L476,516L468,526L462,538L456,547L451,554L448,559L446,563L444,567L443,568L442,569L441,569L441,568L441,566L441,564L441,562L441,559L441,555L440,550L439,544L438,537L436,530L435,524L434,519L433,513L432,508L431,503L431,500L431,497L430,496L430,494L431,494L433,494L435,494L438,494L442,494L447,493L453,492L461,490L470,488L481,486L490,484L499,481L507,479L514,478L520,476L526,475L530,474L534,473L536,472L538,472L539,472L540,472L540,474L540,476L540,477L540,479L540,481L540,483L541,486L543,491L545,495L548,500L551,506L554,513L556,517L558,520L560,525L563,528L564,531L566,534L567,536L567,537L568,538L568,539L568,540L569,540L569,541L570,541L570,542L571,542L572,543L573,544L574,544L574,545L575,545L576,545L577,545L578,545L579,546L580,546L581,546L582,546L583,547L584,547L586,547L587,548L589,549L591,549L592,550L593,550L594,550L595,550L596,550L597,550L598,550L599,550L600,550L601,550L602,550L603,550L604,550L605,550L606,550L607,550L608,550L609,550L610,550L611,550L612,550L613,550L613,549L614,549L615,548L616,548L618,547L620,547L622,546L625,545L627,543L629,542L631,540L633,539L635,537L637,534L639,532L641,529L643,527L645,524L648,521L650,518L652,515L655,512L657,508L659,506L662,502L664,499L665,497L667,495L668,493L669,491L670,490L671,489L672,488L673,488L674,487L674,486L675,486L675,485" stroke-opacity="1" stroke-width="5" stroke-linecap="round" stroke-linejoin="round" style="-webkit-tap-highlight-color: rgba(0, 0, 0, 0); stroke-opacity: 1; stroke-linecap: round; stroke-linejoin: round; -webkit-user-select: text;"></path><path fill="none" stroke="#000000" d="M584,489L588,490L590,490L592,490L594,490L596,490L598,490L600,490L603,490L605,489L607,489L609,488L611,487L612,486L614,485L615,483L616,482L618,481L619,479L620,478L622,477L623,475L626,472L628,468L630,464L633,461L635,457L636,452L638,448L639,444L640,440L641,437L642,432L642,428L643,424L643,421L643,417L644,413L645,409L646,403L648,398L651,393L654,388L656,385L659,381L662,377L667,374L670,372L674,370L677,369L680,368L682,368L683,367L684,367L683,367L682,367L680,367L678,366L675,365L672,364L669,362L665,359L661,357L657,353L652,350L647,347L643,344L638,341L633,338L628,336L623,333L619,330L615,327L612,325L609,324L606,322L603,321L601,321L599,320L597,320L596,320L596,321L595,323L594,325L593,327L592,330L589,334L586,338L582,343L577,348L570,355L566,360L562,363L558,367L554,370L551,372L550,373L549,373L549,374L550,374L552,374L555,374L557,375L560,376L565,378L571,382L580,387L587,390L597,395L606,399L613,403L621,408L629,412L636,415L641,418L646,421L650,422L654,423L656,425L657,425L659,425L660,425L661,425L661,424L662,423L662,421L662,419L664,416L667,411L669,405L672,398L676,391L678,384L681,376L684,369L686,363L687,357L689,350L690,345L691,340L692,336L692,333L693,329L694,326L694,324L694,322L694,321L694,320L693,319L691,319L689,319L687,319L685,319L682,319L679,319L676,319L673,318L670,316L667,316L664,314L661,313L658,312L655,310L653,309L650,308L648,307L646,305L644,304L643,303L641,303L640,302L639,302L638,302L638,303L638,305L637,306L637,308L636,309L636,311L635,314L634,316L633,319L632,323L631,328L629,333L628,336L626,341L625,346L623,352L622,357L621,362L619,366L618,371L617,376L615,382L614,387L612,392L611,396L609,401L608,405L607,408L606,411L605,413L604,414L604,415L604,416L603,416" stroke-opacity="1" stroke-width="5" stroke-linecap="round" stroke-linejoin="round" style="-webkit-tap-highlight-color: rgba(0, 0, 0, 0); stroke-opacity: 1; stroke-linecap: round; stroke-linejoin: round; -webkit-user-select: text;"></path><path fill="none" stroke="#000000" d="M572,424L567,423L566,423L565,421L563,420L561,418L560,416L557,414L555,412L552,409L549,406L547,404L544,401L541,399L539,396L537,394L534,392L532,390L529,388L526,386L524,384L522,382L520,379L518,377L516,375L514,374L512,372L511,371L509,370L508,369L507,368L506,367L505,366L505,365L505,364L505,363L505,362L505,361L505,360L506,359L507,357L509,354L511,350L513,345L517,339L521,333L525,326L530,319L535,313L541,305L545,299L549,293L553,288L556,284L558,281L560,278L562,276L563,274L563,273L564,272L564,271L564,270L564,269L564,268L563,266L562,264L560,262L558,260L555,256L552,253L549,248L546,244L542,239L539,235L535,230L531,226L528,222L526,219L523,216L520,214L517,211L515,209L513,208L511,207L509,206L507,206L506,206L504,206L502,206L501,207L500,209L499,211L497,213L496,217L494,221L492,226L489,230L487,235L484,240L482,243L480,247L479,250L478,252L477,253L477,254L478,254L480,254L482,254L483,255L486,255L489,257L493,258L498,260L504,263L509,265L514,268L519,270L524,272L528,274L531,275L535,276L538,277L540,277L543,277L545,277L548,277L550,274L554,270L558,265L562,260L568,251L573,245L578,238L583,233L587,227L590,223L593,219L595,216L597,213L598,212L599,210L599,209L600,207L600,206L600,204L600,203L599,201L597,199L596,197L594,194L592,191L590,188L587,185L584,182L581,178L578,174L576,171L573,168L570,166L568,163L566,161L564,160L562,158L561,157L560,157L559,156L558,156L557,156L556,156L555,156L555,158L554,160L553,163L551,166L549,171L546,177L543,182L539,190L535,200L529,210L522,223L517,232L512,243L509,253L506,260L504,266L503,271L502,275L502,278L502,280L502,281L502,282L503,283L504,284L505,284L506,285L507,286L508,287L510,288L511,289L514,291L516,292L518,293L521,295L524,297L526,298L529,299L532,301L535,302L538,304L541,304L544,305L548,305L551,306L555,306L558,306L560,306L563,306L565,306L568,305L570,305L572,304L574,302L576,301L577,300L579,299L581,298L582,297L584,295L586,294L587,292L588,291L589,290L590,289L592,287L593,285L594,284L595,282L596,281L598,279L599,277L600,275L601,273L602,272L603,270L604,268L605,266L606,264L608,262L609,259L610,257L611,255L613,252L614,249L616,247L617,244L618,242L620,240L622,238L623,236L626,234L628,232L630,230L632,228L634,226L636,224L639,222L642,220L645,219L648,217L652,215L656,213L660,212L665,210L668,209L671,208L674,207L676,207L678,206L679,206L680,206" stroke-opacity="1" stroke-width="5" stroke-linecap="round" stroke-linejoin="round" style="-webkit-tap-highlight-color: rgba(0, 0, 0, 0); stroke-opacity: 1; stroke-linecap: round; stroke-linejoin: round; -webkit-user-select: text;"></path><path fill="none" stroke="#000000" d="M651,246L654,241L656,241L658,240L661,238L664,237L667,236L670,236L675,235L679,234L684,234L689,233L694,233L700,233L705,233L710,233L714,234L718,236L722,237L725,240L730,243L733,246L737,251L741,254L744,257L748,261L751,264L754,267L756,270L758,272L760,274L761,275L762,276L763,277L763,275L763,274L763,272L763,270L763,266L763,258L763,252L763,245L763,237L763,230L762,224L762,217L762,211L762,204L761,199L761,195L761,190L761,187L761,185L761,183L761,182L760,182L759,182L758,183L757,184L755,186L754,188L752,190L749,193L745,198L740,204L732,211L725,218L718,226L710,234L703,241L697,247L694,251L691,254L689,256L688,258L689,258L691,259L693,260L695,261L698,264L701,267L706,272L711,278L716,283L720,289L725,294L729,299L733,305L736,309L739,312L742,316L744,319L746,321L747,322L748,322L749,322L750,322L750,321L750,319L752,317L754,314L757,309L762,302L768,294L774,285L780,275L786,265L793,257L798,249L801,243L804,238L806,235L808,232L808,231L809,230L809,229L808,229L807,229L805,229L803,229L802,229L800,229L798,229L797,229L795,229L793,229L790,229L786,229L782,229L778,229L774,229L767,230L758,231L750,232L741,234L732,235L723,236L716,238L708,239L702,241L696,241L692,243L687,243L683,244L679,245L676,246L674,246L672,247L671,247L670,247L669,247L669,248" stroke-opacity="1" stroke-width="5" stroke-linecap="round" stroke-linejoin="round" style="-webkit-tap-highlight-color: rgba(0, 0, 0, 0); stroke-opacity: 1; stroke-linecap: round; stroke-linejoin: round; -webkit-user-select: text;"></path><path fill="none" stroke="#000000" d="M674,263L673,265L674,266L675,268L678,272L681,276L685,282L690,287L695,293L701,301L707,309L713,316L719,323L724,330L729,336L733,340L737,345L740,349L742,352L745,355L746,357L747,358L748,359L748,360L749,360L750,360L752,360L753,359L756,357L759,355L764,353L769,350L774,348L781,344L788,341L794,338L800,334L804,331L808,329L811,327L813,326L815,326L816,326L816,327L816,328L816,329L816,331L817,333L818,336L820,339L822,344L825,350L827,357L830,362L832,367L835,371L837,375L838,378L839,380L839,382L839,383L839,384L838,386L836,387L833,388L829,390L823,393L815,398L807,404L799,410L790,416L781,421L774,426L768,430L763,433L759,435L756,436L753,437L752,437L750,437L749,437L748,435L747,433L747,431L746,428L745,426L744,423L742,418L738,412L735,406L732,401L728,396L726,394L723,390L721,388L720,386L718,384L716,382L716,381L715,379L714,378L713,377L713,376L713,375L714,373L715,372L718,370L724,364L731,358L739,350L748,342L757,335L766,328L772,323L779,318L784,315L787,312L790,311L791,309L791,311L791,312L791,314L791,315L791,317L791,320L791,326L791,333L792,342L794,355L796,363L798,373L800,383L802,391L803,397L804,404L806,408L806,412L807,415L807,416L807,417L807,418L806,418L804,418L803,417L801,416L800,415L798,414L796,413L793,411L788,410L782,408L777,406L772,404L767,401L761,400L756,398L751,396L747,395L743,394L737,392L733,391L728,390L725,389L722,388L720,388L718,387L717,387L716,387" stroke-opacity="1" stroke-width="5" stroke-linecap="round" stroke-linejoin="round" style="-webkit-tap-highlight-color: rgba(0, 0, 0, 0); stroke-opacity: 1; stroke-linecap: round; stroke-linejoin: round; -webkit-user-select: text;"></path><path fill="none" stroke="#000000" d="M714,444L718,448L722,452L726,458L731,464L737,470L741,475L745,479L748,484L751,488L754,491L756,493L757,494L758,495L759,495L759,496L760,496L761,496L762,496L762,497L763,497L764,497L765,497L766,496L767,496L769,494L771,493L774,489L781,484L788,479L796,473L805,467L813,462L818,458L823,455L826,452L829,451L830,450L831,450L832,450L832,452L832,453L832,455L832,457L832,460L832,464L832,469L833,474L835,482L836,488L837,493L837,499L838,504L839,509L840,513L840,516L840,518L840,520L840,521L840,522L838,522L835,522L833,522L830,522L827,522L823,522L812,524L804,525L794,525L784,527L777,527L771,527L766,527L761,527L757,527L754,527L752,527L751,527L750,527L750,528L750,530L750,531L750,532L751,533L752,534L754,535L755,538L757,542L759,547L762,551L764,556L766,562L767,565L769,569L771,571L772,574L773,576L774,577L774,578L775,578L775,579L776,579L777,579L778,579L779,579L780,579L782,577L785,576L791,573L801,569L812,564L823,558L837,552L846,547L854,543L861,540L866,538L870,536L873,535L875,535L876,534L877,533L877,532L877,531L877,530L877,528L875,526L872,521L867,516L863,510L856,502L851,496L845,489L840,483L835,477L830,472L825,467L821,461L818,457L814,453L811,451L808,448L805,446L803,445L801,445L799,444L798,444L796,444L795,446L792,448L788,451L782,455L776,459L769,463L762,467L757,470L751,473L747,476L744,479L741,481L738,483L737,485L735,486L734,488L733,489L732,490L731,491L730,491L730,492L729,493L729,494L728,494L727,494L727,495L727,496L727,497L727,498L727,499L727,500L727,501L727,502L727,503L727,504L727,505L727,507L727,508L727,511L727,513L728,516L728,519L728,523L729,526L730,530L731,533L733,537L733,541L735,544L735,547L737,549L738,551L740,554L741,556L742,558L744,561L745,563L747,565L748,567L750,569L752,571L753,572L755,574L757,575L758,576L760,577L762,579L763,579L764,580L766,581L767,582L769,583L770,584L771,584L772,585L773,586L775,586L776,586L777,587L779,588L781,588L782,589L784,590L785,590L786,591L788,591L789,591L790,591L791,592L792,592L793,592L794,592L795,592L796,592L797,593L798,593L799,593L800,593L801,593L802,593L803,593L805,593L806,593L807,593L808,593L809,593L810,593L811,594L813,594L814,594L815,595L817,595L818,595L819,596L820,596L822,596L823,596L824,597L825,597L827,598L828,598L830,598L832,599L834,600L836,601L837,601L840,601L841,602L843,603L844,603L845,604L847,605L848,605L849,606L850,607L851,608L852,608L853,609L854,610L855,610L857,611L858,613L859,613L861,615L862,616L864,618L866,620L874,630L886,642" stroke-opacity="1" stroke-width="5" stroke-linecap="round" stroke-linejoin="round" style="-webkit-tap-highlight-color: rgba(0, 0, 0, 0); stroke-opacity: 1; stroke-linecap: round; stroke-linejoin: round; -webkit-user-select: text;"></path></svg>