<svg height="650" version="1.1" width="1024" xmlns="http://www.w3.org/2000/svg" xmlns:xlink="http://www.w3.org/1999/xlink" style="overflow: hidden; position: relative; -webkit-user-select: text;"><desc style="-webkit-tap-highlight-color: rgba(0, 0, 0, 0); -webkit-user-select: text;">Created with Raphaël 2.2.0</desc><defs style="-webkit-tap-highlight-color: rgba(0, 0, 0, 0); -webkit-user-select: text;"></defs><path fill="none" stroke="#000000" d="M331,207L338,204L342,202L348,200L354,197L361,193L370,189L378,185L386,182L394,178L402,175L408,173L413,170L416,169L419,168L420,168L421,168L421,169L421,170L421,172L421,175L420,180L420,185L420,192L420,200L420,207L420,215L420,224L420,231L420,238L420,245L420,250L420,253L420,256L420,257L420,258L419,258L418,257L417,255L414,252L412,248L408,243L404,238L401,232L397,226L393,219L389,213L385,207L381,201L378,196L375,190L373,186L371,183L369,179L368,177L367,175L367,174L368,174L372,174L378,174L386,176L395,178L407,180L418,183L429,185L440,188L451,192L458,195L467,198L473,200L477,202L480,203L481,204L482,205L482,206L482,207L480,208L478,210L474,213L469,217L464,221L457,226L449,233L441,239L434,246L426,253L419,260L414,267L409,273L404,278L401,283L398,286L396,289L394,291L393,292L392,292L391,292L391,291L390,290L390,289L390,287L389,284L389,280L388,276L388,271L387,266L387,261L387,256L386,251L385,245L384,241L383,236L382,231L381,226L379,223L377,219L375,215L373,212L370,209L368,207L366,204L363,202L361,200L358,197L356,195L353,191L350,189L348,186L346,183L344,179L341,175L339,171L337,168L335,164L333,161L332,158L330,154L329,151L327,149L327,146L327,145L327,144" stroke-opacity="1" stroke-width="5" stroke-linecap="round" stroke-linejoin="round" style="-webkit-tap-highlight-color: rgba(0, 0, 0, 0); stroke-opacity: 1; stroke-linecap: round; stroke-linejoin: round; -webkit-user-select: text;"></path><path fill="none" stroke="#000000" d="M354,114L356,110L357,108L360,105L363,102L366,100L370,97L374,95L378,93L383,92L387,91L391,90L396,90L400,90L404,90L409,90L413,90L417,91L421,93L425,94L429,96L434,98L439,100L443,102L449,103L454,104L460,105L465,105L471,105L477,105L482,105L487,105L492,105L495,105L497,105L498,105L499,105L499,104L499,102L499,99L498,94L497,88L497,81L496,74L495,68L494,63L493,59L492,55L492,54L491,53L491,52L490,52L489,52L487,54L484,58L479,63L474,68L468,74L460,81L453,88L446,94L439,100L434,105L430,109L426,111L425,113L424,114L424,115L424,116L424,117L424,118L425,119L428,122L431,127L436,131L441,137L447,145L453,152L459,159L465,167L470,174L475,180L479,184L482,187L485,190L487,192L488,192L489,192L490,192L490,191L492,188L495,183L499,176L505,168L510,161L517,151L525,139L533,129L538,120L544,112L548,107L551,102L554,99L555,97L555,96L555,95L553,95L548,96L541,98L532,101L521,105L511,108L503,111L495,114L488,116L482,117L478,119L474,119L472,120L470,121L470,122L470,123L470,124L470,125L473,128L475,131L479,135L483,141L489,146L495,153L502,160L509,167L517,174L525,181L532,187L538,193L543,198L546,201L548,203L550,204L550,205L550,207" stroke-opacity="1" stroke-width="5" stroke-linecap="round" stroke-linejoin="round" style="-webkit-tap-highlight-color: rgba(0, 0, 0, 0); stroke-opacity: 1; stroke-linecap: round; stroke-linejoin: round; -webkit-user-select: text;"></path><path fill="none" stroke="#000000" d="M556,161L557,164L559,167L563,172L568,177L574,183L582,190L587,196L594,202L599,207L604,213L607,218L610,221L612,225L613,228L613,229L614,231L614,232L613,234L610,235L606,238L603,242L597,247L593,253L588,258L583,265L577,271L572,277L567,282L564,286L561,289L558,292L557,294L556,294L555,294L554,294L553,294L552,293L550,291L548,288L545,285L542,280L538,275L535,268L531,261L528,255L524,250L522,246L520,242L519,240L519,238L519,237L522,237L527,237L532,238L539,240L547,242L555,246L562,248L572,252L580,255L588,258L596,261L603,263L609,265L613,267L616,268L619,269L620,269L621,269L621,268L622,265L623,261L624,256L626,248L628,240L630,229L632,221L633,214L634,207L635,200L636,194L637,188L638,184L638,180L638,177L638,175L638,174L638,173L637,173L635,173L633,173L630,175L627,177L623,180L618,182L614,185L609,188L604,192L598,197L593,201L587,205L582,209L576,213L570,217L565,221L560,224L555,227L549,230L544,233L538,235L533,237L528,239L522,242L518,245L513,248L509,251L505,255L502,259L498,263L495,267L493,271L491,275L489,279L487,283L486,287L485,292L483,296L482,300L482,304L481,308L481,311L481,315L481,319L480,321L480,324L480,326L480,328L480,330L480,331L480,332" stroke-opacity="1" stroke-width="5" stroke-linecap="round" stroke-linejoin="round" style="-webkit-tap-highlight-color: rgba(0, 0, 0, 0); stroke-opacity: 1; stroke-linecap: round; stroke-linejoin: round; -webkit-user-select: text;"></path><path fill="none" stroke="#000000" d="M525,311L521,313L519,316L518,319L516,324L515,328L514,333L514,337L513,342L513,347L513,352L513,356L513,361L513,366L514,372L515,377L517,382L518,388L520,393L521,399L523,405L524,412L525,418L526,425L526,431L526,437L526,441L526,445L526,447L526,448L526,449L526,448L526,447L528,445L531,440L535,434L540,428L545,421L550,414L556,408L561,401L566,396L570,392L573,388L575,385L577,383L578,382L579,381L579,380L577,380L574,380L568,380L561,380L553,382L544,384L534,387L526,389L517,393L508,396L499,400L492,404L485,407L480,409L475,411L472,412L470,413L469,413L468,413L467,413L466,413L465,411L464,409L463,406L461,402L460,399L458,394L456,390L454,387L453,383L452,381L451,378L451,376L451,375L451,374L451,373L451,372L453,372L458,370L465,368L475,365L485,362L496,360L507,358L519,355L531,353L542,350L550,348L557,347L562,345L566,344L569,344L570,343L571,343L571,344L571,346L572,348L573,353L575,358L577,363L580,370L582,376L584,383L587,390L589,397L592,402L593,407L595,411L596,414L596,416L597,417L597,418L597,419L596,420L595,421L592,423L588,425L584,428L577,431L572,435L565,438L559,442L553,445L547,449L541,453L535,457L531,460L526,462L522,465L519,467L516,469L514,469L514,470L513,470" stroke-opacity="1" stroke-width="5" stroke-linecap="round" stroke-linejoin="round" style="-webkit-tap-highlight-color: rgba(0, 0, 0, 0); stroke-opacity: 1; stroke-linecap: round; stroke-linejoin: round; -webkit-user-select: text;"></path><path fill="none" stroke="#000000" d="M462,479L457,478L453,476L450,473L444,468L438,463L433,458L427,452L422,447L418,443L414,439L410,435L407,432L404,429L402,426L400,425L399,424L397,424L395,424L394,424L392,425L388,428L384,431L379,436L374,441L368,447L363,452L358,457L353,463L349,467L345,469L342,472L339,474L338,475L337,476L337,477L338,479L340,481L343,484L347,489L351,494L355,500L359,505L363,511L367,514L369,517L372,519L373,520L375,521L376,521L378,519L381,514L384,509L388,503L392,497L397,489L401,482L404,474L409,464L413,456L417,447L420,440L424,432L428,427L430,423L432,420L434,418L434,417L435,416L433,416L431,416L428,414L424,412L419,409L414,404L408,399L403,393L397,387L391,382L386,377L381,372L377,368L373,365L370,362L367,360L365,358L363,358L362,357L361,357L360,357L360,359L359,362L358,365L356,370L355,376L354,381L353,387L353,392L353,399L353,404L353,410L353,416L355,421L357,425L359,430L362,434L364,438L367,441L370,445L373,448L377,452L381,456L385,461L389,465L393,469L396,473L399,477L402,481L404,484L407,488L408,491L410,495L411,498L412,501L413,504L413,508L414,512L414,516L414,520L414,525L414,529L413,533L412,537L410,541L409,545L407,548L406,550L405,552L404,553L404,554" stroke-opacity="1" stroke-width="5" stroke-linecap="round" stroke-linejoin="round" style="-webkit-tap-highlight-color: rgba(0, 0, 0, 0); stroke-opacity: 1; stroke-linecap: round; stroke-linejoin: round; -webkit-user-select: text;"></path><path fill="none" stroke="#000000" d="M377,548L373,553L371,555L369,557L366,560L363,563L360,566L356,569L351,571L347,574L343,575L338,577L334,578L328,578L323,578L318,578L313,578L308,577L302,576L298,574L293,572L286,568L282,566L277,562L272,559L268,557L264,554L261,552L257,550L254,548L251,546L248,545L244,543L242,542L239,542L236,541L234,540L231,540L229,540L227,539L225,539L223,539L222,539L222,538L221,538L221,540L222,544L225,548L227,554L230,560L233,566L235,571L237,574L239,579L242,582L243,585L245,587L246,588L247,590L248,590L249,591L250,591L251,591L251,589L253,586L257,581L261,576L267,568L272,560L277,552L282,545L288,537L292,530L296,524L299,520L301,517L303,514L303,513L304,512L304,511L303,511L301,511L298,509L295,507L290,504L284,500L278,495L272,489L265,484L259,479L255,475L250,471L247,469L244,467L242,466L240,465L239,465L239,466L239,469L239,474L239,482L240,490L242,500L244,510L245,520L246,530L247,540L248,550L249,559L250,565L251,570L252,575L253,578L254,580L255,581L256,582L257,582L259,583L262,584L266,584L271,586L276,587L282,589L287,591L293,593L298,595L302,596L304,598L306,598L307,598L308,598L308,596L308,591L308,584L308,576L307,566L306,556L305,546L303,534L302,525L300,513L298,502L297,492L295,479L294,467L293,455L292,446L291,436L290,427L290,421L289,416L288,412L288,409L288,408L287,407L287,404" stroke-opacity="1" stroke-width="5" stroke-linecap="round" stroke-linejoin="round" style="-webkit-tap-highlight-color: rgba(0, 0, 0, 0); stroke-opacity: 1; stroke-linecap: round; stroke-linejoin: round; -webkit-user-select: text;"></path><path fill="none" stroke="#000000" d="M273,360L268,360L265,360L260,360L254,360L247,360L239,359L230,358L220,358L211,357L201,357L192,357L185,357L177,356L172,356L166,355L162,355L159,355L157,354L156,354L155,353L155,352L155,351L155,350L155,348L155,346L155,343L155,336L157,326L160,319L163,309L167,301L170,294L171,289L173,285L174,281L174,279L175,278L175,277L176,277L176,278L178,280L180,282L184,286L190,292L195,297L202,304L208,310L214,315L220,321L224,326L228,331L230,334L232,338L234,340L234,342L234,344L234,347L232,351L228,356L222,364L216,371L210,378L203,386L197,394L190,403L183,412L177,420L173,426L169,430L167,433L165,434L164,434L163,434L162,434L161,433L159,428L156,422L153,416L149,409L144,402L139,394L133,386L127,378L123,372L118,366L113,361L110,357L107,355L105,352L104,351L103,350L103,349L103,348L105,347L109,345L115,343L123,340L134,335L144,331L156,326L170,320L183,315L197,311L211,306L222,302L233,298L240,295L246,293L250,291L253,289L254,288L255,287L256,285L256,283L256,281L256,277L256,272L256,267L257,262L257,257L257,252L257,248L257,245L255,243L253,241L251,239L247,238L244,236L240,234L236,232L232,229L227,227L222,224L218,221L213,218L209,214L205,212L201,208L197,205L193,202L190,198L186,194L183,190L180,186L176,182L174,178L171,174L169,170L166,167L164,163L163,161L162,160L161,160L161,159" stroke-opacity="1" stroke-width="5" stroke-linecap="round" stroke-linejoin="round" style="-webkit-tap-highlight-color: rgba(0, 0, 0, 0); stroke-opacity: 1; stroke-linecap: round; stroke-linejoin: round; -webkit-user-select: text;"></path><path fill="none" stroke="#000000" d="M209,185L205,180L203,178L201,176L198,173L195,168L192,164L190,159L188,155L186,149L185,145L184,139L184,134L184,128L184,122L184,117L184,111L185,105L187,100L189,94L192,88L194,83L196,79L198,76L199,73L200,72L201,71L202,71L203,71L205,71L208,72L213,73L219,75L225,76L233,76L241,77L248,78L255,79L261,80L266,80L269,81L271,82L273,83L273,85L273,88L273,90L273,93L273,97L272,103L271,110L269,117L267,126L266,134L264,143L262,152L261,158L259,165L258,170L257,173L256,176L256,177L255,176L254,174L252,170L249,165L246,159L242,153L237,144L232,136L226,127L220,117L215,109L210,100L206,94L202,88L199,83L197,79L194,76L193,74L191,73L188,72L185,72L181,72L175,74L169,78L161,83L154,87L149,91L144,95L141,97L138,99L137,100L138,101L140,102L142,104L144,107L148,110L152,114L157,119L161,124L166,128L172,132L177,136L181,139L186,142L190,144L193,144L195,144L198,144L200,144L202,144L204,142L208,138L213,134L220,127L227,120L234,112L244,102L254,92L264,83L274,73L282,66L290,60L296,56L300,53L302,51L303,50L304,49L303,49L302,49L300,48L298,46L296,44L292,41L288,37L283,32L277,27L271,22L265,17L259,11L253,6L249,3L246,0L243,-3L241,-4L240,-5" stroke-opacity="1" stroke-width="5" stroke-linecap="round" stroke-linejoin="round" style="-webkit-tap-highlight-color: rgba(0, 0, 0, 0); stroke-opacity: 1; stroke-linecap: round; stroke-linejoin: round; -webkit-user-select: text;"></path></svg>