<svg height="650" version="1.1" width="1024" xmlns="http://www.w3.org/2000/svg" xmlns:xlink="http://www.w3.org/1999/xlink" style="overflow: hidden; position: relative; -webkit-user-select: text;"><desc style="-webkit-tap-highlight-color: rgba(0, 0, 0, 0); -webkit-user-select: text;">Created with Raphaël 2.2.0</desc><defs style="-webkit-tap-highlight-color: rgba(0, 0, 0, 0); -webkit-user-select: text;"></defs><path fill="none" stroke="#000000" d="M108,104L114,102L116,102L119,102L122,101L127,98L133,96L140,93L146,90L151,87L157,84L161,82L165,80L169,79L171,78L172,77L173,77L174,78L174,80L174,82L175,86L176,91L176,97L178,102L179,108L180,114L181,120L182,126L183,131L184,136L185,140L186,144L186,146L186,148L186,149L186,150L186,151L184,151L182,152L178,153L173,155L166,158L160,161L156,164L153,166L149,167L147,168L146,168L145,168L144,168L143,168L142,166L141,162L140,157L138,151L136,144L135,138L133,131L132,122L131,115L130,109L129,104L128,99L128,95L128,93L127,91L127,90L127,89L127,88L129,88L132,88L137,88L143,88L152,90L160,92L169,94L178,97L186,99L194,101L199,103L203,105L207,106L210,107L211,107L212,108L212,109L212,110L212,111L212,113L212,116L212,119L212,124L211,131L210,139L208,147L207,153L205,161L204,169L203,175L202,180L201,186L200,190L200,195L199,197L198,199L198,200L197,201L196,201L195,201L194,201L193,201L192,200L191,199L189,197L188,195L186,192L185,190L183,187L182,185L181,183L179,180L178,178L176,175L175,173L174,170L171,168L170,166L168,164L166,162L164,161L161,159L159,158L157,156L154,155L152,154L150,153L147,152L145,151L144,150L142,149L140,149L137,148L135,148L133,147L130,147L128,146L126,146L125,146L122,146L121,145L118,145L116,145L114,145L112,144L110,144L108,144L106,143L104,142L102,142L100,141L98,141L96,139L95,138L93,136L91,135L89,134L88,133L86,132L85,131L84,131L83,130L82,129L81,128L80,127" stroke-opacity="1" stroke-width="5" stroke-linecap="round" stroke-linejoin="round" style="-webkit-tap-highlight-color: rgba(0, 0, 0, 0); stroke-opacity: 1; stroke-linecap: round; stroke-linejoin: round; -webkit-user-select: text;"></path><path fill="none" stroke="#000000" d="M111,210L115,209L118,209L120,209L122,209L124,211L125,212L127,214L129,216L131,219L132,221L134,224L135,227L137,229L138,232L139,235L140,238L141,241L142,243L142,246L143,249L144,252L144,255L145,258L146,261L147,265L148,268L149,270L151,273L153,276L155,279L157,282L160,285L162,287L165,290L167,293L169,294L170,295L170,296L170,297L171,297L171,295L173,292L176,288L178,282L182,276L186,270L189,264L193,257L197,250L200,245L202,241L204,238L205,236L206,235L205,235L203,235L199,236L193,239L187,244L178,249L169,254L161,260L152,265L144,271L136,277L130,282L125,286L120,289L116,293L114,296L111,298L110,299L108,299L107,299L106,299L105,298L103,296L101,292L98,287L96,282L93,277L90,272L88,268L87,265L86,263L85,262L85,261L85,260L86,260L91,258L97,256L106,253L116,249L127,245L138,241L149,236L159,231L165,228L170,226L172,224L174,224L174,223L174,224L175,226L178,229L181,235L186,243L191,252L196,261L201,270L205,277L208,283L210,288L213,292L215,296L216,299L216,300L217,301L217,302L217,303L217,304L216,305L214,307L211,309L206,313L201,317L195,322L189,327L183,332L178,336L174,340L169,344L166,346L163,348L161,350L159,351L158,351L157,351" stroke-opacity="1" stroke-width="5" stroke-linecap="round" stroke-linejoin="round" style="-webkit-tap-highlight-color: rgba(0, 0, 0, 0); stroke-opacity: 1; stroke-linecap: round; stroke-linejoin: round; -webkit-user-select: text;"></path><path fill="none" stroke="#000000" d="M212,364L215,367L218,370L223,375L228,379L234,385L239,390L243,394L247,397L249,400L250,402L251,404L252,405L252,406L251,407L249,409L245,411L241,415L235,419L229,424L222,430L216,435L210,440L206,443L202,446L198,449L196,451L194,452L193,452L192,452L191,452L189,452L188,450L185,447L181,443L178,439L174,435L171,432L167,429L164,427L162,425L160,424L159,423L158,423L158,422L158,421L158,420L159,419L165,416L174,411L187,403L202,394L216,386L228,379L238,374L247,370L254,367L258,365L260,364L261,364L261,365L261,367L262,370L265,375L267,381L270,388L272,395L274,401L276,407L277,412L278,417L279,421L280,424L281,428L282,430L282,433L282,435L282,437L282,438L282,440L282,441L281,441L280,441L279,442L278,443L275,445L270,449L264,454L258,459L251,465L245,470L240,475L236,479L234,482L231,484L230,486L229,486L228,486L227,486L227,485L227,484L227,483L227,481L227,479L227,477L227,474L227,471L227,469L227,466L227,463L227,460L227,458L226,455L225,452L223,450L222,447L219,443L215,438L211,433L206,426L202,422L198,418L195,416L192,415L190,414L188,413L186,413L183,413L179,412L175,411L171,411L166,410L161,409L157,408L152,407L148,406L144,404L139,403L135,401L131,401L127,399L124,399L121,397L118,396L115,394L112,392L109,390L107,389L105,387L103,386L102,385L101,384L101,383L100,383L100,382L101,382" stroke-opacity="1" stroke-width="5" stroke-linecap="round" stroke-linejoin="round" style="-webkit-tap-highlight-color: rgba(0, 0, 0, 0); stroke-opacity: 1; stroke-linecap: round; stroke-linejoin: round; -webkit-user-select: text;"></path><path fill="none" stroke="#000000" d="M276,292L278,289L280,289L285,287L294,283L303,278L313,273L323,268L330,263L336,259L340,256L342,254L343,253L344,253L344,254L344,257L344,262L345,269L346,278L347,287L348,297L349,307L349,317L350,324L350,330L351,336L351,340L351,343L351,344L351,345L351,344L350,343L348,340L344,336L340,330L336,323L331,314L327,305L324,296L321,288L318,279L316,270L314,264L312,258L311,253L310,251L309,249L309,248L308,248L307,248L306,248L304,251L299,254L294,258L288,262L281,266L274,270L268,274L262,276L259,278L256,280L255,281L255,282L255,283L255,284L255,286L256,289L259,293L263,299L268,308L274,316L280,324L285,333L289,339L293,345L295,350L297,353L298,355L299,355L300,354L304,350L310,344L320,335L329,326L340,316L351,307L360,300L368,293L373,289L376,287L378,285L380,283L380,282L381,282L381,281" stroke-opacity="1" stroke-width="5" stroke-linecap="round" stroke-linejoin="round" style="-webkit-tap-highlight-color: rgba(0, 0, 0, 0); stroke-opacity: 1; stroke-linecap: round; stroke-linejoin: round; -webkit-user-select: text;"></path><path fill="none" stroke="#000000" d="M370,301L373,297L374,295L375,293L378,291L381,288L385,285L388,284L390,282L393,281L396,280L398,279L400,277L402,276L403,274L404,272L404,270L405,267L406,264L407,261L407,258L407,256L407,254L407,252L407,249L407,247L406,245L404,243L401,241L399,239L396,237L393,236L390,234L387,233L383,231L379,230L375,229L371,227L366,226L362,224L357,221L353,219L349,217L344,214L340,212L336,209L333,206L330,202L328,198L326,194L324,190L323,187L322,185L322,184L323,184" stroke-opacity="1" stroke-width="5" stroke-linecap="round" stroke-linejoin="round" style="-webkit-tap-highlight-color: rgba(0, 0, 0, 0); stroke-opacity: 1; stroke-linecap: round; stroke-linejoin: round; -webkit-user-select: text;"></path><path fill="none" stroke="#000000" d="M319,82L321,78L323,78L327,78L332,78L339,77L347,76L356,74L363,72L371,70L377,68L381,67L385,67L387,66L388,66L388,67L388,69L388,71L388,76L388,82L388,90L387,100L385,110L383,119L381,129L379,137L377,144L375,150L373,154L372,157L371,158L371,159L370,159L368,159L367,157L365,153L363,147L361,139L358,129L355,119L351,108L348,98L344,88L342,81L341,74L339,68L338,65L337,61L336,60L336,59L337,59L339,59L343,59L349,59L356,59L365,59L374,59L384,59L393,60L400,61L407,62L412,63L416,64L419,65L420,66L421,67L421,68L421,69L421,70L421,71L421,73L422,76L422,79L422,83L422,90L422,97L422,105L423,114L423,121L423,127L423,134L423,139L423,142L423,144L423,145L422,145L421,145L419,145L417,145L414,145L411,145L408,145L404,144L400,143L396,141L392,140L389,139L385,137L382,136L378,134L375,133L371,131L368,130L363,128L359,127L355,126L351,125L348,125L344,124L341,124L338,124L335,124L332,124L329,124L327,124L324,124L322,124L319,125L317,126L315,127L312,128L310,129L307,131L305,132L302,134L300,136L297,137L295,139L293,140L291,142L289,144L287,145L285,146L283,148L281,149L280,151L278,152L277,153L276,154L275,154L275,155L274,155" stroke-opacity="1" stroke-width="5" stroke-linecap="round" stroke-linejoin="round" style="-webkit-tap-highlight-color: rgba(0, 0, 0, 0); stroke-opacity: 1; stroke-linecap: round; stroke-linejoin: round; -webkit-user-select: text;"></path><path fill="none" stroke="#000000" d="M453,118L456,115L459,114L463,113L468,111L475,107L482,104L490,100L497,96L502,93L508,90L512,88L516,85L518,84L520,84L521,83L521,85L521,87L521,91L521,96L522,102L522,111L523,119L524,128L525,136L525,143L526,150L526,156L526,161L527,165L527,168L527,170L527,171L527,172L526,171L524,170L522,167L520,164L518,161L514,157L511,153L508,148L504,141L500,135L496,127L492,120L488,113L485,109L482,104L480,100L478,97L476,94L475,91L473,89L472,87L471,85L471,84L471,83L473,83L478,82L485,80L493,80L502,79L509,78L517,78L524,78L530,77L535,77L538,76L541,76L542,76L543,76L543,77L543,79L544,81L545,85L547,90L549,96L551,102L554,107L555,111L557,115L558,118L558,121L559,122L559,124L559,125L559,126L559,127L559,128L559,129L558,130L556,131L554,133L552,135L549,136L546,138L543,139L539,140L536,141L533,141L531,142L527,142L524,142L520,143L517,143L514,144L510,144L507,145L504,146L501,147L498,148L496,149L493,150L491,151L490,153L488,154L486,155L485,157L483,158L481,160L480,161L479,163L478,164L477,166L476,168L475,170L473,172L473,175L472,177L471,180L470,182L470,185L469,187L469,190L469,193L469,196L469,198L469,201L469,203L469,205L469,207L469,210L469,212L469,214L469,217L470,220L470,223L472,225L473,228L473,230L474,232L475,233L475,234L476,235L476,236L477,236" stroke-opacity="1" stroke-width="5" stroke-linecap="round" stroke-linejoin="round" style="-webkit-tap-highlight-color: rgba(0, 0, 0, 0); stroke-opacity: 1; stroke-linecap: round; stroke-linejoin: round; -webkit-user-select: text;"></path><path fill="none" stroke="#000000" d="M481,271L482,274L482,277L483,280L485,283L486,287L488,291L490,295L491,298L492,302L494,304L495,306L497,308L498,310L499,311L502,313L503,314L505,316L507,318L508,319L509,321L510,323L511,324L512,326L513,327L514,329L515,332L516,334L517,336L518,338L518,341L519,343L519,345L520,348L520,350L520,352L520,353L520,355L520,357L520,360L520,362L520,364L520,366L520,369L520,371L519,374L518,376L516,378L515,381L514,383L513,385L511,387L510,389L509,390L507,392L506,392L505,393L505,394L504,394L503,394L502,394L501,394L499,393L498,392L497,391L494,389L492,387L490,384L488,382L486,379L484,376L482,373L480,371L478,368L477,365L475,362L473,360L471,358L470,357L469,356L468,356L466,356L465,356L461,357L457,360L452,362L445,365L438,368L431,372L423,375L417,378L412,381L408,383L406,384L404,385L404,386L405,387L407,390L411,395L416,401L420,407L425,413L428,418L431,422L433,425L435,428L436,430L437,431L437,432L438,433L439,431L443,426L447,421L453,413L459,405L465,397L471,390L476,384L480,378L485,373L488,369L491,366L493,363L494,362L495,360L495,359L493,358L490,356L485,353L480,350L473,347L468,344L463,341L457,338L453,335L450,333L447,331L445,329L443,328L442,327L441,326L440,326L439,326L439,329L442,335L446,344L450,353L454,363L458,373L461,381L464,389L467,397L469,405L471,410L472,415L473,419L475,423L476,427L477,430L477,432L478,434L479,435L479,436L479,432" stroke-opacity="1" stroke-width="5" stroke-linecap="round" stroke-linejoin="round" style="-webkit-tap-highlight-color: rgba(0, 0, 0, 0); stroke-opacity: 1; stroke-linecap: round; stroke-linejoin: round; -webkit-user-select: text;"></path><path fill="none" stroke="#000000" d="M554,254L552,251L555,248L561,244L569,238L577,234L586,229L592,224L597,221L602,218L605,216L608,214L609,214L609,213L610,213L610,214L611,216L613,219L617,225L621,231L624,238L628,245L630,250L631,254L633,259L634,263L635,267L635,270L636,272L636,275L636,276L636,277L635,278L633,278L629,280L623,283L615,288L607,294L599,300L590,306L582,312L577,316L573,320L570,322L569,323L568,323L568,321L568,319L568,316L568,308L570,297L572,286L575,274L576,265L578,255L579,245L581,236L583,227L584,220L585,216L585,212L586,210L586,209L585,209L584,209L581,209L576,209L567,211L559,212L550,214L543,215L536,217L533,217L529,217L528,218L527,218L527,219L527,220L527,221L528,223L532,227L537,235L544,243L551,252L561,263L570,274L577,282L584,289L589,294L594,300L599,305L603,310L606,314L609,318L611,321L613,324L614,325L614,326L615,326L615,325L614,324L613,321L613,319L611,316L611,313L610,309L609,304L607,299L606,295L606,291L606,287L606,285L606,282L606,280L606,277L607,274L610,270L613,266L616,262L621,257L624,253L628,248L631,243L634,240L637,236L639,233L642,229L643,226L645,222L646,219L648,215L648,212L649,209L649,205L649,201L649,197L649,192L649,188L648,185L647,183L646,181L646,180L646,179" stroke-opacity="1" stroke-width="5" stroke-linecap="round" stroke-linejoin="round" style="-webkit-tap-highlight-color: rgba(0, 0, 0, 0); stroke-opacity: 1; stroke-linecap: round; stroke-linejoin: round; -webkit-user-select: text;"></path><path fill="none" stroke="#000000" d="M633,151L630,150L628,150L626,148L623,147L620,146L617,145L614,143L611,141L609,139L607,136L605,134L603,132L602,129L600,126L599,122L599,119L598,116L597,112L597,109L597,105L597,101L597,97L597,91L599,86L601,80L602,75L604,69L605,65L606,61L606,59L606,57L607,57L608,57L609,57L612,57L616,57L624,58L631,60L638,61L645,61L652,62L657,62L662,62L666,62L669,62L671,62L672,63L672,64L672,66L672,68L672,70L670,74L666,79L660,86L654,93L648,101L640,110L632,122L624,132L616,144L610,152L606,159L601,166L599,169L597,170L596,171L596,169L595,166L594,163L592,158L591,149L589,139L587,129L585,120L583,112L581,107L579,102L578,97L577,93L577,90L576,88L576,87L576,86L576,85L581,85L588,87L600,89L613,93L629,97L641,100L653,102L662,104L670,105L676,107L680,108L683,110L684,111L685,112L685,113L685,114L685,113L685,109L686,100L687,88L689,80L690,72L690,66L691,61L691,58L691,56L692,55L692,54L690,54L687,54L680,54L669,55L656,58L643,62L631,65L620,68L611,70L605,71L601,71L597,71L594,71L594,72" stroke-opacity="1" stroke-width="5" stroke-linecap="round" stroke-linejoin="round" style="-webkit-tap-highlight-color: rgba(0, 0, 0, 0); stroke-opacity: 1; stroke-linecap: round; stroke-linejoin: round; -webkit-user-select: text;"></path><path fill="none" stroke="#000000" d="M678,178L680,177L684,176L689,175L697,173L705,170L715,168L725,165L735,162L742,160L748,158L753,156L757,154L759,153L760,153L760,154L760,157L760,162L760,168L760,176L760,186L760,197L759,209L759,220L758,230L758,238L758,245L758,250L758,254L758,256L757,257L756,257L755,257L753,257L750,257L746,256L741,256L736,255L731,255L725,255L720,255L715,255L710,255L706,255L703,255L700,255L698,255L696,255L695,255L695,254L695,252L695,250L695,247L695,243L695,239L695,235L696,230L696,224L697,216L699,207L701,195L703,184L706,173L708,164L709,156L711,150L712,146L712,143L713,141L713,140L713,139L711,139L710,139L706,139L701,139L696,140L690,141L684,143L677,145L671,147L667,148L663,149L661,150L660,151L660,152L660,153L660,154L660,156L663,159L667,165L673,173L680,182L686,191L692,201L698,209L701,216L705,222L708,227L710,231L712,233L713,234L714,234L715,234L716,234L717,233L720,230L726,226L732,221L739,215L745,211L752,205L759,201L765,197L770,194L775,192L779,190L783,189L787,189L791,188L794,188L798,188L801,190L804,192L808,195L810,197L813,200L815,203L817,206L819,209L820,212L821,216L822,219L823,223L823,227L823,231L823,235L823,238L823,242L822,246L820,249L818,252L816,255L814,258L812,260L809,263L806,265L803,268L801,270L798,272L794,275L791,277L787,279L784,281L780,283L776,286L772,288L769,290L765,292L762,295L759,297L756,299L753,302L751,304L750,306L748,309L747,311L747,313L746,315L746,317L745,319L745,320L743,320" stroke-opacity="1" stroke-width="5" stroke-linecap="round" stroke-linejoin="round" style="-webkit-tap-highlight-color: rgba(0, 0, 0, 0); stroke-opacity: 1; stroke-linecap: round; stroke-linejoin: round; -webkit-user-select: text;"></path><path fill="none" stroke="#000000" d="M669,333L669,330L673,330L679,330L684,330L690,329L696,328L701,328L706,328L709,328L711,328L712,328L713,328L713,329L713,331L713,334L713,338L713,344L713,350L711,356L710,362L709,368L707,374L706,379L704,383L703,388L701,392L700,395L699,397L699,398L698,399L697,399L696,399L695,399L693,398L689,397L686,395L680,394L675,392L670,391L666,390L660,389L656,389L652,387L648,387L645,386L643,385L642,384L641,384L641,383L641,382L641,381L643,379L648,376L656,372L665,367L674,361L683,356L689,353L694,350L697,348L701,346L703,345L705,344L706,343L707,343L708,342L708,341L708,340L706,338L704,334L702,329L700,323L699,318L697,314L696,310L694,307L694,305L693,304L691,303L691,302L689,302L688,302L686,302L684,302L681,302L677,302L671,304L664,306L658,308L654,309L650,310L648,311L648,312L648,313L648,314L648,316L648,318L648,321L648,324L648,328L648,332L648,336L648,339L648,343L648,345L648,348L648,350L649,353L650,355L652,358L654,360L657,362L659,365L662,367L664,370L666,372L669,375L671,377L673,379L674,381L676,382L677,384L678,386L679,388L680,390L681,392L682,394L683,396L684,399L684,401L685,404L686,407L686,410L686,413L687,416L687,419L687,421L687,423L687,426L687,428L687,430L687,432L686,434L685,437L683,439L682,442L680,445L678,447L676,450L674,453L672,455L670,457L668,459L667,460L666,461L665,461" stroke-opacity="1" stroke-width="5" stroke-linecap="round" stroke-linejoin="round" style="-webkit-tap-highlight-color: rgba(0, 0, 0, 0); stroke-opacity: 1; stroke-linecap: round; stroke-linejoin: round; -webkit-user-select: text;"></path><path fill="none" stroke="#000000" d="M601,471L601,473L597,473L590,472L580,469L569,466L559,464L548,464L540,463L532,463L527,463L523,463L521,463L520,463L520,462L522,460L526,455L532,448L541,437L551,425L562,411L572,401L578,394L582,390L584,389L585,388L586,388L586,389L586,392L586,395L586,402L587,411L587,421L588,432L588,443L588,452L588,462L587,470L587,477L586,484L586,490L585,495L584,499L584,502L584,503L583,504L582,504L580,504L578,504L574,504L567,502L559,499L550,497L542,495L536,494L528,494L521,494L514,494L507,494L503,494L499,494L495,495L493,496L491,496L492,496L492,494L495,488L500,478L507,466L514,454L521,445L526,436L531,428L534,421L537,417L538,414L540,413L541,413L541,415L542,416L542,420L544,424L546,432L548,441L549,451L550,461L551,470L551,479L552,487L553,494L554,501L555,506L555,511L555,514L556,516L556,518L556,519L556,520L555,521L553,522L551,523L549,523L547,525L544,526L542,527L539,529L537,530L535,532L533,534L531,536L530,538L528,540L527,543L526,545L526,547L525,549L524,551L524,554L524,556L524,558L524,561L524,563L524,566L524,569L524,572L524,574L524,577L524,579L524,582L525,584L526,586L526,588L527,591L527,593L528,594L528,596L528,598L529,599L529,601L529,602L529,603L529,604L529,605" stroke-opacity="1" stroke-width="5" stroke-linecap="round" stroke-linejoin="round" style="-webkit-tap-highlight-color: rgba(0, 0, 0, 0); stroke-opacity: 1; stroke-linecap: round; stroke-linejoin: round; -webkit-user-select: text;"></path><path fill="none" stroke="#000000" d="M489,581L487,583L485,583L482,583L480,581L476,580L473,579L470,577L465,574L462,571L458,569L455,565L453,562L451,559L449,556L448,552L447,548L446,544L446,540L445,535L444,532L444,527L443,523L443,516L442,510L441,506L440,501L439,497L438,494L437,491L435,489L433,486L431,484L430,481L429,480L428,479L428,481L427,482L425,486L421,491L417,498L411,506L407,513L402,519L398,525L395,530L393,533L392,535L391,537L391,538L391,539L391,541L395,543L401,547L407,549L412,552L419,556L423,559L427,562L430,564L433,567L434,568L435,568L435,565L438,559L441,553L447,542L454,530L460,520L465,509L470,500L473,494L475,490L476,488L477,486L474,486L468,486L461,484L453,481L444,477L436,474L428,472L422,470L415,468L409,466L403,464L397,462L392,460L388,458L385,456L383,455L382,455L382,457L383,463L383,470L383,478L383,489L384,500L385,513L385,525L387,537L388,546L389,555L390,562L390,567L390,571L391,574L391,576" stroke-opacity="1" stroke-width="5" stroke-linecap="round" stroke-linejoin="round" style="-webkit-tap-highlight-color: rgba(0, 0, 0, 0); stroke-opacity: 1; stroke-linecap: round; stroke-linejoin: round; -webkit-user-select: text;"></path><path fill="none" stroke="#000000" d="M378,579L373,579L369,579L365,579L358,579L351,579L344,579L337,579L330,579L324,579L319,579L313,579L309,579L306,579L304,579L303,579L302,579L302,578L302,576L302,573L302,564L302,551L302,537L303,528L305,518L306,511L307,505L308,502L309,500L310,500L311,500L312,500L314,502L317,508L321,514L326,525L330,537L334,549L338,561L341,571L343,579L345,588L347,593L348,598L349,601L349,603L349,604L346,605L344,605L339,606L333,608L325,609L317,611L309,613L302,615L295,616L290,616L284,617L280,617L276,617L273,617L271,617L269,617L268,616L267,615L266,613L266,610L265,607L263,603L261,596L260,589L259,583L259,576L258,570L257,564L256,558L256,554L255,549L254,545L252,542L250,539L248,537L246,535L244,533L243,532L243,531L243,530L243,531L243,533L243,535L242,537L239,542L235,547L231,554L226,560L221,567L218,570L216,573L214,576L212,577L212,579L212,580L213,581L217,583L223,586L230,590L236,593L243,596L251,599L261,603L268,606L276,609L280,612L283,614L285,615L286,615L287,615L287,614L287,613L287,610L287,607L287,604L287,599L287,593L287,587L287,582L286,577L286,572L285,568L285,564L285,560L285,556L285,551L285,546L285,541L285,537L285,533L285,528L286,524L288,520L290,516L292,511L294,507L297,503L299,499L302,495L305,491L307,486L310,482L312,477L315,474L316,470L318,466L319,462L320,457L322,454L322,450L322,447L322,444L322,442L322,440L322,438L322,437L322,436" stroke-opacity="1" stroke-width="5" stroke-linecap="round" stroke-linejoin="round" style="-webkit-tap-highlight-color: rgba(0, 0, 0, 0); stroke-opacity: 1; stroke-linecap: round; stroke-linejoin: round; -webkit-user-select: text;"></path></svg>