<svg height="650" version="1.1" width="1024" xmlns="http://www.w3.org/2000/svg" xmlns:xlink="http://www.w3.org/1999/xlink" style="overflow: hidden; position: relative; -webkit-user-select: text;"><desc style="-webkit-tap-highlight-color: rgba(0, 0, 0, 0); -webkit-user-select: text;">Created with Raphaël 2.2.0</desc><defs style="-webkit-tap-highlight-color: rgba(0, 0, 0, 0); -webkit-user-select: text;"></defs><path fill="none" stroke="#000000" d="M113,96L120,93L125,93L131,91L138,88L145,85L152,83L159,80L166,78L171,76L176,74L179,73L181,73L182,73L182,76L182,80L180,86L178,93L176,101L175,109L173,117L171,124L169,130L168,136L167,141L166,145L165,148L164,150L163,150L162,150L160,146L157,139L154,131L150,120L147,111L143,103L140,95L136,89L133,84L131,80L130,77L130,76L130,75L132,75L137,75L144,75L152,75L161,77L170,78L180,80L190,80L199,81L206,81L212,81L217,82L220,83L222,83L222,85L222,87L222,90L222,93L219,99L216,104L212,112L208,122L205,130L201,140L198,149L195,156L193,163L191,168L189,172L188,175L188,177L187,177L186,176L185,173L184,169L183,163L181,157L180,151L178,144L176,138L174,132L173,127L171,123L170,119L169,117L168,114L166,113L166,112L164,112L161,112L159,112L156,112L151,114L145,117L139,120L134,122L130,124L125,126L122,127L121,129L120,129L119,130L119,131L119,133L119,135L119,138L119,141L119,145L119,150L119,155L119,159L121,164L123,168L125,172L128,175L130,178L133,180L136,182L139,183L141,186L144,188L146,191L148,193L150,196L152,200L153,203L154,206L155,209L156,213L157,216L157,219L158,223L158,226L158,230L158,233L158,236L158,237L158,238L158,240" stroke-opacity="1" stroke-width="5" stroke-linecap="round" stroke-linejoin="round" style="-webkit-tap-highlight-color: rgba(0, 0, 0, 0); stroke-opacity: 1; stroke-linecap: round; stroke-linejoin: round; -webkit-user-select: text;"></path><path fill="none" stroke="#000000" d="M114,275L118,275L122,275L127,275L135,275L144,275L152,273L161,271L169,268L176,266L182,264L187,263L191,262L194,261L196,261L197,261L197,263L198,266L198,270L198,274L199,280L200,285L200,291L201,297L202,302L203,307L203,312L203,316L203,319L203,321L203,322L203,323L202,323L200,323L198,323L195,323L191,324L185,325L180,326L174,327L170,328L166,329L163,330L161,330L159,330L158,328L158,324L157,319L155,313L154,307L152,300L149,293L147,285L144,278L141,271L139,265L137,260L135,256L133,253L132,250L132,249L132,248L134,248L140,248L147,246L158,243L168,241L176,238L187,234L196,231L203,228L209,226L214,226L217,225L220,225L221,225L222,225L223,225L223,227L224,230L226,235L227,240L230,247L233,254L236,260L239,268L242,273L244,277L245,281L246,284L247,285L247,286L244,287L239,288L232,290L224,293L215,297L207,300L200,303L195,305L190,307L187,307L185,307L184,307L183,307L183,306L183,300L183,292L183,283L183,273L183,264L183,254L183,245L183,239L183,233L183,228L182,224L181,222L181,220L180,219L180,218L180,217L180,216L180,215L181,214L182,213L184,212L188,211L191,210L193,209L196,208L200,208L203,207L206,207L210,206L213,206L216,205L219,204L222,204L225,202L227,202L229,201L231,200L233,198L234,195L236,192L237,190L238,186L239,183L240,180L240,176L241,173L241,169L241,166L241,162L241,158L242,151L249,139" stroke-opacity="1" stroke-width="5" stroke-linecap="round" stroke-linejoin="round" style="-webkit-tap-highlight-color: rgba(0, 0, 0, 0); stroke-opacity: 1; stroke-linecap: round; stroke-linejoin: round; -webkit-user-select: text;"></path><path fill="none" stroke="#000000" d="M290,128L290,125L289,120L287,115L285,110L282,106L279,102L276,99L274,97L272,94L270,93L269,91L268,90L268,89L268,88L268,86L272,83L279,79L286,75L293,71L298,68L304,65L309,63L313,61L317,61L319,60L321,60L322,60L323,60L323,61L324,63L325,66L326,71L328,77L331,84L334,92L337,100L340,107L343,113L346,118L347,122L348,125L349,128L349,129L349,131L349,132L344,135L336,140L329,145L320,151L312,157L306,161L300,167L294,171L289,175L286,178L283,180L281,180L280,180L279,180L278,178L276,173L273,167L271,161L267,154L263,147L260,141L256,136L253,132L251,129L248,126L246,124L245,122L245,121L245,120L245,119L246,118L249,117L255,115L261,114L268,114L277,113L286,111L295,110L305,108L311,106L318,105L322,105L327,104L329,103L330,103L330,104L330,105L330,107L331,110L332,113L333,117L335,121L336,125L337,131L337,137L337,142L337,147L337,151L334,154L332,157L329,159L326,161L323,163L319,165L314,168L310,170L306,172L301,174L297,177L293,179L289,181L286,183L283,186L280,189L278,192L276,196L274,200L273,204L272,207L272,211L272,215L272,219L272,223L272,227L274,231L276,235L278,238L283,241" stroke-opacity="1" stroke-width="5" stroke-linecap="round" stroke-linejoin="round" style="-webkit-tap-highlight-color: rgba(0, 0, 0, 0); stroke-opacity: 1; stroke-linecap: round; stroke-linejoin: round; -webkit-user-select: text;"></path><path fill="none" stroke="#000000" d="M319,216L317,217L317,220L317,224L317,228L316,233L316,238L316,243L316,248L316,253L316,258L318,263L320,267L323,271L325,274L328,278L331,282L333,285L335,288L337,291L339,294L340,297L341,299L341,302L341,304L341,305L341,307L341,308L341,309L340,310L337,310L332,311L326,313L319,315L314,317L308,319L304,320L300,321L298,321L296,321L295,321L294,321L293,319L291,316L289,311L287,307L284,302L281,298L278,294L275,291L273,288L271,286L269,285L268,284L268,283L268,282L270,281L276,279L285,276L296,273L307,270L319,267L328,264L338,262L346,260L353,259L358,259L363,258L366,258L367,258L367,257L367,253L367,246L366,238L364,230L363,223L363,215L362,207L362,202L361,198L361,196L360,194L358,194L356,193L353,193L346,193L336,196L327,198L319,201L312,203L306,204L301,205L298,206L297,207L296,207L296,209L296,210L296,213L298,218L300,225L303,232L306,241L310,250L314,258L317,266L320,274L323,280L325,285L327,289L329,292L330,294L332,294L332,295L333,295L334,295L336,295L341,294L346,292L354,290L363,288L371,286L378,285L385,283L390,281L395,280L398,279L401,278L402,278L403,277L404,277L404,276L404,274" stroke-opacity="1" stroke-width="5" stroke-linecap="round" stroke-linejoin="round" style="-webkit-tap-highlight-color: rgba(0, 0, 0, 0); stroke-opacity: 1; stroke-linecap: round; stroke-linejoin: round; -webkit-user-select: text;"></path><path fill="none" stroke="#000000" d="M421,238L423,237L427,236L431,234L438,230L442,228L446,226L450,223L454,221L457,219L460,217L463,216L464,214L465,214L465,213L465,212L464,211L461,210L458,207L453,203L447,199L441,195L436,191L431,188L426,186L422,184L417,183L412,182L408,182L403,182L398,181L394,181L390,180L387,179L385,177L383,175L383,172L382,168L382,163L383,154L387,144L391,134L396,124L400,117L402,111L404,107L406,105L408,103L409,102L410,102L411,102L413,102L417,102L424,103L431,105L440,106L448,108L455,110L462,111L467,112L472,113L475,114L476,117L476,119L476,123L474,128L468,135L462,144L455,153L449,162L443,172L438,182L434,192L429,201L426,207L423,214L421,218L419,221L418,221L417,221L415,216L412,210L409,203L404,195L399,187L394,179L388,171L383,163L378,157L373,150L369,144L366,139L364,136L363,132L363,129L363,127L366,125L371,123L376,122L382,121L388,121L394,121L400,121L404,123L409,124L413,126L418,127L423,127L429,127L433,127L437,126L441,123L443,120L446,117L447,114L448,111L448,109L448,107L448,104L448,101L448,98L448,95L448,90L448,86L448,81L448,77L449,71L451,68L453,64L455,60L457,57L459,54L460,53L462,51L463,51L464,50L465,50L467,50" stroke-opacity="1" stroke-width="5" stroke-linecap="round" stroke-linejoin="round" style="-webkit-tap-highlight-color: rgba(0, 0, 0, 0); stroke-opacity: 1; stroke-linecap: round; stroke-linejoin: round; -webkit-user-select: text;"></path><path fill="none" stroke="#000000" d="M496,59L502,56L507,56L514,56L522,56L531,57L538,60L544,63L549,66L552,69L555,72L557,75L558,77L560,79L561,80L562,82L562,83L563,83L563,84L562,86L556,90L549,97L542,104L536,112L530,121L525,130L520,139L516,147L513,153L511,156L509,159L507,160L506,160L505,160L504,159L503,156L501,151L499,144L496,136L494,128L491,121L489,115L488,111L487,107L487,105L487,104L487,103L488,103L494,103L504,103L514,103L528,103L541,103L552,103L561,104L570,105L576,105L579,107L582,107L583,109L583,110L583,112L583,114L583,116L582,121L579,128L577,136L575,148L572,158L570,168L568,178L566,187L565,193L563,198L562,202L561,203L560,204L559,204L558,204L557,202L554,200L549,197L543,194L537,191L530,188L524,187L516,185L509,185L504,184L498,183L494,182L490,180L488,177L487,173L486,168L486,163L486,159L486,155L488,151L491,147L495,144L502,141L507,140L514,138L521,137L528,137L535,137L541,137L548,137L554,138L559,140L564,143L569,145L573,148L577,151L581,153L585,156L587,159L591,162L594,165L597,167L601,168L604,169L607,170L610,170L613,170L615,170L616,170L617,170L618,170L621,169" stroke-opacity="1" stroke-width="5" stroke-linecap="round" stroke-linejoin="round" style="-webkit-tap-highlight-color: rgba(0, 0, 0, 0); stroke-opacity: 1; stroke-linecap: round; stroke-linejoin: round; -webkit-user-select: text;"></path><path fill="none" stroke="#000000" d="M617,218L614,220L611,220L606,220L597,220L589,221L579,221L569,221L558,221L549,221L542,221L536,221L531,221L527,221L526,221L524,221L524,222L524,223L524,226L524,230L524,236L522,244L521,252L520,260L519,269L519,275L518,280L517,285L517,287L517,288L517,289L518,289L521,289L528,289L536,289L546,289L556,289L566,289L576,289L585,289L592,289L599,289L604,289L606,289L607,290L608,290L608,292L608,293L608,295L605,298L602,302L599,307L595,313L591,319L587,326L583,331L579,336L576,340L572,343L570,346L567,348L565,349L564,349L563,349L562,349L560,349L558,348L555,346L550,343L541,338L532,333L521,327L511,321L501,317L491,313L483,309L476,306L472,303L469,301L467,299L466,297L466,296L466,295L466,293L470,291L476,286L482,282L492,277L502,272L512,267L523,263L533,259L541,256L550,254L556,252L562,251L566,251L569,251L571,251L572,251L572,253L573,256L574,262L575,270L577,277L578,286L580,296L583,304L585,312L587,318L588,323L588,328L588,331L588,333L588,334L587,334L583,334L578,334L574,334L570,333L564,330L556,324L550,317L545,312L541,307L537,302L534,298L531,294L527,291L524,287L519,282L514,277L509,271L504,267L499,264L493,262L488,260L483,259L478,259L474,259L470,259L467,259L464,260L461,263L459,266L456,270L453,273L450,276L446,279L440,282L434,287" stroke-opacity="1" stroke-width="5" stroke-linecap="round" stroke-linejoin="round" style="-webkit-tap-highlight-color: rgba(0, 0, 0, 0); stroke-opacity: 1; stroke-linecap: round; stroke-linejoin: round; -webkit-user-select: text;"></path><path fill="none" stroke="#000000" d="M429,323L424,323L424,326L422,331L421,336L420,341L418,347L417,352L415,357L413,362L412,366L410,369L409,372L408,373L408,374L412,374L419,375L426,377L434,379L445,383L455,387L462,389L468,392L474,394L477,395L480,396L481,396L482,396L482,392L482,386L482,379L481,372L481,367L481,362L481,357L481,355L481,353L480,353L479,353L477,353L475,353L468,354L462,358L453,362L445,369L438,375L430,382L425,388L419,394L415,399L411,403L409,406L407,408L405,409L404,410L403,410L402,409L400,405L398,401L395,396L390,389L387,383L383,378L381,374L378,371L377,369L376,368L376,367L376,366L382,364L390,362L399,360L408,357L420,355L429,353L437,350L443,349L448,348L452,348L455,348L456,348L457,348L457,350L457,353L457,356L457,361L458,366L458,372L458,380L460,389L460,395L460,400L461,406L461,410L461,413L461,415L461,417L461,418L460,418L458,418L456,418L454,418L452,418L450,418L446,418L440,415L436,412L431,409L425,406L419,404L414,403L408,401L403,401L398,401L394,401L390,401L386,401L383,402L380,404L378,406L375,409L373,411L371,413L370,415L368,417L366,419L364,422L362,425L360,426L358,428L356,429L354,430L352,431L350,431L348,432L346,432L344,432L343,432" stroke-opacity="1" stroke-width="5" stroke-linecap="round" stroke-linejoin="round" style="-webkit-tap-highlight-color: rgba(0, 0, 0, 0); stroke-opacity: 1; stroke-linecap: round; stroke-linejoin: round; -webkit-user-select: text;"></path><path fill="none" stroke="#000000" d="M279,443L281,439L286,434L291,428L298,421L304,414L310,407L318,399L326,393L332,389L336,385L340,382L343,381L344,380L344,379L344,378L342,376L341,374L339,371L336,367L334,362L331,356L328,351L325,346L323,343L320,341L318,340L316,340L313,340L310,340L305,343L300,347L293,353L285,358L277,364L268,370L262,374L258,377L254,379L253,381L252,382L252,383L253,385L255,388L258,392L263,398L269,405L275,412L280,419L286,426L292,433L297,439L301,444L305,449L308,452L310,455L312,457L312,458L313,458L313,454L313,448L313,442L313,435L314,430L315,425L315,421L316,416L317,411L319,406L322,401L325,396L328,393L332,389L338,384L345,380L351,377L356,374L360,372L364,371L368,369L370,367L373,364L375,360L376,356L377,352L378,348L378,344L378,342L378,340L378,339" stroke-opacity="1" stroke-width="5" stroke-linecap="round" stroke-linejoin="round" style="-webkit-tap-highlight-color: rgba(0, 0, 0, 0); stroke-opacity: 1; stroke-linecap: round; stroke-linejoin: round; -webkit-user-select: text;"></path><path fill="none" stroke="#000000" d="M231,392L227,393L223,393L218,393L212,394L206,396L199,396L193,396L186,396L179,396L173,396L167,396L162,396L158,396L154,396L152,396L151,396L151,397L151,401L151,407L151,416L151,425L151,434L152,442L152,450L152,456L152,462L152,465L152,467L152,468L152,469L153,469L154,469L157,469L160,468L166,468L172,467L179,467L187,467L192,467L197,467L200,466L202,466L203,466L203,465L203,462L203,457L202,451L200,444L199,435L198,427L198,420L197,413L196,406L196,399L196,393L196,388L196,383L196,380L196,378L196,377L195,377L193,378L188,382L181,386L174,390L164,396L154,401L145,405L138,408L132,410L127,412L124,413L122,414L122,415L122,416L125,418L130,421L136,426L144,430L153,435L160,438L169,442L175,445L180,447L184,450L187,451L189,453L190,454L191,455L191,456L191,457L191,459L191,461L191,464L191,468L191,472L191,477L191,481L189,485L188,489L186,491L184,494L182,495L180,497L178,499L176,501L174,503L171,506L169,509L167,512L165,516L162,519L161,522L159,524L159,527L159,529L158,532L158,535L158,537L158,540L158,543L159,545L159,547L160,549L161,550L161,552L162,552L163,552" stroke-opacity="1" stroke-width="5" stroke-linecap="round" stroke-linejoin="round" style="-webkit-tap-highlight-color: rgba(0, 0, 0, 0); stroke-opacity: 1; stroke-linecap: round; stroke-linejoin: round; -webkit-user-select: text;"></path><path fill="none" stroke="#000000" d="M238,495L229,504L225,509L220,515L217,520L215,523L214,528L212,533L212,537L212,542L212,547L212,552L213,557L215,562L216,567L217,571L218,575L219,579L219,582L219,585L219,587L219,588L219,589L220,589L222,587L226,584L232,579L239,575L248,570L257,566L266,562L273,559L279,556L284,554L288,553L290,552L291,551L289,550L284,549L279,547L272,547L263,546L255,546L246,546L237,547L228,550L220,552L213,555L208,558L203,561L199,562L197,563L195,564L195,563L195,557L195,552L196,545L199,535L203,526L208,516L212,507L216,500L220,493L223,488L225,485L227,483L228,482L229,482L230,482L231,482L234,482L238,482L244,483L250,484L259,486L268,487L277,489L286,490L295,491L302,492L309,492L315,493L319,493L324,494L326,495L327,496L328,496L328,498L328,499L328,501L328,504L327,509L325,515L322,520L319,527L316,533L314,539L311,543L309,547L307,549L305,551L304,552L303,552L302,552L301,552L299,552L296,551L294,549L291,547L289,544L286,541L283,539L280,535L277,532L274,528L272,523L271,518L270,513L269,508L269,503L269,499L269,495L269,491L269,487L269,484L268,481L268,478L267,475L266,473L265,471L264,469L263,467L261,464L258,460L256,457L253,455L252,453L250,453" stroke-opacity="1" stroke-width="5" stroke-linecap="round" stroke-linejoin="round" style="-webkit-tap-highlight-color: rgba(0, 0, 0, 0); stroke-opacity: 1; stroke-linecap: round; stroke-linejoin: round; -webkit-user-select: text;"></path><path fill="none" stroke="#000000" d="M366,459L363,464L363,467L363,471L364,475L367,479L371,483L375,486L379,489L384,493L389,495L393,498L397,501L400,504L403,508L406,511L408,516L410,519L412,524L413,530L413,536L414,542L414,547L414,554L414,559L412,564L410,569L408,572L406,575L404,576L403,577L403,576L403,575L402,574L400,572L395,571L389,570L383,569L377,569L370,569L365,569L360,569L356,569L353,569L351,569L350,569L349,569L351,566L355,561L362,554L370,548L381,538L393,529L406,520L419,511L430,503L438,499L443,497L447,496L448,495L449,495L448,495L446,495L443,495L441,494L437,491L434,487L430,484L425,479L421,474L417,470L414,466L411,464L409,461L407,460L406,459L404,458L403,458L402,462L398,467L393,476L385,487L379,495L372,503L366,510L362,516L359,519L357,522L356,524L356,525L356,526L356,527L356,528L358,528L360,528L363,529L367,529L374,529L383,529L395,528L403,526L412,524L422,522L431,520L440,518L447,518L455,517L461,517L465,517L469,517L472,518L475,520L477,521L480,523L482,524L485,525L487,526L490,526L494,526L497,526L502,526L506,526L510,524L514,523L519,520L523,517L526,514L528,511L531,508L532,506L533,505L533,504L533,502" stroke-opacity="1" stroke-width="5" stroke-linecap="round" stroke-linejoin="round" style="-webkit-tap-highlight-color: rgba(0, 0, 0, 0); stroke-opacity: 1; stroke-linecap: round; stroke-linejoin: round; -webkit-user-select: text;"></path><path fill="none" stroke="#000000" d="M453,460L460,457L465,457L473,457L481,457L491,455L503,454L515,452L526,450L533,448L540,446L546,444L551,442L555,441L557,440L558,440L557,440L555,440L553,440L551,438L550,434L548,429L546,424L545,419L544,413L543,409L542,404L541,400L540,396L540,394L539,393L538,393L537,393L535,393L530,393L522,398L514,402L506,406L498,409L492,411L487,412L483,413L481,414L480,414L480,415L480,417L480,420L481,425L484,433L486,442L489,453L491,462L492,471L493,477L494,483L494,486L495,489L495,490L496,490L499,489L504,485L512,482L522,478L530,475L541,472L551,469L560,467L568,465L575,464L581,462L584,461L588,460L589,459L590,458L591,458L591,459L591,462L591,467L591,474L589,481L585,489L580,495L576,501L572,504L570,506L568,508L566,510L565,510L564,510L563,510L562,510L560,510L558,508L555,506L549,502L541,497L533,491L527,487L520,482L516,478L513,474L511,470L510,467L510,462L510,458L510,454L511,450L513,446L516,443L519,439L522,435L526,430L531,425L536,421L540,417L544,413L548,409L551,407L554,404L556,401L558,398L558,395L559,392L560,388L560,385L560,384L561,383L562,382" stroke-opacity="1" stroke-width="5" stroke-linecap="round" stroke-linejoin="round" style="-webkit-tap-highlight-color: rgba(0, 0, 0, 0); stroke-opacity: 1; stroke-linecap: round; stroke-linejoin: round; -webkit-user-select: text;"></path><path fill="none" stroke="#000000" d="M591,370L596,366L599,365L606,362L612,358L619,355L624,352L629,348L633,345L637,343L639,341L641,340L642,339L643,339L643,340L643,344L643,349L645,356L647,364L650,372L653,380L655,386L656,391L657,396L657,400L657,402L654,404L648,405L640,406L630,408L621,409L612,411L603,413L595,415L588,418L583,421L578,423L574,426L571,429L569,430L568,432L568,431L568,428L569,423L572,416L575,409L580,400L584,392L589,383L595,374L600,365L606,358L613,350L618,344L622,340L624,338L626,336L627,335L625,335L618,336L609,336L599,337L585,337L575,337L565,337L557,337L550,336L546,335L544,334L543,334L543,335L543,339L545,344L547,350L548,359L549,367L549,376L550,383L551,391L553,397L555,402L557,406L560,409L563,412L567,415L571,417L575,419L579,420L584,421L589,422L593,422L596,423L600,423L604,424L609,425L614,426L619,428L625,430L631,432L637,434L642,437L647,439L652,442L655,444L659,446L662,449L664,452L665,454L667,457L668,460L669,462L669,466L669,469L669,474L669,478L670,481" stroke-opacity="1" stroke-width="5" stroke-linecap="round" stroke-linejoin="round" style="-webkit-tap-highlight-color: rgba(0, 0, 0, 0); stroke-opacity: 1; stroke-linecap: round; stroke-linejoin: round; -webkit-user-select: text;"></path><path fill="none" stroke="#000000" d="M674,406L678,406L684,406L691,409L698,414L704,420L711,428L714,435L717,443L719,449L719,456L719,462L719,468L719,473L718,479L716,484L715,488L713,491L712,494L712,495L711,495L713,491L717,487L720,483L726,478L734,473L742,468L752,462L760,457L767,452L773,448L778,445L783,443L786,440L789,439L791,437L792,436L792,435L792,434L792,432L791,430L790,427L789,423L788,420L787,416L786,413L786,409L786,406L786,403L786,401L786,400L786,399L785,399L784,399L781,399L774,402L766,407L756,413L745,419L733,426L723,431L711,437L701,442L695,445L690,448L688,450L686,452L686,453L686,454L686,455L686,456L686,457L686,458L686,459L682,455L677,445L671,435L667,423L663,413L661,404L658,398L656,394L655,389L653,387L652,384L651,382L651,380L651,379L651,377L652,375L656,373L663,370L672,366L682,362L693,357L707,352L717,348L728,344L734,341L739,340L743,338L746,338L747,338L748,338L748,341L748,346L748,353L746,363L744,374L742,385L740,394L738,402L735,407L733,412L730,415L728,416L726,416L724,416L723,416L721,415L720,410L717,403L713,392L708,377L703,362L700,347L696,332L693,321" stroke-opacity="1" stroke-width="5" stroke-linecap="round" stroke-linejoin="round" style="-webkit-tap-highlight-color: rgba(0, 0, 0, 0); stroke-opacity: 1; stroke-linecap: round; stroke-linejoin: round; -webkit-user-select: text;"></path><path fill="none" stroke="#000000" d="M658,292L660,285L660,278L663,268L667,254L672,239L678,223L683,212L687,203L689,197L691,194L693,191L695,190L696,190L697,189L699,188L701,187L706,186L713,184L723,181L732,179L741,176L749,174L755,173L759,172L762,172L763,172L764,172L764,173L764,177L762,183L759,192L758,202L756,212L755,223L754,234L753,243L752,252L750,258L748,262L747,265L745,267L743,267L741,267L737,267L732,267L725,266L717,264L709,263L700,262L692,262L684,261L675,260L668,259L662,257L658,254L655,250L652,246L651,240L650,231L650,222L650,213L651,204L653,199L656,193L659,188L663,183L668,178L674,172L679,167L685,161L690,156L694,151L697,145L700,139L701,134L703,127L704,122L704,116L705,111L705,107L706,105L706,102L706,101" stroke-opacity="1" stroke-width="5" stroke-linecap="round" stroke-linejoin="round" style="-webkit-tap-highlight-color: rgba(0, 0, 0, 0); stroke-opacity: 1; stroke-linecap: round; stroke-linejoin: round; -webkit-user-select: text;"></path><path fill="none" stroke="#000000" d="M630,100L640,94L648,90L658,87L670,82L685,76L698,71L711,66L721,62L731,58L738,56L744,53L747,52L750,51L752,51L752,50L753,51L753,54L754,57L756,63L759,70L762,77L763,84L764,90L765,96L766,101L766,105L766,107L766,109L766,110L765,110L760,110L753,110L744,110L732,111L720,115L707,122L697,128L687,134L680,139L675,141L671,143L669,144L667,144L667,142L666,137L666,131L665,122L665,112L664,102L663,92L662,82L660,73L659,64L658,58L657,53L656,49L656,47L655,46L655,45L656,44L662,43L671,42L683,39L696,36L710,34L725,32L740,29L753,27L762,26L770,26L776,25L782,25L785,25L787,25L788,25L788,26L788,27L788,29L788,32L788,36L785,42L781,47L774,55L768,61L763,67L757,73L751,78L746,83L742,87L736,92L732,97L727,103L723,110L719,116L717,122L715,128L715,134L715,140L715,146L716,151L718,155L721,159L724,162L729,166L733,169L739,173L744,177L749,180L753,185L756,189L759,192L760,196L762,198L762,199L763,199" stroke-opacity="1" stroke-width="5" stroke-linecap="round" stroke-linejoin="round" style="-webkit-tap-highlight-color: rgba(0, 0, 0, 0); stroke-opacity: 1; stroke-linecap: round; stroke-linejoin: round; -webkit-user-select: text;"></path><path fill="none" stroke="#000000" d="M747,127L754,130L761,130L771,130L782,130L793,130L805,130L817,130L827,130L837,130L843,131L847,131L851,132L852,133L852,135L852,137L852,140L852,146L850,151L848,158L847,166L845,174L844,183L843,193L842,203L841,210L840,217L838,223L836,227L834,229L832,231L830,231L827,231L825,231L821,231L815,231L808,231L800,230L793,230L785,229L778,229L773,229L769,228L766,228L764,228L764,227L764,226L764,224L765,219L768,214L771,207L775,200L779,190L782,183L787,173L791,162L795,152L799,142L804,132L808,122L813,113L816,106L820,99L822,95L823,92L824,89L825,88L823,88L817,88L808,88L799,88L791,88L784,88L779,88L774,88L771,90L769,92L768,95L768,99L768,105L768,112L768,119L768,128L768,135L769,141L771,146L774,150L778,153L782,156L787,158L792,161L798,163L803,167L808,171L812,175L816,179L820,184L823,189L826,195L829,201L831,207L832,212L834,218L834,223L835,229L835,235L835,241L833,248L830,254L827,260L823,267L818,272L814,277L810,281L806,285L803,288L801,290L798,292L797,292L796,292" stroke-opacity="1" stroke-width="5" stroke-linecap="round" stroke-linejoin="round" style="-webkit-tap-highlight-color: rgba(0, 0, 0, 0); stroke-opacity: 1; stroke-linecap: round; stroke-linejoin: round; -webkit-user-select: text;"></path><path fill="none" stroke="#000000" d="M779,330L784,329L790,329L800,329L813,329L822,329L833,329L841,329L847,329L852,329L857,329L859,329L860,329L860,331L861,332L861,333L861,336L861,338L860,344L858,351L857,358L855,365L854,372L853,377L852,382L850,386L848,389L847,391L845,392L844,393L843,393L841,393L839,393L833,391L827,387L820,384L811,380L802,378L793,377L784,376L777,376L772,376L768,376L765,376L764,376L763,375L763,374L763,372L763,369L763,363L763,357L763,350L762,343L762,336L762,328L762,321L762,314L762,309L762,304L762,302L762,299L762,298L762,297L767,297L775,296L789,296L803,296L817,296L827,296L837,296L844,296L848,296L851,296L852,296L853,296L853,297L853,298L853,299L851,302L849,306L845,311L842,315L838,321L835,326L832,331L830,335L827,339L825,343L823,346L820,350L818,353L815,355L811,357L808,358L804,360L800,362L796,365L793,367L789,370L786,373L784,377L781,380L781,384L780,388L780,392L780,396L780,401L782,405L785,409L788,413L791,416L794,418L798,421L802,423L806,425L810,426L814,428L818,429L823,429L827,430L832,430L837,430L841,431L846,432L850,434L854,435L857,437L859,438L861,439L861,440L862,440" stroke-opacity="1" stroke-width="5" stroke-linecap="round" stroke-linejoin="round" style="-webkit-tap-highlight-color: rgba(0, 0, 0, 0); stroke-opacity: 1; stroke-linecap: round; stroke-linejoin: round; -webkit-user-select: text;"></path><path fill="none" stroke="#000000" d="M795,469L797,473L801,476L806,480L812,484L819,489L827,493L834,496L840,498L845,501L849,502L852,504L853,505L853,506L853,508L853,509L852,511L847,516L840,520L832,526L824,532L816,539L808,545L802,549L794,555L786,561L780,566L775,570L770,573L767,576L764,577L762,578L761,578L760,578L759,578L759,575L758,569L757,563L756,558L756,553L755,547L755,543L755,538L754,535L754,532L754,529L754,528L754,526L756,524L763,521L773,518L785,515L797,512L811,510L825,508L839,506L850,503L859,501L866,501L870,500L872,499L873,499L873,498L873,497L871,494L868,489L865,484L861,478L859,473L857,467L855,462L853,458L852,454L850,451L849,449L848,448L847,447L846,447L844,447L842,447L839,448L832,452L823,458L813,464L799,470L786,475L772,480L760,484L748,488L737,492L730,496L724,500L720,505L718,510L715,517L713,522L710,528L707,534L704,539L701,543L695,548L690,551L683,554L676,557L669,560L662,562L654,563L648,564L642,564L635,564L630,564L626,562L623,559L619,555L616,553L614,550L613,549L612,548L612,547L612,546" stroke-opacity="1" stroke-width="5" stroke-linecap="round" stroke-linejoin="round" style="-webkit-tap-highlight-color: rgba(0, 0, 0, 0); stroke-opacity: 1; stroke-linecap: round; stroke-linejoin: round; -webkit-user-select: text;"></path><path fill="none" stroke="#000000" d="M655,533L650,532L649,529L648,525L646,519L644,514L640,509L636,505L630,502L624,501L617,501L609,501L601,503L594,508L588,513L582,517L577,522L572,527L568,530L566,534L563,537L562,540L561,541L560,542L560,543L560,544L560,545L563,545L569,545L575,545L583,545L591,546L599,546L606,547L613,547L619,549L624,550L629,551L633,552L635,553L637,555L638,557L638,558L638,560L638,562L637,566L634,570L630,576L626,582L621,588L616,593L611,598L608,602L604,605L601,607L598,608L596,608L594,608L592,608L591,608L589,608L586,607L582,604L577,600L570,596L563,593L556,590L549,587L543,586L538,584L533,583L528,582L524,581L521,580L518,580L516,579L515,578L514,577L514,576L514,574L516,570L522,562L530,554L538,545L546,535L553,527L559,520L563,515L567,511L570,509L572,508L574,507L575,507L576,507L577,507L578,509L579,512L582,516L586,521L590,527L595,535L600,543L605,550L609,557L612,562L615,567L617,570L618,572L618,574L619,575L619,576L619,577L619,579L619,581L619,583L620,585L622,589L624,592L626,596L630,599L634,603L637,605L640,607L644,609L647,610L650,611L653,611L657,611L661,611L664,609L668,607L672,603L675,600L680,596L684,592L688,588L691,585L696,582L699,580L703,578L706,576L709,575L712,572" stroke-opacity="1" stroke-width="5" stroke-linecap="round" stroke-linejoin="round" style="-webkit-tap-highlight-color: rgba(0, 0, 0, 0); stroke-opacity: 1; stroke-linecap: round; stroke-linejoin: round; -webkit-user-select: text;"></path></svg>