<svg height="650" version="1.1" width="1024" xmlns="http://www.w3.org/2000/svg" xmlns:xlink="http://www.w3.org/1999/xlink" style="overflow: hidden; position: relative; -webkit-user-select: text;"><desc style="-webkit-tap-highlight-color: rgba(0, 0, 0, 0); -webkit-user-select: text;">Created with Raphaël 2.2.0</desc><defs style="-webkit-tap-highlight-color: rgba(0, 0, 0, 0); -webkit-user-select: text;"></defs><path fill="none" stroke="#000000" d="M316,271L322,265L324,265L327,265L331,262L336,260L342,256L349,252L356,248L364,243L373,238L382,234L390,230L397,226L402,224L407,221L411,219L413,219L414,218L415,218L415,219L415,221L415,224L414,228L413,232L411,238L409,244L407,251L404,258L402,265L400,273L397,281L395,287L393,293L392,299L390,303L389,307L388,310L387,311L387,312L385,312L384,311L382,309L380,304L376,298L372,292L367,282L362,272L357,262L352,253L347,244L344,238L341,233L338,228L336,224L334,220L332,217L332,215L332,214L332,213L334,213L337,214L341,217L346,219L353,223L361,228L370,232L378,236L387,241L397,246L406,251L415,256L422,260L429,263L436,267L440,270L444,272L446,274L448,276L449,277L449,278L449,279L449,280L448,282L447,284L446,287L443,291L440,295L437,301L433,307L429,314L426,320L423,326L420,333L417,337L414,342L412,347L409,350L407,353L404,355L402,356L399,357L396,358L392,359L389,359L385,359L381,359L377,359L373,359L369,359L365,359L362,357L358,355L355,353L351,350L348,347L346,344L343,341L340,338L336,334L334,330L331,325L328,320L325,316L322,311L319,307L316,303L313,299L310,295L306,292L303,288L300,285L297,282L293,280L289,277L285,275L282,274L278,272L276,271L273,270L271,270L269,269L268,269L268,268L268,267" stroke-opacity="1" stroke-width="5" stroke-linecap="round" stroke-linejoin="round" style="-webkit-tap-highlight-color: rgba(0, 0, 0, 0); stroke-opacity: 1; stroke-linecap: round; stroke-linejoin: round; -webkit-user-select: text;"></path><path fill="none" stroke="#000000" d="M267,307L262,306L260,306L258,306L255,306L252,306L248,307L243,308L238,311L232,315L227,319L223,324L219,329L215,333L212,338L210,343L208,348L207,353L207,358L206,365L206,370L206,377L206,383L206,388L206,394L206,399L206,404L206,409L206,413L206,417L206,419L206,421L206,423L207,423L208,423L210,423L212,422L216,421L221,418L226,416L232,412L239,409L245,405L251,401L256,398L261,395L265,394L268,392L271,391L271,390L272,389L272,388L271,387L269,386L266,384L261,381L256,378L250,374L244,370L237,367L230,362L222,356L215,350L210,346L205,343L202,340L199,338L196,337L195,336L193,336L192,336L191,336L190,337L188,340L185,343L181,349L176,355L171,362L166,368L160,375L156,381L153,385L151,387L149,389L148,390L148,391L148,392L148,393L149,395L152,397L155,401L159,404L165,409L171,414L177,420L186,427L193,433L199,438L205,442L210,447L216,451L220,454L223,457L225,458L227,459L228,460L229,460L230,460L231,460L232,460L232,459L234,458L236,456L239,452L242,448L247,443L251,437L257,429L263,421L269,413L275,405L281,397L286,391L291,384L295,379L298,375L300,372L301,370L302,368L302,367L303,367L303,366L304,366L304,365L305,365" stroke-opacity="1" stroke-width="5" stroke-linecap="round" stroke-linejoin="round" style="-webkit-tap-highlight-color: rgba(0, 0, 0, 0); stroke-opacity: 1; stroke-linecap: round; stroke-linejoin: round; -webkit-user-select: text;"></path><path fill="none" stroke="#000000" d="M324,402L326,404L328,405L332,407L337,410L342,412L349,415L355,418L362,421L369,424L376,427L381,429L387,431L391,433L395,434L397,435L399,436L400,437L400,438L400,440L400,441L398,443L397,446L394,451L392,456L389,462L387,467L385,470L383,473L382,477L381,479L380,480L380,481L380,482L379,483L378,481L378,475L376,466L375,457L374,446L374,435L373,425L373,417L373,409L373,403L373,398L373,395L373,393L372,392L371,392L370,392L368,392L366,392L363,394L358,396L352,398L346,400L341,402L335,404L331,405L327,406L324,407L323,407L322,408L322,409L322,410L322,411L323,414L325,417L328,421L331,426L334,431L337,436L340,441L343,446L345,450L347,453L349,456L351,457L352,458L353,459L354,459L355,459L356,459L357,459L358,458L360,457L361,455L363,453L366,451L367,448L369,446L371,444L373,441L375,438L378,435L380,432L383,428L385,426L387,423L390,420L393,417L397,414L400,412L404,410L408,408L412,406L417,405L421,404L425,403L429,402L433,401L436,401L441,400L444,399L448,399L451,398L455,397L458,396L462,395L465,394L468,393L472,391L475,389L478,387L482,385L485,382L489,379L492,377L494,374L496,372L497,371L498,370L499,369L500,368L503,367" stroke-opacity="1" stroke-width="5" stroke-linecap="round" stroke-linejoin="round" style="-webkit-tap-highlight-color: rgba(0, 0, 0, 0); stroke-opacity: 1; stroke-linecap: round; stroke-linejoin: round; -webkit-user-select: text;"></path><path fill="none" stroke="#000000" d="M428,377L431,373L431,372L432,369L434,366L435,364L437,361L440,359L443,356L447,354L452,352L456,349L461,347L467,345L472,342L477,340L482,337L487,334L491,331L494,329L498,326L501,324L504,320L507,317L510,314L512,311L514,307L515,302L517,298L518,293L519,289L519,284L519,280L519,275L519,270L519,267L519,264L519,262L519,260L519,259L518,259L515,259L511,259L507,259L503,259L499,260L495,260L491,260L488,260L485,261L483,261L482,262L481,262L481,263L481,264L481,265L481,268L482,271L484,277L486,284L489,290L492,298L494,305L496,311L499,317L501,323L503,329L504,335L506,339L507,343L508,347L509,349L509,351L510,351L511,351L512,351L513,350L516,349L520,346L526,343L531,339L537,335L543,331L547,327L552,324L557,320L562,317L567,314L572,310L576,307L579,304L583,302L585,299L587,297L588,297L588,296L588,295L587,295L585,294L582,294L577,293L572,292L565,292L558,291L550,290L543,290L535,290L527,290L519,290L510,292L502,294L495,297L489,299L485,300L481,302L477,303L475,303L474,303L473,303L472,303L472,302L471,299L470,296L470,292L468,287L467,281L466,275L465,268L463,262L462,255L460,248L460,243L459,238L458,234L458,230L457,227L457,225L456,224L456,222L455,222" stroke-opacity="1" stroke-width="5" stroke-linecap="round" stroke-linejoin="round" style="-webkit-tap-highlight-color: rgba(0, 0, 0, 0); stroke-opacity: 1; stroke-linecap: round; stroke-linejoin: round; -webkit-user-select: text;"></path><path fill="none" stroke="#000000" d="M502,213L506,211L510,211L516,210L524,208L531,207L538,205L547,204L554,202L560,201L567,199L572,198L576,197L578,197L580,196L581,195L581,194L581,192L581,189L581,185L581,181L581,175L581,168L582,161L583,152L584,145L584,137L584,131L585,125L585,121L585,117L585,114L585,113L585,112L584,112L581,112L577,112L571,112L566,112L560,112L555,112L549,112L544,112L540,112L537,112L535,112L534,112L534,113L535,115L536,119L538,123L541,129L543,136L545,143L548,151L551,158L554,166L557,173L560,179L562,185L564,192L565,198L567,204L568,208L569,212L570,214L570,217L571,218L571,219L571,220L569,220L567,220L563,221L559,221L555,221L550,221L545,221L541,222L537,222L534,222L532,222L530,222L529,222L528,222L527,221L526,218L525,216L524,212L522,207L520,201L517,195L515,188L512,181L510,176L508,170L506,166L504,162L503,159L502,157L502,156L502,155L502,154L502,153L505,153L508,152L514,152L521,151L530,151L538,151L548,150L557,150L567,149L576,149L583,148L591,148L598,148L604,148L609,148L613,148L615,148L617,148L618,148L619,148L620,148L621,148L621,149L621,150L622,151L623,153L624,155L625,157L626,160L628,163L630,166L631,169L632,172L633,175L634,179L635,182L635,185L636,188L636,191L637,194L637,196L637,199L637,202L637,205L637,208L637,211L636,214L635,217L634,219L633,222L632,225L630,227L629,230L628,232L626,235L625,238L624,240L623,243L622,246L621,249L620,252L619,255L618,259L618,262L618,265L618,269L618,272L618,275L618,278L618,282L618,284L618,286L618,288L618,289L618,290" stroke-opacity="1" stroke-width="5" stroke-linecap="round" stroke-linejoin="round" style="-webkit-tap-highlight-color: rgba(0, 0, 0, 0); stroke-opacity: 1; stroke-linecap: round; stroke-linejoin: round; -webkit-user-select: text;"></path><path fill="none" stroke="#000000" d="M665,258L660,259L658,262L656,265L654,268L652,272L651,276L650,280L650,284L649,288L649,292L649,297L649,301L649,305L649,310L650,314L651,319L653,324L655,328L657,333L658,338L660,343L661,349L662,354L663,359L664,364L665,368L665,371L666,374L666,375L666,376L664,376L662,376L658,376L653,376L647,376L641,376L635,376L628,376L621,377L615,379L609,380L603,382L598,383L593,384L589,385L586,386L584,386L582,386L581,386L582,386L583,384L588,382L594,377L600,373L609,368L618,362L628,356L637,350L647,343L656,336L664,331L670,326L675,323L680,320L683,319L685,319L686,319L687,319L687,321L687,323L688,325L690,328L693,333L695,338L697,343L700,347L703,352L704,355L706,359L708,362L708,364L708,365L708,367L708,368L707,370L703,372L700,376L696,379L691,383L686,387L681,392L676,396L670,402L665,407L662,411L658,415L655,418L653,421L651,423L650,424L649,424L649,425L648,425L647,425L647,424L645,423L644,417L642,410L639,403L637,395L634,387L631,379L629,372L627,366L625,359L623,353L622,348L621,343L621,339L620,336L620,333L618,331L617,330L616,330L615,330L613,330L610,331L605,334L599,337L594,340L587,344L581,348L575,352L571,355L568,357L565,359L564,360L563,360L563,361L563,362L563,363L563,364L563,366L563,368L563,372L563,376L563,382L563,389L563,396L564,403L565,410L565,415L566,419L567,423L567,426L567,427L568,428" stroke-opacity="1" stroke-width="5" stroke-linecap="round" stroke-linejoin="round" style="-webkit-tap-highlight-color: rgba(0, 0, 0, 0); stroke-opacity: 1; stroke-linecap: round; stroke-linejoin: round; -webkit-user-select: text;"></path><path fill="none" stroke="#000000" d="M515,460L509,455L511,455L515,458L519,461L526,464L533,469L541,473L548,477L555,481L561,486L567,489L572,493L576,496L579,499L583,501L585,503L587,504L588,505L588,506L589,506L589,507L589,508L588,509L586,512L582,516L578,520L573,525L569,530L565,533L562,537L559,540L557,542L555,545L555,546L554,547L554,546L554,545L554,541L554,537L554,532L554,527L554,520L554,513L554,506L555,499L557,491L558,483L560,476L562,471L563,466L565,462L566,460L567,458L568,458L569,458L570,458L571,458L573,458L577,459L581,461L588,463L596,465L605,467L614,468L623,469L633,470L642,471L649,471L655,472L660,472L663,473L665,474L666,474L667,474L667,475L667,476L667,477L667,479L667,480L666,484L665,488L663,493L661,498L659,504L656,510L654,515L652,520L650,524L648,528L646,532L645,535L643,537L643,539L642,539L642,540L641,540L641,539L641,537L640,533L639,528L639,521L638,513L637,504L636,497L635,490L634,484L634,478L633,473L633,467L633,461L633,455L633,451L633,447L633,444L633,442L633,440L633,439L632,439L631,439L630,439L629,439L628,439L627,439L625,439L623,439L621,439L618,440L615,440L612,441L609,442L605,443L601,444L597,446L592,447L587,449" stroke-opacity="1" stroke-width="5" stroke-linecap="round" stroke-linejoin="round" style="-webkit-tap-highlight-color: rgba(0, 0, 0, 0); stroke-opacity: 1; stroke-linecap: round; stroke-linejoin: round; -webkit-user-select: text;"></path><path fill="none" stroke="#000000" d="M447,458L445,464L443,470L441,478L440,487L438,498L438,511L437,521L436,532L435,541L434,548L432,554L431,558L429,561L429,563L428,563L427,563L426,563L424,563L421,563L417,563L410,563L403,563L395,562L389,562L382,560L378,559L373,559L371,558L370,557L369,557L369,556L369,554L372,552L376,547L383,541L391,535L401,528L411,522L420,516L426,512L431,508L436,506L439,503L441,502L443,501L444,501L445,501L446,501L447,503L450,507L453,511L458,517L462,522L467,528L472,534L476,539L480,543L483,547L485,550L487,553L488,554L488,556L488,557L488,559L487,560L483,562L479,565L473,569L467,572L460,576L453,581L447,585L441,590L436,593L432,596L429,598L426,599L425,599L424,599L424,598L422,595L420,589L418,584L415,579L412,574L409,569L407,565L405,560L403,555L402,550L400,545L400,540L400,536L400,531L400,527L400,522L401,517L404,513L407,508L411,503L414,499L419,496L424,491L428,488L433,484L437,481L441,478L445,476L448,473L453,471L456,469L460,466L463,464L465,462L468,459L471,456L474,452L476,450L478,446L480,442L482,438L484,434L485,430L486,428L487,425L488,424L488,423L489,422" stroke-opacity="1" stroke-width="5" stroke-linecap="round" stroke-linejoin="round" style="-webkit-tap-highlight-color: rgba(0, 0, 0, 0); stroke-opacity: 1; stroke-linecap: round; stroke-linejoin: round; -webkit-user-select: text;"></path><path fill="none" stroke="#000000" d="M670,221L672,214L672,211L672,207L675,204L678,200L680,197L683,193L686,189L689,185L692,182L695,180L698,177L702,173L706,170L710,166L714,163L717,159L720,155L723,151L725,148L726,143L728,139L728,135L728,131L729,127L729,123L730,119L730,115L730,113L730,111L730,110L730,109L730,108L727,108L722,108L716,109L709,110L703,110L697,110L690,110L683,110L678,110L674,110L670,110L668,110L667,110L667,112L667,113L667,116L667,119L667,124L669,129L670,135L672,142L674,150L677,157L679,165L680,173L682,181L684,189L685,197L686,204L687,210L688,214L689,218L689,221L690,222L690,223L691,223L692,223L693,223L694,223L697,223L701,223L706,222L711,221L717,220L725,217L732,215L739,212L745,210L750,208L754,206L757,204L759,202L760,201L760,200L761,199L761,197L761,195L760,192L759,189L757,184L755,179L753,173L752,167L750,161L749,155L747,151L747,146L746,144L745,141L744,141L743,140L742,140L741,140L739,140L735,140L730,141L723,144L715,146L705,150L696,154L688,157L680,161L675,163L670,166L667,167L665,168L663,168L662,168L661,168L660,168L659,166L658,163L656,161L655,158L652,153L650,148L648,143L645,137L642,130L640,124L637,117L634,111L632,106L629,100L627,95L625,90L624,86L623,83L622,80L621,78L621,77L621,76L620,76" stroke-opacity="1" stroke-width="5" stroke-linecap="round" stroke-linejoin="round" style="-webkit-tap-highlight-color: rgba(0, 0, 0, 0); stroke-opacity: 1; stroke-linecap: round; stroke-linejoin: round; -webkit-user-select: text;"></path><path fill="none" stroke="#000000" d="M599,51L596,52L592,52L584,52L576,53L567,53L558,53L549,53L541,51L533,48L526,45L520,42L515,39L511,37L508,35L506,34L505,34L504,34L504,37L504,40L504,44L502,50L502,56L500,63L499,70L498,75L497,79L497,83L496,86L496,88L496,90L496,91L499,91L503,91L509,89L517,86L526,83L535,80L543,78L550,75L555,73L559,71L562,69L564,67L565,66L565,64L565,62L565,59L565,56L563,50L561,44L559,38L557,32L555,26L553,22L552,18L551,16L550,14L549,14L548,13L547,13L546,13L545,13L543,13L540,13L536,15L528,17L521,20L511,24L502,28L492,33L483,38L473,43L463,47L454,51L446,54L438,57L431,59L426,61L423,62L420,64L419,65L418,66L418,67L418,68L418,70L419,72L420,75L423,80L425,85L428,90L431,96L434,102L436,107L440,114L443,121L445,126L448,131L450,135L451,139L453,141L453,143L454,144L455,145L455,146L455,148L456,149L456,151L457,153L457,155L458,158L458,162L458,166L458,170L458,174L458,178L456,180L455,183L454,185L453,187L451,189L450,191L448,192L446,194L444,195L441,196L439,197L436,197L434,198L431,198L427,198L424,198L419,198L415,198L411,197L407,196L402,193L397,192L393,190L388,187L384,185L380,183L375,180L371,178L367,176L363,174L359,173L355,173L351,173L347,173L340,178" stroke-opacity="1" stroke-width="5" stroke-linecap="round" stroke-linejoin="round" style="-webkit-tap-highlight-color: rgba(0, 0, 0, 0); stroke-opacity: 1; stroke-linecap: round; stroke-linejoin: round; -webkit-user-select: text;"></path><path fill="none" stroke="#000000" d="M358,97L353,92L351,90L348,88L344,84L341,81L337,76L332,71L329,67L324,63L321,59L318,56L315,54L312,53L311,52L309,52L307,52L303,55L299,61L293,69L287,78L280,87L273,96L267,105L260,113L254,120L249,126L246,129L244,132L242,135L242,136L242,138L242,139L242,140L242,141L242,142L244,144L247,146L250,148L254,151L258,155L261,158L265,162L268,166L271,168L274,170L276,172L278,173L280,173L281,173L282,173L283,173L285,170L288,165L292,159L298,150L303,141L309,132L317,121L324,110L330,101L337,91L343,83L349,75L352,69L355,66L356,63L356,61L356,60L355,60L352,59L349,59L344,57L339,55L333,52L326,49L319,46L313,42L307,39L300,37L295,34L290,32L286,30L282,29L278,28L276,27L274,27L273,27L273,28L273,31L273,35L274,41L276,49L278,58L280,69L283,79L286,90L289,101L293,111L296,122L299,132L302,141L305,150L307,158L308,165L310,171L311,175L312,178L312,180L312,181L313,181L314,181L315,181L317,181L320,178L326,174L334,169L343,163L353,156L362,150L370,144L378,140L384,136L387,133L390,131L392,131L392,130L392,129L392,128L390,127L387,124L383,121L380,117L376,113L372,109L368,106L363,102L358,99L353,97L348,96L342,95L336,95L330,95L324,95L319,95L314,95L309,96L303,98L298,99L292,101L286,102L280,104L273,105L268,107L261,108L256,109L250,110L245,111L239,111L234,111L229,111L223,111L218,111L213,110L208,107L203,104L199,100L195,97L192,95L190,92L189,90L188,90L188,89" stroke-opacity="1" stroke-width="5" stroke-linecap="round" stroke-linejoin="round" style="-webkit-tap-highlight-color: rgba(0, 0, 0, 0); stroke-opacity: 1; stroke-linecap: round; stroke-linejoin: round; -webkit-user-select: text;"></path><path fill="none" stroke="#000000" d="M96,166L99,164L102,164L106,164L112,164L118,164L127,164L136,164L145,163L155,163L164,161L170,161L175,161L179,160L182,160L184,160L185,160L186,160L186,162L186,165L186,170L186,177L186,184L186,192L185,201L184,209L183,218L181,226L180,235L179,243L178,251L178,256L178,262L177,265L177,268L176,268L175,268L174,268L172,268L169,268L165,266L159,263L152,261L146,258L140,255L132,253L126,251L120,248L115,246L111,243L108,242L105,241L104,240L103,239L103,238L103,237L104,236L110,234L118,230L128,226L139,221L150,216L162,211L174,206L185,202L193,198L201,195L207,192L211,191L214,190L216,189L217,189L217,190L217,194L217,200L217,207L217,216L217,224L217,231L217,241L217,248L218,256L218,263L218,270L218,276L218,281L218,285L218,287L218,288L218,289L217,289L216,289L215,288L213,287L210,284L206,281L202,277L198,274L193,271L188,268L182,265L177,262L172,259L166,255L161,251L156,246L151,241L147,236L143,232L139,227L136,221L134,216L132,210L131,204L130,198L130,192L130,187L130,182L130,176L130,171L130,166L130,161L130,156L130,151L129,147L128,142L127,138L125,134L124,129L122,126L121,122L119,119L117,115L115,112L112,110L109,107L107,104L104,101L101,99L99,97L97,97L96,96" stroke-opacity="1" stroke-width="5" stroke-linecap="round" stroke-linejoin="round" style="-webkit-tap-highlight-color: rgba(0, 0, 0, 0); stroke-opacity: 1; stroke-linecap: round; stroke-linejoin: round; -webkit-user-select: text;"></path></svg>