<svg height="650" version="1.1" width="1024" xmlns="http://www.w3.org/2000/svg" xmlns:xlink="http://www.w3.org/1999/xlink" style="overflow: hidden; position: relative; -webkit-user-select: text;"><desc style="-webkit-tap-highlight-color: rgba(0, 0, 0, 0); -webkit-user-select: text;">Created with Raphaël 2.2.0</desc><defs style="-webkit-tap-highlight-color: rgba(0, 0, 0, 0); -webkit-user-select: text;"></defs><path fill="none" stroke="#000000" d="M442,56L443,59L443,61L443,64L443,68L444,72L444,77L445,83L446,90L447,97L448,103L450,110L451,115L453,120L454,124L455,128L456,131L456,133L457,134L459,133L463,131L469,127L475,124L483,120L491,115L499,110L507,106L514,102L520,98L524,95L527,93L530,91L531,90L526,90L519,90L511,91L499,94L488,96L477,99L467,101L455,104L445,107L437,110L429,113L422,116L417,118L413,119L409,120L407,121L406,121L405,121L404,121L404,120L403,117L402,114L400,110L398,105L396,100L393,95L391,90L389,86L387,82L385,79L384,76L384,74L383,73L383,72L384,72L388,72L395,71L403,70L412,69L425,67L436,65L448,62L458,59L467,57L475,55L481,54L485,53L488,52L490,52L490,53L490,54L490,57L490,61L490,66L491,73L492,80L493,88L494,97L494,106L496,115L496,122L497,129L498,134L498,139L499,143L499,145L499,146L499,147L498,147L496,147L493,147L490,147L487,148L483,148L479,148L475,148L472,149L468,149L464,149L460,150L456,151L453,152L449,153L446,154L442,156L439,158L436,160L434,162L431,165L430,167L428,170L426,173L425,175L424,178L423,181L422,184L421,187L421,190L420,194L419,197L419,200L419,204L418,207L418,210L417,212L417,215L416,217L415,219L415,221L414,222L414,223L413,223L413,224L413,225" stroke-opacity="1" stroke-width="5" stroke-linecap="round" stroke-linejoin="round" style="-webkit-tap-highlight-color: rgba(0, 0, 0, 0); stroke-opacity: 1; stroke-linecap: round; stroke-linejoin: round; -webkit-user-select: text;"></path><path fill="none" stroke="#000000" d="M463,205L461,207L461,209L461,212L461,216L459,221L456,226L453,233L449,239L446,246L442,253L438,259L436,264L434,268L432,271L431,273L430,274L430,275L431,275L434,275L439,275L446,275L453,275L463,275L472,275L479,275L485,275L490,275L494,275L497,275L499,274L500,273L500,272L498,270L495,268L491,265L485,263L477,260L469,257L461,254L453,252L445,251L439,249L433,249L428,248L423,248L420,248L417,247L416,247L415,246L415,245L415,244L415,243L416,241L421,236L426,229L433,221L439,212L446,203L453,194L458,188L462,185L465,182L468,180L469,180L470,180L471,180L473,180L474,180L476,180L479,182L484,184L489,186L496,189L503,192L510,196L517,199L524,202L529,204L533,206L538,208L541,209L542,210L543,211L544,212L544,213L544,214L544,215L544,216L544,218L544,220L543,223L542,228L540,233L538,239L536,244L535,248L534,253L533,256L533,258L533,261L532,263L532,264L532,265L531,266L531,267" stroke-opacity="1" stroke-width="5" stroke-linecap="round" stroke-linejoin="round" style="-webkit-tap-highlight-color: rgba(0, 0, 0, 0); stroke-opacity: 1; stroke-linecap: round; stroke-linejoin: round; -webkit-user-select: text;"></path><path fill="none" stroke="#000000" d="M535,267L531,266L528,266L524,266L520,266L515,264L510,262L506,260L502,258L499,253L497,250L495,246L494,242L494,237L494,233L494,228L494,223L494,218L494,214L494,209L494,205L497,201L499,196L503,190L507,186L511,180L516,175L521,170L526,165L530,161L534,156L538,151L541,146L543,142L544,139L545,135L546,132L546,130L547,128L547,127" stroke-opacity="1" stroke-width="5" stroke-linecap="round" stroke-linejoin="round" style="-webkit-tap-highlight-color: rgba(0, 0, 0, 0); stroke-opacity: 1; stroke-linecap: round; stroke-linejoin: round; -webkit-user-select: text;"></path><path fill="none" stroke="#000000" d="M580,173L585,171L590,171L599,170L608,169L618,167L628,166L638,166L646,164L652,163L656,163L659,163L661,162L661,163L661,165L661,170L659,177L657,185L655,197L652,207L650,218L647,226L645,234L643,241L642,246L640,250L639,253L638,255L637,255L636,255L635,255L633,255L630,255L626,253L621,252L615,251L608,249L601,248L594,247L589,246L585,246L582,246L579,245L578,244L578,243L578,242L578,241L578,239L579,236L581,231L584,225L587,217L591,210L595,201L599,191L605,182L610,171L616,161L621,151L626,143L630,137L632,134L633,131L634,130L634,129L632,129L627,129L620,130L613,131L605,131L597,132L590,133L583,134L578,134L574,136L571,136L570,137L569,137L569,138L569,139L569,140L569,141L569,143L569,145L569,147L569,151L569,155L569,159L569,164L570,169L571,173L572,177L574,180L575,183L577,186L579,189L582,192L584,194L586,197L589,199L592,202L594,204L598,207L601,209L604,211L607,214L610,216L613,219L616,221L618,223L621,225L624,227L627,229L630,232L633,234L635,237L638,240L640,243L641,246L643,249L644,252L645,255L646,257L647,260L647,263L648,267L648,271L649,274L649,278L649,281L649,285L649,289L648,293L647,297L645,301L643,305L642,309L640,313L638,316L636,319L635,322L633,324L633,325L632,325L632,324" stroke-opacity="1" stroke-width="5" stroke-linecap="round" stroke-linejoin="round" style="-webkit-tap-highlight-color: rgba(0, 0, 0, 0); stroke-opacity: 1; stroke-linecap: round; stroke-linejoin: round; -webkit-user-select: text;"></path><path fill="none" stroke="#000000" d="M596,297L594,299L594,301L594,304L592,309L589,314L587,320L585,326L583,333L581,339L578,346L576,353L574,358L572,361L571,363L570,365L569,365L568,365L567,365L565,365L562,365L558,365L553,365L545,363L537,362L528,360L519,359L511,358L504,358L497,358L492,357L489,357L486,356L485,356L485,355L485,353L485,352L488,348L493,343L501,337L508,331L515,324L520,319L525,313L528,309L530,307L531,306L532,305L533,305L536,308L539,311L544,316L550,322L555,328L562,336L568,343L574,350L579,356L584,362L587,366L590,370L592,374L594,377L595,379L596,382L596,383L597,384L597,385L597,386L595,387L590,390L584,393L577,396L570,401L562,405L555,409L548,413L543,416L540,418L537,420L535,421L534,421L534,420L534,419L534,417L534,414L534,411L534,407L534,404L534,401L534,397L534,394L534,391L534,388L534,384L534,382L534,379L533,377L532,375L531,373L530,372L528,370L526,368L524,366L522,364L520,362L518,360L515,358L513,357L510,355L508,354L505,353L502,352L499,350L496,350L493,349L490,348L487,348L483,348L480,347L477,347L474,346L471,346L467,346L464,345L460,345L457,345L453,345L450,344L446,344L443,343L439,343L436,342L433,340L430,339L428,338L426,337L424,336L422,335L421,334L420,333L419,333L419,332" stroke-opacity="1" stroke-width="5" stroke-linecap="round" stroke-linejoin="round" style="-webkit-tap-highlight-color: rgba(0, 0, 0, 0); stroke-opacity: 1; stroke-linecap: round; stroke-linejoin: round; -webkit-user-select: text;"></path><path fill="none" stroke="#000000" d="M401,318L397,313L395,313L391,311L387,308L383,304L379,298L376,293L373,288L370,283L366,277L363,272L361,268L358,265L356,261L354,259L352,257L351,256L350,256L349,256L348,256L346,257L343,260L338,264L331,269L323,275L315,280L307,286L298,292L290,297L285,300L280,303L277,305L274,307L273,307L273,308L273,309L275,311L279,315L283,321L288,327L293,334L298,340L302,347L305,353L307,357L309,360L310,362L311,362L312,362L313,360L317,354L323,347L329,339L336,331L345,320L352,311L359,302L365,294L370,288L373,284L375,280L376,278L377,277L377,276L377,275L377,274L375,272L373,270L370,266L367,262L363,255L358,248L352,240L347,232L342,224L338,218L335,213L332,208L329,205L327,202L325,202L324,201L323,201L322,201L320,203L317,207L312,213L305,220L298,227L291,234L286,239L282,243L279,245L277,247L276,248L275,248L275,249L275,250L275,251L275,252L276,254L279,257L283,262L288,269L295,275L303,283L311,291L320,299L329,310L339,320L346,328L353,336L357,341L360,345L361,346L363,348" stroke-opacity="1" stroke-width="5" stroke-linecap="round" stroke-linejoin="round" style="-webkit-tap-highlight-color: rgba(0, 0, 0, 0); stroke-opacity: 1; stroke-linecap: round; stroke-linejoin: round; -webkit-user-select: text;"></path><path fill="none" stroke="#000000" d="M381,384L383,384L384,387L387,390L390,394L393,399L396,403L399,407L400,411L401,413L402,416L402,417L402,418L400,419L397,421L392,423L386,427L380,430L373,434L366,438L359,441L354,443L349,445L345,447L341,448L339,448L338,449L337,449L337,450L336,450L336,451L335,451L334,451L333,451L332,451L331,449L330,445L329,440L327,436L326,432L324,429L323,427L322,425L322,424L321,423L321,422L321,421L322,421L324,420L329,418L336,416L345,413L353,410L359,409L363,407L367,406L368,406L369,406L370,406L371,407L371,409L373,411L375,415L379,420L383,427L386,434L390,441L392,446L395,452L396,457L397,461L398,464L399,467L399,469L399,470L399,471L398,472L397,472L396,473L394,474L392,475L389,477L385,479L382,481L377,483L373,484L369,486L366,486L362,486L359,486L356,486L353,486L350,486L346,486L343,484L340,483L337,481L334,480L331,479L328,477L324,475L321,474L318,472L315,472L312,471L310,470L307,469L304,469L301,468L298,468L295,467L292,467L289,467L286,467L283,467L280,467L278,468L275,469L272,471L270,473L268,476L267,478L266,481L264,484L263,486L262,488L261,490L261,491L260,492" stroke-opacity="1" stroke-width="5" stroke-linecap="round" stroke-linejoin="round" style="-webkit-tap-highlight-color: rgba(0, 0, 0, 0); stroke-opacity: 1; stroke-linecap: round; stroke-linejoin: round; -webkit-user-select: text;"></path><path fill="none" stroke="#000000" d="M285,435L281,436L279,436L276,436L271,435L266,433L263,431L258,430L254,429L250,429L246,428L243,428L239,428L235,428L231,428L227,429L222,430L218,431L214,431L209,431L204,431L200,431L195,431L190,431L185,431L181,431L177,431L174,430L172,429L170,428L169,428L169,427L168,427L167,427L167,426L167,425L167,423L167,421L169,416L175,407L182,399L188,390L195,382L201,374L206,367L209,363L211,360L213,357L213,356L214,355L214,356L215,358L216,360L217,366L220,374L222,384L224,396L226,407L228,418L229,428L231,435L232,440L232,444L233,447L233,448L233,449L232,449L231,450L227,451L222,452L217,454L211,456L203,460L196,464L190,467L185,470L181,472L178,474L176,475L175,475L174,475L174,474L174,472L174,470L177,465L183,457L193,447L203,438L213,428L223,419L232,410L239,402L246,396L251,391L254,387L256,384L258,382L259,380L259,379L259,378L259,377L259,376L258,373L255,370L252,365L249,359L245,352L239,344L234,336L229,328L226,322L223,317L221,313L219,310L217,307L216,307L215,306L214,305L213,305L212,305L210,305L206,306L198,310L189,314L180,319L173,322L165,326L159,328L155,329L152,331L150,331L149,331L149,332L149,333L149,334L149,335L151,338L154,343L160,349L166,358L174,370L182,382L191,394L198,406L204,415L210,423L214,430L217,434L220,436L221,437L222,437" stroke-opacity="1" stroke-width="5" stroke-linecap="round" stroke-linejoin="round" style="-webkit-tap-highlight-color: rgba(0, 0, 0, 0); stroke-opacity: 1; stroke-linecap: round; stroke-linejoin: round; -webkit-user-select: text;"></path><path fill="none" stroke="#000000" d="M188,505L191,507L191,510L193,514L197,520L202,526L208,534L215,541L220,547L225,553L229,557L233,562L234,565L236,567L237,568L237,569L237,570L235,571L232,573L228,576L222,580L216,585L210,591L205,595L201,599L198,602L195,604L193,605L191,607L190,607L189,607L188,607L188,606L186,604L183,599L179,592L174,585L168,580L163,574L158,571L154,569L151,567L149,565L147,564L148,564L154,564L162,563L173,561L186,559L198,557L210,555L221,553L232,551L240,548L248,546L253,545L256,544L258,543L259,542L260,542L261,544L262,546L264,549L267,555L269,562L271,568L273,574L273,579L273,584L274,587L274,589L274,591L274,592L273,592L272,592L271,592L270,592L268,592L264,592L258,592L251,592L242,591L234,591L227,589L220,588L215,586L210,585L206,582L202,580L199,578L196,576L194,574L192,571L191,568L189,564L188,561L186,557L185,554L184,552L183,550L183,547L182,545L181,542L181,539L180,535L179,532L178,528L177,525L175,522L174,518L172,515L171,513L169,510L167,508L165,506L164,503L161,501L159,500L157,498L154,496L151,495L149,494L146,493L142,492L139,491L136,490L134,489L132,489L131,489" stroke-opacity="1" stroke-width="5" stroke-linecap="round" stroke-linejoin="round" style="-webkit-tap-highlight-color: rgba(0, 0, 0, 0); stroke-opacity: 1; stroke-linecap: round; stroke-linejoin: round; -webkit-user-select: text;"></path><path fill="none" stroke="#000000" d="M121,460L118,460L115,460L112,460L108,460L104,460L100,460L95,460L91,458L87,457L84,455L81,453L78,451L76,449L73,446L71,442L69,439L67,435L65,431L64,427L63,423L62,419L62,415L62,411L62,406L62,402L62,399L62,395L63,390L65,386L67,382L68,378L69,373L71,369L72,364L74,359L76,354L79,349L80,345L82,340L83,337L84,335L84,334L84,333L83,333L81,335L77,337L72,339L67,340L62,343L54,345L48,348L43,350L38,352L34,354L31,355L29,355L28,356L27,356L27,357L27,358L27,360L28,362L30,364L33,368L36,374L40,380L44,387L47,395L51,402L54,409L57,413L59,417L61,421L62,422L63,423L64,423L65,423L66,423L68,422L72,418L78,414L85,407L92,400L99,394L105,389L111,382L117,377L121,371L125,367L127,365L128,362L129,362L130,361L128,361L125,361L118,362L108,366L98,370L87,374L76,378L67,382L58,386L51,389L46,392L42,395L40,396L39,398L39,399L39,400L39,401L39,402L39,404L39,406L39,410L40,415L41,423L43,430L45,438L47,446L49,454L51,461L53,467L55,472L57,476L58,479L59,481L60,482L61,482L62,482L63,482L64,482L67,479L72,474L79,468L87,461L94,452L102,445L109,437L114,431L118,427L122,424L124,421L125,420L126,419L128,418" stroke-opacity="1" stroke-width="5" stroke-linecap="round" stroke-linejoin="round" style="-webkit-tap-highlight-color: rgba(0, 0, 0, 0); stroke-opacity: 1; stroke-linecap: round; stroke-linejoin: round; -webkit-user-select: text;"></path><path fill="none" stroke="#000000" d="M127,315L121,311L119,309L117,305L114,301L110,295L107,289L102,283L98,276L93,270L89,263L85,258L82,253L79,250L76,247L74,244L73,243L71,241L70,240L70,239L70,238L71,236L76,233L83,227L89,223L95,218L101,214L105,211L110,208L113,206L115,204L117,203L118,203L119,204L121,207L123,210L127,215L130,221L134,228L137,233L139,238L141,242L142,246L142,248L143,250L143,251L143,252L142,253L140,254L137,256L132,258L126,262L119,266L110,271L103,275L96,279L88,283L82,286L78,289L74,291L72,292L70,292L69,292L68,291L67,289L67,287L65,284L64,277L62,269L59,260L57,251L54,243L52,234L49,227L47,221L45,215L44,212L43,208L42,205L42,204L42,203L42,202L43,201L45,201L48,200L52,200L57,200L64,199L72,197L83,195L93,192L104,189L115,186L126,184L135,182L144,179L151,178L156,176L159,175L162,175L164,175L164,176L164,178L166,181L168,186L171,192L173,199L175,206L177,212L179,219L181,226L182,231L183,236L184,240L185,244L185,249L185,253L185,257L183,260L180,264L178,267L175,269L172,270L169,271L166,272L163,272L159,272L155,272L152,272L148,272L144,272L140,270L137,268L133,266L130,264L125,260L122,258L119,254L116,250L113,246L110,243L108,240L106,237L104,233L102,229L100,224L98,218L97,214L96,209L94,204L94,200L93,195L93,190L93,186L92,182L91,177L91,172L90,166L89,162L88,158L86,153L85,149L83,146L81,142L79,139L78,137L77,136L76,134L75,134L75,133" stroke-opacity="1" stroke-width="5" stroke-linecap="round" stroke-linejoin="round" style="-webkit-tap-highlight-color: rgba(0, 0, 0, 0); stroke-opacity: 1; stroke-linecap: round; stroke-linejoin: round; -webkit-user-select: text;"></path><path fill="none" stroke="#000000" d="M119,145L119,140L121,138L124,136L128,133L133,131L140,128L145,124L152,121L159,117L167,114L174,110L182,107L189,103L195,99L201,96L206,93L209,91L212,90L214,89L215,89L216,90L218,93L220,97L224,102L227,108L230,115L234,121L236,126L238,131L240,135L242,138L242,140L243,142L243,143L243,144L241,144L238,145L233,146L228,148L222,151L215,154L211,157L206,161L203,163L200,164L198,166L196,166L195,166L194,166L193,166L192,166L191,164L189,161L187,157L183,151L181,143L177,135L172,125L168,115L164,106L161,98L158,90L156,85L154,81L153,78L152,75L152,73L152,72L152,71L152,70L153,69L159,66L168,62L178,58L191,54L206,49L220,44L231,40L242,37L251,34L258,32L263,31L268,31L270,30L271,30L271,32L271,34L271,36L271,38L271,41L270,46L268,53L265,60L261,67L257,73L254,78L250,83L247,88L244,93L241,97L239,101L236,105L234,109L231,113L229,116L226,119L224,122L222,124L220,125L219,127L218,127L217,127L217,128L217,129L217,130L217,133L218,136L220,141L222,145L223,151L225,155L227,159L229,163L231,166L233,169L235,171L238,173L240,175L243,177L246,178L249,180L251,181L254,182L257,183L260,183L263,183L266,183L268,183L272,183L275,183L278,183L280,183L283,183L287,181L289,179L292,177L294,175L296,172L298,170L299,167L300,164L301,161L302,158L303,154L303,151L304,148L304,145L305,141L305,138L305,135L305,132L305,128L305,124L305,119L306,115L306,111L307,107L307,105L308,102L309,100L309,98L309,97L310,96" stroke-opacity="1" stroke-width="5" stroke-linecap="round" stroke-linejoin="round" style="-webkit-tap-highlight-color: rgba(0, 0, 0, 0); stroke-opacity: 1; stroke-linecap: round; stroke-linejoin: round; -webkit-user-select: text;"></path><path fill="none" stroke="#000000" d="M608,68L610,64L610,62L611,60L614,58L617,56L621,54L626,53L632,52L637,51L642,51L648,51L653,51L659,51L664,51L669,53L675,54L680,57L686,60L690,63L695,66L700,69L704,73L708,75L713,77L717,79L721,80L725,81L729,81L732,82L734,82L735,82L735,83L735,82L734,79L733,76L732,71L731,66L730,60L729,56L728,49L726,44L725,40L724,35L723,32L723,29L722,27L721,25L720,25L719,25L718,25L717,25L714,26L710,28L706,31L699,34L693,37L688,40L682,43L676,45L670,47L665,49L659,51L655,53L652,55L649,56L648,57L648,58L648,59L648,61L648,63L650,66L652,71L653,76L656,82L658,89L660,95L662,101L664,107L666,113L667,117L668,121L669,124L670,126L671,127L672,128L672,129L673,129L674,129L675,129L677,129L680,129L684,129L690,128L699,126L707,124L715,122L724,119L732,117L739,115L745,113L750,112L754,111L757,110L759,110L761,109L762,109L762,110L763,111L763,113L764,115L764,119L765,123L767,128L767,132L768,137L769,142L769,146L770,151L770,154L771,156L771,158L771,159L771,160L770,161L769,161L768,161L767,162L764,163L760,165L756,167L752,168L747,171L743,173L739,175L735,177L732,179L729,180L726,181L724,182L722,182L721,182L719,182L718,182L717,181L716,180L714,179L712,177L711,175L709,172L707,168L705,164L703,161L701,157L700,154L699,151L698,148L698,144L697,140L697,136L697,132L697,128L697,124L697,121L698,117L699,114L700,110L702,107L705,102L707,98L709,95L712,91L715,87L718,84L720,80L723,77L727,73L730,69L732,66L734,63L737,59L738,56L740,54L741,51L742,48L742,45L743,43L743,41L744,40L744,39L746,39" stroke-opacity="1" stroke-width="5" stroke-linecap="round" stroke-linejoin="round" style="-webkit-tap-highlight-color: rgba(0, 0, 0, 0); stroke-opacity: 1; stroke-linecap: round; stroke-linejoin: round; -webkit-user-select: text;"></path><path fill="none" stroke="#000000" d="M801,77L803,78L806,79L810,82L815,86L821,90L828,94L835,98L842,102L848,106L852,109L858,112L862,114L866,116L868,117L870,118L871,119L871,120L871,121L871,122L870,125L868,129L866,133L862,140L859,147L855,154L851,161L847,168L843,175L840,180L836,185L834,188L832,190L830,192L829,192L829,190L829,186L829,178L831,168L834,158L837,147L840,137L843,127L847,117L851,107L854,100L858,93L861,88L863,83L865,80L867,77L868,75L868,74L868,73L866,73L864,73L859,73L854,73L848,72L843,71L837,70L832,69L827,68L823,68L820,68L818,68L817,68L816,68L816,69L815,73L815,79L814,86L814,95L813,105L812,118L810,129L808,140L807,148L806,155L805,160L804,163L804,166L804,167L805,167L808,167L813,167L820,167L829,167L838,167L846,167L856,167L864,167L871,167L877,167L882,166L887,166L890,166L892,166L893,166L894,166L894,167L894,169L894,170L895,173L895,176L896,180L896,184L897,188L897,192L898,197L898,201L898,205L898,210L896,214L893,219L890,224L887,228L883,231L879,235L876,238L872,241L868,244L863,246L859,249L855,251L851,253L846,256L841,258L835,260L830,263L826,265L822,266L817,269L813,271L809,274L806,276L802,278L799,281L797,283L795,286L793,288L791,291L790,292L789,294L788,295L788,296L787,296" stroke-opacity="1" stroke-width="5" stroke-linecap="round" stroke-linejoin="round" style="-webkit-tap-highlight-color: rgba(0, 0, 0, 0); stroke-opacity: 1; stroke-linecap: round; stroke-linejoin: round; -webkit-user-select: text;"></path><path fill="none" stroke="#000000" d="M788,223L784,225L782,225L779,227L776,229L772,230L768,231L762,234L756,237L750,240L745,244L740,249L735,254L732,258L728,263L725,268L723,273L722,279L720,284L719,289L718,295L717,300L716,306L715,310L714,315L713,320L711,324L710,328L708,332L707,335L706,337L706,338L705,339L709,338L714,335L720,333L726,331L733,330L740,328L746,327L753,326L759,326L764,325L769,324L774,324L776,323L778,323L779,322L779,321L778,319L776,316L772,312L769,307L764,301L759,295L756,291L752,287L747,281L743,276L740,270L737,266L734,263L731,260L729,258L728,256L727,256L726,255L725,255L723,256L720,259L716,263L711,266L704,270L697,275L690,279L683,283L678,286L674,288L671,290L669,292L668,293L668,294L668,295L668,296L668,298L668,302L670,307L672,313L675,321L679,328L682,336L685,344L689,351L692,359L694,366L696,372L699,378L700,384L701,387L701,390L702,392L703,392L704,392L705,392L706,392L710,389L715,387L720,384L727,380L736,375L745,370L753,367L761,364L769,361L775,358L781,357L785,355L789,354L791,353L793,353L793,352L794,352L795,353L795,354L796,357L796,360L797,364L798,369L798,374L799,379L799,384L799,388L799,392L799,395L799,398L799,400L797,403L796,405L793,407L791,410L788,413L786,415L784,418L781,420L779,421L777,423L775,425L774,426L772,427L771,428L770,428L769,428L769,429L768,429L767,429L766,429L765,429L764,429L764,428" stroke-opacity="1" stroke-width="5" stroke-linecap="round" stroke-linejoin="round" style="-webkit-tap-highlight-color: rgba(0, 0, 0, 0); stroke-opacity: 1; stroke-linecap: round; stroke-linejoin: round; -webkit-user-select: text;"></path><path fill="none" stroke="#000000" d="M628,442L624,439L627,443L632,447L639,452L647,459L655,466L662,473L668,478L672,483L675,486L677,489L679,491L679,492L679,493L680,493L680,494L678,495L674,497L667,502L659,508L651,515L644,522L638,529L633,535L629,540L626,543L624,547L622,548L621,548L621,547L621,543L621,535L624,522L631,508L639,495L647,482L654,471L660,462L664,455L666,450L667,447L668,446L669,445L670,445L672,445L676,447L683,451L691,456L698,460L704,464L709,467L714,470L718,472L721,475L724,477L726,478L728,480L728,481L729,481L729,482L729,484L729,486L725,492L719,501L713,510L706,519L700,528L696,534L693,539L691,543L689,547L687,550L686,552L685,553L684,553L683,553L682,553L681,553L680,553L679,552L677,551L676,549L674,547L672,544L670,540L667,536L663,532L661,528L659,525L657,523L655,520L654,518L653,517L651,514L650,512L647,508L645,505L641,501L637,498L632,494L627,491L622,489L618,489L613,488L609,487L604,487L599,487L593,487L587,487L582,487L576,487L571,487L566,487L561,487L557,485L553,484L550,482L548,481L545,479L544,478L543,478L543,477" stroke-opacity="1" stroke-width="5" stroke-linecap="round" stroke-linejoin="round" style="-webkit-tap-highlight-color: rgba(0, 0, 0, 0); stroke-opacity: 1; stroke-linecap: round; stroke-linejoin: round; -webkit-user-select: text;"></path><path fill="none" stroke="#000000" d="M473,459L475,463L477,467L479,472L482,478L485,484L489,491L492,498L494,505L496,510L498,513L499,516L499,518L500,519L500,520L497,522L493,525L487,530L478,535L469,542L459,547L450,553L442,558L436,562L433,564L430,565L429,566L428,566L428,565L428,564L428,560L428,554L427,546L427,535L426,523L424,513L422,506L421,502L419,499L419,497L422,497L429,497L438,497L450,498L461,500L472,503L483,506L491,508L498,510L502,511L506,512L508,512L509,513L510,513L510,510L510,505L510,498L510,490L510,483L510,477L510,471L510,465L510,461L510,457L511,454L511,452L511,450L511,449L510,449L508,449L504,449L499,449L492,449L484,449L475,450L467,451L460,452L455,452L452,452L450,452L450,453L450,455L450,457L450,460L451,464L453,470L455,479L458,490L461,501L465,513L468,525L471,535L473,542L475,550L477,555L479,560L480,564L481,567L482,569L482,571L482,572L483,573L483,574L484,574L485,574L486,574L489,574L492,573L497,572L502,572L507,571L511,571L515,571L519,571L523,571L526,571L530,573L533,575L536,577L540,579L543,581L546,584L549,586L553,589L557,592L561,595L565,597L570,599L573,601L578,602L582,603L587,603L592,603L597,603L601,603L603,603L604,603L605,601L606,601" stroke-opacity="1" stroke-width="5" stroke-linecap="round" stroke-linejoin="round" style="-webkit-tap-highlight-color: rgba(0, 0, 0, 0); stroke-opacity: 1; stroke-linecap: round; stroke-linejoin: round; -webkit-user-select: text;"></path><path fill="none" stroke="#000000" d="M774,494L771,491L774,491L778,490L783,490L788,490L793,490L799,490L806,493L812,496L817,498L823,500L828,502L832,503L837,505L841,506L845,507L848,508L850,508L852,509L853,510L853,508L853,504L852,499L851,491L850,485L849,480L849,476L849,473L849,472L849,470L849,469L849,468L848,467L847,467L845,467L841,468L834,470L827,473L820,475L814,477L810,478L808,479L806,479L805,479L805,480L805,481L805,483L805,487L806,493L808,501L809,511L811,520L813,529L813,536L814,543L814,548L815,553L815,557L815,559L815,561L815,562L816,562L817,562L821,562L827,559L834,557L842,555L852,552L862,549L870,546L877,543L885,540L890,539L895,537L899,535L901,534L903,533L903,532L903,531L903,530L903,528L903,526L903,523L901,518L899,513L897,509L895,506L894,502L892,499L889,496L884,491L879,486L874,481L870,478L867,476L863,473L859,471L856,469L853,467L850,465L847,463L844,460L842,457L839,455L836,452L834,449L832,446L830,443L829,440L827,437L826,433L825,430L825,428L825,425L825,422L825,420L825,418L825,416L825,414L825,413L825,412" stroke-opacity="1" stroke-width="5" stroke-linecap="round" stroke-linejoin="round" style="-webkit-tap-highlight-color: rgba(0, 0, 0, 0); stroke-opacity: 1; stroke-linecap: round; stroke-linejoin: round; -webkit-user-select: text;"></path><path fill="none" stroke="#000000" d="M857,386L854,383L854,380L854,377L853,374L853,370L853,367L853,362L853,357L853,352L854,347L857,342L862,336L867,331L872,326L878,321L884,317L891,312L896,308L901,303L905,298L909,294L911,292L913,289L914,288L914,287L915,287L913,287L911,287L906,287L899,288L891,289L881,290L871,291L861,292L855,294L849,294L845,295L842,295L841,295L841,296L841,297L841,299L842,302L844,307L847,314L852,324L857,334L862,345L866,356L869,366L871,374L872,379L873,383L873,385L874,386L875,385L876,384L879,383L886,380L894,377L903,374L913,370L922,365L929,362L937,358L942,355L945,353L948,351L948,350L946,349L943,349L939,348L932,345L923,344L909,343L895,343L881,343L867,344L855,345L846,347L838,348L834,349L830,349L829,349L828,349L827,349L827,348L827,347L826,345L826,343L825,341L825,338L825,335L825,332L825,328L825,324L825,319L826,313L827,306L828,299L829,293L830,288L830,282L831,277L831,272L832,268L832,264L832,261L833,259L833,258L833,257L833,256L835,257" stroke-opacity="1" stroke-width="5" stroke-linecap="round" stroke-linejoin="round" style="-webkit-tap-highlight-color: rgba(0, 0, 0, 0); stroke-opacity: 1; stroke-linecap: round; stroke-linejoin: round; -webkit-user-select: text;"></path></svg>