<svg height="650" version="1.1" width="1024" xmlns="http://www.w3.org/2000/svg" xmlns:xlink="http://www.w3.org/1999/xlink" style="overflow: hidden; position: relative; -webkit-user-select: text;"><desc style="-webkit-tap-highlight-color: rgba(0, 0, 0, 0); -webkit-user-select: text;">Created with Raphaël 2.2.0</desc><defs style="-webkit-tap-highlight-color: rgba(0, 0, 0, 0); -webkit-user-select: text;"></defs><path fill="none" stroke="#000000" d="M138,170L140,168L143,168L146,166L150,163L155,161L161,157L168,153L174,150L181,146L189,141L197,136L204,133L212,128L221,123L228,119L235,115L240,112L244,110L248,108L250,107L251,106L252,106L252,107L252,110L252,113L250,118L248,125L246,131L244,139L242,146L239,154L237,162L235,170L234,176L232,182L231,188L230,192L229,197L228,200L228,203L227,204L226,204L225,204L223,200L220,195L216,190L213,185L209,178L205,171L201,164L197,158L193,151L190,144L187,138L184,133L182,129L180,125L178,122L176,119L176,118L175,117L176,117L180,117L184,117L189,119L195,120L202,123L209,126L216,129L224,131L231,135L239,139L246,143L254,147L260,151L266,154L272,157L276,159L280,161L283,162L285,163L286,164L286,165L286,166L286,168L285,170L283,175L280,180L277,185L273,192L270,199L266,206L262,214L259,221L256,228L253,233L251,238L249,242L247,246L246,247L245,248L244,249L243,249L242,249L240,249L238,249L234,248L230,245L225,242L220,238L215,235L208,231L202,228L197,225L191,221L186,217L181,214L177,211L174,209L170,207L168,205L166,204L166,203L166,202L166,201L166,200L168,200L171,199L176,197L183,194L191,190L200,186L210,182L221,177L234,170L246,163L256,158L266,152L276,146L284,141L291,137L298,134L302,131L305,130L307,129L308,128L309,128L309,127L310,127L311,127L312,127L313,127L315,128L317,129L319,131L321,133L324,136L326,138L328,140L330,143L332,146L334,149L335,152L336,155L336,158L337,162L337,166L337,169L337,173L337,176L337,180L337,183L336,186L334,190L332,193L331,197L329,200L326,204L324,207L322,211L319,214L317,217L315,221L313,224L311,228L308,231L306,234L304,237L302,241L301,244L300,247L298,250L298,253L297,256L297,259L296,261L296,264L296,267L296,269L296,271L296,273L296,275L296,276L296,277L295,277" stroke-opacity="1" stroke-width="5" stroke-linecap="round" stroke-linejoin="round" style="-webkit-tap-highlight-color: rgba(0, 0, 0, 0); stroke-opacity: 1; stroke-linecap: round; stroke-linejoin: round; -webkit-user-select: text;"></path><path fill="none" stroke="#000000" d="M246,319L243,324L243,326L243,330L242,334L242,338L242,343L242,348L242,352L242,357L242,362L243,366L244,370L246,375L249,379L252,383L255,388L259,394L262,400L266,406L269,413L273,420L276,426L278,433L280,438L282,444L284,450L285,454L286,458L286,460L287,462L288,463L288,462L288,460L289,456L290,452L293,447L295,440L298,433L302,425L305,418L308,409L312,401L315,394L318,386L320,381L322,377L323,373L324,372L324,371L324,370L322,370L319,371L315,373L310,375L304,379L297,382L290,387L284,390L278,394L272,399L266,403L260,407L255,411L251,414L246,418L243,420L239,423L237,425L235,426L233,427L232,427L231,427L229,427L228,427L227,425L224,423L221,420L217,416L214,413L210,409L205,405L202,401L198,397L194,394L191,391L188,388L185,385L183,384L182,382L181,382L181,381L181,380L181,379L182,379L185,378L189,376L195,373L202,370L210,367L218,364L227,360L237,357L247,353L257,349L267,345L275,343L283,339L290,336L295,334L299,332L302,331L303,330L304,330L305,329L305,328L304,328L303,326L301,324L300,322L297,319L294,316L291,312L288,309L284,305L281,302L278,298L274,295L271,292L268,289L266,287L263,285L261,283L259,282L257,280L256,280L255,280L254,280L253,280L252,281L250,283L246,286L240,290L234,295L228,300L222,304L216,309L211,311L207,315L203,317L201,319L200,320L199,321L199,322L199,323L199,324L199,325L200,327L203,329L205,331L207,333L210,336L213,339L217,342L221,345L225,347L229,350L233,352L237,354L241,356L244,358L249,361L253,363L258,365L262,368L266,370L270,372L273,375L277,376L280,378L284,379L287,381L290,383L293,384L297,386L300,387L302,389L305,390L307,391L310,392L312,393L313,394L315,394L316,396L318,396L319,398L321,399L322,400L324,401L325,402L326,403L327,404L328,405L329,406L330,407L332,409L333,410L334,412L335,413L336,414L337,416L338,417L339,418L339,420L340,421L341,422L342,424L342,426L343,427L344,429L344,430L345,432L346,433L346,435L346,437L347,439L347,440L348,442L348,444L349,446L349,448L349,450L350,453L350,455L350,457L351,459L351,461L351,463L351,464L351,465L351,463" stroke-opacity="1" stroke-width="5" stroke-linecap="round" stroke-linejoin="round" style="-webkit-tap-highlight-color: rgba(0, 0, 0, 0); stroke-opacity: 1; stroke-linecap: round; stroke-linejoin: round; -webkit-user-select: text;"></path><path fill="none" stroke="#000000" d="M357,351L359,350L362,350L366,353L371,356L375,360L381,365L385,370L388,374L392,379L395,384L398,389L400,395L403,401L405,407L407,413L408,418L409,423L410,428L411,433L412,437L412,439L412,441L413,442L414,442L414,440L416,435L417,430L420,424L422,418L425,413L427,407L431,400L434,394L438,386L441,378L444,371L446,366L449,359L451,353L453,348L455,344L456,340L457,338L458,338L458,337L457,337L454,339L448,344L441,350L434,358L427,365L420,372L414,379L408,386L403,393L398,399L394,406L390,412L386,416L384,420L381,422L380,423L379,423L378,423L376,419L374,415L371,409L368,402L364,396L361,390L358,384L354,378L351,372L349,367L346,362L344,359L342,355L341,353L340,351L340,349L340,348L340,346L340,345L340,343L341,341L344,339L348,336L352,332L358,327L363,323L370,319L377,314L385,309L393,304L400,299L406,296L412,292L418,289L423,286L427,283L430,281L431,280L433,278L433,277L433,276L433,275L433,274L433,272L431,269L430,266L427,261L425,257L422,252L419,247L417,241L414,236L412,231L410,226L408,222L407,219L406,217L405,215L404,214L403,214L402,215L401,217L398,220L394,224L390,228L384,233L379,238L374,244L370,249L367,254L363,259L360,263L358,266L356,269L354,271L353,272L353,273L353,274L354,274L356,275L358,277L362,279L366,282L373,286L379,290L387,294L395,299L404,303L412,308L421,312L430,316L440,320L448,325L456,328L463,332L470,336L475,338L480,340L483,341L485,342L487,342L487,343L488,343L488,344L489,345L490,347L491,348L492,350L492,351L494,353L494,355L496,356L497,358L498,360L499,363L500,365L501,368L502,371L502,374L503,377L503,380L504,383L504,386L504,389L504,391L504,393L504,395L504,398L504,401L504,402" stroke-opacity="1" stroke-width="5" stroke-linecap="round" stroke-linejoin="round" style="-webkit-tap-highlight-color: rgba(0, 0, 0, 0); stroke-opacity: 1; stroke-linecap: round; stroke-linejoin: round; -webkit-user-select: text;"></path><path fill="none" stroke="#000000" d="M524,288L521,283L519,281L516,277L512,274L508,270L504,266L500,262L496,258L492,254L488,251L485,248L482,245L479,243L476,240L474,238L472,237L471,236L470,235L470,234L469,234L469,233L469,232L469,231L469,230L470,229L472,228L475,225L480,221L485,217L491,212L499,206L507,200L514,194L522,188L528,184L533,180L537,177L541,175L543,173L544,173L545,172L545,173L546,175L546,178L547,182L548,188L550,194L552,202L553,208L555,214L557,220L558,225L559,229L560,232L560,235L561,236L561,237L561,238L560,238L558,238L555,237L552,235L547,231L541,227L535,222L528,216L522,211L516,204L510,197L504,190L499,184L494,177L490,171L487,166L485,163L482,159L480,158L479,157L478,156L477,156L476,156L474,156L472,156L468,158L462,161L455,164L448,168L441,171L436,174L431,175L429,177L426,178L426,179L426,180L426,181L426,182L426,184L427,188L429,193L432,201L435,209L439,219L442,227L445,236L448,243L451,251L454,258L456,263L459,269L461,273L463,277L465,279L466,281L467,282L468,282L469,282L470,282L471,281L473,281L474,280L476,278L478,276L482,275L485,272L489,271L493,269L498,268L503,267L507,266L512,266L516,266L520,266L524,266L528,267L532,269L536,271L541,274L545,277L548,281L552,285L555,289L558,293L560,298L563,303L565,308L566,314L567,319L568,324L570,330L570,334L572,339L573,343L575,347L576,350L578,355L580,358L582,361L585,364L587,366L591,369L596,370L602,371" stroke-opacity="1" stroke-width="5" stroke-linecap="round" stroke-linejoin="round" style="-webkit-tap-highlight-color: rgba(0, 0, 0, 0); stroke-opacity: 1; stroke-linecap: round; stroke-linejoin: round; -webkit-user-select: text;"></path><path fill="none" stroke="#000000" d="M621,293L626,290L631,290L637,289L643,287L652,286L662,283L672,280L683,276L693,273L701,270L707,268L712,267L715,265L717,265L718,264L718,265L718,267L717,271L715,278L713,285L710,294L706,305L702,314L698,324L694,334L691,340L689,346L687,349L685,352L684,353L682,350L681,345L679,340L677,332L674,324L673,315L671,305L671,293L670,280L670,270L670,262L670,254L670,248L670,243L670,240L670,237L670,235L670,234L670,233L669,232L667,232L664,231L659,231L653,231L647,230L640,230L633,229L627,229L620,228L615,227L610,226L606,225L603,225L601,224L601,227L601,231L601,238L602,247L604,256L605,267L606,277L608,287L609,297L611,307L612,314L613,320L614,325L615,328L615,331L616,333L617,333L618,333L619,331L621,330L624,326L628,323L631,319L635,316L639,312L643,309L648,305L652,301L656,297L660,293L664,289L667,285L670,280L674,274L676,269L678,265L680,260L682,255L683,251L684,246L684,242L685,238L685,234L686,229L686,225L686,221L686,217L686,213L686,209L686,204L686,200L686,196L686,191L687,186L688,181L689,175L690,171L691,167L692,163L693,160L694,158L695,156L696,154L696,153L696,152L696,151L697,151" stroke-opacity="1" stroke-width="5" stroke-linecap="round" stroke-linejoin="round" style="-webkit-tap-highlight-color: rgba(0, 0, 0, 0); stroke-opacity: 1; stroke-linecap: round; stroke-linejoin: round; -webkit-user-select: text;"></path><path fill="none" stroke="#000000" d="M618,126L616,123L619,121L623,119L628,115L635,112L645,107L654,104L664,99L674,95L684,91L691,87L699,83L704,81L708,79L711,78L712,78L713,77L713,78L713,80L714,83L716,86L717,90L719,95L721,100L723,104L725,108L726,111L727,114L727,115L728,116L728,117L727,117L725,117L721,117L713,120L703,124L693,129L682,135L670,143L662,150L652,157L645,163L640,168L636,170L634,172L633,173L632,173L632,170L632,166L632,160L632,153L632,145L632,137L632,126L632,116L632,106L632,96L633,88L633,83L633,77L634,72L634,68L634,66L634,65L633,65L632,64L628,64L623,64L616,64L608,64L600,64L594,64L587,63L581,61L576,61L572,61L569,60L568,60L567,60L567,61L567,64L567,68L568,73L569,79L570,88L572,95L573,104L575,112L576,119L577,127L579,133L581,140L582,144L584,149L584,153L586,156L587,158L588,159L589,159L590,158L591,158L592,156L594,154L598,151L602,147L606,144L611,141L618,137L624,134L631,131L637,129L644,127L652,126L658,125L664,125L671,125L677,125L682,126L687,128L691,130L696,133L699,136L703,141L707,145L711,149L714,154L717,158L719,163L722,168L725,173L728,178L730,183L733,188L736,193L739,198L742,203L745,207L748,210L752,213L757,215L760,217L764,218L767,219L769,219L769,220L770,220" stroke-opacity="1" stroke-width="5" stroke-linecap="round" stroke-linejoin="round" style="-webkit-tap-highlight-color: rgba(0, 0, 0, 0); stroke-opacity: 1; stroke-linecap: round; stroke-linejoin: round; -webkit-user-select: text;"></path><path fill="none" stroke="#000000" d="M753,157L757,154L761,153L767,151L775,149L784,146L794,142L803,138L812,134L820,131L825,129L828,127L831,127L832,126L833,126L833,127L833,130L833,134L833,141L833,148L833,156L833,166L833,175L833,183L834,192L834,199L834,205L835,209L835,212L835,214L833,214L830,214L827,215L824,217L820,218L816,220L813,222L810,223L807,224L806,224L804,224L803,224L802,224L802,221L802,217L801,213L801,208L801,202L800,194L799,185L798,175L797,166L796,158L794,149L793,141L792,135L791,129L790,123L788,118L788,114L787,111L786,109L786,108L786,107L786,106L788,106L793,105L800,103L809,101L818,98L826,95L834,93L839,92L843,90L847,89L850,88L853,87L854,87L855,86L856,86L857,86L858,87L858,88L860,90L862,94L865,97L869,103L873,109L877,115L882,121L887,127L890,131L893,135L896,138L897,140L898,142L898,143L898,144L898,146L898,148L898,150L896,152L893,155L889,158L884,161L879,163L874,166L867,168L861,170L856,170L850,172L845,174L838,177L832,180L827,184L822,188L818,192L813,197L810,203L807,207L804,213L801,219L799,224L797,230L796,235L796,240L796,245L796,249L796,254L796,258L797,262L799,266L801,270L802,274L803,277L804,281L805,283L805,286L805,288L805,289L806,289" stroke-opacity="1" stroke-width="5" stroke-linecap="round" stroke-linejoin="round" style="-webkit-tap-highlight-color: rgba(0, 0, 0, 0); stroke-opacity: 1; stroke-linecap: round; stroke-linejoin: round; -webkit-user-select: text;"></path><path fill="none" stroke="#000000" d="M757,314L757,313L761,314L767,319L774,323L781,327L789,330L796,333L802,336L806,337L810,339L812,340L813,341L813,342L813,343L813,344L813,346L812,348L811,350L810,354L808,358L806,363L803,371L800,377L796,384L793,391L791,395L789,399L787,403L785,406L784,408L784,409L783,410L782,410L781,410L779,409L776,406L771,401L766,396L761,393L756,390L751,386L746,384L741,381L736,378L731,375L726,373L723,371L720,370L718,369L718,368L718,367L718,366L720,366L725,364L733,361L742,357L752,353L763,349L775,345L787,340L798,336L810,331L822,326L832,322L838,319L842,318L844,316L845,316L845,315L844,315L843,314L841,313L839,311L835,306L831,300L827,294L823,288L820,281L816,275L812,268L808,263L805,259L803,256L801,253L799,252L798,252L798,251L797,251L796,251L795,252L792,255L786,259L776,265L767,270L757,275L749,279L743,282L739,284L737,285L735,286L735,287L735,288L736,289L737,291L739,294L742,298L746,305L751,314L756,322L761,330L766,337L770,344L774,350L777,354L781,358L784,360L786,362L788,365L790,367L792,371L794,375L796,378L797,382L798,386L800,390L801,395L801,399L802,404L803,409L803,414L803,418L803,423L803,427L803,430L803,434L802,438L801,441L800,443L799,446L798,447L797,449L797,450L796,450L794,450" stroke-opacity="1" stroke-width="5" stroke-linecap="round" stroke-linejoin="round" style="-webkit-tap-highlight-color: rgba(0, 0, 0, 0); stroke-opacity: 1; stroke-linecap: round; stroke-linejoin: round; -webkit-user-select: text;"></path><path fill="none" stroke="#000000" d="M727,422L721,424L718,426L713,431L708,436L703,442L698,446L692,451L686,456L681,461L676,464L672,467L669,470L667,472L666,472L665,472L664,470L663,467L662,462L660,457L657,450L655,445L652,437L650,430L648,424L646,420L645,415L643,412L643,409L643,408L643,407L643,406L648,404L655,401L662,397L667,395L672,393L676,392L679,391L681,390L682,390L683,391L683,392L683,395L684,399L686,405L688,413L691,421L694,429L697,437L700,444L702,449L705,455L706,461L708,465L709,468L709,471L710,474L710,475L710,476L710,477L708,477L707,477L704,477L701,477L695,477L688,477L681,477L672,478L663,479L655,481L647,483L639,485L630,488L623,490L615,492L610,494L606,495L601,496L599,497L597,498L596,498L596,497L596,496L597,495L600,492L604,488L607,484L611,479L614,474L618,470L621,465L623,460L624,456L626,452L626,448L626,445L626,441L626,438L626,434L623,431L621,428L618,425L616,422L613,420L609,418L606,416L601,413L598,411L594,410L590,408L586,406L582,405L579,403L575,401L572,399L568,397L565,395L562,393L560,391L558,388L556,385L554,382L552,379L550,376L549,374L548,372L548,371L548,370" stroke-opacity="1" stroke-width="5" stroke-linecap="round" stroke-linejoin="round" style="-webkit-tap-highlight-color: rgba(0, 0, 0, 0); stroke-opacity: 1; stroke-linecap: round; stroke-linejoin: round; -webkit-user-select: text;"></path><path fill="none" stroke="#000000" d="M530,396L533,398L536,399L540,403L544,407L547,412L549,418L550,425L551,432L552,438L552,445L552,451L552,457L550,463L548,469L544,476L542,480L538,486L535,490L532,495L529,499L526,504L524,509L522,514L521,518L520,524L519,528L518,533L518,537L518,541L518,545L518,549L518,552L518,554L518,556L518,557L517,557L515,557L512,554L507,552L502,549L496,547L490,544L486,543L481,541L477,540L472,538L469,537L465,535L462,533L460,532L458,531L458,530L457,530L457,529L457,528L458,527L460,523L466,516L472,508L478,501L484,494L490,486L494,480L498,476L501,473L503,472L505,471L506,470L507,470L508,470L509,472L511,475L514,478L520,483L526,489L534,495L543,501L551,508L559,515L567,521L572,526L578,531L582,534L584,537L586,538L587,540L587,541L587,542L587,544L586,546L584,550L581,554L577,560L574,566L570,571L567,576L563,581L561,584L558,588L557,591L555,593L554,595L553,596L552,596L551,595L550,592L548,587L545,580L543,571L541,565L540,559L539,554L538,548L538,540L538,530L538,516L538,503L538,493L538,483L538,476L537,470L537,465L536,462L536,459L535,457L535,455L534,454L534,452L533,452L533,451L532,451L531,451L530,451L529,451L527,451L524,451L519,451L514,451L507,451L497,451L489,451L481,451L473,451L465,453L458,456L453,460L448,463L443,467L439,470L436,472L434,474L432,476L431,477L430,477L430,479" stroke-opacity="1" stroke-width="5" stroke-linecap="round" stroke-linejoin="round" style="-webkit-tap-highlight-color: rgba(0, 0, 0, 0); stroke-opacity: 1; stroke-linecap: round; stroke-linejoin: round; -webkit-user-select: text;"></path><path fill="none" stroke="#000000" d="M222,537L226,533L230,533L237,531L244,529L252,527L261,525L270,524L279,523L289,521L298,519L305,518L311,517L316,517L318,517L320,517L320,518L320,520L320,523L320,529L320,537L320,546L320,557L320,567L320,576L320,586L320,592L320,597L320,601L320,603L319,603L318,603L317,603L316,602L313,598L307,592L302,583L295,574L288,564L282,555L276,547L270,539L264,532L259,526L255,521L251,516L248,512L245,508L242,505L241,502L240,500L240,499L242,498L248,496L256,494L267,491L278,488L291,485L303,482L315,480L324,478L331,477L335,477L338,477L339,477L340,477L340,479L340,480L340,482L340,485L341,490L343,497L346,507L350,518L353,528L356,539L359,547L361,556L363,564L365,569L366,574L367,577L367,579L368,579L367,579L366,579L365,579L361,577L357,575L352,574L347,571L341,569L337,566L332,563L328,561L324,558L319,555L315,553L310,551L305,549L300,547L295,546L290,546L285,545L280,545L276,545L271,545L266,545L262,545L258,545L253,545L249,545L244,545L239,545L235,545L230,545L227,545L222,544L219,542L214,540L210,537L205,535L201,532L197,528L193,525L189,523L186,520L183,518L181,516L179,515L179,514L179,513" stroke-opacity="1" stroke-width="5" stroke-linecap="round" stroke-linejoin="round" style="-webkit-tap-highlight-color: rgba(0, 0, 0, 0); stroke-opacity: 1; stroke-linecap: round; stroke-linejoin: round; -webkit-user-select: text;"></path><path fill="none" stroke="#000000" d="M79,437L82,432L87,430L93,426L100,423L104,420L108,417L112,415L115,413L117,412L118,411L119,411L119,412L119,414L119,418L119,424L119,433L120,443L121,453L122,466L123,478L123,491L124,501L124,511L124,518L124,523L124,526L123,528L122,528L121,528L118,526L113,522L107,517L100,513L94,508L88,504L81,501L74,496L68,493L61,489L55,485L50,483L47,481L44,479L43,478L43,477L43,476L45,475L51,473L60,469L72,465L88,460L103,456L116,454L130,451L143,448L152,446L160,444L166,443L169,441L170,440L171,440L171,439L171,438L170,435L167,428L164,420L161,412L157,403L154,395L150,388L147,381L144,374L141,369L139,365L137,362L135,360L134,359L133,359L132,359L130,359L127,359L122,361L114,365L105,370L97,375L90,378L83,382L77,385L74,387L71,389L70,389L70,390L71,391L71,392L72,394L73,396L74,398L76,402L77,407L79,413L80,418L81,424L84,430L85,436L87,442L89,447L91,452L94,457L97,462L101,467L104,471L108,474L113,478L117,481L121,485L126,490L130,494L134,499L138,504L141,509L145,515L148,520L150,525L152,530L154,535L156,540L157,545L158,550L159,555L159,559L159,564L159,569L159,573L159,576L159,579L159,581L159,583L158,583L158,581L158,579" stroke-opacity="1" stroke-width="5" stroke-linecap="round" stroke-linejoin="round" style="-webkit-tap-highlight-color: rgba(0, 0, 0, 0); stroke-opacity: 1; stroke-linecap: round; stroke-linejoin: round; -webkit-user-select: text;"></path><path fill="none" stroke="#000000" d="M101,314L98,313L96,311L92,308L88,304L83,298L78,293L74,288L69,282L66,277L62,272L60,269L58,265L56,263L54,261L53,260L53,258L52,258L52,257L52,255L54,253L60,248L69,241L78,234L88,226L97,219L107,213L115,207L121,204L126,201L129,200L131,200L132,200L132,201L132,203L132,206L133,210L135,218L137,226L139,236L142,247L144,256L147,265L148,271L149,276L150,281L151,283L151,285L150,285L148,285L144,282L139,278L132,271L125,264L118,256L109,248L102,240L95,234L89,228L83,223L78,218L74,214L69,211L67,208L64,205L62,204L62,202L61,201L61,200L61,199L61,198L62,196L65,193L69,189L75,185L82,180L90,174L98,168L106,162L114,156L120,149L125,144L130,138L134,135L136,133L137,131L138,130L138,129L137,128L136,127L135,126L132,123L130,119L128,115L125,111L122,106L118,102L115,98L110,94L106,91L102,88L98,86L93,84L89,83L84,82L80,81L75,80L71,78L68,77L65,75L63,73L60,70L57,66L55,63L52,60L50,57L47,53L46,49L44,45" stroke-opacity="1" stroke-width="5" stroke-linecap="round" stroke-linejoin="round" style="-webkit-tap-highlight-color: rgba(0, 0, 0, 0); stroke-opacity: 1; stroke-linecap: round; stroke-linejoin: round; -webkit-user-select: text;"></path></svg>