<svg height="650" version="1.1" width="1024" xmlns="http://www.w3.org/2000/svg" xmlns:xlink="http://www.w3.org/1999/xlink" style="overflow: hidden; position: relative; -webkit-user-select: text;"><desc style="-webkit-tap-highlight-color: rgba(0, 0, 0, 0); -webkit-user-select: text;">Created with Raphaël 2.2.0</desc><defs style="-webkit-tap-highlight-color: rgba(0, 0, 0, 0); -webkit-user-select: text;"></defs><path fill="none" stroke="#000000" d="M290,257L294,251L296,249L299,247L302,244L307,241L314,237L321,231L329,226L336,220L344,214L351,208L358,202L366,196L370,192L374,189L377,187L379,186L380,185L380,187L380,190L378,194L378,200L377,205L375,214L374,223L373,231L371,241L369,251L367,260L366,269L365,276L364,282L363,286L362,289L362,290L362,291L361,291L360,291L358,290L356,286L353,281L349,275L345,268L339,259L333,251L328,242L322,234L317,227L312,221L309,216L306,211L304,208L302,205L301,203L301,202L301,201L301,200L302,200L306,200L312,201L319,203L327,205L335,208L345,211L355,214L365,219L375,223L385,227L392,231L402,234L409,236L414,238L419,240L422,241L424,242L426,242L426,243L426,244L426,245L426,247L426,250L424,254L421,259L418,265L416,272L413,280L410,287L407,294L404,303L402,310L399,318L397,324L395,330L393,334L392,337L390,340L390,341L389,341L388,342L387,342L386,342L384,341L383,340L380,337L376,333L372,328L368,324L364,319L360,314L356,309L353,306L349,302L345,299L341,297L337,294L334,292L329,290L325,289L320,287L316,287L311,286L307,285L302,285L298,285L293,285L290,285L286,285L282,285L278,285L274,285L270,285L266,285L261,285L257,285L254,285L249,285L246,285L242,284L238,283L235,281L232,280L230,279L228,278L227,277L227,275" stroke-opacity="1" stroke-width="5" stroke-linecap="round" stroke-linejoin="round" style="-webkit-tap-highlight-color: rgba(0, 0, 0, 0); stroke-opacity: 1; stroke-linecap: round; stroke-linejoin: round; -webkit-user-select: text;"></path><path fill="none" stroke="#000000" d="M203,314L212,312L217,312L222,312L228,312L233,314L239,316L245,319L249,323L254,328L257,333L261,338L264,344L268,350L271,357L273,363L276,370L279,377L282,385L284,393L287,401L290,408L293,415L296,422L300,428L304,434L307,439L310,443L312,445L314,447L315,448L316,447L317,445L322,440L327,433L333,426L338,419L343,412L348,405L353,399L356,395L360,390L362,387L363,385L364,384L364,383L362,383L358,383L353,383L345,383L336,384L327,385L317,386L307,388L298,390L290,393L282,396L274,399L266,403L259,406L253,410L249,412L245,414L242,415L239,416L238,416L237,416L236,415L236,412L234,409L233,406L230,401L228,397L225,393L221,390L218,387L215,385L212,382L210,381L208,379L207,379L207,378L207,377L207,375L209,374L215,371L222,368L229,365L239,361L248,357L258,353L268,348L275,345L283,342L289,340L294,338L298,336L301,336L302,336L303,336L304,336L305,337L305,338L307,339L308,340L310,342L312,345L316,348L319,352L321,356L324,360L327,365L329,370L331,375L333,380L334,386L336,391L337,396L339,401L341,405L342,409L344,414L345,418L347,423L349,427L351,432L354,436L357,440L361,445L364,448L368,452L373,456L378,459L383,461L388,463L393,464L397,464L401,465L404,465L406,465L407,465L408,465" stroke-opacity="1" stroke-width="5" stroke-linecap="round" stroke-linejoin="round" style="-webkit-tap-highlight-color: rgba(0, 0, 0, 0); stroke-opacity: 1; stroke-linecap: round; stroke-linejoin: round; -webkit-user-select: text;"></path><path fill="none" stroke="#000000" d="M388,416L392,419L396,421L400,423L406,425L412,426L419,428L426,428L433,428L441,428L449,428L457,428L464,426L472,423L480,419L488,416L495,412L501,409L505,407L509,405L511,404L512,404L513,404L514,404L512,404L511,403L508,399L504,394L499,388L494,379L491,373L487,366L483,359L480,354L477,348L475,344L474,341L473,340L472,339L472,338L471,340L471,342L468,345L465,350L460,354L455,359L450,362L446,365L441,368L438,370L436,372L435,373L435,374L435,375L435,376L435,378L437,381L440,386L443,392L448,399L453,406L458,414L462,421L466,428L470,434L473,439L476,442L478,446L480,449L482,451L482,453L483,454L484,455L485,455L485,454L486,453L487,452L491,449L497,445L504,440L512,434L521,429L530,423L538,418L547,413L555,407L562,402L569,398L573,395L577,393L580,392L582,390L583,390L584,390L584,391L584,392L583,394L582,398L581,403L579,409L578,415L575,423L573,430L571,437L569,444L566,451L564,457L562,462L560,467L559,471L558,474L557,476L556,478L555,479L554,479L553,479L552,479L551,479L550,478L549,477L547,475L544,473L540,470L535,466L529,462L523,457L517,452L511,448L507,445L502,440L498,435L495,431L492,426L490,421L488,416L487,410L486,404L485,398L485,392L484,385L484,378L484,370L484,363L484,356L485,349L485,343L487,337L487,331L489,324L489,319L490,311L490,305L490,298L490,292L488,286L487,282L486,279L485,276L485,275L485,274" stroke-opacity="1" stroke-width="5" stroke-linecap="round" stroke-linejoin="round" style="-webkit-tap-highlight-color: rgba(0, 0, 0, 0); stroke-opacity: 1; stroke-linecap: round; stroke-linejoin: round; -webkit-user-select: text;"></path><path fill="none" stroke="#000000" d="M457,265L456,259L459,254L464,248L470,241L475,235L482,226L488,218L496,209L503,199L510,191L514,186L518,182L520,179L522,177L523,176L524,176L524,175L526,177L528,179L531,183L536,188L541,196L547,204L553,213L559,221L563,228L567,235L570,240L573,243L575,246L576,248L576,249L575,249L573,249L571,249L567,249L560,248L552,247L544,245L536,243L526,242L517,241L507,240L498,240L489,239L481,239L474,238L468,238L464,238L460,238L458,238L457,238L456,237L456,236L456,235L456,233L456,229L455,223L454,216L453,209L451,200L450,193L448,187L446,180L444,172L443,166L441,159L440,154L439,150L438,146L438,144L438,142L438,141L438,140L441,140L445,140L451,140L459,138L468,136L478,135L488,133L498,131L510,129L521,127L529,126L538,124L545,123L552,122L556,120L560,120L563,119L565,119L566,119L566,120L565,121L564,122L562,124L561,126L558,129L555,133L553,137L550,142L547,146L544,151L541,155L536,161L532,167L528,174L523,181L519,187L516,194L513,202L511,209L509,215L509,222L509,229L509,236L509,242L509,248L512,253L515,258L517,263L520,268L522,273L525,278L527,283L529,288L531,293L533,298L534,302L535,307L536,311L537,315L538,319L538,323L538,327L538,329L538,331L538,333" stroke-opacity="1" stroke-width="5" stroke-linecap="round" stroke-linejoin="round" style="-webkit-tap-highlight-color: rgba(0, 0, 0, 0); stroke-opacity: 1; stroke-linecap: round; stroke-linejoin: round; -webkit-user-select: text;"></path><path fill="none" stroke="#000000" d="M550,257L548,261L548,264L549,267L551,271L554,274L558,278L562,281L567,284L572,287L578,291L583,295L588,299L593,303L597,308L601,312L605,318L608,322L611,328L613,334L615,340L616,345L617,351L618,356L618,360L618,362L618,364L618,365L619,365L619,362L619,361L617,360L614,358L611,358L608,357L604,356L598,355L592,355L586,354L581,354L575,354L570,354L565,354L561,354L558,354L555,353L554,353L553,353L553,352L553,351L553,350L553,349L556,345L561,339L567,331L573,322L580,314L587,305L593,297L600,289L607,282L613,275L618,270L622,267L625,265L628,263L629,262L630,261L631,261L632,262L633,263L635,267L638,270L642,276L646,282L650,287L655,294L659,300L662,307L665,311L667,314L668,316L669,317L668,317L667,317L665,317L662,317L657,317L650,318L643,318L636,319L628,319L619,319L609,319L600,319L592,320L584,321L577,321L571,322L566,322L562,322L560,322L559,322L558,322L557,322L556,321L556,320L555,319L554,317L553,314L552,311L551,305L551,301L551,295L551,289L551,283L551,278L553,273L556,269L560,263L563,258L567,252L571,247L575,242L579,238L582,234L586,229L589,224L592,219L594,214L595,210L597,206L598,201L599,197L599,192L600,187L600,183L600,178L600,173L600,168L600,163L600,159L600,153L599,148L597,144L596,140L594,136L593,134L592,132L592,131L592,130" stroke-opacity="1" stroke-width="5" stroke-linecap="round" stroke-linejoin="round" style="-webkit-tap-highlight-color: rgba(0, 0, 0, 0); stroke-opacity: 1; stroke-linecap: round; stroke-linejoin: round; -webkit-user-select: text;"></path><path fill="none" stroke="#000000" d="M606,100L603,95L603,93L603,91L603,88L604,85L606,83L609,79L611,75L615,71L620,68L626,65L632,62L639,60L647,58L655,57L661,57L667,56L673,56L679,56L685,56L691,58L696,61L700,63L705,66L708,68L711,70L714,71L716,72L717,73L718,73L719,73L719,74L719,75L717,76L715,79L711,84L706,90L701,97L694,106L689,114L684,123L679,132L674,142L671,151L667,158L664,166L661,171L660,175L658,178L657,178L656,178L655,178L654,177L653,175L652,171L650,166L647,160L645,152L642,144L639,136L636,129L634,123L633,118L631,114L631,112L631,111L631,110L633,110L638,110L645,110L654,110L664,110L677,110L687,110L697,111L708,111L718,112L725,112L733,112L738,112L742,112L744,113L745,114L745,116L745,117L745,119L745,120L745,123L745,127L745,133L744,140L742,148L740,156L738,165L735,173L733,182L731,190L729,198L728,205L726,212L725,218L724,223L723,228L722,231L722,232L721,233L720,233L719,233L719,231L718,229L717,226L714,221L712,217L708,210L703,203L699,196L694,190L690,183L685,177L680,170L676,165L672,161L669,156L666,151L664,147L662,144L660,141L659,139L658,137L657,136L657,134L657,133L658,132L660,131L662,131L665,130L670,129L676,128L683,127L688,127L696,127L702,127L708,127L716,128L721,130L728,132L734,136L739,139L743,142L747,145L751,150L754,154L757,159L760,164L762,169L764,175L766,181L767,187L769,193L770,199L771,205L772,211L773,217L774,222L776,228L777,234L779,240L781,245L784,250L787,255L790,259L793,262L797,265L800,268L803,270L806,271L808,272L809,272L810,273" stroke-opacity="1" stroke-width="5" stroke-linecap="round" stroke-linejoin="round" style="-webkit-tap-highlight-color: rgba(0, 0, 0, 0); stroke-opacity: 1; stroke-linecap: round; stroke-linejoin: round; -webkit-user-select: text;"></path><path fill="none" stroke="#000000" d="M678,243L679,248L679,251L680,255L684,260L687,264L691,268L696,272L701,276L707,279L713,282L720,285L729,287L737,290L745,294L752,298L757,301L761,305L765,309L769,314L772,321L775,328L777,333L779,339L780,343L781,346L782,349L782,350L783,350L783,351L781,352L779,353L773,356L767,360L759,363L752,367L745,371L738,375L733,379L728,382L723,385L720,388L716,390L714,392L711,394L710,395L709,395L708,395L707,395L707,394L707,392L707,385L707,378L707,371L707,365L707,358L706,353L704,348L703,344L701,339L699,334L698,330L697,325L696,321L696,319L695,317L695,316L696,315L699,315L706,314L714,311L725,308L736,304L747,299L757,294L764,291L772,288L777,287L781,285L783,285L784,285L785,285L786,286L786,288L788,291L790,295L793,299L797,305L801,311L806,316L811,323L817,328L822,334L827,338L831,343L835,346L837,349L839,352L840,355L841,357L841,359L841,360L841,361L839,361L837,361L835,361L832,361L829,360L823,359L813,358L800,355L788,353L778,351L768,350L758,348L752,347L745,345L741,345L738,344L736,344L735,343L735,344L735,345L735,346L735,348L735,350L735,351L735,353L737,354L738,356L740,358L742,361L744,365L747,369L750,373L752,377L755,381L757,385L759,389L762,393L763,396L764,401L765,405L766,409L766,413L766,418L766,422L766,426L766,430L765,435L764,439L762,443L761,447L760,451L759,455L758,460L757,464L756,469L756,473L756,477L756,481L756,484L756,486L756,489L756,491L756,492L756,493L756,494L756,492" stroke-opacity="1" stroke-width="5" stroke-linecap="round" stroke-linejoin="round" style="-webkit-tap-highlight-color: rgba(0, 0, 0, 0); stroke-opacity: 1; stroke-linecap: round; stroke-linejoin: round; -webkit-user-select: text;"></path><path fill="none" stroke="#000000" d="M642,382L645,383L649,384L655,386L660,389L664,394L668,399L670,405L672,412L672,420L672,428L672,436L669,444L667,452L663,461L660,469L657,478L655,486L652,494L651,502L650,511L649,519L649,526L649,533L649,538L649,543L649,546L649,548L649,549L650,549L652,548L658,546L667,543L678,541L686,539L697,537L706,535L714,534L720,533L725,531L728,529L730,528L731,527L731,526L731,525L730,524L726,522L721,518L715,514L706,509L700,504L692,500L685,497L679,495L673,492L667,490L661,489L655,486L650,484L645,483L641,481L637,480L633,479L630,478L626,477L624,477L622,476L621,475L620,474L620,473L620,472L622,470L630,465L637,460L645,454L654,448L664,443L673,438L683,432L691,427L697,423L702,419L705,416L707,414L708,413L708,412L708,411L707,411L706,411L704,411L703,410L700,408L696,404L691,399L686,395L682,392L677,387L674,384L672,381L669,378L668,377L667,375L666,375L665,375L664,375L662,375L660,376L656,379L648,384L638,389L628,395L618,401L609,408L602,413L597,418L594,422L592,426L590,429L589,433L588,436L588,440L587,444L587,449L587,454L587,460L587,467L587,473L587,479L588,485L589,491L589,496L590,501L591,506L592,511L592,516L592,520L592,524L592,529L592,533L592,537L590,541L589,545L587,548L585,552L583,555L581,559L578,562L576,565L572,569L570,571L567,573L565,574L564,575L563,575L562,575" stroke-opacity="1" stroke-width="5" stroke-linecap="round" stroke-linejoin="round" style="-webkit-tap-highlight-color: rgba(0, 0, 0, 0); stroke-opacity: 1; stroke-linecap: round; stroke-linejoin: round; -webkit-user-select: text;"></path><path fill="none" stroke="#000000" d="M528,551L523,550L521,550L520,550L518,547L516,545L514,540L511,536L509,531L506,527L503,522L500,518L497,515L493,511L490,508L485,505L480,503L475,502L470,501L465,501L460,501L455,501L450,501L445,503L439,505L434,507L429,509L423,512L418,514L414,515L409,517L405,518L401,518L397,518L393,518L390,518L387,518L385,518L384,518L383,518L383,519L384,521L385,525L387,530L388,536L390,542L393,549L395,557L397,562L399,568L401,574L402,579L404,584L405,587L407,590L407,592L408,593L408,594L409,594L409,593L409,592L409,589L413,584L416,577L420,570L424,562L429,552L434,542L440,529L447,515L453,502L458,492L463,483L466,476L468,472L470,469L470,468L471,468L470,468L468,468L466,469L462,470L453,474L443,477L433,481L422,484L411,486L400,489L390,491L381,494L371,496L362,498L356,499L349,501L344,503L340,504L338,506L337,507L336,508L336,511L336,513L336,516L336,521L336,527L336,535L337,544L337,553L338,563L338,572L339,581L340,588L340,595L341,599L341,603L341,606L342,608L342,609L342,610L341,610L338,610L331,609L324,607L316,605L310,604L302,602L296,601L292,600L286,598L282,597L278,596L274,595L271,594L269,593L267,592L266,592L265,591L265,590L265,589L265,588L266,587L267,587L268,586L269,586L271,586L272,586L274,586L276,586L280,586L285,586L292,586L300,586L307,586L317,586L326,586L334,586L344,586L353,586L362,585L371,585L380,585L390,584L400,584L409,583L419,582L429,581L440,581L450,580L459,579L467,579L475,578L480,578L486,577L490,577L492,576L494,576L495,575L495,574" stroke-opacity="1" stroke-width="5" stroke-linecap="round" stroke-linejoin="round" style="-webkit-tap-highlight-color: rgba(0, 0, 0, 0); stroke-opacity: 1; stroke-linecap: round; stroke-linejoin: round; -webkit-user-select: text;"></path><path fill="none" stroke="#000000" d="M179,204L175,197L175,195L174,192L174,190L174,186L174,179L176,170L180,159L185,148L189,136L193,124L197,112L200,104L203,95L205,89L208,85L209,81L210,78L210,77L208,77L205,77L202,77L196,77L190,78L183,78L175,78L168,78L161,78L154,78L147,78L142,78L138,77L134,76L132,76L131,76L131,78L131,82L133,88L135,95L138,102L141,110L144,118L148,126L151,134L155,142L158,150L161,155L164,161L166,165L168,168L169,171L170,172L171,173L172,173L174,173L176,171L181,167L188,161L195,156L204,149L212,142L221,136L229,130L237,124L244,119L249,114L253,110L256,108L258,107L259,106L257,106L255,106L252,106L248,105L241,105L234,105L227,104L219,104L211,104L203,104L194,104L187,104L179,104L174,104L170,104L168,104L166,104L165,104L164,104L164,105L163,106L162,108L161,111L158,114L155,119L150,124L145,129L140,136L135,142L131,148L127,154L125,159L122,165L120,170L119,176L119,181L119,187L119,193L119,199L119,204L119,209L120,214L122,219L123,224L124,229L125,233L126,237L127,242L127,246L128,251L128,255L129,260L129,264L129,269L129,273L129,277L129,280L129,283L128,285L128,286L127,287" stroke-opacity="1" stroke-width="5" stroke-linecap="round" stroke-linejoin="round" style="-webkit-tap-highlight-color: rgba(0, 0, 0, 0); stroke-opacity: 1; stroke-linecap: round; stroke-linejoin: round; -webkit-user-select: text;"></path><path fill="none" stroke="#000000" d="M94,255L93,260L93,263L93,266L93,270L91,274L90,278L88,282L87,287L85,292L81,299L78,305L73,312L69,319L65,326L62,333L60,339L59,346L59,355L59,362L60,369L63,376L67,382L69,387L71,390L73,394L74,396L75,397L75,398L76,399L77,399L78,399L81,397L88,392L97,387L107,380L118,374L128,368L139,362L147,355L155,349L160,345L163,342L164,340L165,339L163,339L160,339L155,339L149,339L142,339L135,339L127,339L118,339L110,339L101,340L91,340L82,340L75,340L68,340L62,341L58,341L54,342L52,342L51,343L50,343L50,344L50,346L50,348L50,352L51,358L52,365L54,374L55,383L57,392L59,402L61,412L63,421L65,429L66,435L67,442L69,446L69,450L70,452L70,454L71,454L72,454L73,454L74,454L77,452L82,450L89,447L97,443L106,438L115,434L123,430L131,425L140,421L147,418L154,414L160,411L164,408L168,406L171,405L172,404L173,404L174,404L174,405L174,407L174,409L174,413L174,418L174,425L174,431L174,439L174,447L174,454L174,461L175,467L175,472L176,477L176,481L176,485L177,489L177,491L177,493L177,494L177,495L177,496L176,496L175,496L175,497L175,496" stroke-opacity="1" stroke-width="5" stroke-linecap="round" stroke-linejoin="round" style="-webkit-tap-highlight-color: rgba(0, 0, 0, 0); stroke-opacity: 1; stroke-linecap: round; stroke-linejoin: round; -webkit-user-select: text;"></path><path fill="none" stroke="#000000" d="M91,529L88,525L92,525L97,527L105,529L113,531L122,534L132,537L141,540L150,542L158,545L164,547L168,549L172,551L174,552L175,553L175,554L175,555L175,557L175,559L174,562L171,568L169,573L166,579L163,586L161,593L158,597L156,602L154,605L152,609L150,611L149,613L148,613L147,613L146,613L145,613L144,608L142,601L140,593L137,581L136,572L134,563L132,554L131,546L130,537L129,529L128,523L127,517L127,512L127,508L127,506L127,505L132,506L139,507L147,509L158,511L169,513L179,516L191,518L203,520L212,521L220,522L225,523L229,523L232,523L234,524L234,525L234,526L234,527L234,528L234,529L233,530L232,533L231,537L229,544L227,552L225,562L223,571L221,581L219,590L217,597L215,602L214,606L212,608L212,610L211,610L210,610L209,610L208,610L206,610L202,606L198,602L193,597L188,592L185,589L181,587L177,584L173,583L169,581L164,580L159,580L154,579L150,579L145,578L140,578L135,578L130,577L125,577L121,576L116,576L111,575L106,574L102,572L98,570L94,569L90,567L86,564L82,561L79,557L75,554L71,550L69,545L66,541L63,536L61,531L59,526L57,521L56,517L54,513L53,508L52,505L51,502L50,499L50,498L50,497L50,496" stroke-opacity="1" stroke-width="5" stroke-linecap="round" stroke-linejoin="round" style="-webkit-tap-highlight-color: rgba(0, 0, 0, 0); stroke-opacity: 1; stroke-linecap: round; stroke-linejoin: round; -webkit-user-select: text;"></path></svg>