<svg height="650" version="1.1" width="1024" xmlns="http://www.w3.org/2000/svg" xmlns:xlink="http://www.w3.org/1999/xlink" style="overflow: hidden; position: relative; -webkit-user-select: text;"><desc style="-webkit-tap-highlight-color: rgba(0, 0, 0, 0); -webkit-user-select: text;">Created with Raphaël 2.2.0</desc><defs style="-webkit-tap-highlight-color: rgba(0, 0, 0, 0); -webkit-user-select: text;"></defs><path fill="none" stroke="#000000" d="M103,112L106,111L108,111L110,111L111,110L114,109L117,107L120,105L125,102L130,99L135,95L141,90L146,86L151,83L155,80L160,76L164,74L166,73L169,72L170,72L170,71L171,71L171,72L171,73L171,75L171,79L171,84L171,91L171,98L171,106L171,116L171,123L171,131L171,138L171,145L172,151L172,156L173,159L173,162L174,163L173,162L170,160L166,156L162,151L158,144L153,136L148,127L143,118L139,111L135,105L132,100L129,95L127,92L125,90L124,88L125,88L128,87L132,86L139,85L147,83L154,81L162,79L171,77L178,75L186,73L193,72L198,71L202,71L204,71L206,71L207,71L208,71L208,72L209,74L209,77L210,81L211,87L212,93L213,100L214,106L215,113L217,119L218,125L220,130L221,134L222,137L223,139L223,140L224,140L223,140L222,140L220,140L218,139L215,137L212,135L207,133L203,130L198,128L193,126L189,123L184,120L180,117L176,115L173,112L169,111L166,109L164,108L162,107L161,107L159,107L158,107L157,108L155,110L154,112L152,114L150,117L148,119L146,122L144,125L142,128L140,131L139,134L137,138L137,141L136,145L136,148L136,151L136,155L136,158L136,162L136,165L136,168L136,170L136,173L137,175L137,178L138,180L139,183L140,185L142,186L142,188L144,190L145,192L146,195L147,197L148,199L149,201L151,202L152,204L153,207L154,209L155,211L156,212L157,214L158,217L159,219L159,221L160,224L160,225L161,226L161,228L161,229" stroke-opacity="1" stroke-width="5" stroke-linecap="round" stroke-linejoin="round" style="-webkit-tap-highlight-color: rgba(0, 0, 0, 0); stroke-opacity: 1; stroke-linecap: round; stroke-linejoin: round; -webkit-user-select: text;"></path><path fill="none" stroke="#000000" d="M202,219L205,222L206,224L206,226L207,228L208,231L208,233L209,236L209,239L209,243L209,247L209,251L209,255L209,260L209,265L209,270L209,276L209,280L209,285L209,289L209,293L209,297L209,300L209,302L209,304L209,305L209,306L210,306L212,306L215,304L221,300L227,295L234,291L242,287L249,282L257,278L263,274L269,270L273,268L276,265L279,264L280,263L280,262L280,261L279,261L277,261L273,260L269,260L264,259L259,258L252,258L246,258L238,259L231,261L224,265L217,268L212,270L207,272L203,274L199,275L196,276L193,277L192,277L191,277L191,276L191,272L192,266L194,258L197,247L200,237L203,226L207,217L209,209L212,204L213,200L215,197L216,196L217,195L218,195L220,194L221,194L223,194L226,194L231,194L237,194L246,195L255,195L265,196L274,197L283,199L290,200L295,200L300,201L302,201L304,202L305,202L305,203L305,204L305,205L305,206L304,207L301,208L298,210L293,213L287,216L280,220L274,224L268,227L264,230L259,232L255,234L251,236L248,237L245,238L244,239L243,240L242,240L242,241L242,243L242,244L242,246L242,248L243,251L243,255L244,258L244,262L245,265L246,268L246,271L248,275L249,277L250,280L251,282L252,285L254,287L255,288L256,290L258,292L259,294L261,295L262,297L264,298L265,300L267,301L268,303L271,304L272,307L274,309L276,311L278,313L280,314L281,316L283,318L284,320L285,322L286,324L288,326L288,328L289,330L290,332L291,334L292,336L292,338L293,340L293,341L293,343L294,343L294,344" stroke-opacity="1" stroke-width="5" stroke-linecap="round" stroke-linejoin="round" style="-webkit-tap-highlight-color: rgba(0, 0, 0, 0); stroke-opacity: 1; stroke-linecap: round; stroke-linejoin: round; -webkit-user-select: text;"></path><path fill="none" stroke="#000000" d="M238,353L234,353L233,353L231,353L229,352L227,352L225,351L222,351L220,350L217,350L215,350L212,350L210,350L207,351L203,352L200,353L196,355L192,356L189,358L186,359L183,360L180,361L177,363L174,364L172,365L169,367L167,368L164,370L161,371L159,373L156,374L153,376L150,377L147,379L144,380L141,381L139,382L136,383L132,385L130,387L127,389L124,390L122,392L120,392L119,393L118,393L118,392L118,390L118,387L118,382L118,377L118,370L118,363L118,355L118,347L118,340L118,334L118,329L118,326L118,324L118,323L119,323L122,324L126,326L133,328L140,331L149,336L157,338L166,342L174,345L179,348L184,350L188,353L191,355L193,358L193,360L193,362L193,365L193,368L193,372L191,379L189,386L186,394L183,404L179,412L176,421L173,429L169,437L167,442L166,447L165,450L164,452L163,453L162,453L161,452L160,449L158,442L155,433L151,423L148,413L145,405L143,398L142,393L140,387L140,383L138,379L137,375L136,373L136,371L136,370L136,368L136,367L137,365L142,361L148,355L156,349L163,342L171,335L176,329L181,325L185,322L187,320L189,319L190,319L191,319L192,320L194,321L197,324L200,328L205,333L208,337L211,342L214,347L217,352L220,357L223,362L226,367L229,372L232,377L235,382L238,386L241,391L243,394L245,397L247,400L249,402L249,404L250,405L251,406" stroke-opacity="1" stroke-width="5" stroke-linecap="round" stroke-linejoin="round" style="-webkit-tap-highlight-color: rgba(0, 0, 0, 0); stroke-opacity: 1; stroke-linecap: round; stroke-linejoin: round; -webkit-user-select: text;"></path><path fill="none" stroke="#000000" d="M290,412L291,409L294,409L298,408L304,404L311,400L318,395L326,389L334,382L342,376L349,372L356,367L361,365L363,363L366,362L368,361L368,360L369,360L370,361L371,363L373,366L374,372L375,378L377,385L378,392L378,400L378,408L378,413L378,418L378,423L378,427L378,430L378,433L378,435L378,438L378,439L378,440L375,440L372,438L366,434L359,430L352,426L346,421L341,418L337,414L333,411L329,408L326,405L322,402L319,400L317,398L314,396L312,394L311,393L311,392L311,391L311,389L311,387L315,383L322,376L330,368L340,358L349,348L356,341L364,334L369,329L373,326L376,324L378,323L379,323L380,323L381,323L382,324L384,325L387,328L390,331L397,336L403,341L409,347L414,353L418,357L422,362L425,365L427,369L429,372L430,375L431,376L431,377L431,378L430,379L427,380L423,382L418,385L411,388L404,391L399,392L393,394L389,396L384,397L380,399L375,400L370,402L367,404L363,406L359,409L355,412L353,415L349,419L347,422L344,426L342,429L341,433L339,436L337,440L335,444L334,447L333,451L332,455L331,458L330,462L329,466L329,469L328,472L327,476L326,479L325,482L324,486L322,489L321,492L319,494L317,497L315,500L313,502L312,504L311,506L310,506L310,507L309,507L307,506" stroke-opacity="1" stroke-width="5" stroke-linecap="round" stroke-linejoin="round" style="-webkit-tap-highlight-color: rgba(0, 0, 0, 0); stroke-opacity: 1; stroke-linecap: round; stroke-linejoin: round; -webkit-user-select: text;"></path><path fill="none" stroke="#000000" d="M338,537L340,533L340,530L342,528L345,524L349,520L352,519L356,517L359,515L363,513L368,512L372,511L377,510L382,509L387,508L394,507L400,507L405,506L410,506L415,506L420,506L425,506L431,508L436,508L442,510L447,510L454,510L461,510L468,510L474,510L479,510L483,510L485,510L486,510L485,507L482,503L481,500L478,496L476,491L474,484L472,477L469,468L467,458L465,452L464,447L462,442L461,439L461,437L460,436L459,437L457,439L451,443L443,448L434,453L425,458L419,461L413,464L409,467L407,469L405,470L405,471L405,472L405,474L405,476L407,480L411,485L415,491L420,499L425,506L430,513L434,520L438,526L441,533L443,538L445,544L447,548L449,551L450,554L451,555L451,554L451,553L451,550L453,542L457,533L463,523L469,512L476,502L484,490L491,481L496,474L501,468L504,464L506,461L508,459L509,458L509,457L506,458L499,461L490,465L480,469L469,474L459,480L451,485L443,491L437,495L432,499L428,501L425,503L424,504L423,505L422,505L421,505L420,503L419,501L418,498L416,491L414,482L412,470L411,461L411,454L411,448L411,442L411,438L411,435L411,433L411,432L411,431L411,430L412,426" stroke-opacity="1" stroke-width="5" stroke-linecap="round" stroke-linejoin="round" style="-webkit-tap-highlight-color: rgba(0, 0, 0, 0); stroke-opacity: 1; stroke-linecap: round; stroke-linejoin: round; -webkit-user-select: text;"></path><path fill="none" stroke="#000000" d="M455,400L456,396L460,392L465,384L470,375L477,362L483,350L489,342L494,334L498,327L502,322L504,319L506,316L507,316L507,315L507,314L507,313L504,311L500,309L494,305L488,302L482,297L477,293L473,289L470,287L467,285L466,285L465,284L465,286L465,290L464,297L461,307L459,317L456,326L454,333L452,338L451,342L451,344L451,346L451,347L451,348L453,350L456,352L462,355L469,358L480,362L492,366L504,370L514,375L522,378L528,381L531,384L534,385L535,387L535,386L536,384L537,377L541,370L545,362L550,352L555,343L560,334L564,323L568,313L572,305L575,300L576,297L577,296L577,295L578,295L578,296L575,298L567,302L558,307L546,312L536,318L525,323L516,328L510,332L505,335L502,337L500,338L500,339L499,339L499,340L499,343L502,349L504,356L509,365L513,375L516,384L519,392L522,400L523,406L524,411L526,414L526,417L527,418L527,419L528,419L529,419L530,418L532,417L536,416L539,414L543,412L546,410L550,408L554,404L558,399L561,395L564,391L566,387L568,382L570,376L572,371L573,367L575,361L575,355L575,350L575,346L574,342L571,338L567,333L562,328L557,322L553,319L549,316L545,313L543,311L540,309L537,308L534,306L530,304L527,302L523,299L520,297L517,294L515,291L512,288L510,283L508,279L506,273L504,268L502,262L501,258L500,253L500,249L499,246L499,244L498,243L498,241L497,241" stroke-opacity="1" stroke-width="5" stroke-linecap="round" stroke-linejoin="round" style="-webkit-tap-highlight-color: rgba(0, 0, 0, 0); stroke-opacity: 1; stroke-linecap: round; stroke-linejoin: round; -webkit-user-select: text;"></path><path fill="none" stroke="#000000" d="M489,208L485,204L483,202L482,199L481,195L480,191L480,187L480,183L480,179L480,175L480,171L482,166L483,161L485,156L486,150L487,144L489,138L490,132L492,127L493,120L495,114L497,110L500,105L502,102L504,98L505,95L506,93L507,91L507,90L506,90L504,90L502,91L497,93L490,95L480,99L470,102L460,106L452,108L444,111L437,113L432,114L429,115L427,116L426,117L426,118L426,119L428,122L430,126L433,131L436,138L438,145L441,150L443,156L445,159L447,161L448,163L449,164L450,164L451,164L452,164L453,164L455,164L458,164L463,162L470,160L479,157L489,154L499,150L509,147L519,143L528,141L534,139L539,137L542,136L544,135L545,135L545,134L544,133L541,131L538,127L533,122L528,115L524,109L517,100L511,93L506,85L502,80L497,74L493,68L490,64L488,61L486,58L485,56L484,56L483,56L482,56L480,60L477,66L471,73L465,82L458,91L451,100L443,112L435,122L429,131L422,140L417,148L412,153L408,158L406,161L404,163L404,164L405,164L409,164L416,164L427,166L440,167L455,168L470,170L485,171L500,173L513,175L521,175L527,176L531,176L533,176L534,176" stroke-opacity="1" stroke-width="5" stroke-linecap="round" stroke-linejoin="round" style="-webkit-tap-highlight-color: rgba(0, 0, 0, 0); stroke-opacity: 1; stroke-linecap: round; stroke-linejoin: round; -webkit-user-select: text;"></path><path fill="none" stroke="#000000" d="M566,203L569,201L572,200L579,197L586,193L594,190L603,187L612,185L621,181L629,178L636,175L640,172L644,171L646,170L648,169L649,170L649,173L649,177L649,181L649,187L649,194L649,201L649,208L649,215L648,223L647,230L646,237L645,243L645,248L644,251L644,253L643,253L642,254L640,254L637,254L633,254L628,254L621,254L614,255L606,255L596,256L588,256L580,257L573,258L568,258L564,258L561,258L560,258L560,256L560,253L563,243L567,232L572,219L577,208L582,198L586,189L589,182L593,174L596,168L599,164L600,162L601,160L601,159L602,159L603,159L604,160L606,164L609,169L613,176L616,183L619,193L621,202L622,212L624,223L625,233L625,240L626,248L626,253L626,258L626,262L626,263L626,265L627,265L628,264L630,263L634,262L639,259L645,255L652,251L660,247L667,243L675,238L683,234L689,229L696,226L700,223L703,221L706,219L708,218L708,217L708,216L708,215L708,214L708,212L708,210L708,208L708,206L708,203L708,201L707,199L707,197L706,195L705,192L704,190L703,187L701,185L699,182L696,179L693,176L690,173L688,171L685,170L682,168L680,167L677,166L675,164L672,163L669,162L667,161L664,159L661,158L658,157L655,155L652,153L650,152L647,150L645,149L643,147L642,146L640,144L639,143L638,141L637,140L636,139L636,136L635,134L635,132L634,128L634,123L633,118L633,114L632,112L632,110L632,108L631,107" stroke-opacity="1" stroke-width="5" stroke-linecap="round" stroke-linejoin="round" style="-webkit-tap-highlight-color: rgba(0, 0, 0, 0); stroke-opacity: 1; stroke-linecap: round; stroke-linejoin: round; -webkit-user-select: text;"></path><path fill="none" stroke="#000000" d="M675,78L671,85L671,88L671,92L671,95L672,98L673,101L675,105L677,107L680,111L683,114L686,117L690,119L694,122L699,124L702,126L707,129L712,131L716,133L720,134L725,136L729,139L733,141L737,143L740,146L743,148L747,152L750,156L752,160L755,164L757,169L759,173L761,177L762,180L764,183L764,186L765,187L765,188L766,189L766,188L768,184L769,180L771,174L775,166L778,159L781,153L786,146L789,139L793,133L797,126L799,121L802,115L804,112L805,110L806,109L806,108L805,108L801,108L794,107L786,107L779,107L769,107L759,107L750,107L741,107L735,107L729,107L725,107L721,107L720,107L719,107L719,108L719,109L719,110L719,112L719,115L720,121L722,128L724,136L727,145L729,154L730,161L732,168L733,172L733,177L734,180L734,182L735,183L735,184L735,185L736,185L737,185L738,184L743,181L748,178L755,173L764,167L771,162L779,158L786,154L793,151L799,148L804,146L808,144L812,142L814,141L815,141L816,141L817,143L817,145L818,148L819,154L821,162L823,170L824,176L824,182L825,188L825,193L825,198L825,202L825,204L825,207L825,208L823,209L820,210L817,211L812,213L807,215L800,218L793,221L787,224L782,227L778,229L774,231L772,232L770,232L769,232L769,231L769,230L769,228L769,224L769,220L769,214L769,207L769,200L770,193L771,185L772,175L773,163L774,149L774,136L774,126L774,116L774,109L774,103L774,97L774,94L774,92L774,90L774,89L774,88" stroke-opacity="1" stroke-width="5" stroke-linecap="round" stroke-linejoin="round" style="-webkit-tap-highlight-color: rgba(0, 0, 0, 0); stroke-opacity: 1; stroke-linecap: round; stroke-linejoin: round; -webkit-user-select: text;"></path><path fill="none" stroke="#000000" d="M791,73L793,68L798,68L804,68L811,68L820,67L829,66L838,65L847,63L854,62L861,60L867,59L873,57L877,56L880,56L883,55L884,55L885,55L885,56L885,57L886,60L889,66L894,74L898,83L901,91L904,100L906,105L908,112L910,117L912,120L912,122L913,124L912,124L908,124L902,125L894,127L884,130L874,134L864,138L856,141L850,144L847,145L844,146L842,146L842,145L842,142L842,137L842,132L842,126L842,119L842,110L843,101L844,92L844,82L844,72L844,62L844,54L844,47L844,41L844,36L844,32L844,30L844,29L845,29L846,29L849,29L856,31L866,33L874,35L887,37L895,38L904,39L911,40L917,40L921,41L924,41L925,42L925,43L925,44L925,45L925,46L923,50L919,56L913,64L908,72L903,78L899,85L895,93L891,99L888,104L885,108L882,111L880,113L878,114L878,115L878,116L878,117L878,120L881,124L884,129L888,135L892,140L895,144L899,148L903,153L906,156L910,161L914,165L917,168L920,171L922,173L923,175L924,175L925,175L926,174L928,171L932,166L936,161L940,156L944,151L948,146L951,140L954,135L958,129L960,124L961,119L962,116L963,113L963,109L963,105L961,100L958,95L954,91L950,87L947,85L944,83L940,82L937,82L932,81L927,80L921,80L917,79L911,79L906,78L900,78L895,78L890,78L885,78L881,79L876,80L871,81L867,82L863,83L859,85L855,86L851,87L847,88L842,88L838,89L835,89L831,89L827,89L824,89L821,88L818,86L817,85L816,84" stroke-opacity="1" stroke-width="5" stroke-linecap="round" stroke-linejoin="round" style="-webkit-tap-highlight-color: rgba(0, 0, 0, 0); stroke-opacity: 1; stroke-linecap: round; stroke-linejoin: round; -webkit-user-select: text;"></path><path fill="none" stroke="#000000" d="M852,214L857,215L864,215L871,216L878,219L885,222L890,225L894,228L898,231L901,235L903,239L905,243L906,248L907,253L908,257L908,262L908,268L908,272L908,277L908,282L908,287L909,292L909,297L910,302L911,307L913,312L916,317L919,322L922,326L924,329L926,331L928,333L929,333L929,334L927,334L923,330L918,326L914,324L910,322L906,320L901,319L897,318L892,318L887,317L883,316L878,316L874,315L872,315L869,314L868,314L867,313L866,313L866,312L866,311L866,310L866,309L869,305L876,297L883,290L891,282L898,276L905,270L912,264L919,258L925,253L929,249L933,246L936,243L938,242L939,241L940,241L940,242L941,244L941,246L943,249L946,255L951,261L954,266L958,271L962,277L966,282L969,287L971,290L973,294L973,296L974,297L973,297L967,297L962,297L956,294L949,292L943,289L937,287L930,286L923,284L915,282L907,280L899,278L892,275L885,273L879,271L875,269L871,267L868,266L866,265L864,265L863,265L862,265L861,268L859,272L856,278L852,284L846,291L840,297L835,303L829,307L825,311L823,313L821,314L820,315L819,316L819,317L820,317L822,319L825,321L829,324L833,327L838,331L844,336L849,339L854,343L860,346L865,350L869,352L872,354L874,356L876,357L877,358L878,358L879,358L881,353L883,346L886,338L889,329L892,318L895,306L899,292L904,278L908,267L912,258L915,250L917,244L918,240L919,237L920,235L920,234L920,233L920,231" stroke-opacity="1" stroke-width="5" stroke-linecap="round" stroke-linejoin="round" style="-webkit-tap-highlight-color: rgba(0, 0, 0, 0); stroke-opacity: 1; stroke-linecap: round; stroke-linejoin: round; -webkit-user-select: text;"></path><path fill="none" stroke="#000000" d="M703,292L701,285L704,285L708,285L712,285L718,285L723,286L728,287L731,289L734,291L736,294L737,297L737,300L738,304L738,308L738,312L738,316L738,320L738,324L738,330L737,334L736,338L735,343L733,347L730,351L728,354L725,358L723,361L720,364L717,368L715,372L712,377L709,381L707,385L705,389L703,393L701,397L699,401L698,404L697,407L696,409L696,410L696,411L695,411L694,411L693,411L692,410L691,409L688,406L684,401L679,396L673,389L668,384L665,380L661,377L658,374L655,371L654,368L653,367L652,366L652,365L652,364L654,362L660,359L667,354L674,348L681,343L687,338L693,333L697,330L700,328L702,328L703,327L704,327L705,328L706,329L706,331L708,334L711,337L716,343L721,348L727,356L733,363L737,371L742,377L746,383L749,388L752,392L754,396L756,399L757,400L758,399L759,395L762,391L764,385L768,377L772,368L776,359L780,350L784,343L787,334L790,328L792,323L793,319L794,317L795,316L794,316L792,316L789,316L784,316L776,316L767,316L757,316L747,316L736,316L725,316L715,316L705,316L695,316L686,315L681,314L676,313L672,313L669,312L669,313L670,314L671,316L673,319L675,323L677,328L679,333L682,336L684,340L686,344L688,347L690,350L692,352L695,354L697,356L700,359L703,361L706,364L708,367L711,370L713,373L715,375L716,378L718,381L719,384L720,387L720,389L721,392L722,395L723,398L723,401L723,403L724,406L724,409L724,411L724,414L724,417L724,421L724,425L724,428L723,432L722,436L720,440L719,444L717,447L716,449L714,451L713,452L713,450" stroke-opacity="1" stroke-width="5" stroke-linecap="round" stroke-linejoin="round" style="-webkit-tap-highlight-color: rgba(0, 0, 0, 0); stroke-opacity: 1; stroke-linecap: round; stroke-linejoin: round; -webkit-user-select: text;"></path><path fill="none" stroke="#000000" d="M679,442L674,444L672,446L669,449L667,451L663,453L660,455L656,455L652,456L648,457L642,457L635,457L630,457L625,457L618,457L613,457L606,457L599,457L591,457L584,457L577,458L572,460L567,463L562,466L558,469L554,473L551,476L548,478L547,479L545,480L547,481L551,484L556,487L562,491L569,496L576,501L581,507L585,510L588,513L590,516L592,518L592,519L593,519L594,519L594,518L594,513L596,502L597,494L599,484L601,474L603,467L604,460L606,455L608,449L610,444L612,439L613,435L615,431L615,428L616,427L616,426L614,426L611,425L607,425L600,423L592,421L583,420L574,419L567,418L562,417L559,416L557,416L556,416L556,418L559,423L562,430L567,439L572,450L578,460L585,470L591,479L595,487L599,494L601,498L603,501L604,503L604,505L605,505L605,504L605,503L605,502L606,500L606,499L607,498L609,496L611,495L614,493L619,491L623,490L628,488L632,487L636,486L640,486L644,485L648,485L653,485L657,485L662,486L666,487L670,489L675,490L680,492L686,494L690,496L694,498L699,500L704,502L708,504L713,506L717,507L723,508L729,508L735,508L740,508L743,508L747,508L749,508L750,507L750,506L751,502" stroke-opacity="1" stroke-width="5" stroke-linecap="round" stroke-linejoin="round" style="-webkit-tap-highlight-color: rgba(0, 0, 0, 0); stroke-opacity: 1; stroke-linecap: round; stroke-linejoin: round; -webkit-user-select: text;"></path><path fill="none" stroke="#000000" d="M718,476L721,475L725,475L731,475L738,475L746,475L753,475L760,473L765,472L770,469L776,465L780,461L783,457L786,453L788,450L791,445L793,441L796,437L799,433L804,427L811,421L820,413L829,407L836,402L842,398L847,395L849,394L850,393L851,393L850,393L849,393L847,393L843,393L837,393L830,393L821,393L812,393L802,393L795,393L790,393L786,393L784,393L783,393L783,394L783,396L783,400L784,405L785,411L787,419L790,428L793,440L795,452L796,460L797,468L798,474L798,479L798,483L798,484L798,485L799,485L800,485L802,485L806,484L813,483L821,481L831,480L840,479L850,477L859,475L867,473L871,472L875,471L877,469L878,469L878,468L878,467L877,467L876,466L873,464L866,461L857,456L845,451L832,446L817,442L801,440L788,439L778,439L771,439L766,439L762,439L760,439L761,439L762,438L764,435L767,431L776,422L786,412L794,405L801,399L808,394L813,389L817,385L819,382L820,379L821,377L822,376L823,376L823,375L824,375L825,375L828,377L835,382L842,387L851,394L859,400L868,406L876,411L883,415L889,419L893,422L896,424L898,426L899,426L899,427" stroke-opacity="1" stroke-width="5" stroke-linecap="round" stroke-linejoin="round" style="-webkit-tap-highlight-color: rgba(0, 0, 0, 0); stroke-opacity: 1; stroke-linecap: round; stroke-linejoin: round; -webkit-user-select: text;"></path><path fill="none" stroke="#000000" d="M782,523L785,528L787,530L791,534L795,539L799,545L805,553L811,560L815,566L818,570L822,574L826,577L828,580L830,581L831,582L831,583L831,584L831,585L828,588L824,591L819,594L813,597L807,601L801,605L795,609L788,613L784,615L779,619L775,621L772,622L771,624L770,624L769,624L768,624L767,623L766,620L764,617L761,613L758,608L755,604L752,600L748,594L743,589L738,583L734,579L731,576L728,573L727,571L726,570L726,569L727,568L732,567L740,565L754,563L767,562L780,560L793,559L806,557L818,555L829,553L839,551L847,549L852,548L855,547L857,546L859,546L859,549L860,556L861,564L861,571L861,578L861,584L861,590L861,596L861,601L861,605L861,609L861,612L861,613L861,614L861,615L860,615L858,615L854,615L849,615L844,616L837,617L831,618L826,618L820,618L813,618L808,618L803,618L797,616L793,614L788,611L784,609L780,606L777,603L774,600L772,597L770,594L767,591L765,587L763,584L761,580L759,576L757,573L754,570L751,567L749,564L746,562L742,560L740,558L736,556L733,554L729,552L724,550L720,547L715,546L711,545L707,543L703,543L699,542L695,542L691,542L686,542L682,542L677,544L672,546L668,547L665,549L662,550L661,551L660,551L660,552" stroke-opacity="1" stroke-width="5" stroke-linecap="round" stroke-linejoin="round" style="-webkit-tap-highlight-color: rgba(0, 0, 0, 0); stroke-opacity: 1; stroke-linecap: round; stroke-linejoin: round; -webkit-user-select: text;"></path><path fill="none" stroke="#000000" d="M590,570L584,570L581,570L575,570L568,570L559,570L550,570L542,570L533,570L525,571L518,574L511,579L505,584L498,588L491,593L484,597L477,601L471,605L465,608L459,611L453,613L446,615L441,617L435,619L429,620L425,621L420,622L416,622L413,622L411,622L409,622L408,622L407,622L407,621L406,619L404,616L401,610L397,603L393,596L390,589L387,584L385,581L384,577L383,574L382,573L382,572L382,571L383,571L389,571L399,571L409,571L419,571L429,571L438,571L446,571L451,571L456,571L458,571L460,572L460,573L460,574L461,576L462,578L463,580L465,583L468,588L470,593L473,598L476,603L478,607L480,610L481,613L481,615L482,616L482,617L481,617L479,618L476,618L472,618L467,620L460,621L452,623L443,625L434,626L424,627L417,629L409,630L402,631L396,632L391,632L387,633L385,633L383,633L382,633L381,633L380,632L380,631L379,628L378,623L377,617L375,610L373,604L372,597L370,588L370,580L370,573L370,565L370,559L370,554L370,550L370,547L369,545L369,544L368,543L368,542L367,544L363,550L355,559L344,567L332,574L319,581L310,587L301,593L295,596L292,598L289,600L288,600L289,601" stroke-opacity="1" stroke-width="5" stroke-linecap="round" stroke-linejoin="round" style="-webkit-tap-highlight-color: rgba(0, 0, 0, 0); stroke-opacity: 1; stroke-linecap: round; stroke-linejoin: round; -webkit-user-select: text;"></path></svg>