<svg height="906" version="1.1" width="768" xmlns="http://www.w3.org/2000/svg" xmlns:xlink="http://www.w3.org/1999/xlink" style="overflow: hidden; position: relative; -webkit-user-select: text;"><desc style="-webkit-tap-highlight-color: rgba(0, 0, 0, 0); -webkit-user-select: text;">Created with Raphaël 2.2.0</desc><defs style="-webkit-tap-highlight-color: rgba(0, 0, 0, 0); -webkit-user-select: text;"></defs><path fill="none" stroke="#000000" d="M306,277L310,275L313,274L316,272L320,269L324,265L329,262L334,259L339,255L344,251L349,248L353,244L356,242L359,239L361,238L362,236L363,236L364,236L364,235L365,235L366,235L366,236L366,237L366,240L366,246L366,252L366,257L366,262L366,267L366,271L366,275L366,279L366,282L366,284L366,286L366,287L365,287L364,287L363,287L362,287L360,287L358,285L355,284L352,281L349,278L345,275L342,271L339,268L336,265L334,263L331,260L329,258L327,256L325,254L324,253L323,252L322,251L321,250L321,249L320,249L320,248L319,247L319,246L319,244L319,242L321,239L324,235L327,231L330,226L333,221L337,215L341,210L345,204L349,200L351,195L353,192L356,189L357,187L358,186L359,185L360,185L361,185L362,185L364,187L366,189L367,192L369,194L371,197L373,200L375,203L376,206L378,209L379,212L380,214L382,217L383,219L384,221L385,223L385,224L386,226L386,227L386,228L386,229L386,230L386,231L386,232L386,233L386,234L386,235L386,236L385,237L385,238L385,239L384,241L383,243L383,244L382,246L381,247L380,249L380,251L379,252L378,253L378,255L377,256L376,258L375,259L374,260L373,261L372,263L371,263L370,265L369,265L368,267L368,268L366,269L366,270L364,271L363,272L362,273L361,274L360,275L359,276L358,277L357,278L356,279L355,280L353,281L353,282L352,282L351,283L350,284L349,285L348,285L347,286L346,286L345,287L344,287L344,288L343,289L342,289L341,289L341,290L340,290L339,291L339,292L338,292L337,293L336,293L336,294L335,295L334,295L334,296L333,297L332,297L332,298L331,299L330,300L329,301L329,302L328,302L328,303L327,304L327,305L326,306L326,307L325,308L325,309L324,309L324,310L324,311L323,312L323,313L322,314L322,315L322,316L321,316L321,318L321,319L320,320L320,321L320,322L320,323L319,324L319,326L319,329L319,337" stroke-opacity="1" stroke-width="5" stroke-linecap="round" stroke-linejoin="round" style="-webkit-tap-highlight-color: rgba(0, 0, 0, 0); stroke-opacity: 1; stroke-linecap: round; stroke-linejoin: round; -webkit-user-select: text;"></path><path fill="none" stroke="#000000" d="M349,333L346,338L346,339L346,340L345,342L345,344L345,345L345,347L345,349L345,350L345,353L345,354L345,356L345,358L345,360L345,362L345,364L345,365L345,367L345,369L345,371L346,373L346,376L347,378L349,380L349,382L350,384L351,386L352,388L353,389L353,391L354,392L355,393L356,394L356,395L357,396L358,396L359,396L360,396L361,396L362,395L364,394L366,392L368,391L370,389L373,386L377,384L380,381L383,377L386,375L389,372L392,370L394,368L397,367L398,365L400,364L401,363L402,362L403,361L404,361L404,363L405,365L406,368L407,371L408,374L409,377L410,380L411,383L412,385L412,388L413,391L413,393L414,396L414,398L414,400L415,401L415,402L415,403L415,404L414,404L413,404L412,404L409,402L405,398L400,393L394,388L389,383L385,379L382,375L380,371L378,368L376,366L375,364L374,362L373,362L373,361L373,360L372,360L371,360L370,360L368,362L367,363L364,365L361,367L356,370L352,373L347,376L342,379L337,382L333,384L327,387L322,389L319,391L315,393L313,394L311,395L310,396L310,397L310,398L310,399L310,400L310,401L310,403L312,404L314,406L316,409L317,411L319,413L321,416L322,418L324,420L325,421L326,423L328,426L329,428L331,430L332,431L333,433L334,435L335,436L336,437L336,438L337,438L337,437L337,436L337,435L337,433L337,431L337,429L337,427L337,426L337,423L337,422L337,420L337,418L337,416L336,414L336,412L335,410L334,408L333,405L331,402L330,398L328,395L327,392L325,389L324,386L323,384L322,381L321,379L321,377L320,376L320,375L320,374L320,373L319,373" stroke-opacity="1" stroke-width="5" stroke-linecap="round" stroke-linejoin="round" style="-webkit-tap-highlight-color: rgba(0, 0, 0, 0); stroke-opacity: 1; stroke-linecap: round; stroke-linejoin: round; -webkit-user-select: text;"></path><path fill="none" stroke="#000000" d="M302,352L302,357L300,357L298,357L295,357L292,357L289,357L285,357L282,357L278,357L274,357L271,357L268,356L265,356L263,356L262,356L261,356L260,356L260,357L260,359L260,361L260,365L260,371L260,377L259,384L258,389L258,394L257,399L257,403L256,406L256,407L256,409L257,409L259,409L261,409L266,409L270,409L274,409L277,409L280,409L283,409L286,409L288,409L290,409L291,409L292,409L293,409L293,408L293,407L293,406L293,404L292,402L291,399L290,396L288,392L286,387L285,382L283,376L282,372L281,366L280,362L279,358L278,354L277,350L276,347L276,345L275,343L274,341L274,340L273,340L272,340L271,340L270,340L269,340L268,341L266,342L263,343L259,344L254,345L249,347L243,348L239,349L234,350L230,350L227,351L225,351L224,351L223,351L222,352L222,353L222,354L222,355L222,356L222,358L222,360L222,362L222,365L222,368L222,372L222,375L222,379L222,382L222,385L223,388L223,392L224,394L224,397L225,400L226,403L227,406L228,409L229,412L231,415L232,417L234,420L235,422L236,424L238,426L239,428L241,430L242,432L244,434L246,436L248,438L249,441L251,443L253,445L254,447L256,449L257,451L258,452L259,455L261,456L261,458L262,460L263,462L264,464L266,466L267,468L268,471L269,473L270,475L271,477L271,479L272,480L272,482L273,483L273,485L273,486L273,487L274,489L274,490L274,492L274,494L274,495L274,497L274,498L274,500L274,501L274,503L274,505L274,509" stroke-opacity="1" stroke-width="5" stroke-linecap="round" stroke-linejoin="round" style="-webkit-tap-highlight-color: rgba(0, 0, 0, 0); stroke-opacity: 1; stroke-linecap: round; stroke-linejoin: round; -webkit-user-select: text;"></path><path fill="none" stroke="#000000" d="M261,539L260,542L260,544L260,545L259,547L258,548L257,550L256,551L255,552L254,554L252,556L251,557L249,559L248,560L246,562L245,564L243,565L242,567L240,568L238,569L237,571L235,571L233,573L231,574L229,575L227,576L225,576L224,578L222,579L220,579L218,580L217,581L215,581L214,582L212,583L211,584L209,584L208,584L206,585L205,585L203,586L202,586L200,586L199,586L198,586L196,587L195,587L194,587L193,587L192,587L191,587L190,586L189,585L188,583L188,581L186,579L185,577L184,575L183,573L182,571L181,569L181,568L180,566L179,564L178,562L177,561L177,559L176,558L176,557L175,555L175,554L175,553L175,552L176,552L176,551L177,550L179,549L181,547L182,547L184,545L186,545L187,544L188,543L190,542L191,542L193,541L193,540L194,540L195,540L195,539L196,539L197,539L198,539L198,540L199,541L200,542L202,545L203,547L205,550L207,552L209,556L211,559L213,562L215,566L217,568L218,571L220,573L221,576L222,578L223,580L224,582L225,584L225,586L226,587L226,588L227,589L227,590L227,591L226,591L225,592L223,593L221,593L219,594L216,596L212,597L208,599L204,601L200,602L197,604L193,605L191,607L188,609L186,610L184,611L182,612L181,613L179,613L178,614L177,614L176,614L175,614L174,614L172,613L171,611L169,609L167,608L165,605L163,603L160,600L157,598L155,595L153,593L151,591L149,589L148,588L147,587L146,587L146,586L146,585L147,585L148,584L149,583L150,582L152,580L157,578L161,576L166,573L170,570L175,567L180,564L184,562L188,559L192,557L195,555L199,552L202,550L206,548L213,543L232,533L243,527" stroke-opacity="1" stroke-width="5" stroke-linecap="round" stroke-linejoin="round" style="-webkit-tap-highlight-color: rgba(0, 0, 0, 0); stroke-opacity: 1; stroke-linecap: round; stroke-linejoin: round; -webkit-user-select: text;"></path><path fill="none" stroke="#000000" d="M263,532L266,537L267,537L269,537L271,538L273,539L276,540L278,542L281,543L285,544L288,545L291,547L295,548L298,550L302,551L305,552L308,553L311,554L314,556L316,557L319,558L321,559L323,560L324,561L325,561L326,562L327,562L327,563L327,564L327,565L327,566L327,567L327,569L327,571L325,574L324,577L323,581L321,584L320,588L319,591L317,594L316,597L315,599L315,601L314,602L313,603L313,604L312,605L311,605L310,605L309,605L308,605L307,603L306,602L305,600L303,597L302,594L300,591L298,588L296,585L294,582L293,579L291,576L289,574L288,571L287,570L287,569L286,568L286,567L285,567L285,566L285,565L285,564L285,563L286,562L288,561L289,559L291,558L294,556L298,554L304,550L310,546L317,542L324,538L330,534L336,529L343,525L346,523L349,521L352,519L353,518L354,518L355,518L356,518L357,518L358,518L358,519L359,520L360,521L361,523L362,525L364,528L366,531L367,535L369,539L370,543L372,546L373,550L374,552L375,554L376,556L376,557L377,558L377,559L377,560L377,561L376,561L375,562L373,562L372,562L370,563L368,563L366,563L363,563L360,563L358,563L355,563L352,563L350,563L348,563L345,563L343,563L341,562L339,562L336,561L335,559L333,559L331,557L329,556L328,555L327,554L325,553L324,552L323,550L322,549L321,548L320,547L319,545L318,544L317,543L317,542L316,541L316,539L315,538L315,537L315,536L314,535L313,533L313,531L312,530L312,529L312,528L312,527L311,526L311,525L311,524L311,523L310,523L310,521L310,520L310,519L309,518L309,516L308,515L308,514L308,513L308,512L307,511L307,510L307,509L307,508L307,507L306,506L305,504L305,503L305,502L304,501L304,500L303,499L303,498L302,497L302,496L301,495L300,494L300,493L299,492L298,491L297,490L296,489L295,488L294,486L293,486L292,484L291,484L290,482L288,481L287,480L286,479L285,479L284,478L283,477L282,477L281,476L280,475L279,475L278,474L276,474L276,473L274,472L273,472L271,471L270,471L268,470L266,469L264,469L262,469L258,469L251,469" stroke-opacity="1" stroke-width="5" stroke-linecap="round" stroke-linejoin="round" style="-webkit-tap-highlight-color: rgba(0, 0, 0, 0); stroke-opacity: 1; stroke-linecap: round; stroke-linejoin: round; -webkit-user-select: text;"></path><path fill="none" stroke="#000000" d="M235,479L229,477L228,477L227,477L225,477L224,477L222,477L221,477L220,477L218,477L217,477L215,477L213,477L212,477L211,477L210,477L208,477L207,477L205,477L204,477L203,477L201,477L200,477L199,477L197,478L196,478L194,479L193,479L191,479L189,480L188,480L186,481L185,481L184,481L183,481L181,481L180,481L179,481L178,481L176,481L175,481L174,481L173,481L171,481L170,481L169,481L167,481L166,481L165,481L164,481L163,481L161,481L160,480L159,480L158,479L157,479L156,478L155,478L154,477L153,476L152,475L151,474L150,474L149,473L149,472L147,472L147,471L146,470L145,469L144,469L144,468L143,467L142,466L141,464L140,463L138,462L137,461L136,460L135,458L135,457L134,456L133,455L132,454L132,453L132,452L131,452L131,451L131,450L131,449L131,448L132,448L133,447L135,446L136,445L138,445L140,443L144,441L147,439L149,437L152,435L155,433L158,431L161,429L164,428L166,427L167,426L168,426L169,425L170,425L170,424L171,424L171,426L171,427L171,428L171,430L171,433L172,437L173,442L174,446L175,451L176,456L176,461L177,466L178,471L178,475L179,479L179,483L180,486L180,488L180,490L180,491L180,492L180,493L180,494L178,494L177,495L176,495L174,496L172,496L170,497L167,499L165,500L162,501L159,503L157,505L154,507L152,508L150,510L148,511L146,513L144,513L144,514L143,515L142,515L141,515L140,515L139,515L138,514L137,512L136,510L135,507L133,505L132,503L130,501L129,499L128,498L127,496L125,494L124,492L123,491L122,490L121,489L120,487L120,486L119,486L119,485L119,484L119,483L119,482L119,481L120,480L121,480L122,479L123,479L125,478L126,478L128,477L130,477L132,476L134,476L136,475L138,474L140,473L142,472L144,472L147,470L149,469L152,467L157,466L161,463L165,461L170,459L176,455L196,443L213,437" stroke-opacity="1" stroke-width="5" stroke-linecap="round" stroke-linejoin="round" style="-webkit-tap-highlight-color: rgba(0, 0, 0, 0); stroke-opacity: 1; stroke-linecap: round; stroke-linejoin: round; -webkit-user-select: text;"></path><path fill="none" stroke="#000000" d="M205,425L209,421L211,421L213,420L216,418L219,417L223,415L227,413L231,411L234,410L236,408L237,407L239,406L240,406L241,405L241,404L241,402L241,400L241,398L240,396L239,393L238,390L237,387L237,384L235,380L234,377L234,375L233,373L233,372L233,371L233,370L232,370L231,370L230,370L229,370L228,370L227,370L225,370L223,370L220,371L216,372L212,374L207,376L201,377L197,378L193,379L189,379L186,379L184,380L182,380L181,380L181,381L181,382L181,383L181,384L182,385L183,387L186,390L187,392L189,395L191,398L192,401L194,403L195,406L197,409L199,412L202,416L204,420L207,425L210,429L213,433L215,437L217,440L219,443L220,445L221,447L222,449L222,450L223,451L223,452L224,452L225,452L226,452L227,451L231,449L235,447L241,444L246,441L249,438L254,436L257,434L261,432L265,430L268,428L270,427L272,426L273,425L273,424L274,424L274,423L273,423L272,423L271,423L270,423L269,422L268,422L266,421L265,421L263,421L260,420L257,419L254,418L251,417L248,416L245,415L242,414L239,413L237,412L234,411L231,410L228,409L225,409L222,407L220,406L217,405L214,403L211,402L208,401L206,400L204,399L203,398L201,397L199,396L198,395L196,394L195,394L193,393L191,392L190,391L188,390L187,389L186,389L185,389L184,388L183,388L183,387L182,387L181,387L181,386L180,386L179,386L179,385L178,385L178,384L177,384L177,383L176,383L176,382L175,382L175,381L174,380L174,379L174,378L173,377L173,376L173,375L172,373L172,372L172,371L172,370L171,369L171,368L171,367L171,366L171,364L171,362L171,361L171,359L171,358L171,356L171,355L171,354L171,353L171,351L171,350L171,349L171,347L171,346L172,345L173,343L174,342L174,341L175,340L176,338L177,338L178,336L179,335L180,333L181,332L182,331L183,330L185,329L186,328L187,327L188,326L189,325L190,324L191,323L192,322L193,321L193,320L194,319L195,318L196,317L196,316L197,315L198,314L198,313L199,312L199,311L200,310L200,309L200,308L201,307L201,306L201,305L202,304L202,303L202,302L202,301L203,300L203,299L203,297L203,295L203,294L203,292L203,291L203,290L203,289L203,288L204,287L204,286L204,285L204,283L204,282L204,281L204,280L204,279L204,277L204,276L204,275" stroke-opacity="1" stroke-width="5" stroke-linecap="round" stroke-linejoin="round" style="-webkit-tap-highlight-color: rgba(0, 0, 0, 0); stroke-opacity: 1; stroke-linecap: round; stroke-linejoin: round; -webkit-user-select: text;"></path><path fill="none" stroke="#000000" d="M217,258L215,254L215,252L214,251L213,248L212,246L212,244L211,242L211,240L211,238L211,237L211,235L211,233L211,231L211,230L211,228L211,226L211,225L211,223L211,221L212,220L212,218L213,217L214,215L215,214L216,212L217,211L218,210L220,209L221,207L222,206L223,204L225,203L226,202L227,201L228,200L229,198L230,197L232,195L233,194L234,192L235,190L237,189L237,187L238,186L239,185L240,183L241,182L242,180L243,179L244,178L244,176L245,174L246,173L246,171L246,170L247,169L247,168L247,167L247,166L248,166L248,167L249,168L250,170L251,171L253,173L255,176L259,180L261,184L265,188L268,192L272,196L276,199L279,202L282,205L285,208L287,210L288,212L290,213L290,214L290,215L290,216L290,217L290,218L290,219L289,220L287,221L285,224L283,226L280,230L278,234L276,238L273,243L271,246L269,250L268,253L267,254L266,255L265,255L264,255L263,255L261,255L259,254L258,253L255,251L252,249L247,246L243,244L238,241L233,238L227,236L222,233L216,230L210,227L205,224L200,221L196,219L193,217L190,215L187,214L186,212L184,211L183,210L182,209L182,208L183,208L186,208L189,208L194,208L200,208L208,208L217,209L226,210L235,211L244,212L251,213L259,214L267,214L272,215L276,216L280,216L282,216L283,216L284,216L285,217L285,216L285,214L285,212L285,210L285,206L285,202L284,196L284,187L287,174L295,161L296,155L296,151" stroke-opacity="1" stroke-width="5" stroke-linecap="round" stroke-linejoin="round" style="-webkit-tap-highlight-color: rgba(0, 0, 0, 0); stroke-opacity: 1; stroke-linecap: round; stroke-linejoin: round; -webkit-user-select: text;"></path><path fill="none" stroke="#000000" d="M313,144L315,142L317,142L321,142L324,142L328,142L332,143L337,143L344,144L348,144L352,145L356,145L358,146L360,146L361,146L362,146L362,147L362,148L362,149L362,151L362,154L362,159L362,165L362,172L362,179L362,186L362,194L362,199L362,204L361,207L361,210L361,211L360,212L359,212L358,212L357,212L355,212L353,212L348,211L342,209L334,208L328,207L321,205L315,203L308,201L302,200L298,200L295,199L293,199L292,198L291,198L291,197L292,197L294,196L298,195L303,192L312,190L320,187L329,185L339,182L349,178L356,175L363,171L370,168L375,166L379,163L382,162L383,161L385,161L385,162L385,164L386,166L386,169L387,173L389,178L390,183L392,188L394,194L395,198L397,202L398,205L399,208L400,209L400,211L400,212L400,213L400,214L399,215L398,215L397,216L396,217L394,217L392,218L390,218L387,219L385,219L382,220L379,220L376,221L372,221L368,222L364,223L360,224L356,224L351,225L347,226L343,227L339,228L334,229L329,231L325,233L321,234L316,236L312,238L309,241L306,243L303,246L301,248L298,251L296,253L294,256L292,259L289,261L288,264L285,266L284,269L283,271L281,273L280,275L279,277L278,280L277,282L276,284L275,285L274,287L273,289L273,292L272,294L271,295L271,297L270,299L269,300L269,302L268,303L268,304L267,305L267,306L266,306" stroke-opacity="1" stroke-width="5" stroke-linecap="round" stroke-linejoin="round" style="-webkit-tap-highlight-color: rgba(0, 0, 0, 0); stroke-opacity: 1; stroke-linecap: round; stroke-linejoin: round; -webkit-user-select: text;"></path><path fill="none" stroke="#000000" d="M268,320L266,321L266,323L265,325L264,327L262,328L260,331L257,332L255,333L253,335L251,336L248,337L246,337L244,338L242,338L239,338L236,338L232,338L229,338L225,338L222,338L218,338L214,338L210,336L205,335L202,333L198,332L194,330L191,328L188,326L184,324L181,321L178,319L176,317L172,315L169,313L166,311L163,309L160,308L157,306L155,304L154,304L153,303L152,303L151,303L150,303L148,305L145,307L142,309L138,312L133,314L129,317L126,319L122,322L118,324L115,326L113,327L111,328L110,329L110,330L110,331L110,333L113,336L117,340L120,345L125,350L129,356L132,360L135,364L137,368L139,371L141,374L142,375L142,376L143,376L143,377L144,377L144,376L146,373L148,370L150,366L153,360L157,353L161,345L166,336L171,326L176,317L179,309L183,302L185,297L187,294L188,291L189,290L190,289L189,289L188,289L186,289L183,289L178,287L173,285L166,284L160,281L155,279L150,276L147,275L144,273L142,272L141,272L141,273L141,275L141,278L141,285L144,294L148,304L154,318L159,331L164,343L168,355L171,365L174,373L176,379L178,384L178,387L179,389L180,389" stroke-opacity="1" stroke-width="5" stroke-linecap="round" stroke-linejoin="round" style="-webkit-tap-highlight-color: rgba(0, 0, 0, 0); stroke-opacity: 1; stroke-linecap: round; stroke-linejoin: round; -webkit-user-select: text;"></path><path fill="none" stroke="#000000" d="M166,402L161,403L159,403L155,403L151,404L146,404L140,404L134,405L127,405L122,405L117,405L113,405L110,405L108,405L106,405L105,405L104,405L103,405L102,405L102,404L102,403L102,401L102,396L104,391L106,384L108,377L111,370L113,364L115,359L115,355L116,353L117,353L117,352L118,352L119,353L120,354L122,357L125,361L128,366L132,372L136,379L140,386L143,392L145,398L147,402L148,406L149,409L149,410L149,411L148,412L147,412L144,413L142,414L137,415L130,418L123,420L116,422L110,426L105,428L101,430L97,433L94,435L92,437L90,438L89,438L88,438L87,438L86,438L85,438L84,438L84,437L82,435L81,433L78,429L76,425L72,419L69,413L65,407L62,401L59,397L57,393L55,389L54,387L53,384L52,383L52,382L53,382L54,382L55,382L57,382L58,382L60,382L62,382L64,383L66,384L69,386L72,387L75,389L78,391L81,392L83,394L86,396L88,398L90,400L91,402L93,405L95,407L96,409L97,411L98,414L99,417L100,419L101,422L101,424L101,427L102,430L102,433L102,436L102,439L102,442L102,445L102,447L102,450L102,452L102,455L102,457L102,460L101,462L101,464L100,466L99,468L98,471L98,473L97,475L96,478L95,480L94,482L93,484L92,486L92,489L91,491L91,493L90,495L89,498L88,501L88,504L88,507L87,510L87,513L86,515L86,517L86,518L86,519L86,520" stroke-opacity="1" stroke-width="5" stroke-linecap="round" stroke-linejoin="round" style="-webkit-tap-highlight-color: rgba(0, 0, 0, 0); stroke-opacity: 1; stroke-linecap: round; stroke-linejoin: round; -webkit-user-select: text;"></path><path fill="none" stroke="#000000" d="M92,543L93,547L93,550L93,553L93,556L93,559L94,563L95,566L96,568L97,571L99,574L101,576L102,579L104,581L106,584L108,586L111,588L113,590L115,592L117,593L119,595L121,596L122,597L124,598L126,598L127,599L130,600L132,601L135,602L137,603L140,603L143,604L145,605L147,605L149,606L151,606L153,607L155,607L157,608L159,608L160,609L162,609L163,610L164,610L165,610L166,611L166,607L165,603L164,597L164,591L163,584L163,579L162,575L161,572L161,569L161,566L160,564L160,562L159,560L159,558L158,556L158,555L157,555L157,554L156,554L155,554L154,554L152,555L150,556L147,558L142,560L137,564L132,567L128,570L123,574L119,577L115,581L111,585L107,588L104,591L101,594L98,597L95,599L93,601L91,603L90,603L88,603L87,603L86,603L85,603L83,603L81,602L80,600L78,598L75,596L73,593L70,590L66,586L63,582L60,579L57,576L54,574L53,572L52,570L51,569L50,568L50,567L50,566L50,565L50,564L52,563L54,560L60,554L67,548L74,541L79,535L85,530L91,525L95,521L98,518L101,516L102,515L103,515L104,515L104,516L104,518L105,521L107,525L109,530L110,535L112,541L115,548L118,556L120,564L122,572L124,580L126,586L127,592L129,596L130,600L131,603L132,605L132,607L133,608" stroke-opacity="1" stroke-width="5" stroke-linecap="round" stroke-linejoin="round" style="-webkit-tap-highlight-color: rgba(0, 0, 0, 0); stroke-opacity: 1; stroke-linecap: round; stroke-linejoin: round; -webkit-user-select: text;"></path><path fill="none" stroke="#000000" d="M142,619L144,616L146,615L148,614L149,613L152,610L155,606L159,600L163,593L169,584L174,576L182,565L189,554L195,546L203,535L209,526L214,520L217,515L220,511L222,508L224,506L225,506L225,505L223,504L220,502L216,499L212,496L207,492L201,488L197,485L193,481L191,479L188,478L188,477L188,478L187,479L186,482L185,486L182,491L179,498L176,506L172,513L169,520L167,525L166,528L165,531L165,533L165,534L166,534L167,534L170,534L173,535L178,536L184,537L192,539L200,540L208,542L215,543L222,545L226,546L230,547L232,548L234,548L234,546L235,542L236,535L237,529L238,521L239,514L240,508L241,503L242,498L242,493L242,489L242,486L242,484L242,481L242,480L242,479L241,478L240,477L239,477L238,477L237,477L236,477L235,477L233,477L230,477L227,477L222,478L218,479L213,481L209,484L205,488L203,491L201,494L200,497L199,501L199,504L199,507L199,509L199,511L199,513L200,515L202,517L204,518L206,520L208,522L210,523L212,524L214,525L216,526L219,527L221,528L223,528L225,528L228,529L230,529L232,529L235,529L237,529L239,529L241,529L243,529L245,528L246,528L249,527L251,527L252,526L254,525L256,524L258,523L260,521L262,520L263,519L266,517L267,516L269,514L271,513L273,511L274,510L276,508L278,506L279,505L281,503L283,501L285,499L287,498L289,496L292,494L294,492L297,490L299,488L302,486L304,484L307,482L310,481L314,479L317,477L321,476L324,474L327,474L330,472L334,472L337,471L339,471L341,470L343,470L344,470L345,470L345,469L346,467" stroke-opacity="1" stroke-width="5" stroke-linecap="round" stroke-linejoin="round" style="-webkit-tap-highlight-color: rgba(0, 0, 0, 0); stroke-opacity: 1; stroke-linecap: round; stroke-linejoin: round; -webkit-user-select: text;"></path><path fill="none" stroke="#000000" d="M355,476L360,473L363,473L367,473L371,473L375,473L380,473L384,473L389,474L395,476L400,477L404,479L409,481L413,483L417,486L420,488L424,491L427,494L430,497L431,501L434,504L435,508L436,512L437,516L438,519L439,522L439,525L440,528L440,532L441,535L441,539L441,542L441,545L441,548L441,551L441,553L441,554L441,556L441,557L441,558L441,559L440,559L439,559L438,560L435,560L431,560L427,560L423,560L418,560L412,560L407,560L402,560L398,560L395,560L392,560L390,560L388,560L387,560L386,560L385,560L385,559L385,557L385,555L386,553L388,549L394,541L399,533L404,524L410,516L416,507L422,499L428,490L431,483L434,478L436,474L437,472L438,472L438,471L439,471L439,472L440,472L441,474L444,476L448,479L453,482L458,486L463,490L468,493L472,496L475,499L479,501L481,503L483,506L485,508L485,509L486,510L486,511L486,512L485,512L485,513L483,514L479,517L473,521L466,528L459,534L452,542L446,550L438,559L432,567L428,572L425,576L424,579L421,581L420,583L419,584L418,584L417,584L416,584L414,584L414,581L411,578L408,571L404,564L399,555L395,548L392,543L389,539L386,535L384,532L382,530L380,528L378,526L377,525L376,524L375,523L374,522L374,521L374,520L374,519L374,518L375,516L375,514L377,510L379,504L382,499L385,491L389,481L395,472L407,455L417,443" stroke-opacity="1" stroke-width="5" stroke-linecap="round" stroke-linejoin="round" style="-webkit-tap-highlight-color: rgba(0, 0, 0, 0); stroke-opacity: 1; stroke-linecap: round; stroke-linejoin: round; -webkit-user-select: text;"></path><path fill="none" stroke="#000000" d="M432,432L433,428L435,424L439,419L443,413L447,408L452,402L455,398L458,394L460,392L462,390L463,389L464,389L465,389L466,389L468,391L472,394L477,399L482,404L488,409L494,414L499,418L502,420L505,423L507,425L507,426L508,428L508,429L508,430L507,433L503,437L499,443L492,452L483,464L475,474L470,483L465,490L461,497L459,501L457,505L455,507L455,508L454,508L453,508L452,507L449,504L446,501L441,496L437,491L432,485L426,479L420,472L413,465L405,459L397,452L391,447L386,443L383,440L380,438L378,436L378,435L378,434L378,433L379,432L381,430L384,428L390,423L398,418L407,411L418,404L427,397L437,389L446,382L454,375L460,370L464,366L467,363L469,362L470,361L470,360L470,361L470,362L470,363L470,365L471,366L473,369L474,372L476,376L478,380L479,385L480,389L480,394L480,398L480,402L480,406L480,410L480,413L478,417L477,421L476,425L475,429L473,433L472,437L471,441L470,445L469,449L469,453L468,456L468,460L468,462L468,466L468,469L468,472L468,476L468,479L469,482L469,484L470,487L471,489L472,492L473,494L474,496L475,499L477,501L478,503L480,505L481,507L482,508L484,511L485,512L487,514L489,516L491,517L492,519L494,520L497,521L499,523L501,524L503,525L505,525L507,526L508,527L510,527L512,527" stroke-opacity="1" stroke-width="5" stroke-linecap="round" stroke-linejoin="round" style="-webkit-tap-highlight-color: rgba(0, 0, 0, 0); stroke-opacity: 1; stroke-linecap: round; stroke-linejoin: round; -webkit-user-select: text;"></path><path fill="none" stroke="#000000" d="M543,550L545,549L548,549L549,549L551,549L554,549L556,550L559,550L561,551L564,552L567,552L569,552L572,552L575,552L579,552L582,552L586,552L590,552L593,553L597,554L600,554L604,556L607,557L611,559L614,561L617,563L620,565L623,567L625,569L627,572L630,575L631,578L633,581L634,584L635,587L636,591L636,595L637,598L637,602L637,605L637,608L637,611L637,613L637,615L637,616L637,617L637,618L636,618L635,618L633,617L631,615L628,612L624,608L620,603L616,597L612,591L608,586L604,580L601,574L597,568L594,562L591,557L588,551L586,547L584,544L584,541L583,540L582,538L582,537L581,537L580,537L580,538L579,540L578,542L575,545L572,548L567,553L561,558L556,564L550,569L545,574L541,579L538,583L536,585L534,587L534,588L536,589L537,590L540,592L544,595L549,598L554,603L559,608L563,611L565,614L568,617L571,619L572,620L573,621L574,621L575,621L576,621L577,621L577,620L579,617L582,613L585,607L589,601L594,593L600,586L606,578L611,569L618,559L624,550L629,542L633,537L635,533L637,531L638,529L639,528L638,528L636,528L635,528L633,528L631,527L628,527L624,525L619,524L613,522L607,520L599,517L592,514L584,511L575,507L565,503L554,499L545,499L534,499" stroke-opacity="1" stroke-width="5" stroke-linecap="round" stroke-linejoin="round" style="-webkit-tap-highlight-color: rgba(0, 0, 0, 0); stroke-opacity: 1; stroke-linecap: round; stroke-linejoin: round; -webkit-user-select: text;"></path><path fill="none" stroke="#000000" d="M529,489L525,487L523,486L521,484L517,481L514,478L509,474L505,470L501,467L497,462L494,460L491,457L489,455L487,454L487,453L487,452L488,452L492,448L498,444L504,440L511,435L516,430L522,425L526,421L528,419L530,417L531,415L532,414L533,414L534,415L534,416L536,418L538,421L541,425L545,429L549,433L553,438L555,441L558,444L560,447L561,448L562,450L562,451L562,452L562,453L560,454L558,456L553,459L547,462L540,466L533,469L526,474L521,478L516,481L514,483L512,484L511,485L510,486L509,486L508,486L507,486L506,486L505,486L504,485L503,484L502,482L500,480L499,477L497,475L496,472L494,468L493,464L492,461L491,458L490,455L490,453L490,450L490,448L490,445L490,443L490,441L490,439L490,437L490,435L490,433L490,431L490,429L491,427L493,425L494,423L497,420L498,418L499,416L501,413L502,411L504,409L506,407L507,405L508,403L510,401L511,399L512,396L514,395L515,393L516,391L516,389L517,388L518,386L519,384L519,382L519,381L520,379L520,377L521,375L521,373L521,371L521,369L521,367L521,365L521,363L521,362L521,360L521,358L521,356L521,355L521,354L521,353" stroke-opacity="1" stroke-width="5" stroke-linecap="round" stroke-linejoin="round" style="-webkit-tap-highlight-color: rgba(0, 0, 0, 0); stroke-opacity: 1; stroke-linecap: round; stroke-linejoin: round; -webkit-user-select: text;"></path><path fill="none" stroke="#000000" d="M530,329L528,327L528,325L528,323L528,321L528,319L527,317L526,315L524,314L523,312L521,311L519,310L517,308L515,307L513,306L510,305L507,305L504,304L502,304L499,303L496,302L494,302L492,301L489,300L487,300L485,299L482,299L480,298L477,297L474,297L472,295L469,294L466,294L464,292L461,291L459,290L457,289L455,287L453,286L451,284L449,282L447,280L445,277L443,275L441,273L438,270L437,269L436,267L434,266L434,265L434,264L435,264L437,264L440,263L445,260L450,258L455,255L460,252L465,249L468,247L471,245L473,244L474,243L475,243L475,244L476,246L477,248L478,251L480,254L482,259L485,264L487,270L490,275L493,281L495,286L497,289L499,294L500,297L501,299L502,300L502,301L502,302L502,303L501,303L500,304L498,306L496,307L494,309L491,312L487,315L483,319L478,324L475,328L471,332L468,336L465,338L463,340L462,342L461,343L460,343L459,343L458,343L457,343L455,343L454,343L452,342L449,340L445,338L441,335L436,333L432,330L428,327L424,324L422,322L419,320L418,319L417,319L417,318L417,317L417,316L419,316L424,314L429,312L435,309L442,306L450,302L456,298L463,295L468,292L474,290L479,287L485,284L493,279L504,274" stroke-opacity="1" stroke-width="5" stroke-linecap="round" stroke-linejoin="round" style="-webkit-tap-highlight-color: rgba(0, 0, 0, 0); stroke-opacity: 1; stroke-linecap: round; stroke-linejoin: round; -webkit-user-select: text;"></path><path fill="none" stroke="#000000" d="M529,267L534,264L537,264L540,263L544,260L548,258L551,257L554,255L557,254L558,253L559,253L560,253L561,253L562,254L563,256L565,260L567,264L570,269L573,274L576,280L579,284L581,287L583,290L584,293L585,295L585,297L586,297L586,298L586,299L586,300L585,301L584,303L581,304L577,307L572,310L566,314L559,317L552,321L544,325L538,328L531,332L527,335L524,337L521,338L520,340L519,340L518,341L517,341L516,341L516,340L515,337L514,333L513,329L512,325L512,321L511,318L511,315L510,312L510,311L509,309L509,308L509,307L509,306L511,306L514,304L519,301L524,298L527,296L531,294L533,292L535,291L536,291L537,290L538,290L539,290L540,291L541,292L542,294L544,296L547,299L550,303L553,307L556,310L559,314L562,318L565,322L567,326L568,329L570,333L571,336L572,339L572,342L573,346L573,350L574,353L574,357L574,360L574,363L574,366L574,368L574,371L574,373L574,376L574,379L574,381L574,384L574,386L574,388L574,391L574,393L574,395L574,398L574,400L574,403L574,405L575,407L575,409L576,410L576,412L577,413L577,414L578,416L579,417L579,418L580,418" stroke-opacity="1" stroke-width="5" stroke-linecap="round" stroke-linejoin="round" style="-webkit-tap-highlight-color: rgba(0, 0, 0, 0); stroke-opacity: 1; stroke-linecap: round; stroke-linejoin: round; -webkit-user-select: text;"></path><path fill="none" stroke="#000000" d="M593,443L593,446L593,447L593,450L594,452L596,454L597,456L599,458L601,460L603,462L605,464L607,466L609,467L611,469L614,470L616,472L619,473L621,474L623,475L626,476L628,477L630,478L631,479L633,481L633,482L634,483L635,483L635,484L636,484L636,485L636,486L635,486L633,488L629,491L625,494L620,496L616,500L611,503L607,506L604,509L601,512L599,515L596,517L594,519L593,520L592,521L591,522L590,522L589,522L588,522L587,522L587,521L585,519L583,517L579,513L575,508L572,504L569,501L565,499L562,496L560,494L558,492L555,490L553,489L551,487L550,485L548,484L547,481L546,480L546,478L546,476L546,475L546,474L546,472L548,470L554,465L561,459L570,451L580,442L589,435L597,428L605,422L611,417L615,413L618,411L621,409L622,408L623,408L623,409L625,411L626,414L628,417L630,421L631,426L633,431L633,435L634,440L634,443L635,447L635,451L635,454L636,457L636,460L636,462L636,463L636,464L635,464L633,464L630,464L626,464L618,461L611,458L603,454L594,451L585,447L576,443L567,438L558,432L549,426L541,422L534,418L529,415L526,413L524,411L523,411" stroke-opacity="1" stroke-width="5" stroke-linecap="round" stroke-linejoin="round" style="-webkit-tap-highlight-color: rgba(0, 0, 0, 0); stroke-opacity: 1; stroke-linecap: round; stroke-linejoin: round; -webkit-user-select: text;"></path><path fill="none" stroke="#000000" d="M512,399L509,397L507,397L502,395L497,392L491,389L486,387L480,385L473,382L468,381L464,379L460,378L458,377L457,377L457,376L456,376L456,375L456,374L456,372L456,370L458,363L462,355L468,346L472,340L477,332L481,326L483,322L486,319L487,317L488,316L489,316L490,316L492,316L494,317L497,320L502,324L507,327L513,332L516,335L519,338L521,340L523,341L523,343L524,343L524,344L524,345L524,346L522,349L520,352L516,357L509,365L502,373L495,382L488,390L482,398L478,404L475,409L473,414L471,417L470,418L469,419L468,419L467,419L467,418L466,417L465,415L464,413L463,411L462,409L461,407L460,405L459,402L458,399L457,395L456,391L456,387L456,384L456,381L456,377L456,374L456,371L456,368L456,365L455,362L455,359L454,355L453,352L452,348L451,345L450,342L449,339L448,336L446,333L444,331L443,329L441,326L439,325L438,323L436,321L433,320L431,319L429,318L426,316L424,316L421,315L419,314L417,313L415,312L412,312L410,311L408,311L406,310L404,309L402,309L400,308L398,307L397,307L395,305L393,304L392,303L390,301L389,300L387,299L386,297L385,296L385,294L384,294L384,293" stroke-opacity="1" stroke-width="5" stroke-linecap="round" stroke-linejoin="round" style="-webkit-tap-highlight-color: rgba(0, 0, 0, 0); stroke-opacity: 1; stroke-linecap: round; stroke-linejoin: round; -webkit-user-select: text;"></path><path fill="none" stroke="#000000" d="M394,277L390,274L389,274L388,272L387,270L387,268L386,265L386,262L386,259L386,255L386,252L387,248L388,245L390,241L393,237L397,234L400,230L404,227L407,224L412,222L415,220L418,218L421,217L423,215L426,214L428,212L430,210L431,209L433,207L435,205L436,202L438,200L439,198L440,196L440,195L441,193L441,192L441,191L441,190L440,190L438,190L435,189L431,188L427,186L423,183L419,180L415,178L412,175L409,172L406,170L404,169L403,169L403,170L402,172L401,175L397,180L393,186L387,192L382,197L378,200L376,202L375,203L374,203L374,204L375,205L378,207L381,210L387,214L394,220L401,226L408,232L416,239L423,245L429,250L434,255L438,259L441,262L444,264L446,265L446,263L448,259L451,252L455,245L459,237L463,229L466,222L468,217L470,212L471,209L472,206L472,205L472,204L470,204L466,204L460,207L452,209L443,212L436,215L430,217L426,219L421,220L419,221L418,222L418,223L418,224L418,225L419,227L421,231L423,236L425,241L428,249L431,257L433,266L436,274L438,282L440,287L442,293" stroke-opacity="1" stroke-width="5" stroke-linecap="round" stroke-linejoin="round" style="-webkit-tap-highlight-color: rgba(0, 0, 0, 0); stroke-opacity: 1; stroke-linecap: round; stroke-linejoin: round; -webkit-user-select: text;"></path><path fill="none" stroke="#000000" d="M451,306L452,301L452,299L453,296L455,293L458,291L462,287L466,283L471,278L477,270L483,263L489,255L495,247L499,241L503,236L506,231L508,227L510,225L511,224L511,223L511,222L511,220L511,218L509,215L507,212L505,207L503,203L502,198L500,194L499,190L498,187L497,185L497,184L496,183L495,183L494,183L492,183L489,184L483,187L477,190L469,193L460,198L453,201L448,204L444,205L441,206L439,206L439,207L441,209L443,211L446,215L451,220L456,225L462,231L467,238L474,245L478,251L483,255L486,259L488,261L490,263L491,264L492,264L492,263L492,262L494,258L497,253L499,247L501,241L503,235L505,228L507,222L507,218L509,214L509,210L510,207L511,204L512,202L514,198L516,195L518,192L520,190L523,187L525,185L528,183L530,180L533,179L535,177L538,175L540,174L542,173L544,172L547,171L548,170L550,170L552,169L553,168L555,168L556,167L557,166L558,166L559,165L560,164L561,163L562,162L562,161L563,160L564,159L565,158" stroke-opacity="1" stroke-width="5" stroke-linecap="round" stroke-linejoin="round" style="-webkit-tap-highlight-color: rgba(0, 0, 0, 0); stroke-opacity: 1; stroke-linecap: round; stroke-linejoin: round; -webkit-user-select: text;"></path><path fill="none" stroke="#000000" d="M589,150L592,146L592,144L594,141L595,139L596,136L597,134L598,132L599,129L599,127L600,125L600,123L600,120L600,118L599,115L598,113L596,111L594,109L592,108L589,106L587,105L585,103L582,102L580,100L578,99L576,97L573,95L571,93L569,91L567,89L564,87L562,84L559,82L557,79L555,76L552,73L550,70L548,67L548,65L546,63L545,63L544,63L543,65L540,68L536,73L531,78L525,84L517,91L511,96L505,100L501,104L497,107L495,109L494,110L494,111L495,112L497,113L499,116L502,120L506,125L510,131L514,136L517,140L521,143L524,146L526,147L527,148L528,148L529,148L530,148L531,148L535,145L541,139L548,135L556,128L564,121L573,113L581,106L587,100L593,95L597,91L601,88L603,87L604,86L605,86L606,86L606,87L606,88L606,90L607,93L609,97L611,102L613,109L615,116L616,125L617,134L618,141L618,148L619,153L619,158L620,161L620,163L620,164L620,165L619,165L618,165L616,165L611,165L604,165L595,165L582,164L570,164L557,162L545,160L533,157L524,155L516,153L512,151L510,150L509,150" stroke-opacity="1" stroke-width="5" stroke-linecap="round" stroke-linejoin="round" style="-webkit-tap-highlight-color: rgba(0, 0, 0, 0); stroke-opacity: 1; stroke-linecap: round; stroke-linejoin: round; -webkit-user-select: text;"></path><path fill="none" stroke="#000000" d="M501,140L497,139L495,139L492,139L489,137L484,135L480,133L475,130L471,128L466,125L462,123L458,122L455,120L453,119L452,119L451,119L450,121L449,123L447,127L445,132L443,138L442,144L441,150L440,155L439,159L438,162L438,164L437,165L437,166L438,167L441,168L445,170L450,173L456,177L461,180L465,183L469,185L472,187L475,189L476,190L477,190L478,190L479,189L480,186L482,180L486,172L491,163L494,153L497,145L500,137L502,129L505,124L507,120L508,117L508,114L509,114L509,113L507,113L506,113L502,113L496,113L490,114L483,115L476,116L468,116L461,116L453,116L446,116L438,116L432,116L427,116L422,116L419,116L417,116L417,117L417,118L417,119L417,121L417,122L418,124L419,127L421,129L422,131L424,133L426,135L428,137L431,139L433,141L436,143L438,144L441,146L444,147L448,148L451,149L454,151L457,152L461,153L464,154L467,156L470,157L474,158L477,160L480,162L484,164L487,167L490,169L494,171L497,173L500,176L503,178L505,180L508,182L510,185L512,187L514,190L516,192L518,195L519,199L521,202L523,204L524,208L525,211L526,214L527,217L528,220L528,223L529,224L529,226L530,226L531,226" stroke-opacity="1" stroke-width="5" stroke-linecap="round" stroke-linejoin="round" style="-webkit-tap-highlight-color: rgba(0, 0, 0, 0); stroke-opacity: 1; stroke-linecap: round; stroke-linejoin: round; -webkit-user-select: text;"></path><path fill="none" stroke="#000000" d="M542,240L543,243L543,245L544,247L545,250L547,252L548,254L550,256L552,258L554,260L556,261L558,262L560,264L562,265L565,266L568,268L570,268L573,269L576,270L579,270L582,272L584,273L587,274L590,276L592,278L596,280L598,282L600,283L602,285L604,286L607,288L609,290L611,292L613,295L614,297L616,300L617,302L617,304L618,306L619,308L619,309L620,309L620,310L620,311L619,313L616,316L613,320L610,326L606,332L603,336L600,339L598,343L596,345L595,347L594,348L593,348L592,348L591,346L589,343L587,340L584,337L582,334L579,331L577,327L574,323L571,320L568,316L565,313L563,310L561,308L560,306L559,304L558,304L558,303L558,302L558,301L559,299L563,296L568,292L575,287L583,280L590,275L596,270L601,265L606,262L609,259L611,257L613,256L614,255L615,255L616,255L617,255L618,255L621,257L623,259L627,261L630,263L634,266L638,268L641,271L644,274L647,277L649,279L651,281L652,282L652,283L653,284L653,285L652,285L652,286L652,287L651,288L650,290L649,294L648,299L646,306L644,316L642,329L641,341L641,355" stroke-opacity="1" stroke-width="5" stroke-linecap="round" stroke-linejoin="round" style="-webkit-tap-highlight-color: rgba(0, 0, 0, 0); stroke-opacity: 1; stroke-linecap: round; stroke-linejoin: round; -webkit-user-select: text;"></path><path fill="none" stroke="#000000" d="M652,381L653,384L653,387L653,391L653,396L653,402L655,408L656,413L657,417L659,421L659,424L660,426L658,426L655,426L650,426L644,425L637,423L630,422L623,421L616,421L610,421L605,421L601,421L599,421L597,421L596,421L596,420L596,418L596,416L596,409L597,401L598,394L599,386L599,380L599,375L600,371L600,369L600,368L600,367L601,367L604,367L609,367L615,367L623,367L632,367L641,367L651,367L661,367L669,367L676,367L681,367L685,367L687,367L689,368L689,369L689,370L689,372L689,376L689,382L689,389L690,398L691,406L691,414L691,420L692,426L692,430L693,433L693,435L691,435L689,435L686,435L682,435L677,433L672,431L668,430L665,428L661,427L658,426L656,423L653,421L650,419L648,417L646,414L644,412L643,410L641,409L640,407L639,405L638,403L637,401L635,399L634,396L633,394L632,393L631,391L630,389L630,387L629,385L628,382L628,380L627,377L626,375L626,373L626,370L625,368L625,365L624,363L624,360L624,358L624,355L624,353L624,350L624,348L624,345L624,343L624,341L624,339L624,336L624,334L624,332L624,330L624,328L624,326L624,324L624,322L624,320L624,319L623,317L623,315L622,313L621,311L619,308L618,304L617,302" stroke-opacity="1" stroke-width="5" stroke-linecap="round" stroke-linejoin="round" style="-webkit-tap-highlight-color: rgba(0, 0, 0, 0); stroke-opacity: 1; stroke-linecap: round; stroke-linejoin: round; -webkit-user-select: text;"></path><path fill="none" stroke="#000000" d="M623,310L628,308L631,308L635,308L639,308L647,308L655,308L665,309L672,309L679,309L683,310L687,310L689,310L690,311L691,311L691,312L691,315L691,319L691,326L691,333L690,340L689,347L686,353L684,359L682,363L680,366L679,368L678,370L677,370L676,370L674,370L672,367L668,362L663,355L658,348L653,341L648,333L644,326L639,319L635,313L631,309L627,304L624,302L623,299L621,298L621,297L623,297L629,296L636,294L647,290L657,287L667,283L676,280L682,277L687,276L691,275L693,274L694,273L694,272L694,270L691,265L685,255L679,245L674,234L670,226L668,221L667,217L666,215L666,214" stroke-opacity="1" stroke-width="5" stroke-linecap="round" stroke-linejoin="round" style="-webkit-tap-highlight-color: rgba(0, 0, 0, 0); stroke-opacity: 1; stroke-linecap: round; stroke-linejoin: round; -webkit-user-select: text;"></path><path fill="none" stroke="#000000" d="M665,192L660,189L658,189L656,187L653,186L651,185L648,183L645,180L642,178L638,176L635,173L632,171L629,170L627,168L625,167L623,166L622,166L621,165L620,165L619,166L615,170L609,177L603,183L595,191L588,197L582,202L577,207L573,210L570,212L569,214L568,214L568,215L569,215L571,217L575,219L579,222L587,226L595,231L602,234L610,238L617,241L621,244L624,246L627,248L628,250L629,250L628,246L626,241L623,234L621,225L619,216L617,208L615,200L613,191L611,185L610,178L610,173L609,169L608,166L608,165L607,164L606,163L605,163L604,163L601,163L594,163L586,166L576,171L566,176L557,181L550,185L545,188L543,190L541,190L541,191L542,191L543,192L543,193L545,195L546,197L549,202L552,207L555,214L559,221L562,229L566,235L568,240L570,243L572,246L574,248L576,249L577,250L579,251L582,251L584,252L587,252L589,252L591,252L594,252L596,252L599,252L601,252L604,252L606,252L609,252L611,252L613,251L614,249L616,248L618,246L620,244L621,242L623,240L625,238L626,236L628,234L629,232L630,229L632,226L633,224L633,221L634,218L635,216L635,214L636,211L636,209L637,206L638,202L638,200L638,196L639,193L640,190L640,187L640,184L641,181L642,178L643,175L644,171L645,168L647,165L649,162L651,160L653,158L656,155L658,153L660,151L662,150L663,149L664,148L665,148L665,147L667,147" stroke-opacity="1" stroke-width="5" stroke-linecap="round" stroke-linejoin="round" style="-webkit-tap-highlight-color: rgba(0, 0, 0, 0); stroke-opacity: 1; stroke-linecap: round; stroke-linejoin: round; -webkit-user-select: text;"></path><path fill="none" stroke="#000000" d="M690,135L691,131L693,130L695,129L697,128L700,127L703,126L706,124L710,124L713,123L715,122L717,122L718,121L720,121L722,120L723,120L724,119L725,119L726,119L727,118L728,118L729,117L730,117L731,117L732,117L733,117L733,116L734,116L734,115L734,114L734,113L734,112L732,109L730,107L728,103L725,98L722,94L719,89L716,84L713,79L710,75L708,71L706,68L704,65L703,64L702,63L701,63L701,65L699,67L694,71L687,75L681,78L674,82L667,86L660,89L655,92L652,94L650,95L649,96L649,97L649,98L649,100L650,102L653,105L657,110L662,116L668,123L674,129L680,137L685,143L690,149L694,154L697,158L699,161L701,163L702,164L703,165L704,164L705,161L708,157L711,152L714,147L717,142L719,138L721,134L723,131L725,128L726,125L727,123L728,121L728,119L728,118L728,117L727,115L724,114L719,112L713,111L707,110L700,109L694,108L687,107L681,107L674,107L669,107L664,107L661,107L659,107L658,107L658,108L658,109L658,110L658,111L659,112L660,115L662,119L665,127L670,136L675,145L682,157L688,166L694,176L698,183L701,189L704,194L706,198L707,201L708,202L709,204L709,202" stroke-opacity="1" stroke-width="5" stroke-linecap="round" stroke-linejoin="round" style="-webkit-tap-highlight-color: rgba(0, 0, 0, 0); stroke-opacity: 1; stroke-linecap: round; stroke-linejoin: round; -webkit-user-select: text;"></path></svg>