<svg height="906" version="1.1" width="768" xmlns="http://www.w3.org/2000/svg" xmlns:xlink="http://www.w3.org/1999/xlink" style="overflow: hidden; position: relative; -webkit-user-select: text;"><desc style="-webkit-tap-highlight-color: rgba(0, 0, 0, 0); -webkit-user-select: text;">Created with Raphaël 2.2.0</desc><defs style="-webkit-tap-highlight-color: rgba(0, 0, 0, 0); -webkit-user-select: text;"></defs><path fill="none" stroke="#000000" d="M133,216L139,212L141,212L144,212L146,210L148,209L151,208L154,207L158,205L161,203L166,201L170,198L175,196L179,194L184,192L189,190L194,188L199,186L204,184L210,181L215,180L222,177L227,174L233,172L240,169L247,167L254,164L261,161L267,158L274,155L282,152L289,149L297,146L304,142L311,139L318,136L325,132L332,130L339,127L345,123L350,121L356,119L360,117L365,114L368,113L371,111L373,110L375,110L376,109L377,110L377,111L377,113L377,114L378,116L378,118L378,121L378,124L379,128L379,132L380,137L380,141L380,146L381,151L382,156L383,161L383,166L384,171L385,176L385,182L386,188L387,194L387,200L389,206L390,212L391,218L392,224L393,229L395,235L396,241L397,247L399,252L400,258L401,263L402,268L402,273L403,278L404,282L404,286L406,290L407,294L408,298L409,302L410,306L411,310L412,313L412,316L414,319L414,323L415,326L416,329L417,331L417,334L418,335L419,337L419,339L419,340L419,341L419,342L419,343L419,344L420,344L420,345L420,346L420,347L419,347L419,348L418,348L417,348L416,348L416,349L415,349L414,349L412,349L411,349L409,350L408,351L406,351L403,352L401,353L397,354L394,355L390,356L386,357L380,359L375,361L369,363L363,366L358,368L350,370L344,373L338,375L331,377L324,380L317,382L310,384L302,386L295,388L288,391L280,393L273,395L266,398L259,400L251,402L244,405L237,407L231,409L224,412L219,414L213,415L207,417L203,419L198,420L193,422L189,423L186,424L183,425L181,426L179,426L177,426L176,427L175,427L174,427L173,427L172,427L172,426L172,425L173,424L174,423L175,421L176,419L178,416L181,412L184,408L188,402L193,397L198,392L203,385L208,379L214,373L220,366L225,360L231,353L236,348L242,341L248,335L253,329L259,322L264,317L270,310L276,304L281,298L287,290L293,284L299,277L304,271L310,264L316,259L322,251L327,245L334,238L340,231L346,225L352,217L358,210L365,204L371,198L377,191L382,186L387,180L393,175L398,169L403,165L407,161L411,157L414,155L417,152L419,150L420,149L422,148L423,147L424,146L424,145L425,145L426,145L426,146L427,147L427,148L428,149L429,149L429,151L431,153L432,156L434,159L436,164L438,169L441,173L444,178L448,183L451,188L454,193L457,198L460,202L463,207L465,212L468,216L471,220L473,223L475,227L477,229L478,232L480,234L481,237L482,238L483,239L483,240L483,241L483,242L483,243L482,244L480,244L477,246L474,247L470,249L465,251L458,254L451,257L444,261L436,265L427,269L419,274L410,279L402,283L393,288L385,293L378,298L371,302L365,307L360,310L356,312L352,315L348,317L346,318L345,319L344,319L343,319L342,319L341,319L341,317L341,315L341,313L339,309L338,304L336,300L335,296L334,291L332,286L331,280L329,274L327,266L325,261L324,255L322,249L320,243L318,239L317,234L314,231L313,227L312,224L310,221L310,218L309,216L308,214L307,212L307,211L307,210L307,209L307,208L308,208L309,207L311,206L313,205L317,203L320,200L324,198L328,196L332,194L336,192L339,191L341,189L344,188L346,187L348,187L351,186L353,185L354,185L356,184L357,184L358,183L359,183L360,183L361,183L361,184L361,185L362,187L363,188L364,191L366,194L367,198L369,202L372,208L374,214L377,220L380,227L382,235L384,242L386,249L388,256L391,263L392,270L395,276L396,283L398,288L400,295L402,300L403,306L405,312L407,317L408,323L409,328L410,333L412,338L413,342L414,347L416,353L418,358L419,363L421,368L422,373L424,378L426,383L427,387L429,392L430,397L432,401L434,405L435,410L436,414L438,419L439,423L441,428L442,432L443,436L445,441L446,445L447,449L448,453L450,457L451,460L452,463L453,465L454,467L454,469L455,470L455,472L456,473L456,474L456,475L455,476L454,476L453,476L453,477L451,477L450,477L448,478L446,479L444,479L442,480L440,481L437,481L434,482L431,483L428,485L424,486L419,487L414,489L409,490L403,492L397,494L391,496L385,498L378,499L372,502L365,504L359,505L352,507L346,509L340,511L335,512L329,514L324,516L318,517L313,519L309,520L304,521L300,522L296,524L293,524L290,525L287,526L285,526L284,527L283,527L282,527L281,527L280,527L280,526L282,526L283,525L284,524L285,523L287,522L289,521L290,521L292,520L294,519L296,518L299,516L302,515L306,512L312,508L318,503L324,498L331,493L339,487L346,481L354,475L362,469L370,463L378,458L384,453L392,447L399,442L407,437L415,431L424,424L433,417L442,411L452,404L461,397L471,390L480,384L489,377L497,371L505,366L512,361L519,356L526,351L532,347L537,343L542,339L546,336L550,333L554,330L557,327L560,325L563,322L565,320L567,318L569,317L571,316L572,315L572,314L573,314L573,313L574,313L574,312L574,311L574,310L574,309L574,307L574,306L574,304L573,302L573,299L572,295L571,291L570,286L569,281L568,274L566,268L565,262L563,256L561,248L559,242L557,237L555,230L554,225L552,218L550,213L548,208L547,203L545,197L544,191L543,186L541,181L540,176L539,169L538,164L536,160L535,155L534,151L532,145L531,141L529,137L528,133L527,129L526,126L525,123L524,120L524,117L523,114L523,112L522,110L521,108L521,107L521,106L520,106L520,105L519,105L518,105L518,106L517,106L517,108L516,110L516,111L516,113L515,114L515,116L514,119L512,123L510,129L508,135L504,142L501,150L498,157L494,165L490,174L486,183L482,192L479,201L475,210L471,220L467,231L463,241L459,251L454,261L450,271L445,281L440,292L435,302L430,312L425,323L420,334L414,345L409,357L403,370L397,382L391,393L385,403L380,414L374,425L368,435L363,446L358,456L352,465L347,475L342,484L338,492L334,499L329,508L324,515L320,522L316,529L312,536L309,542L306,547L303,553L300,558L297,562L295,566L293,569L290,573L288,576L286,579L285,581L283,583L282,585L281,587L280,587L280,589L279,589L279,590L278,590L277,590L276,590L275,590L274,590L273,590L272,590L271,590L270,590L268,590L267,589L265,589L263,589L261,588L259,587L256,587L254,586L251,585L249,584L245,583L242,582L237,581L233,579L229,578L225,577L220,575L216,574L211,573L206,572L202,570L197,569L192,568L186,567L182,565L178,564L174,562L169,560L165,559L161,557L157,555L154,554L151,552L148,550L146,550L145,548L144,548L143,546L143,545L143,544L143,543L143,542L144,542L144,541L146,541L147,540L148,540L149,539L151,538L153,538L155,537L158,536L161,535L165,533L170,531L176,529L183,526L190,523L198,520L205,516L213,513L221,509L228,506L236,502L245,498L252,495L262,491L271,487L278,484L287,480L296,476L304,473L312,469L322,465L331,461L340,457L350,453L359,448L369,444L379,440L389,435L400,431L409,426L419,422L428,419L435,416L443,413L451,410L459,408L466,405L473,402L481,400L487,397L495,394L502,391L509,389L516,386L523,383L531,380L536,378L542,375L547,373L552,371L556,370L560,368L564,368L567,366L569,366L570,365L572,365L572,364L573,364L574,364L575,364L575,365L575,366L575,368L576,370L576,373L577,376L577,380L579,385L580,390L581,396L582,401L584,406L585,412L587,417L587,421L589,426L590,431L591,435L592,440L593,444L594,449L595,453L596,458L597,464L599,470L600,476L602,482L604,489L606,494L609,501L610,507L612,512L614,517L616,522L617,526L618,531L620,535L621,538L622,541L622,543L623,545L623,546L623,547L623,548L623,549L623,550L623,551L622,552L621,553L620,553L619,554L617,555L616,556L613,558L609,561L604,565L599,570L594,574L588,579L582,584L576,589L568,596L562,602L556,607L550,613L545,618L540,623L536,628L531,632L527,637L523,642L519,646L515,650L512,654L509,658L506,662L503,665L501,668L498,671L497,672L495,674L494,675L493,675L492,675L491,675L490,675L489,675L488,674L487,673L486,672L485,671L484,671L483,670L482,669L480,668L479,667L477,667L476,665L475,665L473,664L472,662L470,662L469,660L468,659L466,658L465,657L463,655L461,654L460,652L458,650L455,649L453,647L451,645L448,643L446,640L443,638L441,636L439,634L437,632L434,630L432,627L429,625L426,622L423,619L420,616L417,614L414,611L411,608L407,604L404,601L401,598L397,595L394,592L390,589L387,585L383,582L380,578L376,575L373,571L369,568L366,565L363,562L361,560L358,558L356,555L355,554L353,553L353,552L352,551L351,550L351,549L351,548L351,547L352,546L352,545L353,544L354,543L355,542L355,541L356,539L356,536L358,531L360,524L361,518L363,511L365,505L367,498L368,492L370,483L372,475L375,467L377,458L379,450L380,443L382,435L384,427L385,421L386,414L387,407L388,400L389,394L390,387L392,379L393,373L394,366L395,359L396,352L397,346L398,341L400,335L400,329L401,325L402,320L403,317L403,314L404,312L404,310L404,309L405,309L406,309L407,309L407,310L408,312L409,314L409,315L410,317L411,319L412,322L413,324L416,329L418,334L422,340L426,346L430,353L434,361L439,370L443,378L448,387L453,397L458,406L463,416L468,426L473,436L478,446L483,457L488,467L493,477L498,488L503,498L508,507L513,516L517,524L521,533L526,543L531,553L536,564L540,574L545,583L549,592L553,601L558,609L561,616L565,623L567,630L570,635L572,640L575,645L577,650L578,653L580,657L581,659L582,661L583,662L583,664L584,665L584,666L584,667L584,668L583,668L582,668L582,669L581,669L580,669L579,669L578,669L576,670L575,671L573,672L571,673L569,675L564,679L555,686L547,691L540,696L533,701L527,705L522,708L517,711L513,713L508,716L502,718L497,722L490,725L484,730L477,735L470,739L463,745L455,750L447,756L440,762L434,767L428,772L423,776L418,779L414,783L411,785L408,787L405,789L402,791L400,792L399,793L397,793L395,793L394,793L392,793L391,793L390,793L389,793L387,793L386,793L385,793L383,791L380,789L378,788L373,785L368,782L363,780L358,777L353,774L346,771L340,768L333,764L325,761L315,757L308,755L300,752L291,750L283,747L276,745L268,742L260,740L253,738L246,736L239,734L233,732L227,730L222,729L216,727L210,725L206,725L202,723L199,722L196,721L194,720L192,720L191,720L191,719L191,718L190,718L190,717L190,716L190,715L190,714L190,712L190,710L190,707L190,704L190,700L190,694L190,687L190,680L190,673L190,665L190,657L190,650L191,640L192,632L193,623L194,614L195,603L196,593L197,581L198,571L200,559L202,548L204,536L206,525L208,514L210,503L212,493L214,481L216,472L218,462L220,452L221,443L223,434L225,424L226,418L227,411L229,405L229,401L230,397L230,395L230,393L230,392L230,391L229,391L227,391L226,391L224,391L222,391L220,390L218,390L216,390L213,389L209,388L205,387L200,385L194,384L188,383L183,382L178,381L173,381L166,380L161,379L156,378L152,377L147,375L141,373L136,372L130,370L125,369L120,367L115,366L110,364L105,363L101,361L97,360L93,358L90,358L86,356L84,355L81,354L79,353L77,353L76,353L75,352L74,352L74,353L75,355L76,356L78,358L79,359L81,361L82,363L84,366L86,370L88,375L92,381L96,388L100,396L105,405L110,414L115,422L120,431L124,440L130,450L135,460L140,470L146,479L151,489L156,499L162,509L168,519L173,530L178,540L183,551L188,560L193,570L198,580L203,589L207,598L211,607L215,614L218,623L222,630L225,638L228,645L231,652L234,660L238,667L241,674L244,680L246,686L249,692L251,698L254,703L256,709L259,715L261,720L263,726L266,731L268,737L270,742L272,747L274,753L276,758L278,763L280,768L283,772L285,776L286,781L288,784L290,789L292,793L294,796L295,800L297,803L299,807L300,810L302,813L303,815L305,818L306,821L307,823L308,826L309,828L310,830L311,832L312,834L313,836L314,838L314,840L315,841L316,843L317,844L317,845L317,846" stroke-opacity="1" stroke-width="5" stroke-linecap="round" stroke-linejoin="round" style="-webkit-tap-highlight-color: rgba(0, 0, 0, 0); stroke-opacity: 1; stroke-linecap: round; stroke-linejoin: round; -webkit-user-select: text;"></path><path fill="none" stroke="#000000" d="M455,148L464,151L470,152L479,153L489,155L502,157L514,160L529,164L542,169L556,174L568,178L581,183L592,186L600,188L606,191" stroke-opacity="1" stroke-width="5" stroke-linecap="round" stroke-linejoin="round" style="-webkit-tap-highlight-color: rgba(0, 0, 0, 0); stroke-opacity: 1; stroke-linecap: round; stroke-linejoin: round; -webkit-user-select: text;"></path><path fill="none" stroke="#000000" d="M442,193L455,193L465,193L477,195L489,197L502,199L514,200L528,202L542,205L555,207L567,209L579,210L587,211L592,213" stroke-opacity="1" stroke-width="5" stroke-linecap="round" stroke-linejoin="round" style="-webkit-tap-highlight-color: rgba(0, 0, 0, 0); stroke-opacity: 1; stroke-linecap: round; stroke-linejoin: round; -webkit-user-select: text;"></path><path fill="none" stroke="#000000" d="M416,276L428,275L436,275L445,275L456,274L471,274L485,273L499,273L515,272L531,272L548,272L565,271L579,271L589,270L597,269L602,269L605,269" stroke-opacity="1" stroke-width="5" stroke-linecap="round" stroke-linejoin="round" style="-webkit-tap-highlight-color: rgba(0, 0, 0, 0); stroke-opacity: 1; stroke-linecap: round; stroke-linejoin: round; -webkit-user-select: text;"></path><path fill="none" stroke="#000000" d="M369,371L363,370L370,369L379,367L393,365L408,363L428,362L448,360L470,358L492,358L514,357L535,357L554,357L568,357L582,356L590,355L596,353L598,353L598,352" stroke-opacity="1" stroke-width="5" stroke-linecap="round" stroke-linejoin="round" style="-webkit-tap-highlight-color: rgba(0, 0, 0, 0); stroke-opacity: 1; stroke-linecap: round; stroke-linejoin: round; -webkit-user-select: text;"></path><path fill="none" stroke="#000000" d="M336,434L338,433L343,433L351,433L361,431L375,429L388,428L402,426L416,425L428,424L436,422L443,421L449,421" stroke-opacity="1" stroke-width="5" stroke-linecap="round" stroke-linejoin="round" style="-webkit-tap-highlight-color: rgba(0, 0, 0, 0); stroke-opacity: 1; stroke-linecap: round; stroke-linejoin: round; -webkit-user-select: text;"></path><path fill="none" stroke="#000000" d="M159,685L163,678L166,675L170,670L176,663L183,656L193,647L201,637L211,627L222,617L231,606L241,596L248,589L254,583L258,580L261,579L263,579" stroke-opacity="1" stroke-width="5" stroke-linecap="round" stroke-linejoin="round" style="-webkit-tap-highlight-color: rgba(0, 0, 0, 0); stroke-opacity: 1; stroke-linecap: round; stroke-linejoin: round; -webkit-user-select: text;"></path><path fill="none" stroke="#000000" d="M161,699L174,688L182,682L194,672L205,662L219,652L233,642L247,631L261,622L273,613L282,606L290,602L296,599" stroke-opacity="1" stroke-width="5" stroke-linecap="round" stroke-linejoin="round" style="-webkit-tap-highlight-color: rgba(0, 0, 0, 0); stroke-opacity: 1; stroke-linecap: round; stroke-linejoin: round; -webkit-user-select: text;"></path><path fill="none" stroke="#000000" d="M186,725L186,726L191,725L198,723L208,718L222,711L237,704L252,697L267,692L278,689L288,686L295,686L301,686" stroke-opacity="1" stroke-width="5" stroke-linecap="round" stroke-linejoin="round" style="-webkit-tap-highlight-color: rgba(0, 0, 0, 0); stroke-opacity: 1; stroke-linecap: round; stroke-linejoin: round; -webkit-user-select: text;"></path><path fill="none" stroke="#000000" d="M197,769L203,767L209,766L217,764L226,761L239,759L252,757L270,754L286,752L299,750L310,749L318,749L323,749L326,749" stroke-opacity="1" stroke-width="5" stroke-linecap="round" stroke-linejoin="round" style="-webkit-tap-highlight-color: rgba(0, 0, 0, 0); stroke-opacity: 1; stroke-linecap: round; stroke-linejoin: round; -webkit-user-select: text;"></path><path fill="none" stroke="#000000" d="M215,806L223,803L227,803L234,803L244,802L254,801L268,801L278,801L289,801L297,801L303,801L308,801L312,800L315,798" stroke-opacity="1" stroke-width="5" stroke-linecap="round" stroke-linejoin="round" style="-webkit-tap-highlight-color: rgba(0, 0, 0, 0); stroke-opacity: 1; stroke-linecap: round; stroke-linejoin: round; -webkit-user-select: text;"></path><path fill="none" stroke="#000000" d="M74,434L75,432L75,427L79,420L83,411L87,401L93,388L100,373L108,358L116,343L122,331L128,322L132,315L135,311L137,308L138,307" stroke-opacity="1" stroke-width="5" stroke-linecap="round" stroke-linejoin="round" style="-webkit-tap-highlight-color: rgba(0, 0, 0, 0); stroke-opacity: 1; stroke-linecap: round; stroke-linejoin: round; -webkit-user-select: text;"></path><path fill="none" stroke="#000000" d="M86,498L91,496L93,491L97,482L102,473L108,460L115,446L124,431L133,415L143,399L152,383L160,369L168,356L173,346L177,338L179,334L181,331" stroke-opacity="1" stroke-width="5" stroke-linecap="round" stroke-linejoin="round" style="-webkit-tap-highlight-color: rgba(0, 0, 0, 0); stroke-opacity: 1; stroke-linecap: round; stroke-linejoin: round; -webkit-user-select: text;"></path><path fill="none" stroke="#000000" d="M102,516L105,518L110,513L116,504L122,495L132,483L143,470L157,453L171,437L186,423L199,408L210,396L220,385L226,377L231,372L234,368" stroke-opacity="1" stroke-width="5" stroke-linecap="round" stroke-linejoin="round" style="-webkit-tap-highlight-color: rgba(0, 0, 0, 0); stroke-opacity: 1; stroke-linecap: round; stroke-linejoin: round; -webkit-user-select: text;"></path><path fill="none" stroke="#000000" d="M139,530L144,524L148,521L156,515L164,509L173,501L183,494L193,487L201,480L207,476L212,474L214,473L216,472L216,474" stroke-opacity="1" stroke-width="5" stroke-linecap="round" stroke-linejoin="round" style="-webkit-tap-highlight-color: rgba(0, 0, 0, 0); stroke-opacity: 1; stroke-linecap: round; stroke-linejoin: round; -webkit-user-select: text;"></path><path fill="none" stroke="#000000" d="M154,564L167,558L174,553L183,548L192,543L198,539L204,537L208,535L211,533L213,533L214,533" stroke-opacity="1" stroke-width="5" stroke-linecap="round" stroke-linejoin="round" style="-webkit-tap-highlight-color: rgba(0, 0, 0, 0); stroke-opacity: 1; stroke-linecap: round; stroke-linejoin: round; -webkit-user-select: text;"></path><path fill="none" stroke="#000000" d="M191,336L198,340L201,341L207,344L215,349L222,354L231,361L240,367L249,375L258,382L267,389L274,396L280,402L285,407L288,409L290,411L292,411L293,411" stroke-opacity="1" stroke-width="5" stroke-linecap="round" stroke-linejoin="round" style="-webkit-tap-highlight-color: rgba(0, 0, 0, 0); stroke-opacity: 1; stroke-linecap: round; stroke-linejoin: round; -webkit-user-select: text;"></path><path fill="none" stroke="#000000" d="M230,260L233,266L237,271L243,280L249,288L258,300L268,312L277,325L286,338L296,353L305,366L312,379L319,388L324,395L327,401L329,404L331,405L331,404" stroke-opacity="1" stroke-width="5" stroke-linecap="round" stroke-linejoin="round" style="-webkit-tap-highlight-color: rgba(0, 0, 0, 0); stroke-opacity: 1; stroke-linecap: round; stroke-linejoin: round; -webkit-user-select: text;"></path><path fill="none" stroke="#000000" d="M292,191L293,195L293,200L294,207L297,217L301,229L305,241L311,256L318,273L325,290L332,309L338,327L344,344L350,359L355,373L358,383L362,390L364,395L367,398L368,398L369,391" stroke-opacity="1" stroke-width="5" stroke-linecap="round" stroke-linejoin="round" style="-webkit-tap-highlight-color: rgba(0, 0, 0, 0); stroke-opacity: 1; stroke-linecap: round; stroke-linejoin: round; -webkit-user-select: text;"></path><path fill="none" stroke="#000000" d="M369,151L369,167L369,176L370,189L372,203L374,220L376,236L379,254L381,272L383,290L385,309L386,328L387,343L388,358L389,368L389,377L390,382L391,384L393,384L395,378" stroke-opacity="1" stroke-width="5" stroke-linecap="round" stroke-linejoin="round" style="-webkit-tap-highlight-color: rgba(0, 0, 0, 0); stroke-opacity: 1; stroke-linecap: round; stroke-linejoin: round; -webkit-user-select: text;"></path><path fill="none" stroke="#000000" d="M455,201L456,205L456,210L455,219L452,230L449,243L444,260L438,278L431,301L424,319L417,336L411,355L406,370L402,382L399,390L397,396L395,399L395,400L394,400L394,392" stroke-opacity="1" stroke-width="5" stroke-linecap="round" stroke-linejoin="round" style="-webkit-tap-highlight-color: rgba(0, 0, 0, 0); stroke-opacity: 1; stroke-linecap: round; stroke-linejoin: round; -webkit-user-select: text;"></path><path fill="none" stroke="#000000" d="M168,154L172,164L173,174L176,186L179,197L183,208L188,217L191,224L193,228L194,231L195,232L195,233L196,233L198,232L200,229L205,224L211,219L218,212L225,206L232,198L239,190L244,181L248,175L251,169L252,164L254,161L254,160L254,159L253,159L250,159L246,159L240,158L234,156L229,152L225,149L222,147L219,145L217,144L215,144L213,146L212,151L209,157L206,164L201,174L195,183L188,193L182,202L176,210L173,216L170,219L169,221L168,222L168,223L168,224L170,225L174,228L179,232L184,236L190,242L195,247L200,253L203,256L206,259L208,261L209,262L210,262L211,261L213,258L216,254L220,248L224,244L229,239L234,235L240,231L245,227L251,223L256,219L261,213L265,208L269,202L272,196L274,190L276,185L276,180L276,175L276,171L276,167L274,164L271,161L269,158L266,154L263,149L262,143L261,137L261,130L261,125L261,120L261,116L263,113L264,110L266,109L267,108L268,108L273,108" stroke-opacity="1" stroke-width="3" stroke-linecap="round" stroke-linejoin="round" style="-webkit-tap-highlight-color: rgba(0, 0, 0, 0); stroke-opacity: 1; stroke-linecap: round; stroke-linejoin: round; -webkit-user-select: text;"></path><path fill="none" stroke="#000000" d="M299,142L295,136L293,132L293,127L293,119L293,109L296,100L302,89L310,76L319,65L326,57L332,49L337,43L341,39L343,37L344,37L345,37L345,38L345,40L345,41L346,44L348,46L352,50L357,54L362,59L368,65L374,71L378,75L381,79L383,82L384,85L384,87L384,89L382,94L377,99L371,107L366,116L360,125L354,135L348,146L343,157L339,167L336,174L333,179L331,182L331,183L329,183L328,183L326,179L323,173L319,167L316,160L312,154L308,147L304,140L301,133L299,129L298,126L297,124L297,122L297,121L300,120L306,118L314,116L325,114L336,111L348,109L359,106L368,105L376,103L383,103L387,102L392,102L395,102L397,103L398,106L399,108L400,113L401,119L402,125L404,132L405,139L407,147L408,153L409,159L411,164L412,168L412,170L412,172L412,173L412,174L412,175L410,176L405,177L400,178L392,180L385,182L378,184L373,186L366,188L361,191L356,194L352,197L349,200L346,202L344,205L343,209L342,213L342,218L342,224L342,230L342,236L344,242L346,248L349,253L352,257L354,259L358,259" stroke-opacity="1" stroke-width="3" stroke-linecap="round" stroke-linejoin="round" style="-webkit-tap-highlight-color: rgba(0, 0, 0, 0); stroke-opacity: 1; stroke-linecap: round; stroke-linejoin: round; -webkit-user-select: text;"></path><path fill="none" stroke="#000000" d="M390,210L384,220L383,225L382,229L382,234L382,240L383,245L386,249L392,254L397,257L402,260L407,262L412,266L418,270L421,274L425,278L427,283L430,288L431,292L432,296L433,299L433,300L433,301L430,303L426,306L420,310L415,316L410,322L405,328L401,333L398,337L396,339L395,340L393,340L390,340L385,333L381,327L376,320L371,314L368,310L366,307L363,305L362,304L361,303L361,302L361,301L361,299L363,297L370,294L379,290L388,285L400,280L411,276L422,272L431,269L439,267L444,266L448,264L450,263L451,262L451,260L451,256L451,250L450,242L448,234L446,226L446,219L446,214L446,210L446,207L446,205L445,205L443,205L437,207L429,211L423,215L417,219L411,223L406,227L402,232L399,237L397,241L396,245L396,250L396,256L397,261L399,266L402,271L406,274L409,278L414,280L418,281L422,282L427,282L432,282L437,282L442,282L447,282L452,282L457,282L462,283L466,284L470,285L473,288L477,290L480,292L482,295L485,298L487,301L488,304L489,307L490,311L492,313L492,315L493,315L495,315L497,309" stroke-opacity="1" stroke-width="3" stroke-linecap="round" stroke-linejoin="round" style="-webkit-tap-highlight-color: rgba(0, 0, 0, 0); stroke-opacity: 1; stroke-linecap: round; stroke-linejoin: round; -webkit-user-select: text;"></path><path fill="none" stroke="#000000" d="M476,266L481,264L486,264L491,264L496,266L501,269L506,273L510,277L514,283L516,288L519,295L520,301L520,309L520,317L520,324L519,330L518,334L517,339L517,341L516,343L516,344L515,344L510,343L504,341L498,341L491,340L485,340L479,340L474,343L470,345L467,347L465,349L464,349L464,350L464,349L464,345L464,339L464,334L465,327L467,321L468,317L470,313L471,311L473,310L475,309L479,309L483,308L490,308L499,307L509,306L519,304L529,303L539,301L548,300L553,299L557,299L560,298L562,298L562,301L562,305L562,310L560,315L559,321L558,328L556,335L555,341L553,348L551,354L550,358L548,362L548,365L547,366L547,367L545,367L544,367L540,366L534,362L528,358L522,353L516,349L511,345L506,342L502,340L499,338L498,336L497,333L497,329L498,322L502,315L507,309L511,304L517,299L523,294L528,289L534,285L540,280L543,276L547,271L549,267L551,263L553,259L554,255L554,251L554,247L554,243L554,239L553,236L552,233L550,231L548,228L545,225L543,221L541,217L539,214L537,210L536,206L536,204L535,202L535,201L535,200" stroke-opacity="1" stroke-width="3" stroke-linecap="round" stroke-linejoin="round" style="-webkit-tap-highlight-color: rgba(0, 0, 0, 0); stroke-opacity: 1; stroke-linecap: round; stroke-linejoin: round; -webkit-user-select: text;"></path><path fill="none" stroke="#000000" d="M572,236L572,234L572,231L572,227L571,222L569,217L566,213L562,209L559,205L556,203L552,200L549,198L545,197L542,196L538,194L535,193L532,191L528,188L526,184L523,180L521,176L519,172L519,168L518,164L517,159L517,152L517,143L521,132L525,121L530,112L533,106L536,103L538,100L539,99L541,98L543,98L546,98L550,98L557,99L563,100L570,101L577,101L581,102L585,103L587,104L589,106L589,108L589,110L589,115L585,123L580,131L575,140L569,151L564,163L559,174L555,184L553,192L550,197L549,200L548,203L547,203L545,203L543,203L540,203L535,201L528,198L521,195L515,192L508,188L502,183L494,179L487,174L480,168L474,163L468,158L465,154L463,152L462,150L462,149L462,148L462,147L467,145L477,140L487,135L500,130L514,127L526,125L535,125L542,125L548,126L552,129L556,133L560,137L562,141L565,145L568,149L571,153L574,157L576,162L578,167L580,173L582,179L583,186L584,192L584,197L585,202L586,206L586,209L587,212L587,214L587,215L587,216L588,217L588,218L588,216" stroke-opacity="1" stroke-width="3" stroke-linecap="round" stroke-linejoin="round" style="-webkit-tap-highlight-color: rgba(0, 0, 0, 0); stroke-opacity: 1; stroke-linecap: round; stroke-linejoin: round; -webkit-user-select: text;"></path><path fill="none" stroke="#000000" d="M597,154L599,161L603,168L607,178L612,188L616,198L619,206L622,214L624,218L626,222L627,225L627,226L628,227L628,228L628,229L626,231L621,236L614,243L606,250L599,257L593,264L588,269L584,273L582,276L580,276L579,276L579,273L578,262L577,254L575,245L574,240L572,236L572,232L571,230L570,229L570,228L570,227L576,224L589,217L599,211L610,206L618,203L626,200L631,199L634,198L637,197L638,197L639,199L639,203L640,209L642,217L645,228L648,239L652,249L655,256L658,263L660,269L662,275L663,279L663,282L663,284L663,285L662,285L656,285L645,285L635,283L626,282L619,282L611,281L605,281L599,281L593,284L588,287L584,290L581,295L577,299L575,304L573,310L572,315L571,320L571,325L571,329L571,334L571,338L572,342L574,346L577,350L580,354L583,358L587,362L589,365L592,368L595,371L597,374L600,377L601,380L602,383L603,386L603,388L603,390L603,389" stroke-opacity="1" stroke-width="3" stroke-linecap="round" stroke-linejoin="round" style="-webkit-tap-highlight-color: rgba(0, 0, 0, 0); stroke-opacity: 1; stroke-linecap: round; stroke-linejoin: round; -webkit-user-select: text;"></path><path fill="none" stroke="#000000" d="M598,322L598,328L599,332L601,336L603,340L606,344L609,349L611,353L614,358L617,363L620,370L621,378L623,385L623,391L623,397L623,403L623,409L620,415L615,421L610,426L604,432L600,436L597,439L595,442L594,444L594,445L590,441L583,434L574,429L567,425L560,422L555,419L551,418L547,417L544,416L542,415L540,414L540,413L539,413L539,412L541,412L550,409L561,405L576,399L586,394L596,390L602,386L607,385L610,384L612,384L613,384L613,385L613,388L613,393L613,400L613,409L614,417L615,423L617,431L618,437L620,443L620,448L621,452L621,456L621,458L621,459L616,459L611,459L605,459L596,460L588,461L580,463L573,465L567,467L564,468L560,469L558,470L558,471L557,471L556,471L556,472L556,473L556,474L556,476L556,480L557,484L559,490L560,495L562,500L563,504L564,509L565,512L566,515L567,517L567,519L568,521L569,522L569,523L570,524L570,525L571,526L572,523" stroke-opacity="1" stroke-width="3" stroke-linecap="round" stroke-linejoin="round" style="-webkit-tap-highlight-color: rgba(0, 0, 0, 0); stroke-opacity: 1; stroke-linecap: round; stroke-linejoin: round; -webkit-user-select: text;"></path><path fill="none" stroke="#000000" d="M594,477L594,481L595,487L598,493L601,500L603,505L605,511L606,516L607,520L608,524L608,528L608,530L608,532L608,533L608,534L606,534L603,536L598,538L592,543L584,549L577,556L571,561L565,567L561,570L558,572L556,574L555,574L553,574L551,571L550,564L548,556L545,548L544,540L542,534L540,527L538,521L536,516L533,512L531,509L529,506L527,504L526,504L524,503L523,503L521,503L518,504L512,508L504,513L497,519L491,523L485,528L481,532L479,535L478,537L477,540L477,543L479,548L482,555L485,565L489,575L493,584L497,592L500,597L503,601L506,603L509,604L511,604L518,601L526,595L534,589L541,582L548,575L554,568L560,561L567,553L573,546L577,540L582,531L586,520L589,507L590,497L590,487L590,478L590,472L587,467L581,463L576,460L572,459L567,458L561,457L555,456L549,456L543,456L535,456L526,456L520,456L513,456L507,456L501,456L495,456L492,453L488,451L485,448L483,446L481,443L480,441L479,440L479,439" stroke-opacity="1" stroke-width="3" stroke-linecap="round" stroke-linejoin="round" style="-webkit-tap-highlight-color: rgba(0, 0, 0, 0); stroke-opacity: 1; stroke-linecap: round; stroke-linejoin: round; -webkit-user-select: text;"></path><path fill="none" stroke="#000000" d="M553,441L547,438L544,436L540,434L534,433L527,432L520,432L513,432L505,431L498,429L493,426L486,421L482,416L477,411L474,404L472,399L470,392L469,385L468,379L467,373L465,368L464,365L463,362L460,360L459,360L457,359L456,359L455,359L454,361L452,363L450,367L445,372L437,378L429,384L421,390L412,395L404,400L398,404L393,407L391,408L390,410L389,411L389,413L391,416L395,424L399,434L403,444L407,453L410,461L413,469L417,474L419,477L422,480L424,480L426,480L429,480L432,478L439,471L447,463L455,454L463,445L472,436L480,429L487,422L494,416L500,411L505,407L508,404L510,402L510,401L510,400L508,400L505,399L500,396L494,392L488,387L482,384L477,381L472,379L469,377L466,376L465,376L464,375L464,376L464,379L464,384L464,392L463,404L463,417L461,432L460,447L459,461L458,474L457,482L456,490L456,494L455,497L455,498L455,497L457,497L460,495L468,491L476,487L482,484L488,482L494,479L499,477L504,476L507,475L510,474L512,473L514,473L515,473L516,472L516,471" stroke-opacity="1" stroke-width="3" stroke-linecap="round" stroke-linejoin="round" style="-webkit-tap-highlight-color: rgba(0, 0, 0, 0); stroke-opacity: 1; stroke-linecap: round; stroke-linejoin: round; -webkit-user-select: text;"></path><path fill="none" stroke="#000000" d="M482,450L486,450L491,450L498,450L507,449L514,448L521,447L527,447L532,446L535,446L537,446L538,447L538,449L538,452L539,456L539,462L540,471L542,480L543,489L545,498L545,507L546,513L547,518L547,521L547,524L543,524L535,524L529,524L521,524L514,524L506,524L499,524L492,524L487,524L482,524L479,524L476,524L474,524L473,524L472,524L471,524L470,524L470,523L469,522L469,521L468,519L467,517L466,515L465,513L463,511L461,508L459,505L458,503L456,500L455,498L453,496L452,494L451,492L450,492L448,491L446,490L445,490L443,490L440,490L437,490L431,490L423,492L415,495L408,499L403,502L400,504L397,505L396,507L396,508L396,509L396,510L397,512L398,515L401,521L403,528L406,539L409,547L411,556L414,564L416,570L418,573L419,576L421,577L422,577L423,577L424,577L426,577L430,575L438,571L447,566L454,562L463,558L471,553L477,548L482,543L486,538L490,529L492,521L493,513L493,503L492,495L487,487L482,482L477,478L472,475L466,472L458,470L451,468L445,468L438,468L430,468L422,469L415,472L407,475L397,479L388,482L380,484L371,485L365,486L359,486L353,486L350,485L346,483L344,481L342,479L341,477L342,476" stroke-opacity="1" stroke-width="3" stroke-linecap="round" stroke-linejoin="round" style="-webkit-tap-highlight-color: rgba(0, 0, 0, 0); stroke-opacity: 1; stroke-linecap: round; stroke-linejoin: round; -webkit-user-select: text;"></path><path fill="none" stroke="#000000" d="M398,455L393,461L390,461L387,461L384,461L380,461L375,461L370,460L365,458L361,453L356,448L352,442L348,436L344,430L340,426L338,423L335,420L333,418L331,417L331,416L330,416L329,417L327,419L324,422L316,429L307,436L298,443L290,451L284,456L280,459L278,461L277,462L276,463L277,464L280,466L285,470L290,475L297,483L304,492L310,502L317,511L322,520L327,528L331,534L334,538L337,542L339,543L340,544L341,544L342,542L345,534L349,525L353,515L359,502L365,490L369,479L374,468L377,460L380,452L383,446L384,441L385,437L386,434L386,432L386,431L385,431L382,431L379,431L376,431L370,434L364,436L357,439L350,442L344,446L338,450L334,453L331,456L329,458L328,458L327,459L327,460L327,461L328,462L329,465L331,468L332,473L335,479L338,485L341,490L343,495L345,499L347,503L349,506L351,508L352,510L353,511L354,513L355,515L356,516L357,518L358,521L359,523L361,526L362,528L363,529L363,530L363,531L363,529" stroke-opacity="1" stroke-width="3" stroke-linecap="round" stroke-linejoin="round" style="-webkit-tap-highlight-color: rgba(0, 0, 0, 0); stroke-opacity: 1; stroke-linecap: round; stroke-linejoin: round; -webkit-user-select: text;"></path><path fill="none" stroke="#000000" d="M341,537L343,539L346,544L351,550L356,558L361,567L366,575L369,582L372,587L375,592L377,595L378,597L379,599L378,599L377,599L375,600L374,601L372,603L370,604L368,606L365,608L363,610L361,611L358,614L356,615L354,617L353,618L351,619L350,620L349,620L348,620L346,620L344,620L341,618L336,614L331,609L325,604L321,601L318,598L314,596L312,595L311,594L310,594L310,593L312,593L316,591L328,585L341,579L356,574L367,570L379,565L387,563L392,561L395,560L397,560L398,560L398,561L398,562L399,565L400,567L402,574L404,581L407,589L409,597L411,605L412,611L414,615L415,619L415,622L416,623L416,624L415,624L414,624L412,624L409,624L402,626L392,628L387,629L381,631L375,633L371,634L367,636L363,637L361,639L359,640L358,642L357,645L357,647L356,650L356,654L356,658L356,662L356,667L356,672L356,677L356,681L356,686L357,689L358,693L361,696L363,699L366,702L368,704L370,706L371,708L372,709L372,708" stroke-opacity="1" stroke-width="3" stroke-linecap="round" stroke-linejoin="round" style="-webkit-tap-highlight-color: rgba(0, 0, 0, 0); stroke-opacity: 1; stroke-linecap: round; stroke-linejoin: round; -webkit-user-select: text;"></path><path fill="none" stroke="#000000" d="M378,650L376,654L379,658L383,662L389,668L397,675L404,682L409,687L414,692L417,696L419,699L422,702L423,703L424,704L425,703L426,701L431,693L439,684L447,675L456,667L463,660L470,653L474,649L477,646L479,645L480,644L480,643L477,642L468,640L458,636L451,633L442,628L435,625L430,623L426,623L424,622L422,621L421,621L420,621L419,621L418,621L417,621L417,619L417,616L419,606L424,594L430,584L436,576L440,571L443,569L444,568L446,567L447,567L448,567L449,570L451,572L455,576L462,582L470,587L478,593L484,598L489,602L493,606L495,608L497,610L497,612L497,613L497,614L497,615L494,617L491,619L487,622L479,628L469,633L460,639L451,644L445,647L440,650L437,652L435,654L434,655L434,656L434,657L434,658L434,660L434,662L436,666L438,672L440,679L443,686L446,691L448,695L451,698L455,701L458,703L463,705L468,707L473,711L479,714L485,719L490,724L494,729L498,733L500,736L502,739L503,741L504,742L502,740L499,734" stroke-opacity="1" stroke-width="3" stroke-linecap="round" stroke-linejoin="round" style="-webkit-tap-highlight-color: rgba(0, 0, 0, 0); stroke-opacity: 1; stroke-linecap: round; stroke-linejoin: round; -webkit-user-select: text;"></path><path fill="none" stroke="#000000" d="M471,652L471,657L471,660L475,664L480,669L485,673L489,677L494,680L500,683L506,686L512,690L518,693L522,696L527,699L530,701L533,703L535,706L536,710L536,714L536,720L536,726L534,732L533,737L531,741L531,744L529,745L528,745L528,742L528,736L527,730L526,723L524,717L522,711L518,705L514,701L508,695L502,690L497,687L494,686L492,684L490,683L489,683L489,682L489,681L489,680L495,676L507,668L518,660L527,653L536,646L542,642L546,639L549,638L551,636L553,636L554,636L555,638L556,641L560,648L562,654L565,661L568,667L570,672L571,676L572,679L572,681L572,682L567,682L559,681L553,680L542,678L533,677L523,676L515,675L509,674L503,673L499,672L496,671L494,671L493,670L492,669L491,668L491,665L490,660L489,652L488,644L486,635L484,627L482,621L481,617L480,614L480,613L480,612L483,612L487,612L495,612L508,612L521,612L537,612L552,612L565,612L575,613L582,613L587,613L591,613L593,613L594,613L594,610" stroke-opacity="1" stroke-width="3" stroke-linecap="round" stroke-linejoin="round" style="-webkit-tap-highlight-color: rgba(0, 0, 0, 0); stroke-opacity: 1; stroke-linecap: round; stroke-linejoin: round; -webkit-user-select: text;"></path><path fill="none" stroke="#000000" d="M522,674L523,672L529,675L537,679L547,684L560,690L571,695L582,700L587,704L591,707L592,709L593,710L593,711L593,710L595,707L601,703L610,699L618,694L624,689L629,686L631,684L633,682L633,681L628,680L621,677L613,672L604,667L595,662L587,656L581,652L575,648L571,645L569,643L567,642L566,642L565,642L564,643L562,647L558,653L552,662L546,671L539,680L533,688L528,694L525,698L524,701L523,702L523,703L524,703L526,703L529,703L536,706L546,709L556,713L566,718L576,724L585,731L589,737L592,743L594,748L594,753L594,758L592,763L587,767L582,772L575,776L567,779L559,781L551,783L544,784L536,784L527,784L519,784L512,781L504,779L495,776L486,773L477,772L467,769L458,769L451,768L443,768L437,768L431,769L428,770L426,772L424,773L426,773" stroke-opacity="1" stroke-width="3" stroke-linecap="round" stroke-linejoin="round" style="-webkit-tap-highlight-color: rgba(0, 0, 0, 0); stroke-opacity: 1; stroke-linecap: round; stroke-linejoin: round; -webkit-user-select: text;"></path><path fill="none" stroke="#000000" d="M520,756L516,758L514,758L510,758L504,755L495,748L483,739L470,733L456,727L445,725L434,724L424,724L414,724L405,727L397,730L390,733L385,736L381,738L378,740L375,742L373,742L372,743L371,743L371,742L371,741L371,738L371,733L371,728L373,721L374,713L376,705L378,696L380,687L381,680L381,674L382,669L382,665L382,663L382,662L383,662L387,662L396,668L409,674L418,679L425,684L431,689L434,693L435,696L435,699L435,703L432,708L427,713L422,719L416,727L410,734L404,741L400,747L395,755L390,762L387,766L385,770L383,773L381,775L379,776L378,776L377,776L376,776L375,774L372,765L360,747L354,739L348,732L343,724L338,717L334,710L330,705L327,701L324,698L322,696L321,694L320,694L319,694L318,694L317,694L314,696L310,700L305,704L299,709L293,714L286,718L281,722L276,725L272,727L268,729L266,730L265,732L264,733L263,734L263,735L263,736L266,737L269,739L276,744L283,749L289,753L296,758L300,761L303,763L306,765L308,766L309,766L310,766L311,762L315,753L321,743L327,732L331,721L336,712L340,705L344,698L348,692L351,687L353,683L355,680L357,678L358,677L358,676L359,675L359,676" stroke-opacity="1" stroke-width="3" stroke-linecap="round" stroke-linejoin="round" style="-webkit-tap-highlight-color: rgba(0, 0, 0, 0); stroke-opacity: 1; stroke-linecap: round; stroke-linejoin: round; -webkit-user-select: text;"></path><path fill="none" stroke="#000000" d="M311,686L311,681L311,676L313,670L317,662L322,653L327,645L333,637L338,631L341,626L343,623L344,621L344,620L344,619L341,619L339,618L333,615L321,608L312,603L303,597L297,594L292,591L289,590L287,589L286,589L285,589L284,592L282,599L279,605L273,614L268,623L261,632L256,640L251,646L248,651L246,654L244,656L244,657L247,657L256,657L269,657L284,657L298,657L309,657L320,657L327,657L335,657L339,657L344,657L346,657L347,657L348,656L348,655L348,652L348,650L348,646L348,640L348,631L348,622L348,610L347,600L346,589L346,581L346,575L346,569L346,565L346,562L346,560L346,559L346,558L346,557L344,558L343,559L340,560L336,562L327,564L318,565L307,565L298,565L290,565L282,566L274,567L266,570L259,574L253,578L247,583L243,587L240,592L238,596L237,600L237,603L237,606L237,609L238,611L240,614L242,619L244,624L245,631L246,638L247,644L248,651L248,656L248,661L248,665L248,669L247,673L244,676L241,679L237,683L233,686L228,689L223,692L219,694L215,695L211,696L209,697L208,697L208,694" stroke-opacity="1" stroke-width="3" stroke-linecap="round" stroke-linejoin="round" style="-webkit-tap-highlight-color: rgba(0, 0, 0, 0); stroke-opacity: 1; stroke-linecap: round; stroke-linejoin: round; -webkit-user-select: text;"></path><path fill="none" stroke="#000000" d="M186,632L181,628L181,625L181,620L181,614L181,606L181,597L181,587L181,578L181,569L181,562L181,555L181,549L181,545L180,542L180,540L180,539L181,539L185,541L196,548L211,555L226,564L241,573L254,582L266,591L274,597L278,601L280,603L280,604L280,605L278,606L274,609L268,615L258,623L247,631L236,638L227,644L218,648L211,652L206,654L202,655L200,656L198,656L198,654L199,645L203,636L207,629L209,624L212,618L214,613L216,607L220,601L225,592L232,583L238,574L244,566L248,560L251,556L252,552L254,550L254,548L254,546L254,545L254,544L253,543L252,541L250,540L246,536L239,531L233,524L229,520L226,516L225,513L223,511L222,510L221,510L220,511L218,514L215,519L209,525L201,533L191,543L181,553L174,561L167,569L162,575L160,580L159,585L158,590L158,595L158,600L159,604L161,608L164,611L167,615L170,618L173,620L176,622L181,625L185,628L193,632L201,637L209,643L215,648L221,654L225,660L227,666L229,672L229,677L229,682L229,687L229,691L229,695L228,698L227,700L227,701L226,701L226,699L227,698" stroke-opacity="1" stroke-width="3" stroke-linecap="round" stroke-linejoin="round" style="-webkit-tap-highlight-color: rgba(0, 0, 0, 0); stroke-opacity: 1; stroke-linecap: round; stroke-linejoin: round; -webkit-user-select: text;"></path><path fill="none" stroke="#000000" d="M165,637L167,645L167,651L167,657L165,664L162,668L157,672L152,675L146,676L138,677L128,677L119,677L111,676L104,675L97,674L91,674L86,674L82,674L79,674L76,674L75,674L74,674L75,674L76,674L80,679L88,689L93,697L98,707L102,718L106,727L110,735L115,741L118,745L122,748L125,750L127,751L130,751L134,751L140,747L147,741L156,735L166,728L173,724L178,720L182,718L184,717L185,716L185,715L184,714L181,711L174,701L166,689L156,676L146,664L137,653L130,645L125,639L122,635L121,633L120,631L119,631L119,633L115,638L110,645L103,651L97,657L91,663L87,667L84,670L81,673L79,674L79,676L79,677L81,679L93,685L103,689L118,696L130,703L142,710L152,716L161,723L170,729L177,733L182,737L187,740L190,742L192,743L193,743L194,742L195,739L197,735L201,731L206,726L214,719L220,714L226,709L231,706L235,702L238,700L241,699L244,697L245,696L247,696L248,695" stroke-opacity="1" stroke-width="3" stroke-linecap="round" stroke-linejoin="round" style="-webkit-tap-highlight-color: rgba(0, 0, 0, 0); stroke-opacity: 1; stroke-linecap: round; stroke-linejoin: round; -webkit-user-select: text;"></path><path fill="none" stroke="#000000" d="M268,678L270,674L270,671L271,666L273,662L276,656L280,652L285,646L288,643L293,639L296,636L298,633L300,631L301,629L301,627L301,626L301,623L301,621L301,618L299,611L294,600L288,584L281,570L274,555L266,540L258,526L251,514L245,505L242,500L240,497L239,495L239,497L235,499L229,503L221,509L211,514L200,519L189,524L178,528L171,531L165,533L161,535L159,536L159,537L160,538L174,545L194,557L206,562L218,569L227,573L234,576L237,577L239,578L240,578L241,578L242,575L244,569L250,560L257,550L265,541L273,533L281,526L288,520L294,516L297,513L298,511L299,510L299,509L297,509L295,509L289,504L278,492L265,479L252,467L242,459L233,454L225,451L219,450L214,450L210,450L206,453L203,458L200,463L196,470L195,477L194,482L193,490L193,498L193,507L193,516L193,524L191,532L186,539L181,544L176,548L171,550L164,551L158,551L152,551L146,548L140,544L133,538L127,533L120,526L113,521L106,517L98,514L93,512L87,511L83,511L79,511L77,511L76,511L76,512" stroke-opacity="1" stroke-width="3" stroke-linecap="round" stroke-linejoin="round" style="-webkit-tap-highlight-color: rgba(0, 0, 0, 0); stroke-opacity: 1; stroke-linecap: round; stroke-linejoin: round; -webkit-user-select: text;"></path><path fill="none" stroke="#000000" d="M135,562L132,560L129,557L124,553L117,549L108,546L99,543L89,542L79,541L69,541L62,541L56,541L52,541L50,541L49,541L49,540L54,537L61,532L69,527L77,521L83,518L90,513L96,509L103,505L111,499L119,494L127,489L132,484L138,479L141,474L143,470L144,466L145,463L145,460L145,457L144,453L143,450L140,446L137,441L133,437L131,435L128,433L126,433L124,433L122,434L118,438L112,442L103,447L95,451L87,454L80,456L74,458L70,459L67,461L66,462L66,463L66,465L66,467L68,471L77,483L88,496L98,507L107,516L114,524L120,529L123,533L125,535L126,536L127,535L128,533L131,528L141,521L152,512L163,504L171,498L177,492L183,487L185,483L187,480L188,477L188,475L188,473L186,471L181,470L171,466L159,463L147,460L138,459L128,458L120,458L115,460L111,463L108,468L106,475L105,483L104,492L102,501L101,510L99,518L98,523L96,528L94,532L93,535L91,536L91,537L91,536L93,529L98,519L105,509L110,499L116,489L121,479L128,470L137,457L146,445L156,433L164,423L170,416L174,412L176,409L178,407L178,408" stroke-opacity="1" stroke-width="3" stroke-linecap="round" stroke-linejoin="round" style="-webkit-tap-highlight-color: rgba(0, 0, 0, 0); stroke-opacity: 1; stroke-linecap: round; stroke-linejoin: round; -webkit-user-select: text;"></path><path fill="none" stroke="#000000" d="M143,390L142,382L144,380L146,377L149,373L152,368L154,364L156,361L158,358L159,355L161,353L162,353L164,353L165,353L168,355L176,363L189,375L203,387L215,398L224,406L232,413L236,418L238,421L239,424L239,425L239,426L236,427L232,429L227,434L222,438L216,443L209,448L203,453L196,458L192,460L189,462L186,463L185,463L184,463L183,463L182,462L180,459L178,456L174,450L169,444L165,440L161,435L157,431L154,429L152,426L151,425L150,424L150,423L150,421L152,420L155,419L166,416L177,413L189,410L200,407L209,404L217,401L225,398L232,396L237,394L242,392L246,391L249,390L250,389L251,388L251,386L251,385L251,382L251,380L251,377L251,374L251,371L251,369L250,368L248,368L246,368L244,368L241,368L236,370L231,372L226,374L221,377L216,380L211,385L207,390L204,395L203,400L202,404L202,412L203,419L208,426L211,431L216,435L220,437L224,439L229,439L236,439L244,439L251,439L259,439L267,439L274,440L282,441L289,444L296,448L301,451L305,456L308,462L310,467L311,471L311,475L311,477L311,479L311,480L311,481" stroke-opacity="1" stroke-width="3" stroke-linecap="round" stroke-linejoin="round" style="-webkit-tap-highlight-color: rgba(0, 0, 0, 0); stroke-opacity: 1; stroke-linecap: round; stroke-linejoin: round; -webkit-user-select: text;"></path><path fill="none" stroke="#000000" d="M230,449L235,449L241,449L249,452L259,458L269,464L278,471L285,479L290,488L294,496L296,506L297,512L298,517L298,520L298,522L299,522L300,522L302,522L307,517L315,511L324,504L334,497L345,492L355,486L364,483L370,481L373,480L374,479L374,477L373,476L367,474L361,469L352,459L343,447L332,434L322,420L315,408L311,399L308,392L306,387L305,384L304,383L303,383L301,384L297,387L291,391L283,396L275,401L267,406L260,410L254,413L250,415L247,418L246,419L246,420L246,421L248,422L252,424L262,433L269,440L274,446L279,452L281,457L283,460L285,463L286,463L287,463L289,463L293,459L300,452L310,442L321,433L331,424L339,418L347,414L353,411L356,409L359,408L360,407L359,407L358,406L355,405L348,400L335,388L322,377L311,367L300,358L292,349L286,343L283,339L281,336L280,335L279,334L278,334L277,336L275,339L270,344L263,351L255,359L247,368L239,374L233,379L227,383L223,386L220,388L218,390L217,391L216,392L217,392L219,392" stroke-opacity="1" stroke-width="3" stroke-linecap="round" stroke-linejoin="round" style="-webkit-tap-highlight-color: rgba(0, 0, 0, 0); stroke-opacity: 1; stroke-linecap: round; stroke-linejoin: round; -webkit-user-select: text;"></path><path fill="none" stroke="#000000" d="M285,358L283,361L280,366L276,373L270,380L263,389L256,397L249,404L242,411L237,414L232,417L229,418L227,418L226,418L224,418L222,415L215,408L206,397L198,389L188,380L178,373L170,368L163,364L159,362L155,360L153,358L152,357L152,356L152,355L152,353L153,351L155,347L158,343L161,336L167,327L173,319L180,312L188,305L194,301L199,299L203,299L208,299L216,305L229,315L241,326L251,336L259,344L262,349L263,353L263,356L263,358L260,361L255,363L250,365L243,368L237,372L228,377L220,382L211,386L204,389L198,392L191,393L187,394L183,395L180,395L178,395L176,395L174,392L172,388L170,381L166,372L164,366L161,359L159,351L158,345L158,339L158,332L159,325L164,319L170,315L178,313L186,313L194,313L200,313L206,315L211,316L217,318L222,320L230,322L238,323L244,323L249,323L254,323L258,323L262,320L265,317L270,312L273,308L278,305L281,303L285,302L289,301L294,301L299,302L304,305L308,308L311,310L313,312L314,313L314,314L314,319" stroke-opacity="1" stroke-width="3" stroke-linecap="round" stroke-linejoin="round" style="-webkit-tap-highlight-color: rgba(0, 0, 0, 0); stroke-opacity: 1; stroke-linecap: round; stroke-linejoin: round; -webkit-user-select: text;"></path><path fill="none" stroke="#000000" d="M255,334L256,331L257,328L261,325L267,322L273,321L280,320L286,320L295,323L302,329L310,337L318,346L324,354L330,360L336,365L341,367L345,368L348,368L351,368L354,367L357,364L359,362L362,359L366,357L369,355L372,353L375,351L377,351L378,350L376,350L375,350L373,350L371,349L368,346L361,335L353,323L348,313L343,303L340,295L338,289L337,285L336,282L336,281L335,280L334,280L333,281L330,283L325,287L317,292L308,296L299,301L293,305L288,307L285,308L284,310L283,310L283,312L283,313L284,317L286,324L288,332L288,338L288,343L288,347L288,350L288,352L290,351L299,346L309,341L319,336L326,332L331,329L335,327L338,324L339,322L339,321L339,319L339,317L336,312L332,305L325,296L317,288L307,279L299,273L294,269L290,268L288,267L286,266L285,266L284,266L283,266L282,266L281,266L281,267L280,267L280,268L277,271L270,276L262,281L253,286L244,292L237,295L231,298L227,300L224,302L222,303L221,303" stroke-opacity="1" stroke-width="3" stroke-linecap="round" stroke-linejoin="round" style="-webkit-tap-highlight-color: rgba(0, 0, 0, 0); stroke-opacity: 1; stroke-linecap: round; stroke-linejoin: round; -webkit-user-select: text;"></path><path fill="none" stroke="#000000" d="M284,293L281,293L274,299L267,306L259,314L251,321L244,327L238,332L234,335L230,337L228,339L226,339L225,339L224,337L222,333L216,321L210,312L203,304L194,295L186,288L177,282L171,278L166,275L162,273L160,271L159,270L159,268L159,267L161,265L164,263L168,259L173,254L178,249L184,243L191,237L197,232L204,227L211,223L217,220L222,220L226,220L229,220L233,222L239,229L249,237L256,244L263,252L269,260L275,268L279,278L281,286L281,292L280,300L273,305L266,309L258,311L248,312L238,312L228,311L219,306L212,302L206,297L200,292L194,288L187,285L178,282L169,280L159,279L151,279L142,279L134,281L127,284L122,288L116,293L112,298L109,300L107,302L105,304L105,305" stroke-opacity="1" stroke-width="3" stroke-linecap="round" stroke-linejoin="round" style="-webkit-tap-highlight-color: rgba(0, 0, 0, 0); stroke-opacity: 1; stroke-linecap: round; stroke-linejoin: round; -webkit-user-select: text;"></path><path fill="none" stroke="#000000" d="M188,256L175,250L165,249L155,249L143,250L132,254L124,259L117,266L111,273L106,281L101,289L97,295L93,300L91,303L88,305L86,307L85,307L84,307L84,306L84,304L81,298L76,289L72,283L69,278L66,272L64,268L62,265L62,262L61,260L61,257L61,255L62,251L69,244L77,237L87,229L96,222L104,215L109,210L114,206L118,203L122,202L129,202L143,210L153,220L159,231L161,244L161,257L161,269L161,277L161,284L161,292L165,298L171,302L177,304L187,304L198,304L207,300L215,295L222,288L227,282L228,276L228,272L228,266L225,261L216,254L205,245L197,239L188,232L181,228L176,225L174,223L174,222L174,221L174,220L175,220L178,218L181,216L184,212L188,208L193,203L197,197L201,189L205,182L207,177L210,173L211,170L213,168L214,168L215,168L216,169L217,171L225,182L240,196L252,207L265,218L276,227L286,235L294,242L301,249L306,254L310,256L312,259L314,260L315,261" stroke-opacity="1" stroke-width="3" stroke-linecap="round" stroke-linejoin="round" style="-webkit-tap-highlight-color: rgba(0, 0, 0, 0); stroke-opacity: 1; stroke-linecap: round; stroke-linejoin: round; -webkit-user-select: text;"></path></svg>