<svg height="650" version="1.1" width="1024" xmlns="http://www.w3.org/2000/svg" xmlns:xlink="http://www.w3.org/1999/xlink" style="overflow: hidden; position: relative; -webkit-user-select: text;"><desc style="-webkit-tap-highlight-color: rgba(0, 0, 0, 0); -webkit-user-select: text;">Created with Raphaël 2.2.0</desc><defs style="-webkit-tap-highlight-color: rgba(0, 0, 0, 0); -webkit-user-select: text;"></defs><path fill="none" stroke="#000000" d="M29,127L40,125L42,125L45,125L49,125L53,125L57,125L60,124L65,124L69,124L73,124L78,124L83,124L89,124L94,124L100,124L107,124L114,124L120,123L127,123L135,122L142,122L149,122L158,121L165,120L172,119L182,119L191,118L200,117L211,117L220,117L230,117L240,117L249,117L259,116L268,116L276,116L286,116L295,116L303,116L313,116L321,116L329,116L340,116L349,116L358,116L368,116L378,116L387,116L398,116L408,116L418,115L429,115L439,115L451,115L461,115L473,115L485,115L497,115L507,115L518,115L529,115L539,115L551,115L562,115L573,115L585,115L596,115L607,115L618,115L629,115L640,115L651,115L661,115L672,115L682,116L693,117L703,117L713,118L723,119L733,119L742,120L751,120L760,121L769,121L777,121L785,121L794,121L803,121L811,121L819,121L827,121L835,121L842,121L848,121L855,121L861,121L868,121L874,121L879,121L885,121L891,121L896,121L902,121L907,121L913,121L918,121L922,121L926,121L930,121L934,121L937,121L941,121L945,121L947,121L950,120L953,120L956,120L959,120L962,120L964,120L967,120L969,120L971,120L974,120L976,120L978,120L980,120L982,120L984,120L986,120L988,120L990,120L991,120L993,121L994,121L996,121L997,122L998,122L1000,122L1001,122L1002,122L1003,122L1004,122L1005,122L1006,122L1006,123" stroke-opacity="1" stroke-width="3" stroke-linecap="round" stroke-linejoin="round" style="-webkit-tap-highlight-color: rgba(0, 0, 0, 0); stroke-opacity: 1; stroke-linecap: round; stroke-linejoin: round; -webkit-user-select: text;"></path><path fill="none" stroke="#000000" d="M992,155L982,158L977,158L971,158L965,159L959,160L952,161L945,161L938,161L930,162L922,162L913,163L905,164L896,165L887,166L878,168L870,168L861,170L854,170L846,171L837,171L829,172L820,172L810,173L801,173L791,174L781,175L771,175L762,176L751,177L742,177L731,178L721,178L711,178L700,179L690,179L680,180L670,180L660,180L651,180L642,181L632,181L623,182L614,182L604,183L595,183L585,184L574,185L565,187L555,188L545,189L536,190L526,191L516,192L507,192L497,192L488,193L478,194L468,195L460,195L451,196L442,196L434,197L425,197L417,198L408,199L399,200L391,201L382,202L374,204L365,205L357,206L349,207L342,208L335,209L327,209L321,210L314,211L307,211L300,212L293,213L286,214L279,215L272,216L265,217L258,218L252,219L245,220L238,221L231,222L225,223L218,224L212,225L207,226L201,226L196,227L192,228L188,228L184,229L180,229L177,230L174,230L170,231L167,231L164,231L161,232L158,232L155,233L152,233L150,234L147,234L144,234L141,235L138,235L135,236L133,236L130,237L127,237L124,238L122,238L119,238L116,239L113,239L111,240L108,240L105,241L102,241L99,241L97,242L95,242L92,243L90,243L87,243L85,244L83,244L80,245L78,245L76,246L75,246L73,246L72,246L70,246L69,247L67,247L66,247L65,247L63,247L62,248L60,248L59,248L58,248L56,248L55,248L53,248L53,249L51,249L50,249L49,249L48,249L47,249L46,249L46,250" stroke-opacity="1" stroke-width="3" stroke-linecap="round" stroke-linejoin="round" style="-webkit-tap-highlight-color: rgba(0, 0, 0, 0); stroke-opacity: 1; stroke-linecap: round; stroke-linejoin: round; -webkit-user-select: text;"></path><path fill="none" stroke="#000000" d="M36,309L43,307L46,307L50,307L55,307L60,307L67,307L74,307L81,307L89,307L96,307L104,307L112,307L121,308L129,309L138,310L146,311L155,311L165,311L174,312L184,312L193,313L203,313L213,314L224,314L235,314L247,314L259,314L272,314L284,314L294,314L306,315L317,315L328,315L338,316L347,316L357,316L366,317L374,317L382,318L391,318L400,318L409,319L417,319L427,319L434,319L444,320L454,320L463,320L473,320L483,320L493,320L504,321L514,321L525,321L536,321L549,322L561,323L573,324L583,324L595,325L606,326L617,326L628,326L638,327L649,327L659,328L669,328L679,328L688,328L698,328L707,328L715,328L725,328L733,329L741,329L749,329L758,329L766,329L774,329L782,330L789,330L797,330L804,330L811,330L818,330L825,330L831,330L837,330L843,330L849,330L855,331L861,331L866,331L872,332L877,332L881,332L885,333L889,333L894,333L898,333L902,333L906,333L910,333L914,334L918,334L922,334L926,335L930,335L935,335L938,336L942,336L946,336L950,336L953,337L957,337L959,337L962,338L965,338L968,338L971,338L973,338L975,338L977,338L979,338L981,338L983,338L984,338L985,339L986,339L987,339L988,339" stroke-opacity="1" stroke-width="3" stroke-linecap="round" stroke-linejoin="round" style="-webkit-tap-highlight-color: rgba(0, 0, 0, 0); stroke-opacity: 1; stroke-linecap: round; stroke-linejoin: round; -webkit-user-select: text;"></path><path fill="none" stroke="#000000" d="M972,374L967,376L964,376L961,377L957,377L953,377L948,378L942,379L936,379L930,379L923,380L915,381L908,381L898,382L889,383L879,383L869,384L857,385L845,387L832,388L818,389L804,390L789,392L775,393L759,395L744,396L726,399L712,400L697,401L682,403L667,404L652,405L637,406L621,408L605,409L590,410L574,412L559,413L544,414L529,416L513,416L499,418L484,418L471,419L458,419L445,420L432,420L420,421L409,421L398,421L387,421L376,421L367,421L358,421L350,421L340,421L333,422L326,422L319,423L311,423L305,424L298,425L291,426L285,427L279,428L273,428L267,429L262,430L256,431L251,431L246,432L240,433L235,433L230,434L224,434L219,435L213,435L207,436L201,437L195,438L189,438L183,438L177,439L172,439L166,440L160,440L154,440L148,441L141,441L136,441L129,442L124,442L118,443L113,443L109,443L104,443L99,444L94,444L90,445L86,445L82,445L78,446L74,446L71,446L67,447L64,447L61,447L58,447L56,447L55,447L53,447L52,447L51,447L50,447L49,447L48,447L47,447L47,448L46,448L45,448L46,448" stroke-opacity="1" stroke-width="3" stroke-linecap="round" stroke-linejoin="round" style="-webkit-tap-highlight-color: rgba(0, 0, 0, 0); stroke-opacity: 1; stroke-linecap: round; stroke-linejoin: round; -webkit-user-select: text;"></path><path fill="none" stroke="#000000" d="M313,123L310,128L310,130L310,132L309,135L307,138L306,142L303,146L301,151L298,156L296,161L293,168L290,175L286,181L283,188L279,197L274,205L269,214L264,224L259,234L254,245L250,255L246,265L242,274L239,282L237,289L234,296L232,302L231,306L230,310L229,313L228,314L228,315L227,315L227,316L226,316L226,317L227,317L228,318L230,319L232,321L236,324L240,327L245,331L250,335L255,340L262,346L269,352L276,359L284,365L292,372L301,379L309,387L317,394L326,401L335,408L343,414L351,419L357,423L363,427L367,430L371,432L373,433L375,434L376,434L376,435L377,435L378,434L378,433L378,432L379,431L379,430L380,429L380,428L381,426L382,424L384,421L386,416L389,411L392,406L395,400L398,394L402,387L405,381L409,374L412,367L416,359L420,352L424,344L427,336L431,328L435,320L439,312L442,304L445,295L449,287L452,278L455,270L458,262L461,254L464,246L466,240L468,234L471,229L473,224L474,219L476,216L477,213L478,210L479,209L479,207L480,206L480,205L481,204L481,203L481,202L481,201L482,201L482,200L481,200L480,200L479,200L477,201L473,203L466,205L459,208L450,212L439,216L430,220L419,225L408,229L398,234L387,239L376,243L366,248L356,253L345,258L335,263L325,267L315,272L305,276L296,280L286,284L277,288L268,292L261,296L254,299L247,302L242,305L237,307L234,309L231,310L229,311L228,311L227,311L226,312L225,312L225,313L224,313L223,313L223,312" stroke-opacity="1" stroke-width="3" stroke-linecap="round" stroke-linejoin="round" style="-webkit-tap-highlight-color: rgba(0, 0, 0, 0); stroke-opacity: 1; stroke-linecap: round; stroke-linejoin: round; -webkit-user-select: text;"></path><path fill="none" stroke="#000000" d="M318,125L321,129L323,129L326,129L329,130L333,131L337,132L342,134L347,136L352,139L357,141L362,144L368,146L375,149L381,153L388,156L393,158L400,162L405,165L410,168L416,170L421,173L426,176L431,178L436,180L442,183L447,185L452,188L457,191L462,195L468,197L473,200L478,203L484,207L489,209L495,213L501,216L507,219L512,223L519,226L525,230L532,233L539,236L546,241L553,244L560,248L567,252L574,256L581,260L588,264L595,268L601,272L607,276L612,279L617,282L622,285L628,287L633,290L637,292L641,294L645,296L648,297L651,299L654,300L656,301L658,302L660,302L662,303L663,304L665,304L666,305L667,306L669,307L670,307L671,308L673,309L674,309L675,310L677,311L678,311L679,312L680,312L681,313L683,314L684,315L685,316L687,316L687,317L689,318L690,319L691,320L692,321L693,321L694,321L695,322L696,322L697,323L698,323L699,323L699,322L699,320L699,318L700,315L701,312L702,308L702,302L704,297L704,292L705,287L705,282L706,275L707,269L707,265L708,258L708,252L709,246L709,241L710,235L711,229L711,224L711,218L711,213L712,207L712,202L713,196L713,191L714,186L714,181L714,176L715,172L716,168L716,164L716,161L716,158L717,155L717,152L718,150L718,147L718,145L718,143L719,141L719,139L719,137L719,136L720,134L720,133L720,131L721,129L721,127L721,126L721,125" stroke-opacity="1" stroke-width="3" stroke-linecap="round" stroke-linejoin="round" style="-webkit-tap-highlight-color: rgba(0, 0, 0, 0); stroke-opacity: 1; stroke-linecap: round; stroke-linejoin: round; -webkit-user-select: text;"></path><path fill="none" stroke="#000000" d="M721,117L716,122L715,124L713,125L710,127L707,129L704,131L700,134L697,137L692,141L688,146L684,150L679,155L674,160L669,165L663,171L657,178L651,184L644,191L638,198L631,204L624,211L618,218L612,224L607,230L600,238L595,244L590,250L584,257L579,263L575,269L570,275L566,280L561,286L557,291L552,297L548,302L544,307L540,311L536,315L534,318L532,321L530,323L529,324L528,325L528,326L527,326L527,327L527,328L528,329L529,329L531,331L533,332L534,333L537,335L539,337L541,338L544,341L547,343L550,345L553,348L556,350L559,352L563,354L566,357L569,359L572,361L575,363L578,365L581,367L584,370L587,372L590,374L592,375L595,377L597,379L600,380L602,382L604,384L607,385L609,386L611,387L613,388L614,389L616,390L617,391L619,392L620,392L621,393L622,393L623,394L624,394L625,395L626,395L627,396L628,396L629,397L630,398L631,398L631,399L632,399L633,399L633,400L634,400L635,400L636,400" stroke-opacity="1" stroke-width="3" stroke-linecap="round" stroke-linejoin="round" style="-webkit-tap-highlight-color: rgba(0, 0, 0, 0); stroke-opacity: 1; stroke-linecap: round; stroke-linejoin: round; -webkit-user-select: text;"></path><path fill="none" stroke="#000000" d="M765,333L766,328L766,326L766,324L766,320L766,316L766,312L765,307L765,303L765,298L764,293L764,289L763,284L763,280L762,274L762,269L762,264L761,259L761,253L760,247L760,242L760,236L760,230L760,224L760,217L760,212L760,205L760,199L760,192L760,187L760,180L760,173L760,168L760,163L760,158L760,153L760,149L760,146L760,142L760,139L760,136L760,134L760,132L760,130L759,129L759,127L758,125L758,124L757,124L756,124L755,124L753,124L751,124L748,126L743,128L738,130L731,134L725,137L718,141L710,144L703,148L696,152L689,156L681,160L673,164L666,168L658,172L651,176L643,180L636,184L627,187L618,192L611,196L602,200L595,204L587,207L579,211L572,215L564,219L557,222L550,226L543,230L536,234L529,237L523,241L516,245L510,248L504,252L499,255L494,258L489,261L484,264L480,267L476,270L471,272L467,275L464,277L460,280L456,282L453,284L450,286L446,289L443,291L439,293L436,295L433,297L430,299L427,302L424,303L421,304L418,306L416,307L414,309L412,310L410,311L408,312L406,313L404,314L402,315L400,316L398,316L397,317L396,318L395,318L394,319L393,319L392,319L392,320L391,320L390,320L390,321L389,321L387,323" stroke-opacity="1" stroke-width="3" stroke-linecap="round" stroke-linejoin="round" style="-webkit-tap-highlight-color: rgba(0, 0, 0, 0); stroke-opacity: 1; stroke-linecap: round; stroke-linejoin: round; -webkit-user-select: text;"></path><path fill="none" stroke="#000000" d="M266,309L269,312L271,313L272,315L275,317L277,320L280,323L284,326L288,329L291,332L295,335L299,338L302,341L306,344L310,347L314,350L318,353L322,356L325,359L330,362L333,365L337,368L342,372L346,375L349,378L353,381L357,384L361,387L365,390L369,393L373,396L376,399L381,402L385,405L389,408L394,411L398,413L401,415L405,417L409,418L412,420L415,421L417,422L419,423L420,423L421,423L422,423L423,423L424,423L425,423L425,422L425,421L426,420L427,418L428,416L429,412L432,407L434,401L437,395L440,389L443,383L446,377L449,370L452,365L454,358L457,353L459,347L461,341L463,336L465,330L467,323L469,317L471,311L473,305L476,299L478,293L480,287L482,280L484,273L486,266L488,260L490,254L492,247L494,241L496,235L498,229L500,223L501,217L503,212L505,206L507,200L509,195L511,189L512,185L514,180L515,175L517,171L518,167L519,164L520,160L521,157L522,154L523,151L524,149L524,146L525,144L526,142L527,139L527,137L528,136L529,134L529,133L530,132L530,131L531,129L532,128L532,127L532,126L532,125L533,124L533,123" stroke-opacity="1" stroke-width="3" stroke-linecap="round" stroke-linejoin="round" style="-webkit-tap-highlight-color: rgba(0, 0, 0, 0); stroke-opacity: 1; stroke-linecap: round; stroke-linejoin: round; -webkit-user-select: text;"></path><path fill="none" stroke="#000000" d="M464,114L460,117L458,119L455,121L452,123L448,125L443,128L438,131L432,134L426,137L420,141L413,145L405,150L398,154L389,159L381,164L373,169L364,175L356,180L347,185L338,191L329,197L319,203L310,209L300,215L289,221L280,227L270,234L261,240L251,247L242,253L233,260L224,265L216,271L210,275L203,280L197,284L191,288L185,292L179,296L173,300L167,304L160,309L154,312L148,316L143,320L137,323L132,326L127,329L123,332L119,334L116,336L113,337L111,338L109,339L109,340L108,341L107,341L106,342L106,343L105,344L105,345L105,346L105,348L105,349L105,352L106,355L107,358L109,362L111,366L113,371L115,376L117,380L119,385L121,390L123,394L126,399L128,403L130,407L132,411L134,414L136,417L138,420L139,423L141,426L142,428L143,429L144,431L145,433L146,434L147,435L148,436L148,437L148,438L149,438L149,439L150,439" stroke-opacity="1" stroke-width="3" stroke-linecap="round" stroke-linejoin="round" style="-webkit-tap-highlight-color: rgba(0, 0, 0, 0); stroke-opacity: 1; stroke-linecap: round; stroke-linejoin: round; -webkit-user-select: text;"></path><path fill="none" stroke="#000000" d="M45,301L48,305L50,308L53,310L57,313L62,318L68,322L75,328L82,333L90,339L98,345L106,353L115,360L123,366L132,373L140,380L149,388L157,394L164,400L169,404L174,408L177,411L179,412L181,412L182,411" stroke-opacity="1" stroke-width="3" stroke-linecap="round" stroke-linejoin="round" style="-webkit-tap-highlight-color: rgba(0, 0, 0, 0); stroke-opacity: 1; stroke-linecap: round; stroke-linejoin: round; -webkit-user-select: text;"></path><path fill="none" stroke="#000000" d="M121,275L122,280L123,284L126,288L129,294L133,300L138,307L143,314L148,322L153,330L158,338L163,346L167,353L170,359L173,363L176,366L178,368L179,369L181,369" stroke-opacity="1" stroke-width="3" stroke-linecap="round" stroke-linejoin="round" style="-webkit-tap-highlight-color: rgba(0, 0, 0, 0); stroke-opacity: 1; stroke-linecap: round; stroke-linejoin: round; -webkit-user-select: text;"></path><path fill="none" stroke="#000000" d="M199,245L201,246L201,249L201,253L201,258L202,263L203,270L205,277L207,285L208,294L210,303L211,309L211,316L211,321L212,326L212,329L212,331L213,331L214,331" stroke-opacity="1" stroke-width="3" stroke-linecap="round" stroke-linejoin="round" style="-webkit-tap-highlight-color: rgba(0, 0, 0, 0); stroke-opacity: 1; stroke-linecap: round; stroke-linejoin: round; -webkit-user-select: text;"></path><path fill="none" stroke="#000000" d="M262,220L261,225L261,228L261,231L261,235L261,241L261,248L261,255L260,263L260,273L259,282L258,289L257,297L255,303L255,307L254,311L254,312" stroke-opacity="1" stroke-width="3" stroke-linecap="round" stroke-linejoin="round" style="-webkit-tap-highlight-color: rgba(0, 0, 0, 0); stroke-opacity: 1; stroke-linecap: round; stroke-linejoin: round; -webkit-user-select: text;"></path><path fill="none" stroke="#000000" d="M304,244L302,251L302,254L302,257L302,261L301,265L300,271L299,275L298,280L297,283L296,285L296,287" stroke-opacity="1" stroke-width="3" stroke-linecap="round" stroke-linejoin="round" style="-webkit-tap-highlight-color: rgba(0, 0, 0, 0); stroke-opacity: 1; stroke-linecap: round; stroke-linejoin: round; -webkit-user-select: text;"></path><path fill="none" stroke="#000000" d="M338,268L338,272L338,274L338,276L338,279" stroke-opacity="1" stroke-width="3" stroke-linecap="round" stroke-linejoin="round" style="-webkit-tap-highlight-color: rgba(0, 0, 0, 0); stroke-opacity: 1; stroke-linecap: round; stroke-linejoin: round; -webkit-user-select: text;"></path><path fill="none" stroke="#000000" d="M386,281L388,288L391,292L393,296L396,301L399,306L402,310L404,315L406,320L408,326L408,329L410,333L410,336L411,338" stroke-opacity="1" stroke-width="3" stroke-linecap="round" stroke-linejoin="round" style="-webkit-tap-highlight-color: rgba(0, 0, 0, 0); stroke-opacity: 1; stroke-linecap: round; stroke-linejoin: round; -webkit-user-select: text;"></path><path fill="none" stroke="#000000" d="M446,270L448,274L448,278L448,284L446,290L445,298L443,307L441,315L439,324L436,333L434,341L432,348L430,353L429,355L428,357" stroke-opacity="1" stroke-width="3" stroke-linecap="round" stroke-linejoin="round" style="-webkit-tap-highlight-color: rgba(0, 0, 0, 0); stroke-opacity: 1; stroke-linecap: round; stroke-linejoin: round; -webkit-user-select: text;"></path><path fill="none" stroke="#000000" d="M508,287L504,294L503,297L501,302L499,307L496,313L492,321L487,330L482,338L477,346L472,354L468,360L465,365L463,368L461,371L460,372L460,371" stroke-opacity="1" stroke-width="3" stroke-linecap="round" stroke-linejoin="round" style="-webkit-tap-highlight-color: rgba(0, 0, 0, 0); stroke-opacity: 1; stroke-linecap: round; stroke-linejoin: round; -webkit-user-select: text;"></path><path fill="none" stroke="#000000" d="M575,310L573,314L573,316L571,319L568,324L566,330L562,336L556,344L551,352L545,360L540,365L535,371L532,375L529,379L528,381L527,381L526,381" stroke-opacity="1" stroke-width="3" stroke-linecap="round" stroke-linejoin="round" style="-webkit-tap-highlight-color: rgba(0, 0, 0, 0); stroke-opacity: 1; stroke-linecap: round; stroke-linejoin: round; -webkit-user-select: text;"></path><path fill="none" stroke="#000000" d="M618,330L616,336L616,339L616,343L615,347L613,353L612,358L609,364L607,371L604,378L602,384L601,389L599,393L598,396L597,397" stroke-opacity="1" stroke-width="3" stroke-linecap="round" stroke-linejoin="round" style="-webkit-tap-highlight-color: rgba(0, 0, 0, 0); stroke-opacity: 1; stroke-linecap: round; stroke-linejoin: round; -webkit-user-select: text;"></path><path fill="none" stroke="#000000" d="M651,330L654,335L656,337L658,340L662,343L665,348L669,353L672,358L675,362L677,365L679,369L680,371L680,373L681,373L682,373" stroke-opacity="1" stroke-width="3" stroke-linecap="round" stroke-linejoin="round" style="-webkit-tap-highlight-color: rgba(0, 0, 0, 0); stroke-opacity: 1; stroke-linecap: round; stroke-linejoin: round; -webkit-user-select: text;"></path><path fill="none" stroke="#000000" d="M677,318L683,323L687,325L691,327L695,329L699,330L704,331L707,332L711,333L713,333L714,333L714,332" stroke-opacity="1" stroke-width="3" stroke-linecap="round" stroke-linejoin="round" style="-webkit-tap-highlight-color: rgba(0, 0, 0, 0); stroke-opacity: 1; stroke-linecap: round; stroke-linejoin: round; -webkit-user-select: text;"></path><path fill="none" stroke="#000000" d="M603,202L614,208L621,212L630,217L640,223L650,229L660,235L673,242L685,250L696,258L707,266L718,273L726,280L736,285L742,288L748,290L752,291L755,291L756,291" stroke-opacity="1" stroke-width="3" stroke-linecap="round" stroke-linejoin="round" style="-webkit-tap-highlight-color: rgba(0, 0, 0, 0); stroke-opacity: 1; stroke-linecap: round; stroke-linejoin: round; -webkit-user-select: text;"></path><path fill="none" stroke="#000000" d="M653,166L658,171L661,175L665,180L670,187L676,195L682,202L689,211L695,220L703,230L711,239L717,249L724,257L731,264L737,270L741,275L744,276L745,276" stroke-opacity="1" stroke-width="3" stroke-linecap="round" stroke-linejoin="round" style="-webkit-tap-highlight-color: rgba(0, 0, 0, 0); stroke-opacity: 1; stroke-linecap: round; stroke-linejoin: round; -webkit-user-select: text;"></path><path fill="none" stroke="#000000" d="M702,145L704,145L704,149L705,153L708,158L711,166L715,174L718,183L721,194L725,205L729,216L733,227L738,237L741,248L744,255L747,261L750,266L753,268L756,268" stroke-opacity="1" stroke-width="3" stroke-linecap="round" stroke-linejoin="round" style="-webkit-tap-highlight-color: rgba(0, 0, 0, 0); stroke-opacity: 1; stroke-linecap: round; stroke-linejoin: round; -webkit-user-select: text;"></path><path fill="none" stroke="#000000" d="M761,142L765,140L765,144L765,148L766,153L767,159L769,167L770,175L771,182L771,190L772,198L772,204L772,209L773,212L774,214L777,215" stroke-opacity="1" stroke-width="3" stroke-linecap="round" stroke-linejoin="round" style="-webkit-tap-highlight-color: rgba(0, 0, 0, 0); stroke-opacity: 1; stroke-linecap: round; stroke-linejoin: round; -webkit-user-select: text;"></path><path fill="none" stroke="#000000" d="M810,132L809,138L809,141L809,144L809,149L810,153L811,158L811,163L811,168L812,173L813,176L814,179L816,182" stroke-opacity="1" stroke-width="3" stroke-linecap="round" stroke-linejoin="round" style="-webkit-tap-highlight-color: rgba(0, 0, 0, 0); stroke-opacity: 1; stroke-linecap: round; stroke-linejoin: round; -webkit-user-select: text;"></path><path fill="none" stroke="#000000" d="M853,137L855,140L855,143L855,145L855,148L855,151L857,155L858,158L859,160" stroke-opacity="1" stroke-width="3" stroke-linecap="round" stroke-linejoin="round" style="-webkit-tap-highlight-color: rgba(0, 0, 0, 0); stroke-opacity: 1; stroke-linecap: round; stroke-linejoin: round; -webkit-user-select: text;"></path><path fill="none" stroke="#000000" d="M621,135L608,142L601,147L593,152L583,158L572,166L561,175L550,182L539,190L527,200L516,208L504,217L493,226L483,234L474,242L466,249L461,254L456,258L453,261L449,262L447,262" stroke-opacity="1" stroke-width="3" stroke-linecap="round" stroke-linejoin="round" style="-webkit-tap-highlight-color: rgba(0, 0, 0, 0); stroke-opacity: 1; stroke-linecap: round; stroke-linejoin: round; -webkit-user-select: text;"></path><path fill="none" stroke="#000000" d="M559,113L557,114L554,118L551,122L547,128L542,134L536,143L530,151L523,160L514,171L506,181L498,192L490,202L484,210L479,219L475,226L471,231L469,234L468,236L467,237L467,233" stroke-opacity="1" stroke-width="3" stroke-linecap="round" stroke-linejoin="round" style="-webkit-tap-highlight-color: rgba(0, 0, 0, 0); stroke-opacity: 1; stroke-linecap: round; stroke-linejoin: round; -webkit-user-select: text;"></path><path fill="none" stroke="#000000" d="M463,101L459,107L457,112L456,117L454,124L452,130L450,139L449,147L447,156L445,166L444,175L444,183L443,193L442,200L442,205L442,210L441,214L441,215L441,216" stroke-opacity="1" stroke-width="3" stroke-linecap="round" stroke-linejoin="round" style="-webkit-tap-highlight-color: rgba(0, 0, 0, 0); stroke-opacity: 1; stroke-linecap: round; stroke-linejoin: round; -webkit-user-select: text;"></path><path fill="none" stroke="#000000" d="M367,120L374,129L376,131L378,134L381,138L384,142L386,147L390,153L393,160L396,167L399,174L402,178L404,183L406,186L408,189L408,191" stroke-opacity="1" stroke-width="3" stroke-linecap="round" stroke-linejoin="round" style="-webkit-tap-highlight-color: rgba(0, 0, 0, 0); stroke-opacity: 1; stroke-linecap: round; stroke-linejoin: round; -webkit-user-select: text;"></path><path fill="none" stroke="#000000" d="M302,151L306,154L308,156L310,159L314,163L317,168L320,172L324,176L328,180L332,185L335,188L337,191L340,193L342,195L343,195" stroke-opacity="1" stroke-width="3" stroke-linecap="round" stroke-linejoin="round" style="-webkit-tap-highlight-color: rgba(0, 0, 0, 0); stroke-opacity: 1; stroke-linecap: round; stroke-linejoin: round; -webkit-user-select: text;"></path><path fill="none" stroke="#000000" d="M247,183L250,185L252,185L254,186L256,187L258,189L260,190L262,191L264,192L265,193L266,193L267,194" stroke-opacity="1" stroke-width="3" stroke-linecap="round" stroke-linejoin="round" style="-webkit-tap-highlight-color: rgba(0, 0, 0, 0); stroke-opacity: 1; stroke-linecap: round; stroke-linejoin: round; -webkit-user-select: text;"></path><path fill="none" stroke="#000000" d="M96,190L101,194L105,196L109,199L113,201L120,205L127,209L136,214L144,221L154,227L164,234L174,241L186,249L196,257L207,265L217,273L225,280L233,286L240,290L246,294L250,297L253,299L254,299" stroke-opacity="1" stroke-width="3" stroke-linecap="round" stroke-linejoin="round" style="-webkit-tap-highlight-color: rgba(0, 0, 0, 0); stroke-opacity: 1; stroke-linecap: round; stroke-linejoin: round; -webkit-user-select: text;"></path><path fill="none" stroke="#000000" d="M225,94L224,97L224,100L224,103L223,109L221,115L220,122L219,130L218,140L216,150L215,163L213,176L211,190L208,204L207,214L207,224L206,231L206,237L206,242L206,244L206,245" stroke-opacity="1" stroke-width="3" stroke-linecap="round" stroke-linejoin="round" style="-webkit-tap-highlight-color: rgba(0, 0, 0, 0); stroke-opacity: 1; stroke-linecap: round; stroke-linejoin: round; -webkit-user-select: text;"></path><path fill="none" stroke="#000000" d="M335,85L333,88L333,93L332,98L329,103L325,110L321,119L317,127L312,136L308,147L303,161L297,175L291,191L284,207L278,223L272,237L267,251L263,260L260,268L258,273L257,275L257,276L259,274" stroke-opacity="1" stroke-width="3" stroke-linecap="round" stroke-linejoin="round" style="-webkit-tap-highlight-color: rgba(0, 0, 0, 0); stroke-opacity: 1; stroke-linecap: round; stroke-linejoin: round; -webkit-user-select: text;"></path><path fill="none" stroke="#000000" d="M435,107L433,110L429,115L422,123L415,132L407,144L400,154L393,167L386,180L379,193L371,207L363,221L353,235L342,248" stroke-opacity="1" stroke-width="3" stroke-linecap="round" stroke-linejoin="round" style="-webkit-tap-highlight-color: rgba(0, 0, 0, 0); stroke-opacity: 1; stroke-linecap: round; stroke-linejoin: round; -webkit-user-select: text;"></path></svg>