<svg height="650" version="1.1" width="1024" xmlns="http://www.w3.org/2000/svg" xmlns:xlink="http://www.w3.org/1999/xlink" style="overflow: hidden; position: relative; -webkit-user-select: text;"><desc style="-webkit-tap-highlight-color: rgba(0, 0, 0, 0); -webkit-user-select: text;">Created with Raphaël 2.2.0</desc><defs style="-webkit-tap-highlight-color: rgba(0, 0, 0, 0); -webkit-user-select: text;"></defs><path fill="none" stroke="#000000" d="M79,149L89,150L91,150L93,150L95,150L97,150L100,150L104,150L108,150L112,149L118,147L123,146L129,145L135,144L142,142L148,141L156,139L163,138L170,136L178,135L186,133L194,132L201,130L209,129L217,127L225,124L233,123L241,120L249,118L257,115L267,113L275,110L284,108L293,106L303,104L312,102L323,99L330,96L342,93L352,90L362,87L373,84L383,82L394,79L404,76L415,74L425,71L434,69L445,66L454,64L463,62L472,60L481,59L489,57L498,55L507,54L515,52L521,51L528,50L534,49L540,48L545,47L549,46L554,45L558,44L561,44L563,44L565,43L566,43L567,43L568,43L569,43L570,43L570,44L570,45L570,46L570,47L570,49L570,52L570,55L570,59L570,63L569,68L568,74L567,80L566,86L565,92L564,98L563,103L563,109L562,115L561,120L560,126L559,131L558,137L556,144L555,151L553,157L552,164L551,171L550,178L550,184L549,192L549,199L549,206L549,213L549,221L549,229L548,238L548,247L547,256L546,265L546,273L546,282L545,291L544,298L544,305L542,313L542,320L541,327L541,333L540,340L540,346L539,351L539,356L538,361L538,365L537,368L537,372L536,374L536,376L535,378L534,380L534,382L533,384L533,385L532,386L532,387L532,388L532,389L531,389" stroke-opacity="1" stroke-width="3" stroke-linecap="round" stroke-linejoin="round" style="-webkit-tap-highlight-color: rgba(0, 0, 0, 0); stroke-opacity: 1; stroke-linecap: round; stroke-linejoin: round; -webkit-user-select: text;"></path><path fill="none" stroke="#000000" d="M318,182L321,188L324,192L327,196L331,202L335,207L339,212L343,219L347,225L353,233L357,240L362,249L367,258L373,267L379,277L386,287L393,298L399,308L407,319L415,329L421,338L429,349L436,358L444,367L451,375L457,383L463,390L469,396L475,402L479,407L483,413L486,416L490,421L492,424L494,428L496,430L497,431L498,432L499,433L500,433L501,433L502,433L504,433L505,432L508,431L510,428L514,426L518,423L522,419L526,416L530,411L535,406L539,401L544,396L549,391L554,385L560,379L565,373L571,367L576,362L582,355L588,348L595,342L600,335L606,328L612,321L619,313L624,306L631,298L636,291L642,284L647,278L652,272L657,265L662,260L666,255L670,251L673,246L675,243L678,240L680,237L682,236L683,234L684,233L685,232L685,231L686,231L687,231L687,230L687,229L687,226" stroke-opacity="1" stroke-width="3" stroke-linecap="round" stroke-linejoin="round" style="-webkit-tap-highlight-color: rgba(0, 0, 0, 0); stroke-opacity: 1; stroke-linecap: round; stroke-linejoin: round; -webkit-user-select: text;"></path><path fill="none" stroke="#000000" d="M792,202L802,202L806,202L809,202L811,202L812,202L811,202L807,202L801,202L794,202L784,202L775,202L765,202L754,202L743,202L729,202L718,201L704,201L691,200L678,200L665,199L652,198L640,197L626,196L613,195L600,194L590,194L579,192L570,191L561,190L554,189L548,188L543,188L539,187L536,187L535,187L534,187L533,187L532,188L532,189L531,190L530,192L529,195L526,199L524,204L520,210L517,216L514,223L510,230L507,238L504,248L501,256L498,267L495,277L493,289L490,299L488,311L486,323L485,334L483,347L481,359L479,372L478,384L476,395L475,406L473,416L471,426L470,433L469,440L468,445L467,449L467,452L466,454L466,455L466,456L465,456L465,455L464,452L463,450" stroke-opacity="1" stroke-width="3" stroke-linecap="round" stroke-linejoin="round" style="-webkit-tap-highlight-color: rgba(0, 0, 0, 0); stroke-opacity: 1; stroke-linecap: round; stroke-linejoin: round; -webkit-user-select: text;"></path><path fill="none" stroke="#000000" d="M255,429L264,430L268,430L271,430L277,431L284,433L291,435L298,438L307,440L315,443L326,446L336,449L347,452L358,455L368,459L379,462L390,465L401,468L411,471L420,474L429,476L438,478L446,479L453,480L460,481L466,482L471,483L474,484L477,484L479,484L481,485L482,485L482,484L482,483L482,481L482,479L482,476L482,473L482,469L482,464L482,460L482,455L482,449L482,444L482,437L481,431L481,423L481,417L481,409L481,400L480,393L480,384L479,374L479,365L478,355L477,344L477,333L476,320L474,311L473,298L472,289L470,277L468,265L466,255L465,245L463,235L462,225L461,215L460,207L459,198L459,189L458,182L457,175L456,168L456,162L454,158L454,154L453,150L452,148L451,146L451,144L450,144L448,144L444,146" stroke-opacity="1" stroke-width="3" stroke-linecap="round" stroke-linejoin="round" style="-webkit-tap-highlight-color: rgba(0, 0, 0, 0); stroke-opacity: 1; stroke-linecap: round; stroke-linejoin: round; -webkit-user-select: text;"></path><path fill="none" stroke="#000000" d="M355,236L360,230L363,227L368,223L372,218L377,213L382,207L388,200L394,192L400,185L406,178L412,170L419,162L425,154L431,146L437,139L442,133L448,126L452,120L456,117L458,114L460,112L461,111L462,111L463,111L464,112L465,112L466,114L469,115L472,117L477,119L483,122L489,126L495,131L503,136L510,141L517,148L524,154L533,162L541,169L551,179L561,188L571,197L582,207L593,217L605,227L617,238L628,248L641,259L653,269L665,279L677,288L688,298L699,307L709,316L718,324L726,331L734,338L741,345L747,350L753,356L758,361L762,365L766,368L768,371L771,374L773,376L774,378L775,379L776,379L777,380L777,381" stroke-opacity="1" stroke-width="3" stroke-linecap="round" stroke-linejoin="round" style="-webkit-tap-highlight-color: rgba(0, 0, 0, 0); stroke-opacity: 1; stroke-linecap: round; stroke-linejoin: round; -webkit-user-select: text;"></path><path fill="none" stroke="#000000" d="M835,176L830,174L828,179L825,187L823,194L821,202L820,209L819,218L817,227L816,237L814,250L813,261L811,273L810,286L808,298L806,311L803,323L801,336L798,347L796,358L794,367L793,376L791,385L790,391L789,396L789,401L788,405L788,407L787,408L787,409L786,409L785,410L784,410L783,410L781,411L779,411L775,412L770,413L764,415L757,416L749,419L740,421L728,425L716,428L704,431L692,435L679,438L666,442L653,445L640,448L627,451L614,454L601,457L587,460L574,463L560,467L544,471L529,475L513,480L497,484L482,490L467,495L454,499L442,503L431,508L422,510L416,512L411,514L407,515L405,516L404,516L403,516" stroke-opacity="1" stroke-width="3" stroke-linecap="round" stroke-linejoin="round" style="-webkit-tap-highlight-color: rgba(0, 0, 0, 0); stroke-opacity: 1; stroke-linecap: round; stroke-linejoin: round; -webkit-user-select: text;"></path><path fill="none" stroke="#000000" d="M393,527L393,525L393,523L393,520L392,516L391,511L390,506L389,501L388,494L386,488L386,482L384,474L383,466L382,458L380,450L379,441L377,432L375,422L372,411L370,400L368,389L365,378L362,367L360,357L357,346L355,337L353,328L351,319L349,311L348,304L347,298L346,293L345,289L344,286L344,284L344,283L344,282L344,281L346,281L348,281L352,281L356,281L362,281L370,281L380,281L391,281L404,281L417,282L430,283L444,285L460,286L478,288L494,291L512,294L529,297L548,300L567,303L586,307L605,310L624,314L645,318L665,322L687,326L707,329L726,333L743,336L757,338L770,341L780,343L787,345L792,346L796,348L799,348L800,349L801,349L801,350L801,348" stroke-opacity="1" stroke-width="3" stroke-linecap="round" stroke-linejoin="round" style="-webkit-tap-highlight-color: rgba(0, 0, 0, 0); stroke-opacity: 1; stroke-linecap: round; stroke-linejoin: round; -webkit-user-select: text;"></path><path fill="none" stroke="#000000" d="M751,156L752,162L752,168L752,174L753,180L755,190L757,197L759,205L761,214L763,223L765,233L767,244L769,255L772,267L775,279L778,290L782,302L786,313L790,324L794,335L797,346L800,355L803,363L805,372L808,378L810,384L812,388L813,392L814,395L815,397L816,398L816,399L816,400L816,401L816,402L815,403L812,405L809,409L803,413L795,418L787,424L779,431L769,438L759,445L748,453L737,460L728,467L717,473L705,481L696,487L685,494L675,501L665,508L655,514L645,521L634,527L624,533L614,539L604,545L596,551L587,556L580,561L573,565L568,569L563,572L561,574L558,575L556,576L555,577L554,577L554,578L553,578L552,575L549,572" stroke-opacity="1" stroke-width="3" stroke-linecap="round" stroke-linejoin="round" style="-webkit-tap-highlight-color: rgba(0, 0, 0, 0); stroke-opacity: 1; stroke-linecap: round; stroke-linejoin: round; -webkit-user-select: text;"></path><path fill="none" stroke="#000000" d="M346,464L339,464L347,469L355,476L364,483L376,491L386,500L397,508L408,518L420,528L430,537L441,545L451,553L460,559L469,566L477,571L483,576L488,579L491,582L495,584L497,586L498,587L500,587L500,588L502,588L504,589L505,589L506,590L507,590L509,591L510,591L512,591L513,591L515,591L516,591L517,591L519,591L520,591L522,590L524,588L527,586L529,583L532,579L535,574L540,568L545,560L551,552L556,544L563,535L569,526L576,516L582,506L589,495L595,485L600,474L606,464L611,452L617,441L622,428L627,417L634,403L639,390L646,377L652,363L659,348L665,335L671,320L677,306L685,290L692,274L700,258L708,241L716,226L723,212L730,198L736,187L741,177L745,168L748,161L750,156L752,151L753,148L753,146L753,145L753,144L751,144" stroke-opacity="1" stroke-width="3" stroke-linecap="round" stroke-linejoin="round" style="-webkit-tap-highlight-color: rgba(0, 0, 0, 0); stroke-opacity: 1; stroke-linecap: round; stroke-linejoin: round; -webkit-user-select: text;"></path><path fill="none" stroke="#000000" d="M886,155L894,154L896,154L899,154L901,153L902,153L903,153L902,153L897,153L889,153L880,153L870,153L858,153L845,153L831,153L816,153L800,153L784,153L770,153L755,153L739,151L722,150L705,149L689,147L673,146L656,144L639,142L621,140L603,139L585,137L567,136L550,135L533,134L517,133L501,132L486,131L473,130L461,129L452,128L445,127L439,127L434,126L430,125L428,125L427,125L426,125L425,125L425,126L423,128L420,131L415,136L410,142L402,150L392,159L382,168L372,178L361,190L350,201L339,213L327,225L316,237L304,250L292,263L279,277L266,293L255,306L244,320L232,333L221,347L211,360L201,372L192,383L184,393L178,401L172,409L167,414L164,418L161,421L159,424L157,426L156,426L156,427L155,427L155,425L155,423" stroke-opacity="1" stroke-width="3" stroke-linecap="round" stroke-linejoin="round" style="-webkit-tap-highlight-color: rgba(0, 0, 0, 0); stroke-opacity: 1; stroke-linecap: round; stroke-linejoin: round; -webkit-user-select: text;"></path><path fill="none" stroke="#000000" d="M44,285L47,292L51,297L55,302L60,308L67,316L73,323L80,330L87,338L96,347L105,358L113,367L122,377L131,388L140,398L148,407L155,416L163,425L170,434L177,443L183,451L188,458L193,464L197,470L201,474L204,479L207,482L209,485L211,488L213,490L214,491L215,492L216,493L217,493L217,494L218,494L220,494L221,494L223,492L226,490L232,487L239,484L247,478L255,474L264,468L273,462L285,455L296,447L308,439L321,431L335,421L349,413L363,404L377,394L392,385L407,375L422,365L437,355L452,346L467,337L480,328L493,320L502,314L511,308L517,304L520,301L523,299L525,298L526,297L527,297L527,296L527,295L527,294L527,292" stroke-opacity="1" stroke-width="3" stroke-linecap="round" stroke-linejoin="round" style="-webkit-tap-highlight-color: rgba(0, 0, 0, 0); stroke-opacity: 1; stroke-linecap: round; stroke-linejoin: round; -webkit-user-select: text;"></path><path fill="none" stroke="#000000" d="M539,370L536,369L532,369L528,367L523,365L516,360L510,356L501,350L493,345L484,339L474,332L464,324L453,316L442,307L432,298L420,289L409,280L398,271L387,262L377,252L366,242L355,233L344,223L332,213L321,204L309,194L298,185L288,176L279,170L271,163L265,158L259,153L254,150L250,149L247,148L244,148L242,148L240,148L239,150L236,154L233,160L228,168L223,178L216,191L208,205L199,220L190,236L179,254L170,272L161,290L152,309L143,328L134,348L125,366L118,382L111,400L103,416L96,431L90,444L86,455L81,465L77,473L75,479L72,482L70,486L69,487L69,488L68,489L67,489L67,488L67,485" stroke-opacity="1" stroke-width="3" stroke-linecap="round" stroke-linejoin="round" style="-webkit-tap-highlight-color: rgba(0, 0, 0, 0); stroke-opacity: 1; stroke-linecap: round; stroke-linejoin: round; -webkit-user-select: text;"></path><path fill="none" stroke="#000000" d="M139,342L150,357L157,364L166,373L176,383L185,393L195,404L205,414L215,425L225,435L235,447L245,458L255,469L264,480L271,489L278,498L284,506L289,513L293,519L298,525L301,529L303,532L306,535L308,536L309,537L310,538L310,539L311,539L312,539L313,539L314,539L316,539L318,539L323,538L329,536L337,534L346,531L355,528L366,525L377,523L388,521L401,518L413,516L427,514L442,512L459,509L475,506L491,503L507,500L523,497L539,494L552,492L566,490L578,488L587,486L594,486L599,485L604,484L607,484L608,483L609,483L610,483L610,482L610,481L610,479L613,473" stroke-opacity="1" stroke-width="3" stroke-linecap="round" stroke-linejoin="round" style="-webkit-tap-highlight-color: rgba(0, 0, 0, 0); stroke-opacity: 1; stroke-linecap: round; stroke-linejoin: round; -webkit-user-select: text;"></path><path fill="none" stroke="#000000" d="M583,387L589,397L592,407L598,420L605,433L612,447L618,461L624,471L629,481L634,490L639,499L643,507L646,515L648,523L650,530L652,536L653,542L655,547L656,552L658,555L659,559L660,561L661,562L662,564L663,565L663,566L664,566L665,566L666,566L668,566L670,565L673,564L678,562L685,559L692,555L702,551L712,547L724,542L738,537L753,532L768,527L783,523L799,518L815,513L832,508L848,502L865,496L879,491L890,487L901,484L909,481L916,478L922,476L926,474L930,473L933,472L935,472L936,471L936,470L936,467" stroke-opacity="1" stroke-width="3" stroke-linecap="round" stroke-linejoin="round" style="-webkit-tap-highlight-color: rgba(0, 0, 0, 0); stroke-opacity: 1; stroke-linecap: round; stroke-linejoin: round; -webkit-user-select: text;"></path><path fill="none" stroke="#000000" d="M92,108L98,112L103,112L108,113L113,113L121,113L129,113L138,113L146,111L155,109L161,108L166,108L172,108L175,108L178,108L180,109L181,111L182,114L182,117L182,122L182,126L183,131L183,138L184,144L184,151L185,158L186,164L186,168L186,172L187,175L187,176L187,178L185,178L181,178L176,178L169,178L163,178L156,178L151,178L145,178L140,178L136,178L133,177L132,175L130,174L130,173L130,170L130,165L131,160L135,153L140,147L147,140L154,133L162,125L169,117L177,111L182,106L186,102L189,100L192,98L193,97L194,97L195,97L196,97L196,98L198,99L200,100L203,102L208,105L215,109L221,113L227,118L232,124L235,130L237,136L240,142L240,148L241,153L241,159L241,165L241,171L240,178L238,184L235,191L233,197L230,204L227,211L225,217L223,223L221,229L220,234L220,238L220,243L220,247L220,250L220,252L220,253L220,254L221,254" stroke-opacity="1" stroke-width="1" stroke-linecap="round" stroke-linejoin="round" style="-webkit-tap-highlight-color: rgba(0, 0, 0, 0); stroke-opacity: 1; stroke-linecap: round; stroke-linejoin: round; -webkit-user-select: text;"></path><path fill="none" stroke="#000000" d="M275,173L276,180L276,185L275,190L271,196L268,202L264,209L261,215L258,222L257,228L255,234L255,241L255,248L255,255L256,261L258,265L259,269L260,272L261,275L262,277L262,278L262,279L262,280L263,280L264,280L267,280L272,276L279,272L286,268L293,264L300,262L306,260L310,259L313,258L315,257L316,256L317,254L317,252L317,248L316,241L315,233L314,224L313,214L312,205L312,200L311,195L311,193L310,192L309,192L307,192L304,192L296,195L287,199L276,204L266,209L257,214L250,219L246,222L242,224L240,226L239,228L239,230L239,231L239,234L240,237L243,243L247,249L253,258L258,268L264,278L270,288L275,297L279,304L282,310L284,314L286,317L287,319L288,321L288,322L289,322L290,322L291,322L291,323L291,324L292,324L292,325L292,324L292,322" stroke-opacity="1" stroke-width="1" stroke-linecap="round" stroke-linejoin="round" style="-webkit-tap-highlight-color: rgba(0, 0, 0, 0); stroke-opacity: 1; stroke-linecap: round; stroke-linejoin: round; -webkit-user-select: text;"></path><path fill="none" stroke="#000000" d="M286,258L287,263L290,268L294,275L298,282L303,290L306,297L310,304L313,308L315,312L316,315L318,316L318,317L319,318L320,318L321,318L323,318L324,317L327,314L335,308L342,302L349,296L357,291L364,285L373,280L381,273L389,267L397,261L403,256L410,252L414,249L418,246L420,245L422,244L423,243L424,243L424,244L424,246L424,251L424,257L424,265L425,272L425,280L425,288L425,296L425,304L425,311L425,318L424,323L423,327L422,331L421,333L420,334L420,335L418,335L417,335L415,335L412,335L406,336L398,336L389,338L381,340L373,342L366,345L361,347L357,348L355,349L354,350L353,350L352,350L352,349L352,346L352,341L352,333L352,326L352,318L352,311L352,303L352,294L352,285L352,274L352,264L351,255L351,248L350,242L349,237L349,234L349,231L349,229L349,227L349,226L349,224L349,223L351,221L354,219L358,217L364,214L371,211L377,209L384,208L389,208L395,208L400,208L405,208L409,208L412,208L416,209L420,209L423,209L427,210L431,210L434,210L438,210L442,210L445,210L448,210L451,210L454,209L456,207L459,205L463,202L467,196L472,190L476,185L479,180L482,176L484,173L485,170L486,168L487,166L487,165L487,164" stroke-opacity="1" stroke-width="1" stroke-linecap="round" stroke-linejoin="round" style="-webkit-tap-highlight-color: rgba(0, 0, 0, 0); stroke-opacity: 1; stroke-linecap: round; stroke-linejoin: round; -webkit-user-select: text;"></path><path fill="none" stroke="#000000" d="M427,128L427,126L427,130L430,138L434,148L438,157L442,166L447,177L452,187L457,198L460,209L463,217L466,222L467,227L468,230L470,232L471,232L471,233L472,233L473,233L475,231L481,228L489,223L498,217L507,212L517,207L528,202L537,197L545,194L551,192L556,190L560,189L561,188L563,187L563,186L563,184L563,180L563,172L563,162L563,149L563,136L563,127L563,120L564,115L564,111L564,109L564,108L563,108L558,111L550,116L539,124L528,132L516,141L507,148L500,153L495,156L492,158L490,160L490,161L490,162L490,163L490,165L492,167L495,171L498,177L501,183L506,191L510,198L515,206L519,213L524,219L527,224L531,228L534,232L536,235L539,238L540,241L541,243L541,244L542,246L542,247L542,249L542,251L542,254L542,258L542,264L540,270L538,276L535,283L533,288L530,294L527,299L524,304L521,307L517,310L513,312L509,314L503,316L498,319L493,321L487,324L482,326L478,329L474,332L471,334L468,337L465,341L462,344L461,348L459,351L459,354L458,357L457,359L457,361L456,362" stroke-opacity="1" stroke-width="1" stroke-linecap="round" stroke-linejoin="round" style="-webkit-tap-highlight-color: rgba(0, 0, 0, 0); stroke-opacity: 1; stroke-linecap: round; stroke-linejoin: round; -webkit-user-select: text;"></path><path fill="none" stroke="#000000" d="M556,313L555,316L551,319L544,323L538,326L530,330L522,333L512,337L504,342L496,348L490,354L484,362L480,368L477,375L475,382L473,388L473,392L472,397L472,401L471,404L471,406L471,407L471,408L471,409L471,410L471,411L472,411L474,411L478,411L485,411L493,410L501,410L509,409L517,409L522,409L527,409L531,409L534,409L535,408L535,406L535,403L535,398L535,392L535,384L534,375L534,368L533,360L533,350L533,344L533,340L533,337L533,336L532,336L531,336L529,336L527,336L519,336L507,336L495,338L482,341L469,343L459,346L451,348L445,348L441,349L438,350L437,350L436,351L436,353L436,355L436,359L437,368L439,380L441,393L442,406L443,417L443,427L443,434L444,440L444,444L444,447L444,449L445,450L446,451L446,452L446,453L447,454L448,454L449,455L451,455L453,455L456,455L461,455L467,455L474,455L481,455L488,457L493,459L499,462L504,465L508,468L512,471L515,474L517,477L519,481L521,484L522,488L523,491L524,496L524,501L524,506L524,512L524,517L524,521L524,525L524,528L524,530L525,531" stroke-opacity="1" stroke-width="1" stroke-linecap="round" stroke-linejoin="round" style="-webkit-tap-highlight-color: rgba(0, 0, 0, 0); stroke-opacity: 1; stroke-linecap: round; stroke-linejoin: round; -webkit-user-select: text;"></path><path fill="none" stroke="#000000" d="M440,472L447,472L454,473L463,478L471,484L479,490L483,496L486,503L488,509L488,517L488,524L488,531L488,538L486,544L484,550L483,555L483,559L483,562L482,563L482,564L482,565L484,565L487,565L495,565L505,565L515,565L525,565L533,565L541,565L547,566L552,566L556,566L558,566L559,566L560,566L560,562L561,554L561,545L563,532L566,520L569,507L573,496L576,488L578,482L580,478L581,476L581,474L580,474L573,474L563,476L551,479L538,484L522,489L507,493L496,497L485,501L478,504L474,506L473,506L472,507L472,508L472,509L476,511L483,518L489,525L496,534L502,543L507,549L511,554L514,557L516,559L518,560L519,561L520,561L523,560L527,555L534,548L542,540L554,530L568,521L585,509L601,498L614,489L628,479L640,472L647,467L652,464L655,462L656,462L656,461L656,459L655,454" stroke-opacity="1" stroke-width="1" stroke-linecap="round" stroke-linejoin="round" style="-webkit-tap-highlight-color: rgba(0, 0, 0, 0); stroke-opacity: 1; stroke-linecap: round; stroke-linejoin: round; -webkit-user-select: text;"></path><path fill="none" stroke="#000000" d="M583,518L588,517L595,515L606,511L619,504L632,498L646,491L657,486L665,482L671,479L675,477L678,476L679,475L679,474L679,473L679,470L677,464L674,452L671,440L668,428L666,418L665,409L664,404L663,400L662,397L662,396L661,396L660,396L658,396L652,396L642,400L629,404L616,408L603,411L592,414L584,416L578,418L575,419L573,420L573,421L573,422L573,425L576,430L580,438L585,448L591,461L596,472L601,484L605,494L609,501L612,506L614,510L617,512L618,513L619,514L620,514L621,514L622,514L623,514L624,513L626,510L630,502L633,495L637,484L641,474L643,467L645,460L646,453L648,447L649,440L651,432L654,425L657,418L660,413L663,409L666,406L669,403L673,401L677,399L680,397L684,395L688,394L692,392L694,389L697,386L700,382L703,377L705,371L707,365L709,358L710,352L710,347L711,343L711,340L711,337L711,336L711,335L711,334" stroke-opacity="1" stroke-width="1" stroke-linecap="round" stroke-linejoin="round" style="-webkit-tap-highlight-color: rgba(0, 0, 0, 0); stroke-opacity: 1; stroke-linecap: round; stroke-linejoin: round; -webkit-user-select: text;"></path><path fill="none" stroke="#000000" d="M689,285L690,287L690,292L690,297L690,302L690,307L690,312L690,317L688,322L683,328L676,335L668,340L660,345L651,350L645,353L637,356L631,359L624,361L618,363L612,365L606,368L600,372L596,376L592,380L590,386L588,390L587,394L587,398L586,401L586,402L586,403L586,404L589,404L594,406L603,409L614,415L626,422L635,429L644,437L652,443L657,449L661,452L664,455L665,457L667,457L668,457L669,457L672,452L680,443L688,436L699,426L709,419L720,410L728,404L734,399L739,396L742,394L744,392L745,391L745,390L744,389L742,387L736,383L728,377L719,372L709,367L701,363L692,360L682,359L673,359L661,359L652,359L643,360L635,362L629,363L624,364L619,365L617,365L615,365L614,365L614,362L614,358L614,351L613,344L613,335L612,329L611,323L609,319L608,315L607,313L606,311L605,309L604,307L604,305L603,304L603,302L603,301L604,299L607,297L612,294L623,287L634,280L643,274L651,268L659,262L664,258L669,254L672,252L675,250L677,248L678,247L678,246" stroke-opacity="1" stroke-width="1" stroke-linecap="round" stroke-linejoin="round" style="-webkit-tap-highlight-color: rgba(0, 0, 0, 0); stroke-opacity: 1; stroke-linecap: round; stroke-linejoin: round; -webkit-user-select: text;"></path><path fill="none" stroke="#000000" d="M636,214L638,214L640,214L643,216L646,218L651,222L658,229L665,235L672,243L678,251L685,258L690,264L694,268L697,272L699,275L702,277L703,279L704,281L705,282L705,284L705,285L705,286L705,287L703,289L699,292L694,297L689,302L683,307L677,312L673,316L670,318L668,320L666,321L665,322L664,322L663,322L662,320L660,318L657,314L653,309L648,304L643,300L638,295L633,292L629,289L624,285L621,282L618,280L616,277L614,274L614,272L614,269L614,266L614,263L619,258L627,252L634,248L641,245L650,242L659,240L668,238L677,236L683,235L690,234L695,233L700,232L704,231L708,230L711,229L713,227L715,226L717,224L719,221L719,218L720,215L721,212L721,209L721,206L721,203L721,200L721,197L721,194L719,191L718,189L716,186L714,184L713,180L711,177L710,173L709,169L709,165L708,161L708,158L708,155L708,152L708,149L708,146L709,143L711,141L712,139L713,137L714,137L714,136L715,136L716,136" stroke-opacity="1" stroke-width="1" stroke-linecap="round" stroke-linejoin="round" style="-webkit-tap-highlight-color: rgba(0, 0, 0, 0); stroke-opacity: 1; stroke-linecap: round; stroke-linejoin: round; -webkit-user-select: text;"></path><path fill="none" stroke="#000000" d="M753,112L749,115L745,120L742,127L739,132L737,139L736,144L736,149L736,155L736,162L738,169L742,177L745,185L750,194L755,202L758,209L761,216L763,221L765,226L766,230L766,233L766,236L766,238L766,239L766,240L765,240L764,240L760,240L753,243L743,246L734,251L724,256L717,260L711,265L705,270L701,273L699,275L697,276L696,277L695,277L694,277L694,276L692,272L691,267L689,261L686,255L684,251L682,247L680,243L677,240L676,238L675,236L674,234L674,232L674,230L674,228L680,225L690,220L701,214L711,210L719,207L726,204L731,203L734,203L737,203L738,203L738,205L739,208L739,212L740,217L741,223L742,231L743,240L745,250L746,260L747,270L748,279L748,286L749,294L750,298L750,302L750,305L751,307L751,308L751,309L750,310L747,310L743,311L736,314L729,317L723,321L718,325L714,329L711,333L709,338L707,343L706,349L705,353L705,359L704,363L704,368L704,372L704,377L704,381L706,385L708,388L711,392L714,395L717,398L720,400L724,403L726,404L729,406L731,408L732,409L733,409L733,405" stroke-opacity="1" stroke-width="1" stroke-linecap="round" stroke-linejoin="round" style="-webkit-tap-highlight-color: rgba(0, 0, 0, 0); stroke-opacity: 1; stroke-linecap: round; stroke-linejoin: round; -webkit-user-select: text;"></path><path fill="none" stroke="#000000" d="M763,315L758,322L754,328L750,334L746,341L743,349L742,355L742,360L742,365L742,371L745,375L748,378L753,382L760,386L768,391L775,395L782,400L787,405L793,411L797,416L800,421L803,426L804,430L806,435L806,439L806,443L806,445L806,447L806,448L806,449L806,450L805,450L804,450L801,450L798,450L789,452L779,456L770,461L760,466L751,472L744,476L739,479L735,482L732,484L731,484L730,485L729,482L726,475L723,468L719,458L714,449L708,440L703,434L700,429L698,425L696,422L694,421L694,420L694,419L694,418L698,417L707,413L719,409L732,405L745,401L759,398L771,396L783,394L792,393L799,392L804,392L809,392L811,391L813,391L813,389L813,388L814,384L817,377L820,368L822,360L823,353L824,346L824,342L824,337L823,334L821,331L818,327L814,321L811,315L808,307L807,297L806,289L806,280L806,272L808,266L809,263L810,259L811,257L811,255L811,254L811,253L812,252" stroke-opacity="1" stroke-width="1" stroke-linecap="round" stroke-linejoin="round" style="-webkit-tap-highlight-color: rgba(0, 0, 0, 0); stroke-opacity: 1; stroke-linecap: round; stroke-linejoin: round; -webkit-user-select: text;"></path><path fill="none" stroke="#000000" d="M829,209L833,212L838,219L843,228L847,236L851,246L854,253L857,261L860,270L862,277L863,282L864,286L865,290L865,292L865,293L863,293L855,293L845,293L831,293L817,295L801,299L789,302L776,306L766,309L759,311L755,312L753,312L751,313L751,309L751,300L751,293L751,286L751,279L751,272L751,268L750,263L750,259L749,255L749,251L749,248L749,246L750,244L753,242L760,240L772,238L785,236L795,235L805,234L812,234L817,233L822,233L823,233L824,233L824,235L824,238L823,242L822,248L821,254L820,263L819,272L818,282L817,292L816,302L815,309L815,317L815,324L815,328L815,333L815,336L815,338L815,339L815,340L814,338L812,336" stroke-opacity="1" stroke-width="1" stroke-linecap="round" stroke-linejoin="round" style="-webkit-tap-highlight-color: rgba(0, 0, 0, 0); stroke-opacity: 1; stroke-linecap: round; stroke-linejoin: round; -webkit-user-select: text;"></path><path fill="none" stroke="#000000" d="M544,159L547,157L553,156L562,154L573,151L588,145L603,140L617,134L631,129L645,123L655,119L663,117L669,115L673,115L675,115L676,115L676,117L676,121L676,126L676,134L676,144L677,152L679,161L680,167L681,172L682,175L683,178L684,179L684,180L683,180L677,181L668,185L657,190L644,197L633,204L624,211L615,218L609,223L605,226L603,229L601,230L601,231L600,231L600,225L600,215L601,206L602,195L602,184L602,174L602,165L602,157L601,150L600,144L598,139L597,135L596,132L595,130L595,128L595,126L595,124L596,123L601,120L611,116L621,111L633,107L643,102L653,98L660,94L667,91L672,88L676,87L679,86L681,86L682,86L682,87L682,91L683,98L685,105L688,114L691,122L695,131L698,139L701,149L703,158L704,167L704,176L704,184L702,190L699,194L695,198L690,200L686,202L681,202L675,202L669,202L663,202L657,199L651,195L645,190L640,184L636,179L632,173L629,167L626,162L624,154L622,147L621,140L620,135L619,129L619,124L618,120L617,115L616,111L614,107L613,102L611,98L608,93L605,88L602,83L597,78L592,73L587,70L580,66L573,63L564,61L554,61L537,61L515,67L490,81L466,105L444,139" stroke-opacity="1" stroke-width="1" stroke-linecap="round" stroke-linejoin="round" style="-webkit-tap-highlight-color: rgba(0, 0, 0, 0); stroke-opacity: 1; stroke-linecap: round; stroke-linejoin: round; -webkit-user-select: text;"></path></svg>