<svg height="650" version="1.1" width="1024" xmlns="http://www.w3.org/2000/svg" xmlns:xlink="http://www.w3.org/1999/xlink" style="overflow: hidden; position: relative; -webkit-user-select: text;"><desc style="-webkit-tap-highlight-color: rgba(0, 0, 0, 0); -webkit-user-select: text;">Created with Raphaël 2.2.0</desc><defs style="-webkit-tap-highlight-color: rgba(0, 0, 0, 0); -webkit-user-select: text;"></defs><path fill="none" stroke="#000000" d="M162,253L168,252L169,251L171,249L173,247L175,245L177,243L179,241L182,239L186,237L189,235L192,233L195,231L198,228L201,226L204,224L207,221L211,219L214,216L217,214L220,211L224,208L228,205L231,202L235,200L238,197L241,195L245,192L247,190L250,188L253,186L256,184L258,183L260,181L262,180L263,179L264,178L265,177L265,178L265,179L265,180L265,183L265,185L265,188L265,191L265,195L265,198L265,202L265,207L266,212L266,217L266,222L266,227L267,232L267,237L267,242L268,247L268,253L269,258L269,264L270,270L270,276L271,282L271,288L271,294L272,299L272,304L273,309L273,313L274,316L274,318L274,320L274,321L274,323L274,324L274,325L275,325L276,325L277,325L279,324L280,323L283,321L286,320L289,318L292,316L296,315L300,313L305,311L310,309L314,307L319,304L324,302L329,300L335,297L340,295L345,293L349,291L354,289L358,287L361,285L364,284L366,282L367,282L368,281L369,280L369,279L369,278L369,277L369,276L369,275L368,274L367,272L366,271L365,269L364,267L361,265L360,263L357,260L355,256L353,253L351,248L348,244L345,240L343,237L341,234L339,229L337,226L335,222L333,219L332,217L331,215L330,213L329,212L328,211L327,211L327,210L326,210L325,210L324,210L323,210L321,211L319,212L315,215L311,218L306,222L300,227L293,233L285,239L278,246L270,253L262,260L254,267L247,273L240,279L235,285L229,290L223,294L220,297L216,299L213,302L212,303L210,304L209,304L208,304L208,302L208,300L207,297L207,294L206,291L205,287L204,281L203,275L201,268L201,262L199,253L199,246L198,239L197,232L196,223L196,216L195,209L194,202L194,195L194,190L193,185L193,182L193,179L193,178L193,177L194,177L195,177L196,177L198,176L201,175L204,175L208,174L213,174L219,174L224,174L230,174L235,174L240,175L245,177L250,179L254,182L259,185L263,188L267,192L270,196L274,200L277,205L280,209L283,214L285,219L287,225L289,230L290,234L291,239L292,244L293,248L294,253L294,257L295,262L295,266L295,270L295,274L295,278L295,282L295,285L295,289L295,293L295,296L295,300L295,303L295,307L295,311L294,314L294,317L293,321L293,324L293,327L293,330L292,333L292,336L292,338L292,341L292,344L292,346L292,349L292,351L292,354L292,357L293,360L294,362L295,364L296,367L297,369L299,371L300,372L302,375L303,376L305,378L306,379L308,381L309,382L310,383L310,384L311,384L311,385" stroke-opacity="1" stroke-width="1" stroke-linecap="round" stroke-linejoin="round" style="-webkit-tap-highlight-color: rgba(0, 0, 0, 0); stroke-opacity: 1; stroke-linecap: round; stroke-linejoin: round; -webkit-user-select: text;"></path><path fill="none" stroke="#000000" d="M350,287L348,294L348,297L347,300L346,304L345,307L344,311L344,315L344,320L344,325L344,329L344,334L344,338L344,343L347,348L349,352L351,357L354,361L357,365L359,369L362,374L365,378L368,382L371,387L374,390L376,394L378,398L381,401L382,405L384,408L385,411L386,414L387,416L387,418L388,421L388,422L388,423L388,424L388,425L388,426L389,426L390,426L391,424L391,423L392,421L394,417L396,412L399,405L403,398L407,391L412,382L417,374L422,367L427,358L432,351L437,345L442,339L447,333L452,327L456,322L459,318L462,315L464,312L466,310L467,309L468,308L468,307L468,306L468,305L468,304L468,303L468,302L468,301L468,300L467,299L466,299L464,297L463,296L461,294L459,292L456,290L454,287L452,285L449,282L447,280L444,276L442,273L439,270L436,267L433,265L431,262L428,260L426,258L423,255L421,253L419,251L417,249L416,248L415,246L414,246L413,245L413,244L412,243L412,242L412,241L414,240L415,239L418,238L422,235L427,232L434,227L442,222L450,217L459,212L467,208L475,204L481,200L488,196L492,194L495,193L498,192L499,192L500,192L500,193L500,194L500,195L500,196L500,197L500,199L500,200L500,202L500,204L500,207L500,210L501,214L501,218L502,224L502,231L502,238L502,247L502,256L502,265L502,273L502,282L502,289L500,297L499,304L498,311L498,316L497,321L496,326L495,331L495,336L495,339L494,343L494,347L493,350L493,353L493,356L492,359L492,360L491,362L491,363L491,364L490,364L490,365L489,365L488,365L486,365L483,364L481,362L478,361L474,359L470,356L466,353L461,350L455,347L449,343L443,341L438,338L432,334L426,330L420,326L415,323L410,320L405,318L401,316L397,314L393,312L390,311L387,309L386,309L384,308L383,308L383,307L383,306L383,305L383,304L385,304L387,302L391,301L395,298L402,295L409,291L419,287L429,282L441,277L454,270L465,266L479,260L491,255L502,250L512,245L520,241L528,238L533,237L537,236L540,235L542,235L543,235L544,235" stroke-opacity="1" stroke-width="1" stroke-linecap="round" stroke-linejoin="round" style="-webkit-tap-highlight-color: rgba(0, 0, 0, 0); stroke-opacity: 1; stroke-linecap: round; stroke-linejoin: round; -webkit-user-select: text;"></path><path fill="none" stroke="#000000" d="M442,218L448,214L451,214L456,214L461,212L467,210L472,208L478,206L485,204L493,202L500,199L508,196L516,193L522,191L528,189L532,188L536,187L539,187L541,186L542,186L543,186L543,185L543,184L543,183L543,182L543,181L543,179L541,177L541,174L539,170L537,165L536,160L534,155L531,148L529,142L527,136L525,130L523,124L522,118L520,114L519,109L518,105L517,102L516,100L515,98L514,98L513,98L512,98L511,98L510,98L508,100L505,102L500,105L495,108L489,112L483,116L476,120L470,124L465,127L460,130L456,131L454,133L451,134L450,134L450,135L450,136L450,138L451,139L453,140L455,142L458,144L462,147L466,151L471,153L476,157L482,161L488,165L493,169L500,174L506,178L513,183L519,188L526,193L532,197L539,202L544,207L549,210L553,214L556,216L559,219L561,220L563,221L564,222L565,223L565,224L566,224L565,224L563,224L561,224L560,224L558,224L555,224L553,224L550,224L546,224L542,226L537,227L532,230L527,232L520,235L513,238L507,241L500,244L493,247L486,251L480,253L475,255L471,258L467,259L464,260L462,260L461,260L460,260L459,260L459,258L459,257L458,255L458,252L456,249L455,245L454,241L451,236L449,231L447,226L445,220L443,215L440,210L438,205L436,200L435,196L434,192L432,189L432,186L432,184L431,182L431,180L431,178L431,176L431,174L432,172L434,169L436,167L439,165L441,162L444,160L447,158L451,155L454,153L458,151L463,148L467,146L472,144L477,142L483,140L488,139L495,138L501,137L506,137L512,137L517,137L522,137L527,137L531,138L535,139L539,141L542,144L546,146L549,149L553,153L556,156L559,159L562,163L564,166L566,171L568,175L570,179L572,183L573,187L574,192L575,196L575,201L576,206L576,210L577,214L577,218L577,222L577,226L577,231L577,234L577,238L577,241L577,245L576,249L576,253L575,256L574,260L573,263L572,266L571,270L570,273L569,276L568,280L568,283L567,286L566,290L566,292L565,295L565,298L564,301L564,304L564,307L564,309L564,311L564,313L564,315L565,316L566,318L566,319L567,320L567,321L568,322L568,323L568,324L568,325L569,325L570,325" stroke-opacity="1" stroke-width="1" stroke-linecap="round" stroke-linejoin="round" style="-webkit-tap-highlight-color: rgba(0, 0, 0, 0); stroke-opacity: 1; stroke-linecap: round; stroke-linejoin: round; -webkit-user-select: text;"></path><path fill="none" stroke="#000000" d="M595,173L597,171L599,171L601,173L604,175L606,178L609,181L612,185L614,189L615,193L617,197L618,202L619,207L619,213L619,220L619,227L619,233L619,239L617,246L615,252L612,258L610,263L608,268L606,273L604,278L603,282L601,286L600,290L599,294L597,299L597,303L596,307L596,310L595,314L595,317L595,320L595,323L595,326L595,328L595,331L595,334L595,336L595,338L595,341L595,342L595,343L595,345L595,346L595,347L595,348L595,349L595,348L594,346L592,345L591,343L589,342L587,340L585,338L583,337L580,335L576,332L573,330L569,327L566,324L562,321L558,319L554,316L550,313L546,311L543,308L539,305L536,302L533,300L530,298L528,296L526,294L524,293L523,292L522,291L521,290L520,289L520,288L520,287L522,287L523,286L525,285L528,284L532,283L536,281L541,279L548,276L555,273L563,270L571,268L580,265L589,263L599,259L607,257L615,253L624,250L632,247L639,245L645,243L649,242L653,241L656,241L658,240L659,240L659,239L659,238L659,237L659,236L659,235L659,234L659,233L658,231L658,230L657,227L656,225L655,222L654,219L653,215L651,212L650,208L649,204L648,198L647,194L646,189L645,185L644,181L643,177L642,174L641,170L641,168L640,166L639,166L638,165L637,165L636,165L635,165L634,166L632,168L630,169L627,171L623,174L619,177L613,181L606,185L600,189L592,194L584,199L576,204L570,208L563,212L558,215L552,218L549,220L545,221L542,223L541,224L540,224L540,225L539,225L539,226L539,227L540,228L541,229L542,230L544,231L546,232L548,233L551,235L553,237L557,240L561,243L566,246L571,251L576,256L582,260L588,265L594,270L600,275L605,280L611,285L616,288L620,292L624,296L629,299L632,302L635,305L638,307L640,309L642,311L644,313L646,314L647,315L648,316L649,317L650,317L651,318L651,319L652,320" stroke-opacity="1" stroke-width="1" stroke-linecap="round" stroke-linejoin="round" style="-webkit-tap-highlight-color: rgba(0, 0, 0, 0); stroke-opacity: 1; stroke-linecap: round; stroke-linejoin: round; -webkit-user-select: text;"></path><path fill="none" stroke="#000000" d="M631,353L627,359L624,361L621,365L618,368L613,373L609,378L605,384L601,389L597,393L593,398L590,401L586,405L582,409L578,412L575,416L571,419L568,422L565,425L563,427L561,429L560,431L558,431L558,432L557,433L556,433L555,433L555,432L553,430L552,428L551,425L549,422L546,418L543,413L539,407L536,401L533,396L530,391L527,384L524,379L521,374L519,371L517,367L515,365L515,363L514,362L513,362L515,362L517,362L519,361L524,360L530,358L538,355L548,351L557,348L565,345L573,341L579,340L584,338L587,338L590,338L591,338L592,338L592,339L592,340L592,341L592,342L592,344L592,346L592,349L592,352L592,356L592,361L592,367L592,375L593,383L594,389L594,397L595,404L596,411L596,416L597,422L597,427L598,433L598,437L598,440L598,443L598,446L598,448L598,450L598,451L598,452L598,453L598,454L598,455L597,455L595,455L594,455L592,455L590,455L588,455L585,455L583,455L579,455L575,455L571,455L567,455L563,455L558,455L553,455L548,455L543,455L537,455L532,455L525,456L519,457L514,457L508,459L503,460L499,461L495,462L492,462L489,462L488,463L486,463L485,463L484,463L483,463L483,462L483,461L482,459L482,457L482,455L482,453L482,450L482,447L482,444L484,439L488,432L492,426L497,420L501,415L507,409L514,403L521,398L527,394L534,391L541,389L548,387L555,387L561,387L567,387L573,387L580,388L585,390L590,393L595,396L600,401L605,406L609,411L612,415L615,419L618,424L619,429L621,435L622,439L623,443L623,447L623,451L623,456L623,460L624,464L624,467L624,471L624,474L624,477L624,482L624,486L624,491L625,495L626,501L627,507L629,513L630,517L631,522L634,526L636,530L637,533L639,536L641,538L643,540L645,541L646,542L647,542L648,542L648,543" stroke-opacity="1" stroke-width="1" stroke-linecap="round" stroke-linejoin="round" style="-webkit-tap-highlight-color: rgba(0, 0, 0, 0); stroke-opacity: 1; stroke-linecap: round; stroke-linejoin: round; -webkit-user-select: text;"></path><path fill="none" stroke="#000000" d="M641,387L644,387L647,387L651,387L656,388L660,390L665,393L669,396L672,401L675,405L677,410L678,414L679,419L680,426L680,433L680,439L680,447L680,455L680,462L681,467L682,472L683,478L684,484L685,488L687,493L688,496L690,500L691,503L692,505L693,507L694,508L694,510L694,511L694,512L695,512L695,513L696,512L697,511L697,509L699,506L703,503L708,499L715,493L723,486L731,480L739,474L747,469L756,464L764,457L770,453L777,449L782,445L785,443L788,441L789,440L790,440L791,440L791,439L790,438L789,438L788,438L786,438L784,437L782,437L778,437L775,437L771,437L766,437L759,437L751,438L743,440L733,443L723,446L713,450L703,454L694,458L686,462L678,465L672,467L667,469L663,470L659,471L656,472L654,472L653,473L652,473L651,473L650,473L649,472L648,469L647,467L645,464L643,460L641,455L638,450L635,444L632,438L629,433L626,428L624,424L622,421L621,419L620,418L620,417L619,416L619,415L620,414L622,413L624,413L628,411L634,407L640,403L649,397L659,392L670,387L683,379L693,374L704,368L714,363L723,359L730,356L735,353L739,352L741,351L743,350L743,351L743,352L743,354L743,356L743,359L744,363L746,370L748,381L751,391L754,402L758,413L760,424L763,435L765,444L767,452L769,458L770,463L770,467L770,469L770,470L770,471L770,472L770,473L769,473L768,473L767,473L765,473L762,473L760,473L758,473L755,473L753,474L750,474L747,474L744,474L741,474L738,475L734,475L731,476L727,477L724,477L721,478L718,479L715,481L713,482L710,484L708,486L705,488L703,490L701,492L699,494L697,496L695,499L693,502L691,505L689,508L687,511L685,514L682,517L680,520L678,523L677,525L675,528L673,530L671,533L670,535L668,538L667,541L665,544L663,546L661,548L659,550L656,552L654,554L651,557L648,559L646,561L643,563L640,565L637,567L634,568L631,569L628,570L625,571L623,571L621,571L619,572L617,572L616,573L615,573L614,573" stroke-opacity="1" stroke-width="1" stroke-linecap="round" stroke-linejoin="round" style="-webkit-tap-highlight-color: rgba(0, 0, 0, 0); stroke-opacity: 1; stroke-linecap: round; stroke-linejoin: round; -webkit-user-select: text;"></path><path fill="none" stroke="#000000" d="M548,549L546,550L544,550L541,550L539,551L536,552L532,553L529,554L525,554L521,555L517,556L514,556L510,556L507,556L503,555L499,554L493,552L489,550L484,548L478,546L473,544L467,542L461,540L455,537L449,535L442,534L436,533L429,531L422,530L416,530L411,530L405,530L398,530L393,530L388,530L383,530L379,532L376,534L372,536L370,538L368,539L367,540L366,541L365,541L365,542L364,542L364,541L364,540L364,539L365,536L367,533L371,526L374,519L378,508L381,500L384,491L388,479L391,471L395,461L397,453L399,447L400,443L401,439L402,436L403,434L403,433L404,433L405,433L406,433L408,434L409,434L412,435L415,435L418,437L423,438L428,439L433,440L438,441L443,442L447,443L451,444L455,445L457,447L459,449L461,450L461,452L462,455L463,458L463,461L463,464L463,468L463,473L463,479L463,487L463,494L463,503L463,513L463,522L463,531L463,541L463,548L463,555L463,561L463,566L463,569L463,572L462,573L462,574L461,575L460,575L459,575L458,575L456,574L454,572L452,571L449,568L443,563L436,557L428,550L420,543L412,536L404,530L396,523L389,517L382,510L376,505L371,499L366,496L361,492L359,490L357,489L355,488L356,488L358,488L361,488L368,486L376,484L388,482L400,480L413,478L427,477L442,475L456,474L470,474L481,474L491,474L499,474L505,474L509,474L511,474L512,474L513,474L513,475L512,475L512,477L511,477L510,479L509,480L508,482L507,483L505,485L502,487L500,489L497,491L493,494L489,497L485,500L482,503L478,507L473,512L468,516L464,520L459,524L454,529L449,533L444,538L441,541L437,545L433,549L430,552L427,555L425,558L422,561L420,564L418,566L417,568L415,570L413,572L412,574L410,575L408,576L407,578L405,579L404,580L402,581L401,583L399,584L398,585L397,586L396,586L395,587L394,588L393,589L393,590L392,590L392,591L391,591" stroke-opacity="1" stroke-width="1" stroke-linecap="round" stroke-linejoin="round" style="-webkit-tap-highlight-color: rgba(0, 0, 0, 0); stroke-opacity: 1; stroke-linecap: round; stroke-linejoin: round; -webkit-user-select: text;"></path><path fill="none" stroke="#000000" d="M406,528L399,533L397,535L393,539L389,542L383,548L376,556L369,564L362,573L357,579L352,585L348,589L345,592L343,594L342,595L341,596L340,596L340,597L339,597L338,597L337,597L336,597L335,597L334,596L333,595L332,593L330,590L327,587L323,583L319,579L313,574L308,569L303,563L298,557L293,553L288,549L284,545L280,541L276,537L272,533L269,530L267,528L264,526L262,524L261,523L260,522L259,521L259,520L259,519L259,517L260,515L263,509L268,501L274,492L281,481L289,471L298,460L304,450L312,441L318,433L324,426L328,421L332,417L334,414L336,412L337,411L338,411L339,411L340,412L340,413L342,416L343,418L346,421L349,426L353,431L357,437L360,441L362,445L365,449L367,452L369,456L370,459L371,462L371,464L371,465L371,467L371,468L371,469L370,469L368,470L366,471L363,472L361,473L358,475L355,477L352,481L348,484L344,489L340,494L336,500L332,505L328,510L326,513L323,516L321,518L320,519L318,520L317,520L316,520L315,519L313,518L312,516L310,514L308,512L305,508L302,504L297,500L292,494L287,489L283,484L280,479L276,475L273,470L269,466L266,461L263,456L260,452L258,448L256,445L255,442L254,438L254,435L254,431L254,426L257,422L261,418L264,414L268,410L274,405L279,400L286,396L292,392L297,390L303,387L308,387L313,386L318,386L322,386L327,386L330,386L334,386L337,387L340,389L343,392L346,394L349,396L352,399L354,401L357,404L360,407L363,409L366,411L370,413L374,415L377,416L380,418L383,418L387,419L391,419L394,420L398,420L401,420L405,420L408,420L413,420L419,417L425,413L433,407L439,401L446,393L451,386L456,379L458,374L460,370L462,368L463,367" stroke-opacity="1" stroke-width="1" stroke-linecap="round" stroke-linejoin="round" style="-webkit-tap-highlight-color: rgba(0, 0, 0, 0); stroke-opacity: 1; stroke-linecap: round; stroke-linejoin: round; -webkit-user-select: text;"></path><path fill="none" stroke="#000000" d="M361,357L365,356L369,356L372,356L376,356L380,356L384,356L389,356L393,357L398,358L403,359L407,359L412,360L418,360L424,361L430,361L437,361L443,360L449,358L456,355L461,351L466,347L471,343L474,339L477,335L480,331L482,326L484,321L487,316L489,311L492,306L495,300L500,295L504,291L510,286L514,283L519,280L523,277L527,276L529,274L530,274L531,273L532,273L532,274L532,275L532,276L532,278L531,281L531,284L530,288L530,293L529,299L529,307L529,314L529,324L528,333L528,343L527,352L527,359L527,364L526,370L526,373L525,376L525,378L524,379L524,380L523,380L522,380L520,380L517,380L514,379L509,377L504,375L498,373L491,370L484,367L476,365L468,361L461,358L454,354L447,350L440,347L434,345L429,342L425,341L422,339L419,338L417,337L417,336L417,335L417,333L419,332L422,330L426,325L431,320L439,313L447,306L458,297L466,291L476,285L485,277L494,270L502,264L507,260L512,257L517,254L521,252L524,250L526,250L527,250L528,250L529,250L530,250L532,252L533,253L536,255L539,257L544,260L550,263L557,265L564,269L573,273L581,277L588,281L595,285L602,288L609,292L613,294L618,297L621,299L624,301L626,302L627,304L628,304L629,304L630,304L631,304L631,303L632,301L633,298L635,295L637,292L640,287L643,281L647,273L651,267L655,260L658,253L662,246L665,241L668,235L670,230L672,226L673,222L674,220L675,218L675,217L675,216L675,215L674,215L673,215L672,215L670,214L669,214L668,213L666,213L665,212L663,212L661,211L660,211L658,211L656,211L653,211L651,211L647,211L644,211L641,211L638,212L634,213L630,216L626,218L622,221L618,225L614,229L611,233L607,237L604,241L602,246L599,251L597,257L596,261L595,266L594,271L594,276L594,281L594,285L594,289L595,293L596,298L597,304L599,308L600,313L601,317L602,322L604,328L604,332L605,336L606,341L606,345L607,349L607,354L607,358L607,362L607,367L607,370L607,375L606,379L605,382L604,385L602,388L602,389L601,391L601,392L600,392L600,389" stroke-opacity="1" stroke-width="1" stroke-linecap="round" stroke-linejoin="round" style="-webkit-tap-highlight-color: rgba(0, 0, 0, 0); stroke-opacity: 1; stroke-linecap: round; stroke-linejoin: round; -webkit-user-select: text;"></path><path fill="none" stroke="#000000" d="M662,257L653,259L647,262L641,266L635,271L628,276L623,282L618,288L615,293L614,299L613,304L612,309L612,314L612,321L613,327L614,333L616,340L617,348L619,355L621,363L623,370L624,378L626,385L627,390L628,396L629,402L629,409L629,413L629,418L629,423L628,427L627,431L626,434L624,436L624,438L623,439L622,440L621,441L620,441L619,440L618,439L617,438L614,436L611,434L607,431L602,429L596,426L591,423L584,421L578,419L572,417L567,416L562,414L558,413L554,411L551,410L550,409L549,408L549,407L549,406L549,405L549,404L550,403L553,401L558,396L566,391L576,384L588,376L600,369L612,362L624,353L636,346L645,341L654,336L661,332L667,328L671,326L673,324L675,324L676,324L676,325L676,326L677,328L677,330L678,332L679,335L680,338L682,342L683,348L685,354L686,360L687,364L687,370L688,374L689,378L690,382L690,384L690,387L691,389L691,390L691,391L691,392L691,393L691,394L690,395L687,395L685,396L681,396L677,396L672,398L667,400L661,402L656,404L651,407L648,409L644,411L641,412L638,413L636,414L634,415L632,415L630,415L629,415L628,415L626,414L625,412L622,409L620,406L617,403L613,399L609,396L604,392L600,389L596,384L592,379L589,374L587,368L584,363L582,357L581,351L581,346L581,340L581,333L581,326L584,319L588,313L592,307L597,300L602,294L607,289L611,285L616,280L620,275L624,272L631,268L637,265L642,264L650,262L656,260L663,259L670,258L677,258L684,257L690,256L697,255L706,254L713,253L720,251L726,248L732,246L737,243L742,240L745,238L747,236L749,235L750,234" stroke-opacity="1" stroke-width="1" stroke-linecap="round" stroke-linejoin="round" style="-webkit-tap-highlight-color: rgba(0, 0, 0, 0); stroke-opacity: 1; stroke-linecap: round; stroke-linejoin: round; -webkit-user-select: text;"></path><path fill="none" stroke="#000000" d="M621,304L622,298L624,296L629,292L635,288L643,283L651,278L659,275L668,272L677,270L686,269L692,268L699,268L706,268L712,268L718,268L724,269L730,270L736,270L741,270L747,271L753,271L759,271L764,270L768,269L772,267L775,264L778,261L781,259L783,255L785,252L787,249L788,247L789,246L789,245L788,245L787,243L786,242L785,240L784,237L783,234L782,230L782,224L781,218L779,212L779,206L778,199L778,194L777,190L777,186L776,184L775,183L775,182L774,182L772,182L771,182L770,182L768,182L766,182L764,182L761,182L757,183L752,184L745,187L736,190L726,195L717,199L707,202L700,204L694,207L689,208L685,209L682,209L681,210L681,211L681,212L681,214L683,216L684,219L687,223L689,228L692,235L696,242L701,252L704,259L709,268L713,276L716,283L719,288L722,293L725,298L726,301L728,304L729,306L730,307L731,307L731,306L731,304L731,301L731,297L731,290L731,281L732,272L733,263L736,251L738,241L741,230L744,218L747,207L750,196L753,187L755,178L758,170L760,164L760,159L761,154L762,151L762,149L762,148L761,148L760,148L758,148L757,148L755,147L753,147L751,146L748,146L745,145L742,145L738,145L732,145L726,145L719,145L711,146L705,148L698,149L691,150L685,151L678,151L673,152L668,152L664,152L660,152L656,151L653,149L650,148L647,146L644,144L641,141L639,139L637,137L635,135L632,133L630,131L627,129L625,127L623,126L621,124L618,122L616,121L614,119L612,118L611,117L610,117L609,117L609,116" stroke-opacity="1" stroke-width="1" stroke-linecap="round" stroke-linejoin="round" style="-webkit-tap-highlight-color: rgba(0, 0, 0, 0); stroke-opacity: 1; stroke-linecap: round; stroke-linejoin: round; -webkit-user-select: text;"></path><path fill="none" stroke="#000000" d="M726,105L720,107L718,107L715,109L711,111L707,113L702,116L697,117L691,119L685,120L678,121L671,121L665,121L659,120L653,118L647,115L642,112L636,110L630,106L624,103L618,100L612,96L606,93L599,89L592,87L583,85L574,84L565,84L556,84L550,84L545,84L541,84L539,85L537,85L537,86L537,87L537,88L537,89L538,91L539,93L540,98L542,105L544,115L546,126L549,136L551,145L553,154L554,161L556,167L557,170L558,174L559,176L559,178L560,178L561,178L562,177L564,175L568,170L574,163L584,153L595,142L605,131L617,118L631,106L646,90L658,79L670,68L679,61L685,56L690,54L692,52L694,51L695,52L697,52L699,53L703,53L709,54L715,55L722,56L729,57L736,59L740,60L745,62L748,64L750,66L751,68L751,72L751,75L751,78L751,83L751,88L750,93L748,99L745,105L742,114L737,123L731,134L724,144L718,154L713,163L708,173L704,180L701,186L698,192L696,196L695,200L694,202L693,203L692,203L691,203L690,202L688,199L686,196L684,193L681,189L677,185L673,179L669,173L664,166L658,159L651,151L645,142L639,134L634,128L628,119L624,113L620,108L617,103L615,100L614,95L613,92L613,89L613,85L613,83L614,80L617,76L621,72L625,67L631,62L636,59L643,56L651,54L661,51L670,50L680,49L690,49L699,49L707,49L714,51L720,55L726,59L731,63L736,67L740,71L743,76L746,80L749,85L751,90L754,95L756,100L758,105L760,110L762,116L765,121L767,126L770,131L773,135L776,140L779,144L783,149L787,152L792,155L796,156L799,158L803,159L805,160L807,161L808,161L809,162L809,161" stroke-opacity="1" stroke-width="1" stroke-linecap="round" stroke-linejoin="round" style="-webkit-tap-highlight-color: rgba(0, 0, 0, 0); stroke-opacity: 1; stroke-linecap: round; stroke-linejoin: round; -webkit-user-select: text;"></path><path fill="none" stroke="#000000" d="M732,53L733,54L738,54L743,55L749,57L754,60L760,63L764,68L768,72L771,76L774,81L777,86L779,92L782,98L784,102L787,108L790,113L792,119L795,125L797,130L800,135L804,140L808,146L811,150L816,154L821,157L826,161L832,163L838,166L844,168L848,169L853,170L857,170L860,171L861,172L862,173L863,173L863,174L863,175L863,176L863,177L862,178L860,180L857,184L851,190L845,198L838,206L830,214L823,223L816,231L809,239L802,247L797,253L792,258L789,262L786,265L783,267L782,268L780,268L779,268L778,268L777,266L776,264L774,262L772,259L768,256L765,252L761,248L758,244L753,241L749,237L745,233L740,229L736,226L733,222L730,219L728,217L727,215L727,214L727,213L727,212L727,211L728,209L730,208L734,206L740,202L748,195L756,189L767,183L779,175L792,166L804,159L816,151L828,144L837,138L844,134L849,131L852,129L855,128L856,128L856,129L857,131L857,132L859,134L860,137L863,142L866,149L869,156L872,164L874,173L877,180L878,186L879,191L879,196L879,200L879,202L879,203L879,204L879,205L878,205L876,206L874,206L871,207L868,207L865,209L860,211L854,214L848,219L841,223L834,228L829,231L825,234L821,236L818,237L816,238L814,238L813,238L812,238L811,238L811,236L810,235L810,233L809,231L809,227L807,222L806,217L805,208L804,196L803,187L802,176L801,163L801,153L801,140L800,131L800,122L799,112L799,105L798,98L798,90L797,84L797,79L796,75L796,71L796,68L796,65L796,63" stroke-opacity="1" stroke-width="1" stroke-linecap="round" stroke-linejoin="round" style="-webkit-tap-highlight-color: rgba(0, 0, 0, 0); stroke-opacity: 1; stroke-linecap: round; stroke-linejoin: round; -webkit-user-select: text;"></path><path fill="none" stroke="#000000" d="M821,179L821,176L821,173L821,168L821,163L821,155L821,146L821,137L821,128L821,117L821,108L821,99L821,90L821,83L821,77L821,72L821,68L820,65L820,63L820,62L821,62L822,62L825,62L828,62L834,62L842,62L850,62L857,62L865,61L872,61L877,61L882,60L886,60L888,60L889,60L890,60L890,61L890,63L890,64L890,66L890,69L890,72L890,76L890,81L890,90L890,99L889,108L889,119L889,130L888,141L888,151L888,159L888,168L888,175L888,178L888,182L888,184L888,185L886,184L884,182L882,180L880,178L877,174L873,170L868,166L862,162L855,157L847,152L838,146L829,140L821,134L812,128L805,123L799,118L793,113L789,110L785,107L782,105L781,104L781,103L781,102L784,102L787,102L794,102L805,101L817,100L831,99L845,98L860,97L874,97L887,96L897,96L906,96L912,96L916,97L918,99L920,101L921,103L922,105L922,107L923,110L923,112L923,114L924,117L925,119L925,122L925,126L925,130L925,136L924,143L920,151L916,158L911,167L906,175L901,181L896,187L892,192L888,198L884,203L879,207L873,212L867,218L860,224L852,231L845,236L838,243L831,249L825,255L819,261L814,267L809,274L804,280L801,286L798,291L795,297L793,303L792,309L790,313L789,318L789,324L789,328L789,333L789,336L789,340L789,343L789,345L789,347L789,348L789,349L789,350L790,350L791,350L792,349" stroke-opacity="1" stroke-width="1" stroke-linecap="round" stroke-linejoin="round" style="-webkit-tap-highlight-color: rgba(0, 0, 0, 0); stroke-opacity: 1; stroke-linecap: round; stroke-linejoin: round; -webkit-user-select: text;"></path><path fill="none" stroke="#000000" d="M908,217L903,219L901,221L900,223L898,225L894,228L888,232L882,236L874,243L866,250L857,257L850,263L842,270L835,277L831,282L826,288L824,293L821,299L820,303L819,308L818,312L818,318L818,324L818,331L818,338L818,345L819,353L821,359L822,365L823,369L825,375L826,379L827,383L827,386L828,388L828,390L828,391L828,392L828,390L828,389L829,388L832,385L840,378L849,372L859,367L868,362L877,358L884,355L890,352L894,350L898,349L900,348L901,348L901,347L901,346L901,345L901,343L900,342L899,339L897,337L895,333L893,329L891,325L889,321L888,318L887,315L886,313L885,311L884,310L883,309L882,309L881,309L879,309L878,309L877,309L874,309L871,309L866,309L860,310L852,311L843,312L833,313L823,314L813,315L802,316L792,318L782,319L772,320L763,321L754,322L748,323L741,324L736,325L732,325L728,326L726,326L724,326L723,326L723,325L723,323L724,321L727,318L731,312L737,304L743,296L748,290L755,282L760,275L765,269L768,264L771,261L774,258L775,255L776,255L777,254L778,254L779,254L780,255L782,256L783,258L785,261L788,266L792,272L795,280L798,287L801,294L805,302L809,309L811,314L815,319L817,325L820,330L821,333L823,338L825,341L826,345L827,348L828,350L828,353L829,355L829,358L830,359L830,360L831,361L831,362L831,363L832,363" stroke-opacity="1" stroke-width="1" stroke-linecap="round" stroke-linejoin="round" style="-webkit-tap-highlight-color: rgba(0, 0, 0, 0); stroke-opacity: 1; stroke-linecap: round; stroke-linejoin: round; -webkit-user-select: text;"></path><path fill="none" stroke="#000000" d="M835,265L833,269L835,273L838,279L841,285L845,291L848,297L851,303L854,308L857,313L861,318L864,323L866,327L867,331L869,334L870,336L870,338L871,340L871,341L871,342L871,343L871,344L870,345L869,347L867,349L865,351L862,353L860,356L857,359L855,361L851,365L848,368L843,372L838,377L833,382L829,386L824,390L820,394L816,397L813,400L811,402L809,404L807,405L806,405L805,405L804,405L804,403L803,400L801,396L799,392L796,384L792,377L788,370L784,363L781,357L777,350L773,345L770,340L767,336L765,333L763,331L762,329L760,328L760,327L760,326L761,326L764,325L772,322L783,319L794,315L807,312L820,309L833,306L844,304L852,302L859,300L864,299L868,299L870,299L872,299L873,300L873,302L873,304L873,306L873,308L873,310L873,313L873,316L873,319L873,323L873,326L872,330L870,333L867,336L865,338L861,341L857,343L854,345L850,347L845,349L841,351L836,353L831,355L826,357L822,358L816,360L811,361L806,362L801,363L795,365L790,366L785,368L780,370L775,372L772,375L768,378L765,381L762,384L759,387L757,389L755,392L753,396L751,399L749,403L748,407L746,411L745,416L744,421L743,427L743,433L743,438L743,444L743,450L743,456L743,460L743,463L743,465L743,467L744,467L747,465" stroke-opacity="1" stroke-width="1" stroke-linecap="round" stroke-linejoin="round" style="-webkit-tap-highlight-color: rgba(0, 0, 0, 0); stroke-opacity: 1; stroke-linecap: round; stroke-linejoin: round; -webkit-user-select: text;"></path><path fill="none" stroke="#000000" d="M831,373L826,374L823,374L821,375L817,376L811,378L805,381L799,384L794,388L788,392L784,395L780,400L777,405L775,410L774,413L772,418L772,422L772,427L771,432L771,437L771,442L771,447L771,453L771,460L771,466L772,471L773,476L774,482L775,486L775,489L776,492L777,494L777,496L778,497L778,498L778,499L778,500L776,500L771,500L764,498L756,496L749,496L741,495L733,495L726,495L719,495L715,495L711,496L708,496L706,496L705,496L704,496L703,496L703,493L702,485L701,476L700,466L700,454L700,444L700,435L700,426L699,417L698,409L697,402L697,396L697,392L696,389L696,387L696,385L696,384L697,384L701,384L705,384L711,384L720,384L732,385L745,387L760,389L775,391L792,392L806,392L818,393L828,393L835,394L840,394L843,395L844,396L844,397L844,399L844,400L844,401L844,404L844,406L844,409L844,413L844,418L844,425L844,431L844,438L843,445L841,454L840,462L839,467L838,472L837,477L837,482L836,485L835,486L835,487L835,488L834,488L833,488L832,488L828,487L818,483L811,480L802,477L792,474L783,472L775,470L769,469L762,467L756,466L752,464L749,462L747,460L745,456L745,452L745,447L745,442L747,435L753,428L760,422L768,417L777,413L788,409L799,406L809,404L819,404L829,404L838,404L847,405L855,407L864,410L872,413L884,416L894,419L906,421L917,421L927,421L938,420L945,418L949,416L952,415L953,414L953,413L946,411" stroke-opacity="1" stroke-width="1" stroke-linecap="round" stroke-linejoin="round" style="-webkit-tap-highlight-color: rgba(0, 0, 0, 0); stroke-opacity: 1; stroke-linecap: round; stroke-linejoin: round; -webkit-user-select: text;"></path><path fill="none" stroke="#000000" d="M795,374L800,371L806,370L816,368L825,367L838,367L848,367L860,369L871,372L880,374L889,376L895,377L902,377L908,377L912,377L916,376L920,374L923,371L927,369L929,366L932,363L933,360L935,357L936,355L936,354L936,353L936,354L936,356L936,359L936,363L936,368L936,375L936,384L936,391L936,399L936,406L936,412L936,417L936,421L936,425L936,428L936,431L936,433L935,434L935,435L934,437L932,438L930,438L927,439L923,440L918,442L911,445L904,447L897,451L891,454L885,457L881,460L877,462L873,464L870,466L867,467L865,468L864,468L863,468L862,468L862,465L860,457L858,449L857,440L855,431L853,423L851,416L849,409L846,400L843,393L840,384L838,377L836,372L834,369L833,366L832,365L831,364L831,363L831,362L834,360L839,357L847,351L856,346L867,341L879,335L890,330L901,325L909,322L916,320L920,319L925,317L928,317L929,316L930,316L931,316L932,316L932,315L932,314L931,313L931,312L930,311L930,309L929,307L929,303L928,299L928,294L927,290L926,285L925,280L923,275L922,270L920,266L918,263L915,260L912,258L909,258L906,257L903,257L900,257L894,257L887,257L880,258L875,260L869,263L865,268L861,274L859,279L857,285L857,290L856,296L856,302L856,309L858,316L861,324L865,333L869,340L873,350L877,359L882,368L886,378L889,388L891,396L893,409L893,418L893,428L893,439L890,446L886,455L882,461L879,465L877,468L874,470L873,472L872,472L871,473L870,474L870,472" stroke-opacity="1" stroke-width="1" stroke-linecap="round" stroke-linejoin="round" style="-webkit-tap-highlight-color: rgba(0, 0, 0, 0); stroke-opacity: 1; stroke-linecap: round; stroke-linejoin: round; -webkit-user-select: text;"></path></svg>