<svg height="650" version="1.1" width="1024" xmlns="http://www.w3.org/2000/svg" xmlns:xlink="http://www.w3.org/1999/xlink" style="overflow: hidden; position: relative; -webkit-user-select: text;"><desc style="-webkit-tap-highlight-color: rgba(0, 0, 0, 0); -webkit-user-select: text;">Created with Raphaël 2.2.0</desc><defs style="-webkit-tap-highlight-color: rgba(0, 0, 0, 0); -webkit-user-select: text;"></defs><path fill="none" stroke="#000000" d="M176,177L180,175L182,175L185,174L189,171L195,168L201,163L210,158L219,151L231,144L243,136L253,131L264,124L273,119L281,114L287,111L291,109L293,107L295,107L296,106L296,107L296,110L296,113L296,117L296,123L296,130L296,138L296,147L295,155L295,163L294,170L293,175L293,180L292,185L292,187L292,189L292,190L292,191L292,192L291,192L290,192L289,192L288,192L286,190L284,187L280,184L275,179L268,172L261,165L254,157L247,150L242,145L236,139L233,136L229,133L226,131L225,130L224,129L223,129L223,128L225,128L226,128L229,128L233,128L240,129L247,130L256,131L265,132L274,133L283,134L292,135L301,136L308,137L315,138L320,139L325,139L328,140L331,140L333,141L334,141L335,141L335,142L335,143L335,144L335,145L335,146L335,147L335,149L335,151L335,153L335,157L335,163L334,169L333,178L331,187L330,197L328,205L327,211L326,216L325,220L325,223L324,225L324,226L323,227L323,228L322,228L321,228L320,228L319,228L318,228L317,228L316,228L315,228L313,227L312,226L310,226L307,224L303,223L296,220L290,218L282,214L274,212L266,209L259,206L252,203L245,201L239,199L233,197L229,195L224,193L221,192L218,191L217,190L216,190L216,189L217,189L218,189L219,189L220,189L221,189L222,189L223,189L225,190L227,190L229,191L231,192L233,193L235,194L238,195L241,195L244,196L247,197L249,197L252,197L255,198L258,198L261,198L264,198L267,198L270,198L273,198L276,198L279,198L282,198L285,198L288,198L292,197L295,196L298,195L301,195L305,193L308,192L311,191L314,190L317,188L320,187L323,186L326,185L329,183L332,182L335,180L338,179L341,178L344,177L347,175L349,174L352,173L354,173L357,172L359,171L361,171L363,170L366,170L368,170L370,170L373,170L376,170L378,170L381,170L383,170L386,170L388,170L391,170L394,170L396,170L399,170L401,171L403,172L405,173L407,173L408,174L409,175L410,175L411,175L411,176L412,176" stroke-opacity="1" stroke-width="1" stroke-linecap="round" stroke-linejoin="round" style="-webkit-tap-highlight-color: rgba(0, 0, 0, 0); stroke-opacity: 1; stroke-linecap: round; stroke-linejoin: round; -webkit-user-select: text;"></path><path fill="none" stroke="#000000" d="M408,208L410,207L412,207L415,207L417,207L421,207L425,207L429,208L432,209L436,211L440,212L444,215L448,217L451,220L455,223L458,226L461,231L463,234L466,239L468,243L470,248L471,252L473,257L474,262L476,267L477,272L478,277L479,281L480,286L481,290L482,294L482,298L483,300L483,302L483,304L483,305L484,306L484,307L483,307L482,307L481,307L480,307L479,307L478,308L476,308L475,309L472,309L470,310L467,311L465,312L462,314L459,315L455,317L452,319L448,321L445,322L442,324L438,326L435,328L432,329L430,331L428,331L426,332L425,333L424,333L423,334L422,334L422,335L421,335L420,335L419,335L418,335L417,335L417,334L417,333L416,331L415,330L413,327L411,323L408,318L405,311L403,304L400,297L397,292L395,286L394,282L392,278L391,275L390,272L389,270L388,268L387,266L387,265L386,265L386,264L386,263L387,263L388,263L389,262L390,262L391,262L393,262L394,261L397,261L400,260L405,259L412,258L420,256L427,255L436,253L446,251L456,249L466,248L476,246L487,245L497,243L506,242L514,241L521,241L527,240L531,239L534,239L536,239L537,239L537,238L537,237L536,237L536,236L535,235L534,234L533,233L532,231L530,229L528,226L525,222L522,216L517,209L513,202L509,196L506,190L503,185L500,180L497,176L495,172L492,168L490,164L488,161L485,158L484,156L482,154L481,153L481,152L480,151L479,151L478,151L477,151L477,152L477,153L477,155L477,156L476,159L476,163L475,169L473,177L472,185L470,195L468,207L466,218L463,231L460,243L456,255L454,267L451,276L448,285L446,290L445,294L444,297L443,299L442,300L442,301L443,301L444,301L445,301L446,301L448,301L451,301L454,301L458,301L463,302L469,302L475,303L482,304L489,305L496,307L503,307L511,308L518,308L525,309L531,309L536,310L541,311L544,311L547,311L549,312L550,312L551,312L552,312L552,311" stroke-opacity="1" stroke-width="1" stroke-linecap="round" stroke-linejoin="round" style="-webkit-tap-highlight-color: rgba(0, 0, 0, 0); stroke-opacity: 1; stroke-linecap: round; stroke-linejoin: round; -webkit-user-select: text;"></path><path fill="none" stroke="#000000" d="M546,267L547,264L549,264L552,262L557,258L563,254L570,248L579,241L588,235L598,227L608,220L617,213L626,207L634,201L640,197L643,195L647,193L649,191L650,190L650,189L649,188L648,187L646,186L645,184L642,182L640,179L637,176L634,172L630,168L627,163L623,160L619,156L616,151L612,148L609,144L606,140L603,136L600,134L597,131L595,129L593,127L592,126L590,125L590,124L589,124L588,124L587,124L586,124L585,124L584,124L583,125L581,126L580,127L577,129L573,132L568,135L564,138L561,140L557,143L553,145L551,147L548,149L546,150L544,151L542,152L540,153L539,154L538,155L537,155L536,156L536,157L536,158L537,158L538,159L539,160L541,162L544,166L548,169L552,173L557,179L561,184L566,189L570,194L576,200L581,205L587,211L592,217L598,222L603,228L607,232L611,236L614,238L616,241L617,242L618,243L619,243L619,241L619,239L619,237L619,234L619,229L620,222L621,214L621,207L622,197L624,189L624,181L626,173L628,164L630,156L631,149L633,142L634,137L634,132L635,128L636,124L636,122L636,120L636,119L636,118L635,118L634,119L633,120L631,122L629,124L625,127L620,131L614,135L609,140L602,145L596,150L590,155L585,159L579,163L575,167L572,170L568,172L566,174L563,176L562,177L561,178L560,178L559,179L560,179L561,179L562,179L563,179L564,179L565,179L566,178L568,178L569,178L570,178L572,178L574,178L576,178L578,178L580,178L583,179L586,179L589,180L592,181L596,182L600,183L604,185L607,186L611,187L614,189L617,191L620,193L623,195L626,198L629,200L631,202L633,205L635,207L636,210L638,213L640,216L641,219L642,222L643,225L645,228L645,231L646,234L647,237L647,239L648,242L648,244L648,247L649,249L649,252L649,255L650,258L650,260L651,263L651,265L651,268L652,270L652,272L653,275L654,277L654,279L655,281L656,283L657,285L658,287L660,288L661,290L662,292L664,294L665,296L667,297L668,299L670,300L672,301L673,303L675,304L677,305L678,307L680,308L682,309L684,310L685,311L687,312L689,313L690,313L692,314L694,314L695,315L697,315L698,316L700,316L701,316L702,316L703,316L704,316L705,316L706,316L707,316L707,314" stroke-opacity="1" stroke-width="1" stroke-linecap="round" stroke-linejoin="round" style="-webkit-tap-highlight-color: rgba(0, 0, 0, 0); stroke-opacity: 1; stroke-linecap: round; stroke-linejoin: round; -webkit-user-select: text;"></path><path fill="none" stroke="#000000" d="M666,224L665,229L665,230L665,232L665,234L666,236L667,238L668,241L669,242L670,244L670,246L672,248L673,250L674,251L675,253L677,255L678,256L680,258L682,259L683,260L685,261L687,262L688,263L690,263L691,264L692,265L694,265L695,266L697,267L699,268L700,268L702,268L703,269L704,269L706,270L707,270L709,270L710,270L712,270L713,270L714,270L716,270L717,270L718,270L719,270L721,270L722,270L723,270L724,270L726,270L727,270L728,270L729,270L731,269L732,268L733,268L734,268L735,267L736,266L738,265L739,265L740,264L741,263L742,263L743,262L745,261L746,260L747,260L748,258L749,258L750,257L751,255L753,255L753,253L755,252L755,251L756,250L758,249L758,248L759,247L760,246L761,244L762,243L762,242L764,240L765,239L765,238L767,236L767,235L769,234L770,233L771,231L772,230L773,228L775,227L776,225L777,224L778,223L780,221L781,219L783,218L785,217L787,215L789,213L790,212L792,211L794,209L797,208L799,207L801,205L804,204L806,203L808,202L810,201L812,201L813,200L814,200L814,199L813,198L813,197L812,196L811,195L811,193L811,191L810,190L810,187L809,185L809,183L808,180L807,177L806,173L805,169L804,165L803,160L802,155L801,151L800,146L800,140L799,135L798,130L798,125L797,120L797,115L796,112L796,108L795,105L795,103L794,101L794,100L793,100L792,100L791,100L790,100L789,100L787,100L784,100L779,102L771,103L765,105L757,107L750,108L744,110L740,111L735,112L731,112L728,113L726,113L724,114L723,115L723,116L723,117L723,119L723,121L723,123L724,125L724,127L725,131L726,136L728,142L730,150L732,159L734,168L737,178L739,187L742,197L744,206L746,214L749,222L750,228L753,234L754,238L755,241L756,244L757,246L757,248L758,249L758,250L758,251L759,251L760,251L762,251L763,251L764,251L766,251L768,250L770,250L774,250L778,250L783,249L788,249L794,249L799,249L805,249L810,249L815,249L820,249L825,249L829,249L833,249L835,249L837,249L838,249L839,249L840,249L841,248L841,247L842,246L842,244L842,242L844,234L847,223L849,216L852,207L853,201L856,195L858,189L860,184L862,178L864,173L866,168L867,165L868,162L869,160L869,159L869,158L869,157L868,157L867,157L865,157L864,157L861,157L857,157L849,157L840,157L831,157L821,157L809,158L799,160L787,163L775,166L763,168L754,169L744,170L735,171L728,172L724,172L719,173L716,173L715,173L714,173L713,173" stroke-opacity="1" stroke-width="1" stroke-linecap="round" stroke-linejoin="round" style="-webkit-tap-highlight-color: rgba(0, 0, 0, 0); stroke-opacity: 1; stroke-linecap: round; stroke-linejoin: round; -webkit-user-select: text;"></path><path fill="none" stroke="#000000" d="M787,131L785,129L784,129L782,129L778,129L774,129L768,129L760,129L752,130L743,131L733,133L724,134L716,136L709,137L704,138L699,138L696,139L694,139L693,139L693,140L693,141L693,143L693,144L693,146L693,149L694,153L696,159L698,166L701,173L703,181L706,190L708,200L711,209L713,218L714,226L716,232L717,236L718,240L718,243L719,244L719,245L719,246L720,246L721,246L723,246L724,246L726,246L729,245L736,242L742,239L749,236L756,232L762,228L769,224L775,220L781,217L786,215L791,213L795,212L799,211L801,210L804,210L806,209L807,209L807,208L807,207L806,206L804,204L801,202L797,198L792,195L788,192L784,190L779,188L774,187L767,185L760,183L752,182L745,179L737,176L730,174L723,171L716,168L711,164L706,161L701,158L697,155L694,153L690,150L687,148L685,146L682,144L680,143L678,142L677,141L676,140L675,139L674,139L674,138L674,137L674,136L674,134L674,132L675,129L677,125L681,119L685,112L689,107L693,102L698,97L702,93L705,90L708,87L711,84L714,83L715,81L716,80L717,80L718,80L719,80L719,81L720,83L721,85L723,90L725,96L728,104L733,115L737,127L742,140L746,155L750,169L754,183L758,197L762,209L765,222L769,233L772,240L774,246L776,250L778,253L779,255L779,256L780,256L780,257L780,258L780,259L780,260L780,261L779,261L778,261L777,261L775,261L774,261L772,262L770,262L768,263L767,264L764,265L762,267L759,268L756,270L753,272L751,275L748,277L745,280L743,282L741,285L738,288L736,291L734,294L732,298L730,302L728,306L726,309L725,314L724,318L724,321L723,326L723,330L723,334L723,338L723,343L723,348L723,352L724,356L724,360L725,364L725,368L725,371L725,374L725,377L725,380L725,383L725,386L725,388L725,390L725,392L725,393L724,394L724,395L724,393" stroke-opacity="1" stroke-width="1" stroke-linecap="round" stroke-linejoin="round" style="-webkit-tap-highlight-color: rgba(0, 0, 0, 0); stroke-opacity: 1; stroke-linecap: round; stroke-linejoin: round; -webkit-user-select: text;"></path><path fill="none" stroke="#000000" d="M777,298L772,301L768,304L764,307L760,311L756,314L753,319L750,324L748,328L745,333L745,338L744,343L743,348L743,353L743,358L743,362L743,366L743,370L743,374L743,377L743,381L743,384L743,387L743,390L743,392L743,395L743,398L743,401L742,403L742,406L741,409L741,411L740,413L740,416L739,418L738,420L738,421L738,423L737,423L737,424L736,425L736,426L735,426L734,426L733,426L732,426L731,426L729,426L728,425L725,423L723,422L719,421L714,418L709,416L704,413L698,411L692,408L687,406L682,405L677,404L673,402L668,401L665,400L662,399L660,398L658,397L657,397L657,396L656,396L656,395L657,395L658,394L659,394L661,393L663,392L667,392L674,390L682,388L691,386L701,384L713,382L724,380L736,379L748,377L761,375L774,373L785,371L794,370L803,368L809,367L814,366L818,365L820,365L821,365L821,364L821,363L821,362L820,361L820,360L818,360L818,358L816,357L813,353L809,345L805,338L801,331L798,322L796,317L794,313L792,309L791,306L790,304L789,302L789,301L788,300L788,299L787,299L786,299L785,299L784,299L782,299L781,299L779,299L777,299L773,300L769,301L763,303L758,305L751,308L744,311L737,314L729,316L721,319L714,322L706,325L700,327L696,328L692,329L689,330L687,330L686,331L685,331L685,332L685,333L686,334L687,335L689,336L690,336L692,338L695,340L699,343L704,348L709,352L714,357L720,362L725,367L731,372L737,377L744,382L750,387L756,391L762,395L766,399L771,402L775,405L778,408L781,411L784,413L787,416L789,418L791,420L793,421L794,423L796,424L797,425L797,426L797,423" stroke-opacity="1" stroke-width="1" stroke-linecap="round" stroke-linejoin="round" style="-webkit-tap-highlight-color: rgba(0, 0, 0, 0); stroke-opacity: 1; stroke-linecap: round; stroke-linejoin: round; -webkit-user-select: text;"></path><path fill="none" stroke="#000000" d="M772,352L773,352L775,354L778,357L781,359L784,361L789,364L794,367L799,370L805,374L810,377L815,380L821,384L826,388L830,391L835,394L839,398L843,401L846,403L849,405L851,406L853,407L854,408L855,409L856,409L856,407L856,404L857,399L858,394L861,386L864,378L867,370L870,362L873,354L875,347L877,341L879,336L880,332L881,329L881,327L881,326L880,326L877,326L874,328L869,331L864,336L858,340L852,345L845,350L838,356L831,362L823,368L816,374L809,380L802,386L794,392L787,398L780,404L775,409L769,414L763,419L759,423L755,426L753,429L750,431L749,432L748,433L747,433L747,432L747,429L749,425L753,419L757,412L762,404L767,395L774,385L780,375L787,364L794,354L800,345L805,336L809,329L813,321L817,315L819,311L821,307L823,304L823,303L824,302L825,302L826,302L827,302L828,302L829,303L831,305L832,307L834,309L836,311L839,315L842,319L845,323L848,327L852,333L855,337L859,343L863,348L866,353L870,358L874,362L877,367L880,371L883,375L885,378L887,381L889,383L889,384L890,385L890,386L890,387L890,388L889,388L887,388L885,388L882,388L879,388L876,388L872,388L869,388L865,389L862,389L858,389L855,389L851,390L848,390L844,391L841,392L838,393L835,394L832,396L829,397L827,399L824,401L823,402L821,404L820,406L818,408L818,410L817,412L816,414L816,417L816,420L815,423L815,426L815,429L814,432L814,435L814,438L814,440L814,443L814,445L814,448L814,450L814,453L814,455L814,458L814,461L814,463L814,466L814,469L814,471L814,474L814,477L814,479L813,482L812,484L811,486L810,489L809,491L808,493L806,494L805,496L804,497L802,498L801,499L799,500L797,500L795,501L793,501L792,501L790,502L789,502L788,502" stroke-opacity="1" stroke-width="1" stroke-linecap="round" stroke-linejoin="round" style="-webkit-tap-highlight-color: rgba(0, 0, 0, 0); stroke-opacity: 1; stroke-linecap: round; stroke-linejoin: round; -webkit-user-select: text;"></path><path fill="none" stroke="#000000" d="M809,433L808,441L808,443L808,446L807,448L806,451L805,455L804,457L801,461L799,464L796,467L794,469L791,471L788,473L785,474L782,476L778,477L775,478L771,479L767,479L763,480L759,481L754,481L750,482L745,483L741,484L736,485L732,486L728,488L724,490L721,492L718,494L716,496L714,497L713,499L712,500L712,501L711,501L711,502L711,503L712,503L714,505L716,507L720,510L724,513L727,517L731,520L735,524L739,528L742,532L745,536L749,540L751,542L753,545L755,547L756,549L757,549L757,550L758,550L758,548L758,545L758,539L758,533L758,525L758,516L759,506L759,497L760,486L760,476L761,465L762,456L763,449L764,444L765,439L765,435L765,433L765,432L764,432L761,432L758,432L754,433L749,435L744,437L739,439L734,442L728,444L724,447L719,449L714,451L710,452L707,454L704,454L702,455L701,455L700,455L699,455L699,456L699,457L699,459L699,462L700,466L701,471L702,477L704,485L705,493L707,501L708,508L709,514L710,520L711,525L712,530L713,533L714,535L714,536L714,537L715,537L716,537L717,537L719,537L721,537L724,536L728,533L733,530L739,526L745,523L751,518L758,514L764,509L771,503L777,499L784,494L790,490L795,487L799,484L803,482L806,481L808,480L809,480L811,480L812,480L813,480L814,480L815,480L816,480L817,480L818,481L819,482L821,483L822,484L824,486L826,489L828,491L831,494L834,496L836,499L839,501L841,504L843,507L845,509L848,512L850,515L852,517L854,519L856,521L857,523L859,525L860,527L862,528L862,529L863,530L864,531L864,532" stroke-opacity="1" stroke-width="1" stroke-linecap="round" stroke-linejoin="round" style="-webkit-tap-highlight-color: rgba(0, 0, 0, 0); stroke-opacity: 1; stroke-linecap: round; stroke-linejoin: round; -webkit-user-select: text;"></path><path fill="none" stroke="#000000" d="M810,510L811,513L814,515L816,518L819,521L822,524L825,527L828,531L831,535L833,539L835,542L838,545L840,548L842,550L843,552L844,554L845,555L845,556L845,557L845,558L845,559L843,560L841,561L838,563L835,565L831,567L826,570L822,573L817,576L811,580L806,584L800,589L795,593L791,596L787,599L784,601L780,604L777,606L775,608L773,609L771,610L770,610L769,610L768,610L767,610L765,609L764,606L762,603L760,599L758,593L755,586L753,578L750,570L749,560L748,552L747,542L746,531L746,520L745,506L745,496L745,485L745,477L745,469L744,462L744,457L744,452L743,450L743,448L744,448L746,448L748,450L753,451L757,454L762,456L768,459L774,461L779,463L784,465L788,467L792,468L794,470L796,471L798,472L799,474L799,475L800,477L800,478L800,480L800,482L800,485L800,489L800,493L800,498L800,505L800,512L800,519L800,527L801,535L803,542L804,548L806,554L807,561L807,566L808,571L808,575L808,579L808,581L808,584L808,585L808,586L808,587L808,586L807,584L806,583L805,580L803,578L801,575L799,571L797,567L796,563L794,558L793,554L791,549L789,545L787,540L784,534L781,530L778,525L775,521L771,518L767,514L764,511L760,508L756,506L752,505L748,504L743,504L739,504L736,504L731,504L728,504L724,505L720,507L716,508L712,510L708,511L704,513L700,514L696,515L692,516L689,517L685,517L681,518L677,518L673,518L669,518L665,518L662,518L658,518L655,518L651,518L648,517L645,515L642,513L639,511L637,508L634,504L631,501L629,498L626,494L624,489L622,484L620,478L619,473L618,467L617,460L617,454L617,448L617,443L617,438L617,434L617,431L617,430L617,429L616,429" stroke-opacity="1" stroke-width="1" stroke-linecap="round" stroke-linejoin="round" style="-webkit-tap-highlight-color: rgba(0, 0, 0, 0); stroke-opacity: 1; stroke-linecap: round; stroke-linejoin: round; -webkit-user-select: text;"></path><path fill="none" stroke="#000000" d="M670,393L672,396L672,398L672,401L672,403L673,406L675,411L675,415L677,421L678,426L680,433L681,438L682,443L683,448L683,452L684,454L684,456L684,457L684,458L683,459L681,460L678,461L675,462L671,465L666,467L661,470L655,473L649,477L643,480L636,484L629,488L622,491L615,495L609,498L603,501L598,504L594,507L590,509L587,511L585,512L583,513L582,513L581,514L580,514L580,513L580,512L580,511L579,508L579,506L578,503L578,501L577,497L575,493L573,488L571,482L570,477L568,472L566,467L564,462L562,457L561,454L559,450L559,448L558,447L558,446L560,446L562,446L565,446L568,446L572,446L576,446L581,446L587,447L592,448L600,450L607,453L615,456L624,461L631,464L638,468L645,471L651,474L656,476L661,479L665,481L669,483L673,486L675,487L678,489L680,489L681,490L682,490L682,491L683,491L683,490L683,488L683,486L683,482L683,479L683,474L683,467L683,458L683,448L683,438L683,426L683,415L682,401L682,391L682,378L682,369L682,361L682,353L682,348L682,343L682,340L682,338L682,337L681,337L680,337L679,337L677,337L676,337L674,337L673,337L670,337L668,338L665,338L662,339L658,341L653,342L648,344L643,345L638,347L633,348L629,350L624,350L621,351L619,352L617,353L616,353L615,354L615,355L615,357L615,358L615,360L615,362L615,364L616,367L617,371L618,375L619,380L621,386L623,392L625,399L627,405L629,412L631,418L633,425L635,431L637,438L639,444L641,450L642,454L643,459L644,463L645,467L646,470L647,474L647,477L648,479L648,482L649,484L649,485L650,486L650,487L650,489L650,490L650,491L650,492L649,493L648,494L646,495L646,496L644,497L643,499L641,500L640,501L638,503L637,504L635,506L633,507L631,508L629,510L627,511L624,513L622,514L619,516L617,517L614,518L611,520L607,521L604,522L600,523L597,524L593,525L589,525L586,525L582,526L578,526L574,526L570,526L567,526L563,526L560,525L556,524L553,523L550,521L546,519L544,517L540,515L537,513L534,510L532,508L528,506L525,504L522,502L519,500L515,499L512,497L509,496L506,495L503,494L500,493L496,491L493,491L490,490L487,489L484,489L481,488L477,488L475,488L472,488L470,488L468,488L467,488L471,485" stroke-opacity="1" stroke-width="1" stroke-linecap="round" stroke-linejoin="round" style="-webkit-tap-highlight-color: rgba(0, 0, 0, 0); stroke-opacity: 1; stroke-linecap: round; stroke-linejoin: round; -webkit-user-select: text;"></path><path fill="none" stroke="#000000" d="M538,463L532,459L531,459L529,457L526,455L523,453L519,452L516,450L512,449L507,448L503,447L498,446L494,446L489,446L484,446L479,446L474,446L468,447L463,449L459,452L454,454L449,457L444,460L440,462L436,465L432,468L428,472L425,475L421,479L418,483L415,487L412,491L410,495L408,499L407,502L405,504L404,506L403,507L402,508L401,509L400,509L400,510L399,510L398,510L397,510L396,509L395,507L394,506L393,503L391,501L390,498L387,494L384,490L381,486L378,481L375,476L372,472L369,468L366,464L362,460L360,457L358,454L356,452L354,450L353,448L352,447L352,446L352,445L352,444L352,443L353,441L356,439L359,435L364,431L368,426L373,421L378,416L384,410L390,404L396,399L402,394L406,391L410,389L412,387L415,386L416,385L417,385L417,386L417,387L418,389L418,391L419,393L420,396L422,401L424,406L427,413L429,420L432,427L434,435L438,442L441,450L444,458L446,465L449,470L451,476L453,480L455,484L456,486L456,489L457,490L457,491L457,492L457,493L457,494L456,495L455,495L453,496L451,496L448,497L445,498L442,499L438,500L434,501L429,501L424,503L418,504L412,506L406,507L400,509L393,511L387,512L381,513L376,515L371,516L367,517L363,518L360,518L357,518L355,519L354,519L352,519L352,518L352,516L354,514L357,511L361,507L365,503L371,498L378,492L385,486L393,479L401,472L410,465L418,458L427,451L437,445L445,438L453,431L461,426L466,422L472,418L477,414L481,411L484,409L487,407L488,406L489,405L489,404L489,403L488,401L488,400L486,398L485,396L482,392L480,389L477,384L473,378L471,373L467,368L464,363L461,358L458,352L455,348L453,344L451,341L449,338L447,336L446,334L445,333L445,332L444,332L444,333" stroke-opacity="1" stroke-width="1" stroke-linecap="round" stroke-linejoin="round" style="-webkit-tap-highlight-color: rgba(0, 0, 0, 0); stroke-opacity: 1; stroke-linecap: round; stroke-linejoin: round; -webkit-user-select: text;"></path><path fill="none" stroke="#000000" d="M533,375L531,370L529,370L526,369L522,366L517,363L511,359L505,353L500,348L493,342L486,335L480,329L474,324L468,319L462,314L456,309L452,306L447,303L444,301L441,299L439,297L437,297L436,296L435,296L434,296L433,296L432,296L431,296L430,296L429,296L427,296L426,297L423,298L420,299L415,302L409,304L403,308L395,312L386,317L377,321L368,326L359,330L351,334L344,337L337,341L332,343L329,344L326,346L324,347L323,347L322,348L321,348L321,349L321,350L321,351L321,352L321,353L322,354L323,356L325,359L327,363L330,367L333,371L335,375L338,379L340,383L342,387L344,390L347,392L348,395L349,396L351,398L351,399L352,399L352,400L353,400L354,400L355,400L356,400L357,400L358,399L360,397L363,395L366,393L371,390L377,385L385,379L393,373L402,367L411,360L423,352L434,343L446,336L457,328L466,322L473,317L479,314L483,311L486,309L488,308L488,307L489,307L489,306L488,305L488,304L487,303L486,302L485,300L483,298L482,296L480,293L478,290L476,287L474,283L472,279L470,274L467,270L465,266L463,263L461,259L459,255L456,250L454,247L452,243L450,241L449,238L447,236L446,234L445,232L444,231L443,229L442,229L441,229L440,229L439,229L438,229L437,230L437,231L436,232L435,233L434,234L433,236L432,237L431,239L430,241L428,244L427,248L424,252L422,257L419,262L415,268L411,274L407,281L403,287L399,294L395,301L390,308L386,314L382,321L378,327L375,333L372,338L369,343L366,348L364,353L362,356L360,360L358,362L357,365L356,367L355,368L354,370L353,370L353,371L352,372L352,373L354,373L356,372L358,371L360,370L363,369L366,368L369,367L373,367L377,366L381,366L385,366L390,366L394,366L398,366L402,366L406,368L410,371L414,374L418,377L422,382L425,386L428,390L430,395L432,400L433,406L434,411L434,416L434,421L434,427L434,433L434,439L432,445L429,450L427,456L423,461L420,466L416,470L412,474L408,478L404,482L400,486L395,489L391,492L387,495L383,498L380,501L376,503L373,506L370,508L366,511L364,513L361,516L357,518L355,521L352,523L350,526L348,528L347,531L345,534L343,537L342,540L341,542L340,545L340,547L339,548L338,550L338,551" stroke-opacity="1" stroke-width="1" stroke-linecap="round" stroke-linejoin="round" style="-webkit-tap-highlight-color: rgba(0, 0, 0, 0); stroke-opacity: 1; stroke-linecap: round; stroke-linejoin: round; -webkit-user-select: text;"></path><path fill="none" stroke="#000000" d="M382,460L373,462L371,462L368,462L365,463L362,464L358,466L354,468L350,471L346,474L342,477L339,480L337,484L334,488L332,492L330,496L327,501L326,505L324,510L322,515L320,520L318,525L315,530L313,535L311,540L308,544L306,549L304,553L302,558L300,562L298,566L297,569L296,572L295,574L294,576L293,578L293,579L292,580L291,581L290,581L289,581L288,581L287,581L285,581L284,580L282,579L280,577L277,576L275,574L272,571L268,569L264,565L260,561L256,557L252,554L247,550L242,547L237,544L231,540L226,537L221,534L216,531L211,528L207,527L203,525L201,524L199,523L197,523L196,523L196,522L196,521L196,520L196,518L197,517L199,515L202,511L207,506L212,501L218,496L223,491L231,484L238,477L246,470L253,464L259,457L265,451L270,446L274,443L277,440L279,438L281,437L282,436L283,436L284,436L284,437L284,438L284,439L284,440L285,442L285,443L286,445L287,448L288,452L291,457L293,462L295,468L297,473L299,478L301,484L303,488L304,492L306,495L307,499L307,501L308,503L308,505L308,506L308,507L308,508L308,509L308,510L307,511L305,511L304,513L302,514L301,515L298,517L296,518L294,520L291,523L288,525L284,529L281,533L277,537L273,542L269,546L265,551L261,555L258,559L255,562L252,564L250,567L248,569L247,571L246,571L245,572L244,573L243,573L242,573L241,573L240,571L240,569L240,567L239,564L238,561L237,557L236,554L235,550L233,544L231,538L228,531L226,525L223,518L220,508L218,501L214,492L211,482L208,474L206,467L203,459L201,451L199,445L196,438L194,431L192,427L191,423L190,421L189,419L188,418L187,417L188,417L189,417L190,417L192,417L194,416L197,416L201,415L206,413L212,412L220,410L228,408L237,406L245,404L254,401L263,400L271,399L279,397L286,396L292,395L298,394L303,394L308,393L312,392L315,392L318,392L321,392L324,392L325,391L327,391L329,391L330,391L332,391L334,391L335,390L336,390L337,390L339,390L340,390L342,389L343,389L344,389L345,389L346,389L346,388L347,388L348,388L349,388L349,387L350,387L351,387L352,387L353,386L354,386L354,385L355,385L356,384L357,384L358,383L359,383L359,382L360,382L361,382L361,381L362,380L363,380L363,379L364,379L364,378L365,377L366,377L366,376L367,375L368,375L369,374L369,373L370,372L371,372L371,371L372,370L372,369L373,368L373,367L374,367L374,366L374,365L375,364L375,363L376,362L376,360L376,359L377,358L377,356L378,355L378,353L378,352L378,350L378,349L378,348L378,346L378,345L378,344L378,343L378,342L378,341L378,339L378,338L378,337L378,336L378,335L378,333L378,332L378,331L378,329L378,328L378,326L378,325L378,324L378,323L378,321L378,320L378,319L378,318L378,317L377,316L377,315L376,314L376,313L376,312L376,311L375,310L375,309L374,307L374,306L374,305L373,303L373,302L372,300L372,299L371,297L371,296L371,295L371,294L370,292L370,291L369,290L369,288L369,287L369,285L368,283L368,281L367,279L367,276L366,273L366,270L366,267L366,264L366,260L366,253L379,226" stroke-opacity="1" stroke-width="1" stroke-linecap="round" stroke-linejoin="round" style="-webkit-tap-highlight-color: rgba(0, 0, 0, 0); stroke-opacity: 1; stroke-linecap: round; stroke-linejoin: round; -webkit-user-select: text;"></path><path fill="none" stroke="#000000" d="M365,332L358,332L356,329L354,327L352,324L349,321L347,319L344,316L342,313L339,310L337,307L335,303L333,299L332,294L331,290L330,287L328,283L327,279L327,275L326,271L326,267L325,263L325,260L325,255L325,251L325,247L325,243L327,239L328,234L331,229L333,224L335,219L338,215L342,211L347,206L351,201L357,195L362,190L368,186L374,181L380,177L385,173L389,169L393,165L395,163L396,160L398,158L399,156L399,155L399,154L398,154L396,154L395,154L394,154L392,154L391,153L389,151L387,150L385,148L383,145L381,143L378,140L376,136L373,134L369,130L366,127L364,123L361,120L359,117L356,114L354,112L352,110L350,110L349,110L348,110L347,110L346,112L344,115L343,117L340,121L337,124L332,130L327,135L323,141L317,146L311,152L305,159L299,165L293,170L288,175L284,180L279,183L277,186L275,188L274,189L274,190L273,190L274,190L276,191L278,192L281,194L285,197L291,201L296,205L301,209L308,214L313,219L319,223L323,227L327,231L330,233L333,235L335,236L336,237L337,238L338,238L338,236L339,235L340,234L341,231L343,229L346,226L351,221L357,216L365,210L373,204L381,197L390,190L400,183L408,177L417,171L423,166L428,163L432,161L436,159L438,158L440,156L441,156L442,155L442,154L442,153L442,152L442,151L442,149L442,147L442,145L442,143L442,140L440,138L439,135L438,133L436,130L434,128L433,125L431,122L429,119L427,117L425,114L422,112L420,110L417,109L415,107L412,106L410,105L408,103L405,102L403,100L401,98L399,96L398,95L396,93L395,92L393,91L393,90L392,90L391,89L390,89L389,89L388,89L387,89L386,89L385,89L383,89L380,89L377,90L372,92L366,94L359,96L351,100L343,103L335,106L328,110L323,113L318,117L315,120L311,125L308,129L305,133L303,138L300,142L297,147L294,152L292,156L289,162L286,168L283,174L280,180L277,186L274,192L271,198L269,203L266,208L263,213L260,218L257,221L254,225L252,228L249,231L246,233L243,234L241,236L239,236L238,237L237,238L238,238" stroke-opacity="1" stroke-width="1" stroke-linecap="round" stroke-linejoin="round" style="-webkit-tap-highlight-color: rgba(0, 0, 0, 0); stroke-opacity: 1; stroke-linecap: round; stroke-linejoin: round; -webkit-user-select: text;"></path><path fill="none" stroke="#000000" d="M298,209L294,213L294,215L294,218L293,220L293,223L291,226L289,230L286,234L283,238L279,241L276,245L272,249L268,252L263,255L259,258L254,261L249,264L243,267L237,270L232,272L225,276L220,279L215,283L210,287L206,291L202,294L199,298L196,302L194,307L191,311L189,316L188,321L186,325L186,329L185,333L184,336L184,338L183,339L183,341L182,341L182,342L183,342L184,342L186,343L187,343L189,345L191,348L193,350L194,353L196,356L197,359L199,362L199,365L200,367L201,368L201,370L202,371L202,372L203,372L204,372L205,372L206,372L207,372L208,371L211,369L216,366L223,363L229,360L236,356L243,352L250,349L257,345L264,343L269,341L273,338L276,337L279,336L280,335L280,334L280,333L280,332L280,331L280,328L278,326L276,323L273,319L269,315L266,311L262,307L257,302L252,297L247,291L242,285L237,278L233,271L228,265L225,260L221,255L218,250L215,247L213,244L211,243L209,242L208,242L206,242L204,243L202,245L200,247L196,251L191,255L186,259L179,264L171,270L163,276L157,281L151,286L146,289L142,292L139,294L137,296L136,297L136,298L136,299L138,300L139,301L141,303L144,306L148,311L152,316L157,322L163,330L168,337L173,343L178,350L183,357L187,362L191,368L195,372L198,375L200,377L202,379L203,379L204,379L205,379L206,379L206,377L206,375L206,373L206,371L206,370L206,368L206,366L206,363L206,360L206,357L208,352L210,347L212,342L215,338L217,333L220,330L223,326L227,323L230,320L233,318L237,315L240,313L245,311L248,309L252,306L254,304L258,301L261,299L263,297L266,294L268,292L269,290L271,287L272,285L273,282L274,279L274,275L275,272L276,268L276,264L277,260L277,256L277,252L277,248L277,244L277,241L277,240L277,238" stroke-opacity="1" stroke-width="1" stroke-linecap="round" stroke-linejoin="round" style="-webkit-tap-highlight-color: rgba(0, 0, 0, 0); stroke-opacity: 1; stroke-linecap: round; stroke-linejoin: round; -webkit-user-select: text;"></path><path fill="none" stroke="#000000" d="M266,321L270,316L272,316L274,316L276,314L279,313L282,311L286,308L288,304L291,299L293,295L295,291L296,287L297,282L298,275L298,270L298,265L298,260L298,255L298,251L298,247L298,243L296,239L293,235L290,231L287,227L284,223L281,219L278,215L274,212L271,209L267,206L263,203L258,200L254,197L250,194L245,192L241,189L236,187L231,185L227,183L222,180L218,178L213,176L209,173L205,170L201,167L198,165L194,161L191,158L188,155L184,151L182,148L179,144L177,141L174,138L173,135L171,133L169,131L169,130L168,129L167,129L167,128L166,128L166,127L167,127L168,125L171,124L174,122L178,119L184,115L190,110L198,105L205,100L211,95L218,91L222,89L225,87L227,86L228,86L229,86L229,87L229,88L229,90L229,92L229,94L229,97L229,100L231,105L233,110L234,115L236,121L237,126L239,131L240,135L242,139L243,143L243,146L243,149L243,151L243,152L243,153L243,154L243,155L241,156L239,156L236,158L233,159L230,161L226,164L223,167L219,170L214,175L211,179L206,183L203,187L200,190L197,193L195,195L194,197L192,197L191,197L190,197L189,197L187,196L186,193L184,191L182,188L180,186L177,183L174,180L171,176L168,173L165,169L162,166L159,163L156,161L152,158L150,156L147,154L145,152L143,150L140,149L139,147L137,146L136,144L135,144L135,143L134,142L134,141L134,140L134,139L134,138L134,136L134,133L135,130L136,127L136,122L137,116L137,111L138,107L138,102L138,98L138,93L138,89L138,85L138,83L138,81L138,79L138,78L138,77L138,76L139,76L140,76L141,76L142,76L144,76L146,76L148,76L152,76L155,76L160,76L165,76L169,76L174,76L179,76L183,76L187,76L191,77L196,78L200,80L205,82L208,84L213,87L217,89L220,91L225,93L229,96L233,98L236,100L240,102L245,103L249,104L252,105L256,106L260,107L264,107L269,107L273,108L277,108L281,108L285,108L289,108L293,107L297,105L301,103L306,100L310,97L313,93L316,90L319,86L321,83L323,80L325,78L326,76L327,74L328,74L328,73" stroke-opacity="1" stroke-width="1" stroke-linecap="round" stroke-linejoin="round" style="-webkit-tap-highlight-color: rgba(0, 0, 0, 0); stroke-opacity: 1; stroke-linecap: round; stroke-linejoin: round; -webkit-user-select: text;"></path><path fill="none" stroke="#000000" d="M261,57L264,59L266,59L268,60L271,61L274,62L277,62L281,63L285,63L290,63L294,64L298,64L303,64L307,64L311,64L315,63L320,61L325,59L330,57L337,54L343,51L348,49L355,45L361,42L368,40L375,37L383,35L389,34L396,33L401,32L406,32L410,32L412,32L413,32L414,32L415,32L415,33L415,34L414,36L414,37L413,39L412,40L412,42L411,46L410,50L408,56L407,62L405,70L403,76L401,83L399,89L398,96L395,101L394,105L393,109L392,112L392,114L391,115L390,115L388,115L387,115L386,112L384,110L382,108L380,105L377,102L373,98L369,93L364,88L361,84L356,79L352,74L347,69L343,64L339,60L335,56L332,54L330,51L327,49L326,47L325,45L325,44L325,43L325,42L325,40L327,39L329,37L331,35L334,33L337,30L341,27L344,24L348,20L352,17L357,13L359,10L362,8L365,7L367,6L369,6L371,6L372,7L373,8L374,10L376,11L377,12L379,15L382,18L386,22L391,27L397,33L403,39L410,46L416,53L423,60L429,67L435,73L441,79L446,85L451,89L455,93L459,97L461,100L463,102L465,104L466,105L466,106L466,107L466,108L466,109L464,109L463,110L461,110L460,111L458,112L456,113L454,114L452,115L450,116L448,118L445,120L442,122L438,125L434,128L429,131L424,134L418,137L413,141L409,144L405,146L402,148L398,150L396,151L394,152L393,153L393,154L392,154L392,155L391,155L391,156L391,157L392,158L393,158L393,159L394,160L395,161L396,162L397,164L398,166L399,168L400,170L403,173L405,176L407,180L410,183L412,185L416,189L420,192L425,195L430,200L435,203L440,207L445,210L450,213L454,217L459,221L463,224L467,229L471,232L474,236L477,239L480,243L483,247L485,251L487,255L489,259L490,263L492,266L493,270L493,274L494,278L494,282L494,285L494,288L494,292L494,294L494,298L494,302L494,305L493,309L492,315L490,327" stroke-opacity="1" stroke-width="1" stroke-linecap="round" stroke-linejoin="round" style="-webkit-tap-highlight-color: rgba(0, 0, 0, 0); stroke-opacity: 1; stroke-linecap: round; stroke-linejoin: round; -webkit-user-select: text;"></path><path fill="none" stroke="#000000" d="M505,222L507,226L511,229L515,231L518,235L522,239L525,244L527,250L529,256L530,263L531,270L531,278L531,286L531,293L531,300L530,307L529,313L528,319L527,326L525,333L524,339L523,345L522,353L521,360L520,367L519,377L519,384L519,392L519,397L519,401L519,405L519,408L519,409L519,410L519,411L519,412L519,413L521,413L524,413L530,413L537,412L546,411L555,411L564,411L571,410L578,409L584,409L589,408L592,407L595,406L597,406L597,405L598,404L599,402L599,400L599,398L599,394L600,391L600,386L600,381L601,375L602,370L603,364L604,358L605,353L606,348L607,344L607,341L607,339L607,338L607,337L607,336L606,336L604,336L602,336L599,336L595,337L589,338L583,339L574,341L566,342L557,344L549,345L540,347L533,348L525,349L518,350L514,350L509,350L506,351L504,351L502,352L502,353L502,354L502,355L502,357L502,359L504,362L505,365L507,371L509,379L512,387L515,396L517,406L520,415L522,423L524,432L527,440L529,448L530,454L532,460L532,464L533,467L534,469L534,470L534,471L534,472L534,470L534,468L534,466L535,463L535,460L536,457L536,452L537,448L538,442L540,434L541,425L544,416L546,403L548,392L550,379L551,370L553,360L555,349L556,339L557,327L558,319L559,312L559,305L559,300L559,297L560,294L560,292L560,291L561,291L561,290L562,290L564,289L566,288L568,287L570,286L574,284L577,282L580,280L583,279L587,276L590,274L595,272L599,270L602,268L607,266L610,264L614,263L617,262L621,260L624,259L628,257L631,255L634,254L637,252L640,250L642,247L645,245L647,242L649,240L651,237L652,235L653,232L655,229L656,226L656,222L657,219L657,216L658,213L658,209L658,206L658,202L658,197L658,192L658,187L658,182L659,176L659,170L660,165L660,160L661,156L662,152L663,148L663,145L664,144L664,142L665,142L667,142" stroke-opacity="1" stroke-width="1" stroke-linecap="round" stroke-linejoin="round" style="-webkit-tap-highlight-color: rgba(0, 0, 0, 0); stroke-opacity: 1; stroke-linecap: round; stroke-linejoin: round; -webkit-user-select: text;"></path><path fill="none" stroke="#000000" d="M596,317L593,314L593,312L595,309L598,305L603,300L607,297L613,292L620,289L627,285L635,282L641,278L648,274L655,271L661,268L666,265L670,261L675,258L679,253L682,249L685,245L686,241L687,237L688,232L688,227L688,222L688,218L688,213L687,209L685,203L682,197L680,192L676,187L673,183L669,178L665,173L660,168L656,165L651,162L647,160L643,158L639,156L636,155L632,154L629,153L626,153L624,152L622,151L621,151L620,151L619,150L619,149L619,148L619,147L621,145L622,143L624,141L627,137L631,134L635,129L639,123L643,117L648,111L652,106L657,101L661,96L665,90L668,87L670,85L672,83L673,83L674,83L675,83L677,83L678,84L680,85L683,87L687,88L692,91L699,94L706,98L713,101L720,105L726,107L731,111L736,114L738,116L740,117L741,119L742,120L742,122L742,123L742,124L741,125L740,126L738,128L736,130L733,132L730,136L725,141L720,147L714,155L708,163L702,172L695,180L689,190L683,199L678,207L674,212L671,217L668,221L667,224L665,225L664,226L663,226L661,226L659,224L657,221L654,219L650,215L646,212L642,209L638,206L633,201L627,196L622,190L617,186L612,181L607,175L604,171L601,167L599,163L597,161L597,158L597,157L597,156L599,156L602,156L604,155L607,155L612,155L619,155L629,155L640,155L653,155L667,155L681,155L696,155L709,156L722,157L732,158L742,159L748,159L753,160L757,161L758,161L760,161L760,162L760,161L760,160L760,159L760,157L760,156L760,153L760,150L760,146L760,142L760,138L760,133L761,128L762,121L762,116L763,111L764,105L764,98L764,92L765,88L765,84L765,81L765,79L765,77" stroke-opacity="1" stroke-width="1" stroke-linecap="round" stroke-linejoin="round" style="-webkit-tap-highlight-color: rgba(0, 0, 0, 0); stroke-opacity: 1; stroke-linecap: round; stroke-linejoin: round; -webkit-user-select: text;"></path><path fill="none" stroke="#000000" d="M787,154L788,153L788,149L788,144L788,139L788,134L788,126L787,117L787,111L787,103L787,93L787,85L786,78L786,70L785,64L785,60L784,56L784,53L784,51L784,50L784,49L784,48L784,47L786,47L788,46L791,46L794,45L797,44L801,43L806,42L810,41L814,40L818,39L821,38L824,38L826,38L828,38L830,38L831,38L832,38L832,39L833,40L833,42L833,44L833,46L834,49L835,52L837,56L839,61L840,67L842,72L844,76L845,80L846,84L846,87L847,89L847,90L847,91L847,92L845,92L843,92L841,92L838,92L835,93L830,93L824,94L818,95L811,97L804,98L797,100L790,101L783,102L776,103L770,105L763,105L758,106L753,106L749,107L746,107L744,107L743,107L742,107L742,105L742,103L742,101L742,98L742,94L742,90L742,86L742,82L742,77L741,71L741,65L741,60L740,55L740,50L739,45L739,40L739,37L739,33L739,31L739,29L739,28L740,28L741,28L743,28L744,28L746,28L748,28L751,29L755,32L762,36L771,42L781,47L791,54L801,60L812,68L821,75L830,80L837,87L843,91L852,100L855,102L857,104L858,105L859,106L859,107L859,108L859,109L859,110L859,111L859,112L859,113L858,115L857,116L856,118L855,119L854,122L852,124L851,126L850,128L848,130L846,132L844,134L841,137L838,140L834,144L831,147L827,151L823,155L819,159L815,163L810,168L806,172L802,176L799,180L797,183L794,187L792,190L791,194L789,198L788,202L787,206L785,211L784,215L784,220L784,225L783,230L783,235L783,240L783,244L783,250L785,254L786,258L788,262L789,266L791,270L792,274L794,278L795,282L796,285L797,289L798,293L799,297L799,300L800,302L801,304" stroke-opacity="1" stroke-width="1" stroke-linecap="round" stroke-linejoin="round" style="-webkit-tap-highlight-color: rgba(0, 0, 0, 0); stroke-opacity: 1; stroke-linecap: round; stroke-linejoin: round; -webkit-user-select: text;"></path><path fill="none" stroke="#000000" d="M835,194L830,198L828,202L827,207L825,212L823,216L822,221L822,227L821,232L821,237L821,243L821,248L822,254L824,259L825,263L827,268L829,273L831,278L832,284L833,288L833,295L833,302L833,308L833,314L832,319L830,325L828,329L826,332L825,335L824,337L823,338L822,339L822,340L821,340L819,339L818,338L817,337L815,336L812,334L810,332L806,330L803,326L799,324L794,321L789,318L784,315L780,312L776,309L772,307L769,304L766,302L764,300L764,299L763,297L763,296L763,295L765,294L768,292L773,290L782,286L793,280L804,274L815,268L825,264L835,260L843,258L850,255L856,253L860,251L863,249L865,248L866,248L866,249L867,251L867,253L868,254L869,256L870,259L872,262L874,267L876,272L879,279L881,284L883,290L886,295L887,299L889,303L889,306L889,308L889,309L889,310L889,311L889,312L886,314L884,315L879,317L874,321L866,326L857,331L849,336L840,341L831,346L823,351L816,355L809,359L803,361L799,363L796,364L794,365L793,365L792,365L792,364L792,362L792,360L792,358L792,354L794,348L796,340L799,329L802,319L806,309L810,298L815,289L820,278L825,268L829,258L833,248L837,241L840,234L843,227L845,221L846,217L847,214L848,211L848,209L848,208L849,208L850,208L851,208L853,208L855,208L858,208L862,208L866,208L871,208L877,208L884,208L891,208L899,208L907,208L917,208L926,208L940,208L954,208L968,208" stroke-opacity="1" stroke-width="1" stroke-linecap="round" stroke-linejoin="round" style="-webkit-tap-highlight-color: rgba(0, 0, 0, 0); stroke-opacity: 1; stroke-linecap: round; stroke-linejoin: round; -webkit-user-select: text;"></path></svg>