<svg height="906" version="1.1" width="768" xmlns="http://www.w3.org/2000/svg" xmlns:xlink="http://www.w3.org/1999/xlink" style="overflow: hidden; position: relative; -webkit-user-select: text;"><desc style="-webkit-tap-highlight-color: rgba(0, 0, 0, 0); -webkit-user-select: text;">Created with Raphaël 2.2.0</desc><defs style="-webkit-tap-highlight-color: rgba(0, 0, 0, 0); -webkit-user-select: text;"></defs><path fill="none" stroke="#000000" d="M361,683L355,671L353,667L351,663L348,656L344,651L341,645L337,638L334,632L330,625L327,618L323,611L319,604L316,599L314,595L312,591L310,588L309,586L309,585L308,584L308,583L308,582L309,582L312,582L317,582L322,582L328,584L334,584L342,585L349,586L354,587L359,587L364,587L368,588L370,589L372,589L373,589L374,589L374,590L374,591L374,592L374,593L374,594L373,596L371,597L369,600L366,603L363,607L359,611L356,616L352,621L348,624L346,628L344,631L341,633L339,636L337,638L336,640L335,640L335,641L334,642L333,642L332,642L330,641L327,638L322,633L315,626L309,618L302,609L296,601L292,595L287,589L284,584L281,580L280,577L278,575L278,574L278,573L278,572L278,571L278,570L278,569L280,567L282,565L285,562L289,559L294,556L298,553L303,549L307,546L312,544L315,542L318,540L321,538L323,537L324,536L325,536L326,536L327,536L328,536L329,536L330,538L331,539L332,541L334,543L334,545L336,547L337,550L338,552L339,555L341,558L342,561L344,564L345,567L346,571L348,574L350,577L352,579L353,582L356,584L357,587L359,589L361,591L364,593L367,596L370,598L373,600L375,602L378,604L380,605L383,606L385,607L387,609L390,609L393,610L396,610L399,611L402,611L405,611L407,611L410,611L412,611L414,611L417,611L419,611L422,611L424,610L427,609L429,608L431,607L434,606L436,604L438,603L441,601L443,600L445,599L447,597L449,596L451,594L453,592L455,591L456,589L458,588L460,587L461,585L463,584L466,582L472,579L481,577L489,575" stroke-opacity="1" stroke-width="5" stroke-linecap="round" stroke-linejoin="round" style="-webkit-tap-highlight-color: rgba(0, 0, 0, 0); stroke-opacity: 1; stroke-linecap: round; stroke-linejoin: round; -webkit-user-select: text;"></path><path fill="none" stroke="#000000" d="M458,549L464,544L466,543L468,541L471,540L473,538L476,537L478,536L480,536L482,535L485,535L487,534L489,534L491,534L494,534L496,534L499,534L502,534L504,534L507,534L510,534L512,534L515,534L517,534L520,534L522,534L525,534L528,534L530,534L533,533L535,533L537,533L539,532L540,531L542,530L543,529L545,528L546,527L547,526L548,526L549,525L550,525L550,524L551,524L551,523L551,522L551,521L550,519L549,517L547,514L545,512L542,509L539,505L536,501L533,498L530,494L528,491L524,487L521,484L519,481L516,478L513,475L511,473L509,471L507,469L505,467L503,465L502,464L500,463L499,462L499,461L498,461L498,463L498,466L499,473L503,481L508,491L511,500L516,510L520,519L525,529L530,539L535,548L538,555L541,560L544,566L545,570L548,572L548,575L549,575L550,576L549,576L548,576L546,575L543,574L540,573L536,572L531,570L526,568L521,566L516,564L511,562L506,560L501,558L496,555L492,554L488,552L483,550L479,548L474,547L469,545L465,544L461,543L457,542L454,541L451,540L448,539L446,538L445,538L443,537L443,536L442,536L442,535L442,534L442,533L442,531L442,529L442,526L442,523L442,520L442,516L443,511L444,507L446,503L446,499L447,495L448,492L449,489L449,486L450,484L451,482L451,481L452,480L452,479L453,479L453,478L454,478L455,478L456,478L457,477L458,477L459,477L460,477L462,476L463,476L465,475L467,475L470,474L472,473L475,472L478,471L482,470L485,469L488,468L491,468L494,467L496,466L499,466L501,465L503,465L505,465L507,464L509,463L511,463L513,463L515,462L517,461L519,461L521,460L523,460L524,459L526,459L528,458L529,458L531,458L533,457L534,457L536,456L537,456L539,456L540,455L541,454L542,454L543,453L544,453L545,453L546,453L547,452L548,452L549,452L550,451L551,451L552,451L553,451L554,451L555,450L556,450L557,450L558,449L559,449L560,449L561,449L562,449L563,449L564,449L565,449L566,449L567,449L568,449L569,449L570,449L571,449L572,449L573,449L574,449L575,449L576,450L577,450L577,451L578,451L579,451L580,452L581,453L582,453L583,454L584,454L584,455L585,456L586,456L587,457L587,458L588,458L588,459L589,460L590,461L591,462L591,463L592,463L592,464L592,465L593,466L593,467L594,468L594,470L595,470L595,471L595,473L596,474L596,475L596,477L597,485" stroke-opacity="1" stroke-width="5" stroke-linecap="round" stroke-linejoin="round" style="-webkit-tap-highlight-color: rgba(0, 0, 0, 0); stroke-opacity: 1; stroke-linecap: round; stroke-linejoin: round; -webkit-user-select: text;"></path><path fill="none" stroke="#000000" d="M570,492L566,487L566,484L564,479L561,472L556,463L550,453L543,443L536,431L530,422L524,414L521,408L519,404L517,402L516,400L516,399L515,399L514,399L513,399L510,399L506,399L500,399L494,399L488,399L481,399L477,399L473,399L470,399L468,399L466,399L465,398L464,398L463,398L463,399L463,400L463,402L463,405L463,409L464,413L465,417L465,421L466,424L467,426L467,429L468,430L468,431L469,431L470,431L471,431L472,431L475,430L479,428L485,425L491,421L498,417L504,413L511,409L515,407L521,404L524,402L528,400L532,399L534,398L536,397L537,397L538,396L538,395L538,394L538,393L538,391L537,389L535,385L533,381L531,376L528,371L526,366L523,361L522,358L520,354L519,351L518,349L516,346L516,345L515,343L515,342L514,341L513,342L513,343L512,344L511,345L510,346L508,348L505,350L503,351L500,353L497,356L494,358L492,360L489,361L485,363L482,365L480,367L476,368L473,370L470,372L468,373L466,375L464,376L463,377L461,378L460,378L460,379L459,379L458,379L458,380L458,381L458,382L458,383L458,384L457,385L457,386L456,387L455,388L454,390L453,391L452,392L451,393L450,395L448,396L447,397L446,399L443,401L441,402L439,403L438,404L436,406L434,407L431,407L429,407L427,408L424,408L421,408L419,408L417,408L414,408L411,408L409,408L406,407L403,406L400,405L397,404L395,402L392,401L390,400L388,398L386,397L384,395L382,394L380,393L378,392L376,391L374,390L372,389L370,388L368,388L366,387L364,387L363,387L361,386L359,386L357,385L355,385L353,385L351,385L349,385L348,385L346,385L344,385L342,385L341,385L339,385L338,385L336,385L334,385L333,385L332,386L331,386L331,387L330,387" stroke-opacity="1" stroke-width="5" stroke-linecap="round" stroke-linejoin="round" style="-webkit-tap-highlight-color: rgba(0, 0, 0, 0); stroke-opacity: 1; stroke-linecap: round; stroke-linejoin: round; -webkit-user-select: text;"></path><path fill="none" stroke="#000000" d="M385,359L383,361L383,359L381,358L380,356L378,354L376,353L374,351L372,350L370,349L368,348L366,347L364,346L363,346L362,345L361,345L359,345L358,345L356,345L354,345L352,345L351,345L348,345L347,345L345,345L343,346L341,347L339,348L337,349L336,350L334,351L333,352L332,354L331,355L329,357L328,358L327,360L326,362L324,363L323,366L322,367L321,369L319,371L318,373L317,376L315,378L314,380L312,383L311,385L309,387L307,388L305,390L303,392L300,393L297,395L293,395L289,397L285,398L282,399L278,400L276,401L274,402L273,402L272,403L271,403L271,404L270,404L269,404L268,404L268,403L267,401L265,397L262,391L259,384L256,377L252,368L249,361L246,354L244,350L242,346L240,343L239,341L239,340L239,339L239,338L239,337L242,336L244,334L248,332L252,329L256,326L259,324L263,322L265,319L267,318L269,317L270,317L271,317L272,316L273,316L274,316L275,316L276,317L277,317L278,319L279,321L281,324L284,329L288,334L292,339L296,345L300,351L304,356L308,362L312,366L315,371L319,375L322,378L324,381L326,384L327,385L328,387L328,388L328,389L328,390L328,391L327,392L325,394L322,396L319,398L314,401L310,405L306,409L302,412L299,415L296,418L293,421L291,423L289,425L287,426L285,428L283,429L282,430L281,431L280,431L280,432L279,432L278,432L278,431L277,431L277,429L277,427L277,424L277,419L277,414L277,407L277,400L277,392L277,382L278,374L279,368L280,361L282,353L283,348L284,342L285,338L286,333L288,329L288,326L289,323L290,321L290,319L291,317L291,315L292,314L292,313L293,312L293,310L293,309L293,308L293,307L293,306L292,306L290,306L286,306L282,305L276,305L270,304L264,304L259,303L254,302L250,302L245,302L239,301L234,301L230,300L226,300L223,300L219,300L216,300L214,299L212,299L210,299L209,299L208,299L207,298" stroke-opacity="1" stroke-width="5" stroke-linecap="round" stroke-linejoin="round" style="-webkit-tap-highlight-color: rgba(0, 0, 0, 0); stroke-opacity: 1; stroke-linecap: round; stroke-linejoin: round; -webkit-user-select: text;"></path><path fill="none" stroke="#000000" d="M276,274L271,272L267,272L261,272L256,271L249,270L242,269L235,269L230,268L225,268L219,268L215,267L212,267L209,267L207,267L206,267L205,267L204,267L203,267L202,267L202,268L202,269L201,271L201,274L200,278L198,284L197,290L196,297L195,305L194,312L193,320L193,327L193,333L192,339L192,344L192,347L192,350L191,352L191,354L191,355L190,355L188,355L187,355L186,355L184,355L182,355L178,355L173,353L165,350L158,348L153,346L147,344L143,342L139,341L135,339L133,339L132,338L131,337L130,337L130,336L129,336L129,335L129,334L128,332L128,329L128,325L127,318L127,310L126,301L126,291L125,282L125,274L125,266L124,259L124,254L124,250L124,247L124,246L124,245L124,244L125,244L127,244L130,244L134,244L138,244L143,244L148,244L153,244L158,244L163,244L166,244L168,244L169,245L170,245L171,245L171,246L171,247L171,248L170,249L169,251L166,253L163,256L158,260L153,264L148,269L143,274L138,278L135,283L130,287L127,291L124,294L122,298L120,300L118,302L117,304L115,305L114,305L113,305L113,306L112,306L111,306L110,306L109,306L108,305L107,305L106,303L105,301L103,299L102,297L101,293L100,289L99,284L98,279L98,273L97,267L97,262L97,257L97,252L97,248L97,244L98,241L100,237L101,235L103,232L105,230L107,228L110,226L112,224L115,222L118,221L120,220L124,218L127,217L130,217L134,216L137,215L142,215L146,215L150,214L154,214L158,214L161,214L165,214L169,214L172,214L176,214L179,213L182,213L186,213L188,212L191,212L194,212L197,212L200,211L202,210L204,209L206,208L207,207L210,205L211,204L213,203L215,201L216,200L217,198L219,197L220,195L221,194L222,193L222,191L223,190L223,189L224,188" stroke-opacity="1" stroke-width="5" stroke-linecap="round" stroke-linejoin="round" style="-webkit-tap-highlight-color: rgba(0, 0, 0, 0); stroke-opacity: 1; stroke-linecap: round; stroke-linejoin: round; -webkit-user-select: text;"></path><path fill="none" stroke="#000000" d="M232,229L234,228L237,228L240,228L243,226L246,225L249,223L251,221L254,220L256,217L258,216L260,214L261,212L263,210L265,208L266,207L268,204L270,201L273,199L276,196L278,194L281,191L285,189L288,187L290,186L293,185L296,184L299,183L302,183L304,182L307,182L310,182L312,182L314,182L316,182L317,182L318,182L319,182L320,182L320,183L321,184L321,185L322,186L322,189L324,193L326,198L327,203L330,210L332,217L334,223L336,229L339,235L341,240L344,245L346,249L347,251L348,253L348,254L349,254L348,254L346,254L342,254L339,254L334,254L330,254L325,254L319,253L314,253L311,252L308,252L305,252L303,252L302,251L301,251L300,251L299,250L299,249L299,248L299,247L299,245L299,243L299,239L299,237L299,234L299,231L299,229L299,227L299,225L299,224L299,223L299,222L299,221L300,220L301,220L302,220L305,219L308,219L312,218L318,217L324,216L329,215L336,214L342,212L348,212L353,210L357,210L362,208L366,208L369,207L372,206L374,206L376,205L377,205L378,205L379,205L380,205L380,206L380,208L381,210L382,212L383,216L385,223L388,229L391,236L393,241L396,247L398,252L400,256L402,259L403,261L404,264L405,265L405,266L405,267L405,268L405,269L403,271L398,275L394,277L391,280L387,282L384,284L381,285L378,287L375,288L372,290L370,291L368,292L367,293L366,293L365,293L365,292L365,291L365,290L365,288L367,286L369,282L373,277L376,271L380,265L384,259L388,253L392,247L396,242L400,236L404,230L407,226L411,221L414,216L417,212L420,208L422,205L425,201L427,198L429,196L430,194L431,193L432,192L433,191L433,190" stroke-opacity="1" stroke-width="5" stroke-linecap="round" stroke-linejoin="round" style="-webkit-tap-highlight-color: rgba(0, 0, 0, 0); stroke-opacity: 1; stroke-linecap: round; stroke-linejoin: round; -webkit-user-select: text;"></path><path fill="none" stroke="#000000" d="M391,142L394,140L399,138L404,135L409,132L416,128L421,125L427,121L432,118L438,115L442,113L446,111L449,110L451,109L452,108L453,108L454,108L455,108L456,110L458,114L461,119L465,125L469,131L473,137L477,142L480,147L482,150L484,154L486,157L487,158L487,159L487,160L486,160L483,159L478,157L474,155L471,153L466,149L461,146L455,142L447,135L439,129L431,123L424,115L416,109L409,102L404,98L400,94L397,92L395,90L394,90L393,90L393,91L392,92L391,94L390,96L387,101L385,107L382,113L380,119L378,124L376,129L375,133L374,137L373,139L372,141L372,142L371,144L372,144L375,144L379,144L385,146L394,147L402,149L409,151L417,152L424,154L429,155L434,156L437,156L440,156L442,156L443,156L444,156L444,154L444,153L444,152L444,150L444,149L444,146L444,143L444,140L444,135L444,130L444,125L444,118L444,113L444,108L445,104L446,100L448,96L450,93L452,91L454,88L456,86L459,85L461,83L464,81L467,81L470,80L473,79L476,79L479,79L482,79L486,79L489,79L493,79L497,80L501,81L505,83L508,85L511,87L514,89L516,92L519,95L521,97L524,100L527,103L531,106L534,110L537,112L540,116L544,119L548,122L551,125L554,127L558,129L561,130L564,132L567,132L570,133L572,134L575,134L577,134L579,134" stroke-opacity="1" stroke-width="5" stroke-linecap="round" stroke-linejoin="round" style="-webkit-tap-highlight-color: rgba(0, 0, 0, 0); stroke-opacity: 1; stroke-linecap: round; stroke-linejoin: round; -webkit-user-select: text;"></path><path fill="none" stroke="#000000" d="M455,290L458,288L461,286L466,282L471,277L477,272L483,266L489,261L495,256L502,251L507,247L511,244L515,242L517,240L519,239L520,238L521,238L521,239L523,245L526,253L529,260L534,271L538,280L543,288L547,295L552,302L555,307L557,310L558,312L558,313L558,314L557,314L551,314L546,314L539,314L532,314L526,314L521,315L517,317L513,318L510,319L507,321L505,322L503,324L502,324L501,324L500,324L500,323L500,320L500,314L500,305L500,294L500,283L500,271L501,261L502,251L502,244L503,238L503,233L504,229L504,226L504,224L504,223L504,222L502,222L498,222L493,222L489,222L484,224L478,225L472,226L468,226L463,227L459,228L455,229L453,229L451,229L450,229L449,230L449,231L449,232L449,234L449,239L449,247L450,254L452,263L453,271L455,278L455,284L457,288L457,292L458,295L458,298L458,299L458,300L459,300L460,300L461,300L463,299L467,296L473,292L482,287L490,281L500,276L509,270L519,264L527,259L535,255L542,251L548,247L553,244L557,242L560,240L562,239L565,237L566,237L567,236L569,235L570,235L572,234L573,234L575,234L577,233L578,233L579,232L580,232L581,232L582,232L583,232L584,232L585,232L586,231L587,231L588,231L589,231L590,231L592,231L594,231L596,231L597,231L598,231L599,232L600,232L601,233L603,233L604,234L605,235L606,236L607,237L609,237L610,238L611,239L612,240L613,241L614,242L616,243L616,244L618,245L618,247L620,248L621,250L622,251L623,254L624,256L627,261L628,267L628,273" stroke-opacity="1" stroke-width="5" stroke-linecap="round" stroke-linejoin="round" style="-webkit-tap-highlight-color: rgba(0, 0, 0, 0); stroke-opacity: 1; stroke-linecap: round; stroke-linejoin: round; -webkit-user-select: text;"></path><path fill="none" stroke="#000000" d="M153,486L154,489L155,491L157,494L159,499L162,506L164,513L166,521L168,531L169,540L171,548L172,555L173,560L174,565L174,567L175,570L175,571L176,571L177,571L178,571L179,570L182,568L187,564L195,559L203,553L211,546L219,541L225,536L230,532L234,529L237,527L238,525L239,524L238,524L235,524L232,524L226,524L216,524L206,526L195,530L185,534L175,538L166,543L159,546L153,550L148,553L145,554L142,555L140,555L139,555L138,555L137,555L136,553L135,551L133,549L131,546L127,542L125,538L121,534L117,530L114,526L111,522L109,519L107,516L105,514L105,512L104,511L104,510L104,509L104,508L106,507L112,505L123,499L135,492L147,485L157,480L168,476L176,473L186,471L193,470L199,470L204,470L207,470L211,470L213,470L215,472L217,474L219,477L222,480L224,485L226,490L227,497L229,504L230,511L231,519L231,526L231,533L231,539L231,546L230,552L228,558L225,563L222,567L220,570L216,575L213,578L210,582L206,586L203,590L200,594L196,597L194,601L191,605L189,609L187,613L186,617L184,621L183,624L182,628L182,632L181,635L181,638L181,641L181,644L182,647L183,649L185,651L186,653L188,655L191,657L193,657L194,658L196,659L197,659L198,659L198,661" stroke-opacity="1" stroke-width="5" stroke-linecap="round" stroke-linejoin="round" style="-webkit-tap-highlight-color: rgba(0, 0, 0, 0); stroke-opacity: 1; stroke-linecap: round; stroke-linejoin: round; -webkit-user-select: text;"></path><path fill="none" stroke="#000000" d="M237,615L237,618L235,621L232,625L229,627L227,631L224,633L222,637L220,642L219,646L218,650L217,655L217,659L217,663L217,667L217,670L218,674L220,677L222,680L224,683L227,685L229,688L232,691L235,694L238,697L241,700L244,703L246,706L249,708L251,711L253,715L254,718L256,721L257,724L258,728L259,731L259,734L260,737L260,740L260,742L260,743L260,744L260,745L259,745L249,745L242,745L237,745L230,745L224,747L220,749L216,750L214,752L211,752L210,753L208,754L207,754L207,752L208,746L212,736L218,725L224,716L230,708L236,701L241,696L245,692L247,690L249,689L250,688L251,687L252,687L253,687L254,689L256,691L260,694L265,698L271,703L276,707L280,711L283,714L286,717L289,720L291,722L292,724L293,726L294,728L294,729L294,731L294,733L294,734L292,736L287,740L282,744L276,748L269,753L263,759L257,763L254,767L250,769L247,772L245,774L244,774L242,774L239,774L232,770L223,762L215,755L210,750L206,746L203,742L200,738L197,734L194,728L191,722L187,716L185,712L183,708L181,705L181,703L180,701L180,700L181,700L182,699L185,699L193,697L202,694L212,691L222,688L232,684L240,682L248,678L255,675L262,673L267,670L271,669L274,667L276,667L277,666L278,666L278,665" stroke-opacity="1" stroke-width="5" stroke-linecap="round" stroke-linejoin="round" style="-webkit-tap-highlight-color: rgba(0, 0, 0, 0); stroke-opacity: 1; stroke-linecap: round; stroke-linejoin: round; -webkit-user-select: text;"></path><path fill="none" stroke="#000000" d="M261,687L266,689L269,689L273,689L279,688L287,686L295,685L301,684L306,683L312,682L315,682L318,681L320,681L321,681L322,681L323,682L324,683L324,685L327,689L329,694L331,699L334,705L336,711L337,715L339,719L341,723L341,726L343,728L344,730L344,733L344,734L344,735L344,736L344,737L342,737L340,739L337,742L334,746L329,751L325,757L322,761L318,765L315,768L312,771L310,773L309,774L308,774L307,774L306,774L304,767L302,759L300,749L300,742L300,734L300,728L300,722L300,715L300,707L300,698L300,689L300,682L300,676L300,670L300,666L300,664L300,662L300,661L302,661L306,662L312,664L321,665L330,667L339,669L348,671L356,672L363,674L369,676L374,678L377,680L380,682L382,684L383,686L384,688L384,689L384,691L384,693L384,695L383,698L383,701L381,704L379,709L376,714L372,720L368,725L365,730L361,735L358,740L355,744L353,747L350,751L348,755L347,759L346,763L346,767L345,772L345,776L345,780L345,785L346,789L347,793L349,796L351,800L353,803L356,806L358,808L361,810L363,812L366,813L368,814L370,815L373,815L376,816L379,816L381,816L385,816L388,816L391,816L395,815L398,814L401,812L404,808L408,805" stroke-opacity="1" stroke-width="5" stroke-linecap="round" stroke-linejoin="round" style="-webkit-tap-highlight-color: rgba(0, 0, 0, 0); stroke-opacity: 1; stroke-linecap: round; stroke-linejoin: round; -webkit-user-select: text;"></path><path fill="none" stroke="#000000" d="M364,773L366,774L369,774L373,776L378,778L382,779L388,781L393,782L398,782L403,782L407,782L411,782L415,782L420,781L424,780L429,778L434,776L438,775L442,774L445,772L447,772L448,772L450,771L451,771L450,768L447,760L445,754L443,747L441,742L440,739L438,735L438,733L437,730L437,728L436,727L436,725L435,724L434,724L433,724L432,724L431,724L429,725L427,726L424,728L419,730L415,731L412,733L409,735L405,737L402,739L400,740L398,741L397,742L397,743L397,744L397,745L400,748L403,753L407,759L411,765L415,771L418,775L420,779L423,783L424,786L426,787L426,788L427,789L428,789L428,788L428,786L431,783L437,776L443,770L451,763L460,756L470,749L478,742L485,738L490,733L494,730L497,728L500,727L501,726L502,726L503,726L503,727L503,729L504,732L504,736L504,742L504,748L504,755L504,762L504,769L502,775L500,780L499,785L497,789L496,792L494,795L494,797L493,799L492,800L492,801L491,801L490,801L489,801L488,801L487,801L485,801L483,801L478,801L472,801L468,801L463,799L459,798L456,797L453,795L451,793L448,790L444,785L442,780L440,775L438,771L436,767L435,762L434,758L433,753L432,749L431,744L431,738L431,733L431,728L431,723L431,717L431,712L433,707L434,703L435,699L436,694L437,689L438,684L438,680L438,675L438,669L438,663L438,657L437,651L436,648L436,645L435,643" stroke-opacity="1" stroke-width="5" stroke-linecap="round" stroke-linejoin="round" style="-webkit-tap-highlight-color: rgba(0, 0, 0, 0); stroke-opacity: 1; stroke-linecap: round; stroke-linejoin: round; -webkit-user-select: text;"></path><path fill="none" stroke="#000000" d="M461,729L460,726L460,723L460,718L459,713L458,708L457,705L455,701L454,696L452,692L451,686L451,682L451,676L451,669L451,664L452,658L455,652L458,649L461,645L465,643L468,641L472,640L477,638L481,638L485,638L488,637L491,637L495,637L499,637L502,637L507,637L510,637L514,637L518,637L522,637L526,637L531,637L533,637L536,636L537,636L537,635L537,634L536,633L535,631L533,626L532,621L530,616L528,610L527,605L526,600L524,596L524,593L523,591L523,590L522,589L521,589L520,589L519,589L513,592L500,596L491,600L483,603L474,606L468,608L465,609L463,611L462,611L461,612L461,613L462,614L463,616L466,621L470,627L475,636L479,645L484,653L488,662L492,669L495,677L497,682L499,685L501,687L502,689L503,689L504,689L505,688L507,686L515,682L523,678L533,674L543,669L553,666L560,662L569,659L575,657L579,655L582,654L584,654L584,653L584,654L584,656L584,659L584,663L583,668L581,674L578,682L574,691L570,699L566,706L562,713L558,719L554,723L551,726L548,729L547,731L545,732L545,733L544,733L543,733L540,730L536,724L531,718L527,711L523,703L520,696L517,688L514,680L512,672L510,665L508,658L507,652L505,648L504,644L503,640L502,637L502,635L501,633L500,631L500,629L499,628L499,627L499,626L500,625L502,625L504,625L510,624L521,621L529,619L539,617L550,614L558,612L563,610L567,609L570,608L572,607L572,606" stroke-opacity="1" stroke-width="5" stroke-linecap="round" stroke-linejoin="round" style="-webkit-tap-highlight-color: rgba(0, 0, 0, 0); stroke-opacity: 1; stroke-linecap: round; stroke-linejoin: round; -webkit-user-select: text;"></path><path fill="none" stroke="#000000" d="M567,630L571,627L576,626L584,625L592,623L601,621L610,618L618,616L623,614L627,613L630,612L632,611L632,610L632,609L632,606L632,603L632,599L632,594L631,589L631,583L630,578L630,574L629,570L628,565L628,562L627,560L626,558L626,557L625,557L624,557L623,557L622,557L621,557L616,559L609,561L603,562L598,563L592,565L588,565L584,566L581,566L579,567L578,567L577,567L577,568L577,569L577,570L578,573L580,577L582,582L585,589L588,596L591,604L594,614L596,623L599,634L601,642L604,650L606,656L608,662L609,667L610,670L610,672L610,674L611,674L613,674L614,674L615,674L618,673L625,672L631,671L637,671L643,670L648,670L652,670L656,670L658,670L659,670L660,671L660,672L660,674L660,675L660,677L660,679L658,682L657,687L654,692L652,696L650,702L647,708L643,714L640,720L636,726L633,732L629,737L626,741L623,745L621,747L620,749L618,750L617,750L613,750L607,747L601,744L594,740L586,736L581,733L575,731L570,728L565,725L559,719L554,713L550,706L546,699L544,694L543,687L543,682L543,677L543,673L545,669L549,664L555,660L561,656L567,653L573,651L579,649L586,648L593,648L600,647L607,647L615,646L622,646L630,645L637,645L643,644L650,643L656,640L661,638L666,635L669,631L672,628L674,625L676,621L677,616L677,611L677,606L677,601L677,598L677,594L675,592L674,589L672,587L672,585L671,584L670,584L670,583" stroke-opacity="1" stroke-width="5" stroke-linecap="round" stroke-linejoin="round" style="-webkit-tap-highlight-color: rgba(0, 0, 0, 0); stroke-opacity: 1; stroke-linecap: round; stroke-linejoin: round; -webkit-user-select: text;"></path><path fill="none" stroke="#000000" d="M703,610L706,605L707,603L708,600L710,596L711,592L711,588L711,583L711,579L711,573L710,568L708,563L705,558L701,553L698,549L694,545L690,542L686,541L682,538L677,537L672,536L667,536L662,535L656,535L651,535L645,535L639,535L633,535L626,535L619,536L613,538L607,539L603,540L599,541L596,543L593,544L591,545L590,545L589,545L588,545L588,544L588,542L588,540L587,537L586,534L585,531L583,528L582,524L581,521L581,519L580,516L580,515L580,513L581,512L583,511L589,508L597,503L606,498L614,494L623,490L632,487L639,483L646,480L651,478L654,477L657,476L658,476L659,476L659,477L659,480L659,482L660,485L662,490L664,497L666,504L668,513L670,521L672,529L674,536L676,542L677,548L679,552L679,556L679,558L679,560L679,561L674,562L665,564L657,566L650,568L642,571L635,574L630,577L625,579L622,581L620,582L619,582L618,582L618,578L618,570L618,561L618,551L618,543L618,533L618,524L618,515L618,505L618,495L618,485L618,476L617,470L617,464L616,460L616,456L616,454L615,452L614,451L613,451L612,451L611,451L610,452L607,453L599,456L589,459L579,462L567,466L557,470L548,473L541,475L536,477L532,478L529,479L528,479L528,480" stroke-opacity="1" stroke-width="5" stroke-linecap="round" stroke-linejoin="round" style="-webkit-tap-highlight-color: rgba(0, 0, 0, 0); stroke-opacity: 1; stroke-linecap: round; stroke-linejoin: round; -webkit-user-select: text;"></path><path fill="none" stroke="#000000" d="M528,440L536,439L542,439L550,437L560,435L570,433L581,430L589,428L597,426L603,424L607,423L611,422L612,421L613,421L613,420L613,419L613,418L612,416L611,412L610,406L609,398L608,390L608,383L607,375L606,371L606,366L606,363L605,362L605,361L604,361L603,361L601,361L595,361L584,361L576,362L569,362L563,363L558,363L555,363L553,363L553,364L553,365L553,366L554,367L555,370L556,373L558,377L560,383L562,390L564,397L565,402L567,408L569,412L570,415L572,417L572,418L573,418L574,418L575,418L576,418L577,418L579,417L589,409L600,401L610,393L619,385L628,378L638,371L646,365L652,360L658,357L662,354L664,352L667,351L667,350L667,349L667,348L667,346L664,342L662,338L660,334L657,329L655,324L652,320L651,316L649,312L647,309L646,306L645,303L645,302L644,301L643,300L642,300L641,300L640,300L634,302L620,306L609,310L596,315L585,319L577,322L573,324L570,325L569,327L568,328L568,330L568,332L568,335L569,339L571,344L573,349L576,354L579,359L582,364L586,368L589,370L594,373L599,374L604,376L609,378L614,378L619,380L625,381L630,382L636,383L641,385L646,386L651,388L655,390L659,391L663,393L666,395L669,398L672,401L675,404L677,407L680,411L682,414L684,418L686,422L687,426L687,431L688,435L688,439L688,443L688,447L688,450L688,453L687,457L686,460L684,463L682,465L681,468L679,470L679,472L678,473L677,474L677,475" stroke-opacity="1" stroke-width="5" stroke-linecap="round" stroke-linejoin="round" style="-webkit-tap-highlight-color: rgba(0, 0, 0, 0); stroke-opacity: 1; stroke-linecap: round; stroke-linejoin: round; -webkit-user-select: text;"></path></svg>