<svg height="644" version="1.1" width="704" xmlns="http://www.w3.org/2000/svg" xmlns:xlink="http://www.w3.org/1999/xlink" style="overflow: hidden; position: relative; -webkit-user-select: text;"><desc style="-webkit-tap-highlight-color: rgba(0, 0, 0, 0); -webkit-user-select: text;">Created with Raphaël 2.2.0</desc><defs style="-webkit-tap-highlight-color: rgba(0, 0, 0, 0); -webkit-user-select: text;"></defs><path fill="none" stroke="#000000" d="M464,89L455,93L453,93L450,94L446,95L442,97L437,99L432,101L428,104L423,106L417,109L411,111L406,113L401,116L396,118L392,119L388,121L383,123L378,124L374,125L369,128L365,129L360,131L356,132L352,133L348,135L345,136L340,138L336,140L332,141L328,143L324,145L320,146L316,147L313,149L309,150L306,152L302,153L299,154L297,155L294,157L291,157L289,158L287,158L285,159L283,160L282,160L281,160L280,161L278,161" stroke-opacity="1" stroke-width="5" stroke-linecap="round" stroke-linejoin="round" style="-webkit-tap-highlight-color: rgba(0, 0, 0, 0); stroke-opacity: 1; stroke-linecap: round; stroke-linejoin: round; -webkit-user-select: text;"></path><path fill="none" stroke="#000000" d="M263,175L265,182L265,185L265,189L265,192L265,196L265,199L265,203L265,206L266,210L266,213L267,217L267,221L268,225L268,229L269,233L269,237L270,241L271,245L272,249L272,253L273,257L274,262L275,266L275,269L277,274L277,277L278,281L279,284L279,288L280,291L281,294L282,298L282,301L283,303L284,306L284,308L285,311L286,313L287,315L287,318L288,320L288,322L289,325L289,327L290,329L291,330L291,332L292,334L292,335L293,337L294,337L294,338L295,338L297,337L299,337" stroke-opacity="1" stroke-width="5" stroke-linecap="round" stroke-linejoin="round" style="-webkit-tap-highlight-color: rgba(0, 0, 0, 0); stroke-opacity: 1; stroke-linecap: round; stroke-linejoin: round; -webkit-user-select: text;"></path><path fill="none" stroke="#000000" d="M322,320L326,317L328,315L331,313L333,312L336,310L339,308L341,307L343,305L345,304L347,302L349,300L351,298L354,296L355,294L358,292L360,290L362,288L365,287L366,285L368,284L370,282L372,280L374,278L377,276L379,274L381,271L383,269L385,266L388,264L390,262L391,260L393,258L395,256L397,254L399,252L400,250L402,249L404,247L406,245L407,243L409,241L411,240L413,238L415,236L417,235L419,232L421,231L423,229L424,228L426,226L427,225L429,223L430,223L431,221L433,220L434,219L435,217L437,216L438,214L440,213L441,211L444,209" stroke-opacity="1" stroke-width="5" stroke-linecap="round" stroke-linejoin="round" style="-webkit-tap-highlight-color: rgba(0, 0, 0, 0); stroke-opacity: 1; stroke-linecap: round; stroke-linejoin: round; -webkit-user-select: text;"></path><path fill="none" stroke="#000000" d="M460,197L463,204L463,206L463,210L464,213L466,218L467,221L469,225L470,229L472,232L473,236L474,239L476,242L477,245L479,249L480,252L481,255L483,258L484,261L485,264L486,267L487,270L488,273L489,276L490,279L491,281L492,284L493,286L494,288L495,291L496,293L496,296L497,298L498,300L498,302L499,304L500,306L500,308L501,309L501,311L501,312L502,313L502,314L501,313L498,312L494,312" stroke-opacity="1" stroke-width="5" stroke-linecap="round" stroke-linejoin="round" style="-webkit-tap-highlight-color: rgba(0, 0, 0, 0); stroke-opacity: 1; stroke-linecap: round; stroke-linejoin: round; -webkit-user-select: text;"></path><path fill="none" stroke="#000000" d="M482,311L473,319L469,322L465,325L461,328L457,330L453,332L448,334L443,336L438,339L433,342L427,344L421,348L415,351L408,354L402,357L395,361L387,364L379,369L372,373L364,377L357,381L351,384L345,388L338,391L332,395L327,398L322,401L317,404L313,406L310,408L306,410L304,412L301,414L299,415L298,416L297,417L296,417L294,417" stroke-opacity="1" stroke-width="5" stroke-linecap="round" stroke-linejoin="round" style="-webkit-tap-highlight-color: rgba(0, 0, 0, 0); stroke-opacity: 1; stroke-linecap: round; stroke-linejoin: round; -webkit-user-select: text;"></path><path fill="none" stroke="#000000" d="M277,410L272,403L270,400L267,396L265,392L261,388L257,382L254,376L250,370L246,364L243,359L241,355L238,352L236,349L234,346L232,342L231,339L229,335L227,330L226,327L224,323L223,320L222,318L221,315L220,312L219,309L217,306L216,303L215,301L214,298L213,296L212,294L212,292L211,291L210,288L209,287L209,285L209,283L208,281L208,278L208,275" stroke-opacity="1" stroke-width="5" stroke-linecap="round" stroke-linejoin="round" style="-webkit-tap-highlight-color: rgba(0, 0, 0, 0); stroke-opacity: 1; stroke-linecap: round; stroke-linejoin: round; -webkit-user-select: text;"></path><path fill="none" stroke="#000000" d="M209,266L216,267L218,267L220,266L223,265L227,263L232,260L237,258L242,256L248,254L253,252L259,249L265,246L272,243L278,240L284,237L290,234L297,231L303,228L309,225L315,222L320,219L326,216L331,213L337,211L342,209L347,207L352,204L356,202L361,200L365,198L369,196L373,194L377,191L382,189L386,187L389,185L394,183L397,181L401,179L404,177L407,176L409,174L411,173L414,171L416,170L418,169L420,167L422,166L424,164L425,162L425,160" stroke-opacity="1" stroke-width="5" stroke-linecap="round" stroke-linejoin="round" style="-webkit-tap-highlight-color: rgba(0, 0, 0, 0); stroke-opacity: 1; stroke-linecap: round; stroke-linejoin: round; -webkit-user-select: text;"></path><path fill="none" stroke="#000000" d="M425,157L424,163L424,166L425,170L425,174L426,179L427,184L427,188L428,193L428,198L428,204L428,210L428,217L428,223L428,230L428,237L428,245L428,252L428,261L428,269L428,278L428,285L428,293L428,300L428,307L428,314L428,319L428,325L428,330L428,335L428,340L428,345L428,350L428,354L428,359L428,363L428,366L428,369L428,372L428,375L428,377L428,380L428,382L428,383L428,386L428,387L428,389L428,391L428,392L428,393L426,390L422,386L417,383L413,381L409,381L407,381L405,381L404,381L401,383L401,384L401,385L401,386L401,387L399,387L396,388L393,388L389,388L385,388L381,386L377,384L373,383L369,381L365,379L361,377L357,375L353,373L350,371L345,368L342,366L338,363L335,361L332,358L328,355L325,352L322,349L319,344L316,340L314,337L312,333L310,330L309,326L307,321L306,317L305,313L304,308L304,304L303,300L302,296L302,291L301,287L301,282L301,277L301,273L301,269L301,264L301,260L301,256L301,251L301,246L302,241L304,237L305,232L306,228L308,224L311,220L312,216L315,211L317,208L319,204L321,200L323,196L326,192L329,188L331,184L335,180L338,177L340,173L344,169L347,165L350,161L353,157L355,154L357,151L360,147L362,144L363,141L365,138L366,134L367,131L369,128L370,124L371,121L372,118L372,115L373,112L374,109L374,107L375,104L375,101L376,99L376,96L377,94L377,92L377,90L377,88L377,86L377,84L377,82L377,80L377,78L377,76L377,74L377,72L377,70L377,68L377,66L377,65L376,63L376,62L375,60L374,58L373,56L371,53L369,50L366,49L361,46" stroke-opacity="1" stroke-width="5" stroke-linecap="round" stroke-linejoin="round" style="-webkit-tap-highlight-color: rgba(0, 0, 0, 0); stroke-opacity: 1; stroke-linecap: round; stroke-linejoin: round; -webkit-user-select: text;"></path></svg>