<svg height="644" version="1.1" width="704" xmlns="http://www.w3.org/2000/svg" xmlns:xlink="http://www.w3.org/1999/xlink" style="overflow: hidden; position: relative; -webkit-user-select: text;"><desc style="-webkit-tap-highlight-color: rgba(0, 0, 0, 0); -webkit-user-select: text;">Created with Raphaël 2.2.0</desc><defs style="-webkit-tap-highlight-color: rgba(0, 0, 0, 0); -webkit-user-select: text;"></defs><path fill="none" stroke="#000000" d="M48,129L52,126L55,125L59,123L65,120L72,116L79,113L87,109L96,104L105,100L112,97L118,93L124,89L129,87L133,85L136,84L138,84L139,84" stroke-opacity="1" stroke-width="5" stroke-linecap="round" stroke-linejoin="round" style="-webkit-tap-highlight-color: rgba(0, 0, 0, 0); stroke-opacity: 1; stroke-linecap: round; stroke-linejoin: round; -webkit-user-select: text;"></path><path fill="none" stroke="#000000" d="M138,93L143,102L143,107L144,114L146,122L147,128L148,137L148,144L149,149L149,154L149,160L149,164L149,167" stroke-opacity="1" stroke-width="5" stroke-linecap="round" stroke-linejoin="round" style="-webkit-tap-highlight-color: rgba(0, 0, 0, 0); stroke-opacity: 1; stroke-linecap: round; stroke-linejoin: round; -webkit-user-select: text;"></path><path fill="none" stroke="#000000" d="M139,177L134,180L131,182L126,184L121,187L115,189L108,193L102,196L97,198L93,200L90,202L88,203L87,203L85,203" stroke-opacity="1" stroke-width="5" stroke-linecap="round" stroke-linejoin="round" style="-webkit-tap-highlight-color: rgba(0, 0, 0, 0); stroke-opacity: 1; stroke-linecap: round; stroke-linejoin: round; -webkit-user-select: text;"></path><path fill="none" stroke="#000000" d="M80,196L78,191L78,188L78,184L77,179L75,173L73,167L72,162L71,158L70,155" stroke-opacity="1" stroke-width="5" stroke-linecap="round" stroke-linejoin="round" style="-webkit-tap-highlight-color: rgba(0, 0, 0, 0); stroke-opacity: 1; stroke-linecap: round; stroke-linejoin: round; -webkit-user-select: text;"></path><path fill="none" stroke="#000000" d="M78,147L83,146L90,146L100,144L110,141L121,139L133,136L142,134L153,132L161,130L169,127L175,125L179,124L182,123" stroke-opacity="1" stroke-width="5" stroke-linecap="round" stroke-linejoin="round" style="-webkit-tap-highlight-color: rgba(0, 0, 0, 0); stroke-opacity: 1; stroke-linecap: round; stroke-linejoin: round; -webkit-user-select: text;"></path><path fill="none" stroke="#000000" d="M185,120L190,129L192,132L193,137L194,141L195,146L196,150L196,155L196,160L195,165L193,170L190,175L184,180L179,184L174,189L169,191L164,195L159,197L154,200L150,202L145,204L141,207L136,209L132,211L128,214L124,217L121,219L118,222L116,224L113,226L111,228L109,231L108,233L106,235L105,238L104,242L102,245L102,249L101,254L101,260L101,266" stroke-opacity="1" stroke-width="5" stroke-linecap="round" stroke-linejoin="round" style="-webkit-tap-highlight-color: rgba(0, 0, 0, 0); stroke-opacity: 1; stroke-linecap: round; stroke-linejoin: round; -webkit-user-select: text;"></path><path fill="none" stroke="#000000" d="M106,283L106,286L106,289L107,293L109,298L111,303L114,308L117,312L122,317L127,322L132,326L137,329L142,332L147,333L153,335L159,336L164,337L170,337L177,337L184,337L191,335L197,332L203,328L209,324L214,320L219,315L225,312" stroke-opacity="1" stroke-width="5" stroke-linecap="round" stroke-linejoin="round" style="-webkit-tap-highlight-color: rgba(0, 0, 0, 0); stroke-opacity: 1; stroke-linecap: round; stroke-linejoin: round; -webkit-user-select: text;"></path><path fill="none" stroke="#000000" d="M248,291L251,288L254,288L259,288L264,286L270,284L275,281L280,279L285,277L289,275L292,273L295,271L297,269L298,268L299,267L299,266" stroke-opacity="1" stroke-width="5" stroke-linecap="round" stroke-linejoin="round" style="-webkit-tap-highlight-color: rgba(0, 0, 0, 0); stroke-opacity: 1; stroke-linecap: round; stroke-linejoin: round; -webkit-user-select: text;"></path><path fill="none" stroke="#000000" d="M285,261L280,256L278,255L275,252L272,248L269,242L265,236L263,232L260,229L259,226L257,225L256,224L255,224" stroke-opacity="1" stroke-width="5" stroke-linecap="round" stroke-linejoin="round" style="-webkit-tap-highlight-color: rgba(0, 0, 0, 0); stroke-opacity: 1; stroke-linecap: round; stroke-linejoin: round; -webkit-user-select: text;"></path><path fill="none" stroke="#000000" d="M246,225L242,232L238,237L231,242L226,247L219,252L211,256L203,259L196,263L191,266L185,269" stroke-opacity="1" stroke-width="5" stroke-linecap="round" stroke-linejoin="round" style="-webkit-tap-highlight-color: rgba(0, 0, 0, 0); stroke-opacity: 1; stroke-linecap: round; stroke-linejoin: round; -webkit-user-select: text;"></path><path fill="none" stroke="#000000" d="M182,275L185,282L187,286L191,292L195,298L199,303L204,309L209,315L213,321L217,328L221,334L224,341L227,347L230,352L232,354" stroke-opacity="1" stroke-width="5" stroke-linecap="round" stroke-linejoin="round" style="-webkit-tap-highlight-color: rgba(0, 0, 0, 0); stroke-opacity: 1; stroke-linecap: round; stroke-linejoin: round; -webkit-user-select: text;"></path><path fill="none" stroke="#000000" d="M234,348L232,339L232,335L231,327L230,315L230,298L231,282L233,268L233,257L233,247L231,240L230,234L230,229" stroke-opacity="1" stroke-width="5" stroke-linecap="round" stroke-linejoin="round" style="-webkit-tap-highlight-color: rgba(0, 0, 0, 0); stroke-opacity: 1; stroke-linecap: round; stroke-linejoin: round; -webkit-user-select: text;"></path><path fill="none" stroke="#000000" d="M231,201L232,194L232,191L232,186L232,183L231,178L231,171L231,164L230,158L229,154L229,148L228,144L227,140L227,136L227,132" stroke-opacity="1" stroke-width="5" stroke-linecap="round" stroke-linejoin="round" style="-webkit-tap-highlight-color: rgba(0, 0, 0, 0); stroke-opacity: 1; stroke-linecap: round; stroke-linejoin: round; -webkit-user-select: text;"></path><path fill="none" stroke="#000000" d="M228,121L222,124L218,128L212,131L204,136L197,140L187,145L178,150L171,153L166,157L160,160L155,163L150,165" stroke-opacity="1" stroke-width="5" stroke-linecap="round" stroke-linejoin="round" style="-webkit-tap-highlight-color: rgba(0, 0, 0, 0); stroke-opacity: 1; stroke-linecap: round; stroke-linejoin: round; -webkit-user-select: text;"></path><path fill="none" stroke="#000000" d="M147,180L153,188L156,194L160,199L163,206L167,213L171,220L174,227L177,232L181,238L183,243L185,247L188,249L190,251L192,252L195,252" stroke-opacity="1" stroke-width="5" stroke-linecap="round" stroke-linejoin="round" style="-webkit-tap-highlight-color: rgba(0, 0, 0, 0); stroke-opacity: 1; stroke-linecap: round; stroke-linejoin: round; -webkit-user-select: text;"></path><path fill="none" stroke="#000000" d="M204,240L206,237L210,236L215,233L222,228L231,222L239,215L246,211L254,204L262,199L268,194L275,187L280,182L284,178L287,176L289,173L291,172L292,171L293,171L294,171L293,171L288,171L282,171L273,171L263,172L250,174L238,177L227,179L217,184L208,187L200,190L195,192L187,192" stroke-opacity="1" stroke-width="5" stroke-linecap="round" stroke-linejoin="round" style="-webkit-tap-highlight-color: rgba(0, 0, 0, 0); stroke-opacity: 1; stroke-linecap: round; stroke-linejoin: round; -webkit-user-select: text;"></path><path fill="none" stroke="#000000" d="M160,215L161,225L161,228L163,233L165,239L167,244L170,249L173,253L175,257L179,261L182,264L186,266L190,268L194,269L197,269L202,269L207,269L211,269L216,269L221,268L226,267L231,265L236,263L241,261L245,259L250,257L254,254L258,251L261,248L264,245L267,242L270,238L272,235L275,231L278,226L281,222L284,218L286,215L289,212L292,209L295,206L299,203L303,201L308,198L313,196L317,193L323,189L329,186L336,184L344,181" stroke-opacity="1" stroke-width="5" stroke-linecap="round" stroke-linejoin="round" style="-webkit-tap-highlight-color: rgba(0, 0, 0, 0); stroke-opacity: 1; stroke-linecap: round; stroke-linejoin: round; -webkit-user-select: text;"></path><path fill="none" stroke="#000000" d="M375,173L377,172L382,172L386,173L390,174L394,176L397,178L401,180L404,182L407,185L410,188L412,192L414,196L416,200L417,203L418,208L418,212L418,217L418,221L418,226L418,230L416,235L413,241L411,246L408,251L405,255L401,261L397,266L394,270L390,275L387,279L384,283L382,287L379,292L377,296L375,300L374,303L372,306L372,309L371,311L370,313L369,316" stroke-opacity="1" stroke-width="5" stroke-linecap="round" stroke-linejoin="round" style="-webkit-tap-highlight-color: rgba(0, 0, 0, 0); stroke-opacity: 1; stroke-linecap: round; stroke-linejoin: round; -webkit-user-select: text;"></path><path fill="none" stroke="#000000" d="M352,322L346,320L341,320L333,318L325,316L316,313L308,310L301,306L294,303L289,301L284,298L280,296L277,295L273,294" stroke-opacity="1" stroke-width="5" stroke-linecap="round" stroke-linejoin="round" style="-webkit-tap-highlight-color: rgba(0, 0, 0, 0); stroke-opacity: 1; stroke-linecap: round; stroke-linejoin: round; -webkit-user-select: text;"></path><path fill="none" stroke="#000000" d="M274,288L279,285L286,282L295,276L306,268L314,262L323,254L333,247L342,242L349,238L357,234L364,231L369,228" stroke-opacity="1" stroke-width="5" stroke-linecap="round" stroke-linejoin="round" style="-webkit-tap-highlight-color: rgba(0, 0, 0, 0); stroke-opacity: 1; stroke-linecap: round; stroke-linejoin: round; -webkit-user-select: text;"></path><path fill="none" stroke="#000000" d="M388,228L392,234L395,239L398,246L402,252L406,257L411,262L415,269L420,274L423,279L428,283L431,287L434,289L437,291L438,292L438,293L434,291L434,290L433,290L431,291L429,293L425,296L420,301L414,305L405,310L396,315L388,322L381,328L376,333L371,339L367,344L363,347L360,349L357,350" stroke-opacity="1" stroke-width="5" stroke-linecap="round" stroke-linejoin="round" style="-webkit-tap-highlight-color: rgba(0, 0, 0, 0); stroke-opacity: 1; stroke-linecap: round; stroke-linejoin: round; -webkit-user-select: text;"></path><path fill="none" stroke="#000000" d="M348,349L346,344L346,340L345,335L341,325L338,315L336,305L334,293L334,284L334,274L334,264L336,254L339,244" stroke-opacity="1" stroke-width="5" stroke-linecap="round" stroke-linejoin="round" style="-webkit-tap-highlight-color: rgba(0, 0, 0, 0); stroke-opacity: 1; stroke-linecap: round; stroke-linejoin: round; -webkit-user-select: text;"></path><path fill="none" stroke="#000000" d="M332,216L333,211L333,208L333,202L333,194L333,186L332,179L332,171L331,163L331,157L331,152L330,146L330,141L330,137L330,133L330,129" stroke-opacity="1" stroke-width="5" stroke-linecap="round" stroke-linejoin="round" style="-webkit-tap-highlight-color: rgba(0, 0, 0, 0); stroke-opacity: 1; stroke-linecap: round; stroke-linejoin: round; -webkit-user-select: text;"></path><path fill="none" stroke="#000000" d="M318,125L311,126L306,127L301,128L294,128L284,129L277,130L270,130L263,130L258,130L253,130L249,131" stroke-opacity="1" stroke-width="5" stroke-linecap="round" stroke-linejoin="round" style="-webkit-tap-highlight-color: rgba(0, 0, 0, 0); stroke-opacity: 1; stroke-linecap: round; stroke-linejoin: round; -webkit-user-select: text;"></path><path fill="none" stroke="#000000" d="M250,146L252,155L252,162L252,171L253,180L254,189L255,196L255,204L255,210L256,215L257,218L258,220L259,220L261,220L263,219" stroke-opacity="1" stroke-width="5" stroke-linecap="round" stroke-linejoin="round" style="-webkit-tap-highlight-color: rgba(0, 0, 0, 0); stroke-opacity: 1; stroke-linecap: round; stroke-linejoin: round; -webkit-user-select: text;"></path><path fill="none" stroke="#000000" d="M275,213L277,211L282,210L290,206L299,200L308,194L318,186L331,179L343,172L355,164L368,157L378,151L386,145L390,139" stroke-opacity="1" stroke-width="5" stroke-linecap="round" stroke-linejoin="round" style="-webkit-tap-highlight-color: rgba(0, 0, 0, 0); stroke-opacity: 1; stroke-linecap: round; stroke-linejoin: round; -webkit-user-select: text;"></path><path fill="none" stroke="#000000" d="M386,136L382,135L379,135L375,133L370,128L363,122L357,115L350,108L346,102L343,96L340,92L338,88L335,85" stroke-opacity="1" stroke-width="5" stroke-linecap="round" stroke-linejoin="round" style="-webkit-tap-highlight-color: rgba(0, 0, 0, 0); stroke-opacity: 1; stroke-linecap: round; stroke-linejoin: round; -webkit-user-select: text;"></path><path fill="none" stroke="#000000" d="M328,80L327,84L325,88L321,90L314,93L307,96L301,97L297,99L292,99L290,100L287,100L285,101" stroke-opacity="1" stroke-width="5" stroke-linecap="round" stroke-linejoin="round" style="-webkit-tap-highlight-color: rgba(0, 0, 0, 0); stroke-opacity: 1; stroke-linecap: round; stroke-linejoin: round; -webkit-user-select: text;"></path><path fill="none" stroke="#000000" d="M288,107L290,113L290,118L291,125L293,136L297,147L300,157L303,167L306,175L309,183L310,190L312,196L313,201L314,205L315,208L316,210L316,212L316,213L317,213L318,213L322,211L326,209L332,207L340,206L348,204L357,203L366,201L374,200L382,197L389,193L396,189L400,186L402,183L405,179L406,174L406,168L406,162L406,156L406,150L406,144L404,140L402,137L400,134L397,131L394,129L390,127L386,126L382,125L377,124L373,124L367,123L362,123L357,123L352,123L347,123L343,123L339,123L334,123L330,122L326,121L321,121L317,119L312,117L306,114L301,111L296,106L292,103L287,100" stroke-opacity="1" stroke-width="5" stroke-linecap="round" stroke-linejoin="round" style="-webkit-tap-highlight-color: rgba(0, 0, 0, 0); stroke-opacity: 1; stroke-linecap: round; stroke-linejoin: round; -webkit-user-select: text;"></path><path fill="none" stroke="#000000" d="M275,89L272,84L272,82L272,78L272,74L272,70L272,66L272,62L273,57L276,54L280,50L286,46L291,43L296,40L301,38L307,36L311,36L317,35L322,35L328,35L333,35L338,35L342,35L346,36L350,38L353,40L355,42L358,44L360,46L362,48L364,51L366,54L368,57L370,60L374,63L377,66L382,69L389,71L399,72L411,72" stroke-opacity="1" stroke-width="5" stroke-linecap="round" stroke-linejoin="round" style="-webkit-tap-highlight-color: rgba(0, 0, 0, 0); stroke-opacity: 1; stroke-linecap: round; stroke-linejoin: round; -webkit-user-select: text;"></path><path fill="none" stroke="#000000" d="M440,86L438,98L438,103L436,111L434,119L433,127L431,135L430,142L429,148L428,154L427,159L427,162L426,164L426,165" stroke-opacity="1" stroke-width="5" stroke-linecap="round" stroke-linejoin="round" style="-webkit-tap-highlight-color: rgba(0, 0, 0, 0); stroke-opacity: 1; stroke-linecap: round; stroke-linejoin: round; -webkit-user-select: text;"></path><path fill="none" stroke="#000000" d="M424,169L418,171L413,171L406,171L395,171L384,171L374,171L360,171L351,171L342,172L336,172L330,172L326,172L321,172" stroke-opacity="1" stroke-width="5" stroke-linecap="round" stroke-linejoin="round" style="-webkit-tap-highlight-color: rgba(0, 0, 0, 0); stroke-opacity: 1; stroke-linecap: round; stroke-linejoin: round; -webkit-user-select: text;"></path><path fill="none" stroke="#000000" d="M326,169L328,167L330,163L334,158L340,150L347,141L354,131L362,123L368,115L374,109L379,102L385,96L390,90L394,84L396,81L396,80" stroke-opacity="1" stroke-width="5" stroke-linecap="round" stroke-linejoin="round" style="-webkit-tap-highlight-color: rgba(0, 0, 0, 0); stroke-opacity: 1; stroke-linecap: round; stroke-linejoin: round; -webkit-user-select: text;"></path><path fill="none" stroke="#000000" d="M393,96L395,99L395,104L396,110L397,117L399,125L401,133L404,141L406,150L408,159L408,168L409,176L409,184L409,191L409,195L409,199" stroke-opacity="1" stroke-width="5" stroke-linecap="round" stroke-linejoin="round" style="-webkit-tap-highlight-color: rgba(0, 0, 0, 0); stroke-opacity: 1; stroke-linecap: round; stroke-linejoin: round; -webkit-user-select: text;"></path><path fill="none" stroke="#000000" d="M399,219L396,213L395,208L391,201L386,191L379,177L373,164L366,150L359,138L354,129L350,121L348,114L346,107" stroke-opacity="1" stroke-width="5" stroke-linecap="round" stroke-linejoin="round" style="-webkit-tap-highlight-color: rgba(0, 0, 0, 0); stroke-opacity: 1; stroke-linecap: round; stroke-linejoin: round; -webkit-user-select: text;"></path><path fill="none" stroke="#000000" d="M370,72L379,70L385,70L394,69L406,66L418,64L430,61L442,58L454,55L464,53L472,50L481,48L486,46L491,44L493,43" stroke-opacity="1" stroke-width="5" stroke-linecap="round" stroke-linejoin="round" style="-webkit-tap-highlight-color: rgba(0, 0, 0, 0); stroke-opacity: 1; stroke-linecap: round; stroke-linejoin: round; -webkit-user-select: text;"></path><path fill="none" stroke="#000000" d="M493,55L490,68L490,74L488,84L487,93L486,102L484,111L484,120L482,129L481,139L479,147L478,152L477,155" stroke-opacity="1" stroke-width="5" stroke-linecap="round" stroke-linejoin="round" style="-webkit-tap-highlight-color: rgba(0, 0, 0, 0); stroke-opacity: 1; stroke-linecap: round; stroke-linejoin: round; -webkit-user-select: text;"></path><path fill="none" stroke="#000000" d="M468,159L464,157L460,156L455,152L450,146L443,139L436,133L430,128L424,123L418,120L412,116L408,114L403,111L397,109" stroke-opacity="1" stroke-width="5" stroke-linecap="round" stroke-linejoin="round" style="-webkit-tap-highlight-color: rgba(0, 0, 0, 0); stroke-opacity: 1; stroke-linecap: round; stroke-linejoin: round; -webkit-user-select: text;"></path><path fill="none" stroke="#000000" d="M392,109L395,106L399,103L403,98L409,91L414,83L420,74L425,66L430,58L434,52L438,45L442,40L446,36L448,33L450,31" stroke-opacity="1" stroke-width="5" stroke-linecap="round" stroke-linejoin="round" style="-webkit-tap-highlight-color: rgba(0, 0, 0, 0); stroke-opacity: 1; stroke-linecap: round; stroke-linejoin: round; -webkit-user-select: text;"></path><path fill="none" stroke="#000000" d="M455,36L460,41L463,44L469,49L476,55L483,62L490,68L496,73L502,79L507,84L512,89L516,92L521,95L525,96L529,96L531,96L532,96L533,96" stroke-opacity="1" stroke-width="5" stroke-linecap="round" stroke-linejoin="round" style="-webkit-tap-highlight-color: rgba(0, 0, 0, 0); stroke-opacity: 1; stroke-linecap: round; stroke-linejoin: round; -webkit-user-select: text;"></path><path fill="none" stroke="#000000" d="M533,98L532,105L531,110L529,116L527,121L523,126L520,131L517,135L513,139L509,142L505,145L499,148L493,151L486,155L480,158L474,161L468,164L463,167L458,170L454,173L449,176L445,179L440,182L436,185L432,189L429,192L426,195L424,198L423,200L421,203L421,205L420,208L419,210L419,213L418,216L418,220L418,223L417,226L417,230L416,234L416,238L416,244L417,247L418,253" stroke-opacity="1" stroke-width="5" stroke-linecap="round" stroke-linejoin="round" style="-webkit-tap-highlight-color: rgba(0, 0, 0, 0); stroke-opacity: 1; stroke-linecap: round; stroke-linejoin: round; -webkit-user-select: text;"></path><path fill="none" stroke="#000000" d="M440,268L443,272L445,276L447,279L450,281L452,284L455,286L458,287L460,289L463,291L466,292L469,294L472,296L474,296L477,296L480,296L484,296L486,296L489,295L491,293L495,292L498,290L501,288L504,287L507,286L510,284L513,282L516,279L519,277L522,275L525,271L529,269L532,265L535,263L539,260L542,257L547,254L550,251L556,247L562,242L565,240L569,237" stroke-opacity="1" stroke-width="5" stroke-linecap="round" stroke-linejoin="round" style="-webkit-tap-highlight-color: rgba(0, 0, 0, 0); stroke-opacity: 1; stroke-linecap: round; stroke-linejoin: round; -webkit-user-select: text;"></path><path fill="none" stroke="#000000" d="M577,223L574,219L573,216L570,213L565,208L560,203L554,197L547,190L542,185L536,179L532,175L528,171L525,167L522,164L518,161" stroke-opacity="1" stroke-width="5" stroke-linecap="round" stroke-linejoin="round" style="-webkit-tap-highlight-color: rgba(0, 0, 0, 0); stroke-opacity: 1; stroke-linecap: round; stroke-linejoin: round; -webkit-user-select: text;"></path><path fill="none" stroke="#000000" d="M513,161L511,171L510,177L507,183L503,190L498,197L490,203L482,209L474,215L467,220L462,223L459,225" stroke-opacity="1" stroke-width="5" stroke-linecap="round" stroke-linejoin="round" style="-webkit-tap-highlight-color: rgba(0, 0, 0, 0); stroke-opacity: 1; stroke-linecap: round; stroke-linejoin: round; -webkit-user-select: text;"></path><path fill="none" stroke="#000000" d="M466,225L474,230L478,235L481,242L486,248L492,255L499,262L505,269L511,276L515,282L519,289L523,296L526,301L529,306L532,310L534,313L535,315L536,315L537,315" stroke-opacity="1" stroke-width="5" stroke-linecap="round" stroke-linejoin="round" style="-webkit-tap-highlight-color: rgba(0, 0, 0, 0); stroke-opacity: 1; stroke-linecap: round; stroke-linejoin: round; -webkit-user-select: text;"></path><path fill="none" stroke="#000000" d="M542,302L544,297L545,294L547,290L551,283L558,273L565,263L570,257L574,253L577,249L580,246L583,243L585,240" stroke-opacity="1" stroke-width="5" stroke-linecap="round" stroke-linejoin="round" style="-webkit-tap-highlight-color: rgba(0, 0, 0, 0); stroke-opacity: 1; stroke-linecap: round; stroke-linejoin: round; -webkit-user-select: text;"></path><path fill="none" stroke="#000000" d="M584,242L578,244L571,244L559,244L544,245L530,245L515,245L501,245L487,245L474,245L462,245L453,245" stroke-opacity="1" stroke-width="5" stroke-linecap="round" stroke-linejoin="round" style="-webkit-tap-highlight-color: rgba(0, 0, 0, 0); stroke-opacity: 1; stroke-linecap: round; stroke-linejoin: round; -webkit-user-select: text;"></path><path fill="none" stroke="#000000" d="M444,289L444,296L444,301L444,307L442,315L439,323L436,332L431,342L426,353L421,364L416,375L411,385L406,394L403,400L400,404L397,405L391,407" stroke-opacity="1" stroke-width="5" stroke-linecap="round" stroke-linejoin="round" style="-webkit-tap-highlight-color: rgba(0, 0, 0, 0); stroke-opacity: 1; stroke-linecap: round; stroke-linejoin: round; -webkit-user-select: text;"></path><path fill="none" stroke="#000000" d="M401,400L408,407L417,407L424,407L432,407L442,406L451,405L460,404L469,402L476,401L483,400L489,398L493,396L496,394" stroke-opacity="1" stroke-width="5" stroke-linecap="round" stroke-linejoin="round" style="-webkit-tap-highlight-color: rgba(0, 0, 0, 0); stroke-opacity: 1; stroke-linecap: round; stroke-linejoin: round; -webkit-user-select: text;"></path><path fill="none" stroke="#000000" d="M499,390L494,381L491,375L485,366L479,358L477,349L476,339L476,333L476,327L476,323L476,320" stroke-opacity="1" stroke-width="5" stroke-linecap="round" stroke-linejoin="round" style="-webkit-tap-highlight-color: rgba(0, 0, 0, 0); stroke-opacity: 1; stroke-linecap: round; stroke-linejoin: round; -webkit-user-select: text;"></path><path fill="none" stroke="#000000" d="M471,327L468,328L462,329L455,330L444,333L432,336L419,339L406,343L394,347L382,349L373,351L364,352L357,353" stroke-opacity="1" stroke-width="5" stroke-linecap="round" stroke-linejoin="round" style="-webkit-tap-highlight-color: rgba(0, 0, 0, 0); stroke-opacity: 1; stroke-linecap: round; stroke-linejoin: round; -webkit-user-select: text;"></path><path fill="none" stroke="#000000" d="M355,356L366,360L372,363L380,369L387,375L392,380L398,386L403,391L409,397L413,403L417,408L421,412L425,416L429,419L431,421" stroke-opacity="1" stroke-width="5" stroke-linecap="round" stroke-linejoin="round" style="-webkit-tap-highlight-color: rgba(0, 0, 0, 0); stroke-opacity: 1; stroke-linecap: round; stroke-linejoin: round; -webkit-user-select: text;"></path><path fill="none" stroke="#000000" d="M434,412L440,405L446,400L455,393L463,386L472,378L481,369L489,362L497,356L504,349L509,344L514,342L517,339" stroke-opacity="1" stroke-width="5" stroke-linecap="round" stroke-linejoin="round" style="-webkit-tap-highlight-color: rgba(0, 0, 0, 0); stroke-opacity: 1; stroke-linecap: round; stroke-linejoin: round; -webkit-user-select: text;"></path><path fill="none" stroke="#000000" d="M530,333L527,331L523,330L516,327L509,323L502,320L494,318L489,316L483,315L476,315L469,315L461,320L455,325L447,330L442,336L437,342L433,349L430,356L427,363L423,371L421,378L417,384L414,390L412,397L409,404L407,409L404,416L401,422L397,428L394,433L390,437L386,441L381,445L376,449L371,451L364,454L358,456L352,457L347,458" stroke-opacity="1" stroke-width="5" stroke-linecap="round" stroke-linejoin="round" style="-webkit-tap-highlight-color: rgba(0, 0, 0, 0); stroke-opacity: 1; stroke-linecap: round; stroke-linejoin: round; -webkit-user-select: text;"></path><path fill="none" stroke="#000000" d="M319,456L314,458L311,458L306,458L301,458L296,457L291,457L286,456L281,455L275,454L272,452L266,450L262,447L257,445L252,442L248,439L244,436L239,433L234,431L229,429L224,428L219,427L214,427L207,427L201,427L196,427L191,428L187,429L183,431L180,432L178,434L176,435L175,436L174,436L174,437L173,437L173,438L173,439L173,442L173,446L173,451L175,458L176,464L178,471L180,477L181,483L182,487L183,490L184,493L185,495L185,497L185,498L185,500L185,501L185,502L186,502" stroke-opacity="1" stroke-width="5" stroke-linecap="round" stroke-linejoin="round" style="-webkit-tap-highlight-color: rgba(0, 0, 0, 0); stroke-opacity: 1; stroke-linecap: round; stroke-linejoin: round; -webkit-user-select: text;"></path><path fill="none" stroke="#000000" d="M199,515L203,515L209,514L216,512L225,510L234,509L241,507L250,506L258,504L265,502L272,499L278,496L282,494L285,493L288,491L289,491L290,491" stroke-opacity="1" stroke-width="5" stroke-linecap="round" stroke-linejoin="round" style="-webkit-tap-highlight-color: rgba(0, 0, 0, 0); stroke-opacity: 1; stroke-linecap: round; stroke-linejoin: round; -webkit-user-select: text;"></path><path fill="none" stroke="#000000" d="M282,496L274,490L272,484L269,475L266,466L263,454L260,443L260,433L259,423L259,416L259,409L259,403L259,399L259,396" stroke-opacity="1" stroke-width="5" stroke-linecap="round" stroke-linejoin="round" style="-webkit-tap-highlight-color: rgba(0, 0, 0, 0); stroke-opacity: 1; stroke-linecap: round; stroke-linejoin: round; -webkit-user-select: text;"></path><path fill="none" stroke="#000000" d="M266,395L260,401L255,405L248,410L240,416L231,422L221,428L210,434L199,439L190,444L182,447L174,450L167,452" stroke-opacity="1" stroke-width="5" stroke-linecap="round" stroke-linejoin="round" style="-webkit-tap-highlight-color: rgba(0, 0, 0, 0); stroke-opacity: 1; stroke-linecap: round; stroke-linejoin: round; -webkit-user-select: text;"></path><path fill="none" stroke="#000000" d="M173,452L182,458L187,463L195,470L202,477L211,485L219,492L227,500L237,509L244,516L252,524L259,531L265,536L272,541" stroke-opacity="1" stroke-width="5" stroke-linecap="round" stroke-linejoin="round" style="-webkit-tap-highlight-color: rgba(0, 0, 0, 0); stroke-opacity: 1; stroke-linecap: round; stroke-linejoin: round; -webkit-user-select: text;"></path><path fill="none" stroke="#000000" d="M321,554L326,557L331,557L336,557L343,557L351,557L360,557L370,556L379,553L389,551L397,549L406,547L414,545L421,542L425,541L429,539" stroke-opacity="1" stroke-width="5" stroke-linecap="round" stroke-linejoin="round" style="-webkit-tap-highlight-color: rgba(0, 0, 0, 0); stroke-opacity: 1; stroke-linecap: round; stroke-linejoin: round; -webkit-user-select: text;"></path><path fill="none" stroke="#000000" d="M418,525L414,519L414,515L413,508L410,500L408,493L406,485L404,477L404,469L403,462L402,455L401,450L399,445" stroke-opacity="1" stroke-width="5" stroke-linecap="round" stroke-linejoin="round" style="-webkit-tap-highlight-color: rgba(0, 0, 0, 0); stroke-opacity: 1; stroke-linecap: round; stroke-linejoin: round; -webkit-user-select: text;"></path><path fill="none" stroke="#000000" d="M401,445L398,447L394,450L386,455L377,459L368,463L359,467L350,471L342,475L334,478L327,482L323,484L318,486L314,488" stroke-opacity="1" stroke-width="5" stroke-linecap="round" stroke-linejoin="round" style="-webkit-tap-highlight-color: rgba(0, 0, 0, 0); stroke-opacity: 1; stroke-linecap: round; stroke-linejoin: round; -webkit-user-select: text;"></path><path fill="none" stroke="#000000" d="M329,494L333,502L336,508L339,516L343,525L346,533L350,542L354,551L357,559L361,566L363,571L367,578L369,583L371,587L373,590L375,590L377,590" stroke-opacity="1" stroke-width="5" stroke-linecap="round" stroke-linejoin="round" style="-webkit-tap-highlight-color: rgba(0, 0, 0, 0); stroke-opacity: 1; stroke-linecap: round; stroke-linejoin: round; -webkit-user-select: text;"></path><path fill="none" stroke="#000000" d="M384,568L391,561L395,553L402,544L411,531L417,522L424,513L431,503L437,495L445,488L451,480" stroke-opacity="1" stroke-width="5" stroke-linecap="round" stroke-linejoin="round" style="-webkit-tap-highlight-color: rgba(0, 0, 0, 0); stroke-opacity: 1; stroke-linecap: round; stroke-linejoin: round; -webkit-user-select: text;"></path><path fill="none" stroke="#000000" d="M472,469L471,466L469,462L467,458L464,451L461,445L458,440L454,434L450,430L446,425L442,422L438,418L434,415L430,412L425,410L420,408L414,406L408,405L401,404L394,404L387,404L382,404L377,404L371,404L366,404L360,405L355,406L350,408L345,409L340,410L336,412L331,413L328,413L323,414L319,414L314,414L309,414L304,414L299,414L293,414L288,412L282,410L276,407L272,405L268,403" stroke-opacity="1" stroke-width="5" stroke-linecap="round" stroke-linejoin="round" style="-webkit-tap-highlight-color: rgba(0, 0, 0, 0); stroke-opacity: 1; stroke-linecap: round; stroke-linejoin: round; -webkit-user-select: text;"></path><path fill="none" stroke="#000000" d="M242,390L240,387L238,387L234,386L231,384L227,382L224,379L221,376L219,373L217,370L214,367L212,364L209,361L206,357L202,353L199,349L197,344L195,339L194,335L193,329L192,324L192,320L191,315L190,311L190,308L189,305L189,302L188,301L187,299L185,299L184,299L182,299L180,301L177,303L172,307L167,311L161,315L152,321L144,326L136,332L127,337L118,343L109,349L102,353L95,358L88,362L79,367" stroke-opacity="1" stroke-width="5" stroke-linecap="round" stroke-linejoin="round" style="-webkit-tap-highlight-color: rgba(0, 0, 0, 0); stroke-opacity: 1; stroke-linecap: round; stroke-linejoin: round; -webkit-user-select: text;"></path><path fill="none" stroke="#000000" d="M77,384L84,388L89,391L95,395L100,400L105,405L109,411L112,416L114,421L117,426L119,429L121,432L123,433L125,433L127,433L128,432" stroke-opacity="1" stroke-width="5" stroke-linecap="round" stroke-linejoin="round" style="-webkit-tap-highlight-color: rgba(0, 0, 0, 0); stroke-opacity: 1; stroke-linecap: round; stroke-linejoin: round; -webkit-user-select: text;"></path><path fill="none" stroke="#000000" d="M129,427L127,419L133,414L140,407L147,398L156,390L166,380L176,371L186,361L197,352L207,344L213,338" stroke-opacity="1" stroke-width="5" stroke-linecap="round" stroke-linejoin="round" style="-webkit-tap-highlight-color: rgba(0, 0, 0, 0); stroke-opacity: 1; stroke-linecap: round; stroke-linejoin: round; -webkit-user-select: text;"></path><path fill="none" stroke="#000000" d="M240,326L236,329L230,330L224,331L214,333L203,334L192,335L181,335L169,335L158,335L148,335L140,335L133,335L126,334L120,333L115,332L112,332" stroke-opacity="1" stroke-width="5" stroke-linecap="round" stroke-linejoin="round" style="-webkit-tap-highlight-color: rgba(0, 0, 0, 0); stroke-opacity: 1; stroke-linecap: round; stroke-linejoin: round; -webkit-user-select: text;"></path><path fill="none" stroke="#000000" d="M111,335L114,342L115,347L118,354L122,364L126,373L131,383L136,393L140,403L144,412L148,422L151,429L155,437L159,441L163,445" stroke-opacity="1" stroke-width="5" stroke-linecap="round" stroke-linejoin="round" style="-webkit-tap-highlight-color: rgba(0, 0, 0, 0); stroke-opacity: 1; stroke-linecap: round; stroke-linejoin: round; -webkit-user-select: text;"></path><path fill="none" stroke="#000000" d="M169,485L163,488L159,491L153,495L147,500L141,504L134,509L126,513L117,517L109,522L100,526L92,530L84,533" stroke-opacity="1" stroke-width="5" stroke-linecap="round" stroke-linejoin="round" style="-webkit-tap-highlight-color: rgba(0, 0, 0, 0); stroke-opacity: 1; stroke-linecap: round; stroke-linejoin: round; -webkit-user-select: text;"></path><path fill="none" stroke="#000000" d="M75,543L72,537L72,531L72,524L72,515L72,505L72,496L73,486L73,477L75,469L77,462L79,455" stroke-opacity="1" stroke-width="5" stroke-linecap="round" stroke-linejoin="round" style="-webkit-tap-highlight-color: rgba(0, 0, 0, 0); stroke-opacity: 1; stroke-linecap: round; stroke-linejoin: round; -webkit-user-select: text;"></path><path fill="none" stroke="#000000" d="M97,462L101,468L105,474L110,481L116,490L122,498L128,508L134,517L139,526L145,534L151,541L157,548L162,552L165,553" stroke-opacity="1" stroke-width="5" stroke-linecap="round" stroke-linejoin="round" style="-webkit-tap-highlight-color: rgba(0, 0, 0, 0); stroke-opacity: 1; stroke-linecap: round; stroke-linejoin: round; -webkit-user-select: text;"></path><path fill="none" stroke="#000000" d="M156,561L149,566L145,568L140,570L133,572L125,574L117,575L109,577L100,579L92,581L85,582L78,583L73,584" stroke-opacity="1" stroke-width="5" stroke-linecap="round" stroke-linejoin="round" style="-webkit-tap-highlight-color: rgba(0, 0, 0, 0); stroke-opacity: 1; stroke-linecap: round; stroke-linejoin: round; -webkit-user-select: text;"></path><path fill="none" stroke="#000000" d="M74,567L75,559L76,554L78,548L81,541L85,534L88,527L92,521L97,516L102,511L107,506L113,502L118,497L122,495L126,492L131,489L135,486L139,483L143,480L146,477L149,474L152,471L155,468L157,464L158,461L160,457L161,454L162,449L162,444L163,440L163,435L164,430L165,424L167,417L170,410L171,405" stroke-opacity="1" stroke-width="5" stroke-linecap="round" stroke-linejoin="round" style="-webkit-tap-highlight-color: rgba(0, 0, 0, 0); stroke-opacity: 1; stroke-linecap: round; stroke-linejoin: round; -webkit-user-select: text;"></path><path fill="none" stroke="#000000" d="M172,388L171,380L171,376L170,371L170,367L168,363L166,358L163,354L160,349L156,345L152,342L147,339L143,335L138,333L134,331L130,329L125,327L120,325L117,323L112,320L108,317L104,314L100,310L97,306L93,301L90,296L88,289L87,283L87,274L88,266L92,259" stroke-opacity="1" stroke-width="5" stroke-linecap="round" stroke-linejoin="round" style="-webkit-tap-highlight-color: rgba(0, 0, 0, 0); stroke-opacity: 1; stroke-linecap: round; stroke-linejoin: round; -webkit-user-select: text;"></path><path fill="none" stroke="#000000" d="M110,259L117,256L124,256L132,254L140,253L147,252L155,252L161,252L168,251L172,250L176,250L178,249L180,249L181,249" stroke-opacity="1" stroke-width="5" stroke-linecap="round" stroke-linejoin="round" style="-webkit-tap-highlight-color: rgba(0, 0, 0, 0); stroke-opacity: 1; stroke-linecap: round; stroke-linejoin: round; -webkit-user-select: text;"></path><path fill="none" stroke="#000000" d="M183,249L182,259L182,264L180,271L178,277L176,286L174,295L173,303L171,312L169,322L167,331L164,342L161,352L160,360L158,368L156,374L154,378" stroke-opacity="1" stroke-width="5" stroke-linecap="round" stroke-linejoin="round" style="-webkit-tap-highlight-color: rgba(0, 0, 0, 0); stroke-opacity: 1; stroke-linecap: round; stroke-linejoin: round; -webkit-user-select: text;"></path><path fill="none" stroke="#000000" d="M134,386L126,383L122,381L116,378L108,374L99,370L90,365L82,361L73,356L67,352L62,349L57,345L55,342L53,339" stroke-opacity="1" stroke-width="5" stroke-linecap="round" stroke-linejoin="round" style="-webkit-tap-highlight-color: rgba(0, 0, 0, 0); stroke-opacity: 1; stroke-linecap: round; stroke-linejoin: round; -webkit-user-select: text;"></path><path fill="none" stroke="#000000" d="M66,332L79,328L89,324L106,318L122,313L140,310L156,307L170,304L183,301L199,295L213,288L226,282" stroke-opacity="1" stroke-width="5" stroke-linecap="round" stroke-linejoin="round" style="-webkit-tap-highlight-color: rgba(0, 0, 0, 0); stroke-opacity: 1; stroke-linecap: round; stroke-linejoin: round; -webkit-user-select: text;"></path></svg>