<svg height="644" version="1.1" width="704" xmlns="http://www.w3.org/2000/svg" xmlns:xlink="http://www.w3.org/1999/xlink" style="overflow: hidden; position: relative; -webkit-user-select: text;"><desc style="-webkit-tap-highlight-color: rgba(0, 0, 0, 0); -webkit-user-select: text;">Created with Raphaël 2.2.0</desc><defs style="-webkit-tap-highlight-color: rgba(0, 0, 0, 0); -webkit-user-select: text;"></defs><path fill="none" stroke="#000000" d="M178,121L181,117L184,114L187,111L190,107L194,104L199,99L204,96L212,92L218,88L223,86L229,84L236,82L244,81L250,80L257,80L263,80L268,80L274,81L279,82L283,84L287,87L291,89L295,92L299,95L302,99L306,103L310,106L313,110L316,114L320,118L323,122L326,126L328,130L331,135L333,140L335,144L337,148L338,153L340,157L341,161L342,165L344,170L345,175L347,179L349,183L350,188L352,192L354,197L355,201L357,205L359,209L361,213L363,218L365,221L367,225L369,228L371,231L373,234L375,237L378,240L380,243L382,246L384,248L387,250L389,252L391,254L394,256L396,258L398,259L400,261L402,263L405,264L407,265L410,266L413,268L416,269L418,269L421,270L424,270L427,270L429,270L432,271L434,272L436,275L439,277L440,281" stroke-opacity="1" stroke-width="5" stroke-linecap="round" stroke-linejoin="round" style="-webkit-tap-highlight-color: rgba(0, 0, 0, 0); stroke-opacity: 1; stroke-linecap: round; stroke-linejoin: round; -webkit-user-select: text;"></path><path fill="none" stroke="#000000" d="M442,292L441,296L441,298L440,300L438,302L435,304L433,306L430,309L426,312L423,315L419,319L414,323L410,327L406,331L402,335L398,338L394,342L389,347L386,351L382,355L378,359L374,363L370,367L365,371L360,376L356,380L352,383L348,387L345,390L342,392L340,394L337,396L334,398L331,400L328,401L324,405" stroke-opacity="1" stroke-width="5" stroke-linecap="round" stroke-linejoin="round" style="-webkit-tap-highlight-color: rgba(0, 0, 0, 0); stroke-opacity: 1; stroke-linecap: round; stroke-linejoin: round; -webkit-user-select: text;"></path><path fill="none" stroke="#000000" d="M306,415L300,414L298,414L295,412L292,409L288,405L283,400L279,396L275,392L272,389L268,386L265,383L260,381L257,377L252,373L248,369L244,365L241,361L238,359L234,356L231,352L228,349L225,347L222,344L220,341L217,338L215,336L212,333L210,331L207,329L206,326L203,322" stroke-opacity="1" stroke-width="5" stroke-linecap="round" stroke-linejoin="round" style="-webkit-tap-highlight-color: rgba(0, 0, 0, 0); stroke-opacity: 1; stroke-linecap: round; stroke-linejoin: round; -webkit-user-select: text;"></path><path fill="none" stroke="#000000" d="M188,295L191,291L193,290L197,288L200,285L204,283L209,279L215,276L220,272L226,268L233,264L239,260L245,256L252,252L260,246L267,241L275,235L282,230L290,225L299,220L307,214L315,208L322,204L330,199L338,194L346,189L354,184L360,180L367,176L373,172L379,168L385,164L389,161L394,159L397,156L401,154L404,152L408,149" stroke-opacity="1" stroke-width="5" stroke-linecap="round" stroke-linejoin="round" style="-webkit-tap-highlight-color: rgba(0, 0, 0, 0); stroke-opacity: 1; stroke-linecap: round; stroke-linejoin: round; -webkit-user-select: text;"></path><path fill="none" stroke="#000000" d="M408,167L403,178L403,181L401,186L400,192L398,198L395,206L391,214L388,222L384,230L379,239L375,248L371,257L367,267L362,277L357,286L353,295L350,302L347,310L344,317L341,324L340,329L338,335L336,339L334,345L333,350L331,354L330,357L328,360L327,363L326,366L325,367L324,368L322,369" stroke-opacity="1" stroke-width="5" stroke-linecap="round" stroke-linejoin="round" style="-webkit-tap-highlight-color: rgba(0, 0, 0, 0); stroke-opacity: 1; stroke-linecap: round; stroke-linejoin: round; -webkit-user-select: text;"></path><path fill="none" stroke="#000000" d="M309,342L302,335L299,331L296,327L292,321L287,315L282,310L277,304L272,298L268,293L263,288L259,284L254,279L250,274L246,270L242,266L238,262L234,257L230,253L226,248L221,243L218,239L214,235L211,230L208,226L205,223L203,220" stroke-opacity="1" stroke-width="5" stroke-linecap="round" stroke-linejoin="round" style="-webkit-tap-highlight-color: rgba(0, 0, 0, 0); stroke-opacity: 1; stroke-linecap: round; stroke-linejoin: round; -webkit-user-select: text;"></path><path fill="none" stroke="#000000" d="M197,206L206,198L209,196L213,193L218,189L224,186L230,181L237,177L244,172L251,167L259,162L266,157L274,152L281,147L289,141L295,137L301,133L306,129L311,126L317,122L321,119L325,116L328,113L331,111L334,109L338,105L341,103" stroke-opacity="1" stroke-width="5" stroke-linecap="round" stroke-linejoin="round" style="-webkit-tap-highlight-color: rgba(0, 0, 0, 0); stroke-opacity: 1; stroke-linecap: round; stroke-linejoin: round; -webkit-user-select: text;"></path><path fill="none" stroke="#000000" d="M333,108L334,121L335,125L337,132L340,139L342,147L345,156L348,164L351,174L354,184L358,193L361,202L365,211L369,220L373,229L377,239L381,248L384,257L388,266L390,274L393,282L396,290L398,296L400,302L402,308L404,312L405,316L406,319L406,322L407,323L408,325L408,326L408,327L408,328L408,329L408,330L408,331L408,332L408,333L407,335L406,337L405,339L403,342L401,345L398,349L394,353L391,356L387,360L382,364L377,369L372,373L367,377L363,380L358,383L353,386L347,389L342,391L336,393L331,395L326,396L321,397L316,398L311,398L306,398L301,398L296,398L291,398L286,398L280,398L275,398L270,398L265,398L260,398L255,398L251,398L246,398L241,398L237,398L232,398L228,399L223,399L219,400L214,401L210,402L206,403L202,404L198,405L195,406L191,407L188,408L185,409L183,410L181,411L179,412L177,413L176,415L175,416L173,417L172,419L171,420L170,422L169,423L168,425L167,427L166,428L165,430L165,432L164,433L163,435L163,437L162,438L162,440L161,442L161,444L161,447L161,449L160,451L160,454L160,456L160,458L160,460L160,461L160,463L160,465L160,466L160,468L160,470L161,473L162,478L163,482" stroke-opacity="1" stroke-width="5" stroke-linecap="round" stroke-linejoin="round" style="-webkit-tap-highlight-color: rgba(0, 0, 0, 0); stroke-opacity: 1; stroke-linecap: round; stroke-linejoin: round; -webkit-user-select: text;"></path></svg>