<svg height="644" version="1.1" width="704" xmlns="http://www.w3.org/2000/svg" xmlns:xlink="http://www.w3.org/1999/xlink" style="overflow: hidden; position: relative; -webkit-user-select: text;"><desc style="-webkit-tap-highlight-color: rgba(0, 0, 0, 0); -webkit-user-select: text;">Created with Raphaël 2.2.0</desc><defs style="-webkit-tap-highlight-color: rgba(0, 0, 0, 0); -webkit-user-select: text;"></defs><path fill="none" stroke="#000000" d="M124,269L128,266L130,264L133,262L136,260L139,257L143,254L147,250L152,247L157,242L162,238L166,234L172,230L178,226L182,222L187,218L192,213L197,209L202,205L208,200L214,195L220,189L226,184L233,179L239,174L245,169L251,164L256,160L261,156L265,152L268,150L271,147L273,146L274,145L275,144L275,143L275,142" stroke-opacity="1" stroke-width="5" stroke-linecap="round" stroke-linejoin="round" style="-webkit-tap-highlight-color: rgba(0, 0, 0, 0); stroke-opacity: 1; stroke-linecap: round; stroke-linejoin: round; -webkit-user-select: text;"></path><path fill="none" stroke="#000000" d="M288,129L290,135L290,137L291,138L292,140L293,142L294,143L295,145L297,147L298,150L300,152L301,155L303,158L304,161L306,164L308,168L310,171L313,174L315,178L318,182L321,186L324,191L326,195L330,199L332,202L336,206L338,211L341,215L343,219L346,223L349,228L352,232L355,237L358,243L360,248L364,253L367,258L370,264L372,269L375,274L377,278L380,281L382,285L384,288L386,291L387,293L389,296L390,298L391,299L392,300L393,301L393,302L393,301L392,301L390,300" stroke-opacity="1" stroke-width="5" stroke-linecap="round" stroke-linejoin="round" style="-webkit-tap-highlight-color: rgba(0, 0, 0, 0); stroke-opacity: 1; stroke-linecap: round; stroke-linejoin: round; -webkit-user-select: text;"></path><path fill="none" stroke="#000000" d="M375,305L367,309L364,310L362,311L358,312L355,313L352,313L348,315L344,315L339,317L334,318L330,319L325,320L319,322L314,323L309,325L304,326L299,327L294,328L288,329L284,330L278,330L273,331L267,332L262,332L256,332L250,333L244,333L238,334L233,335L228,335L223,336L218,337L213,338L209,339L205,339L201,340L198,341L195,342L193,342L192,343L191,343L191,344L190,344L190,342L190,340L189,338L189,337L189,336L189,335L189,334L189,333L189,332" stroke-opacity="1" stroke-width="5" stroke-linecap="round" stroke-linejoin="round" style="-webkit-tap-highlight-color: rgba(0, 0, 0, 0); stroke-opacity: 1; stroke-linecap: round; stroke-linejoin: round; -webkit-user-select: text;"></path><path fill="none" stroke="#000000" d="M189,318L185,316L185,314L185,312L184,310L183,308L182,305L181,302L180,298L178,294L177,290L175,286L174,282L172,278L170,273L168,268L166,263L164,257L162,252L160,246L157,238L155,233L152,227L150,220L148,214L146,208L143,200L141,194L139,188L137,181L135,176L133,171L131,167L130,162L129,159L128,157L127,155L126,154L126,153L125,153L125,152" stroke-opacity="1" stroke-width="5" stroke-linecap="round" stroke-linejoin="round" style="-webkit-tap-highlight-color: rgba(0, 0, 0, 0); stroke-opacity: 1; stroke-linecap: round; stroke-linejoin: round; -webkit-user-select: text;"></path><path fill="none" stroke="#000000" d="M124,111L131,113L133,113L135,113L137,113L139,113L142,113L145,113L149,113L153,114L157,116L161,116L166,118L171,119L177,121L182,122L188,123L194,125L200,126L206,127L213,128L219,130L226,131L234,133L241,134L248,136L255,138L263,140L271,142L278,145L286,147L293,149L299,150L306,153L313,155L318,157L324,160L330,162L336,164L341,167L346,169L351,170L355,172L360,174L363,175L367,176L369,177L371,178L372,178L373,179L374,179L374,180L374,179" stroke-opacity="1" stroke-width="5" stroke-linecap="round" stroke-linejoin="round" style="-webkit-tap-highlight-color: rgba(0, 0, 0, 0); stroke-opacity: 1; stroke-linecap: round; stroke-linejoin: round; -webkit-user-select: text;"></path><path fill="none" stroke="#000000" d="M364,187L365,189L365,191L365,194L364,196L362,199L360,202L357,205L355,208L353,212L351,216L350,220L348,224L346,228L345,232L343,236L342,240L340,245L339,249L338,253L337,257L336,262L335,266L334,271L333,275L332,280L331,285L330,291L328,296L327,301L326,306L324,312L323,318L321,323L319,329L317,334L314,339L312,345L310,351L307,355L305,359L303,364L301,368L300,372L299,376L298,378L297,381L297,383L296,385L295,386L295,387L294,388L293,388L292,388" stroke-opacity="1" stroke-width="5" stroke-linecap="round" stroke-linejoin="round" style="-webkit-tap-highlight-color: rgba(0, 0, 0, 0); stroke-opacity: 1; stroke-linecap: round; stroke-linejoin: round; -webkit-user-select: text;"></path><path fill="none" stroke="#000000" d="M283,377L283,371L283,370L283,368L283,365L283,363L282,360L281,358L280,355L279,352L278,349L277,346L276,343L275,339L273,335L272,331L271,326L270,322L268,318L267,315L266,311L265,308L263,304L262,300L260,296L259,292L258,288L256,285L255,282L254,279L253,275L252,272L251,269L250,265L249,262L249,259L248,256L247,252L247,250L246,247L246,245L245,243L245,242L244,240L244,239L244,238L244,237L244,235" stroke-opacity="1" stroke-width="5" stroke-linecap="round" stroke-linejoin="round" style="-webkit-tap-highlight-color: rgba(0, 0, 0, 0); stroke-opacity: 1; stroke-linecap: round; stroke-linejoin: round; -webkit-user-select: text;"></path><path fill="none" stroke="#000000" d="M241,213L245,204L245,201L245,197L246,193L246,189L247,184L249,178L250,173L251,167L253,161L254,157L255,151L256,145L258,140L258,135L259,130L260,124L262,118L263,112L264,106L265,101L266,94L267,89L268,84L269,79L270,74L271,70L272,65L272,62L272,59L272,57L272,55L272,54L272,53L272,52L272,51" stroke-opacity="1" stroke-width="5" stroke-linecap="round" stroke-linejoin="round" style="-webkit-tap-highlight-color: rgba(0, 0, 0, 0); stroke-opacity: 1; stroke-linecap: round; stroke-linejoin: round; -webkit-user-select: text;"></path><path fill="none" stroke="#000000" d="M275,50L275,52L272,53L270,54L267,56L264,58L260,61L256,64L252,67L248,70L243,72L239,75L236,78L231,82L228,85L224,89L220,93L217,97L214,101L211,105L208,109L205,113L202,118L200,121L198,125L196,129L195,133L194,138L193,143L192,147L192,152L192,157L192,162L192,169L192,175L192,181L193,186L195,192L197,198L199,203L201,209L204,215L206,220L209,225L213,230L216,234L219,239L223,243L227,247L231,250L235,254L239,258L244,261L248,264L253,267L258,270L263,273L267,276L272,278L277,281L283,284L288,286L293,289L298,292L302,295L307,298L311,301L316,303L320,307L323,310L327,312L331,315L334,318L337,321L340,324L343,327L347,330L350,333L352,336L355,339L357,342L360,345L362,349L364,352L366,355L367,358L369,362L370,365L372,369L373,372L374,375L375,379L377,382L378,386L379,389L379,393L380,396L380,400L380,404L381,407L381,410L381,413L381,416L381,419L381,422L381,425L381,428L381,431L381,433L380,435L380,437L379,439L379,441L378,443L378,445L377,447L376,449L376,451L375,453L374,455L373,457L372,459L372,461L371,462L370,464L369,465L369,467L368,468L367,469L367,471L366,472L365,473L364,475L363,477L362,478L362,480L360,481L359,483L357,484L355,486L353,488L350,490L348,492L344,495L339,499L334,504L328,508L322,512L313,516L301,519" stroke-opacity="1" stroke-width="5" stroke-linecap="round" stroke-linejoin="round" style="-webkit-tap-highlight-color: rgba(0, 0, 0, 0); stroke-opacity: 1; stroke-linecap: round; stroke-linejoin: round; -webkit-user-select: text;"></path></svg>