<svg height="644" version="1.1" width="704" xmlns="http://www.w3.org/2000/svg" xmlns:xlink="http://www.w3.org/1999/xlink" style="overflow: hidden; position: relative; -webkit-user-select: text;"><desc style="-webkit-tap-highlight-color: rgba(0, 0, 0, 0); -webkit-user-select: text;">Created with Raphaël 2.2.0</desc><defs style="-webkit-tap-highlight-color: rgba(0, 0, 0, 0); -webkit-user-select: text;"></defs><path fill="none" stroke="#000000" d="M496,338L486,341L483,341L479,342L473,343L467,345L461,347L456,349L450,351L443,354L437,356L431,357L424,359L418,361L411,364L405,366L399,369L391,371L385,374L378,377L372,380L366,383L360,386L354,388L349,390L343,393L338,395L332,398L325,400L319,403L314,406L308,408L302,410L297,412L293,413L288,415L283,417L279,419L276,420L272,421L270,422L268,422L267,422L265,422" stroke-opacity="1" stroke-width="5" stroke-linecap="round" stroke-linejoin="round" style="-webkit-tap-highlight-color: rgba(0, 0, 0, 0); stroke-opacity: 1; stroke-linecap: round; stroke-linejoin: round; -webkit-user-select: text;"></path><path fill="none" stroke="#000000" d="M253,407L250,403L250,400L249,398L248,395L246,391L244,387L242,383L240,379L238,375L236,370L233,366L231,361L229,357L226,352L224,348L222,343L220,339L218,335L216,331L215,327L214,324L212,320L210,316L208,313L207,309L205,305L203,301L201,297L199,293L197,288L195,284L194,280L192,275L190,271L189,268L188,264L187,261L187,257" stroke-opacity="1" stroke-width="5" stroke-linecap="round" stroke-linejoin="round" style="-webkit-tap-highlight-color: rgba(0, 0, 0, 0); stroke-opacity: 1; stroke-linecap: round; stroke-linejoin: round; -webkit-user-select: text;"></path><path fill="none" stroke="#000000" d="M194,222L197,223L199,223L203,223L207,222L212,220L218,219L225,217L232,215L239,214L246,213L253,212L261,211L268,210L275,208L283,207L289,206L297,205L303,204L310,203L316,202L323,201L330,200L337,198L344,197L350,196L356,195L360,194L365,194L369,193L373,193L376,193L378,193L380,193L382,192L385,191L387,190" stroke-opacity="1" stroke-width="5" stroke-linecap="round" stroke-linejoin="round" style="-webkit-tap-highlight-color: rgba(0, 0, 0, 0); stroke-opacity: 1; stroke-linecap: round; stroke-linejoin: round; -webkit-user-select: text;"></path><path fill="none" stroke="#000000" d="M380,216L377,227L377,231L375,235L373,241L371,248L369,254L366,262L364,270L362,277L359,284L357,291L356,298L354,305L353,311L351,319L350,327L348,333L347,341L345,349L344,355L343,362L341,369L340,376L338,382L337,388L336,393L335,400L334,404L333,410L332,414L331,419L331,424L330,428L329,433L329,437L328,441L328,444L328,448L327,451L327,454L326,456L326,458L326,461L325,462L325,464L323,464" stroke-opacity="1" stroke-width="5" stroke-linecap="round" stroke-linejoin="round" style="-webkit-tap-highlight-color: rgba(0, 0, 0, 0); stroke-opacity: 1; stroke-linecap: round; stroke-linejoin: round; -webkit-user-select: text;"></path><path fill="none" stroke="#000000" d="M296,466L289,466L287,466L284,466L281,466L277,466L274,466L270,465L267,464L263,463L259,462L254,459L249,457L244,454L238,452L233,449L228,447L222,445L217,443L212,442L207,441L202,440L198,439L194,437L190,436L186,434L182,433L178,431L174,429L170,428L168,427L165,425L163,424" stroke-opacity="1" stroke-width="5" stroke-linecap="round" stroke-linejoin="round" style="-webkit-tap-highlight-color: rgba(0, 0, 0, 0); stroke-opacity: 1; stroke-linecap: round; stroke-linejoin: round; -webkit-user-select: text;"></path><path fill="none" stroke="#000000" d="M161,410L174,400L178,397L182,393L187,388L192,383L198,378L204,373L210,367L216,362L222,357L228,352L234,347L239,342L245,337L250,332L256,327L260,324L266,319L270,315L275,310L280,307L284,303L288,300L292,297L297,293L301,290L305,286L309,283L312,281L316,277L318,274L322,271L325,268L327,266L328,264" stroke-opacity="1" stroke-width="5" stroke-linecap="round" stroke-linejoin="round" style="-webkit-tap-highlight-color: rgba(0, 0, 0, 0); stroke-opacity: 1; stroke-linecap: round; stroke-linejoin: round; -webkit-user-select: text;"></path><path fill="none" stroke="#000000" d="M334,265L338,271L338,274L340,278L343,282L346,286L350,292L353,298L357,303L361,309L365,314L369,319L372,323L375,328L379,332L382,335L384,339L387,344L390,349L392,353L394,356L396,360L398,364L400,367L401,370L403,373L404,376L405,378L406,380L407,381L407,382L406,382" stroke-opacity="1" stroke-width="5" stroke-linecap="round" stroke-linejoin="round" style="-webkit-tap-highlight-color: rgba(0, 0, 0, 0); stroke-opacity: 1; stroke-linecap: round; stroke-linejoin: round; -webkit-user-select: text;"></path><path fill="none" stroke="#000000" d="M396,402L391,406L387,407L384,409L382,410L378,411L375,412L372,412L368,413L365,414L362,414L358,415L355,415L351,416L348,416L344,416L340,416L336,416L331,416L327,416L322,416L316,415L311,412L306,410L301,407L296,405L291,402L287,399L283,396L279,393L275,390L272,386L268,382L265,378L263,374L260,369L257,365L255,361L253,356L252,352L250,347L248,342L247,338L246,333L245,327L244,322L244,317L243,311L243,304L243,298L243,291L243,285L243,278L243,271L245,264L246,257L246,251L246,245L247,239L248,232L249,226L249,219L249,212L249,206L249,199L249,193L249,188L249,183L249,179L249,174L249,170L248,167L247,162L246,158L245,154L243,149L242,145L241,140L239,136L238,133L236,130L234,127L233,124L231,122L229,120L227,118L225,116" stroke-opacity="1" stroke-width="5" stroke-linecap="round" stroke-linejoin="round" style="-webkit-tap-highlight-color: rgba(0, 0, 0, 0); stroke-opacity: 1; stroke-linecap: round; stroke-linejoin: round; -webkit-user-select: text;"></path></svg>