<svg height="644" version="1.1" width="704" xmlns="http://www.w3.org/2000/svg" xmlns:xlink="http://www.w3.org/1999/xlink" style="overflow: hidden; position: relative; -webkit-user-select: text;"><desc style="-webkit-tap-highlight-color: rgba(0, 0, 0, 0); -webkit-user-select: text;">Created with Raphaël 2.2.0</desc><defs style="-webkit-tap-highlight-color: rgba(0, 0, 0, 0); -webkit-user-select: text;"></defs><path fill="none" stroke="#000000" d="M228,118L235,118L238,118L241,118L245,118L248,118L252,118L256,118L260,118L264,118L269,119L273,121L277,123L282,126L286,129L291,131L294,134L298,137L302,140L306,144L309,147L313,152L317,156L320,161L323,166L327,171L330,177L333,183L336,189L338,195L340,203L342,210L343,216L343,223L344,230L344,238L344,246L344,255L344,264L344,272L343,280L342,288L339,296L337,303L335,309L332,315L330,320L327,326L325,331L323,335L320,340L318,344L315,349L312,353L310,356L308,359L306,362L303,366L301,369L299,371L297,373L296,376L294,378L293,381L291,382L290,384L289,385L287,386L286,388L285,388L284,389L283,390L282,391L282,392L280,392L280,393L279,393L278,393L278,394L277,394L277,395L276,395L275,395L274,395L272,395L270,393L266,392" stroke-opacity="1" stroke-width="5" stroke-linecap="round" stroke-linejoin="round" style="-webkit-tap-highlight-color: rgba(0, 0, 0, 0); stroke-opacity: 1; stroke-linecap: round; stroke-linejoin: round; -webkit-user-select: text;"></path><path fill="none" stroke="#000000" d="M259,390L255,391L252,391L249,391L246,390L242,388L238,386L235,383L231,381L227,378L223,375L219,372L215,369L211,366L207,363L203,360L199,356L195,353L191,350L187,347L183,345L180,342L176,339L173,337L169,334L166,331L163,329L161,326L158,324L155,321L153,319L151,317L149,315L148,313L146,311L145,310L143,308L142,306L141,304L141,301" stroke-opacity="1" stroke-width="5" stroke-linecap="round" stroke-linejoin="round" style="-webkit-tap-highlight-color: rgba(0, 0, 0, 0); stroke-opacity: 1; stroke-linecap: round; stroke-linejoin: round; -webkit-user-select: text;"></path><path fill="none" stroke="#000000" d="M133,281L138,279L141,277L145,274L149,271L153,268L158,264L163,261L170,257L175,253L181,249L186,245L192,241L198,237L204,233L210,229L216,225L221,222L226,219L232,215L238,212L244,208L250,205L255,201L261,197L267,194L274,190L280,186L286,182L292,179L297,175L302,171L307,168L312,165L316,162L321,160L325,157L329,154L333,152L337,150L340,147L344,145L347,143L350,142L352,140L354,139L356,138L358,137L360,136L362,134L364,132L366,130" stroke-opacity="1" stroke-width="5" stroke-linecap="round" stroke-linejoin="round" style="-webkit-tap-highlight-color: rgba(0, 0, 0, 0); stroke-opacity: 1; stroke-linecap: round; stroke-linejoin: round; -webkit-user-select: text;"></path><path fill="none" stroke="#000000" d="M368,132L371,138L371,142L371,146L372,151L373,157L374,162L377,169L379,174L381,181L383,187L385,192L387,198L388,202L390,207L392,211L393,215L395,220L396,224L398,228L400,232L401,237L403,241L405,246L406,250L408,255L409,259L411,264L412,268L413,272L414,276L415,280L416,284L417,287L418,291L420,295L421,299L421,303L423,306L423,310L425,313L425,317L426,320L428,324L428,327L429,330L430,332L430,334L431,335L431,337L431,338L430,338L426,336L422,336" stroke-opacity="1" stroke-width="5" stroke-linecap="round" stroke-linejoin="round" style="-webkit-tap-highlight-color: rgba(0, 0, 0, 0); stroke-opacity: 1; stroke-linecap: round; stroke-linejoin: round; -webkit-user-select: text;"></path><path fill="none" stroke="#000000" d="M404,341L401,347L401,349L399,352L396,354L394,356L390,358L387,361L384,363L381,365L378,367L375,369L373,371L370,373L367,374L365,376L362,378L360,380L357,382L353,384L350,386L347,388L344,390L340,392L337,394L334,397L331,399L328,400L326,403L323,404L320,406L318,408L315,410L313,411L311,412L309,414L307,415L306,416L304,417L302,418L301,420L300,420L299,421L298,421L297,421L295,421L289,415" stroke-opacity="1" stroke-width="5" stroke-linecap="round" stroke-linejoin="round" style="-webkit-tap-highlight-color: rgba(0, 0, 0, 0); stroke-opacity: 1; stroke-linecap: round; stroke-linejoin: round; -webkit-user-select: text;"></path><path fill="none" stroke="#000000" d="M274,393L267,388L265,385L262,378L258,371L254,366L250,361L247,356L244,352L241,347L238,342L236,337L233,332L231,326L229,321L226,317L225,313L223,309L221,305L219,301L216,296L214,292L212,288L210,285L208,282L207,279L205,277L203,274L202,272L200,269L198,266L196,262L193,259L192,256L190,254L188,251L187,248L186,246L185,243L183,240L181,235" stroke-opacity="1" stroke-width="5" stroke-linecap="round" stroke-linejoin="round" style="-webkit-tap-highlight-color: rgba(0, 0, 0, 0); stroke-opacity: 1; stroke-linecap: round; stroke-linejoin: round; -webkit-user-select: text;"></path><path fill="none" stroke="#000000" d="M183,236L187,240L192,242L197,245L204,249L212,252L220,255L229,258L237,261L246,263L256,265L265,267L275,269L284,271L294,274L303,276L311,278L319,280L327,282L334,285L341,288L347,289L353,291L359,293L363,294L367,295L371,296L374,296L376,297L378,298L379,298L381,298L382,298L382,294" stroke-opacity="1" stroke-width="5" stroke-linecap="round" stroke-linejoin="round" style="-webkit-tap-highlight-color: rgba(0, 0, 0, 0); stroke-opacity: 1; stroke-linecap: round; stroke-linejoin: round; -webkit-user-select: text;"></path><path fill="none" stroke="#000000" d="M379,290L377,297L377,301L376,307L374,315L371,322L367,332L362,341L357,349L353,357L349,364L345,372L341,379L337,386L333,393L329,400L324,407L320,413L316,419L313,424L309,429L306,434L304,437L301,441L299,444L298,447L296,449L295,451L294,453L294,454L293,455L293,456L292,456L292,457L292,458L291,459L291,460L290,461L289,461L289,462L289,463L288,463L287,463L287,464L286,465L285,465L284,466L281,466L279,466L275,467" stroke-opacity="1" stroke-width="5" stroke-linecap="round" stroke-linejoin="round" style="-webkit-tap-highlight-color: rgba(0, 0, 0, 0); stroke-opacity: 1; stroke-linecap: round; stroke-linejoin: round; -webkit-user-select: text;"></path></svg>