<svg height="644" version="1.1" width="704" xmlns="http://www.w3.org/2000/svg" xmlns:xlink="http://www.w3.org/1999/xlink" style="overflow: hidden; position: relative; -webkit-user-select: text;"><desc style="-webkit-tap-highlight-color: rgba(0, 0, 0, 0); -webkit-user-select: text;">Created with Raphaël 2.2.0</desc><defs style="-webkit-tap-highlight-color: rgba(0, 0, 0, 0); -webkit-user-select: text;"></defs><path fill="none" stroke="#000000" d="M128,198L134,195L139,191L143,188L149,184L155,180L161,176L167,172L173,167L179,163L183,159L186,156" stroke-opacity="1" stroke-width="5" stroke-linecap="round" stroke-linejoin="round" style="-webkit-tap-highlight-color: rgba(0, 0, 0, 0); stroke-opacity: 1; stroke-linecap: round; stroke-linejoin: round; -webkit-user-select: text;"></path><path fill="none" stroke="#000000" d="M201,147L204,152L206,155L209,159L211,163L214,168L216,173L219,178L221,183L224,189L226,194L229,197L230,201" stroke-opacity="1" stroke-width="5" stroke-linecap="round" stroke-linejoin="round" style="-webkit-tap-highlight-color: rgba(0, 0, 0, 0); stroke-opacity: 1; stroke-linecap: round; stroke-linejoin: round; -webkit-user-select: text;"></path><path fill="none" stroke="#000000" d="M227,211L222,218L219,220L216,223L212,227L208,230L202,234L197,239L193,243L189,247L184,251L180,254" stroke-opacity="1" stroke-width="5" stroke-linecap="round" stroke-linejoin="round" style="-webkit-tap-highlight-color: rgba(0, 0, 0, 0); stroke-opacity: 1; stroke-linecap: round; stroke-linejoin: round; -webkit-user-select: text;"></path><path fill="none" stroke="#000000" d="M167,260L163,255L160,251L156,245L151,239L147,235L143,232L140,229L137,226" stroke-opacity="1" stroke-width="5" stroke-linecap="round" stroke-linejoin="round" style="-webkit-tap-highlight-color: rgba(0, 0, 0, 0); stroke-opacity: 1; stroke-linecap: round; stroke-linejoin: round; -webkit-user-select: text;"></path><path fill="none" stroke="#000000" d="M141,213L150,210L156,209L164,208L174,205L184,202L194,198L204,194L214,189L224,185L234,182L241,180L249,177L255,175" stroke-opacity="1" stroke-width="5" stroke-linecap="round" stroke-linejoin="round" style="-webkit-tap-highlight-color: rgba(0, 0, 0, 0); stroke-opacity: 1; stroke-linecap: round; stroke-linejoin: round; -webkit-user-select: text;"></path><path fill="none" stroke="#000000" d="M260,174L255,184L255,191L252,198L249,206L245,216L242,223L239,231L236,238L233,246L230,252L227,258L225,264L222,269" stroke-opacity="1" stroke-width="5" stroke-linecap="round" stroke-linejoin="round" style="-webkit-tap-highlight-color: rgba(0, 0, 0, 0); stroke-opacity: 1; stroke-linecap: round; stroke-linejoin: round; -webkit-user-select: text;"></path><path fill="none" stroke="#000000" d="M218,272L210,272L208,269L205,266L201,263L197,259L194,255L190,250L186,245L184,239L183,232L182,225L182,218L182,212L185,207L187,202L190,197L192,191L195,186L198,181L200,176L202,169L204,164L204,159L205,154L206,148L207,142L208,136L209,132" stroke-opacity="1" stroke-width="5" stroke-linecap="round" stroke-linejoin="round" style="-webkit-tap-highlight-color: rgba(0, 0, 0, 0); stroke-opacity: 1; stroke-linecap: round; stroke-linejoin: round; -webkit-user-select: text;"></path><path fill="none" stroke="#000000" d="M224,117L229,112L233,111L236,109L240,106L244,104L249,103L253,102L257,102L260,102L264,102L267,102L269,102L272,104L275,106L279,109L283,112L287,115L291,118L296,120L301,122L306,123L312,124L317,125L323,125L329,125L333,125L338,125L341,125" stroke-opacity="1" stroke-width="5" stroke-linecap="round" stroke-linejoin="round" style="-webkit-tap-highlight-color: rgba(0, 0, 0, 0); stroke-opacity: 1; stroke-linecap: round; stroke-linejoin: round; -webkit-user-select: text;"></path><path fill="none" stroke="#000000" d="M347,135L343,145L343,149L340,154L338,161L336,168L334,174L333,180L331,187L330,193L328,198L327,202L326,206L324,210L322,213" stroke-opacity="1" stroke-width="5" stroke-linecap="round" stroke-linejoin="round" style="-webkit-tap-highlight-color: rgba(0, 0, 0, 0); stroke-opacity: 1; stroke-linecap: round; stroke-linejoin: round; -webkit-user-select: text;"></path><path fill="none" stroke="#000000" d="M311,216L306,213L304,210L300,206L296,201L290,193L284,186L280,182L276,178L272,176L270,173L268,171L266,169" stroke-opacity="1" stroke-width="5" stroke-linecap="round" stroke-linejoin="round" style="-webkit-tap-highlight-color: rgba(0, 0, 0, 0); stroke-opacity: 1; stroke-linecap: round; stroke-linejoin: round; -webkit-user-select: text;"></path><path fill="none" stroke="#000000" d="M259,160L267,153L271,149L277,142L284,135L289,130L295,124L302,116L309,109L314,104L320,99L326,94L329,90" stroke-opacity="1" stroke-width="5" stroke-linecap="round" stroke-linejoin="round" style="-webkit-tap-highlight-color: rgba(0, 0, 0, 0); stroke-opacity: 1; stroke-linecap: round; stroke-linejoin: round; -webkit-user-select: text;"></path><path fill="none" stroke="#000000" d="M333,86L340,94L340,97L342,101L345,106L348,112L350,118L354,125L357,131L360,138L364,145L366,150L369,155L371,160L373,165L375,169L377,172L378,175L378,176L378,177L379,177" stroke-opacity="1" stroke-width="5" stroke-linecap="round" stroke-linejoin="round" style="-webkit-tap-highlight-color: rgba(0, 0, 0, 0); stroke-opacity: 1; stroke-linecap: round; stroke-linejoin: round; -webkit-user-select: text;"></path><path fill="none" stroke="#000000" d="M379,178L370,181L365,181L359,181L353,181L343,180L335,179L328,179L322,179L316,179L311,178L307,177L304,174L302,172" stroke-opacity="1" stroke-width="5" stroke-linecap="round" stroke-linejoin="round" style="-webkit-tap-highlight-color: rgba(0, 0, 0, 0); stroke-opacity: 1; stroke-linecap: round; stroke-linejoin: round; -webkit-user-select: text;"></path><path fill="none" stroke="#000000" d="M300,168L303,163L303,161L303,158L302,155L301,150L300,146L299,140L299,135L298,130L297,124L296,119L294,114L292,109L290,106L288,101L285,98L282,94L279,91L275,87L271,84L267,81L263,78L259,76L255,75L251,74L248,73L246,72L243,71L241,71L240,70L239,70L238,70" stroke-opacity="1" stroke-width="5" stroke-linecap="round" stroke-linejoin="round" style="-webkit-tap-highlight-color: rgba(0, 0, 0, 0); stroke-opacity: 1; stroke-linecap: round; stroke-linejoin: round; -webkit-user-select: text;"></path><path fill="none" stroke="#000000" d="M214,76L213,77L209,78L204,80L197,83L190,87L182,90L174,93L166,95L158,98L151,101L146,103L141,104L136,106L131,108" stroke-opacity="1" stroke-width="5" stroke-linecap="round" stroke-linejoin="round" style="-webkit-tap-highlight-color: rgba(0, 0, 0, 0); stroke-opacity: 1; stroke-linecap: round; stroke-linejoin: round; -webkit-user-select: text;"></path><path fill="none" stroke="#000000" d="M117,123L120,135L120,141L121,147L123,155L124,162L126,169L128,175L130,181L132,185L133,189L135,191L136,192L139,192" stroke-opacity="1" stroke-width="5" stroke-linecap="round" stroke-linejoin="round" style="-webkit-tap-highlight-color: rgba(0, 0, 0, 0); stroke-opacity: 1; stroke-linecap: round; stroke-linejoin: round; -webkit-user-select: text;"></path><path fill="none" stroke="#000000" d="M145,182L151,179L156,175L164,169L172,162L180,155L187,149L195,142L202,136L209,130L216,123L222,118L226,114L230,112L232,110L234,109" stroke-opacity="1" stroke-width="5" stroke-linecap="round" stroke-linejoin="round" style="-webkit-tap-highlight-color: rgba(0, 0, 0, 0); stroke-opacity: 1; stroke-linecap: round; stroke-linejoin: round; -webkit-user-select: text;"></path><path fill="none" stroke="#000000" d="M235,108L233,120L233,123L233,128L233,133L233,140L233,146L233,153L233,162L234,169L235,176L236,183L237,190L238,196L238,201L238,207" stroke-opacity="1" stroke-width="5" stroke-linecap="round" stroke-linejoin="round" style="-webkit-tap-highlight-color: rgba(0, 0, 0, 0); stroke-opacity: 1; stroke-linecap: round; stroke-linejoin: round; -webkit-user-select: text;"></path><path fill="none" stroke="#000000" d="M226,219L223,215L221,212L219,208L215,201L209,191L203,183L197,175L192,169L187,162L182,156L178,152L175,146L172,140" stroke-opacity="1" stroke-width="5" stroke-linecap="round" stroke-linejoin="round" style="-webkit-tap-highlight-color: rgba(0, 0, 0, 0); stroke-opacity: 1; stroke-linecap: round; stroke-linejoin: round; -webkit-user-select: text;"></path><path fill="none" stroke="#000000" d="M153,134L157,131L161,128L165,125L172,119L180,113L187,107L193,103L199,99L203,95" stroke-opacity="1" stroke-width="5" stroke-linecap="round" stroke-linejoin="round" style="-webkit-tap-highlight-color: rgba(0, 0, 0, 0); stroke-opacity: 1; stroke-linecap: round; stroke-linejoin: round; -webkit-user-select: text;"></path><path fill="none" stroke="#000000" d="M214,88L228,89L232,89L235,90L239,92L242,95L245,99L247,102L249,107L250,112L251,117L252,122L253,129L253,135L253,142L253,149L253,155L253,162L252,168L251,174L250,181L248,187L248,194L247,199L247,204L247,209L247,214L247,218L250,223L253,226L256,229L261,232L265,233L270,235L275,236L279,237" stroke-opacity="1" stroke-width="5" stroke-linecap="round" stroke-linejoin="round" style="-webkit-tap-highlight-color: rgba(0, 0, 0, 0); stroke-opacity: 1; stroke-linecap: round; stroke-linejoin: round; -webkit-user-select: text;"></path><path fill="none" stroke="#000000" d="M304,245L309,247L312,247L315,247L318,247L322,247L326,247L330,247L335,247L340,247L344,247L349,248L353,250L357,253L361,256L365,259L368,263L371,267L373,272L375,277L376,282L377,288L377,295L377,301L376,307L374,314L372,321L370,327L367,332L364,336L361,339L359,342L356,344" stroke-opacity="1" stroke-width="5" stroke-linecap="round" stroke-linejoin="round" style="-webkit-tap-highlight-color: rgba(0, 0, 0, 0); stroke-opacity: 1; stroke-linecap: round; stroke-linejoin: round; -webkit-user-select: text;"></path><path fill="none" stroke="#000000" d="M335,347L329,349L326,349L322,349L316,349L309,350L302,351L295,352L288,352L282,353L277,354L273,354L270,354L266,354" stroke-opacity="1" stroke-width="5" stroke-linecap="round" stroke-linejoin="round" style="-webkit-tap-highlight-color: rgba(0, 0, 0, 0); stroke-opacity: 1; stroke-linecap: round; stroke-linejoin: round; -webkit-user-select: text;"></path><path fill="none" stroke="#000000" d="M267,341L269,337L269,334L270,328L273,321L275,313L277,306L280,298L281,293L283,287L285,282L287,278L287,274" stroke-opacity="1" stroke-width="5" stroke-linecap="round" stroke-linejoin="round" style="-webkit-tap-highlight-color: rgba(0, 0, 0, 0); stroke-opacity: 1; stroke-linecap: round; stroke-linejoin: round; -webkit-user-select: text;"></path><path fill="none" stroke="#000000" d="M280,282L299,284L306,284L313,286L321,288L330,289L339,290L346,290L356,290L365,290L371,290L377,290L382,290L385,290L387,290L388,290" stroke-opacity="1" stroke-width="5" stroke-linecap="round" stroke-linejoin="round" style="-webkit-tap-highlight-color: rgba(0, 0, 0, 0); stroke-opacity: 1; stroke-linecap: round; stroke-linejoin: round; -webkit-user-select: text;"></path><path fill="none" stroke="#000000" d="M390,289L393,296L391,301L387,307L381,315L376,322L371,328L365,335L359,343L355,350L351,356L348,363L344,370L340,377L336,383L333,386L331,389L328,392" stroke-opacity="1" stroke-width="5" stroke-linecap="round" stroke-linejoin="round" style="-webkit-tap-highlight-color: rgba(0, 0, 0, 0); stroke-opacity: 1; stroke-linecap: round; stroke-linejoin: round; -webkit-user-select: text;"></path><path fill="none" stroke="#000000" d="M323,380L323,373L323,368L324,362L325,352L326,342L327,332L329,318L330,309L332,299L333,293L334,286L337,280L339,274" stroke-opacity="1" stroke-width="5" stroke-linecap="round" stroke-linejoin="round" style="-webkit-tap-highlight-color: rgba(0, 0, 0, 0); stroke-opacity: 1; stroke-linecap: round; stroke-linejoin: round; -webkit-user-select: text;"></path><path fill="none" stroke="#000000" d="M367,244L372,245L376,245L380,245L384,244L389,243L393,242L399,240L404,239L409,237L415,236L421,234L425,233L430,232L435,231L439,230L443,229L447,228L451,227L453,226" stroke-opacity="1" stroke-width="5" stroke-linecap="round" stroke-linejoin="round" style="-webkit-tap-highlight-color: rgba(0, 0, 0, 0); stroke-opacity: 1; stroke-linecap: round; stroke-linejoin: round; -webkit-user-select: text;"></path><path fill="none" stroke="#000000" d="M457,223L452,240L452,246L452,252L452,259L453,266L454,272L454,279L455,285L455,291L456,297L456,303L457,308L457,313L457,317L457,321L457,323L457,325L457,326" stroke-opacity="1" stroke-width="5" stroke-linecap="round" stroke-linejoin="round" style="-webkit-tap-highlight-color: rgba(0, 0, 0, 0); stroke-opacity: 1; stroke-linecap: round; stroke-linejoin: round; -webkit-user-select: text;"></path><path fill="none" stroke="#000000" d="M446,332L439,334L434,334L427,336L420,337L412,339L406,340L400,343L394,345L391,346L387,347L385,348L383,348" stroke-opacity="1" stroke-width="5" stroke-linecap="round" stroke-linejoin="round" style="-webkit-tap-highlight-color: rgba(0, 0, 0, 0); stroke-opacity: 1; stroke-linecap: round; stroke-linejoin: round; -webkit-user-select: text;"></path><path fill="none" stroke="#000000" d="M389,331L393,325L393,319L395,311L398,301L401,289L404,276L408,263L412,251L415,238L417,229L419,220L421,213L422,206L424,200" stroke-opacity="1" stroke-width="5" stroke-linecap="round" stroke-linejoin="round" style="-webkit-tap-highlight-color: rgba(0, 0, 0, 0); stroke-opacity: 1; stroke-linecap: round; stroke-linejoin: round; -webkit-user-select: text;"></path><path fill="none" stroke="#000000" d="M423,201L421,210L422,214L425,220L429,226L433,233L439,241L445,249L450,255L455,261L461,267L467,272L471,276L474,279L477,281L479,283L480,284L480,285L478,286L475,287L472,288L469,290L466,291L462,293L457,296L452,300L446,303L439,307L433,311L428,315L423,318L420,320L417,321L414,321L412,321" stroke-opacity="1" stroke-width="5" stroke-linecap="round" stroke-linejoin="round" style="-webkit-tap-highlight-color: rgba(0, 0, 0, 0); stroke-opacity: 1; stroke-linecap: round; stroke-linejoin: round; -webkit-user-select: text;"></path><path fill="none" stroke="#000000" d="M395,310L391,307L388,306L386,305L382,302L378,298L374,294L371,290L368,286L366,281L364,275L362,269L362,264L362,258L362,252L365,245L367,239L370,233L373,227L375,221L379,215L382,210L384,205L388,200L391,195L393,190L396,186L398,180L401,175L403,169L404,165L404,161L404,157L404,155L404,153L404,151L405,150" stroke-opacity="1" stroke-width="5" stroke-linecap="round" stroke-linejoin="round" style="-webkit-tap-highlight-color: rgba(0, 0, 0, 0); stroke-opacity: 1; stroke-linecap: round; stroke-linejoin: round; -webkit-user-select: text;"></path><path fill="none" stroke="#000000" d="M427,130L427,127L430,126L433,125L438,123L442,123L447,123L451,123L457,123L461,123L464,124L467,127L469,130L471,133L472,137L473,141L474,146L474,151L474,158L474,165L472,172L469,179L467,186L464,193L461,200L458,206L456,212L455,218L454,224L454,229L454,234L454,239L454,244L455,247L456,250L457,252L458,253" stroke-opacity="1" stroke-width="5" stroke-linecap="round" stroke-linejoin="round" style="-webkit-tap-highlight-color: rgba(0, 0, 0, 0); stroke-opacity: 1; stroke-linecap: round; stroke-linejoin: round; -webkit-user-select: text;"></path><path fill="none" stroke="#000000" d="M444,254L443,255L439,255L436,256L431,257L424,258L416,259L407,261L399,263L389,265L382,267L376,269L371,271L367,272L365,272L365,269" stroke-opacity="1" stroke-width="5" stroke-linecap="round" stroke-linejoin="round" style="-webkit-tap-highlight-color: rgba(0, 0, 0, 0); stroke-opacity: 1; stroke-linecap: round; stroke-linejoin: round; -webkit-user-select: text;"></path><path fill="none" stroke="#000000" d="M370,250L372,247L376,241L383,234L391,228L399,222L408,215L417,210L425,204L434,199L443,193L452,187L460,182L467,179L474,175L479,171L484,167L487,164L490,161" stroke-opacity="1" stroke-width="5" stroke-linecap="round" stroke-linejoin="round" style="-webkit-tap-highlight-color: rgba(0, 0, 0, 0); stroke-opacity: 1; stroke-linecap: round; stroke-linejoin: round; -webkit-user-select: text;"></path><path fill="none" stroke="#000000" d="M501,164L501,171L501,177L501,184L501,191L501,199L501,206L501,213L501,220L501,225L501,231L501,236L501,240L501,244L501,246L501,248L501,249" stroke-opacity="1" stroke-width="5" stroke-linecap="round" stroke-linejoin="round" style="-webkit-tap-highlight-color: rgba(0, 0, 0, 0); stroke-opacity: 1; stroke-linecap: round; stroke-linejoin: round; -webkit-user-select: text;"></path><path fill="none" stroke="#000000" d="M489,254L482,254L479,254L473,251L467,245L460,237L454,229L448,221L442,213L437,208L432,202L428,196L424,190L421,185L419,181L417,177L415,173L413,169L412,167" stroke-opacity="1" stroke-width="5" stroke-linecap="round" stroke-linejoin="round" style="-webkit-tap-highlight-color: rgba(0, 0, 0, 0); stroke-opacity: 1; stroke-linecap: round; stroke-linejoin: round; -webkit-user-select: text;"></path><path fill="none" stroke="#000000" d="M409,164L413,170L419,170L426,167L435,163L444,160L453,155L462,151L471,146L479,141L487,137L493,133L498,129L503,126L508,123L512,120L515,117" stroke-opacity="1" stroke-width="5" stroke-linecap="round" stroke-linejoin="round" style="-webkit-tap-highlight-color: rgba(0, 0, 0, 0); stroke-opacity: 1; stroke-linecap: round; stroke-linejoin: round; -webkit-user-select: text;"></path><path fill="none" stroke="#000000" d="M542,108L548,106L552,106L555,106L561,106L568,105L575,102L582,100L587,98L594,95L600,93L605,90L610,88L613,86L615,84" stroke-opacity="1" stroke-width="5" stroke-linecap="round" stroke-linejoin="round" style="-webkit-tap-highlight-color: rgba(0, 0, 0, 0); stroke-opacity: 1; stroke-linecap: round; stroke-linejoin: round; -webkit-user-select: text;"></path><path fill="none" stroke="#000000" d="M614,111L613,119L613,123L613,128L613,135L613,141L613,147L613,154L613,160L613,167L613,172L612,177L612,181L612,184L612,186L611,187L611,188L610,188L609,189L606,190L602,191L596,193L590,194L582,196L574,198L566,201L557,203L549,206L542,209L536,212L532,214L528,215L526,217L525,217L523,215" stroke-opacity="1" stroke-width="5" stroke-linecap="round" stroke-linejoin="round" style="-webkit-tap-highlight-color: rgba(0, 0, 0, 0); stroke-opacity: 1; stroke-linecap: round; stroke-linejoin: round; -webkit-user-select: text;"></path><path fill="none" stroke="#000000" d="M520,190L520,185L520,181L520,176L520,170L520,164L520,159L520,155L520,151L520,149L520,147" stroke-opacity="1" stroke-width="5" stroke-linecap="round" stroke-linejoin="round" style="-webkit-tap-highlight-color: rgba(0, 0, 0, 0); stroke-opacity: 1; stroke-linecap: round; stroke-linejoin: round; -webkit-user-select: text;"></path><path fill="none" stroke="#000000" d="M530,150L537,150L550,150L560,150L571,150L582,150L596,148L605,147L615,145L623,143L628,142L632,140L637,138" stroke-opacity="1" stroke-width="5" stroke-linecap="round" stroke-linejoin="round" style="-webkit-tap-highlight-color: rgba(0, 0, 0, 0); stroke-opacity: 1; stroke-linecap: round; stroke-linejoin: round; -webkit-user-select: text;"></path><path fill="none" stroke="#000000" d="M647,138L641,150L636,159L631,168L625,177L616,188L610,197L603,206L596,215L591,223L587,228L583,232L579,235L576,237" stroke-opacity="1" stroke-width="5" stroke-linecap="round" stroke-linejoin="round" style="-webkit-tap-highlight-color: rgba(0, 0, 0, 0); stroke-opacity: 1; stroke-linecap: round; stroke-linejoin: round; -webkit-user-select: text;"></path><path fill="none" stroke="#000000" d="M562,240L564,235L564,232L564,228L565,222L566,215L569,208L571,201L575,195L576,190L577,186L578,181L579,177L579,172L579,167L579,162L579,157L579,152L579,146L579,142L578,137L576,134L573,130L570,128L566,126L563,125L559,123L556,122L553,121L550,119L548,117L545,115L542,113L540,111L537,109L534,107L532,106L530,104L528,102L525,101L523,99L521,96L519,94L517,90L515,85L514,81L514,76" stroke-opacity="1" stroke-width="5" stroke-linecap="round" stroke-linejoin="round" style="-webkit-tap-highlight-color: rgba(0, 0, 0, 0); stroke-opacity: 1; stroke-linecap: round; stroke-linejoin: round; -webkit-user-select: text;"></path><path fill="none" stroke="#000000" d="M494,75L488,71L485,68L482,65L479,61L472,58L465,56L459,56L453,56L446,56L439,56L433,59L427,63L421,67L417,70L413,75L409,79L406,85L404,90L402,96L401,101L400,106L399,111L399,118L398,123L397,130L396,136L394,143L393,149L391,155L390,160L388,165" stroke-opacity="1" stroke-width="5" stroke-linecap="round" stroke-linejoin="round" style="-webkit-tap-highlight-color: rgba(0, 0, 0, 0); stroke-opacity: 1; stroke-linecap: round; stroke-linejoin: round; -webkit-user-select: text;"></path><path fill="none" stroke="#000000" d="M372,177L380,174L386,174L392,174L399,174L408,173L416,172L423,172L433,171L441,170L449,169L458,168L466,167L473,166L480,165L486,163L489,162" stroke-opacity="1" stroke-width="5" stroke-linecap="round" stroke-linejoin="round" style="-webkit-tap-highlight-color: rgba(0, 0, 0, 0); stroke-opacity: 1; stroke-linecap: round; stroke-linejoin: round; -webkit-user-select: text;"></path><path fill="none" stroke="#000000" d="M474,170L473,162L473,158L472,152L469,145L465,135L463,128L461,119L460,112L459,106L459,101L459,96L459,93L459,91L459,89" stroke-opacity="1" stroke-width="5" stroke-linecap="round" stroke-linejoin="round" style="-webkit-tap-highlight-color: rgba(0, 0, 0, 0); stroke-opacity: 1; stroke-linecap: round; stroke-linejoin: round; -webkit-user-select: text;"></path><path fill="none" stroke="#000000" d="M462,90L459,93L455,96L448,98L440,101L431,103L422,104L410,106L399,109L388,111L377,114L367,117L359,119L353,120L348,121" stroke-opacity="1" stroke-width="5" stroke-linecap="round" stroke-linejoin="round" style="-webkit-tap-highlight-color: rgba(0, 0, 0, 0); stroke-opacity: 1; stroke-linecap: round; stroke-linejoin: round; -webkit-user-select: text;"></path><path fill="none" stroke="#000000" d="M351,113L362,116L366,118L372,123L377,128L384,136L389,144L394,150L399,158L404,167L408,174L413,181L417,189L421,195L423,200L425,203L428,206" stroke-opacity="1" stroke-width="5" stroke-linecap="round" stroke-linejoin="round" style="-webkit-tap-highlight-color: rgba(0, 0, 0, 0); stroke-opacity: 1; stroke-linecap: round; stroke-linejoin: round; -webkit-user-select: text;"></path><path fill="none" stroke="#000000" d="M416,204L419,194L421,188L426,182L433,174L440,165L447,156L455,147L463,138L468,132L474,127L478,122L481,118L483,115L484,113" stroke-opacity="1" stroke-width="5" stroke-linecap="round" stroke-linejoin="round" style="-webkit-tap-highlight-color: rgba(0, 0, 0, 0); stroke-opacity: 1; stroke-linecap: round; stroke-linejoin: round; -webkit-user-select: text;"></path><path fill="none" stroke="#000000" d="M463,123L460,119L457,117L454,113L450,108L444,103L438,97L432,91L427,86L421,80L416,76L413,72L409,67L407,63L405,60L404,57" stroke-opacity="1" stroke-width="5" stroke-linecap="round" stroke-linejoin="round" style="-webkit-tap-highlight-color: rgba(0, 0, 0, 0); stroke-opacity: 1; stroke-linecap: round; stroke-linejoin: round; -webkit-user-select: text;"></path><path fill="none" stroke="#000000" d="M392,93L388,96L387,100L384,106L380,112L375,119L368,126L361,133L355,140L348,147L340,155L333,163L326,171L323,177L320,180L318,182" stroke-opacity="1" stroke-width="5" stroke-linecap="round" stroke-linejoin="round" style="-webkit-tap-highlight-color: rgba(0, 0, 0, 0); stroke-opacity: 1; stroke-linecap: round; stroke-linejoin: round; -webkit-user-select: text;"></path><path fill="none" stroke="#000000" d="M318,185L327,194L332,197L338,201L343,204L348,209L352,214L356,219L360,223L364,227L366,229L369,232L372,233L374,233" stroke-opacity="1" stroke-width="5" stroke-linecap="round" stroke-linejoin="round" style="-webkit-tap-highlight-color: rgba(0, 0, 0, 0); stroke-opacity: 1; stroke-linecap: round; stroke-linejoin: round; -webkit-user-select: text;"></path><path fill="none" stroke="#000000" d="M380,217L379,212L379,208L380,204L383,195L387,184L391,173L395,163L398,156L399,151L399,148" stroke-opacity="1" stroke-width="5" stroke-linecap="round" stroke-linejoin="round" style="-webkit-tap-highlight-color: rgba(0, 0, 0, 0); stroke-opacity: 1; stroke-linecap: round; stroke-linejoin: round; -webkit-user-select: text;"></path><path fill="none" stroke="#000000" d="M386,155L382,156L378,160L373,164L367,169L358,174L350,179L342,184L333,191L324,196L316,202L307,207L300,211L293,214L288,216L284,218" stroke-opacity="1" stroke-width="5" stroke-linecap="round" stroke-linejoin="round" style="-webkit-tap-highlight-color: rgba(0, 0, 0, 0); stroke-opacity: 1; stroke-linecap: round; stroke-linejoin: round; -webkit-user-select: text;"></path><path fill="none" stroke="#000000" d="M292,217L294,221L294,224L296,228L298,232L301,237L305,242L308,247L310,252L312,255L314,258L316,261L317,262L318,263L318,264L320,265L321,265L321,266L323,267L324,267L325,267L326,267L327,267" stroke-opacity="1" stroke-width="5" stroke-linecap="round" stroke-linejoin="round" style="-webkit-tap-highlight-color: rgba(0, 0, 0, 0); stroke-opacity: 1; stroke-linecap: round; stroke-linejoin: round; -webkit-user-select: text;"></path><path fill="none" stroke="#000000" d="M331,271L334,265L339,262L344,257L350,251L358,245L365,240L370,236L373,234L377,231L379,230L381,228L382,228L382,227L382,226L382,225L382,224L382,223L382,221L382,218L382,213L382,208L382,201L382,194L382,187L380,181L377,177L372,173L368,169L362,165L357,163L351,161L344,160L337,160L331,160L323,161L316,164L308,169L301,174L295,180L289,187L284,193L280,199L276,206L273,213L272,219L270,225L269,232L267,240L266,248L265,254L263,262L260,269L256,276L252,281L247,286L243,290L238,295" stroke-opacity="1" stroke-width="5" stroke-linecap="round" stroke-linejoin="round" style="-webkit-tap-highlight-color: rgba(0, 0, 0, 0); stroke-opacity: 1; stroke-linecap: round; stroke-linejoin: round; -webkit-user-select: text;"></path><path fill="none" stroke="#000000" d="M233,311L227,318L224,320L221,323L218,327L213,329L208,331L202,332L198,333L192,333L186,333L181,333L176,333L172,333L168,332L164,330L161,330L158,328L156,327L155,326L154,325" stroke-opacity="1" stroke-width="5" stroke-linecap="round" stroke-linejoin="round" style="-webkit-tap-highlight-color: rgba(0, 0, 0, 0); stroke-opacity: 1; stroke-linecap: round; stroke-linejoin: round; -webkit-user-select: text;"></path><path fill="none" stroke="#000000" d="M161,327L161,332L161,337L161,342L162,348L162,354L163,359L163,364L164,370L164,376L165,381L165,386L166,390L168,395L169,400L170,403L170,406L171,408L172,409L172,410L173,410L175,410L178,408L182,405L187,402L193,398L199,394L207,390L214,386L222,383L231,378L239,373L245,369L250,366L256,364L260,362L263,360L265,359L265,358" stroke-opacity="1" stroke-width="5" stroke-linecap="round" stroke-linejoin="round" style="-webkit-tap-highlight-color: rgba(0, 0, 0, 0); stroke-opacity: 1; stroke-linecap: round; stroke-linejoin: round; -webkit-user-select: text;"></path><path fill="none" stroke="#000000" d="M258,353L255,349L254,346L251,342L248,335L244,325L240,314L236,302L231,291L228,285L225,280L224,275L223,270" stroke-opacity="1" stroke-width="5" stroke-linecap="round" stroke-linejoin="round" style="-webkit-tap-highlight-color: rgba(0, 0, 0, 0); stroke-opacity: 1; stroke-linecap: round; stroke-linejoin: round; -webkit-user-select: text;"></path><path fill="none" stroke="#000000" d="M221,271L215,276L211,278L206,280L200,281L192,284L187,286L181,288L176,289" stroke-opacity="1" stroke-width="5" stroke-linecap="round" stroke-linejoin="round" style="-webkit-tap-highlight-color: rgba(0, 0, 0, 0); stroke-opacity: 1; stroke-linecap: round; stroke-linejoin: round; -webkit-user-select: text;"></path><path fill="none" stroke="#000000" d="M178,298L180,305L180,309L183,315L186,322L190,330L195,338L201,347L207,354L212,361L217,368L222,375L226,381L230,386L233,389L235,390L236,391" stroke-opacity="1" stroke-width="5" stroke-linecap="round" stroke-linejoin="round" style="-webkit-tap-highlight-color: rgba(0, 0, 0, 0); stroke-opacity: 1; stroke-linecap: round; stroke-linejoin: round; -webkit-user-select: text;"></path><path fill="none" stroke="#000000" d="M237,400L233,400L230,400L223,400L213,397L202,393L189,389L176,386L164,383L153,381L144,379L137,378L129,376" stroke-opacity="1" stroke-width="5" stroke-linecap="round" stroke-linejoin="round" style="-webkit-tap-highlight-color: rgba(0, 0, 0, 0); stroke-opacity: 1; stroke-linecap: round; stroke-linejoin: round; -webkit-user-select: text;"></path><path fill="none" stroke="#000000" d="M121,391L122,393L122,398L122,403L122,408L123,415L124,422L125,429L126,435L127,441L128,447L129,453L129,457L129,461L129,463L129,466L129,468" stroke-opacity="1" stroke-width="5" stroke-linecap="round" stroke-linejoin="round" style="-webkit-tap-highlight-color: rgba(0, 0, 0, 0); stroke-opacity: 1; stroke-linecap: round; stroke-linejoin: round; -webkit-user-select: text;"></path><path fill="none" stroke="#000000" d="M135,478L145,473L151,473L158,471L166,469L175,467L184,464L193,462L203,458L210,454L216,450L221,448L225,447" stroke-opacity="1" stroke-width="5" stroke-linecap="round" stroke-linejoin="round" style="-webkit-tap-highlight-color: rgba(0, 0, 0, 0); stroke-opacity: 1; stroke-linecap: round; stroke-linejoin: round; -webkit-user-select: text;"></path><path fill="none" stroke="#000000" d="M228,450L230,453L230,456L230,459L231,462L231,466L231,472L231,478L231,483L231,488L231,495L231,502L231,508L231,512L231,517L231,522L231,526L230,529L229,532L228,534L226,536L224,536L222,536" stroke-opacity="1" stroke-width="5" stroke-linecap="round" stroke-linejoin="round" style="-webkit-tap-highlight-color: rgba(0, 0, 0, 0); stroke-opacity: 1; stroke-linecap: round; stroke-linejoin: round; -webkit-user-select: text;"></path><path fill="none" stroke="#000000" d="M207,534L202,534L199,534L195,534L188,531L180,529L173,527L164,525L156,524L149,523L143,523L138,522L133,522L129,522" stroke-opacity="1" stroke-width="5" stroke-linecap="round" stroke-linejoin="round" style="-webkit-tap-highlight-color: rgba(0, 0, 0, 0); stroke-opacity: 1; stroke-linecap: round; stroke-linejoin: round; -webkit-user-select: text;"></path><path fill="none" stroke="#000000" d="M127,512L137,505L142,500L150,493L157,487L164,480L171,473L178,467L185,461L192,455L197,450L202,446L206,443" stroke-opacity="1" stroke-width="5" stroke-linecap="round" stroke-linejoin="round" style="-webkit-tap-highlight-color: rgba(0, 0, 0, 0); stroke-opacity: 1; stroke-linecap: round; stroke-linejoin: round; -webkit-user-select: text;"></path><path fill="none" stroke="#000000" d="M206,448L207,454L207,458L207,463L207,471L207,480L207,487L207,497L205,506L204,514L203,523L201,531L198,536L195,540L190,545L187,547" stroke-opacity="1" stroke-width="5" stroke-linecap="round" stroke-linejoin="round" style="-webkit-tap-highlight-color: rgba(0, 0, 0, 0); stroke-opacity: 1; stroke-linecap: round; stroke-linejoin: round; -webkit-user-select: text;"></path><path fill="none" stroke="#000000" d="M163,553L156,552L153,552L150,552L147,552L143,551L138,549L131,546L125,543L119,540L116,536L112,531L110,525L109,520L108,513L108,505L110,497L115,487L121,479L126,474L131,470L136,467L143,464L150,461L157,458L164,454L169,452L174,450L179,448L183,446L188,444L192,441L198,437L202,433L206,429L209,426L212,423L214,421L218,419" stroke-opacity="1" stroke-width="5" stroke-linecap="round" stroke-linejoin="round" style="-webkit-tap-highlight-color: rgba(0, 0, 0, 0); stroke-opacity: 1; stroke-linecap: round; stroke-linejoin: round; -webkit-user-select: text;"></path><path fill="none" stroke="#000000" d="M240,417L250,417L255,417L260,417L265,417L269,419L272,421L277,424L279,427L281,430L283,434L285,437L287,441L289,446L290,451L292,455L294,459L296,462L298,465L301,468L303,471L306,473L309,476L311,478L314,480L316,481L319,483L322,484L325,485L329,485L333,485L337,485L341,485L346,484L350,482L353,479L357,476L360,472L365,468" stroke-opacity="1" stroke-width="5" stroke-linecap="round" stroke-linejoin="round" style="-webkit-tap-highlight-color: rgba(0, 0, 0, 0); stroke-opacity: 1; stroke-linecap: round; stroke-linejoin: round; -webkit-user-select: text;"></path><path fill="none" stroke="#000000" d="M385,449L384,442L384,439L384,434L387,426L389,419L391,414L394,408L396,404L397,400L398,398L399,396L399,394L400,392L401,389L403,387L404,386L405,384" stroke-opacity="1" stroke-width="5" stroke-linecap="round" stroke-linejoin="round" style="-webkit-tap-highlight-color: rgba(0, 0, 0, 0); stroke-opacity: 1; stroke-linecap: round; stroke-linejoin: round; -webkit-user-select: text;"></path><path fill="none" stroke="#000000" d="M399,388L394,390L388,390L380,390L370,390L360,390L353,390L343,390L337,390L331,389L327,388L323,388L319,387L316,386L314,386L312,386L309,386" stroke-opacity="1" stroke-width="5" stroke-linecap="round" stroke-linejoin="round" style="-webkit-tap-highlight-color: rgba(0, 0, 0, 0); stroke-opacity: 1; stroke-linecap: round; stroke-linejoin: round; -webkit-user-select: text;"></path><path fill="none" stroke="#000000" d="M308,393L309,403L309,409L310,418L312,428L314,438L315,449L315,458L316,466L316,474L316,481L317,486L317,491L317,496L318,500L318,502L318,503L319,504" stroke-opacity="1" stroke-width="5" stroke-linecap="round" stroke-linejoin="round" style="-webkit-tap-highlight-color: rgba(0, 0, 0, 0); stroke-opacity: 1; stroke-linecap: round; stroke-linejoin: round; -webkit-user-select: text;"></path><path fill="none" stroke="#000000" d="M345,483L349,483L353,483L359,483L364,483L369,484L375,485L381,485L386,486L392,486L398,486L403,486L408,486L412,486L415,486L417,486L418,486" stroke-opacity="1" stroke-width="5" stroke-linecap="round" stroke-linejoin="round" style="-webkit-tap-highlight-color: rgba(0, 0, 0, 0); stroke-opacity: 1; stroke-linecap: round; stroke-linejoin: round; -webkit-user-select: text;"></path><path fill="none" stroke="#000000" d="M419,483L410,483L406,481L398,477L389,472L380,467L373,461L367,454L362,449L356,445L351,441L345,437L340,433L336,428L333,425L331,422L328,420L327,419" stroke-opacity="1" stroke-width="5" stroke-linecap="round" stroke-linejoin="round" style="-webkit-tap-highlight-color: rgba(0, 0, 0, 0); stroke-opacity: 1; stroke-linecap: round; stroke-linejoin: round; -webkit-user-select: text;"></path><path fill="none" stroke="#000000" d="M348,420L355,417L363,416L372,413L382,410L392,406L401,403L411,399L418,396L425,393L431,391L437,389L441,388L447,386L451,384L456,381" stroke-opacity="1" stroke-width="5" stroke-linecap="round" stroke-linejoin="round" style="-webkit-tap-highlight-color: rgba(0, 0, 0, 0); stroke-opacity: 1; stroke-linecap: round; stroke-linejoin: round; -webkit-user-select: text;"></path><path fill="none" stroke="#000000" d="M475,379L477,384L477,388L477,393L477,398L477,405L477,410L477,417L476,424L475,431L474,436L474,441L473,446L472,450L472,454L472,458L471,460L470,461L468,461" stroke-opacity="1" stroke-width="5" stroke-linecap="round" stroke-linejoin="round" style="-webkit-tap-highlight-color: rgba(0, 0, 0, 0); stroke-opacity: 1; stroke-linecap: round; stroke-linejoin: round; -webkit-user-select: text;"></path><path fill="none" stroke="#000000" d="M448,460L445,458L440,456L433,453L427,449L423,445L417,442L411,438L406,434L401,429L396,424L392,420L389,418L386,416L385,415L384,414L383,413L383,412L383,410L384,408L385,406L387,404L389,403L393,400L394,399L397,398L402,396L408,393L417,389L425,384L435,379L443,373L450,369L457,365L464,362L469,359L475,357L479,355L483,353L486,352L488,351L490,351L491,351L492,352L492,354L492,357L492,360L492,364L492,370L492,376L492,383L492,390L492,397L494,404L494,410L495,415L496,421L496,425L496,427L496,428" stroke-opacity="1" stroke-width="5" stroke-linecap="round" stroke-linejoin="round" style="-webkit-tap-highlight-color: rgba(0, 0, 0, 0); stroke-opacity: 1; stroke-linecap: round; stroke-linejoin: round; -webkit-user-select: text;"></path><path fill="none" stroke="#000000" d="M509,443L503,442L496,441L485,439L477,437L467,434L459,432L454,430L450,428L447,427L444,425L441,422L439,421L437,419" stroke-opacity="1" stroke-width="5" stroke-linecap="round" stroke-linejoin="round" style="-webkit-tap-highlight-color: rgba(0, 0, 0, 0); stroke-opacity: 1; stroke-linecap: round; stroke-linejoin: round; -webkit-user-select: text;"></path><path fill="none" stroke="#000000" d="M435,418L437,415L439,412L442,408L446,403L451,398L457,395L463,391L469,389L475,388L483,388L490,388L496,387L501,387L507,387L511,387L515,387L519,387L523,386L526,386L530,385L533,384L537,383L542,382L547,380L552,378L555,376L558,373L560,371L562,369L564,366L566,363L568,359L573,354" stroke-opacity="1" stroke-width="5" stroke-linecap="round" stroke-linejoin="round" style="-webkit-tap-highlight-color: rgba(0, 0, 0, 0); stroke-opacity: 1; stroke-linecap: round; stroke-linejoin: round; -webkit-user-select: text;"></path><path fill="none" stroke="#000000" d="M588,348L593,342L593,339L594,336L596,333L597,330L598,324L599,319L600,314L600,309L600,304L600,300L600,295L599,291L597,286L594,282L591,279L587,275L584,273L580,271L576,269L572,267L569,266L565,264L561,262L557,260L553,258L549,255L545,252L540,249L536,245L532,242L528,239" stroke-opacity="1" stroke-width="5" stroke-linecap="round" stroke-linejoin="round" style="-webkit-tap-highlight-color: rgba(0, 0, 0, 0); stroke-opacity: 1; stroke-linecap: round; stroke-linejoin: round; -webkit-user-select: text;"></path><path fill="none" stroke="#000000" d="M525,249L525,254L524,259L522,265L519,271L516,279L512,286L508,292L505,299L502,304L499,308L498,312L496,316L495,318L494,320L493,320L491,320" stroke-opacity="1" stroke-width="5" stroke-linecap="round" stroke-linejoin="round" style="-webkit-tap-highlight-color: rgba(0, 0, 0, 0); stroke-opacity: 1; stroke-linecap: round; stroke-linejoin: round; -webkit-user-select: text;"></path><path fill="none" stroke="#000000" d="M492,322L496,323L500,323L505,323L514,325L525,326L537,328L547,329L557,330L566,332L576,333L584,335L591,336L596,337L600,338L603,339L605,339" stroke-opacity="1" stroke-width="5" stroke-linecap="round" stroke-linejoin="round" style="-webkit-tap-highlight-color: rgba(0, 0, 0, 0); stroke-opacity: 1; stroke-linecap: round; stroke-linejoin: round; -webkit-user-select: text;"></path><path fill="none" stroke="#000000" d="M598,350L593,359L590,364L586,372L583,379L581,384L577,390L574,396L570,403L567,407L565,411L563,414L562,416L561,417L560,417L559,417" stroke-opacity="1" stroke-width="5" stroke-linecap="round" stroke-linejoin="round" style="-webkit-tap-highlight-color: rgba(0, 0, 0, 0); stroke-opacity: 1; stroke-linecap: round; stroke-linejoin: round; -webkit-user-select: text;"></path><path fill="none" stroke="#000000" d="M556,415L545,403L541,401L535,397L526,391L515,386L506,380L499,375L493,371L489,368L487,366L485,364L484,362L483,360" stroke-opacity="1" stroke-width="5" stroke-linecap="round" stroke-linejoin="round" style="-webkit-tap-highlight-color: rgba(0, 0, 0, 0); stroke-opacity: 1; stroke-linecap: round; stroke-linejoin: round; -webkit-user-select: text;"></path><path fill="none" stroke="#000000" d="M492,352L504,352L512,349L520,345L529,342L539,338L549,334L558,331L568,327L577,322L586,318L593,314L600,310L605,307L610,305L616,302L624,300" stroke-opacity="1" stroke-width="5" stroke-linecap="round" stroke-linejoin="round" style="-webkit-tap-highlight-color: rgba(0, 0, 0, 0); stroke-opacity: 1; stroke-linecap: round; stroke-linejoin: round; -webkit-user-select: text;"></path><path fill="none" stroke="#000000" d="M628,332L627,334L627,338L627,344L627,352L627,359L629,366L630,374L632,380L635,386L637,391L639,396L641,400L642,404L644,407" stroke-opacity="1" stroke-width="5" stroke-linecap="round" stroke-linejoin="round" style="-webkit-tap-highlight-color: rgba(0, 0, 0, 0); stroke-opacity: 1; stroke-linecap: round; stroke-linejoin: round; -webkit-user-select: text;"></path><path fill="none" stroke="#000000" d="M634,417L626,420L620,425L612,429L605,434L596,439L587,444L579,450L571,456L564,460L558,464L553,467L549,469L545,471L541,471" stroke-opacity="1" stroke-width="5" stroke-linecap="round" stroke-linejoin="round" style="-webkit-tap-highlight-color: rgba(0, 0, 0, 0); stroke-opacity: 1; stroke-linecap: round; stroke-linejoin: round; -webkit-user-select: text;"></path><path fill="none" stroke="#000000" d="M532,459L534,456L536,451L540,445L545,437L550,428L554,419L558,412L562,405L565,398L568,393L571,388L574,385L575,383L576,383" stroke-opacity="1" stroke-width="5" stroke-linecap="round" stroke-linejoin="round" style="-webkit-tap-highlight-color: rgba(0, 0, 0, 0); stroke-opacity: 1; stroke-linecap: round; stroke-linejoin: round; -webkit-user-select: text;"></path><path fill="none" stroke="#000000" d="M581,393L583,402L586,407L589,412L593,418L598,426L602,432L606,439L610,446L615,453L619,459L622,463L626,468L628,471L629,473L629,474" stroke-opacity="1" stroke-width="5" stroke-linecap="round" stroke-linejoin="round" style="-webkit-tap-highlight-color: rgba(0, 0, 0, 0); stroke-opacity: 1; stroke-linecap: round; stroke-linejoin: round; -webkit-user-select: text;"></path><path fill="none" stroke="#000000" d="M622,474L616,479L613,482L610,485L605,488L600,490L594,492L588,493L581,495L574,496L568,497L562,500L557,502L552,504L549,506L546,507L543,508L541,509L539,510L537,510L536,510L535,510L534,510L533,510L532,510L531,509L530,507L528,503L527,500L525,496L524,493L523,490L523,486L523,482L522,478L522,473L522,469L522,463L523,458L524,452L526,446L528,440L529,435L529,430L530,425L530,419L530,415L530,410L529,407L528,403L525,400L523,398L520,397L516,395L511,395L505,395L498,395L490,395L480,399L468,407L458,416L447,428" stroke-opacity="1" stroke-width="5" stroke-linecap="round" stroke-linejoin="round" style="-webkit-tap-highlight-color: rgba(0, 0, 0, 0); stroke-opacity: 1; stroke-linecap: round; stroke-linejoin: round; -webkit-user-select: text;"></path><path fill="none" stroke="#000000" d="M441,456L433,466L430,469L428,474L426,480L425,484L424,489L423,494L421,499L420,503L419,506L417,509L414,512L411,515L407,517L403,519L399,522L395,523L391,524L387,525L383,526L380,527L376,527" stroke-opacity="1" stroke-width="5" stroke-linecap="round" stroke-linejoin="round" style="-webkit-tap-highlight-color: rgba(0, 0, 0, 0); stroke-opacity: 1; stroke-linecap: round; stroke-linejoin: round; -webkit-user-select: text;"></path><path fill="none" stroke="#000000" d="M351,529L340,530L337,530L333,530L328,530L323,529L318,529L314,528L309,527L305,526L301,526L297,525L294,525L292,524L290,524L288,524L286,524" stroke-opacity="1" stroke-width="5" stroke-linecap="round" stroke-linejoin="round" style="-webkit-tap-highlight-color: rgba(0, 0, 0, 0); stroke-opacity: 1; stroke-linecap: round; stroke-linejoin: round; -webkit-user-select: text;"></path><path fill="none" stroke="#000000" d="M288,513L289,509L292,504L299,496L308,485L316,474L325,464L334,454L340,447L343,443L346,440L348,439L349,437L350,437L351,437" stroke-opacity="1" stroke-width="5" stroke-linecap="round" stroke-linejoin="round" style="-webkit-tap-highlight-color: rgba(0, 0, 0, 0); stroke-opacity: 1; stroke-linecap: round; stroke-linejoin: round; -webkit-user-select: text;"></path><path fill="none" stroke="#000000" d="M366,440L367,449L368,455L370,462L373,470L377,479L381,486L385,495L390,504L393,511L397,519L400,527L403,535L405,541L408,546L409,551L411,554L411,557" stroke-opacity="1" stroke-width="5" stroke-linecap="round" stroke-linejoin="round" style="-webkit-tap-highlight-color: rgba(0, 0, 0, 0); stroke-opacity: 1; stroke-linecap: round; stroke-linejoin: round; -webkit-user-select: text;"></path><path fill="none" stroke="#000000" d="M397,563L391,565L388,565L384,566L381,567L377,568L372,570L368,570L363,571L358,572L354,573L350,574L346,575L343,576L340,576L338,577L335,577L332,577L329,577" stroke-opacity="1" stroke-width="5" stroke-linecap="round" stroke-linejoin="round" style="-webkit-tap-highlight-color: rgba(0, 0, 0, 0); stroke-opacity: 1; stroke-linecap: round; stroke-linejoin: round; -webkit-user-select: text;"></path><path fill="none" stroke="#000000" d="M323,570L329,566L332,562L336,557L341,551L347,543L354,535L363,524L370,516L378,505L384,497L392,489L399,481L406,473L411,469L413,465" stroke-opacity="1" stroke-width="5" stroke-linecap="round" stroke-linejoin="round" style="-webkit-tap-highlight-color: rgba(0, 0, 0, 0); stroke-opacity: 1; stroke-linecap: round; stroke-linejoin: round; -webkit-user-select: text;"></path><path fill="none" stroke="#000000" d="M453,482L455,488L455,492L457,497L460,503L463,510L465,514L468,520L470,525L472,530L473,534L474,538L475,540L475,541" stroke-opacity="1" stroke-width="5" stroke-linecap="round" stroke-linejoin="round" style="-webkit-tap-highlight-color: rgba(0, 0, 0, 0); stroke-opacity: 1; stroke-linecap: round; stroke-linejoin: round; -webkit-user-select: text;"></path><path fill="none" stroke="#000000" d="M479,544L475,549L472,552L467,557L462,561L456,565L451,569L445,573L440,577L435,580L431,584L428,587L425,590L424,592L422,592L420,592L416,590" stroke-opacity="1" stroke-width="5" stroke-linecap="round" stroke-linejoin="round" style="-webkit-tap-highlight-color: rgba(0, 0, 0, 0); stroke-opacity: 1; stroke-linecap: round; stroke-linejoin: round; -webkit-user-select: text;"></path><path fill="none" stroke="#000000" d="M408,564L399,556L396,551L394,547L391,544L388,541L386,539L384,536L382,534" stroke-opacity="1" stroke-width="5" stroke-linecap="round" stroke-linejoin="round" style="-webkit-tap-highlight-color: rgba(0, 0, 0, 0); stroke-opacity: 1; stroke-linecap: round; stroke-linejoin: round; -webkit-user-select: text;"></path><path fill="none" stroke="#000000" d="M387,534L401,533L408,533L418,533L427,532L439,530L450,527L462,524L472,521L480,519L489,516L497,514L505,512L511,510L517,508" stroke-opacity="1" stroke-width="5" stroke-linecap="round" stroke-linejoin="round" style="-webkit-tap-highlight-color: rgba(0, 0, 0, 0); stroke-opacity: 1; stroke-linecap: round; stroke-linejoin: round; -webkit-user-select: text;"></path><path fill="none" stroke="#000000" d="M525,508L523,515L523,519L521,527L519,534L518,541L516,550L514,558L513,565L511,572L509,580L508,585L506,588L505,591L503,593L501,595" stroke-opacity="1" stroke-width="5" stroke-linecap="round" stroke-linejoin="round" style="-webkit-tap-highlight-color: rgba(0, 0, 0, 0); stroke-opacity: 1; stroke-linecap: round; stroke-linejoin: round; -webkit-user-select: text;"></path><path fill="none" stroke="#000000" d="M481,586L469,576L463,573L457,568L451,564L445,560L439,556L434,553L430,551L426,549L421,546" stroke-opacity="1" stroke-width="5" stroke-linecap="round" stroke-linejoin="round" style="-webkit-tap-highlight-color: rgba(0, 0, 0, 0); stroke-opacity: 1; stroke-linecap: round; stroke-linejoin: round; -webkit-user-select: text;"></path><path fill="none" stroke="#000000" d="M414,551L416,539L416,535L416,530L418,525L421,520L426,515L432,511L440,506L447,503L454,502L461,501L467,501L472,501L476,502L481,504L485,507L489,509L492,511L496,514L500,516L503,519L507,522L511,527L514,531L517,536L520,541L523,546L526,551L529,556L532,561L535,563L538,566L542,569L546,570L551,571L557,571L565,571L571,571L575,570" stroke-opacity="1" stroke-width="5" stroke-linecap="round" stroke-linejoin="round" style="-webkit-tap-highlight-color: rgba(0, 0, 0, 0); stroke-opacity: 1; stroke-linecap: round; stroke-linejoin: round; -webkit-user-select: text;"></path><path fill="none" stroke="#000000" d="M595,555L599,552L602,551L605,549L608,546L613,542L617,537L620,531L623,527L625,522L626,517L627,511L627,504L626,497L623,491L620,486L618,481L616,477L614,473L613,471L611,467L610,463L606,458L602,453" stroke-opacity="1" stroke-width="5" stroke-linecap="round" stroke-linejoin="round" style="-webkit-tap-highlight-color: rgba(0, 0, 0, 0); stroke-opacity: 1; stroke-linecap: round; stroke-linejoin: round; -webkit-user-select: text;"></path><path fill="none" stroke="#000000" d="M581,427L579,422L579,419L578,415L576,411L573,405L570,399L568,394L566,390L564,386L563,382L561,379L559,377" stroke-opacity="1" stroke-width="5" stroke-linecap="round" stroke-linejoin="round" style="-webkit-tap-highlight-color: rgba(0, 0, 0, 0); stroke-opacity: 1; stroke-linecap: round; stroke-linejoin: round; -webkit-user-select: text;"></path><path fill="none" stroke="#000000" d="M557,379L554,382L553,386L548,391L540,398L532,403L524,408L515,412L508,416L503,419L499,422L496,423L493,425L491,426L489,426" stroke-opacity="1" stroke-width="5" stroke-linecap="round" stroke-linejoin="round" style="-webkit-tap-highlight-color: rgba(0, 0, 0, 0); stroke-opacity: 1; stroke-linecap: round; stroke-linejoin: round; -webkit-user-select: text;"></path><path fill="none" stroke="#000000" d="M508,438L515,448L519,454L523,459L528,465L531,471L535,477L538,483L542,488L546,494L550,500L553,505L556,509L559,511L561,513L562,513L563,512L563,507" stroke-opacity="1" stroke-width="5" stroke-linecap="round" stroke-linejoin="round" style="-webkit-tap-highlight-color: rgba(0, 0, 0, 0); stroke-opacity: 1; stroke-linecap: round; stroke-linejoin: round; -webkit-user-select: text;"></path><path fill="none" stroke="#000000" d="M559,491L562,490L568,485L575,477L582,470L590,463L597,456L604,450L610,445L617,439L625,433L628,429L630,425" stroke-opacity="1" stroke-width="5" stroke-linecap="round" stroke-linejoin="round" style="-webkit-tap-highlight-color: rgba(0, 0, 0, 0); stroke-opacity: 1; stroke-linecap: round; stroke-linejoin: round; -webkit-user-select: text;"></path><path fill="none" stroke="#000000" d="M641,415L635,417L626,418L614,421L596,426L577,430L554,436L530,442L503,450L472,460L444,469" stroke-opacity="1" stroke-width="5" stroke-linecap="round" stroke-linejoin="round" style="-webkit-tap-highlight-color: rgba(0, 0, 0, 0); stroke-opacity: 1; stroke-linecap: round; stroke-linejoin: round; -webkit-user-select: text;"></path></svg>