<svg height="644" version="1.1" width="704" xmlns="http://www.w3.org/2000/svg" xmlns:xlink="http://www.w3.org/1999/xlink" style="overflow: hidden; position: relative; -webkit-user-select: text;"><desc style="-webkit-tap-highlight-color: rgba(0, 0, 0, 0); -webkit-user-select: text;">Created with Raphaël 2.2.0</desc><defs style="-webkit-tap-highlight-color: rgba(0, 0, 0, 0); -webkit-user-select: text;"></defs><path fill="none" stroke="#000000" d="M208,231L216,227L217,227L219,226L221,225L224,223L227,221L230,218L234,215L238,213L242,211L246,208L250,206L255,203L260,201L264,198L268,196L272,193L275,190L279,187L283,185L287,183L291,181L294,179L298,177L303,174L307,171L312,168L316,165L320,163L323,160L327,158L330,157L333,155L336,154L339,152L341,151L344,150L346,149L348,147L350,146L353,144L355,142L357,140L360,139L362,137L365,135L367,134" stroke-opacity="1" stroke-width="5" stroke-linecap="round" stroke-linejoin="round" style="-webkit-tap-highlight-color: rgba(0, 0, 0, 0); stroke-opacity: 1; stroke-linecap: round; stroke-linejoin: round; -webkit-user-select: text;"></path><path fill="none" stroke="#000000" d="M390,124L394,133L394,135L394,138L394,140L394,143L394,146L394,149L394,152L394,154L395,157L395,161L396,164L396,167L397,171L398,174L398,178L398,181L398,186L399,191L399,195L399,199L400,203L401,208L401,212L402,217L403,221L403,225L404,229L404,233L404,236L405,240L405,244L406,248L406,251L406,255L406,258L407,262L407,265L407,269L407,272L407,275L408,278L408,281L408,283L408,286L408,288L408,291L408,293L408,296L408,298L408,301L408,303L408,305L408,306L408,308L408,310L408,311L408,313L408,315L409,317L409,318L409,320L409,322L409,324L409,326L409,328L409,330L409,332L409,333L409,335L409,337L409,339L409,341L409,343L409,345L410,348L410,350L410,352L410,354L410,356L410,358L410,359L410,361L410,362L410,364L410,366L411,368L411,369L411,371L411,373L411,374L411,376L411,378L411,379L411,381L411,382L411,383L411,384L411,386L411,387L411,388L411,389L411,390L411,392L411,393L411,395L411,396L411,398L411,400L410,401L409,403L409,405" stroke-opacity="1" stroke-width="5" stroke-linecap="round" stroke-linejoin="round" style="-webkit-tap-highlight-color: rgba(0, 0, 0, 0); stroke-opacity: 1; stroke-linecap: round; stroke-linejoin: round; -webkit-user-select: text;"></path><path fill="none" stroke="#000000" d="M396,417L393,415L391,415L389,415L387,415L384,415L382,415L379,415L377,415L374,415L371,415L367,415L364,415L360,415L355,415L351,416L347,416L342,417L337,417L332,418L327,420L323,420L318,421L314,422L310,422L306,423L302,423L299,424L295,424L291,425L287,426L283,427L279,427L275,428L271,429L267,430L263,431L259,432L255,432L251,433L248,434L243,435L240,436L236,437L233,438L229,439L226,439L223,440L220,441L217,441L215,442L212,443L210,443L208,444L207,444L204,445L203,445L202,446L201,446L200,446L199,446L198,446L197,446L196,446" stroke-opacity="1" stroke-width="5" stroke-linecap="round" stroke-linejoin="round" style="-webkit-tap-highlight-color: rgba(0, 0, 0, 0); stroke-opacity: 1; stroke-linecap: round; stroke-linejoin: round; -webkit-user-select: text;"></path><path fill="none" stroke="#000000" d="M197,441L192,438L191,437L189,434L187,431L185,427L182,423L179,420L176,416L173,413L169,409L166,405L163,401L160,397L156,393L153,389L151,386L148,383L145,379L143,376L140,373L138,369L136,366L134,363L131,360L129,357L127,354L125,351L123,348L121,345L119,342L117,339L116,337L114,335L113,333L112,331L111,330L110,328L110,327L109,326L109,324L109,321" stroke-opacity="1" stroke-width="5" stroke-linecap="round" stroke-linejoin="round" style="-webkit-tap-highlight-color: rgba(0, 0, 0, 0); stroke-opacity: 1; stroke-linecap: round; stroke-linejoin: round; -webkit-user-select: text;"></path><path fill="none" stroke="#000000" d="M116,295L117,288L118,286L120,283L122,280L126,276L129,271L132,267L136,262L139,258L143,254L146,249L149,245L153,241L156,237L160,232L163,229L165,225L168,221L171,218L174,214L177,211L179,208L182,204L184,201L187,197L190,194L192,190L195,187L197,183L199,180L202,176L205,172L208,169L210,165L213,162L215,159L217,156L219,154L221,152L223,150L225,147L226,145L228,144L230,142L232,140L234,137L236,135L238,133" stroke-opacity="1" stroke-width="5" stroke-linecap="round" stroke-linejoin="round" style="-webkit-tap-highlight-color: rgba(0, 0, 0, 0); stroke-opacity: 1; stroke-linecap: round; stroke-linejoin: round; -webkit-user-select: text;"></path><path fill="none" stroke="#000000" d="M246,123L250,128L251,131L254,135L256,139L259,143L262,147L265,151L267,155L270,160L273,164L276,168L278,172L281,176L284,180L287,184L289,189L292,193L295,198L297,201L299,205L301,210L304,214L306,218L307,221L309,225L311,228L313,231L314,234L316,237L317,240L318,242L320,245L321,248L323,251L324,253L326,255L327,257L328,260L329,262L330,264L331,265L332,266L333,268L334,269L334,270L333,271" stroke-opacity="1" stroke-width="5" stroke-linecap="round" stroke-linejoin="round" style="-webkit-tap-highlight-color: rgba(0, 0, 0, 0); stroke-opacity: 1; stroke-linecap: round; stroke-linejoin: round; -webkit-user-select: text;"></path><path fill="none" stroke="#000000" d="M331,274L326,282L325,284L323,285L321,287L319,289L317,291L314,294L311,296L309,299L306,302L302,305L299,307L297,310L294,313L290,315L287,319L283,322L280,325L276,328L273,331L269,335L266,337L263,340L260,343L258,346L255,348L253,351L250,353L248,355L246,357L243,359L241,361L239,363L238,364L236,366L235,367L233,369L232,370L231,372L230,373L229,374L229,375L228,376L227,377L226,378L226,379L225,379L224,379L223,380" stroke-opacity="1" stroke-width="5" stroke-linecap="round" stroke-linejoin="round" style="-webkit-tap-highlight-color: rgba(0, 0, 0, 0); stroke-opacity: 1; stroke-linecap: round; stroke-linejoin: round; -webkit-user-select: text;"></path><path fill="none" stroke="#000000" d="M216,381L213,379L212,377L210,374L208,372L206,369L204,366L202,363L199,360L197,357L195,354L193,352L191,349L189,345L187,342L185,338L182,335L181,332L179,329L177,326L175,323L173,320L172,317L170,315L169,312L168,310L166,308L165,306L164,305L164,303L163,301L163,298" stroke-opacity="1" stroke-width="5" stroke-linecap="round" stroke-linejoin="round" style="-webkit-tap-highlight-color: rgba(0, 0, 0, 0); stroke-opacity: 1; stroke-linecap: round; stroke-linejoin: round; -webkit-user-select: text;"></path><path fill="none" stroke="#000000" d="M160,291L164,289L167,289L170,287L173,286L177,284L181,282L185,281L190,279L194,278L199,277L203,276L208,276L212,276L216,275L221,275L225,275L229,275L233,275L237,275L240,276L243,276L247,278L250,280L253,281L256,284L259,286L262,288L265,291L268,293L271,295L274,298L276,301L279,303L281,306L283,308L285,311L287,314L289,316L291,319L293,322L294,324L297,327L299,330L300,332L302,335L304,337L306,340L309,343L311,345L313,348L316,351L318,354L321,356L324,359L327,362L330,365L333,367L336,370L339,372L342,374L345,376L348,378L352,381L355,383L358,385L362,386L365,388L369,390L372,391L376,393L379,393L382,395L384,395L387,396L389,397L391,397L393,398L395,398L397,398L399,398L401,399L403,399L405,399L407,399L410,399L412,399L414,399L416,399L419,399L421,399L423,399L426,398L428,397L430,396L433,395L435,394L438,393L440,392L442,391L444,390L446,389L447,388L450,387L451,386L453,385L455,383L457,382L459,381L461,379L463,377L465,376L467,373L469,371L471,369L473,366L474,364L476,362L478,360L480,358L481,355L482,353L484,351L485,349L486,347L487,344L489,342L489,339L491,337L491,335L493,333L494,330L494,327L495,324L496,320L497,316L497,313L498,310L498,306L499,302L499,296L500,289L501,280" stroke-opacity="1" stroke-width="5" stroke-linecap="round" stroke-linejoin="round" style="-webkit-tap-highlight-color: rgba(0, 0, 0, 0); stroke-opacity: 1; stroke-linecap: round; stroke-linejoin: round; -webkit-user-select: text;"></path></svg>