<svg height="644" version="1.1" width="1024" xmlns="http://www.w3.org/2000/svg" xmlns:xlink="http://www.w3.org/1999/xlink" style="overflow: hidden; position: relative; -webkit-user-select: text;"><desc style="-webkit-tap-highlight-color: rgba(0, 0, 0, 0); -webkit-user-select: text;">Created with Raphaël 2.2.0</desc><defs style="-webkit-tap-highlight-color: rgba(0, 0, 0, 0); -webkit-user-select: text;"></defs><path fill="none" stroke="#000000" d="M122,161L127,158L130,158L135,157L140,156L148,153L157,150L166,146L175,142L184,137" stroke-opacity="1" stroke-width="5" stroke-linecap="round" stroke-linejoin="round" style="-webkit-tap-highlight-color: rgba(0, 0, 0, 0); stroke-opacity: 1; stroke-linecap: round; stroke-linejoin: round; -webkit-user-select: text;"></path><path fill="none" stroke="#000000" d="M221,124L225,130L225,134L226,140L228,146L230,154L233,164L236,173L239,181L243,192L245,199L246,205L248,212" stroke-opacity="1" stroke-width="5" stroke-linecap="round" stroke-linejoin="round" style="-webkit-tap-highlight-color: rgba(0, 0, 0, 0); stroke-opacity: 1; stroke-linecap: round; stroke-linejoin: round; -webkit-user-select: text;"></path><path fill="none" stroke="#000000" d="M232,237L227,235L223,235L218,235L211,234L203,232L195,231L187,229L179,227L173,225L165,223L160,221L154,219L150,218L145,217" stroke-opacity="1" stroke-width="5" stroke-linecap="round" stroke-linejoin="round" style="-webkit-tap-highlight-color: rgba(0, 0, 0, 0); stroke-opacity: 1; stroke-linecap: round; stroke-linejoin: round; -webkit-user-select: text;"></path><path fill="none" stroke="#000000" d="M132,218L137,214L141,211L147,207L155,202L165,197L177,189L189,182L201,175L214,168L226,161L235,156L245,150L253,145" stroke-opacity="1" stroke-width="5" stroke-linecap="round" stroke-linejoin="round" style="-webkit-tap-highlight-color: rgba(0, 0, 0, 0); stroke-opacity: 1; stroke-linecap: round; stroke-linejoin: round; -webkit-user-select: text;"></path><path fill="none" stroke="#000000" d="M271,142L270,146L270,150L269,155L268,163L266,172L263,184L261,195L258,207L255,220L253,232L251,246L249,257L247,269" stroke-opacity="1" stroke-width="5" stroke-linecap="round" stroke-linejoin="round" style="-webkit-tap-highlight-color: rgba(0, 0, 0, 0); stroke-opacity: 1; stroke-linecap: round; stroke-linejoin: round; -webkit-user-select: text;"></path><path fill="none" stroke="#000000" d="M223,289L218,283L214,280L209,275L203,267L197,259L191,252L186,244L182,237L177,231L174,226L173,220L172,214L172,210L172,204L172,199L175,194L180,188L185,184L189,181L194,177L200,174L206,170L211,167L216,162L221,159L226,155L232,151L237,147L242,142L245,138L249,133L251,130L253,125L255,121L257,116L259,111L260,107L262,103L264,98L267,94" stroke-opacity="1" stroke-width="5" stroke-linecap="round" stroke-linejoin="round" style="-webkit-tap-highlight-color: rgba(0, 0, 0, 0); stroke-opacity: 1; stroke-linecap: round; stroke-linejoin: round; -webkit-user-select: text;"></path><path fill="none" stroke="#000000" d="M299,97L304,96L308,96L312,96L316,96L322,96L326,97L331,100L335,104L339,110L342,115L345,120L347,125L349,130L351,137L352,143L352,149L352,156L352,164L351,171L349,177L348,186L346,194L344,200L343,207L342,216L342,223L342,229L343,236L346,242L350,247L354,251L359,254L366,258" stroke-opacity="1" stroke-width="5" stroke-linecap="round" stroke-linejoin="round" style="-webkit-tap-highlight-color: rgba(0, 0, 0, 0); stroke-opacity: 1; stroke-linecap: round; stroke-linejoin: round; -webkit-user-select: text;"></path><path fill="none" stroke="#000000" d="M377,279L383,274L389,270L397,265L405,259L415,253L425,246L433,240L442,235L449,231L454,228" stroke-opacity="1" stroke-width="5" stroke-linecap="round" stroke-linejoin="round" style="-webkit-tap-highlight-color: rgba(0, 0, 0, 0); stroke-opacity: 1; stroke-linecap: round; stroke-linejoin: round; -webkit-user-select: text;"></path><path fill="none" stroke="#000000" d="M446,216L444,212L443,209L441,206L438,202L434,195L430,188L426,182L422,177L419,172L417,168L415,164" stroke-opacity="1" stroke-width="5" stroke-linecap="round" stroke-linejoin="round" style="-webkit-tap-highlight-color: rgba(0, 0, 0, 0); stroke-opacity: 1; stroke-linecap: round; stroke-linejoin: round; -webkit-user-select: text;"></path><path fill="none" stroke="#000000" d="M408,160L404,163L399,167L391,172L382,178L370,184L361,191L349,196L338,201L327,206" stroke-opacity="1" stroke-width="5" stroke-linecap="round" stroke-linejoin="round" style="-webkit-tap-highlight-color: rgba(0, 0, 0, 0); stroke-opacity: 1; stroke-linecap: round; stroke-linejoin: round; -webkit-user-select: text;"></path><path fill="none" stroke="#000000" d="M311,218L315,220L319,221L324,224L330,228L336,233L343,240L350,246L358,252L366,257L375,261L381,266L386,271L391,276L395,281" stroke-opacity="1" stroke-width="5" stroke-linecap="round" stroke-linejoin="round" style="-webkit-tap-highlight-color: rgba(0, 0, 0, 0); stroke-opacity: 1; stroke-linecap: round; stroke-linejoin: round; -webkit-user-select: text;"></path><path fill="none" stroke="#000000" d="M402,288L401,281L401,277L400,271L398,263L395,255L393,242L391,230L390,218L388,208L387,197L386,187L386,178" stroke-opacity="1" stroke-width="5" stroke-linecap="round" stroke-linejoin="round" style="-webkit-tap-highlight-color: rgba(0, 0, 0, 0); stroke-opacity: 1; stroke-linecap: round; stroke-linejoin: round; -webkit-user-select: text;"></path><path fill="none" stroke="#000000" d="M383,145L381,155L380,164L376,177L371,195L365,212L359,230L354,249L349,267L343,283L339,296" stroke-opacity="1" stroke-width="5" stroke-linecap="round" stroke-linejoin="round" style="-webkit-tap-highlight-color: rgba(0, 0, 0, 0); stroke-opacity: 1; stroke-linecap: round; stroke-linejoin: round; -webkit-user-select: text;"></path><path fill="none" stroke="#000000" d="M312,349L324,350L330,350L341,349L352,347L365,345L377,344L391,342L404,341L417,339L426,338" stroke-opacity="1" stroke-width="5" stroke-linecap="round" stroke-linejoin="round" style="-webkit-tap-highlight-color: rgba(0, 0, 0, 0); stroke-opacity: 1; stroke-linecap: round; stroke-linejoin: round; -webkit-user-select: text;"></path><path fill="none" stroke="#000000" d="M444,332L441,337L438,342L435,349L431,357L426,367L421,377L416,386L412,397L408,407L404,417L400,426" stroke-opacity="1" stroke-width="5" stroke-linecap="round" stroke-linejoin="round" style="-webkit-tap-highlight-color: rgba(0, 0, 0, 0); stroke-opacity: 1; stroke-linecap: round; stroke-linejoin: round; -webkit-user-select: text;"></path><path fill="none" stroke="#000000" d="M383,440L381,432L381,425L379,416L377,405L374,393L370,377L366,365L362,353L359,342L357,334L356,327L355,320L354,315L354,310L354,307L354,304L354,301L358,299L365,297L373,296L383,296L396,294L409,293L423,291L437,290L451,289L461,288" stroke-opacity="1" stroke-width="5" stroke-linecap="round" stroke-linejoin="round" style="-webkit-tap-highlight-color: rgba(0, 0, 0, 0); stroke-opacity: 1; stroke-linecap: round; stroke-linejoin: round; -webkit-user-select: text;"></path><path fill="none" stroke="#000000" d="M477,306L474,313L473,319L473,327L471,335L469,347L468,356L468,365L467,375L467,382L467,390" stroke-opacity="1" stroke-width="5" stroke-linecap="round" stroke-linejoin="round" style="-webkit-tap-highlight-color: rgba(0, 0, 0, 0); stroke-opacity: 1; stroke-linecap: round; stroke-linejoin: round; -webkit-user-select: text;"></path><path fill="none" stroke="#000000" d="M468,412L464,408L460,405L452,400L443,394L433,389L418,383L404,377L388,372L376,369L363,366" stroke-opacity="1" stroke-width="5" stroke-linecap="round" stroke-linejoin="round" style="-webkit-tap-highlight-color: rgba(0, 0, 0, 0); stroke-opacity: 1; stroke-linecap: round; stroke-linejoin: round; -webkit-user-select: text;"></path><path fill="none" stroke="#000000" d="M323,357L328,356L334,355L345,351L358,345L371,340L381,337L392,335L401,334L410,334L419,334L427,334L434,336L441,339L447,343L453,347L459,352L465,356L471,361L477,365L483,370L488,373L495,376L502,378L509,378L515,378L523,378L530,376L536,371L541,367L548,363" stroke-opacity="1" stroke-width="5" stroke-linecap="round" stroke-linejoin="round" style="-webkit-tap-highlight-color: rgba(0, 0, 0, 0); stroke-opacity: 1; stroke-linecap: round; stroke-linejoin: round; -webkit-user-select: text;"></path><path fill="none" stroke="#000000" d="M570,340L570,334L571,332L573,330L577,326L580,322L583,317L586,313L588,308L590,304L591,299L591,294L591,289L591,284L590,280L587,276L583,272L579,268L574,264L570,261L566,258L562,255L557,252L553,249L548,246L544,242L539,239L535,235L531,232L527,229L523,225L519,220L517,215L515,211L513,205L512,198L512,190L512,181" stroke-opacity="1" stroke-width="5" stroke-linecap="round" stroke-linejoin="round" style="-webkit-tap-highlight-color: rgba(0, 0, 0, 0); stroke-opacity: 1; stroke-linecap: round; stroke-linejoin: round; -webkit-user-select: text;"></path><path fill="none" stroke="#000000" d="M541,136L540,139L541,142L546,146L553,150L559,155L568,161L578,167L586,172L593,176L602,181L609,185L615,190L619,193" stroke-opacity="1" stroke-width="5" stroke-linecap="round" stroke-linejoin="round" style="-webkit-tap-highlight-color: rgba(0, 0, 0, 0); stroke-opacity: 1; stroke-linecap: round; stroke-linejoin: round; -webkit-user-select: text;"></path><path fill="none" stroke="#000000" d="M624,206L617,210L611,215L603,222L594,230L583,240L573,250L563,260L553,271L546,279L540,287L534,294" stroke-opacity="1" stroke-width="5" stroke-linecap="round" stroke-linejoin="round" style="-webkit-tap-highlight-color: rgba(0, 0, 0, 0); stroke-opacity: 1; stroke-linecap: round; stroke-linejoin: round; -webkit-user-select: text;"></path><path fill="none" stroke="#000000" d="M512,302L511,293L511,288L510,282L506,274L502,264L497,256L492,246L488,237L485,230L481,224L478,218" stroke-opacity="1" stroke-width="5" stroke-linecap="round" stroke-linejoin="round" style="-webkit-tap-highlight-color: rgba(0, 0, 0, 0); stroke-opacity: 1; stroke-linecap: round; stroke-linejoin: round; -webkit-user-select: text;"></path><path fill="none" stroke="#000000" d="M484,217L491,218L499,218L508,218L522,217L535,215L549,215L563,214L578,213L591,212L604,211" stroke-opacity="1" stroke-width="5" stroke-linecap="round" stroke-linejoin="round" style="-webkit-tap-highlight-color: rgba(0, 0, 0, 0); stroke-opacity: 1; stroke-linecap: round; stroke-linejoin: round; -webkit-user-select: text;"></path><path fill="none" stroke="#000000" d="M635,209L631,215L629,222L625,230L619,243L613,256L605,272L595,287L586,303L577,320L569,336" stroke-opacity="1" stroke-width="5" stroke-linecap="round" stroke-linejoin="round" style="-webkit-tap-highlight-color: rgba(0, 0, 0, 0); stroke-opacity: 1; stroke-linecap: round; stroke-linejoin: round; -webkit-user-select: text;"></path><path fill="none" stroke="#000000" d="M561,384L557,388L553,391L547,398L541,405L535,412L529,420L522,429L517,435L513,442L509,448L505,453L501,457" stroke-opacity="1" stroke-width="5" stroke-linecap="round" stroke-linejoin="round" style="-webkit-tap-highlight-color: rgba(0, 0, 0, 0); stroke-opacity: 1; stroke-linecap: round; stroke-linejoin: round; -webkit-user-select: text;"></path><path fill="none" stroke="#000000" d="M493,469L497,468L502,468L509,468L517,468L529,471L539,473L551,475L561,477L573,479L585,481L594,483L603,483L609,484L612,484" stroke-opacity="1" stroke-width="5" stroke-linecap="round" stroke-linejoin="round" style="-webkit-tap-highlight-color: rgba(0, 0, 0, 0); stroke-opacity: 1; stroke-linecap: round; stroke-linejoin: round; -webkit-user-select: text;"></path><path fill="none" stroke="#000000" d="M610,476L608,468L608,463L608,456L608,446L608,436L608,423L608,414L608,405L608,398L608,393" stroke-opacity="1" stroke-width="5" stroke-linecap="round" stroke-linejoin="round" style="-webkit-tap-highlight-color: rgba(0, 0, 0, 0); stroke-opacity: 1; stroke-linecap: round; stroke-linejoin: round; -webkit-user-select: text;"></path><path fill="none" stroke="#000000" d="M604,387L596,400L590,408L584,418L577,431L570,444L564,457L559,466L553,478L548,487L544,493L539,500L535,507L533,511" stroke-opacity="1" stroke-width="5" stroke-linecap="round" stroke-linejoin="round" style="-webkit-tap-highlight-color: rgba(0, 0, 0, 0); stroke-opacity: 1; stroke-linecap: round; stroke-linejoin: round; -webkit-user-select: text;"></path><path fill="none" stroke="#000000" d="M529,517L536,518L541,518L549,517L557,515L566,514L578,511L588,508L600,505L608,503L615,501L623,500L629,499" stroke-opacity="1" stroke-width="5" stroke-linecap="round" stroke-linejoin="round" style="-webkit-tap-highlight-color: rgba(0, 0, 0, 0); stroke-opacity: 1; stroke-linecap: round; stroke-linejoin: round; -webkit-user-select: text;"></path><path fill="none" stroke="#000000" d="M656,492L660,486L659,482L656,476L653,470L649,463L646,455L641,448L636,442L632,437L627,432L622,426L617,420L611,416L604,412L597,410L590,409L582,409L574,409L566,409L558,410L551,412L545,414L539,416L534,418L527,420L522,422L516,424L510,425L504,427L498,427L492,428L487,428L481,428L475,427L468,424L463,420L455,415" stroke-opacity="1" stroke-width="5" stroke-linecap="round" stroke-linejoin="round" style="-webkit-tap-highlight-color: rgba(0, 0, 0, 0); stroke-opacity: 1; stroke-linecap: round; stroke-linejoin: round; -webkit-user-select: text;"></path><path fill="none" stroke="#000000" d="M435,453L435,462L435,467L435,472L435,479L435,485L435,493L435,501L435,508L435,513L436,519L437,527L437,532L437,536L437,540L437,544" stroke-opacity="1" stroke-width="5" stroke-linecap="round" stroke-linejoin="round" style="-webkit-tap-highlight-color: rgba(0, 0, 0, 0); stroke-opacity: 1; stroke-linecap: round; stroke-linejoin: round; -webkit-user-select: text;"></path><path fill="none" stroke="#000000" d="M431,547L422,543L417,543L411,542L403,541L395,540L386,538L375,536L364,533L353,530L342,528L333,526L325,524" stroke-opacity="1" stroke-width="5" stroke-linecap="round" stroke-linejoin="round" style="-webkit-tap-highlight-color: rgba(0, 0, 0, 0); stroke-opacity: 1; stroke-linecap: round; stroke-linejoin: round; -webkit-user-select: text;"></path><path fill="none" stroke="#000000" d="M309,509L315,505L320,503L326,500L337,495L351,490L364,483L374,478L381,473" stroke-opacity="1" stroke-width="5" stroke-linecap="round" stroke-linejoin="round" style="-webkit-tap-highlight-color: rgba(0, 0, 0, 0); stroke-opacity: 1; stroke-linecap: round; stroke-linejoin: round; -webkit-user-select: text;"></path><path fill="none" stroke="#000000" d="M392,490L400,496L404,500L409,505L414,511L420,516L426,522L432,528L437,533L443,538L447,542L451,546" stroke-opacity="1" stroke-width="5" stroke-linecap="round" stroke-linejoin="round" style="-webkit-tap-highlight-color: rgba(0, 0, 0, 0); stroke-opacity: 1; stroke-linecap: round; stroke-linejoin: round; -webkit-user-select: text;"></path><path fill="none" stroke="#000000" d="M453,562L446,565L439,566L432,569L421,573L411,579L401,585L391,590L383,594L376,597L371,599L367,601L363,602" stroke-opacity="1" stroke-width="5" stroke-linecap="round" stroke-linejoin="round" style="-webkit-tap-highlight-color: rgba(0, 0, 0, 0); stroke-opacity: 1; stroke-linecap: round; stroke-linejoin: round; -webkit-user-select: text;"></path><path fill="none" stroke="#000000" d="M358,604L353,597L353,593L353,585L353,575L351,563L347,548L343,534L338,519L335,502L332,489L330,474L328,461L326,450" stroke-opacity="1" stroke-width="5" stroke-linecap="round" stroke-linejoin="round" style="-webkit-tap-highlight-color: rgba(0, 0, 0, 0); stroke-opacity: 1; stroke-linecap: round; stroke-linejoin: round; -webkit-user-select: text;"></path><path fill="none" stroke="#000000" d="M318,412L312,414L307,419L297,428L285,438L271,449L255,463L239,475" stroke-opacity="1" stroke-width="5" stroke-linecap="round" stroke-linejoin="round" style="-webkit-tap-highlight-color: rgba(0, 0, 0, 0); stroke-opacity: 1; stroke-linecap: round; stroke-linejoin: round; -webkit-user-select: text;"></path><path fill="none" stroke="#000000" d="M189,475L185,475L182,476L179,478L174,480L168,483L159,487L150,491L140,496L129,502L121,506L113,509L108,510" stroke-opacity="1" stroke-width="5" stroke-linecap="round" stroke-linejoin="round" style="-webkit-tap-highlight-color: rgba(0, 0, 0, 0); stroke-opacity: 1; stroke-linecap: round; stroke-linejoin: round; -webkit-user-select: text;"></path><path fill="none" stroke="#000000" d="M101,495L103,482L103,476L105,469L107,458L110,446L111,434L113,422L113,409" stroke-opacity="1" stroke-width="5" stroke-linecap="round" stroke-linejoin="round" style="-webkit-tap-highlight-color: rgba(0, 0, 0, 0); stroke-opacity: 1; stroke-linecap: round; stroke-linejoin: round; -webkit-user-select: text;"></path><path fill="none" stroke="#000000" d="M116,378L122,377L128,377L136,376L146,376L161,374L175,372L190,370L203,368L216,366L225,365" stroke-opacity="1" stroke-width="5" stroke-linecap="round" stroke-linejoin="round" style="-webkit-tap-highlight-color: rgba(0, 0, 0, 0); stroke-opacity: 1; stroke-linecap: round; stroke-linejoin: round; -webkit-user-select: text;"></path><path fill="none" stroke="#000000" d="M240,381L240,385L238,390L236,398L233,408L229,422L225,437L223,453L220,469L217,485L215,501L213,514L211,525L210,534" stroke-opacity="1" stroke-width="5" stroke-linecap="round" stroke-linejoin="round" style="-webkit-tap-highlight-color: rgba(0, 0, 0, 0); stroke-opacity: 1; stroke-linecap: round; stroke-linejoin: round; -webkit-user-select: text;"></path><path fill="none" stroke="#000000" d="M207,542L199,544L194,539L189,532L182,524L174,517L166,509L157,500L151,491L147,480L144,471L142,463L142,454L142,446L146,437L151,430L157,424L163,419L170,415L177,412L183,410L189,408L195,407L201,405L207,403L213,400L218,398L223,395L228,392L233,388L236,384L240,378L243,374L245,369L246,364L247,358L247,351L247,344L248,337" stroke-opacity="1" stroke-width="5" stroke-linecap="round" stroke-linejoin="round" style="-webkit-tap-highlight-color: rgba(0, 0, 0, 0); stroke-opacity: 1; stroke-linecap: round; stroke-linejoin: round; -webkit-user-select: text;"></path><path fill="none" stroke="#000000" d="M242,312L235,307L232,305L228,304L223,302L215,301L208,301L200,301L191,301L183,305L176,312L171,319L167,325L162,332L159,339L157,347L157,352L156,357L156,364L157,370L161,375L165,379L169,383L175,386L181,388L187,390L194,392L199,394L206,397L211,401L215,404L219,409L223,413L225,418L227,425L228,432L229,439L229,449L229,458L229,468L229,478" stroke-opacity="1" stroke-width="5" stroke-linecap="round" stroke-linejoin="round" style="-webkit-tap-highlight-color: rgba(0, 0, 0, 0); stroke-opacity: 1; stroke-linecap: round; stroke-linejoin: round; -webkit-user-select: text;"></path><path fill="none" stroke="#000000" d="M241,527L253,522L259,520L269,516L278,512L289,506L299,501L308,497L318,493L326,490L332,488L339,486L342,485L344,483" stroke-opacity="1" stroke-width="5" stroke-linecap="round" stroke-linejoin="round" style="-webkit-tap-highlight-color: rgba(0, 0, 0, 0); stroke-opacity: 1; stroke-linecap: round; stroke-linejoin: round; -webkit-user-select: text;"></path><path fill="none" stroke="#000000" d="M330,468L327,464L327,461L325,455L322,449L318,442L313,432L307,422L301,413L295,404L291,398L287,393L284,390L280,387L278,388L276,390L272,394L269,398L263,403L256,409L247,415L234,425L223,433L213,439L203,446L195,451" stroke-opacity="1" stroke-width="5" stroke-linecap="round" stroke-linejoin="round" style="-webkit-tap-highlight-color: rgba(0, 0, 0, 0); stroke-opacity: 1; stroke-linecap: round; stroke-linejoin: round; -webkit-user-select: text;"></path><path fill="none" stroke="#000000" d="M189,463L194,468L197,472L202,477L208,485L214,492L220,501L225,510L230,518L235,525L238,532L241,537L242,542" stroke-opacity="1" stroke-width="5" stroke-linecap="round" stroke-linejoin="round" style="-webkit-tap-highlight-color: rgba(0, 0, 0, 0); stroke-opacity: 1; stroke-linecap: round; stroke-linejoin: round; -webkit-user-select: text;"></path><path fill="none" stroke="#000000" d="M254,551L257,538L261,527L268,514L275,497L283,480L295,459L305,440L313,425" stroke-opacity="1" stroke-width="5" stroke-linecap="round" stroke-linejoin="round" style="-webkit-tap-highlight-color: rgba(0, 0, 0, 0); stroke-opacity: 1; stroke-linecap: round; stroke-linejoin: round; -webkit-user-select: text;"></path><path fill="none" stroke="#000000" d="M318,341L311,337L306,337L301,335L295,332L286,328L278,324L268,318L258,313L248,309L237,304" stroke-opacity="1" stroke-width="5" stroke-linecap="round" stroke-linejoin="round" style="-webkit-tap-highlight-color: rgba(0, 0, 0, 0); stroke-opacity: 1; stroke-linecap: round; stroke-linejoin: round; -webkit-user-select: text;"></path><path fill="none" stroke="#000000" d="M208,289L217,281L224,276L235,268L247,260L259,252L271,243L283,234L293,224" stroke-opacity="1" stroke-width="5" stroke-linecap="round" stroke-linejoin="round" style="-webkit-tap-highlight-color: rgba(0, 0, 0, 0); stroke-opacity: 1; stroke-linecap: round; stroke-linejoin: round; -webkit-user-select: text;"></path><path fill="none" stroke="#000000" d="M304,233L303,237L303,243L303,250L303,259L304,273L306,286L308,301L310,315L312,329L313,342L313,354L313,363L313,372L311,378" stroke-opacity="1" stroke-width="5" stroke-linecap="round" stroke-linejoin="round" style="-webkit-tap-highlight-color: rgba(0, 0, 0, 0); stroke-opacity: 1; stroke-linecap: round; stroke-linejoin: round; -webkit-user-select: text;"></path><path fill="none" stroke="#000000" d="M303,386L301,385L300,383L297,378L294,372L289,366L284,359L276,351L266,342L257,336L247,329L236,322L227,317L220,313L213,309L210,306L207,304L206,301" stroke-opacity="1" stroke-width="5" stroke-linecap="round" stroke-linejoin="round" style="-webkit-tap-highlight-color: rgba(0, 0, 0, 0); stroke-opacity: 1; stroke-linecap: round; stroke-linejoin: round; -webkit-user-select: text;"></path><path fill="none" stroke="#000000" d="M230,291L237,288L247,286L257,283L269,280L287,276L301,274L314,274L324,274L333,274L340,276L345,278L349,281L352,285L355,290L357,298L357,304L357,313L357,322L356,331L352,341L348,351L343,360L338,370L334,380L329,389L325,400L322,408L320,417L319,426L319,432L319,439L319,445L323,451L327,456L332,459L338,461L345,461L354,461" stroke-opacity="1" stroke-width="5" stroke-linecap="round" stroke-linejoin="round" style="-webkit-tap-highlight-color: rgba(0, 0, 0, 0); stroke-opacity: 1; stroke-linecap: round; stroke-linejoin: round; -webkit-user-select: text;"></path><path fill="none" stroke="#000000" d="M361,451L367,457L371,458L376,461L383,462L390,463L398,463L406,463L414,463L420,461L425,457L429,453L430,448L431,443L431,437L431,429L431,421L431,414L431,405L431,395L431,387" stroke-opacity="1" stroke-width="5" stroke-linecap="round" stroke-linejoin="round" style="-webkit-tap-highlight-color: rgba(0, 0, 0, 0); stroke-opacity: 1; stroke-linecap: round; stroke-linejoin: round; -webkit-user-select: text;"></path><path fill="none" stroke="#000000" d="M460,365L463,370L466,374L472,380L480,385L487,391L494,398L500,403L504,407L507,410L510,412L513,415" stroke-opacity="1" stroke-width="5" stroke-linecap="round" stroke-linejoin="round" style="-webkit-tap-highlight-color: rgba(0, 0, 0, 0); stroke-opacity: 1; stroke-linecap: round; stroke-linejoin: round; -webkit-user-select: text;"></path><path fill="none" stroke="#000000" d="M516,418L506,427L498,432L489,439L475,450L463,461L450,473L439,484L432,492L424,500" stroke-opacity="1" stroke-width="5" stroke-linecap="round" stroke-linejoin="round" style="-webkit-tap-highlight-color: rgba(0, 0, 0, 0); stroke-opacity: 1; stroke-linecap: round; stroke-linejoin: round; -webkit-user-select: text;"></path><path fill="none" stroke="#000000" d="M413,491L410,486L409,479L405,471L402,463L397,453L392,442L387,431" stroke-opacity="1" stroke-width="5" stroke-linecap="round" stroke-linejoin="round" style="-webkit-tap-highlight-color: rgba(0, 0, 0, 0); stroke-opacity: 1; stroke-linecap: round; stroke-linejoin: round; -webkit-user-select: text;"></path><path fill="none" stroke="#000000" d="M371,399L380,402L390,403L405,405L424,409L443,415L464,423L483,431L500,435L517,439L530,442" stroke-opacity="1" stroke-width="5" stroke-linecap="round" stroke-linejoin="round" style="-webkit-tap-highlight-color: rgba(0, 0, 0, 0); stroke-opacity: 1; stroke-linecap: round; stroke-linejoin: round; -webkit-user-select: text;"></path><path fill="none" stroke="#000000" d="M585,421L587,415L589,411L595,405L602,398L611,390L619,381L628,369L636,359L643,351L649,342" stroke-opacity="1" stroke-width="5" stroke-linecap="round" stroke-linejoin="round" style="-webkit-tap-highlight-color: rgba(0, 0, 0, 0); stroke-opacity: 1; stroke-linecap: round; stroke-linejoin: round; -webkit-user-select: text;"></path><path fill="none" stroke="#000000" d="M657,329L652,325L646,325L637,325L624,325L609,325L595,325L583,325L572,323L563,321L555,320L550,319L547,318L546,317L545,318L547,322L550,326L555,332L561,340L568,351L575,363L581,376L589,388L596,401L604,411L609,420L614,429L618,436L621,443L623,447L624,451L626,453L626,454L629,455L630,455L631,452L635,446L640,439L648,427L658,415L667,402L675,390L681,381L686,372L690,366L692,361L694,358L694,356L694,355L694,354L691,354L685,354L675,355L665,360L649,367L629,376L607,383" stroke-opacity="1" stroke-width="5" stroke-linecap="round" stroke-linejoin="round" style="-webkit-tap-highlight-color: rgba(0, 0, 0, 0); stroke-opacity: 1; stroke-linecap: round; stroke-linejoin: round; -webkit-user-select: text;"></path><path fill="none" stroke="#000000" d="M568,403L568,409L568,413L568,420L567,427L567,434L567,442L567,452L567,459L570,466L573,471L578,476L583,481L589,484L597,487L607,488L616,489L625,489L634,489L641,487L648,483L654,477L659,471L664,465L668,458L670,451L673,445L676,440L680,434L686,427L693,422L699,417L709,412" stroke-opacity="1" stroke-width="5" stroke-linecap="round" stroke-linejoin="round" style="-webkit-tap-highlight-color: rgba(0, 0, 0, 0); stroke-opacity: 1; stroke-linecap: round; stroke-linejoin: round; -webkit-user-select: text;"></path><path fill="none" stroke="#000000" d="M694,434L697,441L697,445L698,451L698,457L699,464L699,472L701,480L703,488L705,496L708,505L710,510L711,514" stroke-opacity="1" stroke-width="5" stroke-linecap="round" stroke-linejoin="round" style="-webkit-tap-highlight-color: rgba(0, 0, 0, 0); stroke-opacity: 1; stroke-linecap: round; stroke-linejoin: round; -webkit-user-select: text;"></path><path fill="none" stroke="#000000" d="M694,528L691,528L684,528L675,531L663,535L648,541L634,545L621,550L610,554L602,556" stroke-opacity="1" stroke-width="5" stroke-linecap="round" stroke-linejoin="round" style="-webkit-tap-highlight-color: rgba(0, 0, 0, 0); stroke-opacity: 1; stroke-linecap: round; stroke-linejoin: round; -webkit-user-select: text;"></path><path fill="none" stroke="#000000" d="M584,545L585,537L586,530L589,520L592,509L595,497L597,488L599,478L600,472" stroke-opacity="1" stroke-width="5" stroke-linecap="round" stroke-linejoin="round" style="-webkit-tap-highlight-color: rgba(0, 0, 0, 0); stroke-opacity: 1; stroke-linecap: round; stroke-linejoin: round; -webkit-user-select: text;"></path><path fill="none" stroke="#000000" d="M617,470L621,478L625,485L631,498L638,512L645,526L651,539L658,548L664,557L669,561" stroke-opacity="1" stroke-width="5" stroke-linecap="round" stroke-linejoin="round" style="-webkit-tap-highlight-color: rgba(0, 0, 0, 0); stroke-opacity: 1; stroke-linecap: round; stroke-linejoin: round; -webkit-user-select: text;"></path><path fill="none" stroke="#000000" d="M660,583L652,585L645,589L636,595L625,600L613,606L601,609L591,609L579,609L569,606L559,603L550,599L543,595L536,590L532,581L528,573L526,564L524,555L522,547L520,539L520,529L520,521L520,512L520,503L520,496L520,490L519,483L515,478L510,474L502,471" stroke-opacity="1" stroke-width="5" stroke-linecap="round" stroke-linejoin="round" style="-webkit-tap-highlight-color: rgba(0, 0, 0, 0); stroke-opacity: 1; stroke-linecap: round; stroke-linejoin: round; -webkit-user-select: text;"></path><path fill="none" stroke="#000000" d="M487,428L479,428L477,425L476,421L475,415L475,407L475,397L478,387L481,376L484,367L488,358L493,349L500,342L508,334L517,325L524,316L530,308L535,299L537,291L539,284L539,274L538,266L534,259L529,252L523,245L517,238L511,232L504,228L496,224L488,220L480,217" stroke-opacity="1" stroke-width="5" stroke-linecap="round" stroke-linejoin="round" style="-webkit-tap-highlight-color: rgba(0, 0, 0, 0); stroke-opacity: 1; stroke-linecap: round; stroke-linejoin: round; -webkit-user-select: text;"></path><path fill="none" stroke="#000000" d="M459,203L460,206L460,211L460,219L459,228L455,241L448,253L439,264L430,274L422,282L416,287L412,291" stroke-opacity="1" stroke-width="5" stroke-linecap="round" stroke-linejoin="round" style="-webkit-tap-highlight-color: rgba(0, 0, 0, 0); stroke-opacity: 1; stroke-linecap: round; stroke-linejoin: round; -webkit-user-select: text;"></path><path fill="none" stroke="#000000" d="M409,293L423,298L430,299L438,302L449,305L460,309L474,315L486,322L498,330L506,336L514,343L520,348L526,350L530,352L533,352L535,352L538,352L541,345L545,338L551,327L557,315L563,303L571,289L580,276L587,263L593,254L599,243" stroke-opacity="1" stroke-width="5" stroke-linecap="round" stroke-linejoin="round" style="-webkit-tap-highlight-color: rgba(0, 0, 0, 0); stroke-opacity: 1; stroke-linecap: round; stroke-linejoin: round; -webkit-user-select: text;"></path><path fill="none" stroke="#000000" d="M584,220L579,221L571,222L562,226L548,234L532,247L514,258L497,270L481,282L466,294" stroke-opacity="1" stroke-width="5" stroke-linecap="round" stroke-linejoin="round" style="-webkit-tap-highlight-color: rgba(0, 0, 0, 0); stroke-opacity: 1; stroke-linecap: round; stroke-linejoin: round; -webkit-user-select: text;"></path><path fill="none" stroke="#000000" d="M468,259L467,254L467,246L467,237L468,226L471,213L475,199L479,182L483,166L485,153L488,139" stroke-opacity="1" stroke-width="5" stroke-linecap="round" stroke-linejoin="round" style="-webkit-tap-highlight-color: rgba(0, 0, 0, 0); stroke-opacity: 1; stroke-linecap: round; stroke-linejoin: round; -webkit-user-select: text;"></path><path fill="none" stroke="#000000" d="M493,112L479,114L473,117L464,122L454,127L440,133L429,138L417,142L407,144" stroke-opacity="1" stroke-width="5" stroke-linecap="round" stroke-linejoin="round" style="-webkit-tap-highlight-color: rgba(0, 0, 0, 0); stroke-opacity: 1; stroke-linecap: round; stroke-linejoin: round; -webkit-user-select: text;"></path><path fill="none" stroke="#000000" d="M387,149L387,151L392,152L400,154L409,159L417,165L426,173L434,182L441,191L448,199L454,205L459,211L463,214L467,215L470,215L473,215L475,211L478,206L481,198L484,188L489,177L498,162L510,145L523,129L534,116L544,105L552,93" stroke-opacity="1" stroke-width="5" stroke-linecap="round" stroke-linejoin="round" style="-webkit-tap-highlight-color: rgba(0, 0, 0, 0); stroke-opacity: 1; stroke-linecap: round; stroke-linejoin: round; -webkit-user-select: text;"></path><path fill="none" stroke="#000000" d="M507,74L497,74L490,74L482,74L474,74L464,75L455,80L446,87L438,95L433,104L429,115L429,124L429,137L434,147L441,157L449,167L457,174L464,178L472,181L479,183L486,183L495,183L503,183L512,180L523,176L532,172L540,169L550,165L558,163L566,161L573,160L580,160L587,159L592,158L598,158L603,158L609,158" stroke-opacity="1" stroke-width="5" stroke-linecap="round" stroke-linejoin="round" style="-webkit-tap-highlight-color: rgba(0, 0, 0, 0); stroke-opacity: 1; stroke-linecap: round; stroke-linejoin: round; -webkit-user-select: text;"></path><path fill="none" stroke="#000000" d="M640,155L645,149L651,149L658,150L663,151L670,154L676,158L679,162L682,168L683,174L683,183L681,193L676,201L671,211L665,220L660,229L655,239L651,249L649,257L647,269L646,276L646,285L646,293L650,299L655,305L661,309L670,313L679,314" stroke-opacity="1" stroke-width="5" stroke-linecap="round" stroke-linejoin="round" style="-webkit-tap-highlight-color: rgba(0, 0, 0, 0); stroke-opacity: 1; stroke-linecap: round; stroke-linejoin: round; -webkit-user-select: text;"></path><path fill="none" stroke="#000000" d="M710,299L705,296L702,293L697,289L693,285L687,279L678,269L669,260L658,251L646,241L632,233L619,228L607,223" stroke-opacity="1" stroke-width="5" stroke-linecap="round" stroke-linejoin="round" style="-webkit-tap-highlight-color: rgba(0, 0, 0, 0); stroke-opacity: 1; stroke-linecap: round; stroke-linejoin: round; -webkit-user-select: text;"></path><path fill="none" stroke="#000000" d="M580,215L586,215L594,215L605,215L620,213L638,210L656,208L670,206L686,203L698,200L708,196" stroke-opacity="1" stroke-width="5" stroke-linecap="round" stroke-linejoin="round" style="-webkit-tap-highlight-color: rgba(0, 0, 0, 0); stroke-opacity: 1; stroke-linecap: round; stroke-linejoin: round; -webkit-user-select: text;"></path><path fill="none" stroke="#000000" d="M714,203L713,206L710,211L707,217L706,223L705,230L705,240L704,249L704,256L704,264" stroke-opacity="1" stroke-width="5" stroke-linecap="round" stroke-linejoin="round" style="-webkit-tap-highlight-color: rgba(0, 0, 0, 0); stroke-opacity: 1; stroke-linecap: round; stroke-linejoin: round; -webkit-user-select: text;"></path><path fill="none" stroke="#000000" d="M681,288L675,286L672,286L668,285L661,282L651,279L638,273L622,267L602,262L581,258L561,255" stroke-opacity="1" stroke-width="5" stroke-linecap="round" stroke-linejoin="round" style="-webkit-tap-highlight-color: rgba(0, 0, 0, 0); stroke-opacity: 1; stroke-linecap: round; stroke-linejoin: round; -webkit-user-select: text;"></path><path fill="none" stroke="#000000" d="M427,191L427,191" stroke-opacity="1" stroke-width="5" stroke-linecap="round" stroke-linejoin="round" style="-webkit-tap-highlight-color: rgba(0, 0, 0, 0); stroke-opacity: 1; stroke-linecap: round; stroke-linejoin: round; -webkit-user-select: text;"></path><path fill="none" stroke="#000000" d="M397,183L397,183" stroke-opacity="1" stroke-width="5" stroke-linecap="round" stroke-linejoin="round" style="-webkit-tap-highlight-color: rgba(0, 0, 0, 0); stroke-opacity: 1; stroke-linecap: round; stroke-linejoin: round; -webkit-user-select: text;"></path></svg>