<svg height="644" version="1.1" width="1024" xmlns="http://www.w3.org/2000/svg" xmlns:xlink="http://www.w3.org/1999/xlink" style="overflow: hidden; position: relative; -webkit-user-select: text;"><desc style="-webkit-tap-highlight-color: rgba(0, 0, 0, 0); -webkit-user-select: text;">Created with Raphaël 2.2.0</desc><defs style="-webkit-tap-highlight-color: rgba(0, 0, 0, 0); -webkit-user-select: text;"></defs><path fill="none" stroke="#000000" d="M394,448L389,444L387,444L385,443L382,442L378,441L374,440L369,439L365,438L361,437L355,435L351,432L345,429L341,425L337,423L333,421" stroke-opacity="1" stroke-width="5" stroke-linecap="round" stroke-linejoin="round" style="-webkit-tap-highlight-color: rgba(0, 0, 0, 0); stroke-opacity: 1; stroke-linecap: round; stroke-linejoin: round; -webkit-user-select: text;"></path><path fill="none" stroke="#000000" d="M315,401L318,395L321,391L325,386L329,379L333,372L338,365L342,358L348,349L352,343L357,337L362,330L367,323" stroke-opacity="1" stroke-width="5" stroke-linecap="round" stroke-linejoin="round" style="-webkit-tap-highlight-color: rgba(0, 0, 0, 0); stroke-opacity: 1; stroke-linecap: round; stroke-linejoin: round; -webkit-user-select: text;"></path><path fill="none" stroke="#000000" d="M390,311L393,321L396,327L400,333L405,342L409,352L413,361L419,370L425,380L430,390L434,401L437,411L441,421L443,429" stroke-opacity="1" stroke-width="5" stroke-linecap="round" stroke-linejoin="round" style="-webkit-tap-highlight-color: rgba(0, 0, 0, 0); stroke-opacity: 1; stroke-linecap: round; stroke-linejoin: round; -webkit-user-select: text;"></path><path fill="none" stroke="#000000" d="M445,451L439,446L436,444L432,441L425,436L416,430L405,421L395,412L385,403L374,393L365,384L357,376L349,369L341,362L336,358" stroke-opacity="1" stroke-width="5" stroke-linecap="round" stroke-linejoin="round" style="-webkit-tap-highlight-color: rgba(0, 0, 0, 0); stroke-opacity: 1; stroke-linecap: round; stroke-linejoin: round; -webkit-user-select: text;"></path><path fill="none" stroke="#000000" d="M321,330L324,323L327,319L332,314L340,309L348,304L356,299L365,295L374,292L382,290L391,289L400,289L409,289L418,292L424,296L429,301L434,307L437,312L439,318L442,325L443,333L445,341L446,350L447,357L449,366L449,375L450,382L451,392L453,400L454,408L456,414L458,421L460,427L463,434L465,439L469,444L473,449L477,453L481,457L487,460L495,462L502,463L512,463L520,463" stroke-opacity="1" stroke-width="5" stroke-linecap="round" stroke-linejoin="round" style="-webkit-tap-highlight-color: rgba(0, 0, 0, 0); stroke-opacity: 1; stroke-linecap: round; stroke-linejoin: round; -webkit-user-select: text;"></path><path fill="none" stroke="#000000" d="M528,434L533,432L534,432L536,432" stroke-opacity="1" stroke-width="5" stroke-linecap="round" stroke-linejoin="round" style="-webkit-tap-highlight-color: rgba(0, 0, 0, 0); stroke-opacity: 1; stroke-linecap: round; stroke-linejoin: round; -webkit-user-select: text;"></path><path fill="none" stroke="#000000" d="M544,437L552,432L555,428L559,422L561,417L563,411L565,405L567,400L568,393L568,388L568,381L568,374L568,369L568,362L568,355L568,350L568,346L567,342L566,338L564,334L562,330L560,325L558,322L556,318L555,315L554,311L554,307L554,301L554,295L554,289L555,281L558,274L562,267L567,261" stroke-opacity="1" stroke-width="5" stroke-linecap="round" stroke-linejoin="round" style="-webkit-tap-highlight-color: rgba(0, 0, 0, 0); stroke-opacity: 1; stroke-linecap: round; stroke-linejoin: round; -webkit-user-select: text;"></path><path fill="none" stroke="#000000" d="M576,259L585,275L587,282L591,293L594,304L598,315L602,326L606,335L610,344L614,354L618,365L623,374" stroke-opacity="1" stroke-width="5" stroke-linecap="round" stroke-linejoin="round" style="-webkit-tap-highlight-color: rgba(0, 0, 0, 0); stroke-opacity: 1; stroke-linecap: round; stroke-linejoin: round; -webkit-user-select: text;"></path><path fill="none" stroke="#000000" d="M608,388L594,384L587,383L577,380L566,377L552,372L539,367L525,363L515,359L507,356L502,354L498,352L495,350" stroke-opacity="1" stroke-width="5" stroke-linecap="round" stroke-linejoin="round" style="-webkit-tap-highlight-color: rgba(0, 0, 0, 0); stroke-opacity: 1; stroke-linecap: round; stroke-linejoin: round; -webkit-user-select: text;"></path><path fill="none" stroke="#000000" d="M521,335L528,325L531,319L538,311L547,305L556,297L566,288L575,279L583,271L590,263L597,256L602,249" stroke-opacity="1" stroke-width="5" stroke-linecap="round" stroke-linejoin="round" style="-webkit-tap-highlight-color: rgba(0, 0, 0, 0); stroke-opacity: 1; stroke-linecap: round; stroke-linejoin: round; -webkit-user-select: text;"></path><path fill="none" stroke="#000000" d="M613,236L614,243L614,249L614,259L615,272L616,286L616,302L616,322L616,343L615,364L615,383L615,399L615,414L615,427L615,435" stroke-opacity="1" stroke-width="5" stroke-linecap="round" stroke-linejoin="round" style="-webkit-tap-highlight-color: rgba(0, 0, 0, 0); stroke-opacity: 1; stroke-linecap: round; stroke-linejoin: round; -webkit-user-select: text;"></path><path fill="none" stroke="#000000" d="M591,475L582,476L577,476L569,476L562,473L553,471L545,468L539,467L529,466L520,465L512,463L501,460L493,457L487,455L480,454L474,452L471,451" stroke-opacity="1" stroke-width="5" stroke-linecap="round" stroke-linejoin="round" style="-webkit-tap-highlight-color: rgba(0, 0, 0, 0); stroke-opacity: 1; stroke-linecap: round; stroke-linejoin: round; -webkit-user-select: text;"></path><path fill="none" stroke="#000000" d="M468,441L469,437L470,429L474,419L478,407L483,394L486,380L489,367L492,354L495,342L499,331L503,320L506,313" stroke-opacity="1" stroke-width="5" stroke-linecap="round" stroke-linejoin="round" style="-webkit-tap-highlight-color: rgba(0, 0, 0, 0); stroke-opacity: 1; stroke-linecap: round; stroke-linejoin: round; -webkit-user-select: text;"></path><path fill="none" stroke="#000000" d="M518,306L520,311L520,316L522,324L525,332L529,344L532,354L535,365L539,377L543,388L548,400L552,410L556,418L558,426L561,432" stroke-opacity="1" stroke-width="5" stroke-linecap="round" stroke-linejoin="round" style="-webkit-tap-highlight-color: rgba(0, 0, 0, 0); stroke-opacity: 1; stroke-linecap: round; stroke-linejoin: round; -webkit-user-select: text;"></path><path fill="none" stroke="#000000" d="M556,435L552,433L546,432L539,427L528,421L517,417L508,416L498,414L490,413L481,411L471,407L463,401L455,393L448,386L442,382" stroke-opacity="1" stroke-width="5" stroke-linecap="round" stroke-linejoin="round" style="-webkit-tap-highlight-color: rgba(0, 0, 0, 0); stroke-opacity: 1; stroke-linecap: round; stroke-linejoin: round; -webkit-user-select: text;"></path><path fill="none" stroke="#000000" d="M441,353L444,347L448,341L454,333L462,324L470,315L478,306L485,296L494,285L502,275L508,267" stroke-opacity="1" stroke-width="5" stroke-linecap="round" stroke-linejoin="round" style="-webkit-tap-highlight-color: rgba(0, 0, 0, 0); stroke-opacity: 1; stroke-linecap: round; stroke-linejoin: round; -webkit-user-select: text;"></path><path fill="none" stroke="#000000" d="M529,251L532,254L534,258L538,263L542,268L547,274L553,280L559,288L564,296L568,306L572,316L575,327L576,337L577,349L577,359L576,369L573,378L570,386L565,393L560,400L555,405L549,410L544,414L538,417L533,420L526,422L519,422L512,423L504,423L497,422L490,419L485,415L478,411L472,406L466,400L461,394L455,388L450,382L445,376L441,369L437,362L433,355L429,348L424,340L420,335L414,329L409,323L404,318L397,312L390,305L382,300L373,294L365,290" stroke-opacity="1" stroke-width="5" stroke-linecap="round" stroke-linejoin="round" style="-webkit-tap-highlight-color: rgba(0, 0, 0, 0); stroke-opacity: 1; stroke-linecap: round; stroke-linejoin: round; -webkit-user-select: text;"></path><path fill="none" stroke="#000000" d="M369,282L378,274L383,270L388,266L395,261L402,255L409,248L416,241L423,234L429,227L437,218L444,209L453,198L461,188L468,181" stroke-opacity="1" stroke-width="5" stroke-linecap="round" stroke-linejoin="round" style="-webkit-tap-highlight-color: rgba(0, 0, 0, 0); stroke-opacity: 1; stroke-linecap: round; stroke-linejoin: round; -webkit-user-select: text;"></path><path fill="none" stroke="#000000" d="M478,173L478,179L478,186L478,195L478,205L479,218L481,230L482,244L484,256L485,269L487,281L489,294L490,303L491,310" stroke-opacity="1" stroke-width="5" stroke-linecap="round" stroke-linejoin="round" style="-webkit-tap-highlight-color: rgba(0, 0, 0, 0); stroke-opacity: 1; stroke-linecap: round; stroke-linejoin: round; -webkit-user-select: text;"></path><path fill="none" stroke="#000000" d="M480,319L478,314L473,310L468,304L461,296L454,287L443,276L434,265L423,254L412,242L402,231L394,219L389,208" stroke-opacity="1" stroke-width="5" stroke-linecap="round" stroke-linejoin="round" style="-webkit-tap-highlight-color: rgba(0, 0, 0, 0); stroke-opacity: 1; stroke-linecap: round; stroke-linejoin: round; -webkit-user-select: text;"></path><path fill="none" stroke="#000000" d="M389,193L394,192L400,192L406,192L415,192L428,192L444,192L460,192L478,194L492,199L503,203L513,208L522,213L529,215L534,218L538,220L541,223" stroke-opacity="1" stroke-width="5" stroke-linecap="round" stroke-linejoin="round" style="-webkit-tap-highlight-color: rgba(0, 0, 0, 0); stroke-opacity: 1; stroke-linecap: round; stroke-linejoin: round; -webkit-user-select: text;"></path><path fill="none" stroke="#000000" d="M544,226L546,232L544,235L539,240L534,245L525,251L517,256L508,261L499,266L490,270L483,274L475,277L467,280L459,281L451,283L442,283L433,283L424,282L415,278L408,274L399,269L391,264L385,259L378,254L372,249L366,245L361,243L355,240L350,238L344,237L337,235L332,235L326,235L320,235L314,235L309,238L304,243" stroke-opacity="1" stroke-width="5" stroke-linecap="round" stroke-linejoin="round" style="-webkit-tap-highlight-color: rgba(0, 0, 0, 0); stroke-opacity: 1; stroke-linecap: round; stroke-linejoin: round; -webkit-user-select: text;"></path><path fill="none" stroke="#000000" d="M292,276L283,278L280,279L276,283L271,289L267,295L262,302L258,308L255,316L252,324L251,333L250,342L250,352L250,359L250,367L250,375L250,382L250,389L250,396L250,405L249,411L247,420L245,427L242,434L239,440L235,447L231,453L227,459L222,465L217,470L211,474L206,478L201,480L192,483" stroke-opacity="1" stroke-width="5" stroke-linecap="round" stroke-linejoin="round" style="-webkit-tap-highlight-color: rgba(0, 0, 0, 0); stroke-opacity: 1; stroke-linecap: round; stroke-linejoin: round; -webkit-user-select: text;"></path><path fill="none" stroke="#000000" d="M151,468L152,464L152,458L153,449L155,439L157,427L160,415L162,402L165,389L167,376L169,362L172,347L175,332L178,320" stroke-opacity="1" stroke-width="5" stroke-linecap="round" stroke-linejoin="round" style="-webkit-tap-highlight-color: rgba(0, 0, 0, 0); stroke-opacity: 1; stroke-linecap: round; stroke-linejoin: round; -webkit-user-select: text;"></path><path fill="none" stroke="#000000" d="M196,313L199,320L203,325L209,332L216,339L225,346L237,356L249,367L263,383L275,399L286,411L296,423L305,434L312,442" stroke-opacity="1" stroke-width="5" stroke-linecap="round" stroke-linejoin="round" style="-webkit-tap-highlight-color: rgba(0, 0, 0, 0); stroke-opacity: 1; stroke-linecap: round; stroke-linejoin: round; -webkit-user-select: text;"></path><path fill="none" stroke="#000000" d="M314,460L301,458L293,455L283,451L272,446L260,441L249,437L237,433L225,429L213,425L203,421L196,418L189,416L184,415" stroke-opacity="1" stroke-width="5" stroke-linecap="round" stroke-linejoin="round" style="-webkit-tap-highlight-color: rgba(0, 0, 0, 0); stroke-opacity: 1; stroke-linecap: round; stroke-linejoin: round; -webkit-user-select: text;"></path><path fill="none" stroke="#000000" d="M194,422L194,416L194,409L196,400L199,391L204,380L211,365L218,349L226,332L235,310L243,288L252,264" stroke-opacity="1" stroke-width="5" stroke-linecap="round" stroke-linejoin="round" style="-webkit-tap-highlight-color: rgba(0, 0, 0, 0); stroke-opacity: 1; stroke-linecap: round; stroke-linejoin: round; -webkit-user-select: text;"></path><path fill="none" stroke="#000000" d="M273,196L264,191L259,189L254,187L247,184L240,181L233,178L225,175L217,172L209,169L202,165L197,163L191,161L187,160" stroke-opacity="1" stroke-width="5" stroke-linecap="round" stroke-linejoin="round" style="-webkit-tap-highlight-color: rgba(0, 0, 0, 0); stroke-opacity: 1; stroke-linecap: round; stroke-linejoin: round; -webkit-user-select: text;"></path><path fill="none" stroke="#000000" d="M174,177L172,185L172,194L170,204L167,217L165,229L161,244L157,255L155,269L151,282" stroke-opacity="1" stroke-width="5" stroke-linecap="round" stroke-linejoin="round" style="-webkit-tap-highlight-color: rgba(0, 0, 0, 0); stroke-opacity: 1; stroke-linecap: round; stroke-linejoin: round; -webkit-user-select: text;"></path><path fill="none" stroke="#000000" d="M140,310L150,309L154,309L160,308L168,307L180,305L194,305L209,305L225,305L241,305L257,305L270,305L280,305L290,305L297,305L301,305" stroke-opacity="1" stroke-width="5" stroke-linecap="round" stroke-linejoin="round" style="-webkit-tap-highlight-color: rgba(0, 0, 0, 0); stroke-opacity: 1; stroke-linecap: round; stroke-linejoin: round; -webkit-user-select: text;"></path><path fill="none" stroke="#000000" d="M283,307L279,305L273,304L266,299L257,292L247,284L235,274L224,264L210,255L196,246L183,236L171,228L161,219L153,213L148,208L145,204" stroke-opacity="1" stroke-width="5" stroke-linecap="round" stroke-linejoin="round" style="-webkit-tap-highlight-color: rgba(0, 0, 0, 0); stroke-opacity: 1; stroke-linecap: round; stroke-linejoin: round; -webkit-user-select: text;"></path><path fill="none" stroke="#000000" d="M145,205L149,211L150,218L150,224L151,234L151,247L152,260L152,271L152,281L152,291L152,298" stroke-opacity="1" stroke-width="5" stroke-linecap="round" stroke-linejoin="round" style="-webkit-tap-highlight-color: rgba(0, 0, 0, 0); stroke-opacity: 1; stroke-linecap: round; stroke-linejoin: round; -webkit-user-select: text;"></path><path fill="none" stroke="#000000" d="M147,310L161,292L168,284L178,273L189,261L203,245L217,230L231,213L246,196L260,180L273,163L283,149" stroke-opacity="1" stroke-width="5" stroke-linecap="round" stroke-linejoin="round" style="-webkit-tap-highlight-color: rgba(0, 0, 0, 0); stroke-opacity: 1; stroke-linecap: round; stroke-linejoin: round; -webkit-user-select: text;"></path><path fill="none" stroke="#000000" d="M316,126L317,123L319,119L323,113L327,108L332,103L336,98L341,93L345,88L349,82L352,77L355,70" stroke-opacity="1" stroke-width="5" stroke-linecap="round" stroke-linejoin="round" style="-webkit-tap-highlight-color: rgba(0, 0, 0, 0); stroke-opacity: 1; stroke-linecap: round; stroke-linejoin: round; -webkit-user-select: text;"></path><path fill="none" stroke="#000000" d="M352,67L342,72L336,72L330,72L323,72L314,72L306,72L296,72L286,70L279,67L270,64" stroke-opacity="1" stroke-width="5" stroke-linecap="round" stroke-linejoin="round" style="-webkit-tap-highlight-color: rgba(0, 0, 0, 0); stroke-opacity: 1; stroke-linecap: round; stroke-linejoin: round; -webkit-user-select: text;"></path><path fill="none" stroke="#000000" d="M254,80L254,84L258,90L263,94L268,99L275,106L281,113L288,120L293,128L297,137L299,146L299,157" stroke-opacity="1" stroke-width="5" stroke-linecap="round" stroke-linejoin="round" style="-webkit-tap-highlight-color: rgba(0, 0, 0, 0); stroke-opacity: 1; stroke-linecap: round; stroke-linejoin: round; -webkit-user-select: text;"></path><path fill="none" stroke="#000000" d="M300,181L308,169L314,163L323,156L332,149L343,144L354,138L366,131L375,125L384,119L391,113L397,109L400,106L404,104L405,104L402,104L397,104L391,105L385,105L376,104L368,101L359,96L349,91L338,84L326,76L315,68" stroke-opacity="1" stroke-width="5" stroke-linecap="round" stroke-linejoin="round" style="-webkit-tap-highlight-color: rgba(0, 0, 0, 0); stroke-opacity: 1; stroke-linecap: round; stroke-linejoin: round; -webkit-user-select: text;"></path><path fill="none" stroke="#000000" d="M282,53L284,56L284,65L286,74L288,84L291,96L293,109L297,122L301,133L308,142L315,147L325,152L335,156L347,159L360,161L372,162L382,162L392,162L402,162L410,160L419,158L427,157L435,156L444,156L452,156L460,156L467,159L474,162L480,164" stroke-opacity="1" stroke-width="5" stroke-linecap="round" stroke-linejoin="round" style="-webkit-tap-highlight-color: rgba(0, 0, 0, 0); stroke-opacity: 1; stroke-linecap: round; stroke-linejoin: round; -webkit-user-select: text;"></path><path fill="none" stroke="#000000" d="M494,152L498,152L502,152L506,152L512,150L518,148L524,144L529,140L532,136L536,132L539,127L543,121L549,114L554,109L561,104L567,100L575,95L583,91L591,86L600,81L608,78L617,76L626,76L635,76" stroke-opacity="1" stroke-width="5" stroke-linecap="round" stroke-linejoin="round" style="-webkit-tap-highlight-color: rgba(0, 0, 0, 0); stroke-opacity: 1; stroke-linecap: round; stroke-linejoin: round; -webkit-user-select: text;"></path><path fill="none" stroke="#000000" d="M661,92L665,94L665,99L665,108L665,117L665,126L665,137L665,147L665,157L665,167L664,175L663,183L662,189L661,193L660,196L660,197L659,198L658,198L657,198L656,198L653,198L648,194L639,190L626,184L614,178L600,171L587,162L574,152L563,142L552,131L543,123L536,116L530,111L526,105L523,100" stroke-opacity="1" stroke-width="5" stroke-linecap="round" stroke-linejoin="round" style="-webkit-tap-highlight-color: rgba(0, 0, 0, 0); stroke-opacity: 1; stroke-linecap: round; stroke-linejoin: round; -webkit-user-select: text;"></path><path fill="none" stroke="#000000" d="M535,89L541,83L550,74L563,63L579,52L594,43L608,36" stroke-opacity="1" stroke-width="5" stroke-linecap="round" stroke-linejoin="round" style="-webkit-tap-highlight-color: rgba(0, 0, 0, 0); stroke-opacity: 1; stroke-linecap: round; stroke-linejoin: round; -webkit-user-select: text;"></path><path fill="none" stroke="#000000" d="M629,35L624,38L624,43L622,50L621,62L619,76L617,95L614,115L610,135L605,154L600,171L595,185" stroke-opacity="1" stroke-width="5" stroke-linecap="round" stroke-linejoin="round" style="-webkit-tap-highlight-color: rgba(0, 0, 0, 0); stroke-opacity: 1; stroke-linecap: round; stroke-linejoin: round; -webkit-user-select: text;"></path><path fill="none" stroke="#000000" d="M575,191L578,188L585,181L595,172L609,162L624,156L641,151L658,147L675,143L690,138L703,133" stroke-opacity="1" stroke-width="5" stroke-linecap="round" stroke-linejoin="round" style="-webkit-tap-highlight-color: rgba(0, 0, 0, 0); stroke-opacity: 1; stroke-linecap: round; stroke-linejoin: round; -webkit-user-select: text;"></path></svg>