<svg height="644" version="1.1" width="1024" xmlns="http://www.w3.org/2000/svg" xmlns:xlink="http://www.w3.org/1999/xlink" style="overflow: hidden; position: relative; -webkit-user-select: text;"><desc style="-webkit-tap-highlight-color: rgba(0, 0, 0, 0); -webkit-user-select: text;">Created with Raphaël 2.2.0</desc><defs style="-webkit-tap-highlight-color: rgba(0, 0, 0, 0); -webkit-user-select: text;"></defs><path fill="none" stroke="#000000" d="M200,293L208,286L210,285L212,284L214,282L216,279L218,277L221,275L223,272L225,269L227,266L230,263L233,260L236,257L239,254L242,251L245,248L248,245L251,241L253,238L255,235L258,233L261,230L263,228L266,225L269,222L271,219L273,216L275,214L277,211L279,208L281,206L284,202L287,198" stroke-opacity="1" stroke-width="5" stroke-linecap="round" stroke-linejoin="round" style="-webkit-tap-highlight-color: rgba(0, 0, 0, 0); stroke-opacity: 1; stroke-linecap: round; stroke-linejoin: round; -webkit-user-select: text;"></path><path fill="none" stroke="#000000" d="M309,176L309,181L309,184L310,186L312,189L314,192L316,195L318,198L320,200L321,202L323,205L325,208L327,211L328,213L330,217L332,220L335,223L337,227L340,230L343,234L346,238L348,241L350,245L352,248L354,251L355,253L356,255L358,257L359,260L361,262L363,265L365,268L367,270L369,272L371,274L372,276L374,278L376,280L377,281L378,283L380,284L382,286L383,288L385,289L386,291L388,294" stroke-opacity="1" stroke-width="5" stroke-linecap="round" stroke-linejoin="round" style="-webkit-tap-highlight-color: rgba(0, 0, 0, 0); stroke-opacity: 1; stroke-linecap: round; stroke-linejoin: round; -webkit-user-select: text;"></path><path fill="none" stroke="#000000" d="M388,313L385,317L383,320L380,324L376,327L370,332L365,336L360,341L355,346L351,350L346,355L342,359L338,362L334,366L330,371L327,374L323,378L320,381L318,384L314,387L310,390L307,394L303,398L301,400L298,403L296,406L294,408L291,410L289,412L286,414" stroke-opacity="1" stroke-width="5" stroke-linecap="round" stroke-linejoin="round" style="-webkit-tap-highlight-color: rgba(0, 0, 0, 0); stroke-opacity: 1; stroke-linecap: round; stroke-linejoin: round; -webkit-user-select: text;"></path><path fill="none" stroke="#000000" d="M265,410L263,403L263,398L262,393L261,388L259,382L259,376L258,372L257,368L257,364L256,360L254,356L253,352L252,347L250,343L249,339L247,335L246,332L245,328L244,324L243,320L242,317L241,313L240,310L239,307L237,303L236,297L235,292L234,288L233,284L232,279L230,276L229,272L228,269L227,265L225,262L224,259L223,255L222,252L221,247L220,244L220,241" stroke-opacity="1" stroke-width="5" stroke-linecap="round" stroke-linejoin="round" style="-webkit-tap-highlight-color: rgba(0, 0, 0, 0); stroke-opacity: 1; stroke-linecap: round; stroke-linejoin: round; -webkit-user-select: text;"></path><path fill="none" stroke="#000000" d="M212,228L216,229L220,229L225,229L231,229L239,229L246,229L254,229L262,229L271,229L279,228L288,228L295,227L301,227L308,226L314,225L320,224L325,223L329,222L334,221L339,220L344,219L349,218L353,217L357,216L361,216L366,216L369,216L374,215L377,215L381,215L384,215L387,215L391,214" stroke-opacity="1" stroke-width="5" stroke-linecap="round" stroke-linejoin="round" style="-webkit-tap-highlight-color: rgba(0, 0, 0, 0); stroke-opacity: 1; stroke-linecap: round; stroke-linejoin: round; -webkit-user-select: text;"></path><path fill="none" stroke="#000000" d="M400,208L397,213L396,216L394,219L391,224L388,228L385,233L381,240L377,246L372,252L368,259L364,266L362,273L360,279L358,285L355,292L352,299L349,303L347,307L344,311L343,315L341,320L339,324L337,328L334,332L331,337L329,341L327,344L326,349L324,352L322,355L321,359L319,361L318,364L316,368L314,370L313,373L312,374L310,375L307,375" stroke-opacity="1" stroke-width="5" stroke-linecap="round" stroke-linejoin="round" style="-webkit-tap-highlight-color: rgba(0, 0, 0, 0); stroke-opacity: 1; stroke-linecap: round; stroke-linejoin: round; -webkit-user-select: text;"></path><path fill="none" stroke="#000000" d="M308,359L304,358L302,357L299,355L296,352L292,347L289,343L287,338L285,334L283,329L281,323L280,318L278,313L276,308L274,304L271,300L268,296L265,292L262,288L259,284L256,279L253,275L251,271L249,268L247,265L245,263L244,261L243,259" stroke-opacity="1" stroke-width="5" stroke-linecap="round" stroke-linejoin="round" style="-webkit-tap-highlight-color: rgba(0, 0, 0, 0); stroke-opacity: 1; stroke-linecap: round; stroke-linejoin: round; -webkit-user-select: text;"></path><path fill="none" stroke="#000000" d="M237,283L241,280L244,277L248,273L253,268L259,263L266,257L273,251L279,245L286,238L293,231L301,224L308,217L315,210L321,204L327,198L332,193L337,188L342,184L344,181L347,178L350,176L352,174L353,173L354,172" stroke-opacity="1" stroke-width="5" stroke-linecap="round" stroke-linejoin="round" style="-webkit-tap-highlight-color: rgba(0, 0, 0, 0); stroke-opacity: 1; stroke-linecap: round; stroke-linejoin: round; -webkit-user-select: text;"></path><path fill="none" stroke="#000000" d="M352,167L354,172L357,174L359,177L363,181L366,186L369,191L372,196L374,201L375,206L376,211L376,218L376,224L376,231L376,239L374,246L371,252L367,259L364,267L359,274L355,279L350,285L344,291L339,296L332,301L326,306L318,310L310,315L303,319L297,322L290,326L284,330L277,333L271,337L263,343L257,348L251,354L245,359L240,365L235,370L232,374L228,380L226,384L223,390L220,396L218,403L215,411L211,422" stroke-opacity="1" stroke-width="5" stroke-linecap="round" stroke-linejoin="round" style="-webkit-tap-highlight-color: rgba(0, 0, 0, 0); stroke-opacity: 1; stroke-linecap: round; stroke-linejoin: round; -webkit-user-select: text;"></path><path fill="none" stroke="#000000" d="M241,459L243,464L246,467L249,469L253,473L257,477L262,480L267,484L271,487L277,490L283,494L288,497L294,501L299,503L305,506L310,508L316,509L321,510L326,511L332,511L337,511L342,511L347,511L351,510L354,508L357,506L361,504L363,501L366,498L369,496L373,493L376,490L379,486L382,483L386,479L389,475L393,471L396,466L400,462L403,456L407,451L410,444L414,438L418,430L423,422L428,414" stroke-opacity="1" stroke-width="5" stroke-linecap="round" stroke-linejoin="round" style="-webkit-tap-highlight-color: rgba(0, 0, 0, 0); stroke-opacity: 1; stroke-linecap: round; stroke-linejoin: round; -webkit-user-select: text;"></path><path fill="none" stroke="#000000" d="M447,390L451,391L454,391L456,391L460,391L463,391L469,391L475,391L480,391L486,391L493,390L500,390L507,390L516,389L525,388L534,387L543,386L553,384L562,382L571,380L580,378L586,376" stroke-opacity="1" stroke-width="5" stroke-linecap="round" stroke-linejoin="round" style="-webkit-tap-highlight-color: rgba(0, 0, 0, 0); stroke-opacity: 1; stroke-linecap: round; stroke-linejoin: round; -webkit-user-select: text;"></path><path fill="none" stroke="#000000" d="M607,410L604,417L602,422L600,426L599,430L597,435L595,441L592,448L588,455L585,463L580,471L576,480L573,487L568,495L565,504L561,512L558,519L554,527L551,534L547,540L544,544L540,550" stroke-opacity="1" stroke-width="5" stroke-linecap="round" stroke-linejoin="round" style="-webkit-tap-highlight-color: rgba(0, 0, 0, 0); stroke-opacity: 1; stroke-linecap: round; stroke-linejoin: round; -webkit-user-select: text;"></path><path fill="none" stroke="#000000" d="M523,562L514,563L514,561L512,558L510,555L506,552L502,548L498,544L493,539L490,534L485,526L481,519L475,511L469,504L465,498L460,493L455,487L452,483L449,476L446,471" stroke-opacity="1" stroke-width="5" stroke-linecap="round" stroke-linejoin="round" style="-webkit-tap-highlight-color: rgba(0, 0, 0, 0); stroke-opacity: 1; stroke-linecap: round; stroke-linejoin: round; -webkit-user-select: text;"></path><path fill="none" stroke="#000000" d="M431,456L437,451L441,447L446,443L453,437L460,429L470,419L478,412L486,405L497,395L505,388L515,381L525,371L533,364L540,356L546,349" stroke-opacity="1" stroke-width="5" stroke-linecap="round" stroke-linejoin="round" style="-webkit-tap-highlight-color: rgba(0, 0, 0, 0); stroke-opacity: 1; stroke-linecap: round; stroke-linejoin: round; -webkit-user-select: text;"></path><path fill="none" stroke="#000000" d="M534,349L537,359L538,364L541,371L546,379L551,388L556,397L561,407L564,417L567,428L570,438L574,449L578,460L583,470L588,480L592,490L597,500L602,510L607,517L611,524L614,529L616,534L617,539" stroke-opacity="1" stroke-width="5" stroke-linecap="round" stroke-linejoin="round" style="-webkit-tap-highlight-color: rgba(0, 0, 0, 0); stroke-opacity: 1; stroke-linecap: round; stroke-linejoin: round; -webkit-user-select: text;"></path><path fill="none" stroke="#000000" d="M618,561L612,558L609,554L605,551L600,546L595,541L589,536L583,529L577,522L571,517L565,509L559,502L553,495L548,490L541,483L536,477L531,471L526,465L521,459L517,454L512,448L508,444L503,439L499,436" stroke-opacity="1" stroke-width="5" stroke-linecap="round" stroke-linejoin="round" style="-webkit-tap-highlight-color: rgba(0, 0, 0, 0); stroke-opacity: 1; stroke-linecap: round; stroke-linejoin: round; -webkit-user-select: text;"></path><path fill="none" stroke="#000000" d="M507,413L512,409L515,405L520,401L527,395L534,389L542,383L550,377L559,370L568,363L578,356L588,347L597,340L606,334L613,328L619,323L627,318L632,313L638,309L641,306L645,303L648,300L651,297L653,294L657,291L660,288L663,286L665,284" stroke-opacity="1" stroke-width="5" stroke-linecap="round" stroke-linejoin="round" style="-webkit-tap-highlight-color: rgba(0, 0, 0, 0); stroke-opacity: 1; stroke-linecap: round; stroke-linejoin: round; -webkit-user-select: text;"></path><path fill="none" stroke="#000000" d="M685,281L687,284L690,288L694,293L701,299L707,306L714,313L719,321L725,328L730,336L735,344L740,352L744,359L748,366L753,374L756,380L759,385L762,389L765,392L766,396" stroke-opacity="1" stroke-width="5" stroke-linecap="round" stroke-linejoin="round" style="-webkit-tap-highlight-color: rgba(0, 0, 0, 0); stroke-opacity: 1; stroke-linecap: round; stroke-linejoin: round; -webkit-user-select: text;"></path><path fill="none" stroke="#000000" d="M765,397L761,400L759,403L755,406L750,410L743,416L735,424L726,431L719,438L713,444L708,451L703,457L699,461L696,466L692,471L687,474" stroke-opacity="1" stroke-width="5" stroke-linecap="round" stroke-linejoin="round" style="-webkit-tap-highlight-color: rgba(0, 0, 0, 0); stroke-opacity: 1; stroke-linecap: round; stroke-linejoin: round; -webkit-user-select: text;"></path><path fill="none" stroke="#000000" d="M683,477L675,468L675,466L675,462L675,456L673,450L670,444L666,437L663,430L660,422L657,415L653,407L649,397L646,389L642,379L639,369L635,359L631,349L627,340L623,333L619,325L616,317L612,309L608,302L604,295" stroke-opacity="1" stroke-width="5" stroke-linecap="round" stroke-linejoin="round" style="-webkit-tap-highlight-color: rgba(0, 0, 0, 0); stroke-opacity: 1; stroke-linecap: round; stroke-linejoin: round; -webkit-user-select: text;"></path><path fill="none" stroke="#000000" d="M587,265L590,265L593,265L598,265L604,266L611,266L620,268L629,269L638,270L648,271L658,272L670,274L682,276L692,278L704,279L713,280L724,281L733,281L741,282L747,283L753,284L756,285" stroke-opacity="1" stroke-width="5" stroke-linecap="round" stroke-linejoin="round" style="-webkit-tap-highlight-color: rgba(0, 0, 0, 0); stroke-opacity: 1; stroke-linecap: round; stroke-linejoin: round; -webkit-user-select: text;"></path><path fill="none" stroke="#000000" d="M760,293L760,296L755,300L750,305L742,311L733,319L723,328L716,336L706,347L699,355L692,364L685,374L678,383L673,391L666,400L660,407L654,415L648,419" stroke-opacity="1" stroke-width="5" stroke-linecap="round" stroke-linejoin="round" style="-webkit-tap-highlight-color: rgba(0, 0, 0, 0); stroke-opacity: 1; stroke-linecap: round; stroke-linejoin: round; -webkit-user-select: text;"></path><path fill="none" stroke="#000000" d="M604,415L604,409L604,407L604,404L604,400L604,396L607,391L610,387L613,382L618,376L623,371L629,365L636,361L643,356L650,352L656,348L663,345L669,342L676,340L682,339L689,339L694,338L702,338L708,338L714,338L719,339L725,340L731,342L737,344L743,345L748,347L755,348L760,349L766,351L770,352L775,353L780,354L785,355L791,356L796,356L801,356L806,357L811,357L817,357L822,357L828,356L832,355L836,354L840,351L845,348" stroke-opacity="1" stroke-width="5" stroke-linecap="round" stroke-linejoin="round" style="-webkit-tap-highlight-color: rgba(0, 0, 0, 0); stroke-opacity: 1; stroke-linecap: round; stroke-linejoin: round; -webkit-user-select: text;"></path><path fill="none" stroke="#000000" d="M855,322L857,318L859,315L861,313L863,310L865,308L866,305L868,302L869,298L870,295L871,291L872,287L872,283L872,279L872,275L872,271L870,266L868,262L866,258L862,254L860,251L857,247L854,244L851,240L848,237L845,234L842,231L839,228L835,225L832,222L829,220L825,217L821,214L818,212L814,209L810,207L806,205L801,203L797,201L794,200L790,198L786,195L782,193L779,190L776,188L772,185L770,182L766,179L763,177L760,173L756,169L753,166L750,162L747,158L743,154L741,150L738,145L736,140L734,133" stroke-opacity="1" stroke-width="5" stroke-linecap="round" stroke-linejoin="round" style="-webkit-tap-highlight-color: rgba(0, 0, 0, 0); stroke-opacity: 1; stroke-linecap: round; stroke-linejoin: round; -webkit-user-select: text;"></path><path fill="none" stroke="#000000" d="M735,94L739,100L741,100L744,101L748,101L752,102L757,103L762,104L767,104L772,105L778,105L784,106L789,107L795,108L801,109L808,110L815,111L821,112L828,113L836,114L844,115L851,115L857,116" stroke-opacity="1" stroke-width="5" stroke-linecap="round" stroke-linejoin="round" style="-webkit-tap-highlight-color: rgba(0, 0, 0, 0); stroke-opacity: 1; stroke-linecap: round; stroke-linejoin: round; -webkit-user-select: text;"></path><path fill="none" stroke="#000000" d="M886,132L884,139L883,143L880,147L877,152L872,157L867,164L860,171L854,178L846,187L837,197L829,205L821,215L814,223L806,231L800,240L794,248L789,255L783,263L777,271L772,279L766,285L762,290L758,294" stroke-opacity="1" stroke-width="5" stroke-linecap="round" stroke-linejoin="round" style="-webkit-tap-highlight-color: rgba(0, 0, 0, 0); stroke-opacity: 1; stroke-linecap: round; stroke-linejoin: round; -webkit-user-select: text;"></path><path fill="none" stroke="#000000" d="M747,296L743,290L743,288L743,285L742,282L740,277L737,270L734,266L731,260L727,256L724,252L721,247L718,242L715,236L711,231L708,226L705,221L701,216L698,212L696,207L694,203L692,199L690,195L687,190" stroke-opacity="1" stroke-width="5" stroke-linecap="round" stroke-linejoin="round" style="-webkit-tap-highlight-color: rgba(0, 0, 0, 0); stroke-opacity: 1; stroke-linecap: round; stroke-linejoin: round; -webkit-user-select: text;"></path><path fill="none" stroke="#000000" d="M684,186L686,189L690,189L694,189L700,188L708,186L716,184L724,181L734,178L744,174L754,170L765,166L775,162L785,157L795,154L803,151L811,148L816,145" stroke-opacity="1" stroke-width="5" stroke-linecap="round" stroke-linejoin="round" style="-webkit-tap-highlight-color: rgba(0, 0, 0, 0); stroke-opacity: 1; stroke-linecap: round; stroke-linejoin: round; -webkit-user-select: text;"></path><path fill="none" stroke="#000000" d="M833,149L840,155L842,158L845,162L847,166L850,171L852,176L856,182L860,189L865,196L869,204L874,213L880,221L886,228L892,236L897,244L901,250L907,259" stroke-opacity="1" stroke-width="5" stroke-linecap="round" stroke-linejoin="round" style="-webkit-tap-highlight-color: rgba(0, 0, 0, 0); stroke-opacity: 1; stroke-linecap: round; stroke-linejoin: round; -webkit-user-select: text;"></path></svg>