<svg height="644" version="1.1" width="1024" xmlns="http://www.w3.org/2000/svg" xmlns:xlink="http://www.w3.org/1999/xlink" style="overflow: hidden; position: relative; -webkit-user-select: text;"><desc style="-webkit-tap-highlight-color: rgba(0, 0, 0, 0); -webkit-user-select: text;">Created with Raphaël 2.2.0</desc><defs style="-webkit-tap-highlight-color: rgba(0, 0, 0, 0); -webkit-user-select: text;"></defs><path fill="none" stroke="#000000" d="M152,156L155,154L158,153L162,151L166,148L170,145L174,143L178,139L183,135L189,131L195,128L201,123L207,119L215,114L223,108L230,103L239,96L247,89" stroke-opacity="1" stroke-width="5" stroke-linecap="round" stroke-linejoin="round" style="-webkit-tap-highlight-color: rgba(0, 0, 0, 0); stroke-opacity: 1; stroke-linecap: round; stroke-linejoin: round; -webkit-user-select: text;"></path><path fill="none" stroke="#000000" d="M271,82L274,86L274,89L275,93L277,98L280,103L284,109L287,116L291,123L294,132L298,142L301,149L305,159L309,168L315,176L320,185L324,192" stroke-opacity="1" stroke-width="5" stroke-linecap="round" stroke-linejoin="round" style="-webkit-tap-highlight-color: rgba(0, 0, 0, 0); stroke-opacity: 1; stroke-linecap: round; stroke-linejoin: round; -webkit-user-select: text;"></path><path fill="none" stroke="#000000" d="M290,219L284,221L281,222L278,225L274,227L269,229L262,230L256,231L248,232L239,235L232,238L224,243L217,247L211,252L204,255" stroke-opacity="1" stroke-width="5" stroke-linecap="round" stroke-linejoin="round" style="-webkit-tap-highlight-color: rgba(0, 0, 0, 0); stroke-opacity: 1; stroke-linecap: round; stroke-linejoin: round; -webkit-user-select: text;"></path><path fill="none" stroke="#000000" d="M179,230L189,218L194,212L201,206L210,197L220,187L230,178L240,169L250,160L260,152L271,143L282,134L293,125L303,116L312,108L322,100L330,93L337,87" stroke-opacity="1" stroke-width="5" stroke-linecap="round" stroke-linejoin="round" style="-webkit-tap-highlight-color: rgba(0, 0, 0, 0); stroke-opacity: 1; stroke-linecap: round; stroke-linejoin: round; -webkit-user-select: text;"></path><path fill="none" stroke="#000000" d="M333,114L333,123L333,127L334,132L335,140L336,147L337,156L338,165L339,174L340,183L342,195L342,204L342,215L342,224L342,231" stroke-opacity="1" stroke-width="5" stroke-linecap="round" stroke-linejoin="round" style="-webkit-tap-highlight-color: rgba(0, 0, 0, 0); stroke-opacity: 1; stroke-linecap: round; stroke-linejoin: round; -webkit-user-select: text;"></path><path fill="none" stroke="#000000" d="M308,280L299,275L297,273L293,271L289,269L285,267L280,265L275,264L270,262L264,259L258,255L254,252L250,247L246,243L243,238L242,233L240,228L240,221L239,215L238,208L238,202L238,194L238,186L240,179L243,171L246,164L249,157L253,151L257,144L262,138L267,130L272,123L278,116L282,109L286,104L289,99L292,94L296,89L298,85L300,80L301,77L303,72L304,68L306,62L308,57L310,53L313,49L315,44L318,41" stroke-opacity="1" stroke-width="5" stroke-linecap="round" stroke-linejoin="round" style="-webkit-tap-highlight-color: rgba(0, 0, 0, 0); stroke-opacity: 1; stroke-linecap: round; stroke-linejoin: round; -webkit-user-select: text;"></path><path fill="none" stroke="#000000" d="M334,40L335,46L335,49L335,53L335,57L337,62L339,66L342,70L346,74L350,78L354,82L359,87L363,92L368,96L373,101L378,106L383,111L388,117L393,123L397,129L400,135L402,140L404,147L405,154L406,161L406,169L406,175L406,184L405,191L403,198L400,206L394,215L388,225L381,239L376,249L372,265" stroke-opacity="1" stroke-width="5" stroke-linecap="round" stroke-linejoin="round" style="-webkit-tap-highlight-color: rgba(0, 0, 0, 0); stroke-opacity: 1; stroke-linecap: round; stroke-linejoin: round; -webkit-user-select: text;"></path><path fill="none" stroke="#000000" d="M392,303L396,309L400,313L405,318L410,323L415,329L420,335L425,340L429,346L433,351L436,356L439,361" stroke-opacity="1" stroke-width="5" stroke-linecap="round" stroke-linejoin="round" style="-webkit-tap-highlight-color: rgba(0, 0, 0, 0); stroke-opacity: 1; stroke-linecap: round; stroke-linejoin: round; -webkit-user-select: text;"></path><path fill="none" stroke="#000000" d="M457,344L464,334L471,327L478,319L485,311L493,304L501,297L508,290L515,283L519,278L524,272L527,267" stroke-opacity="1" stroke-width="5" stroke-linecap="round" stroke-linejoin="round" style="-webkit-tap-highlight-color: rgba(0, 0, 0, 0); stroke-opacity: 1; stroke-linecap: round; stroke-linejoin: round; -webkit-user-select: text;"></path><path fill="none" stroke="#000000" d="M534,245L528,244L524,244L518,242L510,237L503,230L495,223L487,215L481,211L473,206L468,204L463,201L460,200" stroke-opacity="1" stroke-width="5" stroke-linecap="round" stroke-linejoin="round" style="-webkit-tap-highlight-color: rgba(0, 0, 0, 0); stroke-opacity: 1; stroke-linecap: round; stroke-linejoin: round; -webkit-user-select: text;"></path><path fill="none" stroke="#000000" d="M445,205L441,210L437,215L432,221L425,228L418,235L412,243L405,251L398,258L391,266L385,273L380,278L373,284" stroke-opacity="1" stroke-width="5" stroke-linecap="round" stroke-linejoin="round" style="-webkit-tap-highlight-color: rgba(0, 0, 0, 0); stroke-opacity: 1; stroke-linecap: round; stroke-linejoin: round; -webkit-user-select: text;"></path><path fill="none" stroke="#000000" d="M351,318L362,313L370,309L379,304L393,298L403,293L415,287L426,281L438,274L449,266L458,260L468,253L478,247L486,242L495,238L504,234L510,230" stroke-opacity="1" stroke-width="5" stroke-linecap="round" stroke-linejoin="round" style="-webkit-tap-highlight-color: rgba(0, 0, 0, 0); stroke-opacity: 1; stroke-linecap: round; stroke-linejoin: round; -webkit-user-select: text;"></path><path fill="none" stroke="#000000" d="M517,205L512,215L511,223L507,233L503,245L498,258L491,274L484,291L477,309L468,329L461,346L454,365L445,386L439,403L433,421L427,434" stroke-opacity="1" stroke-width="5" stroke-linecap="round" stroke-linejoin="round" style="-webkit-tap-highlight-color: rgba(0, 0, 0, 0); stroke-opacity: 1; stroke-linecap: round; stroke-linejoin: round; -webkit-user-select: text;"></path><path fill="none" stroke="#000000" d="M481,438L486,434L494,430L502,425L511,420L521,416L532,412L543,408L556,403L568,400L581,395L594,392L607,388" stroke-opacity="1" stroke-width="5" stroke-linecap="round" stroke-linejoin="round" style="-webkit-tap-highlight-color: rgba(0, 0, 0, 0); stroke-opacity: 1; stroke-linecap: round; stroke-linejoin: round; -webkit-user-select: text;"></path><path fill="none" stroke="#000000" d="M641,374L639,367L639,365L639,361L638,358L636,354L634,349L631,345L628,340L625,336L622,331L619,325L617,319L614,313L612,306L609,298L607,291L605,285L602,279L599,272L597,267L595,262L593,256" stroke-opacity="1" stroke-width="5" stroke-linecap="round" stroke-linejoin="round" style="-webkit-tap-highlight-color: rgba(0, 0, 0, 0); stroke-opacity: 1; stroke-linecap: round; stroke-linejoin: round; -webkit-user-select: text;"></path><path fill="none" stroke="#000000" d="M580,232L580,235L579,239L578,245L576,251L574,259L571,269L570,278L567,291L564,304L562,318L560,331L558,344L556,357L553,370L552,381L550,390L549,399L549,405L548,410L548,415L548,419L548,422L548,425L548,427" stroke-opacity="1" stroke-width="5" stroke-linecap="round" stroke-linejoin="round" style="-webkit-tap-highlight-color: rgba(0, 0, 0, 0); stroke-opacity: 1; stroke-linecap: round; stroke-linejoin: round; -webkit-user-select: text;"></path><path fill="none" stroke="#000000" d="M544,430L548,432L551,432L555,435L561,439L566,444L573,449L579,454L586,459L592,463L597,468L603,473L608,479L613,484L617,488L621,491L624,493L627,495L629,495L631,496L632,496L633,496L634,496L636,495L639,491L642,487L645,483L648,478L651,472L654,465L659,456L663,446L668,436L671,425L675,416L680,406L686,394L692,384L698,370L701,362L703,355L704,349" stroke-opacity="1" stroke-width="5" stroke-linecap="round" stroke-linejoin="round" style="-webkit-tap-highlight-color: rgba(0, 0, 0, 0); stroke-opacity: 1; stroke-linecap: round; stroke-linejoin: round; -webkit-user-select: text;"></path><path fill="none" stroke="#000000" d="M697,315L692,310L689,310L683,310L678,310L672,308L667,305L660,301L655,297L650,293L646,289L642,286L638,282L636,279L633,275L631,272L630,269L629,266L627,264L626,263L624,262L621,259L620,259L619,259L617,259L616,262L613,267L610,271L605,277L600,282L593,290L585,298L577,305L568,314L560,322L551,329L544,335L538,339L534,343L530,346L527,349L524,350" stroke-opacity="1" stroke-width="5" stroke-linecap="round" stroke-linejoin="round" style="-webkit-tap-highlight-color: rgba(0, 0, 0, 0); stroke-opacity: 1; stroke-linecap: round; stroke-linejoin: round; -webkit-user-select: text;"></path><path fill="none" stroke="#000000" d="M524,352L529,354L532,354L537,354L543,355L548,358L553,362L558,367L562,372L567,377L572,381L577,384L583,386L590,386L597,386L604,386L612,386L619,386L626,385L634,383L641,381L648,378L656,376L663,373L670,372L678,371L686,370L695,370L704,370L713,370L721,371L728,375L733,380L738,385L741,389L744,397L745,403L747,409L748,416L749,425L749,432L749,440L749,450L748,460L745,471" stroke-opacity="1" stroke-width="5" stroke-linecap="round" stroke-linejoin="round" style="-webkit-tap-highlight-color: rgba(0, 0, 0, 0); stroke-opacity: 1; stroke-linecap: round; stroke-linejoin: round; -webkit-user-select: text;"></path><path fill="none" stroke="#000000" d="M709,511L711,514L714,517L717,519L720,522L724,524L728,526L733,529L736,530L741,531L745,532L750,532L755,532L760,532L765,531L770,529L775,525L779,520L784,516L789,511L792,505L796,499L799,494L801,489L802,484L804,478L804,472L804,466L804,460L804,454L803,448L801,442L798,436L795,429L792,422L789,416L785,409L782,402L778,395L775,388L771,382L768,374L765,366L763,359L762,349L762,338" stroke-opacity="1" stroke-width="5" stroke-linecap="round" stroke-linejoin="round" style="-webkit-tap-highlight-color: rgba(0, 0, 0, 0); stroke-opacity: 1; stroke-linecap: round; stroke-linejoin: round; -webkit-user-select: text;"></path><path fill="none" stroke="#000000" d="M760,271L765,281L769,283L773,285L779,288L784,289L790,291L796,293L802,295L810,297L817,299L825,301L833,302L841,303L848,305L855,305L862,307L869,308L875,309L879,310L883,311" stroke-opacity="1" stroke-width="5" stroke-linecap="round" stroke-linejoin="round" style="-webkit-tap-highlight-color: rgba(0, 0, 0, 0); stroke-opacity: 1; stroke-linecap: round; stroke-linejoin: round; -webkit-user-select: text;"></path><path fill="none" stroke="#000000" d="M893,327L889,333L885,338L879,346L874,354L868,361L862,368L855,376L847,384L837,394L830,403L825,410L818,418L814,424L809,429" stroke-opacity="1" stroke-width="5" stroke-linecap="round" stroke-linejoin="round" style="-webkit-tap-highlight-color: rgba(0, 0, 0, 0); stroke-opacity: 1; stroke-linecap: round; stroke-linejoin: round; -webkit-user-select: text;"></path><path fill="none" stroke="#000000" d="M781,445L775,441L773,440L770,437L764,433L758,429L750,422L744,417L736,411L730,407L724,402L717,397L712,392L708,389L704,385L701,381" stroke-opacity="1" stroke-width="5" stroke-linecap="round" stroke-linejoin="round" style="-webkit-tap-highlight-color: rgba(0, 0, 0, 0); stroke-opacity: 1; stroke-linecap: round; stroke-linejoin: round; -webkit-user-select: text;"></path><path fill="none" stroke="#000000" d="M688,368L690,369L694,369L702,368L710,366L719,365L732,363L743,361L757,359L770,356L784,353L796,350L809,347L821,344L830,343L840,341L849,339L856,338" stroke-opacity="1" stroke-width="5" stroke-linecap="round" stroke-linejoin="round" style="-webkit-tap-highlight-color: rgba(0, 0, 0, 0); stroke-opacity: 1; stroke-linecap: round; stroke-linejoin: round; -webkit-user-select: text;"></path><path fill="none" stroke="#000000" d="M855,332L850,336L845,343L838,351L831,359L820,371L809,382L798,395L783,410L769,427L755,444L741,460L727,475" stroke-opacity="1" stroke-width="5" stroke-linecap="round" stroke-linejoin="round" style="-webkit-tap-highlight-color: rgba(0, 0, 0, 0); stroke-opacity: 1; stroke-linecap: round; stroke-linejoin: round; -webkit-user-select: text;"></path></svg>