<svg height="644" version="1.1" width="1024" xmlns="http://www.w3.org/2000/svg" xmlns:xlink="http://www.w3.org/1999/xlink" style="overflow: hidden; position: relative; -webkit-user-select: text;"><desc style="-webkit-tap-highlight-color: rgba(0, 0, 0, 0); -webkit-user-select: text;">Created with Raphaël 2.2.0</desc><defs style="-webkit-tap-highlight-color: rgba(0, 0, 0, 0); -webkit-user-select: text;"></defs><path fill="none" stroke="#000000" d="M160,149L168,147L172,146L177,145L184,142L194,138L204,134L214,131L225,127L240,122L254,116" stroke-opacity="1" stroke-width="5" stroke-linecap="round" stroke-linejoin="round" style="-webkit-tap-highlight-color: rgba(0, 0, 0, 0); stroke-opacity: 1; stroke-linecap: round; stroke-linejoin: round; -webkit-user-select: text;"></path><path fill="none" stroke="#000000" d="M282,109L279,113L279,117L276,122L274,129L269,138L264,148L257,160L252,171L247,184L242,196L237,206L233,218L228,228" stroke-opacity="1" stroke-width="5" stroke-linecap="round" stroke-linejoin="round" style="-webkit-tap-highlight-color: rgba(0, 0, 0, 0); stroke-opacity: 1; stroke-linecap: round; stroke-linejoin: round; -webkit-user-select: text;"></path><path fill="none" stroke="#000000" d="M196,241L192,232L192,227L191,220L189,212L187,203L184,192L182,183L180,171L179,161L177,151L176,141L174,132" stroke-opacity="1" stroke-width="5" stroke-linecap="round" stroke-linejoin="round" style="-webkit-tap-highlight-color: rgba(0, 0, 0, 0); stroke-opacity: 1; stroke-linecap: round; stroke-linejoin: round; -webkit-user-select: text;"></path><path fill="none" stroke="#000000" d="M169,96L175,97L181,97L190,98L200,99L213,101L227,101L242,102L257,102L271,102L286,102L298,103L307,103" stroke-opacity="1" stroke-width="5" stroke-linecap="round" stroke-linejoin="round" style="-webkit-tap-highlight-color: rgba(0, 0, 0, 0); stroke-opacity: 1; stroke-linecap: round; stroke-linejoin: round; -webkit-user-select: text;"></path><path fill="none" stroke="#000000" d="M330,107L336,118L335,121L332,125L329,130L325,137L320,145L315,154L310,164L305,174L298,186L292,198L286,210L281,221L276,232L273,242L270,249L267,257" stroke-opacity="1" stroke-width="5" stroke-linecap="round" stroke-linejoin="round" style="-webkit-tap-highlight-color: rgba(0, 0, 0, 0); stroke-opacity: 1; stroke-linecap: round; stroke-linejoin: round; -webkit-user-select: text;"></path><path fill="none" stroke="#000000" d="M244,249L241,244L240,238L237,233L233,227L228,219L223,211L218,202L212,193L207,184L201,176L196,167" stroke-opacity="1" stroke-width="5" stroke-linecap="round" stroke-linejoin="round" style="-webkit-tap-highlight-color: rgba(0, 0, 0, 0); stroke-opacity: 1; stroke-linecap: round; stroke-linejoin: round; -webkit-user-select: text;"></path><path fill="none" stroke="#000000" d="M190,149L194,148L199,148L206,146L218,144L228,144L240,144L251,145L262,148L273,152L282,158L290,165L296,173L301,182L306,192L310,201L314,211L318,221L321,230L324,240L327,250L330,259L334,269L338,277L343,284L350,292L356,298L364,304L374,308L383,311L394,314" stroke-opacity="1" stroke-width="5" stroke-linecap="round" stroke-linejoin="round" style="-webkit-tap-highlight-color: rgba(0, 0, 0, 0); stroke-opacity: 1; stroke-linecap: round; stroke-linejoin: round; -webkit-user-select: text;"></path><path fill="none" stroke="#000000" d="M414,311L416,311L420,311L424,311L429,311L434,311L442,311L448,311L454,310L460,309L467,306L473,303L477,300L481,296L484,291L487,287L489,282L490,276L491,270L492,263L493,258L493,251L493,244L493,237L493,231L493,224L495,217L495,211L496,206L498,201L499,195L501,189L504,184L507,179L512,174L518,169L525,167" stroke-opacity="1" stroke-width="5" stroke-linecap="round" stroke-linejoin="round" style="-webkit-tap-highlight-color: rgba(0, 0, 0, 0); stroke-opacity: 1; stroke-linecap: round; stroke-linejoin: round; -webkit-user-select: text;"></path><path fill="none" stroke="#000000" d="M536,169L523,168L516,168L508,167L495,166L482,166L466,166L451,166L438,166L425,166L413,166L403,165" stroke-opacity="1" stroke-width="5" stroke-linecap="round" stroke-linejoin="round" style="-webkit-tap-highlight-color: rgba(0, 0, 0, 0); stroke-opacity: 1; stroke-linecap: round; stroke-linejoin: round; -webkit-user-select: text;"></path><path fill="none" stroke="#000000" d="M388,167L398,173L404,178L412,184L420,192L428,201L435,211L444,224L451,235L459,248L467,259L476,271L482,280L488,289L494,297" stroke-opacity="1" stroke-width="5" stroke-linecap="round" stroke-linejoin="round" style="-webkit-tap-highlight-color: rgba(0, 0, 0, 0); stroke-opacity: 1; stroke-linecap: round; stroke-linejoin: round; -webkit-user-select: text;"></path><path fill="none" stroke="#000000" d="M508,308L509,305L509,298L510,291L513,284L517,274L522,263L527,252L532,240L537,229L542,220L545,214L548,209L551,205" stroke-opacity="1" stroke-width="5" stroke-linecap="round" stroke-linejoin="round" style="-webkit-tap-highlight-color: rgba(0, 0, 0, 0); stroke-opacity: 1; stroke-linecap: round; stroke-linejoin: round; -webkit-user-select: text;"></path><path fill="none" stroke="#000000" d="M543,201L533,206L526,206L515,209L500,213L484,218L466,223L451,227L436,231L422,234L409,237" stroke-opacity="1" stroke-width="5" stroke-linecap="round" stroke-linejoin="round" style="-webkit-tap-highlight-color: rgba(0, 0, 0, 0); stroke-opacity: 1; stroke-linecap: round; stroke-linejoin: round; -webkit-user-select: text;"></path><path fill="none" stroke="#000000" d="M403,255L406,257L412,259L420,265L427,272L438,282L450,294L462,306L476,322L487,334L497,348" stroke-opacity="1" stroke-width="5" stroke-linecap="round" stroke-linejoin="round" style="-webkit-tap-highlight-color: rgba(0, 0, 0, 0); stroke-opacity: 1; stroke-linecap: round; stroke-linejoin: round; -webkit-user-select: text;"></path><path fill="none" stroke="#000000" d="M460,384L451,386L444,386L436,389L424,393L410,398L396,403L384,407L369,412L357,415L344,419L332,422" stroke-opacity="1" stroke-width="5" stroke-linecap="round" stroke-linejoin="round" style="-webkit-tap-highlight-color: rgba(0, 0, 0, 0); stroke-opacity: 1; stroke-linecap: round; stroke-linejoin: round; -webkit-user-select: text;"></path><path fill="none" stroke="#000000" d="M284,432L284,426L284,421L284,416L284,410L284,400L284,389L286,378L291,366L296,356" stroke-opacity="1" stroke-width="5" stroke-linecap="round" stroke-linejoin="round" style="-webkit-tap-highlight-color: rgba(0, 0, 0, 0); stroke-opacity: 1; stroke-linecap: round; stroke-linejoin: round; -webkit-user-select: text;"></path><path fill="none" stroke="#000000" d="M308,324L315,326L320,327L329,329L339,330L352,332L364,333L374,336L383,340L391,345L398,349L405,353" stroke-opacity="1" stroke-width="5" stroke-linecap="round" stroke-linejoin="round" style="-webkit-tap-highlight-color: rgba(0, 0, 0, 0); stroke-opacity: 1; stroke-linecap: round; stroke-linejoin: round; -webkit-user-select: text;"></path><path fill="none" stroke="#000000" d="M400,380L393,382L388,383L381,387L371,392L362,398L352,405L341,410L332,416L323,421L313,427L304,432L298,435L293,437" stroke-opacity="1" stroke-width="5" stroke-linecap="round" stroke-linejoin="round" style="-webkit-tap-highlight-color: rgba(0, 0, 0, 0); stroke-opacity: 1; stroke-linecap: round; stroke-linejoin: round; -webkit-user-select: text;"></path><path fill="none" stroke="#000000" d="M282,416L281,410L281,405L281,399L281,393L281,385L281,376L281,368L281,359L281,350L282,344" stroke-opacity="1" stroke-width="5" stroke-linecap="round" stroke-linejoin="round" style="-webkit-tap-highlight-color: rgba(0, 0, 0, 0); stroke-opacity: 1; stroke-linecap: round; stroke-linejoin: round; -webkit-user-select: text;"></path><path fill="none" stroke="#000000" d="M303,326L309,331L314,336L322,343L333,354L346,366L362,381L378,395L395,408L410,421L425,432" stroke-opacity="1" stroke-width="5" stroke-linecap="round" stroke-linejoin="round" style="-webkit-tap-highlight-color: rgba(0, 0, 0, 0); stroke-opacity: 1; stroke-linecap: round; stroke-linejoin: round; -webkit-user-select: text;"></path><path fill="none" stroke="#000000" d="M423,456L412,454L408,454L402,455L395,457L387,459L380,461L371,463L364,465L357,466L349,467L342,467L335,467L328,467L323,464L318,461L315,456L312,451L310,446L309,441L309,435L309,428L309,422L309,416L312,410L316,404L320,398L326,390L332,384L339,378L345,373L352,368L360,364L368,360L376,357L383,355L392,353L400,350L408,348L416,346L424,344L432,342L440,338L448,335L457,330" stroke-opacity="1" stroke-width="5" stroke-linecap="round" stroke-linejoin="round" style="-webkit-tap-highlight-color: rgba(0, 0, 0, 0); stroke-opacity: 1; stroke-linecap: round; stroke-linejoin: round; -webkit-user-select: text;"></path><path fill="none" stroke="#000000" d="M520,349L527,348L531,348L536,349L543,352L549,356L553,361L558,367L562,374L566,381L569,387L572,394L575,402L579,408L583,414L588,420L593,426L599,432L606,437L612,441L620,445L628,449L635,452L641,454L648,455L655,455L662,455L668,454L675,451" stroke-opacity="1" stroke-width="5" stroke-linecap="round" stroke-linejoin="round" style="-webkit-tap-highlight-color: rgba(0, 0, 0, 0); stroke-opacity: 1; stroke-linecap: round; stroke-linejoin: round; -webkit-user-select: text;"></path><path fill="none" stroke="#000000" d="M681,427L680,422L679,420L677,416L675,411L672,401L669,390L667,379L663,367L660,357L657,348L654,341L651,335L649,329" stroke-opacity="1" stroke-width="5" stroke-linecap="round" stroke-linejoin="round" style="-webkit-tap-highlight-color: rgba(0, 0, 0, 0); stroke-opacity: 1; stroke-linecap: round; stroke-linejoin: round; -webkit-user-select: text;"></path><path fill="none" stroke="#000000" d="M638,316L631,322L624,328L616,335L605,346L593,357L578,371L564,384L549,396" stroke-opacity="1" stroke-width="5" stroke-linecap="round" stroke-linejoin="round" style="-webkit-tap-highlight-color: rgba(0, 0, 0, 0); stroke-opacity: 1; stroke-linecap: round; stroke-linejoin: round; -webkit-user-select: text;"></path><path fill="none" stroke="#000000" d="M514,427L519,429L526,430L534,434L544,440L556,449L566,458L577,466L587,477L595,485L603,493L611,500" stroke-opacity="1" stroke-width="5" stroke-linecap="round" stroke-linejoin="round" style="-webkit-tap-highlight-color: rgba(0, 0, 0, 0); stroke-opacity: 1; stroke-linecap: round; stroke-linejoin: round; -webkit-user-select: text;"></path><path fill="none" stroke="#000000" d="M603,483L602,478L602,471L604,463L608,453L612,441L617,429L624,414L630,399L636,384L641,369L643,359L646,348L648,341L652,334L656,329L660,325" stroke-opacity="1" stroke-width="5" stroke-linecap="round" stroke-linejoin="round" style="-webkit-tap-highlight-color: rgba(0, 0, 0, 0); stroke-opacity: 1; stroke-linecap: round; stroke-linejoin: round; -webkit-user-select: text;"></path><path fill="none" stroke="#000000" d="M665,320L655,325L647,328L635,332L619,339L602,347L582,356L562,367L539,378L516,389L496,398" stroke-opacity="1" stroke-width="5" stroke-linecap="round" stroke-linejoin="round" style="-webkit-tap-highlight-color: rgba(0, 0, 0, 0); stroke-opacity: 1; stroke-linecap: round; stroke-linejoin: round; -webkit-user-select: text;"></path></svg>