<svg height="900" version="1.1" width="768" xmlns="http://www.w3.org/2000/svg" xmlns:xlink="http://www.w3.org/1999/xlink" style="overflow: hidden; position: relative; -webkit-user-select: text;"><desc style="-webkit-tap-highlight-color: rgba(0, 0, 0, 0); -webkit-user-select: text;">Created with Raphaël 2.2.0</desc><defs style="-webkit-tap-highlight-color: rgba(0, 0, 0, 0); -webkit-user-select: text;"></defs><path fill="none" stroke="#000000" d="M191,257L194,256L195,255L196,254L197,254L199,252L200,251L201,250L203,248L205,246L208,244L211,242L213,240L216,237L219,235L221,233L224,231L226,229L228,228L230,226L233,224L235,222L237,220L240,218L242,217L244,215L246,213L247,211L250,210L251,208L253,207L255,205L257,203L259,202L262,201L264,199L267,197L269,195L271,192L274,190L276,188L279,186L281,184L284,182L286,180L288,179L291,177L292,176L295,174L296,173L298,172L300,170L302,169L303,167L304,167L305,165L306,164L307,164L308,162L309,162L310,161L311,160L311,159L312,159L313,158L313,157L314,157L315,157" stroke-opacity="1" stroke-width="5" stroke-linecap="round" stroke-linejoin="round" style="-webkit-tap-highlight-color: rgba(0, 0, 0, 0); stroke-opacity: 1; stroke-linecap: round; stroke-linejoin: round; -webkit-user-select: text;"></path><path fill="none" stroke="#000000" d="M337,157L342,160L342,162L343,163L344,164L344,166L345,167L346,169L347,170L348,172L348,174L349,176L350,178L351,180L352,182L352,184L354,187L354,189L356,191L357,194L358,196L359,199L361,201L362,204L364,206L365,209L367,212L369,215L370,218L372,221L373,223L374,226L376,229L377,232L378,234L380,237L381,240L383,242L384,245L386,248L387,251L388,253L389,256L391,259L392,261L393,264L395,266L396,269L397,271L398,274L399,276L400,279L401,281L403,283L403,285L404,287L405,288L405,290L406,292L407,293L408,295L408,296L409,298L410,299L410,300L411,302L412,303L412,304L413,305L414,306L415,307L415,308L416,310L417,310L417,312L418,313L419,314L419,315L420,316L420,318L421,319L422,320L422,321L423,322L424,323L422,323" stroke-opacity="1" stroke-width="5" stroke-linecap="round" stroke-linejoin="round" style="-webkit-tap-highlight-color: rgba(0, 0, 0, 0); stroke-opacity: 1; stroke-linecap: round; stroke-linejoin: round; -webkit-user-select: text;"></path><path fill="none" stroke="#000000" d="M400,333L401,337L400,338L398,339L397,340L395,341L393,342L391,344L389,345L387,346L385,347L383,348L382,349L380,350L378,351L376,352L374,353L371,354L369,355L366,356L364,358L361,359L359,360L357,361L354,362L352,364L349,365L347,366L345,368L343,369L341,370L339,371L337,372L334,374L332,375L330,376L328,378L326,379L323,381L321,382L318,383L315,386L311,388L308,390L305,391L303,393L300,394L298,395L296,397L293,398L292,399L290,400L288,401L287,401L286,402L284,403L283,404L282,404L281,405L279,406L278,407L276,407L275,408L274,409L273,410L272,410L271,410L271,411L270,411L270,412L269,412L268,412L266,412" stroke-opacity="1" stroke-width="5" stroke-linecap="round" stroke-linejoin="round" style="-webkit-tap-highlight-color: rgba(0, 0, 0, 0); stroke-opacity: 1; stroke-linecap: round; stroke-linejoin: round; -webkit-user-select: text;"></path><path fill="none" stroke="#000000" d="M248,395L252,390L253,388L254,386L255,383L256,380L258,376L259,371L261,367L263,363L264,359L266,355L268,351L269,347L271,342L272,338L273,334L274,329L276,325L277,319L279,315L280,311L281,307L282,303L284,297L286,292L287,287L288,283L290,279L292,274L293,270L295,266L296,262L298,258L299,254L301,250L302,246L303,242L304,239L305,235L306,232L307,228L308,225L310,223L310,220L312,217L313,214L314,211L315,208L316,206L317,203L318,201L319,199L320,197L320,195L321,193L321,191L322,189L323,187L324,185L325,183L326,181L327,179L330,175" stroke-opacity="1" stroke-width="5" stroke-linecap="round" stroke-linejoin="round" style="-webkit-tap-highlight-color: rgba(0, 0, 0, 0); stroke-opacity: 1; stroke-linecap: round; stroke-linejoin: round; -webkit-user-select: text;"></path><path fill="none" stroke="#000000" d="M332,170L337,171L340,171L343,171L346,171L349,171L353,171L357,171L360,171L364,171L367,171L371,171L374,170L377,169L380,169L382,169L385,169L387,168L389,168L391,168L394,168L397,167L400,167L403,167L406,167L408,166L411,165L413,165L415,164L416,164L417,163L419,163L420,163L421,162L422,162L423,162L424,162L425,162L426,162L427,162L427,163L427,164L427,167L427,169L427,172L428,176L428,180L428,184L428,189L428,194L428,198L428,203L428,207L428,212L428,216L428,221L428,226L427,232L426,238L425,244L423,250L422,256L420,261L418,267L417,273L416,279L414,285L413,291L412,298L411,303L410,309L409,315L408,320L406,325L405,329L404,333L403,337L401,341L400,345L398,349L398,353L396,356L395,359L394,362L393,366L392,369L391,372L390,374L389,377L388,378L387,380L387,381L386,381L386,382L385,383L384,383L383,383L381,383L380,383L378,382L375,380L372,378L369,376L366,374L363,372L360,370L358,368L355,366L352,364L350,361L346,357L342,353L338,349L335,346L331,343L328,340L324,337L320,335L315,331L311,328L306,324L302,321L298,317L293,314L289,311L285,308L281,304L277,301L274,298L270,294L266,291L262,288L259,285L257,283L255,281L253,280L252,279L250,278L250,277L249,276L248,275L247,274L246,273L246,272L246,271L245,270L245,268L245,266L244,263L243,261L242,259L242,256L241,253L241,250L240,247L240,243L240,239L239,235L239,231L239,228L239,223L239,219L239,215L239,210L240,206L240,202L241,198L243,193L245,187L247,181L248,176L250,170L252,165L254,160L258,155L261,150L266,145L269,141L274,136L278,132L282,128L286,124L291,120L295,116L298,113L303,109L306,105L310,102L313,99L315,96L318,94L320,91L322,89L324,87L325,85L327,82L328,80L330,77L331,75L332,72L334,70L335,67L337,65L339,60" stroke-opacity="1" stroke-width="5" stroke-linecap="round" stroke-linejoin="round" style="-webkit-tap-highlight-color: rgba(0, 0, 0, 0); stroke-opacity: 1; stroke-linecap: round; stroke-linejoin: round; -webkit-user-select: text;"></path></svg>