<svg height="644" version="1.1" width="1024" xmlns="http://www.w3.org/2000/svg" xmlns:xlink="http://www.w3.org/1999/xlink" style="overflow: hidden; position: relative; -webkit-user-select: text;"><desc style="-webkit-tap-highlight-color: rgba(0, 0, 0, 0); -webkit-user-select: text;">Created with Raphaël 2.2.0</desc><defs style="-webkit-tap-highlight-color: rgba(0, 0, 0, 0); -webkit-user-select: text;"></defs><path fill="none" stroke="#000000" d="M154,248L159,246L161,245L163,243L165,241L168,239L171,237L174,234L177,232L182,229L185,226L189,223L193,220L197,216L201,213L205,209L210,206L215,202L220,197L224,193" stroke-opacity="1" stroke-width="5" stroke-linecap="round" stroke-linejoin="round" style="-webkit-tap-highlight-color: rgba(0, 0, 0, 0); stroke-opacity: 1; stroke-linecap: round; stroke-linejoin: round; -webkit-user-select: text;"></path><path fill="none" stroke="#000000" d="M256,172L259,178L261,180L263,183L266,187L268,191L271,195L274,198L276,203L280,206L283,211L286,215L290,220L293,224L296,228L298,231L302,236L305,241L308,245L312,248L315,253" stroke-opacity="1" stroke-width="5" stroke-linecap="round" stroke-linejoin="round" style="-webkit-tap-highlight-color: rgba(0, 0, 0, 0); stroke-opacity: 1; stroke-linecap: round; stroke-linejoin: round; -webkit-user-select: text;"></path><path fill="none" stroke="#000000" d="M316,279L312,284L310,285L308,287L305,290L301,293L298,296L293,299L289,302L286,304L283,307L280,309L276,313L272,316L269,319L264,323L260,327L256,330L253,333L249,337L245,339L242,342L240,345L235,348" stroke-opacity="1" stroke-width="5" stroke-linecap="round" stroke-linejoin="round" style="-webkit-tap-highlight-color: rgba(0, 0, 0, 0); stroke-opacity: 1; stroke-linecap: round; stroke-linejoin: round; -webkit-user-select: text;"></path><path fill="none" stroke="#000000" d="M210,351L209,345L209,343L209,340L210,337L211,333L212,328L213,323L215,319L216,315L217,310L218,306L219,301L220,296L222,291L223,285L225,279L227,273L229,266L230,261L232,255L234,249L235,244L237,237L240,227L243,220" stroke-opacity="1" stroke-width="5" stroke-linecap="round" stroke-linejoin="round" style="-webkit-tap-highlight-color: rgba(0, 0, 0, 0); stroke-opacity: 1; stroke-linecap: round; stroke-linejoin: round; -webkit-user-select: text;"></path><path fill="none" stroke="#000000" d="M258,188L261,191L263,191L266,191L269,192L271,193L274,194L277,194L281,195L284,196L287,196L291,197L294,198L298,199L301,200L303,201L306,203L309,204L312,206L315,208L317,211L320,213L322,216L324,219L325,222L327,225L328,227L330,230L331,232L332,235L332,237L333,240L333,242L333,245L333,247L333,249L333,251L333,253L333,255L333,257L333,259L333,261L333,263L333,265L333,267L333,269L333,271L332,273L332,275L332,276L331,278L330,279L330,280L329,281L328,283L327,284L326,285L326,286L325,287L324,288L323,290L321,291L320,293L319,295L318,296L316,298L315,300L314,301L313,303L312,304L310,305L310,306L309,307L308,308L308,310L307,311L306,312L305,314L304,315L304,317L303,318L303,319L302,321L301,322L301,324L301,325L300,327L300,328L299,329L299,330L298,332L298,333L298,334L298,335L298,337L297,338L297,339L297,340L297,342L297,343L297,345L297,347L297,348L297,349L297,351L297,352L297,353L297,354L297,356L298,358L298,359L298,361L299,361L299,362L300,363L301,364L301,365L302,366L302,367L303,368L304,369L305,370L305,371L306,371L307,372L308,373L308,374L309,375L310,376L311,377L312,377L313,378L315,378L316,379L317,380L318,380L320,381L321,381L322,381L323,382L325,382L326,383L328,383L330,383L334,383L338,383" stroke-opacity="1" stroke-width="5" stroke-linecap="round" stroke-linejoin="round" style="-webkit-tap-highlight-color: rgba(0, 0, 0, 0); stroke-opacity: 1; stroke-linecap: round; stroke-linejoin: round; -webkit-user-select: text;"></path><path fill="none" stroke="#000000" d="M362,367L368,366L369,366L370,366L372,366L374,365L376,365L377,364L378,363L380,362L382,361L383,359L385,358L387,357L388,356L390,354L392,353L393,352L395,350L395,349L397,347L398,346L399,344L400,342L401,341L402,339L403,337L404,336L405,334L406,332L406,330L408,329L408,327L409,325L410,323L410,321L411,319L411,317L412,315L412,313L412,312L412,310L412,308L412,307L412,305L413,303L413,301L414,299L414,298L414,296L415,294L415,293L415,291L415,290L415,288L415,287L415,286L415,284L415,283L415,282L415,281L415,280L415,279L416,278L416,276L416,275L416,274L416,272L416,271L416,270L416,269L417,267L417,265L417,264L417,262L417,261L418,259L418,257L419,255L419,253L420,251L420,249L420,248L420,246L421,245L421,243L422,241L422,240L423,238L423,236L424,235L425,233L425,232L426,230L427,229L428,228L429,226L429,225L430,223L431,222L432,220L432,219L433,218L434,216L435,215L436,213L437,212L437,211L438,210L439,209L439,208L440,207L442,206L443,205L444,204L445,203L447,202L450,198L453,195L457,191" stroke-opacity="1" stroke-width="5" stroke-linecap="round" stroke-linejoin="round" style="-webkit-tap-highlight-color: rgba(0, 0, 0, 0); stroke-opacity: 1; stroke-linecap: round; stroke-linejoin: round; -webkit-user-select: text;"></path><path fill="none" stroke="#000000" d="M483,180L485,184L485,187L487,191L488,194L490,198L493,202L494,205L497,210L499,214L501,218L504,222L506,226L507,230L510,235L512,239L514,243L516,248L519,254L522,262L525,267" stroke-opacity="1" stroke-width="5" stroke-linecap="round" stroke-linejoin="round" style="-webkit-tap-highlight-color: rgba(0, 0, 0, 0); stroke-opacity: 1; stroke-linecap: round; stroke-linejoin: round; -webkit-user-select: text;"></path><path fill="none" stroke="#000000" d="M513,291L508,294L505,297L500,300L496,303L491,306L487,309L482,312L478,315L473,318L469,320L466,323L463,325L461,327L459,328L456,330L454,332L451,334L448,335L444,338" stroke-opacity="1" stroke-width="5" stroke-linecap="round" stroke-linejoin="round" style="-webkit-tap-highlight-color: rgba(0, 0, 0, 0); stroke-opacity: 1; stroke-linecap: round; stroke-linejoin: round; -webkit-user-select: text;"></path><path fill="none" stroke="#000000" d="M434,329L435,325L435,322L436,317L437,313L439,308L441,303L443,297L446,290L449,284L450,278L452,273L454,267L455,263L456,258L457,254L457,249L458,246L458,242L459,238L459,235L460,231L461,228L463,221L465,217L467,214" stroke-opacity="1" stroke-width="5" stroke-linecap="round" stroke-linejoin="round" style="-webkit-tap-highlight-color: rgba(0, 0, 0, 0); stroke-opacity: 1; stroke-linecap: round; stroke-linejoin: round; -webkit-user-select: text;"></path><path fill="none" stroke="#000000" d="M468,218L472,228L474,231L476,235L478,239L481,244L483,248L486,252L489,256L493,260L496,265L499,269L502,274L505,277L507,281L509,284L511,287L512,290L514,293L516,296L519,298L522,302L527,307L531,313" stroke-opacity="1" stroke-width="5" stroke-linecap="round" stroke-linejoin="round" style="-webkit-tap-highlight-color: rgba(0, 0, 0, 0); stroke-opacity: 1; stroke-linecap: round; stroke-linejoin: round; -webkit-user-select: text;"></path><path fill="none" stroke="#000000" d="M532,329L526,335L523,337L519,339L515,342L511,346L507,349L502,352L497,356L494,358L490,360L488,362L485,365L483,366L481,368L479,370L477,372L475,374" stroke-opacity="1" stroke-width="5" stroke-linecap="round" stroke-linejoin="round" style="-webkit-tap-highlight-color: rgba(0, 0, 0, 0); stroke-opacity: 1; stroke-linecap: round; stroke-linejoin: round; -webkit-user-select: text;"></path><path fill="none" stroke="#000000" d="M466,364L464,359L464,357L464,354L464,350L463,347L463,342L462,339L461,336L461,332L460,329L459,326L458,322L456,319L456,316L455,313L454,310L452,307L451,303L449,300L448,296L446,292L445,288L443,284L442,280L440,276L439,271L438,266L437,262L435,258L434,254L433,249L432,244L429,239" stroke-opacity="1" stroke-width="5" stroke-linecap="round" stroke-linejoin="round" style="-webkit-tap-highlight-color: rgba(0, 0, 0, 0); stroke-opacity: 1; stroke-linecap: round; stroke-linejoin: round; -webkit-user-select: text;"></path><path fill="none" stroke="#000000" d="M426,173L437,169L439,169L442,167L445,165L449,162L451,160L455,158L458,156L462,154L466,151L471,149L475,146L480,143L484,140L488,136L493,133L498,130L504,126L508,123L514,119L520,114L527,109" stroke-opacity="1" stroke-width="5" stroke-linecap="round" stroke-linejoin="round" style="-webkit-tap-highlight-color: rgba(0, 0, 0, 0); stroke-opacity: 1; stroke-linecap: round; stroke-linejoin: round; -webkit-user-select: text;"></path><path fill="none" stroke="#000000" d="M541,120L540,126L540,128L540,131L540,134L540,138L540,142L540,145L540,149L540,154L540,160L540,166L540,171L541,177L541,184L541,190L541,196L541,201L541,208L541,215L541,221L541,228L541,236L541,241" stroke-opacity="1" stroke-width="5" stroke-linecap="round" stroke-linejoin="round" style="-webkit-tap-highlight-color: rgba(0, 0, 0, 0); stroke-opacity: 1; stroke-linecap: round; stroke-linejoin: round; -webkit-user-select: text;"></path><path fill="none" stroke="#000000" d="M532,248L530,247L527,245L524,243L520,240L516,237L512,235L507,232L501,228L495,225L491,222L486,219L481,215L476,212L471,209L467,206L463,203L459,200L453,194L448,190L444,186" stroke-opacity="1" stroke-width="5" stroke-linecap="round" stroke-linejoin="round" style="-webkit-tap-highlight-color: rgba(0, 0, 0, 0); stroke-opacity: 1; stroke-linecap: round; stroke-linejoin: round; -webkit-user-select: text;"></path><path fill="none" stroke="#000000" d="M439,190L443,188L445,188L448,186L451,185L455,183L459,181L462,180L467,178L472,176L478,174L484,171L491,168L498,165L505,162L511,158L518,156L525,153L532,150L537,148L544,145L551,142L558,138L566,134L575,129L580,126" stroke-opacity="1" stroke-width="5" stroke-linecap="round" stroke-linejoin="round" style="-webkit-tap-highlight-color: rgba(0, 0, 0, 0); stroke-opacity: 1; stroke-linecap: round; stroke-linejoin: round; -webkit-user-select: text;"></path><path fill="none" stroke="#000000" d="M586,136L583,140L581,143L579,145L577,147L574,150L571,154L568,158L565,163L561,168L558,173L553,179L549,185L545,191L541,198L536,204L532,212L526,219L522,225L516,233L512,241L507,247L502,254L496,263L490,271" stroke-opacity="1" stroke-width="5" stroke-linecap="round" stroke-linejoin="round" style="-webkit-tap-highlight-color: rgba(0, 0, 0, 0); stroke-opacity: 1; stroke-linecap: round; stroke-linejoin: round; -webkit-user-select: text;"></path><path fill="none" stroke="#000000" d="M472,279L469,276L468,274L467,272L466,269L466,266L465,263L464,260L464,257L464,254L464,250L464,247L464,243L464,240L464,237L464,233L464,231L464,228L465,225L466,222L467,219L468,215L469,212L470,209L471,206L472,203L473,200L474,196L475,192L476,188L477,184L478,180L479,177L480,173L481,169L482,165L482,162L483,158L483,156L483,153L483,151L483,148L483,146L483,144L483,141L482,138L482,136L481,134L480,132L479,130L477,128L476,126L474,124L472,122L470,120L468,119L466,117L465,116L463,115L461,113L459,112L456,111L454,111L452,110L450,109L449,109L446,109L445,109L443,108L442,108L439,108L438,108L436,108L434,108L432,108L431,108L429,109L427,109L426,110L424,111L422,111L421,112L420,113L418,113L417,114L416,115L415,116L413,117L412,118L411,118L411,119L410,119L409,120L408,121L407,122L406,123L405,123L404,124L403,125L402,125L401,126L400,127L399,128L398,128L397,129L395,130L394,130L393,131L392,132L391,132L390,133L389,133L388,134L387,135L386,135L385,135L383,136L383,137L381,137L380,138L379,138L378,138L376,139L375,139L373,139L372,140L371,140L369,140L367,140L366,140L365,140L364,140L363,140L360,140L357,140" stroke-opacity="1" stroke-width="5" stroke-linecap="round" stroke-linejoin="round" style="-webkit-tap-highlight-color: rgba(0, 0, 0, 0); stroke-opacity: 1; stroke-linecap: round; stroke-linejoin: round; -webkit-user-select: text;"></path><path fill="none" stroke="#000000" d="M337,160L341,160L342,161L343,162L345,164L346,166L347,168L349,170L350,172L351,174L352,176L352,178L353,181L354,183L354,186L355,190L356,193L356,195L357,198L357,200L357,202L357,204L357,206L357,209L357,211L357,214L357,217L357,220L357,222L357,224L357,226L357,228L356,230L356,232L355,234L355,236L354,238L354,240L354,243L353,245L353,247L352,249L352,252L351,253L351,255L350,257L350,258L349,259L349,261L349,263L349,264L349,266L349,268L349,270L349,271L349,273L349,275L349,276L349,278L350,280L351,281L351,283L352,284L353,286L353,288L354,289L355,291L356,292L357,293L358,295L359,296L360,297L361,298L362,300L364,301L366,302L368,303L370,303L372,305L374,305L376,306L378,307L380,308L382,309L384,310L386,310L388,310L390,311L392,311L394,312L396,312L399,312L402,312L406,312L410,312L416,312L420,311" stroke-opacity="1" stroke-width="5" stroke-linecap="round" stroke-linejoin="round" style="-webkit-tap-highlight-color: rgba(0, 0, 0, 0); stroke-opacity: 1; stroke-linecap: round; stroke-linejoin: round; -webkit-user-select: text;"></path><path fill="none" stroke="#000000" d="M435,293L437,290L437,288L437,284L438,281L440,276L443,270L446,265L450,259L453,254L455,248L459,241L461,235L464,228L468,220L472,211L475,204" stroke-opacity="1" stroke-width="5" stroke-linecap="round" stroke-linejoin="round" style="-webkit-tap-highlight-color: rgba(0, 0, 0, 0); stroke-opacity: 1; stroke-linecap: round; stroke-linejoin: round; -webkit-user-select: text;"></path><path fill="none" stroke="#000000" d="M471,196L463,201L460,201L456,201L451,201L445,201L440,201L433,201L424,201L417,201L410,201L402,201L394,201L388,201L380,199L373,197" stroke-opacity="1" stroke-width="5" stroke-linecap="round" stroke-linejoin="round" style="-webkit-tap-highlight-color: rgba(0, 0, 0, 0); stroke-opacity: 1; stroke-linecap: round; stroke-linejoin: round; -webkit-user-select: text;"></path><path fill="none" stroke="#000000" d="M371,195L370,201L370,204L370,207L370,212L370,217L370,222L370,228L370,234L370,241L370,248L370,254L370,261L370,267L370,272L370,278L370,283L370,288L370,293L370,298L370,304" stroke-opacity="1" stroke-width="5" stroke-linecap="round" stroke-linejoin="round" style="-webkit-tap-highlight-color: rgba(0, 0, 0, 0); stroke-opacity: 1; stroke-linecap: round; stroke-linejoin: round; -webkit-user-select: text;"></path><path fill="none" stroke="#000000" d="M370,320L372,313L374,309L376,305L378,298L381,293L383,287L386,281L390,274L393,267L396,261L400,254L402,247L405,241L408,234L411,226L415,216L417,209L420,204" stroke-opacity="1" stroke-width="5" stroke-linecap="round" stroke-linejoin="round" style="-webkit-tap-highlight-color: rgba(0, 0, 0, 0); stroke-opacity: 1; stroke-linecap: round; stroke-linejoin: round; -webkit-user-select: text;"></path><path fill="none" stroke="#000000" d="M427,186L420,185L418,185L415,185L412,185L408,184L402,182L397,181L391,179L386,179L381,177L374,176L368,174L362,172L357,170L351,168L342,165L335,163" stroke-opacity="1" stroke-width="5" stroke-linecap="round" stroke-linejoin="round" style="-webkit-tap-highlight-color: rgba(0, 0, 0, 0); stroke-opacity: 1; stroke-linecap: round; stroke-linejoin: round; -webkit-user-select: text;"></path><path fill="none" stroke="#000000" d="M262,159L259,163L259,165L258,167L257,169L256,172L254,174L253,177L252,180L250,185L248,189L246,194L243,198L240,203L237,208L233,215L231,220L228,225L225,230L223,235L220,240L218,246L215,251L213,256L211,262L208,266" stroke-opacity="1" stroke-width="5" stroke-linecap="round" stroke-linejoin="round" style="-webkit-tap-highlight-color: rgba(0, 0, 0, 0); stroke-opacity: 1; stroke-linecap: round; stroke-linejoin: round; -webkit-user-select: text;"></path><path fill="none" stroke="#000000" d="M204,276L206,278L208,278L211,278L216,278L219,278L224,278L228,278L234,278L241,278L246,278L252,278L258,278L265,278L270,278L275,278L280,278L285,278L291,279L294,279" stroke-opacity="1" stroke-width="5" stroke-linecap="round" stroke-linejoin="round" style="-webkit-tap-highlight-color: rgba(0, 0, 0, 0); stroke-opacity: 1; stroke-linecap: round; stroke-linejoin: round; -webkit-user-select: text;"></path><path fill="none" stroke="#000000" d="M306,262L301,257L298,254L295,250L291,245L288,240L284,234L281,229L277,223L274,217L270,211L266,206L262,200L259,196L254,187L248,180" stroke-opacity="1" stroke-width="5" stroke-linecap="round" stroke-linejoin="round" style="-webkit-tap-highlight-color: rgba(0, 0, 0, 0); stroke-opacity: 1; stroke-linecap: round; stroke-linejoin: round; -webkit-user-select: text;"></path><path fill="none" stroke="#000000" d="M224,157L223,161L223,164L223,167L223,170L223,174L223,177L223,182L223,188L224,193L225,197L227,203L229,209L231,215L233,221L235,228L237,235L239,243L240,249L242,257L243,264L245,270L246,276L247,283L248,290L249,297L251,303L252,311L254,317L255,321" stroke-opacity="1" stroke-width="5" stroke-linecap="round" stroke-linejoin="round" style="-webkit-tap-highlight-color: rgba(0, 0, 0, 0); stroke-opacity: 1; stroke-linecap: round; stroke-linejoin: round; -webkit-user-select: text;"></path><path fill="none" stroke="#000000" d="M263,320L269,312L271,310L273,308L276,305L279,301L283,297L286,293L291,288L295,285L298,282L302,278L306,274L309,270L312,266L315,263L320,260L323,257L326,252L330,248L333,243L337,239L340,235L344,231L347,228L349,224L352,221L354,218L357,214L359,212L361,209" stroke-opacity="1" stroke-width="5" stroke-linecap="round" stroke-linejoin="round" style="-webkit-tap-highlight-color: rgba(0, 0, 0, 0); stroke-opacity: 1; stroke-linecap: round; stroke-linejoin: round; -webkit-user-select: text;"></path><path fill="none" stroke="#000000" d="M360,196L354,194L353,192L351,191L349,189L346,187L343,185L340,183L337,181L335,180L332,179L329,177L327,175L324,172L320,170L318,168L315,166L312,164L309,161L306,159L303,157L301,154L298,152L295,150L292,148L289,145L286,143L284,141L282,139L280,137L277,135L274,133" stroke-opacity="1" stroke-width="5" stroke-linecap="round" stroke-linejoin="round" style="-webkit-tap-highlight-color: rgba(0, 0, 0, 0); stroke-opacity: 1; stroke-linecap: round; stroke-linejoin: round; -webkit-user-select: text;"></path><path fill="none" stroke="#000000" d="M273,135L274,138L274,140L274,142L274,144L274,146L274,148L274,151L273,155L272,158L271,162L270,166L268,170L267,174L266,178L264,181L262,186L261,192L259,196L257,200L256,204L254,209L253,214L252,218L251,223L250,226L248,230L247,233L246,237L245,240L244,244L243,247L242,249L240,252L240,254L239,256L238,258L237,260L237,262L236,263L235,265L235,266L235,267L234,269L234,270L233,271L233,273L233,274L233,275L232,276L232,277L232,278L231,279L231,280L231,281L230,282L230,283L230,284L230,285L230,286L230,287L230,288L230,289L230,290L230,291L229,292L229,293L229,294L229,296L229,297L229,298L229,299L229,301L229,302L229,303L229,304L229,305L229,306L229,307L229,308L229,309L229,310L229,311L229,312L230,313L230,315L230,316L231,318L232,319L232,320L233,322L233,324L234,325L235,327L236,328L236,329L237,330L238,331L239,332L240,333L240,335L241,335L242,336L243,337L244,338L245,339L245,340L246,342L247,343L248,344L249,346L250,347L251,349L252,350L253,351L254,352L254,353L255,354L257,356L257,357L258,358L259,359L260,360L262,362L263,363L264,364L264,365L265,367L266,368L267,370L267,371L268,372L269,373L269,375L270,376L270,377L271,378L271,379L272,380L273,381L273,383L274,383L274,385L275,386L275,387L276,388L276,389L276,390L277,391L277,392L278,393L278,394L278,395L278,396L278,398L279,398L279,400L279,401L279,403L279,405L279,406L279,408L279,412L279,414" stroke-opacity="1" stroke-width="5" stroke-linecap="round" stroke-linejoin="round" style="-webkit-tap-highlight-color: rgba(0, 0, 0, 0); stroke-opacity: 1; stroke-linecap: round; stroke-linejoin: round; -webkit-user-select: text;"></path><path fill="none" stroke="#000000" d="M281,435L282,441L282,442L283,444L284,445L286,446L287,448L289,449L291,451L293,453L296,454L297,456L300,457L301,458L303,459L306,460L307,460L309,461L311,461L313,462L315,462L317,462L319,462L320,462L322,462L324,462L325,462L327,462L330,462L332,461L335,459L339,457L342,455L345,452L348,450L351,448L353,446L354,444L356,443L357,441L358,440L359,439L360,438L361,437L361,435L363,433L364,431L366,429L367,427L369,424L370,422L371,420L373,418L374,416L375,415L375,413L376,412L377,410L377,408L378,407L378,405L379,403L379,401L379,399L380,397L381,395L382,393L383,392L383,391L384,390L386,388L387,387L388,386L389,384L391,383L392,382L394,380L396,378L398,377L400,376L401,374L403,373L404,372L405,372L406,371L408,371L410,370L413,369" stroke-opacity="1" stroke-width="5" stroke-linecap="round" stroke-linejoin="round" style="-webkit-tap-highlight-color: rgba(0, 0, 0, 0); stroke-opacity: 1; stroke-linecap: round; stroke-linejoin: round; -webkit-user-select: text;"></path><path fill="none" stroke="#000000" d="M435,368L437,371L437,373L438,376L439,379L441,381L443,384L445,387L448,389L450,392L452,395L455,398L457,401L459,404L461,406L463,409L465,411L467,414L469,417L472,421L475,425L476,429" stroke-opacity="1" stroke-width="5" stroke-linecap="round" stroke-linejoin="round" style="-webkit-tap-highlight-color: rgba(0, 0, 0, 0); stroke-opacity: 1; stroke-linecap: round; stroke-linejoin: round; -webkit-user-select: text;"></path><path fill="none" stroke="#000000" d="M471,444L461,452L459,454L456,457L453,459L449,462L445,465L441,468L437,470L433,473L429,476L426,479L423,481L419,484L416,486L413,489L410,491L408,493L405,495L401,498" stroke-opacity="1" stroke-width="5" stroke-linecap="round" stroke-linejoin="round" style="-webkit-tap-highlight-color: rgba(0, 0, 0, 0); stroke-opacity: 1; stroke-linecap: round; stroke-linejoin: round; -webkit-user-select: text;"></path><path fill="none" stroke="#000000" d="M391,498L390,495L390,493L390,490L390,485L390,481L390,476L391,471L391,466L393,459L394,451L396,445L397,438L399,429L400,421L401,413L403,405L404,397L405,391L405,385L406,379L407,373L408,368L409,360L410,354" stroke-opacity="1" stroke-width="5" stroke-linecap="round" stroke-linejoin="round" style="-webkit-tap-highlight-color: rgba(0, 0, 0, 0); stroke-opacity: 1; stroke-linecap: round; stroke-linejoin: round; -webkit-user-select: text;"></path><path fill="none" stroke="#000000" d="M418,345L421,347L424,347L426,348L429,350L433,351L436,353L440,355L445,357L450,359L455,361L461,362L466,364L472,366L477,367L483,369L488,371L493,372L498,373L502,373" stroke-opacity="1" stroke-width="5" stroke-linecap="round" stroke-linejoin="round" style="-webkit-tap-highlight-color: rgba(0, 0, 0, 0); stroke-opacity: 1; stroke-linecap: round; stroke-linejoin: round; -webkit-user-select: text;"></path><path fill="none" stroke="#000000" d="M507,376L501,380L498,382L494,384L490,386L485,388L479,391L473,394L466,398L460,401L453,405L446,408L439,412L432,415L424,419L416,423L409,427L401,432L392,437L385,440L376,446L367,451L358,457L351,461" stroke-opacity="1" stroke-width="5" stroke-linecap="round" stroke-linejoin="round" style="-webkit-tap-highlight-color: rgba(0, 0, 0, 0); stroke-opacity: 1; stroke-linecap: round; stroke-linejoin: round; -webkit-user-select: text;"></path><path fill="none" stroke="#000000" d="M327,476L329,480L329,482L330,484L333,486L335,489L338,492L342,496L345,500L348,503L352,507L354,510L356,512L359,515L361,518L363,521L365,524L367,527L370,529L372,531L374,534L375,535L376,537L378,539L380,540L382,543L384,545L386,548L388,550L389,551L390,552" stroke-opacity="1" stroke-width="5" stroke-linecap="round" stroke-linejoin="round" style="-webkit-tap-highlight-color: rgba(0, 0, 0, 0); stroke-opacity: 1; stroke-linecap: round; stroke-linejoin: round; -webkit-user-select: text;"></path><path fill="none" stroke="#000000" d="M392,537L393,534L393,531L394,528L395,524L397,520L399,515L401,510L403,505L404,500L406,495L408,491L409,487L411,482L412,478L414,474L416,470L417,466L420,460L422,455L423,450L425,445L427,441L429,436L432,430L434,425L436,422L437,418L440,413L442,410" stroke-opacity="1" stroke-width="5" stroke-linecap="round" stroke-linejoin="round" style="-webkit-tap-highlight-color: rgba(0, 0, 0, 0); stroke-opacity: 1; stroke-linecap: round; stroke-linejoin: round; -webkit-user-select: text;"></path><path fill="none" stroke="#000000" d="M442,392L438,392L435,392L432,392L428,393L422,394L418,395L412,395L407,396L402,396L396,396L391,396L386,396L382,396L378,396L374,396L369,396L365,396" stroke-opacity="1" stroke-width="5" stroke-linecap="round" stroke-linejoin="round" style="-webkit-tap-highlight-color: rgba(0, 0, 0, 0); stroke-opacity: 1; stroke-linecap: round; stroke-linejoin: round; -webkit-user-select: text;"></path><path fill="none" stroke="#000000" d="M359,398L359,405L359,407L359,408L359,410L360,413L361,417L363,421L364,425L366,429L368,434L370,438L372,441L374,446L376,451L378,455L379,459L381,463L383,468L385,474L386,479L389,484L391,489L393,493L395,497L397,501L398,505L400,508L401,511L403,514L404,516L405,519L407,522L408,526L410,529L412,531L412,532" stroke-opacity="1" stroke-width="5" stroke-linecap="round" stroke-linejoin="round" style="-webkit-tap-highlight-color: rgba(0, 0, 0, 0); stroke-opacity: 1; stroke-linecap: round; stroke-linejoin: round; -webkit-user-select: text;"></path><path fill="none" stroke="#000000" d="M414,516L415,513L418,510L422,505L427,501L432,496L437,491L442,486L448,481L453,475L459,470L463,466L468,461L472,458L475,454L479,450L481,446" stroke-opacity="1" stroke-width="5" stroke-linecap="round" stroke-linejoin="round" style="-webkit-tap-highlight-color: rgba(0, 0, 0, 0); stroke-opacity: 1; stroke-linecap: round; stroke-linejoin: round; -webkit-user-select: text;"></path><path fill="none" stroke="#000000" d="M485,442L483,439L480,438L477,437L473,435L468,434L464,433L459,432L454,432L448,432L443,432L438,432L433,432L427,432L421,433L416,435L411,437L407,439L402,441L397,444L392,447L386,451L383,455L379,458L374,462L370,466L366,469L363,473L359,477L357,480L354,483L351,486L348,489L345,492L342,494L338,497L335,499L332,502L330,504L327,506L325,507L321,509L318,510L315,511L311,512L308,512L304,513L300,513L296,513L291,513L286,513L281,513L277,513L271,513L267,512L262,510" stroke-opacity="1" stroke-width="5" stroke-linecap="round" stroke-linejoin="round" style="-webkit-tap-highlight-color: rgba(0, 0, 0, 0); stroke-opacity: 1; stroke-linecap: round; stroke-linejoin: round; -webkit-user-select: text;"></path><path fill="none" stroke="#000000" d="M240,495L235,493L233,491L231,489L229,487L228,483L225,479L224,475L223,471L221,467L220,463L218,459L218,455L217,450L217,446L217,441L217,437L217,433L218,428L220,423L222,419L223,415L225,412L227,408L229,404L232,400L234,396L235,392L237,389L239,385L240,381L242,378L242,374L244,370L244,367L245,364L245,360L245,357L245,354L245,351L245,348L245,345L245,342L245,339L245,338L245,336L245,334L245,330L244,328L243,326L243,325L242,325L242,323" stroke-opacity="1" stroke-width="5" stroke-linecap="round" stroke-linejoin="round" style="-webkit-tap-highlight-color: rgba(0, 0, 0, 0); stroke-opacity: 1; stroke-linecap: round; stroke-linejoin: round; -webkit-user-select: text;"></path><path fill="none" stroke="#000000" d="M241,321L228,327L226,329L223,332L218,335L214,338L210,342L205,345L200,349L196,354L189,357L184,360L180,364L175,367L170,371L165,375L160,378L156,381L153,383L150,386L146,388L143,391L140,392L138,393L137,394L136,394L136,395L137,396L138,395L139,396L140,397L142,398L144,400L146,402L148,404L152,406L155,407L160,410L165,412L169,414L174,417L179,420L184,423L188,426L193,429L197,433L201,436L206,439L210,441L215,444L219,448L223,451L226,453L229,455L232,456L235,458L237,459L240,460L242,460L243,461L244,461" stroke-opacity="1" stroke-width="5" stroke-linecap="round" stroke-linejoin="round" style="-webkit-tap-highlight-color: rgba(0, 0, 0, 0); stroke-opacity: 1; stroke-linecap: round; stroke-linejoin: round; -webkit-user-select: text;"></path><path fill="none" stroke="#000000" d="M246,460L243,453L243,450L244,446L245,442L247,437L249,431L252,425L254,419L256,414L259,408L261,402L264,396L266,391L268,386L270,381L271,376L273,371L274,368L276,364L277,358L278,354L279,350" stroke-opacity="1" stroke-width="5" stroke-linecap="round" stroke-linejoin="round" style="-webkit-tap-highlight-color: rgba(0, 0, 0, 0); stroke-opacity: 1; stroke-linecap: round; stroke-linejoin: round; -webkit-user-select: text;"></path><path fill="none" stroke="#000000" d="M273,348L257,361L253,364L250,368L245,372L241,375L237,379L233,382L228,386L224,389L218,393L213,398L208,402L204,405L201,408L196,412L192,415L188,417L185,419L182,422L179,425L175,427L171,429L169,431" stroke-opacity="1" stroke-width="5" stroke-linecap="round" stroke-linejoin="round" style="-webkit-tap-highlight-color: rgba(0, 0, 0, 0); stroke-opacity: 1; stroke-linecap: round; stroke-linejoin: round; -webkit-user-select: text;"></path><path fill="none" stroke="#000000" d="M165,434L169,439L170,442L171,445L173,449L175,453L177,456L179,460L181,464L184,468L186,473L188,478L190,483L192,486L194,490L196,495L198,499L200,503L203,508L207,514L209,519" stroke-opacity="1" stroke-width="5" stroke-linecap="round" stroke-linejoin="round" style="-webkit-tap-highlight-color: rgba(0, 0, 0, 0); stroke-opacity: 1; stroke-linecap: round; stroke-linejoin: round; -webkit-user-select: text;"></path><path fill="none" stroke="#000000" d="M213,539L218,535L220,532L222,529L225,527L228,524L231,521L235,518L239,515L244,512L247,508L252,504L256,500L260,497L265,493L269,489L274,486L278,482L282,478L286,473L292,468L297,461L302,455L307,449" stroke-opacity="1" stroke-width="5" stroke-linecap="round" stroke-linejoin="round" style="-webkit-tap-highlight-color: rgba(0, 0, 0, 0); stroke-opacity: 1; stroke-linecap: round; stroke-linejoin: round; -webkit-user-select: text;"></path><path fill="none" stroke="#000000" d="M321,432L316,428L313,427L310,425L308,423L304,421L301,420L296,417L292,416L288,414L284,413L281,411L277,410L274,408L270,406L267,405L264,403L262,401L260,399L257,396L255,393" stroke-opacity="1" stroke-width="5" stroke-linecap="round" stroke-linejoin="round" style="-webkit-tap-highlight-color: rgba(0, 0, 0, 0); stroke-opacity: 1; stroke-linecap: round; stroke-linejoin: round; -webkit-user-select: text;"></path><path fill="none" stroke="#000000" d="M247,397L249,403L249,405L249,407L249,411L250,415L252,420L252,424L254,429L255,433L256,438L257,443L259,449L260,454L262,459L263,465L265,471L267,478L269,483L271,488L273,492L274,497L276,501L277,505L278,507L279,510L281,513L281,514" stroke-opacity="1" stroke-width="5" stroke-linecap="round" stroke-linejoin="round" style="-webkit-tap-highlight-color: rgba(0, 0, 0, 0); stroke-opacity: 1; stroke-linecap: round; stroke-linejoin: round; -webkit-user-select: text;"></path><path fill="none" stroke="#000000" d="M285,516L287,512L288,508L291,503L294,497L298,490L301,484L304,477L308,471L311,464L315,458L318,451L321,445L323,440L325,435L328,428L330,423L331,419L332,415L334,410L335,407L337,403L337,399L339,396" stroke-opacity="1" stroke-width="5" stroke-linecap="round" stroke-linejoin="round" style="-webkit-tap-highlight-color: rgba(0, 0, 0, 0); stroke-opacity: 1; stroke-linecap: round; stroke-linejoin: round; -webkit-user-select: text;"></path><path fill="none" stroke="#000000" d="M338,378L332,384L330,385L327,386L324,388L320,390L316,392L312,394L308,397L303,399L299,401L294,403L289,406L285,408L281,411L278,413L274,416L271,419L268,423L265,427L263,430L261,433L259,436L258,439L257,442L256,446L255,450L254,454L253,458L253,462L252,466L252,470L251,474L251,478L250,482L250,486L250,489L250,493L249,496L249,500L248,503L247,507L246,510L245,514L243,517L242,520L240,523L238,526L236,530L233,533L231,536L229,539L227,542L225,544L222,546L219,548L216,550L213,552L211,553L208,554L204,556L201,556L198,557L195,557L190,557L186,557L183,556" stroke-opacity="1" stroke-width="5" stroke-linecap="round" stroke-linejoin="round" style="-webkit-tap-highlight-color: rgba(0, 0, 0, 0); stroke-opacity: 1; stroke-linecap: round; stroke-linejoin: round; -webkit-user-select: text;"></path><path fill="none" stroke="#000000" d="M161,543L157,542L155,542L153,541L151,540L150,538L148,535L145,533L143,529L141,526L139,523L137,520L135,517L134,513L133,508L131,503L130,499L130,495L129,492L129,488L128,485L128,482L128,478L128,474L128,470L128,467L128,463L128,460L129,456L130,452L130,448L131,445L132,441L133,438L133,435L134,432L135,428L135,425L135,422L136,420L136,417L136,415L136,413L136,411L136,409L136,407L136,405L136,403L136,400L136,398L135,396L135,394L134,392L133,390L131,388L130,386L128,383L127,381L126,380L124,378L121,372" stroke-opacity="1" stroke-width="5" stroke-linecap="round" stroke-linejoin="round" style="-webkit-tap-highlight-color: rgba(0, 0, 0, 0); stroke-opacity: 1; stroke-linecap: round; stroke-linejoin: round; -webkit-user-select: text;"></path><path fill="none" stroke="#000000" d="M110,368L107,375L106,378L104,381L101,383L99,386L95,391L91,396L87,402L82,407L78,411L75,416L71,421L68,425L65,430L62,434L59,438L57,440" stroke-opacity="1" stroke-width="5" stroke-linecap="round" stroke-linejoin="round" style="-webkit-tap-highlight-color: rgba(0, 0, 0, 0); stroke-opacity: 1; stroke-linecap: round; stroke-linejoin: round; -webkit-user-select: text;"></path><path fill="none" stroke="#000000" d="M58,441L62,446L65,448L68,450L72,453L77,455L82,458L88,460L94,462L101,465L109,467L116,471L123,475L130,479L137,483L143,487L148,490L154,493L159,495L165,496L168,497" stroke-opacity="1" stroke-width="5" stroke-linecap="round" stroke-linejoin="round" style="-webkit-tap-highlight-color: rgba(0, 0, 0, 0); stroke-opacity: 1; stroke-linecap: round; stroke-linejoin: round; -webkit-user-select: text;"></path><path fill="none" stroke="#000000" d="M167,492L167,490L167,487L167,483L167,477L167,470L167,463L167,453L168,445L169,437L170,428L171,421L171,414L171,407L171,400L171,395L171,388L171,379L171,374" stroke-opacity="1" stroke-width="5" stroke-linecap="round" stroke-linejoin="round" style="-webkit-tap-highlight-color: rgba(0, 0, 0, 0); stroke-opacity: 1; stroke-linecap: round; stroke-linejoin: round; -webkit-user-select: text;"></path><path fill="none" stroke="#000000" d="M174,357L172,362L171,365L168,369L165,375L160,381L156,386L152,392L148,400L144,406L138,414L133,422L129,429L125,435L121,442L117,449L113,455L109,461L105,467L101,474L97,482L91,491" stroke-opacity="1" stroke-width="5" stroke-linecap="round" stroke-linejoin="round" style="-webkit-tap-highlight-color: rgba(0, 0, 0, 0); stroke-opacity: 1; stroke-linecap: round; stroke-linejoin: round; -webkit-user-select: text;"></path><path fill="none" stroke="#000000" d="M79,428L77,426L77,422L77,416L78,410L79,401L81,393L83,383L86,372L87,364L88,356L89,347L89,340L90,333L91,326L92,318L92,312L93,305L94,294L95,287" stroke-opacity="1" stroke-width="5" stroke-linecap="round" stroke-linejoin="round" style="-webkit-tap-highlight-color: rgba(0, 0, 0, 0); stroke-opacity: 1; stroke-linecap: round; stroke-linejoin: round; -webkit-user-select: text;"></path><path fill="none" stroke="#000000" d="M97,274L99,275L102,275L106,276L110,276L114,277L119,279L125,280L130,281L136,282L142,284L148,285L155,287L162,289L167,291L173,294L178,296L184,298L189,300L193,301L197,302" stroke-opacity="1" stroke-width="5" stroke-linecap="round" stroke-linejoin="round" style="-webkit-tap-highlight-color: rgba(0, 0, 0, 0); stroke-opacity: 1; stroke-linecap: round; stroke-linejoin: round; -webkit-user-select: text;"></path><path fill="none" stroke="#000000" d="M199,309L193,318L191,322L180,335L177,339L171,349L166,358L159,371L154,378L152,383L147,393L146,396L144,399" stroke-opacity="1" stroke-width="5" stroke-linecap="round" stroke-linejoin="round" style="-webkit-tap-highlight-color: rgba(0, 0, 0, 0); stroke-opacity: 1; stroke-linecap: round; stroke-linejoin: round; -webkit-user-select: text;"></path><path fill="none" stroke="#000000" d="M134,392L130,388L129,386L122,379L119,376L114,371L107,365L103,361L98,356L92,351L87,346L82,340L77,335L72,330L69,325L66,322L63,318L60,316L58,314L55,311L53,308L50,306" stroke-opacity="1" stroke-width="5" stroke-linecap="round" stroke-linejoin="round" style="-webkit-tap-highlight-color: rgba(0, 0, 0, 0); stroke-opacity: 1; stroke-linecap: round; stroke-linejoin: round; -webkit-user-select: text;"></path><path fill="none" stroke="#000000" d="M47,304L51,302L55,299L60,295L65,290L70,285L77,281L84,274L92,267L98,262L106,255L112,251L119,245L126,238L133,232L140,226L145,221L149,218" stroke-opacity="1" stroke-width="5" stroke-linecap="round" stroke-linejoin="round" style="-webkit-tap-highlight-color: rgba(0, 0, 0, 0); stroke-opacity: 1; stroke-linecap: round; stroke-linejoin: round; -webkit-user-select: text;"></path><path fill="none" stroke="#000000" d="M153,214L155,223L155,225L155,227L154,230L152,234L150,241L149,247L147,253L145,259L143,265L141,271L138,279L135,287L132,296L130,303L127,311L123,322L121,331L118,342L115,352L113,360L111,369L111,377L109,385" stroke-opacity="1" stroke-width="5" stroke-linecap="round" stroke-linejoin="round" style="-webkit-tap-highlight-color: rgba(0, 0, 0, 0); stroke-opacity: 1; stroke-linecap: round; stroke-linejoin: round; -webkit-user-select: text;"></path><path fill="none" stroke="#000000" d="M99,401L94,396L92,395L90,392L87,389L85,386L83,381L81,376L79,372L78,367L78,362L77,357L77,351L77,346L79,341L81,335L84,330L87,325L90,320L93,315L96,311L99,308L102,305L106,301L109,298L112,296L116,293L120,290L123,288L127,286L130,284L134,284L137,283L140,282L143,282L145,282L148,282L150,282L153,282L156,282L160,282L163,282L166,282L169,282L172,282L176,282L179,282L183,282L186,281L191,280L194,279L197,278L201,276L204,274L208,272L211,270L216,267L219,264L222,261L225,258L228,255L230,251L233,247L235,242L237,236" stroke-opacity="1" stroke-width="5" stroke-linecap="round" stroke-linejoin="round" style="-webkit-tap-highlight-color: rgba(0, 0, 0, 0); stroke-opacity: 1; stroke-linecap: round; stroke-linejoin: round; -webkit-user-select: text;"></path><path fill="none" stroke="#000000" d="M249,208L250,203L250,201L250,198L250,196L250,193L250,190L250,188L249,184L248,181L247,179L245,176L243,173L241,170L238,167L236,164L233,162L231,160L228,159L226,158L223,157L220,157L217,157L213,157L209,157L206,157L202,157L198,157L194,157L189,157L185,157L181,158L177,160L172,160L168,162L163,162L159,163L155,164L150,165L146,166L142,166L138,166L133,166L129,166L126,166L122,166L119,165L116,164L113,162L109,159L106,156L103,153L100,149L95,141" stroke-opacity="1" stroke-width="5" stroke-linecap="round" stroke-linejoin="round" style="-webkit-tap-highlight-color: rgba(0, 0, 0, 0); stroke-opacity: 1; stroke-linecap: round; stroke-linejoin: round; -webkit-user-select: text;"></path><path fill="none" stroke="#000000" d="M87,113L89,112L93,112L97,111L102,109L110,107L116,105L123,103L131,101L140,99L148,96L156,94L164,91L172,89L179,87L188,83L196,79L203,77" stroke-opacity="1" stroke-width="5" stroke-linecap="round" stroke-linejoin="round" style="-webkit-tap-highlight-color: rgba(0, 0, 0, 0); stroke-opacity: 1; stroke-linecap: round; stroke-linejoin: round; -webkit-user-select: text;"></path><path fill="none" stroke="#000000" d="M206,81L202,83L202,87L202,91L201,95L199,102L196,111L193,121L189,131L185,143L182,152L179,164L177,172L175,182L172,194L170,202L168,211L167,217L165,225" stroke-opacity="1" stroke-width="5" stroke-linecap="round" stroke-linejoin="round" style="-webkit-tap-highlight-color: rgba(0, 0, 0, 0); stroke-opacity: 1; stroke-linecap: round; stroke-linejoin: round; -webkit-user-select: text;"></path><path fill="none" stroke="#000000" d="M151,232L148,229L145,228L141,225L135,222L130,218L126,213L122,209L117,203L113,198L109,194L105,189L101,184L97,175L94,170" stroke-opacity="1" stroke-width="5" stroke-linecap="round" stroke-linejoin="round" style="-webkit-tap-highlight-color: rgba(0, 0, 0, 0); stroke-opacity: 1; stroke-linecap: round; stroke-linejoin: round; -webkit-user-select: text;"></path><path fill="none" stroke="#000000" d="M88,167L92,166L96,165L100,164L106,161L113,159L119,156L126,154L137,151L145,148L156,145L167,141L177,137L189,133L200,129L215,124L229,118L246,110" stroke-opacity="1" stroke-width="5" stroke-linecap="round" stroke-linejoin="round" style="-webkit-tap-highlight-color: rgba(0, 0, 0, 0); stroke-opacity: 1; stroke-linecap: round; stroke-linejoin: round; -webkit-user-select: text;"></path><path fill="none" stroke="#000000" d="M293,89L296,89L299,88L302,87L306,85L311,82L317,80L323,78L328,75L333,73L339,71L344,70L349,68L353,67L356,65L360,65L364,63" stroke-opacity="1" stroke-width="5" stroke-linecap="round" stroke-linejoin="round" style="-webkit-tap-highlight-color: rgba(0, 0, 0, 0); stroke-opacity: 1; stroke-linecap: round; stroke-linejoin: round; -webkit-user-select: text;"></path><path fill="none" stroke="#000000" d="M358,75L358,78L358,80L358,83L358,86L358,90L358,94L358,99L358,106L358,112L358,118L358,124L359,132L359,140L359,147L359,154L360,162L361,168L362,174L364,179L366,186L366,190" stroke-opacity="1" stroke-width="5" stroke-linecap="round" stroke-linejoin="round" style="-webkit-tap-highlight-color: rgba(0, 0, 0, 0); stroke-opacity: 1; stroke-linecap: round; stroke-linejoin: round; -webkit-user-select: text;"></path><path fill="none" stroke="#000000" d="M354,193L350,190L347,188L343,185L339,181L334,178L330,174L325,170L320,166L315,161L310,157L306,153L301,149L296,145L293,141L289,138L286,134L283,130L280,126L278,123L276,121" stroke-opacity="1" stroke-width="5" stroke-linecap="round" stroke-linejoin="round" style="-webkit-tap-highlight-color: rgba(0, 0, 0, 0); stroke-opacity: 1; stroke-linecap: round; stroke-linejoin: round; -webkit-user-select: text;"></path><path fill="none" stroke="#000000" d="M274,120L282,127L286,127L290,126L295,125L300,123L307,121L314,118L321,115L329,112L337,109L345,107L353,105L361,103L369,100L376,98L383,95L389,94" stroke-opacity="1" stroke-width="5" stroke-linecap="round" stroke-linejoin="round" style="-webkit-tap-highlight-color: rgba(0, 0, 0, 0); stroke-opacity: 1; stroke-linecap: round; stroke-linejoin: round; -webkit-user-select: text;"></path><path fill="none" stroke="#000000" d="M396,89L412,92L412,94L411,96L411,99L410,102L410,106L410,113L409,118L408,125L408,132L407,140L406,147L405,153L404,161L403,168L402,174L400,179L400,184L398,189L397,194L395,200L394,203" stroke-opacity="1" stroke-width="5" stroke-linecap="round" stroke-linejoin="round" style="-webkit-tap-highlight-color: rgba(0, 0, 0, 0); stroke-opacity: 1; stroke-linecap: round; stroke-linejoin: round; -webkit-user-select: text;"></path><path fill="none" stroke="#000000" d="M391,208L381,208L378,208L375,208L371,208L366,207L361,206L356,206L350,205L344,203L339,202L334,200L330,198L325,195L321,192L318,189L315,186L313,182L310,179L309,174L308,171L308,166L308,162L307,158L307,154L307,150L307,147L307,143L307,139L307,135L307,131L307,127L308,124L309,121L311,117L313,113L315,109L317,106L319,103L322,100L324,97L326,94L329,92L331,89L333,86L335,83L337,81L338,78L339,75L340,73L342,71L342,69L343,67L343,65L344,62L344,59L345,57L346,54L346,52L347,48L348,43L349,39L350,35" stroke-opacity="1" stroke-width="5" stroke-linecap="round" stroke-linejoin="round" style="-webkit-tap-highlight-color: rgba(0, 0, 0, 0); stroke-opacity: 1; stroke-linecap: round; stroke-linejoin: round; -webkit-user-select: text;"></path><path fill="none" stroke="#000000" d="M378,26L381,23L383,23L386,23L389,22L393,21L396,21L400,20L403,20L406,20L410,20L412,20L416,20L419,21L422,21L425,23L428,26L431,28L434,32L436,35L439,38L441,41L444,44L446,47L448,50L450,53L451,58L453,62L454,66L455,70L455,75L456,81L456,87L457,92L457,96L457,101L458,106L458,110L458,115L458,118L459,122L459,125L460,128L461,132L462,135L463,138L464,140L466,143L467,145L468,146L468,147L469,149L470,151" stroke-opacity="1" stroke-width="5" stroke-linecap="round" stroke-linejoin="round" style="-webkit-tap-highlight-color: rgba(0, 0, 0, 0); stroke-opacity: 1; stroke-linecap: round; stroke-linejoin: round; -webkit-user-select: text;"></path><path fill="none" stroke="#000000" d="M459,151L455,152L451,152L446,152L441,152L434,152L427,153L420,155L412,158L404,161L396,163L389,165L383,166L378,167L373,167L368,168L364,169L360,169L357,169L354,169" stroke-opacity="1" stroke-width="5" stroke-linecap="round" stroke-linejoin="round" style="-webkit-tap-highlight-color: rgba(0, 0, 0, 0); stroke-opacity: 1; stroke-linecap: round; stroke-linejoin: round; -webkit-user-select: text;"></path><path fill="none" stroke="#000000" d="M354,160L356,155L358,151L362,145L366,138L372,131L378,124L384,116L391,108L397,100L403,92L409,84L414,78L419,72L424,66L429,60L434,54L439,48" stroke-opacity="1" stroke-width="5" stroke-linecap="round" stroke-linejoin="round" style="-webkit-tap-highlight-color: rgba(0, 0, 0, 0); stroke-opacity: 1; stroke-linecap: round; stroke-linejoin: round; -webkit-user-select: text;"></path><path fill="none" stroke="#000000" d="M457,40L460,43L461,45L464,48L467,50L471,53L476,57L481,61L484,65L488,68L494,72L498,76L502,79L505,82L508,85L511,88L514,91L517,94L519,95" stroke-opacity="1" stroke-width="5" stroke-linecap="round" stroke-linejoin="round" style="-webkit-tap-highlight-color: rgba(0, 0, 0, 0); stroke-opacity: 1; stroke-linecap: round; stroke-linejoin: round; -webkit-user-select: text;"></path><path fill="none" stroke="#000000" d="M518,100L515,102L513,103L509,104L503,108L496,112L490,116L483,121L475,125L468,130L462,135L458,138L453,142L449,145L445,147L442,149L439,151L436,152L434,152L431,152L429,152L427,152L427,150L427,147L425,144L424,138L421,133L419,128L416,121L414,113L411,106L409,99L406,92L404,85L402,79L400,72L398,67L395,62L394,57L393,53L391,46" stroke-opacity="1" stroke-width="5" stroke-linecap="round" stroke-linejoin="round" style="-webkit-tap-highlight-color: rgba(0, 0, 0, 0); stroke-opacity: 1; stroke-linecap: round; stroke-linejoin: round; -webkit-user-select: text;"></path><path fill="none" stroke="#000000" d="M434,67L439,67L444,67L450,67L457,66L467,64L477,63L487,61L500,60L512,59L523,57L535,55L546,54L558,53L568,52L581,50L590,49" stroke-opacity="1" stroke-width="5" stroke-linecap="round" stroke-linejoin="round" style="-webkit-tap-highlight-color: rgba(0, 0, 0, 0); stroke-opacity: 1; stroke-linecap: round; stroke-linejoin: round; -webkit-user-select: text;"></path><path fill="none" stroke="#000000" d="M597,55L592,60L591,63L590,67L588,70L587,75L584,82L581,90L577,98L573,108L570,116L568,123L566,131L564,140L563,145L561,152L561,158L560,164L559,169L558,176L556,181" stroke-opacity="1" stroke-width="5" stroke-linecap="round" stroke-linejoin="round" style="-webkit-tap-highlight-color: rgba(0, 0, 0, 0); stroke-opacity: 1; stroke-linecap: round; stroke-linejoin: round; -webkit-user-select: text;"></path><path fill="none" stroke="#000000" d="M546,192L540,189L540,186L540,182L539,177L536,169L535,162L533,155L531,146L528,135L526,125L524,114L522,104L521,94L519,82L518,73L517,62L516,53L515,45L514,38L514,32L512,26L510,19" stroke-opacity="1" stroke-width="5" stroke-linecap="round" stroke-linejoin="round" style="-webkit-tap-highlight-color: rgba(0, 0, 0, 0); stroke-opacity: 1; stroke-linecap: round; stroke-linejoin: round; -webkit-user-select: text;"></path><path fill="none" stroke="#000000" d="M519,21L524,23L528,23L532,25L537,27L544,29L551,31L558,34L564,36L572,38L580,41L587,43L595,45L602,48L608,49L614,51L618,52" stroke-opacity="1" stroke-width="5" stroke-linecap="round" stroke-linejoin="round" style="-webkit-tap-highlight-color: rgba(0, 0, 0, 0); stroke-opacity: 1; stroke-linecap: round; stroke-linejoin: round; -webkit-user-select: text;"></path><path fill="none" stroke="#000000" d="M624,54L615,55L613,58L610,63L604,68L597,74L590,81L583,88L574,94L566,100L558,106L550,113L543,118L537,122L531,126L524,130L520,132" stroke-opacity="1" stroke-width="5" stroke-linecap="round" stroke-linejoin="round" style="-webkit-tap-highlight-color: rgba(0, 0, 0, 0); stroke-opacity: 1; stroke-linecap: round; stroke-linejoin: round; -webkit-user-select: text;"></path><path fill="none" stroke="#000000" d="M516,134L508,130L507,132L505,134L503,136L502,138L500,141L499,144L498,147L497,150L496,153L496,156L495,160L495,165L495,169L495,174L495,179L495,183L495,188L497,192L499,196L501,199L503,202L505,204L507,206L509,208L511,211L514,213L516,215L519,217L522,219L525,221L529,223L532,225L535,227L539,228L542,230L545,232L549,235L553,238L556,241L560,244L563,247L566,249L568,252L571,254L574,256L576,258L578,260L580,263L581,266L583,269L584,272L585,276L586,279L586,283L587,289L587,296L587,302" stroke-opacity="1" stroke-width="5" stroke-linecap="round" stroke-linejoin="round" style="-webkit-tap-highlight-color: rgba(0, 0, 0, 0); stroke-opacity: 1; stroke-linecap: round; stroke-linejoin: round; -webkit-user-select: text;"></path><path fill="none" stroke="#000000" d="M583,327L583,332L583,335L581,336L580,339L578,341L576,344L574,347L572,349L570,352L567,355L564,357L561,359L556,362L551,364L546,366L541,368L536,371L531,373L526,375L520,377L516,379L510,381L506,383L501,385L497,387L493,389L489,392L486,395L484,398L482,401L481,404L479,407L478,411L476,417L473,422L472,426" stroke-opacity="1" stroke-width="5" stroke-linecap="round" stroke-linejoin="round" style="-webkit-tap-highlight-color: rgba(0, 0, 0, 0); stroke-opacity: 1; stroke-linecap: round; stroke-linejoin: round; -webkit-user-select: text;"></path><path fill="none" stroke="#000000" d="M472,438L474,443L474,445L474,449L475,452L476,457L478,461L479,466L481,472L482,477L483,480L483,484L485,487L485,490L487,492L488,493L489,494L490,496L490,497" stroke-opacity="1" stroke-width="5" stroke-linecap="round" stroke-linejoin="round" style="-webkit-tap-highlight-color: rgba(0, 0, 0, 0); stroke-opacity: 1; stroke-linecap: round; stroke-linejoin: round; -webkit-user-select: text;"></path><path fill="none" stroke="#000000" d="M493,498L499,492L503,488L509,483L517,476L524,471L532,464L540,458L549,452L556,448L562,444L567,441L573,437L577,434L580,431L583,429" stroke-opacity="1" stroke-width="5" stroke-linecap="round" stroke-linejoin="round" style="-webkit-tap-highlight-color: rgba(0, 0, 0, 0); stroke-opacity: 1; stroke-linecap: round; stroke-linejoin: round; -webkit-user-select: text;"></path><path fill="none" stroke="#000000" d="M585,425L581,419L578,416L574,413L570,408L566,402L563,395L559,388L554,378L549,370L544,362L540,356L535,349L531,343L527,339L521,333L517,327" stroke-opacity="1" stroke-width="5" stroke-linecap="round" stroke-linejoin="round" style="-webkit-tap-highlight-color: rgba(0, 0, 0, 0); stroke-opacity: 1; stroke-linecap: round; stroke-linejoin: round; -webkit-user-select: text;"></path><path fill="none" stroke="#000000" d="M512,317L510,322L510,325L507,330L503,335L499,340L493,347L488,352L483,358L477,364L472,371L467,377L463,383L458,388" stroke-opacity="1" stroke-width="5" stroke-linecap="round" stroke-linejoin="round" style="-webkit-tap-highlight-color: rgba(0, 0, 0, 0); stroke-opacity: 1; stroke-linecap: round; stroke-linejoin: round; -webkit-user-select: text;"></path><path fill="none" stroke="#000000" d="M454,390L462,391L466,391L470,393L475,396L481,400L486,403L492,407L499,411L506,415L513,418L520,422L527,425L534,428L542,431L551,433" stroke-opacity="1" stroke-width="5" stroke-linecap="round" stroke-linejoin="round" style="-webkit-tap-highlight-color: rgba(0, 0, 0, 0); stroke-opacity: 1; stroke-linecap: round; stroke-linejoin: round; -webkit-user-select: text;"></path><path fill="none" stroke="#000000" d="M567,399L566,396L566,393L568,389L573,383L577,377L582,370L587,363L593,355L599,346L604,338L609,331L613,324L617,316L622,307" stroke-opacity="1" stroke-width="5" stroke-linecap="round" stroke-linejoin="round" style="-webkit-tap-highlight-color: rgba(0, 0, 0, 0); stroke-opacity: 1; stroke-linecap: round; stroke-linejoin: round; -webkit-user-select: text;"></path><path fill="none" stroke="#000000" d="M631,286L627,285L625,285L622,284L619,283L615,281L609,278L604,276L599,274L593,271L588,268L583,266L578,263L572,260L567,257L561,253" stroke-opacity="1" stroke-width="5" stroke-linecap="round" stroke-linejoin="round" style="-webkit-tap-highlight-color: rgba(0, 0, 0, 0); stroke-opacity: 1; stroke-linecap: round; stroke-linejoin: round; -webkit-user-select: text;"></path><path fill="none" stroke="#000000" d="M550,256L551,261L551,265L551,270L551,276L551,282L551,291L552,300L553,308L553,318L555,327L557,335L558,346L560,355L561,364L563,373L564,382L565,389" stroke-opacity="1" stroke-width="5" stroke-linecap="round" stroke-linejoin="round" style="-webkit-tap-highlight-color: rgba(0, 0, 0, 0); stroke-opacity: 1; stroke-linecap: round; stroke-linejoin: round; -webkit-user-select: text;"></path><path fill="none" stroke="#000000" d="M569,402L575,399L580,396L586,393L590,390L598,386L604,382L611,378L615,375L620,372L623,370L626,368" stroke-opacity="1" stroke-width="5" stroke-linecap="round" stroke-linejoin="round" style="-webkit-tap-highlight-color: rgba(0, 0, 0, 0); stroke-opacity: 1; stroke-linecap: round; stroke-linejoin: round; -webkit-user-select: text;"></path><path fill="none" stroke="#000000" d="M621,366L626,362L629,359L631,355L635,350L638,345L640,340L642,335L643,330L645,325L645,321L645,317L645,313L645,309L645,305L643,300L640,296L638,292L636,289L632,286L629,284L626,281L622,279L619,277L615,275L612,273L608,271L604,270L600,268L596,267L592,266L588,264L584,263L579,262L574,260L570,259L566,257L562,255L556,254L551,252L546,251L542,249L537,247L533,245L529,242L525,240L522,238L519,236L516,233L513,231L511,229L508,226L505,223L503,220L500,217L498,213L495,208L494,205L493,200L492,195L491,186L490,179" stroke-opacity="1" stroke-width="5" stroke-linecap="round" stroke-linejoin="round" style="-webkit-tap-highlight-color: rgba(0, 0, 0, 0); stroke-opacity: 1; stroke-linecap: round; stroke-linejoin: round; -webkit-user-select: text;"></path></svg>