<svg height="868" version="1.1" width="768" xmlns="http://www.w3.org/2000/svg" xmlns:xlink="http://www.w3.org/1999/xlink" style="overflow: hidden; position: relative; -webkit-user-select: text;"><desc style="-webkit-tap-highlight-color: rgba(0, 0, 0, 0); -webkit-user-select: text;">Created with Raphaël 2.2.0</desc><defs style="-webkit-tap-highlight-color: rgba(0, 0, 0, 0); -webkit-user-select: text;"></defs><path fill="none" stroke="#000000" d="M299,373L300,370L302,368L304,366L307,363L312,358L316,353L322,348L327,343L333,336L339,329L346,322L352,315L358,308L364,301L371,294L378,287L385,280L392,273L400,265L407,258L414,252L420,247L426,241L432,237L438,233L443,229L448,226L453,222L458,219L462,217L467,215L472,213L475,211L480,210L484,208L487,207L490,207L492,207L494,207L496,207L497,207L499,208L500,210L502,211L503,213L504,215L505,217L505,219L506,223L506,227L506,231L506,235L506,239L506,244L506,249L505,255L504,261L503,266L502,272L501,278L500,285L498,291L496,299L494,307L492,315L489,324L486,333L482,343L479,353L475,364L470,375L466,386L462,397L457,409L451,423L446,434L441,446L437,459L432,470L427,482L422,494L417,505L412,516L406,526L401,535L396,543L391,550L387,555L382,560L377,564L373,568L368,571L365,574L361,576L358,577L355,578L352,578L349,578L347,578L344,577L340,574L337,571L334,567L330,562L326,558L322,553L317,548L313,542L309,536L305,529L301,523L296,515L292,508L288,500L283,493L280,486L277,478L274,471L271,463L268,456L265,449L262,442L259,435L257,428L255,420L254,412L251,405L250,397L249,390L247,383L246,376L246,370L245,363L245,356L245,350L245,343L245,338L245,331L245,325L245,320L246,316L247,312L249,308L251,305L253,302L255,300L258,298L261,296L264,294L268,292L272,291L277,290L282,288L287,287L293,285L298,285L303,284L309,283L315,283L322,283L328,282L335,282L342,282L350,281L358,281L366,281L375,280L385,280L394,280L404,280L413,279L423,279L433,279L443,279L454,279L463,279L472,279L481,279L489,280L497,283L503,286L509,290L513,293L517,297L520,302L523,307L525,313L526,319L527,325L528,331L528,338L528,345L528,353L528,360L528,369L528,378L528,387L526,396L524,406L522,416L519,426L516,437L514,447L511,457L508,466L505,474L502,482L498,491L494,499L490,506L485,513L480,518L475,524L470,528L465,531L459,534L453,536L447,538L440,540L433,541L426,542L419,543L412,543L404,544L395,544L387,544L378,544L370,544L362,543L353,542L345,540L337,538L329,536L320,534L312,531L304,529L296,527L288,525L281,523L273,521L266,518L259,516L254,514L247,512L242,510L236,508L231,506L227,504L222,503L218,501L214,499L210,497L207,496L204,494L201,492L198,491L196,489L194,487L192,485L191,483L189,480L188,477L188,474L187,470L187,466L187,461L187,456L187,450L187,443L187,436L187,430L187,423L187,415L187,408L188,398L189,389L190,380L191,369L192,359L194,348L195,336L197,324L199,313L201,304L203,292L205,284L208,275L211,268L214,262L218,258L222,254L226,252L231,251L236,251L242,251L249,251L256,251L263,254L270,257L277,260L284,263L291,267L298,271L304,275L310,279L315,284L321,288L326,292L331,297L335,300L339,305L342,309L346,314L348,319L350,323L351,328L352,333L353,338L353,343L353,348L350,353L347,358L344,363L339,366L334,369L329,372L323,374L317,375L310,377L303,377L296,378L288,379L280,379L271,379L263,379L255,379L246,379L238,379L230,378L222,377L215,376L206,375L200,374L193,373L186,372L180,370L175,368L171,367L166,365L163,363L159,361L156,359L153,357L151,355L149,352L148,349L147,346L146,342L146,338L146,334L146,327L146,321L148,314L151,307L154,300L158,293L161,285L166,278L171,270L176,262L183,253L188,245L195,236L203,227L211,218L220,207L227,197L236,187L244,178L253,168L261,161L269,153L277,146L284,141L290,137L298,133L303,132L308,131L314,131L319,131L324,131L329,134L333,138L338,144L341,149L345,155L349,161L353,166L356,172L360,178L364,183L367,189L371,195L374,201L378,207L381,213L384,219L387,225L390,232L392,238L395,244L397,251L400,257L402,263L404,269L406,275L407,280L409,286L410,292L411,298L412,304L412,309L413,314L413,319L414,325L414,329L414,334L414,339L413,343L411,348L409,351L407,354L404,356L401,357L398,358L395,359L391,360L387,360L383,360L378,360L373,360L367,360L362,360L357,360L352,360L347,359L342,358L337,358L332,357L328,356L323,356L319,355L315,354L312,353L308,352L305,351L302,350L299,348L296,347L294,345L292,343L290,341L288,339L287,336L286,334L285,331L285,327L285,323L285,319L285,313L286,307L289,300L292,294L295,288L299,282L303,276L307,270L312,263L317,257L323,251L329,244L336,237L342,231L349,224L355,218L362,212L369,205L376,199L384,193L391,187L398,181L405,175L412,170L419,165L426,159L433,154L440,148L446,144L453,139L458,136L463,133L468,131L471,129L474,129L477,129L479,129L480,129L482,130L485,133L487,136L490,140L493,144L496,149L498,154L501,159L503,164L505,170L507,176L509,183L510,190L511,197L511,205L512,212L513,222L514,229L514,238L514,247L514,256L514,266L514,275L512,285L510,295L509,304L507,313L504,322L503,330L500,338L498,345L495,353L491,360L487,367L482,373L477,379L473,383L468,386L462,388L457,389L451,389L445,389L438,387L432,384L425,380L419,376L412,371L405,366L397,360L391,356L385,350L379,345L374,339L369,333L366,326L362,320L361,314L359,308L359,302L359,295L360,290L363,286L368,281L373,278L379,275L384,273L391,270L398,270L406,269L414,268L422,268L431,268L441,268L450,268L459,268L469,268L479,269L488,270L498,272L507,274L516,276L525,278L533,280L540,282L546,284L553,285L558,287L563,290L568,291L572,293L575,295L579,297L582,299L584,301L587,303L589,305L592,307L593,309L595,312L596,314L597,317L598,319L599,322L599,325L599,327L600,330L600,333L601,336L601,339L601,341L601,343L601,346L601,349L601,353L600,356L598,360L596,364L593,369L589,373L586,378L582,382L578,387L574,392L569,397L564,401L558,406L552,411L544,417L536,422L528,427L519,432L509,437L499,442L490,447L480,452L470,457L460,462L451,467L441,473L433,477L426,480L420,481L416,482L411,482L407,480L405,475L403,470L401,462L400,455L400,447L400,438L400,428L400,419L401,410L404,399L407,392L411,382L415,373L420,365L425,357L431,350L435,344L441,340L446,336L451,334L456,332L461,332L466,332L472,332L477,333L482,336L487,339L493,343L498,346L504,351L509,355L514,359L519,363L523,367L527,371L531,375L536,379L539,383L543,387L547,390L550,394L554,397L558,400L561,404L565,407L568,410L572,413L575,416L577,419L581,422L584,425L587,428L589,431L592,434L594,437L596,440L599,443L600,446L601,449L603,452L604,455L605,459L605,462L605,466L605,470L604,474L601,478L598,482L594,486L590,490L584,494L579,499L573,504L566,509L560,514L553,519L544,525L536,531L528,537L518,544L509,551L500,556L493,560L486,563L480,565L473,566L466,567L460,567L453,567L445,567L438,564L432,559L426,553L419,545L414,537L409,528L405,517L402,506L399,494L397,484L396,474L395,462L395,450L395,438L396,429L400,421L403,414L407,408L412,406L416,405L421,405L427,407L433,411L439,416L446,421L453,428L460,435L467,442L472,449L478,456L483,462L488,469L492,475L497,482L501,487L504,492L508,497L511,501L514,506L517,511L519,515L521,518L524,522L526,526L528,530L529,533L531,537L533,541L534,544L536,548L538,551L540,555L542,558L543,561L545,565L546,568L548,571L548,574L549,577L549,580L550,583L550,586L550,589L550,591L548,595L546,598L543,602L538,606L533,611L528,615L522,619L516,623L510,626L505,629L498,632L491,635L486,637L480,639L474,641L469,642L463,642L458,642L453,642L448,642L443,639L438,634L434,628L430,620L425,612L421,603L416,594L411,585L406,576L401,567L396,558L391,549L385,540L380,531L375,521L371,512L367,503L364,495L361,487L360,480L359,474L359,468L359,465L360,462L363,460L367,460L371,460L377,460L384,461L390,464L397,467L404,472L412,475L420,479L429,484L436,487L445,490L453,493L461,495L470,498L478,500L487,502L495,504L504,505L512,506L521,507L529,509L537,510L543,511L550,513L556,515L562,517L566,519L570,522L573,525L575,528L576,532L576,536L576,542L576,547L573,552L570,558L567,564L564,569L560,574L556,578L553,582L548,586L544,590L540,593L534,598L529,602L524,606L517,611L511,615L505,619L498,623L492,627L486,630L480,633L475,636L468,639L463,642L457,644L451,647L444,650L438,653L431,657L424,660L417,664L410,667L404,670L397,673L390,675L383,678L377,680L371,682L365,684L361,684L356,685L352,685L349,684L347,681L345,676L344,671L342,665L341,659L340,652L339,645L339,637L339,630L339,623L339,615L339,608L339,599L340,592L342,585L344,578L347,571L349,566L352,561L355,557L358,555L361,552L365,551L368,550L373,550L377,550L383,550L388,551L394,552L400,554L407,556L414,558L421,561L428,564L435,566L442,569L449,572L456,575L463,578L470,581L476,584L482,587L487,590L492,594L497,597L500,601L504,604L507,608L508,611L509,616L510,620L510,626L510,631L510,636L509,642L508,647L507,653L505,659L504,664L502,670L500,675L499,681L497,685L495,690L494,694L492,698L489,702L487,706L484,709L481,712L479,715L476,717L473,718L471,719L468,719L465,719L462,719L458,717L453,714L449,711L443,707L437,703L431,700L425,695L419,691L412,686L406,680L399,674L393,669L387,663L380,656L374,650L368,642L362,635L356,628L351,619L345,611L339,603L333,596L327,589L321,581L315,574L311,567L307,560L303,553L300,547L298,542L296,535L295,531L295,525L295,519L296,514L300,508L304,503L309,498L314,493L320,489L326,486L332,483L339,480L344,477L351,475L358,472L363,470L369,467L375,465L381,463L387,462L393,460L397,459L402,458L406,458L409,458L412,458L415,460L417,462L419,465L421,468L422,472L423,476L424,480L424,485L424,490L425,495L425,500L425,506L425,512L425,518L424,523L423,529L421,535L420,542L418,548L416,554L413,561L411,567L408,574L405,582L402,589L399,596L396,602L393,608L389,615L385,622L381,630L377,637L372,645L368,652L364,660L360,667L356,672L353,676L351,680L348,682L346,684L343,684L340,684L337,684L332,684L327,681L321,679L314,677L307,675L299,673L292,670L283,667L276,664L268,660L259,656L252,652L244,648L237,644L229,639L222,633L217,628L212,622L208,616L205,610L203,604L201,598L201,591L201,585L201,579L205,572L209,566L215,560L222,553L229,548L236,542L244,537L252,531L261,525L269,519L278,514L286,509L293,505L300,502L306,501L311,501L316,501L319,503L322,507L325,512L327,518L329,524L330,531L331,537L332,543L332,550L333,558L333,567L333,577L333,586L331,596L329,607L327,616L325,626L323,635L321,644L318,653L316,661L313,668L311,674L309,680L306,686L304,692L301,697L298,702L295,706L292,710L290,714L286,718L283,720L281,723L278,725L276,726L273,727L271,727L268,727L265,727L262,727L259,727L255,726L251,723L247,720L244,717L240,714L236,710L232,704L228,699L223,693L218,686L212,678L208,670L202,662L197,652L191,642L185,633L179,623L173,613L167,603L162,593L156,584L151,574L147,565L144,556L142,547L142,538L142,529L144,518L149,510L155,502L162,495L169,489L178,483L186,479L195,475L205,472L215,469L225,467L235,464L246,462L256,459L267,456L277,453L285,450L293,449L300,448L306,448L310,449L313,452L315,458L317,464L317,472L317,480L317,489L317,498L317,506L317,515L317,524L317,533L317,542L317,551L317,559L315,566L314,572L312,575L310,579L307,581L303,582L298,583L292,584L284,584L276,584L267,584L257,584L248,584L238,584L228,584L218,584L208,584L198,584L189,584L180,583L171,582L163,582L154,581L146,579L138,578L130,576L123,574L117,573L110,571L105,569L100,567L96,564L92,561L88,557L86,552L84,547L84,542L84,535L84,527L85,518L89,509L94,499L99,489L104,480L110,471L116,462L122,452L129,443L136,434L143,426L150,416L157,408L164,399L171,390L178,382L184,375L191,368L196,363L203,358L208,354L213,352L219,350L224,349L228,349L233,349L237,350L241,353L244,356L248,361L251,365L255,370L259,375L263,381L267,386L271,392L275,398L279,404L283,411L288,416L292,423L295,429L300,436L303,443L307,450L310,458L313,464L316,470L319,476L322,482L324,487L326,493L327,499L328,504L329,509L329,513L329,517L329,520L329,523L328,525L325,527L322,529L317,530L313,531L307,532L301,532L295,532L290,532L283,531L276,529L269,526L262,524L255,521L247,517L239,514L232,510L223,505L215,501L205,496L197,490L188,484L180,478L172,472L164,465L156,457L148,450L140,442L132,434L124,425L116,416L109,408L102,399L95,392L89,385L84,380L79,373L74,368L71,362L68,357L66,351L65,344L65,338L65,329L65,321L66,313L69,305L72,298L75,291L78,286L81,281L84,278L88,275L91,274L96,274L100,273L105,273L110,273L116,273L122,273L129,274L136,274L144,274L152,274L160,274L169,274L178,274L186,274L195,274L204,274L211,274L220,274L227,274L234,274L240,274L246,274L250,276L253,279L256,283L259,287L261,292L261,298L262,305L262,312L262,319L261,327L258,335L255,343L252,352L248,363L244,372L241,382L237,392L234,399L232,408L229,415L226,422L224,427L220,432L217,436L212,439L207,441L200,444L193,447L185,450L176,453L167,456L159,459L149,462L140,465L131,467L123,469L115,471L108,472L101,473L95,474L89,474L84,474L79,474L74,474L71,472L67,470L64,467L62,465L60,462L59,458L58,454L58,450L58,445L58,440L60,435L64,429L68,424L72,417L77,411L82,404L88,397L93,390L99,382L105,375L110,368L117,359L124,350L131,340L139,330L147,319L155,308L161,300L169,288L176,280L184,271L191,262L198,253L206,246L213,237L220,230L226,223L232,218L238,213L243,208L249,204L253,201L258,198L262,197L266,196L269,196L272,196L275,196L278,199L280,202L282,206L283,212L285,216L286,222L288,227L289,234L290,242L291,251L292,261L293,270L293,281L294,292L295,304L295,316L296,329L296,342L297,355L298,368L298,379L299,390L299,401L299,412L299,422L299,431L299,438L298,444L296,448L293,451L290,453L285,453L280,453L274,453L268,450L261,445L255,441L247,434L240,426L233,419L226,410L219,402L212,393L205,384L199,374L192,365L186,355L179,346L173,336L167,327L161,318L156,309L150,300L145,292L139,284L136,277L131,269L127,262L124,256L121,249L120,243L118,237L117,231L116,227L116,222L116,217L116,213L117,208L120,204L123,201L127,197L131,194L135,190L140,187L145,185L150,182L156,180L161,178L167,176L173,174L179,173L186,171L192,170L199,168L206,167L212,166L220,164L227,163L234,162L242,160L248,159L255,157L263,156L269,154L276,153L283,152L290,151L297,150L304,149L310,147L316,147L322,145L327,144L332,143L337,142L342,141L346,140L351,139L354,139L358,139L361,139L364,139L366,139L368,142L370,144L370,149L370,155L370,161L370,168L370,176L368,184L366,193L363,201L360,210L357,219L355,229L351,239L349,249L346,259L342,269L339,278L336,286L331,295L326,304L321,312L317,317L311,322L307,325L302,326L298,327L293,327L288,327L284,324L280,320L275,315L271,309L266,302L261,294L258,287L254,279L249,271L245,263L241,254L237,246L232,237L228,228L225,218L221,209L217,199L214,190L211,181L208,173L206,163L204,155L203,148L202,141L202,135L202,130L202,126L203,123L205,121L211,118L215,117L220,117L227,117L233,116L239,116L247,116L255,116L263,116L272,116L280,116L288,116L298,116L307,116L316,116L325,116L334,116L343,116L352,116L359,116L367,116L373,116L378,117L383,120L385,124L388,129L390,134L390,141L391,149L392,156L392,165L392,174L392,183L392,191L392,200L391,210L390,219L389,229L388,240L387,250L386,261L385,271L384,281L384,292L383,302L382,312L381,322L380,332L380,342L379,351L378,360L377,368L376,376L375,384L374,390L372,396L371,401L369,404L368,407L366,409L363,411L361,412L358,412L356,412L352,412L348,412L344,409L338,403L333,398L327,392L321,385L314,378L307,372L301,365L294,358L287,351L280,343L273,336L266,329L261,322L255,313L251,304L248,296L246,287L246,278L246,266L246,256L251,247L256,237L262,228L269,219L277,210L285,201L293,193L301,184L310,175L318,167L326,159L334,150L343,142L353,133L362,124L370,117L380,109L389,101L397,95L404,89L411,86L417,83L423,81L427,81L432,81L437,81L441,81L446,84L450,88L455,93L459,98L464,103L468,108L473,114L478,121L482,127L487,134L491,142L496,149L500,156L504,163L508,170L511,177L515,184L519,191L522,198L525,205L527,212L528,218L530,224L530,231L530,237L530,243L530,249L528,253L526,258L523,262L520,265L516,268L511,270L506,272L501,274L495,275L489,278L481,280L474,283L466,286L456,290L449,293L439,297L431,300L424,302L417,303L412,304L406,304L400,304L396,302L392,298L388,293L385,287L381,281L378,275L375,267L372,258L369,250L366,240L363,232L361,222L358,211L356,200L353,190L350,180L348,171L345,161L343,151L341,142L339,132L338,122L336,112L336,103L335,94L334,85L334,78L334,71L334,64L334,58L333,52L333,48L333,44L333,41L333,39L333,37L334,37L335,37L337,37L339,37L342,37L346,37L350,37L355,39L359,41L364,43L370,45L375,47L380,49L385,52L390,55L395,57L401,60L407,62L412,64L418,67L424,69L430,71L436,74L442,76L448,78L455,80L461,82L468,84L474,86L481,88L487,91L493,93L500,95L507,98L511,100L517,103L524,105L529,108L534,110L539,113L543,117L547,120L551,124L554,128L556,132L558,137L559,142L560,148L560,154L560,162L556,169L551,178L546,186L541,194L534,201L527,209L519,217L512,224L504,232L495,239L487,246L477,253L468,260L458,267L447,274L438,280L427,285L417,289L407,292L399,294L390,295L381,295L373,295L366,293L361,289L356,283L352,276L350,267L349,257L349,247L350,224L353,212L357,200L361,188L366,176L370,165L375,155L380,146L383,139L387,132L391,126L395,122L399,119L403,117L407,115L412,115L418,115L424,115L431,115L438,117L453,123L460,127L468,131L475,135L483,139L490,144L498,149L505,153L512,157L519,162L526,166L533,170L541,173L548,177L554,180L561,183L567,187L573,190L579,193L585,195L590,198L595,200L600,203L604,206L608,209L611,211L614,214L617,217L620,219L622,221L623,224L624,226L625,228L625,231L625,239L622,243L618,248L614,252L610,256L605,261L599,266L594,271L586,277L578,283L570,289L561,295L551,302L542,309L530,316L519,323L509,329L498,336L477,346L468,351L460,353L451,356L443,357L438,357L431,357L426,356L422,352L419,346L416,339L415,331L415,321L415,308L416,295L418,282L421,268L424,255L429,228L432,214L436,201L439,188L443,175L447,164L451,152L455,143L458,136L462,129L466,122L470,116L473,112L477,108L480,105L483,103L487,101L490,101L493,101L500,101L503,101L507,103L510,105L514,108L518,111L521,114L526,117L529,121L533,125L537,128L540,132L543,136L550,145L553,149L557,154L560,159L562,164L565,170L570,181L574,188L576,193L579,200L582,205L584,211L587,218L589,224L591,230L593,236L596,243L597,249L599,256L601,263L604,277L604,284L604,291L605,298L605,305L605,312L605,317L605,323L605,329L602,334L595,344L590,350L582,355L574,360L566,365L558,370L542,376L533,379L523,382L514,385L504,389L494,392L484,395L476,398L467,399L460,401L453,401L446,401L441,401L434,397L429,393L422,386L409,373L403,366L397,359L391,352L385,345L381,339L375,328L374,324L374,319L374,315L376,312L381,309L388,306L396,304L404,302L414,302L424,302L434,302L445,302L456,303L476,308L485,310L494,314L504,318L511,321L520,325L528,329L536,332L550,339L557,342L564,345L570,348L576,351L582,353L587,356L592,358L597,361L602,363L606,365L611,368L619,371L623,373L626,375L630,377L633,379L635,381L638,383L640,386L643,391L643,394L644,397L645,400L645,404L645,408L645,411L645,416L643,422L639,432L636,437L633,443L630,449L626,455L622,461L617,468L611,475L604,482L590,495L583,501L577,506L570,510L563,514L557,517L551,519L545,520L533,521L527,521L514,514L508,510L502,504L494,498L486,492L470,478L463,471L456,464L451,457L447,448L444,440L444,431L444,422L446,414L452,408L458,403L464,399L479,397L487,397L496,397L506,400L515,404L524,408L543,418L553,424L562,430L571,436L579,441L588,448L602,459L608,465L614,470L620,475L625,480L630,485L635,489L639,492L647,499L651,502L654,505L657,508L661,515L662,519L662,523L662,528L662,533L660,538L657,544L653,549L648,555L643,562L636,569L630,576L614,590L606,598L597,606L588,613L579,620L571,626L558,636L552,639L547,640L541,640L535,640L523,632L516,627L508,620L501,614L494,606L488,599L482,590L477,581L472,571L464,552L462,544L460,536L458,530L458,524L458,516L459,513L463,512L470,511L477,511L487,511L497,511L520,511L532,510L544,509L556,508L567,506L579,504L591,502L602,501L622,497L631,496L639,496L647,495L654,495L665,494L670,494L674,494L678,494L682,494L685,495L688,496L693,499L695,501L697,504L699,506L700,508L701,511L703,516L703,520L703,523L703,527L703,535L702,540L699,545L695,552L691,558L686,564L674,579L667,586L660,594L653,602L646,610L639,618L630,626L612,645L603,655L595,662L578,674L572,677L565,679L559,680L547,680L541,675L536,668L530,658L523,636L520,623L518,610L517,595L516,580L515,565L513,534L511,519L511,504L510,489L510,475L510,462L511,438L514,427L518,417L523,409L533,396L537,393L541,392L546,392L557,395L562,400L567,407L573,414L578,422L582,429L592,445L596,453L601,461L604,468L609,475L617,489L621,497L625,503L628,510L629,516L630,529L630,537L627,545L621,554L611,566L604,572L597,577L589,582L581,587L564,597L555,602L546,607L537,612L527,617L517,622L497,633L487,637L478,643L468,648L459,653L441,664L434,667L426,672L414,676L411,677L408,678L406,678L405,677L404,669L404,662L404,654L404,647L404,637L404,620L405,611L407,601L409,590L412,579L421,559L426,549L432,541L444,530L449,527L455,526L461,526L473,528L479,533L484,538L488,544L493,551L501,567L506,577L509,584L513,591L516,600L521,615L524,623L529,637L532,645L533,651L536,657L537,664L541,675L542,681L543,686L543,691L545,702L545,707L546,711L546,715L547,722L547,725L547,728L543,732L541,734L537,736L533,737L528,737L524,738L511,738L505,738L499,738L492,736L485,734L470,729L462,725L453,720L438,709L431,703L423,696L415,689L400,674L393,667L385,661L377,655L368,648L360,642L343,630L336,624L331,619L326,614L323,608L322,593L324,584L336,566L343,557L352,548L361,540L380,526L389,520L400,515L409,510L429,503L438,501L446,501L453,501L458,504L462,511L464,527L464,540L463,553L460,567L454,594L451,606L447,616L441,636L437,645L433,656L428,666L417,685L411,693L404,701L398,708L386,718L381,722L377,724L372,724L368,724L362,724L351,715L345,707L339,700L326,684L319,677L312,669L298,652L291,644L285,635L272,618L266,609L261,599L257,590L253,576L252,568L252,560L254,553L259,545L265,538L280,524L300,509L310,501L320,495L339,483L349,478L366,468L373,464L380,461L385,460L390,459L395,459L401,459L405,468L407,473L407,479L408,485L409,492L409,506L409,513L408,521L406,529L402,543L399,550L394,561L390,566L386,572L381,577L370,589L364,594L358,599L346,608L341,611L336,613L325,615L319,616L313,617L307,617L300,618L285,618L277,618L270,618L261,618L245,618L239,618L231,618L223,616L209,612L203,610L191,605L184,601L179,599L169,591L165,587L161,583L157,579L151,571L148,567L146,562L144,557L142,552L141,539L141,532L141,523L142,504L144,494L147,484L149,475L154,459L157,454L158,451L162,447L164,446L170,446L174,446L178,446L184,447L197,448L204,449L212,450L221,450L237,453L246,455L254,456L261,458L273,465L278,468L281,473L284,484L284,492L284,501L282,512L274,533L269,543L258,568L252,581L246,594L242,603L233,621L230,628L227,635L221,645L219,648L216,650L209,652L205,652L200,652L193,650L179,640L172,633L164,625L149,611L142,603L135,596L121,581L106,564L99,555L93,548L87,539L78,523L74,516L69,500L67,493L66,486L66,479L66,465L68,458L76,441L81,433L87,425L101,408L108,399L118,388L132,372L140,365L147,359L159,351L165,349L169,348L174,348L182,351L186,355L191,360L200,372L205,379L215,395L220,404L225,414L235,436L239,447L243,458L246,469L250,490L250,500L250,516L249,523L246,527L243,531L234,534L229,534L223,534L210,531L203,528L196,525L183,519L176,517L169,514L161,511L146,504L137,501L122,495L114,492L101,487L94,483L88,481L83,478L72,472L68,470L63,467L56,463L52,461L50,459L45,454L43,452L41,449L39,443L38,439L37,431L37,427L37,420L37,407L38,399L40,391L43,382L48,367L51,356L57,334L60,326L64,316L67,307L73,292L76,287L84,278L88,275L96,272L100,272L109,273L114,275L120,278L126,282L137,292L144,297L150,302L164,313L171,319L178,326L197,350L202,359L205,366L208,374L210,388L210,396L203,408L198,411L191,415L178,416L171,416L157,410L149,404L141,398L127,384L120,375L105,357L98,348L91,339L77,321L71,312L65,304L54,288L50,282L46,275L40,265L36,256L36,251L36,247L36,240L38,236L42,233L52,227L58,224L73,220L79,219L88,217L96,215L114,212L123,211L142,209L151,207L160,206L179,205L188,205L205,205L213,207L225,214L231,219L235,224L243,237L246,245L251,263L254,272L256,282L258,302L259,313L259,324L259,346L258,355L256,361L252,368L249,369L246,369L243,363L235,351L230,342L225,334L215,314L210,305L198,286L193,276L188,265L178,243L174,233L170,222L163,202L160,193L155,175L152,167L149,153L148,146L146,135L146,130L146,126L146,119L146,115L146,114L147,112L150,111L153,110L157,109L164,108L169,107L174,107L184,106L190,106L195,106L207,106L213,106L226,106L233,106L247,106L254,106L261,106L275,106L282,108L295,110L303,112L314,119L319,123L324,129L330,143L333,152L336,163L340,183L343,206L344,217L344,229L345,250L346,259L346,273L346,278L345,281L340,283L336,284L325,284L309,282L298,279L289,276L271,269L261,264L244,253L226,242L217,236L209,231L194,219L188,215L178,206L174,200L171,193L171,182L171,176L176,164L182,158L190,151L205,140L213,135L230,126L238,122L256,114L265,110L284,103L294,100L304,97L324,90L341,83L349,80L357,78L370,74L375,74L380,74L389,74L393,74L396,76L403,83L407,88L413,98L417,104L422,117L427,133L429,142L431,152L434,173L434,184L435,205L435,216L435,236L434,246L432,255L426,268L421,272L417,275L404,275L398,274L383,261L377,253L363,237L350,218L344,209L338,200L326,182L320,173L308,156L303,147L294,129L291,122L288,113L284,97L283,91L281,78L281,73L281,69L281,63L283,61L287,60L290,60L299,60L304,60L317,61L324,62L339,64L348,65L356,66L373,69L380,70L398,72L407,73L416,74L434,76L453,78L472,79L482,79L500,80L509,81L526,82L533,82L549,83L556,84L563,85L574,88L579,90L585,94L588,96L591,103L592,106L593,114L593,119L593,130L592,136L589,142L584,157L575,174L570,182L560,200L554,210L539,233L531,244L514,267L505,278L487,299L479,309L464,326L458,331L449,337L445,337L438,334L436,328L429,313L426,305L419,285L417,275L415,266L414,246L414,238L418,222L422,215L431,205L440,201L446,201L451,201L464,207L471,210L489,219L498,224L517,234L536,244L545,249L555,255L575,266L584,270L601,280L609,283L623,292L629,295L639,302L642,306L645,314L645,318L641,330L636,336L623,349L616,355L600,365L592,371L574,383L565,390L547,400L540,403L528,406L522,406L514,402L511,395L508,377L508,365L508,341L510,329L516,305L518,292L521,279L526,255L531,233L534,222L537,214L543,200L550,191L558,188L563,187L574,187L579,188L592,193L605,200L611,203L618,206L632,212L645,218L652,221L663,227L669,229L679,234L684,236L692,241L695,243L699,245L704,249L709,251L711,253L713,254L717,257L718,258L720,261L723,263L723,265L725,268L725,271L727,275L727,278L728,283L729,286L730,292L730,296L730,303L730,311L730,314L727,324L725,328L723,333L716,345L706,359L700,367L694,375L682,390L675,398L661,415L652,426L635,446L618,464L609,474L593,488L587,492L577,496L573,497L568,494L566,489L562,473L561,464L560,443L560,429L560,403L560,390L558,366L557,354L557,332L557,322L559,304L562,297L571,289L583,285L589,285L605,285L613,286L621,289L637,297L652,304L660,308L668,311L683,318L697,324L702,326L712,332L716,335L718,338L720,345L720,355L718,361L710,374L702,387L698,392L690,404L685,410L674,423L667,430L651,445L643,454L625,470L616,476L602,484L597,485L587,486L582,485L572,475L562,462L556,454L551,445L541,428L531,408L527,399L521,381L519,372L518,356L518,350L520,341L524,338L535,333L542,332L558,332L575,332L583,335L599,341L607,345L622,352L630,355L645,361L652,363L664,367L669,369L678,373L682,374L688,377L691,378L696,380L699,382L701,383L704,385L706,385L708,387L709,390L711,393L711,395L712,399L713,404L713,407L713,413L712,416L709,424L707,429L702,439L699,445L691,458L683,472L677,481L664,497L658,506L645,523L638,532L624,547L612,559L606,564L596,571L591,573L582,576L572,577L567,577L559,574L548,565L544,561L536,550L533,543L527,531L524,523L522,509L522,499L522,478L532,452L538,443L550,427L555,423L565,420L575,421L580,426L588,437L592,443L599,458L603,465L611,479L615,486L622,500L629,514L632,520L637,531L640,536L644,547L649,557L652,562L655,572L657,577L660,586L661,591L662,600L663,609L663,613L663,619L660,624L657,625L650,627L640,628L635,628L623,628L618,627L607,623L602,620L592,615L582,610L577,607L567,602L557,598L553,596L545,593L538,589L536,586L534,581L534,572L536,566L549,551L557,543L573,527L582,519L598,505L614,491L623,484L639,472L647,466L661,458L673,451L677,450L685,450L688,450L691,455L692,466L692,473L692,488L691,496L688,512L685,523L677,544L672,555L662,578L650,599L638,619L632,629L618,653L611,664L599,686L592,696L580,712L575,718L566,727L559,731L555,732L545,732L534,728L528,725L517,715L511,710L500,698L495,693L485,680L476,667L470,654L468,649L467,637L470,620L477,611L494,590L501,582L515,570L521,566L528,565L533,565L537,575L542,588L545,595L552,607L555,613L562,626L568,642L571,650L575,664L579,679L585,697L587,703L589,713L591,722L591,726L591,733L591,738L587,741L584,742L577,743L572,743L560,744L545,746L537,747L519,749L501,754L492,755L477,759L463,762L457,763L445,765L436,766L431,766L424,766L417,759L412,747L410,739L410,720L410,710L410,689L411,665L412,654L417,630L419,619L427,601L436,592L441,590L458,595L462,601L468,620L474,640L476,651L482,673L484,684L487,706L488,716L489,741L489,761L489,769L487,781L483,787L477,788L473,788L460,787L443,781L434,776L415,769L405,765L386,757L367,751L350,745L341,742L326,734L312,722L304,709L302,700L301,689L301,668L307,632L316,606L322,591L335,563L349,540L360,526L369,521L373,521L379,525L384,540L387,550L391,572L392,582L394,605L394,616L394,642L391,676L387,693L386,700L383,708L377,710L369,711L363,711L349,711L331,711L322,711L302,711L283,712L274,712L258,713L242,713L227,714L220,714L206,714L194,714L189,712L181,706L174,696L170,681L170,663L170,651L173,626L180,599L183,585L191,559L200,533L204,521L213,498L223,477L227,469L235,456L239,452L245,446L251,445L257,446L263,453L266,458L273,469L280,481L286,494L290,501L296,513L302,527L305,534L309,549L310,556L311,568L311,579L307,587L304,590L293,595L280,598L264,601L255,602L236,604L215,607L195,608L185,609L169,610L152,610L145,610L133,608L122,603L118,601L112,592L110,580L110,564L120,535L130,517L141,497L147,489L157,477L168,470L172,469L182,469L193,474L205,482L211,486L227,497L234,502L248,513L259,524L265,542L265,548L263,558L254,564L249,565L229,563L222,559L210,551L196,542L183,531L176,526L163,514L150,501L136,487L128,479L114,464L108,457L93,443L81,428L70,416L65,409L52,392L49,388L43,380L40,373L39,366L39,362L41,350L50,335L55,329L67,314L77,305L87,301L92,300L102,300L113,306L125,314L132,318L148,326L164,333L179,340L186,343L198,351L204,360L205,373L205,380L196,398L191,406L179,424L166,441L153,460L139,480L125,497L119,506L108,519L98,532L88,543L84,547L74,556L67,562L60,567L57,568L53,569L52,569L48,569L45,567L43,563L42,557L42,548L42,542L42,521L43,513L47,497L50,482L52,475L57,460L63,450L70,446L84,445L91,445L104,446L120,451L136,458L144,461L160,467L176,474L191,482L201,490L205,495L209,507L210,526L210,544L210,553L207,571L204,589L202,599L198,617L189,643L183,656L181,661L176,667L171,668L164,668L157,665L152,663L141,659L129,653L118,648L110,642L106,639L99,627L99,620L99,603L103,584L108,573L118,552L131,533L138,524L150,505L162,487L174,471L187,453L194,442L208,417L229,378" stroke-opacity="1" stroke-width="5" stroke-linecap="round" stroke-linejoin="round" style="-webkit-tap-highlight-color: rgba(0, 0, 0, 0); stroke-opacity: 1; stroke-linecap: round; stroke-linejoin: round; -webkit-user-select: text;"></path></svg>