<svg height="868" version="1.1" width="768" xmlns="http://www.w3.org/2000/svg" xmlns:xlink="http://www.w3.org/1999/xlink" style="overflow: hidden; position: relative; -webkit-user-select: text;"><desc style="-webkit-tap-highlight-color: rgba(0, 0, 0, 0); -webkit-user-select: text;">Created with Raphaël 2.2.0</desc><defs style="-webkit-tap-highlight-color: rgba(0, 0, 0, 0); -webkit-user-select: text;"></defs><path fill="none" stroke="#000000" d="M272,397L278,393L281,391L285,388L292,383L300,377L310,368L322,359L332,350L343,342L351,336L358,332L363,329L366,328L368,328L369,328L369,329L369,333L369,338L369,343L369,351L369,360L370,369L371,378L372,387L372,395L373,402L373,408L373,412L373,415L373,416L371,416L368,414L364,409L358,404L353,398L345,391L337,385L330,379L322,373L315,367L309,363L305,359L300,356L298,354L296,353L295,352L295,351L298,348L305,346L315,341L329,334L342,327L357,319L371,312L385,305L396,299L406,295L412,292L417,291L420,291L422,291L423,291L423,293L423,295L423,299L423,305L424,311L424,319L426,328L426,337L426,346L426,356L426,365L424,373L420,383L415,391L410,397L404,403L397,408L389,412L380,415L370,419L359,421L348,423L339,425" stroke-opacity="1" stroke-width="5" stroke-linecap="round" stroke-linejoin="round" style="-webkit-tap-highlight-color: rgba(0, 0, 0, 0); stroke-opacity: 1; stroke-linecap: round; stroke-linejoin: round; -webkit-user-select: text;"></path><path fill="none" stroke="#000000" d="M314,426L311,427L309,427L305,427L300,427L294,427L288,427L282,426L275,425L267,422L260,419L254,415L247,411L241,407L236,404L233,402L230,400L229,399L228,399L228,398L228,397L228,394L230,389L236,381L244,370L252,359L262,348L271,337L278,329L285,323L289,319L292,316L295,315L296,315L298,315L299,315L300,317L303,321L308,326L313,332L319,339L324,345L329,351L331,356L334,360L335,365L336,369L337,373L337,376L337,378L336,380L332,381L327,383L319,386L312,389L303,393L296,397L290,402L285,404L281,407L278,409L276,410L275,410L274,410L273,409L272,405L269,398L264,386L258,370L251,353L246,334L244,317" stroke-opacity="1" stroke-width="5" stroke-linecap="round" stroke-linejoin="round" style="-webkit-tap-highlight-color: rgba(0, 0, 0, 0); stroke-opacity: 1; stroke-linecap: round; stroke-linejoin: round; -webkit-user-select: text;"></path><path fill="none" stroke="#000000" d="M250,301L249,294L253,291L261,285L269,279L280,270L290,261L300,253L307,246L313,241L319,236L323,235L326,234L328,234L330,234L331,236L331,241L333,246L335,253L339,261L342,268L346,276L349,284L352,291L353,297L354,303L354,308L354,311L354,313L353,314L351,315L346,315L340,315L333,315L324,315L314,314L307,314L297,314L291,314L285,314L280,314L277,314L275,312L273,309L273,303L273,295L273,282L273,268L275,253L276,239L276,229L277,222L278,217L279,213L282,212L285,211L289,211L293,211L300,211L309,211L319,210L330,210L343,210L353,210L361,213L367,218L373,224L377,230L380,237L381,244L383,253L383,260L383,269L383,278L381,287L376,298L368,312L359,326" stroke-opacity="1" stroke-width="5" stroke-linecap="round" stroke-linejoin="round" style="-webkit-tap-highlight-color: rgba(0, 0, 0, 0); stroke-opacity: 1; stroke-linecap: round; stroke-linejoin: round; -webkit-user-select: text;"></path><path fill="none" stroke="#000000" d="M366,353L361,359L360,362L359,367L359,373L359,379L360,387L364,392L369,398L376,403L383,407L392,410L400,414L408,416L415,417L422,417L428,417L432,417L435,417L437,417L438,417L438,416L438,413L438,407L438,398L438,386L440,375L442,366L445,360L446,356L448,352L448,351L445,351L437,356L428,362L418,368L409,374L399,380L390,385L384,388L378,391L375,393L373,395L371,396L371,397L371,398L371,401L374,405L378,411L384,419L390,427L397,434L402,440L407,445L410,449L412,452L415,454L417,455L417,456L418,456L419,456L422,455L428,448L437,438L451,422L465,403L481,381" stroke-opacity="1" stroke-width="5" stroke-linecap="round" stroke-linejoin="round" style="-webkit-tap-highlight-color: rgba(0, 0, 0, 0); stroke-opacity: 1; stroke-linecap: round; stroke-linejoin: round; -webkit-user-select: text;"></path><path fill="none" stroke="#000000" d="M490,350L497,349L502,344L510,337L518,329L526,322L533,317L537,313L540,311L542,309L542,308L542,307L541,305L537,302L532,296L526,288L521,280L516,273L512,267L509,263L507,261L504,258L501,258L497,258L492,258L484,263L475,268L465,274L455,280L445,285L437,288L429,291L426,292L423,294L422,295L422,296L422,298L425,301L429,306L434,312L439,320L445,327L450,335L455,341L460,348L464,352L468,354L472,356L476,357L480,357L483,357L486,356L489,353L491,351L492,348L493,344L493,340L493,334L493,329L491,322L488,315L486,310L483,304L480,299L478,294L475,289L472,283L470,277L469,271L468,264L467,257L467,251L467,244L468,239L470,233L477,228L486,223L497,219" stroke-opacity="1" stroke-width="5" stroke-linecap="round" stroke-linejoin="round" style="-webkit-tap-highlight-color: rgba(0, 0, 0, 0); stroke-opacity: 1; stroke-linecap: round; stroke-linejoin: round; -webkit-user-select: text;"></path><path fill="none" stroke="#000000" d="M518,221L521,219L526,219L534,219L541,219L550,219L559,221L566,227L572,234L575,242L576,249L576,259L575,266L573,271L572,275L570,278L568,280L567,281L566,281L563,281L558,281L550,282L539,284L528,287L516,291L507,295L499,297L494,299L491,300L489,300L488,300L488,299L488,296L491,290L497,284L504,278L514,271L526,263L538,257L548,252L558,248L565,245L570,244L572,243L574,243L575,243L575,244L575,248L575,255L575,263L576,273L576,283L577,292L577,300L578,309L578,316L578,321L578,326L578,329L578,331L578,332L575,332L571,332L564,330L552,326L535,323L516,319L490,314L465,310" stroke-opacity="1" stroke-width="5" stroke-linecap="round" stroke-linejoin="round" style="-webkit-tap-highlight-color: rgba(0, 0, 0, 0); stroke-opacity: 1; stroke-linecap: round; stroke-linejoin: round; -webkit-user-select: text;"></path><path fill="none" stroke="#000000" d="M426,300L424,296L424,281L424,270L422,257L421,245L421,234L421,226L421,218L421,213L421,209L421,207L420,207L419,207L417,207L413,207L407,207L400,207L391,209L385,210L378,210L373,211L370,211L368,212L367,212L367,215L367,218L370,224L374,231L378,240L382,249L386,258L391,266L395,273L398,278L401,281L403,284L406,285L409,285L412,285L417,279L425,270L434,259L443,248L453,236L460,227L465,219L469,214L471,210L472,207L472,205L472,202L468,199L463,195L458,191L452,186L445,179L438,173L431,166L424,162L416,159L410,158L402,158L396,161L390,167L386,173L384,181L383,188L383,196L383,203L383,210L387,215L391,219L395,223L401,225L406,227L412,228L418,228L424,228L431,228L437,224L443,220L450,214L456,206L462,197L469,185L476,174L484,162L492,154" stroke-opacity="1" stroke-width="5" stroke-linecap="round" stroke-linejoin="round" style="-webkit-tap-highlight-color: rgba(0, 0, 0, 0); stroke-opacity: 1; stroke-linecap: round; stroke-linejoin: round; -webkit-user-select: text;"></path><path fill="none" stroke="#000000" d="M522,157L532,152L538,151L545,150L551,150L558,150L564,150L570,155L575,161L579,168L582,176L584,182L585,188L585,193L585,197L585,200L585,202L585,203L583,203L579,203L573,204L564,207L554,212L544,218L533,224L522,229L515,232L507,236L503,237L500,238L498,238L497,238L495,236L493,229L489,222L483,213L478,205L473,198L468,192L465,188L462,185L460,183L460,182L460,181L460,180L460,178L467,172L475,165L484,158L490,153L497,149L502,146L507,145L510,144L512,144L514,144L516,146L517,150L519,156L521,165L524,176L528,191L534,207L540,224L546,240L552,256" stroke-opacity="1" stroke-width="5" stroke-linecap="round" stroke-linejoin="round" style="-webkit-tap-highlight-color: rgba(0, 0, 0, 0); stroke-opacity: 1; stroke-linecap: round; stroke-linejoin: round; -webkit-user-select: text;"></path><path fill="none" stroke="#000000" d="M561,280L564,286L565,292L570,303L576,316L581,326L587,337L591,344L593,349L595,352L596,354L596,356L596,357L596,359L592,361L586,365L578,371L570,377L560,383L550,389L541,395L531,399L524,402L518,403L514,404L510,404L508,403L505,398L503,391L501,383L498,376L495,368L492,360L490,354L489,348L488,343L488,339L488,337L488,335L491,334L496,334L503,334L509,334L516,334L526,334L535,334L545,334L553,334L560,334L565,336L569,338L572,339L574,341L575,343L576,346L577,348L577,352L579,356L580,361L580,366L581,371L581,377L578,383L570,388L559,393L544,397L531,400L516,403L504,405L492,407L482,411L473,415L464,421L456,426L450,434L445,445L442,458L441,473L441,491L444,507" stroke-opacity="1" stroke-width="5" stroke-linecap="round" stroke-linejoin="round" style="-webkit-tap-highlight-color: rgba(0, 0, 0, 0); stroke-opacity: 1; stroke-linecap: round; stroke-linejoin: round; -webkit-user-select: text;"></path><path fill="none" stroke="#000000" d="M444,527L446,535L450,540L455,546L461,552L468,557L475,562L483,564L492,565L502,565L514,565L524,560L533,555L540,550L545,544L550,540L552,538L553,537L554,536L552,533L548,526L543,515L538,499L533,484L531,475L529,470L528,467L527,466L526,466L524,466L519,469L512,472L502,475L492,478L480,481L468,485L455,488L445,492L437,494L432,496L428,497L426,499L426,500L426,502L426,506L430,511L436,519L441,527L447,535L453,544L458,551L462,557L465,561L468,563L469,565L471,565L472,565L473,563L474,556L478,542L483,524L489,499L496,475L509,445" stroke-opacity="1" stroke-width="5" stroke-linecap="round" stroke-linejoin="round" style="-webkit-tap-highlight-color: rgba(0, 0, 0, 0); stroke-opacity: 1; stroke-linecap: round; stroke-linejoin: round; -webkit-user-select: text;"></path><path fill="none" stroke="#000000" d="M496,419L494,421L489,421L481,419L471,414L459,407L448,400L440,394L432,389L427,385L424,384L421,382L419,382L418,385L416,390L413,398L408,409L400,424L392,438L384,452L376,465L371,472L368,477L367,479L367,480L368,480L374,480L381,480L391,480L403,482L414,483L425,486L433,488L439,489L445,490L449,490L452,490L454,487L455,479L456,466L457,451L459,431L461,411L462,397L463,382L464,373L464,368L464,364L464,362L461,361L454,361L444,361L431,361L418,363L404,366L392,370L381,374L373,379L367,384L363,391L360,398L359,405L359,412L359,420L361,427L365,433L369,439L373,444L376,448L382,453L387,456L393,460L400,465L406,469L411,474L416,479L420,484L423,489L426,494L427,499L428,504L429,509L429,514L429,519L425,526L419,532L409,540" stroke-opacity="1" stroke-width="5" stroke-linecap="round" stroke-linejoin="round" style="-webkit-tap-highlight-color: rgba(0, 0, 0, 0); stroke-opacity: 1; stroke-linecap: round; stroke-linejoin: round; -webkit-user-select: text;"></path><path fill="none" stroke="#000000" d="M385,555L381,558L378,558L373,559L366,559L359,560L349,560L339,560L328,560L317,558L309,557L301,554L295,552L290,551L287,549L285,548L284,547L283,547L283,546L283,545L283,544L283,542L283,539L283,532L287,522L293,509L300,497L307,485L316,473L323,462L328,455L331,451L334,449L336,449L337,449L339,449L341,452L345,458L349,463L355,469L362,474L368,479L373,483L377,487L379,489L381,492L381,494L381,497L380,501L375,506L368,514L362,522L355,531L349,542L343,552L338,561L334,568L332,573L330,577L329,581L328,582L327,582L325,579L322,568L317,553L311,539L304,525L296,511L289,497L285,482L284,467" stroke-opacity="1" stroke-width="5" stroke-linecap="round" stroke-linejoin="round" style="-webkit-tap-highlight-color: rgba(0, 0, 0, 0); stroke-opacity: 1; stroke-linecap: round; stroke-linejoin: round; -webkit-user-select: text;"></path><path fill="none" stroke="#000000" d="M276,454L271,457L266,457L260,460L253,463L243,467L233,471L223,475L215,477L208,480L203,480L200,481L198,482L198,483L198,484L200,488L203,494L207,501L212,510L217,520L222,529L225,537L229,544L232,549L234,552L236,555L237,555L238,555L240,555L242,554L248,548L256,540L265,530L275,520L282,513L289,507L293,504L296,501L297,500L298,499L298,498L295,496L290,491L283,482L276,471L268,460L260,449L254,441L247,433L244,430L240,428L237,428L234,428L230,429L224,436L216,446L208,456L201,465L193,474L188,480L185,485L184,489L184,493L184,497L185,501L190,507L195,512L201,518L208,522L215,526L222,528L228,530L236,531L243,531L250,531L256,530L262,527L267,523L272,518L276,511L279,505L283,497L286,489L290,482L294,472L298,464L303,458L309,450L317,443" stroke-opacity="1" stroke-width="5" stroke-linecap="round" stroke-linejoin="round" style="-webkit-tap-highlight-color: rgba(0, 0, 0, 0); stroke-opacity: 1; stroke-linecap: round; stroke-linejoin: round; -webkit-user-select: text;"></path><path fill="none" stroke="#000000" d="M342,444L348,442L353,442L361,442L372,443L383,445L394,449L404,454L413,460L421,468L425,475L428,483L428,492L428,500L428,506L427,511L426,514L424,516L423,517L421,518L415,520L407,525L397,531L383,538L372,545L363,550L355,554L349,557L345,558L342,559L339,559L338,559L337,559L336,557L336,552L334,546L333,537L331,528L328,518L326,510L323,505L321,502L319,499L318,498L323,497L332,495L343,492L358,488L371,485L384,482L393,481L400,480L404,479L408,479L409,479L409,480L410,485L413,496L415,514L416,536L416,560L416,582" stroke-opacity="1" stroke-width="5" stroke-linecap="round" stroke-linejoin="round" style="-webkit-tap-highlight-color: rgba(0, 0, 0, 0); stroke-opacity: 1; stroke-linecap: round; stroke-linejoin: round; -webkit-user-select: text;"></path><path fill="none" stroke="#000000" d="M417,596L416,600L418,605L422,613L425,623L428,630L430,639L432,646L433,652L434,657L434,660L435,662L435,663L435,664L436,664L439,664L445,662L453,657L462,652L472,646L482,639L491,633L498,627L503,623L506,620L507,618L507,616L507,614L507,612L502,608L495,603L487,596L479,590L473,586L468,583L465,581L463,579L461,579L460,580L457,584L451,591L443,600L432,610L421,620L411,628L404,634L398,639L395,642L392,645L392,647L392,648L392,650L396,653L401,657L409,663L417,669L425,674L433,679L440,683L446,686L451,688L454,690L458,691L460,691L461,691L462,691L463,690L463,687L463,683L464,678L464,671L464,664L464,655L464,645L464,638L464,630L464,621L464,613L465,603L467,593L471,584L476,577L482,570L491,565L502,561L514,561L528,567" stroke-opacity="1" stroke-width="5" stroke-linecap="round" stroke-linejoin="round" style="-webkit-tap-highlight-color: rgba(0, 0, 0, 0); stroke-opacity: 1; stroke-linecap: round; stroke-linejoin: round; -webkit-user-select: text;"></path><path fill="none" stroke="#000000" d="M541,579L545,583L549,586L553,591L556,596L558,602L560,608L562,614L564,620L566,626L569,631L573,635L578,638L585,640L592,640L600,640L607,639L613,635L618,631L621,628L623,624L624,622L624,619L624,617L623,615L620,611L616,606L612,597L609,588L606,578L604,570L602,563L601,559L599,556L597,555L595,555L590,555L583,557L572,563L560,570L551,575L541,581L533,584L528,586L524,586L522,587L522,588L522,589L523,590L527,594L532,600L538,608L545,617L551,626L557,635L562,644L565,650L568,655L571,657L573,659L574,660L575,660L576,658L577,651L581,639L585,621L589,603L593,585L596,565L600,536" stroke-opacity="1" stroke-width="5" stroke-linecap="round" stroke-linejoin="round" style="-webkit-tap-highlight-color: rgba(0, 0, 0, 0); stroke-opacity: 1; stroke-linecap: round; stroke-linejoin: round; -webkit-user-select: text;"></path><path fill="none" stroke="#000000" d="M595,507L590,506L582,505L572,502L561,499L549,497L540,495L528,494L521,494L514,494L509,493L507,492L505,492L505,490L505,487L507,478L515,463L525,448L533,433L538,422L543,415L546,410L548,407L550,405L552,405L555,405L558,408L564,413L572,420L580,426L591,435L601,443L609,450L615,456L619,460L621,464L623,467L623,470L619,475L611,482L601,492L591,503L580,514L570,526L561,536L555,544L551,550L547,553L545,555L543,555L541,555L538,553L532,545L525,537L516,526L507,516L499,508L492,499L485,492L480,485L477,480L475,474L474,467L474,460L476,454L483,448L490,445L498,443L507,443L514,443L522,443L529,446L535,449L541,451L546,454L552,457L558,459L562,460L567,462L571,462L575,462L578,462L581,462L584,462L586,460L588,457L591,450L594,441L596,433L599,422L600,412" stroke-opacity="1" stroke-width="5" stroke-linecap="round" stroke-linejoin="round" style="-webkit-tap-highlight-color: rgba(0, 0, 0, 0); stroke-opacity: 1; stroke-linecap: round; stroke-linejoin: round; -webkit-user-select: text;"></path><path fill="none" stroke="#000000" d="M600,397L599,391L599,385L599,379L599,369L599,358L599,347L599,339L599,334L599,331L599,329L597,330L591,333L580,337L568,342L553,347L539,351L528,354L519,356L513,358L509,360L507,361L506,363L506,365L507,369L511,375L515,383L520,392L525,401L531,409L536,416L541,422L546,427L550,430L554,431L558,431L563,430L569,423L575,413L581,402L585,390L587,380L587,371L587,364L587,357L586,352L584,348L582,343L580,339L579,334L577,331L576,328L575,325L574,324L574,322L575,322L579,321L587,319L598,317L610,313L622,310L635,306L649,300L657,296" stroke-opacity="1" stroke-width="5" stroke-linecap="round" stroke-linejoin="round" style="-webkit-tap-highlight-color: rgba(0, 0, 0, 0); stroke-opacity: 1; stroke-linecap: round; stroke-linejoin: round; -webkit-user-select: text;"></path><path fill="none" stroke="#000000" d="M669,288L666,284L666,280L665,275L663,267L660,258L658,249L656,239L654,232L653,227L652,223L651,221L650,220L648,220L644,220L637,222L627,226L615,231L603,235L592,239L583,241L576,242L572,243L569,244L568,244L568,245L570,248L573,253L578,259L584,268L589,276L594,284L599,292L604,298L609,303L613,306L617,307L621,308L625,308L628,306L630,301L631,292L632,283L632,270L632,258L628,248L624,238L621,231L616,224L611,217L606,208L602,199L600,188L599,179L599,168L600,158L604,151L609,145L614,141L620,138L625,137L630,137L637,137L643,137L648,139L652,142L657,146L660,150L663,154L665,157L667,161L668,165L669,168L669,171L669,181" stroke-opacity="1" stroke-width="5" stroke-linecap="round" stroke-linejoin="round" style="-webkit-tap-highlight-color: rgba(0, 0, 0, 0); stroke-opacity: 1; stroke-linecap: round; stroke-linejoin: round; -webkit-user-select: text;"></path><path fill="none" stroke="#000000" d="M664,217L661,221L656,224L650,227L640,233L627,240L615,247L605,252L595,257L587,260L581,263L576,264L571,264L568,264L566,264L565,264L564,264L562,263L562,261L561,258L560,256L560,252L560,246L560,239L562,229L566,219L568,211L570,204L571,199L572,195L573,193L574,193L575,193L577,193L582,193L589,194L599,196L611,198L619,200L628,202L634,204L638,205L642,208L644,212L644,217L644,225L642,235L637,246L633,257L630,267L628,274L626,281L626,287L626,292L626,295L626,296L626,297L625,297L624,297L621,294L617,285L612,275L606,263L599,250L592,237L584,222L575,207L567,190L558,173L553,156" stroke-opacity="1" stroke-width="5" stroke-linecap="round" stroke-linejoin="round" style="-webkit-tap-highlight-color: rgba(0, 0, 0, 0); stroke-opacity: 1; stroke-linecap: round; stroke-linejoin: round; -webkit-user-select: text;"></path><path fill="none" stroke="#000000" d="M535,141L532,134L530,132L526,127L520,119L515,110L509,100L504,91L501,85L498,80L496,78L494,76L492,76L489,76L482,81L472,87L458,95L444,104L431,112L423,117L416,120L412,122L411,123L411,124L411,125L411,126L413,129L417,134L420,140L425,149L431,159L436,169L443,179L449,187L454,193L458,196L462,198L465,199L468,199L471,199L473,195L475,190L477,182L477,173L477,162L477,150L473,139L468,128L461,118L455,110L449,102L444,96L440,91L437,86L435,81L435,76L435,70L438,64L446,59L453,54L461,51L471,49L481,49L488,49L498,49L505,51L512,54L517,59L522,64L525,69L528,74L529,79L529,86L529,92L529,100L527,108L522,116L516,124L505,134L489,149" stroke-opacity="1" stroke-width="5" stroke-linecap="round" stroke-linejoin="round" style="-webkit-tap-highlight-color: rgba(0, 0, 0, 0); stroke-opacity: 1; stroke-linecap: round; stroke-linejoin: round; -webkit-user-select: text;"></path><path fill="none" stroke="#000000" d="M457,161L455,166L451,166L446,167L440,167L432,167L424,167L414,163L405,158L395,149L386,140L377,130L370,122L363,114L359,109L355,105L353,103L350,101L348,101L346,101L344,103L340,108L335,116L329,125L321,139L313,151L307,161L303,168L301,173L300,176L300,178L300,179L302,181L307,182L314,185L322,189L331,194L339,199L348,205L354,209L359,212L363,213L367,215L369,215L370,215L372,213L375,203L380,188L384,172L388,154L392,139L395,127L397,117L398,109L398,103L398,99L398,96L395,95L390,94L383,94L373,94L363,95L353,96L344,98L335,100L328,100L321,101L314,101L308,101L303,101L300,100L297,100L295,99L293,98L291,98" stroke-opacity="1" stroke-width="5" stroke-linecap="round" stroke-linejoin="round" style="-webkit-tap-highlight-color: rgba(0, 0, 0, 0); stroke-opacity: 1; stroke-linecap: round; stroke-linejoin: round; -webkit-user-select: text;"></path><path fill="none" stroke="#000000" d="M283,107L278,108L273,112L266,119L256,128L244,137L232,147L220,155L211,161L203,166L199,169L196,171L195,171L195,172L199,173L203,176L210,180L217,184L225,190L234,196L243,202L251,207L257,212L263,215L266,217L270,218L272,218L273,218L275,218L276,212L280,201L286,185L293,170L300,156L304,146L306,139L307,136L307,133L307,131L300,129L292,127L283,124L273,119L263,114L254,108L245,102L237,97L231,94L226,93L222,93L217,93L211,99L205,108L198,120L194,131L191,143L190,153L190,162L190,171L190,179L193,186L197,192L201,197L205,201L210,204L216,206L221,207L226,207L233,207L239,207L244,206L249,203L254,199L259,193L262,188L265,181L267,176L269,169L271,161L273,154L274,147L275,141L277,134L278,127L280,120L283,112L285,105L289,98L294,89L303,80L313,74L325,69" stroke-opacity="1" stroke-width="5" stroke-linecap="round" stroke-linejoin="round" style="-webkit-tap-highlight-color: rgba(0, 0, 0, 0); stroke-opacity: 1; stroke-linecap: round; stroke-linejoin: round; -webkit-user-select: text;"></path><path fill="none" stroke="#000000" d="M339,73L345,71L351,71L359,71L368,69L378,69L387,68L394,68L400,68L405,68L409,68L410,68L411,68L411,69L411,72L411,76L409,83L407,91L403,103L397,117L392,132L387,147L384,158L380,168L378,176L376,180L375,183L373,184L372,184L369,184L364,180L356,175L346,169L334,161L322,154L312,149L304,144L297,140L293,137L289,135L288,133L288,132L288,131L290,130L300,127L314,123L330,119L348,115L366,112L382,110L395,108L406,106L414,105L418,105L421,105L423,105L423,106L422,109L418,114L409,126L392,146L371,170L346,195L322,220" stroke-opacity="1" stroke-width="5" stroke-linecap="round" stroke-linejoin="round" style="-webkit-tap-highlight-color: rgba(0, 0, 0, 0); stroke-opacity: 1; stroke-linecap: round; stroke-linejoin: round; -webkit-user-select: text;"></path><path fill="none" stroke="#000000" d="M297,229L295,232L291,235L285,239L277,246L266,253L256,261L248,268L238,275L229,283L221,290L215,294L212,297L209,298L207,299L205,299L204,299L202,298L199,293L193,288L185,282L177,276L169,271L162,268L157,265L153,263L150,262L149,260L149,258L149,253L155,246L164,236L172,226L180,218L189,211L196,205L202,201L207,198L211,197L214,197L217,197L220,198L222,203L226,210L230,217L235,226L240,236L245,245L251,254L256,263L261,271L264,278L268,286L270,291L271,295L271,299L271,302L271,304L268,307L262,310L256,314L247,319L238,323L229,327L220,329L210,329L200,329L192,329L184,328L177,325L171,321L166,317L162,312L159,308L156,303L153,298L151,293L149,287L149,283L149,277L149,272L149,266L149,262L151,258L154,254L157,251L159,249L160,246L161,243L162,241L162,237L162,234L162,230L160,225L157,220L155,215L152,210L147,204L143,199L137,194" stroke-opacity="1" stroke-width="5" stroke-linecap="round" stroke-linejoin="round" style="-webkit-tap-highlight-color: rgba(0, 0, 0, 0); stroke-opacity: 1; stroke-linecap: round; stroke-linejoin: round; -webkit-user-select: text;"></path><path fill="none" stroke="#000000" d="M129,195L125,191L121,191L116,190L109,190L100,190L91,190L81,193L71,200L62,210L54,221L49,230L46,237L45,242L44,244L44,246L45,247L48,248L52,253L58,261L62,271L66,281L69,292L71,301L72,308L73,312L75,315L76,315L78,315L81,314L89,308L99,300L110,291L123,281L135,271L147,263L155,256L161,251L164,249L166,246L166,245L166,244L165,244L158,242L149,239L139,235L127,231L114,228L102,226L92,225L82,225L76,225L71,225L68,225L66,226L65,227L65,228L65,229L65,232L65,236L69,245L75,258L84,273L92,288L101,305L110,324L118,346L121,367" stroke-opacity="1" stroke-width="5" stroke-linecap="round" stroke-linejoin="round" style="-webkit-tap-highlight-color: rgba(0, 0, 0, 0); stroke-opacity: 1; stroke-linecap: round; stroke-linejoin: round; -webkit-user-select: text;"></path><path fill="none" stroke="#000000" d="M128,400L127,407L127,409L130,411L133,411L141,411L149,410L159,405L171,397L184,388L196,380L205,375L212,371L217,369L221,368L222,367L223,367L223,366L223,364L220,359L215,353L209,344L203,334L197,325L193,319L189,314L187,311L185,309L183,309L181,309L177,312L169,318L159,327L148,336L138,345L130,351L125,356L121,360L119,363L118,365L118,368L118,370L121,373L126,378L132,384L138,391L145,398L152,406L158,415L164,424L169,432L172,438L175,442L178,445L179,447L181,447L182,447L184,444L188,435L195,421L202,407L208,392L212,378L216,366L219,353L221,341L221,333L221,326L220,322L216,317L210,313L202,308L194,302L186,296L180,292L174,289L169,288L162,288L155,290L148,297L142,304L137,312L134,319L131,328L128,337L127,346L127,353L127,360L127,368L127,375L130,382L132,389L135,395L139,402L144,408L148,414L152,421L156,429L158,438L159,448L159,459" stroke-opacity="1" stroke-width="5" stroke-linecap="round" stroke-linejoin="round" style="-webkit-tap-highlight-color: rgba(0, 0, 0, 0); stroke-opacity: 1; stroke-linecap: round; stroke-linejoin: round; -webkit-user-select: text;"></path><path fill="none" stroke="#000000" d="M166,482L163,484L163,487L163,490L162,495L159,500L155,506L151,511L145,516L139,522L133,527L126,533L119,538L113,542L108,547L104,550L101,552L98,555L96,555L94,555L93,555L92,550L90,544L88,536L85,528L81,521L78,514L74,508L71,504L69,502L68,500L68,498L68,497L68,495L73,491L81,483L93,473L105,463L114,456L123,450L129,446L134,445L137,444L139,444L142,444L143,446L145,451L147,456L150,464L153,473L157,482L162,493L167,503L173,513L178,523L182,533L185,541L188,548L189,554L189,558L189,561L189,563L187,564L182,564L175,565L165,565L154,565L144,565L133,565L125,565L118,565L113,564L109,563L106,563L103,562L101,562L100,561L98,561L97,561L96,560L94,560L93,560L93,559L93,557L98,550L108,537L122,519L138,501L155,479" stroke-opacity="1" stroke-width="5" stroke-linecap="round" stroke-linejoin="round" style="-webkit-tap-highlight-color: rgba(0, 0, 0, 0); stroke-opacity: 1; stroke-linecap: round; stroke-linejoin: round; -webkit-user-select: text;"></path><path fill="none" stroke="#000000" d="M161,484L162,478L169,472L179,462L191,452L202,441L212,432L219,426L224,421L228,419L230,418L232,418L233,418L234,419L236,421L239,426L244,431L249,437L256,444L262,450L268,456L273,462L278,468L282,474L283,479L284,484L284,492L280,499L273,506L265,514L256,523L247,531L239,539L232,547L227,553L224,557L221,560L219,562L218,562L217,562L215,555L212,539L208,525L205,513L201,500L197,489L193,480L189,472L187,466L186,461L186,458L186,456L186,455L188,455L194,454L204,452L215,451L227,451L239,451L250,453L260,457L268,462L276,468L281,474L285,480L289,487L291,493L293,499L293,506L294,512L294,518L294,525L294,531L291,538L288,544L285,552L281,559L278,565L274,571L270,577L267,582L264,587L261,591L259,596L258,600L257,606L257,612L257,623L258,637" stroke-opacity="1" stroke-width="5" stroke-linecap="round" stroke-linejoin="round" style="-webkit-tap-highlight-color: rgba(0, 0, 0, 0); stroke-opacity: 1; stroke-linecap: round; stroke-linejoin: round; -webkit-user-select: text;"></path><path fill="none" stroke="#000000" d="M266,659L266,663L266,667L270,673L275,679L282,686L288,690L296,694L304,697L312,700L321,701L328,703L335,703L339,704L343,704L346,705L347,705L347,701L346,694L344,680L344,665L344,650L346,637L348,629L350,624L350,621L351,620L347,620L339,623L329,626L318,630L307,633L296,635L285,638L276,642L269,645L262,650L258,652L256,655L254,657L254,658L254,660L258,664L263,669L271,676L278,684L285,695L292,704L298,715L302,724L306,730L308,735L310,737L311,739L311,735L311,727L310,709L310,687L310,660L314,633L321,604" stroke-opacity="1" stroke-width="5" stroke-linecap="round" stroke-linejoin="round" style="-webkit-tap-highlight-color: rgba(0, 0, 0, 0); stroke-opacity: 1; stroke-linecap: round; stroke-linejoin: round; -webkit-user-select: text;"></path><path fill="none" stroke="#000000" d="M298,589L298,593L294,593L288,593L279,594L269,594L259,595L246,595L234,595L224,595L214,595L208,595L203,595L200,595L198,595L198,596L198,599L198,603L199,611L201,622L203,634L205,647L207,661L208,673L210,682L211,689L212,694L214,697L215,698L215,699L216,699L216,698L217,695L220,689L225,681L231,671L240,659L249,650L257,640L264,633L269,626L273,622L274,618L275,615L275,612L274,608L269,601L263,593L257,584L250,574L243,566L238,560L234,556L230,554L227,552L223,552L219,552L213,552L204,557L194,564L185,571L176,578L169,586L164,594L161,602L159,612L159,621L159,629L159,636L164,642L168,647L174,652L180,657L185,659L191,662L198,664L204,665L211,667L219,669L227,671L233,674L239,676L244,679L249,682L253,685L256,688L259,691L262,694L264,698L266,702L266,709L266,719" stroke-opacity="1" stroke-width="5" stroke-linecap="round" stroke-linejoin="round" style="-webkit-tap-highlight-color: rgba(0, 0, 0, 0); stroke-opacity: 1; stroke-linecap: round; stroke-linejoin: round; -webkit-user-select: text;"></path><path fill="none" stroke="#000000" d="M256,735L256,741L255,743L253,747L249,751L244,756L238,761L232,765L226,770L220,774L214,779L210,782L206,785L203,787L200,788L198,789L197,790L195,790L194,790L192,789L188,785L181,779L175,774L168,770L161,766L156,764L151,762L147,761L143,759L141,758L140,757L140,755L140,751L144,742L153,729L164,715L176,701L188,689L199,680L208,673L215,669L220,667L225,667L230,667L234,670L238,676L242,685L247,695L254,707L261,720L267,732L273,743L278,754L281,762L283,768L284,773L285,776L285,778L285,779L283,779L277,779L266,772L251,763L234,749L221,740L207,730L193,721L179,713L164,703L151,691" stroke-opacity="1" stroke-width="5" stroke-linecap="round" stroke-linejoin="round" style="-webkit-tap-highlight-color: rgba(0, 0, 0, 0); stroke-opacity: 1; stroke-linecap: round; stroke-linejoin: round; -webkit-user-select: text;"></path><path fill="none" stroke="#000000" d="M130,663L128,655L125,650L119,643L112,636L103,629L94,622L87,616L82,611L79,609L78,608L76,606L77,605L80,603L86,599L94,591L106,582L118,572L130,563L142,555L150,550L157,546L162,544L166,544L169,544L171,547L174,554L176,564L178,576L181,589L184,602L187,616L189,628L190,637L191,644L191,650L191,654L191,656L188,657L184,657L177,656L166,649L153,642L139,637L128,633L117,629L106,625L98,621L90,617L84,612L80,607L78,601L76,595L76,586L78,575L84,565L93,554L104,545L113,539L124,534L132,531L141,530L148,530L156,530L163,530L169,533L174,537L180,541L185,546L190,551L195,557L200,563L205,569L211,574L216,580L222,585L228,589L234,594L241,597L246,599L253,601L261,601L269,601L280,595L290,583" stroke-opacity="1" stroke-width="5" stroke-linecap="round" stroke-linejoin="round" style="-webkit-tap-highlight-color: rgba(0, 0, 0, 0); stroke-opacity: 1; stroke-linecap: round; stroke-linejoin: round; -webkit-user-select: text;"></path><path fill="none" stroke="#000000" d="M310,582L311,574L314,569L325,561L334,556L342,553L351,552L363,552L373,553L382,560L389,569L393,580L394,589L395,600L395,606L395,611L395,615L395,617L395,618L395,619L394,620L389,621L382,625L372,630L361,635L349,642L337,649L328,654L320,658L314,661L311,662L309,663L308,663L308,661L308,656L310,646L315,635L322,623L331,613L340,603L349,597L357,590L363,586L367,583L370,582L372,582L374,582L376,582L379,585L383,590L388,596L394,601L402,608L409,616L417,623L424,630L430,636L434,642L437,646L439,650L440,653L441,655L441,657L439,659L434,664L426,672L414,685L398,703L379,720" stroke-opacity="1" stroke-width="5" stroke-linecap="round" stroke-linejoin="round" style="-webkit-tap-highlight-color: rgba(0, 0, 0, 0); stroke-opacity: 1; stroke-linecap: round; stroke-linejoin: round; -webkit-user-select: text;"></path><path fill="none" stroke="#000000" d="M374,737L373,737L378,737L387,742L396,748L405,754L414,761L423,768L431,774L437,778L442,781L446,784L450,785L453,785L455,785L458,778L462,766L469,749L476,733L483,718L489,708L493,702L496,698L497,696L497,695L494,695L487,695L479,694L467,691L455,689L442,684L429,681L418,677L410,676L404,675L401,675L399,675L399,676L402,681L408,690L416,702L424,714L431,726L438,735L446,744L453,752L460,756L467,759L473,760L482,760L489,760L497,758L504,754L511,749L516,743L521,737L524,732L525,725L526,719L526,712L526,705L525,698L523,693L519,686L515,679L510,672L505,666L499,660L492,655L486,650L480,645L475,641L469,637L464,633L458,629L453,624L449,619L446,613L442,608L440,602L438,595L438,588L438,580L442,570L456,561" stroke-opacity="1" stroke-width="5" stroke-linecap="round" stroke-linejoin="round" style="-webkit-tap-highlight-color: rgba(0, 0, 0, 0); stroke-opacity: 1; stroke-linecap: round; stroke-linejoin: round; -webkit-user-select: text;"></path><path fill="none" stroke="#000000" d="M468,559L465,555L468,550L475,545L483,540L493,534L504,530L515,526L525,525L533,524L538,524L543,524L547,524L548,525L549,526L549,527L549,528L549,530L549,533L549,539L549,546L549,556L549,569L549,581L550,593L552,602L554,609L555,615L556,619L557,621L557,622L555,622L550,622L541,622L527,622L513,622L498,622L484,622L471,623L461,625L452,625L444,625L439,625L435,625L434,623L434,620L434,615L436,609L443,601L453,591L465,580L478,570L491,561L500,555L509,550L514,547L518,545L521,543L524,542L525,542L526,542L527,542L528,542L529,545L532,550L534,560L537,571L539,583L542,594L544,602L547,611L548,619L550,626L551,632L553,636L554,640L556,645L558,652L561,660L563,672L566,683" stroke-opacity="1" stroke-width="5" stroke-linecap="round" stroke-linejoin="round" style="-webkit-tap-highlight-color: rgba(0, 0, 0, 0); stroke-opacity: 1; stroke-linecap: round; stroke-linejoin: round; -webkit-user-select: text;"></path><path fill="none" stroke="#000000" d="M569,708L572,708L577,705L583,698L591,691L602,679L615,668L628,657L639,648L647,642L652,639L655,637L655,636L656,635L656,634L652,631L649,625L645,616L640,606L633,596L627,586L621,578L617,573L613,569L610,566L607,565L604,565L601,565L596,567L586,574L573,585L557,600L545,611L533,623L526,630L520,635L517,639L516,641L516,643L516,644L519,646L526,651L536,656L546,662L557,669L567,676L577,682L586,688L593,692L600,696L606,697L610,698L613,698L617,698L620,694L623,687L627,679L629,671L630,663L630,654L630,645L628,638L624,631L620,624L615,618L610,612L605,606L600,600L596,594L592,589L587,584L583,578L579,572L575,566L572,561L570,555L568,548L567,542L566,535L566,529L566,523L566,517L569,511L573,505L579,500L588,494L601,488" stroke-opacity="1" stroke-width="5" stroke-linecap="round" stroke-linejoin="round" style="-webkit-tap-highlight-color: rgba(0, 0, 0, 0); stroke-opacity: 1; stroke-linecap: round; stroke-linejoin: round; -webkit-user-select: text;"></path><path fill="none" stroke="#000000" d="M617,502L622,497L628,494L633,494L638,494L643,494L650,494L657,494L664,495L671,495L677,495L684,493L689,488L693,483L696,477L699,470L700,464L701,460L701,457L701,455L698,455L691,455L683,455L674,455L662,455L649,455L634,455L617,455L604,457L592,459L584,460L579,461L576,461L575,462L575,464L575,466L577,470L582,476L587,485L592,494L598,504L604,515L609,525L615,535L621,544L627,552L632,556L635,560L639,562L642,563L644,563L647,563L650,561L653,557L656,554L659,550L662,545L666,540L669,536L670,533L672,529L672,526L672,523L672,518L671,514L668,509L665,504L662,499L658,493L654,487L648,479L643,468L634,454L626,438L619,421L616,407L616,390" stroke-opacity="1" stroke-width="5" stroke-linecap="round" stroke-linejoin="round" style="-webkit-tap-highlight-color: rgba(0, 0, 0, 0); stroke-opacity: 1; stroke-linecap: round; stroke-linejoin: round; -webkit-user-select: text;"></path><path fill="none" stroke="#000000" d="M587,396L585,393L589,392L597,387L607,382L619,374L631,366L642,358L651,351L659,345L664,341L667,340L669,339L670,339L670,340L671,342L673,346L677,351L683,357L689,364L696,373L703,381L708,387L711,394L713,400L713,404L713,410L712,414L707,416L702,418L696,419L686,420L676,422L664,425L653,429L642,433L632,438L625,442L620,444L616,446L613,446L612,446L611,446L609,439L606,431L601,421L596,410L591,400L585,390L579,382L575,376L572,371L569,366L568,361L568,353L569,343L577,331L584,324L591,320L597,318L604,317L611,317L616,317L621,319L627,323L633,326L640,329L645,331L652,332L659,333L665,333L670,333L675,332L680,330L683,327L686,324L689,319L691,315L694,310L695,305L697,300L698,296L698,291L699,287L699,284L699,280L699,277L698,273L696,270L693,266L690,262L686,258L683,254L679,250L674,246L669,241L664,236L658,231L651,225L645,220L638,213L631,206L626,198L621,188" stroke-opacity="1" stroke-width="5" stroke-linecap="round" stroke-linejoin="round" style="-webkit-tap-highlight-color: rgba(0, 0, 0, 0); stroke-opacity: 1; stroke-linecap: round; stroke-linejoin: round; -webkit-user-select: text;"></path><path fill="none" stroke="#000000" d="M602,179L601,172L603,166L608,159L613,149L618,140L623,131L628,124L633,119L638,117L643,116L649,116L655,116L662,120L671,125L680,129L689,134L696,139L703,144L708,149L712,153L713,156L713,161L712,166L701,175L690,184L678,194L666,205L655,215L648,222L641,230L636,236L633,241L631,243L630,244L629,245L628,245L627,245L624,241L619,235L611,227L600,216L590,205L580,193L571,183L563,176L555,169L548,164L543,159L538,156L534,154L531,151L529,150L529,149L530,148L535,147L548,140L570,129L602,113" stroke-opacity="1" stroke-width="5" stroke-linecap="round" stroke-linejoin="round" style="-webkit-tap-highlight-color: rgba(0, 0, 0, 0); stroke-opacity: 1; stroke-linecap: round; stroke-linejoin: round; -webkit-user-select: text;"></path></svg>