<svg height="868" version="1.1" width="768" xmlns="http://www.w3.org/2000/svg" xmlns:xlink="http://www.w3.org/1999/xlink" style="overflow: hidden; position: relative; -webkit-user-select: text;"><desc style="-webkit-tap-highlight-color: rgba(0, 0, 0, 0); -webkit-user-select: text;">Created with Raphaël 2.2.0</desc><defs style="-webkit-tap-highlight-color: rgba(0, 0, 0, 0); -webkit-user-select: text;"></defs><path fill="none" stroke="#000000" d="M275,324L268,329L276,327L285,322L299,313L313,302L330,288L348,275L366,261L385,250L401,240L412,233L421,229L425,227L428,227L429,227L429,229L429,234L427,243L425,255L424,268L422,283L420,301L418,320L416,341L414,362L413,381L412,395L410,409L409,417L408,422L407,424L405,425L402,425L398,421L392,415L385,407L375,394L366,382L355,369L341,353L328,337L315,320L303,304L294,292L287,284L281,278L277,273L275,271L273,270L276,270L284,270L296,271L314,272L336,272L360,272L388,272L413,271L435,269L458,268L477,267L490,267L498,267L503,267L506,267L506,268L506,271L503,276L495,286L484,299L470,317L456,335L443,357L428,381L413,404L400,426L388,445L380,460L372,472L367,480L363,486L360,489L357,491L355,492L353,492L350,491L345,486L338,480L328,469L317,457L302,441L290,430L279,419L271,412L265,407L259,402L255,397L251,394L249,391L247,387L246,384L246,378L246,372L253,364L264,354L279,346L301,338L324,333L343,331L363,330L383,330L401,337L418,349L433,365L444,385L453,411L455,441L455,472" stroke-opacity="1" stroke-width="5" stroke-linecap="round" stroke-linejoin="round" style="-webkit-tap-highlight-color: rgba(0, 0, 0, 0); stroke-opacity: 1; stroke-linecap: round; stroke-linejoin: round; -webkit-user-select: text;"></path><path fill="none" stroke="#000000" d="M442,524L442,528L442,532L440,539L434,549L426,560L414,572L399,586L383,599L366,613L349,625L335,634L322,642L309,650L300,655L293,657L288,659L285,660L282,660L280,661L279,661L278,661L277,661L275,659L270,653L262,642L253,629L243,614L232,599L223,586L214,575L207,568L203,562L200,558L198,555L198,552L203,548L213,541L227,533L245,522L266,510L288,497L311,484L332,472L351,462L366,455L379,452L387,451L393,451L397,453L399,458L399,466L400,475L402,488L405,501L409,517L413,532L417,548L421,565L425,580L427,594L428,608L428,621L428,632L427,640L424,645L420,647L415,649L409,649L401,647L391,643L381,638L368,630L355,623L340,613L322,602L307,594L290,586L276,579L264,574L253,570L245,567L237,564L231,562L227,561L224,560L223,559L224,559L233,559L251,557L280,552L314,545L352,538L395,526L439,511" stroke-opacity="1" stroke-width="5" stroke-linecap="round" stroke-linejoin="round" style="-webkit-tap-highlight-color: rgba(0, 0, 0, 0); stroke-opacity: 1; stroke-linecap: round; stroke-linejoin: round; -webkit-user-select: text;"></path><path fill="none" stroke="#000000" d="M463,498L464,494L471,493L485,492L500,491L515,490L529,489L542,487L551,486L559,485L564,484L568,484L570,484L570,483L570,482L570,481L569,477L565,470L562,459L558,446L554,429L550,414L547,399L544,386L542,373L541,365L538,359L536,355L533,353L528,352L519,352L507,352L490,355L472,357L453,360L436,361L422,362L411,363L403,364L399,365L396,368L396,371L396,378L400,387L404,398L411,412L416,425L421,439L427,451L433,462L439,472L446,480L452,485L458,488L464,489L471,489L480,489L491,487L502,482L514,475L525,467L535,458L545,448L553,436L560,422L566,407L569,394L570,380L570,367L567,354L560,341L551,330L540,321L527,312L513,305L497,300L482,296L469,295L454,295L439,298L426,305L415,313L409,321L404,331L402,339L401,348L401,357L403,365L409,374L415,381L421,387L428,391L436,395L443,398L453,400L465,402L479,402L500,402L528,399L561,389L596,377" stroke-opacity="1" stroke-width="5" stroke-linecap="round" stroke-linejoin="round" style="-webkit-tap-highlight-color: rgba(0, 0, 0, 0); stroke-opacity: 1; stroke-linecap: round; stroke-linejoin: round; -webkit-user-select: text;"></path><path fill="none" stroke="#000000" d="M611,356L620,356L627,353L638,346L647,340L657,333L666,326L672,322L677,317L681,313L684,309L685,303L686,294L686,284L686,272L683,261L677,251L670,241L661,231L651,223L642,217L630,212L618,210L604,210L586,213L564,223L544,232L523,242L502,253L481,262L461,270L447,275L436,276L429,276L423,275L419,268L418,259L418,246L418,233L419,218L421,204L421,190L421,181L421,174L420,170L419,167L419,166L430,166L446,161L465,156L485,149L504,143L518,140L529,140L538,140L545,144L550,151L553,161L555,173L556,188L556,203L556,223L556,241L557,258L558,271L560,284L561,293L562,300L563,305L564,308L564,310L564,311L560,311L550,311L537,310L520,307L504,301L487,294L467,285L451,277L436,268L424,259L414,253L405,247L399,242L395,238L393,235L393,233L393,232L394,232L401,232L415,232L437,232L468,227L500,218L536,204L579,184L617,171" stroke-opacity="1" stroke-width="5" stroke-linecap="round" stroke-linejoin="round" style="-webkit-tap-highlight-color: rgba(0, 0, 0, 0); stroke-opacity: 1; stroke-linecap: round; stroke-linejoin: round; -webkit-user-select: text;"></path><path fill="none" stroke="#000000" d="M633,151L642,153L648,151L658,147L667,143L675,140L682,137L688,135L691,134L694,133L695,132L695,131L694,129L689,125L682,118L675,111L668,102L662,93L656,83L651,75L647,69L643,64L638,61L634,59L628,58L621,58L611,58L595,63L578,70L558,76L538,83L520,89L507,92L495,95L489,97L485,98L484,100L484,101L484,104L486,109L490,116L494,127L498,138L502,151L505,164L509,177L514,190L518,200L523,209L526,215L530,219L533,223L536,224L538,225L541,225L546,221L556,211L567,198L581,182L592,169L603,156L611,146L617,138L621,132L623,126L623,120L621,115L614,109L604,103L592,94L580,86L568,76L558,65L548,54L541,45L536,39L532,34L529,29L526,27L525,25L523,25L522,25L521,27L521,30L520,37L519,43L519,50L519,59L519,69L519,78L519,87L520,95L524,104L527,112L533,118L538,125L544,130L550,136L558,142L563,148L568,154L573,161L577,168L581,176L584,184L587,193L589,200L589,210L589,221" stroke-opacity="1" stroke-width="5" stroke-linecap="round" stroke-linejoin="round" style="-webkit-tap-highlight-color: rgba(0, 0, 0, 0); stroke-opacity: 1; stroke-linecap: round; stroke-linejoin: round; -webkit-user-select: text;"></path><path fill="none" stroke="#000000" d="M565,264L563,270L563,275L562,282L559,289L555,296L549,305L541,313L531,322L519,329L505,334L491,339L476,341L463,343L448,343L435,343L427,343L421,343L416,343L412,342L410,342L408,341L407,341L406,341L404,341L402,340L401,339L399,336L398,332L398,327L398,319L402,305L410,287L419,270L426,254L431,244L434,235L435,230L436,228L436,227L438,228L442,230L449,232L460,233L473,234L487,234L500,234L510,234L518,234L525,234L528,236L531,238L533,241L533,245L533,251L533,259L531,269L529,281L526,294L522,311L519,326L517,342L516,356L515,369L514,380L513,387L512,392L511,396L511,397L510,397L508,397L504,394L499,387L493,375L487,363L482,352L477,341L472,331L465,319L459,306L452,291L445,275L438,260L433,250L428,240L424,233L421,227L419,224L417,221L416,219L415,219L414,219L413,223L409,231L397,246L378,269L353,297L325,328L297,362" stroke-opacity="1" stroke-width="5" stroke-linecap="round" stroke-linejoin="round" style="-webkit-tap-highlight-color: rgba(0, 0, 0, 0); stroke-opacity: 1; stroke-linecap: round; stroke-linejoin: round; -webkit-user-select: text;"></path><path fill="none" stroke="#000000" d="M284,394L278,396L275,399L269,404L261,412L251,421L242,430L234,437L225,443L220,448L217,449L215,450L215,451L217,453L222,456L227,460L234,466L241,472L249,479L256,487L263,494L271,501L276,506L279,511L282,515L285,518L286,519L287,520L288,519L289,515L295,504L305,491L317,476L331,460L345,447L356,435L367,424L373,415L377,409L379,404L379,399L378,396L372,392L363,388L352,382L341,377L329,371L316,364L305,358L293,350L284,344L274,339L267,335L260,333L255,331L250,331L247,331L245,335L243,342L242,353L241,367L241,382L239,398L238,416L236,430L234,445L233,457L233,466L233,473L233,479L236,484L239,488L243,491L247,494L252,497L259,501L266,503L274,506L283,508L292,509L302,510L313,510L325,510L336,506L346,501L356,495L365,487L373,479L380,470L384,461L387,453L387,445L387,437L387,429L384,422L380,416L375,410L370,406L363,402L356,397L348,392L341,389L332,385L324,382L317,380L309,379L300,378L292,377L283,377L273,377L263,377L254,378L244,379L234,380L224,380L212,380L200,377L187,372L175,365" stroke-opacity="1" stroke-width="5" stroke-linecap="round" stroke-linejoin="round" style="-webkit-tap-highlight-color: rgba(0, 0, 0, 0); stroke-opacity: 1; stroke-linecap: round; stroke-linejoin: round; -webkit-user-select: text;"></path><path fill="none" stroke="#000000" d="M165,332L160,336L157,336L152,332L147,327L141,318L136,307L132,295L131,282L131,267L133,250L139,234L144,220L149,210L153,202L156,198L158,195L160,194L161,194L163,194L164,194L166,194L170,195L176,195L184,196L196,198L209,200L223,203L240,206L255,209L267,212L279,215L289,217L298,219L304,221L307,224L310,226L310,229L310,232L310,238L305,248L298,262L290,277L281,292L274,308L267,322L263,333L259,342L256,347L254,350L252,351L251,351L249,351L246,348L241,343L233,335L222,326L211,314L198,302L187,290L176,280L167,273L159,266L152,261L144,257L139,254L133,252L130,251L127,250L128,250L134,249L145,246L163,240L186,232L210,223L234,212L262,198L297,179" stroke-opacity="1" stroke-width="5" stroke-linecap="round" stroke-linejoin="round" style="-webkit-tap-highlight-color: rgba(0, 0, 0, 0); stroke-opacity: 1; stroke-linecap: round; stroke-linejoin: round; -webkit-user-select: text;"></path><path fill="none" stroke="#000000" d="M333,176L337,174L344,173L354,170L367,166L380,161L392,157L402,153L409,150L413,148L415,148L417,148L418,148L418,150L418,155L419,162L419,171L420,183L422,195L423,209L425,223L427,236L428,250L429,261L429,270L430,278L430,283L430,287L430,288L429,289L423,289L414,289L401,289L387,289L369,288L352,286L338,285L324,285L313,285L306,285L300,284L295,283L294,281L293,278L293,275L298,270L308,262L321,254L336,247L353,241L370,234L387,227L403,221L417,214L430,207L439,202L446,198L450,195L452,192L453,188L453,185L452,179L448,172L442,162L436,151L429,141L420,130L413,122L404,116L397,113L387,110L378,110L368,110L356,110L346,115L336,121L327,129L320,137L315,143L311,151L309,159L308,167L308,176L308,185L308,193L310,202L313,210L317,217L321,224L325,230L330,236L335,240L341,245L349,248L358,251L369,254L383,257L400,261L418,266L439,274L458,287" stroke-opacity="1" stroke-width="5" stroke-linecap="round" stroke-linejoin="round" style="-webkit-tap-highlight-color: rgba(0, 0, 0, 0); stroke-opacity: 1; stroke-linecap: round; stroke-linejoin: round; -webkit-user-select: text;"></path><path fill="none" stroke="#000000" d="M479,301L479,296L479,295L482,295L486,297L492,302L500,308L507,314L514,322L519,330L524,340L525,352L525,366L524,382L519,395L514,405L511,412L508,417L506,420L504,421L503,422L502,422L501,422L498,422L492,421L484,419L471,416L455,413L438,409L421,407L409,404L399,403L392,402L386,400L383,399L381,398L381,397L382,396L386,394L396,392L412,388L430,384L449,379L469,375L489,370L508,366L524,362L535,360L543,359L548,359L551,359L553,360L553,363L553,367L553,374L553,382L553,392L553,404L552,417L551,430L549,443L548,455L546,465L545,475L543,482L542,487L541,491L539,494L536,495L532,495L525,495L515,493L503,490L490,486L474,482L458,477L443,472L431,467L420,463L411,459L404,455L400,453L397,452L396,450L395,450L395,449L396,449L399,449L405,449L417,447L434,445L455,441L483,435L512,429L543,423L577,417L612,411" stroke-opacity="1" stroke-width="5" stroke-linecap="round" stroke-linejoin="round" style="-webkit-tap-highlight-color: rgba(0, 0, 0, 0); stroke-opacity: 1; stroke-linecap: round; stroke-linejoin: round; -webkit-user-select: text;"></path><path fill="none" stroke="#000000" d="M641,418L641,423L641,430L641,441L641,455L641,466L641,480L643,490L644,502L645,511L647,521L647,530L648,536L649,540L649,543L649,545L649,546L646,546L641,547L633,547L623,548L610,548L597,550L581,554L565,557L550,561L538,564L526,565L517,567L512,567L509,567L508,567L508,566L511,561L519,551L528,538L538,525L547,511L555,499L560,490L564,483L567,477L570,474L572,472L574,472L576,472L578,476L582,483L587,492L592,501L597,511L604,522L611,535L618,546L623,556L629,566L633,575L636,582L637,588L638,593L638,597L637,600L633,602L628,603L621,604L611,604L597,604L582,601L567,597L551,591L535,585L518,578L504,571L491,564L482,558L476,552L471,546L468,542L467,538L467,534L467,529L472,523L480,516L493,508L507,502L523,497L538,494L550,492L563,492L575,492L586,493L595,497L603,504L609,511L614,519L617,526L619,535L621,545L621,554L621,564L621,572L619,581L616,588L613,594L608,599L603,605L596,611L590,618L582,624L574,630L565,636L555,642L542,650L523,659L499,676" stroke-opacity="1" stroke-width="5" stroke-linecap="round" stroke-linejoin="round" style="-webkit-tap-highlight-color: rgba(0, 0, 0, 0); stroke-opacity: 1; stroke-linecap: round; stroke-linejoin: round; -webkit-user-select: text;"></path><path fill="none" stroke="#000000" d="M480,683L470,686L466,686L460,687L455,687L447,689L439,692L431,695L421,701L413,706L405,713L398,723L391,733L386,743L383,753L380,761L380,768L380,775L380,781L382,785L384,787L385,788L386,788L387,788L390,788L394,787L404,785L418,781L434,775L465,767L477,764L486,762L493,761L497,760L499,759L497,757L492,753L482,746L470,736L459,723L447,710L436,697L426,686L417,679L409,675L402,672L397,671L390,671L383,671L376,674L367,680L358,686L347,695L336,703L328,711L319,718L314,724L311,727L310,727L310,728L315,729L322,732L329,735L338,741L346,747L356,753L365,760L375,768L386,776L396,783L406,790L415,795L422,800L428,803L432,804L435,805L436,806L437,806L437,805L437,799L436,781L436,757L436,724L437,694L445,664L458,630" stroke-opacity="1" stroke-width="5" stroke-linecap="round" stroke-linejoin="round" style="-webkit-tap-highlight-color: rgba(0, 0, 0, 0); stroke-opacity: 1; stroke-linecap: round; stroke-linejoin: round; -webkit-user-select: text;"></path><path fill="none" stroke="#000000" d="M436,612L435,609L428,608L416,603L402,599L388,594L377,589L365,585L354,581L345,577L337,573L332,571L327,569L324,569L322,569L320,569L319,570L316,575L312,584L304,598L297,612L290,625L286,635L282,643L280,647L280,650L280,651L285,651L290,651L298,652L306,655L314,657L325,662L334,666L344,669L351,672L360,675L366,676L370,677L374,677L377,677L378,673L380,667L381,658L383,646L386,629L389,614L390,601L392,589L392,579L392,570L392,564L389,559L385,555L379,552L372,548L363,544L354,540L345,537L335,534L325,531L317,528L307,527L297,527L288,527L278,529L269,535L261,544L255,554L249,567L245,578L242,591L241,601L241,611L241,621L245,630L250,639L255,646L260,652L266,657L272,662L279,666L286,669L294,671L300,672L307,672L314,672L321,671L326,668L330,664L334,659L338,652L340,644L341,636L341,626L341,618L341,609L340,600L337,592L333,583L328,574L322,567L316,560L309,552L301,545L291,538L280,530L269,521L257,511L246,500L237,487" stroke-opacity="1" stroke-width="5" stroke-linecap="round" stroke-linejoin="round" style="-webkit-tap-highlight-color: rgba(0, 0, 0, 0); stroke-opacity: 1; stroke-linecap: round; stroke-linejoin: round; -webkit-user-select: text;"></path><path fill="none" stroke="#000000" d="M209,461L203,460L200,460L195,460L188,460L179,458L167,455L156,453L144,450L132,445L122,441L114,439L109,437L104,436L101,436L100,436L99,436L99,438L98,444L98,452L96,464L93,477L89,494L84,510L80,525L77,535L75,544L75,550L75,553L75,555L78,556L84,557L92,558L102,561L113,564L123,568L134,573L145,579L157,585L166,591L173,596L178,600L182,602L184,604L185,604L185,603L184,597L182,586L181,568L181,548L181,526L180,504L179,482L178,461L178,445L178,431L178,421L178,414L178,409L178,405L178,403L180,403L182,403L186,403L192,406L202,410L212,415L226,421L239,427L251,434L261,439L272,444L279,448L284,450L288,453L291,455L293,456L293,458L293,459L293,461L292,468L279,492L253,528" stroke-opacity="1" stroke-width="5" stroke-linecap="round" stroke-linejoin="round" style="-webkit-tap-highlight-color: rgba(0, 0, 0, 0); stroke-opacity: 1; stroke-linecap: round; stroke-linejoin: round; -webkit-user-select: text;"></path><path fill="none" stroke="#000000" d="M221,593L212,597L208,600L201,608L193,621L181,635L169,648L157,658L147,664L138,668L131,670L126,671L122,671L121,671L121,672L125,674L130,679L137,686L145,695L153,703L161,712L168,722L175,731L180,739L184,745L187,749L189,752L191,754L193,755L194,755L196,755L200,754L208,749L217,744L231,737L244,731L256,724L265,719L274,714L279,710L282,706L284,703L285,701L285,699L285,696L280,693L274,689L265,682L255,676L245,669L235,663L225,657L215,651L206,646L199,642L193,641L186,640L180,640L174,641L169,645L164,651L160,661L159,672L158,681L158,692L158,702L160,713L164,723L169,732L175,740L181,747L187,752L194,757L201,761L208,764L213,766L219,768L225,769L231,769L237,769L242,769L248,769L254,769L259,767L263,765L268,763L273,759L278,755L283,750L286,747L290,742L295,737L299,732L303,725L307,719L310,711L314,701L319,691L327,679L336,667L352,654L372,645L396,646" stroke-opacity="1" stroke-width="5" stroke-linecap="round" stroke-linejoin="round" style="-webkit-tap-highlight-color: rgba(0, 0, 0, 0); stroke-opacity: 1; stroke-linecap: round; stroke-linejoin: round; -webkit-user-select: text;"></path><path fill="none" stroke="#000000" d="M416,659L421,659L428,657L435,656L445,656L456,657L465,662L472,670L477,679L480,692L480,705L480,718L480,729L479,737L478,744L477,749L476,752L475,754L474,754L472,754L468,754L462,754L452,754L441,754L428,754L415,754L404,754L392,754L383,754L375,754L369,754L365,754L363,753L363,752L363,750L369,747L378,742L391,734L406,725L421,718L437,711L453,705L470,699L485,694L497,691L507,689L514,689L517,689L519,689L520,689L521,689L521,691L521,694L521,699L523,706L525,713L527,723L530,733L532,742L534,750L536,759L536,765L537,771L537,776L537,779L537,782L535,783L532,785L528,786L523,787L516,788L508,789L498,789L488,790L477,790L466,790L456,790L449,790L442,790L438,789L434,787L432,786L432,785L432,783L432,782L435,779L443,773L458,764L476,752L495,740L517,728L541,715L568,700L597,680" stroke-opacity="1" stroke-width="5" stroke-linecap="round" stroke-linejoin="round" style="-webkit-tap-highlight-color: rgba(0, 0, 0, 0); stroke-opacity: 1; stroke-linecap: round; stroke-linejoin: round; -webkit-user-select: text;"></path><path fill="none" stroke="#000000" d="M623,655L630,657L640,649L651,638L664,625L676,613L686,602L694,595L701,590L705,587L708,586L710,586L711,586L708,585L703,577L698,568L690,555L684,542L677,531L672,522L667,516L662,510L658,506L654,504L648,502L641,502L631,502L618,503L602,509L584,517L567,525L553,531L544,535L539,536L536,536L536,537L536,538L542,541L548,548L554,557L560,567L567,580L575,594L582,608L589,623L596,638L602,651L607,661L611,669L614,674L616,677L618,679L621,680L623,680L626,680L632,679L641,675L655,670L668,664L681,658L691,654L697,650L701,646L703,642L703,639L703,635L700,629L693,620L684,608L677,595L671,582L665,569L660,557L653,544L646,533L638,522L629,516L618,512L609,510L595,510L582,514L569,521L557,531L547,540L538,552L531,563L526,573L524,582L523,591L523,599L523,608L526,616L532,624L538,631L545,638L553,645L562,651L572,656L586,661L601,664L620,664L647,664L673,660" stroke-opacity="1" stroke-width="5" stroke-linecap="round" stroke-linejoin="round" style="-webkit-tap-highlight-color: rgba(0, 0, 0, 0); stroke-opacity: 1; stroke-linecap: round; stroke-linejoin: round; -webkit-user-select: text;"></path><path fill="none" stroke="#000000" d="M679,679L686,682L691,686L697,692L704,700L709,709L711,716L711,727L707,738L697,749L684,759L671,768L658,777L648,783L639,789L634,793L630,795L627,797L626,798L624,798L623,798L621,798L618,798L612,794L603,788L593,783L581,778L571,773L563,770L556,766L552,764L550,762L550,760L550,758L556,753L569,745L584,736L601,727L616,720L630,715L639,711L647,710L652,709L656,709L659,709L661,711L662,714L663,718L665,725L667,735L669,747L671,760L672,771L673,781L673,788L674,793L674,798L674,801L674,804L672,807L669,809L664,811L658,814L650,815L642,817L633,820L623,821L616,822L609,824L603,825L598,826L594,827L590,828L587,828L585,828L584,828L582,827L580,822L576,811L570,795L564,779L558,763L551,746L541,724L531,700L519,664L519,602" stroke-opacity="1" stroke-width="5" stroke-linecap="round" stroke-linejoin="round" style="-webkit-tap-highlight-color: rgba(0, 0, 0, 0); stroke-opacity: 1; stroke-linecap: round; stroke-linejoin: round; -webkit-user-select: text;"></path></svg>