<svg height="868" version="1.1" width="768" xmlns="http://www.w3.org/2000/svg" xmlns:xlink="http://www.w3.org/1999/xlink" style="overflow: hidden; position: relative; -webkit-user-select: text;"><desc style="-webkit-tap-highlight-color: rgba(0, 0, 0, 0); -webkit-user-select: text;">Created with Raphaël 2.2.0</desc><defs style="-webkit-tap-highlight-color: rgba(0, 0, 0, 0); -webkit-user-select: text;"></defs><path fill="none" stroke="#000000" d="M262,390L263,388L265,385L269,382L273,377L278,372L285,364L292,357L300,349L307,340L317,330L327,319L336,309L346,299L355,288L363,278L373,269L382,259L390,250L399,241L406,233L414,225L421,217L429,209L436,201L443,194L449,187L455,182L460,176L463,173L467,169L470,167L473,165L476,164L478,163L480,163L482,163L483,163L484,163L485,163L486,164L487,166L488,168L488,171L489,173L489,177L489,181L489,185L489,190L489,195L489,200L489,206L489,212L488,219L487,226L487,232L486,240L485,248L484,257L482,266L480,275L478,285L476,295L474,307L471,318L468,331L465,343L462,356L459,368L456,380L453,392L451,403L448,414L445,425L442,435L440,443L437,453L434,463L431,473L428,481L424,491L420,499L417,506L413,514L409,522L406,528L402,535L400,540L396,544L393,548L390,552L388,555L385,558L383,560L380,562L378,564L375,564L373,564L370,564L368,564L365,563L363,561L360,558L357,555L354,551L351,547L348,542L344,537L341,532L337,525L334,519L331,513L327,506L322,499L318,492L313,485L309,478L303,470L298,462L293,453L288,444L283,435L279,426L275,417L271,407L266,397L263,388L259,378L256,368L252,358L249,349L246,339L243,331L240,323L237,314L234,306L231,299L229,291L227,285L225,278L224,273L223,267L222,262L221,257L220,253L220,249L220,245L220,242L220,239L220,236L221,233L223,231L225,229L228,228L231,227L235,227L240,226L245,226L250,226L257,226L263,226L271,226L278,226L285,226L293,226L300,226L307,226L317,227L325,228L333,229L341,231L350,232L358,234L367,236L376,238L385,240L395,242L404,244L412,245L421,247L430,249L438,251L447,252L456,254L464,256L472,257L481,258L487,260L496,261L504,263L510,264L516,265L523,266L528,268L534,269L538,270L543,271L547,272L550,273L554,274L558,275L561,276L564,277L566,278L568,280L570,282L571,284L572,287L573,290L574,292L575,295L575,299L575,303L575,307L575,312L575,318L574,323L572,329L571,335L568,342L566,349L564,356L561,364L558,372L554,380L550,389L546,398L543,406L539,414L536,422L533,430L529,439L525,446L522,454L519,462L516,470L513,477L509,484L506,492L502,500L498,508L494,516L490,523L487,530L483,537L480,544L477,550L474,555L470,560L468,565L465,569L462,572L460,576L456,579L453,581L450,584L446,586L442,587L438,589L434,590L430,591L426,591L421,591L416,591L411,591L404,591L399,591L392,591L385,589L379,589L372,587L364,586L358,584L350,582L343,580L336,578L329,576L322,574L314,572L309,569L301,567L295,565L289,562L283,560L277,558L272,555L267,552L262,549L257,546L254,542L250,538L247,534L244,529L242,523L241,517L239,510L239,503L238,494L238,485L238,476L238,466L238,457L238,448L238,438L238,428L239,419L239,409L239,401L240,392L240,383L241,376L241,368L242,360L242,353L244,346L245,340L246,334L248,329L249,325L252,321L255,317L258,314L262,311L267,307L272,305L278,302L285,299L291,296L298,293L305,291L313,288L321,285L329,283L337,280L345,278L353,275L362,273L370,270L380,267L388,264L399,261L407,258L415,256L424,253L432,251L441,249L449,246L457,244L465,242L474,239L482,236L490,234L497,232L505,229L512,227L519,225L526,223L533,222L539,220L544,219L549,218L555,218L559,218L563,218L567,218L571,218L575,218L577,218L580,219L583,222L585,224L587,227L589,231L590,235L591,240L592,245L592,251L593,256L594,262L594,268L594,274L595,281L595,288L595,295L595,303L595,312L595,321L595,330L594,340L594,351L593,361L592,373L590,385L589,396L587,408L586,419L584,431L582,442L580,453L578,465L575,477L572,488L568,499L566,507L562,515L559,523L555,529L551,535L546,541L542,546L536,550L531,554L526,556L521,558L516,559L511,559L505,559L500,559L495,557L490,555L485,552L479,549L472,545L467,542L461,538L456,534L450,530L445,526L439,521L434,517L429,513L424,509L419,504L414,501L409,497L405,493L400,489L397,485L393,481L390,476L388,471L387,466L386,460L386,453L386,445L387,438L391,431L395,424L399,417L404,411L409,405L414,399L421,394L428,388L435,382L443,377L451,372L458,367L467,362L476,357L485,353L493,348L501,345L510,341L517,337L526,334L534,331L541,327L548,325L555,323L562,321L567,320L572,319L577,319L582,319L586,319L590,319L593,321L596,324L599,326L601,329L604,332L606,336L608,340L610,345L611,350L613,355L614,360L615,366L616,372L616,378L617,385L617,391L618,398L618,404L618,411L618,419L618,426L618,435L618,443L617,450L616,459L614,467L612,475L610,482L608,490L605,498L602,506L599,514L596,521L593,529L590,537L587,544L583,551L579,557L575,564L570,570L565,576L560,582L555,586L549,591L544,596L540,600L535,603L531,606L527,608L523,609L519,609L516,609L513,609L509,608L504,605L499,601L494,598L489,594L483,590L477,586L471,581L466,576L460,572L455,567L451,562L448,557L444,550L442,544L441,537L441,528L441,518L441,509L442,499L444,489L446,478L449,467L451,457L454,447L457,437L460,429L463,420L467,411L471,404L476,398L481,393L485,389L490,386L494,385L499,385L503,385L508,385L511,388L516,392L520,395L524,400L527,404L531,410L533,416L536,422L538,428L539,435L541,442L543,450L543,458L544,467L545,477L545,486L545,496L545,505L546,515L546,524L546,533L546,543L546,552L546,561L546,570L546,579L546,588L546,596L546,603L546,611L546,617L545,623L544,628L543,633L541,636L537,639L533,641L528,643L522,645L517,646L511,647L504,647L498,647L492,647L485,647L478,647L471,647L463,646L455,644L447,642L440,641L433,638L426,636L419,633L412,631L406,628L400,625L394,622L389,619L384,615L380,612L376,608L373,604L370,601L369,596L368,590L368,583L368,575L371,567L375,559L379,552L384,545L390,538L395,532L402,525L409,518L416,512L423,506L431,500L438,494L446,488L455,482L464,475L473,469L483,462L493,455L503,449L512,443L522,437L531,431L538,428L546,424L553,421L558,420L563,419L568,419L573,419L577,420L580,423L584,426L588,430L591,434L594,439L597,445L600,450L603,456L605,462L608,467L610,474L613,480L615,486L617,492L618,498L620,503L621,508L621,513L622,517L622,521L623,524L623,528L623,531L621,534L619,536L616,539L613,542L609,544L604,547L600,549L595,551L589,553L584,555L578,558L572,560L565,563L559,565L552,568L546,570L540,572L533,575L526,577L519,579L511,582L504,584L495,587L487,591L477,595L468,598L459,602L450,605L440,608L432,611L423,614L414,616L405,619L397,621L388,623L380,625L373,628L366,629L359,630L352,631L347,631L342,631L338,631L334,630L331,626L328,622L325,617L324,612L322,606L321,599L321,592L321,585L321,577L321,568L322,560L324,551L328,541L331,531L335,521L340,511L344,501L349,491L354,482L360,473L366,465L371,459L377,453L383,449L388,446L392,444L398,444L403,444L407,444L412,448L415,453L419,459L422,465L425,472L428,478L430,485L433,492L435,499L437,504L438,512L440,520L441,528L441,536L442,545L443,555L443,564L443,573L443,581L443,590L443,599L443,608L443,617L443,625L443,633L443,640L443,647L442,653L441,657L440,661L438,664L435,666L432,668L428,669L423,671L417,672L411,674L404,675L397,676L390,676L383,677L377,677L370,678L363,678L358,678L351,678L346,678L340,678L336,676L331,674L327,671L323,667L319,662L316,656L312,649L309,641L306,633L304,623L301,614L298,604L294,594L291,586L288,576L284,566L281,558L278,549L276,540L273,532L271,523L268,517L267,510L266,505L266,500L266,495L266,492L267,489L270,487L273,485L278,484L284,483L290,483L297,483L305,483L312,483L320,483L328,483L338,483L347,483L356,483L365,483L375,482L384,482L393,481L403,480L412,478L421,477L430,475L438,473L446,472L454,470L460,469L467,467L474,466L480,465L485,465L490,464L494,464L499,463L503,463L506,463L510,463L513,463L515,463L518,464L520,465L521,467L523,468L524,470L525,472L526,474L526,476L526,478L526,480L526,483L526,486L526,489L524,492L521,496L519,500L516,505L512,509L508,514L504,519L499,524L494,530L489,535L483,541L477,547L471,552L465,557L458,564L451,568L443,574L435,579L427,585L418,591L409,596L400,601L390,607L380,612L370,618L361,623L351,629L342,634L334,639L327,642L319,647L312,650L307,652L300,654L295,655L290,656L284,656L279,655L273,652L266,648L260,642L254,637L247,630L240,623L234,616L228,608L222,601L216,593L212,587L206,581L202,575L199,569L197,564L196,560L196,554L196,548L198,542L204,535L210,528L217,521L225,514L234,507L242,501L251,494L261,488L270,482L279,477L289,472L298,467L307,462L316,458L324,455L331,453L337,452L342,452L347,452L351,453L354,457L356,462L358,469L360,476L362,484L364,491L366,499L368,506L370,514L373,522L375,530L378,538L379,547L380,557L381,567L381,577L382,584L382,592L382,599L381,605L379,609L377,612L373,614L370,616L366,616L361,616L356,616L349,613L342,610L336,606L329,601L320,596L312,591L305,585L298,580L290,574L283,567L276,560L268,554L261,547L254,540L247,533L241,526L235,520L229,512L224,506L219,499L215,492L211,485L208,477L205,470L204,462L204,455L204,446L204,438L206,432L210,425L214,418L219,411L224,403L230,396L236,388L241,382L246,377L250,373L254,371L257,369L260,369L263,369L265,369L268,372L270,376L273,381L276,386L278,394L280,401L282,409L283,419L285,428L285,438L286,449L287,459L288,470L288,480L288,491L288,502L288,513L288,524L288,535L288,545L288,554L288,562L289,572L289,579L289,586L289,594L289,601L289,608L289,615L289,622L289,628L289,635L289,640L289,647L288,652L288,656L287,659L286,662L285,664L283,666L280,667L278,667L275,668L271,668L267,668L263,668L259,668L253,667L248,664L243,662L237,659L232,656L226,652L220,648L214,643L208,638L202,633L196,627L189,620L182,614L177,609L170,604L164,599L157,594L151,589L145,583L139,577L134,571L129,565L125,559L122,552L119,545L117,538L115,531L115,523L115,515L115,506L115,499L117,490L120,483L124,476L129,470L134,464L140,459L147,455L154,451L161,448L169,445L178,443L186,441L197,438L208,435L218,432L229,430L240,428L251,425L261,423L272,421L283,419L292,417L302,415L312,414L322,411L331,410L339,408L347,406L354,404L361,403L368,402L373,401L378,401L382,401L385,401L389,401L391,402L393,404L394,408L395,412L395,418L395,424L395,431L395,440L394,448L392,456L390,465L388,474L386,482L385,489L383,497L381,505L380,513L378,521L376,528L374,536L372,544L369,551L366,558L363,562L359,567L355,570L351,572L345,572L339,572L333,572L325,571L318,567L310,562L302,558L294,552L286,546L278,540L270,532L262,525L254,517L246,509L238,501L230,493L222,486L215,478L208,470L201,462L194,453L188,445L182,436L177,426L172,416L168,407L164,397L161,387L158,378L156,367L154,358L152,348L152,337L152,327L152,317L152,308L152,300L155,293L157,288L161,283L166,280L171,278L176,276L182,275L188,275L195,275L202,275L210,275L217,275L223,277L229,280L236,283L241,287L246,292L250,298L254,304L259,310L263,317L267,324L271,331L276,339L281,345L286,351L291,358L295,364L300,370L302,375L305,381L306,386L307,391L307,397L307,401L302,406L297,410L290,414L283,418L273,422L264,426L254,429L244,433L234,436L223,441L213,444L203,448L195,451L187,454L179,457L173,459L167,460L161,460L157,460L153,460L149,457L145,453L142,449L139,443L136,436L134,429L132,420L130,411L128,402L126,393L125,385L123,376L122,368L120,360L119,353L118,346L118,341L118,336L118,331L118,328L120,325L124,323L129,322L134,320L142,318L149,316L158,314L169,311L178,307L188,303L199,299L210,295L221,290L232,285L243,280L254,276L265,271L275,267L285,262L296,258L305,255L313,252L322,249L330,247L336,246L343,244L349,244L353,244L357,244L361,246L363,249L365,252L366,257L366,263L366,269L366,276L366,284L366,292L364,300L361,309L358,319L356,328L352,339L349,349L345,360L341,372L337,383L333,394L329,405L324,415L319,425L316,431L311,437L307,441L304,443L300,443L295,443L290,442L285,438L279,433L273,426L267,418L261,410L255,401L250,392L244,381L239,370L234,359L229,348L224,336L219,324L214,312L209,300L205,287L201,275L197,264L193,253L191,244L188,235L186,227L184,219L183,212L182,206L181,201L181,196L181,192L181,188L181,185L183,184L186,183L189,182L193,182L198,182L204,182L210,183L216,184L223,186L231,188L238,190L245,193L252,195L260,197L268,199L276,201L283,203L291,205L299,206L307,208L314,210L321,211L327,214L332,217L336,219L339,222L341,226L341,231L341,237L341,245L338,252L333,261L328,269L322,277L314,285L307,294L299,302L291,311L283,319L275,328L267,336L259,345L252,352L245,358L239,363L232,366L227,368L221,370L215,370L208,371L200,371L193,371L184,371L177,371L168,370L159,369L152,368L143,367L135,366L129,364L123,362L118,359L114,355L112,351L110,347L110,342L110,337L110,331L115,325L120,319L126,312L133,306L141,300L149,295L157,289L166,283L175,278L184,271L194,265L204,258L214,252L224,246L234,241L244,234L254,228L263,222L273,216L282,211L291,205L300,200L307,196L315,192L322,187L329,183L336,180L341,176L347,173L352,171L358,169L363,167L368,165L372,164L377,163L381,162L385,162L388,162L391,162L394,162L396,164L399,166L401,169L403,174L405,179L407,184L408,190L409,198L409,205L411,214L411,222L412,232L412,241L412,251L412,261L412,272L411,283L409,294L407,305L404,316L401,328L397,340L394,352L390,365L386,377L383,388L379,398L376,405L374,411L373,416L370,420L368,422L366,423L363,423L360,423L356,421L351,418L344,414L339,409L332,404L327,399L320,392L314,385L309,379L303,371L298,363L293,356L288,348L283,340L278,331L273,324L269,315L265,307L262,299L259,291L256,283L254,275L253,267L253,258L252,249L252,239L252,229L252,219L252,209L251,199L251,188L250,179L248,170L247,161L246,152L246,146L246,141L246,135L246,131L246,128L246,126L246,125L248,125L251,125L254,125L259,127L264,129L271,133L278,137L285,141L293,146L301,151L309,156L317,161L325,166L334,172L342,177L351,182L358,187L367,192L375,196L383,200L391,205L398,210L405,214L412,218L418,222L424,226L427,230L431,234L433,239L434,243L435,248L435,254L434,261L428,269L421,277L414,284L405,292L395,299L385,305L375,311L364,317L353,321L342,325L332,329L321,332L310,335L301,336L290,337L281,337L271,337L261,333L253,328L244,322L237,314L229,307L223,299L217,291L212,283L208,275L205,268L203,261L202,254L202,246L202,239L203,232L208,225L213,220L219,214L227,208L234,203L243,198L251,194L260,191L270,187L279,184L289,181L298,179L307,177L317,175L327,173L337,172L347,170L357,168L367,167L377,166L387,165L396,164L406,162L415,161L424,159L433,158L441,157L448,156L455,156L461,156L468,156L474,156L479,156L483,156L487,157L492,159L495,163L497,166L499,169L502,174L503,179L504,185L504,191L504,198L504,207L502,215L500,222L497,230L493,240L489,249L484,258L479,267L473,275L468,282L461,290L455,296L448,303L441,309L434,315L427,319L420,323L415,325L410,325L405,325L401,325L397,320L392,314L388,305L384,296L379,286L375,276L370,265L366,254L362,242L358,231L354,219L351,207L348,195L344,182L342,170L339,159L338,147L336,137L336,127L336,120L336,112L337,106L339,100L343,95L347,92L351,88L357,86L363,84L368,83L375,82L380,82L387,82L392,82L399,82L405,83L412,85L418,86L425,88L432,88L440,89L447,90L455,91L461,93L468,94L473,95L478,98L482,99L485,101L487,103L488,105L488,107L488,110L487,114L482,118L475,125L467,130L458,137L449,142L440,149L430,156L418,164L407,171L395,178L383,186L370,194L358,202L346,210L334,218L322,226L310,233L298,241L287,249L276,257L266,263L256,268L246,273L237,275L229,277L221,277L213,277L207,274L201,269L195,261L190,254L186,247L182,238L179,230L177,220L176,211L175,202L174,193L174,184L174,176L176,170L179,164L183,159L189,154L195,150L203,147L212,144L221,143L232,142L244,141L257,141L270,141L282,141L295,141L309,142L322,144L336,147L350,150L363,154L376,157L390,161L403,166L415,169L428,173L440,176L453,179L464,181L476,184L487,186L497,189L507,191L515,193L524,196L532,198L538,200L545,202L550,205L555,207L560,209L562,212L565,215L567,218L568,222L568,226L568,231L568,236L565,243L562,249L557,256L550,263L543,270L536,277L528,284L519,291L511,298L502,306L492,314L484,321L478,326L471,329L467,331L463,332L459,332L455,332L452,329L447,325L442,320L436,314L429,307L422,300L414,292L408,285L401,276L394,268L387,259L381,251L377,244L373,236L372,228L372,219L372,209L376,198L383,185L390,173L398,160L407,148L415,137L424,125L433,113L441,103L448,95L456,87L463,80L470,76L477,71L482,69L487,68L492,68L497,68L502,69L506,73L509,77L512,82L515,88L518,95L521,102L523,109L524,117L526,125L528,133L530,142L532,151L533,160L535,170L535,180L536,190L536,200L536,211L536,222L536,234L534,246L531,258L528,270L524,283L520,294L516,305L511,316L506,326L501,335L497,341L493,346L488,349L484,350L478,350L471,350L463,345L455,339L445,334L434,326L422,319L410,310L398,302L385,293L371,284L358,275L345,265L333,255L321,245L311,235L302,224L297,215L294,205L293,197L293,188L294,181L299,175L307,170L316,168L327,166L340,166L353,166L367,169L383,172L399,176L414,178L431,182L446,185L462,190L478,193L493,197L508,200L521,203L534,206L547,210L558,213L568,216L585,222L592,226L597,229L602,232L606,236L609,239L612,242L614,246L615,249L616,253L616,258L617,262L617,266L617,271L617,276L617,282L615,287L612,294L608,300L603,308L598,316L592,324L586,333L577,344L570,354L553,375L545,387L536,399L528,411L520,423L513,432L507,441L502,448L498,453L495,454L492,455L490,455L487,451L483,443L478,433L474,422L469,410L465,398L459,385L454,374L449,361L445,350L441,337L438,324L436,312L434,301L434,291L433,282L433,273L433,265L436,257L441,249L446,241L453,233L460,226L468,219L486,204L496,197L506,190L515,184L525,179L535,174L545,169L554,165L561,163L568,161L575,160L579,160L584,160L588,160L591,161L594,165L596,169L598,174L600,181L602,187L606,202L609,210L611,219L612,229L613,241L615,253L616,266L616,280L616,293L617,307L617,322L617,336L617,351L617,365L615,379L613,392L610,404L606,415L599,431L594,437L590,441L584,443L578,443L569,443L559,443L546,443L533,441L519,439L502,437L486,434L471,431L456,427L442,423L431,419L419,413L410,406L402,400L396,394L389,386L388,382L388,378L390,375L397,373L406,370L417,368L430,366L443,365L472,362L486,361L502,360L516,360L531,360L544,359L557,359L581,358L591,358L601,358L611,358L618,357L625,357L632,357L642,357L646,357L650,356L654,356L657,356L661,356L664,356L667,356L669,356L672,356L673,357L675,359L676,362L677,365L679,371L679,375L679,379L679,383L679,389L679,394L677,402L674,409L667,425L662,434L658,444L653,453L648,463L643,473L638,482L631,492L623,503L615,514L606,525L596,535L587,545L579,553L570,560L563,564L555,566L548,567L542,567L528,562L521,555L514,548L509,540L504,531L500,520L494,496L493,483L492,470L492,456L492,442L492,428L492,414L493,399L494,385L497,372L499,358L501,347L504,337L507,329L514,319L517,317L521,317L526,317L531,318L541,329L547,337L553,346L558,354L564,363L570,371L576,380L582,389L588,398L594,407L599,416L604,425L609,434L613,443L618,451L627,467L631,473L636,480L640,487L643,493L646,500L647,506L649,519L649,526L649,531L647,538L644,544L639,551L633,558L626,565L619,572L611,579L603,584L595,591L586,596L577,603L557,614L547,620L538,625L528,630L518,634L500,640L491,642L482,643L473,644L465,644L455,644L438,639L429,635L419,632L412,628L403,624L395,619L387,613L379,608L372,603L365,597L359,593L349,581L346,575L345,569L345,563L345,557L351,545L357,540L364,536L374,532L383,529L394,526L404,524L416,523L439,521L452,520L465,518L478,518L491,516L505,515L519,514L532,512L545,510L585,503L597,500L609,497L620,494L631,492L640,490L649,489L664,488L669,488L674,488L679,489L682,493L684,497L684,508L683,518L679,526L673,535L667,544L661,552L649,567L642,575L635,584L627,592L619,600L612,607L604,615L590,631L582,638L575,645L570,650L562,656L547,664L539,667L531,669L523,669L515,669L499,661L492,654L486,645L482,635L478,623L476,609L475,579L475,564L475,547L478,530L481,513L485,497L488,480L492,464L502,433L506,416L511,401L516,385L520,372L530,348L535,337L541,327L546,318L553,310L558,304L564,299L575,293L580,292L587,292L592,292L596,294L601,297L606,302L611,308L615,314L624,326L628,332L633,338L638,344L643,350L648,356L658,369L663,374L668,380L672,385L677,397L677,403L677,411L674,420L668,429L661,438L643,455L630,462L619,469L607,475L594,480L579,486L549,498L534,504L519,509L490,519L476,523L462,527L448,531L437,535L424,538L412,541L391,545L383,546L376,546L371,545L367,540L365,535L364,526L364,514L371,490L378,476L385,464L393,452L409,429L417,421L424,414L430,409L441,406L447,406L452,406L458,409L463,414L468,419L473,426L479,433L488,450L492,458L499,476L503,485L507,494L509,503L516,519L519,528L522,535L528,548L530,553L533,559L535,565L537,570L541,579L543,582L545,589L546,592L547,595L547,601L547,604L547,607L547,610L546,613L541,620L538,624L534,628L525,637L519,642L514,646L504,655L499,658L493,662L482,672L475,678L468,684L463,689L456,694L442,704L436,708L429,711L423,713L416,715L410,716L397,716L390,716L385,713L379,707L373,698L366,677L363,664L362,648L361,632L361,615L361,582L361,566L361,550L362,533L368,501L373,485L378,472L382,461L392,445L396,441L400,439L404,439L408,440L412,446L419,461L424,470L433,488L437,498L441,508L446,518L450,528L453,539L460,559L463,569L465,577L468,586L471,594L475,609L478,616L480,624L481,631L484,645L485,651L488,661L490,666L490,670L492,675L492,679L493,688L493,692L493,696L493,699L492,703L490,706L484,713L480,716L475,719L470,721L465,723L452,727L445,729L437,731L418,737L408,740L399,743L390,745L373,749L366,749L359,749L353,749L347,746L336,732L333,723L329,712L325,700L322,687L314,662L310,650L303,627L300,615L298,603L294,583L294,575L294,568L294,558L296,554L300,551L312,547L321,545L329,544L339,542L361,539L373,537L385,535L397,533L422,529L435,528L447,526L459,524L482,521L492,521L503,521L523,520L533,520L541,520L550,520L564,520L570,521L576,523L582,525L589,530L591,533L593,535L594,543L595,547L595,552L595,557L594,569L591,575L589,581L586,587L580,599L577,603L574,608L571,613L568,618L562,629L558,633L555,637L551,642L543,649L539,651L534,653L524,655L519,656L513,657L498,657L491,657L482,657L474,656L455,653L444,650L435,649L423,646L400,641L387,639L375,636L362,633L337,627L325,623L312,620L300,616L276,607L265,603L255,599L234,590L227,586L220,583L210,576L208,572L208,567L208,560L217,543L224,535L232,526L242,516L252,508L262,499L283,483L293,477L312,466L320,463L327,462L333,462L341,466L346,481L347,490L348,499L350,519L350,529L351,540L351,551L351,562L351,586L351,599L351,608L350,620L349,630L347,648L345,656L340,668L336,672L332,675L328,678L316,680L309,680L300,680L280,679L268,676L257,675L234,671L222,669L210,666L188,659L178,655L169,650L159,645L146,634L141,628L137,623L133,603L134,595L139,586L145,577L164,556L174,546L198,527L211,518L225,511L238,503L266,490L281,484L311,474L326,468L341,464L355,459L383,450L396,445L419,437L431,433L441,429L450,426L465,421L471,419L481,417L485,417L488,417L491,417L495,419L497,421L497,424L499,432L499,437L499,449L499,456L499,465L496,483L494,492L492,501L490,511L487,529L485,538L482,550L480,560L473,582L469,593L465,604L459,622L455,630L446,643L441,648L431,655L426,657L419,658L412,658L393,657L383,655L372,652L348,644L333,638L319,633L305,627L276,614L261,607L246,600L217,586L203,580L189,573L164,560L142,550L131,545L121,540L113,535L100,527L96,523L93,518L91,502L92,490L96,477L102,462L117,432L125,416L142,387L150,375L159,365L175,351L182,348L190,346L206,345L214,346L231,358L239,366L248,373L257,380L278,395L290,402L301,409L322,424L331,431L341,439L356,454L363,461L370,473L373,478L373,487L372,492L367,496L351,501L340,503L329,505L316,507L291,510L278,512L266,513L257,514L229,515L222,514L216,509L203,496L197,487L183,470L176,461L159,444L151,436L142,428L126,412L118,404L104,388L98,381L93,375L84,362L81,357L77,348L76,344L76,341L78,334L82,331L93,322L100,317L108,311L124,299L132,293L141,287L157,275L164,269L180,259L188,255L195,251L210,244L216,240L222,238L234,235L239,234L249,234L254,234L259,236L266,243L269,248L272,253L276,266L278,273L281,288L282,295L283,302L284,308L285,322L285,330L282,344L277,353L271,361L256,379L236,399L225,410L214,421L191,441L180,450L158,469L147,477L137,486L119,499L111,505L103,511L91,519L86,522L81,524L73,524L70,524L66,517L64,512L63,505L62,487L62,467L62,457L62,444L64,421L66,408L67,395L71,369L73,356L75,343L80,318L82,305L85,292L93,261L101,244L104,237L108,231L112,226L120,220L129,218L133,218L138,218L148,219L153,222L157,224L167,232L171,236L179,246L183,252L191,266L195,272L204,286L209,293L215,301L224,318L229,327L237,348L241,358L246,380L248,389L250,398L251,412L251,419L247,426L243,428L231,429L222,429L213,428L192,421L181,417L161,407L152,402L142,397L123,388L115,384L100,376L94,372L88,367L79,356L76,349L74,334L74,324L79,302L84,288L89,278L102,251L108,236L121,207L128,192L139,164L144,153L154,131L158,121L162,112L169,97L173,91L179,83L182,80L187,77L190,76L193,76L200,77L204,79L209,82L219,90L229,101L236,108L241,113L254,127L260,135L273,151L278,161L289,180L295,190L300,200L309,219L313,228L320,244L322,251L323,258L324,270L323,275L311,283L291,290L280,292L267,294L239,296L226,297L198,298L183,298L169,299L141,301L127,303L101,306L91,307L71,309L63,309L49,309L45,309L37,307L36,306L35,302L35,300L36,297L46,289L54,284L73,273L84,267L95,261L108,254L133,243L172,226L185,220L199,215L226,202L239,197L266,185L291,173L304,167L317,160L341,147L353,140L373,129L383,124L401,115L408,112L421,108L425,108L434,107L436,107L439,108L442,115L443,119L444,129L444,139L444,146L444,152L442,165L438,180L435,188L432,196L424,215L420,224L416,234L407,256L401,269L389,291L384,302L372,322L366,331L355,345L349,351L337,356L332,357L319,355L312,350L306,341L295,322L290,311L279,287L274,273L266,248L261,233L255,207L251,194L246,168L244,156L242,145L239,125L238,108L238,101L238,95L238,87L239,84L245,82L249,82L262,83L269,86L286,91L297,94L316,100L326,104L347,110L358,112L379,117L389,119L409,122L419,125L436,128L443,131L451,133L462,137L472,142L477,144L483,149L486,153L489,160L490,164L490,173L490,178L490,184L485,198L477,215L473,222L468,230L458,249L451,260L437,280L430,290L415,308L400,324L392,330L381,338L375,340L364,339L359,334L349,319L344,309L333,288L328,276L318,253L312,241L303,219L299,210L292,193L288,176L288,160L292,151L299,143L318,126L341,111L353,105L378,93L391,88L414,78L425,74L446,68L456,65L473,62L481,61L494,61L506,62L511,64L516,66L524,74L527,77L534,86L537,90L543,98L547,103L553,112L557,117L563,128L568,140L570,146L575,160L576,166L578,181L579,188L579,204L576,212L568,228L564,235L553,248L541,258L533,262L518,268L511,270L494,272L487,272L469,272L460,272L451,272L433,270L420,263L417,258L414,253L414,238L427,219L448,201L459,194L483,182L496,176L523,166L538,161L567,149L582,145L609,135L620,132L631,128L645,125L651,124L658,123L661,123L662,125L662,127L661,141L660,146L656,160L654,167L648,185L645,195L638,215L635,225L628,248L623,260L615,284L611,296L601,322L595,335L584,356L577,365L566,375L560,377L549,378L536,372L528,365L513,352L497,339L490,331L474,317L462,302L458,296L453,284L453,279L453,273L458,262L464,257L483,249L518,242L531,241L558,239L570,239L595,238L620,237L633,236L652,235L659,234L671,234L676,234L684,234L687,234L692,234L694,235L698,236L701,239L702,240L705,243L706,244L708,247L710,252L711,255L712,261L713,265L713,273L713,277L713,288L711,299L708,305L705,317L703,323L699,338L696,345L691,360L687,368L679,387L674,398L662,421L656,433L642,461L625,487L616,498L598,516L579,528L570,532L551,532L530,526L519,517L501,498L492,488L475,467L466,458L451,436L445,427L437,409L435,402L435,390L440,384L446,383L465,385L491,397L504,403L532,417L560,433L574,441L601,456L613,463L636,477L645,483L664,495L671,500L684,509L690,514L698,521L702,525L708,532L712,539L713,543L715,550L715,557L715,559L712,564L706,571L701,575L690,586L677,599L670,605L655,620L647,628L628,647L620,655L602,672L584,686L575,691L554,697L545,697L510,688L500,678L484,656L474,630L472,616L471,582L474,566L490,529L512,490L526,471L555,431L570,412L592,386L600,379L615,375L618,377L623,393L626,404L636,437L640,448L648,470L652,480L662,498L667,507L676,524L684,539L687,546L692,559L696,572L697,577L698,586L698,592L695,603L690,610L678,626L664,642L648,659L641,669L623,689L606,709L588,728L577,737L559,750L551,753L538,756L531,756L518,749L512,741L503,722L497,697L494,683L490,654L487,622L485,598L484,591L483,583L483,582L488,585L504,597L515,606L539,620L552,627L580,640L593,647L619,658L641,665L655,669L660,671L661,672L661,674L661,675L656,680L651,684L636,692L625,699L599,715L584,723L553,741L522,757L507,764L479,773L452,775L440,775L418,769L400,752L387,725L383,709L375,676L372,659L368,626L366,614L364,600L364,594L365,594L375,596L391,608L399,614L415,629L429,645L434,654L442,669L444,676L445,689L442,698L436,703L429,707L408,714L384,720L357,727L344,731L318,739L306,742L266,761L255,768L232,782L222,787L207,791L201,791L193,776L192,761L200,687L214,636L223,611L241,570L256,548L272,539L278,539L293,545L306,560L319,580L324,591L335,613L344,636L347,648L352,672L355,693L357,706L358,724L358,733L359,748L358,759L353,764L345,766L337,766L319,764L296,759L284,756L259,749L232,740L219,735L193,723L181,717L159,706L139,694L131,689L118,673L115,665L113,644L120,615L133,592L160,557L181,534L193,523L211,509L224,507L230,508L239,522L243,533L251,556L260,579L266,589L277,610L288,631L293,641L300,657L302,663L302,675L292,679L283,679L259,679L247,679L219,675L191,672L177,672L153,669L142,667L124,662L106,656L92,647L85,640L75,623L70,599L69,569L74,534L79,515L90,475L97,456L109,418L120,386L125,373L135,355L139,348L147,341L155,340L160,340L172,343L185,351L201,362L217,373L226,379L243,392L251,398L268,412L281,428L286,436L294,451L298,474L298,481L293,495L282,505L266,512L257,514L237,517L216,518L204,518L181,514L158,507L130,498L117,493L88,483L74,477L51,461L35,438L28,412L28,384L28,371L37,346L43,332L57,305L74,276L90,250L98,239L111,226L121,222L132,222L144,229L151,234L166,246L183,256L202,266L211,270L230,280L239,284L255,292L267,302L273,312L274,319L271,340L259,366L242,392L220,416L198,438L188,448L168,464L149,475L141,477L126,478L114,473L108,465L99,438L96,421L92,382L88,338L84,286L81,261L77,215L76,173L76,137L87,109L93,99L109,84L130,76L139,76L163,76L188,81L201,86L229,95L256,105L281,115L292,120L313,131L331,144L339,150L350,164L356,179L358,196L354,219L346,234L326,261L298,288L283,300L255,321L226,337L213,343L193,346L174,343L159,326L145,308L133,291L127,284L119,272L114,262L113,251L115,242L132,221L142,209L167,184L210,151L242,132L259,120L289,100L316,83L338,69L355,59L370,53L376,51L387,47L397,47L406,47L410,47L419,52L428,59L437,68L441,74L449,86L456,99L461,115L463,132L464,152L464,163L461,185L454,206L450,217L439,237L427,255L412,268L405,271L381,274L373,274L355,261L335,240L327,228L312,205L299,177L293,164L280,137L268,115L257,96L250,81L248,70L248,64L256,57L287,52L301,52L331,52L365,52L398,55L415,57L448,61L480,64L510,66L538,68L563,71L583,74L598,78L609,83L613,86L618,95L620,108L620,115L620,133L616,151L612,162L604,182L594,201L583,217L577,224L564,234L549,239L533,239L513,236L491,224L467,210L457,204L438,191L422,179L418,174L413,167L414,160L422,155L448,145L481,135L517,127L555,118L593,109L630,100L648,95L691,82L718,71" stroke-opacity="1" stroke-width="5" stroke-linecap="round" stroke-linejoin="round" style="-webkit-tap-highlight-color: rgba(0, 0, 0, 0); stroke-opacity: 1; stroke-linecap: round; stroke-linejoin: round; -webkit-user-select: text;"></path></svg>