<svg height="868" version="1.1" width="768" xmlns="http://www.w3.org/2000/svg" xmlns:xlink="http://www.w3.org/1999/xlink" style="overflow: hidden; position: relative; -webkit-user-select: text;"><desc style="-webkit-tap-highlight-color: rgba(0, 0, 0, 0); -webkit-user-select: text;">Created with Raphaël 2.2.0</desc><defs style="-webkit-tap-highlight-color: rgba(0, 0, 0, 0); -webkit-user-select: text;"></defs><path fill="none" stroke="#000000" d="M262,435L264,433L266,433L271,430L276,425L283,419L293,411L305,401L320,387L336,373L351,358L366,346L378,336L387,328L393,323L396,321L398,320L399,320L399,321L399,322L399,326L399,330L398,339L398,348L398,358L397,370L396,380L395,391L394,400L393,409L392,416L391,422L390,427L388,431L387,433L386,435L385,435L384,435L381,435L375,431L368,427L360,422L351,417L342,412L334,408L327,404L319,400L310,395L303,391L296,387L289,384L285,381L281,379L278,377L277,375L277,372L277,369L283,363L293,354L305,344L319,333L334,324L347,314L359,306L369,300L379,295L385,292L390,290L394,290L396,290L398,290L400,295L402,301L406,308L409,316L414,325L419,333L423,342L427,350L431,358L434,366L436,374L438,382L438,390L438,397L438,406L437,414L434,420L429,425L426,428L421,432L416,435L410,437L404,438L398,440L392,441L386,441L380,441L374,441L368,441L364,440L359,438L356,435L352,431L349,428L346,424L342,421L339,416L336,412L334,408L331,404L329,400L326,395L323,390L320,384L317,378L314,372L311,366L308,359L306,354L302,348L298,342L294,336L288,329L280,324L272,319L257,319" stroke-opacity="1" stroke-width="5" stroke-linecap="round" stroke-linejoin="round" style="-webkit-tap-highlight-color: rgba(0, 0, 0, 0); stroke-opacity: 1; stroke-linecap: round; stroke-linejoin: round; -webkit-user-select: text;"></path><path fill="none" stroke="#000000" d="M230,323L225,322L222,322L218,323L214,325L208,329L203,333L198,339L194,344L191,351L188,359L187,367L186,376L186,385L186,394L187,404L190,413L193,421L196,427L199,432L200,436L202,439L203,441L204,441L205,442L206,442L208,442L211,441L218,438L229,433L244,426L257,419L270,412L280,407L289,402L295,397L298,394L300,392L300,390L300,388L297,387L292,384L285,381L278,377L269,373L261,368L252,364L242,359L232,356L223,354L213,353L205,353L197,353L191,353L186,353L183,353L180,355L179,356L179,358L179,360L179,363L181,369L183,377L187,388L190,400L195,414L200,427L207,440L212,450L218,461L224,470L229,477L233,482L236,485L238,487L240,487L241,487L242,486L245,475L255,453L266,427L277,398L293,365L310,338" stroke-opacity="1" stroke-width="5" stroke-linecap="round" stroke-linejoin="round" style="-webkit-tap-highlight-color: rgba(0, 0, 0, 0); stroke-opacity: 1; stroke-linecap: round; stroke-linejoin: round; -webkit-user-select: text;"></path><path fill="none" stroke="#000000" d="M320,308L312,305L305,305L298,302L288,297L278,292L265,285L254,280L242,275L232,272L225,270L219,268L215,267L212,265L210,263L210,260L210,253L215,240L222,225L229,211L236,198L242,189L247,182L251,178L254,175L257,174L259,174L262,174L265,177L271,181L277,185L285,191L295,198L304,205L315,215L322,222L329,231L333,238L336,245L338,251L339,255L339,259L339,263L336,266L330,270L322,274L313,280L302,288L292,296L282,304L273,310L264,316L258,320L252,322L249,323L245,323L242,323L241,321L240,317L239,312L238,305L238,296L238,285L238,274L238,261L238,252L240,243L242,235L245,230L247,227L250,224L254,221L259,219L265,216L273,212L282,208L291,204L301,202L309,200L318,198L325,198L333,198L339,199L345,201L350,204L355,208L360,212L364,216L368,220L371,225L375,229L378,235L381,241L384,246L387,253L390,259L394,266L398,272L403,278L409,285L417,290L429,292" stroke-opacity="1" stroke-width="5" stroke-linecap="round" stroke-linejoin="round" style="-webkit-tap-highlight-color: rgba(0, 0, 0, 0); stroke-opacity: 1; stroke-linecap: round; stroke-linejoin: round; -webkit-user-select: text;"></path><path fill="none" stroke="#000000" d="M451,311L455,308L458,308L462,308L467,309L474,310L481,310L489,310L499,309L508,304L517,297L525,289L532,279L538,269L544,258L548,251L550,247L551,244L552,243L550,243L546,243L540,243L532,241L525,239L517,235L508,230L499,225L492,222L485,218L480,217L475,216L470,216L466,216L462,217L459,222L456,227L453,234L451,239L451,242L451,246L451,249L452,251L456,253L462,257L470,261L479,266L487,271L496,277L504,283L511,289L517,294L522,300L528,305L532,310L535,313L537,316L538,317L539,318L538,313L534,306L530,293L525,278L520,262L514,249L509,236L504,223L498,208L495,182L490,165" stroke-opacity="1" stroke-width="5" stroke-linecap="round" stroke-linejoin="round" style="-webkit-tap-highlight-color: rgba(0, 0, 0, 0); stroke-opacity: 1; stroke-linecap: round; stroke-linejoin: round; -webkit-user-select: text;"></path><path fill="none" stroke="#000000" d="M476,157L473,159L467,159L458,162L446,164L433,167L420,169L409,171L400,172L394,173L390,173L387,173L387,174L389,176L392,182L395,190L397,202L399,215L401,228L403,241L406,253L408,261L410,266L412,270L414,272L416,273L418,273L422,272L429,267L438,261L452,253L465,246L479,239L489,234L498,228L504,223L508,219L509,216L509,212L508,207L502,200L495,193L487,180L480,168L473,155L467,145L462,134L456,125L451,118L446,112L441,110L437,109L431,109L426,111L421,116L416,125L412,134L409,142L408,151L407,160L406,169L406,178L406,187L407,195L410,201L414,207L419,213L425,218L431,222L438,226L445,230L452,233L459,235L465,237L472,238L480,239L487,239L495,239L503,240L510,240L518,241L526,242L533,245L538,248L544,252L548,257L552,263L555,271L556,285" stroke-opacity="1" stroke-width="5" stroke-linecap="round" stroke-linejoin="round" style="-webkit-tap-highlight-color: rgba(0, 0, 0, 0); stroke-opacity: 1; stroke-linecap: round; stroke-linejoin: round; -webkit-user-select: text;"></path><path fill="none" stroke="#000000" d="M559,319L560,321L560,324L560,329L560,336L558,344L553,354L546,366L540,375L531,387L525,394L519,401L514,405L511,409L508,411L507,411L506,412L505,412L504,412L503,411L499,409L494,406L487,402L478,398L469,394L462,392L453,389L445,387L439,387L434,385L431,384L429,383L428,382L428,380L431,377L441,367L453,358L463,348L472,342L481,336L487,331L492,329L495,329L498,329L500,329L502,329L504,332L507,337L513,344L519,352L528,363L537,373L544,382L550,391L555,398L558,403L560,408L561,411L561,414L561,415L559,415L555,416L548,416L538,417L525,419L509,423L491,427L472,431L448,437L425,446" stroke-opacity="1" stroke-width="5" stroke-linecap="round" stroke-linejoin="round" style="-webkit-tap-highlight-color: rgba(0, 0, 0, 0); stroke-opacity: 1; stroke-linecap: round; stroke-linejoin: round; -webkit-user-select: text;"></path><path fill="none" stroke="#000000" d="M408,459L408,465L408,471L409,478L411,487L414,498L416,507L418,518L418,525L419,531L419,537L419,540L419,542L422,542L429,540L438,535L452,530L464,523L476,517L486,512L495,507L500,504L503,501L504,500L504,499L503,497L496,493L487,487L478,480L469,474L462,470L455,466L451,463L447,462L443,462L440,462L436,462L431,463L424,466L419,469L414,472L408,475L404,477L401,479L399,480L398,482L398,483L399,486L404,490L410,497L417,504L424,512L431,521L438,529L445,537L451,545L454,551L458,556L460,560L462,563L464,564L465,565L467,565L469,564L474,558L483,547L491,535L498,521L504,509L508,498L511,489L511,481L511,472L511,465L509,458L505,451L500,445L495,439L490,433L484,428L476,421L468,414L460,407L451,401L441,396L430,392L417,391L395,394L370,411L349,436" stroke-opacity="1" stroke-width="5" stroke-linecap="round" stroke-linejoin="round" style="-webkit-tap-highlight-color: rgba(0, 0, 0, 0); stroke-opacity: 1; stroke-linecap: round; stroke-linejoin: round; -webkit-user-select: text;"></path><path fill="none" stroke="#000000" d="M338,450L334,453L332,459L330,467L329,477L329,487L329,496L329,505L329,512L329,521L328,530L325,538L320,546L315,552L310,558L304,564L298,568L293,572L290,574L287,575L285,576L283,576L282,576L281,576L280,573L277,570L273,567L267,563L260,560L253,557L246,554L239,551L232,548L227,546L224,543L222,541L222,539L222,537L224,532L232,523L242,512L251,503L261,494L271,486L279,481L285,477L290,474L293,473L295,473L297,473L299,473L301,477L305,481L311,487L319,494L328,501L339,510L349,518L356,526L364,533L369,538L373,543L376,546L377,548L377,550L376,550L373,551L369,553L365,555L360,560L355,565L349,572L344,578L339,583L335,588L332,592L329,595L327,597L326,598L324,599L323,599L321,596L317,591L312,584L306,576L296,565L286,553L274,540L262,528L252,517L246,507" stroke-opacity="1" stroke-width="5" stroke-linecap="round" stroke-linejoin="round" style="-webkit-tap-highlight-color: rgba(0, 0, 0, 0); stroke-opacity: 1; stroke-linecap: round; stroke-linejoin: round; -webkit-user-select: text;"></path><path fill="none" stroke="#000000" d="M214,514L211,514L206,515L199,521L191,526L181,532L172,538L164,544L158,548L153,550L150,551L147,552L149,555L154,559L160,565L166,573L173,582L181,593L188,603L194,613L200,621L204,627L208,630L209,632L210,633L211,630L213,615L218,598L223,580L230,563L238,546L246,532L250,523L253,516L253,512L253,509L253,507L247,506L239,504L232,501L223,498L213,494L206,491L196,487L188,484L180,481L174,479L170,479L167,479L165,479L165,481L165,486L166,494L167,506L169,516L172,528L176,538L181,546L186,554L193,560L199,567L207,573L213,577L222,581L229,584L236,586L243,587L250,587L256,587L265,586L273,580L280,573L287,564L292,555L297,545L299,538L301,531L302,523L302,515L302,508L302,500L302,491L304,480L309,466L317,454L326,443L336,438" stroke-opacity="1" stroke-width="5" stroke-linecap="round" stroke-linejoin="round" style="-webkit-tap-highlight-color: rgba(0, 0, 0, 0); stroke-opacity: 1; stroke-linecap: round; stroke-linejoin: round; -webkit-user-select: text;"></path><path fill="none" stroke="#000000" d="M344,453L349,446L357,441L366,436L376,435L386,434L398,434L407,438L416,444L423,451L429,460L434,469L436,475L438,481L440,484L440,486L441,487L441,488L438,489L431,494L421,502L410,511L398,519L386,528L375,535L368,542L360,548L355,552L351,553L349,553L347,553L345,549L341,543L337,537L333,532L329,528L325,525L322,522L320,520L319,518L319,517L319,514L328,509L341,500L353,493L366,487L377,482L385,480L391,478L395,477L397,477L399,477L399,479L399,481L399,484L399,489L403,498L408,511L414,526L420,542L425,557L428,569L430,581" stroke-opacity="1" stroke-width="5" stroke-linecap="round" stroke-linejoin="round" style="-webkit-tap-highlight-color: rgba(0, 0, 0, 0); stroke-opacity: 1; stroke-linecap: round; stroke-linejoin: round; -webkit-user-select: text;"></path><path fill="none" stroke="#000000" d="M432,608L435,612L439,617L445,624L450,632L454,638L459,645L463,652L467,656L470,660L472,663L474,665L476,666L477,666L480,666L484,664L492,657L503,647L514,635L526,625L535,617L541,611L545,606L548,603L549,600L549,597L547,595L540,591L528,587L514,582L500,577L491,573L480,567L471,562L463,558L457,554L451,552L445,550L441,548L437,548L435,548L434,548L433,549L433,554L432,562L429,579L424,596L419,613L414,628L411,638L409,647L409,652L409,657L410,659L413,662L419,663L425,666L432,669L442,673L449,676L458,679L465,681L471,682L476,683L481,683L485,681L488,675L490,665L491,653L491,643L491,633L490,624L487,617L485,610L483,601L481,590L481,579L481,568L481,559L483,550L489,542L495,536L504,531L514,526L528,524L543,524" stroke-opacity="1" stroke-width="5" stroke-linecap="round" stroke-linejoin="round" style="-webkit-tap-highlight-color: rgba(0, 0, 0, 0); stroke-opacity: 1; stroke-linecap: round; stroke-linejoin: round; -webkit-user-select: text;"></path><path fill="none" stroke="#000000" d="M555,531L561,528L565,528L572,528L580,531L590,536L599,543L608,550L615,557L620,562L623,566L627,571L628,574L629,577L630,579L630,580L630,581L627,582L621,586L613,592L602,601L592,611L580,621L571,630L564,637L559,642L555,645L553,646L551,647L549,647L547,645L541,638L531,628L520,617L512,610L504,605L498,601L494,599L491,598L489,597L491,596L497,594L512,586L535,575L558,567L576,561L593,555L604,551L611,548L615,546L617,545L618,545L618,548L615,555L610,570L601,593L593,616L584,637L572,659L565,674" stroke-opacity="1" stroke-width="5" stroke-linecap="round" stroke-linejoin="round" style="-webkit-tap-highlight-color: rgba(0, 0, 0, 0); stroke-opacity: 1; stroke-linecap: round; stroke-linejoin: round; -webkit-user-select: text;"></path><path fill="none" stroke="#000000" d="M535,684L531,691L530,696L528,703L524,713L517,725L510,737L505,746L500,753L497,759L494,763L492,765L491,766L490,766L489,766L487,766L483,766L477,764L469,761L460,759L448,757L440,756L432,755L425,755L419,755L414,755L411,755L409,754L409,752L409,748L413,735L421,719L429,704L435,694L439,688L443,684L446,683L448,682L451,682L455,685L460,691L469,698L481,706L492,715L504,723L515,732L523,739L531,747L536,752L539,757L541,761L542,765L542,769L540,772L534,776L527,780L519,784L509,788L499,790L490,791L482,791L473,791L465,791L455,786L446,780L439,776L432,771L426,766L421,760L417,751L414,744L411,737L408,728L405,720L402,711L398,701L394,695L389,689L384,684L378,680L370,676L362,674L353,674" stroke-opacity="1" stroke-width="5" stroke-linecap="round" stroke-linejoin="round" style="-webkit-tap-highlight-color: rgba(0, 0, 0, 0); stroke-opacity: 1; stroke-linecap: round; stroke-linejoin: round; -webkit-user-select: text;"></path><path fill="none" stroke="#000000" d="M329,676L323,674L319,674L314,674L306,675L295,678L284,682L275,689L265,700L259,713L255,725L254,739L254,753L254,766L257,777L260,785L262,789L263,791L264,792L265,792L266,792L269,790L274,788L283,786L296,784L309,783L322,783L332,783L341,783L348,783L352,783L355,783L356,783L355,782L347,772L339,757L330,742L323,728L317,715L311,703L306,694L302,688L298,684L295,682L292,681L287,681L282,681L272,682L259,688L247,694L237,698L227,703L221,707L217,710L215,712L215,714L215,716L216,718L222,722L231,728L240,735L249,742L258,749L266,755L272,759L278,763L281,764L284,765L286,765L287,765L288,762L293,752L300,735L310,711L324,684L341,655L360,627" stroke-opacity="1" stroke-width="5" stroke-linecap="round" stroke-linejoin="round" style="-webkit-tap-highlight-color: rgba(0, 0, 0, 0); stroke-opacity: 1; stroke-linecap: round; stroke-linejoin: round; -webkit-user-select: text;"></path><path fill="none" stroke="#000000" d="M376,636L380,631L385,627L393,620L402,613L410,607L417,602L421,599L424,598L426,598L428,598L429,599L431,604L435,613L440,622L446,632L452,644L457,655L460,665L462,673L463,678L464,681L464,684L461,684L453,685L442,686L431,689L419,693L409,698L400,703L393,709L387,713L383,716L379,718L376,718L373,718L369,715L364,707L358,693L352,678L347,663L341,650L337,640L334,631L331,623L331,617L331,611L336,604L348,595L363,587L379,582L396,580L410,579L424,579L435,582L444,590L451,601L455,616L456,630L456,645L456,658L455,666L450,673L443,679L436,682L430,684L423,685L415,685L408,684L401,679L393,674L385,669L378,664L370,659L361,655L353,650L343,647L332,643L321,639L309,636L295,634L282,634L262,646L244,672" stroke-opacity="1" stroke-width="5" stroke-linecap="round" stroke-linejoin="round" style="-webkit-tap-highlight-color: rgba(0, 0, 0, 0); stroke-opacity: 1; stroke-linecap: round; stroke-linejoin: round; -webkit-user-select: text;"></path><path fill="none" stroke="#000000" d="M233,687L228,692L225,694L220,698L215,702L210,706L204,708L197,711L190,712L180,712L171,710L162,704L155,695L149,685L144,675L139,664L136,654L133,643L131,637L129,633L127,631L126,629L125,629L124,628L124,626L124,623L130,616L140,608L152,598L164,589L174,582L183,577L191,572L196,569L202,569L207,570L210,574L213,581L217,588L221,598L226,607L231,617L236,626L239,633L241,636L242,638L242,640L238,640L232,640L224,640L212,642L200,645L185,650L174,654L160,661L151,667L142,673L134,679L128,682L124,685L122,686L120,687L120,685L120,676L121,657L124,629L127,602L137,569L152,536" stroke-opacity="1" stroke-width="5" stroke-linecap="round" stroke-linejoin="round" style="-webkit-tap-highlight-color: rgba(0, 0, 0, 0); stroke-opacity: 1; stroke-linecap: round; stroke-linejoin: round; -webkit-user-select: text;"></path><path fill="none" stroke="#000000" d="M170,506L169,500L169,493L171,482L174,470L178,458L183,448L188,438L193,431L196,426L198,421L199,419L199,418L198,418L195,418L190,418L183,418L175,418L165,415L154,413L144,409L134,407L126,404L120,403L115,402L111,402L109,403L108,408L106,416L105,426L104,439L104,454L104,470L105,482L108,491L111,496L116,499L122,499L130,499L143,494L157,488L171,482L186,476L196,472L204,469L210,467L214,464L217,460L217,455L217,447L217,434L215,419L210,404L204,391L199,382L194,375L188,370L182,365L175,362L166,360L157,360L148,360L138,360L128,364L122,369L115,377L112,385L109,393L108,401L108,409L108,416L110,423L114,428L118,432L122,436L127,439L132,441L138,443L144,444L151,444L159,444L167,443L175,440L184,434L193,427L204,417L215,406L229,391L245,374" stroke-opacity="1" stroke-width="5" stroke-linecap="round" stroke-linejoin="round" style="-webkit-tap-highlight-color: rgba(0, 0, 0, 0); stroke-opacity: 1; stroke-linecap: round; stroke-linejoin: round; -webkit-user-select: text;"></path><path fill="none" stroke="#000000" d="M267,351L270,347L276,342L283,334L294,325L302,317L310,310L316,305L320,302L322,300L322,299L322,298L322,297L317,295L311,289L303,281L294,270L285,259L278,251L272,245L267,241L263,238L259,236L255,236L248,238L237,245L223,256L205,271L189,284L178,293L171,299L167,302L166,304L166,305L167,305L172,305L180,307L189,312L199,317L210,323L222,330L235,336L248,342L259,347L270,351L279,353L288,355L297,355L302,355L305,354L307,352L307,349L307,346L300,342L293,337L284,331L275,323L266,312L257,303L249,293L239,284L231,276L222,268L215,260L208,252L203,243L200,232L198,221L198,204L207,179L225,155L244,141" stroke-opacity="1" stroke-width="5" stroke-linecap="round" stroke-linejoin="round" style="-webkit-tap-highlight-color: rgba(0, 0, 0, 0); stroke-opacity: 1; stroke-linecap: round; stroke-linejoin: round; -webkit-user-select: text;"></path><path fill="none" stroke="#000000" d="M271,142L273,137L280,134L291,130L302,127L314,125L327,125L339,125L351,126L361,131L368,135L373,139L376,142L378,146L378,148L378,149L378,150L378,151L373,154L366,160L359,168L349,181L338,194L327,208L315,221L307,233L301,241L298,246L295,249L293,249L291,249L289,248L285,241L280,234L273,226L266,219L259,212L252,206L247,201L244,198L242,195L242,192L242,190L248,185L261,177L276,170L291,164L306,161L318,158L327,156L334,155L340,155L344,155L346,156L348,159L349,164L350,169L351,175L354,181L358,188L362,193L368,199L374,205L381,209L389,212L397,213L404,213L412,213L420,211L428,205L434,197L439,189L442,181L445,173L446,166L446,159L446,152L446,146L441,140L436,135L430,130L424,126L417,122L410,118L403,115L397,110L390,105L385,100L381,93L378,86L378,80L378,71" stroke-opacity="1" stroke-width="5" stroke-linecap="round" stroke-linejoin="round" style="-webkit-tap-highlight-color: rgba(0, 0, 0, 0); stroke-opacity: 1; stroke-linecap: round; stroke-linejoin: round; -webkit-user-select: text;"></path><path fill="none" stroke="#000000" d="M398,57L399,54L402,46L407,40L413,34L422,28L433,23L444,21L456,21L468,21L479,24L486,27L492,32L496,35L498,38L498,40L499,41L499,42L497,44L493,47L488,53L481,61L472,73L463,84L454,95L443,106L433,116L425,124L418,129L413,132L408,134L404,134L399,134L392,132L386,129L377,123L369,118L360,113L353,109L347,105L343,103L341,101L341,99L341,98L342,96L352,93L366,87L382,81L398,77L413,73L424,69L434,67L439,65L443,65L446,65L447,65L448,66L449,69L452,73L457,78L467,87L480,96L499,109L519,120L536,126" stroke-opacity="1" stroke-width="5" stroke-linecap="round" stroke-linejoin="round" style="-webkit-tap-highlight-color: rgba(0, 0, 0, 0); stroke-opacity: 1; stroke-linecap: round; stroke-linejoin: round; -webkit-user-select: text;"></path><path fill="none" stroke="#000000" d="M561,148L564,153L570,154L579,157L589,161L600,164L611,168L619,171L627,175L631,177L634,178L636,180L637,182L637,185L635,190L630,199L624,209L616,222L609,234L602,245L596,255L589,264L583,271L578,275L574,277L569,277L562,276L553,271L541,264L527,257L515,251L505,245L496,240L490,237L486,234L483,228L483,221L483,210L489,198L498,187L508,181L519,177L529,176L539,176L549,179L556,184L563,190L568,198L573,206L577,215L579,222L581,232L583,240L584,249L585,257L587,263L589,270L591,278L593,284L596,290L600,295L604,299L608,302L613,305L618,306L624,306L632,306L639,305L645,299L651,291L654,283L656,275L656,268L656,259L656,252L653,245L649,235L645,224" stroke-opacity="1" stroke-width="5" stroke-linecap="round" stroke-linejoin="round" style="-webkit-tap-highlight-color: rgba(0, 0, 0, 0); stroke-opacity: 1; stroke-linecap: round; stroke-linejoin: round; -webkit-user-select: text;"></path><path fill="none" stroke="#000000" d="M635,204L632,198L632,193L632,184L632,174L633,161L635,149L636,140L637,132L638,125L638,120L638,115L638,111L637,109L630,108L621,108L608,108L595,109L577,113L561,116L550,118L541,120L534,120L531,121L528,121L528,122L529,125L533,131L537,141L541,151L545,164L548,178L550,192L553,206L555,218L560,227L563,234L567,238L569,239L572,240L575,240L577,237L581,229L584,219L585,207L586,195L586,183L585,171L583,160L581,151L579,144L577,138L573,134L570,130L567,127L563,124L560,122L557,120L555,119L555,117L555,115L555,113L560,110L572,104L593,95L614,87L636,80L650,76" stroke-opacity="1" stroke-width="5" stroke-linecap="round" stroke-linejoin="round" style="-webkit-tap-highlight-color: rgba(0, 0, 0, 0); stroke-opacity: 1; stroke-linecap: round; stroke-linejoin: round; -webkit-user-select: text;"></path><path fill="none" stroke="#000000" d="M658,99L661,98L666,98L673,100L683,104L692,106L701,109L708,110L712,111L716,112L718,114L718,115L718,118L718,122L716,127L711,136L706,145L698,158L691,171L684,183L677,194L672,203L667,210L664,215L660,218L657,219L653,219L649,219L642,215L633,209L623,203L613,198L603,192L593,188L584,183L578,180L574,177L572,175L572,172L572,169L579,164L591,156L606,150L619,144L630,140L638,138L644,136L649,135L652,135L655,135L656,138L657,144L658,151L660,158L662,166L666,174L669,181L673,189L677,196L681,204L684,211L685,217L685,223L685,229L685,234L681,241L676,246L668,251L661,256L653,259L646,262L638,263L629,264L622,265L614,265L606,266L598,266L591,266L582,267L575,268L568,271L563,274L558,278L554,284L550,292L549,302L549,316L550,331L557,346" stroke-opacity="1" stroke-width="5" stroke-linecap="round" stroke-linejoin="round" style="-webkit-tap-highlight-color: rgba(0, 0, 0, 0); stroke-opacity: 1; stroke-linecap: round; stroke-linejoin: round; -webkit-user-select: text;"></path><path fill="none" stroke="#000000" d="M549,365L550,373L552,380L556,389L562,398L568,407L578,416L588,421L600,425L614,426L627,426L639,426L647,426L653,424L657,424L658,423L658,422L658,420L654,415L648,404L644,388L642,375L641,363L641,356L641,350L640,346L638,343L634,343L623,343L608,346L592,352L573,358L555,365L541,370L530,375L523,378L519,380L517,381L516,382L516,384L518,387L521,392L524,399L528,409L533,420L537,432L541,444L545,455L550,465L554,470L558,475L561,477L565,478L568,479L571,479L573,477L575,473L577,465L580,449L587,424L594,396L606,369" stroke-opacity="1" stroke-width="5" stroke-linecap="round" stroke-linejoin="round" style="-webkit-tap-highlight-color: rgba(0, 0, 0, 0); stroke-opacity: 1; stroke-linecap: round; stroke-linejoin: round; -webkit-user-select: text;"></path><path fill="none" stroke="#000000" d="M607,348L608,345L609,338L613,328L620,315L626,303L632,295L636,289L639,286L641,285L643,285L645,285L647,287L652,289L660,291L672,294L685,297L696,300L703,304L711,309L716,314L720,322L723,330L724,338L724,347L724,355L719,363L710,373L697,382L683,392L669,401L655,410L643,419L634,424L627,428L622,429L618,429L613,426L608,415L600,402L594,388L586,377L579,368L572,360L565,353L561,348L558,343L558,340L558,336L562,332L575,326L589,321L602,319L616,319L630,319L642,322L652,327L660,334L667,342L673,351L678,360L682,370L684,377L684,387L685,394L685,403L684,411L680,419L674,427L668,435L661,443L652,451L644,459L636,466L628,472L621,477L615,482L610,488L606,494L604,503L602,516L602,529L602,545" stroke-opacity="1" stroke-width="5" stroke-linecap="round" stroke-linejoin="round" style="-webkit-tap-highlight-color: rgba(0, 0, 0, 0); stroke-opacity: 1; stroke-linecap: round; stroke-linejoin: round; -webkit-user-select: text;"></path><path fill="none" stroke="#000000" d="M590,538L587,543L587,549L587,557L587,567L587,578L592,589L599,599L609,606L619,611L631,612L643,612L656,611L667,608L674,606L679,604L681,603L682,603L683,601L683,599L683,592L682,581L682,566L682,548L683,536L684,528L684,522L683,518L677,516L664,513L648,508L631,503L614,497L598,492L584,487L572,483L564,479L559,476L556,475L555,475L555,477L555,484L556,494L556,509L556,526L556,544L555,561L553,575L553,590L553,602L554,611L558,618L560,621L563,623L566,623L568,623L571,622L574,618L579,612L589,602L601,586L617,568L638,545L656,520" stroke-opacity="1" stroke-width="5" stroke-linecap="round" stroke-linejoin="round" style="-webkit-tap-highlight-color: rgba(0, 0, 0, 0); stroke-opacity: 1; stroke-linecap: round; stroke-linejoin: round; -webkit-user-select: text;"></path><path fill="none" stroke="#000000" d="M652,498L656,494L663,489L672,482L683,474L691,468L696,464L700,461L701,459L702,458L699,457L694,455L688,451L679,446L671,441L661,434L650,428L639,422L628,416L617,411L608,409L599,407L593,407L587,407L581,408L577,411L574,419L571,429L569,442L567,459L565,474L562,490L560,503L559,516L559,526L559,534L562,540L567,544L574,547L582,548L591,548L602,547L613,539L622,528L630,516L635,506L639,494L641,484L643,475L643,465L643,456L643,446L641,437L639,428L638,419L636,409L635,400L635,391L635,383L635,376L635,368L637,361L642,355L647,349L653,345L660,341L665,339L671,338L677,337L684,337L690,337L699,337L708,339" stroke-opacity="1" stroke-width="5" stroke-linecap="round" stroke-linejoin="round" style="-webkit-tap-highlight-color: rgba(0, 0, 0, 0); stroke-opacity: 1; stroke-linecap: round; stroke-linejoin: round; -webkit-user-select: text;"></path><path fill="none" stroke="#000000" d="M694,377L701,373L706,374L711,378L719,384L725,392L730,399L733,409L734,418L734,431L733,442L730,453L728,460L725,466L724,470L723,472L722,473L720,473L717,471L709,467L698,463L683,457L667,452L650,448L635,444L623,441L611,438L605,434L600,431L598,429L597,428L597,427L601,427L609,425L624,420L640,414L656,409L667,406L676,404L681,404L685,404L688,405L689,411L690,418L691,426L691,435L692,446L692,460L692,472L692,480L691,489L688,494L685,499L681,503L677,506L670,509L662,511L650,514L633,517L606,521" stroke-opacity="1" stroke-width="5" stroke-linecap="round" stroke-linejoin="round" style="-webkit-tap-highlight-color: rgba(0, 0, 0, 0); stroke-opacity: 1; stroke-linecap: round; stroke-linejoin: round; -webkit-user-select: text;"></path><path fill="none" stroke="#000000" d="M586,546L577,540L572,542L567,549L561,558L556,568L552,578L549,585L546,591L544,594L543,596L542,597L542,598L545,598L550,601L559,608L568,615L577,623L587,630L594,637L600,642L604,645L607,646L611,646L614,646L617,639L622,628L628,613L632,601L636,590L638,583L638,578L638,574L634,571L623,569L608,569L590,569L574,573L561,577L550,580L543,582L539,582L536,583L535,584L535,586L535,588L536,592L538,599L540,607L541,616L542,623L543,630L544,638L546,645L548,650L551,657L555,662L558,666L562,670L566,672L570,674L575,675L579,676L584,676L589,676L594,676L599,676L604,676L609,676L613,676L618,676L624,676L630,676L635,676L640,676L645,679L649,681L653,686L655,691L657,700L657,713" stroke-opacity="1" stroke-width="5" stroke-linecap="round" stroke-linejoin="round" style="-webkit-tap-highlight-color: rgba(0, 0, 0, 0); stroke-opacity: 1; stroke-linecap: round; stroke-linejoin: round; -webkit-user-select: text;"></path><path fill="none" stroke="#000000" d="M643,737L640,743L636,751L630,757L622,764L612,770L602,776L594,781L586,785L579,788L574,791L569,794L566,795L564,797L562,797L561,797L560,797L559,797L557,794L553,789L546,781L539,774L531,769L524,765L516,761L511,759L507,757L504,755L503,753L503,750L506,745L518,737L531,728L544,718L557,709L566,703L575,700L583,698L590,698L596,699L601,703L606,709L611,717L617,725L622,735L626,743L629,751L632,758L635,763L636,767L638,771L639,775L640,778L640,780L640,781L640,783L638,784L635,785L630,785L624,786L616,786L606,785L591,778L572,768L555,757L540,749" stroke-opacity="1" stroke-width="5" stroke-linecap="round" stroke-linejoin="round" style="-webkit-tap-highlight-color: rgba(0, 0, 0, 0); stroke-opacity: 1; stroke-linecap: round; stroke-linejoin: round; -webkit-user-select: text;"></path><path fill="none" stroke="#000000" d="M526,725L521,723L516,723L506,725L490,732L471,742L457,751L443,759L433,764L424,769L418,773L413,776L409,778L406,779L404,780L402,781L400,781L398,778L394,769L388,755L382,741L376,728L371,718L366,708" stroke-opacity="1" stroke-width="5" stroke-linecap="round" stroke-linejoin="round" style="-webkit-tap-highlight-color: rgba(0, 0, 0, 0); stroke-opacity: 1; stroke-linecap: round; stroke-linejoin: round; -webkit-user-select: text;"></path><path fill="none" stroke="#000000" d="M314,637L311,628L309,622L305,617L301,612L293,606L282,603L270,601L258,601L246,602L233,607L222,614L214,620L207,624L203,626L200,627L199,628L200,628L205,631L212,637L218,647L224,657L231,672L237,686L242,700L245,711L249,720L252,726L255,728L258,730L261,730L267,728L277,720L288,708L303,693L315,682L326,672L332,664L336,659L339,655L339,651L339,644L339,632L336,616L331,601L325,586L319,573L311,562L305,555L299,551L294,549L288,549L279,556L266,575L253,597L241,622L230,648L223,672L219,688L217,699L216,706L216,709L216,711L218,710L222,708L229,703L241,693L263,668L292,634L327,589L374,536" stroke-opacity="1" stroke-width="5" stroke-linecap="round" stroke-linejoin="round" style="-webkit-tap-highlight-color: rgba(0, 0, 0, 0); stroke-opacity: 1; stroke-linecap: round; stroke-linejoin: round; -webkit-user-select: text;"></path></svg>