<svg height="868" version="1.1" width="768" xmlns="http://www.w3.org/2000/svg" xmlns:xlink="http://www.w3.org/1999/xlink" style="overflow: hidden; position: relative; -webkit-user-select: text;"><desc style="-webkit-tap-highlight-color: rgba(0, 0, 0, 0); -webkit-user-select: text;">Created with Raphaël 2.2.0</desc><defs style="-webkit-tap-highlight-color: rgba(0, 0, 0, 0); -webkit-user-select: text;"></defs><path fill="none" stroke="#000000" d="M312,370L309,372L312,369L315,365L319,362L323,357L328,352L333,346L339,340L346,334L352,327L357,322L363,316L368,310L372,306L376,302L379,300L381,298L383,297L384,297L385,297L385,298L385,302L385,305L385,310L385,316L385,321L385,326L385,332L385,339L385,344L385,349L385,354L385,359L385,363L385,367L385,370L385,371L384,372L383,373L382,373L380,373L378,373L375,373L372,372L368,370L363,367L358,363L352,360L347,356L343,353L338,349L334,346L331,344L328,342L326,341L324,340L323,340L323,339L324,337L327,335L331,333L336,329L343,326L349,322L356,317L362,313L369,308L376,305L381,302L387,299L392,296L396,294L399,292L402,291L404,291L405,291L406,291L407,291L407,292L408,295L409,297L409,301L410,304L410,308L411,312L412,317L412,322L412,327L413,333L413,339L414,344L414,350L414,356L414,361L414,366L414,371L414,375L414,379L413,382L412,384L411,386L410,387L409,388L407,389L405,390L403,390L401,390L398,390L395,390L392,390L388,390L384,390L380,390L376,390L372,390L368,390L364,390L360,390L356,390L353,390L349,390L346,388L342,387L339,386L336,385L333,382L330,381L328,379L325,377L323,374L321,372L319,369L318,367L317,365L315,362L314,360L313,357L312,354L311,352L310,349L309,347L308,344L307,341L307,339L306,335L306,331L306,326L306,314L312,297" stroke-opacity="1" stroke-width="5" stroke-linecap="round" stroke-linejoin="round" style="-webkit-tap-highlight-color: rgba(0, 0, 0, 0); stroke-opacity: 1; stroke-linecap: round; stroke-linejoin: round; -webkit-user-select: text;"></path><path fill="none" stroke="#000000" d="M329,272L330,268L331,265L333,261L335,258L338,256L341,253L344,250L348,247L351,245L355,244L358,242L362,241L365,240L368,240L372,239L375,239L379,239L383,239L387,239L391,239L395,239L399,239L403,239L407,240L410,240L414,241L417,241L421,241L424,242L428,242L431,243L434,244L436,244L438,244L438,245L439,245L439,246L439,248L439,249L439,252L439,255L439,259L439,264L439,269L439,275L439,282L438,288L437,294L436,299L435,304L434,307L433,308L431,309L430,309L427,309L424,309L419,308L413,305L407,302L399,300L392,297L386,295L380,293L374,291L370,290L366,288L363,287L361,285L360,284L360,282L360,280L360,278L364,274L370,269L378,262L385,256L393,250L401,243L409,237L418,231L425,227L431,222L436,220L439,219L441,218L443,218L444,218L446,218L446,221L448,224L450,227L452,232L455,238L458,244L461,251L464,258L467,264L469,269L472,275L474,280L475,284L477,288L479,291L480,294L480,295L480,296L481,296L481,297L480,298L479,298L477,299L475,299L472,300L468,300L462,300L455,300L449,300L443,300L438,299L434,299L430,298L426,298L424,298L421,298L419,298L417,298L414,297L412,297L410,297L408,297L406,297L405,297L404,297L402,297L401,297" stroke-opacity="1" stroke-width="5" stroke-linecap="round" stroke-linejoin="round" style="-webkit-tap-highlight-color: rgba(0, 0, 0, 0); stroke-opacity: 1; stroke-linecap: round; stroke-linejoin: round; -webkit-user-select: text;"></path><path fill="none" stroke="#000000" d="M392,307L390,309L390,313L390,319L390,325L390,330L390,338L390,345L390,351L390,356L389,361L387,365L387,369L386,371L386,373L386,374L388,375L392,375L397,376L403,377L409,378L417,379L424,379L429,380L434,380L438,380L441,380L443,378L444,376L444,372L444,366L444,358L444,351L444,343L444,338L444,333L444,330L444,328L443,328L441,328L438,329L432,333L423,339L414,344L403,349L394,354L387,358L380,360L375,363L372,365L370,367L369,368L369,371L369,373L369,377L371,381L373,386L377,390L380,395L384,399L389,404L393,407L397,411L402,413L407,415L412,416L417,416L423,417L429,417L434,417L439,417L444,415L448,413L452,410L455,407L459,403L461,400L463,397L465,393L466,389L467,385L468,382L468,379L469,375L469,372L469,369L469,365L469,362L469,359L469,356L468,353L467,350L466,346L465,343L465,341L464,338L463,334L463,331L462,328L462,324L462,320L462,315L462,309L463,302L476,286" stroke-opacity="1" stroke-width="5" stroke-linecap="round" stroke-linejoin="round" style="-webkit-tap-highlight-color: rgba(0, 0, 0, 0); stroke-opacity: 1; stroke-linecap: round; stroke-linejoin: round; -webkit-user-select: text;"></path><path fill="none" stroke="#000000" d="M480,282L482,276L484,274L487,272L491,270L496,267L501,265L507,263L511,262L517,261L522,261L527,261L532,261L536,261L539,263L542,266L545,268L548,273L550,276L552,280L553,284L554,288L554,292L554,295L554,298L553,300L550,304L545,308L541,314L537,320L532,326L528,333L524,339L520,344L518,346L515,348L514,349L512,349L511,349L510,347L508,343L505,338L502,332L497,326L493,320L488,314L484,308L482,305L480,302L480,300L480,299L480,298L485,297L494,295L506,291L519,287L533,285L545,282L553,280L560,279L565,279L569,279L572,279L573,279L573,280L574,282L574,284L574,287L574,293L572,300L570,308L567,317L563,328L560,339L555,351L551,364L547,375L543,384L538,393" stroke-opacity="1" stroke-width="5" stroke-linecap="round" stroke-linejoin="round" style="-webkit-tap-highlight-color: rgba(0, 0, 0, 0); stroke-opacity: 1; stroke-linecap: round; stroke-linejoin: round; -webkit-user-select: text;"></path><path fill="none" stroke="#000000" d="M520,437L521,433L522,426L526,419L528,414L531,409L535,404L535,403L535,406L533,411L529,417L526,424L522,431L518,438L513,445L509,453L505,459L502,464L499,468L497,472L494,474L492,475L491,476L489,476L485,476L481,476L475,476L467,475L461,473L453,472L446,471L441,471L436,470L431,470L429,469L428,469L428,468L428,467L428,466L429,463L433,457L439,445L446,433L451,424L455,417L460,411L463,407L467,405L470,404L473,404L477,404L482,407L487,411L492,416L497,422L503,427L509,433L515,438L521,445L527,450L532,457L536,462L538,467L539,472L540,477L540,482L540,486L538,489L534,491L530,492L526,492L521,492L517,492L513,492L507,492L501,492L496,491L491,488L486,484L482,481L478,477L475,473L473,469L472,465L471,460L470,456L470,451L470,445L470,440L472,434L474,429L476,424L478,419L481,414L484,409L487,404L490,399L492,395L494,391L497,388L507,379" stroke-opacity="1" stroke-width="5" stroke-linecap="round" stroke-linejoin="round" style="-webkit-tap-highlight-color: rgba(0, 0, 0, 0); stroke-opacity: 1; stroke-linecap: round; stroke-linejoin: round; -webkit-user-select: text;"></path><path fill="none" stroke="#000000" d="M526,376L526,370L528,368L531,365L536,362L542,358L547,355L552,353L557,350L562,346L566,343L571,338L574,334L577,329L578,324L578,318L578,312L578,306L578,301L575,295L572,290L570,285L567,281L564,277L562,274L559,272L557,270L555,268L553,268L551,268L549,268L546,268L543,268L538,270L532,273L526,278L519,281L512,285L507,287L501,290L497,292L495,293L494,295L494,297L495,299L499,302L503,306L507,311L512,317L516,323L521,329L524,334L526,339L528,342L531,343L532,344L533,344L535,343L539,337L548,326L558,313L566,301L574,290L580,282L585,275L589,271L591,268L592,265L593,264L593,263L590,263L586,263L579,261L571,259L562,256L553,253L545,249L537,246L530,241L524,237L519,234L516,232L514,231L512,230L514,234L519,242L526,255L538,274L551,292L565,312L579,331L591,349" stroke-opacity="1" stroke-width="5" stroke-linecap="round" stroke-linejoin="round" style="-webkit-tap-highlight-color: rgba(0, 0, 0, 0); stroke-opacity: 1; stroke-linecap: round; stroke-linejoin: round; -webkit-user-select: text;"></path><path fill="none" stroke="#000000" d="M601,363L603,369L605,374L609,381L613,389L618,396L622,404L626,411L629,416L631,420L633,424L633,428L634,430L634,431L634,433L631,434L627,436L621,439L614,443L607,447L599,451L591,454L583,457L575,459L568,460L562,461L557,462L553,462L550,462L548,461L546,458L545,452L543,444L540,436L536,426L533,419L529,412L526,408L523,405L521,402L519,400L519,399L519,398L523,397L533,394L545,391L562,387L578,385L595,382L609,381L623,380L632,379L638,379L643,379L646,379L647,380L647,383L647,390L647,397L646,406L643,417L640,428L636,439L632,451L628,462L624,472L621,478L617,483L613,486L609,488L604,488L597,488L592,488L586,487L581,485L575,482L571,479L566,476L562,472L560,468L557,464L556,460L555,455L555,451L555,447L555,443L557,440L560,437L565,434L570,432L575,430L581,428L586,428L591,427L596,427L601,427L605,427L610,427L613,428L616,431L619,434L622,437L625,442L626,445L628,450L628,455L629,462L629,468L629,475L629,482L628,489L625,497L622,504L618,511L608,520" stroke-opacity="1" stroke-width="5" stroke-linecap="round" stroke-linejoin="round" style="-webkit-tap-highlight-color: rgba(0, 0, 0, 0); stroke-opacity: 1; stroke-linecap: round; stroke-linejoin: round; -webkit-user-select: text;"></path><path fill="none" stroke="#000000" d="M587,537L582,540L580,540L576,540L572,540L567,541L561,543L556,544L550,544L544,545L537,545L531,545L523,545L517,544L510,542L504,540L497,538L490,537L484,535L478,533L473,532L469,531L465,530L463,530L462,530L461,530L460,532L460,536L460,542L460,549L460,558L460,566L460,574L460,581L461,587L461,591L463,595L464,597L465,597L468,598L471,598L477,598L485,598L494,598L504,596L513,595L519,593L524,591L528,589L530,586L531,582L531,577L531,570L530,562L527,553L525,543L524,533L523,525L522,518L521,512L519,508L517,504L515,503L511,502L507,502L501,502L493,504L483,509L473,513L463,518L454,522L446,526L440,531L436,535L433,538L432,541L432,545L432,550L434,554L438,560L443,565L448,569L453,573L459,577L464,579L470,581L475,582L480,582L485,582L488,582L491,582L494,579L495,576L496,572L497,567L497,562L497,557L497,552L497,548L496,543L494,539L490,535L487,532L483,529L479,526L475,524L470,523L466,521L461,520L455,518L451,518L446,517L440,517L433,517L426,517L419,517L410,517L400,517L389,517L375,517" stroke-opacity="1" stroke-width="5" stroke-linecap="round" stroke-linejoin="round" style="-webkit-tap-highlight-color: rgba(0, 0, 0, 0); stroke-opacity: 1; stroke-linecap: round; stroke-linejoin: round; -webkit-user-select: text;"></path><path fill="none" stroke="#000000" d="M367,519L363,520L360,520L356,520L351,520L344,520L336,520L329,520L322,519L314,518L307,518L300,517L295,516L291,516L287,514L284,513L281,511L279,508L277,504L275,499L273,494L273,487L272,482L272,475L272,470L273,464L276,458L280,453L285,448L290,444L295,442L302,441L308,441L314,441L319,441L322,443L326,445L329,449L330,453L332,458L333,462L334,467L334,471L334,474L331,477L326,480L320,482L312,484L305,487L298,489L292,491L286,492L280,494L275,497L270,499L266,500L262,500L259,501L257,501L256,500L255,497L255,492L255,486L255,478L256,467L259,456L263,445L266,434L271,424L275,417L280,411L285,407L291,406L299,406L305,406L312,407L317,409L323,412L330,415L336,419L342,424L349,429L354,435L358,439L361,445L363,450L364,454L364,458L364,461L362,463L358,465L353,467L349,468L344,470L338,472L332,475L325,478L316,483L304,489L289,498L268,511L252,527" stroke-opacity="1" stroke-width="5" stroke-linecap="round" stroke-linejoin="round" style="-webkit-tap-highlight-color: rgba(0, 0, 0, 0); stroke-opacity: 1; stroke-linecap: round; stroke-linejoin: round; -webkit-user-select: text;"></path><path fill="none" stroke="#000000" d="M251,546L249,548L249,554L245,562L240,571L234,578L229,584L223,589L219,591L215,594L213,595L212,596L212,597L213,599L217,601L222,605L227,609L234,613L241,618L249,625L256,630L261,635L267,640L271,642L275,643L279,643L284,643L289,640L295,635L300,629L306,623L310,616L314,609L316,604L317,599L318,594L318,590L318,587L316,585L311,583L306,581L300,579L293,577L286,575L280,574L273,572L268,572L263,572L259,572L256,573L253,577L251,584L249,593L247,603L246,613L245,624L245,633L245,642L245,648L246,655L250,659L255,664L261,668L266,671L273,674L280,676L286,676L293,677L298,678L304,678L310,678L316,678L320,677L325,675L329,673L333,669L335,667L337,663L339,660L339,657L340,653L341,650L342,647L343,643L344,639L344,635L345,631L346,625L349,619L351,612L356,603L370,586L391,571" stroke-opacity="1" stroke-width="5" stroke-linecap="round" stroke-linejoin="round" style="-webkit-tap-highlight-color: rgba(0, 0, 0, 0); stroke-opacity: 1; stroke-linecap: round; stroke-linejoin: round; -webkit-user-select: text;"></path><path fill="none" stroke="#000000" d="M409,570L414,568L420,568L427,568L436,568L446,570L456,572L465,573L471,574L475,574L478,574L479,575L480,576L480,578L480,582L477,588L473,595L468,604L462,613L456,623L451,633L446,642L441,650L437,657L434,661L432,664L430,666L428,666L426,666L424,666L421,664L418,661L414,657L408,653L402,650L397,647L392,644L389,642L386,640L384,639L384,637L384,635L389,633L400,628L414,623L427,618L438,615L451,612L460,610L468,609L473,609L478,609L481,610L482,613L483,617L484,621L484,628L485,635L486,643L487,651L488,659L488,667L489,674L489,681L489,686L489,691L487,695L484,699L480,701L475,703L469,705L463,707L456,708L451,709L444,710L440,710L436,711L432,712L429,712L427,713L425,713L423,713L422,713L421,711L421,708L421,705L421,699L421,692L422,684L424,676L426,668L428,659L431,647L436,633L441,616L448,591L458,567" stroke-opacity="1" stroke-width="5" stroke-linecap="round" stroke-linejoin="round" style="-webkit-tap-highlight-color: rgba(0, 0, 0, 0); stroke-opacity: 1; stroke-linecap: round; stroke-linejoin: round; -webkit-user-select: text;"></path><path fill="none" stroke="#000000" d="M461,561L462,558L462,555L462,551L462,545L462,539L462,533L462,527L462,522L459,517L455,513L448,510L441,506L433,504L426,504L416,503L407,503L397,503L389,503L383,504L378,505L373,506L371,510L369,516L367,524L366,533L364,541L364,552L364,564L364,574L364,584L364,591L365,596L368,599L370,601L375,602L383,602L395,602L406,601L416,600L426,599L432,598L437,597L440,596L442,595L442,593L442,590L439,585L434,577L430,567L426,555L424,544L423,536L422,529L422,521L421,515L419,510L416,506L413,503L408,501L402,499L395,499L388,499L380,499L372,500L363,505L356,511L349,517L342,524L337,532L334,539L331,548L330,556L330,564L330,572L332,580L336,587L341,594L346,600L352,605L358,610L365,613L372,616L380,618L387,618L394,619L403,619L414,619L425,617L439,611L454,602L475,587" stroke-opacity="1" stroke-width="5" stroke-linecap="round" stroke-linejoin="round" style="-webkit-tap-highlight-color: rgba(0, 0, 0, 0); stroke-opacity: 1; stroke-linecap: round; stroke-linejoin: round; -webkit-user-select: text;"></path><path fill="none" stroke="#000000" d="M485,579L489,575L494,572L502,567L512,562L523,557L532,555L541,554L550,554L557,555L563,557L567,561L571,566L574,572L575,578L575,586L575,595L575,603L573,610L570,616L567,621L562,626L559,630L555,635L551,639L546,642L542,646L537,650L533,653L529,655L526,656L523,656L521,656L518,654L515,650L511,646L507,642L503,638L500,636L496,634L493,633L490,631L489,630L487,630L487,629L487,628L489,627L494,625L503,623L515,620L532,616L545,613L558,610L570,607L579,606L587,605L594,605L599,605L601,605L604,608L605,612L605,618L605,626L604,633L602,642L599,650L597,658L594,667L592,674L589,681L587,686L585,690L583,693L581,696L579,697L577,697L575,697L572,697L568,695L564,691L560,689L556,685L553,682L550,679L547,677L544,675L542,673L540,672L538,669L537,667L536,666L536,664L536,661L536,658L536,651L539,642L543,630L548,615L553,599L561,575L575,552" stroke-opacity="1" stroke-width="5" stroke-linecap="round" stroke-linejoin="round" style="-webkit-tap-highlight-color: rgba(0, 0, 0, 0); stroke-opacity: 1; stroke-linecap: round; stroke-linejoin: round; -webkit-user-select: text;"></path><path fill="none" stroke="#000000" d="M601,538L605,532L611,526L617,519L626,511L633,505L638,500L642,496L644,494L645,492L646,492L643,491L639,489L632,487L624,482L615,478L604,475L592,472L580,470L570,467L561,465L555,464L550,463L547,463L544,463L543,465L542,470L541,477L539,484L537,493L534,503L533,512L531,521L530,528L530,535L530,539L530,542L531,543L533,543L537,543L543,543L553,543L562,543L572,543L579,543L584,542L588,540L591,539L592,537L592,533L593,528L593,519L594,509L596,497L598,484L600,472L602,460L604,452L604,445L604,441L604,438L601,436L596,435L587,434L577,433L566,433L555,432L541,432L530,432L521,435L513,439L507,445L503,452L502,459L501,466L501,475L502,483L505,490L510,497L516,502L521,506L528,510L533,512L541,513L549,513L558,513L566,512L575,507L583,502L590,495L597,488L602,482L607,475L611,466L613,458L615,448L616,437L616,426L616,412L617,398L622,381L628,370" stroke-opacity="1" stroke-width="5" stroke-linecap="round" stroke-linejoin="round" style="-webkit-tap-highlight-color: rgba(0, 0, 0, 0); stroke-opacity: 1; stroke-linecap: round; stroke-linejoin: round; -webkit-user-select: text;"></path><path fill="none" stroke="#000000" d="M640,351L645,350L647,347L651,343L654,340L657,336L661,332L664,327L667,322L669,316L670,311L671,304L671,297L671,289L667,281L662,274L657,268L650,264L645,262L638,261L630,261L622,261L613,268L603,278L592,289L582,298L570,307L560,315L550,321L541,326L533,329L527,332L524,334L521,336L521,337L523,337L528,338L536,340L545,342L554,345L564,347L574,349L584,351L592,353L597,356L602,358L605,360L607,361L609,362L609,361L610,355L611,346L613,334L615,319L616,303L618,288L619,276L620,268L621,262L621,258L621,257L620,257L616,257L610,257L601,259L591,261L579,263L570,265L560,267L551,269L544,271L538,273L535,275L533,277L532,279L532,281L533,285L538,290L545,298L553,307L560,317L567,326L572,335L576,344L580,350L583,355L585,358L586,360L587,360L587,359L587,354L587,346L587,333L586,318L585,300L584,282L582,267L581,249L581,230" stroke-opacity="1" stroke-width="5" stroke-linecap="round" stroke-linejoin="round" style="-webkit-tap-highlight-color: rgba(0, 0, 0, 0); stroke-opacity: 1; stroke-linecap: round; stroke-linejoin: round; -webkit-user-select: text;"></path><path fill="none" stroke="#000000" d="M601,206L604,207L609,207L615,207L625,205L636,203L645,201L655,200L663,199L669,198L674,198L677,198L679,198L679,200L679,205L678,214L672,226L665,239L658,253L651,266L645,275L640,283L636,287L633,290L632,290L630,290L629,287L626,282L623,275L617,266L610,258L602,249L592,239L582,231L573,225L564,218L558,214L551,209L548,205L546,203L545,200L545,199L547,197L556,194L567,189L579,184L589,180L598,176L606,173L612,173L617,173L621,173L625,173L628,176L630,181L631,187L631,195L631,205L631,218L630,232L627,246L625,259L623,270L622,279L621,285L620,290L619,292L617,292L615,292L610,291L604,284L596,277L586,266L576,254L568,244L561,236L554,226L548,217L543,207L540,196L538,188L538,178L538,170L540,163L547,155L556,150L565,146L575,144L586,143L596,143L606,143L613,145L620,149L625,155L628,161L630,167L631,173L631,179L631,185L626,190L620,194L613,198L605,200L597,201L589,202L580,202L572,202L563,201L555,198L545,194L535,190L524,185L512,181L494,181L470,186" stroke-opacity="1" stroke-width="5" stroke-linecap="round" stroke-linejoin="round" style="-webkit-tap-highlight-color: rgba(0, 0, 0, 0); stroke-opacity: 1; stroke-linecap: round; stroke-linejoin: round; -webkit-user-select: text;"></path><path fill="none" stroke="#000000" d="M452,199L446,192L443,190L439,187L433,184L423,181L414,179L404,178L392,178L382,181L370,188L361,195L353,202L347,208L344,212L341,216L341,219L341,220L342,222L347,223L353,224L361,227L368,230L377,236L383,241L389,246L395,251L400,255L403,257L406,258L408,258L411,258L413,251L416,242L420,227L424,211L428,194L431,182L433,171L434,164L434,160L434,156L434,155L431,155L426,155L418,155L410,154L401,152L390,151L378,149L367,147L358,147L349,146L342,146L337,146L334,146L332,147L330,153L329,161L328,171L327,181L327,191L327,203L329,214L332,224L336,232L341,240L346,247L352,251L359,256L366,258L373,258L382,258L389,257L395,253L400,249L404,243L408,236L411,227L412,219L413,211L413,202L413,195L413,186L413,180L412,173L412,166L412,159L412,152L414,146L417,139L421,134L427,129L437,124L451,121" stroke-opacity="1" stroke-width="5" stroke-linecap="round" stroke-linejoin="round" style="-webkit-tap-highlight-color: rgba(0, 0, 0, 0); stroke-opacity: 1; stroke-linecap: round; stroke-linejoin: round; -webkit-user-select: text;"></path><path fill="none" stroke="#000000" d="M486,132L490,132L494,132L499,133L506,137L511,141L515,148L518,155L520,163L521,171L521,181L521,190L520,199L517,207L516,213L515,219L515,223L515,225L515,226L516,226L521,224L529,220L538,215L549,209L559,202L568,196L577,190L583,185L587,181L589,177L590,173L590,168L590,162L584,155L578,147L571,140L565,133L559,127L555,123L550,121L547,119L544,119L541,119L534,124L525,133L515,142L503,153L491,163L479,173L470,180L463,185L459,188L456,190L455,192L455,193L455,195L456,197L459,200L463,204L467,209L472,215L477,221L482,226L485,231L490,234L494,236L498,237L502,237L506,237L510,232L515,226L519,219L525,210L529,200L533,190L537,179L541,168L546,158L550,149L554,142L557,137L559,133L560,130L561,128L561,127L561,126L560,126L558,125L555,123L551,120L548,117L543,112L538,108L532,103L525,98L518,93L510,90L502,87L492,86L482,86L470,86L458,88L442,95L426,108L411,126" stroke-opacity="1" stroke-width="5" stroke-linecap="round" stroke-linejoin="round" style="-webkit-tap-highlight-color: rgba(0, 0, 0, 0); stroke-opacity: 1; stroke-linecap: round; stroke-linejoin: round; -webkit-user-select: text;"></path><path fill="none" stroke="#000000" d="M395,134L391,138L387,142L379,148L371,154L363,159L354,164L344,169L334,174L324,177L314,178L305,179L296,179L287,178L280,175L274,173L270,170L267,168L265,165L264,163L263,160L263,156L263,150L266,142L271,132L278,122L284,113L289,107L294,102L298,99L301,98L305,98L307,98L311,99L316,102L321,104L327,107L333,109L338,110L342,112L346,115L349,119L351,122L351,127L351,133L349,142L343,151L336,161L328,173L322,183L315,193L310,203L305,212L302,218L299,222L296,224L294,225L291,225L288,225L284,223L279,218L272,212L263,205L253,195L244,187L235,178L229,170L225,164L222,160L220,158L220,156L220,154L224,152L233,147L244,142L255,137L268,133L278,130L287,129L295,128L301,128L307,128L312,128L315,128L319,131L322,133L324,136L325,138L327,141L328,144L329,147L330,149L331,153L331,156L332,159L332,162L332,165L332,168L332,171L332,174L332,177L332,180L332,183L331,186L330,189L328,193L327,196L325,200L322,205L319,210L311,224L298,248" stroke-opacity="1" stroke-width="5" stroke-linecap="round" stroke-linejoin="round" style="-webkit-tap-highlight-color: rgba(0, 0, 0, 0); stroke-opacity: 1; stroke-linecap: round; stroke-linejoin: round; -webkit-user-select: text;"></path><path fill="none" stroke="#000000" d="M307,271L302,274L298,280L292,287L284,294L276,301L268,307L261,313L254,320L249,328L246,336L244,345L244,355L244,365L244,374L248,382L251,388L254,394L256,398L258,401L259,402L259,403L260,402L261,399L267,393L275,386L285,379L296,374L307,369L318,364L328,360L334,357L338,354L340,353L341,351L341,350L340,348L334,347L327,346L318,344L307,341L296,338L285,334L273,329L262,323L251,317L242,313L236,310L231,309L228,309L226,309L224,309L222,314L221,321L218,329L216,339L215,349L214,360L214,371L214,381L214,387L215,392L216,395L218,396L220,397L224,397L229,397L235,398L245,398L256,399L268,402L279,404L288,406L297,409L302,410L306,411L310,411L312,411L313,411L314,411L314,410L314,408L314,405L313,402L309,396L303,389L295,381L285,369L273,352L262,331L255,308L255,289" stroke-opacity="1" stroke-width="5" stroke-linecap="round" stroke-linejoin="round" style="-webkit-tap-highlight-color: rgba(0, 0, 0, 0); stroke-opacity: 1; stroke-linecap: round; stroke-linejoin: round; -webkit-user-select: text;"></path><path fill="none" stroke="#000000" d="M257,266L259,261L259,256L259,250L260,243L262,234L263,225L266,216L268,207L269,202L271,197L272,194L273,192L269,192L263,192L257,192L248,192L239,191L230,191L221,191L213,191L205,191L198,191L193,191L190,191L188,191L186,192L186,196L186,202L186,209L185,218L185,228L184,239L184,250L184,260L184,268L184,272L184,276L184,278L186,278L187,278L189,278L194,274L202,268L210,263L220,256L229,250L237,244L244,238L249,232L252,227L254,222L254,217L254,211L253,206L249,200L244,193L239,184L236,177L232,169L228,163L225,158L222,152L219,148L216,146L212,144L208,144L201,145L193,150L184,157L173,166L165,173L158,180L153,186L149,192L147,198L146,204L146,209L146,215L146,221L147,226L150,231L154,235L157,239L161,242L166,245L171,248L175,249L181,250L187,250L193,250L198,250L204,248L209,244L213,241L218,236L222,230L225,224L228,218L231,210L234,202L238,195L243,185L249,178L257,169L276,156" stroke-opacity="1" stroke-width="5" stroke-linecap="round" stroke-linejoin="round" style="-webkit-tap-highlight-color: rgba(0, 0, 0, 0); stroke-opacity: 1; stroke-linecap: round; stroke-linejoin: round; -webkit-user-select: text;"></path><path fill="none" stroke="#000000" d="M298,144L302,141L309,140L316,140L324,140L333,140L344,142L353,145L361,148L370,151L375,155L379,157L381,160L382,163L383,165L383,168L381,172L378,176L374,181L369,189L363,198L355,212L347,225L339,238L334,247L327,256L323,262L319,266L316,267L313,268L311,268L307,265L303,258L297,251L290,244L283,236L275,228L267,221L261,216L256,212L254,209L252,207L252,205L252,204L258,202L268,199L283,195L299,191L316,188L332,185L346,183L360,181L371,178L379,177L384,177L387,177L390,178L391,183L391,188L391,198L388,208L384,219L379,231L375,243L371,255L367,266L363,276L360,285L356,292L353,299L350,303L347,305L344,307L338,307L333,307L325,305L317,302L308,296L300,290L295,284L291,280L288,278L287,276L287,275L287,274L287,273L287,270L288,266L293,258L298,249L305,236L311,222L318,207L328,187L343,163L368,134" stroke-opacity="1" stroke-width="5" stroke-linecap="round" stroke-linejoin="round" style="-webkit-tap-highlight-color: rgba(0, 0, 0, 0); stroke-opacity: 1; stroke-linecap: round; stroke-linejoin: round; -webkit-user-select: text;"></path><path fill="none" stroke="#000000" d="M387,122L392,119L397,117L403,114L410,110L419,105L425,102L430,99L434,97L436,95L438,93L438,91L438,90L437,88L433,84L427,80L421,75L415,70L409,64L404,59L400,54L397,51L395,49L391,48L388,48L383,48L375,51L366,56L354,62L344,69L335,75L329,80L326,85L324,88L324,92L324,95L325,99L330,104L336,113L344,126L350,139L355,149L358,157L361,164L364,169L366,172L368,174L370,175L373,175L376,175L381,173L388,168L396,161L404,152L413,141L421,131L427,122L433,112L436,105L438,99L439,94L440,89L440,84L437,78L434,73L429,67L423,61L418,55L413,49L407,44L403,41L399,39L392,39L385,39L378,42L372,47L368,50L364,56L361,63L359,69L358,74L358,80L358,85L359,90L361,94L365,97L368,100L371,102L375,103L380,104L384,105L389,105L393,105L398,105L402,105L407,104L412,102L417,99L422,95L428,92L434,88L440,85L446,81L452,78L457,75L462,72L468,69L473,67L482,64L493,63L510,63" stroke-opacity="1" stroke-width="5" stroke-linecap="round" stroke-linejoin="round" style="-webkit-tap-highlight-color: rgba(0, 0, 0, 0); stroke-opacity: 1; stroke-linecap: round; stroke-linejoin: round; -webkit-user-select: text;"></path><path fill="none" stroke="#000000" d="M534,78L541,78L551,80L558,83L564,86L570,90L575,94L580,99L583,103L586,105L587,108L588,110L588,112L588,113L586,115L579,117L570,121L561,126L549,133L538,142L526,151L516,160L507,167L499,174L493,178L489,181L485,182L482,182L480,182L477,178L473,172L469,166L464,159L458,152L453,146L448,140L443,134L441,130L440,127L440,125L440,124L443,123L452,121L464,119L481,116L495,115L511,114L528,113L543,112L555,110L563,110L568,110L572,110L573,110L574,112L574,117L574,124L572,132L568,144L565,155L562,167L560,178L558,189L556,198L554,206L553,211L550,215L548,218L546,219L543,219L538,219L531,215L524,210L518,204L511,197L507,191L502,184L498,178L496,174L494,171L492,167L492,164L492,161L492,158L492,155L492,151L492,147L493,140L494,130L495,120L496,109L497,98L497,83L503,66" stroke-opacity="1" stroke-width="5" stroke-linecap="round" stroke-linejoin="round" style="-webkit-tap-highlight-color: rgba(0, 0, 0, 0); stroke-opacity: 1; stroke-linecap: round; stroke-linejoin: round; -webkit-user-select: text;"></path><path fill="none" stroke="#000000" d="M482,61L486,59L494,59L504,59L518,59L532,59L545,58L557,56L565,55L572,54L577,54L580,54L582,54L583,57L584,61L584,67L584,76L584,85L583,97L581,109L579,120L577,131L575,139L573,145L570,150L569,153L567,154L565,154L560,154L555,150L546,144L538,139L528,133L518,127L508,122L499,118L492,114L487,109L485,105L485,103L485,100L491,94L503,85L513,79L524,73L534,69L542,67L551,67L560,67L569,67L577,71L583,74L588,78L592,83L595,88L597,94L600,101L601,107L602,114L602,121L602,128L602,136L600,142L598,150L596,158L594,164L593,170L592,175L592,181L592,187L592,191L592,196L594,200L596,204L599,208L602,211L605,215L609,217L613,220L616,222L619,224L623,224L627,225L633,225L642,225L657,219" stroke-opacity="1" stroke-width="5" stroke-linecap="round" stroke-linejoin="round" style="-webkit-tap-highlight-color: rgba(0, 0, 0, 0); stroke-opacity: 1; stroke-linecap: round; stroke-linejoin: round; -webkit-user-select: text;"></path><path fill="none" stroke="#000000" d="M667,191L672,187L674,183L679,178L682,172L686,165L688,157L689,148L689,139L689,129L689,120L689,110L688,101L686,96L685,93L683,92L680,91L677,91L671,91L663,93L650,97L634,102L618,107L601,112L585,117L573,122L565,125L559,127L555,129L554,131L554,133L554,136L555,142L558,149L560,157L562,167L565,179L567,189L569,198L572,205L574,210L577,212L579,213L584,214L590,214L600,210L611,205L623,198L633,190L642,185L648,181L652,177L655,174L657,171L657,168L657,164L652,159L645,150L638,142L629,130L623,121L617,111L612,101L609,94L605,87L602,83L599,81L597,80L595,80L593,80L592,83L590,87L589,93L588,99L588,105L588,111L589,117L591,124L594,130L599,140L603,150L608,164L614,178L621,194L628,210L636,228L643,244" stroke-opacity="1" stroke-width="5" stroke-linecap="round" stroke-linejoin="round" style="-webkit-tap-highlight-color: rgba(0, 0, 0, 0); stroke-opacity: 1; stroke-linecap: round; stroke-linejoin: round; -webkit-user-select: text;"></path><path fill="none" stroke="#000000" d="M651,273L650,273L651,278L654,284L657,291L661,298L665,305L669,313L673,319L677,326L679,330L681,335L682,340L682,343L682,347L681,350L677,354L672,357L666,360L656,364L646,367L635,370L623,372L611,375L599,377L591,378L583,379L577,379L572,379L569,379L568,378L568,374L568,368L571,357L578,344L588,329L598,316L609,303L619,293L628,286L636,281L643,278L650,278L657,278L664,280L669,285L677,293L684,302L690,310L695,319L698,327L700,336L700,345L700,353L698,360L691,368L682,377L674,385L664,392L654,397L644,401L635,402L625,402L617,402L610,400L605,396L601,390L599,386L599,380L598,374L598,366L600,357L605,350L610,343L616,338L623,333L631,329L639,327L647,326L656,326L664,327L670,330L676,336L682,341L686,347L689,354L692,360L693,368L694,377L694,387L694,399L692,409L689,419L686,430L682,442L677,456L674,470L671,483L669,496" stroke-opacity="1" stroke-width="5" stroke-linecap="round" stroke-linejoin="round" style="-webkit-tap-highlight-color: rgba(0, 0, 0, 0); stroke-opacity: 1; stroke-linecap: round; stroke-linejoin: round; -webkit-user-select: text;"></path><path fill="none" stroke="#000000" d="M660,521L656,526L654,532L651,540L650,548L648,557L647,565L647,573L647,581L647,589L647,597L648,603L652,608L656,612L661,615L667,615L677,615L686,610L699,602L708,593L716,586L721,580L724,577L725,576L726,575L723,575L714,575L702,574L689,572L675,569L662,567L648,564L634,562L621,560L608,560L598,559L589,559L583,559L579,558L577,557L577,555L577,551L582,543L593,530L609,514L620,504L632,497L641,492L648,490L655,489L661,489L665,490L669,494L671,499L673,504L675,510L677,517L678,525L679,533L679,543L679,553L679,565L676,575L672,585L667,593L661,601L654,608L647,613L641,618L633,622L626,624L620,624L613,624L607,624L602,623L597,621L594,618L590,615L588,611L585,607L583,602L582,598L582,593L582,589L582,584L582,581L583,577L585,575L587,573L589,571L589,570L590,568L591,567L591,565L591,563L591,561L591,559L592,554L609,540L628,528" stroke-opacity="1" stroke-width="5" stroke-linecap="round" stroke-linejoin="round" style="-webkit-tap-highlight-color: rgba(0, 0, 0, 0); stroke-opacity: 1; stroke-linecap: round; stroke-linejoin: round; -webkit-user-select: text;"></path><path fill="none" stroke="#000000" d="M617,576L618,579L621,582L625,588L632,596L639,604L645,612L651,619L657,626L662,632L666,638L668,642L669,644L670,646L670,647L669,648L664,650L655,653L646,657L636,663L626,670L617,677L609,684L601,691L594,698L587,704L582,708L577,710L573,711L569,711L565,710L561,704L557,695L553,685L550,674L549,666L548,657L548,650L548,644L548,641L551,638L557,636L566,634L577,632L590,631L603,631L613,632L622,637L628,641L633,647L636,652L637,659L638,665L638,672L637,679L633,686L628,692L623,698L618,703L612,707L606,711L600,714L595,717L589,719L584,720L579,720L573,721L567,721L561,721L555,720L548,718L542,715L535,712L528,709L521,706L516,704L510,702L504,699L498,698L492,697L486,696L478,696L469,697L458,706L445,723L435,741" stroke-opacity="1" stroke-width="5" stroke-linecap="round" stroke-linejoin="round" style="-webkit-tap-highlight-color: rgba(0, 0, 0, 0); stroke-opacity: 1; stroke-linecap: round; stroke-linejoin: round; -webkit-user-select: text;"></path><path fill="none" stroke="#000000" d="M435,749L434,760L434,764L434,769L431,776L428,782L426,788L423,795L421,801L419,807L417,811L415,814L414,817L412,817L411,818L409,818L407,818L404,818L400,818L396,817L390,816L384,815L377,813L368,811L361,809L353,807L346,805L341,803L336,800L334,799L333,798L333,796L333,793L338,787L345,774L353,761L362,747L372,735L383,725L394,717L403,712L410,709L416,708L420,708L424,708L427,710L430,716L434,723L438,733L441,744L445,757L448,769L450,779L451,788L452,795L453,801L453,807L453,810L450,813L446,814L441,815L434,815L426,815L419,815L413,816L406,816L400,817L395,817L390,817L386,818L384,818L383,818L382,818L381,817L381,814L381,806L380,793L379,773L378,753L376,733L376,703L377,678" stroke-opacity="1" stroke-width="5" stroke-linecap="round" stroke-linejoin="round" style="-webkit-tap-highlight-color: rgba(0, 0, 0, 0); stroke-opacity: 1; stroke-linecap: round; stroke-linejoin: round; -webkit-user-select: text;"></path><path fill="none" stroke="#000000" d="M362,667L359,669L355,671L349,674L341,677L331,679L319,682L308,684L298,686L288,689L280,690L273,692L269,693L267,694L266,696L266,700L266,705L269,713L273,723L277,732L281,743L286,753L291,762L295,769L298,773L299,775L301,777L303,777L305,777L308,777L314,773L323,766L331,759L340,751L346,745L351,741L354,738L356,735L357,731L357,726L354,720L349,711L344,701L336,688L329,675L322,664L316,655L311,648L307,644L305,642L302,642L300,642L297,646L291,653L283,664L273,675L264,686L256,697L249,705L244,711L239,716L237,719L235,722L235,723L235,725L238,727L244,731L251,734L259,738L268,742L277,746L285,749L290,752L293,754L295,754L297,755L297,754L297,752L298,747L301,740L307,726L314,710L324,694L335,674L348,651L359,630" stroke-opacity="1" stroke-width="5" stroke-linecap="round" stroke-linejoin="round" style="-webkit-tap-highlight-color: rgba(0, 0, 0, 0); stroke-opacity: 1; stroke-linecap: round; stroke-linejoin: round; -webkit-user-select: text;"></path></svg>