<svg height="868" version="1.1" width="768" xmlns="http://www.w3.org/2000/svg" xmlns:xlink="http://www.w3.org/1999/xlink" style="overflow: hidden; position: relative; -webkit-user-select: text;"><desc style="-webkit-tap-highlight-color: rgba(0, 0, 0, 0); -webkit-user-select: text;">Created with Raphaël 2.2.0</desc><defs style="-webkit-tap-highlight-color: rgba(0, 0, 0, 0); -webkit-user-select: text;"></defs><path fill="none" stroke="#000000" d="M252,426L258,420L259,418L261,416L263,414L267,411L270,407L273,404L277,401L280,397L283,394L287,390L291,386L295,382L299,379L302,375L306,372L309,368L313,364L317,360L321,357L324,354L327,351L330,347L334,343L337,340L340,336L344,332L349,328L353,324L358,318L363,313" stroke-opacity="1" stroke-width="5" stroke-linecap="round" stroke-linejoin="round" style="-webkit-tap-highlight-color: rgba(0, 0, 0, 0); stroke-opacity: 1; stroke-linecap: round; stroke-linejoin: round; -webkit-user-select: text;"></path><path fill="none" stroke="#000000" d="M378,301L384,295L385,292L388,290L391,287L394,285L397,281L400,279L403,277L406,275L408,274L411,273L412,272L414,270L417,270L419,269L420,268L422,268L424,267L425,267L426,267L427,267L429,267L431,267L432,267L433,267L434,267L435,267L436,267L437,268L438,269L439,270L440,271L441,273L441,274L442,275L443,276L443,278L444,279L445,280L445,282L446,283L446,285L446,287L446,288L446,290L446,291L447,293L447,295L447,296L447,297L447,300L448,301L448,304L448,306L448,308L448,311L448,314L448,317L448,321L448,324L448,327L448,332L448,339" stroke-opacity="1" stroke-width="5" stroke-linecap="round" stroke-linejoin="round" style="-webkit-tap-highlight-color: rgba(0, 0, 0, 0); stroke-opacity: 1; stroke-linecap: round; stroke-linejoin: round; -webkit-user-select: text;"></path><path fill="none" stroke="#000000" d="M447,377L450,380L450,382L450,384L450,387L450,390L450,393L450,395L450,398L450,401L450,404L450,408L449,411L449,416L449,419L448,424L448,428L447,432L446,437L446,442L445,447L444,452L444,456L443,461L443,465L443,470L443,475L443,479L443,484L442,489L442,494L442,499L442,504L442,511L442,518" stroke-opacity="1" stroke-width="5" stroke-linecap="round" stroke-linejoin="round" style="-webkit-tap-highlight-color: rgba(0, 0, 0, 0); stroke-opacity: 1; stroke-linecap: round; stroke-linejoin: round; -webkit-user-select: text;"></path><path fill="none" stroke="#000000" d="M434,541L434,542L434,544L434,545L433,547L432,548L431,549L431,551L429,552L428,554L427,555L426,557L424,558L423,560L421,561L420,562L418,564L417,565L415,566L413,567L411,569L409,569L408,570L406,571L404,572L402,572L400,572L398,573L396,573L394,573L392,574L390,574L387,574L386,574L384,574L382,574L380,574L378,574L375,573L373,572L371,572L368,571L366,570L364,569L362,568L359,567L357,567L354,565L351,564L349,563L346,562L343,560L340,559L336,557L333,555L329,553L324,552" stroke-opacity="1" stroke-width="5" stroke-linecap="round" stroke-linejoin="round" style="-webkit-tap-highlight-color: rgba(0, 0, 0, 0); stroke-opacity: 1; stroke-linecap: round; stroke-linejoin: round; -webkit-user-select: text;"></path><path fill="none" stroke="#000000" d="M310,540L305,537L302,537L300,536L296,535L293,535L290,533L286,533L283,532L279,531L276,529L272,528L268,527L265,525L261,523L257,522L254,520L250,518L246,516L243,514L239,512L235,511L232,509L229,508L227,507L227,506" stroke-opacity="1" stroke-width="5" stroke-linecap="round" stroke-linejoin="round" style="-webkit-tap-highlight-color: rgba(0, 0, 0, 0); stroke-opacity: 1; stroke-linecap: round; stroke-linejoin: round; -webkit-user-select: text;"></path><path fill="none" stroke="#000000" d="M213,493L208,493L207,493L205,493L203,493L201,492L200,491L198,490L196,489L195,488L193,486L191,484L190,483L188,481L187,480L186,477L184,475L183,473L182,470L181,468L180,465L180,462L180,460L180,457L180,455L180,452L180,449L180,447L180,444L180,441L181,438L182,435L183,433L185,430L186,427L188,424L190,421L192,419L194,416L196,414L198,411L200,409L203,407L205,404L208,402L210,400L213,398L216,396L220,394L223,392L227,390L231,387L235,384L239,382L244,379L249,376L254,374L259,372L264,369L270,366L276,364L283,360L290,357L299,354" stroke-opacity="1" stroke-width="5" stroke-linecap="round" stroke-linejoin="round" style="-webkit-tap-highlight-color: rgba(0, 0, 0, 0); stroke-opacity: 1; stroke-linecap: round; stroke-linejoin: round; -webkit-user-select: text;"></path><path fill="none" stroke="#000000" d="M321,350L322,348L325,348L328,346L331,345L335,343L340,341L345,339L350,336L354,334L359,332L364,331L370,329L375,327L380,326L386,324L391,323L397,321L403,319L408,318L414,316L421,314L428,312L434,310L441,307L449,305L456,303L463,301L471,299" stroke-opacity="1" stroke-width="5" stroke-linecap="round" stroke-linejoin="round" style="-webkit-tap-highlight-color: rgba(0, 0, 0, 0); stroke-opacity: 1; stroke-linecap: round; stroke-linejoin: round; -webkit-user-select: text;"></path><path fill="none" stroke="#000000" d="M488,307L489,305L490,305L492,305L494,305L496,305L498,304L500,304L502,304L505,304L507,304L509,304L510,304L512,304L514,304L515,305L516,307L518,308L519,309L521,311L522,312L524,314L525,316L526,318L527,320L528,322L528,324L529,326L529,329L529,332L529,334L529,338L529,341L529,344L529,347L528,351L526,354L525,358L524,362L522,366L520,370L519,374L516,378L515,382L513,385L511,389L510,393L508,397L507,400L504,403L502,407L500,411L498,415L496,419L493,424L490,429L488,434L485,441L481,447L477,456" stroke-opacity="1" stroke-width="5" stroke-linecap="round" stroke-linejoin="round" style="-webkit-tap-highlight-color: rgba(0, 0, 0, 0); stroke-opacity: 1; stroke-linecap: round; stroke-linejoin: round; -webkit-user-select: text;"></path><path fill="none" stroke="#000000" d="M461,488L461,490L460,494L458,498L455,501L453,505L451,510L449,514L447,518L445,523L443,527L441,531L439,536L438,541L436,546L434,550L431,555L429,560L426,565L423,570L419,575L417,579L414,582L412,586L410,590L408,594L407,598L405,601" stroke-opacity="1" stroke-width="5" stroke-linecap="round" stroke-linejoin="round" style="-webkit-tap-highlight-color: rgba(0, 0, 0, 0); stroke-opacity: 1; stroke-linecap: round; stroke-linejoin: round; -webkit-user-select: text;"></path><path fill="none" stroke="#000000" d="M394,617L390,618L390,620L389,621L387,623L386,625L385,627L383,629L381,631L380,633L378,634L376,635L374,637L372,638L370,639L367,640L365,641L363,642L360,643L358,644L356,645L353,645L350,646L347,646L345,646L342,646L340,646L337,646L335,646L333,644L330,642L328,641L325,639L323,637L321,636L319,634L317,633L314,631L312,629L310,627L308,625L306,624L304,622L302,620L300,618L297,616L295,613L293,611L290,609L288,607L285,604L283,602L282,600L280,597L278,595L276,592L273,589L271,586L268,583L266,580" stroke-opacity="1" stroke-width="5" stroke-linecap="round" stroke-linejoin="round" style="-webkit-tap-highlight-color: rgba(0, 0, 0, 0); stroke-opacity: 1; stroke-linecap: round; stroke-linejoin: round; -webkit-user-select: text;"></path><path fill="none" stroke="#000000" d="M251,550L249,547L249,545L247,543L246,540L244,538L242,535L239,533L237,530L234,526L231,523L229,521L227,518L224,514L221,511L219,509L217,506L215,504L212,501L209,497L205,494L202,490L199,486L195,483L191,479L188,475L184,472L180,467L177,464L174,460L172,457L171,453" stroke-opacity="1" stroke-width="5" stroke-linecap="round" stroke-linejoin="round" style="-webkit-tap-highlight-color: rgba(0, 0, 0, 0); stroke-opacity: 1; stroke-linecap: round; stroke-linejoin: round; -webkit-user-select: text;"></path><path fill="none" stroke="#000000" d="M169,442L165,433L164,431L163,428L162,426L161,424L161,421L160,419L160,416L160,413L160,410L160,407L160,404L160,402L160,399L161,396L162,392L164,389L165,387L167,384L169,382L171,379L174,376L176,374L179,372L182,370L185,368L188,366L191,364L195,362L198,360L202,358L207,356L210,354L216,352L221,351L225,349L230,347L235,346L240,344L245,342L251,340L256,339L264,336L271,335L280,334L290,333L301,333" stroke-opacity="1" stroke-width="5" stroke-linecap="round" stroke-linejoin="round" style="-webkit-tap-highlight-color: rgba(0, 0, 0, 0); stroke-opacity: 1; stroke-linecap: round; stroke-linejoin: round; -webkit-user-select: text;"></path><path fill="none" stroke="#000000" d="M326,334L330,333L332,333L335,333L339,333L344,333L348,333L353,333L358,333L363,333L370,333L376,333L382,333L388,333L396,333L403,333L410,334L417,334L426,335L433,336L441,337L450,339L458,342L466,343" stroke-opacity="1" stroke-width="5" stroke-linecap="round" stroke-linejoin="round" style="-webkit-tap-highlight-color: rgba(0, 0, 0, 0); stroke-opacity: 1; stroke-linecap: round; stroke-linejoin: round; -webkit-user-select: text;"></path><path fill="none" stroke="#000000" d="M484,351L489,353L490,353L492,353L494,354L496,355L498,356L500,358L502,359L505,360L507,362L509,364L511,365L514,367L516,369L518,371L520,373L522,374L524,376L526,378L527,380L528,382L529,385L530,388L531,391L531,394L532,398L532,402L532,405L532,409L532,413L532,417L531,421L530,425L528,429L527,433L526,436L524,441L522,444L521,448L519,452L517,455L516,459L514,463L513,467L511,470L509,474L508,477L506,481L504,484L502,488L500,492L499,496L497,500L494,506" stroke-opacity="1" stroke-width="5" stroke-linecap="round" stroke-linejoin="round" style="-webkit-tap-highlight-color: rgba(0, 0, 0, 0); stroke-opacity: 1; stroke-linecap: round; stroke-linejoin: round; -webkit-user-select: text;"></path><path fill="none" stroke="#000000" d="M487,523L483,526L482,528L481,531L479,533L476,537L473,541L470,545L468,549L464,553L461,557L458,562L454,566L451,570L448,574L445,578L442,582L440,584L438,587L436,591L434,594L431,597L428,603" stroke-opacity="1" stroke-width="5" stroke-linecap="round" stroke-linejoin="round" style="-webkit-tap-highlight-color: rgba(0, 0, 0, 0); stroke-opacity: 1; stroke-linecap: round; stroke-linejoin: round; -webkit-user-select: text;"></path><path fill="none" stroke="#000000" d="M417,613L414,613L413,614L412,615L411,616L409,618L407,619L405,620L403,621L400,622L398,623L395,623L392,624L389,625L386,626L383,627L380,627L376,628L373,628L369,628L366,628L363,628L360,628L356,628L353,628L350,628L346,628L343,627L339,626L336,625L332,624L329,623L326,623L322,622L319,620L315,619L311,618L307,616L304,614L300,613L297,611L293,609L289,607L285,605L280,603L277,601L272,598L268,595L264,593L260,591L255,588L250,586L246,584L241,582L237,580L233,579" stroke-opacity="1" stroke-width="5" stroke-linecap="round" stroke-linejoin="round" style="-webkit-tap-highlight-color: rgba(0, 0, 0, 0); stroke-opacity: 1; stroke-linecap: round; stroke-linejoin: round; -webkit-user-select: text;"></path><path fill="none" stroke="#000000" d="M227,568L222,565L220,565L218,565L216,563L213,562L210,560L207,559L204,557L201,556L198,554L194,552L191,550L187,548L184,547L181,545L178,543L176,542L174,541L173,540L171,538L169,537L167,536L165,535L164,533" stroke-opacity="1" stroke-width="5" stroke-linecap="round" stroke-linejoin="round" style="-webkit-tap-highlight-color: rgba(0, 0, 0, 0); stroke-opacity: 1; stroke-linecap: round; stroke-linejoin: round; -webkit-user-select: text;"></path><path fill="none" stroke="#000000" d="M160,512L154,513L152,513L150,513L148,512L145,510L142,509L139,508L137,506L135,505L133,503L131,501L130,499L129,497L128,494L127,492L127,490L127,489L127,487L127,484L127,482L127,479L127,476L128,473L130,471L132,469L135,467L137,465L140,463L143,461L145,459L148,457L150,455L153,454L156,453L158,451L161,450L164,448L167,446L171,445L174,443L177,442L181,440L185,438L189,437L194,436L199,434L204,433L210,431L215,429L221,427L227,425L234,423L241,420L247,418L253,416L261,414L269,411L278,408L289,404" stroke-opacity="1" stroke-width="5" stroke-linecap="round" stroke-linejoin="round" style="-webkit-tap-highlight-color: rgba(0, 0, 0, 0); stroke-opacity: 1; stroke-linecap: round; stroke-linejoin: round; -webkit-user-select: text;"></path><path fill="none" stroke="#000000" d="M323,399L327,396L329,395L333,394L337,393L342,391L348,389L354,387L361,385L368,383L375,381L383,380L391,377L400,376L408,374L419,372L429,371L441,368" stroke-opacity="1" stroke-width="5" stroke-linecap="round" stroke-linejoin="round" style="-webkit-tap-highlight-color: rgba(0, 0, 0, 0); stroke-opacity: 1; stroke-linecap: round; stroke-linejoin: round; -webkit-user-select: text;"></path><path fill="none" stroke="#000000" d="M467,380L467,378L468,378L470,378L472,378L475,378L478,378L480,378L483,379L486,380L488,381L491,382L494,384L497,385L499,387L502,388L504,390L506,392L508,394L510,395L512,397L514,399L515,401L516,403L518,404L519,407L521,409L522,411L523,414L524,416L526,419L526,421L527,424L528,426L529,429L530,432L531,434L531,437L532,440L532,443L533,446L533,449L533,453L534,456L534,460L534,465L534,472L535,480" stroke-opacity="1" stroke-width="5" stroke-linecap="round" stroke-linejoin="round" style="-webkit-tap-highlight-color: rgba(0, 0, 0, 0); stroke-opacity: 1; stroke-linecap: round; stroke-linejoin: round; -webkit-user-select: text;"></path><path fill="none" stroke="#000000" d="M529,514L529,517L529,519L529,522L529,525L529,528L529,530L529,533L529,536L528,540L528,543L527,548L526,551L526,555L525,559L525,563L524,567L524,572L523,577L522,581L521,586L521,590L521,594L521,595" stroke-opacity="1" stroke-width="5" stroke-linecap="round" stroke-linejoin="round" style="-webkit-tap-highlight-color: rgba(0, 0, 0, 0); stroke-opacity: 1; stroke-linecap: round; stroke-linejoin: round; -webkit-user-select: text;"></path><path fill="none" stroke="#000000" d="M508,616L509,612L509,614L507,616L505,619L503,623L500,626L498,630L496,633L494,635L492,637L490,640L487,642L485,644L482,645L479,647L477,648L474,649L470,650L468,650L464,650L461,650L458,650L455,650L451,650L448,650L445,650L441,650L438,650L435,650L431,650L427,650L423,650L419,649L415,648L411,647L407,646L401,645L396,644" stroke-opacity="1" stroke-width="5" stroke-linecap="round" stroke-linejoin="round" style="-webkit-tap-highlight-color: rgba(0, 0, 0, 0); stroke-opacity: 1; stroke-linecap: round; stroke-linejoin: round; -webkit-user-select: text;"></path><path fill="none" stroke="#000000" d="M373,640L368,639L366,639L363,639L361,639L357,639L353,639L349,639L344,639L339,639L334,638L329,638L323,638L317,637L311,637L305,636L299,635L293,634L287,633L281,632L276,630L270,630L264,628L259,626L253,625L246,623L241,623L236,623L229,623" stroke-opacity="1" stroke-width="5" stroke-linecap="round" stroke-linejoin="round" style="-webkit-tap-highlight-color: rgba(0, 0, 0, 0); stroke-opacity: 1; stroke-linecap: round; stroke-linejoin: round; -webkit-user-select: text;"></path><path fill="none" stroke="#000000" d="M220,619L215,618L212,618L210,618L207,618L204,618L202,618L199,618L196,618L193,617L191,616L188,614L186,613L183,611L181,610L179,608L178,606L176,604L175,602L173,600L172,598L171,596L170,593L169,590L168,587L167,584L166,580L166,577L166,573L166,569L166,565L166,561L166,557L166,552L166,547L166,542L167,536L168,530L169,523L171,517L172,511L173,504L174,497L175,488L176,480L177,472L178,463L180,455L182,445" stroke-opacity="1" stroke-width="5" stroke-linecap="round" stroke-linejoin="round" style="-webkit-tap-highlight-color: rgba(0, 0, 0, 0); stroke-opacity: 1; stroke-linecap: round; stroke-linejoin: round; -webkit-user-select: text;"></path><path fill="none" stroke="#000000" d="M200,415L200,409L200,407L200,404L200,400L200,395L200,389L200,382L200,377L201,372L201,367L202,363L202,359L202,357L202,355L202,353L202,352L202,350L205,348" stroke-opacity="1" stroke-width="5" stroke-linecap="round" stroke-linejoin="round" style="-webkit-tap-highlight-color: rgba(0, 0, 0, 0); stroke-opacity: 1; stroke-linecap: round; stroke-linejoin: round; -webkit-user-select: text;"></path><path fill="none" stroke="#000000" d="M212,332L213,331L213,329L213,326L214,323L214,320L215,317L215,313L215,310L216,307L217,304L218,301L220,297L222,293L223,288L225,285L227,280L229,277L230,273L232,271L234,268L237,267L239,265L241,264L244,263L246,262L249,262L251,262L254,262L258,262L261,262L265,262L269,262L273,262L277,262L282,262L286,263L290,263L294,264L298,266L302,267L306,268L310,269L314,270L318,272L322,274L327,276L330,279L335,281L340,284L345,287L350,290L355,293L362,297L368,300L376,305L384,309L393,315L406,322L418,328L432,336" stroke-opacity="1" stroke-width="5" stroke-linecap="round" stroke-linejoin="round" style="-webkit-tap-highlight-color: rgba(0, 0, 0, 0); stroke-opacity: 1; stroke-linecap: round; stroke-linejoin: round; -webkit-user-select: text;"></path><path fill="none" stroke="#000000" d="M461,356L465,355L467,356L470,357L472,358L475,360L477,361L480,363L483,365L485,368L488,370L491,373L494,375L497,377L501,378L505,380L509,383L513,386L516,389L521,392L525,394L530,398L534,401L539,404L543,407L549,411L555,416L561,420L568,425L577,431" stroke-opacity="1" stroke-width="5" stroke-linecap="round" stroke-linejoin="round" style="-webkit-tap-highlight-color: rgba(0, 0, 0, 0); stroke-opacity: 1; stroke-linecap: round; stroke-linejoin: round; -webkit-user-select: text;"></path><path fill="none" stroke="#000000" d="M593,450L597,454L599,455L600,455L601,457L603,458L605,459L606,460L609,462L610,464L612,466L614,467L615,469L616,471L617,473L618,475L618,476L619,478L619,480L619,483L619,486L619,489L619,493L619,496L618,499L617,503L616,506L614,509L613,512L611,515L609,518L606,521L603,525L600,528L597,532L593,536L589,539L585,543L581,547L577,550L572,554L568,557L564,560L559,564L555,567L550,570L545,574L541,578L535,582L529,586L523,590L517,595L511,599L502,604L494,610" stroke-opacity="1" stroke-width="5" stroke-linecap="round" stroke-linejoin="round" style="-webkit-tap-highlight-color: rgba(0, 0, 0, 0); stroke-opacity: 1; stroke-linecap: round; stroke-linejoin: round; -webkit-user-select: text;"></path><path fill="none" stroke="#000000" d="M476,626L472,628L470,629L468,630L465,633L462,635L458,638L455,640L451,642L447,645L444,647L441,649L437,651L434,652L430,654L426,656L421,658L416,660L412,662L406,664L400,666L395,668L389,671L384,674L378,676L373,679L368,681L362,684L357,687L352,690L346,694" stroke-opacity="1" stroke-width="5" stroke-linecap="round" stroke-linejoin="round" style="-webkit-tap-highlight-color: rgba(0, 0, 0, 0); stroke-opacity: 1; stroke-linecap: round; stroke-linejoin: round; -webkit-user-select: text;"></path><path fill="none" stroke="#000000" d="M324,703L319,704L317,704L315,704L313,704L310,704L308,704L306,705L303,705L300,705L296,705L293,705L290,705L286,705L283,705L280,704L278,703L276,701L273,698L271,696L268,693L265,690L262,686L259,681L257,677L255,672L252,667L249,661L247,655L244,649L241,643L238,637L234,631L231,625L228,618L225,611L221,604L217,598L215,592L211,586L208,581L205,575L205,568" stroke-opacity="1" stroke-width="5" stroke-linecap="round" stroke-linejoin="round" style="-webkit-tap-highlight-color: rgba(0, 0, 0, 0); stroke-opacity: 1; stroke-linecap: round; stroke-linejoin: round; -webkit-user-select: text;"></path><path fill="none" stroke="#000000" d="M202,548L200,545L200,543L200,542L199,540L198,538L196,535L195,533L193,530L192,527L190,524L188,521L186,518L185,515L183,512L181,509L179,506L177,503L176,500L174,497L171,492L169,488L167,485L164,481L162,477L159,473L157,469L154,464L152,460L149,455L147,450L144,445L142,440L141,436" stroke-opacity="1" stroke-width="5" stroke-linecap="round" stroke-linejoin="round" style="-webkit-tap-highlight-color: rgba(0, 0, 0, 0); stroke-opacity: 1; stroke-linecap: round; stroke-linejoin: round; -webkit-user-select: text;"></path><path fill="none" stroke="#000000" d="M143,428L138,423L136,421L134,419L132,416L131,414L130,412L129,410L128,408L128,406L128,403L128,400L128,397L128,393L128,391L129,388L131,386L133,383L135,382L138,380L142,377L144,375L148,373L151,372L154,370L158,368L162,366L166,365L170,363L174,362L178,361L182,360L186,359L191,358L195,357L200,356L205,355L210,354L215,353L221,351L227,350L233,348L241,346L248,343L255,341L263,339L271,336L279,334L288,331L298,327L308,324L319,320L331,316L343,312L356,308" stroke-opacity="1" stroke-width="5" stroke-linecap="round" stroke-linejoin="round" style="-webkit-tap-highlight-color: rgba(0, 0, 0, 0); stroke-opacity: 1; stroke-linecap: round; stroke-linejoin: round; -webkit-user-select: text;"></path><path fill="none" stroke="#000000" d="M359,312L362,307L365,307L368,307L372,306L376,305L380,305L384,304L389,303L395,302L400,301L404,300L409,299L413,298L417,297L421,296L425,296L428,295L431,295L434,295L436,295L438,295L441,295L443,296L444,296L446,297L448,298L451,300L453,301L455,302L457,304L459,306L461,307L463,309L465,312L467,314L470,317L472,322L476,327L479,334L482,345L486,358L491,373" stroke-opacity="1" stroke-width="5" stroke-linecap="round" stroke-linejoin="round" style="-webkit-tap-highlight-color: rgba(0, 0, 0, 0); stroke-opacity: 1; stroke-linecap: round; stroke-linejoin: round; -webkit-user-select: text;"></path><path fill="none" stroke="#000000" d="M495,415L497,417L497,419L497,421L497,424L498,427L499,430L500,433L502,437L503,442L504,446L505,451L507,457L508,463L509,469L510,475L511,482L512,489L514,495L515,501L516,506L518,512L519,518L521,524L523,530L524,533L525,537L526,542" stroke-opacity="1" stroke-width="5" stroke-linecap="round" stroke-linejoin="round" style="-webkit-tap-highlight-color: rgba(0, 0, 0, 0); stroke-opacity: 1; stroke-linecap: round; stroke-linejoin: round; -webkit-user-select: text;"></path><path fill="none" stroke="#000000" d="M531,565L531,568L531,570L531,573L531,576L532,580L533,584L534,588L536,593L536,598L537,603L537,608L537,613L537,617L537,622L537,626L537,630L537,634L537,637L537,642L536,646L535,650L533,653L532,657L530,659L528,662L525,665L521,668L518,671L515,673L511,676L508,678L504,680L500,680L497,681L493,681L489,681L484,681L478,681L471,680L464,680" stroke-opacity="1" stroke-width="5" stroke-linecap="round" stroke-linejoin="round" style="-webkit-tap-highlight-color: rgba(0, 0, 0, 0); stroke-opacity: 1; stroke-linecap: round; stroke-linejoin: round; -webkit-user-select: text;"></path><path fill="none" stroke="#000000" d="M440,670L434,670L432,670L429,670L426,670L422,670L418,670L414,670L409,670L404,670L399,670L393,670L387,669L381,669L374,668L367,668L360,667L352,667L344,667L337,666L329,666L322,666L313,666" stroke-opacity="1" stroke-width="5" stroke-linecap="round" stroke-linejoin="round" style="-webkit-tap-highlight-color: rgba(0, 0, 0, 0); stroke-opacity: 1; stroke-linecap: round; stroke-linejoin: round; -webkit-user-select: text;"></path><path fill="none" stroke="#000000" d="M302,652L297,652L295,652L293,652L290,652L288,652L285,652L283,652L281,652L279,652L277,652L274,652L271,652L268,652L265,652L261,652L258,651L255,651L251,650L248,649L244,648L241,647L237,645L234,644L230,642L226,640L222,638L218,636L214,633L211,631L208,628L204,625L201,622L198,618L194,614L191,610L187,605L184,600L180,596L177,591L173,585L169,579L166,573L161,567L157,562L153,556L149,550L144,544L140,538L136,531L131,523L127,514L125,505" stroke-opacity="1" stroke-width="5" stroke-linecap="round" stroke-linejoin="round" style="-webkit-tap-highlight-color: rgba(0, 0, 0, 0); stroke-opacity: 1; stroke-linecap: round; stroke-linejoin: round; -webkit-user-select: text;"></path><path fill="none" stroke="#000000" d="M139,494L134,489L133,487L132,485L131,482L129,479L127,475L125,471L123,467L121,462L119,459L116,455L114,452L112,448L110,444L108,441L105,437L103,433L102,428L101,424L101,416L99,407" stroke-opacity="1" stroke-width="5" stroke-linecap="round" stroke-linejoin="round" style="-webkit-tap-highlight-color: rgba(0, 0, 0, 0); stroke-opacity: 1; stroke-linecap: round; stroke-linejoin: round; -webkit-user-select: text;"></path><path fill="none" stroke="#000000" d="M97,397L95,392L95,390L95,387L95,384L95,381L95,377L95,373L95,370L95,365L95,361L97,356L99,352L103,348L106,345L111,342L115,339L120,337L125,335L130,333L135,331L139,330L144,329L149,328L155,327L160,326L166,326L171,326L178,326L185,326L191,326L198,326L206,326L215,326L224,325L234,324L244,324L255,324L268,323L281,322L295,322L310,322L326,321L344,320" stroke-opacity="1" stroke-width="5" stroke-linecap="round" stroke-linejoin="round" style="-webkit-tap-highlight-color: rgba(0, 0, 0, 0); stroke-opacity: 1; stroke-linecap: round; stroke-linejoin: round; -webkit-user-select: text;"></path><path fill="none" stroke="#000000" d="M372,322L376,320L379,320L382,320L387,320L391,320L397,320L402,320L408,320L415,320L421,320L428,321L435,322L442,323L449,323L457,324L465,325L473,326L482,327L491,328L501,329L510,329L519,329L529,330L539,331L548,334" stroke-opacity="1" stroke-width="5" stroke-linecap="round" stroke-linejoin="round" style="-webkit-tap-highlight-color: rgba(0, 0, 0, 0); stroke-opacity: 1; stroke-linecap: round; stroke-linejoin: round; -webkit-user-select: text;"></path><path fill="none" stroke="#000000" d="M562,347L564,346L566,346L568,346L570,347L573,348L576,348L578,350L580,351L583,351L586,353L589,354L591,356L593,357L596,359L598,361L601,363L603,365L606,366L608,368L610,370L612,373L613,375L615,377L616,380L618,384L618,387L619,390L620,394L621,397L621,401L622,404L623,408L623,411L623,416L623,420L623,424L623,429L622,435L621,441L619,446L618,451L616,457L614,462L611,470L608,477L604,485L600,495L596,505" stroke-opacity="1" stroke-width="5" stroke-linecap="round" stroke-linejoin="round" style="-webkit-tap-highlight-color: rgba(0, 0, 0, 0); stroke-opacity: 1; stroke-linecap: round; stroke-linejoin: round; -webkit-user-select: text;"></path><path fill="none" stroke="#000000" d="M593,528L589,532L587,535L585,540L582,545L578,551L576,556L573,561L570,568L567,574L565,582L562,588L559,595L555,601L551,608L547,614L542,623L538,630L534,637" stroke-opacity="1" stroke-width="5" stroke-linecap="round" stroke-linejoin="round" style="-webkit-tap-highlight-color: rgba(0, 0, 0, 0); stroke-opacity: 1; stroke-linecap: round; stroke-linejoin: round; -webkit-user-select: text;"></path><path fill="none" stroke="#000000" d="M519,653L514,656L514,658L513,660L511,662L509,664L507,666L504,669L502,671L499,673L496,675L493,678L490,680L487,682L484,685L480,687L477,689L474,691L471,692L468,693L465,695L461,697L458,698L454,699L451,700L447,700L443,701L440,701L437,701L434,701L431,701L429,701L426,701L422,699L419,698L415,696L411,695L407,693L403,692L398,691L392,689L386,687L378,686L370,684L363,681L357,680" stroke-opacity="1" stroke-width="5" stroke-linecap="round" stroke-linejoin="round" style="-webkit-tap-highlight-color: rgba(0, 0, 0, 0); stroke-opacity: 1; stroke-linecap: round; stroke-linejoin: round; -webkit-user-select: text;"></path><path fill="none" stroke="#000000" d="M343,673L338,671L335,670L332,669L329,668L324,666L320,664L314,662L309,660L304,658L297,655L291,652L285,649L279,647L272,643L266,640L259,637L251,634L245,630L238,626L230,623L223,619L216,615L208,612L201,608L196,606L193,603" stroke-opacity="1" stroke-width="5" stroke-linecap="round" stroke-linejoin="round" style="-webkit-tap-highlight-color: rgba(0, 0, 0, 0); stroke-opacity: 1; stroke-linecap: round; stroke-linejoin: round; -webkit-user-select: text;"></path><path fill="none" stroke="#000000" d="M191,589L186,588L185,588L183,588L180,588L178,587L176,586L173,585L170,584L168,583L165,581L162,579L159,577L156,575L152,573L149,571L145,569L142,567L138,565L135,562L131,560L127,558L124,556L121,554L118,552L115,550L113,548L110,546L108,544L106,541L104,539L103,537L102,534L101,532L100,530L99,527L98,524L98,522L98,518L98,516L98,512L98,509L98,506L98,504L100,501L101,498L103,494L105,492L106,489L108,486L109,483L111,480L113,477L115,474L117,471L119,468L120,465L122,462L125,458L127,455L129,450L132,446L134,441L137,436L139,431L143,426L146,421L149,414L153,409L157,403L162,395L169,385L177,374L186,363L196,353" stroke-opacity="1" stroke-width="5" stroke-linecap="round" stroke-linejoin="round" style="-webkit-tap-highlight-color: rgba(0, 0, 0, 0); stroke-opacity: 1; stroke-linecap: round; stroke-linejoin: round; -webkit-user-select: text;"></path><path fill="none" stroke="#000000" d="M225,334L225,332L227,330L229,327L231,324L235,321L238,317L243,312L247,307L251,302L256,297L260,292L265,287L270,282L275,276L281,268L288,261L297,254" stroke-opacity="1" stroke-width="5" stroke-linecap="round" stroke-linejoin="round" style="-webkit-tap-highlight-color: rgba(0, 0, 0, 0); stroke-opacity: 1; stroke-linecap: round; stroke-linejoin: round; -webkit-user-select: text;"></path><path fill="none" stroke="#000000" d="M314,251L315,248L316,246L317,244L319,242L321,239L323,237L325,235L326,233L328,231L329,229L331,226L333,224L334,222L336,220L338,218L340,216L341,214L344,212L345,210L347,208L349,206L351,204L353,202L356,200L358,198L361,196L363,195L366,193L368,192L370,191L373,190L374,189L377,188L379,188L381,188L383,188L385,188L387,188L389,188L391,188L393,188L395,188L397,188L399,190L401,191L403,192L405,193L407,195L408,197L410,198L412,200L414,202L416,204L419,206L420,208L422,210L424,213L426,215L428,217L430,220L432,223L434,225L436,228L438,232L441,235L443,238L445,241L447,245L450,249L452,253L455,256L457,260L460,265L462,269L465,273L468,278L471,282L473,287L477,292L480,297L483,302L487,308L491,314L495,322L501,331L506,341L512,351L519,364L527,376L535,390L543,403L551,418" stroke-opacity="1" stroke-width="5" stroke-linecap="round" stroke-linejoin="round" style="-webkit-tap-highlight-color: rgba(0, 0, 0, 0); stroke-opacity: 1; stroke-linecap: round; stroke-linejoin: round; -webkit-user-select: text;"></path><path fill="none" stroke="#000000" d="M566,441L568,445L568,447L570,449L572,452L573,454L575,457L576,460L578,462L579,466L582,469L584,472L586,475L588,479L590,482L592,486L595,489L597,494L599,498L602,502L604,507L607,512L610,518L613,524L618,533L621,542L626,552" stroke-opacity="1" stroke-width="5" stroke-linecap="round" stroke-linejoin="round" style="-webkit-tap-highlight-color: rgba(0, 0, 0, 0); stroke-opacity: 1; stroke-linecap: round; stroke-linejoin: round; -webkit-user-select: text;"></path><path fill="none" stroke="#000000" d="M626,573L626,574L626,576L626,577L626,580L626,582L626,585L627,588L628,591L629,594L630,597L631,600L631,603L632,606L633,609L634,612L634,615L635,618L635,621L635,624L635,627L635,630L635,633L633,637L632,640L630,644L628,647L626,651L623,654L622,657L619,659L617,662L614,663L612,665L609,667L606,668L602,670L599,672L596,673L592,674L588,676L584,677L580,679L577,679L572,680L569,681L565,681L561,681L557,682L553,682L549,682L545,682L541,682L536,682L531,682L526,682L519,682L512,682L504,682L495,683" stroke-opacity="1" stroke-width="5" stroke-linecap="round" stroke-linejoin="round" style="-webkit-tap-highlight-color: rgba(0, 0, 0, 0); stroke-opacity: 1; stroke-linecap: round; stroke-linejoin: round; -webkit-user-select: text;"></path><path fill="none" stroke="#000000" d="M450,681L445,683L443,683L440,683L437,683L434,683L430,683L426,684L421,684L417,684L413,684L408,684L404,684L399,684L393,684L387,683L380,683L374,683L366,682L359,681L351,681L343,680L335,680L328,680L321,680L314,680L308,680" stroke-opacity="1" stroke-width="5" stroke-linecap="round" stroke-linejoin="round" style="-webkit-tap-highlight-color: rgba(0, 0, 0, 0); stroke-opacity: 1; stroke-linecap: round; stroke-linejoin: round; -webkit-user-select: text;"></path><path fill="none" stroke="#000000" d="M299,672L296,675L294,675L291,675L288,675L285,675L283,676L280,676L277,676L274,676L271,676L268,676L265,676L261,676L258,676L254,676L250,676L246,676L242,676L238,676L234,676L229,676L226,676L223,675L220,675L217,674L214,674L211,673L208,672L205,671L203,669L200,667L197,664L195,661L193,658L191,654L189,650L188,646L186,642L186,637L184,633L183,627L182,622L181,616L180,611L178,604L177,597L176,588L176,574" stroke-opacity="1" stroke-width="5" stroke-linecap="round" stroke-linejoin="round" style="-webkit-tap-highlight-color: rgba(0, 0, 0, 0); stroke-opacity: 1; stroke-linecap: round; stroke-linejoin: round; -webkit-user-select: text;"></path><path fill="none" stroke="#000000" d="M182,546L181,544L181,542L181,539L181,537L181,534L181,531L181,528L180,523L179,518L178,513L176,509L174,504L173,500L172,496L171,491L169,487L168,482L166,477L165,470L163,464L161,458L160,451L159,442L159,434L159,424" stroke-opacity="1" stroke-width="5" stroke-linecap="round" stroke-linejoin="round" style="-webkit-tap-highlight-color: rgba(0, 0, 0, 0); stroke-opacity: 1; stroke-linecap: round; stroke-linejoin: round; -webkit-user-select: text;"></path><path fill="none" stroke="#000000" d="M175,404L169,406L169,404L169,403L169,401L169,399L168,397L168,394L167,392L166,389L165,386L165,384L164,381L164,378L164,376L164,373L164,370L164,367L163,364L163,360L163,355L163,351L163,346L162,341L162,337L162,333L162,328L162,324L162,320L162,316L163,312L163,308L164,304L165,301L167,298L169,295L170,292L172,289L175,287L177,285L180,283L183,281L186,279L189,278L193,277L196,276L199,276L203,275L206,274L210,274L213,273L217,273L221,273L225,273L229,273L233,273L237,273L242,273L246,273L251,273L256,274L261,275L267,275L273,277L280,278L288,280L295,282L305,285L317,288L329,290L342,292" stroke-opacity="1" stroke-width="5" stroke-linecap="round" stroke-linejoin="round" style="-webkit-tap-highlight-color: rgba(0, 0, 0, 0); stroke-opacity: 1; stroke-linecap: round; stroke-linejoin: round; -webkit-user-select: text;"></path><path fill="none" stroke="#000000" d="M380,302L383,299L386,299L390,299L394,299L398,300L404,301L409,302L415,304L421,306L427,307L433,309L439,312L446,313L452,315L460,317L467,319L474,321L481,323L487,325L494,326L502,328L508,330L516,333" stroke-opacity="1" stroke-width="5" stroke-linecap="round" stroke-linejoin="round" style="-webkit-tap-highlight-color: rgba(0, 0, 0, 0); stroke-opacity: 1; stroke-linecap: round; stroke-linejoin: round; -webkit-user-select: text;"></path><path fill="none" stroke="#000000" d="M550,353L554,357L557,357L559,357L562,357L565,357L567,358L571,359L574,360L577,360L579,361L582,363L585,363L587,365L590,366L592,368L595,370L597,372L599,374L601,376L603,379L605,382L606,385L608,388L609,392L609,395L610,398L610,401L611,405L611,408L611,411L611,415L611,419L611,422L610,426L608,430L606,436L604,441L602,446L600,450L597,455L595,460L593,465L590,472L587,477L584,483L580,490L577,497L572,504L568,514L564,523L560,533" stroke-opacity="1" stroke-width="5" stroke-linecap="round" stroke-linejoin="round" style="-webkit-tap-highlight-color: rgba(0, 0, 0, 0); stroke-opacity: 1; stroke-linecap: round; stroke-linejoin: round; -webkit-user-select: text;"></path><path fill="none" stroke="#000000" d="M558,552L555,556L555,558L553,560L552,563L550,566L548,569L547,573L545,578L543,582L540,587L538,592L535,597L531,602L528,607L525,612L522,617L519,622L516,628L513,633L510,638L507,644L503,650L499,656L495,662L491,669L487,676L484,683L480,690L477,696" stroke-opacity="1" stroke-width="5" stroke-linecap="round" stroke-linejoin="round" style="-webkit-tap-highlight-color: rgba(0, 0, 0, 0); stroke-opacity: 1; stroke-linecap: round; stroke-linejoin: round; -webkit-user-select: text;"></path><path fill="none" stroke="#000000" d="M461,700L459,705L458,707L457,709L455,711L454,713L452,714L450,716L448,717L446,718L443,720L441,721L438,722L436,723L433,724L430,725L427,726L424,727L420,727L417,727L413,727L410,727L406,727L403,727L399,727L395,727L391,727L387,726L384,725L380,723L376,721L372,719L368,717L364,715L361,713L358,711L354,709L351,707L347,704L344,701L340,698L336,695L331,692L327,689L323,686L319,682L315,677" stroke-opacity="1" stroke-width="5" stroke-linecap="round" stroke-linejoin="round" style="-webkit-tap-highlight-color: rgba(0, 0, 0, 0); stroke-opacity: 1; stroke-linecap: round; stroke-linejoin: round; -webkit-user-select: text;"></path><path fill="none" stroke="#000000" d="M309,651L305,651L303,650L300,647L298,645L294,642L291,639L288,636L284,633L281,630L278,628L276,625L273,622L270,619L268,616L265,613L261,610L258,606L254,603L251,600L247,596L244,593L240,589L235,584L231,579L227,575L223,571L219,566L215,562L211,558L207,552L203,547L199,541L197,535" stroke-opacity="1" stroke-width="5" stroke-linecap="round" stroke-linejoin="round" style="-webkit-tap-highlight-color: rgba(0, 0, 0, 0); stroke-opacity: 1; stroke-linecap: round; stroke-linejoin: round; -webkit-user-select: text;"></path><path fill="none" stroke="#000000" d="M215,545L210,544L208,542L205,539L203,537L200,535L196,532L193,530L190,527L186,524L182,521L179,518L176,516L172,512L169,510L165,506L162,504L159,501L156,499L152,497L149,494L146,492L142,488L138,485L136,483L133,480L130,477L127,475L125,472L122,468L119,465L117,461L115,458L113,454L111,450L109,447L108,443L106,440L105,436L105,433L104,430L103,427L103,424L103,420L103,416L103,412L103,409L103,405L104,401L105,397L106,393L108,389L109,385L110,382L111,378L113,375L114,371L116,368L118,365L120,362L122,358L125,353L129,347L135,339L143,330" stroke-opacity="1" stroke-width="5" stroke-linecap="round" stroke-linejoin="round" style="-webkit-tap-highlight-color: rgba(0, 0, 0, 0); stroke-opacity: 1; stroke-linecap: round; stroke-linejoin: round; -webkit-user-select: text;"></path><path fill="none" stroke="#000000" d="M164,320L163,321L164,320L166,318L169,316L171,314L173,312L176,309L178,306L182,302L185,300L188,297L191,294L194,291L198,287L201,284L205,280L209,277L213,273L217,269L222,264L227,259L232,253L239,247L248,239L258,229L268,221" stroke-opacity="1" stroke-width="5" stroke-linecap="round" stroke-linejoin="round" style="-webkit-tap-highlight-color: rgba(0, 0, 0, 0); stroke-opacity: 1; stroke-linecap: round; stroke-linejoin: round; -webkit-user-select: text;"></path><path fill="none" stroke="#000000" d="M276,224L279,219L281,218L283,216L286,215L288,214L291,213L293,212L296,211L299,210L301,210L303,209L306,209L309,209L311,209L314,209L317,209L319,209L323,210L326,211L329,212L333,213L337,214L341,215L345,217L349,218L353,220L357,222L361,224L366,226L371,228L375,230L380,233L385,235L390,238L395,240L401,243L406,245L411,247L416,250L421,252L427,255L433,258L439,262L446,266L455,271L463,277L472,283" stroke-opacity="1" stroke-width="5" stroke-linecap="round" stroke-linejoin="round" style="-webkit-tap-highlight-color: rgba(0, 0, 0, 0); stroke-opacity: 1; stroke-linecap: round; stroke-linejoin: round; -webkit-user-select: text;"></path><path fill="none" stroke="#000000" d="M502,303L504,300L506,300L509,301L511,302L513,303L516,305L519,307L523,309L526,311L530,313L534,316L538,318L542,321L546,323L550,325L553,328L558,331L562,333L565,336L570,340L574,343L578,347L584,352L589,357L595,362L603,368L609,373L616,379" stroke-opacity="1" stroke-width="5" stroke-linecap="round" stroke-linejoin="round" style="-webkit-tap-highlight-color: rgba(0, 0, 0, 0); stroke-opacity: 1; stroke-linecap: round; stroke-linejoin: round; -webkit-user-select: text;"></path><path fill="none" stroke="#000000" d="M630,393L634,396L635,397L637,399L639,400L641,402L643,403L644,405L645,407L647,408L648,410L650,412L651,415L652,417L653,420L654,422L655,425L655,428L655,431L656,435L656,439L656,443L656,447L656,450L656,454L656,458L655,461L654,465L652,468L651,472L648,477L646,481L644,485L641,489L638,494L635,499L633,503L630,507L627,512L623,516L621,521L618,526L614,531L611,535L607,540L603,546L599,552L594,558L589,564L584,570L579,576L572,583L567,591L560,599L554,608L549,618" stroke-opacity="1" stroke-width="5" stroke-linecap="round" stroke-linejoin="round" style="-webkit-tap-highlight-color: rgba(0, 0, 0, 0); stroke-opacity: 1; stroke-linecap: round; stroke-linejoin: round; -webkit-user-select: text;"></path><path fill="none" stroke="#000000" d="M541,644L538,645L536,647L534,651L531,655L528,658L525,661L522,664L519,667L516,670L514,673L511,676L508,680L504,684L499,688L494,693L489,698L482,706L475,712L469,719L463,725L458,731" stroke-opacity="1" stroke-width="5" stroke-linecap="round" stroke-linejoin="round" style="-webkit-tap-highlight-color: rgba(0, 0, 0, 0); stroke-opacity: 1; stroke-linecap: round; stroke-linejoin: round; -webkit-user-select: text;"></path><path fill="none" stroke="#000000" d="M448,747L444,744L443,744L441,744L439,743L438,742L435,741L433,740L430,738L426,736L423,734L418,731L415,729L411,726L407,724L402,721L398,718L393,715L389,713L385,709L381,707L377,704L373,701L370,699L367,696L363,694L359,691L355,689L351,686L348,684L344,681L340,678L337,676L333,673L330,670L326,667L322,663L318,659L314,656L311,652L308,650L304,646L301,643L297,640L294,637L290,634L287,630L283,627L280,623L277,620L273,616L270,613L268,609L266,604" stroke-opacity="1" stroke-width="5" stroke-linecap="round" stroke-linejoin="round" style="-webkit-tap-highlight-color: rgba(0, 0, 0, 0); stroke-opacity: 1; stroke-linecap: round; stroke-linejoin: round; -webkit-user-select: text;"></path><path fill="none" stroke="#000000" d="M261,584L255,583L253,583L251,582L248,579L245,577L242,575L239,573L237,570L234,567L231,565L228,562L225,560L222,557L219,553L216,550L212,545L210,541L207,537L204,532L202,528L200,524L198,520L197,516L195,512L194,509L193,505L193,501L193,497L193,493L193,489L193,486L193,482L194,478L196,475L198,472L200,469L203,466L207,462L211,459L215,456L220,452L225,448L231,444L237,439L242,435L249,431L255,426L264,421L273,417L283,414" stroke-opacity="1" stroke-width="5" stroke-linecap="round" stroke-linejoin="round" style="-webkit-tap-highlight-color: rgba(0, 0, 0, 0); stroke-opacity: 1; stroke-linecap: round; stroke-linejoin: round; -webkit-user-select: text;"></path><path fill="none" stroke="#000000" d="M297,409L303,404L305,404L308,403L312,402L317,399L322,397L327,394L332,392L339,388L344,385L349,382L355,379L361,376L367,373L373,369L380,365L389,361L398,356L408,351L419,346" stroke-opacity="1" stroke-width="5" stroke-linecap="round" stroke-linejoin="round" style="-webkit-tap-highlight-color: rgba(0, 0, 0, 0); stroke-opacity: 1; stroke-linecap: round; stroke-linejoin: round; -webkit-user-select: text;"></path><path fill="none" stroke="#000000" d="M424,347L431,345L434,344L437,343L441,342L446,341L450,340L454,339L458,339L463,338L467,338L471,338L475,338L479,338L482,338L485,338L487,338L490,339L492,341L494,344L497,346L499,349L502,352L504,356L506,360L507,364L509,368L510,372L511,377L512,382L512,387L513,392L513,398L513,404L513,409L513,416L513,423L513,429L513,436L513,442L512,448L511,457L509,465L508,474L507,484L505,497L503,509L500,526L497,544L494,563L492,583" stroke-opacity="1" stroke-width="5" stroke-linecap="round" stroke-linejoin="round" style="-webkit-tap-highlight-color: rgba(0, 0, 0, 0); stroke-opacity: 1; stroke-linecap: round; stroke-linejoin: round; -webkit-user-select: text;"></path><path fill="none" stroke="#000000" d="M495,611L493,612L493,614L493,616L493,619L492,623L492,628L491,633L490,637L489,641L488,645L487,650L485,653L484,657L483,661L482,665L481,669L481,673L480,677L480,682L478,688L477,694L475,702" stroke-opacity="1" stroke-width="5" stroke-linecap="round" stroke-linejoin="round" style="-webkit-tap-highlight-color: rgba(0, 0, 0, 0); stroke-opacity: 1; stroke-linecap: round; stroke-linejoin: round; -webkit-user-select: text;"></path><path fill="none" stroke="#000000" d="M471,719L468,722L468,724L467,727L465,731L463,734L460,738L457,741L455,744L452,747L450,749L448,752L446,754L444,757L442,759L440,760L438,761L436,763L434,764L431,764L429,765L426,766L424,766L422,766L419,766L417,766L414,766L412,766L409,766L406,766L403,766L400,766L398,766L395,766L392,766L390,765L387,764L384,762L380,761L378,760L374,759L370,758L367,757L363,755L358,754L354,752L349,750L344,749L339,747L334,744L328,738" stroke-opacity="1" stroke-width="5" stroke-linecap="round" stroke-linejoin="round" style="-webkit-tap-highlight-color: rgba(0, 0, 0, 0); stroke-opacity: 1; stroke-linecap: round; stroke-linejoin: round; -webkit-user-select: text;"></path><path fill="none" stroke="#000000" d="M306,728L301,727L299,727L296,725L293,724L290,723L287,721L284,720L280,718L277,716L273,714L268,711L264,708L260,705L255,701L251,698L247,695L243,693L239,690L234,687L230,684L225,680L220,676L215,672L210,669L205,665L199,661L193,657L188,652L182,648L177,643L172,639L169,634L164,626" stroke-opacity="1" stroke-width="5" stroke-linecap="round" stroke-linejoin="round" style="-webkit-tap-highlight-color: rgba(0, 0, 0, 0); stroke-opacity: 1; stroke-linecap: round; stroke-linejoin: round; -webkit-user-select: text;"></path><path fill="none" stroke="#000000" d="M150,605L145,599L144,598L142,596L140,594L138,591L136,589L135,586L133,584L132,581L130,577L130,574L129,569L129,565L128,561L128,557L128,551L128,545L128,540L128,534L129,530L130,523L131,518L133,513L135,507L137,501L140,496L142,491L145,485L149,480L152,474L156,467L160,462L164,456L169,450L173,444L177,438L182,432L186,426L191,420L196,414L201,408L206,401L212,393L218,385L227,373L237,362" stroke-opacity="1" stroke-width="5" stroke-linecap="round" stroke-linejoin="round" style="-webkit-tap-highlight-color: rgba(0, 0, 0, 0); stroke-opacity: 1; stroke-linecap: round; stroke-linejoin: round; -webkit-user-select: text;"></path><path fill="none" stroke="#000000" d="M263,349L265,346L266,345L267,343L269,340L271,337L274,334L276,331L279,329L283,325L285,322L288,319L291,317L293,314L296,311L298,309L300,307L302,305L304,302L306,300L309,298L311,295L314,292L318,288L323,283L329,277L339,268L350,259" stroke-opacity="1" stroke-width="5" stroke-linecap="round" stroke-linejoin="round" style="-webkit-tap-highlight-color: rgba(0, 0, 0, 0); stroke-opacity: 1; stroke-linecap: round; stroke-linejoin: round; -webkit-user-select: text;"></path><path fill="none" stroke="#000000" d="M367,245L369,242L372,240L374,238L376,236L379,233L381,231L384,229L387,227L390,225L394,223L397,222L400,220L403,219L405,218L408,217L411,217L413,217L416,217L418,217L421,217L424,217L427,217L430,217L433,217L436,217L440,217L443,218L446,220L450,222L453,224L456,226L459,229L462,232L465,236L468,240L471,243L473,246L476,250L478,253L481,257L483,261L485,266L487,270L489,275L491,279L493,285L495,290L497,295L500,301L503,308L506,316L510,326L514,338L519,353L525,368" stroke-opacity="1" stroke-width="5" stroke-linecap="round" stroke-linejoin="round" style="-webkit-tap-highlight-color: rgba(0, 0, 0, 0); stroke-opacity: 1; stroke-linecap: round; stroke-linejoin: round; -webkit-user-select: text;"></path><path fill="none" stroke="#000000" d="M538,406L537,406L537,409L538,412L539,416L541,419L543,423L544,427L545,431L547,435L549,440L550,445L551,448L553,453L554,457L556,461L558,465L560,470L561,476L563,482L565,490L566,497L568,504L570,511L572,519" stroke-opacity="1" stroke-width="5" stroke-linecap="round" stroke-linejoin="round" style="-webkit-tap-highlight-color: rgba(0, 0, 0, 0); stroke-opacity: 1; stroke-linecap: round; stroke-linejoin: round; -webkit-user-select: text;"></path><path fill="none" stroke="#000000" d="M578,536L581,541L581,544L581,546L582,549L582,552L582,555L582,558L582,561L582,565L582,569L581,574L580,578L579,582L578,586L577,590L575,594L573,597L572,601L570,605L568,608L567,612L565,616L563,619L562,622L559,625L557,629L554,631L550,634L547,636L543,639L539,642L535,645L531,647L526,649L522,650L517,652L513,652L508,653L503,654L497,655L492,656L485,657L479,657L472,658L465,659L456,660L446,663" stroke-opacity="1" stroke-width="5" stroke-linecap="round" stroke-linejoin="round" style="-webkit-tap-highlight-color: rgba(0, 0, 0, 0); stroke-opacity: 1; stroke-linecap: round; stroke-linejoin: round; -webkit-user-select: text;"></path></svg>