<svg height="868" version="1.1" width="768" xmlns="http://www.w3.org/2000/svg" xmlns:xlink="http://www.w3.org/1999/xlink" style="overflow: hidden; position: relative; -webkit-user-select: text;"><desc style="-webkit-tap-highlight-color: rgba(0, 0, 0, 0); -webkit-user-select: text;">Created with Raphaël 2.2.0</desc><defs style="-webkit-tap-highlight-color: rgba(0, 0, 0, 0); -webkit-user-select: text;"></defs><path fill="none" stroke="#ff0000" d="M150,353L159,346L162,344L166,341L170,339L174,335L178,332L183,329L188,324L192,321L198,317L203,312L208,308L213,304L219,300L225,296L230,291L236,286L242,281L248,276L253,271L259,266L265,261L271,257L277,253L281,249L287,245L293,241L298,237L303,233L307,229L312,225L317,222L321,218L326,215L330,210L334,207L339,203L344,200L348,197L352,195L356,192L360,189L363,187L367,185L369,183L372,182L373,181L374,180L375,180L375,179L376,179L376,178L377,178L378,178L378,177L379,176L380,176L381,175L382,175L383,175L384,174L385,174L386,173L387,173L389,173L390,173L392,173L393,173L395,173L396,173L397,173L399,173L401,173L402,173L404,173L405,173L406,173L407,173L409,173L410,173L411,173L412,174L414,175L415,176L416,176L417,177L418,178L419,179L420,180L421,181L422,182L423,183L423,184L424,185L425,186L425,187L426,188L426,189L427,190L428,192L428,193L429,194L429,195L430,196L430,198L431,199L431,200L431,202L432,203L432,205L433,206L433,208L434,209L434,211L434,212L435,214L435,216L435,217L436,219L436,221L436,222L436,224L437,225L437,227L438,229L438,231L438,233L438,235L439,237L439,239L439,241L440,242L440,244L440,246L441,249L441,251L441,253L441,256L442,259L442,262L443,264L443,267L444,269L444,271L445,273L445,275L446,278L446,280L446,283L447,285L447,287L448,290L448,293L449,295L449,298L450,301L450,303L451,306L451,309L451,312L452,314L452,317L453,319L453,322L453,324L454,327L454,329L455,331L455,334L455,336L455,337L455,339L455,341L455,343L455,345L455,346L455,348L455,350L456,352L456,354L456,356L457,358L457,361L458,363L458,365L458,368L458,370L459,372L459,373L459,375L459,376L460,378L460,380L460,381L460,383L460,385L460,386L460,387L461,389L461,391L461,392L461,394L462,396L462,398L462,399L462,401L462,403L463,404L463,407L463,408L463,409L463,411L463,412L463,414L463,415L463,416L463,418L463,419L464,421L464,422L464,424L464,425L464,426L464,427L464,428L465,430L465,431L465,433L465,434L465,435L465,436L465,438L465,439L466,441L466,442L466,443L467,444L467,445L467,447L467,448L467,449L467,450L468,451L468,452L468,453L468,454L468,455L468,456L468,457L469,458L469,459L469,460L469,461L469,462L470,463L470,464L470,465L470,466L470,467L470,468L470,469L470,470L471,471L471,472L471,473L471,474L471,475L471,476L471,477L472,478L472,479L472,480L472,481L472,482L472,483L472,484L472,485L472,486L473,486L473,487L473,488L473,489L473,490L473,491L474,492L474,493L474,494L474,495L474,496L475,497L475,498L475,499L475,501L475,502L475,504L476,505L476,507L476,509L477,510L477,512L477,514L477,516L477,518L477,520L477,521L477,524L477,526L477,528L477,530L477,532L476,534L475,537L474,540L473,543L471,545L470,548L468,551L466,554L463,557L461,560L458,563L455,565L452,568L449,570L444,573L441,575L437,577L433,579L429,581L424,582L420,584L415,585L410,586L404,588L399,589L392,590L387,591L380,593L374,594L367,595L361,596L354,597L348,598L341,599L336,599L331,600L325,601L321,602L316,603L312,603L308,604L304,604L300,605L297,605L293,606L290,606L286,606L283,607L280,607L278,608L275,608L272,608L269,609L266,609L263,610L260,610L258,611L255,611L252,611L249,612L246,612L244,613L241,613L238,614L236,614L233,615L231,615L229,616L227,616L225,616L223,617L221,617L219,618L217,618L215,618L212,619L210,619L209,620L207,620L205,620L203,620L202,620L200,620L198,621L196,621L195,622L193,622L191,622L190,623L188,623L186,623L185,623L183,624L182,624L181,624L180,625L178,625L177,625L176,625L175,625L174,625L173,626L172,626L171,626L170,626L169,626L167,627L166,627L165,627L163,627L162,627L160,627L159,627L157,627L156,627L154,627L153,627L152,627L150,627L149,627L148,627L146,627L144,627L143,627L141,627L139,627L137,627L136,625L134,624L132,623L130,621L129,619L127,617L125,614L124,611L123,606L122,602L122,597L122,593L122,587L123,581L125,574L129,567L132,559L137,550L142,543L146,535L149,528L152,521L155,514L158,509L161,502L164,495L168,488L171,481L174,475L177,468L181,462L185,456L188,451L192,445L195,440L198,435L201,430L204,425L207,420L210,415L213,410L216,405L219,401L222,397L225,392L228,387L231,383L234,379L237,374L241,370L244,366L247,362L251,358L254,354L256,351L259,347L262,344L265,340L268,336L271,333L273,329L276,326L278,323L280,319L283,317L285,313L288,310L290,307L293,305L295,302L297,299L299,297L301,295L302,292L304,291L305,289L307,287L308,286L309,285L310,284L312,283L314,282L315,281L317,281L319,280L321,280L323,280L325,280L327,280L329,280L331,280L333,280L336,280L338,282L340,283L343,285L346,287L348,289L351,291L354,294L357,297L361,301L365,307L369,312L375,319L380,325L386,331L392,337L398,343L404,348L409,353L414,359L419,364L425,369L430,374L434,378L438,382L442,387L446,390L449,394L453,398L456,402L459,405L462,408L465,411L468,414L470,417L473,420L476,423L478,425L481,428L483,430L485,432L487,435L490,437L492,440L494,442L496,444L499,447L501,449L503,451L505,453L507,456L509,458L511,460L512,462L514,465L515,467L517,469L519,471L520,473L522,475L524,477L525,479L526,480L527,482L528,484L530,486L531,487L531,489L532,492L533,494L533,497L533,499L534,502L534,505L535,509L535,512L535,515L535,519L535,523L534,527L532,532L530,537L527,543L523,549L519,554L515,560L510,566L505,572L500,577L494,582L489,586L484,589L478,592L472,594L467,596L460,598L453,599L446,600L439,600L432,600L423,600L417,600L409,600L401,598L393,595L386,593L379,590L372,587L365,585L358,582L351,579L344,575L338,572L331,569L325,566L319,562L313,560L307,557L302,554L296,551L290,548L285,545L280,542L273,538L268,535L263,533L258,530L254,527L249,524L244,522L240,519L235,517L232,515L228,512L223,510L220,508L216,506L212,504L209,502L206,501L203,499L200,497L197,495L193,493L191,492L188,490L185,488L182,487L179,485L177,484L174,482L172,481L169,480L167,478L165,477L163,476L161,475L159,474L157,473L155,472L153,470L152,470L151,468L149,467L148,466L147,465L147,463L147,462L146,460L146,458L146,455L146,453L146,450L146,447L146,443L147,438L148,434L149,429L149,424L151,418L152,412L153,407L154,400L155,394L156,387L158,380L159,371L161,362L162,354L164,346L165,337L167,329L169,320L170,310L171,301L172,292L174,281L175,272L176,261L178,252L179,242L180,233L181,226L182,218L183,209L183,202L184,196L185,189L185,182L186,175L187,169L188,163L189,156L190,150L192,144L193,139L195,132L197,127L198,121L200,117L201,112L203,107L205,103L206,99L208,95L210,92L212,88L214,85L216,82L218,79L220,76L223,74L225,73L227,71L230,70L232,69L235,69L238,69L242,69L245,69L248,69L251,69L255,69L258,71L262,73L265,75L269,78L273,81L276,85L280,88L283,92L287,96L290,100L294,105L297,109L301,114L305,119L309,125L312,130L317,135L320,140L324,146L329,151L333,157L337,163L341,169L346,176L351,183L356,189L361,196L366,203L370,210L376,218L380,224L386,232L391,240L397,248L403,255L408,263L414,270L419,278L424,284L429,291L434,297L438,304L442,309L446,314L449,319L452,324L454,327L456,331L458,334L460,337L461,341L462,343L463,346L463,348L463,350L464,352L464,354L464,356L464,358L464,360L464,362L464,364L464,365L463,367L463,369L461,371L460,372L458,374L456,376L454,378L452,380L450,382L447,384L444,386L441,388L438,390L435,392L431,394L428,396L424,397L419,399L415,400L411,402L405,403L400,405L394,407L387,408L380,411L371,412L363,415L353,418L342,421L331,424L319,427L307,431L294,433L281,436L268,439L256,441L244,444L233,445L222,447L210,448L201,448L191,449L181,449L173,450L164,450L156,450L148,450L139,450L132,450L125,450L118,450L112,450L107,449L103,448L99,446L96,445L93,443L90,441L87,440L85,438L82,436L80,434L78,432L76,430L74,428L72,425L71,422L70,419L68,415L67,411L66,407L66,403L65,399L65,394L65,389L65,384L66,378L67,373L69,368L72,363L75,358L78,353L81,348L86,343L91,338L96,333L101,327L106,322L113,315L120,309L127,302L135,296L145,287L154,278L166,267L178,256L190,245L203,234L216,223L228,210L241,198L253,186L265,174L276,162L287,151L298,142L307,132L315,124L323,116L330,109L337,102L343,97L349,92L353,87L358,82L363,79L366,76L370,74L373,71L377,69L381,68L385,66L390,65L394,64L399,63L404,62L408,61L412,61L417,61L420,61L424,62L428,63L431,66L434,68L438,71L442,74L446,77L450,81L454,84L458,88L463,93L467,98L471,103L475,108L480,114L484,120L488,125L492,131L496,137L500,142L504,148L509,153L513,159L517,164L521,170L525,175L528,179L532,183L536,188L539,192L542,196L545,200L548,203L551,207L554,210L557,214L560,217L562,220L565,223L567,226L569,229L571,231L572,234L574,236L575,239L576,241L577,243L577,245L577,246L577,248L577,250L577,251L577,253L577,256L575,258L573,260L571,262L569,265L567,267L565,269L562,272L560,274L557,276L555,279L552,282L549,284L546,287L544,290L541,292L538,295L535,298L532,301L529,304L526,307L522,309L519,312L516,315L513,317L509,320L506,322L502,324L499,327L495,329L492,331L489,334L485,336L480,338L476,341L472,343L468,345L463,347L458,349L453,351L449,352L445,353L441,353L437,354L433,354L430,354L427,354L424,354L422,353L419,351L417,349L414,346L412,344L409,341L407,336L404,333L400,329L397,324L394,320L391,315L388,311L385,306L383,302L380,298L378,294L376,290L375,286L373,282L373,278L372,274L372,270L372,264L372,258L374,253L377,246L381,239L385,232L390,225L396,217L401,208L405,200L409,193L414,184L418,177L421,170L426,162L431,154L435,147L439,139L443,132L447,125L451,119L455,112L459,106L462,101L465,96L468,91L471,87L474,83L477,78L480,75L482,72L485,70L487,67L489,66L491,64L494,63L495,63L498,62L500,62L502,62L506,62L509,62L511,62L514,62L516,62L519,63L520,64L522,66L524,68L525,70L526,72L527,74L529,76L530,79L531,81L533,84L534,87L535,90L536,93L538,96L539,99L540,103L541,106L543,109L544,113L545,117L547,120L548,124L550,128L551,132L553,136L554,140L556,145L558,149L560,154L562,159L563,163L565,168L567,171L569,176L571,181L573,185L575,190L578,195L580,199L583,204L585,209L587,213L589,218L591,222L593,226L595,230L597,234L599,238L601,241L602,245L604,249L605,253L607,256L608,260L609,263L611,267L612,270L613,273L614,276L615,279L616,281L618,284L618,287L619,289L621,292L621,295L623,297L623,299L624,302L625,304L626,306L627,308L628,310L629,312L630,314L631,316L632,318L633,320L633,322L634,324L635,326L635,328L636,329L636,331L637,333L637,335L638,337L638,339L638,341L639,343L639,345L639,347L639,348L639,350L639,352L639,353L639,355L639,356L639,357L638,358L637,359L635,361L634,362L633,363L631,365L629,366L627,368L625,369L623,370L621,371L618,372L616,373L614,374L611,375L609,375L607,376L604,377L601,377L599,378L596,379L594,380L591,380L588,380L585,381L582,382L579,382L575,383L572,384L569,385L565,385L562,386L559,387L555,387L551,388L547,389L543,389L539,390L534,391L529,392L524,393L520,394L515,395L510,396L504,397L499,398L494,399L489,400L483,401L477,402L472,403L467,404L462,405L457,406L451,407L446,407L442,408L438,409L434,410L429,410L425,411L421,411L417,412L414,413L410,414L407,414L404,415L400,416L397,416L393,417L390,417L387,418L384,418L381,419L378,419L375,419L373,420L370,420L367,420L364,420L361,420L358,420L356,420L353,420L350,420L348,420L345,420L342,420L340,420L337,419L335,418L333,417L331,415L329,414L326,411L324,409L322,407L319,404L317,402L314,399L312,396L310,393L307,389L305,385L303,381L301,377L298,372L296,367L293,362L291,356L289,351L286,345L284,339L282,332L280,326L278,319L275,311L273,303L271,296L269,287L267,280L266,272L264,264L262,256L261,249L260,241L259,234L258,227L257,219L257,210L257,203L256,196L256,189L256,182L256,176L256,170L255,164L255,159L254,154L254,149L254,145L254,142L253,137L253,134L253,131L253,127L253,125L253,122L253,119L254,117L254,115L256,113L257,111L259,109L261,107L264,106L267,105L270,104L273,103L276,103L278,103L281,103L284,103L288,103L291,103L295,103L298,103L301,103L304,104L307,105L310,106L313,107L316,108L319,109L322,110L325,111L328,112L331,113L334,114L336,115L339,116L342,117L344,118L347,120L349,121L352,122L354,123L356,124L358,125L361,126L363,127L366,128L368,129L371,131L374,132L377,133L380,134L383,136L385,137L388,138L391,140L394,141L397,143L400,144L404,146L407,147L409,148L413,149L416,151L419,152L422,153L425,154L428,156L431,157L433,158L435,159L438,160L440,161L442,163L444,164L446,165L448,166L451,167L453,168L455,169L456,170L458,171L460,172L462,173L463,174L465,176L467,176L469,178L470,179L472,180L474,181L475,182L477,183L479,185L480,186L482,188L483,189L484,191L485,193L486,194L487,196L487,199L489,201L490,205L491,208L492,211L493,215L494,218L495,222L496,226L497,229L498,233L499,237L500,241L501,245L501,249L502,254L502,258L503,263L503,268L504,273L504,277L505,282L506,286L506,291L507,296L507,300L507,305L508,310L508,314L509,319L509,324L509,327L510,331L510,335L511,339L511,343L511,346L512,350L513,353L513,356L514,360L514,363L514,366L515,370L515,373L516,377L516,380L516,383L517,387L517,390L518,394L519,397L519,400L520,403L521,407L521,410L522,413L523,416L524,419L524,422L525,426L525,428L526,431L526,434L527,437L527,440L528,443L528,445L528,448L529,450L529,453L529,456L529,458L529,461L529,464L529,467L529,470L529,472L529,475L529,477L528,480L527,482L526,484L525,487L524,489L523,492L521,494L521,497L519,499L518,501L516,503L515,505L513,507L511,509L509,511L507,513L504,515L502,517L499,519L497,521L494,522L491,523L487,525L484,527L481,528L477,529L474,531L470,531L467,532L464,533L460,534L456,535L453,535L449,535L444,536L440,537L436,537L431,538L426,538L421,539L416,539L411,540L406,540L400,540L395,540L389,540L382,540L375,540L368,540L362,540L355,540L348,540L341,539L335,538L329,537L323,535L317,534L311,533L306,531L300,529L294,528L288,526L283,525L277,523L271,522L265,521L260,519L256,518L251,516L245,515L242,514L237,513L234,511L230,511L227,509L224,509L221,507L217,506L215,506L212,505L208,504L206,504L203,503L201,502L198,501L196,500L193,500L191,499L188,498L186,497L183,497L181,496L178,495L177,494L175,493L173,492L170,492L168,491L166,490L163,489L161,488L158,487L156,486L153,485L151,484L148,482L146,482L143,480L141,480L138,479L136,477L133,477L130,475L128,474L126,473L124,472L122,471L120,470L118,469L116,467L114,466L112,465L110,463L108,462L105,461L103,460L101,458L99,456L98,455L96,453L93,451L92,449L90,447L87,445L85,442L83,439L81,437L80,434L78,431L77,428L76,426L74,423L74,420L73,418L73,415L73,412L73,409L73,407L73,405L73,402L73,399L74,396L76,393L78,390L80,387L83,384L86,381L89,378L93,375L97,372L101,369L106,366L111,363L117,360L122,357L127,355L132,353L138,350L144,348L150,347L156,345L162,343L168,342L174,340L180,339L187,338L194,336L200,335L208,333L216,331L225,330L233,328L242,326L251,324L261,322L271,319L280,316L290,314L299,311L309,309L318,307L327,305L336,303L345,302L353,300L361,299L369,297L378,296L385,294L392,292L400,291L406,290L413,288L420,287L427,285L434,283L441,282L448,280L454,279L460,277L465,276L470,275L476,275L481,274L486,273L490,272L495,271L499,270L504,269L508,268L513,267L517,266L521,266L526,264L530,263L533,262L537,261L541,260L544,259L547,258L550,257L553,256L556,256L559,255L562,254L564,254L567,253L570,252L572,251L575,251L578,250L582,250L584,249L588,248L591,247L594,246L596,246L599,245L602,244L605,244L609,244L611,243L614,242L617,241L620,241L623,241L626,240L629,239L633,239L636,239L639,238L642,238L645,238L647,238L650,238L652,238L655,238L657,238L660,238L662,238L664,239L667,239L668,240L670,242L672,244L673,245L674,247L676,249L678,251L679,253L681,255L682,257L684,260L685,263L686,265L686,268L687,270L688,273L689,276L689,279L689,283L689,285L689,289L689,292L689,296L689,300L689,304L688,308L686,312L685,317L684,322L682,326L680,332L678,337L677,342L674,348L672,354L670,360L668,366L666,372L664,377L662,382L660,388L658,393L656,399L654,404L652,409L650,413L649,417L647,422L645,427L644,432L642,437L639,442L637,448L634,453L631,458L629,463L626,468L624,473L621,478L619,483L618,487L615,492L613,497L611,502L609,507L607,512L604,517L602,523L599,528L596,533L594,538L591,544L589,549L586,555L583,560L581,565L579,569L577,573L575,578L573,582L571,587L569,591L567,596L564,600L562,605L560,608L558,613L555,617L553,621L551,625L548,630L546,633L544,637L542,640L541,643L538,646L536,648L534,651L532,654L530,656L528,658L526,659L525,661L523,662L521,664L519,665L517,666L515,667L513,668L511,668L509,669L507,669L504,669L502,669L499,669L497,669L494,669L492,669L490,669L488,669L485,667L483,665L480,662L477,659L475,657L472,654L469,651L467,647L464,643L463,639L460,635L458,630L456,625L453,619L451,614L448,608L446,601L444,595L442,589L440,582L438,574L436,567L434,560L432,552L430,545L428,537L425,530L423,521L420,514L418,507L415,500L413,492L411,486L409,479L406,471L404,464L402,458L400,450L398,443L396,437L394,431L392,426L390,419L389,413L387,407L386,400L384,392L383,385L381,379L380,373L378,367L377,361L376,355L375,349L373,343L373,336L371,331L370,326L369,320L368,315L367,309L367,305L366,301L366,297L365,292L365,288L365,284L365,280L365,276L365,273L365,269L366,265L367,261L369,257L375,251L378,247L382,244L386,241L391,239L396,237L401,236L405,235L411,234L417,234L422,234L428,234L439,234L445,235L450,236L456,238L461,240L466,242L472,245L479,247L484,250L490,252L497,256L503,258L509,261L514,264L521,267L526,270L533,273L538,275L543,278L549,280L554,283L559,285L564,287L568,290L573,292L578,294L582,296L586,297L590,299L594,301L597,302L600,304L607,307L611,308L614,310L617,312L620,314L623,315L626,317L630,319L633,321L637,322L640,324L643,325L646,326L648,328L651,329L654,331L657,332L660,334L663,335L668,338L671,339L673,341L676,343L678,344L680,346L683,347L685,348L688,350L690,351L692,353L694,354L696,356L698,357L699,358L701,360L703,362L705,364L707,366L709,368L711,370L713,373L715,375L716,378L718,381L719,384L720,388L720,392L721,396L721,401L722,405L722,414L721,419L719,424L716,430L713,436L709,441L705,447L700,453L696,459L690,465L683,472L677,478L672,484L664,490L658,496L652,501L647,506L641,510L626,520L618,525L610,530L601,535L594,540L585,545L575,550L566,555L557,560L547,565L529,576L519,582L508,587L497,593L487,599L477,604L467,609L458,613L448,618L439,622L429,627L420,632L411,637L402,641L392,645L383,650L374,655L356,665L347,669L339,674L331,679L322,684L313,689L306,692L297,697L288,701L281,705L273,708L266,712L260,714L255,716L251,718L247,719L243,720L239,720L232,721L229,721L226,721L223,721L220,721L216,721L213,721L207,720L205,718L202,716L200,715L198,713L195,710L193,708L191,705L189,701L187,698L185,694L183,690L180,686L178,681L176,677L172,668L169,663L167,659L164,654L162,648L159,643L156,638L154,633L151,627L149,621L146,616L144,611L141,606L139,600L136,594L134,589L129,577L127,572L125,566L124,561L122,555L121,550L119,544L118,539L116,535L115,530L113,524L112,519L109,511L108,507L107,499L107,496L107,492L107,489L107,485L107,482L107,480L108,477L110,474L112,471L114,469L117,467L125,463L129,462L134,460L139,460L144,460L150,460L157,460L162,460L169,460L176,461L183,463L191,465L199,467L208,470L227,475L238,479L248,482L258,486L269,490L280,494L291,498L303,503L314,507L326,512L337,516L361,525L373,529L383,533L394,537L404,542L414,546L424,550L434,555L453,562L460,566L468,569L477,573L484,577L497,584L504,587L509,590L514,593L519,596L524,600L528,603L532,607L537,614L539,618L541,622L542,627L542,632L543,636L543,642L543,647L543,653L543,659L543,665L543,669L541,682L538,688L536,694L533,701L530,708L527,714L524,719L521,725L519,730L516,735L512,744L509,748L507,753L504,757L501,760L498,763L495,765L492,767L486,769L483,769L480,770L477,770L473,770L470,770L466,770L463,769L458,766L454,764L451,761L447,759L443,755L440,752L434,745L431,741L428,737L424,731L421,727L418,721L415,716L409,703L407,696L403,690L400,683L396,676L392,668L389,661L382,645L379,638L375,628L371,618L368,611L363,601L360,591L357,584L350,565L346,557L342,546L339,537L336,529L332,518L329,510L322,491L319,483L315,472L312,462L308,453L305,444L301,435L298,428L295,419L289,403L286,396L283,387L280,380L277,374L275,367L271,355L270,350L269,345L268,340L268,335L268,331L268,328L273,322L277,319L280,316L285,314L289,312L299,310L305,309L311,307L319,306L327,305L333,303L342,302L350,300L364,298L371,297L379,297L386,295L394,294L402,293L409,291L424,289L430,287L437,287L444,286L451,285L458,284L472,281L479,280L485,279L492,278L499,278L506,277L518,275L525,275L531,274L536,274L541,274L553,274L559,274L564,274L569,274L575,275L580,275L589,278L593,279L596,281L600,283L604,285L607,287L615,292L618,295L624,300L626,303L629,307L631,310L633,313L635,317L636,321L639,329L639,333L640,338L640,343L640,348L640,353L640,365L639,371L638,377L636,384L634,390L632,396L627,409L624,415L622,422L620,427L617,434L610,448L607,454L604,459L601,465L596,475L594,480L592,485L589,490L587,495L581,505L578,510L575,516L571,522L568,528L560,540L556,547L553,553L548,560L544,567L536,580L532,586L528,592L524,599L519,606L514,613L505,627L500,633L492,644L488,649L485,654L482,659L478,663L475,668L472,672L465,680L463,684L461,687L458,690L456,693L452,699L450,701L448,704L446,706L444,709L440,713L438,715L437,717L436,719L434,720L431,724L430,725L428,727L427,729L424,732L423,733L421,735L420,736L419,737L416,740L415,741L414,742L412,744L411,745L408,747L407,748L405,749L403,750L401,750L397,752L395,752L392,752L390,752L387,752L382,752L379,752L376,752L369,750L365,748L362,747L358,745L355,742L348,737L344,733L340,730L337,725L333,720L327,711L323,707L318,702L314,696L306,686L302,680L298,674L294,667L289,661L280,644L276,637L270,628L266,619L260,610L251,591L246,582L242,574L237,565L229,550L226,542L222,535L218,527L210,512L207,505L203,498L200,491L198,485L192,474L188,468L186,462L184,458L179,448L177,443L176,438L174,433L172,429L169,421L168,417L166,413L164,406L162,402L159,395L157,391L155,387L154,384L150,377L149,373L146,368L144,364L139,355L137,352L134,347L131,343L127,336L125,331L123,328L121,324L119,320L115,313L113,309L111,306L109,302L105,297L103,293L102,290L101,287L97,280L96,277L94,274L93,271L91,268L89,260L88,256L86,252L86,244L86,239L86,232L86,228L86,219L86,215L87,210L88,207L92,200L94,198L97,195L99,192L103,188L113,180L119,175L134,165L142,159L150,153L164,144L171,139L178,135L185,131L199,122L206,118L212,115L219,111L225,107L237,99L243,95L248,93L254,90L265,83L270,80L274,77L283,72L287,70L290,68L294,66L298,64L305,61L308,60L311,59L314,57L322,54L325,53L328,52L334,50L336,50L339,49L341,49L345,49L348,49L350,50L352,52L357,56L359,59L361,63L363,66L366,75L368,80L369,86L372,95L373,101L374,107L375,113L378,133L379,140L380,147L381,154L383,162L384,178L385,188L385,205L386,214L387,222L387,231L387,247L387,256L387,265L387,272L387,288L385,296L383,304L378,318L376,324L373,329L366,341L362,346L357,351L348,358L343,360L338,362L327,364L321,364L314,365L300,365L291,365L284,365L267,363L259,362L251,360L242,358L226,353L217,351L210,348L203,346L188,340L180,337L173,334L166,331L152,325L146,322L139,319L125,312L111,306L105,303L100,300L94,297L82,290L78,287L69,282L65,279L62,276L59,274L52,268L50,264L48,261L46,256L44,248L43,243L43,236L43,223L43,217L43,203L43,196L44,189L44,182L46,170L47,163L47,156L49,144L50,137L51,130L54,118L56,112L58,105L64,93L67,86L70,80L79,69L83,65L88,61L100,53L105,51L111,49L122,48L135,48L140,48L146,50L152,52L162,57L168,59L178,65L185,68L191,71L196,74L209,81L215,85L220,88L230,95L235,98L240,102L248,108L251,111L254,114L259,120L261,124L262,127L264,134L264,137L264,140L264,147L263,150L260,154L253,160L248,163L244,166L232,170L227,172L221,174L209,177L203,179L195,182L180,186L172,189L164,191L150,196L142,198L135,200L128,201L115,203L107,204L100,205L77,207L70,207L63,208L51,209L45,209L40,210L30,210L26,210L21,210L13,210L11,210L8,210L6,211L5,212L4,212L3,212L2,212L2,213" stroke-opacity="1" stroke-width="5" stroke-linecap="round" stroke-linejoin="round" style="-webkit-tap-highlight-color: rgba(0, 0, 0, 0); stroke-opacity: 1; stroke-linecap: round; stroke-linejoin: round; -webkit-user-select: text;"></path></svg>