<svg height="868" version="1.1" width="768" xmlns="http://www.w3.org/2000/svg" xmlns:xlink="http://www.w3.org/1999/xlink" style="overflow: hidden; position: relative; -webkit-user-select: text;"><desc style="-webkit-tap-highlight-color: rgba(0, 0, 0, 0); -webkit-user-select: text;">Created with Raphaël 2.2.0</desc><defs style="-webkit-tap-highlight-color: rgba(0, 0, 0, 0); -webkit-user-select: text;"></defs><path fill="none" stroke="#000000" d="M323,433L328,431L330,429L332,427L335,425L338,422L342,419L347,415L351,411L356,407L361,404L366,399L371,395L377,391L382,386L387,382L393,375" stroke-opacity="1" stroke-width="5" stroke-linecap="round" stroke-linejoin="round" style="-webkit-tap-highlight-color: rgba(0, 0, 0, 0); stroke-opacity: 1; stroke-linecap: round; stroke-linejoin: round; -webkit-user-select: text;"></path><path fill="none" stroke="#000000" d="M415,366L419,365L421,363L423,361L426,360L429,358L432,356L436,353L439,352L442,350L446,348L449,347L452,346L455,344L458,343L460,343L463,343L465,343L467,343L470,343L472,343L474,343L476,343L478,343L480,344L481,346L483,347L484,348L485,350L487,352L487,354L489,356L490,358L490,361L491,363L491,366L492,369L492,372L492,374L493,377L493,380L493,383L493,386L493,389L493,392L493,394L493,397L493,399L493,402L493,404L493,407L493,410L492,412L492,415L491,417L491,419L490,422L490,424L489,426L489,429L488,431L487,435L486,438L485,442L483,448L481,453L479,459" stroke-opacity="1" stroke-width="5" stroke-linecap="round" stroke-linejoin="round" style="-webkit-tap-highlight-color: rgba(0, 0, 0, 0); stroke-opacity: 1; stroke-linecap: round; stroke-linejoin: round; -webkit-user-select: text;"></path><path fill="none" stroke="#000000" d="M466,497L464,502L464,504L463,506L462,509L461,511L460,515L459,517L458,520L457,523L456,526L455,529L454,532L453,535L452,539L451,543L449,547L448,550L447,553L445,556L443,559L442,562L440,566L439,569L437,573L436,577L434,580L432,584L431,587L429,591L426,594L425,597" stroke-opacity="1" stroke-width="5" stroke-linecap="round" stroke-linejoin="round" style="-webkit-tap-highlight-color: rgba(0, 0, 0, 0); stroke-opacity: 1; stroke-linecap: round; stroke-linejoin: round; -webkit-user-select: text;"></path><path fill="none" stroke="#000000" d="M411,615L409,620L408,623L406,626L404,629L402,632L400,635L398,637L396,640L394,642L392,645L390,648L388,650L386,653L384,655L382,657L380,659L377,661L375,662L373,664L370,665L368,666L366,666L364,667L361,667L359,667L357,667L355,667L352,667L350,667L348,667L346,666L344,665L341,664L339,662L337,661L335,659L333,657L331,655L329,654L327,652L324,650L323,648L321,647L319,645L317,642L314,640L312,637L310,635L308,632L307,630L305,627L302,625L300,623L298,620L296,617L294,614L291,611L289,608L286,605L283,602L280,599L278,595L275,589" stroke-opacity="1" stroke-width="5" stroke-linecap="round" stroke-linejoin="round" style="-webkit-tap-highlight-color: rgba(0, 0, 0, 0); stroke-opacity: 1; stroke-linecap: round; stroke-linejoin: round; -webkit-user-select: text;"></path><path fill="none" stroke="#000000" d="M263,571L259,569L257,567L255,564L252,561L249,558L246,555L243,552L240,548L236,544L233,540L230,535L227,531L224,527L222,522L219,516L216,511L213,505L210,500L207,495L204,491L201,486L198,482L194,477L191,472L188,468L185,464L183,460L180,457L179,454L179,447" stroke-opacity="1" stroke-width="5" stroke-linecap="round" stroke-linejoin="round" style="-webkit-tap-highlight-color: rgba(0, 0, 0, 0); stroke-opacity: 1; stroke-linecap: round; stroke-linejoin: round; -webkit-user-select: text;"></path><path fill="none" stroke="#000000" d="M178,425L176,424L176,421L175,419L173,416L170,413L168,409L166,406L163,403L161,399L160,396L159,392L158,388L157,384L156,380L156,376L155,373L155,368L155,364L155,360L155,356L155,353L156,350L157,347L159,344L161,341L164,338L166,335L169,332L172,330L176,328L179,326L183,324L187,324L191,323L194,323L198,323L202,323L206,323L210,323L215,323L219,324L223,325L227,326L230,328L234,329L238,331L242,333L246,334L249,336L253,338L256,340L261,342L265,345L270,347L276,350L281,352L288,355L296,357" stroke-opacity="1" stroke-width="5" stroke-linecap="round" stroke-linejoin="round" style="-webkit-tap-highlight-color: rgba(0, 0, 0, 0); stroke-opacity: 1; stroke-linecap: round; stroke-linejoin: round; -webkit-user-select: text;"></path><path fill="none" stroke="#000000" d="M327,368L329,370L331,370L334,370L337,372L341,373L344,375L348,377L351,379L355,382L359,384L363,386L366,388L370,390L374,392L379,394L383,397L388,400L394,403L400,407" stroke-opacity="1" stroke-width="5" stroke-linecap="round" stroke-linejoin="round" style="-webkit-tap-highlight-color: rgba(0, 0, 0, 0); stroke-opacity: 1; stroke-linecap: round; stroke-linejoin: round; -webkit-user-select: text;"></path><path fill="none" stroke="#000000" d="M426,422L429,421L431,421L434,422L436,424L439,425L443,427L446,428L448,430L452,431L455,433L458,435L461,436L465,438L468,440L471,442L475,443L478,445L482,447L486,449L490,452L494,453L498,455L502,458L505,460L508,462L511,465L513,468L515,472L518,475L519,479L521,482L522,486L524,489L525,492L526,496L526,499L526,503L527,507L527,511L527,515L527,519L527,523L526,527L525,531L524,535L523,538L521,543L520,547L519,551L517,555L516,559L514,562L513,567L511,571L509,577L507,583L504,589L501,596" stroke-opacity="1" stroke-width="5" stroke-linecap="round" stroke-linejoin="round" style="-webkit-tap-highlight-color: rgba(0, 0, 0, 0); stroke-opacity: 1; stroke-linecap: round; stroke-linejoin: round; -webkit-user-select: text;"></path><path fill="none" stroke="#000000" d="M487,623L484,628L483,631L481,635L477,640L474,645L470,651L466,656L463,661L460,666L457,670L454,674L452,678L449,682L446,686L443,690L441,693L438,697L436,701L434,705L432,708L429,711L427,714L425,716L423,718L421,720L420,721L418,724" stroke-opacity="1" stroke-width="5" stroke-linecap="round" stroke-linejoin="round" style="-webkit-tap-highlight-color: rgba(0, 0, 0, 0); stroke-opacity: 1; stroke-linecap: round; stroke-linejoin: round; -webkit-user-select: text;"></path><path fill="none" stroke="#000000" d="M404,737L400,744L398,745L397,747L395,748L394,749L392,750L390,752L388,752L387,754L385,754L383,755L380,756L378,757L375,757L372,758L369,758L366,759L363,759L360,759L356,759L353,759L350,759L347,758L344,757L341,756L338,754L335,753L332,751L329,749L327,747L323,745L320,743L317,741L313,740L310,737L307,736L304,734L300,732L297,730L293,727L290,725L286,722L283,720L279,718L276,716L272,713L268,711L264,708L261,706L257,703L253,696" stroke-opacity="1" stroke-width="5" stroke-linecap="round" stroke-linejoin="round" style="-webkit-tap-highlight-color: rgba(0, 0, 0, 0); stroke-opacity: 1; stroke-linecap: round; stroke-linejoin: round; -webkit-user-select: text;"></path><path fill="none" stroke="#000000" d="M238,663L233,663L231,662L229,660L227,658L224,655L221,652L217,650L214,647L210,644L208,642L204,639L200,635L197,633L193,630L190,626L186,624L183,621L180,618L176,615L173,612L169,609L166,606L162,603L158,600L154,597L151,594L147,591L142,587L138,584L134,582L130,578L128,574" stroke-opacity="1" stroke-width="5" stroke-linecap="round" stroke-linejoin="round" style="-webkit-tap-highlight-color: rgba(0, 0, 0, 0); stroke-opacity: 1; stroke-linecap: round; stroke-linejoin: round; -webkit-user-select: text;"></path><path fill="none" stroke="#000000" d="M125,553L119,551L117,548L115,545L113,543L110,540L109,538L108,535L106,533L105,531L104,528L103,525L101,521L101,518L100,515L100,512L100,509L100,506L100,504L100,501L100,498L100,495L100,492L102,490L103,487L105,484L107,482L110,479L113,475L115,472L118,470L122,467L125,465L128,462L132,460L135,458L139,456L143,454L147,452L152,450L157,448L161,445L166,443L169,441L174,439L178,437L183,435L187,433L192,431L197,429L202,428L208,426L212,425L218,423L223,421L228,420L233,419L239,417L244,415L250,414L257,412L264,411L271,409" stroke-opacity="1" stroke-width="5" stroke-linecap="round" stroke-linejoin="round" style="-webkit-tap-highlight-color: rgba(0, 0, 0, 0); stroke-opacity: 1; stroke-linecap: round; stroke-linejoin: round; -webkit-user-select: text;"></path><path fill="none" stroke="#000000" d="M299,403L303,400L305,400L307,399L310,398L314,397L318,395L322,393L327,392L331,390L335,388L339,387L344,386L349,385L353,383L358,382L362,381L368,380L373,379L378,377L383,376L389,375L394,373L400,372L406,370L412,368L418,367L424,365L430,363L436,362L442,360L448,359L454,357L460,356" stroke-opacity="1" stroke-width="5" stroke-linecap="round" stroke-linejoin="round" style="-webkit-tap-highlight-color: rgba(0, 0, 0, 0); stroke-opacity: 1; stroke-linecap: round; stroke-linejoin: round; -webkit-user-select: text;"></path><path fill="none" stroke="#000000" d="M490,350L493,348L495,348L498,347L502,346L505,345L509,343L513,342L516,340L521,339L525,338L529,337L533,336L536,336L540,335L543,335L547,335L551,335L555,335L559,335L562,335L565,335L568,335L571,335L573,336L576,337L577,339L579,341L580,343L581,345L582,348L582,350L582,353L582,356L582,359L582,362L582,365L581,369L579,373L578,376L576,380L574,384L572,389L570,393L567,397L565,402L561,408L558,414L554,419L550,424L548,429L545,433L542,438L539,443L536,448L533,453L529,460L525,467L520,475" stroke-opacity="1" stroke-width="5" stroke-linecap="round" stroke-linejoin="round" style="-webkit-tap-highlight-color: rgba(0, 0, 0, 0); stroke-opacity: 1; stroke-linecap: round; stroke-linejoin: round; -webkit-user-select: text;"></path><path fill="none" stroke="#000000" d="M508,497L502,504L500,507L498,510L494,514L492,518L488,523L485,528L482,533L477,538L475,543L471,548L468,553L465,557L463,562L460,566L458,570L455,574L452,578L449,582L446,586L443,590L440,594L437,599L434,603L431,607L427,611L424,616L421,620L417,625" stroke-opacity="1" stroke-width="5" stroke-linecap="round" stroke-linejoin="round" style="-webkit-tap-highlight-color: rgba(0, 0, 0, 0); stroke-opacity: 1; stroke-linecap: round; stroke-linejoin: round; -webkit-user-select: text;"></path><path fill="none" stroke="#000000" d="M401,645L400,647L399,649L397,651L396,653L393,656L391,658L389,660L387,663L385,666L383,668L380,671L378,674L375,677L373,680L370,682L368,684L365,686L363,687L360,688L358,690L355,691L352,692L350,693L347,693L344,693L342,694L339,694L336,694L334,694L331,694L329,694L327,694L324,694L321,694L319,694L316,693L313,693L310,691L308,690L305,689L303,688L301,686L298,685L296,684L294,681L291,679L289,676L286,674L284,671L282,668L280,666L278,663L276,660L273,657L271,654L268,651L266,648L263,645L261,642L258,638L256,635L254,632L251,627" stroke-opacity="1" stroke-width="5" stroke-linecap="round" stroke-linejoin="round" style="-webkit-tap-highlight-color: rgba(0, 0, 0, 0); stroke-opacity: 1; stroke-linecap: round; stroke-linejoin: round; -webkit-user-select: text;"></path><path fill="none" stroke="#000000" d="M235,605L230,603L229,601L228,599L226,595L224,591L221,588L219,585L215,580L212,577L209,572L206,569L204,565L201,562L199,559L196,556L194,552L192,549L189,546L187,543L185,540L183,538L181,535L179,532L177,530L176,527L174,524L172,522L171,520L169,518L169,516L169,514" stroke-opacity="1" stroke-width="5" stroke-linecap="round" stroke-linejoin="round" style="-webkit-tap-highlight-color: rgba(0, 0, 0, 0); stroke-opacity: 1; stroke-linecap: round; stroke-linejoin: round; -webkit-user-select: text;"></path><path fill="none" stroke="#000000" d="M166,508L164,501L164,499L162,497L160,494L158,492L156,489L154,487L152,485L149,483L147,481L144,479L142,477L140,475L137,472L135,470L133,467L131,465L130,463L128,461L127,459L126,457L125,454L124,451L124,448L124,445L124,443L124,440L124,438L124,436L125,433L127,431L129,429L131,428L134,426L137,424L139,422L143,420L146,418L149,416L153,414L156,412L160,411L163,409L167,408L171,407L174,405L178,404L182,403L186,401L190,400L194,399L198,397L203,395L208,393L213,392L218,390L222,388L227,387L232,385L238,383L243,381L249,379L255,377L262,375L270,374L278,373" stroke-opacity="1" stroke-width="5" stroke-linecap="round" stroke-linejoin="round" style="-webkit-tap-highlight-color: rgba(0, 0, 0, 0); stroke-opacity: 1; stroke-linecap: round; stroke-linejoin: round; -webkit-user-select: text;"></path><path fill="none" stroke="#000000" d="M304,367L308,367L310,367L314,366L317,365L321,364L325,362L329,361L334,359L338,358L342,356L347,355L352,353L356,352L361,351L366,349L371,348L375,346L380,345L385,344L390,342L395,341L401,339L407,337L414,336" stroke-opacity="1" stroke-width="5" stroke-linecap="round" stroke-linejoin="round" style="-webkit-tap-highlight-color: rgba(0, 0, 0, 0); stroke-opacity: 1; stroke-linecap: round; stroke-linejoin: round; -webkit-user-select: text;"></path><path fill="none" stroke="#000000" d="M434,333L436,331L437,331L438,331L439,331L441,330L443,329L445,327L447,326L449,326L451,326L453,326L454,325L456,325L457,325L458,325L459,325L460,325L462,326L463,326L464,328L465,330L467,332L468,334L469,336L470,338L471,341L472,343L472,346L473,349L474,352L474,355L475,358L475,362L475,365L476,369L476,373L477,377L477,381L478,385L479,390L480,395L481,400L481,405L482,410L482,415L482,420L483,424L484,429L484,434L485,440L485,445L486,450L486,455L486,460L486,465L486,470L486,475L486,480L486,487L486,493L487,498" stroke-opacity="1" stroke-width="5" stroke-linecap="round" stroke-linejoin="round" style="-webkit-tap-highlight-color: rgba(0, 0, 0, 0); stroke-opacity: 1; stroke-linecap: round; stroke-linejoin: round; -webkit-user-select: text;"></path><path fill="none" stroke="#000000" d="M488,524L488,531L488,533L488,535L488,538L488,540L488,543L488,546L488,549L488,552L488,554L488,557L488,560L488,563L489,566L489,569L489,572L489,574L490,578L490,580L490,583L490,585L491,588L491,590L491,592L491,594L492,596L492,598L492,600L492,602L493,604L494,608" stroke-opacity="1" stroke-width="5" stroke-linecap="round" stroke-linejoin="round" style="-webkit-tap-highlight-color: rgba(0, 0, 0, 0); stroke-opacity: 1; stroke-linecap: round; stroke-linejoin: round; -webkit-user-select: text;"></path><path fill="none" stroke="#000000" d="M496,628L495,634L495,635L495,637L495,640L495,642L495,645L495,647L495,650L495,652L495,655L495,657L495,659L495,662L495,665L495,668L495,671L495,674L494,677L492,680L491,682L490,684L489,686L487,688L486,689L485,691L483,692L482,693L480,693L478,694L477,694L475,695L472,696L469,696L467,697L464,698L461,698L459,699L457,699L454,700L451,700L449,700L446,700L443,700L441,700L438,700L435,699L433,698L430,696L427,694L423,692L420,689L416,687L413,685L409,683L406,681L401,678L397,675L392,672" stroke-opacity="1" stroke-width="5" stroke-linecap="round" stroke-linejoin="round" style="-webkit-tap-highlight-color: rgba(0, 0, 0, 0); stroke-opacity: 1; stroke-linecap: round; stroke-linejoin: round; -webkit-user-select: text;"></path><path fill="none" stroke="#000000" d="M376,655L370,656L367,654L363,651L359,648L356,646L351,643L347,641L343,638L338,635L333,633L328,630L322,626L317,622L312,618L307,615L301,611L296,608L290,605L285,602L281,599L276,596L271,592L265,589L260,586L256,584L253,582" stroke-opacity="1" stroke-width="5" stroke-linecap="round" stroke-linejoin="round" style="-webkit-tap-highlight-color: rgba(0, 0, 0, 0); stroke-opacity: 1; stroke-linecap: round; stroke-linejoin: round; -webkit-user-select: text;"></path><path fill="none" stroke="#000000" d="M243,572L240,571L237,571L234,569L230,567L227,566L223,565L220,564L218,562L216,562L213,560L211,559L208,558L205,556L203,555L200,553L197,552L194,551L191,550L188,548L186,547L183,545L180,543L178,541L176,539L174,537L171,535L169,534L168,532L166,531L164,529L163,527L161,525L160,522L159,520L158,518L157,516L157,513L156,511L156,509L156,507L156,505L156,503L156,501L156,498L157,495L158,492L160,489L162,486L164,483L166,481L169,478L171,476L174,473L176,471L179,468L183,466L186,463L190,460L194,458L198,455L203,451L209,447L216,442L223,438" stroke-opacity="1" stroke-width="5" stroke-linecap="round" stroke-linejoin="round" style="-webkit-tap-highlight-color: rgba(0, 0, 0, 0); stroke-opacity: 1; stroke-linecap: round; stroke-linejoin: round; -webkit-user-select: text;"></path><path fill="none" stroke="#000000" d="M251,421L246,425L249,424L252,422L256,419L260,415L264,411L269,407L274,404L278,399L283,396L287,392L293,387L297,384L301,380L305,377L310,373L314,370L318,367L322,364L327,360L331,357L336,353L342,349L349,344L356,339L363,334" stroke-opacity="1" stroke-width="5" stroke-linecap="round" stroke-linejoin="round" style="-webkit-tap-highlight-color: rgba(0, 0, 0, 0); stroke-opacity: 1; stroke-linecap: round; stroke-linejoin: round; -webkit-user-select: text;"></path><path fill="none" stroke="#000000" d="M381,321L384,317L385,315L388,313L390,311L393,308L396,306L399,304L401,302L404,300L406,298L408,297L411,295L413,293L415,291L417,289L420,287L422,285L424,284L426,283L429,281L431,280L433,278L435,278L437,276L438,275L441,275L443,274L445,273L448,273L450,273L452,272L454,272L455,272L457,272L459,272L461,272L463,272L464,272L465,272L467,273L469,273L470,275L472,276L473,278L475,279L476,280L478,283L480,284L481,285L482,287L483,289L485,291L486,293L487,295L489,297L490,298L491,300L493,302L494,304L495,306L497,309L499,311L501,314L503,317L505,320L508,325L509,330L513,336" stroke-opacity="1" stroke-width="5" stroke-linecap="round" stroke-linejoin="round" style="-webkit-tap-highlight-color: rgba(0, 0, 0, 0); stroke-opacity: 1; stroke-linecap: round; stroke-linejoin: round; -webkit-user-select: text;"></path><path fill="none" stroke="#000000" d="M531,358L533,360L533,362L534,365L536,367L537,369L538,372L540,375L541,377L542,381L544,384L545,387L547,391L549,394L551,397L553,400L555,403L557,407L559,410L560,413L562,416L564,420L565,423L567,426L568,429L570,432L571,436L573,440L574,443L576,447L577,450L579,453L580,457L582,461" stroke-opacity="1" stroke-width="5" stroke-linecap="round" stroke-linejoin="round" style="-webkit-tap-highlight-color: rgba(0, 0, 0, 0); stroke-opacity: 1; stroke-linecap: round; stroke-linejoin: round; -webkit-user-select: text;"></path><path fill="none" stroke="#000000" d="M594,485L594,488L594,490L594,492L594,494L595,496L596,499L596,501L597,503L599,505L599,507L601,509L601,511L603,514L604,516L604,518L605,521L606,523L607,525L607,527L608,529L609,531L610,533L611,535L611,538L612,540L613,542L613,544L614,547L614,549L615,551L615,553L616,556L616,558L616,561L616,564L616,567L616,569L616,572L616,575L616,578L615,581L614,584L613,586L611,589L610,593L608,596L606,599L605,601L603,604L601,606L599,608L596,610L595,611L593,613L591,615L589,616L586,617L584,618L581,620L577,621L575,623L571,624L568,625L565,626L561,628L556,628L550,630" stroke-opacity="1" stroke-width="5" stroke-linecap="round" stroke-linejoin="round" style="-webkit-tap-highlight-color: rgba(0, 0, 0, 0); stroke-opacity: 1; stroke-linecap: round; stroke-linejoin: round; -webkit-user-select: text;"></path><path fill="none" stroke="#000000" d="M524,639L519,637L516,637L514,637L512,637L509,637L506,638L503,638L499,639L496,639L493,639L489,639L486,639L482,639L478,639L475,639L471,639L467,639L464,639L460,639L456,639L453,639L449,639L445,639L441,639L438,639L434,639L430,639L426,639L422,639L419,639L415,639L412,639L408,639L404,639L400,639L396,639L392,639L388,638L384,637L379,637" stroke-opacity="1" stroke-width="5" stroke-linecap="round" stroke-linejoin="round" style="-webkit-tap-highlight-color: rgba(0, 0, 0, 0); stroke-opacity: 1; stroke-linecap: round; stroke-linejoin: round; -webkit-user-select: text;"></path><path fill="none" stroke="#000000" d="M347,632L344,634L343,634L341,634L339,634L337,634L335,634L333,634L331,634L329,634L326,634L324,634L321,634L318,634L315,634L312,633L310,633L307,632L304,631L301,630L298,630L294,629L291,628L288,628L285,627L282,627L278,626L276,626L272,625L269,625L266,625L262,624L259,624L256,623L253,623L250,623L247,622L244,621L241,620L238,619L235,618L232,617L230,615L228,613L226,612L223,610L221,608L220,606L217,604L216,602L214,600L213,598L212,596L210,594L210,592L208,591L208,589L207,587L206,585L205,583L205,580L205,577L204,574L204,572L204,569L204,567L204,565L204,562L204,560L204,557L204,555L204,552L204,550L204,547L204,543L204,538" stroke-opacity="1" stroke-width="5" stroke-linecap="round" stroke-linejoin="round" style="-webkit-tap-highlight-color: rgba(0, 0, 0, 0); stroke-opacity: 1; stroke-linecap: round; stroke-linejoin: round; -webkit-user-select: text;"></path><path fill="none" stroke="#000000" d="M211,517L210,514L210,512L210,509L210,507L210,504L210,501L210,499L209,496L209,493L208,489L208,486L208,482L208,479L208,475L207,471L207,468L206,464L206,460L205,457L205,453L204,449L204,445L203,441L203,437L202,433L202,430L201,426L201,422L200,419L200,416L200,413L200,410L200,407L200,403L201,393" stroke-opacity="1" stroke-width="5" stroke-linecap="round" stroke-linejoin="round" style="-webkit-tap-highlight-color: rgba(0, 0, 0, 0); stroke-opacity: 1; stroke-linecap: round; stroke-linejoin: round; -webkit-user-select: text;"></path><path fill="none" stroke="#000000" d="M208,363L205,361L205,359L205,357L205,355L204,353L204,350L204,348L203,345L203,342L203,339L203,335L203,331L202,328L201,324L200,320L200,317L199,313L199,309L198,306L198,302L198,299L198,296L197,293L197,291L197,288L197,285L197,283L197,280L197,277L197,273L198,270L198,267L199,264L200,261L202,258L204,255L206,252L209,249L212,246L214,244L217,241L220,239L222,238L224,237L226,236L228,235L231,235L234,234L236,234L239,234L242,234L245,234L248,234L251,235L255,236L259,237L262,239L266,240L269,242L273,243L276,245L279,247L282,249L285,251L290,253L294,256L298,259L304,264L309,268L317,274" stroke-opacity="1" stroke-width="5" stroke-linecap="round" stroke-linejoin="round" style="-webkit-tap-highlight-color: rgba(0, 0, 0, 0); stroke-opacity: 1; stroke-linecap: round; stroke-linejoin: round; -webkit-user-select: text;"></path><path fill="none" stroke="#000000" d="M341,289L344,289L345,289L347,290L349,292L352,293L355,295L358,297L361,298L364,301L368,304L373,307L376,309L380,312L384,315L388,319L393,322L397,325L402,329L407,332L411,336L416,340L421,343L426,347L433,351L439,356L446,363L454,368" stroke-opacity="1" stroke-width="5" stroke-linecap="round" stroke-linejoin="round" style="-webkit-tap-highlight-color: rgba(0, 0, 0, 0); stroke-opacity: 1; stroke-linecap: round; stroke-linejoin: round; -webkit-user-select: text;"></path><path fill="none" stroke="#000000" d="M485,382L487,384L489,384L491,385L492,387L494,388L497,390L499,392L501,393L503,394L505,396L507,397L510,399L512,401L514,403L516,405L518,407L521,409L523,411L526,413L528,415L531,417L533,419L536,421L538,422L541,424L543,426L546,428L548,431L551,433L554,436L557,438L559,441L562,443L564,445L566,448L568,450L570,453L572,455L574,457L576,459L578,461L579,463L581,465L583,467L584,470L584,472L585,473L585,475L586,477L586,480L586,482L587,484L587,487L587,489L587,492L587,495L587,498L586,501L585,503L584,506L582,509L581,511L580,514L579,516L577,519L576,521L575,524L573,526L572,528L570,530L568,532L566,535L563,539L559,543L554,548" stroke-opacity="1" stroke-width="5" stroke-linecap="round" stroke-linejoin="round" style="-webkit-tap-highlight-color: rgba(0, 0, 0, 0); stroke-opacity: 1; stroke-linecap: round; stroke-linejoin: round; -webkit-user-select: text;"></path><path fill="none" stroke="#000000" d="M531,569L528,573L525,575L522,578L519,580L516,583L511,586L507,589L502,593L497,596L493,600L490,602L486,605L482,608L478,611L474,613L470,615L466,618L462,620L458,623L454,627L450,630L445,632L441,635L437,637L433,640L428,644L423,648" stroke-opacity="1" stroke-width="5" stroke-linecap="round" stroke-linejoin="round" style="-webkit-tap-highlight-color: rgba(0, 0, 0, 0); stroke-opacity: 1; stroke-linecap: round; stroke-linejoin: round; -webkit-user-select: text;"></path><path fill="none" stroke="#000000" d="M404,664L401,667L399,668L397,670L395,672L392,674L390,676L388,677L385,679L383,681L380,683L378,684L375,686L372,688L368,689L365,691L361,694L358,696L355,698L351,700L348,702L344,704L340,706L336,707L333,708L329,710L326,711L322,712L318,713L314,715L311,716L308,717L305,717L302,718L298,719L295,719L291,720L288,720L285,720L281,720L278,720L275,720L271,720L268,719L265,718L261,717L259,715L256,714L254,712L251,710L249,709L246,707L244,706L241,704L239,702L236,700L234,698L231,696L229,694L227,692L225,690L222,688L220,686L217,683L215,681L212,678L209,675L206,672L204,669L201,667L198,665L195,662L193,661L191,658L188,656L185,652L182,648" stroke-opacity="1" stroke-width="5" stroke-linecap="round" stroke-linejoin="round" style="-webkit-tap-highlight-color: rgba(0, 0, 0, 0); stroke-opacity: 1; stroke-linecap: round; stroke-linejoin: round; -webkit-user-select: text;"></path><path fill="none" stroke="#000000" d="M176,623L173,621L171,619L169,617L167,615L165,613L162,611L160,608L157,606L155,604L152,601L150,599L147,596L144,594L142,591L139,589L136,586L133,583L130,580L127,577L125,574L122,570L119,567L116,563L114,560L111,557L109,554L106,551L103,548L101,545L98,543L97,541L96,539" stroke-opacity="1" stroke-width="5" stroke-linecap="round" stroke-linejoin="round" style="-webkit-tap-highlight-color: rgba(0, 0, 0, 0); stroke-opacity: 1; stroke-linecap: round; stroke-linejoin: round; -webkit-user-select: text;"></path><path fill="none" stroke="#000000" d="M91,515L85,512L83,510L81,507L79,505L77,502L75,499L74,495L73,491L72,487L71,483L71,480L71,476L71,472L71,469L71,466L73,462L74,460L76,457L78,455L81,451L84,448L87,444L91,440L95,436L100,433L105,430L111,427L117,424L122,421L128,418L135,415L142,412L148,409L154,407L161,404L168,402L175,399L183,396L191,393L199,389L206,386L214,383L222,380L230,377L240,374L249,370" stroke-opacity="1" stroke-width="5" stroke-linecap="round" stroke-linejoin="round" style="-webkit-tap-highlight-color: rgba(0, 0, 0, 0); stroke-opacity: 1; stroke-linecap: round; stroke-linejoin: round; -webkit-user-select: text;"></path><path fill="none" stroke="#000000" d="M267,362L271,360L273,359L277,358L280,356L284,353L289,351L294,349L298,347L303,345L308,342L314,339L319,336L325,334L330,331L335,329L341,326L348,324L353,322L360,319L368,317L376,314L385,311" stroke-opacity="1" stroke-width="5" stroke-linecap="round" stroke-linejoin="round" style="-webkit-tap-highlight-color: rgba(0, 0, 0, 0); stroke-opacity: 1; stroke-linecap: round; stroke-linejoin: round; -webkit-user-select: text;"></path><path fill="none" stroke="#000000" d="M410,300L411,298L413,298L415,298L417,297L420,295L424,293L427,291L430,289L434,287L437,285L440,284L443,283L446,282L448,281L451,281L453,281L455,281L458,281L460,281L462,281L464,281L466,281L468,281L470,283L472,285L474,287L475,289L477,292L478,294L480,297L481,300L483,303L484,307L485,310L487,314L487,317L488,321L489,324L490,328L490,332L491,336L492,341L492,345L493,349L493,354L494,358L494,363L494,367L494,372L494,376L494,380L494,385L494,389L494,394L494,398L494,402L493,407L492,411L492,416L492,420L491,424L491,428L490,433L490,437L490,441L490,446L489,450L489,454L488,459L488,463L487,468L487,473L487,480L487,486L487,493" stroke-opacity="1" stroke-width="5" stroke-linecap="round" stroke-linejoin="round" style="-webkit-tap-highlight-color: rgba(0, 0, 0, 0); stroke-opacity: 1; stroke-linecap: round; stroke-linejoin: round; -webkit-user-select: text;"></path><path fill="none" stroke="#000000" d="M482,499L482,502L482,504L482,505L482,508L481,511L480,514L480,518L479,522L478,526L477,530L476,534L475,538L475,543L474,548L473,552L472,556L472,561L471,565L470,569L469,573L469,577L468,581L467,585L466,589L465,592L465,596L464,599L464,601L463,603L462,606" stroke-opacity="1" stroke-width="5" stroke-linecap="round" stroke-linejoin="round" style="-webkit-tap-highlight-color: rgba(0, 0, 0, 0); stroke-opacity: 1; stroke-linecap: round; stroke-linejoin: round; -webkit-user-select: text;"></path><path fill="none" stroke="#000000" d="M455,608L454,610L454,613L453,615L451,618L449,620L447,623L444,624L442,626L440,627L437,628L434,629L431,630L429,630L426,630L422,631L420,631L417,631L415,631L412,631L410,631L407,630L404,629L401,627L397,625L393,622L390,620L386,618L382,615L378,612L375,609L371,606L368,603L365,600L362,597L359,594L356,590L353,586L351,584L347,580L344,577L341,574L338,571L335,567L332,564L329,561L326,558L323,555L320,552L317,549L315,545L312,542L310,539L308,535L305,531L302,527L299,523L296,519L293,515L289,511L285,505L281,499" stroke-opacity="1" stroke-width="5" stroke-linecap="round" stroke-linejoin="round" style="-webkit-tap-highlight-color: rgba(0, 0, 0, 0); stroke-opacity: 1; stroke-linecap: round; stroke-linejoin: round; -webkit-user-select: text;"></path><path fill="none" stroke="#000000" d="M266,467L263,466L262,464L260,462L258,460L256,457L253,455L251,452L248,448L245,445L242,441L239,437L236,433L234,431L231,427L229,424L226,421L223,417L221,414L218,411L215,408L212,406L210,403L207,400L204,397L201,394L198,392L195,388L193,385L190,382L188,377" stroke-opacity="1" stroke-width="5" stroke-linecap="round" stroke-linejoin="round" style="-webkit-tap-highlight-color: rgba(0, 0, 0, 0); stroke-opacity: 1; stroke-linecap: round; stroke-linejoin: round; -webkit-user-select: text;"></path><path fill="none" stroke="#000000" d="M186,362L183,357L181,356L179,353L177,351L175,348L173,346L171,343L170,339L168,336L166,332L165,329L163,325L161,321L159,317L158,313L157,309L156,306L155,302L154,298L154,294L154,290L154,285L154,282L154,278L154,274L156,270L158,267L160,263L162,261L165,258L168,256L171,253L174,252L178,250L181,249L185,247L189,246L193,245L198,244L202,243L205,242L210,242L213,241L217,241L222,241L225,241L229,241L234,241L238,241L243,241L248,241L252,241L257,241L262,241L267,241L272,242L276,243L281,244L286,245L293,246L299,247L306,248L313,249L323,250" stroke-opacity="1" stroke-width="5" stroke-linecap="round" stroke-linejoin="round" style="-webkit-tap-highlight-color: rgba(0, 0, 0, 0); stroke-opacity: 1; stroke-linecap: round; stroke-linejoin: round; -webkit-user-select: text;"></path><path fill="none" stroke="#000000" d="M346,251L351,251L353,251L356,251L358,251L362,251L366,251L369,251L374,251L378,251L383,251L389,251L395,252L401,253L407,253L414,254L421,255L429,256L435,257L443,258L451,258L458,259L465,260L474,261L482,262L489,263L498,263L507,264L515,265L526,265" stroke-opacity="1" stroke-width="5" stroke-linecap="round" stroke-linejoin="round" style="-webkit-tap-highlight-color: rgba(0, 0, 0, 0); stroke-opacity: 1; stroke-linecap: round; stroke-linejoin: round; -webkit-user-select: text;"></path><path fill="none" stroke="#000000" d="M555,276L560,276L562,276L564,276L567,276L570,276L573,276L577,276L581,277L584,277L589,278L592,278L596,279L601,280L604,281L608,282L612,284L615,285L618,287L621,289L624,291L627,293L629,295L632,297L634,300L635,302L637,305L638,308L639,311L640,314L640,317L641,320L641,324L642,327L642,330L642,334L642,337L642,340L642,344L640,348L639,351L638,356L636,359L634,363L633,367L630,371L628,375L626,379L623,383L621,387L618,392L615,397L612,401L609,405L605,410L601,415L598,420L595,425L592,429L589,434L586,438L582,443L579,447L575,451L572,455L568,460L563,466L557,473L553,479" stroke-opacity="1" stroke-width="5" stroke-linecap="round" stroke-linejoin="round" style="-webkit-tap-highlight-color: rgba(0, 0, 0, 0); stroke-opacity: 1; stroke-linecap: round; stroke-linejoin: round; -webkit-user-select: text;"></path><path fill="none" stroke="#000000" d="M542,497L538,504L536,506L534,508L532,511L528,514L525,518L522,522L518,526L514,531L511,535L507,539L504,544L500,548L496,553L493,557L490,562L486,567L482,571L477,576L473,581L469,585L465,591L460,596L455,603L449,608L443,613L436,620" stroke-opacity="1" stroke-width="5" stroke-linecap="round" stroke-linejoin="round" style="-webkit-tap-highlight-color: rgba(0, 0, 0, 0); stroke-opacity: 1; stroke-linecap: round; stroke-linejoin: round; -webkit-user-select: text;"></path><path fill="none" stroke="#000000" d="M420,622L417,626L416,627L415,628L414,630L412,631L411,632L409,634L406,635L403,637L400,639L397,640L394,642L390,643L387,644L384,645L381,645L378,645L375,645L372,645L369,645L366,645L363,643L360,642L357,641L355,640L352,638L349,637L347,635L344,633L341,630L338,628L335,626L333,623L330,620L327,618L325,615L322,612L319,609L317,606L314,603L312,599L310,595L307,591L305,586L302,582L300,579L297,574L294,570L291,566L288,562L285,558L282,554L279,550L276,546L273,542L270,538L267,534L263,530L261,526L258,521L256,516L253,511L251,505L248,498" stroke-opacity="1" stroke-width="5" stroke-linecap="round" stroke-linejoin="round" style="-webkit-tap-highlight-color: rgba(0, 0, 0, 0); stroke-opacity: 1; stroke-linecap: round; stroke-linejoin: round; -webkit-user-select: text;"></path><path fill="none" stroke="#000000" d="M237,472L236,470L235,467L233,464L231,461L229,458L227,455L224,453L220,448L217,444L214,440L210,436L208,432L204,428L201,424L198,421L195,417L193,413L190,409L187,405L183,401L180,396L176,392L173,387L168,382L164,378L159,373L154,369L151,365L145,359L140,355L136,350L131,345L128,341L124,334" stroke-opacity="1" stroke-width="5" stroke-linecap="round" stroke-linejoin="round" style="-webkit-tap-highlight-color: rgba(0, 0, 0, 0); stroke-opacity: 1; stroke-linecap: round; stroke-linejoin: round; -webkit-user-select: text;"></path><path fill="none" stroke="#000000" d="M110,312L106,309L104,307L102,305L100,302L97,299L95,297L92,293L89,289L86,286L84,282L81,278L78,275L76,271L73,268L71,264L69,260L67,256L64,252L63,249L61,245L60,241L59,236L58,232L58,229L57,225L57,222L57,218L57,216L58,213L59,210L62,207L64,205L67,202L69,201L73,199L76,198L80,196L84,195L88,195L92,194L96,194L100,193L104,193L108,193L112,193L116,193L120,193L125,193L129,193L133,193L138,194L142,195L147,196L152,198L157,199L161,201L167,203L172,205L178,206L184,208L190,209L196,211L203,213L210,215L217,217L224,219L232,221L240,223L249,226L258,228L270,232" stroke-opacity="1" stroke-width="5" stroke-linecap="round" stroke-linejoin="round" style="-webkit-tap-highlight-color: rgba(0, 0, 0, 0); stroke-opacity: 1; stroke-linecap: round; stroke-linejoin: round; -webkit-user-select: text;"></path><path fill="none" stroke="#000000" d="M305,242L308,242L311,242L314,242L319,242L326,242L332,243L339,244L346,244L354,246L363,246L372,248L380,249L388,251L397,253L406,255L414,256L424,258L433,259L441,261L451,262L460,264L470,266L480,267L489,268L499,270" stroke-opacity="1" stroke-width="5" stroke-linecap="round" stroke-linejoin="round" style="-webkit-tap-highlight-color: rgba(0, 0, 0, 0); stroke-opacity: 1; stroke-linecap: round; stroke-linejoin: round; -webkit-user-select: text;"></path><path fill="none" stroke="#000000" d="M531,278L536,277L538,277L541,277L544,277L548,277L553,277L558,277L562,277L567,277L572,277L577,277L582,277L587,277L592,277L596,277L601,277L605,277L609,277L614,277L618,277L622,277L627,278L632,278L636,278L641,279L645,280L649,281L653,282L658,284L662,286L665,288L668,291L671,294L674,297L676,300L679,303L680,307L682,311L684,315L685,319L686,323L686,326L686,331L686,334L686,339L686,343L685,346L684,350L682,353L681,357L678,361L676,366L673,370L670,374L667,379L662,384L658,390L653,396L648,401L643,407L636,414L629,421" stroke-opacity="1" stroke-width="5" stroke-linecap="round" stroke-linejoin="round" style="-webkit-tap-highlight-color: rgba(0, 0, 0, 0); stroke-opacity: 1; stroke-linecap: round; stroke-linejoin: round; -webkit-user-select: text;"></path><path fill="none" stroke="#000000" d="M606,454L599,460L596,464L593,468L588,472L583,477L577,482L572,488L567,494L561,500L555,505L549,511L543,518L536,523L530,530L523,535L516,542L511,547L506,553L500,558L494,563L489,569L482,576" stroke-opacity="1" stroke-width="5" stroke-linecap="round" stroke-linejoin="round" style="-webkit-tap-highlight-color: rgba(0, 0, 0, 0); stroke-opacity: 1; stroke-linecap: round; stroke-linejoin: round; -webkit-user-select: text;"></path><path fill="none" stroke="#000000" d="M442,611L436,613L434,615L432,616L430,618L427,619L424,620L421,622L417,624L414,625L411,627L408,629L404,630L402,631L398,632L395,633L392,633L389,634L386,635L383,635L379,636L376,636L373,637L369,637L366,637L362,637L359,637L356,637L353,637L349,635L346,634L342,632L338,630L334,628L331,627L327,625L323,622L319,620L316,618L312,616L308,613L304,611L300,609L296,607L293,605L289,603L285,601L281,598L277,595L273,592L268,590L264,587L260,584L256,582L252,579L249,576" stroke-opacity="1" stroke-width="5" stroke-linecap="round" stroke-linejoin="round" style="-webkit-tap-highlight-color: rgba(0, 0, 0, 0); stroke-opacity: 1; stroke-linecap: round; stroke-linejoin: round; -webkit-user-select: text;"></path><path fill="none" stroke="#000000" d="M232,561L228,560L225,560L222,558L217,555L213,553L208,551L205,549L200,547L195,545L191,542L187,539L182,536L178,533L173,530L168,527L163,523L157,520L152,517L147,514L141,511L136,509L132,507L130,506" stroke-opacity="1" stroke-width="5" stroke-linecap="round" stroke-linejoin="round" style="-webkit-tap-highlight-color: rgba(0, 0, 0, 0); stroke-opacity: 1; stroke-linecap: round; stroke-linejoin: round; -webkit-user-select: text;"></path><path fill="none" stroke="#000000" d="M114,493L108,489L105,488L101,486L98,484L93,482L89,481L86,480L82,478L78,477L74,475L71,472L68,470L64,467L62,463L59,460L57,456L55,453L54,448L52,445L52,440L51,436L51,433L51,429L51,426L51,421L51,418L52,414L54,411L56,408L58,404L62,401L65,397L69,394L73,390L77,387L81,383L86,380L91,377L96,374L101,371L107,368L113,365L119,361L126,358L133,354L142,351L150,348L160,343" stroke-opacity="1" stroke-width="5" stroke-linecap="round" stroke-linejoin="round" style="-webkit-tap-highlight-color: rgba(0, 0, 0, 0); stroke-opacity: 1; stroke-linecap: round; stroke-linejoin: round; -webkit-user-select: text;"></path><path fill="none" stroke="#000000" d="M182,333L185,330L188,329L191,329L195,327L200,325L205,323L211,320L218,317L225,315L232,312L239,309L247,306L255,303L263,299L272,296L279,292L288,289L298,286L307,283L317,279L327,275L338,270" stroke-opacity="1" stroke-width="5" stroke-linecap="round" stroke-linejoin="round" style="-webkit-tap-highlight-color: rgba(0, 0, 0, 0); stroke-opacity: 1; stroke-linecap: round; stroke-linejoin: round; -webkit-user-select: text;"></path><path fill="none" stroke="#000000" d="M365,258L365,257L368,257L371,256L376,254L381,251L386,249L392,246L397,244L403,241L408,239L413,237L419,235L424,234L429,232L434,230L439,228L445,227L451,225L456,224L462,222L468,220L476,218L482,216L488,214L495,212L501,210L507,208L513,207L519,206L523,205L528,205L533,205L537,205L541,205L544,205L548,207L551,209L554,211L557,213L560,215L562,218L564,220L566,223L567,226L569,229L570,233L571,236L572,239L573,242L574,245L574,248L575,251L575,254L576,257L576,261L577,264L577,268L577,271L577,275L577,280L577,285L577,289L577,294L577,300L577,307L577,317L577,326L575,339L573,351" stroke-opacity="1" stroke-width="5" stroke-linecap="round" stroke-linejoin="round" style="-webkit-tap-highlight-color: rgba(0, 0, 0, 0); stroke-opacity: 1; stroke-linecap: round; stroke-linejoin: round; -webkit-user-select: text;"></path><path fill="none" stroke="#000000" d="M574,396L571,394L571,397L571,399L571,403L571,407L570,412L568,418L567,423L566,428L565,434L564,440L563,445L562,451L560,457L559,463L558,472L556,479L554,487L552,495L550,503L548,510L546,518L545,526L542,535L539,546L536,557L532,568" stroke-opacity="1" stroke-width="5" stroke-linecap="round" stroke-linejoin="round" style="-webkit-tap-highlight-color: rgba(0, 0, 0, 0); stroke-opacity: 1; stroke-linecap: round; stroke-linejoin: round; -webkit-user-select: text;"></path><path fill="none" stroke="#000000" d="M538,598L535,600L535,602L535,605L534,609L533,614L532,619L530,625L528,630L526,635L524,640L521,646L519,652L517,657L516,662L514,667L511,672L509,677L507,682L505,686L503,691L500,696L498,701L495,706L492,710L490,715L487,719L485,722L483,725L481,727L479,729L477,730L475,732L472,733L470,734L468,735L465,736L463,736L461,737L459,737L457,737L455,737L452,737L450,737L447,737L444,737L441,737L438,737L436,737L432,737L429,737L426,737L422,736L418,735L414,734L411,732L406,731L401,728L396,725L390,722L385,718" stroke-opacity="1" stroke-width="5" stroke-linecap="round" stroke-linejoin="round" style="-webkit-tap-highlight-color: rgba(0, 0, 0, 0); stroke-opacity: 1; stroke-linecap: round; stroke-linejoin: round; -webkit-user-select: text;"></path><path fill="none" stroke="#000000" d="M369,711L364,709L361,708L358,707L354,704L350,702L346,699L341,697L337,694L333,691L328,689L323,686L318,683L312,679L307,676L300,673L295,669L288,666L282,663L276,659L270,656L263,652L256,648L250,644L244,640L238,637L234,634" stroke-opacity="1" stroke-width="5" stroke-linecap="round" stroke-linejoin="round" style="-webkit-tap-highlight-color: rgba(0, 0, 0, 0); stroke-opacity: 1; stroke-linecap: round; stroke-linejoin: round; -webkit-user-select: text;"></path><path fill="none" stroke="#000000" d="M223,626L217,625L215,625L212,623L209,622L206,620L203,619L200,618L196,616L193,614L191,613L188,611L184,609L181,608L178,606L175,603L172,601L169,598L165,596L162,594L159,591L156,589L152,586L149,583L146,580L143,577L141,573L139,568L137,564L136,560L135,555L134,550L133,545L133,540L133,535L133,530L134,525L136,520L138,515L141,510L144,506L147,501L150,497L154,492L158,488L162,484L167,479L171,475L176,470L181,465L186,460L192,454L198,449L203,443L210,437L218,430L228,421L238,411" stroke-opacity="1" stroke-width="5" stroke-linecap="round" stroke-linejoin="round" style="-webkit-tap-highlight-color: rgba(0, 0, 0, 0); stroke-opacity: 1; stroke-linecap: round; stroke-linejoin: round; -webkit-user-select: text;"></path><path fill="none" stroke="#000000" d="M249,411L253,404L255,401L257,398L261,394L263,391L267,387L271,382L275,377L278,371L283,365L287,360L291,354L296,348L301,343L305,337L310,331L316,325L321,319L327,312L333,305L340,297" stroke-opacity="1" stroke-width="5" stroke-linecap="round" stroke-linejoin="round" style="-webkit-tap-highlight-color: rgba(0, 0, 0, 0); stroke-opacity: 1; stroke-linecap: round; stroke-linejoin: round; -webkit-user-select: text;"></path><path fill="none" stroke="#000000" d="M350,290L354,287L356,285L359,282L361,279L365,276L368,273L372,269L375,266L379,263L383,259L387,254L392,250L396,246L400,241L404,237L407,232L412,227L415,223L419,219L423,215L426,210L430,206L434,202L437,198L441,195L444,191L447,187L451,184L455,181L458,178L462,175L465,173L468,171L472,170L475,169L478,168L481,168L483,168L486,168L489,168L492,169L495,171L498,173L501,176L504,178L507,181L510,183L512,186L515,189L517,192L520,195L522,198L525,201L528,205L530,207L532,211L534,215L536,219L538,222L540,227L542,231L544,236L546,240L548,245L550,249L553,254L555,259L558,265L560,270L563,278L566,285L569,292L574,302" stroke-opacity="1" stroke-width="5" stroke-linecap="round" stroke-linejoin="round" style="-webkit-tap-highlight-color: rgba(0, 0, 0, 0); stroke-opacity: 1; stroke-linecap: round; stroke-linejoin: round; -webkit-user-select: text;"></path><path fill="none" stroke="#000000" d="M591,329L592,333L592,336L594,339L596,342L598,345L599,348L601,351L603,355L604,358L606,362L608,365L609,369L611,373L613,377L616,381L617,385L619,390L621,394L624,398L626,403L629,408L632,414L635,420L638,426L640,434L643,443L646,453" stroke-opacity="1" stroke-width="5" stroke-linecap="round" stroke-linejoin="round" style="-webkit-tap-highlight-color: rgba(0, 0, 0, 0); stroke-opacity: 1; stroke-linecap: round; stroke-linejoin: round; -webkit-user-select: text;"></path><path fill="none" stroke="#000000" d="M656,477L657,480L657,482L657,484L658,487L660,490L661,493L663,496L664,499L667,502L668,506L670,509L672,513L674,517L676,521L678,525L679,528L681,532L682,536L683,540L684,544L685,548L685,551L686,554L686,557L686,560L686,563L686,566L686,569L685,573L683,577L682,580L679,584L677,588L674,592L672,595L669,598L666,602L662,605L658,608L655,611L650,614L647,617L643,620L638,623L633,625L628,628L623,630L618,632L613,633L608,635L603,636L598,638L593,640L587,641L581,642L575,645L569,646L562,647L554,649L545,651L534,655" stroke-opacity="1" stroke-width="5" stroke-linecap="round" stroke-linejoin="round" style="-webkit-tap-highlight-color: rgba(0, 0, 0, 0); stroke-opacity: 1; stroke-linecap: round; stroke-linejoin: round; -webkit-user-select: text;"></path><path fill="none" stroke="#000000" d="M516,669L509,669L507,669L505,670L502,671L498,674L494,676L490,678L485,680L480,682L476,684L471,685L466,686L461,687L456,687L451,688L446,689L440,689L434,691L429,691L423,693L416,694L410,695L403,696L397,697L390,698L383,700L375,701L368,703L361,704L352,706" stroke-opacity="1" stroke-width="5" stroke-linecap="round" stroke-linejoin="round" style="-webkit-tap-highlight-color: rgba(0, 0, 0, 0); stroke-opacity: 1; stroke-linecap: round; stroke-linejoin: round; -webkit-user-select: text;"></path><path fill="none" stroke="#000000" d="M338,713L331,714L329,714L327,714L323,714L320,715L316,716L313,717L309,718L305,718L302,719L298,719L293,720L289,720L285,720L280,721L276,721L272,721L268,721L263,721L259,721L255,721L251,721L246,721L242,721L237,721L233,721L229,721L225,720L221,718L217,717L214,715L210,714L206,711L203,709L199,706L196,702L194,699L191,695L189,692L187,689L186,685L184,681L183,677L182,673L182,669L182,665L182,662L182,657L182,653L182,648L182,644L182,640L182,635L182,630L183,624L184,618L185,612L187,605L189,597L192,587L197,577" stroke-opacity="1" stroke-width="5" stroke-linecap="round" stroke-linejoin="round" style="-webkit-tap-highlight-color: rgba(0, 0, 0, 0); stroke-opacity: 1; stroke-linecap: round; stroke-linejoin: round; -webkit-user-select: text;"></path><path fill="none" stroke="#000000" d="M211,552L212,550L212,547L215,542L217,537L220,530L224,523L227,515L230,507L234,497L237,489L240,481L244,470L247,460L250,450L253,441L257,431L263,422L269,411" stroke-opacity="1" stroke-width="5" stroke-linecap="round" stroke-linejoin="round" style="-webkit-tap-highlight-color: rgba(0, 0, 0, 0); stroke-opacity: 1; stroke-linecap: round; stroke-linejoin: round; -webkit-user-select: text;"></path><path fill="none" stroke="#000000" d="M287,385L286,381L287,378L289,375L290,371L292,367L294,361L295,357L296,352L298,347L300,342L301,337L303,332L305,327L306,322L308,317L310,311L311,305L312,300L314,295L316,289L318,283L320,277L322,271L324,265L326,258L328,252L330,246L332,240L334,234L336,229L338,224L341,219L343,213L345,208L347,203L350,198L353,194L355,190L358,187L361,184L363,181L367,178L370,176L373,175L376,173L379,172L382,171L385,171L388,171L390,170L393,170L395,170L397,170L400,170L403,170L406,171L409,172L412,174L415,176L418,177L421,179L424,181L428,182L431,183L434,185L437,187L440,189L443,191L447,194L451,197L455,200L458,202L462,205L466,208L470,212L474,215L479,219L484,224L490,230L497,237" stroke-opacity="1" stroke-width="5" stroke-linecap="round" stroke-linejoin="round" style="-webkit-tap-highlight-color: rgba(0, 0, 0, 0); stroke-opacity: 1; stroke-linecap: round; stroke-linejoin: round; -webkit-user-select: text;"></path><path fill="none" stroke="#000000" d="M516,256L519,257L522,259L526,262L530,266L533,268L537,272L541,275L545,278L549,281L553,284L557,287L561,290L565,293L569,297L573,300L577,303L582,307L587,310L591,314L595,317L599,321L604,325L609,329L614,334L619,339L624,343L629,348L635,353" stroke-opacity="1" stroke-width="5" stroke-linecap="round" stroke-linejoin="round" style="-webkit-tap-highlight-color: rgba(0, 0, 0, 0); stroke-opacity: 1; stroke-linecap: round; stroke-linejoin: round; -webkit-user-select: text;"></path><path fill="none" stroke="#000000" d="M650,365L652,370L654,371L657,373L660,375L662,378L665,380L668,382L670,384L673,387L676,389L678,391L681,393L683,395L685,397L686,399L688,401L689,403L690,405L691,407L692,409L693,412L694,415L694,417L694,420L695,423L695,426L696,428L696,431L696,435L696,438L696,441L696,445L695,448L694,451L692,455L689,459L687,463L684,468L680,472L677,477L674,481L671,485L667,489L664,494L660,498L656,502L652,506L648,509L645,513L641,517L637,521L633,524L629,528L625,531L620,535L615,539L609,544L603,549L595,555L587,562" stroke-opacity="1" stroke-width="5" stroke-linecap="round" stroke-linejoin="round" style="-webkit-tap-highlight-color: rgba(0, 0, 0, 0); stroke-opacity: 1; stroke-linecap: round; stroke-linejoin: round; -webkit-user-select: text;"></path><path fill="none" stroke="#000000" d="M560,585L558,588L556,589L554,591L552,594L548,596L545,600L542,603L538,606L534,610L528,614L523,618L518,623L514,626L509,630L504,633L498,637L493,641L487,645L481,650L474,656L468,660L460,666L453,672L445,678L436,686L427,693" stroke-opacity="1" stroke-width="5" stroke-linecap="round" stroke-linejoin="round" style="-webkit-tap-highlight-color: rgba(0, 0, 0, 0); stroke-opacity: 1; stroke-linecap: round; stroke-linejoin: round; -webkit-user-select: text;"></path><path fill="none" stroke="#000000" d="M421,695L414,698L413,700L411,702L409,704L407,706L404,708L401,710L398,712L395,713L392,715L389,715L387,716L384,716L380,717L378,718L374,718L370,718L367,718L363,718L360,718L356,718L352,718L348,717L344,715L339,714L335,713L330,710L326,709L321,706L316,704L312,702L307,699L302,697L298,694L293,691L288,689L283,686L279,683L274,680L270,677L266,674L261,671L256,668L251,665L246,663L242,660L236,657L232,654L227,651L222,648L217,645L212,642L208,639L203,636L198,633L193,630L188,628L183,625L178,622L173,619L168,616L164,614L160,611L155,608" stroke-opacity="1" stroke-width="5" stroke-linecap="round" stroke-linejoin="round" style="-webkit-tap-highlight-color: rgba(0, 0, 0, 0); stroke-opacity: 1; stroke-linecap: round; stroke-linejoin: round; -webkit-user-select: text;"></path><path fill="none" stroke="#000000" d="M151,596L144,591L142,589L139,588L136,586L132,584L129,582L125,579L121,577L117,574L113,572L108,569L104,566L101,564L97,562L93,560L89,558L86,556L82,553L79,550L76,548L73,546L71,544L71,543" stroke-opacity="1" stroke-width="5" stroke-linecap="round" stroke-linejoin="round" style="-webkit-tap-highlight-color: rgba(0, 0, 0, 0); stroke-opacity: 1; stroke-linecap: round; stroke-linejoin: round; -webkit-user-select: text;"></path><path fill="none" stroke="#000000" d="M71,526L66,524L64,523L61,522L58,521L55,519L52,517L50,515L47,513L45,510L43,508L42,504L40,501L37,498L36,494L34,490L33,486L32,482L31,478L30,474L29,470L29,467L29,463L29,460L29,456L29,453L30,449L33,445L36,441L39,437L42,433L45,429L49,425L53,421L57,418L61,414L65,410L70,407L74,403L80,399L85,395L91,391L97,386L105,380L113,374L122,368L133,359" stroke-opacity="1" stroke-width="5" stroke-linecap="round" stroke-linejoin="round" style="-webkit-tap-highlight-color: rgba(0, 0, 0, 0); stroke-opacity: 1; stroke-linecap: round; stroke-linejoin: round; -webkit-user-select: text;"></path><path fill="none" stroke="#000000" d="M149,345L148,345L150,343L154,340L157,337L163,333L168,329L173,324L179,319L187,314L194,308L201,302L208,297L216,291L223,285L230,279L238,274L245,268L252,263L260,257L267,251L275,246L282,241L290,235L299,229L307,222L317,216L327,209L336,202" stroke-opacity="1" stroke-width="5" stroke-linecap="round" stroke-linejoin="round" style="-webkit-tap-highlight-color: rgba(0, 0, 0, 0); stroke-opacity: 1; stroke-linecap: round; stroke-linejoin: round; -webkit-user-select: text;"></path><path fill="none" stroke="#000000" d="M363,186L367,184L370,181L373,178L377,175L380,173L383,170L386,167L389,165L392,163L395,161L398,160L401,158L404,156L407,154L409,153L412,151L415,150L418,149L421,148L424,147L427,147L430,146L433,146L436,146L438,145L441,145L444,145L447,145L450,145L453,145L455,145L457,146L460,147L462,149L464,151L466,153L468,155L471,157L473,160L475,162L477,165L480,168L482,171L484,174L485,178L487,181L489,185L491,189L492,193L494,197L496,201L498,206L499,210L501,215L502,219L504,224L505,230L506,235L507,240L508,245L509,251L509,257L510,263L511,270L511,279L513,287L514,295L516,306" stroke-opacity="1" stroke-width="5" stroke-linecap="round" stroke-linejoin="round" style="-webkit-tap-highlight-color: rgba(0, 0, 0, 0); stroke-opacity: 1; stroke-linecap: round; stroke-linejoin: round; -webkit-user-select: text;"></path><path fill="none" stroke="#000000" d="M528,348L526,351L526,353L526,357L526,361L526,365L527,369L528,373L529,378L531,384L531,389L532,393L533,399L534,404L535,410L535,416L536,422L536,428L537,434L537,440L538,446L539,452L540,459L541,467L542,474L543,482L544,490L545,498L547,506L548,514L548,523L549,533L550,542" stroke-opacity="1" stroke-width="5" stroke-linecap="round" stroke-linejoin="round" style="-webkit-tap-highlight-color: rgba(0, 0, 0, 0); stroke-opacity: 1; stroke-linecap: round; stroke-linejoin: round; -webkit-user-select: text;"></path><path fill="none" stroke="#000000" d="M558,570L558,574L558,577L558,579L558,582L558,584L558,588L558,591L558,595L558,598L559,602L560,606L560,611L561,615L562,620L562,624L563,628L564,633L564,637L565,641L565,645L565,649L566,653L566,657L566,660L566,663L567,666L567,669L567,673L567,676L567,679L567,683L567,686L567,689L567,692L566,696L565,698L563,702L562,705L560,708L558,711L556,713L554,716L552,719L550,722L548,724L545,726L543,728L541,730L539,732L536,733L534,734L531,735L528,736L526,736L523,737L519,737L516,738L511,739L507,739L502,740L496,740L491,740L485,740L478,740" stroke-opacity="1" stroke-width="5" stroke-linecap="round" stroke-linejoin="round" style="-webkit-tap-highlight-color: rgba(0, 0, 0, 0); stroke-opacity: 1; stroke-linecap: round; stroke-linejoin: round; -webkit-user-select: text;"></path><path fill="none" stroke="#000000" d="M453,740L448,740L445,740L442,740L438,740L434,740L429,740L424,740L418,740L413,740L407,740L401,740L395,740L388,740L383,740L377,740L370,739L364,738L359,737L353,737L347,737L341,736L336,736L330,736L323,735L317,735L310,734L305,734L298,733L292,733L284,733" stroke-opacity="1" stroke-width="5" stroke-linecap="round" stroke-linejoin="round" style="-webkit-tap-highlight-color: rgba(0, 0, 0, 0); stroke-opacity: 1; stroke-linecap: round; stroke-linejoin: round; -webkit-user-select: text;"></path><path fill="none" stroke="#000000" d="M260,731L255,733L253,733L250,733L247,733L244,733L240,733L236,733L232,732L228,732L225,731L221,730L217,729L213,728L210,727L206,725L202,724L198,723L195,722L191,720L187,719L183,718L179,716L176,714L172,712L169,710L166,707L162,704L159,701L156,698L153,694L151,691L149,687L147,684L144,680L142,675L140,671L139,667L137,663L136,659L135,655L134,650L133,646L132,642L132,637L131,633L130,628L129,623L129,618L127,613L127,606L126,600L125,594L125,588L125,581L125,573" stroke-opacity="1" stroke-width="5" stroke-linecap="round" stroke-linejoin="round" style="-webkit-tap-highlight-color: rgba(0, 0, 0, 0); stroke-opacity: 1; stroke-linecap: round; stroke-linejoin: round; -webkit-user-select: text;"></path><path fill="none" stroke="#000000" d="M129,544L127,540L127,537L127,533L127,529L127,523L127,517L126,511L126,504L125,497L125,489L124,483L122,476L121,469L120,462L118,455L117,448L115,440L114,433L113,425L111,416L110,409L110,402L110,392L110,383L110,373" stroke-opacity="1" stroke-width="5" stroke-linecap="round" stroke-linejoin="round" style="-webkit-tap-highlight-color: rgba(0, 0, 0, 0); stroke-opacity: 1; stroke-linecap: round; stroke-linejoin: round; -webkit-user-select: text;"></path><path fill="none" stroke="#000000" d="M111,351L107,350L107,347L107,343L107,339L107,335L107,330L106,325L106,320L105,314L105,309L105,303L105,297L105,290L105,283L105,275L105,268L105,261L106,256L106,249L106,244L106,236L106,230L107,224L108,217L109,210L110,204L113,196L115,190L117,185L119,180L122,175L125,171L128,167L130,164L134,162L137,159L141,158L145,156L149,155L152,154L157,154L161,154L165,154L169,153L174,153L178,153L183,153L187,153L193,154L197,154L202,156L208,159L212,161L219,164L225,167L232,171L242,175L251,181L263,188L274,196" stroke-opacity="1" stroke-width="5" stroke-linecap="round" stroke-linejoin="round" style="-webkit-tap-highlight-color: rgba(0, 0, 0, 0); stroke-opacity: 1; stroke-linecap: round; stroke-linejoin: round; -webkit-user-select: text;"></path><path fill="none" stroke="#000000" d="M307,205L310,205L313,205L317,207L321,209L326,211L331,214L337,217L344,220L350,223L356,226L362,229L369,233L375,236L382,240L389,244L397,248L405,253L414,258L424,264L433,270L443,277L454,283" stroke-opacity="1" stroke-width="5" stroke-linecap="round" stroke-linejoin="round" style="-webkit-tap-highlight-color: rgba(0, 0, 0, 0); stroke-opacity: 1; stroke-linecap: round; stroke-linejoin: round; -webkit-user-select: text;"></path><path fill="none" stroke="#000000" d="M482,297L487,299L489,300L492,301L494,302L497,303L501,304L504,305L507,307L511,308L515,310L519,312L523,313L527,315L531,317L534,318L538,320L542,322L546,324L550,326L554,329L558,331L561,333L565,335L569,338L574,340L577,342L582,345L587,347L591,350L596,352L600,354L605,356L609,358L614,360L619,363L624,365L628,368L633,370L638,373L643,375L646,377L650,380L654,382L658,385L661,387L664,390L667,393L670,396L672,399L674,402L677,406L678,409L680,413L682,417L683,421L684,425L684,429L685,433L685,438L685,443L685,448L685,452L685,456L685,461L684,466L682,472L680,477L678,482L674,489L669,497L664,505L657,514L649,526" stroke-opacity="1" stroke-width="5" stroke-linecap="round" stroke-linejoin="round" style="-webkit-tap-highlight-color: rgba(0, 0, 0, 0); stroke-opacity: 1; stroke-linecap: round; stroke-linejoin: round; -webkit-user-select: text;"></path><path fill="none" stroke="#000000" d="M637,554L627,569L623,574L620,578L616,584L612,590L608,596L603,603L599,609L594,616L587,624L581,632L574,639L568,647L562,654L556,661L550,669L544,677L538,685L531,693L525,701L519,707L514,713L508,721L502,730" stroke-opacity="1" stroke-width="5" stroke-linecap="round" stroke-linejoin="round" style="-webkit-tap-highlight-color: rgba(0, 0, 0, 0); stroke-opacity: 1; stroke-linecap: round; stroke-linejoin: round; -webkit-user-select: text;"></path><path fill="none" stroke="#000000" d="M481,747L480,749L480,751L479,753L477,755L475,758L473,761L470,764L468,768L465,770L463,773L460,776L457,778L453,781L448,783L445,784L441,786L438,787L434,787L431,788L427,788L423,788L419,788L414,788L410,788L406,787L402,785L398,783L395,781L391,779L387,777L384,774L380,771L378,769L375,766L371,762L368,757L366,752L363,747L361,742L358,736L356,730L353,723L350,717L347,710L344,703L341,696L338,689L336,681L333,674L331,666L329,659L326,651L324,642L321,634L318,625L315,616L313,607L310,597L308,588L307,579L307,570L306,561" stroke-opacity="1" stroke-width="5" stroke-linecap="round" stroke-linejoin="round" style="-webkit-tap-highlight-color: rgba(0, 0, 0, 0); stroke-opacity: 1; stroke-linecap: round; stroke-linejoin: round; -webkit-user-select: text;"></path><path fill="none" stroke="#000000" d="M310,527L307,525L307,523L307,518L306,514L305,510L304,505L302,501L301,496L300,491L298,486L297,482L295,476L293,471L291,466L289,460L288,455L286,449L285,444L283,438L283,432L281,425L280,419L279,412L278,406L277,400L276,393L276,385L275,377" stroke-opacity="1" stroke-width="5" stroke-linecap="round" stroke-linejoin="round" style="-webkit-tap-highlight-color: rgba(0, 0, 0, 0); stroke-opacity: 1; stroke-linecap: round; stroke-linejoin: round; -webkit-user-select: text;"></path><path fill="none" stroke="#000000" d="M279,333L276,336L276,334L276,331L276,328L275,325L275,322L274,318L274,314L273,309L272,305L271,301L270,296L268,291L267,285L266,280L265,274L263,268L263,261L262,255L261,249L259,242L259,236L258,229L257,222L256,214L256,207L255,200L254,193L254,186L254,179L253,172L253,166L253,160L253,154L253,148L253,142L253,136L253,129L254,124L256,118L258,112L259,108L261,104L263,100L265,97L268,94L270,92L273,90L275,88L278,87L280,86L283,85L286,85L289,85L292,85L295,85L298,85L301,85L304,86L307,87L311,89L314,91L317,92L321,94L325,96L328,98L332,100L336,103L339,105L343,107L347,109L351,111L356,114L360,117L364,119L369,122L375,125L381,130L389,137L397,143L405,150" stroke-opacity="1" stroke-width="5" stroke-linecap="round" stroke-linejoin="round" style="-webkit-tap-highlight-color: rgba(0, 0, 0, 0); stroke-opacity: 1; stroke-linecap: round; stroke-linejoin: round; -webkit-user-select: text;"></path><path fill="none" stroke="#000000" d="M441,177L446,180L448,182L452,184L455,186L460,189L464,192L469,195L474,198L480,202L485,205L492,209L497,213L502,216L508,220L513,223L519,228L524,232L529,237L534,242L540,246L545,251L551,255L558,260L564,265L572,271L579,277L587,283" stroke-opacity="1" stroke-width="5" stroke-linecap="round" stroke-linejoin="round" style="-webkit-tap-highlight-color: rgba(0, 0, 0, 0); stroke-opacity: 1; stroke-linecap: round; stroke-linejoin: round; -webkit-user-select: text;"></path><path fill="none" stroke="#000000" d="M610,303L613,302L615,302L617,303L620,305L623,307L626,309L630,311L633,313L636,315L640,317L643,319L646,321L649,323L652,325L655,327L658,329L661,331L664,333L667,335L669,337L671,340L674,342L677,344L679,347L682,349L684,352L687,355L689,357L691,360L694,364L695,367L697,370L699,374L700,377L702,380L703,384L704,388L705,392L705,396L706,400L706,404L706,409L706,414L705,419L704,424L702,430L701,435L699,441L697,447L694,452L691,458L689,464L686,469L682,474L679,479L675,484L671,489L667,495L662,501L657,506L652,512L647,518L642,523L636,529L630,535L625,541L619,547L612,554L605,561L598,569" stroke-opacity="1" stroke-width="5" stroke-linecap="round" stroke-linejoin="round" style="-webkit-tap-highlight-color: rgba(0, 0, 0, 0); stroke-opacity: 1; stroke-linecap: round; stroke-linejoin: round; -webkit-user-select: text;"></path><path fill="none" stroke="#000000" d="M574,597L570,602L569,604L567,607L565,609L561,613L558,616L553,621L548,626L544,630L539,636L534,641L528,647L523,652L518,658L512,663L507,668L501,673L495,678L490,683L485,687L479,691L473,696L467,701L461,706L455,711L449,715L443,720L437,725L431,730" stroke-opacity="1" stroke-width="5" stroke-linecap="round" stroke-linejoin="round" style="-webkit-tap-highlight-color: rgba(0, 0, 0, 0); stroke-opacity: 1; stroke-linecap: round; stroke-linejoin: round; -webkit-user-select: text;"></path><path fill="none" stroke="#000000" d="M401,754L399,757L397,759L395,761L392,763L390,765L387,766L385,768L383,769L380,770L378,771L375,772L371,773L367,774L363,775L359,776L355,777L351,778L346,779L342,780L337,780L333,781L328,781L323,781L318,782L313,782L308,782L304,782L300,781L295,779L291,777L287,774L283,770L280,767L277,764L274,761L270,757L268,753L265,749L263,746L261,742L258,737L256,732L255,726L253,721L251,715L250,709L247,701L245,694L242,688L238,681L235,675L232,669L229,662L227,655L225,645L225,635" stroke-opacity="1" stroke-width="5" stroke-linecap="round" stroke-linejoin="round" style="-webkit-tap-highlight-color: rgba(0, 0, 0, 0); stroke-opacity: 1; stroke-linecap: round; stroke-linejoin: round; -webkit-user-select: text;"></path><path fill="none" stroke="#000000" d="M220,599L218,597L218,594L218,591L218,587L216,582L214,576L212,571L210,566L208,560L206,555L204,550L202,543L199,537L197,532L195,526L192,519L189,513L187,506L184,499L181,492L179,484L176,477L174,471L171,465L169,459L167,453L165,448L164,441L164,433" stroke-opacity="1" stroke-width="5" stroke-linecap="round" stroke-linejoin="round" style="-webkit-tap-highlight-color: rgba(0, 0, 0, 0); stroke-opacity: 1; stroke-linecap: round; stroke-linejoin: round; -webkit-user-select: text;"></path><path fill="none" stroke="#000000" d="M166,400L163,395L163,393L163,390L161,387L160,384L158,380L156,376L154,372L152,368L150,364L149,360L147,355L145,350L144,346L142,340L140,334L138,329L137,324L136,319L135,314L135,309L135,304L135,298L135,293L135,287L135,283L135,278L137,273L139,269L141,265L144,261L147,258L152,255L156,253L159,251L164,249L168,248L173,246L178,245L183,245L188,244L194,244L199,244L205,244L210,244L216,245L222,246L227,247L234,249L240,251L246,253L253,255L260,256L268,258L276,261L283,263L291,266L300,269L309,272L320,275L330,279L341,283L354,287" stroke-opacity="1" stroke-width="5" stroke-linecap="round" stroke-linejoin="round" style="-webkit-tap-highlight-color: rgba(0, 0, 0, 0); stroke-opacity: 1; stroke-linecap: round; stroke-linejoin: round; -webkit-user-select: text;"></path><path fill="none" stroke="#000000" d="M388,295L391,292L394,292L398,292L403,292L409,293L414,294L419,295L425,297L431,299L437,301L443,303L450,305L455,307L461,309L468,312L473,314L480,316L487,319L494,321L502,323L509,326L519,330" stroke-opacity="1" stroke-width="5" stroke-linecap="round" stroke-linejoin="round" style="-webkit-tap-highlight-color: rgba(0, 0, 0, 0); stroke-opacity: 1; stroke-linecap: round; stroke-linejoin: round; -webkit-user-select: text;"></path><path fill="none" stroke="#000000" d="M541,342L544,341L547,341L550,341L555,341L559,341L562,343L567,344L570,345L574,347L577,348L581,351L584,353L587,355L590,357L593,359L596,362L599,365L602,368L605,371L607,374L610,377L612,380L615,383L616,386L618,390L620,394L621,397L622,401L623,404L623,409L624,412L624,416L624,421L624,425L624,430L623,435L621,440L618,445L615,450L611,455L608,460L604,465L600,469L596,474L592,478L588,482L584,485L580,489L575,493L571,497L566,501L561,505L556,509L551,513L545,518L541,522L535,527L528,532L521,540" stroke-opacity="1" stroke-width="5" stroke-linecap="round" stroke-linejoin="round" style="-webkit-tap-highlight-color: rgba(0, 0, 0, 0); stroke-opacity: 1; stroke-linecap: round; stroke-linejoin: round; -webkit-user-select: text;"></path><path fill="none" stroke="#000000" d="M495,547L491,551L489,553L486,556L482,559L477,563L472,567L467,571L462,575L457,578L452,582L446,585L440,589L434,592L428,597L421,601L414,606L407,611L400,616L393,620L387,625L382,628L378,630L373,634" stroke-opacity="1" stroke-width="5" stroke-linecap="round" stroke-linejoin="round" style="-webkit-tap-highlight-color: rgba(0, 0, 0, 0); stroke-opacity: 1; stroke-linecap: round; stroke-linejoin: round; -webkit-user-select: text;"></path><path fill="none" stroke="#000000" d="M346,626L342,630L339,630L336,630L332,630L328,630L323,630L318,630L312,630L308,630L304,629L298,627L293,625L288,623L283,621L279,619L273,617L269,614L264,611L260,608L256,603L253,599L251,594L248,589L246,585L244,579L243,574L242,569L242,565L241,560L241,555L241,551L241,546L241,542L242,538L244,533L246,528L249,523L251,517L254,512L256,507L259,501L261,496L263,490L266,485L269,478L273,472L276,465L281,456L287,448L294,438L300,428" stroke-opacity="1" stroke-width="5" stroke-linecap="round" stroke-linejoin="round" style="-webkit-tap-highlight-color: rgba(0, 0, 0, 0); stroke-opacity: 1; stroke-linecap: round; stroke-linejoin: round; -webkit-user-select: text;"></path><path fill="none" stroke="#000000" d="M317,417L318,413L319,411L322,408L324,404L328,400L331,395L335,390L339,385L343,380L347,375L351,370L356,365L360,359L365,353L369,347L374,341L379,334L385,326L391,319L396,311L402,303L409,294L416,283L424,273L433,263" stroke-opacity="1" stroke-width="5" stroke-linecap="round" stroke-linejoin="round" style="-webkit-tap-highlight-color: rgba(0, 0, 0, 0); stroke-opacity: 1; stroke-linecap: round; stroke-linejoin: round; -webkit-user-select: text;"></path><path fill="none" stroke="#000000" d="M441,263L453,252L457,249L460,245L464,241L468,235L473,229L478,223L484,217L489,211L494,205L500,199L506,193L511,186L516,181L521,176L527,172L533,168L538,164L544,160L550,156L556,154L562,152L567,151L572,150L577,150L582,150L586,150L589,152L593,155L595,158L597,163L599,167L601,172L604,177L605,183L606,190L606,196L606,204L606,212L606,220L606,228L606,236L606,244L604,252L603,261L601,268L600,276L597,286L594,296L591,306L587,316L582,326L577,336L573,347L569,359L566,370L562,380" stroke-opacity="1" stroke-width="5" stroke-linecap="round" stroke-linejoin="round" style="-webkit-tap-highlight-color: rgba(0, 0, 0, 0); stroke-opacity: 1; stroke-linecap: round; stroke-linejoin: round; -webkit-user-select: text;"></path><path fill="none" stroke="#000000" d="M555,404L558,405L558,408L558,412L558,416L558,421L557,426L556,430L555,434L553,439L552,445L550,449L549,454L548,458L546,462L544,468L543,472L541,476L540,480L538,485L537,489L536,493L534,497" stroke-opacity="1" stroke-width="5" stroke-linecap="round" stroke-linejoin="round" style="-webkit-tap-highlight-color: rgba(0, 0, 0, 0); stroke-opacity: 1; stroke-linecap: round; stroke-linejoin: round; -webkit-user-select: text;"></path><path fill="none" stroke="#000000" d="M523,510L518,513L518,516L516,520L514,523L512,527L509,532L506,535L503,538L500,542L497,544L495,546L493,548L490,550L488,552L485,553L482,555L478,556L474,556L470,557L466,557L462,558L457,558L453,558L447,558L442,558L437,558L431,558L425,558L419,557L414,555L407,553L400,551L393,549L386,546L379,544L372,542L365,540L359,538L351,536L344,534L336,532L327,530L319,527L310,524L302,521L292,517" stroke-opacity="1" stroke-width="5" stroke-linecap="round" stroke-linejoin="round" style="-webkit-tap-highlight-color: rgba(0, 0, 0, 0); stroke-opacity: 1; stroke-linecap: round; stroke-linejoin: round; -webkit-user-select: text;"></path><path fill="none" stroke="#000000" d="M283,507L279,502L276,502L272,502L268,502L263,501L258,500L253,499L247,498L242,496L237,494L231,492L225,489L220,487L214,484L208,482L203,480L197,477L192,476L189,475L186,475" stroke-opacity="1" stroke-width="5" stroke-linecap="round" stroke-linejoin="round" style="-webkit-tap-highlight-color: rgba(0, 0, 0, 0); stroke-opacity: 1; stroke-linecap: round; stroke-linejoin: round; -webkit-user-select: text;"></path><path fill="none" stroke="#000000" d="M176,458L172,459L170,459L167,459L164,459L160,458L156,457L153,456L149,455L147,454L144,453L141,451L138,449L135,446L132,443L130,440L128,436L125,431L124,426L122,420L122,414L121,409L121,404L121,398L121,393L121,389L121,384L122,380L124,375L127,372L130,368L134,365L137,361L142,357L145,353L149,350L154,346L158,343L163,340L168,336L173,333L179,329L184,326L190,322L195,318L202,315L208,310L217,306L225,301L234,296L243,290L253,284L266,277L280,269L297,261" stroke-opacity="1" stroke-width="5" stroke-linecap="round" stroke-linejoin="round" style="-webkit-tap-highlight-color: rgba(0, 0, 0, 0); stroke-opacity: 1; stroke-linecap: round; stroke-linejoin: round; -webkit-user-select: text;"></path><path fill="none" stroke="#000000" d="M321,251L325,250L327,250L330,249L335,246L341,242L348,239L354,236L362,232L370,228L378,224L387,221L397,217L406,212L414,208L424,203L434,198L444,193L455,188L466,183L480,176L491,171L507,166" stroke-opacity="1" stroke-width="5" stroke-linecap="round" stroke-linejoin="round" style="-webkit-tap-highlight-color: rgba(0, 0, 0, 0); stroke-opacity: 1; stroke-linecap: round; stroke-linejoin: round; -webkit-user-select: text;"></path><path fill="none" stroke="#000000" d="M530,166L537,164L540,164L543,163L547,162L551,161L557,159L561,159L566,158L571,157L577,157L582,157L587,157L592,157L598,157L603,158L608,159L611,161L615,164L619,166L623,169L626,173L629,176L632,180L635,183L637,187L639,191L640,195L642,199L643,203L643,208L644,212L644,217L644,223L644,228L644,235L644,240L644,245L644,252L643,258L642,264L640,270L638,276L636,283L635,289L633,295L630,300L628,307L626,312L624,318L623,324L621,330L618,336L616,343L613,349L610,356L606,364L602,371L599,378L595,386L592,393L589,400L586,408L581,418L577,429" stroke-opacity="1" stroke-width="5" stroke-linecap="round" stroke-linejoin="round" style="-webkit-tap-highlight-color: rgba(0, 0, 0, 0); stroke-opacity: 1; stroke-linecap: round; stroke-linejoin: round; -webkit-user-select: text;"></path><path fill="none" stroke="#000000" d="M572,459L567,460L567,463L567,467L566,472L565,477L563,483L561,490L559,497L556,504L553,511L549,518L546,526L543,532L540,539L537,547L534,554L531,561L527,569L523,578L520,585L516,593L512,601L508,608L504,616L499,625L495,635L489,650" stroke-opacity="1" stroke-width="5" stroke-linecap="round" stroke-linejoin="round" style="-webkit-tap-highlight-color: rgba(0, 0, 0, 0); stroke-opacity: 1; stroke-linecap: round; stroke-linejoin: round; -webkit-user-select: text;"></path><path fill="none" stroke="#000000" d="M475,664L473,668L472,671L471,675L469,678L467,683L464,687L462,692L459,696L456,700L452,704L449,707L445,710L442,714L438,717L435,719L432,722L428,725L424,727L419,730L416,732L412,734L408,736L404,737L401,738L397,739L392,740L388,740L384,740L379,740L374,740L369,740L363,740L359,738L354,737L350,736L344,734L340,731L336,729L331,726L327,724L322,721L319,719L314,716L310,713L307,710L303,707L299,704L295,701L291,698L287,694L283,691L280,688L276,685L271,681L266,676L262,673L257,669L252,665L247,661L243,656" stroke-opacity="1" stroke-width="5" stroke-linecap="round" stroke-linejoin="round" style="-webkit-tap-highlight-color: rgba(0, 0, 0, 0); stroke-opacity: 1; stroke-linecap: round; stroke-linejoin: round; -webkit-user-select: text;"></path><path fill="none" stroke="#000000" d="M230,625L225,623L223,620L221,618L218,616L215,613L211,610L208,607L204,603L200,600L195,596L191,592L187,589L183,584L178,581L174,577L169,572L165,568L160,563L155,559L150,555L145,550L139,545L135,540L130,535L125,531L120,526L115,521L111,515L106,510L101,505L97,499L93,493L90,485L86,477" stroke-opacity="1" stroke-width="5" stroke-linecap="round" stroke-linejoin="round" style="-webkit-tap-highlight-color: rgba(0, 0, 0, 0); stroke-opacity: 1; stroke-linecap: round; stroke-linejoin: round; -webkit-user-select: text;"></path><path fill="none" stroke="#000000" d="M79,459L72,455L71,453L70,451L68,448L66,445L64,442L62,439L59,436L57,433L54,430L53,426L51,423L49,419L47,415L46,410L45,406L44,401L43,396L42,392L42,388L42,384L42,380L42,375L42,371L42,367L42,363L44,360L46,356L49,352L52,349L54,345L58,341L61,338L64,334L67,330L71,326L74,324L78,320L82,317L87,313L92,309L97,305L103,302L107,298L113,295L118,292L125,288L130,285L136,282L142,279L148,275L154,272L161,268L167,265L174,261L181,257L188,253L197,249L205,244L215,239L227,233L241,226L256,219L274,210L291,199L309,188" stroke-opacity="1" stroke-width="5" stroke-linecap="round" stroke-linejoin="round" style="-webkit-tap-highlight-color: rgba(0, 0, 0, 0); stroke-opacity: 1; stroke-linecap: round; stroke-linejoin: round; -webkit-user-select: text;"></path><path fill="none" stroke="#000000" d="M339,172L339,171L341,171L344,169L347,168L352,166L356,163L362,160L368,156L375,154L381,150L387,147L393,144L399,141L404,138L409,135L416,132L422,129L429,127L435,124L442,121L451,117L460,113L470,109L480,103L490,99" stroke-opacity="1" stroke-width="5" stroke-linecap="round" stroke-linejoin="round" style="-webkit-tap-highlight-color: rgba(0, 0, 0, 0); stroke-opacity: 1; stroke-linecap: round; stroke-linejoin: round; -webkit-user-select: text;"></path><path fill="none" stroke="#000000" d="M509,98L514,93L517,92L521,91L526,88L531,87L535,85L539,83L543,82L547,81L551,81L555,81L558,81L562,81L565,81L569,81L572,81L575,83L579,86L582,87L585,89L588,92L591,94L593,97L596,100L598,104L600,108L602,112L604,115L606,120L608,124L609,129L611,133L611,138L612,144L613,149L613,155L613,161L614,166L614,173L615,178L615,185L616,191L616,198L616,205L616,212L616,218L616,226L616,233L616,240L616,247L615,255L614,262L613,269L612,277L611,284L610,292L609,300L608,308L606,317L605,326L604,336L602,348L600,361L598,375L595,388L592,402" stroke-opacity="1" stroke-width="5" stroke-linecap="round" stroke-linejoin="round" style="-webkit-tap-highlight-color: rgba(0, 0, 0, 0); stroke-opacity: 1; stroke-linecap: round; stroke-linejoin: round; -webkit-user-select: text;"></path><path fill="none" stroke="#000000" d="M601,431L595,438L595,441L595,445L595,450L595,454L594,459L593,465L592,470L591,476L589,482L588,489L587,494L585,500L584,506L583,511L582,518L580,525L577,533L575,541L572,550L569,559L566,570L562,580L558,592L553,604" stroke-opacity="1" stroke-width="5" stroke-linecap="round" stroke-linejoin="round" style="-webkit-tap-highlight-color: rgba(0, 0, 0, 0); stroke-opacity: 1; stroke-linecap: round; stroke-linejoin: round; -webkit-user-select: text;"></path><path fill="none" stroke="#000000" d="M551,643L547,650L547,655L546,658L545,662L543,668L542,673L541,678L540,682L538,688L537,693L536,699L533,705L531,710L529,716L526,722L523,728L521,733L518,738L516,743L513,749L510,755L507,761L504,767L500,774L496,780L492,786L489,792L485,798L480,803L476,808L471,813L468,817L463,821L460,824L457,827L454,828L451,830L449,831L446,832L442,832L438,833L434,834L430,834L425,834L421,834L416,834L412,834L407,834L401,833L397,831L392,829L387,827L383,825L379,823L375,821L370,819L366,817L362,815L358,813L353,809L348,805L342,800L336,795L330,790L325,783L319,778" stroke-opacity="1" stroke-width="5" stroke-linecap="round" stroke-linejoin="round" style="-webkit-tap-highlight-color: rgba(0, 0, 0, 0); stroke-opacity: 1; stroke-linecap: round; stroke-linejoin: round; -webkit-user-select: text;"></path><path fill="none" stroke="#000000" d="M312,754L309,754L308,752L306,750L303,747L300,744L297,742L293,739L289,735L285,732L281,728L278,725L273,721L268,716L264,713L260,709L255,705L250,701L245,696L240,691L234,684L229,676L223,669" stroke-opacity="1" stroke-width="5" stroke-linecap="round" stroke-linejoin="round" style="-webkit-tap-highlight-color: rgba(0, 0, 0, 0); stroke-opacity: 1; stroke-linecap: round; stroke-linejoin: round; -webkit-user-select: text;"></path><path fill="none" stroke="#000000" d="M211,647L209,642L209,639L209,635L209,630L209,625L209,618L209,612L209,606L209,599L210,593L212,587L214,582L216,576L218,570L220,565L223,560L225,555L227,550L230,545L233,539L237,535L239,530L243,525L246,520L250,515L254,509L259,503L266,495L272,487" stroke-opacity="1" stroke-width="5" stroke-linecap="round" stroke-linejoin="round" style="-webkit-tap-highlight-color: rgba(0, 0, 0, 0); stroke-opacity: 1; stroke-linecap: round; stroke-linejoin: round; -webkit-user-select: text;"></path><path fill="none" stroke="#000000" d="M282,480L286,476L290,473L293,470L298,467L300,465L304,462L308,460L311,459L314,458L318,458L321,458L323,458L326,458L328,460L330,462L331,465L333,468L334,471L336,475L338,477L339,481L341,484L342,488L343,492L344,497L345,501L346,506L346,512L346,518L346,524L346,530L346,537L346,544L346,550L346,557L345,564L344,572L343,580L341,589L339,598L337,607L336,617L335,627L335,638L334,651L334,664L333,676" stroke-opacity="1" stroke-width="5" stroke-linecap="round" stroke-linejoin="round" style="-webkit-tap-highlight-color: rgba(0, 0, 0, 0); stroke-opacity: 1; stroke-linecap: round; stroke-linejoin: round; -webkit-user-select: text;"></path><path fill="none" stroke="#000000" d="M322,681L321,686L320,689L318,691L316,694L314,697L312,700L310,703L309,706L307,709L305,712L302,714L300,717L298,719L295,722L292,724L289,726L286,728L283,730L280,732L277,734L273,736L270,737L266,738L263,740L259,741L256,742L253,743L249,744L245,745L241,747L237,748L232,750L229,752L224,753L219,755L215,756L210,757L206,758L202,759L198,759L195,759L191,760L188,760L186,760L183,760L180,759L177,757L175,755L172,752L170,749L167,746L165,742L162,739L160,735L159,732L157,728L156,725L155,721L154,717L153,711L152,706L150,699L149,692L148,685L146,677L145,669L144,660L144,646" stroke-opacity="1" stroke-width="5" stroke-linecap="round" stroke-linejoin="round" style="-webkit-tap-highlight-color: rgba(0, 0, 0, 0); stroke-opacity: 1; stroke-linecap: round; stroke-linejoin: round; -webkit-user-select: text;"></path><path fill="none" stroke="#000000" d="M141,619L140,610L140,607L140,602L139,596L138,591L137,585L136,578L135,572L134,566L133,561L132,554L131,548L130,543L129,536L127,530L125,523L124,516L122,510L121,504L120,497L120,489L120,482" stroke-opacity="1" stroke-width="5" stroke-linecap="round" stroke-linejoin="round" style="-webkit-tap-highlight-color: rgba(0, 0, 0, 0); stroke-opacity: 1; stroke-linecap: round; stroke-linejoin: round; -webkit-user-select: text;"></path><path fill="none" stroke="#000000" d="M120,477L117,471L117,468L117,465L117,462L117,458L118,454L119,450L120,446L121,441L123,436L125,430L127,425L129,420L131,416L133,411L135,407L137,404L139,402L142,399L144,397L146,396L148,394L151,393L154,392L157,392L161,391L164,391L167,391L171,391L174,391L178,391L182,391L186,391L190,392L194,393L198,394L203,396L208,397L212,398L216,400L220,402L225,403L229,405L233,407L239,409L244,411L249,414L254,416L261,419L268,421L276,425L284,430L293,435L303,441" stroke-opacity="1" stroke-width="5" stroke-linecap="round" stroke-linejoin="round" style="-webkit-tap-highlight-color: rgba(0, 0, 0, 0); stroke-opacity: 1; stroke-linecap: round; stroke-linejoin: round; -webkit-user-select: text;"></path><path fill="none" stroke="#000000" d="M317,451L323,458L324,458L326,460L328,461L329,463L331,465L334,467L336,470L338,472L339,474L341,477L342,479L344,482L345,484L346,488L348,491L349,495L349,498L350,502L350,506L351,509L351,513L351,518L351,522L351,527L351,532L351,536L349,542L347,547L345,552L343,557L340,562L336,567L333,573L329,578L324,584L319,589L314,595L308,601L303,606L298,612L292,618L285,625L278,631L271,639L263,647L255,656L246,664L236,676" stroke-opacity="1" stroke-width="5" stroke-linecap="round" stroke-linejoin="round" style="-webkit-tap-highlight-color: rgba(0, 0, 0, 0); stroke-opacity: 1; stroke-linecap: round; stroke-linejoin: round; -webkit-user-select: text;"></path><path fill="none" stroke="#000000" d="M233,675L228,681L226,682L224,684L222,685L219,687L216,689L212,691L208,692L204,695L200,698L196,701L191,703L186,706L179,709L173,712L167,716L161,721L153,726" stroke-opacity="1" stroke-width="5" stroke-linecap="round" stroke-linejoin="round" style="-webkit-tap-highlight-color: rgba(0, 0, 0, 0); stroke-opacity: 1; stroke-linecap: round; stroke-linejoin: round; -webkit-user-select: text;"></path><path fill="none" stroke="#000000" d="M127,732L122,734L120,734L118,734L115,734L111,734L108,734L104,734L101,734L98,734L95,734L92,732L89,730L86,728L83,725L79,723L76,719L73,715L70,711L68,706L65,701L64,696L62,692L60,687L59,683L58,677L57,672L57,667L57,662L57,655L57,648L57,642L58,635L59,628L59,620L60,614L61,607L61,600L62,591L62,582L63,572L64,562L66,551L68,540L71,529L73,518" stroke-opacity="1" stroke-width="5" stroke-linecap="round" stroke-linejoin="round" style="-webkit-tap-highlight-color: rgba(0, 0, 0, 0); stroke-opacity: 1; stroke-linecap: round; stroke-linejoin: round; -webkit-user-select: text;"></path><path fill="none" stroke="#000000" d="M83,501L85,494L85,492L85,489L85,487L85,484L85,482L85,479L85,476L85,474L85,471L85,469L86,466L87,462L88,460L90,456L92,453L93,450L96,446L98,443L101,438L103,435L106,431L108,428L112,424L115,420L118,416L121,411L125,408L129,404L132,400L137,397L140,394L144,390L149,387L154,384L158,382L162,380L166,378L171,377L176,376L180,375L185,375L190,375L195,374L199,374L204,374L208,374L212,374L216,374L220,375L224,375L228,377L232,379L236,381L240,383L245,386L249,389L256,393L263,399L273,408L284,420" stroke-opacity="1" stroke-width="5" stroke-linecap="round" stroke-linejoin="round" style="-webkit-tap-highlight-color: rgba(0, 0, 0, 0); stroke-opacity: 1; stroke-linecap: round; stroke-linejoin: round; -webkit-user-select: text;"></path></svg>