<svg height="612" version="1.1" width="1154" xmlns="http://www.w3.org/2000/svg" xmlns:xlink="http://www.w3.org/1999/xlink" style="overflow: hidden; position: relative; user-select: text;"><desc style="-webkit-tap-highlight-color: rgba(0, 0, 0, 0); user-select: text;">Created with Raphaël 2.2.0</desc><defs style="-webkit-tap-highlight-color: rgba(0, 0, 0, 0); user-select: text;"></defs><path fill="none" stroke="#ff0000" d="M240,174L242,174L245,172L256,165L282,147L303,133L314,125L328,116L339,110L347,105L355,100L362,96L366,93L370,91L372,89L374,88L375,88L375,88L376,88L376,88" stroke-opacity="1" stroke-width="5" stroke-linecap="round" stroke-linejoin="round" style="-webkit-tap-highlight-color: rgba(0, 0, 0, 0); stroke-opacity: 1; stroke-linecap: round; stroke-linejoin: round; user-select: text;"></path><path fill="none" stroke="#ff0000" d="M258,184L257,184L259,184L268,184L296,184L336,184L388,184L411,184L433,184L440,184L445,184L447,184L448,184L448,184" stroke-opacity="1" stroke-width="5" stroke-linecap="round" stroke-linejoin="round" style="-webkit-tap-highlight-color: rgba(0, 0, 0, 0); stroke-opacity: 1; stroke-linecap: round; stroke-linejoin: round; user-select: text;"></path><path fill="none" stroke="#ff0000" d="M258,204L259,204L259,204L261,204L266,204L278,203L294,206L322,216L343,224L363,234L384,244L405,255L418,261L432,266L439,268L446,269L449,269L450,269L451,269L451,269L452,269" stroke-opacity="1" stroke-width="5" stroke-linecap="round" stroke-linejoin="round" style="-webkit-tap-highlight-color: rgba(0, 0, 0, 0); stroke-opacity: 1; stroke-linecap: round; stroke-linejoin: round; user-select: text;"></path><path fill="none" stroke="#ff0000" d="M249,223L249,223L250,223L258,223L271,227L286,236L296,244L309,254L322,270L329,280L340,297L346,306L349,310L352,314L355,316L356,317L357,317L357,318L357,318L357,318L358,318" stroke-opacity="1" stroke-width="5" stroke-linecap="round" stroke-linejoin="round" style="-webkit-tap-highlight-color: rgba(0, 0, 0, 0); stroke-opacity: 1; stroke-linecap: round; stroke-linejoin: round; user-select: text;"></path><path fill="none" stroke="#ff0000" d="M232,246L232,245L232,245L233,246L234,247L239,257L244,267L248,278L252,293L256,307L260,322L263,333L264,340L265,347L265,352L265,355L265,357L265,359L265,359L265,360L265,360" stroke-opacity="1" stroke-width="5" stroke-linecap="round" stroke-linejoin="round" style="-webkit-tap-highlight-color: rgba(0, 0, 0, 0); stroke-opacity: 1; stroke-linecap: round; stroke-linejoin: round; user-select: text;"></path><path fill="none" stroke="#ff0000" d="M197,250L198,250L197,251L196,252L195,254L190,260L182,271L175,279L166,289L157,297L147,308L143,312L138,316L134,320L131,323L128,326L125,329L123,332L121,334L119,336L118,338L116,340L115,341L114,342L114,343L113,344" stroke-opacity="1" stroke-width="5" stroke-linecap="round" stroke-linejoin="round" style="-webkit-tap-highlight-color: rgba(0, 0, 0, 0); stroke-opacity: 1; stroke-linecap: round; stroke-linejoin: round; user-select: text;"></path><path fill="none" stroke="#ff0000" d="M172,227L170,227L162,227L149,229L129,232L115,236L99,239L87,242L80,244L74,245L69,246L64,248L62,249L58,251L56,252L54,253L52,254L51,254L50,255L49,256L48,256" stroke-opacity="1" stroke-width="5" stroke-linecap="round" stroke-linejoin="round" style="-webkit-tap-highlight-color: rgba(0, 0, 0, 0); stroke-opacity: 1; stroke-linecap: round; stroke-linejoin: round; user-select: text;"></path><path fill="none" stroke="#ff0000" d="M157,188L156,188L151,188L143,188L130,187L115,187L103,186L93,186L85,186L80,186L76,186L71,186L68,186L65,186L62,186L59,186L56,187L52,188L49,188L46,189L44,189L43,189L42,189" stroke-opacity="1" stroke-width="5" stroke-linecap="round" stroke-linejoin="round" style="-webkit-tap-highlight-color: rgba(0, 0, 0, 0); stroke-opacity: 1; stroke-linecap: round; stroke-linejoin: round; user-select: text;"></path><path fill="none" stroke="#ff0000" d="M175,166L175,166L173,160L167,148L150,118L137,99L134,95L125,83L119,76L116,74L115,72L114,72L114,72L114,71L113,71L112,71L111,71L110,71L109,70L109,70L109,70" stroke-opacity="1" stroke-width="5" stroke-linecap="round" stroke-linejoin="round" style="-webkit-tap-highlight-color: rgba(0, 0, 0, 0); stroke-opacity: 1; stroke-linecap: round; stroke-linejoin: round; user-select: text;"></path><path fill="none" stroke="#ff0000" d="M217,162L217,162L217,161L217,156L219,144L222,127L227,102L228,84L229,64L229,54L229,45L229,41L229,39L229,39L229,39L229,39L229,40" stroke-opacity="1" stroke-width="5" stroke-linecap="round" stroke-linejoin="round" style="-webkit-tap-highlight-color: rgba(0, 0, 0, 0); stroke-opacity: 1; stroke-linecap: round; stroke-linejoin: round; user-select: text;"></path></svg>