<svg height="612" version="1.1" width="1154" xmlns="http://www.w3.org/2000/svg" xmlns:xlink="http://www.w3.org/1999/xlink" style="overflow: hidden; position: relative; user-select: text;"><desc style="-webkit-tap-highlight-color: rgba(0, 0, 0, 0); user-select: text;">Created with Raphaël 2.2.0</desc><defs style="-webkit-tap-highlight-color: rgba(0, 0, 0, 0); user-select: text;"></defs><path fill="none" stroke="#ff0000" d="M58,92L57,92L59,92L68,92L90,92L118,92L151,92L170,92L202,92L218,93L229,95L239,98L244,100L249,102L252,103L254,104L254,104L255,104" stroke-opacity="1" stroke-width="5" stroke-linecap="round" stroke-linejoin="round" style="-webkit-tap-highlight-color: rgba(0, 0, 0, 0); stroke-opacity: 1; stroke-linecap: round; stroke-linejoin: round; user-select: text;"></path><path fill="none" stroke="#ff0000" d="M67,166L67,166L71,166L75,166L89,165L109,163L124,163L143,163L157,165L168,170L182,179L189,185L195,191L200,197L203,201L207,207L210,210L212,214L214,218L215,220L215,224L215,227L214,231L213,235L209,241L208,245L206,248L205,249L205,251L205,251L204,252L204,252" stroke-opacity="1" stroke-width="5" stroke-linecap="round" stroke-linejoin="round" style="-webkit-tap-highlight-color: rgba(0, 0, 0, 0); stroke-opacity: 1; stroke-linecap: round; stroke-linejoin: round; user-select: text;"></path><path fill="none" stroke="#ff0000" d="M110,243L109,244L108,245L106,250L101,260L99,266L98,272L97,276L97,280L97,285L99,290L103,297L110,304L118,313L127,320L137,327L149,333L163,339L185,345L194,346L211,349L220,350L225,350L227,350L228,350L228,350" stroke-opacity="1" stroke-width="5" stroke-linecap="round" stroke-linejoin="round" style="-webkit-tap-highlight-color: rgba(0, 0, 0, 0); stroke-opacity: 1; stroke-linecap: round; stroke-linejoin: round; user-select: text;"></path><path fill="none" stroke="#ff0000" d="M466,261L466,261L466,267L466,275L465,286L465,299L465,308L467,316L472,322L480,328L488,332L499,336L510,338L531,340L546,340L562,340L576,336L589,331L598,326L604,321L606,315L607,307L607,300L601,290L597,282L591,274L587,269L583,261L578,255L575,251L573,248L570,246L566,244L561,242L553,241L543,239L531,237L523,236L514,235L507,235L500,235L493,235L486,236L482,237L479,239L476,241L474,243L472,245L470,248L468,251L467,253L465,256L463,258L462,260L461,260L460,260L460,261L459,262L459,263L459,263" stroke-opacity="1" stroke-width="5" stroke-linecap="round" stroke-linejoin="round" style="-webkit-tap-highlight-color: rgba(0, 0, 0, 0); stroke-opacity: 1; stroke-linecap: round; stroke-linejoin: round; user-select: text;"></path></svg>