<svg height="446" version="1.1" width="1127" xmlns="http://www.w3.org/2000/svg" xmlns:xlink="http://www.w3.org/1999/xlink" style="overflow: hidden; position: relative; user-select: text;"><desc style="-webkit-tap-highlight-color: rgba(0, 0, 0, 0); user-select: text;">Created with Raphaël 2.2.0</desc><defs style="-webkit-tap-highlight-color: rgba(0, 0, 0, 0); user-select: text;"></defs><path fill="none" stroke="#000000" d="M352,230L352,229L352,229L353,229L353,228L353,228L354,227L354,227L354,227L354,226L354,226L354,226L355,226L355,225L355,225L356,225L356,225L356,225L356,224L357,224L357,224L357,224L358,224L358,223L358,223L358,223L359,223L359,223L359,223L360,223L360,223L361,223L361,223L361,223L362,223L362,223L362,223L363,223L363,223L364,223L364,223L364,223L365,223L365,223L365,223L366,223L366,223L366,223L366,223L367,223L367,223L368,223L368,223L369,223L369,223L369,224L369,224L370,224L370,224L370,225L371,225L371,225L371,226L372,226L372,226L372,227L372,227L373,227L373,227L373,228L374,228L374,228L374,228L374,229L374,229L375,230L375,230L375,230L375,230L375,231L375,231L375,231L375,231L376,232L376,232L376,232L376,233L376,233L376,233L376,234L376,234L376,234L376,235L377,235L377,235L377,236L377,236L377,236L377,237L377,237L377,237L377,238L377,238L377,238L377,239L377,239L377,239L377,240L377,240L377,240L377,241L377,241L377,241L377,242L377,242L377,242L377,243L377,243L377,243L377,244L377,244L377,244L377,245L377,245L377,246L377,246L377,246L377,247L377,247L377,248L377,248L377,249L377,249L377,249L377,250L377,250L377,251L377,251L377,252L377,252L377,253L376,254L376,254L376,255L376,255L376,255L376,256L376,256L376,257L375,258L375,259L375,259L374,260L374,261L374,262L374,262L374,263L373,264L373,265L373,265L373,266L372,267L372,267L372,268L371,268L371,268L371,269L371,269L371,269L370,270L370,270L369,271L369,271L368,272L368,272L368,272L367,273L367,273L366,273L366,273L365,273L365,274L365,274L364,274L364,275L364,275L363,275L363,275L362,275L362,275L361,276L361,276L360,276L360,276L360,276L359,276L359,276L358,276L358,276L357,276L357,276L356,276L355,276L355,276L354,276L354,276L354,276L353,277L352,277L351,277L351,277L350,277L350,277L350,277L349,277L349,277L348,277L348,277L347,277L347,277L346,277L346,277L346,277L345,277L345,277L344,277L344,277L343,276L343,276L343,276L342,276L341,275L341,275L340,275L340,275L340,274L339,274L339,274L338,274L338,273L338,273L338,273L337,273L337,272L337,272L337,272L336,272L336,271L336,271L335,271L335,271L335,270L335,270L334,270L334,269L334,269L334,269L334,269L334,269L334,268L333,268L333,268L333,268L333,267L333,267" stroke-opacity="1" stroke-width="5" stroke-linecap="round" stroke-linejoin="round" style="-webkit-tap-highlight-color: rgba(0, 0, 0, 0); stroke-opacity: 1; stroke-linecap: round; stroke-linejoin: round; user-select: text;"></path><path fill="none" stroke="#000000" d="M326,260L325,260L325,260L324,259L323,259L321,257L320,256L319,255L317,254L315,252L314,251L314,250L313,249L312,248L311,247L310,246L309,245L309,244L307,242L307,241L306,240L305,239L304,238L304,238L303,236L302,236L301,235L300,234L300,233L299,232L298,232L297,231L297,230L296,230L296,229L295,229L294,228L293,227L293,227L292,226L292,226L292,226L291,225L291,225L290,224L290,224L289,223L288,223L288,222L288,222L287,222L287,222L287,221L287,221L287,221L286,220L286,220L286,220L285,219" stroke-opacity="1" stroke-width="5" stroke-linecap="round" stroke-linejoin="round" style="-webkit-tap-highlight-color: rgba(0, 0, 0, 0); stroke-opacity: 1; stroke-linecap: round; stroke-linejoin: round; user-select: text;"></path><path fill="none" stroke="#000000" d="M281,215L281,215L280,214L280,213L279,212L279,211L278,210L277,208L277,207L276,205L276,203L275,202L275,201L274,200L274,198L274,197L273,196L273,195L273,195L273,194L273,193L273,192L273,191L273,190L273,190L273,189L273,189L273,188L273,188L273,187L273,186L273,186L274,185L274,185L274,185L274,184L274,184L274,184L275,184L275,183L275,183L276,182L277,181L277,181L277,181L278,181L278,181L278,181L279,181L280,180L280,180L281,179L282,179L282,179L282,179L283,179L283,179L283,179L284,179L284,179L285,179L285,179L285,179L286,179L286,179L287,179L287,179L287,179L288,179L289,179L289,179L290,179L291,179L291,179L292,179L292,179L293,179L293,179L294,179L294,179L295,179L295,179L296,179L297,179L297,179L298,179L298,179L299,179L300,179L300,179L301,179L302,179L302,179L303,179L304,179L304,179L305,179L306,179L306,179L307,179L308,179L308,179L309,179L310,179L311,179L312,179L312,179L313,179L314,179L315,179L315,179L316,179L317,179L318,179L318,179L319,179L320,179L321,179L321,179L322,179L322,179L323,180L323,180L323,180L324,180L324,180L324,180L324,180" stroke-opacity="1" stroke-width="5" stroke-linecap="round" stroke-linejoin="round" style="-webkit-tap-highlight-color: rgba(0, 0, 0, 0); stroke-opacity: 1; stroke-linecap: round; stroke-linejoin: round; user-select: text;"></path><path fill="none" stroke="#000000" d="M334,178L335,178L335,178L336,178L336,178L337,178L338,178L339,178L340,178L341,178L344,178L344,178L346,178L347,178L348,178L349,179L350,179L351,179L352,179L353,179L355,179L356,180L357,180L358,180L358,180L359,180L360,180L361,180L362,180L362,180L363,180L364,180L364,180L364,180L364,180L366,180L367,180L368,181L368,181L369,181L370,182L372,182L373,182L373,182L374,182L375,182L376,183L377,183L378,183L379,183L382,183L383,183L384,183L385,184L386,184L387,184L388,184L389,184L390,185L391,185L392,185L394,186L395,186L395,186L396,186L397,187L398,187L398,187L399,187L398,187" stroke-opacity="1" stroke-width="5" stroke-linecap="round" stroke-linejoin="round" style="-webkit-tap-highlight-color: rgba(0, 0, 0, 0); stroke-opacity: 1; stroke-linecap: round; stroke-linejoin: round; user-select: text;"></path><path fill="none" stroke="#000000" d="M409,192L409,192L410,192L410,192L411,192L412,192L412,192L413,192L414,192L415,192L416,193L417,193L418,194L420,195L421,195L422,195L423,195L425,195L426,195L428,195L429,195L430,195L432,195L434,194L435,194L437,193L438,193L439,192L441,191L442,190L444,190L445,189L446,188L447,188L448,187L449,186L449,185L451,185L452,184L453,183L454,182L455,181L456,180L457,179L458,178L459,177L459,176L460,175L460,174L461,173L461,172L461,171L462,169L462,168L462,166L463,165L463,163L463,161L463,159L463,156L463,154L463,151L462,148L462,147L461,145L461,144L460,143L460,142L459,141L458,140L457,140L457,139L456,138L455,137L454,137L453,136L452,135L451,135L450,134L449,133L449,133L448,133L447,133L446,132L444,131L444,131L443,131L442,131L442,131L441,131L440,130L438,130L437,130L436,130L435,130L434,130L433,130L432,130L432,130L430,130L430,130L429,130L428,130L428,130L427,130L426,130L426,130L425,130L424,130L423,130L422,130L421,131L420,131L420,131L419,131L418,131L417,131L417,131L416,131L415,131L415,132L414,132L413,132L412,132L411,132L411,132L410,132L410,132L410,132L410,133L410,134" stroke-opacity="1" stroke-width="5" stroke-linecap="round" stroke-linejoin="round" style="-webkit-tap-highlight-color: rgba(0, 0, 0, 0); stroke-opacity: 1; stroke-linecap: round; stroke-linejoin: round; user-select: text;"></path><path fill="none" stroke="#000000" d="M400,137L399,137L399,137L398,137L397,137L395,137L393,137L391,138L390,138L389,139L386,140L384,141L383,142L381,142L379,143L378,144L376,144L374,145L372,146L370,146L368,147L367,147L365,148L363,148L362,149L359,150L357,151L355,151L353,152L351,152L349,153L347,154L345,155L343,156L340,156L338,157L337,158L335,158L334,159L332,159L330,160L329,160L327,161L325,162L324,162L323,163L322,163L321,163L319,164L318,164L317,165L316,165L315,166L314,166L313,166L312,167L311,167L310,167L310,167L309,167L309,167L308,168L308,168L307,168L307,168L307,168L306,168L306,168" stroke-opacity="1" stroke-width="5" stroke-linecap="round" stroke-linejoin="round" style="-webkit-tap-highlight-color: rgba(0, 0, 0, 0); stroke-opacity: 1; stroke-linecap: round; stroke-linejoin: round; user-select: text;"></path><path fill="none" stroke="#000000" d="M298,173L298,173L298,173L298,174L297,175L297,176L296,178L295,179L295,181L295,183L294,184L294,186L294,187L293,188L293,188L293,189L293,191L293,192L293,194L293,195L293,195L293,196L293,197L293,197L293,198L293,199L293,200L293,201L293,201L293,202L293,203L294,204L294,204L295,206L295,206L296,207L296,207L297,208L297,208L298,209L298,210L299,211L300,211L301,212L301,212L302,213L303,214L303,214L305,215L305,216L306,216L307,217L308,217L309,218L310,218L310,218L311,219L312,219L313,219L314,220L314,220L315,220L316,220L317,220L317,220L318,220L319,220L320,221L321,221L321,221L322,221L322,221L323,221L324,221L325,221L326,221L326,221L327,221L328,221L329,221L330,221L330,221L331,221L332,221L332,221L333,221L333,220L334,220L334,220L334,220" stroke-opacity="1" stroke-width="5" stroke-linecap="round" stroke-linejoin="round" style="-webkit-tap-highlight-color: rgba(0, 0, 0, 0); stroke-opacity: 1; stroke-linecap: round; stroke-linejoin: round; user-select: text;"></path><path fill="none" stroke="#000000" d="M340,218L340,218L341,218L343,218L343,218L345,218L347,218L348,218L350,218L353,217L354,217L357,216L358,215L360,215L363,214L365,213L368,212L371,211L372,210L375,210L376,209L379,208L381,208L383,207L385,206L388,205L390,205L393,204L395,204L398,204L400,204L402,203L403,203L405,202L407,202L409,202L410,202L412,201L413,201L415,201L417,200L418,200L419,200L421,200L422,200L424,200L425,200L426,200L428,200L429,199L430,199L431,199L432,199L432,199L433,199L433,199L433,198L432,197L431,196" stroke-opacity="1" stroke-width="5" stroke-linecap="round" stroke-linejoin="round" style="-webkit-tap-highlight-color: rgba(0, 0, 0, 0); stroke-opacity: 1; stroke-linecap: round; stroke-linejoin: round; user-select: text;"></path><path fill="none" stroke="#000000" d="M449,193L449,193L450,192L451,191L453,190L454,189L455,188L456,187L457,186L459,184L460,183L461,183L462,182L462,181L463,181L464,180L464,179L464,178L465,178L465,177L465,177L465,176L465,176L465,175L465,174L465,172L464,171L464,170L464,169L463,169L463,168L462,167L461,166L460,165L460,164L459,163L459,163L458,162L457,161L457,160L456,159L455,159L455,158L454,158L453,157L452,157L450,156L450,155L448,155L447,154L446,154L445,153L443,153L442,153L441,153L440,152L439,152L438,152L437,152L436,152L434,152L433,152L432,152L430,152L429,152L427,152L426,152L424,152L423,153L421,153L420,153L418,154L417,154L415,154L414,155L413,155L413,155L412,155L412,155L412,156L412,156L411,156L411,156L411,157" stroke-opacity="1" stroke-width="5" stroke-linecap="round" stroke-linejoin="round" style="-webkit-tap-highlight-color: rgba(0, 0, 0, 0); stroke-opacity: 1; stroke-linecap: round; stroke-linejoin: round; user-select: text;"></path><path fill="none" stroke="#000000" d="M397,160L397,160L396,160L396,160L394,160L392,161L391,162L389,163L387,165L385,166L384,168L381,170L380,171L378,172L376,172L374,173L373,174L371,175L370,175L368,176L366,177L364,178L363,178L361,178L360,179L358,180L356,180L354,181L352,182L351,182L350,183L349,183L347,184L346,184L345,185L342,187L341,188L339,188L338,189L337,190L336,191L335,192L333,192L333,193L332,193L332,194L331,194L331,195L330,195L330,196L329,196L329,197L329,197" stroke-opacity="1" stroke-width="5" stroke-linecap="round" stroke-linejoin="round" style="-webkit-tap-highlight-color: rgba(0, 0, 0, 0); stroke-opacity: 1; stroke-linecap: round; stroke-linejoin: round; user-select: text;"></path><path fill="none" stroke="#000000" d="M322,208L322,207L322,208L322,210L322,213L322,218L322,222L322,225L322,228L322,230L322,232L322,234L322,235L322,237L322,239L322,243L322,246L323,249L323,252L324,254L324,257L325,258L326,261L327,263L328,265L329,267L330,269L331,271L332,272L332,272L335,274L336,275L337,276L338,277L339,278L341,279L343,280L345,281L346,282L348,283L349,284L351,285L352,286L354,287L355,287L357,288L360,290L361,290L362,290L363,290L364,291L366,291L367,291L369,291L369,291L372,292L373,292L375,292L377,292L378,292L380,292L382,292L382,292L382,292L382,291L382,289L382,286" stroke-opacity="1" stroke-width="5" stroke-linecap="round" stroke-linejoin="round" style="-webkit-tap-highlight-color: rgba(0, 0, 0, 0); stroke-opacity: 1; stroke-linecap: round; stroke-linejoin: round; user-select: text;"></path><path fill="none" stroke="#000000" d="M393,284L394,284L396,283L398,281L400,279L402,278L403,277L404,277L404,276L405,276L406,275L407,275L408,274L409,274L410,273L411,273L413,272L414,272L415,271L418,270L419,269L420,269L421,268L422,267L424,267L425,266L427,266L428,265L431,264L432,263L434,262L436,261L438,260L439,260L441,259L443,258L444,258L445,257L447,256L448,255L450,254L451,254L453,253L454,253L456,252L457,251L459,250L461,249L463,249L464,248L466,247L468,246L469,245L470,244L471,244L472,243L473,243L473,243L474,243L474,243" stroke-opacity="1" stroke-width="5" stroke-linecap="round" stroke-linejoin="round" style="-webkit-tap-highlight-color: rgba(0, 0, 0, 0); stroke-opacity: 1; stroke-linecap: round; stroke-linejoin: round; user-select: text;"></path><path fill="none" stroke="#000000" d="M481,235L482,235L482,235L483,235L485,235L486,235L487,235L489,234L490,233L491,233L491,231L492,230L493,229L495,227L497,225L498,224L499,223L500,222L501,221L502,219L503,218L504,215L505,214L506,212L506,210L507,208L507,206L507,204L507,201L507,198L507,196L507,194L507,192L507,191L507,190L507,188L506,186L506,185L505,184L504,183L503,182L503,181L502,180L501,180L499,179L498,179L497,179L496,179L495,179L494,178L492,178L490,178L489,178L488,178L487,178L486,178L484,178L483,178L482,178L481,178L480,178L479,178L478,178L477,178L476,179L475,179L473,180L473,180L472,180L471,181L470,181L468,181L467,182L466,182L465,182L464,183L462,184L460,185L459,185L458,185L457,186L456,186L454,186L452,187L451,187L449,187L448,188L446,188L445,188L443,189L441,189L439,190L437,191L435,192L434,192L433,193L432,193L430,193L429,194L428,194L427,194L426,194L426,194L426,194L426,195L426,195" stroke-opacity="1" stroke-width="5" stroke-linecap="round" stroke-linejoin="round" style="-webkit-tap-highlight-color: rgba(0, 0, 0, 0); stroke-opacity: 1; stroke-linecap: round; stroke-linejoin: round; user-select: text;"></path><path fill="none" stroke="#000000" d="M417,204L417,204L416,204L414,205L412,206L410,208L408,210L404,213L401,216L398,218L395,220L392,222L389,224L385,226L379,229L377,230L374,232L370,234L368,235L365,236L363,238L361,239L359,240L357,241L355,242L353,243L352,244L351,245L349,246L348,246L348,247L347,247L346,248L345,248L345,248L345,248" stroke-opacity="1" stroke-width="5" stroke-linecap="round" stroke-linejoin="round" style="-webkit-tap-highlight-color: rgba(0, 0, 0, 0); stroke-opacity: 1; stroke-linecap: round; stroke-linejoin: round; user-select: text;"></path><path fill="none" stroke="#000000" d="M333,257L333,257L333,258L332,260L331,261L330,262L328,266L328,267L327,270L326,272L324,274L323,277L322,280L321,282L320,283L320,284L319,286L319,287L319,288L318,291L318,293L318,295L318,297L318,299L318,301L318,302L318,304L319,307L321,309L322,310L323,312L325,313L327,315L328,316L329,317L331,319L333,320L334,320L335,321L336,321L337,322L338,322L339,322L341,322L342,322L343,322L344,322L346,322L347,322L349,322L350,322L353,322L355,322L357,322L359,322L361,322L363,321L367,320L369,320L372,320L374,320L376,319L378,319L380,318L382,318L384,317L387,317L389,316L391,315L393,315L394,314L395,314L396,314L396,314L396,313L396,310" stroke-opacity="1" stroke-width="5" stroke-linecap="round" stroke-linejoin="round" style="-webkit-tap-highlight-color: rgba(0, 0, 0, 0); stroke-opacity: 1; stroke-linecap: round; stroke-linejoin: round; user-select: text;"></path><path fill="none" stroke="#000000" d="M408,307L408,307L409,307L411,307L414,306L416,306L419,305L421,304L424,303L426,302L428,301L430,300L432,299L433,299L435,299L437,299L438,298L440,298L441,298L443,297L444,297L446,296L447,296L448,296L449,295L450,295L451,295L451,295L452,295L452,295L452,294L452,294" stroke-opacity="1" stroke-width="5" stroke-linecap="round" stroke-linejoin="round" style="-webkit-tap-highlight-color: rgba(0, 0, 0, 0); stroke-opacity: 1; stroke-linecap: round; stroke-linejoin: round; user-select: text;"></path><path fill="none" stroke="#000000" d="M460,287L461,287L462,286L464,285L466,284L468,283L470,281L471,280L471,280L472,279L473,278L473,277L473,276L474,275L474,274L474,273L474,272L474,270L474,268L474,266L474,263L474,261L474,257L474,255L473,253L472,252L471,250L470,248L470,247L468,245L467,244L467,243L465,243L464,242L463,241L462,240L461,240L459,239L458,239L456,238L454,238L453,237L451,237L450,237L449,237L447,237L446,236L444,236L443,236L442,236L441,236L440,236L439,236L436,236L435,236L434,236L433,236L431,236L430,236L429,236L428,236L426,236L425,236L425,236L424,236L424,236L423,236L423,236L423,236L424,236" stroke-opacity="1" stroke-width="5" stroke-linecap="round" stroke-linejoin="round" style="-webkit-tap-highlight-color: rgba(0, 0, 0, 0); stroke-opacity: 1; stroke-linecap: round; stroke-linejoin: round; user-select: text;"></path><path fill="none" stroke="#000000" d="M407,238L406,238L405,238L403,238L400,238L396,238L393,238L390,238L386,238L383,238L379,238L376,238L373,238L368,238L366,239L363,239L361,240L358,240L355,241L352,241L348,242L346,243L343,243L341,244L339,244L336,245L334,245L331,245L329,246L325,246L323,247L322,247L320,247L319,247L318,247L317,247L317,247L317,247L317,248" stroke-opacity="1" stroke-width="5" stroke-linecap="round" stroke-linejoin="round" style="-webkit-tap-highlight-color: rgba(0, 0, 0, 0); stroke-opacity: 1; stroke-linecap: round; stroke-linejoin: round; user-select: text;"></path><path fill="none" stroke="#000000" d="M304,248L304,248L303,248L302,248L299,248L297,248L295,248L293,248L290,248L287,248L284,248L280,250L277,251L275,251L273,253L270,254L268,255L266,256L264,257L261,259L260,260L258,261L256,262L255,264L253,265L252,267L250,268L249,270L248,272L247,274L246,276L245,278L244,280L244,282L243,284L243,286L242,288L242,290L242,293L242,295L242,297L242,300L242,301L243,304L243,306L244,308L245,309L246,310L248,312L249,313L251,314L252,315L254,316L255,317L256,317L258,318L259,318L260,319L261,319L263,320L264,320L266,321L267,321L269,322L271,322L272,322L275,323L277,323L279,324L281,325L283,325L285,326L286,326L288,326L289,326L290,326L291,326L291,327L292,327" stroke-opacity="1" stroke-width="5" stroke-linecap="round" stroke-linejoin="round" style="-webkit-tap-highlight-color: rgba(0, 0, 0, 0); stroke-opacity: 1; stroke-linecap: round; stroke-linejoin: round; user-select: text;"></path><path fill="none" stroke="#000000" d="M292,327L292,327L294,327L298,328L301,330L305,331L310,332L313,333L318,334L320,335L322,336L325,337L327,337L329,338L331,339L332,339L335,340L337,340L339,340L341,340L343,341L345,341L347,342L349,342L351,343L353,343L355,344L356,344L358,344L359,345L361,345L363,346L364,347L367,347L368,347L370,347L371,348L373,348L374,349L376,349L378,349L380,350L381,350L382,350L384,350L384,351L385,351L386,351L387,351L387,351L386,350L384,348" stroke-opacity="1" stroke-width="5" stroke-linecap="round" stroke-linejoin="round" style="-webkit-tap-highlight-color: rgba(0, 0, 0, 0); stroke-opacity: 1; stroke-linecap: round; stroke-linejoin: round; user-select: text;"></path><path fill="none" stroke="#000000" d="M395,353L395,353L397,353L398,353L399,353L400,353L402,353L403,353L405,353L407,354L410,354L411,354L413,354L415,355L417,355L418,355L420,355L422,355L424,356L426,356L427,356L428,356L429,356L431,356L432,355L433,354L435,353L437,351L439,350L441,348L442,347L444,346L445,345L447,343L447,341L448,340L448,339L449,338L449,337L450,336L450,335L450,334L451,332L451,330L451,329L451,327L451,326L451,325L451,323L451,320L449,317L448,315L447,313L446,312L445,310L444,308L443,307L442,304L441,302L440,300L439,299L438,298L436,296L436,295L435,293L433,291L432,289L431,288L429,287L428,285L427,284L426,283L424,282L423,281L422,280L422,280L421,279L421,279L420,278L420,278L420,278L420,278L420,277L420,277L419,276L419,276L419,275" stroke-opacity="1" stroke-width="5" stroke-linecap="round" stroke-linejoin="round" style="-webkit-tap-highlight-color: rgba(0, 0, 0, 0); stroke-opacity: 1; stroke-linecap: round; stroke-linejoin: round; user-select: text;"></path><path fill="none" stroke="#000000" d="M408,262L407,262L406,261L404,258L402,256L399,253L396,249L391,243L389,240L387,237L384,234L382,232L379,230L378,228L376,227L374,225L371,223L370,222L368,220L367,219L365,218L364,217L363,215L361,213L359,211L357,210L355,208L354,206L353,204L352,203L351,202L350,200L349,199L348,198L348,198L347,198L347,197L347,197" stroke-opacity="1" stroke-width="5" stroke-linecap="round" stroke-linejoin="round" style="-webkit-tap-highlight-color: rgba(0, 0, 0, 0); stroke-opacity: 1; stroke-linecap: round; stroke-linejoin: round; user-select: text;"></path><path fill="none" stroke="#000000" d="M341,191L341,191L339,190L337,189L335,187L332,185L329,183L325,181L321,178L318,177L316,176L313,175L311,174L310,173L308,172L307,171L305,170L304,169L302,169L301,169L299,169L297,169L296,169L295,169L293,169L291,169L289,170L288,171L286,171L284,172L283,173L281,174L280,175L278,176L277,177L276,178L274,179L273,181L272,183L271,184L271,186L270,188L270,189L269,191L268,194L268,197L267,200L266,202L266,205L265,208L265,210L265,212L265,214L265,216L265,217L265,219L266,221L266,222L267,224L268,226L269,228L270,230L271,232L272,235L273,238L274,241L276,245L276,248L277,251L278,254L278,257L279,260L280,262L281,263L281,265L282,267L283,268L283,269L284,270L284,271L285,272L285,272L285,272" stroke-opacity="1" stroke-width="5" stroke-linecap="round" stroke-linejoin="round" style="-webkit-tap-highlight-color: rgba(0, 0, 0, 0); stroke-opacity: 1; stroke-linecap: round; stroke-linejoin: round; user-select: text;"></path><path fill="none" stroke="#000000" d="M287,284L287,285L287,286L287,288L287,291L287,295L288,298L290,302L290,305L293,312L295,316L297,320L298,323L299,327L301,329L302,332L304,335L305,338L306,339L307,341L308,342L309,344L310,345L310,346L311,347L312,348L312,348L312,349L312,348L312,346L312,345" stroke-opacity="1" stroke-width="5" stroke-linecap="round" stroke-linejoin="round" style="-webkit-tap-highlight-color: rgba(0, 0, 0, 0); stroke-opacity: 1; stroke-linecap: round; stroke-linejoin: round; user-select: text;"></path><path fill="none" stroke="#000000" d="M317,365L317,365L317,367L317,369L318,370L318,372L319,373L320,375L321,377L322,379L323,381L324,382L325,384L326,385L327,387L328,388L330,390L331,391L332,392L334,393L335,394L336,394L337,395L338,396L340,397L342,398L343,398L344,399L345,399L346,399L347,399L348,400L349,400L350,400L352,400L353,400L355,400L356,400L358,400L360,399L362,397L365,395L366,394L368,392L370,391L371,389L373,388L374,386L375,385L376,384L376,383L377,382L378,381L378,381L379,379L379,378L379,378L379,376L379,375L379,374L379,372L379,370L379,367L379,363L379,361L379,359L379,358L379,356L379,355L379,354L379,352L379,351L380,350L380,348L380,347L380,347L380,346L380,346L380,346L380,345" stroke-opacity="1" stroke-width="5" stroke-linecap="round" stroke-linejoin="round" style="-webkit-tap-highlight-color: rgba(0, 0, 0, 0); stroke-opacity: 1; stroke-linecap: round; stroke-linejoin: round; user-select: text;"></path><path fill="none" stroke="#000000" d="M379,325L379,324L379,324L379,322L379,320L379,316L379,314L377,308L377,304L376,300L375,295L375,292L374,288L373,285L373,282L372,279L372,275L371,273L371,270L370,268L369,265L369,262L368,258L367,254L367,251L367,248L366,246L366,244L365,243L365,242L364,241L364,239L364,238L363,237L363,237" stroke-opacity="1" stroke-width="5" stroke-linecap="round" stroke-linejoin="round" style="-webkit-tap-highlight-color: rgba(0, 0, 0, 0); stroke-opacity: 1; stroke-linecap: round; stroke-linejoin: round; user-select: text;"></path><path fill="none" stroke="#000000" d="M362,217L362,216L362,214L361,213L360,210L359,206L357,202L356,199L355,195L353,191L352,189L350,187L349,186L347,184L346,183L344,181L342,179L340,179L338,178L337,178L336,177L334,177L333,177L332,177L330,177L329,177L327,177L326,177L325,178L324,178L322,179L321,179L320,180L318,181L317,182L316,182L315,183L315,183L314,184L313,185L312,187L310,189L309,190L309,191L308,193L307,194L306,195L304,197L304,198L302,201L301,203L300,204L299,206L298,207L297,209L295,211L295,213L294,215L293,217L292,218L291,220L290,222L290,223L289,225L288,227L287,229L287,231L286,233L285,235L284,237L284,239L283,241L283,243L282,244L282,244L282,245L282,245" stroke-opacity="1" stroke-width="5" stroke-linecap="round" stroke-linejoin="round" style="-webkit-tap-highlight-color: rgba(0, 0, 0, 0); stroke-opacity: 1; stroke-linecap: round; stroke-linejoin: round; user-select: text;"></path><path fill="none" stroke="#000000" d="M276,260L276,261L275,263L274,266L273,269L272,272L271,275L270,278L270,280L268,283L267,286L266,288L265,290L265,293L264,295L263,297L262,300L261,304L260,308L259,310L258,314L257,316L257,319L255,322L255,325L253,328L253,330L252,332L252,334L251,336L251,337L250,338L249,339L249,341L249,341L249,341L248,341L248,341L248,338" stroke-opacity="1" stroke-width="5" stroke-linecap="round" stroke-linejoin="round" style="-webkit-tap-highlight-color: rgba(0, 0, 0, 0); stroke-opacity: 1; stroke-linecap: round; stroke-linejoin: round; user-select: text;"></path><path fill="none" stroke="#000000" d="M246,353L246,353L246,355L246,358L245,361L244,365L243,367L242,370L241,374L240,376L239,379L239,382L238,383L237,385L237,388L237,392L237,395L237,398L237,400L237,402L237,404L237,406L237,408L238,410L239,412L240,413L241,413L241,414L242,415L243,416L244,416L244,417L245,417L247,418L248,418L249,418L250,419L251,419L253,420L255,420L256,420L257,420L258,420L259,420L259,420L261,420L262,420L263,420L264,420L266,420L267,420L268,420L269,419L271,418L271,418L273,417L274,417L275,416L276,415L277,414L279,413L280,412L281,411L282,410L284,409L285,409L286,407L287,406L289,405L291,402L292,400L293,399L295,397L296,396L297,395L299,393L301,391L302,389L302,388L303,387L304,386L304,385L305,384L306,383L307,383L307,382L307,382L307,381L307,380L307,379L307,378" stroke-opacity="1" stroke-width="5" stroke-linecap="round" stroke-linejoin="round" style="-webkit-tap-highlight-color: rgba(0, 0, 0, 0); stroke-opacity: 1; stroke-linecap: round; stroke-linejoin: round; user-select: text;"></path><path fill="none" stroke="#000000" d="M315,373L315,373L316,372L318,370L321,367L321,366L324,363L325,362L327,360L328,358L329,356L331,354L332,351L335,347L337,344L338,341L340,338L342,335L343,334L344,331L346,328L347,326L349,324L350,323L351,321L352,320L353,320L354,317L356,315L357,313L359,310L359,309L360,308L361,306L362,305L363,303L364,302L364,300L365,300L366,297L366,296L366,295L367,294L367,293L367,293L368,293L368,292" stroke-opacity="1" stroke-width="5" stroke-linecap="round" stroke-linejoin="round" style="-webkit-tap-highlight-color: rgba(0, 0, 0, 0); stroke-opacity: 1; stroke-linecap: round; stroke-linejoin: round; user-select: text;"></path><path fill="none" stroke="#000000" d="M380,277L380,276L380,274L383,268L384,265L386,261L387,258L389,256L391,253L393,250L395,247L396,245L398,243L399,241L400,240L401,239L402,238L404,235L405,234L406,232L407,231L408,229L409,227L410,226L411,224L411,222L412,220L413,219L414,217L415,216L416,215L416,214L417,213L417,212L418,212L418,212" stroke-opacity="1" stroke-width="5" stroke-linecap="round" stroke-linejoin="round" style="-webkit-tap-highlight-color: rgba(0, 0, 0, 0); stroke-opacity: 1; stroke-linecap: round; stroke-linejoin: round; user-select: text;"></path><path fill="none" stroke="#000000" d="M423,200L423,200L423,198L424,192L427,184L431,175L434,167L436,162L437,159L438,155L440,153L441,151L442,148L443,146L444,143L445,139L446,136L446,133L447,130L447,127L447,125L447,123L447,119L447,117L446,116L446,114L445,113L444,112L444,111L443,110L442,109L440,107L439,105L438,104L437,103L436,101L435,101L435,100L434,99L432,98L431,98L430,98L429,97L428,97L427,97L426,97L424,97L422,97L421,97L419,97L417,97L415,98L413,99L410,100L408,101L406,102L404,103L401,105L399,106L396,107L394,108L391,109L387,111L384,112L382,113L379,114L377,115L376,117L373,118L371,119L368,121L367,123L366,123L364,124L363,125L362,126L362,126L362,126L362,126L362,126" stroke-opacity="1" stroke-width="5" stroke-linecap="round" stroke-linejoin="round" style="-webkit-tap-highlight-color: rgba(0, 0, 0, 0); stroke-opacity: 1; stroke-linecap: round; stroke-linejoin: round; user-select: text;"></path><path fill="none" stroke="#000000" d="M353,130L353,130L351,130L347,130L344,132L339,135L334,138L330,141L325,143L320,147L313,153L310,155L304,160L300,163L296,166L293,169L289,172L285,176L280,179L277,182L274,183L270,186L266,188L264,190L260,192L258,193L255,195L254,197L252,198L251,199L251,199L251,199" stroke-opacity="1" stroke-width="5" stroke-linecap="round" stroke-linejoin="round" style="-webkit-tap-highlight-color: rgba(0, 0, 0, 0); stroke-opacity: 1; stroke-linecap: round; stroke-linejoin: round; user-select: text;"></path><path fill="none" stroke="#000000" d="M244,207L244,207L243,207L241,209L238,211L236,213L233,216L231,218L228,221L225,223L222,225L221,227L217,230L216,231L214,234L212,236L209,238L208,240L206,241L205,244L203,245L202,247L202,248L201,250L200,251L200,253L199,255L199,256L198,258L198,259L198,261L198,262L198,263L198,264L198,266L198,267L198,269L198,270L198,271L198,272L199,273L199,274L201,276L201,277L203,278L203,278L204,279L205,280L206,280L207,281L208,281L209,282L210,282L211,283L212,283L212,283L213,283L215,283L216,283L217,283L219,283L220,283L221,283L223,283L225,283L227,283L229,283L233,283L235,283L238,283L241,283L244,282L248,281L251,281L253,280L255,279L257,279L259,278L261,278L262,278L263,277L264,277L264,277L264,277L264,274L264,268L264,262" stroke-opacity="1" stroke-width="5" stroke-linecap="round" stroke-linejoin="round" style="-webkit-tap-highlight-color: rgba(0, 0, 0, 0); stroke-opacity: 1; stroke-linecap: round; stroke-linejoin: round; user-select: text;"></path><path fill="none" stroke="#000000" d="M280,271L280,271L281,271L286,271L289,271L293,271L298,271L302,271L308,271L311,270L314,269L316,269L318,268L320,268L322,267L324,267L328,266L330,266L332,265L333,265L335,264L337,263L339,263L341,262L343,261L345,260L348,260L350,259L353,258L355,258L357,258L359,257L360,257L361,257L361,257L362,257L362,256L362,256" stroke-opacity="1" stroke-width="5" stroke-linecap="round" stroke-linejoin="round" style="-webkit-tap-highlight-color: rgba(0, 0, 0, 0); stroke-opacity: 1; stroke-linecap: round; stroke-linejoin: round; user-select: text;"></path><path fill="none" stroke="#000000" d="M376,251L377,251L378,251L380,251L383,251L385,251L387,251L390,251L393,250L395,249L399,249L402,248L404,248L407,247L409,247L412,246L416,245L417,244L420,244L422,243L424,243L425,242L427,241L429,240L431,239L434,238L438,237L440,236L442,235L445,234L447,233L449,231L451,230L451,229L452,228L453,227L453,226L453,225L453,224L453,222L453,221L453,219L453,218L452,218L452,217L451,215L451,214L450,213L450,211L449,210L448,209L447,207L446,206L444,204L443,203L442,202L440,201L439,200L438,199L437,198L435,197L434,196L432,195L431,195L430,193L427,192L426,192L424,191L422,190L420,189L418,187L416,186L413,184L410,183L409,182L407,180L405,179L403,178L402,177L400,176L399,175L398,174L397,174L396,173L395,172L394,172L394,172L394,171L393,171L393,171L393,172" stroke-opacity="1" stroke-width="5" stroke-linecap="round" stroke-linejoin="round" style="-webkit-tap-highlight-color: rgba(0, 0, 0, 0); stroke-opacity: 1; stroke-linecap: round; stroke-linejoin: round; user-select: text;"></path><path fill="none" stroke="#000000" d="M387,167L386,167L385,166L383,165L381,163L377,160L375,158L371,156L369,154L366,153L363,151L360,149L358,147L354,145L352,144L350,142L347,141L345,140L343,139L341,137L338,135L337,134L335,133L334,131L333,130L331,128L330,127L328,126L326,125L325,124L324,123L323,123L321,122L320,122L319,122L318,121L318,121L317,121L317,121" stroke-opacity="1" stroke-width="5" stroke-linecap="round" stroke-linejoin="round" style="-webkit-tap-highlight-color: rgba(0, 0, 0, 0); stroke-opacity: 1; stroke-linecap: round; stroke-linejoin: round; user-select: text;"></path><path fill="none" stroke="#000000" d="M312,114L311,114L310,114L308,113L305,111L301,108L298,107L296,105L293,104L291,102L289,101L287,100L283,99L279,97L278,97L276,96L273,96L272,95L270,94L268,94L266,93L264,92L262,91L260,90L258,90L257,90L255,90L252,89L250,89L248,89L247,89L245,89L243,89L241,89L240,89L238,90L236,91L234,91L233,92L232,94L230,95L229,96L229,96L228,97L228,98L227,99L226,101L225,103L224,105L223,106L222,107L222,109L221,111L221,113L220,114L220,116L220,117L220,119L220,121L220,124L220,125L220,127L220,129L220,131L220,132L220,134L220,135L220,137L220,138L220,139L220,141L220,142L220,144L220,146L221,147L221,149L221,151L221,152L222,154L222,155L222,157L222,158L223,159L223,161L223,161L223,162L223,163L224,163L224,164L224,164" stroke-opacity="1" stroke-width="5" stroke-linecap="round" stroke-linejoin="round" style="-webkit-tap-highlight-color: rgba(0, 0, 0, 0); stroke-opacity: 1; stroke-linecap: round; stroke-linejoin: round; user-select: text;"></path><path fill="none" stroke="#000000" d="M224,177L224,177L224,178L224,180L224,182L224,183L224,185L224,188L224,190L224,192L224,196L224,197L224,199L224,201L224,203L224,204L225,206L225,208L226,212L227,215L227,217L228,219L228,222L229,224L229,226L230,228L230,231L230,233L231,235L231,237L231,238L232,240L232,242L233,245L233,247L234,248L234,250L234,252L235,253L235,254L236,254L236,255L236,256L236,257L237,257L237,257" stroke-opacity="1" stroke-width="5" stroke-linecap="round" stroke-linejoin="round" style="-webkit-tap-highlight-color: rgba(0, 0, 0, 0); stroke-opacity: 1; stroke-linecap: round; stroke-linejoin: round; user-select: text;"></path><path fill="none" stroke="#000000" d="M237,271L237,272L237,273L237,275L237,277L237,279L237,282L237,284L237,288L237,290L237,292L237,295L237,297L237,300L238,303L239,306L239,308L240,311L240,312L241,314L242,315L242,317L243,318L244,319L244,320L245,320L245,321L246,322L247,322L248,323L249,324L251,324L252,325L254,325L255,325L256,325L257,325L259,325L260,325L262,325L263,325L265,325L267,324L268,323L271,322L271,322L274,320L276,317L278,316L280,314L282,311L284,308L286,304L289,298L291,294L294,290L295,287L297,282L299,280L300,276L302,271L303,268L305,265L307,262L308,258L310,255L311,250L314,243L315,240L316,237L317,235L318,233L318,231L318,230L318,229L319,229L319,229" stroke-opacity="1" stroke-width="5" stroke-linecap="round" stroke-linejoin="round" style="-webkit-tap-highlight-color: rgba(0, 0, 0, 0); stroke-opacity: 1; stroke-linecap: round; stroke-linejoin: round; user-select: text;"></path><path fill="none" stroke="#000000" d="M324,214L324,213L324,213L324,210L324,208L325,203L326,199L327,197L328,195L329,192L330,190L331,188L332,186L333,184L335,180L336,178L337,176L337,175L338,174L338,173L339,171L340,167L341,164L342,162L343,160L343,158L343,157L343,156L344,155" stroke-opacity="1" stroke-width="5" stroke-linecap="round" stroke-linejoin="round" style="-webkit-tap-highlight-color: rgba(0, 0, 0, 0); stroke-opacity: 1; stroke-linecap: round; stroke-linejoin: round; user-select: text;"></path><path fill="none" stroke="#000000" d="M349,140L349,140L349,137L349,134L350,130L351,126L353,121L355,117L356,113L357,108L358,106L358,104L358,101L358,99L359,96L359,93L359,90L359,84L358,82L358,79L357,77L356,75L355,73L352,70L351,68L349,67L347,66L345,65L344,65L343,64L341,64L339,64L337,64L336,64L334,64L332,64L331,65L329,65L327,66L325,67L323,69L321,70L319,72L317,73L316,74L314,75L311,77L309,79L307,80L305,82L304,83L302,85L301,87L298,89L296,91L293,94L291,96L289,98L286,101L285,102L283,105L282,107L279,111L278,113L276,116L274,118L273,120L272,122L271,124L270,125L269,126L268,127L267,128L266,129L265,131L265,131L264,132L264,133L264,133L263,133" stroke-opacity="1" stroke-width="5" stroke-linecap="round" stroke-linejoin="round" style="-webkit-tap-highlight-color: rgba(0, 0, 0, 0); stroke-opacity: 1; stroke-linecap: round; stroke-linejoin: round; user-select: text;"></path><path fill="none" stroke="#000000" d="M258,144L258,144L256,146L254,148L252,150L251,152L248,157L245,159L241,165L239,167L236,172L234,175L232,179L230,182L228,185L226,189L224,192L222,195L221,197L220,200L220,203L219,206L218,209L218,212L218,217L218,220L218,223L218,226L218,229L218,232L218,234L218,236L218,238L219,240L220,241L220,243L221,244L222,245L223,246L225,247L226,248L227,248L229,249L230,249L232,249L234,250L236,250L237,250L240,250L242,250L245,250L247,250L249,250L251,250L254,249L257,249L259,248L262,247L264,246L267,245L269,244L271,244L272,243L273,243L273,243L273,243" stroke-opacity="1" stroke-width="5" stroke-linecap="round" stroke-linejoin="round" style="-webkit-tap-highlight-color: rgba(0, 0, 0, 0); stroke-opacity: 1; stroke-linecap: round; stroke-linejoin: round; user-select: text;"></path></svg>