<svg height="612" version="1.1" width="1154" xmlns="http://www.w3.org/2000/svg" xmlns:xlink="http://www.w3.org/1999/xlink" style="overflow: hidden; position: relative; user-select: text;"><desc style="-webkit-tap-highlight-color: rgba(0, 0, 0, 0); user-select: text;">Created with Raphaël 2.2.0</desc><defs style="-webkit-tap-highlight-color: rgba(0, 0, 0, 0); user-select: text;"></defs><path fill="none" stroke="#ff0000" d="M209,281L209,281L211,280L214,277L254,251L296,228L326,215L352,206L376,197L392,192L400,188L406,185L410,183L413,182L413,181L414,181L414,181L414,181L415,181L419,184L427,190L442,201L462,219L486,242L509,267L525,285L542,303L550,314L560,325L564,329L566,331L566,331L567,332L568,332L568,332L568,332L567,332L567,332L566,332L564,333L561,334L557,336L549,338L532,342L502,348L478,354L453,363L438,370L420,381L407,391L402,396L396,402L393,406L390,409L389,412L387,414L386,416L386,417L385,418L385,419L385,419L385,420L385,419L384,419L382,418L371,413L348,405L313,394L279,385L252,378L226,372L215,370L206,367L201,366L198,365L196,364L195,363L195,361L194,361L194,360L194,359L194,359L194,359L194,359" stroke-opacity="1" stroke-width="5" stroke-linecap="round" stroke-linejoin="round" style="-webkit-tap-highlight-color: rgba(0, 0, 0, 0); stroke-opacity: 1; stroke-linecap: round; stroke-linejoin: round; user-select: text;"></path></svg>