<svg height="621" version="1.1" width="1476" xmlns="http://www.w3.org/2000/svg" xmlns:xlink="http://www.w3.org/1999/xlink" style="overflow: hidden; position: relative; user-select: text;"><desc style="-webkit-tap-highlight-color: rgba(0, 0, 0, 0); user-select: text;">Created with Raphaël 2.2.0</desc><defs style="-webkit-tap-highlight-color: rgba(0, 0, 0, 0); user-select: text;"></defs><path fill="none" stroke="#ff0000" d="M428,288L429,288L429,288" stroke-opacity="1" stroke-width="5" stroke-linecap="round" stroke-linejoin="round" style="-webkit-tap-highlight-color: rgba(0, 0, 0, 0); stroke-opacity: 1; stroke-linecap: round; stroke-linejoin: round; user-select: text;"></path><path fill="none" stroke="#000000" d="M456,238L457,238" stroke-opacity="1" stroke-width="5" stroke-linecap="round" stroke-linejoin="round" style="-webkit-tap-highlight-color: rgba(0, 0, 0, 0); stroke-opacity: 1; stroke-linecap: round; stroke-linejoin: round; user-select: text;"></path><path fill="none" stroke="#000000" d="M456,238L456,238L456,237L454,236L452,236L450,236L449,236L448,236L446,236L444,236L443,236L442,236L441,236L440,236L440,236L439,236L438,236L436,236L435,236L437,236L447,236L454,236L461,237L468,240L470,240L473,243L476,244L481,246L484,248L487,249L491,252L493,253L497,256L499,258L503,261L504,263L505,265L507,267L509,268L510,269L515,272L519,275L524,279L528,281L535,287L540,289L543,290L548,293L552,294L556,295L562,295L569,295L572,295L575,295" stroke-opacity="1" stroke-width="5" stroke-linecap="round" stroke-linejoin="round" style="-webkit-tap-highlight-color: rgba(0, 0, 0, 0); stroke-opacity: 1; stroke-linecap: round; stroke-linejoin: round; user-select: text;"></path><path fill="none" stroke="#000000" d="M613,281L615,280L618,276L624,271L627,267L629,263L629,261L634,255L637,250L638,247L638,246L638,244L638,243L639,238L643,225L643,223L645,216L648,211L648,210L648,208L653,199L655,193L664,177L675,166L684,157L687,156L688,156" stroke-opacity="1" stroke-width="5" stroke-linecap="round" stroke-linejoin="round" style="-webkit-tap-highlight-color: rgba(0, 0, 0, 0); stroke-opacity: 1; stroke-linecap: round; stroke-linejoin: round; user-select: text;"></path><path fill="none" stroke="#000000" d="M706,156L711,156L718,158L728,160L738,164L743,164L744,165L745,165L745,166" stroke-opacity="1" stroke-width="5" stroke-linecap="round" stroke-linejoin="round" style="-webkit-tap-highlight-color: rgba(0, 0, 0, 0); stroke-opacity: 1; stroke-linecap: round; stroke-linejoin: round; user-select: text;"></path><path fill="none" stroke="#000000" d="M747,188L746,188L745,191L744,198L742,205L740,211L739,214L736,220L734,222L729,227L726,232L723,236L720,242L714,250L712,252L711,256L708,259L708,260L706,263L704,266L704,272L704,277L704,282L704,288L704,292L704,295L704,299L704,300L704,304L704,306L704,311L706,314L708,317L712,322L716,325L719,328L722,329L727,332L729,333L733,335L737,336L740,336L745,336L758,336L765,336L770,336L776,335L781,333L788,330L796,326L802,322L807,318L812,313L814,309L816,307L816,306L816,304" stroke-opacity="1" stroke-width="5" stroke-linecap="round" stroke-linejoin="round" style="-webkit-tap-highlight-color: rgba(0, 0, 0, 0); stroke-opacity: 1; stroke-linecap: round; stroke-linejoin: round; user-select: text;"></path><path fill="none" stroke="#000000" d="M826,293L828,288L835,280L836,278L836,277L836,276L837,273L843,268L845,264L847,263L847,262L848,262L849,261L849,260L849,260L852,255L854,252L856,252L856,249" stroke-opacity="1" stroke-width="5" stroke-linecap="round" stroke-linejoin="round" style="-webkit-tap-highlight-color: rgba(0, 0, 0, 0); stroke-opacity: 1; stroke-linecap: round; stroke-linejoin: round; user-select: text;"></path><path fill="none" stroke="#000000" d="M875,248L876,249L884,254L897,264L914,277L927,288L944,299L956,304L968,310L976,314L980,316L982,317L983,317" stroke-opacity="1" stroke-width="5" stroke-linecap="round" stroke-linejoin="round" style="-webkit-tap-highlight-color: rgba(0, 0, 0, 0); stroke-opacity: 1; stroke-linecap: round; stroke-linejoin: round; user-select: text;"></path><path fill="none" stroke="#000000" d="M981,335L980,337L980,340L978,348L975,363L972,369L969,374L965,380L962,385L959,390L955,395L953,397L951,400L946,402L936,404L928,405L921,405L914,405L908,404L901,402L892,400L881,400L876,400L874,400L868,400L862,400L856,400L850,401L844,402L840,404L835,404L824,410L820,413L814,415L807,417L801,419L799,420L796,423L793,425L792,426L789,432L786,437L784,442L784,445L783,447L783,448L783,450L783,452L798,452L804,452" stroke-opacity="1" stroke-width="5" stroke-linecap="round" stroke-linejoin="round" style="-webkit-tap-highlight-color: rgba(0, 0, 0, 0); stroke-opacity: 1; stroke-linecap: round; stroke-linejoin: round; user-select: text;"></path></svg>