<svg height="644" version="1.1" width="1024" xmlns="http://www.w3.org/2000/svg" xmlns:xlink="http://www.w3.org/1999/xlink" style="overflow: hidden; position: relative; -webkit-user-select: text;"><desc style="-webkit-tap-highlight-color: rgba(0, 0, 0, 0); -webkit-user-select: text;">Created with Raphaël 2.2.0</desc><defs style="-webkit-tap-highlight-color: rgba(0, 0, 0, 0); -webkit-user-select: text;"></defs><path fill="none" stroke="#000000" d="M359,241L362,243L368,243L375,245L389,248L407,253L426,258L445,264L463,271L480,278L492,282L499,284L502,286L504,287L504,290L502,293L497,298L488,303L479,310L465,320L451,330L436,340L421,350L408,359L398,365L392,369L388,372L387,373L387,369L391,359L397,345L403,331L409,316L414,301L418,286L420,274L421,261L422,252L423,245L424,240L425,237L425,235L426,235L429,235L433,235L442,237L457,244L474,251L495,260L516,269L536,277L550,283L562,289L569,292L572,294L574,296L574,299L574,302L570,305L565,311L559,318L552,325L546,333L539,342L532,351L524,359L513,368L502,375L488,380L476,382L461,383L446,383L432,383L417,381L405,375L394,367L386,361L379,354L374,348L370,341L365,332L360,324L356,316L352,309" stroke-opacity="1" stroke-width="5" stroke-linecap="round" stroke-linejoin="round" style="-webkit-tap-highlight-color: rgba(0, 0, 0, 0); stroke-opacity: 1; stroke-linecap: round; stroke-linejoin: round; -webkit-user-select: text;"></path><path fill="none" stroke="#000000" d="M286,249L283,245L283,241L283,236L283,231L283,225L283,219L283,211L285,205L289,198L293,189L297,182L303,173L309,164L315,156L323,148L331,140L339,133L347,126L355,121L360,117L364,114L366,112L368,111L369,111L370,111L371,112L374,116L379,121L386,128L394,135L403,142L413,149L421,156L428,161L433,166L436,170L437,173L438,176L438,179L436,181L431,184L424,188L415,191L405,196L396,201L387,208L378,215L370,223L363,230L359,235L355,239L352,242L351,244L350,244L349,244L349,242L347,236L344,229L340,219L336,210L333,200L329,190L325,179L319,168L315,158L311,150L308,142L306,138L304,134L303,130L302,128L302,126L302,125L302,123L302,121L302,119L302,116L304,111L307,106L311,100L315,94L321,89L329,82L338,76L349,71L361,67L373,65L387,64L402,64L419,70L439,79L459,90" stroke-opacity="1" stroke-width="5" stroke-linecap="round" stroke-linejoin="round" style="-webkit-tap-highlight-color: rgba(0, 0, 0, 0); stroke-opacity: 1; stroke-linecap: round; stroke-linejoin: round; -webkit-user-select: text;"></path><path fill="none" stroke="#000000" d="M506,114L514,118L520,120L526,124L534,129L542,135L550,143L558,152L565,160L571,168L575,174L578,181L579,188L580,194L581,201L581,208L581,215L581,220L581,224L581,228" stroke-opacity="1" stroke-width="5" stroke-linecap="round" stroke-linejoin="round" style="-webkit-tap-highlight-color: rgba(0, 0, 0, 0); stroke-opacity: 1; stroke-linecap: round; stroke-linejoin: round; -webkit-user-select: text;"></path><path fill="none" stroke="#000000" d="M562,248L554,249L548,249L539,250L526,252L514,254L498,258L485,261L470,264L459,268L451,271L444,273L440,274L437,275L436,275L435,275L435,270" stroke-opacity="1" stroke-width="5" stroke-linecap="round" stroke-linejoin="round" style="-webkit-tap-highlight-color: rgba(0, 0, 0, 0); stroke-opacity: 1; stroke-linecap: round; stroke-linejoin: round; -webkit-user-select: text;"></path><path fill="none" stroke="#000000" d="M438,230L441,223L441,217L442,210L444,202L447,194L450,186L453,181L455,175L457,172L458,167" stroke-opacity="1" stroke-width="5" stroke-linecap="round" stroke-linejoin="round" style="-webkit-tap-highlight-color: rgba(0, 0, 0, 0); stroke-opacity: 1; stroke-linecap: round; stroke-linejoin: round; -webkit-user-select: text;"></path><path fill="none" stroke="#000000" d="M478,151L482,156L487,162L497,172L507,181L518,191L528,200L537,210L544,217" stroke-opacity="1" stroke-width="5" stroke-linecap="round" stroke-linejoin="round" style="-webkit-tap-highlight-color: rgba(0, 0, 0, 0); stroke-opacity: 1; stroke-linecap: round; stroke-linejoin: round; -webkit-user-select: text;"></path><path fill="none" stroke="#000000" d="M537,250L531,259L528,266L524,274L520,281L517,290L513,298L510,305L507,310L505,315L505,320L504,323" stroke-opacity="1" stroke-width="5" stroke-linecap="round" stroke-linejoin="round" style="-webkit-tap-highlight-color: rgba(0, 0, 0, 0); stroke-opacity: 1; stroke-linecap: round; stroke-linejoin: round; -webkit-user-select: text;"></path><path fill="none" stroke="#000000" d="M490,339L487,337L480,332L466,321L447,310L426,301L405,290L384,279L362,269" stroke-opacity="1" stroke-width="5" stroke-linecap="round" stroke-linejoin="round" style="-webkit-tap-highlight-color: rgba(0, 0, 0, 0); stroke-opacity: 1; stroke-linecap: round; stroke-linejoin: round; -webkit-user-select: text;"></path><path fill="none" stroke="#000000" d="M279,245L270,255L267,259L263,266L259,275L254,283L248,292L240,301L232,310L225,320L218,328L212,334" stroke-opacity="1" stroke-width="5" stroke-linecap="round" stroke-linejoin="round" style="-webkit-tap-highlight-color: rgba(0, 0, 0, 0); stroke-opacity: 1; stroke-linecap: round; stroke-linejoin: round; -webkit-user-select: text;"></path><path fill="none" stroke="#000000" d="M200,359L208,363L213,366L221,372L229,378L239,385L247,391L256,397L264,402L271,407L278,411" stroke-opacity="1" stroke-width="5" stroke-linecap="round" stroke-linejoin="round" style="-webkit-tap-highlight-color: rgba(0, 0, 0, 0); stroke-opacity: 1; stroke-linecap: round; stroke-linejoin: round; -webkit-user-select: text;"></path><path fill="none" stroke="#000000" d="M299,384L310,372L315,365L321,357L327,348L333,340L339,331L342,323" stroke-opacity="1" stroke-width="5" stroke-linecap="round" stroke-linejoin="round" style="-webkit-tap-highlight-color: rgba(0, 0, 0, 0); stroke-opacity: 1; stroke-linecap: round; stroke-linejoin: round; -webkit-user-select: text;"></path><path fill="none" stroke="#000000" d="M353,289L348,292L338,292L322,294L303,297L276,301L244,303L211,305L180,307L150,309" stroke-opacity="1" stroke-width="5" stroke-linecap="round" stroke-linejoin="round" style="-webkit-tap-highlight-color: rgba(0, 0, 0, 0); stroke-opacity: 1; stroke-linecap: round; stroke-linejoin: round; -webkit-user-select: text;"></path><path fill="none" stroke="#000000" d="M120,275L131,260L135,251L142,240L150,229L159,217L169,205" stroke-opacity="1" stroke-width="5" stroke-linecap="round" stroke-linejoin="round" style="-webkit-tap-highlight-color: rgba(0, 0, 0, 0); stroke-opacity: 1; stroke-linecap: round; stroke-linejoin: round; -webkit-user-select: text;"></path><path fill="none" stroke="#000000" d="M176,134L181,141L192,148L206,158L219,169L229,181L238,194L244,204L251,219L256,232L262,249L266,266L268,280L268,297L266,311L261,327L255,341L249,356L240,371L231,384L219,396L206,407L194,416L181,424L170,431" stroke-opacity="1" stroke-width="5" stroke-linecap="round" stroke-linejoin="round" style="-webkit-tap-highlight-color: rgba(0, 0, 0, 0); stroke-opacity: 1; stroke-linecap: round; stroke-linejoin: round; -webkit-user-select: text;"></path><path fill="none" stroke="#000000" d="M106,437L99,429L99,424L98,420L96,412L93,404L92,395L92,388L92,377L93,367L97,358L103,348L110,338L118,329L126,320L134,312L143,305L152,299L162,294L175,291L192,288L206,286L220,285L234,285L247,285L261,286L276,291L289,298L302,305L314,313L324,323L333,334L339,345L344,355L348,366L350,378L351,391L353,405" stroke-opacity="1" stroke-width="5" stroke-linecap="round" stroke-linejoin="round" style="-webkit-tap-highlight-color: rgba(0, 0, 0, 0); stroke-opacity: 1; stroke-linecap: round; stroke-linejoin: round; -webkit-user-select: text;"></path><path fill="none" stroke="#000000" d="M345,434L345,443L345,448L345,454L346,462L348,470L350,478L352,486L353,495" stroke-opacity="1" stroke-width="5" stroke-linecap="round" stroke-linejoin="round" style="-webkit-tap-highlight-color: rgba(0, 0, 0, 0); stroke-opacity: 1; stroke-linecap: round; stroke-linejoin: round; -webkit-user-select: text;"></path><path fill="none" stroke="#000000" d="M364,483L372,475L379,471L386,465L395,458L404,450L416,441L428,432L439,423L448,417L458,410" stroke-opacity="1" stroke-width="5" stroke-linecap="round" stroke-linejoin="round" style="-webkit-tap-highlight-color: rgba(0, 0, 0, 0); stroke-opacity: 1; stroke-linecap: round; stroke-linejoin: round; -webkit-user-select: text;"></path><path fill="none" stroke="#000000" d="M465,385L454,388L445,388L429,386L412,383L393,378L368,371L345,364L327,359L308,352" stroke-opacity="1" stroke-width="5" stroke-linecap="round" stroke-linejoin="round" style="-webkit-tap-highlight-color: rgba(0, 0, 0, 0); stroke-opacity: 1; stroke-linecap: round; stroke-linejoin: round; -webkit-user-select: text;"></path><path fill="none" stroke="#000000" d="M276,329L283,335L287,343L290,354L290,369L291,384L291,403L288,420L285,435L282,447L279,460L276,468L274,475" stroke-opacity="1" stroke-width="5" stroke-linecap="round" stroke-linejoin="round" style="-webkit-tap-highlight-color: rgba(0, 0, 0, 0); stroke-opacity: 1; stroke-linecap: round; stroke-linejoin: round; -webkit-user-select: text;"></path><path fill="none" stroke="#000000" d="M272,459L284,453L297,446L312,439L332,429L353,419L375,408" stroke-opacity="1" stroke-width="5" stroke-linecap="round" stroke-linejoin="round" style="-webkit-tap-highlight-color: rgba(0, 0, 0, 0); stroke-opacity: 1; stroke-linecap: round; stroke-linejoin: round; -webkit-user-select: text;"></path><path fill="none" stroke="#000000" d="M436,354L448,361L457,371L465,383L476,397L489,414L502,432L512,444L521,456L527,463L532,467L535,468L537,468L537,457L538,447L543,432L549,421L557,408L567,394L579,381L591,367L603,354L614,342" stroke-opacity="1" stroke-width="5" stroke-linecap="round" stroke-linejoin="round" style="-webkit-tap-highlight-color: rgba(0, 0, 0, 0); stroke-opacity: 1; stroke-linecap: round; stroke-linejoin: round; -webkit-user-select: text;"></path><path fill="none" stroke="#000000" d="M606,311L595,315L579,318L554,323L527,325L501,325" stroke-opacity="1" stroke-width="5" stroke-linecap="round" stroke-linejoin="round" style="-webkit-tap-highlight-color: rgba(0, 0, 0, 0); stroke-opacity: 1; stroke-linecap: round; stroke-linejoin: round; -webkit-user-select: text;"></path><path fill="none" stroke="#000000" d="M443,356L444,369L444,382L444,401L443,423L442,446L439,466L434,481" stroke-opacity="1" stroke-width="5" stroke-linecap="round" stroke-linejoin="round" style="-webkit-tap-highlight-color: rgba(0, 0, 0, 0); stroke-opacity: 1; stroke-linecap: round; stroke-linejoin: round; -webkit-user-select: text;"></path><path fill="none" stroke="#000000" d="M430,471L440,465L456,454L475,445L501,439L532,434L562,430L596,428" stroke-opacity="1" stroke-width="5" stroke-linecap="round" stroke-linejoin="round" style="-webkit-tap-highlight-color: rgba(0, 0, 0, 0); stroke-opacity: 1; stroke-linecap: round; stroke-linejoin: round; -webkit-user-select: text;"></path><path fill="none" stroke="#000000" d="M686,403L688,391L685,375L675,352L665,331L652,310L638,292L621,279L601,269L584,265L565,265L546,268L527,280L514,296L502,315L492,336L485,357L483,375L483,394L494,413L509,429L528,442L548,455L571,466L595,478L622,488L647,493L667,493L689,488L708,479" stroke-opacity="1" stroke-width="5" stroke-linecap="round" stroke-linejoin="round" style="-webkit-tap-highlight-color: rgba(0, 0, 0, 0); stroke-opacity: 1; stroke-linecap: round; stroke-linejoin: round; -webkit-user-select: text;"></path><path fill="none" stroke="#000000" d="M696,425L707,422L717,414L730,403L749,390L769,381L788,373L802,366L815,357" stroke-opacity="1" stroke-width="5" stroke-linecap="round" stroke-linejoin="round" style="-webkit-tap-highlight-color: rgba(0, 0, 0, 0); stroke-opacity: 1; stroke-linecap: round; stroke-linejoin: round; -webkit-user-select: text;"></path><path fill="none" stroke="#000000" d="M788,336L776,333L760,330L733,317L706,297" stroke-opacity="1" stroke-width="5" stroke-linecap="round" stroke-linejoin="round" style="-webkit-tap-highlight-color: rgba(0, 0, 0, 0); stroke-opacity: 1; stroke-linecap: round; stroke-linejoin: round; -webkit-user-select: text;"></path><path fill="none" stroke="#000000" d="M653,270L658,280L665,295L672,318L679,345L685,372L689,398" stroke-opacity="1" stroke-width="5" stroke-linecap="round" stroke-linejoin="round" style="-webkit-tap-highlight-color: rgba(0, 0, 0, 0); stroke-opacity: 1; stroke-linecap: round; stroke-linejoin: round; -webkit-user-select: text;"></path><path fill="none" stroke="#000000" d="M696,413L713,409L732,398L753,385L775,369L799,357L826,350L851,344L867,338L877,332L882,327L883,322L879,316L862,303L839,279" stroke-opacity="1" stroke-width="5" stroke-linecap="round" stroke-linejoin="round" style="-webkit-tap-highlight-color: rgba(0, 0, 0, 0); stroke-opacity: 1; stroke-linecap: round; stroke-linejoin: round; -webkit-user-select: text;"></path><path fill="none" stroke="#000000" d="M735,188L734,194L734,207L734,229L734,254L734,285L733,312L725,335" stroke-opacity="1" stroke-width="5" stroke-linecap="round" stroke-linejoin="round" style="-webkit-tap-highlight-color: rgba(0, 0, 0, 0); stroke-opacity: 1; stroke-linecap: round; stroke-linejoin: round; -webkit-user-select: text;"></path><path fill="none" stroke="#000000" d="M760,393L791,393L831,394" stroke-opacity="1" stroke-width="5" stroke-linecap="round" stroke-linejoin="round" style="-webkit-tap-highlight-color: rgba(0, 0, 0, 0); stroke-opacity: 1; stroke-linecap: round; stroke-linejoin: round; -webkit-user-select: text;"></path></svg>