<svg height="612" version="1.1" width="1142" xmlns="http://www.w3.org/2000/svg" xmlns:xlink="http://www.w3.org/1999/xlink" style="overflow: hidden; position: relative; user-select: text;"><desc style="-webkit-tap-highlight-color: rgba(0, 0, 0, 0); user-select: text;">Created with Raphaël 2.2.0</desc><defs style="-webkit-tap-highlight-color: rgba(0, 0, 0, 0); user-select: text;"></defs><path fill="none" stroke="#ff0000" d="M330,144L330,144L329,144L325,144L318,144L299,144L283,144L268,144L251,144L245,145L233,145L222,145L217,145L215,145L214,145L214,145" stroke-opacity="1" stroke-width="5" stroke-linecap="round" stroke-linejoin="round" style="-webkit-tap-highlight-color: rgba(0, 0, 0, 0); stroke-opacity: 1; stroke-linecap: round; stroke-linejoin: round; user-select: text;"></path><path fill="none" stroke="#ff0000" d="M409,188L409,189L407,189L404,189L392,189L374,190L350,193L320,198L299,200L291,202L274,206L269,207L262,208L261,209L260,209" stroke-opacity="1" stroke-width="5" stroke-linecap="round" stroke-linejoin="round" style="-webkit-tap-highlight-color: rgba(0, 0, 0, 0); stroke-opacity: 1; stroke-linecap: round; stroke-linejoin: round; user-select: text;"></path><path fill="none" stroke="#ff0000" d="M303,77L305,77L313,77L336,80L360,83L394,88L413,92L435,98L448,104L454,107L472,126L482,146L489,171L491,196L491,213L491,232L487,246L482,259L478,269L475,273L468,282L464,284L458,287L447,291L426,298L421,300L409,305L402,307L395,310L391,313L390,313L389,314L389,314" stroke-opacity="1" stroke-width="5" stroke-linecap="round" stroke-linejoin="round" style="-webkit-tap-highlight-color: rgba(0, 0, 0, 0); stroke-opacity: 1; stroke-linecap: round; stroke-linejoin: round; user-select: text;"></path></svg>