<svg height="578" version="1.1" width="1175" xmlns="http://www.w3.org/2000/svg" xmlns:xlink="http://www.w3.org/1999/xlink" style="overflow: hidden; position: relative; user-select: text;"><desc style="-webkit-tap-highlight-color: rgba(0, 0, 0, 0); user-select: text;">Created with Raphaël 2.2.0</desc><defs style="-webkit-tap-highlight-color: rgba(0, 0, 0, 0); user-select: text;"></defs><path fill="none" stroke="#000000" d="M216,79L216,80L216,81L217,85L219,88L222,93L224,96L227,101L230,106L232,109L236,117L238,122L240,127L241,130L243,133L244,136L244,137L245,139L246,140L247,140L247,141L247,141L247,142L247,142L248,142L248,142L248,142L248,142L249,141L250,139L251,138L254,133L257,129L259,125L262,120L266,116L270,111L274,107L279,103L281,100L283,99L285,97L287,95L288,94L288,93L289,93L289,93L288,93L288,93L287,93L286,93L282,93L278,94L273,94L267,96L260,98L252,99L245,100L236,102L228,103L222,103L215,104L214,104L209,105L208,105L205,105L204,105L203,105L203,105L202,105L203,105L203,106L203,106L203,107L203,109L203,112L204,115L205,118L205,122L206,126L208,135L208,140L209,145L210,149L211,154L212,159L213,162L213,164L213,166L214,167L214,168L214,168L214,168L215,168L215,168L215,168L216,168L217,167L220,166L225,165L230,164L236,163L242,161L248,159L258,158L265,156L276,153L282,152L288,151L291,150L294,150L296,150L296,150L297,150L297,149L297,149L297,149L297,148L296,147L296,146L295,145L294,143L292,141L291,139L289,136L288,134L286,131L284,129L283,127L280,124L277,122L275,120L273,118L269,117L266,115L264,115L259,113L255,111L251,110L246,109L243,108L239,107L235,106L230,106L226,106L224,106L221,106L220,106L217,106L213,107L210,108L207,109L205,109L202,111L199,112L196,114L195,115L193,116L191,118L190,119L189,120L187,122L186,123L184,125L183,127L181,130L180,131L179,133L178,135L177,137L176,140L176,141L175,142L175,144L174,145L174,145L174,146L174,147L173,147L173,148" stroke-opacity="1" stroke-width="5" stroke-linecap="round" stroke-linejoin="round" style="-webkit-tap-highlight-color: rgba(0, 0, 0, 0); stroke-opacity: 1; stroke-linecap: round; stroke-linejoin: round; user-select: text;"></path><path fill="none" stroke="#000000" d="M168,173L168,174L168,174L168,176L168,178L168,180L168,185L168,187L168,189L168,193L168,194L168,198L168,203L168,206L168,210L168,215L169,219L170,224L172,228L176,237L179,242L183,246L188,249L193,254L199,259L205,263L208,265L211,268L212,269L214,271L214,272L215,273L215,273L215,273L215,274L215,274L215,273L215,273L215,272L215,271L215,267L216,262L217,253L220,247L222,242L225,237L226,235L227,231L228,230L229,226L230,225L230,224L230,223L230,222L230,222L230,222L229,222L227,222L223,222L217,222L209,222L198,222L179,222L167,222L156,222L148,222L144,222L141,222L139,222L138,222L137,222L137,222L137,223L138,224L139,227L139,231L141,237L143,243L146,249L149,259L149,263L151,269L153,274L155,278L155,281L157,283L157,284L158,284L158,284L158,284L159,282L162,278L166,271L171,263L176,255L185,245L189,240L193,234L198,227L202,222L206,217L209,214L211,211L212,209L213,209L213,209L212,209L211,209L209,209L204,209L198,208L189,206L179,204L164,199L159,197L154,195L150,193L148,193L147,192L146,192L146,192L145,192L146,192L146,192L146,194L151,202L155,214L161,230L167,242L175,263L182,284L187,299L195,326L199,343L202,354L204,360L205,365L206,366L206,367L206,367" stroke-opacity="1" stroke-width="5" stroke-linecap="round" stroke-linejoin="round" style="-webkit-tap-highlight-color: rgba(0, 0, 0, 0); stroke-opacity: 1; stroke-linecap: round; stroke-linejoin: round; user-select: text;"></path><path fill="none" stroke="#000000" d="M224,375L224,375L226,375L243,375L261,375L283,375L303,375L316,375L328,375L334,375L339,375L340,375L341,375L341,375L339,371L337,366L335,358L333,348L331,339L329,329L328,324L326,320L325,319L324,317L323,316L323,315L322,314L322,314L321,314L321,314L319,314L316,314L311,316L304,318L296,320L291,321L286,322L283,323L280,323L280,323L279,323L279,323L279,323L279,324L279,324L279,328L279,333L280,341L281,350L282,361L283,371L284,380L285,391L286,402L286,409L286,414L286,416L286,417L286,418L286,417L286,415L287,413L287,409L290,405L296,395L305,385L314,376L322,369L330,361L338,353L341,350L344,346L347,343L348,342L349,340L349,339L350,339L350,338L348,338L346,338L343,338L334,338L317,336L301,333L286,330L276,326L270,325L265,323L262,322L260,321L259,321L259,321L259,323L259,328L260,331L262,340L264,347L266,354L270,362L273,367L280,377L285,382L289,386L293,388L299,391L304,393L310,394L317,395L326,395L333,395L341,395L347,395L357,392L365,389L371,385L379,381L383,378L385,377L386,375L387,375L387,375" stroke-opacity="1" stroke-width="5" stroke-linecap="round" stroke-linejoin="round" style="-webkit-tap-highlight-color: rgba(0, 0, 0, 0); stroke-opacity: 1; stroke-linecap: round; stroke-linejoin: round; user-select: text;"></path><path fill="none" stroke="#000000" d="M398,355L398,354L398,353L398,351L398,347L398,342L398,339L398,336L398,332L398,328L398,322L396,318L394,315L392,311L391,308L389,306L387,303L384,299L382,296L379,293L377,291L374,288L370,286L368,284L366,282L364,281L363,280L363,280L363,280L363,279L363,279L363,279L363,278L363,279L362,280L361,283L359,288L356,293L354,296L352,300L350,302L349,304L348,306L348,307L348,308L348,308L349,307L350,307L356,306L362,306L372,305L379,305L388,305L394,305L398,305L401,305L405,305L406,305L407,305L408,305L408,306L407,306L405,305L404,302L401,297L400,292L397,285L394,279L393,275L391,273L390,271L390,270L389,269L388,269L387,268L387,268L386,267L386,267L385,267L385,267L385,267L384,267L383,269L381,273L378,278L374,286L367,300L363,310L359,317L357,322L355,326L353,329L352,332L351,334L351,335L351,335L352,335L353,334L357,333L363,332L372,332L383,332L395,332L410,332L418,332L422,332L427,332L429,332L430,332L430,332L431,332L431,333L431,333L431,333L430,333L430,332L430,330" stroke-opacity="1" stroke-width="5" stroke-linecap="round" stroke-linejoin="round" style="-webkit-tap-highlight-color: rgba(0, 0, 0, 0); stroke-opacity: 1; stroke-linecap: round; stroke-linejoin: round; user-select: text;"></path><path fill="none" stroke="#000000" d="M446,328L446,327L447,327L451,324L457,320L465,315L472,310L481,306L485,303L488,301L489,300L490,300L490,300L490,300L489,299L489,298L488,297L488,295L486,290L484,284L479,277L472,267L468,261L462,255L458,251L455,248L453,246L452,244L451,244L451,243L450,244L447,248L444,254L435,265L429,274L425,279L421,283L419,285L419,287L418,287L418,287L420,287L423,287L426,287L437,286L447,285L457,284L465,284L474,284L480,284L484,284L487,284L488,284L488,284L488,283L488,281L488,279L488,272L488,265L488,256L488,251L488,244L488,240L486,236L484,232L482,230L479,228L477,226L472,223L469,222L464,220L459,218L451,216L448,214L444,212L440,211L437,210L431,209L430,209L426,209L424,209L421,209L418,209L415,209L411,210L409,212L407,212L404,213L402,213L400,214L398,215L396,215L394,215L394,215L393,215L393,215L393,215" stroke-opacity="1" stroke-width="5" stroke-linecap="round" stroke-linejoin="round" style="-webkit-tap-highlight-color: rgba(0, 0, 0, 0); stroke-opacity: 1; stroke-linecap: round; stroke-linejoin: round; user-select: text;"></path><path fill="none" stroke="#000000" d="M377,222L376,222L373,222L369,222L366,222L360,222L355,222L351,222L346,222L340,222L335,221L332,220L327,218L325,217L321,215L316,211L313,209L310,205L307,202L305,200L303,198L302,195L301,194L301,193L301,192L301,192L302,192L302,191L303,190L306,186L312,179L319,174L325,168L329,165L333,162L336,160L338,159L339,159L339,158L340,158L340,159L340,161L340,167L340,175L341,186L343,198L343,210L344,221L345,227L345,231L345,233L345,235L345,235L345,236L345,236L344,237L341,237L338,237L332,237L325,238L318,238L310,238L300,238L295,238L292,238L290,238L288,238L287,238L286,238L285,238L285,237L284,234L284,232L284,227L284,223L284,217L284,213L284,210L283,208L283,206L283,206L283,206L285,206L287,205L298,203L314,200L329,197L349,192L364,188L371,186L378,184L381,183L382,183L383,183L383,183L383,183L383,184L383,184L382,184L382,184L382,184L381,183L379,183" stroke-opacity="1" stroke-width="5" stroke-linecap="round" stroke-linejoin="round" style="-webkit-tap-highlight-color: rgba(0, 0, 0, 0); stroke-opacity: 1; stroke-linecap: round; stroke-linejoin: round; user-select: text;"></path></svg>