<svg height="578" version="1.1" width="1175" xmlns="http://www.w3.org/2000/svg" xmlns:xlink="http://www.w3.org/1999/xlink" style="overflow: hidden; position: relative; user-select: text;"><desc style="-webkit-tap-highlight-color: rgba(0, 0, 0, 0); user-select: text;">Created with Raphaël 2.2.0</desc><defs style="-webkit-tap-highlight-color: rgba(0, 0, 0, 0); user-select: text;"></defs><path fill="none" stroke="#ff0000" d="M210,131L210,131L261,203L263,207L264,210L264,211L265,211L265,212" stroke-opacity="1" stroke-width="5" stroke-linecap="round" stroke-linejoin="round" style="-webkit-tap-highlight-color: rgba(0, 0, 0, 0); stroke-opacity: 1; stroke-linecap: round; stroke-linejoin: round; user-select: text;"></path><path fill="none" stroke="#ff0000" d="M279,239L280,239L283,239L289,238L298,234L322,220L340,211L353,206L367,201L374,200L380,199L383,199L385,199L386,199L386,199" stroke-opacity="1" stroke-width="5" stroke-linecap="round" stroke-linejoin="round" style="-webkit-tap-highlight-color: rgba(0, 0, 0, 0); stroke-opacity: 1; stroke-linecap: round; stroke-linejoin: round; user-select: text;"></path><path fill="none" stroke="#ff0000" d="M391,237L391,243L391,251L391,261L391,270L391,320L391,329L391,334L391,338L391,340L391,340L391,341" stroke-opacity="1" stroke-width="5" stroke-linecap="round" stroke-linejoin="round" style="-webkit-tap-highlight-color: rgba(0, 0, 0, 0); stroke-opacity: 1; stroke-linecap: round; stroke-linejoin: round; user-select: text;"></path><path fill="none" stroke="#ff0000" d="M331,340L330,340L329,340L319,340L308,340L295,340L279,340L265,340L253,340L246,340L237,340L234,340L232,340L231,340L230,340L230,340L230,340L230,339L229,339" stroke-opacity="1" stroke-width="5" stroke-linecap="round" stroke-linejoin="round" style="-webkit-tap-highlight-color: rgba(0, 0, 0, 0); stroke-opacity: 1; stroke-linecap: round; stroke-linejoin: round; user-select: text;"></path><path fill="none" stroke="#ff0000" d="M220,364L220,370L222,375L224,385L228,399L233,411L238,424L242,436L245,449L250,460L253,465L255,472L256,474L257,475L257,476L258,477L258,477" stroke-opacity="1" stroke-width="5" stroke-linecap="round" stroke-linejoin="round" style="-webkit-tap-highlight-color: rgba(0, 0, 0, 0); stroke-opacity: 1; stroke-linecap: round; stroke-linejoin: round; user-select: text;"></path><path fill="none" stroke="#ff0000" d="M319,468L320,468L326,464L333,460L343,453L354,446L361,442L378,433L388,427L398,423L407,419L416,416L421,414L426,411L430,410L434,408L436,407L437,406L437,406L438,406" stroke-opacity="1" stroke-width="5" stroke-linecap="round" stroke-linejoin="round" style="-webkit-tap-highlight-color: rgba(0, 0, 0, 0); stroke-opacity: 1; stroke-linecap: round; stroke-linejoin: round; user-select: text;"></path><path fill="none" stroke="#ff0000" d="M449,366L449,366L449,362L447,357L445,347L443,334L440,321L438,309L436,302L434,291L432,285L431,282L431,281L431,280L430,279" stroke-opacity="1" stroke-width="5" stroke-linecap="round" stroke-linejoin="round" style="-webkit-tap-highlight-color: rgba(0, 0, 0, 0); stroke-opacity: 1; stroke-linecap: round; stroke-linejoin: round; user-select: text;"></path><path fill="none" stroke="#ff0000" d="M439,258L442,258L450,257L464,254L484,250L505,248L534,248L555,248L570,248L583,248L588,248L593,248L596,248L597,248L597,248" stroke-opacity="1" stroke-width="5" stroke-linecap="round" stroke-linejoin="round" style="-webkit-tap-highlight-color: rgba(0, 0, 0, 0); stroke-opacity: 1; stroke-linecap: round; stroke-linejoin: round; user-select: text;"></path><path fill="none" stroke="#ff0000" d="M590,281L590,284L589,289L585,302L581,316L579,327L571,356L567,374L562,390L558,405L555,417L553,422L552,426L551,428L551,429L551,430L551,430L551,431" stroke-opacity="1" stroke-width="5" stroke-linecap="round" stroke-linejoin="round" style="-webkit-tap-highlight-color: rgba(0, 0, 0, 0); stroke-opacity: 1; stroke-linecap: round; stroke-linejoin: round; user-select: text;"></path><path fill="none" stroke="#ff0000" d="M518,466L517,466L516,466L511,466L503,466L487,466L474,466L450,466L438,466L431,466L425,466L422,466L419,466L418,466L417,466L417,466L416,466L415,465" stroke-opacity="1" stroke-width="5" stroke-linecap="round" stroke-linejoin="round" style="-webkit-tap-highlight-color: rgba(0, 0, 0, 0); stroke-opacity: 1; stroke-linecap: round; stroke-linejoin: round; user-select: text;"></path><path fill="none" stroke="#ff0000" d="M396,497L397,498L400,502L406,506L413,512L422,517L431,523L439,528L449,533L459,539L463,542L468,545L470,547L472,549L474,550L475,551L475,551" stroke-opacity="1" stroke-width="5" stroke-linecap="round" stroke-linejoin="round" style="-webkit-tap-highlight-color: rgba(0, 0, 0, 0); stroke-opacity: 1; stroke-linecap: round; stroke-linejoin: round; user-select: text;"></path></svg>