<svg height="593" version="1.1" width="375" xmlns="http://www.w3.org/2000/svg" xmlns:xlink="http://www.w3.org/1999/xlink" style="overflow: hidden; position: relative; -webkit-user-select: text;"><desc style="-webkit-tap-highlight-color: rgba(0, 0, 0, 0); -webkit-user-select: text;">Created with Raphaël 2.2.0</desc><defs style="-webkit-tap-highlight-color: rgba(0, 0, 0, 0); -webkit-user-select: text;"></defs><path fill="none" stroke="#ff8c31" d="M131,255L134,254L145,252L159,248L174,243L188,236L201,232L214,226L222,222L230,219L235,217L238,217L240,216L242,216L244,216L245,216L246,216L247,216L247,220L247,226L247,234L247,245L245,255L243,267L240,276L237,285L235,292L233,298L232,302L231,305L230,308L230,309L230,310L230,311L229,311L228,311L226,311L224,311L220,311L214,309L207,306L199,303L190,299L182,296L174,293L166,290L161,289L157,288L154,287L152,287L150,286L149,286L148,286L148,285L148,284L148,283L148,280L149,276L154,268L159,259L166,250L171,242L176,234L179,227L182,223L183,219L185,216L186,213L187,210L188,208L188,207L189,205L189,203" stroke-opacity="1" stroke-width="5" stroke-linecap="round" stroke-linejoin="round" style="-webkit-tap-highlight-color: rgba(0, 0, 0, 0); stroke-opacity: 1; stroke-linecap: round; stroke-linejoin: round; -webkit-user-select: text;"></path><path fill="none" stroke="#ff8c31" d="M156,179L149,183L140,188L130,192L121,196L112,200L105,203L101,205L97,206L95,207L94,207" stroke-opacity="1" stroke-width="5" stroke-linecap="round" stroke-linejoin="round" style="-webkit-tap-highlight-color: rgba(0, 0, 0, 0); stroke-opacity: 1; stroke-linecap: round; stroke-linejoin: round; -webkit-user-select: text;"></path><path fill="none" stroke="#ff8c31" d="M95,249L96,255L98,262L100,272L103,281L105,288L107,297L108,303L109,308L109,312L110,315L110,317L110,318L110,319L110,320L110,322" stroke-opacity="1" stroke-width="5" stroke-linecap="round" stroke-linejoin="round" style="-webkit-tap-highlight-color: rgba(0, 0, 0, 0); stroke-opacity: 1; stroke-linecap: round; stroke-linejoin: round; -webkit-user-select: text;"></path><path fill="none" stroke="#ff8c31" d="M118,372L123,371L132,371L143,371L156,371L168,370L176,368L182,367L186,366L189,365L190,365L191,364L192,364L194,364L198,362" stroke-opacity="1" stroke-width="5" stroke-linecap="round" stroke-linejoin="round" style="-webkit-tap-highlight-color: rgba(0, 0, 0, 0); stroke-opacity: 1; stroke-linecap: round; stroke-linejoin: round; -webkit-user-select: text;"></path><path fill="none" stroke="#ff8c31" d="M260,319L261,321L261,325L262,333L266,344L269,355L273,364L276,371L278,376L279,380L280,380L280,382L281,383L281,384L283,385L284,386" stroke-opacity="1" stroke-width="5" stroke-linecap="round" stroke-linejoin="round" style="-webkit-tap-highlight-color: rgba(0, 0, 0, 0); stroke-opacity: 1; stroke-linecap: round; stroke-linejoin: round; -webkit-user-select: text;"></path><path fill="none" stroke="#ff8c31" d="M251,415L250,416L244,420L236,427L227,436L216,446L206,455L197,461L192,466L188,470L184,473L183,474L183,475L182,475L182,476" stroke-opacity="1" stroke-width="5" stroke-linecap="round" stroke-linejoin="round" style="-webkit-tap-highlight-color: rgba(0, 0, 0, 0); stroke-opacity: 1; stroke-linecap: round; stroke-linejoin: round; -webkit-user-select: text;"></path><path fill="none" stroke="#ff8c31" d="M96,448L92,447L89,445L83,443L79,439L75,436L70,433L66,430L62,429L60,427L57,426L55,426L53,425L51,424L50,424L49,424L49,423L48,423L47,423" stroke-opacity="1" stroke-width="5" stroke-linecap="round" stroke-linejoin="round" style="-webkit-tap-highlight-color: rgba(0, 0, 0, 0); stroke-opacity: 1; stroke-linecap: round; stroke-linejoin: round; -webkit-user-select: text;"></path><path fill="none" stroke="#ff8c31" d="M39,363L42,362L49,359L59,354L72,348L86,342L98,337L109,333L117,330L124,327L130,325L133,324L134,324L135,324L136,324L136,323L137,323" stroke-opacity="1" stroke-width="5" stroke-linecap="round" stroke-linejoin="round" style="-webkit-tap-highlight-color: rgba(0, 0, 0, 0); stroke-opacity: 1; stroke-linecap: round; stroke-linejoin: round; -webkit-user-select: text;"></path><path fill="none" stroke="#ff8c31" d="M169,335L170,337L170,342L170,349L170,359L172,368L173,377L174,386L175,394L176,401L177,407L178,411L178,412L179,414L179,415L179,416L179,417L179,418" stroke-opacity="1" stroke-width="5" stroke-linecap="round" stroke-linejoin="round" style="-webkit-tap-highlight-color: rgba(0, 0, 0, 0); stroke-opacity: 1; stroke-linecap: round; stroke-linejoin: round; -webkit-user-select: text;"></path><path fill="none" stroke="#ff8c31" d="M109,416L112,414L121,407L135,399L151,391L167,385L177,382L184,378L191,376L195,375L198,374L199,374L200,374L201,373L203,372" stroke-opacity="1" stroke-width="5" stroke-linecap="round" stroke-linejoin="round" style="-webkit-tap-highlight-color: rgba(0, 0, 0, 0); stroke-opacity: 1; stroke-linecap: round; stroke-linejoin: round; -webkit-user-select: text;"></path><path fill="none" stroke="#ff8c31" d="M261,330L262,328L264,325L267,321L270,318L274,315L277,312L281,310L285,308L288,305L290,304L292,303L294,302L296,301L297,300L298,299L299,299L300,299L300,298L301,297L302,297" stroke-opacity="1" stroke-width="5" stroke-linecap="round" stroke-linejoin="round" style="-webkit-tap-highlight-color: rgba(0, 0, 0, 0); stroke-opacity: 1; stroke-linecap: round; stroke-linejoin: round; -webkit-user-select: text;"></path><path fill="none" stroke="#ff8c31" d="M293,244L291,240L288,234L284,226L281,218L278,207L276,200L274,193L272,188L271,183L270,180L270,177L270,175L269,174L269,173L269,172L269,171" stroke-opacity="1" stroke-width="5" stroke-linecap="round" stroke-linejoin="round" style="-webkit-tap-highlight-color: rgba(0, 0, 0, 0); stroke-opacity: 1; stroke-linecap: round; stroke-linejoin: round; -webkit-user-select: text;"></path><path fill="none" stroke="#ff8c31" d="M248,158L240,159L229,161L215,165L202,167L192,169L181,170L172,171L164,172L159,172L153,173L150,173L147,173L146,173" stroke-opacity="1" stroke-width="5" stroke-linecap="round" stroke-linejoin="round" style="-webkit-tap-highlight-color: rgba(0, 0, 0, 0); stroke-opacity: 1; stroke-linecap: round; stroke-linejoin: round; -webkit-user-select: text;"></path><path fill="none" stroke="#ff8c31" d="M92,156L89,152L86,147L85,144L83,141L82,138L81,135L80,133L80,131L79,129L79,127L78,124L78,123L77,121L77,120L76,119L76,118L76,117" stroke-opacity="1" stroke-width="5" stroke-linecap="round" stroke-linejoin="round" style="-webkit-tap-highlight-color: rgba(0, 0, 0, 0); stroke-opacity: 1; stroke-linecap: round; stroke-linejoin: round; -webkit-user-select: text;"></path><path fill="none" stroke="#ff8c31" d="M114,103L119,102L127,102L137,101L149,100L161,100L170,99L177,98L181,98L185,98L186,98L188,98L189,98L190,98L191,98" stroke-opacity="1" stroke-width="5" stroke-linecap="round" stroke-linejoin="round" style="-webkit-tap-highlight-color: rgba(0, 0, 0, 0); stroke-opacity: 1; stroke-linecap: round; stroke-linejoin: round; -webkit-user-select: text;"></path><path fill="none" stroke="#ff8c31" d="M240,90L238,93L236,100L232,110L228,124L225,138L223,153L221,167L221,179L219,191L219,198L219,204L219,209L219,210L219,212L219,213L219,214" stroke-opacity="1" stroke-width="5" stroke-linecap="round" stroke-linejoin="round" style="-webkit-tap-highlight-color: rgba(0, 0, 0, 0); stroke-opacity: 1; stroke-linecap: round; stroke-linejoin: round; -webkit-user-select: text;"></path><path fill="none" stroke="#ff8c31" d="M96,164L101,164L114,164L132,164L154,163L174,161L190,159L205,157L214,155L221,153L225,151L227,151L229,150" stroke-opacity="1" stroke-width="5" stroke-linecap="round" stroke-linejoin="round" style="-webkit-tap-highlight-color: rgba(0, 0, 0, 0); stroke-opacity: 1; stroke-linecap: round; stroke-linejoin: round; -webkit-user-select: text;"></path><path fill="none" stroke="#ff8c31" d="M298,90L299,94L299,102L300,110L301,122L303,134L304,145L306,155L308,163L310,170L311,174L312,178L313,179L314,180L314,181L315,181L315,182" stroke-opacity="1" stroke-width="5" stroke-linecap="round" stroke-linejoin="round" style="-webkit-tap-highlight-color: rgba(0, 0, 0, 0); stroke-opacity: 1; stroke-linecap: round; stroke-linejoin: round; -webkit-user-select: text;"></path><path fill="none" stroke="#ff8c31" d="M333,175L329,180L320,191L309,203L291,219L275,234L258,248L243,261L229,274L215,284L201,294L192,301L184,307L179,309L176,310L175,311" stroke-opacity="1" stroke-width="5" stroke-linecap="round" stroke-linejoin="round" style="-webkit-tap-highlight-color: rgba(0, 0, 0, 0); stroke-opacity: 1; stroke-linecap: round; stroke-linejoin: round; -webkit-user-select: text;"></path><path fill="none" stroke="#ff8c31" d="M182,249L185,251L195,256L208,263L225,274L240,283L253,291L264,298L273,304L280,309L288,314L293,318L296,321L298,324L300,326L302,327L304,329L305,331" stroke-opacity="1" stroke-width="5" stroke-linecap="round" stroke-linejoin="round" style="-webkit-tap-highlight-color: rgba(0, 0, 0, 0); stroke-opacity: 1; stroke-linecap: round; stroke-linejoin: round; -webkit-user-select: text;"></path><path fill="none" stroke="#ff8c31" d="M330,267L330,271L330,277L331,284L332,295L333,304L335,312L337,321L338,327L339,331L340,335L341,337L342,337L342,338L342,339L342,340" stroke-opacity="1" stroke-width="5" stroke-linecap="round" stroke-linejoin="round" style="-webkit-tap-highlight-color: rgba(0, 0, 0, 0); stroke-opacity: 1; stroke-linecap: round; stroke-linejoin: round; -webkit-user-select: text;"></path><path fill="none" stroke="#ff8c31" d="M254,371L249,373L241,376L231,382L219,388L206,397L190,408" stroke-opacity="1" stroke-width="5" stroke-linecap="round" stroke-linejoin="round" style="-webkit-tap-highlight-color: rgba(0, 0, 0, 0); stroke-opacity: 1; stroke-linecap: round; stroke-linejoin: round; -webkit-user-select: text;"></path><path fill="none" stroke="#ff8c31" d="M241,307L246,311L252,319L259,330L268,343L276,357L285,369L291,377L296,386L299,391L302,395L303,398L304,400L305,400L305,401L306,402L307,404" stroke-opacity="1" stroke-width="5" stroke-linecap="round" stroke-linejoin="round" style="-webkit-tap-highlight-color: rgba(0, 0, 0, 0); stroke-opacity: 1; stroke-linecap: round; stroke-linejoin: round; -webkit-user-select: text;"></path><path fill="none" stroke="#ff8c31" d="M347,359L346,362L339,369L329,381L316,394L301,408L288,420L275,431L267,438L260,445L253,453" stroke-opacity="1" stroke-width="5" stroke-linecap="round" stroke-linejoin="round" style="-webkit-tap-highlight-color: rgba(0, 0, 0, 0); stroke-opacity: 1; stroke-linecap: round; stroke-linejoin: round; -webkit-user-select: text;"></path><path fill="none" stroke="#ff8c31" d="M160,405L161,411L161,423L165,438L170,453L175,468L179,477L182,484L184,489L186,494L187,497L188,501" stroke-opacity="1" stroke-width="5" stroke-linecap="round" stroke-linejoin="round" style="-webkit-tap-highlight-color: rgba(0, 0, 0, 0); stroke-opacity: 1; stroke-linecap: round; stroke-linejoin: round; -webkit-user-select: text;"></path><path fill="none" stroke="#ff8c31" d="M148,462L148,462" stroke-opacity="1" stroke-width="5" stroke-linecap="round" stroke-linejoin="round" style="-webkit-tap-highlight-color: rgba(0, 0, 0, 0); stroke-opacity: 1; stroke-linecap: round; stroke-linejoin: round; -webkit-user-select: text;"></path></svg>