<svg height="506" version="1.1" width="978" xmlns="http://www.w3.org/2000/svg" xmlns:xlink="http://www.w3.org/1999/xlink" style="overflow: hidden; position: relative; user-select: text;"><desc style="-webkit-tap-highlight-color: rgba(0, 0, 0, 0); user-select: text;">Created with Raphaël 2.2.0</desc><defs style="-webkit-tap-highlight-color: rgba(0, 0, 0, 0); user-select: text;"></defs><path fill="none" stroke="#ff0000" d="M432,289L432,289L431,288L424,280L408,264L380,237L345,205L320,184L293,159L276,140L268,132L263,127L259,123L258,122L257,121" stroke-opacity="1" stroke-width="5" stroke-linecap="round" stroke-linejoin="round" style="-webkit-tap-highlight-color: rgba(0, 0, 0, 0); stroke-opacity: 1; stroke-linecap: round; stroke-linejoin: round; user-select: text;"></path><path fill="none" stroke="#ff0000" d="M382,83L383,83L388,85L392,88L399,93L409,99L418,107L427,113L436,119L443,124L452,130L460,136L468,144L476,153L485,161L494,171L504,182L512,191L516,197L521,203L525,208L528,211L529,214L531,216L533,218L534,220L536,222L538,225L540,229L543,232L546,236L548,240L551,244L556,249L557,250L560,254L560,255L562,256L562,257L562,257L562,257" stroke-opacity="1" stroke-width="5" stroke-linecap="round" stroke-linejoin="round" style="-webkit-tap-highlight-color: rgba(0, 0, 0, 0); stroke-opacity: 1; stroke-linecap: round; stroke-linejoin: round; user-select: text;"></path></svg>