<svg height="612" version="1.1" width="1219" xmlns="http://www.w3.org/2000/svg" xmlns:xlink="http://www.w3.org/1999/xlink" style="overflow: hidden; position: relative; user-select: text;"><desc style="-webkit-tap-highlight-color: rgba(0, 0, 0, 0); user-select: text;">Created with Raphaël 2.2.0</desc><defs style="-webkit-tap-highlight-color: rgba(0, 0, 0, 0); user-select: text;"></defs><path fill="none" stroke="#ff0000" d="M290,227L291,226L293,223L298,218L310,206L325,191L335,181L347,169L365,155L377,151L389,150L402,150L413,153L422,156L430,160L438,165L452,172L467,180L476,185L500,199L516,211L530,223L542,235L550,246L555,253L560,261L563,266L564,269L565,270L565,271L565,272L565,272L565,272L561,274L549,281L529,295L504,311L477,327L462,336L447,345L439,350L432,355L429,357L427,359L426,361L426,361L426,362L426,362L426,362L426,363L425,363L425,363L424,362L423,362L419,361L409,358L384,356L345,356L307,356L264,360L227,366L216,369L207,372L204,373L203,374L202,374L202,375L202,375L202,375" stroke-opacity="1" stroke-width="5" stroke-linecap="round" stroke-linejoin="round" style="-webkit-tap-highlight-color: rgba(0, 0, 0, 0); stroke-opacity: 1; stroke-linecap: round; stroke-linejoin: round; user-select: text;"></path><path fill="none" stroke="#ff0000" d="M896,496L896,496L896,495L896,494L896,492L896,489L895,485L892,480L888,475L884,471L876,464L870,460L863,456L855,454L845,452L834,451L824,451L813,451L800,455L789,459L780,464L771,470L764,475L760,479L755,484L751,487L748,490L746,492L745,494L744,495L743,496L743,496L742,497L742,497L742,497L742,497L741,497L741,497L741,497L741,496L740,496L740,496L740,496L740,496L740,495L740,495L740,495L739,495L739,494L738,493L736,492L733,490L727,488L720,486L705,483L695,483L683,483L673,483L664,485L656,489L648,494L640,499L633,504L627,510L619,516L613,523L609,526L605,531L603,535L601,537L601,537L601,538L600,538L600,537L600,537L600,537L600,537L600,537L600,537L599,536L599,536L599,536L599,536L599,536L599,536L598,536L598,535L597,535L597,534L596,533L594,530L592,525L589,513L586,497L584,476L582,453L582,427L584,402L594,374L619,330L637,303L661,276L674,262L689,248L702,237L712,228L722,222L732,217L742,215L750,214L758,214L767,214L782,220L800,230L820,243L834,254L847,267L855,278L859,285L862,292L865,300L866,306L867,311L869,316L870,321L871,325L873,328L874,331L874,333L875,334L875,335L875,335L875,335L875,335L875,335L875,334L875,333L876,330L880,327L889,319L900,310L912,303L925,296L937,290L947,287L956,285L966,285L975,285L992,289L1009,299L1016,304L1038,325L1051,341L1063,360L1069,374L1076,390L1079,402L1080,410L1080,418L1077,424L1072,430L1067,434L1062,437L1058,440L1054,443L1052,445L1050,446L1049,447L1048,448L1047,448L1047,449L1046,449L1046,449L1046,449L1046,449L1045,449L1045,449" stroke-opacity="1" stroke-width="5" stroke-linecap="round" stroke-linejoin="round" style="-webkit-tap-highlight-color: rgba(0, 0, 0, 0); stroke-opacity: 1; stroke-linecap: round; stroke-linejoin: round; user-select: text;"></path></svg>