<svg height="612" version="1.1" width="1219" xmlns="http://www.w3.org/2000/svg" xmlns:xlink="http://www.w3.org/1999/xlink" style="overflow: hidden; position: relative; user-select: text;"><desc style="-webkit-tap-highlight-color: rgba(0, 0, 0, 0); user-select: text;">Created with Raphaël 2.2.0</desc><defs style="-webkit-tap-highlight-color: rgba(0, 0, 0, 0); user-select: text;"></defs><path fill="none" stroke="#ff0000" d="M290,227L291,226L293,223L298,218L310,206L325,191L335,181L347,169L365,155L377,151L389,150L402,150L413,153L422,156L430,160L438,165L452,172L467,180L476,185L500,199L516,211L530,223L542,235L550,246L555,253L560,261L563,266L564,269L565,270L565,271L565,272L565,272L565,272L561,274L549,281L529,295L504,311L477,327L462,336L447,345L439,350L432,355L429,357L427,359L426,361L426,361L426,362L426,362L426,362L426,363L425,363L425,363L424,362L423,362L419,361L409,358L384,356L345,356L307,356L264,360L227,366L216,369L207,372L204,373L203,374L202,374L202,375L202,375L202,375" stroke-opacity="1" stroke-width="5" stroke-linecap="round" stroke-linejoin="round" style="-webkit-tap-highlight-color: rgba(0, 0, 0, 0); stroke-opacity: 1; stroke-linecap: round; stroke-linejoin: round; user-select: text;"></path></svg>