<svg height="594" version="1.1" width="1112" xmlns="http://www.w3.org/2000/svg" xmlns:xlink="http://www.w3.org/1999/xlink" style="overflow: hidden; position: relative; user-select: text;"><desc style="-webkit-tap-highlight-color: rgba(0, 0, 0, 0); user-select: text;">Created with Raphaël 2.2.0</desc><defs style="-webkit-tap-highlight-color: rgba(0, 0, 0, 0); user-select: text;"></defs><path fill="none" stroke="#ff0000" d="M274,117L274,117L274,119L274,131L274,143L276,160L278,183L278,198L278,206L278,210L278,212L278,213L278,213L277,213L277,213L277,213L276,213L276,213L276,213L274,213L270,213L261,213L247,213L227,211L206,208L191,205L178,202L175,201L171,200L169,199L169,199L168,199L168,199" stroke-opacity="1" stroke-width="5" stroke-linecap="round" stroke-linejoin="round" style="-webkit-tap-highlight-color: rgba(0, 0, 0, 0); stroke-opacity: 1; stroke-linecap: round; stroke-linejoin: round; user-select: text;"></path><path fill="none" stroke="#ff0000" d="M177,160L177,160L179,160L191,164L203,168L219,173L236,179L247,182L254,184L261,186L264,187L265,187L264,187L264,186" stroke-opacity="1" stroke-width="5" stroke-linecap="round" stroke-linejoin="round" style="-webkit-tap-highlight-color: rgba(0, 0, 0, 0); stroke-opacity: 1; stroke-linecap: round; stroke-linejoin: round; user-select: text;"></path><path fill="none" stroke="#ff0000" d="M255,237L255,237L255,240L255,255L255,270L253,288L250,300L250,308L250,314L250,317" stroke-opacity="1" stroke-width="5" stroke-linecap="round" stroke-linejoin="round" style="-webkit-tap-highlight-color: rgba(0, 0, 0, 0); stroke-opacity: 1; stroke-linecap: round; stroke-linejoin: round; user-select: text;"></path><path fill="none" stroke="#ff0000" d="M194,287L193,287L192,287L190,287L180,285L175,283L170,281L166,279L163,277L161,277L160,276L158,276L157,275L157,275" stroke-opacity="1" stroke-width="5" stroke-linecap="round" stroke-linejoin="round" style="-webkit-tap-highlight-color: rgba(0, 0, 0, 0); stroke-opacity: 1; stroke-linecap: round; stroke-linejoin: round; user-select: text;"></path><path fill="none" stroke="#ff0000" d="M156,235L157,235L159,235L168,235L182,235L204,235L219,235L230,235L242,235L244,235L246,235" stroke-opacity="1" stroke-width="5" stroke-linecap="round" stroke-linejoin="round" style="-webkit-tap-highlight-color: rgba(0, 0, 0, 0); stroke-opacity: 1; stroke-linecap: round; stroke-linejoin: round; user-select: text;"></path><path fill="none" stroke="#ff0000" d="M280,227L280,227L282,227L286,227L292,227L300,228L303,230L307,233L310,236L313,240L314,243L316,247L317,252L319,260L319,265L320,271L320,278L320,284L320,289L320,296L320,301L320,308L320,314L320,318L320,323L323,328L325,332L330,338L334,341L340,343L347,344L354,345L360,345L368,345L374,345L377,344L381,340L382,339L383,338L383,337L383,336" stroke-opacity="1" stroke-width="5" stroke-linecap="round" stroke-linejoin="round" style="-webkit-tap-highlight-color: rgba(0, 0, 0, 0); stroke-opacity: 1; stroke-linecap: round; stroke-linejoin: round; user-select: text;"></path><path fill="none" stroke="#ff0000" d="M370,262L369,261L368,260L364,253L358,241L351,223L347,214L343,207L341,204L340,202L339,202" stroke-opacity="1" stroke-width="5" stroke-linecap="round" stroke-linejoin="round" style="-webkit-tap-highlight-color: rgba(0, 0, 0, 0); stroke-opacity: 1; stroke-linecap: round; stroke-linejoin: round; user-select: text;"></path><path fill="none" stroke="#ff0000" d="M331,142L331,142L331,149L329,159L323,174L314,195L304,219L296,235L292,244L290,248L289,249" stroke-opacity="1" stroke-width="5" stroke-linecap="round" stroke-linejoin="round" style="-webkit-tap-highlight-color: rgba(0, 0, 0, 0); stroke-opacity: 1; stroke-linecap: round; stroke-linejoin: round; user-select: text;"></path><path fill="none" stroke="#ff0000" d="M265,311L265,311L269,313L276,318L284,323L292,327L304,336L310,340L315,343L317,345L318,345L318,346L319,346" stroke-opacity="1" stroke-width="5" stroke-linecap="round" stroke-linejoin="round" style="-webkit-tap-highlight-color: rgba(0, 0, 0, 0); stroke-opacity: 1; stroke-linecap: round; stroke-linejoin: round; user-select: text;"></path><path fill="none" stroke="#ff0000" d="M290,368L289,368L288,369L286,373L283,377L280,382L276,387L273,390L268,394L264,396L259,398L253,399L246,400L242,400L236,400L228,400L223,399L218,396L215,395L210,392L205,389L199,384L197,381L194,378L192,375L190,372L188,367L187,363L186,360L184,352L183,349L181,345L179,342L177,338L174,336L170,332L165,330L161,329L157,328L153,328L148,327L145,327L142,327L139,327L138,327L136,327L135,327L135,327L135,327L135,328" stroke-opacity="1" stroke-width="5" stroke-linecap="round" stroke-linejoin="round" style="-webkit-tap-highlight-color: rgba(0, 0, 0, 0); stroke-opacity: 1; stroke-linecap: round; stroke-linejoin: round; user-select: text;"></path><path fill="none" stroke="#ff0000" d="M102,315L102,315L102,314L102,309L102,287L102,260L101,235L100,217L99,205L98,199L98,197L98,197L98,198" stroke-opacity="1" stroke-width="5" stroke-linecap="round" stroke-linejoin="round" style="-webkit-tap-highlight-color: rgba(0, 0, 0, 0); stroke-opacity: 1; stroke-linecap: round; stroke-linejoin: round; user-select: text;"></path><path fill="none" stroke="#ff0000" d="M92,175L93,175L97,175L101,175L123,172L137,171L148,170L158,170L163,170L165,170L165,170L166,170L165,170" stroke-opacity="1" stroke-width="5" stroke-linecap="round" stroke-linejoin="round" style="-webkit-tap-highlight-color: rgba(0, 0, 0, 0); stroke-opacity: 1; stroke-linecap: round; stroke-linejoin: round; user-select: text;"></path><path fill="none" stroke="#ff0000" d="M154,214L154,215L154,216L154,223L151,235L150,245L147,257L146,263L145,272L145,273L145,274L145,275" stroke-opacity="1" stroke-width="5" stroke-linecap="round" stroke-linejoin="round" style="-webkit-tap-highlight-color: rgba(0, 0, 0, 0); stroke-opacity: 1; stroke-linecap: round; stroke-linejoin: round; user-select: text;"></path><path fill="none" stroke="#ff0000" d="M119,272L118,272L117,272L111,272L98,271L88,270L75,267L68,267L59,265L58,264L55,264L55,264L55,263" stroke-opacity="1" stroke-width="5" stroke-linecap="round" stroke-linejoin="round" style="-webkit-tap-highlight-color: rgba(0, 0, 0, 0); stroke-opacity: 1; stroke-linecap: round; stroke-linejoin: round; user-select: text;"></path><path fill="none" stroke="#ff0000" d="M53,248L55,248L57,248L65,246L78,239L90,233L105,224L112,221L115,219L117,218L118,218L119,218L119,218L120,218L121,218L122,218L125,218L127,219L130,219L134,220L138,221L143,222L146,223L149,224L151,225L153,226L155,228L157,229L160,232L161,233L163,235L164,237L165,239L165,241L167,244L167,247L168,250L168,253L168,257L168,261L168,266L168,270L168,274L168,279L168,282L168,285L168,288L168,291L168,295L169,299L169,303L170,308L173,315L175,319L177,322L181,327L185,330L186,331L187,332L188,333L189,333L189,331" stroke-opacity="1" stroke-width="5" stroke-linecap="round" stroke-linejoin="round" style="-webkit-tap-highlight-color: rgba(0, 0, 0, 0); stroke-opacity: 1; stroke-linecap: round; stroke-linejoin: round; user-select: text;"></path><path fill="none" stroke="#ff0000" d="M220,351L223,351L229,351L238,351L248,351L253,351L258,351L262,351L263,351L264,351" stroke-opacity="1" stroke-width="5" stroke-linecap="round" stroke-linejoin="round" style="-webkit-tap-highlight-color: rgba(0, 0, 0, 0); stroke-opacity: 1; stroke-linecap: round; stroke-linejoin: round; user-select: text;"></path><path fill="none" stroke="#ff0000" d="M278,331L278,331L278,329L280,324L286,315L296,300L302,291L309,281L315,272L318,268L321,262L323,260L323,259L324,259L324,259" stroke-opacity="1" stroke-width="5" stroke-linecap="round" stroke-linejoin="round" style="-webkit-tap-highlight-color: rgba(0, 0, 0, 0); stroke-opacity: 1; stroke-linecap: round; stroke-linejoin: round; user-select: text;"></path><path fill="none" stroke="#ff0000" d="M322,255L322,255L320,255L318,254L315,252L308,249L301,245L294,243L286,242L279,241L275,241L267,241L264,243L261,244L258,247L256,251L255,255L253,259L251,266L250,273L248,282L247,290L247,297L247,303L247,312L247,319L247,326L249,333L252,341L253,347L256,352L259,358L263,364L267,368L271,374L275,378L279,381L284,385L287,388L290,392L293,396L295,399L296,401L298,407L300,411L301,414L301,418L302,420L302,422L302,424L302,426L302,427L302,429L302,430L301,431L301,431L300,432L300,432L300,433L300,433" stroke-opacity="1" stroke-width="5" stroke-linecap="round" stroke-linejoin="round" style="-webkit-tap-highlight-color: rgba(0, 0, 0, 0); stroke-opacity: 1; stroke-linecap: round; stroke-linejoin: round; user-select: text;"></path></svg>