<svg height="593" version="1.1" width="375" xmlns="http://www.w3.org/2000/svg" xmlns:xlink="http://www.w3.org/1999/xlink" style="overflow: hidden; position: relative; -webkit-user-select: text;"><desc style="-webkit-tap-highlight-color: rgba(0, 0, 0, 0); -webkit-user-select: text;">Created with Raphaël 2.2.0</desc><defs style="-webkit-tap-highlight-color: rgba(0, 0, 0, 0); -webkit-user-select: text;"></defs><path fill="none" stroke="#ff0000" d="M115,273L116,273L118,271L122,268L128,265L133,261L138,257L142,253L147,250L151,247L155,244L159,242L163,240L166,238L170,236L172,235L174,234L176,233L178,232L181,231L183,229L187,228L190,226L193,224L196,222L200,219L204,217L208,214L211,211L214,209L217,207L219,205L221,204L223,203L224,202L225,201L226,200L227,200L228,200L228,199L229,199L230,199L231,200L231,201L231,202L231,203L232,204" stroke-opacity="1" stroke-width="5" stroke-linecap="round" stroke-linejoin="round" style="-webkit-tap-highlight-color: rgba(0, 0, 0, 0); stroke-opacity: 1; stroke-linecap: round; stroke-linejoin: round; -webkit-user-select: text;"></path><path fill="none" stroke="#ff0000" d="M253,252L252,253L252,259L250,269L248,280L244,294L241,306L240,316L238,325L237,333L235,340L235,345L234,349L234,353L234,355L234,357L234,358L234,359L234,360L233,360" stroke-opacity="1" stroke-width="5" stroke-linecap="round" stroke-linejoin="round" style="-webkit-tap-highlight-color: rgba(0, 0, 0, 0); stroke-opacity: 1; stroke-linecap: round; stroke-linejoin: round; -webkit-user-select: text;"></path><path fill="none" stroke="#ff0000" d="M187,394L182,394L177,393L169,389L161,385L153,380L147,375L140,371L134,367L130,365L124,362L121,360L117,358L115,356L112,354L109,352L107,350L105,348L103,347L102,346L100,345" stroke-opacity="1" stroke-width="5" stroke-linecap="round" stroke-linejoin="round" style="-webkit-tap-highlight-color: rgba(0, 0, 0, 0); stroke-opacity: 1; stroke-linecap: round; stroke-linejoin: round; -webkit-user-select: text;"></path><path fill="none" stroke="#ff0000" d="M50,297L52,293L55,286L60,274L66,258L72,243L79,225L84,209L90,195L96,183L100,172L103,165L104,159L106,155L107,152L108,150L108,149L108,148L108,147" stroke-opacity="1" stroke-width="5" stroke-linecap="round" stroke-linejoin="round" style="-webkit-tap-highlight-color: rgba(0, 0, 0, 0); stroke-opacity: 1; stroke-linecap: round; stroke-linejoin: round; -webkit-user-select: text;"></path><path fill="none" stroke="#ff0000" d="M148,88L153,89L160,89L169,89L179,89L191,89L203,89L214,89L226,89L235,89L245,88L251,87L255,86L258,86L260,86L261,86L262,86L263,86L264,86L265,86" stroke-opacity="1" stroke-width="5" stroke-linecap="round" stroke-linejoin="round" style="-webkit-tap-highlight-color: rgba(0, 0, 0, 0); stroke-opacity: 1; stroke-linecap: round; stroke-linejoin: round; -webkit-user-select: text;"></path><path fill="none" stroke="#ff0000" d="M295,125L297,130L297,136L297,146L299,156L301,168L303,178L306,189L308,197L309,205L311,212L311,216L312,220L312,222L312,225L312,226L312,228L312,229L312,230" stroke-opacity="1" stroke-width="5" stroke-linecap="round" stroke-linejoin="round" style="-webkit-tap-highlight-color: rgba(0, 0, 0, 0); stroke-opacity: 1; stroke-linecap: round; stroke-linejoin: round; -webkit-user-select: text;"></path><path fill="none" stroke="#ff0000" d="M316,306L314,308L312,314L306,322L298,333L291,343L284,353L277,360L272,365L270,368L268,371L267,372L266,374L265,374L265,375L265,376" stroke-opacity="1" stroke-width="5" stroke-linecap="round" stroke-linejoin="round" style="-webkit-tap-highlight-color: rgba(0, 0, 0, 0); stroke-opacity: 1; stroke-linecap: round; stroke-linejoin: round; -webkit-user-select: text;"></path><path fill="none" stroke="#ff0000" d="M197,463L193,462L188,462L182,461L174,460L167,458L160,456L154,454L149,452L144,450L139,447L134,444L130,441L125,438L121,435L117,432L114,428L111,425L109,422L106,419L105,415L103,412L102,409L100,405L99,402L98,397L97,393L97,390L96,386L96,382L96,378L96,374L96,369L96,365L96,360L96,355L96,350L96,345L96,341L97,337L97,333L98,330L99,327L100,324L101,320L103,316L104,312L106,309L107,306L109,303L111,299L112,295L114,291L117,287L119,283L122,279L124,276L128,272L130,269L133,265L135,261L138,258L140,255L142,252L144,249L145,246L148,243L149,240L151,237L153,234L155,230L156,227L158,224L159,221L161,218L161,216L162,214L163,212L163,211L164,211L164,210L164,209L164,208L164,207" stroke-opacity="1" stroke-width="5" stroke-linecap="round" stroke-linejoin="round" style="-webkit-tap-highlight-color: rgba(0, 0, 0, 0); stroke-opacity: 1; stroke-linecap: round; stroke-linejoin: round; -webkit-user-select: text;"></path><path fill="none" stroke="#ff0000" d="M167,148L168,146L168,143L168,138L169,133L170,128L171,123L172,118L172,113L172,107L172,102L172,97L169,91L167,85L162,79L159,75L156,71L154,68L151,66L149,64L146,63L144,62L141,62L139,61L136,61L133,61L129,61L124,61L120,61L116,61L112,62L107,64L101,66L96,68L91,70L85,72L80,75L76,77L72,80L67,83L63,86L60,89L56,92L53,94L50,97L47,101L45,104L43,107L41,109L40,112L40,115L39,117L39,120L39,122L39,124L39,125L39,127L39,128L39,129L39,131" stroke-opacity="1" stroke-width="5" stroke-linecap="round" stroke-linejoin="round" style="-webkit-tap-highlight-color: rgba(0, 0, 0, 0); stroke-opacity: 1; stroke-linecap: round; stroke-linejoin: round; -webkit-user-select: text;"></path><path fill="none" stroke="#ff0000" d="M50,164L49,166L49,169L49,172L49,178L49,183L49,189L50,194L51,199L52,204L54,208L56,212L57,215L59,218L62,222L64,225L66,228L69,231L72,234L75,237L78,241L81,244L84,247L88,249L91,251L94,253L97,255L100,255L102,256L104,256L106,257L110,257L113,258L116,259L120,260L123,260L127,261L130,261L133,261L136,261L139,261L141,261L145,261L149,261L154,261L159,261L164,261L170,261L174,260L178,260L183,259L189,259L195,258L201,258L207,258L212,258L217,258L222,258L228,258L233,258L239,258L244,258L249,258L253,258L257,259L261,260L265,262L268,263L271,265L274,266L276,268L279,270L281,272L283,273L284,274L285,275L286,276L289,279" stroke-opacity="1" stroke-width="5" stroke-linecap="round" stroke-linejoin="round" style="-webkit-tap-highlight-color: rgba(0, 0, 0, 0); stroke-opacity: 1; stroke-linecap: round; stroke-linejoin: round; -webkit-user-select: text;"></path><path fill="none" stroke="#ff0000" d="M304,315L306,317L306,320L307,324L308,327L308,331L309,335L309,338L309,342L309,346L309,351L309,356L309,362L308,368L307,372L306,377L304,382L303,386L302,390L300,394L297,398L295,401L292,405L289,408L286,410L283,412L280,412L277,413L274,413L272,413L269,414L266,414L264,414L260,414L256,414L253,414L249,414L245,414L240,414L236,414L232,414L229,413L225,412L221,411L216,410L211,408L205,405L200,403L195,401L190,398L186,396L182,394L178,391L173,388L170,385L166,382L162,379L159,376L156,374L154,371L153,369L151,367L150,366L149,364L148,363L147,361L146,360L146,359" stroke-opacity="1" stroke-width="5" stroke-linecap="round" stroke-linejoin="round" style="-webkit-tap-highlight-color: rgba(0, 0, 0, 0); stroke-opacity: 1; stroke-linecap: round; stroke-linejoin: round; -webkit-user-select: text;"></path></svg>